<svg viewBox="0 0 24 24" fill="currentColor" xmlns="http://www.w3.org/2000/svg">
<path d="M18 6C19.1046 6 20 5.10457 20 4C20 2.89543 19.1046 2 18 2C16.8954 2 16 2.89543 16 4C16 4.2645 16.0513 4.51701 16.1446 4.74811C16.2502 4.90774 16.3471 5.07367 16.4348 5.24514C16.8012 5.70516 17.3662 6 18 6Z" fill="currentColor"/>
<path d="M7.85539 4.74811C7.94865 4.51701 8 4.2645 8 4C8 2.89543 7.10457 2 6 2C4.89543 2 4 2.89543 4 4C4 5.10457 4.89543 6 6 6C6.63383 6 7.1988 5.70516 7.56523 5.24514C7.65286 5.07367 7.7498 4.90774 7.85539 4.74811Z" fill="currentColor"/>
<path d="M16.9655 7C16.9883 7.1971 17 7.39734 17 7.6C17 8.98006 16.4567 10.2482 15.5663 11.1747C15.7228 11.2949 15.8884 11.4037 16.062 11.5H17.25C17.8288 11.5 18.3658 11.651 18.8299 11.9138C20.6408 11.5317 22 9.9246 22 8C22 7.44772 21.5523 7 21 7H16.9655Z" fill="currentColor"/>
<path d="M7.938 11.5H6.75C6.17125 11.5 5.6342 11.651 5.17014 11.9138C3.35924 11.5317 2 9.9246 2 8C2 7.44772 2.44772 7 3 7H7.03452C7.01171 7.1971 7 7.39734 7 7.6C7 8.98006 7.54327 10.2482 8.4337 11.1747C8.2772 11.2949 8.11156 11.4037 7.938 11.5Z" fill="currentColor"/>
<path d="M12 11.2C13.933 11.2 15.5 9.58822 15.5 7.6C15.5 5.61177 13.933 4 12 4C10.067 4 8.5 5.61177 8.5 7.6C8.5 9.58822 10.067 11.2 12 11.2Z" fill="currentColor"/>
<path d="M6.75 13C5.7835 13 5 13.8059 5 14.8C5 18.7764 8.13401 22 12 22C15.866 22 19 18.7764 19 14.8C19 13.8059 18.2165 13 17.25 13H6.75ZM12.75 14.5V16.25H14.5C14.9142 16.25 15.25 16.5858 15.25 17C15.25 17.4142 14.9142 17.75 14.5 17.75H12.75V19.5C12.75 19.9142 12.4142 20.25 12 20.25C11.5858 20.25 11.25 19.9142 11.25 19.5V17.75H9.5C9.08579 17.75 8.75 17.4142 8.75 17C8.75 16.5858 9.08579 16.25 9.5 16.25H11.25V14.5C11.25 14.0858 11.5858 13.75 12 13.75C12.4142 13.75 12.75 14.0858 12.75 14.5Z" fill="currentColor"/>
</svg>
