<svg viewBox="0 0 24 24" fill="currentColor" xmlns="http://www.w3.org/2000/svg">
<path d="M17.5 22C15.0147 22 13 19.9853 13 17.5C13 15.0147 15.0147 13 17.5 13C19.9853 13 22 15.0147 22 17.5C22 19.9853 19.9853 22 17.5 22ZM18.25 15C18.25 14.5858 17.9142 14.25 17.5 14.25C17.0858 14.25 16.75 14.5858 16.75 15V16.75H15C14.5858 16.75 14.25 17.0858 14.25 17.5C14.25 17.9142 14.5858 18.25 15 18.25H16.75V20C16.75 20.4142 17.0858 20.75 17.5 20.75C17.9142 20.75 18.25 20.4142 18.25 20V18.25H20C20.4142 18.25 20.75 17.9142 20.75 17.5C20.75 17.0858 20.4142 16.75 20 16.75H18.25V15Z" fill="currentColor"/>
<path d="M10 10C12.2091 10 14 8.20914 14 6C14 3.79086 12.2091 2 10 2C7.79086 2 6 3.79086 6 6C6 8.20914 7.79086 10 10 10Z" fill="currentColor"/>
<path d="M4 12C2.89543 12 2 12.8954 2 14C2 18.4183 5.58172 22 10 22C11.0485 22 12.0499 21.7983 12.9675 21.4316C12.0533 20.3786 11.5 19.0039 11.5 17.5C11.5 15.0403 12.9801 12.9263 15.0983 12H4Z" fill="currentColor"/>
</svg>
