<svg viewBox="0 0 24 24" fill="currentColor" xmlns="http://www.w3.org/2000/svg">
<path d="M11 7V17.25H7V10.8889H5C3.34315 10.8889 2 9.54574 2 7.88889V5C2 3.34315 3.34315 2 5 2H6C8.76142 2 11 4.23858 11 7ZM4.75 5C4.75 4.58579 4.41421 4.25 4 4.25C3.58579 4.25 3.25 4.58579 3.25 5V8C3.25 8.41421 3.58579 8.75 4 8.75C4.41421 8.75 4.75 8.41421 4.75 8V5Z" fill="currentColor"/>
<path d="M13 7V17.25H17V10.8889H19C20.6569 10.8889 22 9.54574 22 7.88889V5C22 3.34315 20.6569 2 19 2H18C15.2386 2 13 4.23858 13 7ZM20.75 5V8C20.75 8.41421 20.4142 8.75 20 8.75C19.5858 8.75 19.25 8.41421 19.25 8V5C19.25 4.58579 19.5858 4.25 20 4.25C20.4142 4.25 20.75 4.58579 20.75 5Z" fill="currentColor"/>
<path d="M13 20V18.75H17V20C17 21.1046 16.1046 22 15 22C13.8954 22 13 21.1046 13 20Z" fill="currentColor"/>
<path d="M11 18.75H7V20C7 21.1046 7.89543 22 9 22C10.1046 22 11 21.1046 11 20V18.75Z" fill="currentColor"/>
</svg>
