<svg viewBox="0 0 24 24" fill="currentColor" xmlns="http://www.w3.org/2000/svg">
<path d="M13 15.9291C16.3923 15.4439 19 12.5265 19 9C19 5.13401 15.866 2 12 2C8.13401 2 5 5.13401 5 9C5 12.5265 7.60771 15.4439 11 15.9291V18.4L8.06812 19.5728C7.42301 19.8308 7 20.4556 7 21.1504C7 21.6196 7.38038 22 7.84959 22H16.1504C16.6196 22 17 21.6196 17 21.1504C17 20.4556 16.577 19.8308 15.9319 19.5728L13 18.4V15.9291ZM11.4697 2.46967C11.7626 2.17678 12.2374 2.17678 12.5303 2.46967C13.4964 3.43578 13.9691 4.74811 13.8912 6.05445C13.4488 5.76983 12.9382 5.58215 12.3893 5.52141C12.3303 4.78673 12.0163 4.07693 11.4697 3.53033C11.1768 3.23744 11.1768 2.76256 11.4697 2.46967ZM12 11C10.8954 11 10 10.1046 10 9C10 7.89543 10.8954 7 12 7C13.1046 7 14 7.89543 14 9C14 10.1046 13.1046 11 12 11ZM9.05453 7.10865C8.7699 7.551 8.58219 8.06164 8.52143 8.61055C7.78663 8.66947 7.07671 8.98349 6.53003 9.53018C6.23713 9.82307 5.76226 9.82307 5.46936 9.53018C5.17647 9.23728 5.17647 8.76241 5.46936 8.46952C6.43557 7.50331 7.74806 7.03063 9.05453 7.10865ZM11.4697 15.5303C10.5036 14.5642 10.0309 13.2519 10.1088 11.9455C10.5512 12.2302 11.0618 12.4179 11.6107 12.4786C11.6697 13.2133 11.9837 13.9231 12.5303 14.4697C12.8232 14.7626 12.8232 15.2374 12.5303 15.5303C12.2374 15.8232 11.7626 15.8232 11.4697 15.5303ZM14.9455 10.8914C15.2301 10.449 15.4178 9.93836 15.4786 9.38945C16.2134 9.33053 16.9233 9.01651 17.47 8.46982C17.7629 8.17693 18.2377 8.17693 18.5306 8.46982C18.8235 8.76272 18.8235 9.23759 18.5306 9.53048C17.5644 10.4967 16.2519 10.9694 14.9455 10.8914Z" fill="currentColor"/>
</svg>
