<svg viewBox="0 0 24 24" fill="currentColor" xmlns="http://www.w3.org/2000/svg">
<path d="M19.6232 2.65254C19.2987 2.32807 18.795 2.26606 18.4016 2.50215L16.1984 3.82402L20.1759 7.8015L21.4978 5.59838C21.7339 5.2049 21.6719 4.70125 21.3474 4.37678L19.6232 2.65254Z" fill="currentColor"/>
<path d="M19.2478 8.99484L15.0052 4.7522L12.5303 7.22706L16.773 11.4697L19.2478 8.99484ZM16.0659 6.51995L17.4801 7.93416C17.773 8.22706 17.773 8.70193 17.4801 8.99483C17.1872 9.28772 16.7123 9.28772 16.4194 8.99483L16.2426 8.81805L16.0659 8.99483C15.773 9.28772 15.2981 9.28772 15.0052 8.99483C14.7123 8.70193 14.7123 8.22706 15.0052 7.93416L15.182 7.75739L15.0052 7.58061C14.7123 7.28772 14.7123 6.81284 15.0052 6.51995C15.2981 6.22706 15.773 6.22706 16.0659 6.51995Z" fill="currentColor"/>
<path d="M4.04504 15.7123L11.4697 8.28772L15.7123 12.5303L8.28768 19.955L4.04504 15.7123ZM12.5303 12.5303C12.8232 12.2374 12.8232 11.7626 12.5303 11.4697C12.2375 11.1768 11.7626 11.1768 11.4697 11.4697L10.7626 12.1768C10.4697 12.4697 10.4697 12.9445 10.7626 13.2374C11.0555 13.5303 11.5303 13.5303 11.8232 13.2374L12.5303 12.5303ZM10.409 13.591C10.1161 13.2981 9.64126 13.2981 9.34837 13.591L8.64126 14.2981C8.34837 14.591 8.34837 15.0659 8.64126 15.3588C8.93415 15.6516 9.40903 15.6516 9.70192 15.3588L10.409 14.6516C10.7019 14.3588 10.7019 13.8839 10.409 13.591ZM8.28769 16.773C8.58058 16.4801 8.58058 16.0052 8.28769 15.7123C7.99479 15.4194 7.51992 15.4194 7.22703 15.7123L6.51992 16.4194C6.22703 16.7123 6.22703 17.1872 6.51992 17.4801C6.81281 17.773 7.28769 17.773 7.58058 17.4801L8.28769 16.773Z" fill="currentColor"/>
<path d="M2.10051 17.6568L2.98439 16.7729L7.22703 21.0155L6.34315 21.8994C5.95263 22.2899 5.31946 22.2899 4.92894 21.8994L2.10051 19.071C1.70999 18.6804 1.70999 18.0473 2.10051 17.6568Z" fill="currentColor"/>
</svg>
