<svg viewBox="0 0 24 24" fill="currentColor" xmlns="http://www.w3.org/2000/svg">
<path d="M21.7023 5.17245C22.0992 5.56937 22.0992 6.21291 21.7023 6.60983L7.32851 20.9836C6.93159 21.3805 6.28805 21.3805 5.89113 20.9836L5.17245 21.7023C4.77553 22.0992 4.13199 22.0992 3.73507 21.7023L2.29769 20.2649C1.90077 19.868 1.90077 19.2245 2.29769 18.8276L3.01637 18.1089C2.61944 17.7119 2.61945 17.0684 3.01637 16.6715L4.45375 15.2341C5.60365 16.384 6.84938 15.7132 7.32851 15.2341L5.89113 13.7967L8.77648 10.9114C8.96043 11.1724 9.26424 11.343 9.60788 11.343C10.1692 11.343 10.6243 10.8879 10.6243 10.3266C10.6243 9.98296 10.4537 9.67915 10.1927 9.49519L10.8092 8.87862C10.9932 9.13968 11.297 9.31021 11.6406 9.31021C12.202 9.31021 12.657 8.85516 12.657 8.29383C12.657 7.9502 12.4865 7.64639 12.2254 7.46243L12.842 6.84586C13.026 7.10692 13.3298 7.27745 13.6734 7.27745C14.2347 7.27745 14.6898 6.8224 14.6898 6.26107C14.6898 5.91744 14.5192 5.61363 14.2582 5.42967L14.8748 4.8131C15.0587 5.07415 15.3625 5.24469 15.7062 5.24469C16.2675 5.24469 16.7225 4.78964 16.7225 4.22831C16.7225 3.88467 16.552 3.58087 16.291 3.39691L17.3902 2.29769C17.7871 1.90077 18.4306 1.90077 18.8275 2.29769L21.7023 5.17245Z" fill="currentColor"/>
</svg>
