<svg viewBox="0 0 24 24" fill="currentColor" xmlns="http://www.w3.org/2000/svg">
<path d="M10 10C12.2091 10 14 8.20914 14 6C14 3.79086 12.2091 2 10 2C7.79086 2 6 3.79086 6 6C6 8.20914 7.79086 10 10 10Z" fill="currentColor"/>
<path d="M4 12C2.89543 12 2 12.8954 2 14C2 18.4183 5.58172 22 10 22C14.4183 22 18 18.4183 18 14C18 12.8954 17.1046 12 16 12H4Z" fill="currentColor"/>
<path d="M16 7.25C15.5858 7.25 15.25 7.58579 15.25 8C15.25 8.41421 15.5858 8.75 16 8.75H22C22.4142 8.75 22.75 8.41421 22.75 8C22.75 7.58579 22.4142 7.25 22 7.25H16Z" fill="currentColor"/>
</svg>
