<svg viewBox="0 0 24 24" fill="currentColor" xmlns="http://www.w3.org/2000/svg">
<path d="M8.36094 14.9435H5.62363C5.10621 14.9435 4.66752 14.5642 4.59435 14.0535L4.20186 11.3144C3.85821 8.91613 3.95453 6.46535 4.48166 4.10042C4.63458 3.41435 5.0642 2.81793 5.66869 2.45634C6.68584 1.84789 7.95657 1.84789 8.97373 2.45634L9.01284 2.47974C9.59403 2.8274 10.0129 3.39099 10.1773 4.04654L10.3319 4.66304C10.7395 6.28884 10.6018 8.00303 9.93963 9.54337C9.58403 10.3706 9.40067 11.2612 9.40067 12.1612V13.9069C9.40067 14.4794 8.93517 14.9435 8.36094 14.9435Z" fill="currentColor"/>
<path d="M5.33727 15.9801C4.99739 15.9801 4.72186 16.2548 4.72186 16.5936V19.4085C4.72186 20.4682 5.36896 21.4211 6.35582 21.8146C6.97553 22.0618 7.66685 22.0618 8.28655 21.8146C9.27341 21.4211 9.92052 20.4682 9.92052 19.4085V16.5936C9.92052 16.2548 9.64498 15.9801 9.3051 15.9801H5.33727Z" fill="currentColor"/>
<path d="M18.6627 15.9801C19.0026 15.9801 19.2781 16.2548 19.2781 16.5936V19.4085C19.2781 20.4682 18.631 21.4211 17.6442 21.8146C17.0245 22.0618 16.3331 22.0618 15.7134 21.8146C14.7266 21.4211 14.0795 20.4682 14.0795 19.4085V16.5936C14.0795 16.2548 14.355 15.9801 14.6949 15.9801H18.6627Z" fill="currentColor"/>
<path d="M18.3764 14.9435H15.6391C15.0648 14.9435 14.5993 14.4794 14.5993 13.9069V12.1612C14.5993 11.2612 14.416 10.3706 14.0604 9.54337C13.3982 8.00303 13.2605 6.28884 13.6681 4.66304L13.8227 4.04654C13.9871 3.39099 14.406 2.8274 14.9872 2.47974L15.0263 2.45634C16.0434 1.84789 17.3142 1.84789 18.3313 2.45634C18.9358 2.81793 19.3654 3.41435 19.5183 4.10042C20.0455 6.46535 20.1418 8.91613 19.7981 11.3144L19.4056 14.0535C19.3325 14.5642 18.8938 14.9435 18.3764 14.9435Z" fill="currentColor"/>
</svg>
