<svg viewBox="0 0 24 24" fill="currentColor" xmlns="http://www.w3.org/2000/svg">
<path d="M14 6C14 8.20914 12.2091 10 10 10C7.79086 10 6 8.20914 6 6C6 3.79086 7.79086 2 10 2C12.2091 2 14 3.79086 14 6Z" fill="currentColor"/>
<path d="M17.5 22C19.9853 22 22 19.9853 22 17.5C22 15.0147 19.9853 13 17.5 13C15.0147 13 13 15.0147 13 17.5C13 19.9853 15.0147 22 17.5 22ZM17.5 14.74C17.9142 14.74 18.25 15.0758 18.25 15.49V15.5C18.25 15.9142 17.9142 16.25 17.5 16.25C17.0858 16.25 16.75 15.9142 16.75 15.5V15.49C16.75 15.0758 17.0858 14.74 17.5 14.74ZM17.5 16.75C17.9142 16.75 18.25 17.0858 18.25 17.5V20C18.25 20.4142 17.9142 20.75 17.5 20.75C17.0858 20.75 16.75 20.4142 16.75 20V17.5C16.75 17.0858 17.0858 16.75 17.5 16.75Z" fill="currentColor"/>
<path d="M15.0983 12C12.9801 12.9263 11.5 15.0403 11.5 17.5C11.5 19.0039 12.0533 20.3786 12.9675 21.4316C12.0499 21.7983 11.0485 22 10 22C5.58172 22 2 18.4183 2 14C2 12.8954 2.89543 12 4 12H15.0983Z" fill="currentColor"/>
</svg>
