<svg viewBox="0 0 24 24" fill="currentColor" xmlns="http://www.w3.org/2000/svg">
<path d="M10 10C12.2091 10 14 8.20914 14 6C14 3.79086 12.2091 2 10 2C7.79086 2 6 3.79086 6 6C6 8.20914 7.79086 10 10 10Z" fill="currentColor"/>
<path d="M4 12C2.89543 12 2 12.8954 2 14C2 18.4183 5.58172 22 10 22C11.0485 22 12.0499 21.7983 12.9675 21.4316C12.0533 20.3786 11.5 19.0039 11.5 17.5C11.5 15.0403 12.9801 12.9263 15.0983 12H4Z" fill="currentColor"/>
<path d="M17.5 22C19.9853 22 22 19.9853 22 17.5C22 15.0147 19.9853 13 17.5 13C15.0147 13 13 15.0147 13 17.5C13 19.9853 15.0147 22 17.5 22ZM15.25 16C15.25 15.5858 15.5858 15.25 16 15.25H19C19.4142 15.25 19.75 15.5858 19.75 16V19C19.75 19.4142 19.4142 19.75 19 19.75C18.5858 19.75 18.25 19.4142 18.25 19V17.8107L16.5303 19.5303C16.2374 19.8232 15.7626 19.8232 15.4697 19.5303C15.1768 19.2374 15.1768 18.7626 15.4697 18.4697L17.1893 16.75H16C15.5858 16.75 15.25 16.4142 15.25 16Z" fill="currentColor"/>
</svg>
