<svg viewBox="0 0 24 24" fill="currentColor" xmlns="http://www.w3.org/2000/svg">
<path d="M14 6C14 8.20914 12.2091 10 10 10C7.79086 10 6 8.20914 6 6C6 3.79086 7.79086 2 10 2C12.2091 2 14 3.79086 14 6Z" fill="currentColor"/>
<path d="M9.65456 12H4C2.89543 12 2 12.8954 2 14C2 18.4183 5.58172 22 10 22C10.4607 22 10.9123 21.9611 11.3517 21.8863C9.61465 20.5127 8.5 18.3865 8.5 16C8.5 14.5294 8.92324 13.1577 9.65456 12Z" fill="currentColor"/>
<path d="M14.272 10C13.2109 10.3326 12.2735 10.9635 11.5491 11.7995C11.6919 11.8791 11.854 11.9577 12.0359 12.0337C12.3902 12.1816 12.8003 12.3114 13.2547 12.4167C13.3553 12.0091 13.4732 11.6282 13.6066 11.2801C13.7894 10.8029 14.0101 10.3647 14.272 10Z" fill="currentColor"/>
<path d="M17.728 10C18.7891 10.3326 19.7265 10.9635 20.4509 11.7995C20.3081 11.8791 20.146 11.9577 19.9641 12.0337C19.6098 12.1816 19.1997 12.3114 18.7453 12.4167C18.6447 12.0091 18.5268 11.6282 18.3934 11.2801C18.2106 10.8029 17.9899 10.3647 17.728 10Z" fill="currentColor"/>
<path d="M21.3144 13.0898C21.7523 13.9593 22 14.9494 22 16C22 17.0505 21.7523 18.0406 21.3145 18.9101C21.0693 18.7619 20.8023 18.6296 20.5212 18.5122C20.0745 18.3257 19.5713 18.1682 19.026 18.0442C19.1071 17.3951 19.15 16.7079 19.15 15.9999C19.15 15.2919 19.1071 14.6047 19.026 13.9556C19.5713 13.8316 20.0745 13.6741 20.5212 13.4876C20.8023 13.3702 21.0693 13.2379 21.3144 13.0898Z" fill="currentColor"/>
<path d="M14.2722 22C13.211 21.6674 12.2734 21.0364 11.549 20.2003C11.6918 20.1208 11.854 20.0421 12.0359 19.9661C12.3902 19.8182 12.8003 19.6884 13.2547 19.5831C13.3553 19.9907 13.4732 20.3717 13.6066 20.7197C13.7894 21.197 14.0102 21.6353 14.2722 22Z" fill="currentColor"/>
<path d="M20.451 20.2003C19.7266 21.0364 18.789 21.6674 17.7278 22C17.9898 21.6353 18.2106 21.197 18.3934 20.7197C18.5268 20.3717 18.6447 19.9907 18.7453 19.5831C19.1997 19.6884 19.6098 19.8182 19.9641 19.9661C20.146 20.0421 20.3082 20.1208 20.451 20.2003Z" fill="currentColor"/>
<path d="M10.6855 18.9101C10.2477 18.0406 10 17.0505 10 16C10 14.9494 10.2477 13.9593 10.6856 13.0898C10.9307 13.2379 11.1977 13.3702 11.4788 13.4876C11.9255 13.6741 12.4287 13.8316 12.974 13.9556C12.8929 14.6047 12.85 15.2919 12.85 15.9999C12.85 16.7079 12.8929 17.3951 12.974 18.0442C12.4287 18.1682 11.9255 18.3257 11.4788 18.5122C11.1977 18.6296 10.9307 18.7619 10.6855 18.9101Z" fill="currentColor"/>
<path d="M17.0007 11.8616C17.0929 12.1021 17.1777 12.3673 17.2534 12.6538C16.8527 12.6914 16.4332 12.7115 16 12.7115C15.5668 12.7115 15.1473 12.6914 14.7466 12.6538C14.8223 12.3673 14.9071 12.1021 14.9993 11.8616C15.1955 11.3495 15.4105 10.9875 15.6107 10.7665C15.8095 10.547 15.9413 10.5192 16 10.5192C16.0587 10.5192 16.1905 10.547 16.3893 10.7665C16.5895 10.9875 16.8045 11.3495 17.0007 11.8616Z" fill="currentColor"/>
<path d="M16 14.2774C15.4708 14.2774 14.9536 14.2501 14.4565 14.1979C14.3879 14.761 14.35 15.3663 14.35 15.9999C14.35 16.6335 14.3879 17.2388 14.4565 17.8019C14.9536 17.7497 15.4708 17.7224 16 17.7224C16.5292 17.7224 17.0464 17.7497 17.5435 17.8019C17.6121 17.2388 17.65 16.6335 17.65 15.9999C17.65 15.3663 17.6121 14.761 17.5435 14.1979C17.0464 14.2501 16.5292 14.2774 16 14.2774Z" fill="currentColor"/>
<path d="M17.0007 20.1382C17.0929 19.8977 17.1777 19.6325 17.2534 19.346C16.8527 19.3084 16.4332 19.2883 16 19.2883C15.5668 19.2883 15.1473 19.3084 14.7466 19.346C14.8223 19.6325 14.9071 19.8977 14.9993 20.1382C15.1955 20.6503 15.4105 21.0123 15.6107 21.2333C15.8095 21.4528 15.9413 21.4806 16 21.4806C16.0587 21.4806 16.1905 21.4528 16.3893 21.2333C16.5895 21.0123 16.8045 20.6503 17.0007 20.1382Z" fill="currentColor"/>
</svg>
