<svg viewBox="0 0 24 24" fill="currentColor" xmlns="http://www.w3.org/2000/svg">
<path d="M16 6C16 8.20914 14.2091 10 12 10C9.79086 10 8 8.20914 8 6C8 3.79086 9.79086 2 12 2C14.2091 2 16 3.79086 16 6Z" fill="currentColor"/>
<path d="M6 12C4.89543 12 4 12.8954 4 14C4 18.4183 7.58172 22 12 22C16.4183 22 20 18.4183 20 14C20 12.8954 19.1046 12 18 12H6ZM12.4263 15.7113C12.7089 15.4358 12.8293 15.2027 12.8293 15.0247L12.8291 15.0215L12.8284 15.013C12.8277 15.0057 12.8264 14.9962 12.8242 14.9846C12.8198 14.9614 12.8125 14.9324 12.8012 14.9002C12.7784 14.8352 12.7416 14.7631 12.6865 14.6979C12.5981 14.5932 12.418 14.4501 12.0002 14.4501C11.5318 14.4501 11.3433 14.5854 11.2723 14.6565C11.2299 14.6989 11.2041 14.7433 11.1889 14.7814C11.1813 14.8005 11.1766 14.8175 11.174 14.8307C11.1714 14.8435 11.1711 14.8513 11.1711 14.8513C11.1711 15.2586 10.8349 15.5764 10.4357 15.5764C10.0364 15.5764 9.70019 15.2586 9.70019 14.8514C9.70019 14.4905 9.84257 14.0206 10.2248 13.6384C10.6235 13.2398 11.2175 13 12.0002 13C12.8338 13 13.436 13.3189 13.8171 13.7702C14.1711 14.1895 14.3002 14.6825 14.3002 15.0247C14.3002 15.7999 13.822 16.39 13.4607 16.7423C13.2681 16.9301 13.0738 17.0839 12.9248 17.1964C12.8753 17.2338 12.8265 17.2698 12.7872 17.2988L12.7409 17.333L12.7357 17.337V17.7972C12.7357 18.2044 12.3995 18.5222 12.0002 18.5222C11.6009 18.5222 11.2647 18.2044 11.2647 17.7972V17.2774C11.2647 17.128 11.271 16.7014 11.6763 16.3198C11.735 16.2645 11.8086 16.2098 11.8516 16.1779L11.8537 16.1763L11.9109 16.1341C11.9485 16.1063 11.9871 16.0778 12.0304 16.0452C12.1575 15.9492 12.2968 15.8376 12.4263 15.7113ZM12.8217 19.791C12.8217 20.2446 12.447 20.6 12.0002 20.6C11.5534 20.6 11.1787 20.2446 11.1787 19.791C11.1787 19.3374 11.5534 18.982 12.0002 18.982C12.447 18.982 12.8217 19.3374 12.8217 19.791Z" fill="currentColor"/>
</svg>
