<svg viewBox="0 0 24 24" fill="currentColor" xmlns="http://www.w3.org/2000/svg">
<path d="M17.5 22C15.0147 22 13 19.9853 13 17.5C13 15.0147 15.0147 13 17.5 13C19.9853 13 22 15.0147 22 17.5C22 19.9853 19.9853 22 17.5 22ZM20.0303 17.0303C20.3232 16.7374 20.3232 16.2626 20.0303 15.9697C19.7374 15.6768 19.2626 15.6768 18.9697 15.9697L17 17.9393L16.0303 16.9697C15.7374 16.6768 15.2626 16.6768 14.9697 16.9697C14.6768 17.2626 14.6768 17.7374 14.9697 18.0303L16.4697 19.5303C16.7626 19.8232 17.2374 19.8232 17.5303 19.5303L20.0303 17.0303Z" fill="currentColor"/>
<path d="M10 10C12.2091 10 14 8.20914 14 6C14 3.79086 12.2091 2 10 2C7.79086 2 6 3.79086 6 6C6 8.20914 7.79086 10 10 10Z" fill="currentColor"/>
<path d="M4 12C2.89543 12 2 12.8954 2 14C2 18.4183 5.58172 22 10 22C11.0485 22 12.0499 21.7983 12.9675 21.4316C12.0533 20.3786 11.5 19.0039 11.5 17.5C11.5 15.0403 12.9801 12.9263 15.0983 12H4Z" fill="currentColor"/>
</svg>
