<svg viewBox="0 0 24 24" fill="currentColor" xmlns="http://www.w3.org/2000/svg">
<path d="M16 6C16 8.20914 14.2091 10 12 10C9.79086 10 8 8.20914 8 6C8 3.79086 9.79086 2 12 2C14.2091 2 16 3.79086 16 6Z" fill="currentColor"/>
<path d="M6 12C4.89543 12 4 12.8954 4 14C4 18.4183 7.58172 22 12 22C16.4183 22 20 18.4183 20 14C20 12.8954 19.1046 12 18 12H6ZM11.6633 20.3531C11.5674 20.2552 11.5195 20.1327 11.5195 19.9858V19.6261C11.2879 19.6052 11.0817 19.5685 10.9011 19.5157C10.6663 19.4472 10.4745 19.3786 10.3259 19.3101C10.2013 19.2513 10.1126 19.1681 10.0599 19.0603C10.012 18.9526 9.99281 18.8424 10.0024 18.7298C10.0168 18.6172 10.0575 18.5143 10.1246 18.4213C10.1917 18.3283 10.278 18.2671 10.3835 18.2377C10.4937 18.2034 10.6207 18.2181 10.7645 18.2817C10.8604 18.3356 11.0042 18.3919 11.1959 18.4507C11.3925 18.5045 11.6345 18.5315 11.9221 18.5315C12.1234 18.5315 12.2816 18.5119 12.3966 18.4727C12.5165 18.4335 12.6004 18.3821 12.6483 18.3185C12.701 18.2499 12.7274 18.1765 12.7274 18.0981C12.7274 18.0247 12.7082 17.9634 12.6699 17.9145C12.6363 17.8606 12.5788 17.8141 12.4973 17.7749C12.4158 17.7309 12.3032 17.6917 12.1594 17.6574L11.3469 17.4811C10.9011 17.3783 10.568 17.2069 10.3475 16.9669C10.1318 16.7221 10.024 16.4063 10.024 16.0194C10.024 15.7256 10.0935 15.4636 10.2325 15.2335C10.3763 14.9984 10.5752 14.8075 10.8292 14.6605C11.0327 14.5451 11.2627 14.4629 11.5195 14.414V14.0142C11.5195 13.8673 11.5674 13.7448 11.6633 13.6469C11.7591 13.549 11.8766 13.5 12.0156 13.5C12.1594 13.5 12.2792 13.549 12.3751 13.6469C12.4709 13.7448 12.5189 13.8673 12.5189 14.0142V14.3842C12.638 14.4 12.7627 14.426 12.8927 14.4622C13.1037 14.5161 13.2882 14.592 13.4464 14.6899C13.5566 14.7487 13.6333 14.8295 13.6765 14.9323C13.7244 15.0352 13.7412 15.1404 13.7268 15.2482C13.7172 15.351 13.6788 15.444 13.6117 15.5273C13.5494 15.6105 13.4632 15.6668 13.3529 15.6962C13.2475 15.7207 13.1204 15.7011 12.9718 15.6375C12.8616 15.5885 12.737 15.5493 12.598 15.5199C12.4638 15.4857 12.2912 15.4685 12.0803 15.4685C11.8262 15.4685 11.6297 15.515 11.4907 15.6081C11.3565 15.7011 11.2894 15.8211 11.2894 15.968C11.2894 16.0659 11.3277 16.1492 11.4044 16.2177C11.4859 16.2814 11.6321 16.3377 11.843 16.3867L12.6627 16.5703C13.118 16.6731 13.4536 16.8445 13.6693 17.0845C13.8898 17.3195 14 17.6256 14 18.0026C14 18.2964 13.9305 18.556 13.7915 18.7812C13.6525 19.0065 13.4584 19.1901 13.2091 19.3321C13.0069 19.4496 12.7768 19.5335 12.5189 19.584V19.9858C12.5189 20.1327 12.4709 20.2552 12.3751 20.3531C12.284 20.451 12.1642 20.5 12.0156 20.5C11.8766 20.5 11.7591 20.451 11.6633 20.3531Z" fill="currentColor"/>
</svg>
