<svg viewBox="0 0 24 24" fill="currentColor" xmlns="http://www.w3.org/2000/svg">
<path d="M14 6C14 8.20914 12.2091 10 10 10C7.79086 10 6 8.20914 6 6C6 3.79086 7.79086 2 10 2C12.2091 2 14 3.79086 14 6Z" fill="currentColor"/>
<path d="M16.6967 11H17.3033C17.7708 11 18.1858 11.303 18.3336 11.7521L18.5108 12.2905C18.587 12.5221 18.7453 12.718 18.9558 12.8411L19.1458 12.9522C19.3592 13.077 19.6114 13.1183 19.8536 13.0681L20.3928 12.9564C20.8508 12.8614 21.3174 13.074 21.5512 13.484L21.8544 14.0161C22.0882 14.4261 22.0366 14.9416 21.7265 15.2959L21.3541 15.7211C21.1945 15.9035 21.1065 16.1376 21.1065 16.3799V16.6202C21.1065 16.8625 21.1945 17.0966 21.3541 17.2789L21.7265 17.7042C22.0367 18.0584 22.0882 18.5739 21.8545 18.984L21.5512 19.516C21.3175 19.9261 20.8509 20.1386 20.3929 20.0437L19.8536 19.9319C19.6114 19.8817 19.3593 19.923 19.1458 20.0478L18.9559 20.1589C18.7453 20.282 18.587 20.4779 18.5108 20.7096L18.3336 21.2479C18.1858 21.697 17.7708 22 17.3033 22H16.6967C16.2293 22 15.8142 21.697 15.6664 21.2479L15.4892 20.7096C15.413 20.4779 15.2547 20.282 15.0441 20.1589L14.8541 20.0479C14.6407 19.923 14.3886 19.8818 14.1465 19.9319L13.6071 20.0437C13.1491 20.1386 12.6825 19.9261 12.4488 19.5161L12.1455 18.984C11.9118 18.574 11.9633 18.0585 12.2735 17.7042L12.6458 17.2789C12.8055 17.0966 12.8935 16.8625 12.8935 16.6202V16.3799C12.8935 16.1375 12.8055 15.9034 12.6458 15.7211L12.2735 15.2958C11.9633 14.9416 11.9118 14.4261 12.1455 14.016L12.4488 13.484C12.6825 13.0739 13.1491 12.8614 13.6071 12.9563L14.1464 13.0681C14.3886 13.1183 14.6407 13.077 14.8542 12.9522L15.0441 12.8411C15.2547 12.718 15.413 12.5221 15.4892 12.2904L15.6664 11.7521C15.8142 11.303 16.2293 11 16.6967 11ZM17 18.5C18.1046 18.5 19 17.6046 19 16.5C19 15.3954 18.1046 14.5 17 14.5C15.8954 14.5 15 15.3954 15 16.5C15 17.6046 15.8954 18.5 17 18.5Z" fill="currentColor"/>
<path d="M10.8424 13.2732L11.1457 12.7411C11.3113 12.4506 11.5274 12.201 11.7785 12H4C2.89543 12 2 12.8954 2 14C2 18.4183 5.58172 22 10 22C10.9841 22 11.9267 21.8223 12.7974 21.4973C12.1127 21.3351 11.5082 20.8949 11.1457 20.2589L10.8424 19.7269C10.2932 18.7634 10.4124 17.5528 11.1449 16.7161L11.3341 16.5L11.1449 16.2839C10.4124 15.4472 10.2932 14.2366 10.8424 13.2732Z" fill="currentColor"/>
</svg>
