<?xml version="1.0" encoding="utf-8"?>
<!-- Generator: Adobe Illustrator 22.0.0, SVG Export Plug-In . SVG Version: 6.00 Build 0)  -->
<svg version="1.1" id="lni_lni-text-underline-alt" xmlns="http://www.w3.org/2000/svg" xmlns:xlink="http://www.w3.org/1999/xlink"
	 x="0px" y="0px" viewBox="0 0 64 64" style="enable-background:new 0 0 64 64;" xml:space="preserve">
<g>
	<path d="M49.8,1.8H14.2C10.8,1.8,8,4.6,8,8v5.7c0,1.2,1,2.3,2.3,2.3s2.3-1,2.3-2.3V8c0-1,0.8-1.8,1.8-1.8h10.5v36.5h-5
		c-1.2,0-2.3,1-2.3,2.3s1,2.3,2.3,2.3h24.6c1.2,0,2.3-1,2.3-2.3s-1-2.3-2.3-2.3h-5V6.3h10.5c1,0,1.8,0.8,1.8,1.8v5.7
		c0,1.2,1,2.3,2.3,2.3s2.3-1,2.3-2.3V8C56,4.6,53.2,1.8,49.8,1.8z M34.8,42.7h-5.6V6.3h5.6V42.7z"/>
	<path d="M52.8,57.8H11.2C10,57.8,9,58.8,9,60s1,2.3,2.3,2.3h41.6c1.2,0,2.3-1,2.3-2.3S54,57.8,52.8,57.8z"/>
</g>
</svg>
