<svg viewBox="0 0 24 24" fill="currentColor" xmlns="http://www.w3.org/2000/svg">
<path d="M12 1.25C12.4142 1.25 12.75 1.58579 12.75 2V4.25H22C22.4142 4.25 22.75 4.58579 22.75 5C22.75 5.41421 22.4142 5.75 22 5.75H20.0909L21.8426 10.1433C21.9366 10.3789 21.9927 10.6316 21.9606 10.8832C21.7724 12.3591 20.5119 13.5 18.9848 13.5C17.4578 13.5 16.1973 12.3591 16.0091 10.8832C15.977 10.6315 16.0331 10.3789 16.1271 10.1433L17.8787 5.75H12.75V13H11.25V5.75H6.10602L7.85774 10.1433C7.95171 10.3789 8.00782 10.6316 7.97573 10.8832C7.78756 12.3591 6.527 13.5 4.99998 13.5C3.47295 13.5 2.21239 12.3591 2.02422 10.8832C1.99214 10.6315 2.04824 10.3789 2.1422 10.1433L3.89386 5.75H2C1.58579 5.75 1.25 5.41421 1.25 5C1.25 4.58579 1.58579 4.25 2 4.25H11.25V2C11.25 1.58579 11.5858 1.25 12 1.25ZM4.99993 7.19463L3.59607 10.5H6.40388L4.99993 7.19463ZM20.3887 10.5L18.9848 7.19463L17.5809 10.5H20.3887Z" fill="currentColor"/>
<path d="M9.37549 21.2813C11.9057 22.0159 14.6039 21.9654 17.111 21.1297L20.8897 19.8701C21.5528 19.6491 22 19.0286 22 18.3297C22 17.2733 21.0073 16.4982 19.9824 16.7544L17.6228 17.3443L15.2563 18.2048C14.867 18.3464 14.4367 18.1456 14.2952 17.7563C14.1536 17.367 14.3544 16.9367 14.7437 16.7952L17.1179 15.9318C16.8929 15.2604 16.317 14.7195 15.549 14.5915L14.9795 14.4966C13.1183 14.1864 11.2132 14.2852 9.39619 14.7848C9.46373 15.0114 9.5 15.2515 9.5 15.5V20.5C9.5 20.7729 9.45629 21.0355 9.37549 21.2813Z" fill="currentColor"/>
<path d="M2 15.5C2 14.9477 2.44772 14.5 3 14.5H7C7.55228 14.5 8 14.9477 8 15.5V20.5C8 21.0523 7.55228 21.5 7 21.5H3C2.44772 21.5 2 21.0523 2 20.5V15.5Z" fill="currentColor"/>
</svg>
