<svg viewBox="0 0 24 24" fill="currentColor" xmlns="http://www.w3.org/2000/svg">
<path d="M5 1.25C2.92893 1.25 1.25 2.92893 1.25 5V19C1.25 21.0711 2.92893 22.75 5 22.75H19C21.0711 22.75 22.75 21.0711 22.75 19V5C22.75 2.92893 21.0711 1.25 19 1.25H5ZM16.25 2.75V21.25H12.75V2.75H16.25ZM17.75 21.25V2.75H19C20.2426 2.75 21.25 3.75736 21.25 5V19C21.25 20.2426 20.2426 21.25 19 21.25H17.75ZM11.25 21.25H7.75V2.75H11.25V21.25ZM6.25 8H2.75V5C2.75 3.75736 3.75736 2.75 5 2.75H6.25V8ZM2.75 16H6.25V21.25H5C3.75736 21.25 2.75 20.2426 2.75 19V16ZM4.5 10.25C4.91421 10.25 5.25 10.5858 5.25 11V13C5.25 13.4142 4.91421 13.75 4.5 13.75C4.08579 13.75 3.75 13.4142 3.75 13V11C3.75 10.5858 4.08579 10.25 4.5 10.25Z" fill="currentColor"/>
</svg>
