<svg viewBox="0 0 24 24" fill="currentColor" xmlns="http://www.w3.org/2000/svg">
<path d="M6 1.25C4.89543 1.25 4 2.14543 4 3.25V20C4 21.1046 4.89543 22 6 22H19C19.5523 22 20 21.5523 20 21V6C20 5.53404 19.6813 5.14251 19.25 5.0315V2.75C19.6642 2.75 20 2.41421 20 2C20 1.58579 19.6642 1.25 19.25 1.25H6ZM17.75 2.75V5H6.5C5.94772 5 5.5 4.55228 5.5 4V3.75C5.5 3.19772 5.94772 2.75 6.5 2.75H17.75ZM8 7H13C13.5523 7 14 7.44772 14 8V13.9129C14 14.3401 13.4989 14.5705 13.1746 14.2925L10.8254 12.2789C10.6382 12.1184 10.3618 12.1184 10.1746 12.2789L7.8254 14.2925C7.50106 14.5705 7 14.3401 7 13.9129V8C7 7.44772 7.44772 7 8 7Z" fill="currentColor"/>
</svg>
