<?xml version="1.0" encoding="utf-8"?>
<!-- Generator: Adobe Illustrator 22.0.0, SVG Export Plug-In . SVG Version: 6.00 Build 0)  -->
<svg version="1.1" id="lni_lni-eye" xmlns="http://www.w3.org/2000/svg" xmlns:xlink="http://www.w3.org/1999/xlink" x="0px"
	 y="0px" viewBox="0 0 64 64" style="enable-background:new 0 0 64 64;" xml:space="preserve">
<g>
	<path d="M62,33c0.3-0.6,0.3-1.4,0-2c-0.4-0.8-10.2-19.6-30-19.6c-4.4,0-8.7,1-12.7,2.8c-0.5,0.2-0.9,0.4-1.3,0.7l-7.1-7.1
		c-0.9-0.9-2.3-0.9-3.2,0c-0.9,0.9-0.9,2.3,0,3.2l45.3,45.2c0.4,0.4,1,0.7,1.6,0.7c0.6,0,1.2-0.2,1.6-0.7c0.9-0.9,0.9-2.3,0-3.2
		l-6.3-6.3c0.1-0.1,0.1-0.1,0.2-0.2C58,40.9,61.8,33.3,62,33z M35.9,32.7l-4.6-4.6c0.2,0,0.5-0.1,0.7-0.1c2.2,0,4,1.8,4,4
		C36,32.2,35.9,32.5,35.9,32.7z M39.4,36.2c0.3-0.5,0.5-1.1,0.7-1.6c0.3-0.8,0.4-1.7,0.4-2.5c0-4.7-3.8-8.5-8.5-8.5
		c-0.7,0-1.5,0.1-2.2,0.3l-0.4,0.1c-0.6,0.2-1.1,0.4-1.7,0.7l-6.5-6.4c3.4-1.6,6.9-2.4,10.6-2.4c14.6,0,23.2,12.5,25.4,16.2
		c-1.3,2.1-4.6,7.1-9.9,10.9c-0.3,0.2-0.6,0.4-0.8,0.6L39.4,36.2z"/>
	<path d="M32,48.2C17.4,48.2,8.8,35.7,6.6,32c1-1.7,3.3-5.1,6.8-8.4l-3.1-3.3C4.9,25.4,2.1,30.8,2,31c-0.3,0.6-0.3,1.4,0,2
		c0.4,0.8,10.2,19.6,30,19.6c2.7,0,5.4-0.4,8-1.1l-1.2-4.3C36.6,47.8,34.3,48.2,32,48.2z"/>
</g>
</svg>
