<?xml version="1.0" encoding="utf-8"?>
<!-- Generator: Adobe Illustrator 25.2.1, SVG Export Plug-In . SVG Version: 6.00 Build 0)  -->
<svg version="1.1" id="lni_lni-sidebar-1" xmlns="http://www.w3.org/2000/svg" xmlns:xlink="http://www.w3.org/1999/xlink" x="0px"
	 y="0px" viewBox="0 0 64 64" style="enable-background:new 0 0 64 64;" xml:space="preserve">
<path d="M54.4,1.8H9.6c-4.3,0-7.9,3.5-7.9,7.9v44.8c0,4.3,3.5,7.8,7.9,7.8h44.8c4.3,0,7.8-3.5,7.8-7.8V9.6
	C62.2,5.3,58.7,1.8,54.4,1.8z M6.2,54.4V9.6c0-1.8,1.5-3.4,3.4-3.4h8v51.5h-8C7.8,57.8,6.2,56.2,6.2,54.4z M57.8,54.4
	c0,1.8-1.5,3.3-3.3,3.3H22.1V6.2h32.3c1.8,0,3.3,1.5,3.3,3.4V54.4z"/>
</svg>
