<svg viewBox="0 0 24 24" fill="currentColor" xmlns="http://www.w3.org/2000/svg">
<path d="M5.74991 2C5.74991 1.58579 5.41412 1.25 4.99991 1.25C4.5857 1.25 4.24991 1.58579 4.24991 2V4.24995H2C1.58579 4.24995 1.25 4.58574 1.25 4.99995C1.25 5.41416 1.58579 5.74995 2 5.74995H4.24991V8C4.24991 8.41421 4.5857 8.75 4.99991 8.75C5.41412 8.75 5.74991 8.41421 5.74991 8V5.74995H8C8.41421 5.74995 8.75 5.41416 8.75 4.99995C8.75 4.58574 8.41421 4.24995 8 4.24995H5.74991V2Z" fill="currentColor"/>
<path d="M20.3724 15.0659C20.0001 15.4383 19.3964 15.4383 19.0241 15.0659L18.8139 14.8557L16.778 18.5359C16.4711 19.0907 15.9341 19.5011 15.3363 19.6379L5.01123 22L9.48095 17.5303C10.5778 18.1781 12.0142 18.0308 12.9567 17.0884C14.0737 15.9714 14.0737 14.1604 12.9567 13.0434C11.8397 11.9264 10.0286 11.9264 8.91162 13.0434C7.96921 13.9858 7.82191 15.4222 8.4697 16.5191L4 20.9887L6.36212 10.6638C6.49889 10.066 6.90932 9.52905 7.46411 9.22215L11.1443 7.18627L10.934 6.97592C10.5616 6.60359 10.5616 5.99992 10.934 5.62758L12.2823 4.27925C12.6547 3.90692 13.2583 3.90692 13.6307 4.27925L21.7207 12.3693C22.0931 12.7416 22.0931 13.3453 21.7207 13.7176L20.3724 15.0659Z" fill="currentColor"/>
</svg>
