<svg viewBox="0 0 24 24" fill="currentColor" xmlns="http://www.w3.org/2000/svg">
<path d="M2 5C2 3.34315 3.34315 2 5 2H19C20.6569 2 22 3.34315 22 5V19C22 20.6569 20.6569 22 19 22H5C3.34315 22 2 20.6569 2 19V5ZM5 5.25C4.58579 5.25 4.25 5.58579 4.25 6V18C4.25 18.4142 4.58579 18.75 5 18.75C5.41421 18.75 5.75 18.4142 5.75 18V6C5.75 5.58579 5.41421 5.25 5 5.25ZM9 6C8.44771 6 8 6.44771 8 7V17C8 17.5523 8.44771 18 9 18H11C11.5523 18 12 17.5523 12 17V7C12 6.44772 11.5523 6 11 6H9Z" fill="currentColor"/>
</svg>
