<svg viewBox="0 0 24 24" fill="currentColor" xmlns="http://www.w3.org/2000/svg">
<path d="M2 5C2 3.34315 3.34315 2 5 2H19C20.6569 2 22 3.34315 22 5V19C22 20.6569 20.6569 22 19 22H5C3.34315 22 2 20.6569 2 19V5ZM19 5.25C18.5858 5.25 18.25 5.58579 18.25 6V18C18.25 18.4142 18.5858 18.75 19 18.75C19.4142 18.75 19.75 18.4142 19.75 18V6C19.75 5.58579 19.4142 5.25 19 5.25ZM15 6H13C12.4477 6 12 6.44772 12 7V17C12 17.5523 12.4477 18 13 18H15C15.5523 18 16 17.5523 16 17V7C16 6.44771 15.5523 6 15 6Z" fill="currentColor"/>
</svg>
