<svg viewBox="0 0 24 24" fill="currentColor" xmlns="http://www.w3.org/2000/svg">
<path d="M11.25 2H5C3.34315 2 2 3.34315 2 5V19C2 20.6569 3.34315 22 5 22H11.25V18H9.5C8.67157 18 8 17.3284 8 16.5V15.5C8 14.6716 8.67157 14 9.5 14H11.25V10H6.5C5.67157 10 5 9.32843 5 8.5V7.5C5 6.67157 5.67157 6 6.5 6H11.25V2Z" fill="currentColor"/>
<path d="M12.75 10H17.5C18.3284 10 19 9.32843 19 8.5V7.5C19 6.67157 18.3284 6 17.5 6H12.75V2H19C20.6569 2 22 3.34315 22 5V19C22 20.6569 20.6569 22 19 22H12.75V18H14.5C15.3284 18 16 17.3284 16 16.5V15.5C16 14.6716 15.3284 14 14.5 14H12.75V10Z" fill="currentColor"/>
</svg>
