<svg viewBox="0 0 24 24" fill="currentColor" xmlns="http://www.w3.org/2000/svg">
<path d="M14 17.5C14 18.3284 14.6716 19 15.5 19H16.5C17.3284 19 18 18.3284 18 17.5V12.75H22C22.4142 12.75 22.75 12.4142 22.75 12C22.75 11.5858 22.4142 11.25 22 11.25H18V6.5C18 5.67157 17.3284 5 16.5 5H15.5C14.6716 5 14 5.67157 14 6.5V11.25H10V9.5C10 8.67157 9.32843 8 8.5 8H7.5C6.67157 8 6 8.67157 6 9.5V11.25H2C1.58579 11.25 1.25 11.5858 1.25 12C1.25 12.4142 1.58579 12.75 2 12.75H6V14.5C6 15.3284 6.67157 16 7.5 16H8.5C9.32843 16 10 15.3284 10 14.5V12.75H14V17.5Z" fill="currentColor"/>
</svg>
