<svg viewBox="0 0 24 24" fill="currentColor" xmlns="http://www.w3.org/2000/svg">
<path d="M5 2C3.34315 2 2 3.34315 2 5V11.25H6V9.5C6 8.67157 6.67157 8 7.5 8H8.5C9.32843 8 10 8.67157 10 9.5V11.25H14V6.5C14 5.67157 14.6716 5 15.5 5H16.5C17.3284 5 18 5.67157 18 6.5V11.25H22V5C22 3.34315 20.6569 2 19 2H5Z" fill="currentColor"/>
<path d="M14 12.75V17.5C14 18.3284 14.6716 19 15.5 19H16.5C17.3284 19 18 18.3284 18 17.5V12.75H22V19C22 20.6569 20.6569 22 19 22H5C3.34315 22 2 20.6569 2 19V12.75H6V14.5C6 15.3284 6.67157 16 7.5 16H8.5C9.32843 16 10 15.3284 10 14.5V12.75H14Z" fill="currentColor"/>
</svg>
