<svg viewBox="0 0 24 24" fill="currentColor" xmlns="http://www.w3.org/2000/svg">
<path d="M12 1.25C12.4142 1.25 12.75 1.58579 12.75 2V6H17.5C18.3284 6 19 6.67157 19 7.5V8.5C19 9.32843 18.3284 10 17.5 10H12.75V14H14.5C15.3284 14 16 14.6716 16 15.5V16.5C16 17.3284 15.3284 18 14.5 18H12.75V22C12.75 22.4142 12.4142 22.75 12 22.75C11.5858 22.75 11.25 22.4142 11.25 22V18H9.5C8.67157 18 8 17.3284 8 16.5V15.5C8 14.6716 8.67157 14 9.5 14H11.25V10H6.5C5.67157 10 5 9.32843 5 8.5V7.5C5 6.67157 5.67157 6 6.5 6H11.25V2C11.25 1.58579 11.5858 1.25 12 1.25Z" fill="currentColor"/>
</svg>
