<svg viewBox="0 0 24 24" fill="currentColor" xmlns="http://www.w3.org/2000/svg">
<path d="M22.5303 2.53033C22.8232 2.23744 22.8232 1.76256 22.5303 1.46967C22.2374 1.17678 21.7626 1.17678 21.4697 1.46967L1.46967 21.4697C1.17678 21.7626 1.17678 22.2374 1.46967 22.5303C1.76256 22.8232 2.23744 22.8232 2.53033 22.5303L22.5303 2.53033Z" fill="currentColor"/>
<path d="M2.7131 18.1049L15.7794 5.03857C14.8468 4.3845 13.7069 4 12.4762 4C9.32028 4 6.7619 6.52827 6.7619 9.64706C6.7619 10.3369 6.88706 10.9978 7.11616 11.6089C6.8475 11.5567 6.56983 11.5294 6.28571 11.5294C3.91878 11.5294 2 13.4256 2 15.7647C2 16.6299 2.26251 17.4345 2.7131 18.1049Z" fill="currentColor"/>
<path d="M16.2857 20H7.18198L18.164 9.01801C20.3972 9.78579 22 11.8844 22 14.3529C22 17.4717 19.4416 20 16.2857 20Z" fill="currentColor"/>
</svg>
