<svg viewBox="0 0 24 24" fill="currentColor" xmlns="http://www.w3.org/2000/svg">
<path d="M22 19.75C22.4142 19.75 22.75 19.4142 22.75 19C22.75 18.5858 22.4142 18.25 22 18.25H19.75V7C19.75 5.48122 18.5188 4.25 17 4.25H5.75V2C5.75 1.58579 5.41421 1.25 5 1.25C4.58579 1.25 4.25 1.58579 4.25 2V4.25H2C1.58579 4.25 1.25 4.58579 1.25 5C1.25 5.41421 1.58579 5.75 2 5.75H4.25V17C4.25 18.5188 5.48122 19.75 7 19.75H18.25V22C18.25 22.4142 18.5858 22.75 19 22.75C19.4142 22.75 19.75 22.4142 19.75 22V19.75H22ZM18.25 18.25H7C6.30964 18.25 5.75 17.6904 5.75 17V5.75H17C17.6904 5.75 18.25 6.30964 18.25 7V18.25Z" fill="currentColor"/>
</svg>
