<svg viewBox="0 0 24 24" fill="currentColor" xmlns="http://www.w3.org/2000/svg">
<path d="M15.5625 3.5V2H19C20.6569 2 22 3.34315 22 5V7.1875H20.5V5C20.5 4.17157 19.8284 3.5 19 3.5H15.5625Z" fill="currentColor"/>
<path d="M20.5 9.8125H22V14.1875H20.5V9.8125Z" fill="currentColor"/>
<path d="M20.5 16.8125H22V19C22 20.6569 20.6569 22 19 22H16.8125V20.5H19C19.8284 20.5 20.5 19.8284 20.5 19V16.8125Z" fill="currentColor"/>
<path d="M14.1875 20.5V22H9.8125V20.5H14.1875Z" fill="currentColor"/>
<path d="M7.1875 20.5V22H5C3.34315 22 2 20.6569 2 19V15.5625H3.5V19C3.5 19.8284 4.17157 20.5 5 20.5H7.1875Z" fill="currentColor"/>
<path d="M3.5 12H2V8C2 6.97706 2.25599 6.01391 2.70741 5.17112C3.7183 3.28377 5.70923 2 8 2H12V3.5H8C5.51472 3.5 3.5 5.51472 3.5 8V12Z" fill="currentColor"/>
</svg>
