<svg viewBox="0 0 24 24" fill="currentColor" xmlns="http://www.w3.org/2000/svg">
<path d="M5.75 22C5.75 22.4142 5.41421 22.75 5 22.75C4.58579 22.75 4.25 22.4142 4.25 22V19.75H2C1.58579 19.75 1.25 19.4142 1.25 19C1.25 18.5858 1.58579 18.25 2 18.25H4.25V5.75H2C1.58579 5.75 1.25 5.41421 1.25 5C1.25 4.58579 1.58579 4.25 2 4.25H4.25V2C4.25 1.58579 4.58579 1.25 5 1.25C5.41421 1.25 5.75 1.58579 5.75 2V4.25H17C17.4869 4.25 17.9442 4.37652 18.3409 4.59848L21.4697 1.46967C21.7626 1.17678 22.2374 1.17678 22.5303 1.46967C22.8232 1.76256 22.8232 2.23744 22.5303 2.53033L19.4015 5.65914C19.6235 6.05582 19.75 6.51313 19.75 7V18.25H22C22.4142 18.25 22.75 18.5858 22.75 19C22.75 19.4142 22.4142 19.75 22 19.75H19.75V22C19.75 22.4142 19.4142 22.75 19 22.75C18.5858 22.75 18.25 22.4142 18.25 22V19.75H5.75V22ZM17.1769 5.76242C17.1191 5.75424 17.0601 5.75 17 5.75H5.75V17.1893L17.1769 5.76242ZM6.81066 18.25H18.25V7C18.25 6.93994 18.2458 6.88088 18.2376 6.82308L6.81066 18.25Z" fill="currentColor"/>
</svg>
