<svg viewBox="0 0 24 24" fill="currentColor" xmlns="http://www.w3.org/2000/svg">
<path d="M5 2C3.34315 2 2 3.34315 2 5V19C2 20.6569 3.34315 22 5 22H19C20.6569 22 22 20.6569 22 19V5C22 3.34315 20.6569 2 19 2H5ZM8 12.75H4C3.58579 12.75 3.25 12.4142 3.25 12C3.25 11.5858 3.58579 11.25 4 11.25H8C8.41421 11.25 8.75 11.5858 8.75 12C8.75 12.4142 8.41421 12.75 8 12.75ZM20.75 12C20.75 12.4142 20.4142 12.75 20 12.75H16C15.5858 12.75 15.25 12.4142 15.25 12C15.25 11.5858 15.5858 11.25 16 11.25H20C20.4142 11.25 20.75 11.5858 20.75 12ZM12.75 16V19.25H19C19.1381 19.25 19.25 19.1381 19.25 19V17C19.25 16.5858 19.5858 16.25 20 16.25C20.4142 16.25 20.75 16.5858 20.75 17V19C20.75 19.9665 19.9665 20.75 19 20.75H5C4.0335 20.75 3.25 19.9665 3.25 19V17C3.25 16.5858 3.58579 16.25 4 16.25C4.41421 16.25 4.75 16.5858 4.75 17V19C4.75 19.1381 4.86193 19.25 5 19.25H11.25V16C11.25 15.5858 11.5858 15.25 12 15.25C12.4142 15.25 12.75 15.5858 12.75 16ZM12 3.25C12.4142 3.25 12.75 3.58579 12.75 4V8C12.75 8.41421 12.4142 8.75 12 8.75C11.5858 8.75 11.25 8.41421 11.25 8V4C11.25 3.58579 11.5858 3.25 12 3.25Z" fill="currentColor"/>
</svg>
