<svg viewBox="0 0 24 24" fill="currentColor" xmlns="http://www.w3.org/2000/svg">
<path d="M2 5C2 3.34315 3.34315 2 5 2H19C20.6569 2 22 3.34315 22 5V19C22 20.6569 20.6569 22 19 22H5C3.34315 22 2 20.6569 2 19V5ZM18.75 19C18.75 18.5858 18.4142 18.25 18 18.25H6C5.58579 18.25 5.25 18.5858 5.25 19C5.25 19.4142 5.58579 19.75 6 19.75H18C18.4142 19.75 18.75 19.4142 18.75 19ZM18 15V13C18 12.4477 17.5523 12 17 12H7C6.44771 12 6 12.4477 6 13V15C6 15.5523 6.44772 16 7 16H17C17.5523 16 18 15.5523 18 15Z" fill="currentColor"/>
</svg>
