<svg viewBox="0 0 24 24" fill="currentColor" xmlns="http://www.w3.org/2000/svg">
<path d="M9.75 12C9.75 10.7574 10.7574 9.75 12 9.75C13.2426 9.75 14.25 10.7574 14.25 12C14.25 13.2426 13.2426 14.25 12 14.25C10.7574 14.25 9.75 13.2426 9.75 12Z" fill="currentColor"/>
<path d="M12 19C15.8485 19 19.1893 15.6009 20.8611 13.54C21.5981 12.6315 21.5981 11.3685 20.8611 10.46C19.1893 8.39906 15.8485 5 12 5C8.15149 5 4.81074 8.39906 3.13886 10.46C2.40191 11.3685 2.40191 12.6315 3.13886 13.54C4.81074 15.6009 8.15149 19 12 19ZM12 8.25C14.0711 8.25 15.75 9.92893 15.75 12C15.75 14.0711 14.0711 15.75 12 15.75C9.92894 15.75 8.25001 14.0711 8.25001 12C8.25001 9.92893 9.92894 8.25 12 8.25Z" fill="currentColor"/>
</svg>
