<svg viewBox="0 0 24 24" fill="currentColor" xmlns="http://www.w3.org/2000/svg">
<path d="M10 8C8.89543 8 8 8.89543 8 10V14C8 15.1046 8.89543 16 10 16H14C15.1046 16 16 15.1046 16 14V10C16 8.89543 15.1046 8 14 8H10Z" fill="currentColor"/>
<path d="M3 2C2.44772 2 2 2.44772 2 3V5C2 5.55228 2.44772 6 3 6H3.25V10.5H3C2.72386 10.5 2.5 10.7239 2.5 11V13C2.5 13.2761 2.72386 13.5 3 13.5H3.25V18H3C2.44772 18 2 18.4477 2 19V21C2 21.5523 2.44772 22 3 22H5C5.55228 22 6 21.5523 6 21V20.75H10.5V21C10.5 21.2761 10.7239 21.5 11 21.5H13C13.2761 21.5 13.5 21.2761 13.5 21V20.75H18V21C18 21.5523 18.4477 22 19 22H21C21.5523 22 22 21.5523 22 21V19C22 18.4477 21.5523 18 21 18H20.75V13.5H21C21.2761 13.5 21.5 13.2761 21.5 13V11C21.5 10.7239 21.2761 10.5 21 10.5H20.75V6H21C21.5523 6 22 5.55228 22 5V3C22 2.44772 21.5523 2 21 2H19C18.4477 2 18 2.44772 18 3V3.25H13.5V3C13.5 2.72386 13.2761 2.5 13 2.5H11C10.7239 2.5 10.5 2.72386 10.5 3V3.25H6V3C6 2.44772 5.55228 2 5 2H3ZM13.5 19C13.5 18.7239 13.2761 18.5 13 18.5H11C10.7239 18.5 10.5 18.7239 10.5 19V19.25H6V19C6 18.4477 5.55228 18 5 18H4.75V13.5H5C5.27614 13.5 5.5 13.2761 5.5 13V11C5.5 10.7239 5.27614 10.5 5 10.5H4.75V6H5C5.55228 6 6 5.55228 6 5V4.75H10.5V5C10.5 5.27614 10.7239 5.5 11 5.5H13C13.2761 5.5 13.5 5.27614 13.5 5V4.75H18V5C18 5.55228 18.4477 6 19 6H19.25V10.5H19C18.7239 10.5 18.5 10.7239 18.5 11V13C18.5 13.2761 18.7239 13.5 19 13.5H19.25V18H19C18.4477 18 18 18.4477 18 19V19.25H13.5V19Z" fill="currentColor"/>
</svg>
