<svg viewBox="0 0 24 24" fill="currentColor" xmlns="http://www.w3.org/2000/svg">
<path d="M4 2C2.89543 2 2 2.89543 2 4V9C2 10.1046 2.89543 11 4 11H9C10.1046 11 11 10.1046 11 9V4C11 2.89543 10.1046 2 9 2H4Z" fill="currentColor"/>
<path d="M18.25 3C18.25 2.58579 17.9142 2.25 17.5 2.25C17.0858 2.25 16.75 2.58579 16.75 3V5.75H14C13.5858 5.75 13.25 6.08579 13.25 6.5C13.25 6.91421 13.5858 7.25 14 7.25H16.75V10C16.75 10.4142 17.0858 10.75 17.5 10.75C17.9142 10.75 18.25 10.4142 18.25 10V7.25H21C21.4142 7.25 21.75 6.91421 21.75 6.5C21.75 6.08579 21.4142 5.75 21 5.75H18.25V3Z" fill="currentColor"/>
<path d="M2 15C2 13.8954 2.89543 13 4 13H9C10.1046 13 11 13.8954 11 15V20C11 21.1046 10.1046 22 9 22H4C2.89543 22 2 21.1046 2 20V15Z" fill="currentColor"/>
<path d="M15 13C13.8954 13 13 13.8954 13 15V20C13 21.1046 13.8954 22 15 22H20C21.1046 22 22 21.1046 22 20V15C22 13.8954 21.1046 13 20 13H15Z" fill="currentColor"/>
</svg>
