<svg viewBox="0 0 24 24" fill="currentColor" xmlns="http://www.w3.org/2000/svg">
<path d="M6 1.25C6.41421 1.25 6.75 1.58579 6.75 2V5.25H11.25V2C11.25 1.58579 11.5858 1.25 12 1.25C12.4142 1.25 12.75 1.58579 12.75 2V5.25H17.25V2C17.25 1.58579 17.5858 1.25 18 1.25C18.4142 1.25 18.75 1.58579 18.75 2V5.25H22C22.4142 5.25 22.75 5.58579 22.75 6C22.75 6.41421 22.4142 6.75 22 6.75H18.75V11.25H22C22.4142 11.25 22.75 11.5858 22.75 12C22.75 12.4142 22.4142 12.75 22 12.75H18.75V17.25H22C22.4142 17.25 22.75 17.5858 22.75 18C22.75 18.4142 22.4142 18.75 22 18.75H18.75V22C18.75 22.4142 18.4142 22.75 18 22.75C17.5858 22.75 17.25 22.4142 17.25 22V18.75H12.75V22C12.75 22.4142 12.4142 22.75 12 22.75C11.5858 22.75 11.25 22.4142 11.25 22V18.75H6.75V22C6.75 22.4142 6.41421 22.75 6 22.75C5.58579 22.75 5.25 22.4142 5.25 22V18.75H2C1.58579 18.75 1.25 18.4142 1.25 18C1.25 17.5858 1.58579 17.25 2 17.25H5.25V12.75H2C1.58579 12.75 1.25 12.4142 1.25 12C1.25 11.5858 1.58579 11.25 2 11.25H5.25V6.75H2C1.58579 6.75 1.25 6.41421 1.25 6C1.25 5.58579 1.58579 5.25 2 5.25H5.25V2C5.25 1.58579 5.58579 1.25 6 1.25ZM6.75 12.75V17.25H11.25V12.75H6.75ZM11.25 11.25V6.75H6.75V11.25H11.25ZM12.75 12.75V17.25H17.25V12.75H12.75ZM17.25 11.25V6.75H12.75V11.25H17.25Z" fill="currentColor"/>
</svg>
