<svg viewBox="0 0 24 24" fill="currentColor" xmlns="http://www.w3.org/2000/svg">
<path d="M4 2C2.89543 2 2 2.89543 2 4V10C2 11.1046 2.89543 12 4 12H5.5V9C5.5 7.067 7.067 5.5 9 5.5H12V4C12 2.89543 11.1046 2 10 2H4Z" fill="currentColor"/>
<path d="M12 14C12 12.8954 12.8954 12 14 12H20C21.1046 12 22 12.8954 22 14V20C22 21.1046 21.1046 22 20 22H14C12.8954 22 12 21.1046 12 20V14Z" fill="currentColor"/>
<path d="M9 7C7.89543 7 7 7.89543 7 9V15C7 16.1046 7.89543 17 9 17H10.5V14C10.5 12.067 12.067 10.5 14 10.5H17V9C17 7.89543 16.1046 7 15 7H9Z" fill="currentColor"/>
</svg>
