<svg viewBox="0 0 24 24" fill="currentColor" xmlns="http://www.w3.org/2000/svg">
<path d="M2.93836 9.09384C1.68721 9.5943 1.68721 10.4057 2.93836 10.9062L5.91324 12.0961L5.20841 12.378C4.82382 12.5319 4.63676 12.9684 4.79059 13.3529C4.94443 13.7375 5.3809 13.9246 5.76549 13.7708L7.46455 13.0911C7.59705 13.0381 7.70611 12.9516 7.78586 12.8452L9.73459 13.6247C10.9857 14.1251 13.0143 14.1251 14.2654 13.6247L16.2141 12.8452C16.2939 12.9516 16.4029 13.0381 16.5355 13.0911L18.2345 13.7708C18.6191 13.9246 19.0556 13.7375 19.2094 13.3529C19.3632 12.9684 19.1762 12.5319 18.7916 12.378L18.0868 12.0961L21.0616 10.9062C22.3128 10.4057 22.3128 9.5943 21.0616 9.09384L14.2654 6.37535C13.0143 5.87488 10.9857 5.87488 9.73459 6.37535L2.93836 9.09384Z" fill="currentColor"/>
<path d="M4.06643 14.4504C4.45102 14.2965 4.63808 13.8601 4.48425 13.4755C4.33041 13.0909 3.89394 12.9038 3.50935 13.0577L2.65982 13.3975C2.30565 13.5391 2.11899 13.9205 2.21184 14.2803C2.14466 14.2606 2.07357 14.25 2 14.25C1.58579 14.25 1.25 14.5858 1.25 15C1.25 15.42 1.45355 15.7653 1.7079 16.0162C1.95849 16.2634 2.29017 16.4547 2.65982 16.6025L3.50935 16.9423C3.89394 17.0962 4.33041 16.9091 4.48425 16.5245C4.63808 16.1399 4.45102 15.7035 4.06643 15.5496L3.21691 15.2098C2.96098 15.1074 2.82348 15.0096 2.76128 14.9483C2.7556 14.9427 2.75092 14.9378 2.7471 14.9336C2.74349 14.8925 2.73657 14.8523 2.72659 14.8133C2.88245 14.8593 3.05432 14.8552 3.21691 14.7902L4.06643 14.4504Z" fill="currentColor"/>
<path d="M20.4907 13.0577C20.1061 12.9038 19.6696 13.0909 19.5158 13.4755C19.3619 13.8601 19.549 14.2965 19.9336 14.4504L20.7831 14.7902C21.039 14.8926 21.1765 14.9904 21.2387 15.0517C21.2444 15.0573 21.2491 15.0622 21.2529 15.0664C21.2565 15.1075 21.2634 15.1477 21.2734 15.1867C21.1175 15.1407 20.9457 15.1448 20.7831 15.2098L19.9336 15.5496C19.549 15.7035 19.3619 16.1399 19.5158 16.5245C19.6696 16.9091 20.1061 17.0962 20.4907 16.9423L21.3402 16.6025C21.6944 16.4609 21.881 16.0795 21.7882 15.7197C21.8553 15.7394 21.9264 15.75 22 15.75C22.4142 15.75 22.75 15.4142 22.75 15C22.75 14.58 22.5464 14.2347 22.2921 13.9838C22.0415 13.7366 21.7098 13.5453 21.3402 13.3975L20.4907 13.0577Z" fill="currentColor"/>
<path d="M5.7655 16.2292C5.38091 16.0754 4.94443 16.2625 4.79059 16.6471C4.63676 17.0316 4.82382 17.4681 5.20841 17.622L6.90747 18.3016C7.29206 18.4554 7.72853 18.2684 7.88236 17.8838C8.0362 17.4992 7.84915 17.0627 7.46456 16.9089L5.7655 16.2292Z" fill="currentColor"/>
<path d="M18.7916 17.622C19.1762 17.4681 19.3632 17.0316 19.2094 16.6471C19.0556 16.2625 18.6191 16.0754 18.2345 16.2292L16.5355 16.9089C16.1509 17.0627 15.9638 17.4992 16.1176 17.8838C16.2715 18.2684 16.708 18.4554 17.0925 18.3016L18.7916 17.622Z" fill="currentColor"/>
<path d="M9.16361 17.5885C8.77902 17.4347 8.34254 17.6217 8.1887 18.0063C8.03487 18.3909 8.22193 18.8274 8.60652 18.9812L9.45605 19.321C9.8484 19.478 10.2869 19.5872 10.7356 19.6562C11.145 19.719 11.5278 19.4381 11.5907 19.0287C11.6536 18.6193 11.3727 18.2364 10.9633 18.1735C10.5994 18.1176 10.276 18.0335 10.0131 17.9283L9.16361 17.5885Z" fill="currentColor"/>
<path d="M15.3935 18.9812C15.7781 18.8274 15.9651 18.3909 15.8113 18.0063C15.6575 17.6217 15.221 17.4347 14.8364 17.5885L13.9869 17.9283C13.724 18.0335 13.4006 18.1176 13.0367 18.1735C12.6273 18.2364 12.3464 18.6193 12.4093 19.0287C12.4722 19.4381 12.855 19.719 13.2644 19.6562C13.7131 19.5872 14.1516 19.478 14.544 19.321L15.3935 18.9812Z" fill="currentColor"/>
</svg>
