<svg viewBox="0 0 24 24" fill="currentColor" xmlns="http://www.w3.org/2000/svg">
<path d="M2 5C2 3.89543 2.89543 3 4 3H20C21.1046 3 22 3.89543 22 5V11C22 12.1046 21.1046 13 20 13H4C2.89543 13 2 12.1046 2 11V5Z" fill="currentColor"/>
<path d="M2.25 16.5C2.25 16.0858 2.58579 15.75 3 15.75H21C21.4142 15.75 21.75 16.0858 21.75 16.5C21.75 16.9142 21.4142 17.25 21 17.25H3C2.58579 17.25 2.25 16.9142 2.25 16.5Z" fill="currentColor"/>
<path d="M3 20.25C2.58579 20.25 2.25 20.5858 2.25 21C2.25 21.4142 2.58579 21.75 3 21.75H21C21.4142 21.75 21.75 21.4142 21.75 21C21.75 20.5858 21.4142 20.25 21 20.25H3Z" fill="currentColor"/>
</svg>
