<svg viewBox="0 0 24 24" fill="currentColor" xmlns="http://www.w3.org/2000/svg">
<path d="M2 4C2 2.89543 2.89543 2 4 2H20C21.1046 2 22 2.89543 22 4V9C22 10.1046 21.1046 11 20 11H4C2.89543 11 2 10.1046 2 9V4Z" fill="currentColor"/>
<path d="M2 15C2 13.8954 2.89543 13 4 13H9C10.1046 13 11 13.8954 11 15V20C11 21.1046 10.1046 22 9 22H4C2.89543 22 2 21.1046 2 20V15Z" fill="currentColor"/>
<path d="M15 13C13.8954 13 13 13.8954 13 15V20C13 21.1046 13.8954 22 15 22H20C21.1046 22 22 21.1046 22 20V15C22 13.8954 21.1046 13 20 13H15Z" fill="currentColor"/>
</svg>
