<svg viewBox="0 0 24 24" fill="currentColor" xmlns="http://www.w3.org/2000/svg">
<path d="M3.90759 3.02975C3.44681 2.83989 3.00701 3.28357 3.1952 3.74841L4.5639 7.12903C4.64187 7.32163 4.61283 7.53697 4.4879 7.6926L2.29496 10.4244C1.99343 10.8001 2.29536 11.3788 2.78402 11.3619L6.33791 11.2391C6.54038 11.232 6.73589 11.3358 6.84959 11.5107L8.84541 14.5798C9.11983 15.0018 9.74624 14.9158 9.86005 14.4406L10.5469 11.5724L16.8919 17.9733C17.2002 18.2843 17.7001 18.2843 18.0084 17.9733C18.3167 17.6623 18.3167 17.158 18.0084 16.847L11.6634 10.4461L14.5064 9.75327C14.9776 9.63845 15.0628 9.00653 14.6445 8.72969L11.6022 6.71631C11.4288 6.6016 11.3259 6.40437 11.3329 6.20012L11.4547 2.61495C11.4715 2.12198 10.8977 1.8174 10.5254 2.12158L7.81737 4.33382C7.66309 4.45986 7.44964 4.48915 7.25872 4.41049L3.90759 3.02975Z" fill="currentColor"/>
<path d="M19.3262 3.22584C19.1599 2.77254 18.5243 2.77254 18.3581 3.22584L17.8093 4.722C17.757 4.86452 17.6456 4.97688 17.5043 5.02962L16.0212 5.58325C15.5719 5.75099 15.5719 6.39213 16.0212 6.55987L17.5043 7.1135C17.6456 7.16623 17.757 7.2786 17.8093 7.42112L18.3581 8.91727C18.5243 9.37058 19.1599 9.37058 19.3262 8.91727L19.875 7.42112C19.9272 7.2786 20.0386 7.16623 20.1799 7.1135L21.663 6.55987C22.1123 6.39213 22.1123 5.75099 21.663 5.58325L20.1799 5.02962C20.0386 4.97688 19.9272 4.86452 19.875 4.722L19.3262 3.22584Z" fill="currentColor"/>
<path d="M3.78256 17.9791C3.89341 17.6769 4.31711 17.6769 4.42796 17.9791L4.79383 18.9765C4.82868 19.0715 4.90294 19.1464 4.99712 19.1816L5.98585 19.5507C6.28542 19.6625 6.28542 20.0899 5.98585 20.2017L4.99712 20.5708C4.90294 20.606 4.82868 20.6809 4.79383 20.7759L4.42796 21.7733C4.31711 22.0755 3.89341 22.0755 3.78256 21.7733L3.4167 20.7759C3.38185 20.6809 3.30759 20.606 3.21341 20.5708L2.22467 20.2017C1.92511 20.0899 1.92511 19.6625 2.22467 19.5507L3.21341 19.1816C3.30759 19.1464 3.38185 19.0715 3.4167 18.9765L3.78256 17.9791Z" fill="currentColor"/>
</svg>
