<svg viewBox="0 0 24 24" fill="currentColor" xmlns="http://www.w3.org/2000/svg">
<path d="M6.25 2H5C3.34315 2 2 3.34315 2 5V6.25H6.25V2Z" fill="currentColor"/>
<path d="M2 16.25V7.75H6.25V16.25H2Z" fill="currentColor"/>
<path d="M2 17.75V19C2 20.6569 3.34315 22 5 22H6.25V17.75H2Z" fill="currentColor"/>
<path d="M7.75 17.75V22H16.25V17.75H7.75Z" fill="currentColor"/>
<path d="M17.75 17.75V22H19C20.6569 22 22 20.6569 22 19V17.75H17.75Z" fill="currentColor"/>
<path d="M22 16.25H17.75V7.75H22V16.25Z" fill="currentColor"/>
<path d="M16.25 16.25H7.75V7.75H16.25V16.25Z" fill="currentColor"/>
<path d="M17.75 6.25H22V5C22 3.34315 20.6569 2 19 2H17.75V6.25Z" fill="currentColor"/>
<path d="M7.75 6.25H16.25V2H7.75V6.25Z" fill="currentColor"/>
</svg>
