<svg viewBox="0 0 24 24" fill="currentColor" xmlns="http://www.w3.org/2000/svg">
<path d="M12.5303 1.46967C12.2374 1.17678 11.7626 1.17678 11.4697 1.46967L7.96967 4.96967C7.67678 5.26256 7.67678 5.73744 7.96967 6.03033C8.26256 6.32322 8.73744 6.32322 9.03033 6.03033L11.25 3.81066V11.25H3.81066L6.03033 9.03033C6.32322 8.73744 6.32322 8.26256 6.03033 7.96967C5.73744 7.67678 5.26256 7.67678 4.96967 7.96967L1.46967 11.4697C1.32902 11.6103 1.25 11.8011 1.25 12C1.25 12.1989 1.32902 12.3897 1.46967 12.5303L4.96967 16.0303C5.26256 16.3232 5.73744 16.3232 6.03033 16.0303C6.32322 15.7374 6.32322 15.2626 6.03033 14.9697L3.81066 12.75H11.25V20.1893L9.03033 17.9697C8.73744 17.6768 8.26256 17.6768 7.96967 17.9697C7.67678 18.2626 7.67678 18.7374 7.96967 19.0303L11.4697 22.5303C11.7626 22.8232 12.2374 22.8232 12.5303 22.5303L16.0303 19.0303C16.3232 18.7374 16.3232 18.2626 16.0303 17.9697C15.7374 17.6768 15.2626 17.6768 14.9697 17.9697L12.75 20.1893V12.75H20.1893L17.9697 14.9697C17.6768 15.2626 17.6768 15.7374 17.9697 16.0303C18.2626 16.3232 18.7374 16.3232 19.0303 16.0303L22.5303 12.5303C22.671 12.3897 22.75 12.1989 22.75 12C22.75 11.8011 22.671 11.6103 22.5303 11.4697L19.0303 7.96967C18.7374 7.67678 18.2626 7.67678 17.9697 7.96967C17.6768 8.26256 17.6768 8.73744 17.9697 9.03033L20.1893 11.25H12.75V3.81066L14.9697 6.03033C15.2626 6.32322 15.7374 6.32322 16.0303 6.03033C16.3232 5.73744 16.3232 5.26256 16.0303 4.96967L12.5303 1.46967Z" fill="currentColor"/>
</svg>
