<svg viewBox="0 0 24 24" fill="currentColor" xmlns="http://www.w3.org/2000/svg">
<path d="M5 2.75C4.69354 2.75 4.40318 2.81086 4.13893 2.92044C3.75631 3.0791 3.31751 2.89755 3.15884 2.51493C3.00018 2.13231 3.18173 1.69351 3.56435 1.53485C4.00754 1.35106 4.49291 1.25 5 1.25H6.75C7.16421 1.25 7.5 1.58579 7.5 2C7.5 2.41421 7.16421 2.75 6.75 2.75H5Z" fill="currentColor"/>
<path d="M9.5 2C9.5 1.58579 9.83579 1.25 10.25 1.25H13.75C14.1642 1.25 14.5 1.58579 14.5 2C14.5 2.41421 14.1642 2.75 13.75 2.75H10.25C9.83579 2.75 9.5 2.41421 9.5 2Z" fill="currentColor"/>
<path d="M16.5 2C16.5 1.58579 16.8358 1.25 17.25 1.25H19C19.5071 1.25 19.9925 1.35106 20.4357 1.53485C20.8183 1.69351 20.9998 2.13231 20.8412 2.51493C20.6825 2.89755 20.2437 3.0791 19.8611 2.92044C19.5968 2.81086 19.3065 2.75 19 2.75H17.25C16.8358 2.75 16.5 2.41421 16.5 2Z" fill="currentColor"/>
<path d="M2.51493 3.15884C2.89755 3.31751 3.0791 3.75631 2.92044 4.13893C2.81086 4.40318 2.75 4.69354 2.75 5V6.75C2.75 7.16421 2.41421 7.5 2 7.5C1.58579 7.5 1.25 7.16421 1.25 6.75V5C1.25 4.49291 1.35106 4.00754 1.53485 3.56435C1.69351 3.18173 2.13231 3.00018 2.51493 3.15884Z" fill="currentColor"/>
<path d="M21.4851 3.15884C21.8677 3.00018 22.3065 3.18173 22.4652 3.56435C22.6489 4.00754 22.75 4.49291 22.75 5V6.75C22.75 7.16421 22.4142 7.5 22 7.5C21.5858 7.5 21.25 7.16421 21.25 6.75V5C21.25 4.69354 21.1891 4.40318 21.0796 4.13893C20.9209 3.75631 21.1024 3.31751 21.4851 3.15884Z" fill="currentColor"/>
<path d="M2 9.5C2.41421 9.5 2.75 9.83579 2.75 10.25V13.75C2.75 14.1642 2.41421 14.5 2 14.5C1.58579 14.5 1.25 14.1642 1.25 13.75V10.25C1.25 9.83579 1.58579 9.5 2 9.5Z" fill="currentColor"/>
<path d="M22 9.5C22.4142 9.5 22.75 9.83579 22.75 10.25V13.75C22.75 14.1642 22.4142 14.5 22 14.5C21.5858 14.5 21.25 14.1642 21.25 13.75V10.25C21.25 9.83579 21.5858 9.5 22 9.5Z" fill="currentColor"/>
<path d="M2 16.5C2.41421 16.5 2.75 16.8358 2.75 17.25V19C2.75 19.3065 2.81086 19.5968 2.92044 19.8611C3.0791 20.2437 2.89755 20.6825 2.51493 20.8412C2.13231 20.9998 1.69351 20.8183 1.53485 20.4357C1.35106 19.9925 1.25 19.5071 1.25 19V17.25C1.25 16.8358 1.58579 16.5 2 16.5Z" fill="currentColor"/>
<path d="M22 16.5C22.4142 16.5 22.75 16.8358 22.75 17.25V19C22.75 19.5071 22.6489 19.9925 22.4652 20.4357C22.3065 20.8183 21.8677 20.9998 21.4851 20.8412C21.1024 20.6825 20.9209 20.2437 21.0796 19.8611C21.1891 19.5968 21.25 19.3065 21.25 19V17.25C21.25 16.8358 21.5858 16.5 22 16.5Z" fill="currentColor"/>
<path d="M3.15884 21.4851C3.31751 21.1024 3.75631 20.9209 4.13893 21.0796C4.40318 21.1891 4.69354 21.25 5 21.25H6.75C7.16421 21.25 7.5 21.5858 7.5 22C7.5 22.4142 7.16421 22.75 6.75 22.75H5C4.49291 22.75 4.00754 22.6489 3.56435 22.4652C3.18173 22.3065 3.00018 21.8677 3.15884 21.4851Z" fill="currentColor"/>
<path d="M20.8412 21.4851C20.9998 21.8677 20.8183 22.3065 20.4357 22.4652C19.9925 22.6489 19.5071 22.75 19 22.75H17.25C16.8358 22.75 16.5 22.4142 16.5 22C16.5 21.5858 16.8358 21.25 17.25 21.25H19C19.3065 21.25 19.5968 21.1891 19.8611 21.0796C20.2437 20.9209 20.6825 21.1024 20.8412 21.4851Z" fill="currentColor"/>
<path d="M9.5 22C9.5 21.5858 9.83579 21.25 10.25 21.25H13.75C14.1642 21.25 14.5 21.5858 14.5 22C14.5 22.4142 14.1642 22.75 13.75 22.75H10.25C9.83579 22.75 9.5 22.4142 9.5 22Z" fill="currentColor"/>
<path d="M8.75 12C8.75 12.4142 8.41421 12.75 8 12.75H5C4.58579 12.75 4.25 12.4142 4.25 12C4.25 11.5858 4.58579 11.25 5 11.25H8C8.41421 11.25 8.75 11.5858 8.75 12Z" fill="currentColor"/>
<path d="M19 12.75C19.4142 12.75 19.75 12.4142 19.75 12C19.75 11.5858 19.4142 11.25 19 11.25H16C15.5858 11.25 15.25 11.5858 15.25 12C15.25 12.4142 15.5858 12.75 16 12.75H19Z" fill="currentColor"/>
<path d="M12 15.25C12.4142 15.25 12.75 15.5858 12.75 16V19C12.75 19.4142 12.4142 19.75 12 19.75C11.5858 19.75 11.25 19.4142 11.25 19V16C11.25 15.5858 11.5858 15.25 12 15.25Z" fill="currentColor"/>
<path d="M12.75 5C12.75 4.58579 12.4142 4.25 12 4.25C11.5858 4.25 11.25 4.58579 11.25 5V8C11.25 8.41421 11.5858 8.75 12 8.75C12.4142 8.75 12.75 8.41421 12.75 8V5Z" fill="currentColor"/>
<path d="M12 9.75C12.4142 9.75 12.75 10.0858 12.75 10.5V11.25H13.5C13.9142 11.25 14.25 11.5858 14.25 12C14.25 12.4142 13.9142 12.75 13.5 12.75H12.75V13.5C12.75 13.9142 12.4142 14.25 12 14.25C11.5858 14.25 11.25 13.9142 11.25 13.5V12.75H10.5C10.0858 12.75 9.75 12.4142 9.75 12C9.75 11.5858 10.0858 11.25 10.5 11.25H11.25V10.5C11.25 10.0858 11.5858 9.75 12 9.75Z" fill="currentColor"/>
</svg>
