<svg viewBox="0 0 24 24" fill="currentColor" xmlns="http://www.w3.org/2000/svg">
<path d="M20.894 13.2038C21.6689 12.433 22.1447 11.3795 21.9603 10.305C21.151 5.58941 17.0229 2 12.0521 2C6.50046 2 2 6.47715 2 12C2 17.5228 6.50046 22 12.0521 22C12.7764 22 13.4828 21.9238 14.1637 21.779C14.8254 21.6383 15.3298 21.127 15.552 20.4911L15.583 20.4024C15.8748 19.567 15.5901 18.6398 14.8789 18.1092L13.8013 17.3051C12.8781 16.6163 12.7822 15.2737 13.5982 14.4619C14.1908 13.8724 15.0673 13.6665 15.8623 13.9302L16.6661 14.1967C18.1507 14.689 19.7875 14.3046 20.894 13.2038ZM18.0833 7.5C18.0833 8.32843 17.4082 9 16.5755 9C15.7428 9 15.0677 8.32843 15.0677 7.5C15.0677 6.67157 15.7428 6 16.5755 6C17.4082 6 18.0833 6.67157 18.0833 7.5ZM12.0521 7C11.2193 7 10.5443 6.32843 10.5443 5.5C10.5443 4.67157 11.2193 4 12.0521 4C12.8848 4 13.5599 4.67157 13.5599 5.5C13.5599 6.32843 12.8848 7 12.0521 7ZM9.03645 7.5C9.03645 8.32843 8.36138 9 7.52864 9C6.6959 9 6.02083 8.32843 6.02083 7.5C6.02083 6.67157 6.6959 6 7.52864 6C8.36138 6 9.03645 6.67157 9.03645 7.5ZM5.51822 13.5C4.68548 13.5 4.01041 12.8284 4.01041 12C4.01041 11.1716 4.68548 10.5 5.51822 10.5C6.35096 10.5 7.02603 11.1716 7.02603 12C7.02603 12.8284 6.35096 13.5 5.51822 13.5Z" fill="currentColor"/>
</svg>
