<svg viewBox="0 0 24 24" fill="currentColor" xmlns="http://www.w3.org/2000/svg">
<path d="M13.2007 3.25163L13.2469 3.24854L13.2931 3.25115C14.0771 3.29544 14.8528 3.38728 15.6201 3.52672L15.6657 3.53502L15.71 3.54888C16.4477 3.7798 17.1655 4.05414 17.8632 4.37193L17.9058 4.39131L17.9456 4.41583C18.5921 4.8139 19.2086 5.24867 19.7951 5.72012L19.8319 5.74974L19.8648 5.78375C20.382 6.31953 20.8614 6.88317 21.3028 7.47458L21.3314 7.51289L21.3549 7.55453C21.714 8.19064 22.0299 8.8442 22.3024 9.51511L22.3206 9.5598L22.3329 9.60645C22.5155 10.3001 22.6525 10.9999 22.7438 11.7057L22.75 11.7538V11.8022C22.7497 12.5079 22.7043 13.2084 22.6139 13.9036L22.6076 13.9515L22.5952 13.9983C22.4175 14.6711 22.1981 15.328 21.9371 15.9689L21.9189 16.0134L21.8953 16.0552C21.5568 16.6536 21.1826 17.2268 20.7729 17.7746L20.7444 17.8127L20.7113 17.8469C20.2385 18.3355 19.7382 18.7916 19.2103 19.2149L19.1736 19.2444L19.1335 19.269C18.5606 19.6207 17.9696 19.9348 17.3606 20.2111L17.3181 20.2304L17.2736 20.2442C16.6398 20.4415 15.9982 20.5987 15.3489 20.7155L15.3033 20.7237L15.257 20.7262C14.6039 20.7619 13.9535 20.7574 13.306 20.7127L13.2597 20.7095L13.2142 20.7006C12.5834 20.5776 11.9652 20.4171 11.3598 20.2189L11.3154 20.2044L11.2732 20.1845C10.7034 19.9158 10.1551 19.6144 9.62838 19.2802L9.5886 19.2549L9.55228 19.2249C9.07728 18.8321 8.63093 18.4133 8.21345 17.9684L8.18084 17.9336L8.15288 17.895C7.79944 17.4069 7.47983 16.9009 7.19431 16.3771L7.17126 16.3348L7.1538 16.2899C6.94019 15.7404 6.7633 15.1821 6.62335 14.6151L6.61172 14.568L6.60626 14.5199C6.54121 13.946 6.51333 13.3726 6.52275 12.8L6.52355 12.7515L6.5306 12.7034C6.61295 12.1425 6.73047 11.5911 6.88323 11.0494L6.89635 11.0028L6.91534 10.9584C7.13436 10.4456 7.38434 9.9503 7.66529 9.47283L7.68959 9.43153L7.71895 9.39365C8.05543 8.95963 8.41684 8.54977 8.80311 8.16427L8.83666 8.13078L8.87416 8.1018C9.3021 7.77092 9.74759 7.46895 10.2105 7.19607L10.2509 7.17224L10.294 7.15364C10.7827 6.94259 11.2807 6.76316 11.788 6.6155L11.8327 6.60248L11.8787 6.59509C12.3949 6.51224 12.9119 6.4616 13.4298 6.44332L13.4763 6.44167L13.5226 6.44579C14.0326 6.49107 14.5354 6.56712 15.0309 6.67405L15.0766 6.6839L15.1206 6.69933C15.5926 6.86464 16.0502 7.0574 16.493 7.27771L16.5351 7.29868L16.5743 7.32476C16.9802 7.59475 17.3654 7.88731 17.7297 8.20244L17.7658 8.23359L17.7975 8.26904C18.1143 8.62233 18.4058 8.99204 18.6718 9.3781L18.6991 9.41777L18.7211 9.46061C18.9323 9.87124 19.1154 10.2913 19.2703 10.7207L19.2868 10.7664L19.2972 10.8139C19.3939 11.2531 19.4617 11.6945 19.5003 12.1378L19.5046 12.1864L19.5025 12.2351C19.4836 12.6735 19.4369 13.1068 19.3621 13.5348L19.3537 13.5828L19.3392 13.6293C19.2114 14.0386 19.0586 14.4363 18.8808 14.8222L18.8605 14.8661L18.8348 14.9071C18.6117 15.2623 18.368 15.6006 18.1036 15.9217L18.0732 15.9587L18.0383 15.9915C17.7391 16.2726 17.4248 16.5329 17.0954 16.7718L17.0571 16.7997L17.0156 16.8224C16.6635 17.0154 16.3025 17.185 15.9326 17.331L15.8889 17.3483L15.8434 17.3599C15.4638 17.4572 15.0816 17.5302 14.697 17.5789L14.6506 17.5847L14.6037 17.5848C14.2224 17.5852 13.8446 17.5623 13.4706 17.5158L13.424 17.51L13.3785 17.4985C13.0198 17.4074 12.6703 17.2951 12.3303 17.1616L12.2862 17.1443L12.2447 17.1216C11.9303 16.9498 11.6299 16.7603 11.3439 16.5531L11.3051 16.525L11.2702 16.4923C11.018 16.2553 10.7834 16.005 10.5667 15.7415L10.5359 15.7041L10.5102 15.663C10.333 15.3798 10.1757 15.0884 10.0387 14.789L10.0183 14.7444L10.0039 14.6976C9.90901 14.3894 9.83489 14.0785 9.78184 13.7649L9.7736 13.7162L9.77182 13.6669C9.76054 13.3557 9.76943 13.047 9.79871 12.7409C9.83816 12.3286 10.2044 12.0263 10.6167 12.0658C11.0291 12.1052 11.3313 12.4714 11.2919 12.8838C11.2705 13.1071 11.2629 13.3335 11.2693 13.5633C11.3077 13.779 11.3589 13.9943 11.4232 14.2092C11.5212 14.4187 11.6321 14.6243 11.7563 14.8261C11.9128 15.0136 12.0815 15.1936 12.2626 15.3663C12.4723 15.5159 12.6922 15.6546 12.9226 15.7825C13.1751 15.8797 13.4349 15.9632 13.7023 16.0329C13.983 16.066 14.2672 16.0833 14.5552 16.0847C14.8461 16.0461 15.1362 15.9907 15.4256 15.9184C15.7067 15.8055 15.9824 15.676 16.2528 15.5298C16.5038 15.3455 16.7448 15.146 16.976 14.9312C17.1775 14.6835 17.365 14.4233 17.5386 14.1503C17.674 13.8521 17.792 13.545 17.8927 13.2287C17.9487 12.8969 17.985 12.5605 18.0016 12.2194C17.9695 11.8738 17.9166 11.5287 17.8426 11.1839C17.719 10.8466 17.5745 10.5152 17.4091 10.1896C17.1962 9.88384 16.964 9.58929 16.7124 9.30587C16.4188 9.05439 16.1089 8.81902 15.7826 8.5998C15.4233 8.42308 15.0521 8.26665 14.6688 8.13055C14.2644 8.04511 13.8536 7.98294 13.4363 7.94412C13.0118 7.96091 12.5873 8.00245 12.1625 8.06884C11.7458 8.19203 11.3356 8.33977 10.9319 8.51218C10.5513 8.73862 10.1838 8.98769 9.82924 9.25953C9.51196 9.57884 9.21352 9.91724 8.93388 10.2749C8.70356 10.6701 8.49691 11.0794 8.3139 11.5031C8.18942 11.9517 8.09206 12.4083 8.02185 12.8732C8.01601 13.3485 8.03914 13.8249 8.09135 14.3027C8.20995 14.775 8.35761 15.2412 8.53449 15.7014C8.77566 16.1398 9.04408 16.5648 9.33994 16.9766C9.69367 17.3508 10.0709 17.7048 10.4719 18.0388C10.9201 18.321 11.3864 18.5774 11.8708 18.8078C12.388 18.9752 12.9162 19.1124 13.4556 19.2193C14.0105 19.2558 14.5682 19.2597 15.1289 19.2309C15.6861 19.1288 16.2375 18.9938 16.7832 18.8258C17.306 18.5866 17.8144 18.3165 18.3085 18.0152C18.7612 17.6498 19.1917 17.2574 19.6001 16.8381C19.9509 16.3658 20.2728 15.8727 20.5659 15.3585C20.7887 14.8065 20.9776 14.241 21.1326 13.6619C21.2086 13.0629 21.2477 12.459 21.2499 11.8501C21.1691 11.2407 21.0507 10.6358 20.8945 10.035C20.6564 9.45422 20.3823 8.88708 20.0721 8.33351C19.6862 7.81974 19.2684 7.32847 18.8184 6.85963C18.3043 6.44878 17.7645 6.06814 17.1989 5.71768C16.5854 5.44033 15.9546 5.19919 15.3062 4.9943C14.63 4.87329 13.9463 4.79231 13.2547 4.75143C12.5581 4.79988 11.8645 4.88962 11.1737 5.02075C10.5015 5.24079 9.84303 5.50067 9.19814 5.80049C8.5949 6.18285 8.01548 6.60091 7.45979 7.05479C6.96649 7.57928 6.50584 8.13287 6.07775 8.71574C5.72918 9.3525 5.42017 10.0097 5.15069 10.6877C4.9728 11.4004 4.83923 12.1236 4.75 12.8573V18H5C5.55228 18 6 18.4477 6 19V21C6 21.5522 5.55228 22 5 22H3C2.44772 22 2 21.5522 2 21V19C2 18.4477 2.44772 18 3 18H3.25V12.7678L3.25527 12.7236C3.35396 11.8952 3.50488 11.0786 3.70806 10.2738L3.71986 10.227L3.73755 10.1822C4.04041 9.41425 4.39022 8.67015 4.78694 7.95005L4.81 7.90819L4.83819 7.86959C5.32077 7.20886 5.84217 6.58222 6.40229 5.98983L6.43477 5.95549L6.4713 5.92549C7.09842 5.41053 7.75401 4.93748 8.43794 4.50647L8.4775 4.48154L8.51986 4.46172C9.24826 4.12078 9.99329 3.8267 10.7548 3.5796L10.799 3.56528L10.8445 3.5565C11.6259 3.40611 12.4113 3.30445 13.2007 3.25163Z" fill="currentColor"/>
</svg>
