<svg viewBox="0 0 24 24" fill="currentColor" xmlns="http://www.w3.org/2000/svg">
<path d="M2 5C2 3.34315 3.34315 2 5 2H19C20.6569 2 22 3.34315 22 5V19C22 20.6569 20.6569 22 19 22H5C3.34315 22 2 20.6569 2 19V5ZM18.75 5C18.75 4.58579 18.4142 4.25 18 4.25H6C5.58579 4.25 5.25 4.58579 5.25 5C5.25 5.41421 5.58579 5.75 6 5.75H18C18.4142 5.75 18.75 5.41421 18.75 5ZM18 9C18 8.44771 17.5523 8 17 8H7C6.44772 8 6 8.44771 6 9V11C6 11.5523 6.44771 12 7 12H17C17.5523 12 18 11.5523 18 11V9Z" fill="currentColor"/>
</svg>
