<svg viewBox="0 0 24 24" fill="currentColor" xmlns="http://www.w3.org/2000/svg">
<path d="M5 2C3.34315 2 2 3.34315 2 5V19C2 20.6569 3.34315 22 5 22H19C20.6569 22 22 20.6569 22 19V5C22 3.34315 20.6569 2 19 2H5ZM8 12.75H4C3.58579 12.75 3.25 12.4142 3.25 12C3.25 11.5858 3.58579 11.25 4 11.25H8C8.41421 11.25 8.75 11.5858 8.75 12C8.75 12.4142 8.41421 12.75 8 12.75ZM20.75 12C20.75 12.4142 20.4142 12.75 20 12.75H16C15.5858 12.75 15.25 12.4142 15.25 12C15.25 11.5858 15.5858 11.25 16 11.25H20C20.4142 11.25 20.75 11.5858 20.75 12ZM12.75 16V20C12.75 20.4142 12.4142 20.75 12 20.75C11.5858 20.75 11.25 20.4142 11.25 20V16C11.25 15.5858 11.5858 15.25 12 15.25C12.4142 15.25 12.75 15.5858 12.75 16ZM11.25 4.75H5C4.86193 4.75 4.75 4.86193 4.75 5V7C4.75 7.41421 4.41421 7.75 4 7.75C3.58579 7.75 3.25 7.41421 3.25 7V5C3.25 4.0335 4.0335 3.25 5 3.25H19C19.9665 3.25 20.75 4.0335 20.75 5V7C20.75 7.41421 20.4142 7.75 20 7.75C19.5858 7.75 19.25 7.41421 19.25 7V5C19.25 4.86193 19.1381 4.75 19 4.75H12.75V8C12.75 8.41421 12.4142 8.75 12 8.75C11.5858 8.75 11.25 8.41421 11.25 8V4.75Z" fill="currentColor"/>
</svg>
