<svg viewBox="0 0 24 24" fill="currentColor" xmlns="http://www.w3.org/2000/svg">
<path d="M4 5C2.89543 5 2 5.89543 2 7V17C2 18.1046 2.89543 19 4 19H20C21.1046 19 22 18.1046 22 17V7C22 5.89543 21.1046 5 20 5H4ZM11.4309 13.1168C11.4309 14.8564 10.1582 16 8.21803 16C6.27273 16 5 14.8564 5 13.1168V9.0255C5 8.37047 5.35181 8 5.95196 8C6.55211 8 6.89874 8.37047 6.89874 9.0255V12.9074C6.89874 13.8094 7.36955 14.3463 8.21803 14.3463C9.06135 14.3463 9.53215 13.8094 9.53215 12.9074V9.0255C9.53215 8.37047 9.87879 8 10.4789 8C11.0843 8 11.4309 8.37047 11.4309 9.0255V13.1168ZM14.2299 15.5114C13.997 15.855 13.7901 15.9839 13.4331 15.9839C12.9313 15.9839 12.5432 15.6081 12.5432 15.1302C12.5432 14.8832 12.6157 14.6685 12.8123 14.3946L14.4989 11.9839V11.9409L12.8795 9.70738C12.6571 9.40671 12.5898 9.18658 12.5898 8.92349C12.5898 8.38658 12.9882 8 13.5418 8C13.8987 8 14.1626 8.16644 14.3902 8.53154L15.8078 10.7383H15.844L17.3134 8.46711C17.5255 8.1396 17.7118 8 18.0791 8C18.5706 8 19 8.3651 19 8.83758C19 9.0953 18.9276 9.31007 18.7413 9.55705L16.9564 11.9624V12L18.6896 14.3624C18.881 14.6094 18.9534 14.8349 18.9534 15.1034C18.9534 15.6188 18.5809 15.9839 18.0584 15.9839C17.7118 15.9839 17.4841 15.8443 17.2358 15.4953L15.7302 13.353H15.6888L14.2299 15.5114Z" fill="currentColor"/>
</svg>
