<svg viewBox="0 0 24 24" fill="currentColor" xmlns="http://www.w3.org/2000/svg">
<path d="M2 3C2 2.44772 2.44772 2 3 2H10C10.5523 2 11 2.44772 11 3V6C11 6.55228 10.5523 7 10 7H3C2.44772 7 2 6.55228 2 6V3Z" fill="currentColor"/>
<path d="M2 10C2 9.44772 2.44772 9 3 9H10C10.5523 9 11 9.44772 11 10V21C11 21.5523 10.5523 22 10 22H3C2.44772 22 2 21.5523 2 21V10Z" fill="currentColor"/>
<path d="M13 3C13 2.44772 13.4477 2 14 2H21C21.5523 2 22 2.44772 22 3V21C22 21.5523 21.5523 22 21 22H14C13.4477 22 13 21.5523 13 21V3Z" fill="currentColor"/>
</svg>
