<svg viewBox="0 0 24 24" fill="currentColor" xmlns="http://www.w3.org/2000/svg">
<path d="M2 6.5C2 4.01472 4.01472 2 6.5 2C8.98528 2 11 4.01472 11 6.5C11 8.98528 8.98528 11 6.5 11C4.01472 11 2 8.98528 2 6.5Z" fill="currentColor"/>
<path d="M2 17.5C2 15.0147 4.01472 13 6.5 13C8.98528 13 11 15.0147 11 17.5C11 19.9853 8.98528 22 6.5 22C4.01472 22 2 19.9853 2 17.5Z" fill="currentColor"/>
<path d="M13 6.5C13 4.01472 15.0147 2 17.5 2C19.9853 2 22 4.01472 22 6.5C22 8.98528 19.9853 11 17.5 11C15.0147 11 13 8.98528 13 6.5Z" fill="currentColor"/>
<path d="M13 17.5C13 15.0147 15.0147 13 17.5 13C19.9853 13 22 15.0147 22 17.5C22 19.9853 19.9853 22 17.5 22C15.0147 22 13 19.9853 13 17.5Z" fill="currentColor"/>
</svg>
