<svg viewBox="0 0 24 24" fill="currentColor" xmlns="http://www.w3.org/2000/svg">
<path d="M2 6.5C2 4.01472 4.01472 2 6.5 2C8.98528 2 11 4.01472 11 6.5V10C11 10.5523 10.5523 11 10 11H6.5C4.01472 11 2 8.98528 2 6.5Z" fill="currentColor"/>
<path d="M22 6.5C22 4.01472 19.9853 2 17.5 2C15.0147 2 13 4.01472 13 6.5V10C13 10.5523 13.4477 11 14 11H17.5C19.9853 11 22 8.98528 22 6.5Z" fill="currentColor"/>
<path d="M2 17.5C2 19.9853 4.01472 22 6.5 22C8.98528 22 11 19.9853 11 17.5V14C11 13.4477 10.5523 13 10 13H6.5C4.01472 13 2 15.0147 2 17.5Z" fill="currentColor"/>
<path d="M22 17.5C22 19.9853 19.9853 22 17.5 22C15.0147 22 13 19.9853 13 17.5V14C13 13.4477 13.4477 13 14 13H17.5C19.9853 13 22 15.0147 22 17.5Z" fill="currentColor"/>
</svg>
