<svg viewBox="0 0 24 24" fill="currentColor" xmlns="http://www.w3.org/2000/svg">
<path d="M2 3C2 2.44772 2.44772 2 3 2H10C10.5523 2 11 2.44772 11 3V6C11 6.55228 10.5523 7 10 7H3C2.44772 7 2 6.55228 2 6V3Z" fill="currentColor"/>
<path d="M2 10C2 9.44772 2.44772 9 3 9H10C10.5523 9 11 9.44772 11 10V21C11 21.5523 10.5523 22 10 22H3C2.44772 22 2 21.5523 2 21V10Z" fill="currentColor"/>
<path d="M13 21C13 21.5523 13.4477 22 14 22H21C21.5523 22 22 21.5523 22 21V18C22 17.4477 21.5523 17 21 17H14C13.4477 17 13 17.4477 13 18V21Z" fill="currentColor"/>
<path d="M13 14C13 14.5523 13.4477 15 14 15H21C21.5523 15 22 14.5523 22 14V3C22 2.44772 21.5523 2 21 2H14C13.4477 2 13 2.44772 13 3V14Z" fill="currentColor"/>
</svg>
