<svg viewBox="0 0 24 24" fill="currentColor" xmlns="http://www.w3.org/2000/svg">
<path d="M10.0024 4.39886C8.98268 6.53199 10.2064 10.0846 11.2389 12.3995C11.3595 12.6699 11.4646 12.9055 11.5643 13.1119L9.39317 13.8443C9.01893 13.9706 8.81667 14.38 8.94142 14.7587C9.06616 15.1375 9.47068 15.3422 9.84493 15.2159L11.1316 14.7819C10.4197 15.7511 9.5983 16.7418 8.6945 17.6244C6.93167 19.3458 4.96032 20.5542 2.95238 20.5542C2.55789 20.5542 2.2381 20.8779 2.2381 21.2771C2.2381 21.6764 2.55789 22 2.95238 22C5.51587 22 7.83024 20.4774 9.68645 18.6648C10.6936 17.6813 11.5969 16.5822 12.3674 15.5221L12.7509 16.6864C12.8757 17.0652 13.2802 17.2699 13.6544 17.1436C14.0287 17.0174 14.231 16.608 14.1062 16.2292L13.5455 14.5269C13.8645 14.5119 14.2369 14.4455 14.7193 14.3596C17.0575 13.9429 20.4382 12.9834 21.4579 10.8502C23.1613 7.28671 20.647 4.18206 16.7537 5.48336C15.4922 1.27904 11.7058 0.835308 10.0024 4.39886Z" fill="currentColor"/>
<path d="M8.85504 12.504C8.88348 12.493 8.91227 12.4826 8.94142 12.4728L9.61495 12.2456C9.172 11.1742 8.72581 9.90941 8.45457 8.63569C8.12857 7.10478 7.99283 5.28293 8.71639 3.7693C8.99701 3.18226 9.33927 2.65902 9.7307 2.21382C8.36017 1.56183 6.71788 2.40571 6.03564 4.67951C3.04079 3.67851 1.10667 6.0667 2.41702 8.80788C3.20142 10.4488 5.80194 11.1869 7.6005 11.5074C7.89819 11.5604 8.14151 11.6038 8.35276 11.6248C8.50428 11.9046 8.67193 12.1989 8.85504 12.504Z" fill="currentColor"/>
<path d="M15.1489 17.7512C14.896 18.0964 14.5395 18.3691 14.1062 18.5153C14.0354 18.5392 13.9643 18.5591 13.893 18.5752C16.1311 20.4992 17.9083 22 21.0136 22C21.4081 22 21.7279 21.6764 21.7279 21.2771C21.7279 20.8779 21.4081 20.5542 21.0136 20.5542C18.5063 20.5542 17.1618 19.3991 15.1489 17.7512Z" fill="currentColor"/>
</svg>
