<svg viewBox="0 0 24 24" fill="currentColor" xmlns="http://www.w3.org/2000/svg">
<path d="M9.5 8.5H10.5V9.5C10.5 10.3284 11.1716 11 12 11C12.8284 11 13.5 10.3284 13.5 9.5V8.5H14.5C15.3284 8.5 16 7.82843 16 7C16 6.17157 15.3284 5.5 14.5 5.5H13.5V4.5C13.5 3.67157 12.8284 3 12 3C11.1716 3 10.5 3.67157 10.5 4.5V5.5H9.5C8.67157 5.5 8 6.17157 8 7C8 7.82843 8.67157 8.5 9.5 8.5ZM12 8C11.4477 8 11 7.55228 11 7C11 6.44772 11.4477 6 12 6C12.5523 6 13 6.44772 13 7C13 7.55228 12.5523 8 12 8Z" fill="currentColor"/>
<path d="M16.6288 9.11377C16.1884 9.55722 15.6105 9.86384 14.9643 9.96423C14.7411 11.4006 13.4989 12.4999 12 12.4999C10.5011 12.4999 9.25884 11.4006 9.03568 9.96423C8.3895 9.86384 7.81154 9.55722 7.37118 9.11377C6.97211 9.35871 6.50254 9.49994 5.99997 9.49994C5.91264 9.49994 5.8263 9.49568 5.74115 9.48734L9.15577 14.3653L10.066 14.7066C10.5876 14.2664 11.2626 13.9999 12 13.9999C12.7374 13.9999 13.4124 14.2664 13.934 14.7066L14.8442 14.3653L18.2588 9.48734C18.1737 9.49568 18.0873 9.49994 18 9.49994C17.4974 9.49994 17.0279 9.35871 16.6288 9.11377Z" fill="currentColor"/>
<path d="M8.59793 4.13799C7.38187 4.52091 6.5 5.65747 6.5 7C6.5 7.28375 6.53939 7.55829 6.61301 7.81847C6.43666 7.93329 6.22612 8 6 8C5.37868 8 4.875 7.49632 4.875 6.875V6.125H4.125C3.50368 6.125 3 5.62132 3 5C3 4.37868 3.50368 3.875 4.125 3.875H4.875V3.125C4.875 2.50368 5.37868 2 6 2C6.62132 2 7.125 2.50368 7.125 3.125V3.875H7.875C8.15025 3.875 8.40242 3.97385 8.59793 4.13799ZM6 5.75C6.41421 5.75 6.75 5.41421 6.75 5C6.75 4.58579 6.41421 4.25 6 4.25C5.58579 4.25 5.25 4.58579 5.25 5C5.25 5.41421 5.58579 5.75 6 5.75Z" fill="currentColor"/>
<path d="M17.387 7.81847C17.4606 7.55829 17.5 7.28375 17.5 7C17.5 5.65747 16.6181 4.52091 15.4021 4.13799C15.5976 3.97385 15.8497 3.875 16.125 3.875H16.875V3.125C16.875 2.50368 17.3787 2 18 2C18.6213 2 19.125 2.50368 19.125 3.125V3.875H19.875C20.4963 3.875 21 4.37868 21 5C21 5.62132 20.4963 6.125 19.875 6.125H19.125V6.875C19.125 7.49632 18.6213 8 18 8C17.7739 8 17.5633 7.93329 17.387 7.81847ZM18.75 5C18.75 4.58579 18.4142 4.25 18 4.25C17.5858 4.25 17.25 4.58579 17.25 5C17.25 5.41421 17.5858 5.75 18 5.75C18.4142 5.75 18.75 5.41421 18.75 5Z" fill="currentColor"/>
<path d="M10.3436 15.8788L8.67556 15.2533C8.34869 15.1308 8 15.3724 8 15.7215V18.2785C8 18.6276 8.34869 18.8692 8.67556 18.7467L10.3436 18.1212C10.7032 18.6515 11.3109 19 12 19C12.6891 19 13.2968 18.6515 13.6564 18.1212L15.3244 18.7467C15.6513 18.8692 16 18.6276 16 18.2785V15.7215C16 15.3724 15.6513 15.1308 15.3244 15.2533L13.6564 15.8788C13.2968 15.3485 12.6891 15 12 15C11.3109 15 10.7032 15.3485 10.3436 15.8788Z" fill="currentColor"/>
<path d="M9.54859 20.6286C9.28584 21.2855 9.7696 22 10.477 22H13.523C14.2304 22 14.7142 21.2855 14.4514 20.6286L14.0039 19.5098C13.9762 19.4404 13.95 19.3706 13.9255 19.3004C13.405 19.7364 12.7334 20 12 20C11.2666 20 10.595 19.7364 10.0745 19.3004C10.05 19.3706 10.0238 19.4404 9.99612 19.5098L9.54859 20.6286Z" fill="currentColor"/>
</svg>
