<svg viewBox="0 0 24 24" fill="currentColor" xmlns="http://www.w3.org/2000/svg">
<path d="M4 7C5.10457 7 6 6.10457 6 5C6 3.89543 4 2 4 2C4 2 2 3.89543 2 5C2 6.10457 2.89543 7 4 7Z" fill="currentColor"/>
<path d="M20 7C21.1046 7 22 6.10457 22 5C22 3.89543 20 2 20 2C20 2 18 3.89543 18 5C18 6.10457 18.8954 7 20 7Z" fill="currentColor"/>
<path d="M2.99998 8.5C2.99998 8.22386 3.22384 8 3.49998 8H4.49998C4.77612 8 4.99998 8.22386 4.99998 8.5V11H5.49998C5.77612 11 6.00639 11.2273 5.93827 11.4949C5.78987 12.0779 5.38543 12.5585 4.85175 12.8101C5.21169 14.2131 6.48474 15.25 7.99998 15.25H11.25V12.8546C10.6662 12.6183 10.2194 12.1144 10.0617 11.4949C9.99357 11.2273 10.2239 11 10.5 11H11V8.5C11 8.22386 11.2239 8 11.5 8H12.5C12.7761 8 13 8.22386 13 8.5V11H13.5C13.7761 11 14.0064 11.2273 13.9383 11.4949C13.7806 12.1144 13.3338 12.6183 12.75 12.8546V15.25H16C17.5152 15.25 18.7883 14.2131 19.1482 12.8101C18.6146 12.5585 18.2101 12.0779 18.0617 11.4949C17.9936 11.2273 18.2239 11 18.5 11H19V8.5C19 8.22386 19.2239 8 19.5 8H20.5C20.7761 8 21 8.22386 21 8.5V11H21.5C21.7761 11 22.0064 11.2273 21.9383 11.4949C21.7732 12.1432 21.2915 12.665 20.6675 12.8859C20.2525 15.0859 18.3206 16.75 16 16.75H12.75V19.0945C13.8042 19.3658 14.6342 20.1958 14.9055 21.25H17C17.4142 21.25 17.75 21.5858 17.75 22C17.75 22.4142 17.4142 22.75 17 22.75H6.99998C6.58577 22.75 6.24998 22.4142 6.24998 22C6.24998 21.5858 6.58577 21.25 6.99998 21.25H9.09449C9.36583 20.1958 10.1958 19.3658 11.25 19.0945V16.75H7.99998C5.67937 16.75 3.74744 15.0859 3.33245 12.8859C2.70846 12.665 2.22673 12.1432 2.06169 11.4949C1.99357 11.2273 2.22384 11 2.49998 11H2.99998V8.5Z" fill="currentColor"/>
<path d="M14 5C14 6.10457 13.1046 7 12 7C10.8954 7 10 6.10457 10 5C10 3.89543 12 2 12 2C12 2 14 3.89543 14 5Z" fill="currentColor"/>
</svg>
