<svg viewBox="0 0 24 24" fill="currentColor" xmlns="http://www.w3.org/2000/svg">
<path d="M11.0885 6.54962C10.2058 5.88638 9 4.79077 9 3.75486C9 2.0243 10.65 1.37819 12 2.71503C13.35 1.37819 15 2.0243 15 3.75485C15 4.79078 13.7942 5.88639 12.9115 6.54963C12.5119 6.84988 12.3121 7 12 7C11.6879 7 11.4881 6.84987 11.0885 6.54962Z" fill="currentColor"/>
<path d="M3 21V20C2.44772 20 2 19.5523 2 19V13L3.49787 5.41165C3.77832 4.00938 5.00956 3 6.43961 3H7.57331C7.5246 3.24494 7.50001 3.49813 7.50001 3.75492C7.50001 4.20646 7.60664 4.62486 7.76587 5H6.43961C5.96293 5 5.55251 5.33646 5.45903 5.80389L4.2198 12H19.7802L18.541 5.80389C18.4475 5.33646 18.0371 5 17.5604 5H16.2341C16.3934 4.62486 16.5 4.20645 16.5 3.75492C16.5 3.49812 16.4754 3.24493 16.4267 3H17.5604C18.9904 3 20.2217 4.00938 20.5021 5.41165L22 13V19C22 19.5523 21.5523 20 21 20V21C21 21.5523 20.5523 22 20 22H18C17.4477 22 17 21.5523 17 21V20H7V21C7 21.5523 6.55228 22 6 22H4C3.44772 22 3 21.5523 3 21ZM5.5 17C6.32843 17 7 16.3284 7 15.5C7 14.6716 6.32843 14 5.5 14C4.67157 14 4 14.6716 4 15.5C4 16.3284 4.67157 17 5.5 17ZM20 15.5C20 14.6716 19.3284 14 18.5 14C17.6716 14 17 14.6716 17 15.5C17 16.3284 17.6716 17 18.5 17C19.3284 17 20 16.3284 20 15.5ZM10 15C9.44772 15 9 15.4477 9 16C9 16.5523 9.44772 17 10 17H14C14.5523 17 15 16.5523 15 16C15 15.4477 14.5523 15 14 15H10Z" fill="currentColor"/>
</svg>
