<svg viewBox="0 0 24 24" fill="currentColor" xmlns="http://www.w3.org/2000/svg">
<path d="M8 3C8 2.44772 8.44772 2 9 2H15C15.5523 2 16 2.44772 16 3V5C16 5.55228 15.5523 6 15 6H9C8.44772 6 8 5.55228 8 5V3Z" fill="currentColor"/>
<path d="M6 4H6.5V5C6.5 6.38071 7.61929 7.5 9 7.5H15C16.3807 7.5 17.5 6.38071 17.5 5V4H18C19.1046 4 20 4.89543 20 6V20C20 21.1046 19.1046 22 18 22H6C4.89543 22 4 21.1046 4 20V6C4 4.89543 4.89543 4 6 4ZM7 13.1588C7 15.0234 9.00971 16.9955 10.4809 18.1893C11.1469 18.7298 11.4799 19 12 19C12.5201 19 12.8531 18.7298 13.5191 18.1893C14.9903 16.9955 17 15.0234 17 13.1587C17 10.0437 14.2499 8.88075 12 11.2871C9.75008 8.88075 7 10.0437 7 13.1588Z" fill="currentColor"/>
</svg>
