<svg viewBox="0 0 24 24" fill="currentColor" xmlns="http://www.w3.org/2000/svg">
<path d="M17.0565 10.8125C18.5618 10.2511 20.1167 11.1985 20.4404 12.6282C21.401 11.717 22 10.4285 22 9C22 6.23858 19.7614 4 17 4C16.6803 4 16.3676 4.03001 16.0645 4.08737C15.1571 2.82336 13.6747 2 12 2C10.3253 2 8.84287 2.82336 7.93548 4.08736C7.63244 4.03001 7.31972 4 7 4C4.23858 4 2 6.23858 2 9C2 10.4285 2.59903 11.717 3.55959 12.6282C3.88329 11.1985 5.43822 10.2511 6.94354 10.8125L7.8385 11.1463C8.42929 11.3667 9.08589 11.3323 9.64974 11.0519C11.1295 10.316 12.8705 10.316 14.3503 11.0519C14.9141 11.3323 15.5707 11.3667 16.1615 11.1463L17.0565 10.8125ZM9 5.75486C9 4.0243 10.65 3.37819 12 4.71503C13.35 3.37819 15 4.0243 15 5.75485C15 6.79078 13.7942 7.88639 12.9115 8.54963C12.5119 8.84988 12.3121 9 12 9C11.6879 9 11.4881 8.84987 11.0885 8.54962C10.2058 7.88638 9 6.79077 9 5.75486Z" fill="currentColor"/>
<path d="M10.7459 21.9215C10.7487 21.9479 10.75 21.9741 10.7501 22H13.2499C13.25 21.9741 13.2513 21.9479 13.2541 21.9215L14.2336 12.6168C14.0455 12.5579 13.8611 12.4839 13.6824 12.395C12.6233 11.8683 11.3767 11.8683 10.3176 12.395C10.1389 12.4839 9.9545 12.5579 9.76642 12.6168L10.7459 21.9215Z" fill="currentColor"/>
<path d="M7.31433 12.5518C7.6262 12.6681 7.94909 12.7416 8.27457 12.7728L9.24586 22H8.47197C7.47105 22 6.60927 21.2974 6.41297 20.3212L5.02122 13.4004C4.85973 12.5974 5.64832 11.9304 6.41936 12.218L7.31433 12.5518Z" fill="currentColor"/>
<path d="M14.7541 22L15.7254 12.7728C16.0509 12.7416 16.3738 12.6681 16.6857 12.5518L17.5806 12.218C18.3517 11.9304 19.1403 12.5974 18.9788 13.4004L17.587 20.3212C17.3907 21.2974 16.529 22 15.528 22H14.7541Z" fill="currentColor"/>
</svg>
