<svg viewBox="0 0 24 24" fill="currentColor" xmlns="http://www.w3.org/2000/svg">
<path d="M4.85321 11.1256C5.29144 11.2439 5.51056 11.303 5.77404 11.1987C6.03752 11.0943 6.15576 10.9016 6.39224 10.516C6.91463 9.66436 7.56455 8.34183 7.21651 7.47259C6.63509 6.02049 5.02497 6.03008 4.33441 7.60322C2.74558 6.93287 1.5696 8.02676 2.15102 9.47887C2.49905 10.3481 3.88517 10.8642 4.85321 11.1256Z" fill="currentColor"/>
<path d="M3.76885 12.3758L2.8853 13.0102C2.44292 13.3279 2.33577 13.9222 2.64117 14.3643L3.61066 15.7678C4.21511 16.6428 5.24434 17.9111 6.44583 18.9458C7.04811 19.4645 7.76608 19.9876 8.558 20.3561C10.4195 21.2224 14.0816 21.2068 15.9095 20.3561C16.7014 19.9876 17.4194 19.4645 18.0216 18.9458C19.2231 17.9111 20.2524 16.6428 20.8568 15.7678L21.8263 14.3643C22.1317 13.9222 22.0245 13.3279 21.5822 13.0102L20.2505 12.0541C20.1212 11.9613 19.7879 11.6629 19.166 11.0675C19.0135 10.9214 18.8486 10.7625 18.6743 10.5945C18.2158 10.1526 17.6919 9.6477 17.1564 9.14885C16.6006 8.63112 15.8677 8.15597 14.9656 8.03113C14.0027 7.89789 13.1489 8.20562 12.5012 8.70015C12.4077 8.77157 12.3186 8.84659 12.2337 8.92459C12.1488 8.84659 12.0597 8.77157 11.9662 8.70015C11.3186 8.20562 10.4648 7.89789 9.50191 8.03113C9.26904 8.06336 9.04744 8.11893 8.83726 8.19254C8.81339 8.67478 8.69651 9.11861 8.57922 9.46599C8.34372 10.1634 7.98626 10.8161 7.69715 11.2875C7.68402 11.3089 7.66959 11.3331 7.65374 11.3598C7.47095 11.6667 7.09845 12.2922 6.33327 12.5952C5.56808 12.8983 4.86525 12.6987 4.52036 12.6008C4.49044 12.5923 4.46322 12.5846 4.43888 12.578C4.23635 12.5233 4.00882 12.4565 3.76885 12.3758ZM9.54814 14.8829C9.39661 14.7524 9.24689 14.6137 9.10086 14.4705C10.6323 12.9945 13.8413 13.0004 15.3666 14.4705C15.2206 14.6137 15.0709 14.7524 14.9193 14.8829C14.5221 15.225 14.185 15.4476 13.9325 15.5651C13.2044 15.9039 11.2713 15.9077 10.5349 15.5651C10.2825 15.4476 9.9454 15.225 9.54814 14.8829Z" fill="currentColor"/>
<path d="M7.55821 5.72977C6.95073 5.33183 6.12085 4.67446 6.12085 4.05292C6.12085 3.01458 7.25645 2.62692 8.18552 3.42902C9.11458 2.62692 10.2502 3.01458 10.2502 4.05291C10.2502 4.67447 9.42031 5.33184 8.81282 5.72978C8.53781 5.90993 8.4003 6 8.18552 6C7.97073 6 7.83323 5.90992 7.55821 5.72977Z" fill="currentColor"/>
</svg>
