<svg viewBox="0 0 24 24" fill="currentColor" xmlns="http://www.w3.org/2000/svg">
<path d="M3 10.9696C3 6.01585 7.02944 2 12 2C16.9706 2 21 6.01585 21 10.9696C21 16.3296 15.929 20.2049 12.7799 21.8117C12.2877 22.0628 11.7123 22.0628 11.2201 21.8117C8.07101 20.2049 3 16.3296 3 10.9696ZM7 10.2329C7 12.1144 9.00971 14.1045 10.4809 15.3091C11.1469 15.8545 11.4799 16.1272 12 16.1272C12.5201 16.1272 12.8531 15.8545 13.5191 15.3092C14.9903 14.1045 17 12.1145 17 10.2329C17 7.08956 14.2499 5.916 12 8.34418C9.75008 5.916 7 7.08956 7 10.2329Z" fill="currentColor"/>
</svg>
