<svg viewBox="0 0 24 24" fill="currentColor" xmlns="http://www.w3.org/2000/svg">
<path d="M7.25 3.75V5.75H4C2.89543 5.75 2 6.64543 2 7.75V20C2 21.1046 2.89543 22 4 22H20C21.1046 22 22 21.1046 22 20V7.75C22 6.64543 21.1046 5.75 20 5.75H16.75V3.75C16.75 2.7835 15.9665 2 15 2H9C8.0335 2 7.25 2.7835 7.25 3.75ZM9 3.5H15C15.1381 3.5 15.25 3.61193 15.25 3.75V5.75H8.75V3.75C8.75 3.61193 8.86193 3.5 9 3.5ZM8 12.4568C8 10.034 10.2001 9.12947 12 11.001C13.7999 9.12947 16 10.034 16 12.4568C16 13.9071 14.3922 15.4409 13.2153 16.3695C12.6825 16.7898 12.4161 17 12 17C11.5839 17 11.3175 16.7898 10.7847 16.3695C9.60777 15.4409 8 13.9071 8 12.4568Z" fill="currentColor"/>
</svg>
