<svg viewBox="0 0 24 24" fill="currentColor" xmlns="http://www.w3.org/2000/svg">
<path d="M2.75 2C2.75 1.58579 2.41421 1.25 2 1.25C1.58579 1.25 1.25 1.58579 1.25 2C1.25 7.93706 6.06294 12.75 12 12.75C17.9371 12.75 22.75 7.93706 22.75 2C22.75 1.58579 22.4142 1.25 22 1.25C21.5858 1.25 21.25 1.58579 21.25 2C21.25 7.10863 17.1086 11.25 12 11.25C6.89137 11.25 2.75 7.10863 2.75 2Z" fill="currentColor"/>
<path d="M8 17.4568C8 18.9071 9.60777 20.4409 10.7847 21.3695C11.3175 21.7898 11.5839 22 12 22C12.4161 22 12.6825 21.7898 13.2153 21.3695C14.3922 20.441 16 18.9071 16 17.4568C16 15.034 13.7999 14.1295 12 16.001C10.2001 14.1295 8 15.034 8 17.4568Z" fill="currentColor"/>
</svg>
