<svg viewBox="0 0 24 24" fill="currentColor" xmlns="http://www.w3.org/2000/svg">
<path d="M12 5.75C8.54822 5.75 5.75 8.54822 5.75 12C5.75 15.4518 8.54822 18.25 12 18.25C15.4518 18.25 18.25 15.4518 18.25 12C18.25 8.54822 15.4518 5.75 12 5.75ZM8 11.4568C8 9.03402 10.2001 8.12947 12 10.001C13.7999 8.12947 16 9.03402 16 11.4568C16 12.9071 14.3922 14.4409 13.2153 15.3695C12.6825 15.7898 12.4161 16 12 16C11.5839 16 11.3175 15.7898 10.7847 15.3695C9.60777 14.4409 8 12.9071 8 11.4568Z" fill="currentColor"/>
<path d="M22 12C22 6.47715 17.5228 2 12 2C6.47715 2 2 6.47715 2 12C2 17.5228 6.47715 22 12 22C17.5228 22 22 17.5228 22 12ZM4.25 12C4.25 7.71979 7.71979 4.25 12 4.25C16.2802 4.25 19.75 7.71979 19.75 12C19.75 16.2802 16.2802 19.75 12 19.75C7.71979 19.75 4.25 16.2802 4.25 12Z" fill="currentColor"/>
</svg>
