<svg viewBox="0 0 24 24" fill="currentColor" xmlns="http://www.w3.org/2000/svg">
<path d="M15.0699 2.28872L16.3358 3.53965C16.7097 3.90922 16.7336 4.50527 16.3905 4.90361L13.3991 8.37596C17.0115 9.03458 19.75 12.1975 19.75 16C19.75 20.2802 16.2802 23.75 12 23.75C7.71979 23.75 4.25 20.2802 4.25 16C4.25 12.1975 6.98852 9.03458 10.6009 8.37596L7.60953 4.90361C7.26636 4.50527 7.29027 3.90922 7.66425 3.53965L8.93006 2.28872C9.11725 2.10374 9.36981 2 9.63297 2H14.367C14.6302 2 14.8828 2.10374 15.0699 2.28872ZM5.75 16C5.75 19.4518 8.54822 22.25 12 22.25C15.4518 22.25 18.25 19.4518 18.25 16C18.25 12.5482 15.4518 9.75 12 9.75C8.54822 9.75 5.75 12.5482 5.75 16Z" fill="currentColor"/>
</svg>
