<svg viewBox="0 0 24 24" fill="currentColor" xmlns="http://www.w3.org/2000/svg">
<path d="M17.6044 2.0331C18.1322 1.89524 18.6747 2.20058 18.8161 2.71509L20.9982 10.6542L20.6117 10.9029C19.5939 11.5581 18.3509 11.7922 17.156 11.5538C15.8066 11.2847 14.4109 11.471 13.1937 12.0705L12.1685 8.34062L12.0892 8.62907C10.806 7.90832 9.29254 7.66668 7.83336 7.95778C6.63847 8.19616 5.39538 7.96202 4.37757 7.30688L4.27673 7.24197L5.1839 3.94141C5.32531 3.42689 5.86779 3.12156 6.39556 3.25942L11.138 4.49824C11.1208 4.05838 11.4162 3.64959 11.8708 3.53085L17.6044 2.0331Z" fill="currentColor"/>
<path d="M13.6096 13.4964C14.2346 15.069 15.8384 16.0523 17.5387 15.9496L18.4293 19.0416L17.2433 19.3514C16.8475 19.4548 16.6126 19.8515 16.7187 20.2374C16.8247 20.6233 17.2316 20.8523 17.6274 20.7489L21.4499 19.7505C21.8457 19.6471 22.0806 19.2504 21.9745 18.8645C21.8685 18.4786 21.4616 18.2495 21.0658 18.3529L19.8629 18.6672L18.9771 15.5924C20.3354 14.974 21.209 13.6561 21.2545 12.2188C19.9422 13.0023 18.3711 13.273 16.8585 12.9712C15.7434 12.7487 14.5864 12.9378 13.6096 13.4964Z" fill="currentColor"/>
<path d="M11.6875 10.0909L11.5867 10.026C10.5688 9.37093 9.32576 9.1368 8.13087 9.37517C6.67168 9.66628 5.15815 9.42463 3.87495 8.70386L2.8794 12.3259C2.37939 14.1451 3.30025 16.0092 4.97879 16.7982L4.12866 19.8913L2.93422 19.5793C2.53839 19.4759 2.13153 19.7049 2.02547 20.0907C1.91941 20.4766 2.15431 20.8733 2.55013 20.9767L6.37257 21.9752C6.7684 22.0786 7.17526 21.8496 7.28132 21.4637C7.38738 21.0778 7.15248 20.6812 6.75666 20.5778L5.56208 20.2657L6.41219 17.1727C8.27062 17.3077 10.0242 16.1422 10.5243 14.3229L11.6875 10.0909Z" fill="currentColor"/>
</svg>
