<svg viewBox="0 0 24 24" fill="currentColor" xmlns="http://www.w3.org/2000/svg">
<path d="M5 2H5.25V6.25H2V5C2 3.34315 3.34315 2 5 2Z" fill="currentColor"/>
<path d="M2 7.75H5.25V11.25H2V7.75Z" fill="currentColor"/>
<path d="M2 12.75H5.25V16.25H2V12.75Z" fill="currentColor"/>
<path d="M2 17.75H5.25V22H5C3.34315 22 2 20.6569 2 19V17.75Z" fill="currentColor"/>
<path d="M17.25 2V22H6.75V2H17.25ZM8 11.4568C8 12.9071 9.60777 14.4409 10.7847 15.3695C11.3175 15.7898 11.5839 16 12 16C12.4161 16 12.6825 15.7898 13.2153 15.3695C14.3922 14.4409 16 12.9071 16 11.4568C16 9.03402 13.7999 8.12947 12 10.001C10.2001 8.12947 8 9.03402 8 11.4568Z" fill="currentColor"/>
<path d="M18.75 22H19C20.6569 22 22 20.6569 22 19V17.75H18.75V22Z" fill="currentColor"/>
<path d="M18.75 16.25H22V12.75H18.75V16.25Z" fill="currentColor"/>
<path d="M18.75 11.25H22V7.75H18.75V11.25Z" fill="currentColor"/>
<path d="M18.75 6.25H22V5C22 3.34315 20.6569 2 19 2H18.75V6.25Z" fill="currentColor"/>
</svg>
