<svg viewBox="0 0 24 24" fill="currentColor" xmlns="http://www.w3.org/2000/svg">
<path d="M15.99 3.75479C16.7674 2.57726 15.9315 1 14.5301 1C13.1288 1 12.2929 2.57726 13.0702 3.75479C13.0863 3.77906 13.1027 3.80278 13.1196 3.82593C10.3001 4.43155 8.132 6.81573 7.82141 9.76044H7.78313C7.38389 9.76044 7.06024 10.0873 7.06024 10.4905C7.06024 10.8937 7.38389 11.2205 7.78313 11.2205H21.2771C21.6764 11.2205 22 10.8937 22 10.4905C22 10.0873 21.6764 9.76044 21.2771 9.76044H21.2388C20.9282 6.81573 18.7601 4.43155 15.9406 3.82593C15.9575 3.80278 15.974 3.77906 15.99 3.75479ZM14.2732 2.94489C14.1364 2.73766 14.2835 2.46007 14.5301 2.46007C14.7767 2.46007 14.9239 2.73766 14.787 2.94489C14.6648 3.13004 14.3954 3.13004 14.2732 2.94489Z" fill="currentColor"/>
<path d="M9.10889 20.4982C11.5476 21.2133 14.1483 21.1641 16.5648 20.3506L20.207 19.1246C20.846 18.9094 21.2771 18.3055 21.2771 17.6252C21.2771 16.5969 20.3202 15.8424 19.3325 16.0918L17.0581 16.666L14.7772 17.5037C14.402 17.6414 13.9872 17.446 13.8508 17.0671C13.7143 16.6881 13.9079 16.2693 14.2831 16.1315L16.5715 15.2911C16.3546 14.6376 15.7995 14.1111 15.0593 13.9865L14.5104 13.8941C12.7165 13.5922 10.8802 13.6884 9.12885 14.1746C9.19395 14.3952 9.22891 14.6289 9.22891 14.8708V19.7377C9.22891 20.0033 9.18678 20.259 9.10889 20.4982Z" fill="currentColor"/>
<path d="M2 14.8709C2 14.3333 2.43153 13.8975 2.96386 13.8975H6.81928C7.3516 13.8975 7.78313 14.3333 7.78313 14.8709V19.7378C7.78313 20.2754 7.3516 20.7112 6.81928 20.7112H2.96386C2.43153 20.7112 2 20.2754 2 19.7378V14.8709Z" fill="currentColor"/>
</svg>
