<svg viewBox="0 0 24 24" fill="currentColor" xmlns="http://www.w3.org/2000/svg">
<path d="M9 3.75486C9 4.79077 10.2058 5.88638 11.0885 6.54962C11.4881 6.84987 11.6879 7 12 7H6C5.44772 7 5 7.44772 5 8V8.99342C5.42649 8.99342 5.85297 8.92511 6.26283 8.78849C7.39045 8.41262 8.60955 8.41262 9.73717 8.78849C10.5569 9.06173 11.4431 9.06173 12.2628 8.78849C13.3904 8.41262 14.6096 8.41262 15.7372 8.78849C16.5569 9.06173 17.4431 9.06173 18.2628 8.78849C18.5049 8.70778 18.7513 8.64441 19 8.59836V8C19 7.44772 18.5523 7 18 7H12C12.3121 7 12.5119 6.84988 12.9115 6.54963C13.7942 5.88639 15 4.79078 15 3.75485C15 2.0243 13.35 1.37819 12 2.71503C10.65 1.37819 9 2.0243 9 3.75486Z" fill="currentColor"/>
<path d="M19 10.1338C18.9117 10.1566 18.8241 10.1825 18.7372 10.2115C17.6096 10.5874 16.3904 10.5874 15.2628 10.2115C14.4431 9.93828 13.5569 9.93828 12.7372 10.2115C11.6096 10.5874 10.3904 10.5874 9.26283 10.2115C8.44311 9.93828 7.55689 9.93828 6.73717 10.2115C6.17336 10.3994 5.58668 10.4934 5 10.4934V13H3C2.44772 13 2 13.4477 2 14V15.2498C2.07859 15.2498 2.15852 15.2623 2.23717 15.2885L3.73717 15.7885C4.55689 16.0617 5.44311 16.0617 6.26283 15.7885C7.39045 15.4126 8.60955 15.4126 9.73717 15.7885C10.5569 16.0617 11.4431 16.0617 12.2628 15.7885C13.3904 15.4126 14.6096 15.4126 15.7372 15.7885C16.5569 16.0617 17.4431 16.0617 18.2628 15.7885C19.3904 15.4126 20.6096 15.4126 21.7372 15.7885L22 15.8761V14C22 13.4477 21.5523 13 21 13H19V10.1338Z" fill="currentColor"/>
<path d="M22 17.4572L21.2628 17.2115C20.4431 16.9383 19.5569 16.9383 18.7372 17.2115C17.6096 17.5874 16.3904 17.5874 15.2628 17.2115C14.4431 16.9383 13.5569 16.9383 12.7372 17.2115C11.6096 17.5874 10.3904 17.5874 9.26283 17.2115C8.44311 16.9383 7.55689 16.9383 6.73717 17.2115C5.60955 17.5874 4.39045 17.5874 3.26283 17.2115L2 16.7906V21C2 21.5523 2.44772 22 3 22H21C21.5523 22 22 21.5523 22 21V17.4572Z" fill="currentColor"/>
</svg>
