<svg viewBox="0 0 24 24" fill="currentColor" xmlns="http://www.w3.org/2000/svg">
<path d="M4.08852 6.54962C3.20583 5.88638 2 4.79077 2 3.75486C2 2.0243 3.65005 1.37819 5 2.71503C6.34995 1.37819 8 2.0243 8 3.75485C8 4.79078 6.79418 5.88639 5.91148 6.54963C5.51189 6.84988 5.31209 7 5 7C4.68792 7 4.48812 6.84987 4.08852 6.54962Z" fill="currentColor"/>
<path d="M18.0885 20.5496C17.2058 19.8864 16 18.7908 16 17.7549C16 16.0243 17.65 15.3782 19 16.715C20.35 15.3782 22 16.0243 22 17.7549C22 18.7908 20.7942 19.8864 19.9115 20.5496C19.5119 20.8499 19.3121 21 19 21C18.6879 21 18.4881 20.8499 18.0885 20.5496Z" fill="currentColor"/>
<path d="M12 8.75C10.2051 8.75 8.75 10.2051 8.75 12C8.75 13.7949 10.2051 15.25 12 15.25C13.7949 15.25 15.25 13.7949 15.25 12C15.25 10.2051 13.7949 8.75 12 8.75Z" fill="currentColor"/>
<path d="M3.01075 7.61382C2.36336 8.93812 2 10.4266 2 12C2 17.5228 6.47715 22 12 22C13.5437 22 15.0056 21.6502 16.311 21.0256C16.0568 20.7934 15.8017 20.5368 15.5685 20.2614C15.0913 19.6979 14.5 18.8183 14.5 17.7549C14.5 16.3998 15.1849 15.145 16.4825 14.6746C17.3346 14.3656 18.2182 14.4793 19 14.8782C19.7818 14.4793 20.6654 14.3656 21.5175 14.6746C21.5544 14.6879 21.5907 14.7019 21.6266 14.7165C21.8699 13.8528 22 12.9416 22 12C22 6.47715 17.5228 2 12 2C11.0447 2 10.1207 2.13395 9.2458 2.38408C9.4142 2.80824 9.5 3.2753 9.5 3.75492C9.5 4.81827 8.90866 5.69787 8.43147 6.2614C7.91692 6.86905 7.29583 7.38577 6.81254 7.7489C6.7895 7.76621 6.76449 7.78544 6.73751 7.80617C6.42107 8.04941 5.83477 8.50006 5 8.50006C4.16522 8.50006 3.57899 8.04944 3.26254 7.8062C3.23555 7.78545 3.21051 7.76621 3.18746 7.74889C3.13035 7.70598 3.07131 7.66092 3.01075 7.61382ZM7.25 12C7.25 9.37665 9.37665 7.25 12 7.25C14.6234 7.25 16.75 9.37665 16.75 12C16.75 14.6234 14.6234 16.75 12 16.75C9.37665 16.75 7.25 14.6234 7.25 12ZM5.75 12C5.75 15.4518 8.54822 18.25 12 18.25C12.4142 18.25 12.75 18.5858 12.75 19C12.75 19.4142 12.4142 19.75 12 19.75C7.71979 19.75 4.25 16.2802 4.25 12C4.25 11.5858 4.58579 11.25 5 11.25C5.41421 11.25 5.75 11.5858 5.75 12ZM19 12.75C18.5858 12.75 18.25 12.4142 18.25 12C18.25 8.54822 15.4518 5.75 12 5.75C11.5858 5.75 11.25 5.41421 11.25 5C11.25 4.58579 11.5858 4.25 12 4.25C16.2802 4.25 19.75 7.71979 19.75 12C19.75 12.4142 19.4142 12.75 19 12.75Z" fill="currentColor"/>
</svg>
