<svg viewBox="0 0 24 24" fill="currentColor" xmlns="http://www.w3.org/2000/svg">
<path d="M15 6C15 7.65685 13.6569 9 12 9C10.3431 9 9 7.65685 9 6C9 4.34315 10.3431 3 12 3C13.6569 3 15 4.34315 15 6Z" fill="currentColor"/>
<path d="M18 12.6667V11C18 9.89543 17.1046 9 16 9H12H7C8.10457 9 9 8.10457 9 7C9 5.89543 8.10457 5 7 5C5.89543 5 5 5.89543 5 7C5 8.10457 5.89543 9 7 9H4C2.89543 9 2 9.89543 2 11V19C2 20.1046 2.89543 21 4 21H16C17.1046 21 18 20.1046 18 19V17.3333L20.4453 18.9635C21.1099 19.4066 22 18.9302 22 18.1315V11.8685C22 11.0698 21.1099 10.5934 20.4453 11.0365L18 12.6667ZM8.78469 18.3695C7.60777 17.4409 6 15.9071 6 14.4568C6 12.034 8.20006 11.1295 10 13.001C11.7999 11.1295 14 12.034 14 14.4568C14 15.9071 12.3922 17.441 11.2153 18.3695C10.6825 18.7898 10.4161 19 10 19C9.58389 19 9.31749 18.7898 8.78469 18.3695Z" fill="currentColor"/>
</svg>
