<svg viewBox="0 0 24 24" fill="currentColor" xmlns="http://www.w3.org/2000/svg">
<path d="M7.83142 10.25L7.32205 8.01111L7 5.15875C7 2.04374 9.75008 0.88075 12 3.28706C14.2499 0.88075 17 2.04374 17 5.15873L16.6779 8.01112L16.1686 10.25H7.83142Z" fill="currentColor"/>
<path d="M7.75 11.75H16.25L18.9851 19.4544C19.0379 19.7505 18.9489 20.0528 18.7399 20.287C18.0824 21.0237 16.9958 21.3345 15.9837 21.0753L15.8185 21.033C15.4139 20.9294 14.9788 20.9902 14.6286 21.1995L14.3616 21.3591C12.9315 22.2136 11.0685 22.2136 9.63843 21.3591L9.37136 21.1995C9.02118 20.9902 8.58614 20.9294 8.18147 21.033L8.01626 21.0753C7.00425 21.3345 5.91758 21.0237 5.26008 20.287C5.05108 20.0528 4.96206 19.7505 5.01491 19.4544L7.75 11.75Z" fill="currentColor"/>
</svg>
