<svg viewBox="0 0 24 24" fill="currentColor" xmlns="http://www.w3.org/2000/svg">
<path d="M2.61304 14.6426V15.9605C2.61304 16.5346 3.06988 17 3.63341 17H7.71487C7.918 17 8.10727 16.9395 8.26627 16.8353C8.40502 16.7443 8.54188 16.6317 8.6802 16.5178C9.01434 16.2427 9.35706 15.9605 9.7556 15.9605H9.89776C10.1426 15.9605 10.387 15.9829 10.6279 16.0276L14.7223 16.786C15.4773 16.9258 16.2557 16.846 16.9682 16.5556L21.2896 15.1518C21.7127 15.0143 22 14.6138 22 14.1614V13.7872L17.3211 15.2792C16.499 15.6025 15.6029 15.6901 14.7334 15.532L10.7207 14.8024C10.5289 14.7675 10.3343 14.75 10.1393 14.75H2.99999C2.85842 14.75 2.72602 14.7108 2.61304 14.6426Z" fill="currentColor"/>
<path d="M2.61305 13.3574C2.72603 13.2892 2.85843 13.25 3 13.25H9.85352C10.18 12.0957 11.2412 11.25 12.5 11.25H12.8333C13.3317 11.25 13.801 11.0154 14.1 10.6167L14.4235 10.1853C13.9187 9.90747 13.4352 9.5879 12.9781 9.22901L12.3536 9.85355C12.1583 10.0488 11.8417 10.0488 11.6464 9.85355C11.4512 9.65829 11.4512 9.34171 11.6464 9.14645L12.1977 8.59523L11.5994 8.10767L10.8536 8.85355C10.6583 9.04882 10.3417 9.04882 10.1464 8.85355C9.95118 8.65829 9.95118 8.34171 10.1464 8.14645L10.8203 7.47263L10.5258 7.23267C10.0963 6.8826 9.47296 6.94739 9.04113 7.29453C7.79409 8.29698 5.62248 9.21608 3.16486 7.96081C2.8703 7.81036 2.50056 7.93097 2.37818 8.24265C1.87394 9.52689 1.87394 10.9595 2.37818 12.2438L2.61305 12.842V13.3574Z" fill="currentColor"/>
<path d="M15.8241 10.8177L15.3 11.5166C14.7177 12.293 13.8038 12.7499 12.8333 12.7499H12.5C12.0264 12.7499 11.6143 13.0133 11.4022 13.4016L15.0017 14.0561C15.4167 14.1316 15.8406 14.1252 16.25 14.0394V10.9268C16.1068 10.8979 15.9647 10.8617 15.8241 10.8177Z" fill="currentColor"/>
<path d="M17.75 10.9877V13.5681L21.7721 12.2855C21.838 12.2645 21.9046 12.253 21.9704 12.2504C21.7647 11.0267 20.5213 10.2256 19.3139 10.6356C18.8056 10.8082 18.2786 10.9337 17.75 10.9877Z" fill="currentColor"/>
</svg>
