<svg viewBox="0 0 24 24" fill="currentColor" xmlns="http://www.w3.org/2000/svg">
<path d="M7.7443 4.94812C7.96045 5.47914 8.28469 5.92618 8.56853 6.26138C8.92784 6.6857 9.33911 7.06569 9.71913 7.38C7.52796 8.1348 5.82903 9.94684 5.23184 12.2067C7.73532 12.0219 9.16881 11.2685 9.99804 10.3671C10.5466 9.7709 10.8759 9.06159 11.058 8.3004C11.3244 8.41575 11.6389 8.50005 12 8.50005C12.3611 8.50005 12.6756 8.41575 12.942 8.3004C13.1241 9.06159 13.4534 9.7709 14.002 10.3671C14.8312 11.2685 16.2647 12.0219 18.7682 12.2067C18.171 9.94684 16.472 8.13481 14.2809 7.38C14.6609 7.06569 15.0722 6.68571 15.4315 6.26139C15.7153 5.92618 16.0396 5.47914 16.2557 4.94812C19.6504 6.54689 22 9.99905 22 14V21C22 21.0864 21.9891 21.1701 21.9685 21.25H22C22.4142 21.25 22.75 21.5858 22.75 22C22.75 22.4143 22.4142 22.75 22 22.75H2C1.58579 22.75 1.25 22.4143 1.25 22C1.25 21.5858 1.58579 21.25 2 21.25H2.0315C2.01094 21.1701 2 21.0864 2 21V14C2 9.99905 4.34963 6.54689 7.7443 4.94812ZM17.0315 21.25C17.0109 21.1701 17 21.0864 17 21C17 20.4478 17.4477 20 18 20L19 18C18.4477 18 18 17.5523 18 17C18 16.6627 18.1671 16.3642 18.423 16.1831C15.7939 15.9488 14.0287 15.1117 12.8981 13.8827C12.5235 13.4756 12.2294 13.0371 12 12.5817C11.7706 13.0371 11.4765 13.4756 11.1019 13.8827C9.97129 15.1117 8.20614 15.9488 5.57703 16.1831C5.83293 16.3642 6 16.6627 6 17C6 17.5523 5.55228 18 5 18L6 20C6.55228 20 7 20.4478 7 21C7 21.0864 6.98906 21.1701 6.9685 21.25H17.0315ZM13.2626 11.745C13.4463 12.1484 13.6883 12.5262 14.002 12.8671C14.8565 13.7959 16.3526 14.5677 19 14.722V14C19 13.9075 18.9982 13.8155 18.9947 13.7239C16.3267 13.5806 14.4857 12.8568 13.2626 11.745ZM5.00535 13.7239C5.00179 13.8155 5 13.9075 5 14V14.722C7.6474 14.5677 9.14354 13.7959 9.99804 12.8671C10.3117 12.5262 10.5537 12.1484 10.7374 11.745C9.51431 12.8568 7.67326 13.5806 5.00535 13.7239Z" fill="currentColor"/>
<path d="M9.1463 4.41303C9.4938 5.23328 10.3918 6.02613 11.0885 6.54962C11.4881 6.84987 11.6879 7 12 7C12.3121 7 12.5119 6.84988 12.9115 6.54963C13.6082 6.02614 14.5062 5.23329 14.8537 4.41303C14.9243 4.24644 14.9721 4.07871 14.991 3.91189C14.9969 3.85943 15 3.80707 15 3.75485C15 2.0243 13.35 1.37819 12 2.71503C10.65 1.37819 9 2.0243 9 3.75486C9 3.77105 9.00029 3.78725 9.00088 3.80346C9.00816 4.00589 9.06041 4.2103 9.1463 4.41303Z" fill="currentColor"/>
</svg>
