<?xml version="1.0" encoding="utf-8"?>
<!-- Generator: Adobe Illustrator 22.0.0, SVG Export Plug-In . SVG Version: 6.00 Build 0)  -->
<svg version="1.1" id="lni_lni-previous" xmlns="http://www.w3.org/2000/svg" xmlns:xlink="http://www.w3.org/1999/xlink" x="0px"
	 y="0px" viewBox="0 0 64 64" style="enable-background:new 0 0 64 64;" xml:space="preserve">
<path d="M59.3,4.7c-1.7-0.9-3.7-0.8-5.2,0.3L20.2,27.9V7c0-2.9-2.4-5.3-5.3-5.3H7.3C4.4,1.8,2,4.1,2,7v50c0,2.9,2.4,5.3,5.3,5.3h7.7
	c2.9,0,5.3-2.4,5.3-5.3V36.1L54.1,59c0.9,0.6,1.9,0.9,2.8,0.9c0.8,0,1.6-0.2,2.4-0.6c1.7-0.9,2.7-2.6,2.7-4.5V9.2
	C62,7.3,61,5.6,59.3,4.7z M15.7,57c0,0.4-0.3,0.8-0.8,0.8H7.3c-0.4,0-0.8-0.3-0.8-0.8V7c0-0.4,0.3-0.8,0.8-0.8h7.7
	c0.4,0,0.8,0.3,0.8,0.8V57z M57.5,54.8c0,0.3-0.2,0.4-0.3,0.5c-0.1,0.1-0.4,0.1-0.6,0L22.1,32L56.6,8.7c0.2-0.2,0.5-0.1,0.6,0
	c0.1,0.1,0.3,0.2,0.3,0.5V54.8z"/>
</svg>
