<?xml version="1.0" encoding="utf-8"?>
<!-- Generator: Adobe Illustrator 22.0.0, SVG Export Plug-In . SVG Version: 6.00 Build 0)  -->
<svg version="1.1" id="lni_lni-video-camera-alt-2" xmlns="http://www.w3.org/2000/svg" xmlns:xlink="http://www.w3.org/1999/xlink"
	 x="0px" y="0px" viewBox="0 0 64 64" style="enable-background:new 0 0 64 64;" xml:space="preserve">
<path d="M60.7,30.5c-1-0.7-2.2-0.8-3.3-0.4l-9.2,3.3v-2.8c0-2.9-2.4-5.3-5.3-5.3h-1.2c1.3-1.8,2-3.9,2-6.3c0-5.9-4.8-10.8-10.8-10.8
	c-4.1,0-7.7,2.3-9.5,5.7c-1.8-3.4-5.4-5.7-9.5-5.7C8.2,8.2,3.3,13.1,3.3,19c0,2.5,0.8,4.7,2.2,6.5c-2.2,0.6-3.8,2.6-3.8,5v20
	c0,2.9,2.4,5.3,5.3,5.3h36c2.9,0,5.3-2.4,5.3-5.3v-2.8l9.2,3.3c0.4,0.1,0.8,0.2,1.2,0.2c0.7,0,1.5-0.2,2.1-0.7
	c1-0.7,1.5-1.8,1.5-2.9V33.4C62.3,32.3,61.7,31.2,60.7,30.5z M33.1,12.7c3.5,0,6.3,2.8,6.3,6.3c0,3.5-2.8,6.3-6.3,6.3
	c-3.5,0-6.3-2.8-6.3-6.3C26.8,15.6,29.6,12.7,33.1,12.7z M24.3,25.3h-1.5c0.3-0.4,0.5-0.8,0.7-1.2C23.8,24.5,24.1,24.9,24.3,25.3z
	 M14.1,12.7c3.5,0,6.3,2.8,6.3,6.3c0,3.5-2.8,6.3-6.3,6.3c-3.5,0-6.3-2.8-6.3-6.3C7.8,15.6,10.6,12.7,14.1,12.7z M43,51.3H7
	c-0.4,0-0.8-0.3-0.8-0.8v-20c0-0.4,0.3-0.8,0.8-0.8h36c0.4,0,0.8,0.3,0.8,0.8v5.9c0,0,0,0,0,0.1v8.1c0,0,0,0,0,0.1v5.9
	C43.8,50.9,43.4,51.3,43,51.3z M57.8,46.4l-9.5-3.4v-4.8l9.5-3.4V46.4z"/>
</svg>
