<?xml version="1.0" encoding="utf-8"?>
<!-- Generator: Adobe Illustrator 22.0.0, SVG Export Plug-In . SVG Version: 6.00 Build 0)  -->
<svg version="1.1" id="lni_lni-video-alt" xmlns="http://www.w3.org/2000/svg" xmlns:xlink="http://www.w3.org/1999/xlink" x="0px"
	 y="0px" viewBox="0 0 64 64" style="enable-background:new 0 0 64 64;" xml:space="preserve">
<path d="M54,1.8H10c-4.5,0-8.3,3.7-8.3,8.3v44c0,4.5,3.7,8.3,8.3,8.3h44c4.5,0,8.3-3.7,8.3-8.3V10C62.3,5.5,58.5,1.8,54,1.8z
	 M15.5,29.8H6.3V20h9.3V29.8z M6.3,34.3h9.3V44H6.3V34.3z M20,6.3h24v51.5H20V6.3z M57.8,29.8h-9.3V20h9.3V29.8z M48.5,34.3h9.3V44
	h-9.3V34.3z M57.8,10v5.5h-9.3V6.3H54C56.1,6.3,57.8,7.9,57.8,10z M10,6.3h5.5v9.3H6.3V10C6.3,7.9,7.9,6.3,10,6.3z M6.3,54v-5.5h9.3
	v9.3H10C7.9,57.8,6.3,56.1,6.3,54z M54,57.8h-5.5v-9.3h9.3V54C57.8,56.1,56.1,57.8,54,57.8z"/>
</svg>
