<svg width="221" height="70" viewBox="0 0 221 70" fill="none" xmlns="http://www.w3.org/2000/svg">
<path d="M52 22.6318V60.5H38V50.5H26V60.5H12V22.6318L32 10.5L52 22.6318ZM15 57.5H23V50.5H15V57.5ZM41 57.5H49V50.5H41V57.5ZM15 24.3203V47.5H23V32.5H41V47.5H49V24.3203L32 14.0088L15 24.3203ZM26 47.5H38V35.5H26V47.5Z" fill="black"/>
<path d="M85.7075 57.665C81.8125 57.665 78.3925 56.8575 75.4475 55.2425C72.5342 53.5958 70.27 51.2842 68.655 48.3075C67.0717 45.3308 66.28 41.8317 66.28 37.81C66.28 33.7883 67.0717 30.2892 68.655 27.3125C70.27 24.3358 72.5342 22.04 75.4475 20.425C78.3925 18.7783 81.8125 17.955 85.7075 17.955C88.8108 17.955 91.5658 18.4775 93.9725 19.5225C96.3792 20.5675 98.3583 22.0875 99.91 24.0825C101.462 26.0458 102.459 28.405 102.903 31.16H95.445C95.0333 28.975 93.9725 27.2967 92.2625 26.125C90.5525 24.9217 88.3675 24.32 85.7075 24.32C81.9075 24.32 78.915 25.5233 76.73 27.93C74.545 30.305 73.4525 33.5983 73.4525 37.81C73.4525 42.0217 74.545 45.3308 76.73 47.7375C78.915 50.1125 81.9075 51.3 85.7075 51.3C88.3675 51.3 90.5525 50.7142 92.2625 49.5425C93.9725 48.3392 95.0333 46.645 95.445 44.46H102.903C102.459 47.215 101.462 49.59 99.91 51.585C98.3583 53.5483 96.3792 55.0525 93.9725 56.0975C91.5658 57.1425 88.8108 57.665 85.7075 57.665ZM120.883 57.57C117.812 57.57 115.136 56.9683 112.856 55.765C110.608 54.53 108.85 52.8042 107.583 50.5875C106.348 48.3708 105.731 45.7583 105.731 42.75C105.731 39.71 106.348 37.0817 107.583 34.865C108.85 32.6483 110.623 30.9383 112.903 29.735C115.183 28.5317 117.843 27.93 120.883 27.93C123.987 27.93 126.647 28.5317 128.863 29.735C131.112 30.9383 132.853 32.6483 134.088 34.865C135.323 37.0817 135.941 39.71 135.941 42.75C135.941 45.7583 135.323 48.3867 134.088 50.635C132.853 52.8517 131.112 54.5617 128.863 55.765C126.615 56.9683 123.955 57.57 120.883 57.57ZM120.883 51.395C123.417 51.395 125.38 50.635 126.773 49.115C128.167 47.5633 128.863 45.4417 128.863 42.75C128.863 40.0267 128.167 37.905 126.773 36.385C125.38 34.865 123.417 34.105 120.883 34.105C118.318 34.105 116.323 34.865 114.898 36.385C113.505 37.905 112.808 40.0108 112.808 42.7025C112.808 45.4258 113.505 47.5633 114.898 49.115C116.323 50.635 118.318 51.395 120.883 51.395ZM154.901 57.57C151.829 57.57 149.153 56.9683 146.873 55.765C144.625 54.53 142.868 52.8042 141.601 50.5875C140.366 48.3708 139.748 45.7583 139.748 42.75C139.748 39.71 140.366 37.0817 141.601 34.865C142.868 32.6483 144.641 30.9383 146.921 29.735C149.201 28.5317 151.861 27.93 154.901 27.93C158.004 27.93 160.664 28.5317 162.881 29.735C165.129 30.9383 166.871 32.6483 168.106 34.865C169.341 37.0817 169.958 39.71 169.958 42.75C169.958 45.7583 169.341 48.3867 168.106 50.635C166.871 52.8517 165.129 54.5617 162.881 55.765C160.633 56.9683 157.973 57.57 154.901 57.57ZM154.901 51.395C157.434 51.395 159.398 50.635 160.791 49.115C162.184 47.5633 162.881 45.4417 162.881 42.75C162.881 40.0267 162.184 37.905 160.791 36.385C159.398 34.865 157.434 34.105 154.901 34.105C152.336 34.105 150.341 34.865 148.916 36.385C147.523 37.905 146.826 40.0108 146.826 42.7025C146.826 45.4258 147.523 47.5633 148.916 49.115C150.341 50.635 152.336 51.395 154.901 51.395ZM177.138 68.4V35.5775H173.623V28.5H180.891V33.06H182.886C183.867 31.4133 185.197 30.1467 186.876 29.26C188.554 28.3733 190.581 27.93 192.956 27.93C195.869 27.93 198.339 28.5475 200.366 29.7825C202.392 30.9858 203.928 32.6958 204.973 34.9125C206.018 37.1292 206.541 39.7417 206.541 42.75C206.541 45.7583 206.018 48.3708 204.973 50.5875C203.96 52.8042 202.487 54.53 200.556 55.765C198.624 56.9683 196.297 57.57 193.573 57.57C191.42 57.57 189.567 57.1583 188.016 56.335C186.464 55.5117 185.261 54.3558 184.406 52.8675H184.216V68.4H177.138ZM191.673 51.4425C194.238 51.4425 196.17 50.6825 197.468 49.1625C198.798 47.6108 199.463 45.4733 199.463 42.75C199.463 40.0267 198.798 37.905 197.468 36.385C196.17 34.8333 194.238 34.0575 191.673 34.0575C189.425 34.0575 187.62 34.7067 186.258 36.005C184.897 37.2717 184.216 38.9975 184.216 41.1825V44.3175C184.216 46.5025 184.897 48.2442 186.258 49.5425C187.62 50.8092 189.425 51.4425 191.673 51.4425Z" fill="black"/>
</svg>
