<svg viewBox="0 0 24 24" fill="currentColor" xmlns="http://www.w3.org/2000/svg">
<path d="M10.8838 7.50177C11.5755 7.1065 12.4247 7.1065 13.1164 7.50177L13.6396 7.80073C14.7924 8.45951 16.2077 8.45951 17.3606 7.80073L17.7624 7.57114C18.5023 7.14831 19.4177 7.17984 20.1268 7.65258L21.5841 8.62411C21.9287 8.85387 22.3944 8.76074 22.6241 8.41609C22.8539 8.07145 22.7608 7.60579 22.4161 7.37603L20.9588 6.4045C19.777 5.61661 18.2514 5.56406 17.0182 6.26878L16.6164 6.49836C15.9247 6.89363 15.0755 6.89363 14.3838 6.49836L13.8606 6.19941C12.7077 5.54063 11.2924 5.54063 10.1396 6.19941L9.61639 6.49836C8.92467 6.89363 8.07549 6.89363 7.38377 6.49836L6.982 6.26878C5.74875 5.56406 4.22319 5.61661 3.04135 6.4045L1.58405 7.37603C1.23941 7.60579 1.14628 8.07145 1.37604 8.41609C1.60581 8.76074 2.07146 8.85387 2.4161 8.62411L3.8734 7.65258C4.5825 7.17984 5.49784 7.14831 6.23779 7.57114L6.63956 7.80073C7.79243 8.45951 9.20773 8.45951 10.3606 7.80073L10.8838 7.50177Z" fill="currentColor"/>
<path d="M13.1164 12.5017C12.4247 12.1064 11.5755 12.1064 10.8838 12.5017L10.3606 12.8007C9.20773 13.4595 7.79243 13.4595 6.63956 12.8007L6.23779 12.5711C5.49784 12.1483 4.5825 12.1798 3.8734 12.6525L2.4161 13.624C2.07146 13.8538 1.60581 13.7607 1.37604 13.416C1.14628 13.0714 1.23941 12.6057 1.58405 12.376L3.04135 11.4044C4.22319 10.6165 5.74875 10.564 6.982 11.2687L7.38377 11.4983C8.07549 11.8936 8.92467 11.8936 9.61639 11.4983L10.1396 11.1993C11.2924 10.5406 12.7077 10.5406 13.8606 11.1993L14.3838 11.4983C15.0755 11.8936 15.9247 11.8936 16.6164 11.4983L17.0182 11.2687C18.2514 10.564 19.777 10.6165 20.9588 11.4044L22.4161 12.376C22.7608 12.6057 22.8539 13.0714 22.6241 13.416C22.3944 13.7607 21.9287 13.8538 21.5841 13.624L20.1268 12.6525C19.4177 12.1798 18.5023 12.1483 17.7624 12.5711L17.3606 12.8007C16.2077 13.4595 14.7924 13.4595 13.6396 12.8007L13.1164 12.5017Z" fill="currentColor"/>
<path d="M13.1164 17.5017C12.4247 17.1064 11.5755 17.1064 10.8838 17.5017L10.3606 17.8007C9.20773 18.4594 7.79243 18.4594 6.63956 17.8007L6.23779 17.5711C5.49784 17.1483 4.5825 17.1798 3.8734 17.6525L2.4161 18.624C2.07146 18.8538 1.60581 18.7607 1.37604 18.416C1.14628 18.0714 1.23941 17.6057 1.58405 17.376L3.04135 16.4044C4.22319 15.6165 5.74875 15.564 6.982 16.2687L7.38377 16.4983C8.07549 16.8936 8.92467 16.8936 9.61639 16.4983L10.1396 16.1993C11.2924 15.5406 12.7077 15.5406 13.8606 16.1993L14.3838 16.4983C15.0755 16.8936 15.9247 16.8936 16.6164 16.4983L17.0182 16.2687C18.2514 15.564 19.777 15.6165 20.9588 16.4044L22.4161 17.376C22.7608 17.6057 22.8539 18.0714 22.6241 18.416C22.3944 18.7607 21.9287 18.8538 21.5841 18.624L20.1268 17.6525C19.4177 17.1798 18.5023 17.1483 17.7624 17.5711L17.3606 17.8007C16.2077 18.4594 14.7924 18.4594 13.6396 17.8007L13.1164 17.5017Z" fill="currentColor"/>
</svg>
