<svg viewBox="0 0 24 24" fill="currentColor" xmlns="http://www.w3.org/2000/svg">
<path d="M19.25 14.25H4C3.58579 14.25 3.25 14.5858 3.25 15C3.25 15.4142 3.58579 15.75 4 15.75H19.25C19.6642 15.75 20 15.4142 20 15C20 14.5858 19.6642 14.25 19.25 14.25Z" fill="currentColor"/>
<path d="M16.25 17.25H7C6.58579 17.25 6.25 17.5858 6.25 18C6.25 18.4142 6.58579 18.75 7 18.75H16.25C16.6642 18.75 17 18.4142 17 18C17 17.5858 16.6642 17.25 16.25 17.25Z" fill="currentColor"/>
<path d="M13.75 20.5H9.5C9.08579 20.5 8.75 20.8358 8.75 21.25C8.75 21.6642 9.08579 22 9.5 22H13.75C14.1642 22 14.5 21.6642 14.5 21.25C14.5 20.8358 14.1642 20.5 13.75 20.5Z" fill="currentColor"/>
<path d="M21.9058 13.8667C20.9525 13.1648 19.7747 12.75 18.5 12.75H4C3.59561 12.75 3.21614 12.8567 2.88819 13.0434C2.32148 11.9882 2 10.7816 2 9.5C2 5.35786 5.35786 2 9.5 2C13.5175 2 16.7973 5.15887 16.991 9.12836C17.3133 9.04459 17.6514 9 18 9C20.2091 9 22 10.7909 22 13C22 13.2976 21.9675 13.5877 21.9058 13.8667Z" fill="currentColor"/>
</svg>
