<svg viewBox="0 0 24 24" fill="currentColor" xmlns="http://www.w3.org/2000/svg">
<path d="M14.5782 2C14.6797 2 14.7578 2.03125 14.8438 2.10937C14.961 2.21094 14.9688 2.23047 15 2.66406C15.0196 2.91016 15.0625 3.25391 15.0938 3.42578C15.125 3.59766 15.2149 3.92187 15.293 4.14844C15.3672 4.375 15.5157 4.72656 15.6172 4.92969C15.7188 5.13281 15.9024 5.45703 16.0196 5.65234C16.1407 5.84766 16.6016 6.50391 17.0469 7.11719C17.4922 7.73047 17.9844 8.42188 18.1407 8.66016C18.293 8.89844 18.5157 9.25781 18.6289 9.46094C18.7461 9.66406 18.9297 10.0234 19.043 10.2617C19.1524 10.5 19.3164 10.8828 19.4024 11.1211C19.4883 11.3594 19.6133 11.7695 19.6797 12.0391C19.7461 12.3086 19.8242 12.7188 19.8594 12.957C19.8946 13.1953 19.9375 13.5039 19.9571 13.6523C19.9805 13.7969 19.9961 14.168 19.9961 14.4805C19.9961 14.8633 19.9688 15.207 19.918 15.5469C19.8711 15.8203 19.793 16.2031 19.7461 16.3945C19.6953 16.5859 19.586 16.9219 19.5078 17.1367C19.4258 17.3516 19.3008 17.6484 19.2266 17.8008C19.1485 17.9531 19.0078 18.207 18.9102 18.3672C18.8125 18.5273 18.6133 18.8203 18.4727 19.0117C18.3321 19.2031 18.0313 19.5469 17.8047 19.7695C17.5821 19.9961 17.2305 20.3047 17.0274 20.457C16.8242 20.6094 16.5235 20.8164 16.3633 20.9141C16.2032 21.0156 15.9024 21.1758 15.6992 21.2734C15.4961 21.3711 15.1172 21.5195 14.8594 21.6055C14.6016 21.6875 14.25 21.7852 14.0782 21.8203C13.9063 21.8555 13.625 21.9102 13.4532 21.9414C13.2578 21.9766 12.9063 22 12.5039 22C12.0977 22 11.75 21.9766 11.5274 21.9375C11.3399 21.9062 11.0196 21.8398 10.8164 21.7969C10.6133 21.7539 10.2696 21.6562 10.0547 21.582C9.83987 21.5078 9.49612 21.3672 9.293 21.2734C9.08987 21.1758 8.78909 21.0156 8.62894 20.9141C8.46878 20.8164 8.17581 20.6172 7.9844 20.4766C7.78909 20.3359 7.44925 20.0352 7.22659 19.8086C7.00003 19.5859 6.69144 19.2344 6.53909 19.0312C6.38675 18.8281 6.18362 18.5273 6.08206 18.3672C5.9844 18.207 5.84378 17.9531 5.76565 17.8008C5.69144 17.6484 5.56644 17.3516 5.4844 17.1367C5.40628 16.9219 5.2969 16.5859 5.25003 16.3945C5.19925 16.2031 5.11722 15.8125 5.07034 15.5352C4.99612 15.0859 4.98831 14.9375 5.01175 14.2266C5.02347 13.7852 5.05862 13.2148 5.09378 12.957C5.12503 12.6992 5.19925 12.2852 5.25394 12.0391C5.31253 11.793 5.418 11.4141 5.49222 11.1992C5.56644 10.9844 5.71097 10.6484 5.80472 10.457C5.90237 10.2656 6.06644 9.98438 6.16409 9.83594C6.26175 9.68359 6.46097 9.4375 6.60159 9.28906C6.74222 9.13672 6.97269 8.9375 7.1094 8.84375C7.293 8.72266 7.39847 8.67969 7.50394 8.67969C7.60159 8.67969 7.68753 8.71094 7.75394 8.76953C7.83206 8.83594 7.88284 8.96094 7.98831 9.375C8.06253 9.65625 8.19144 10.0547 8.27737 10.2539C8.36331 10.4492 8.49222 10.7109 8.56253 10.8281C8.62894 10.9453 8.82815 11.1875 9.00003 11.3594C9.17581 11.5391 9.39847 11.7188 9.50784 11.7773C9.61331 11.8281 9.76565 11.8906 9.97659 11.9492L10.0039 11.2422C10.0235 10.8516 10.0547 10.3086 10.0742 10.0273C10.0977 9.75 10.1407 9.32812 10.1719 9.08984C10.2071 8.85156 10.2774 8.44141 10.3321 8.17188C10.3867 7.90234 10.5117 7.4375 10.6133 7.13672C10.711 6.83594 10.918 6.33594 11.0742 6.02344C11.2266 5.71094 11.4805 5.25391 11.6367 5.00781C11.793 4.76172 12.0274 4.41797 12.1563 4.24609C12.2891 4.07422 12.543 3.76562 12.7227 3.5625C12.9024 3.35938 13.211 3.03906 13.4102 2.85547C13.6055 2.67187 13.9141 2.40234 14.0977 2.26172C14.375 2.04297 14.4532 2 14.5742 2H14.5782ZM12.8907 14.332C12.7969 14.457 12.6367 14.7187 12.5352 14.9102C12.4336 15.1055 12.3164 15.3867 12.2735 15.5352C12.2305 15.6875 12.1758 15.9336 12.1485 16.082C12.125 16.2344 12.0899 16.6641 12.0742 17.0391C12.0508 17.625 12.0352 17.7383 11.9688 17.832C11.9297 17.8906 11.8321 17.9609 11.7578 17.9844C11.6836 18.0078 11.543 18.0117 11.4453 18C11.3477 17.9844 11.1641 17.9219 11.0352 17.8633C10.8907 17.793 10.7344 17.6758 10.6289 17.5625C10.5391 17.457 10.4141 17.293 10.3594 17.1953L10.2617 17.0195C10.1875 17.2031 10.1367 17.3867 10.1016 17.5469C10.0625 17.707 10.0235 18.0352 10.0117 18.2695C9.99612 18.5938 10.0039 18.7812 10.0547 19.0312C10.0977 19.2383 10.1875 19.5039 10.3008 19.7344C10.4492 20.043 10.5313 20.1602 10.7969 20.418C11.0078 20.6289 11.2032 20.7813 11.3867 20.875C11.5352 20.9531 11.7735 21.0469 11.9141 21.0859C12.0586 21.1211 12.3125 21.1523 12.5 21.1523C12.6875 21.1523 12.9414 21.1211 13.086 21.0859C13.2266 21.0469 13.461 20.9531 13.6133 20.875C13.7969 20.7813 13.9922 20.6289 14.2032 20.418C14.4688 20.1563 14.5508 20.043 14.6992 19.7344C14.8008 19.5195 14.9024 19.2344 14.9375 19.0625C14.9727 18.8945 15 18.6562 15 18.5352C15 18.4102 14.9805 18.1875 14.961 18.0352C14.9375 17.8867 14.8828 17.6211 14.8399 17.4492C14.7969 17.2773 14.6836 16.9805 14.5938 16.7852C14.5 16.5937 14.2032 16.1016 13.9297 15.6914C13.6524 15.2852 13.3867 14.8633 13.3321 14.7539C13.2774 14.6484 13.1914 14.457 13.1446 14.332L13.0625 14.1055L12.8907 14.332Z" fill="currentColor"/>
</svg>
