<svg viewBox="0 0 24 24" fill="currentColor" xmlns="http://www.w3.org/2000/svg">
<path d="M3 2C2.44772 2 2 2.44772 2 3C2 3.55228 2.44772 4 3 4H21C21.5523 4 22 3.55228 22 3C22 2.44772 21.5523 2 21 2H3Z" fill="currentColor"/>
<path d="M3 6V7C3 7.55228 3.44772 8 4 8H4.21922C4.67809 8 5.07807 8.3123 5.18937 8.75746L6.41791 13.6717C6.56941 14.2776 7.43059 14.2776 7.58209 13.6717L9 8L11.4154 18.4666C11.5585 19.0867 12.4415 19.0867 12.5846 18.4666L15 8L16.4633 10.9267C16.6845 11.3689 17.3155 11.3689 17.5367 10.9267L18.7236 8.55279C18.893 8.214 19.2393 8 19.618 8H20C20.5523 8 21 7.55228 21 7V6C21 5.44772 20.5523 5 20 5H4C3.44772 5 3 5.44772 3 6Z" fill="currentColor"/>
<path d="M7.2934 18.086C7.0306 17.8679 6.63825 18.0944 6.69576 18.4311L6.88557 19.5423C6.90366 19.6481 6.87459 19.7566 6.80601 19.8392L6.08604 20.7066C5.8679 20.9694 6.09443 21.3617 6.43109 21.3042L7.54226 21.1144C7.64811 21.0963 7.75657 21.1254 7.8392 21.194L8.7066 21.914C8.9694 22.1321 9.36175 21.9056 9.30424 21.5689L9.11443 20.4577C9.09634 20.3519 9.12541 20.2434 9.19399 20.1608L9.91396 19.2934C10.1321 19.0306 9.90557 18.6383 9.56891 18.6958L8.45774 18.8856C8.35189 18.9037 8.24343 18.8746 8.1608 18.806L7.2934 18.086Z" fill="currentColor"/>
<path d="M18.3042 18.4311C18.3617 18.0944 17.9694 17.8679 17.7066 18.086L16.8392 18.806C16.7566 18.8746 16.6481 18.9037 16.5423 18.8856L15.4311 18.6958C15.0944 18.6383 14.8679 19.0306 15.086 19.2934L15.806 20.1608C15.8746 20.2434 15.9037 20.3519 15.8856 20.4577L15.6958 21.5689C15.6383 21.9056 16.0306 22.1321 16.2934 21.914L17.1608 21.194C17.2434 21.1254 17.3519 21.0963 17.4577 21.1144L18.5689 21.3042C18.9056 21.3617 19.1321 20.9694 18.914 20.7066L18.194 19.8392C18.1254 19.7566 18.0963 19.6481 18.1144 19.5423L18.3042 18.4311Z" fill="currentColor"/>
<path d="M19.3533 13.043C19.4847 12.934 19.6809 13.0472 19.6521 13.2155L19.5572 13.7711C19.5482 13.8241 19.5627 13.8783 19.597 13.9196L19.957 14.3533C20.066 14.4847 19.9528 14.6809 19.7845 14.6521L19.2289 14.5572C19.1759 14.5482 19.1217 14.5627 19.0804 14.597L18.6467 14.957C18.5153 15.066 18.3191 14.9528 18.3479 14.7845L18.4428 14.2289C18.4518 14.1759 18.4373 14.1217 18.403 14.0804L18.043 13.6467C17.934 13.5153 18.0472 13.3191 18.2155 13.3479L18.7711 13.4428C18.8241 13.4518 18.8783 13.4373 18.9196 13.403L19.3533 13.043Z" fill="currentColor"/>
<path d="M4.47818 14.3233C4.52131 14.0708 4.22705 13.9009 4.02995 14.0645L3.3794 14.6045C3.31743 14.6559 3.23608 14.6777 3.1567 14.6642L2.32332 14.5218C2.07082 14.4787 1.90093 14.7729 2.06453 14.9701L2.60451 15.6206C2.65594 15.6826 2.67774 15.7639 2.66418 15.8433L2.52182 16.6767C2.47869 16.9292 2.77295 17.0991 2.97005 16.9355L3.6206 16.3955C3.68257 16.3441 3.76392 16.3223 3.8433 16.3358L4.67668 16.4782C4.92918 16.5213 5.09907 16.2271 4.93547 16.0299L4.39549 15.3794C4.34406 15.3174 4.32226 15.2361 4.33582 15.1567L4.47818 14.3233Z" fill="currentColor"/>
</svg>
