<svg viewBox="0 0 24 24" fill="currentColor" xmlns="http://www.w3.org/2000/svg">
<path d="M12 22C17.5228 22 22 17.5228 22 12C22 11.5373 21.3065 11.4608 21.0672 11.8568C19.9289 13.7406 17.8615 15 15.5 15C11.9101 15 9 12.0899 9 8.5C9 6.13846 10.2594 4.07106 12.1432 2.93276C12.5392 2.69347 12.4627 2 12 2C6.47715 2 2 6.47715 2 12C2 17.5228 6.47715 22 12 22Z" fill="currentColor"/>
<path d="M19.4598 2.32016C19.3019 1.89328 18.6981 1.89328 18.5402 2.32016L18.0188 3.72911C17.9691 3.86332 17.8633 3.96913 17.7291 4.0188L16.3202 4.54015C15.8933 4.69811 15.8933 5.30189 16.3202 5.45985L17.7291 5.9812C17.8633 6.03087 17.9691 6.13668 18.0188 6.27089L18.5402 7.67984C18.6981 8.10672 19.3019 8.10672 19.4598 7.67984L19.9812 6.27089C20.0309 6.13668 20.1367 6.03087 20.2709 5.9812L21.6798 5.45985C22.1067 5.30189 22.1067 4.69811 21.6798 4.54015L20.2709 4.0188C20.1367 3.96913 20.0309 3.86332 19.9812 3.72911L19.4598 2.32016Z" fill="currentColor"/>
<path d="M14.3066 7.21344C14.2013 6.92885 13.7987 6.92885 13.6934 7.21344L13.3459 8.15274C13.3128 8.24221 13.2422 8.31276 13.1527 8.34586L12.2134 8.69344C11.9289 8.79874 11.9289 9.20126 12.2134 9.30656L13.1527 9.65414C13.2422 9.68724 13.3128 9.75779 13.3459 9.84726L13.6934 10.7866C13.7987 11.0711 14.2013 11.0711 14.3066 10.7866L14.6541 9.84726C14.6872 9.75779 14.7578 9.68724 14.8473 9.65414L15.7866 9.30656C16.0711 9.20126 16.0711 8.79874 15.7866 8.69344L14.8473 8.34586C14.7578 8.31276 14.6872 8.24221 14.6541 8.15274L14.3066 7.21344Z" fill="currentColor"/>
</svg>
