<svg viewBox="0 0 24 24" fill="currentColor" xmlns="http://www.w3.org/2000/svg">
<path d="M12 22C17.5228 22 22 17.5228 22 12C22 6.47715 17.5228 2 12 2V22Z" fill="currentColor"/>
<path d="M10.5 21.8883C6.51612 21.289 3.30189 18.3395 2.31421 14.4968L10.5 17.0155V21.8883Z" fill="currentColor"/>
<path d="M2 12C2 12.2834 2.01179 12.564 2.0349 12.8414L10.5 15.4461V13.0155L2.12137 10.4374C2.04148 10.9466 2 11.4684 2 12Z" fill="currentColor"/>
<path d="M10.5 11.4461V9.01548L3.43197 6.8407C3.03091 7.5053 2.705 8.22035 2.466 8.97407L10.5 11.4461Z" fill="currentColor"/>
<path d="M10.5 7.44601L4.35376 5.55485C5.88323 3.74219 8.04556 2.4809 10.5 2.11169V7.44601Z" fill="currentColor"/>
</svg>
