<svg viewBox="0 0 24 24" fill="currentColor" xmlns="http://www.w3.org/2000/svg">
<path d="M7.08557 16.0793C7.45606 16.2646 7.60623 16.7151 7.42098 17.0856L6.42098 19.0856C6.23574 19.4561 5.78524 19.6062 5.41475 19.421C5.04427 19.2357 4.8941 18.7852 5.07934 18.4148L6.07934 16.4148C6.26459 16.0443 6.71509 15.8941 7.08557 16.0793Z" fill="currentColor"/>
<path d="M11.0856 13.0793C11.4561 13.2646 11.6062 13.7151 11.421 14.0856L10.421 16.0856C10.2357 16.4561 9.78524 16.6062 9.41475 16.421C9.04427 16.2357 8.8941 15.7852 9.07934 15.4148L10.0793 13.4148C10.2646 13.0443 10.7151 12.8941 11.0856 13.0793Z" fill="currentColor"/>
<path d="M11.0856 18.0793C11.4561 18.2646 11.6062 18.7151 11.421 19.0856L10.421 21.0856C10.2357 21.4561 9.78524 21.6062 9.41475 21.421C9.04427 21.2357 8.8941 20.7852 9.07934 20.4148L10.0793 18.4148C10.2646 18.0443 10.7151 17.8941 11.0856 18.0793Z" fill="currentColor"/>
<path d="M14.6708 14.0793C15.0413 14.2646 15.1914 14.7151 15.0062 15.0856L14.0062 17.0856C13.8209 17.4561 13.3704 17.6062 13 17.421C12.6295 17.2357 12.4793 16.7852 12.6645 16.4148L13.6645 14.4148C13.8498 14.0443 14.3003 13.8941 14.6708 14.0793Z" fill="currentColor"/>
<path d="M18.6708 15.6584C19.0413 15.8436 19.1915 16.2941 19.0062 16.6646L18.0062 18.6646C17.821 19.0351 17.3705 19.1852 17 19C16.6295 18.8148 16.4793 18.3643 16.6646 17.9938L17.6646 15.9938C17.8498 15.6233 18.3003 15.4731 18.6708 15.6584Z" fill="currentColor"/>
<path d="M15.0856 18.0793C15.4561 18.2646 15.6062 18.7151 15.421 19.0856L14.421 21.0856C14.2357 21.4561 13.7852 21.6062 13.4148 21.421C13.0443 21.2357 12.8941 20.7852 13.0793 20.4148L14.0793 18.4148C14.2646 18.0443 14.7151 17.8941 15.0856 18.0793Z" fill="currentColor"/>
<path d="M20.4148 17.1892C20.8632 16.1079 20.4049 14.8483 19.3417 14.3167C18.3756 13.8336 17.2281 14.1109 16.5795 14.9217C16.6468 14.0372 16.1841 13.1589 15.3417 12.7377C14.5121 12.3229 13.5487 12.4687 12.8824 13.0315C12.6993 12.4882 12.3098 12.0143 11.7565 11.7377C10.645 11.182 9.29351 11.6325 8.73779 12.7439L7.744 14.7315C6.63493 14.1853 5.29143 14.6366 4.73779 15.7439L4.54475 16.13C2.98443 14.7556 2 12.7428 2 10.5C2 6.35786 5.35786 3 9.5 3C13.5175 3 16.7973 6.15887 16.991 10.1284C17.3133 10.0446 17.6514 10 18 10C20.2091 10 22 11.7909 22 14C22 15.302 21.3779 16.4587 20.4148 17.1892Z" fill="currentColor"/>
</svg>
