<svg viewBox="0 0 24 24" fill="currentColor" xmlns="http://www.w3.org/2000/svg">
<path d="M12.7501 2C12.7501 1.58579 12.4143 1.25 12.0001 1.25C11.5858 1.25 11.2501 1.58579 11.2501 2V3.93933L10.0304 2.71967C9.73752 2.42678 9.26265 2.42678 8.96975 2.71967C8.67686 3.01256 8.67686 3.48743 8.96975 3.78033L11.2501 6.06066V7.56136L8.45852 9.1316L7.23391 8.38973L6.39685 5.26585C6.28964 4.86575 5.87839 4.62831 5.47829 4.73552C5.07819 4.84273 4.84075 5.25398 4.94796 5.65408L5.39439 7.32016L3.37518 6.15434C3.01647 5.94721 2.55777 6.0701 2.35064 6.42881C2.14352 6.78752 2.2664 7.24621 2.62511 7.45334L4.6444 8.6192L2.9783 9.06563C2.5782 9.17284 2.34076 9.58409 2.44797 9.98419C2.55518 10.3843 2.96643 10.6217 3.36653 10.5145L6.47254 9.68227L7.69449 10.4225V13.5775L6.47245 14.3178L3.36645 13.4855C2.96635 13.3783 2.5551 13.6158 2.44789 14.0159C2.34069 14.416 2.57813 14.8272 2.97823 14.9344L4.64431 15.3808L2.625 16.5466C2.26624 16.7536 2.14325 17.2123 2.3503 17.5711C2.55734 17.9298 3.01601 18.0528 3.37477 17.8458L5.39432 16.6799L4.94788 18.346C4.84068 18.7461 5.07811 19.1573 5.47821 19.2645C5.87831 19.3717 6.28957 19.1343 6.39677 18.7342L7.23382 15.6103L8.45851 14.8684L11.2501 16.4386V17.9393L8.96978 20.2197C8.67689 20.5126 8.67689 20.9874 8.96978 21.2803C9.26268 21.5732 9.73755 21.5732 10.0304 21.2803L11.2501 20.0607V22C11.2501 22.4142 11.5859 22.75 12.0001 22.75C12.4143 22.75 12.7501 22.4142 12.7501 22V20.0607L13.9698 21.2803C14.2627 21.5732 14.7375 21.5732 15.0304 21.2803C15.3233 20.9874 15.3233 20.5126 15.0304 20.2197L12.7501 17.9393V16.4386L15.5416 14.8684L16.7662 15.6103L17.6032 18.7342C17.7104 19.1343 18.1217 19.3717 18.5218 19.2645C18.9219 19.1573 19.1593 18.7461 19.0521 18.346L18.6057 16.6799L20.625 17.8457C20.9837 18.0528 21.4424 17.9299 21.6495 17.5712C21.8566 17.2125 21.7337 16.7538 21.375 16.5467L19.3557 15.3808L21.0218 14.9344C21.4219 14.8272 21.6593 14.416 21.5521 14.0159C21.4449 13.6158 21.0336 13.3783 20.6335 13.4855L17.5276 14.3178L16.3056 13.5775V10.4225L17.5276 9.68226L20.6337 10.5145C21.0338 10.6217 21.445 10.3843 21.5522 9.98419C21.6594 9.58409 21.422 9.17284 21.0219 9.06563L19.3558 8.6192L21.3751 7.45336C21.7338 7.24625 21.8567 6.78756 21.6496 6.42884C21.4425 6.07012 20.9838 5.94721 20.6251 6.15432L18.6058 7.32016L19.0522 5.65408C19.1594 5.25398 18.922 4.84273 18.5219 4.73552C18.1218 4.62831 17.7105 4.86575 17.6033 5.26585L16.7663 8.38972L15.5416 9.13161L12.7501 7.56137V6.06066L15.0304 3.78033C15.3233 3.48744 15.3233 3.01256 15.0304 2.71967C14.7375 2.42678 14.2626 2.42678 13.9697 2.71967L12.7501 3.93934V2Z" fill="currentColor"/>
</svg>
