<svg viewBox="0 0 24 24" fill="currentColor" xmlns="http://www.w3.org/2000/svg">
<path d="M2 5.00725C2 3.34639 6.47715 2 12 2C17.5228 2 22 3.34639 22 5.00725C22 5.01822 21.9998 5.02919 21.9994 5.04013C21.8195 5.19982 21.5794 5.36951 21.2687 5.54241C20.6851 5.86728 19.9127 6.17005 18.9787 6.42843C17.1122 6.94481 14.678 7.26269 12.0001 7.26269C9.32222 7.26269 6.88804 6.94481 5.02153 6.42843C4.08757 6.17005 3.31518 5.86728 2.73149 5.5424C2.42072 5.36943 2.18054 5.19968 2.00058 5.03993C2.00019 5.02905 2 5.01815 2 5.00725Z" fill="currentColor"/>
<path d="M19.3778 7.87783C20.0877 7.68141 20.7393 7.454 21.3132 7.19739C21.0195 8.09172 20.6153 9.26119 20.1453 10.4581C19.9121 10.553 19.6498 10.6436 19.3596 10.7277C18.2029 11.0629 16.682 11.2723 15 11.2723C14.5858 11.2723 14.25 11.6089 14.25 12.0242C14.25 12.4394 14.5858 12.776 15 12.776C16.6188 12.776 18.1321 12.5952 19.3798 12.2796C19.0967 12.9043 18.8011 13.5004 18.5 14.029C17.1863 16.3351 14.7863 19.0793 13.299 20.686C12.754 21.2747 11.7797 20.9903 11.5902 20.21C11.3458 19.2031 10.9996 17.9062 10.5729 16.6443C11.3379 16.7363 12.1546 16.7856 13 16.7856C13.4142 16.7856 13.75 16.449 13.75 16.0338C13.75 15.6186 13.4142 15.282 13 15.282C11.9023 15.282 10.8732 15.1928 9.96918 15.0377C9.81919 14.682 9.66259 14.3428 9.49998 14.029C8.39515 11.8971 6.29389 9.55562 4.62469 7.87845C6.64516 8.43714 9.21618 8.76627 12.0001 8.76627C14.7851 8.76627 17.3569 8.43689 19.3778 7.87783Z" fill="currentColor"/>
</svg>
