<svg viewBox="0 0 24 24" fill="currentColor" xmlns="http://www.w3.org/2000/svg">
<path d="M8.53501 8.32374C8.69474 7.89209 9.30526 7.89209 9.46499 8.32374L11.0635 12.6436C11.1137 12.7793 11.2207 12.8863 11.3564 12.9365L15.6763 14.535C16.1079 14.6947 16.1079 15.3053 15.6763 15.465L11.3564 17.0635C11.2207 17.1137 11.1137 17.2207 11.0635 17.3564L9.46499 21.6763C9.30526 22.1079 8.69474 22.1079 8.53501 21.6763L6.93652 17.3564C6.8863 17.2207 6.7793 17.1137 6.64359 17.0635L2.32374 15.465C1.89209 15.3053 1.89209 14.6947 2.32374 14.535L6.64359 12.9365C6.7793 12.8863 6.8863 12.7793 6.93652 12.6436L8.53501 8.32374Z" fill="currentColor"/>
<path d="M13.5402 2.32016C13.6981 1.89328 14.3019 1.89328 14.4598 2.32016L14.9812 3.72911C15.0309 3.86332 15.1367 3.96913 15.2709 4.0188L16.6798 4.54015C17.1067 4.69811 17.1067 5.30189 16.6798 5.45985L15.2709 5.9812C15.1367 6.03087 15.0309 6.13668 14.9812 6.27089L14.4598 7.67984C14.3019 8.10672 13.6981 8.10672 13.5402 7.67984L13.0188 6.27089C12.9691 6.13668 12.8633 6.03087 12.7291 5.9812L11.3202 5.45985C10.8933 5.30189 10.8933 4.69811 11.3202 4.54015L12.7291 4.0188C12.8633 3.96913 12.9691 3.86332 13.0188 3.72911L13.5402 2.32016Z" fill="currentColor"/>
<path d="M19.6934 9.21344C19.7987 8.92885 20.2013 8.92885 20.3066 9.21344L20.6541 10.1527C20.6872 10.2422 20.7578 10.3128 20.8473 10.3459L21.7866 10.6934C22.0711 10.7987 22.0711 11.2013 21.7866 11.3066L20.8473 11.6541C20.7578 11.6872 20.6872 11.7578 20.6541 11.8473L20.3066 12.7866C20.2013 13.0711 19.7987 13.0711 19.6934 12.7866L19.3459 11.8473C19.3128 11.7578 19.2422 11.6872 19.1527 11.6541L18.2134 11.3066C17.9289 11.2013 17.9289 10.7987 18.2134 10.6934L19.1527 10.3459C19.2422 10.3128 19.3128 10.2422 19.3459 10.1527L19.6934 9.21344Z" fill="currentColor"/>
</svg>
