<svg viewBox="0 0 24 24" fill="currentColor" xmlns="http://www.w3.org/2000/svg">
<path d="M16.75 1C16.75 0.585786 16.4142 0.25 16 0.25C15.5858 0.25 15.25 0.585786 15.25 1V2.2C15.25 2.61421 15.5858 2.95 16 2.95C16.4142 2.95 16.75 2.61421 16.75 2.2V1Z" fill="currentColor"/>
<path d="M20.8 6.25C20.3858 6.25 20.05 6.58579 20.05 7C20.05 7.41421 20.3858 7.75 20.8 7.75H22C22.4143 7.75 22.75 7.41421 22.75 7C22.75 6.58579 22.4143 6.25 22 6.25H20.8Z" fill="currentColor"/>
<path d="M18.8637 4.13619C18.5708 3.84329 18.5708 3.36842 18.8637 3.07553L19.7122 2.227C20.0051 1.9341 20.48 1.9341 20.7729 2.227C21.0658 2.51989 21.0658 2.99476 20.7729 3.28766L19.9244 4.13619C19.6315 4.42908 19.1566 4.42908 18.8637 4.13619Z" fill="currentColor"/>
<path d="M20.773 10.7124C21.0659 11.0053 21.0659 11.4802 20.773 11.7731C20.4801 12.066 20.0052 12.066 19.7123 11.7731L18.8638 10.9245C18.5709 10.6317 18.5709 10.1568 18.8638 9.86384C19.1567 9.57094 19.6316 9.57094 19.9245 9.86384L20.773 10.7124Z" fill="currentColor"/>
<path d="M13.1363 4.13619C13.4292 3.84329 13.4292 3.36842 13.1363 3.07553L12.2878 2.227C11.9949 1.9341 11.52 1.9341 11.2271 2.227C10.9342 2.51989 10.9342 2.99476 11.2271 3.28766L12.0756 4.13619C12.3685 4.42908 12.8434 4.42908 13.1363 4.13619Z" fill="currentColor"/>
<path d="M19 7C19 8.07406 18.4356 9.0163 17.5871 9.54626C16.7079 7.7511 15.2488 6.29188 13.4539 5.41269C13.9838 4.56436 14.926 4 16 4C17.6569 4 19 5.34315 19 7Z" fill="currentColor"/>
<path d="M11.0856 18.0793C11.4561 18.2646 11.6062 18.7151 11.421 19.0856L10.421 21.0856C10.2357 21.4561 9.78524 21.6062 9.41475 21.421C9.04427 21.2357 8.8941 20.7852 9.07934 20.4148L10.0793 18.4148C10.2646 18.0443 10.7151 17.8941 11.0856 18.0793Z" fill="currentColor"/>
<path d="M7.08557 19.0793C7.45606 19.2646 7.60623 19.7151 7.42098 20.0856L6.42098 22.0856C6.23574 22.4561 5.78524 22.6062 5.41475 22.421C5.04427 22.2357 4.8941 21.7852 5.07934 21.4148L6.07934 19.4148C6.26459 19.0443 6.71509 18.8941 7.08557 19.0793Z" fill="currentColor"/>
<path d="M15.0062 20.0856C15.1914 19.7151 15.0413 19.2646 14.6708 19.0793C14.3003 18.8941 13.8498 19.0443 13.6646 19.4147L12.6646 21.4147C12.4793 21.7852 12.6295 22.2357 13 22.421C13.3705 22.6062 13.821 22.456 14.0062 22.0856L15.0062 20.0856Z" fill="currentColor"/>
<path d="M18.6646 19.0793C19.0351 19.2646 19.1852 19.7151 19 20.0856L18 22.0856C17.8147 22.456 17.3642 22.6062 16.9938 22.421C16.6233 22.2357 16.4731 21.7852 16.6583 21.4147L17.6583 19.4147C17.8436 19.0443 18.2941 18.8941 18.6646 19.0793Z" fill="currentColor"/>
<path d="M4.73779 18.7439L4.54475 19.13C2.98443 17.7556 2 15.7428 2 13.5C2 9.35786 5.35786 6 9.5 6C13.5175 6 16.7973 9.15887 16.991 13.1284C17.3133 13.0446 17.6514 13 18 13C20.2091 13 22 14.7909 22 17C22 18.2372 21.4383 19.3432 20.556 20.077C20.6934 19.1416 20.2272 18.1835 19.3355 17.7377C18.2343 17.1871 16.8976 17.6242 16.3325 18.7132C16.1212 18.3056 15.7837 17.9587 15.3417 17.7377C14.5121 17.3229 13.5487 17.4687 12.8824 18.0315C12.6993 17.4882 12.3098 17.0144 11.7565 16.7377C10.645 16.182 9.29351 16.6325 8.73779 17.7439L8.46405 18.2914C8.27365 18.0675 8.03596 17.8774 7.75648 17.7377C6.64503 17.182 5.29351 17.6325 4.73779 18.7439Z" fill="currentColor"/>
</svg>
