<svg viewBox="0 0 24 24" fill="currentColor" xmlns="http://www.w3.org/2000/svg">
<path d="M5 2C3.34315 2 2 3.34315 2 5V17.25H7.05588C7.41774 14.8444 9.49348 13 12 13C14.5065 13 16.5823 14.8444 16.9441 17.25H22V5C22 3.34315 20.6569 2 19 2H5ZM11.4697 4.46967C11.7626 4.17678 12.2374 4.17678 12.5303 4.46967L15.5303 7.46967C15.8232 7.76256 15.8232 8.23744 15.5303 8.53033C15.2374 8.82322 14.7626 8.82322 14.4697 8.53033L12.75 6.81066V11C12.75 11.4142 12.4142 11.75 12 11.75C11.5858 11.75 11.25 11.4142 11.25 11V6.81066L9.53033 8.53033C9.23744 8.82322 8.76256 8.82322 8.46967 8.53033C8.17678 8.23744 8.17678 7.76256 8.46967 7.46967L11.4697 4.46967ZM17.1264 12.8735C16.8335 12.5806 16.8335 12.1057 17.1264 11.8128L18.5406 10.3986C18.8335 10.1057 19.3084 10.1057 19.6013 10.3986C19.8942 10.6915 19.8942 11.1664 19.6013 11.4593L18.1871 12.8735C17.8942 13.1664 17.4193 13.1664 17.1264 12.8735ZM6.87359 11.8128C7.16648 12.1057 7.16648 12.5806 6.87359 12.8735C6.5807 13.1664 6.10582 13.1664 5.81293 12.8735L4.39872 11.4593C4.10582 11.1664 4.10582 10.6915 4.39872 10.3986C4.69161 10.1057 5.16648 10.1057 5.45938 10.3986L6.87359 11.8128Z" fill="currentColor"/>
<path d="M22 18.75H2V19C2 20.6569 3.34315 22 5 22H19C20.6569 22 22 20.6569 22 19V18.75Z" fill="currentColor"/>
</svg>
