<svg viewBox="0 0 24 24" fill="currentColor" xmlns="http://www.w3.org/2000/svg">
<path d="M12.75 5C12.75 4.58579 12.4142 4.25 12 4.25C11.5858 4.25 11.25 4.58579 11.25 5V9.18934L9.53033 7.46967C9.23744 7.17678 8.76256 7.17678 8.46967 7.46967C8.17678 7.76256 8.17678 8.23744 8.46967 8.53033L11.4697 11.5303C11.7626 11.8232 12.2374 11.8232 12.5303 11.5303L15.5303 8.53033C15.8232 8.23744 15.8232 7.76256 15.5303 7.46967C15.2374 7.17678 14.7626 7.17678 14.4697 7.46967L12.75 9.18934V5Z" fill="currentColor"/>
<path d="M12 14C9.49348 14 7.41774 15.8444 7.05588 18.25H2C1.58579 18.25 1.25 18.5858 1.25 19C1.25 19.4142 1.58579 19.75 2 19.75H22C22.4142 19.75 22.75 19.4142 22.75 19C22.75 18.5858 22.4142 18.25 22 18.25H16.9441C16.5823 15.8444 14.5065 14 12 14Z" fill="currentColor"/>
<path d="M17.1264 13.8735C16.8335 13.5806 16.8335 13.1057 17.1264 12.8128L18.5406 11.3986C18.8335 11.1057 19.3084 11.1057 19.6013 11.3986C19.8942 11.6915 19.8942 12.1664 19.6013 12.4593L18.1871 13.8735C17.8942 14.1664 17.4193 14.1664 17.1264 13.8735Z" fill="currentColor"/>
<path d="M6.87359 12.8128C7.16648 13.1057 7.16648 13.5806 6.87359 13.8735C6.5807 14.1664 6.10582 14.1664 5.81293 13.8735L4.39872 12.4593C4.10582 12.1664 4.10582 11.6915 4.39872 11.3986C4.69161 11.1057 5.16649 11.1057 5.45938 11.3986L6.87359 12.8128Z" fill="currentColor"/>
</svg>
