<svg viewBox="0 0 24 24" fill="currentColor" xmlns="http://www.w3.org/2000/svg">
<path d="M6.46976 1.46967C6.76265 1.17678 7.23753 1.17678 7.53042 1.46967L10.5304 4.46967C10.8233 4.76256 10.8233 5.23744 10.5304 5.53033C10.2375 5.82322 9.76265 5.82322 9.46976 5.53033L7.75009 3.81066V9C7.75009 9.41421 7.4143 9.75 7.00009 9.75C6.58588 9.75 6.25009 9.41421 6.25009 9V3.81066L4.53042 5.53033C4.23753 5.82322 3.76265 5.82322 3.46976 5.53033C3.17687 5.23744 3.17687 4.76256 3.46976 4.46967L6.46976 1.46967Z" fill="currentColor"/>
<path d="M10.8838 13.5017C11.5755 13.1064 12.4247 13.1064 13.1164 13.5017L13.6396 13.8007C14.7924 14.4594 16.2077 14.4594 17.3606 13.8007L17.7624 13.5711C18.5023 13.1482 19.4177 13.1798 20.1268 13.6525L21.5841 14.624C21.9287 14.8538 22.3944 14.7607 22.6241 14.416C22.8539 14.0714 22.7608 13.6057 22.4161 13.376L20.9588 12.4044C19.777 11.6165 18.2514 11.564 17.0182 12.2687L16.6164 12.4983C15.9247 12.8936 15.0755 12.8936 14.3838 12.4983L13.8606 12.1993C12.7077 11.5406 11.2924 11.5406 10.1396 12.1993L9.61639 12.4983C8.92467 12.8936 8.07549 12.8936 7.38377 12.4983L6.982 12.2687C5.74875 11.564 4.22319 11.6165 3.04135 12.4044L1.58405 13.376C1.23941 13.6057 1.14628 14.0714 1.37604 14.416C1.60581 14.7607 2.07146 14.8538 2.4161 14.624L3.8734 13.6525C4.5825 13.1798 5.49784 13.1482 6.23779 13.5711L6.63956 13.8007C7.79243 14.4594 9.20773 14.4594 10.3606 13.8007L10.8838 13.5017Z" fill="currentColor"/>
<path d="M13.1164 17.5017C12.4247 17.1064 11.5755 17.1064 10.8838 17.5017L10.3606 17.8007C9.20773 18.4594 7.79243 18.4594 6.63956 17.8007L6.23779 17.5711C5.49784 17.1482 4.5825 17.1798 3.8734 17.6525L2.4161 18.624C2.07146 18.8538 1.60581 18.7607 1.37604 18.416C1.14628 18.0714 1.23941 17.6057 1.58405 17.376L3.04135 16.4044C4.22319 15.6165 5.74875 15.564 6.982 16.2687L7.38377 16.4983C8.07549 16.8936 8.92467 16.8936 9.61639 16.4983L10.1396 16.1993C11.2924 15.5406 12.7077 15.5406 13.8606 16.1993L14.3838 16.4983C15.0755 16.8936 15.9247 16.8936 16.6164 16.4983L17.0182 16.2687C18.2514 15.564 19.777 15.6165 20.9588 16.4044L22.4161 17.376C22.7608 17.6057 22.8539 18.0714 22.6241 18.416C22.3944 18.7607 21.9287 18.8538 21.5841 18.624L20.1268 17.6525C19.4177 17.1798 18.5023 17.1482 17.7624 17.5711L17.3606 17.8007C16.2077 18.4594 14.7924 18.4594 13.6396 17.8007L13.1164 17.5017Z" fill="currentColor"/>
<path d="M13.1164 21.5017C12.4247 21.1064 11.5755 21.1064 10.8838 21.5017L10.3606 21.8007C9.20773 22.4594 7.79243 22.4594 6.63956 21.8007L6.23779 21.5711C5.49784 21.1482 4.5825 21.1798 3.8734 21.6525L2.4161 22.624C2.07146 22.8538 1.60581 22.7607 1.37604 22.416C1.14628 22.0714 1.23941 21.6057 1.58405 21.376L3.04135 20.4044C4.22319 19.6165 5.74875 19.564 6.982 20.2687L7.38377 20.4983C8.07549 20.8936 8.92467 20.8936 9.61639 20.4983L10.1396 20.1993C11.2924 19.5406 12.7077 19.5406 13.8606 20.1993L14.3838 20.4983C15.0755 20.8936 15.9247 20.8936 16.6164 20.4983L17.0182 20.2687C18.2514 19.564 19.777 19.6165 20.9588 20.4044L22.4161 21.376C22.7608 21.6057 22.8539 22.0714 22.6241 22.416C22.3944 22.7607 21.9287 22.8538 21.5841 22.624L20.1268 21.6525C19.4177 21.1798 18.5023 21.1482 17.7624 21.5711L17.3606 21.8007C16.2077 22.4594 14.7924 22.4594 13.6396 21.8007L13.1164 21.5017Z" fill="currentColor"/>
<path d="M17.5304 2.46967C17.2375 2.17678 16.7626 2.17678 16.4697 2.46967L13.4698 5.46967C13.1769 5.76256 13.1769 6.23744 13.4698 6.53033C13.7626 6.82322 14.2375 6.82322 14.5304 6.53033L16.2501 4.81066V10C16.2501 10.4142 16.5859 10.75 17.0001 10.75C17.4143 10.75 17.7501 10.4142 17.7501 10V4.81066L19.4697 6.53033C19.7626 6.82322 20.2375 6.82322 20.5304 6.53033C20.8233 6.23744 20.8233 5.76256 20.5304 5.46967L17.5304 2.46967Z" fill="currentColor"/>
</svg>
