<svg viewBox="0 0 24 24" fill="currentColor" xmlns="http://www.w3.org/2000/svg">
<path d="M7.42593 17.2598C6.96888 17.2311 6.50682 17.3071 6.0764 17.4879L3.03346 18.766C2.66564 18.9204 2.13974 19.0463 2.02137 18.6653C2.00748 18.6206 2 18.5731 2 18.5238C2 13.7483 5.51483 9.79376 10.0987 9.10596C10.007 9.19819 9.91984 9.29534 9.83721 9.39607C9.31219 10.0361 8.90906 10.8871 8.59286 11.7833C7.97754 13.5273 7.62466 15.6398 7.42593 17.2598Z" fill="currentColor"/>
<path d="M8.89709 17.5887C9.08855 15.981 9.42889 13.9221 10.0074 12.2824C10.2978 11.4593 10.6306 10.7939 10.9969 10.3474C11.3577 9.9076 11.6879 9.75 12.0001 9.75C12.3124 9.75 12.6426 9.9076 13.0033 10.3474C13.3696 10.7939 13.7025 11.4593 13.9929 12.2824C14.5714 13.9221 14.9117 15.981 15.1032 17.5887L15.1154 17.6915L13.1617 18.5121C13.0272 18.5686 12.8896 18.6149 12.75 18.6509V24H11.25V18.6509C11.1104 18.6149 10.9728 18.5686 10.8383 18.5121L8.88483 17.6916L8.89709 17.5887Z" fill="currentColor"/>
<path d="M14.1631 9.39602C14.0805 9.29531 13.9933 9.19818 13.9017 9.10596C18.4853 9.7939 22 13.7484 22 18.5238C22 18.5731 21.9925 18.6206 21.9786 18.6653C21.8603 19.0463 21.3344 18.9204 20.9665 18.766L17.9236 17.4879C17.4933 17.3072 17.0313 17.2311 16.5743 17.2597C16.3756 15.6398 16.0227 13.5273 15.4074 11.7833C15.0912 10.8871 14.6881 10.0361 14.1631 9.39602Z" fill="currentColor"/>
<path d="M4.50236 5.09067C4.94688 5.30236 5.12706 5.81717 4.9048 6.24054L3.70496 8.52604C3.4827 8.94941 2.94216 9.12102 2.49764 8.90933C2.05312 8.69764 1.87294 8.18283 2.0952 7.75946L3.29504 5.47396C3.5173 5.05059 4.05784 4.87899 4.50236 5.09067Z" fill="currentColor"/>
<path d="M15.5024 2.09067C15.9469 2.30236 16.1271 2.81717 15.9048 3.24054L14.705 5.52604C14.4827 5.94941 13.9422 6.12102 13.4976 5.90933C13.0531 5.69764 12.8729 5.18283 13.0952 4.75946L14.295 2.47396C14.5173 2.05059 15.0578 1.87899 15.5024 2.09067Z" fill="currentColor"/>
<path d="M21.5024 4.09067C21.9469 4.30236 22.1271 4.81717 21.9048 5.24054L20.705 7.52604C20.4827 7.94941 19.9422 8.12102 19.4976 7.90933C19.0531 7.69764 18.8729 7.18283 19.0952 6.75946L20.295 4.47396C20.5173 4.05059 21.0578 3.87899 21.5024 4.09067Z" fill="currentColor"/>
<path d="M9.50236 2.09067C9.94688 2.30236 10.1271 2.81717 9.9048 3.24054L8.70496 5.52604C8.4827 5.94941 7.94216 6.12102 7.49764 5.90933C7.05312 5.69764 6.87294 5.18283 7.0952 4.75946L8.29504 2.47396C8.5173 2.05059 9.05784 1.87899 9.50236 2.09067Z" fill="currentColor"/>
</svg>
