<svg viewBox="0 0 24 24" fill="currentColor" xmlns="http://www.w3.org/2000/svg">
<path d="M18.5 12.75C18.8353 12.75 19.164 12.7787 19.4836 12.8338C19.8173 11.9529 20 10.9978 20 10C20 9.62985 19.4452 9.56867 19.2538 9.88548C18.3432 11.3925 16.6892 12.4 14.8 12.4C11.9281 12.4 9.6 10.0719 9.6 7.2C9.6 5.31077 10.6075 3.65685 12.1145 2.74621C12.4313 2.55478 12.3702 2 12 2C7.58172 2 4 5.58172 4 10C4 10.9662 4.1713 11.8925 4.48519 12.75H18.5Z" fill="currentColor"/>
<path d="M14.25 18.5C14.25 20.8472 16.1528 22.75 18.5 22.75C20.8472 22.75 22.75 20.8472 22.75 18.5C22.75 16.1528 20.8472 14.25 18.5 14.25H4C3.58579 14.25 3.25 14.5858 3.25 15C3.25 15.4142 3.58579 15.75 4 15.75H18.5C20.0188 15.75 21.25 16.9812 21.25 18.5C21.25 20.0188 20.0188 21.25 18.5 21.25C16.9812 21.25 15.75 20.0188 15.75 18.5V18C15.75 17.5858 15.4142 17.25 15 17.25C14.5858 17.25 14.25 17.5858 14.25 18V18.5Z" fill="currentColor"/>
<path d="M2.25 18C2.25 17.5858 2.58579 17.25 3 17.25H8.5C9.74264 17.25 10.75 18.2574 10.75 19.5C10.75 20.7426 9.74264 21.75 8.5 21.75H7C6.58579 21.75 6.25 21.4142 6.25 21C6.25 20.5858 6.58579 20.25 7 20.25H8.5C8.91421 20.25 9.25 19.9142 9.25 19.5C9.25 19.0858 8.91421 18.75 8.5 18.75H3C2.58579 18.75 2.25 18.4142 2.25 18Z" fill="currentColor"/>
</svg>
