<svg viewBox="0 0 24 24" fill="currentColor" xmlns="http://www.w3.org/2000/svg">
<path d="M12 1.25C12.4142 1.25 12.75 1.58579 12.75 2V4C12.75 4.41421 12.4142 4.75 12 4.75C11.5858 4.75 11.25 4.41421 11.25 4V2C11.25 1.58579 11.5858 1.25 12 1.25Z" fill="currentColor"/>
<path d="M17 12C17 14.7614 14.7614 17 12 17C9.23858 17 7 14.7614 7 12C7 9.23858 9.23858 7 12 7C14.7614 7 17 9.23858 17 12Z" fill="currentColor"/>
<path d="M12.75 20C12.75 19.5858 12.4142 19.25 12 19.25C11.5858 19.25 11.25 19.5858 11.25 20V22C11.25 22.4142 11.5858 22.75 12 22.75C12.4142 22.75 12.75 22.4142 12.75 22V20Z" fill="currentColor"/>
<path d="M1.25 12C1.25 11.5858 1.58579 11.25 2 11.25H4C4.41421 11.25 4.75 11.5858 4.75 12C4.75 12.4142 4.41421 12.75 4 12.75H2C1.58579 12.75 1.25 12.4142 1.25 12Z" fill="currentColor"/>
<path d="M20 11.25C19.5858 11.25 19.25 11.5858 19.25 12C19.25 12.4142 19.5858 12.75 20 12.75H22C22.4142 12.75 22.75 12.4142 22.75 12C22.75 11.5858 22.4142 11.25 22 11.25H20Z" fill="currentColor"/>
<path d="M4.39863 19.6014C4.10573 19.3085 4.10573 18.8336 4.39862 18.5407L5.81284 17.1265C6.10573 16.8336 6.58061 16.8336 6.8735 17.1265C7.16639 17.4194 7.16639 17.8943 6.8735 18.1872L5.45929 19.6014C5.16639 19.8943 4.69152 19.8943 4.39863 19.6014Z" fill="currentColor"/>
<path d="M17.1264 5.81284C16.8335 6.10573 16.8335 6.58061 17.1264 6.8735C17.4193 7.16639 17.8942 7.16639 18.1871 6.8735L19.6013 5.45929C19.8942 5.16639 19.8942 4.69152 19.6013 4.39863C19.3084 4.10573 18.8335 4.10573 18.5406 4.39863L17.1264 5.81284Z" fill="currentColor"/>
<path d="M19.6014 19.6014C19.8943 19.3085 19.8943 18.8336 19.6014 18.5407L18.1872 17.1265C17.8943 16.8336 17.4194 16.8336 17.1265 17.1265C16.8336 17.4194 16.8336 17.8943 17.1265 18.1872L18.5407 19.6014C18.8336 19.8943 19.3085 19.8943 19.6014 19.6014Z" fill="currentColor"/>
<path d="M6.87359 5.81284C7.16648 6.10573 7.16648 6.58061 6.87359 6.8735C6.5807 7.16639 6.10582 7.16639 5.81293 6.8735L4.39872 5.45929C4.10582 5.16639 4.10582 4.69152 4.39872 4.39863C4.69161 4.10573 5.16649 4.10573 5.45938 4.39863L6.87359 5.81284Z" fill="currentColor"/>
</svg>
