<svg viewBox="0 0 24 24" fill="currentColor" xmlns="http://www.w3.org/2000/svg">
<path d="M10 15C10 13.8954 10.8954 13 12 13C13.1046 13 14 13.8954 14 15V16H10V15Z" fill="currentColor"/>
<path d="M10 17C9.44772 17 9 17.4477 9 18C9 18.5523 9.44772 19 10 19H14C14.5523 19 15 18.5523 15 18C15 17.4477 14.5523 17 14 17H10Z" fill="currentColor"/>
<path d="M5 2C4.44772 2 4 2.44772 4 3V4C4 3.44772 3.55228 3 3 3C2.44772 3 2 3.44772 2 4V9C2 9.55228 2.44772 10 3 10C3.55228 10 4 9.55228 4 9V10C4 10.5523 4.44772 11 5 11C5.55228 11 6 10.5523 6 10V20C5.44772 20 5 20.4477 5 21V21.25H2C1.58579 21.25 1.25 21.5858 1.25 22C1.25 22.4142 1.58579 22.75 2 22.75H22C22.4142 22.75 22.75 22.4142 22.75 22C22.75 21.5858 22.4142 21.25 22 21.25H19V21C19 20.4477 18.5523 20 18 20V10C18 10.5523 18.4477 11 19 11C19.5523 11 20 10.5523 20 10V9C20 9.55228 20.4477 10 21 10C21.5523 10 22 9.55228 22 9V4C22 3.44772 21.5523 3 21 3C20.4477 3 20 3.44772 20 4V3C20 2.44772 19.5523 2 19 2C18.4477 2 18 2.44772 18 3V5.5H6V3C6 2.44772 5.55228 2 5 2ZM15 21.25H14V20H10V21.25H9V21C9 20.4477 8.55228 20 8 20V7.5H16V20C15.4477 20 15 20.4477 15 21V21.25Z" fill="currentColor"/>
</svg>
