<svg viewBox="0 0 24 24" fill="currentColor" xmlns="http://www.w3.org/2000/svg">
<path d="M4.75 4C4.75 3.30964 5.30964 2.75 6 2.75H11.25V4.12195C10.441 4.39305 9.81802 5.0919 9.6712 5.97279L8.6576 12.0544C8.35587 13.8648 9.54231 15.5329 11.25 15.9172V17H9C7.89543 17 7 17.8954 7 19C7 19.5523 7.44772 20 8 20H8.25V22C8.25 22.4142 8.58579 22.75 9 22.75C9.41421 22.75 9.75 22.4142 9.75 22V20H14.25V22C14.25 22.4142 14.5858 22.75 15 22.75C15.4142 22.75 15.75 22.4142 15.75 22V20H16C16.5523 20 17 19.5523 17 19C17 17.8954 16.1046 17 15 17H12.75V15.9172C14.4577 15.5329 15.6441 13.8648 15.3424 12.0544L14.3288 5.97279C14.182 5.0919 13.559 4.39305 12.75 4.12195V2.75H18C18.6904 2.75 19.25 3.30964 19.25 4V6C19.25 6.0479 19.2545 6.09474 19.2631 6.14014C18.5232 6.43355 18 7.15567 18 8V10C18 10.8393 18.517 11.5579 19.25 11.8546V13C19.25 13.4142 19.5858 13.75 20 13.75C20.4142 13.75 20.75 13.4142 20.75 13V11.8546C21.483 11.5579 22 10.8393 22 10V8C22 7.15567 21.4768 6.43355 20.7369 6.14014C20.7455 6.09474 20.75 6.0479 20.75 6V4C20.75 2.48122 19.5188 1.25 18 1.25H6C4.48122 1.25 3.25 2.48122 3.25 4V6C3.25 6.0479 3.25449 6.09474 3.26307 6.14014C2.5232 6.43355 2 7.15567 2 8V10C2 10.8393 2.51704 11.5579 3.25 11.8546V13C3.25 13.4142 3.58579 13.75 4 13.75C4.41421 13.75 4.75 13.4142 4.75 13V11.8546C5.48296 11.5579 6 10.8393 6 10V8C6 7.15567 5.4768 6.43355 4.73693 6.14014C4.74551 6.09474 4.75 6.0479 4.75 6V4Z" fill="currentColor"/>
</svg>
