<svg viewBox="0 0 24 24" fill="currentColor" xmlns="http://www.w3.org/2000/svg">
<path d="M3 2H21C21.5523 2 22 2.44772 22 3V21.25C22.4142 21.25 22.75 21.5858 22.75 22C22.75 22.4142 22.4142 22.75 22 22.75H2C1.58579 22.75 1.25 22.4142 1.25 22C1.25 21.5858 1.58579 21.25 2 21.25V3C2 2.44772 2.44772 2 3 2ZM15 21.25V16C15 15.4477 14.5523 15 14 15H10C9.44772 15 9 15.4477 9 16V21.25H15ZM9 4C8.44772 4 8 4.44772 8 5H7C6.44772 5 6 5.44772 6 6H5C4.44772 6 4 6.44772 4 7V9C4 9.55228 4.44772 10 5 10H6C6 10.5523 6.44772 11 7 11H8C8 11.5523 8.44772 12 9 12C9.55228 12 10 11.5523 10 11V8.75H14V11C14 11.5523 14.4477 12 15 12C15.5523 12 16 11.5523 16 11H17C17.5523 11 18 10.5523 18 10H19C19.5523 10 20 9.55228 20 9V7C20 6.44772 19.5523 6 19 6H18C18 5.44772 17.5523 5 17 5H16C16 4.44772 15.5523 4 15 4C14.4477 4 14 4.44772 14 5V7.25H10V5C10 4.44772 9.55228 4 9 4ZM5 15C4.44772 15 4 15.4477 4 16V17C4 17.5523 4.44772 18 5 18H6C6.55228 18 7 17.5523 7 17V16C7 15.4477 6.55228 15 6 15H5ZM17 16V17C17 17.5523 17.4477 18 18 18H19C19.5523 18 20 17.5523 20 17V16C20 15.4477 19.5523 15 19 15H18C17.4477 15 17 15.4477 17 16Z" fill="currentColor"/>
</svg>
