<svg viewBox="0 0 24 24" fill="currentColor" xmlns="http://www.w3.org/2000/svg">
<path d="M11.093 2.79157C12.3602 2.63318 13.3512 2.94637 14.1004 3.41805C15.1616 4.08603 15.6645 4.7681 15.9296 5.51907C16.2105 6.31451 16.25 7.24817 16.25 8.50002V12H16C15.4477 12 15 12.4477 15 13V13.5H19V13C19 12.4477 18.5523 12 18 12H17.75V8.50002C17.75 7.27037 17.722 6.09002 17.344 5.01966C16.9504 3.90484 16.2033 2.96932 14.8996 2.14863C13.8793 1.50637 12.5432 1.09863 10.907 1.30315C9.45609 1.48451 8.40372 2.15521 7.67667 3.01611C6.41382 4.51145 6.20389 6.53287 6.79334 8.2169C6.92128 8.58242 7.08832 8.9358 7.2926 9.26768C6.83272 10.2047 6.52285 11.2064 6.34596 12H6C5.44772 12 5 12.4477 5 13V13.5H9V13C9 12.4477 8.55228 12 8 12H7.88815C8.00568 11.5403 8.16785 11.0265 8.37516 10.5184C9.05666 11.0814 9.91016 11.4719 10.9151 11.5865C12.6529 11.7845 13.9004 10.4929 14.093 9.16121C14.1926 8.47201 14.0197 7.72391 13.4567 7.15413C12.8996 6.59028 12.0571 6.29736 11 6.29736C9.81616 6.29736 8.90455 6.95482 8.22944 7.77806C8.22253 7.75922 8.21576 7.74031 8.20912 7.72135C7.7704 6.46793 7.94804 5.01958 8.82267 3.98394C9.32178 3.39294 10.039 2.92332 11.093 2.79157ZM11.0849 10.0961C10.2735 10.0036 9.59842 9.65258 9.08651 9.14019C9.66088 8.27063 10.3085 7.79736 11 7.79736C11.7948 7.79736 12.1988 8.01521 12.3897 8.20838C12.5747 8.39563 12.6511 8.6508 12.6084 8.94661C12.5161 9.58495 11.9118 10.1903 11.0849 10.0961Z" fill="currentColor"/>
<path d="M6 16.7325C5.4022 16.3867 5 15.7403 5 15H9C9 15.7403 8.5978 16.3867 8 16.7325V21C8 21.5523 7.55228 22 7 22C6.44772 22 6 21.5523 6 21V16.7325Z" fill="currentColor"/>
<path d="M16 16.7325C15.4022 16.3867 15 15.7403 15 15H19C19 15.7403 18.5978 16.3867 18 16.7325V21C18 21.5523 17.5523 22 17 22C16.4477 22 16 21.5523 16 21V16.7325Z" fill="currentColor"/>
</svg>
