<svg viewBox="0 0 24 24" fill="currentColor" xmlns="http://www.w3.org/2000/svg">
<path d="M6.56877 9.31826C6.80224 9.76362 6.77073 10.3195 6.4628 10.717C5.54579 11.9008 5 13.3867 5 15C5 18.866 8.13401 22 12 22C15.866 22 19 18.866 19 15C19 13.3867 18.4542 11.9008 17.5372 10.717C17.2293 10.3195 17.1978 9.76362 17.4312 9.31826C17.7945 8.62532 18 7.83666 18 7C18 4.23858 15.7614 2 13 2H11C8.23858 2 6 4.23858 6 7C6 7.83666 6.20549 8.62532 6.56877 9.31826ZM13 4C14.6569 4 16 5.34315 16 7C16 7.10443 15.9947 7.20762 15.9842 7.30931C15.8848 8.28071 14.734 8.47989 13.7898 8.2309C13.2185 8.08025 12.6186 8 12 8C11.3814 8 10.7815 8.08025 10.2102 8.2309C9.26601 8.47989 8.11525 8.28071 8.01575 7.30931C8.00534 7.20762 8 7.10443 8 7C8 5.34315 9.34315 4 11 4H13ZM8.73543 13.1471C8.5923 13.8627 8.59508 14.9967 9.05777 16.0146C9.50096 16.9897 10.3868 17.9125 12.1471 18.2646C12.5533 18.3458 12.8167 18.7409 12.7354 19.1471C12.6542 19.5533 12.2591 19.8167 11.8529 19.7354C9.61322 19.2875 8.33236 18.0437 7.69222 16.6354C7.07158 15.2699 7.07436 13.8039 7.26456 12.8529C7.34579 12.4467 7.74091 12.1833 8.14708 12.2646C8.55325 12.3458 8.81667 12.7409 8.73543 13.1471Z" fill="currentColor"/>
</svg>
