<svg viewBox="0 0 24 24" fill="currentColor" xmlns="http://www.w3.org/2000/svg">
<path d="M12 10C12.8284 10 13.5 9.32843 13.5 8.5C13.5 7.67157 12.8284 7 12 7C11.1716 7 10.5 7.67157 10.5 8.5C10.5 9.32843 11.1716 10 12 10Z" fill="currentColor"/>
<path d="M2 3C2 2.44772 2.44772 2 3 2H5C5.55228 2 6 2.44772 6 3V4.25H18V3C18 2.44772 18.4477 2 19 2H21C21.5523 2 22 2.44772 22 3V7C22 7.55228 21.5523 8 21 8H19C18.4477 8 18 7.55228 18 7V5.75H17.25V7C17.25 8.76197 16.6859 10.477 15.6413 11.8944L15.3043 12.5685C14.9398 13.2975 14.75 14.1014 14.75 14.9164V16.2923L15.1663 16.986C15.8601 18.1425 16.3302 19.4192 16.5519 20.7496L16.7398 21.8767C16.8079 22.2853 16.5319 22.6717 16.1233 22.7398C15.7147 22.8079 15.3283 22.5319 15.2602 22.1233L15.0723 20.9962C14.8816 19.8515 14.4771 18.7529 13.88 17.7578L13.5754 17.25H10.4246L10.12 17.7578C9.52292 18.7529 9.11844 19.8515 8.92765 20.9962L8.7398 22.1233C8.6717 22.5319 8.28528 22.8079 7.8767 22.7398C7.46812 22.6717 7.19211 22.2853 7.2602 21.8767L7.44806 20.7496C7.66978 19.4192 8.13986 18.1425 8.83375 16.986L9.25 16.2923V14.9164C9.25 14.1014 9.06024 13.2975 8.69574 12.5685L8.3587 11.8944C7.31409 10.477 6.75 8.76197 6.75 7V5.75H6V7C6 7.55228 5.55228 8 5 8H3C2.44772 8 2 7.55228 2 7V3ZM8.25 7C8.25 8.33768 8.64738 9.64231 9.38751 10.75H14.6125C15.3526 9.64231 15.75 8.33768 15.75 7V5.75H8.25V7Z" fill="currentColor"/>
</svg>
