<svg viewBox="0 0 24 24" fill="currentColor" xmlns="http://www.w3.org/2000/svg">
<path d="M6.12696 3.49445C5.76294 2.8278 6.22511 2 6.96132 2H9.53053C9.87567 2 10.1942 2.19303 10.3649 2.50555L12 5.5L13.6351 2.50555C13.8058 2.19303 14.1243 2 14.4695 2H17.0387C17.7749 2 18.2371 2.8278 17.873 3.49445L15.1428 8.49445C14.9721 8.80697 14.6536 9 14.3084 9H13.7324C13.9026 9.29417 14 9.63571 14 10C14 10.113 13.9906 10.2239 13.9726 10.3318C16.3173 11.1477 18 13.3773 18 16C18 19.3137 15.3137 22 12 22C8.68629 22 6 19.3137 6 16C6 13.3773 7.68271 11.1477 10.0274 10.3318C10.0094 10.2239 10 10.113 10 10C10 9.63571 10.0974 9.29417 10.2676 9H9.69156C9.34642 9 9.02785 8.80697 8.8572 8.49445L6.12696 3.49445ZM12.5 10C12.5 9.72386 12.2761 9.5 12 9.5C11.7239 9.5 11.5 9.72386 11.5 10C11.5 10.0069 11.5001 10.0137 11.5004 10.0205C11.6651 10.0069 11.8318 10 12 10C12.1682 10 12.3349 10.0069 12.4996 10.0205C12.4999 10.0137 12.5 10.0069 12.5 10ZM12.0003 11.5C11.8712 11.4999 11.742 11.5725 11.681 11.718L10.7932 13.8317C10.7426 13.9521 10.634 14.0347 10.5089 14.0478L8.31415 14.2785C8.01236 14.3102 7.89063 14.7023 8.11697 14.9137L9.76308 16.4507C9.85686 16.5382 9.89835 16.6719 9.87165 16.8004L9.40298 19.0567C9.33854 19.3669 9.65723 19.6093 9.91919 19.4492L11.8243 18.2855C11.9329 18.2192 12.0671 18.2192 12.1757 18.2855L14.0808 19.4492C14.3428 19.6093 14.6615 19.3669 14.597 19.0567L14.1284 16.8004C14.1017 16.6719 14.1431 16.5382 14.2369 16.4507L15.883 14.9137C16.1094 14.7023 15.9876 14.3102 15.6859 14.2785L13.4911 14.0478C13.366 14.0347 13.2574 13.9521 13.2068 13.8317L12.319 11.718C12.258 11.5728 12.1292 11.5001 12.0003 11.5Z" fill="currentColor"/>
</svg>
