<svg viewBox="0 0 24 24" fill="currentColor" xmlns="http://www.w3.org/2000/svg">
<path d="M6 2C4.89543 2 4 2.89543 4 4V20C4 21.1046 4.89543 22 6 22H18C19.1046 22 20 21.1046 20 20V4C20 2.89543 19.1046 2 18 2H6ZM8.58283 12.2132C7.80572 11.4781 7.80572 10.2864 8.58283 9.5513C9.35993 8.81623 10.6199 8.81623 11.397 9.5513L12 10.1217L12.603 9.5513C13.3801 8.81623 14.6401 8.81623 15.4172 9.5513C16.1943 10.2864 16.1943 11.4781 15.4172 12.2132L12.804 14.685C12.36 15.105 11.64 15.105 11.196 14.685L8.58283 12.2132ZM9.25 5C9.25 4.58579 9.58579 4.25 10 4.25H14C14.4142 4.25 14.75 4.58579 14.75 5C14.75 5.41421 14.4142 5.75 14 5.75H10C9.58579 5.75 9.25 5.41421 9.25 5ZM12 20C11.1716 20 10.5 19.3284 10.5 18.5C10.5 17.6716 11.1716 17 12 17C12.8284 17 13.5 17.6716 13.5 18.5C13.5 19.3284 12.8284 20 12 20Z" fill="currentColor"/>
</svg>
