<svg viewBox="0 0 24 24" fill="currentColor" xmlns="http://www.w3.org/2000/svg">
<path d="M4.4184 5.47906C2.91114 7.22987 2 9.50853 2 12C2 17.5228 6.47715 22 12 22C14.4915 22 16.7701 21.0889 18.5209 19.5816L11.9393 13H4.5C4.22386 13 4 12.7761 4 12.5V11.5C4 11.2239 4.22386 11 4.5 11H9.93934L4.4184 5.47906Z" fill="currentColor"/>
<path d="M19.5815 18.5209L14.0606 13H15.4999C15.776 13 15.9999 12.7761 15.9999 12.5V11.5C15.9999 11.2239 15.776 11 15.4999 11H12.0606L5.479 4.4184C7.22981 2.91114 9.50847 2 11.9999 2C17.5227 2 21.9999 6.47715 21.9999 12C21.9999 14.4915 21.0888 16.7701 19.5815 18.5209ZM18.0302 5.46967C17.7373 5.17678 17.2625 5.17678 16.9696 5.46967C16.6767 5.76256 16.6767 6.23744 16.9696 6.53033L17.679 7.23976C17.6882 7.24898 17.6915 7.25614 17.6932 7.26172C17.6953 7.26861 17.6963 7.27779 17.6946 7.28818C17.6929 7.29857 17.6891 7.30698 17.6849 7.31284C17.6815 7.31759 17.6762 7.32335 17.6645 7.32918C16.7147 7.8041 16.5092 9.06999 17.2601 9.8209L17.9696 10.5303C18.0268 10.5875 18.0802 10.6929 18.0757 10.7902C18.0731 10.846 18.0459 11.0679 17.5839 11.376C17.2392 11.6057 17.1461 12.0714 17.3759 12.416C17.6056 12.7607 18.0713 12.8538 18.4159 12.624C19.1539 12.1321 19.5434 11.5207 19.5741 10.8598C19.6029 10.2404 19.3063 9.74579 19.0302 9.46967L18.3208 8.76024C18.3116 8.75102 18.3083 8.74386 18.3066 8.73828C18.3045 8.73139 18.3035 8.72221 18.3052 8.71181C18.3069 8.70143 18.3107 8.69302 18.3149 8.68715C18.3183 8.68241 18.3236 8.67665 18.3353 8.67082C19.2851 8.1959 19.4906 6.93001 18.7397 6.1791L18.0302 5.46967Z" fill="currentColor"/>
</svg>
