<svg viewBox="0 0 24 24" fill="currentColor" xmlns="http://www.w3.org/2000/svg">
<path d="M11 2.25H8.66146C8.48518 2.09441 8.25362 2 8.00001 2H6.00001C5.7464 2 5.51483 2.09441 5.33855 2.25H3.00001C2.7117 2.25 2.44892 2.41526 2.32403 2.67511C2.19914 2.93496 2.23425 3.24339 2.41436 3.46852L6.25001 8.26309V17C6.25001 20.1756 8.82437 22.75 12 22.75C15.1756 22.75 17.75 20.1756 17.75 17V8.26309L21.5857 3.46852C21.7658 3.24339 21.8009 2.93496 21.676 2.67511C21.5511 2.41526 21.2883 2.25 21 2.25H18.6615C18.4852 2.09441 18.2536 2 18 2H16C15.7464 2 15.5148 2.09441 15.3386 2.25H13C12.7117 2.25 12.4489 2.41526 12.324 2.67511C12.1991 2.93496 12.2343 3.24339 12.4144 3.46852L16.25 8.26309V13.127C15.1984 11.9737 13.6837 11.25 12 11.25C10.3163 11.25 8.8016 11.9737 7.75001 13.127V8.26309L11.5857 3.46852C11.7658 3.24339 11.8009 2.93496 11.676 2.67511C11.5511 2.41526 11.2883 2.25 11 2.25ZM4.56048 3.75H5.33855C5.51483 3.90559 5.7464 4 6.00001 4H8.00001C8.25362 4 8.48518 3.90559 8.66146 3.75H9.43954L7.00001 6.79941L4.56048 3.75ZM15.3386 3.75C15.5148 3.90559 15.7464 4 16 4H18C18.2536 4 18.4852 3.90559 18.6615 3.75H19.4395L17 6.79941L14.5605 3.75H15.3386ZM16.25 17C16.25 19.3472 14.3472 21.25 12 21.25C9.6528 21.25 7.75001 19.3472 7.75001 17C7.75001 14.6528 9.6528 12.75 12 12.75C14.3472 12.75 16.25 14.6528 16.25 17Z" fill="currentColor"/>
</svg>
