<svg viewBox="0 0 24 24" fill="currentColor" xmlns="http://www.w3.org/2000/svg">
<path d="M5 2C3.34315 2 2 3.34315 2 5V19C2 20.6569 3.34315 22 5 22H19C20.6569 22 22 20.6569 22 19V5C22 3.34315 20.6569 2 19 2H5ZM7 5H17C17.5523 5 18 5.44772 18 6V11C18 11.5523 17.5523 12 17 12H7C6.44771 12 6 11.5523 6 11V6C6 5.44772 6.44772 5 7 5Z" fill="currentColor"/>
<path d="M8.12022 10.99C8.51124 10.99 8.73708 10.7589 8.73708 10.3503V9.5499L9.18876 9.08105L10.4494 10.645C10.6483 10.8962 10.827 10.9933 11.0865 10.9933C11.4236 10.9933 11.6798 10.7354 11.6798 10.4005C11.6798 10.2297 11.5955 10.0455 11.3933 9.79772L10.1494 8.28399L11.3124 7.06497C11.4775 6.88748 11.5416 6.75352 11.5416 6.57267C11.5416 6.25787 11.282 6.0067 10.9584 6.0067C10.7494 6.0067 10.5944 6.08707 10.4191 6.28131L8.76404 8.10315H8.73708V6.6497C8.73708 6.24113 8.51124 6.01005 8.12022 6.01005C7.72921 6.01005 7.5 6.24113 7.5 6.6497V10.3503C7.5 10.7589 7.72921 10.99 8.12022 10.99Z" fill="currentColor"/>
<path d="M14.2921 11C15.7079 11 16.5 10.1427 16.5 8.95378V8.92029C16.5 8.51172 16.2742 8.28064 15.8831 8.28064H14.8247C14.5382 8.28064 14.3528 8.43135 14.3528 8.70261C14.3528 8.97388 14.5416 9.12458 14.8247 9.12458H15.3067L15.3034 9.19826C15.2697 9.68386 14.8787 10.0121 14.3191 10.0121C13.6079 10.0121 13.1494 9.43269 13.1494 8.47488C13.1494 7.53382 13.564 6.98794 14.2652 6.98794C14.673 6.98794 14.9629 7.15204 15.1955 7.51708C15.3472 7.73811 15.5326 7.83523 15.782 7.83523C16.0989 7.83523 16.3146 7.62425 16.3146 7.31279C16.3146 7.20228 16.291 7.09846 16.227 6.97455C15.9472 6.42532 15.2157 6 14.2618 6C12.7921 6 11.8888 6.92431 11.8888 8.49163C11.8888 10.079 12.7921 11 14.2921 11Z" fill="currentColor"/>
</svg>
