<svg viewBox="0 0 24 24" fill="currentColor" xmlns="http://www.w3.org/2000/svg">
<path d="M16.1216 3.53488C15.6118 3.53488 15.1286 3.6488 14.6963 3.85248C14.5255 3.71901 14.3432 3.59593 14.1498 3.48467L13.2604 2.97304L13.2222 2.95128C14.0327 2.35349 15.0358 2 16.1216 2C18.8159 2 21 4.1761 21 6.86047V21.2326C21 21.6564 20.6551 22 20.2297 22C19.8043 22 19.4595 21.6564 19.4595 21.2326V6.86047C19.4595 5.0238 17.9651 3.53488 16.1216 3.53488Z" fill="currentColor"/>
<path d="M7.76788 6.31237C7.27666 6.02981 6.64854 6.1975 6.36494 6.68691C6.08133 7.17633 6.24964 7.80214 6.74085 8.0847L12.9668 11.6661C13.4581 11.9487 14.0862 11.781 14.3698 11.2916C14.6534 10.8021 14.4851 10.1763 13.9939 9.89377L7.76788 6.31237Z" fill="currentColor"/>
<path d="M8.57483 5.00429L14.7271 8.54327C15.2441 7.1641 14.7018 5.5746 13.3796 4.81404L12.4901 4.30241C11.168 3.54185 9.51513 3.86863 8.57483 5.00429Z" fill="currentColor"/>
<path d="M9.49391 12.0312C9.70661 11.6641 9.58038 11.1948 9.21197 10.9829C8.84356 10.7709 8.37247 10.8967 8.15977 11.2638L7.51788 12.3715C7.30517 12.7385 7.4314 13.2079 7.79982 13.4198C8.16823 13.6317 8.63932 13.506 8.85202 13.1389L9.49391 12.0312Z" fill="currentColor"/>
<path d="M7.56824 15.3543C7.78094 14.9873 7.65472 14.5179 7.2863 14.306C6.91789 14.0941 6.4468 14.2198 6.2341 14.5869L5.59221 15.6946C5.37951 16.0617 5.50574 16.531 5.87415 16.7429C6.24256 16.9549 6.71365 16.8291 6.92635 16.462L7.56824 15.3543Z" fill="currentColor"/>
<path d="M7.24601 9.94556C7.4804 10.2993 7.38262 10.7753 7.02762 11.0089L6.06939 11.6392C5.71439 11.8727 5.23658 11.7753 5.00219 11.4216C4.76779 11.0679 4.86557 10.5919 5.22058 10.3583L6.1788 9.72797C6.53381 9.49444 7.01161 9.59186 7.24601 9.94556Z" fill="currentColor"/>
<path d="M4.37137 11.8366C4.60577 12.1903 4.50799 12.6664 4.15298 12.8999L3.19476 13.5303C2.83975 13.7638 2.36195 13.6664 2.12755 13.3127C1.89316 12.959 1.99094 12.4829 2.34594 12.2494L3.30417 11.619C3.65917 11.3855 4.13698 11.4829 4.37137 11.8366Z" fill="currentColor"/>
<path d="M10.2815 12.8806C10.3069 12.4575 10.6719 12.1351 11.0965 12.1605C11.5211 12.1859 11.8447 12.5495 11.8192 12.9725L11.7504 14.1145C11.7249 14.5376 11.36 14.86 10.9354 14.8346C10.5108 14.8092 10.1872 14.4456 10.2127 14.0226L10.2815 12.8806Z" fill="currentColor"/>
<path d="M10.0751 16.3065C10.1006 15.8834 10.4655 15.561 10.8901 15.5864C11.3147 15.6118 11.6383 15.9754 11.6128 16.3985L11.544 17.5405C11.5185 17.9635 11.1536 18.2859 10.729 18.2605C10.3044 18.2351 9.98077 17.8716 10.0063 17.4485L10.0751 16.3065Z" fill="currentColor"/>
</svg>
