<svg viewBox="0 0 24 24" fill="currentColor" xmlns="http://www.w3.org/2000/svg">
<path d="M9.98327 2C9.14645 2 8.3981 2.52098 8.10762 3.30577L7.65955 4.51635C7.77158 4.50553 7.88515 4.5 8.00002 4.5H16C16.1149 4.5 16.2284 4.50553 16.3405 4.51635L15.8924 3.30577C15.6019 2.52098 14.8536 2 14.0167 2H9.98327Z" fill="currentColor"/>
<path d="M7.65955 19.4837C7.77158 19.4945 7.88515 19.5 8.00002 19.5H16C16.1149 19.5 16.2284 19.4945 16.3405 19.4837L15.8924 20.6942C15.6019 21.479 14.8536 22 14.0167 22H9.98327C9.14645 22 8.3981 21.479 8.10762 20.6942L7.65955 19.4837Z" fill="currentColor"/>
<path d="M8 6C6.89543 6 6 6.89543 6 8V16C6 17.1046 6.89543 18 8 18H16C17.1046 18 18 17.1046 18 16V8C18 6.89543 17.1046 6 16 6H8ZM8 11.4568C8 9.03402 10.2001 8.12947 12 10.001C13.7999 8.12947 16 9.03402 16 11.4568C16 12.9071 14.3922 14.4409 13.2153 15.3695C12.6825 15.7898 12.4161 16 12 16C11.5839 16 11.3175 15.7898 10.7847 15.3695C9.60777 14.4409 8 12.9071 8 11.4568Z" fill="currentColor"/>
</svg>
