<svg viewBox="0 0 24 24" fill="currentColor" xmlns="http://www.w3.org/2000/svg">
<path d="M9.58464 16.4579C9.32651 16.9 8.9608 17.2701 8.52398 17.5314L6.46967 15.4523C6.17678 15.1559 6.17678 14.6753 6.46967 14.3789C6.76256 14.0825 7.23744 14.0825 7.53033 14.3789L9.58464 16.4579Z" fill="currentColor"/>
<path d="M19.75 2.75904C19.75 2.33983 19.4142 2 19 2C18.5858 2 18.25 2.33983 18.25 2.75904V5.21459L14.8181 6.0829C14.4163 6.18458 14.1719 6.59668 14.2724 7.00337C14.3729 7.41006 14.7801 7.65732 15.1819 7.55565L17.2741 7.02629L16.3195 12.1789L8.59043 9.83222C7.95082 9.63802 7.31041 9.57603 6.69376 9.62774L6 6.81928H6.91724C7.51523 6.81928 8 6.32867 8 5.72347C8 5.1878 7.61734 4.73063 7.09524 4.64257L3.60205 4.05336C2.76342 3.9119 2 4.5664 2 5.42684C2 6.19586 2.61599 6.81928 3.37586 6.81928H4L4.82569 10.1618C3.1777 11.0014 2 12.7233 2 14.7948C2 17.6562 4.29203 19.9758 7.11939 19.9758H18.5597C20.4597 19.9758 22 18.417 22 16.4941C22 14.9565 21.0035 13.601 19.5483 13.1592L19 12.9927V6.58963L19.1819 6.5436C19.5158 6.45913 19.75 6.15553 19.75 5.80723V2.75904ZM9.58464 16.4579L10.3107 17.1927H13C13.4142 17.1927 13.75 17.5325 13.75 17.9517C13.75 18.371 13.4142 18.7108 13 18.7108H10C9.80109 18.7108 9.61032 18.6308 9.46967 18.4885L8.52398 17.5314C8.07734 17.7985 7.55636 17.9517 7 17.9517C5.34315 17.9517 4 16.5924 4 14.9156C4 13.2388 5.34315 11.8795 7 11.8795C8.65685 11.8795 10 13.2388 10 14.9156C10 15.4787 9.84855 16.0059 9.58464 16.4579ZM19 16.4337C19 17.2721 18.3284 17.9517 17.5 17.9517C16.6716 17.9517 16 17.2721 16 16.4337C16 15.5953 16.6716 14.9156 17.5 14.9156C18.3284 14.9156 19 15.5953 19 16.4337Z" fill="currentColor"/>
<path d="M3 19.9759C2.44772 19.9759 2 20.429 2 20.988C2 21.5469 2.44772 22 3 22H21C21.5523 22 22 21.5469 22 20.988C22 20.429 21.5523 19.9759 21 19.9759H3Z" fill="currentColor"/>
</svg>
