<svg viewBox="0 0 24 24" fill="currentColor" xmlns="http://www.w3.org/2000/svg">
<path d="M3.71837 2.78444L4.45802 5.24995H8C8.41421 5.24995 8.75 5.58574 8.75 5.99995C8.75 6.41417 8.41421 6.74995 8 6.74995H4.90802L6.4742 11.9706L15.9535 9.16188C16.0514 9.13287 16.1503 9.10771 16.25 9.08645V5.56151C16.25 4.29962 17.1088 3.19967 18.333 2.89361L20.8181 2.27235C21.2199 2.17188 21.6271 2.41621 21.7276 2.81805C21.8281 3.2199 21.5837 3.6271 21.1819 3.72756L18.6968 4.34883C18.1404 4.48794 17.75 4.98792 17.75 5.56151V9.05857C19.5964 9.38065 21 10.9914 21 12.93V13.5C21 15.5515 19.6271 17.2824 17.75 17.8241V20.25H22C22.4142 20.25 22.75 20.5857 22.75 21C22.75 21.4142 22.4142 21.75 22 21.75H2C1.58579 21.75 1.25 21.4142 1.25 21C1.25 20.5857 1.58579 20.25 2 20.25H6.25V18H5.86258C4.28162 18 3 16.7183 3 15.1374C3 13.8743 3.82775 12.7611 5.03601 12.3967L2.28163 3.21546C2.16261 2.81872 2.38774 2.40061 2.78449 2.28158C3.18123 2.16256 3.59935 2.3877 3.71837 2.78444ZM7.75 20.25H16.25V18H7.75V20.25ZM18.2633 13.7022C18.6512 13.5568 18.8477 13.1245 18.7022 12.7367C18.5568 12.3488 18.1245 12.1523 17.7367 12.2978L14.2939 13.5888L13.624 12.584C13.3943 12.2393 12.9286 12.1462 12.584 12.376C12.2393 12.6057 12.1462 13.0714 12.376 13.416L13.3676 14.9034C13.3732 14.9123 13.3791 14.9211 13.3851 14.9297L14.376 16.416C14.6057 16.7607 15.0714 16.8538 15.416 16.624C15.7607 16.3943 15.8538 15.9286 15.624 15.584L15.1483 14.8704L18.2633 13.7022Z" fill="currentColor"/>
</svg>
