<svg viewBox="0 0 24 24" fill="currentColor" xmlns="http://www.w3.org/2000/svg">
<path d="M9.24996 5C9.24996 2.92893 10.9289 1.25 13 1.25H15C15.4142 1.25 15.75 1.58579 15.75 2C15.75 2.41421 15.4142 2.75 15 2.75H13C11.7573 2.75 10.75 3.75736 10.75 5V5.25H16.25V5C16.25 2.92893 17.9289 1.25 20 1.25H22C22.4142 1.25 22.75 1.58579 22.75 2C22.75 2.41421 22.4142 2.75 22 2.75H20C18.7573 2.75 17.75 3.75736 17.75 5V15.9484C18.8199 15.6107 20.0019 15.7666 20.9587 16.4044L22.416 17.376C22.7607 17.6057 22.8538 18.0714 22.624 18.416C22.3943 18.7607 21.9286 18.8538 21.584 18.624L20.1267 17.6525C19.4176 17.1798 18.5022 17.1482 17.7623 17.5711L17.3605 17.8007C16.2076 18.4594 14.7923 18.4594 13.6395 17.8007L13.1163 17.5017C12.4246 17.1064 11.5754 17.1064 10.8837 17.5017L10.3605 17.8007C9.20761 18.4594 7.79231 18.4594 6.63944 17.8007L6.23767 17.5711C5.49772 17.1482 4.58238 17.1798 3.87328 17.6525L2.41598 18.624C2.07134 18.8538 1.60568 18.7607 1.37592 18.416C1.14616 18.0714 1.23929 17.6057 1.58393 17.376L3.04123 16.4044C4.22307 15.6165 5.74863 15.564 6.98187 16.2687L7.38365 16.4983C7.95733 16.8261 8.63931 16.8821 9.24996 16.6661V5ZM10.75 14.75V15.9196C11.7677 15.5597 12.9044 15.653 13.8605 16.1993L14.3837 16.4983C14.9574 16.8261 15.6393 16.8821 16.25 16.6661V14.75H10.75ZM16.25 13.25V10.75H10.75V13.25H16.25ZM10.75 9.25H16.25V6.75H10.75V9.25Z" fill="currentColor"/>
<path d="M10.8837 21.5017C11.5754 21.1064 12.4246 21.1064 13.1163 21.5017L13.6395 21.8007C14.7923 22.4594 16.2076 22.4594 17.3605 21.8007L17.7623 21.5711C18.5022 21.1482 19.4176 21.1798 20.1267 21.6525L21.584 22.624C21.9286 22.8538 22.3943 22.7607 22.624 22.416C22.8538 22.0714 22.7607 21.6057 22.416 21.376L20.9587 20.4044C19.7769 19.6165 18.2513 19.564 17.0181 20.2687L16.6163 20.4983C15.9246 20.8936 15.0754 20.8936 14.3837 20.4983L13.8605 20.1993C12.7076 19.5406 11.2923 19.5406 10.1395 20.1993L9.61627 20.4983C8.92455 20.8936 8.07537 20.8936 7.38365 20.4983L6.98187 20.2687C5.74863 19.564 4.22307 19.6165 3.04123 20.4044L1.58393 21.376C1.23929 21.6057 1.14616 22.0714 1.37592 22.416C1.60568 22.7607 2.07134 22.8538 2.41598 22.624L3.87328 21.6525C4.58238 21.1798 5.49772 21.1482 6.23767 21.5711L6.63944 21.8007C7.79231 22.4594 9.20761 22.4594 10.3605 21.8007L10.8837 21.5017Z" fill="currentColor"/>
</svg>
