<svg viewBox="0 0 24 24" fill="currentColor" xmlns="http://www.w3.org/2000/svg">
<path d="M19.8168 11.5802C19.9282 11.8611 20 12.157 20 12.4593V17.25H4V12.4593C4 12.157 4.07179 11.8611 4.1832 11.5802C4.95329 9.63794 5.60017 5.75641 5.66185 2.49938C5.66708 2.22329 5.89052 2 6.16667 2H7.83333C8.10948 2 8.33247 2.22314 8.36049 2.49786C8.3908 2.79507 8.44607 3.11851 8.52423 3.45478C10.5965 4.95952 13.4035 4.95952 15.4758 3.45478C15.5539 3.11851 15.6092 2.79507 15.6395 2.49786C15.6675 2.22314 15.8905 2 16.1667 2H17.8333C18.1095 2 18.3329 2.22329 18.3381 2.49938C18.3998 5.75641 19.0467 9.63794 19.8168 11.5802ZM14.727 5.56446C12.9772 6.25629 11.0228 6.25629 9.27301 5.56446C9.92715 6.89955 10.881 8 12 8C13.119 8 14.0728 6.89955 14.727 5.56446Z" fill="currentColor"/>
<path d="M4 21V18.75H20V21C20 21.5523 19.5523 22 19 22H5C4.44772 22 4 21.5523 4 21Z" fill="currentColor"/>
</svg>
