<svg viewBox="0 0 24 24" fill="currentColor" xmlns="http://www.w3.org/2000/svg">
<path d="M2.58489 16.3558C1.73258 15.4864 1.96607 14.3643 2.31977 13.6463H4.1361C4.91874 13.6463 5.69063 13.8259 6.39065 14.1708C6.97401 14.4583 7.5977 14.6582 8.24104 14.7639L12.7496 15.5046C13.3478 15.6028 13.9614 15.473 14.466 15.1415C14.7783 14.9362 15.188 14.9475 15.4883 15.1694L15.9231 15.4909C16.4517 15.8816 17.1841 16.1674 17.974 15.9892C18.7722 15.8091 19.7849 15.4261 20.7365 14.8247C21.1725 14.5491 21.6047 14.2219 22 13.8397C21.8031 15.2075 20.7149 16.8422 16.2675 16.8061C12.5839 16.7762 10.6163 16.5398 9.56165 16.4132C8.96944 16.342 8.66507 16.3055 8.50635 16.3594C7.0351 16.9598 3.6442 17.4364 2.58489 16.3558Z" fill="currentColor"/>
<path d="M18.0331 10.9528C19.9555 10.9528 21.033 11.5089 21.5716 12.0534C21.152 12.6626 20.5693 13.1723 19.926 13.5789C19.1261 14.0844 18.2754 14.403 17.639 14.5465C17.4148 14.5971 17.1277 14.5315 16.824 14.3069L16.3892 13.9855C15.5796 13.387 14.4751 13.3568 13.6331 13.9101C13.446 14.0331 13.2183 14.0812 12.9965 14.0448L8.48785 13.3041C7.99215 13.2227 7.51158 13.0687 7.06209 12.8472C6.15359 12.3994 5.15181 12.1663 4.13607 12.1663H2.87732C3.18861 10.8437 3.16907 9.88905 3.08308 9.39226L3.08114 9.38102C3.05374 9.22284 3.02625 9.06415 3.02625 8.90355C3.02625 8.24512 3.43927 7.66057 4.05159 7.45236C4.19035 7.40517 4.34541 7.44303 4.45079 7.54375C7.15467 10.1282 9.07427 8.82325 9.64689 7.80101L9.47975 7.63051C9.30416 7.45139 9.20551 7.20845 9.20551 6.95513V6.91646C9.20551 6.41032 9.60774 6 10.1039 6C10.3734 6 10.6275 6.12426 10.8044 6.33155C11.1091 6.68854 11.4842 7.0959 11.911 7.51746L10.9784 8.43661C10.6853 8.72558 10.6853 9.1941 10.9784 9.48307C11.2716 9.77205 11.747 9.77205 12.0401 9.48307L13.0109 8.5262C13.0786 8.58364 13.147 8.64081 13.2161 8.69762L12.4799 9.42322C12.1867 9.7122 12.1867 10.1807 12.4799 10.4697C12.7731 10.7587 13.2484 10.7587 13.5416 10.4697L14.4241 9.59986C14.4997 9.65042 14.5757 9.70009 14.6521 9.74878L13.9814 10.4098C13.6882 10.6988 13.6882 11.1673 13.9814 11.4563C14.2745 11.7453 14.7499 11.7453 15.0431 11.4563L16.0264 10.4871C16.7025 10.7773 17.3819 10.9528 18.0331 10.9528Z" fill="currentColor"/>
</svg>
