<svg viewBox="0 0 24 24" fill="currentColor" xmlns="http://www.w3.org/2000/svg">
<path d="M22 10.0784C22 10.3952 21.9114 10.7036 21.7438 10.9996C21.7479 11.0319 21.75 11.0647 21.75 11.098V17.2157C21.75 17.525 21.5673 17.8038 21.287 17.9222C21.0068 18.0405 20.6842 17.9751 20.4697 17.7564L16.5103 13.7194C16.2626 13.7706 16.009 13.8176 15.75 13.8604V18.2353C15.75 18.6576 15.4142 19 15 19H9C8.58579 19 8.25 18.6576 8.25 18.2353V13.8604C7.99099 13.8176 7.73736 13.7706 7.48967 13.7194L3.53033 17.7564C3.31583 17.9751 2.99324 18.0405 2.71299 17.9222C2.43273 17.8038 2.25 17.525 2.25 17.2157V11.098C2.25 11.0647 2.25209 11.0319 2.25615 10.9996C2.08857 10.7036 2 10.3952 2 10.0784C2 7.82598 6.47715 6 12 6C17.5228 6 22 7.82598 22 10.0784ZM18.1994 13.2788L20.25 15.3695V12.384C19.68 12.7226 18.9878 13.0244 18.1994 13.2788ZM3.75 12.384V15.3695L5.80055 13.2788C5.0122 13.0244 4.32005 12.7226 3.75 12.384ZM12 14.1569C11.2263 14.1569 10.4732 14.121 9.75 14.0532V17.4706H14.25V14.0532C13.5268 14.121 12.7737 14.1569 12 14.1569ZM12 12.1176C15.866 12.1176 19 10.9764 19 9.56863C19 8.16084 15.866 7.01961 12 7.01961C8.13401 7.01961 5 8.16084 5 9.56863C5 10.9764 8.13401 12.1176 12 12.1176Z" fill="currentColor"/>
</svg>
