<svg viewBox="0 0 24 24" fill="currentColor" xmlns="http://www.w3.org/2000/svg">
<path d="M19.2717 5.7953H4.72826L2.01992 19.2711C1.91345 19.8009 2.24386 20.3205 2.77053 20.4515L8.87195 21.9694C9.45703 22.115 10.0418 21.7251 10.141 21.1331C10.4749 19.1401 11.2374 15.157 12 15.157C12.7626 15.157 13.5252 19.1401 13.859 21.1331C13.9582 21.7251 14.543 22.115 15.128 21.9694L21.2295 20.4515C21.7561 20.3205 22.0865 19.8009 21.9801 19.2711L19.2717 5.7953Z" fill="currentColor"/>
<path d="M19.1192 3.01208V4.27718H4.88086V3.01208C4.88086 2.45312 5.3362 2 5.89789 2H18.1022C18.6638 2 19.1192 2.45312 19.1192 3.01208Z" fill="currentColor"/>
</svg>
