<svg viewBox="0 0 24 24" fill="currentColor" xmlns="http://www.w3.org/2000/svg">
<path d="M18.0936 20.9918C18.0936 21.5486 17.6389 22 17.078 22H13.7808C13.3219 22 12.9219 21.6877 12.8106 21.2425L12.194 18.7761C12.1435 18.5741 11.8565 18.5741 11.806 18.7761L11.1894 21.2425C11.0781 21.6877 10.6781 22 10.2192 22H6.92197C6.36107 22 5.90637 21.5486 5.90637 20.9918V14.7442C5.93703 14.748 5.96827 14.75 5.99996 14.75H18C18.0317 14.75 18.0629 14.748 18.0936 14.7442V20.9918Z" fill="currentColor"/>
<path d="M5.90641 7.90201V13.2558C5.93707 13.252 5.96831 13.25 6 13.25H18C18.0317 13.25 18.0629 13.252 18.0936 13.2558V7.90201L20.049 8.54904C20.6285 8.7408 21.2462 8.38496 21.366 7.79032L21.9801 4.74208C22.0806 4.2435 21.7913 3.7487 21.3054 3.58793L16.8815 2.12421C16.3515 1.94888 15.777 1.95944 15.254 2.15414C13.156 2.93514 10.844 2.93514 8.746 2.15414C8.22298 1.95944 7.64847 1.94888 7.11854 2.12421L2.6946 3.58793C2.20868 3.7487 1.9194 4.2435 2.01985 4.74208L2.634 7.79032C2.7538 8.38496 3.3715 8.7408 3.95103 8.54904L5.90641 7.90201ZM10.1941 10.8403C10.0949 10.7283 10.0453 10.5714 10.0453 10.3697C10.0453 10.1681 10.0949 10.014 10.1941 9.90756C10.2985 9.80112 10.4473 9.7479 10.6405 9.7479H11.3453V6.74419L10.8676 7.05882C10.7318 7.14846 10.6039 7.18487 10.4838 7.16807C10.3638 7.14566 10.262 7.08964 10.1784 7C10.0949 6.91036 10.0401 6.80112 10.014 6.67227C9.98788 6.54342 9.99832 6.41457 10.0453 6.28571C10.0923 6.15686 10.1863 6.04762 10.3272 5.95798L11.4079 5.23529C11.5228 5.15686 11.6402 5.09804 11.7603 5.05882C11.8856 5.01961 12.0161 5 12.1519 5C12.3503 5 12.5043 5.05602 12.6139 5.16807C12.7235 5.27451 12.7784 5.43137 12.7784 5.63866V9.7479H13.4048C13.598 9.7479 13.7442 9.80112 13.8434 9.90756C13.9478 10.014 14 10.1681 14 10.3697C14 10.5714 13.9478 10.7283 13.8434 10.8403C13.7442 10.9468 13.598 11 13.4048 11H10.6405C10.4473 11 10.2985 10.9468 10.1941 10.8403Z" fill="currentColor"/>
</svg>
