<svg viewBox="0 0 24 24" fill="currentColor" xmlns="http://www.w3.org/2000/svg">
<path d="M13.5607 1.93934C12.9749 1.35355 12.0251 1.35355 11.4393 1.93934C10.8536 2.52513 10.8536 3.47487 11.4393 4.06066L12.8216 5.44291C13.0754 5.69671 13.1535 6.07734 13.0202 6.41059C12.9222 6.65564 12.7213 6.84511 12.4709 6.92857L10.5257 7.57697C10.4583 7.59942 10.3927 7.62662 10.3292 7.65836L7.56788 9.03901C6.30054 9.67268 5.5 10.968 5.5 12.3849V12.4189C5.5 14.0087 6.51736 15.4203 8.02566 15.923C8.81157 16.185 9.66105 15.7603 9.92303 14.9743C10.185 14.1884 9.76026 13.3389 8.97434 13.077C8.69107 12.9826 8.5 12.7175 8.5 12.4189V12.3849C8.5 12.1043 8.65854 11.8478 8.90952 11.7223L10.3292 11.0125L10.732 11.8181C10.7704 11.8948 10.8083 11.9717 10.8457 12.0488L10.3332 14.0531C9.82884 16.0253 9.17279 17.9556 8.37089 19.8267L8.12128 20.4091C7.79495 21.1706 8.14768 22.0524 8.90912 22.3787C9.67057 22.7051 10.5524 22.3523 10.8787 21.5909L11.1283 21.0085C11.695 19.6863 12.1939 18.3367 12.6234 16.9648L13.036 18.3402L13.5204 21.2466C13.6566 22.0638 14.4294 22.6158 15.2466 22.4796C16.0638 22.3434 16.6158 21.5706 16.4796 20.7534L15.964 17.6598L15.032 14.553C14.6111 13.1503 14.0702 11.7864 13.4153 10.4765L13.1151 9.8761L13.4196 9.77462C14.5071 9.4121 15.3799 8.58915 15.8056 7.52477C16.3846 6.07726 16.0453 4.42398 14.9429 3.32159L13.5607 1.93934Z" fill="currentColor"/>
<path d="M7.5 7C8.88071 7 10 5.88071 10 4.5C10 3.11929 8.88071 2 7.5 2C6.11929 2 5 3.11929 5 4.5C5 5.88071 6.11929 7 7.5 7Z" fill="currentColor"/>
</svg>
