<svg viewBox="0 0 24 24" fill="currentColor" xmlns="http://www.w3.org/2000/svg">
<path d="M9 3C9 2.44772 9.44772 2 10 2H14C14.5523 2 15 2.44772 15 3V4H9V3Z" fill="currentColor"/>
<path d="M14.5 6.25777V5.5H9.5V6.25777C8.29401 7.06504 7.5 8.43979 7.5 10V10.25H16.5V10C16.5 8.43979 15.706 7.06504 14.5 6.25777Z" fill="currentColor"/>
<path d="M16.5 11.75H7.5V15.75H16.5V11.75Z" fill="currentColor"/>
<path d="M7.5 21V17.25H16.5V21C16.5 21.5523 16.0523 22 15.5 22H14.5C13.9477 22 13.5 21.5523 13.5 21C13.5 21.5523 13.0523 22 12.5 22H11.5C10.9477 22 10.5 21.5523 10.5 21C10.5 21.5523 10.0523 22 9.5 22H8.5C7.94772 22 7.5 21.5523 7.5 21Z" fill="currentColor"/>
</svg>
