<svg viewBox="0 0 24 24" fill="currentColor" xmlns="http://www.w3.org/2000/svg">
<path d="M10.8017 16.8564C12.1555 16.1629 12.7039 14.477 12.0265 13.0909C11.3491 11.7048 9.70248 11.1433 8.34869 11.8369C6.9949 12.5304 6.44657 14.2163 7.12394 15.6024C7.80132 16.9886 9.44791 17.55 10.8017 16.8564Z" fill="currentColor"/>
<path d="M12.5633 20.2237C15.1577 18.8946 16.5352 16.0711 16.1859 13.3008C16.0393 12.1387 16.3835 10.8627 17.3358 10.2576L17.3889 10.224C17.483 10.1647 17.5773 10.1053 17.665 10.037L21.4748 7.07421C21.9425 6.83461 22.1334 6.25513 21.9011 5.77989L19.7986 2.53006C19.5663 2.05482 18.9989 1.86379 18.5312 2.10338L6.67609 8.17681C3.40238 9.85394 2.06641 13.9103 3.69212 17.237C3.82698 17.5129 3.97798 17.7752 4.14338 18.0232C3.46425 18.3731 3 19.0799 3 19.8947C3 21.0574 3.94518 22 5.11111 22C6.0768 22 6.89105 21.3534 7.14225 20.4707C8.83474 21.1559 10.8003 21.1269 12.5633 20.2237ZM11.5375 18.3623C9.37148 19.472 6.73694 18.5737 5.65313 16.3559C4.56933 14.1381 5.44667 11.4407 7.61273 10.331C9.77879 9.22134 12.4133 10.1196 13.4971 12.3374C14.5809 14.5552 13.7036 17.2526 11.5375 18.3623ZM5.63889 19.8947C5.63889 20.1854 5.40259 20.4211 5.11111 20.4211C4.81963 20.4211 4.58333 20.1854 4.58333 19.8947C4.58333 19.6041 4.81963 19.3684 5.11111 19.3684C5.40259 19.3684 5.63889 19.6041 5.63889 19.8947Z" fill="currentColor"/>
</svg>
