<svg viewBox="0 0 24 24" fill="currentColor" xmlns="http://www.w3.org/2000/svg">
<path d="M20.8844 14.8204C21.0869 15.1965 21.0187 15.6609 20.7167 15.963L19.7092 16.9704L18.1063 13.9937C17.5903 13.0354 16.8044 12.2495 15.8461 11.7335L13.9553 10.7153C13.2469 10.3339 12.6661 9.75308 12.2847 9.04475L11.2665 7.1539C10.7505 6.19557 9.9646 5.4097 9.00627 4.89368L6.02954 3.29082L7.03702 2.28334C7.33907 1.98129 7.80349 1.91313 8.1796 2.11564L10.7143 3.48048C11.5476 3.92919 12.231 4.61255 12.6797 5.44588L13.6979 7.33673C14.1466 8.17006 14.8299 8.85342 15.6633 9.30214L17.5541 10.3203C18.3874 10.769 19.0708 11.4524 19.5195 12.2857L20.8844 14.8204Z" fill="currentColor"/>
<path d="M16.9733 19.7063L18.6605 18.0191C18.6118 17.9704 18.5692 17.9138 18.5348 17.85L16.8288 14.6816C16.4474 13.9733 15.8665 13.3924 15.1582 13.011L13.2674 11.9929C12.309 11.4768 11.5232 10.691 11.0071 9.73264L9.98897 7.84179C9.60756 7.13346 9.0267 6.5526 8.31837 6.17119L5.15001 4.46515C5.08619 4.43079 5.0296 4.38825 4.98084 4.33952L3.29364 6.02671L6.27034 7.62955C7.22867 8.14557 8.01453 8.93144 8.53055 9.88976L9.5487 11.7806C9.93011 12.4889 10.511 13.0698 11.2193 13.4512L13.1102 14.4694C14.0685 14.9854 14.8544 15.7712 15.3704 16.7296L16.9733 19.7063Z" fill="currentColor"/>
<path d="M15.9246 20.755L14.9631 21.7166C14.5049 22.1747 13.7346 22.0617 13.4274 21.4912L12.3377 19.4675C11.889 18.6342 11.2056 17.9508 10.3723 17.5021L8.48147 16.4839C7.64814 16.0352 6.96478 15.3519 6.51606 14.5185L5.49791 12.6277C5.0492 11.7944 4.36584 11.111 3.53251 10.6623L1.50882 9.5726C0.938319 9.2654 0.825264 8.49512 1.28344 8.03694L2.24497 7.07541C2.29373 7.12413 2.35031 7.16666 2.41411 7.20102L5.58248 8.90706C6.29081 9.28847 6.87166 9.86933 7.25307 10.5777L8.27122 12.4685C8.78724 13.4268 9.57311 14.2127 10.5314 14.7287L12.4223 15.7469C13.1306 16.1283 13.7115 16.7091 14.0929 17.4175L15.7989 20.5858C15.8333 20.6497 15.8758 20.7063 15.9246 20.755Z" fill="currentColor"/>
</svg>
