<svg viewBox="0 0 24 24" fill="currentColor" xmlns="http://www.w3.org/2000/svg">
<path d="M12.297 2.0616C12.6797 2.22683 12.857 2.67332 12.693 3.05886L12.0271 4.6239C11.8917 4.94231 11.8917 5.30274 12.0271 5.62115L12.3536 6.38839C12.6516 7.0889 12.6516 7.88184 12.3536 8.58235L11.6877 10.1474C11.5237 10.5329 11.0805 10.7115 10.6978 10.5463C10.315 10.3811 10.1378 9.93458 10.3018 9.54904L10.9676 7.984C11.1031 7.66559 11.1031 7.30516 10.9676 6.98675L10.6412 6.21951C10.3432 5.519 10.3432 4.72606 10.6412 4.02555L11.307 2.4605C11.471 2.07497 11.9143 1.89637 12.297 2.0616Z" fill="currentColor"/>
<path d="M16.021 22H7.97899C7.42381 22 6.97374 21.5466 6.97374 20.9874V20.6006C6.97374 20.217 6.75664 19.8705 6.4334 19.6678C5.30311 18.959 3.77955 17.6072 2.83075 15.671H21.1692C20.2204 17.6072 18.6969 18.959 17.5666 19.6678C17.2433 19.8705 17.0262 20.217 17.0262 20.6006V20.9874C17.0262 21.5466 16.5762 22 16.021 22Z" fill="currentColor"/>
<path d="M21.7465 14.152H2.25348C2.14225 13.7484 2.05788 13.3259 2.0062 12.8849C1.94111 12.3295 2.39759 11.8735 2.95278 11.8735H21.0472C21.6024 11.8735 22.0589 12.3295 21.9938 12.8849C21.9421 13.3259 21.8577 13.7484 21.7465 14.152Z" fill="currentColor"/>
<path d="M7.36167 4.13372C7.71872 4.34953 7.8345 4.81605 7.62027 5.17573L7.11765 6.0196C6.95153 6.29851 6.95153 6.64694 7.11764 6.92585C7.57027 7.68578 7.57027 8.63516 7.11765 9.3951L6.61502 10.239C6.40079 10.5986 5.93768 10.7153 5.58063 10.4995C5.22358 10.2837 5.1078 9.81714 5.32203 9.45747L5.82466 8.61359C5.99078 8.33469 5.99078 7.98626 5.82466 7.70735C5.37203 6.94741 5.37203 5.99804 5.82466 5.2381L6.32728 4.39423C6.54151 4.03455 7.00462 3.91792 7.36167 4.13372Z" fill="currentColor"/>
<path d="M17.4141 4.13372C17.7712 4.34953 17.887 4.81605 17.6727 5.17573L17.1701 6.0196C17.004 6.29851 17.004 6.64694 17.1701 6.92585C17.6227 7.68578 17.6227 8.63516 17.1701 9.3951L16.6675 10.239C16.4533 10.5986 15.9901 10.7153 15.6331 10.4995C15.276 10.2837 15.1603 9.81714 15.3745 9.45747L15.8771 8.61359C16.0432 8.33469 16.0432 7.98626 15.8771 7.70735C15.4245 6.94741 15.4245 5.99804 15.8771 5.2381L16.3797 4.39423C16.594 4.03455 17.0571 3.91792 17.4141 4.13372Z" fill="currentColor"/>
</svg>
