<svg viewBox="0 0 24 24" fill="currentColor" xmlns="http://www.w3.org/2000/svg">
<path d="M8.00251 16.9469C7.36707 17.5967 6.48063 18 5.5 18C3.567 18 2 16.433 2 14.5C2 13.4213 2.48799 12.4566 3.25524 11.8146C3.09065 11.4087 3 10.9649 3 10.5C3 8.567 4.567 7 6.5 7C6.72986 7 6.95454 7.02216 7.17203 7.06446C7.74599 4.72305 9.69007 3 12 3C14.3099 3 16.254 4.72305 16.828 7.06446C17.0455 7.02216 17.2701 7 17.5 7C19.433 7 21 8.567 21 10.5C21 10.9649 20.9093 11.4087 20.7448 11.8145C21.512 12.4566 22 13.4213 22 14.5C22 16.433 20.433 18 18.5 18C17.5194 18 16.6329 17.5967 15.9975 16.9469C15.1934 17.7952 15 18.6725 15 19V21C15 21.5523 14.5523 22 14 22H10C9.44772 22 9 21.5523 9 21V19C9 18.6725 8.80657 17.7952 8.00251 16.9469ZM13 13.89V18H13.1467C13.389 17.11 13.9584 16.0241 15.0499 15.0924C15.0171 14.8999 15 14.7019 15 14.5C15 14.0351 15.0907 13.5913 15.2552 13.1854C15.1566 13.1029 15.0625 13.015 14.9735 12.9222C14.398 13.3912 13.7277 13.7275 13 13.89ZM11 13.89C10.2723 13.7275 9.60203 13.3912 9.0265 12.9222C8.9375 13.015 8.84344 13.1029 8.74475 13.1855C8.90935 13.5913 9 14.0351 9 14.5C9 14.7019 8.9829 14.8999 8.95007 15.0924C10.0416 16.0241 10.611 17.11 10.8533 18H11V13.89Z" fill="currentColor"/>
</svg>
