<svg viewBox="0 0 24 24" fill="currentColor" xmlns="http://www.w3.org/2000/svg">
<path d="M2.81818 11C2.36631 11 2 10.6337 2 10.1818C2 5.66313 5.66313 2 10.1818 2H13.8182C18.3369 2 22 5.66313 22 10.1818C22 10.6337 21.6337 11 21.1818 11H2.81818ZM9 6C9 5.44772 8.55228 5 8 5C7.44772 5 7 5.44772 7 6C7 6.55228 7.44772 7 8 7C8.55228 7 9 6.55228 9 6ZM12 9C12.5523 9 13 8.55228 13 8C13 7.44772 12.5523 7 12 7C11.4477 7 11 7.44772 11 8C11 8.55228 11.4477 9 12 9ZM17 6C17 5.44772 16.5523 5 16 5C15.4477 5 15 5.44772 15 6C15 6.55228 15.4477 7 16 7C16.5523 7 17 6.55228 17 6Z" fill="currentColor"/>
<path d="M2 14.5C2 13.6716 2.67157 13 3.5 13H20.5C21.3284 13 22 13.6716 22 14.5C22 15.3284 21.3284 16 20.5 16H3.5C2.67157 16 2 15.3284 2 14.5Z" fill="currentColor"/>
<path d="M3 18C2.44772 18 2 18.4477 2 19C2 20.6569 3.34315 22 5 22H19C20.6569 22 22 20.6569 22 19C22 18.4477 21.5523 18 21 18H3Z" fill="currentColor"/>
</svg>
