<svg viewBox="0 0 24 24" fill="currentColor" xmlns="http://www.w3.org/2000/svg">
<path d="M2.63636 9C2.28491 9 2 8.71509 2 8.36364C2 4.8491 4.8491 2 8.36364 2H15.6364C19.1509 2 22 4.8491 22 8.36364C22 8.71509 21.7151 9 21.3636 9H2.63636Z" fill="currentColor"/>
<path d="M2.63636 15C2.28491 15 2 15.2849 2 15.6364C2 19.1509 4.8491 22 8.36364 22H15.6364C19.1509 22 22 19.1509 22 15.6364C22 15.2849 21.7151 15 21.3636 15H2.63636Z" fill="currentColor"/>
<path d="M3.5 10.5C2.67157 10.5 2 11.1716 2 12C2 12.8284 2.67157 13.5 3.5 13.5H20.5C21.3284 13.5 22 12.8284 22 12C22 11.1716 21.3284 10.5 20.5 10.5H3.5Z" fill="currentColor"/>
</svg>
