<svg viewBox="0 0 24 24" fill="currentColor" xmlns="http://www.w3.org/2000/svg">
<path d="M2 9C2 11.0503 3.2341 12.8124 5 13.584V17.25H19V13.584C20.7659 12.8124 22 11.0503 22 9C22 6.23858 19.7614 4 17 4C16.6803 4 16.3676 4.03001 16.0645 4.08737C15.1571 2.82336 13.6747 2 12 2C10.3253 2 8.84287 2.82336 7.93548 4.08736C7.63244 4.03001 7.31972 4 7 4C4.23858 4 2 6.23858 2 9Z" fill="currentColor"/>
<path d="M19 18.75H5V20C5 21.1046 5.89543 22 7 22H17C18.1046 22 19 21.1046 19 20V18.75Z" fill="currentColor"/>
</svg>
