<svg viewBox="0 0 24 24" fill="currentColor" xmlns="http://www.w3.org/2000/svg">
<path d="M4 20C4 19.4477 4.44772 19 5 19H19C19.5523 19 20 19.4477 20 20V21C20 21.5523 19.5523 22 19 22H5C4.44772 22 4 21.5523 4 21V20Z" fill="currentColor"/>
<path d="M2 9C2 11.0503 3.2341 12.8124 5 13.584V17.5001H8.10192L7.27239 14.182C7.17193 13.7801 7.41625 13.3729 7.8181 13.2724C8.21994 13.172 8.62715 13.4163 8.72761 13.8182L9.64808 17.5001H11.25V14.0001C11.25 13.5858 11.5858 13.2501 12 13.2501C12.4142 13.2501 12.75 13.5858 12.75 14.0001V17.5001H14.3519L15.2724 13.8182C15.3729 13.4163 15.7801 13.172 16.1819 13.2724C16.5837 13.3729 16.8281 13.7801 16.7276 14.182L15.8981 17.5001H19V13.584C20.7659 12.8124 22 11.0503 22 9C22 6.23858 19.7614 4 17 4C16.6803 4 16.3676 4.03001 16.0645 4.08737C15.1571 2.82336 13.6747 2 12 2C10.3253 2 8.84287 2.82336 7.93548 4.08736C7.63244 4.03001 7.31972 4 7 4C4.23858 4 2 6.23858 2 9Z" fill="currentColor"/>
</svg>
