<svg viewBox="0 0 24 24" fill="currentColor" xmlns="http://www.w3.org/2000/svg">
<path d="M7.62406 2.58393C7.39429 2.23929 6.92864 2.14616 6.58399 2.37592C6.23935 2.60568 6.14622 3.07134 6.37598 3.41598L7.00618 4.36128C7.06217 4.44526 7.06217 4.55466 7.00618 4.63863L6.37598 5.58393C6.14622 5.92858 6.23935 6.39423 6.58399 6.624C6.92864 6.85376 7.39429 6.76063 7.62406 6.41598L8.25426 5.47068C8.64614 4.88286 8.64614 4.11706 8.25426 3.52923L7.62406 2.58393Z" fill="currentColor"/>
<path d="M3 7.99996C2.44772 7.99996 2 8.44767 2 8.99996V9.32503C2 9.44077 2.02009 9.55563 2.05938 9.6645L5.19019 18.3394C5.33324 18.7358 5.70941 19 6.1308 19H13.8692C14.2906 19 14.6668 18.7358 14.8098 18.3394L16.015 15H19C20.6569 15 22 13.6568 22 12V11C22 9.3431 20.6569 7.99996 19 7.99996H3ZM19 13.5H16.5564L17.9406 9.6645C17.96 9.6109 17.9747 9.55585 17.9846 9.49996H19C19.8284 9.49996 20.5 10.1715 20.5 11V12C20.5 12.8284 19.8284 13.5 19 13.5Z" fill="currentColor"/>
<path d="M3 20C2.44772 20 2 20.4477 2 21C2 21.5522 2.44772 22 3 22H17C17.5523 22 18 21.5522 18 21C18 20.4477 17.5523 20 17 20H3Z" fill="currentColor"/>
<path d="M9.58399 2.37592C9.92864 2.14616 10.3943 2.23929 10.624 2.58393L11.2542 3.52923C11.6461 4.11706 11.6461 4.88286 11.2542 5.47068L10.624 6.41598C10.3943 6.76063 9.92864 6.85376 9.58399 6.624C9.23935 6.39423 9.14622 5.92858 9.37598 5.58393L10.0062 4.63863C10.0621 4.55466 10.0621 4.44526 10.0062 4.36128L9.37598 3.41598C9.14622 3.07134 9.23935 2.60568 9.58399 2.37592Z" fill="currentColor"/>
<path d="M13.624 2.58393C13.3943 2.23929 12.9286 2.14616 12.584 2.37592C12.2393 2.60568 12.1462 3.07134 12.376 3.41598L13.0062 4.36128C13.0621 4.44526 13.0621 4.55466 13.0062 4.63863L12.376 5.58393C12.1462 5.92858 12.2393 6.39423 12.584 6.624C12.9286 6.85376 13.3943 6.76063 13.624 6.41598L14.2542 5.47068C14.6461 4.88286 14.6461 4.11706 14.2542 3.52923L13.624 2.58393Z" fill="currentColor"/>
</svg>
