<svg viewBox="0 0 24 24" fill="currentColor" xmlns="http://www.w3.org/2000/svg">
<path d="M6.58399 1.37592C6.92864 1.14616 7.39429 1.23929 7.62406 1.58393L8.25426 2.52923C8.64614 3.11706 8.64614 3.88286 8.25426 4.47068L7.62406 5.41598C7.39429 5.76063 6.92864 5.85376 6.58399 5.624C6.23935 5.39423 6.14622 4.92858 6.37598 4.58393L7.00618 3.63863C7.06217 3.55466 7.06217 3.44526 7.00618 3.36128L6.37598 2.41598C6.14622 2.07134 6.23935 1.60568 6.58399 1.37592Z" fill="currentColor"/>
<path d="M3 6.99995C2.44772 6.99995 2 7.44766 2 7.99995V13C2 16.3137 4.68629 19 8 19H12C14.6227 19 16.8523 17.3172 17.6682 14.9726C17.7761 14.9906 17.887 15 18 15H20C21.1046 15 22 14.1045 22 13V9.99995C22 8.89538 21.1046 7.99995 20 7.99995H18C18 7.44766 17.5523 6.99995 17 6.99995H3ZM17.9795 13.4995C17.9931 13.3348 18 13.1682 18 13V9.49995H20C20.2761 9.49995 20.5 9.7238 20.5 9.99995V13C20.5 13.2761 20.2761 13.5 20 13.5H18L17.9878 13.4998L17.9795 13.4995Z" fill="currentColor"/>
<path d="M10.624 1.58393C10.3943 1.23929 9.92864 1.14616 9.58399 1.37592C9.23935 1.60568 9.14622 2.07134 9.37598 2.41598L10.0062 3.36128C10.0621 3.44526 10.0621 3.55466 10.0062 3.63863L9.37598 4.58393C9.14622 4.92858 9.23935 5.39423 9.58399 5.624C9.92864 5.85376 10.3943 5.76063 10.624 5.41598L11.2542 4.47068C11.6461 3.88286 11.6461 3.11706 11.2542 2.52923L10.624 1.58393Z" fill="currentColor"/>
<path d="M12.584 1.37592C12.9286 1.14616 13.3943 1.23929 13.624 1.58393L14.2542 2.52923C14.6461 3.11706 14.6461 3.88286 14.2542 4.47068L13.624 5.41598C13.3943 5.76063 12.9286 5.85376 12.584 5.624C12.2393 5.39423 12.1462 4.92858 12.376 4.58393L13.0062 3.63863C13.0621 3.55466 13.0621 3.44526 13.0062 3.36128L12.376 2.41598C12.1462 2.07134 12.2393 1.60568 12.584 1.37592Z" fill="currentColor"/>
<path d="M3 20C2.44772 20 2 20.4477 2 21C2 21.5522 2.44772 22 3 22H17C17.5523 22 18 21.5522 18 21C18 20.4477 17.5523 20 17 20H3Z" fill="currentColor"/>
</svg>
