<svg viewBox="0 0 24 24" fill="currentColor" xmlns="http://www.w3.org/2000/svg">
<path d="M3 3H21C21.5523 3 22 3.44772 22 4V20C22 20.5523 21.5523 21 21 21H3C2.44772 21 2 20.5523 2 20V18C2 17.4477 2.44772 17 3 17H9.25H13.1802C13.6569 17 14.0673 16.6635 14.1608 16.1961L15.7608 8.19612C15.8845 7.57733 15.4112 7 14.7802 7H9.75V9C9.75 9.41421 9.41421 9.75 9 9.75C8.58579 9.75 8.25 9.41421 8.25 9V7H3C2.44772 7 2 6.55228 2 6V4C2 3.44772 2.44772 3 3 3ZM18 18C19.1046 18 20 17.1046 20 16C20 14.8954 19.1046 14 18 14C16.8954 14 16 14.8954 16 16C16 17.1046 16.8954 18 18 18Z" fill="currentColor"/>
<path d="M9.25 17C7.66449 17 6.32521 15.9457 5.89494 14.5H5.25C4.00736 14.5 3 13.4926 3 12.25C3 11.0074 4.00736 10 5.25 10H12.75V13.5C12.75 15.433 11.183 17 9.25 17ZM5.75 11.5H5.25C4.83579 11.5 4.5 11.8358 4.5 12.25C4.5 12.6642 4.83579 13 5.25 13H5.75V11.5Z" fill="currentColor"/>
</svg>
