<svg viewBox="0 0 24 24" fill="currentColor" xmlns="http://www.w3.org/2000/svg">
<path d="M15.634 2.5C16.0189 1.83333 16.9811 1.83333 17.366 2.5L17.799 3.25C18.1839 3.91667 17.7028 4.75 16.933 4.75H16.067C15.2972 4.75 14.8161 3.91667 15.201 3.25L15.634 2.5Z" fill="currentColor"/>
<path d="M20.0492 5.37747C20.7853 5.1524 21.4891 5.80865 21.3159 6.55872L20.9061 8.33404C20.7329 9.08412 19.8127 9.36546 19.2497 8.84046L17.9172 7.59785C17.3542 7.07285 17.5706 6.13526 18.3068 5.91019L20.0492 5.37747Z" fill="currentColor"/>
<path d="M17.0254 7.60872C17.0647 7.30716 16.8042 7.00003 16.5001 7.00003C14.5671 7.00003 13.0001 5.43303 13.0001 3.50003C13.0001 3.46017 13.0008 3.42047 13.0021 3.38093C13.0244 2.71279 12.6314 1.99714 11.9629 2.00001C11.8593 2.00045 11.7554 2.00248 11.6511 2.00612C6.13164 2.19887 1.81346 6.82955 2.00621 12.349C2.19895 17.8685 6.82963 22.1867 12.3491 21.9939C17.8686 21.8012 22.1868 17.1705 21.994 11.651C21.9735 11.0645 21.2687 10.7825 20.6978 10.9185C20.4739 10.9718 20.2403 11 20.0001 11C18.3433 11 17.0001 9.65685 17.0001 8C17.0001 7.86739 17.0087 7.73678 17.0254 7.60872ZM10.5001 10C9.67169 10 9.00012 9.32843 9.00012 8.5C9.00012 7.67157 9.67169 7 10.5001 7C11.3285 7 12.0001 7.67157 12.0001 8.5C12.0001 9.32843 11.3285 10 10.5001 10ZM8.00012 14C8.00012 14.5523 7.5524 15 7.00012 15C6.44783 15 6.00012 14.5523 6.00012 14C6.00012 13.4477 6.44783 13 7.00012 13C7.5524 13 8.00012 13.4477 8.00012 14ZM12.0001 19C11.4478 19 11.0001 18.5523 11.0001 18C11.0001 17.4477 11.4478 17 12.0001 17C12.5524 17 13.0001 17.4477 13.0001 18C13.0001 18.5523 12.5524 19 12.0001 19ZM17.0001 14.5C17.0001 14.7761 16.7763 15 16.5001 15C16.224 15 16.0001 14.7761 16.0001 14.5C16.0001 14.2239 16.224 14 16.5001 14C16.7763 14 17.0001 14.2239 17.0001 14.5ZM5.50012 11C5.77626 11 6.00012 10.7761 6.00012 10.5C6.00012 10.2239 5.77626 10 5.50012 10C5.22398 10 5.00012 10.2239 5.00012 10.5C5.00012 10.7761 5.22398 11 5.50012 11ZM14.0001 13.5C14.0001 14.3284 13.3285 15 12.5001 15C11.6717 15 11.0001 14.3284 11.0001 13.5C11.0001 12.6716 11.6717 12 12.5001 12C13.3285 12 14.0001 12.6716 14.0001 13.5Z" fill="currentColor"/>
</svg>
