<svg viewBox="0 0 24 24" fill="currentColor" xmlns="http://www.w3.org/2000/svg">
<path d="M8.33007 12.6616C7.99907 12.6301 7.67071 12.5556 7.35355 12.4379L6.44342 12.1001C5.65931 11.8091 4.85735 12.4841 5.02158 13.2968L6.43692 20.301C6.63654 21.2889 7.51293 22 8.53082 22H9.31782L8.33007 12.6616Z" fill="currentColor"/>
<path d="M10.8475 22C10.8475 21.9737 10.8461 21.9472 10.8433 21.9205L9.84723 12.5038C10.0385 12.4441 10.226 12.3692 10.4077 12.2793C11.4848 11.7463 12.7525 11.7463 13.8295 12.2793C14.0113 12.3692 14.1988 12.4441 14.3901 12.5038L13.394 21.9205C13.3912 21.9472 13.3898 21.9737 13.3898 22H10.8475Z" fill="currentColor"/>
<path d="M14.9195 22L15.9072 12.6616C16.2382 12.6301 16.5666 12.5556 16.8837 12.4379L17.7939 12.1001C18.578 11.8091 19.3799 12.4841 19.2157 13.2968L17.8004 20.301C17.6007 21.2889 16.7244 22 15.7065 22H14.9195Z" fill="currentColor"/>
<path d="M17.4677 3.63776C17.3894 3.78216 17.3213 3.93404 17.2626 4.08936C17.8377 4.44695 18.2203 5.08262 18.2203 5.80723C18.2203 6.92511 17.3097 7.83133 16.1864 7.83133C15.0631 7.83133 14.1525 6.92511 14.1525 5.80723C14.1525 4.84272 14.8304 4.03579 15.7379 3.83252C15.8376 3.52255 15.965 3.21227 16.1255 2.91645C16.678 1.89832 17.6643 1 19.2373 1C19.6585 1 20 1.33983 20 1.75904C20 2.17824 19.6585 2.51807 19.2373 2.51807C18.3696 2.51807 17.8305 2.96915 17.4677 3.63776Z" fill="currentColor"/>
<path d="M12.1186 4.79518C12.3369 4.79518 12.5528 4.80495 12.766 4.82408C12.6756 5.13624 12.6271 5.4661 12.6271 5.80723C12.6271 7.76352 14.2207 9.3494 16.1864 9.3494C17.0297 9.3494 17.8044 9.05758 18.4143 8.56988C18.7632 9.22584 19.0116 9.94287 19.1392 10.7007C18.5705 10.4706 17.9111 10.4364 17.2608 10.6778L16.3507 11.0156C16.1595 11.0865 15.9615 11.1314 15.7618 11.1504L15.2942 11.195L14.8465 11.0553C14.7313 11.0193 14.6183 10.9742 14.5088 10.92C13.0039 10.1753 11.2334 10.1753 9.72853 10.92C9.61897 10.9742 9.50604 11.0193 9.3908 11.0553L8.94309 11.195L8.47547 11.1504C8.27581 11.1314 8.07784 11.0865 7.8866 11.0156L6.97647 10.6778C6.32616 10.4364 5.66675 10.4706 5.09808 10.7007C5.66213 7.34921 8.59067 4.79518 12.1186 4.79518Z" fill="currentColor"/>
</svg>
