<svg viewBox="0 0 24 24" fill="currentColor" xmlns="http://www.w3.org/2000/svg">
<path d="M4.78571 15H5C6.65685 15 8 13.6569 8 12C8 9.79086 9.79086 8 12 8C14.2091 8 16 9.79086 16 12C16 13.6569 17.3431 15 19 15H19.2143C20.6724 15 21.8689 13.8797 21.9899 12.4528C21.9966 12.3027 22 12.1518 22 12C22 6.47715 17.5228 2 12 2C6.47715 2 2 6.47715 2 12C2 12.1518 2.00338 12.3027 2.01007 12.4528C2.13107 13.8797 3.32756 15 4.78571 15ZM16.2724 7.3181C16.3729 6.91625 16.7801 6.67193 17.1819 6.77239L19.1819 7.27239C19.5837 7.37285 19.8281 7.78006 19.7276 8.1819C19.6271 8.58375 19.2199 8.82807 18.8181 8.72761L16.8181 8.22761C16.4163 8.12715 16.1719 7.71994 16.2724 7.3181ZM6.75111 6.77239C7.15296 6.67193 7.56016 6.91625 7.66062 7.3181C7.76108 7.71994 7.51676 8.12715 7.11492 8.22761L5.11492 8.72761C4.71307 8.82807 4.30587 8.58375 4.20541 8.1819C4.10495 7.78006 4.34927 7.37285 4.75111 7.27239L6.75111 6.77239ZM17.9787 13.0392C17.6809 12.7513 17.6729 12.2764 17.9608 11.9787L19.3938 10.4966C19.6818 10.1988 20.1566 10.1908 20.4543 10.4788C20.7521 10.7667 20.7601 11.2415 20.4722 11.5393L19.0392 13.0213C18.7512 13.3191 18.2764 13.3271 17.9787 13.0392ZM5.97219 11.9787C6.26011 12.2764 6.25213 12.7513 5.95435 13.0392C5.65657 13.3271 5.18176 13.3191 4.89384 13.0213L3.46083 11.5393C3.1729 11.2415 3.18089 10.7667 3.47867 10.4788C3.77644 10.1908 4.25125 10.1988 4.53918 10.4966L5.97219 11.9787ZM15.9543 3.71082C16.2521 3.99875 16.2601 4.47356 15.9722 4.77134L14.5392 6.25339C14.2513 6.55116 13.7764 6.55915 13.4787 6.27123C13.1809 5.9833 13.1729 5.50849 13.4608 5.21072L14.8938 3.72867C15.1818 3.43089 15.6566 3.4229 15.9543 3.71082ZM8.46082 4.77134C8.1729 4.47356 8.18089 3.99875 8.47867 3.71082C8.77644 3.4229 9.25125 3.43089 9.53918 3.72867L10.9722 5.21072C11.2601 5.50849 11.2521 5.9833 10.9543 6.27123C10.6566 6.55915 10.1818 6.55116 9.89384 6.25339L8.46082 4.77134Z" fill="currentColor"/>
<path d="M8.80382 14.4055C8.00608 15.6643 6.60064 16.5 5.00001 16.5H4.78572C4.08878 16.5 3.43069 16.3336 2.849 16.0385C4.40084 19.5497 7.91427 22 12 22C16.0857 22 19.5992 19.5497 21.151 16.0385C20.5693 16.3336 19.9112 16.5 19.2143 16.5H19C17.3994 16.5 15.9939 15.6643 15.1962 14.4055C14.4662 15.3739 13.3062 16 12 16C10.6938 16 9.53384 15.3739 8.80382 14.4055Z" fill="currentColor"/>
</svg>
