<svg viewBox="0 0 24 24" fill="currentColor" xmlns="http://www.w3.org/2000/svg">
<path d="M19.9753 11.3144C20.1697 10.104 19.1919 9.01245 17.9133 9.01245H17.0562C16.5463 9.01245 16.1111 9.36552 16.0273 9.84725L15.2747 14.1719C15.1908 14.6536 14.7557 15.0067 14.2457 15.0067H9.75427C9.24434 15.0067 8.80916 14.6536 8.72533 14.1719L7.97274 9.84725C7.88891 9.36552 7.45373 9.01245 6.9438 9.01245H6.08671C4.80807 9.01245 3.83028 10.104 4.02471 11.3144L5.46905 20.3057C5.62562 21.2805 6.50133 22 7.53105 22H16.4689C17.4987 22 18.3744 21.2805 18.531 20.3057L19.9753 11.3144ZM12 20.0019C10.8478 20.0019 9.91373 19.1073 9.91373 18.0038C9.91373 16.9003 10.8478 16.0057 12 16.0057C13.1522 16.0057 14.0863 16.9003 14.0863 18.0038C14.0863 19.1073 13.1522 20.0019 12 20.0019Z" fill="currentColor"/>
<path d="M7.65231 2.00078C7.3647 1.98554 7.11865 2.19649 7.10274 2.47195L6.81158 7.51388H6.94375C7.69168 7.51388 8.3753 7.81772 8.85494 8.31209L8.87056 8.0416V8.32833C9.20011 8.67407 9.43082 9.11085 9.51609 9.60088L10.1961 13.5081H12.7214H13.8039L14.4838 9.60089C14.5295 9.33833 14.617 9.09106 14.739 8.86488L14.6308 6.88714C14.6156 6.60877 14.3655 6.3962 14.0751 6.41486L13.229 6.46922L13.5079 2.60299C13.5277 2.32777 13.3109 2.08925 13.0235 2.07024L11.9828 2.00139C11.6955 1.98238 11.4464 2.19008 11.4266 2.46531L10.9569 8.97801V6.51486C10.9569 6.23898 10.7233 6.01534 10.4353 6.01534H9.39213C9.22226 6.01534 9.07136 6.09311 8.97613 6.21351L9.18582 2.58229C9.20173 2.30683 8.98146 2.07118 8.69385 2.05594L7.65231 2.00078Z" fill="currentColor"/>
<path d="M19.4 7.81515C18.9479 7.62194 18.4455 7.51388 17.9133 7.51388H17.0562C16.3747 7.51388 15.7466 7.76613 15.2775 8.18493L15.2097 5.84441C15.2017 5.56864 15.4286 5.33888 15.7166 5.33122L16.7593 5.3035C17.0473 5.29584 17.2872 5.51319 17.2952 5.78896L17.3415 7.38897L17.6536 3.45776C17.6755 3.18267 17.926 2.97663 18.2132 2.99754L19.2534 3.07328C19.5406 3.0942 19.7557 3.33415 19.7339 3.60924L19.4 7.81515Z" fill="currentColor"/>
<path d="M4.44491 7.88568C4.93608 7.64842 5.49284 7.51388 6.08669 7.51388H6.50087L6.25935 5.43299C6.22753 5.1588 5.96964 4.96124 5.68336 4.99172L4.64661 5.10209C4.36032 5.13257 4.15403 5.37955 4.18586 5.65374L4.44491 7.88568Z" fill="currentColor"/>
</svg>
