<svg viewBox="0 0 24 24" fill="currentColor" xmlns="http://www.w3.org/2000/svg">
<path d="M17.0147 3.51807C16.9086 3.51807 16.8145 3.58776 16.7809 3.69107L15.7695 5.80723H17.6517C18.2445 5.80723 18.7032 6.34076 18.6296 6.94481L18.2446 10.1084H11.8895C12.1933 9.41334 12.3623 8.6426 12.3623 7.83132C12.3623 7.11724 12.2314 6.43456 11.9928 5.80723H14.2112L15.3785 3.21102C15.6133 2.48781 16.2723 2 17.0147 2H19.2609C19.6691 2 20 2.33983 20 2.75904C20 3.17824 19.6691 3.51807 19.2609 3.51807H17.0147Z" fill="currentColor"/>
<path d="M6.94203 11.8795C4.76491 11.8795 3 10.0671 3 7.83132C3 5.59557 4.76491 3.78313 6.94203 3.78313C9.11915 3.78313 10.8841 5.59557 10.8841 7.83132C10.8841 10.0671 9.11915 11.8795 6.94203 11.8795ZM4.97101 7.07229C4.5628 7.07229 4.23188 7.41212 4.23188 7.83132C4.23188 8.25053 4.5628 8.59036 4.97101 8.59036H5.66175L5.31642 9.20461C5.11231 9.56765 5.23344 10.0319 5.58696 10.2415C5.94048 10.4511 6.39252 10.3267 6.59663 9.96364L6.94203 9.34928L7.28743 9.96364C7.49154 10.3267 7.94358 10.4511 8.2971 10.2415C8.65062 10.0319 8.77175 9.56765 8.56764 9.20461L8.22231 8.59036H8.91304C9.32125 8.59036 9.65217 8.25053 9.65217 7.83132C9.65217 7.41212 9.32125 7.07229 8.91304 7.07229H8.22217L8.56764 6.45781C8.77175 6.09476 8.65062 5.63055 8.2971 5.42094C7.94358 5.21134 7.49154 5.33573 7.28743 5.69877L6.94203 6.31313L6.59663 5.69877C6.39252 5.33573 5.94048 5.21134 5.58696 5.42094C5.23344 5.63055 5.11231 6.09476 5.31642 6.45781L5.66188 7.07229H4.97101Z" fill="currentColor"/>
<path d="M10.9071 11.6265C10.3326 12.2592 9.61629 12.7542 8.81012 13.0582L9.79062 21.1135C9.85227 21.6199 10.2715 22 10.7685 22H15.9271C16.4241 22 16.8434 21.6199 16.905 21.1135L18.0598 11.6265H10.9071Z" fill="currentColor"/>
</svg>
