<svg viewBox="0 0 24 24" fill="currentColor" xmlns="http://www.w3.org/2000/svg">
<path d="M7.1069 9.76069C7.71386 9.20555 8.04597 8.4052 8.35626 7.65745L8.41558 7.51472C8.80457 6.58199 9.77222 5.87995 10.9231 5.87995C11.1388 5.87995 11.3487 5.90369 11.5498 5.94854C11.8446 6.0143 12.1554 6.0143 12.4502 5.94854C12.6513 5.90369 12.8612 5.87995 13.0769 5.87995C14.2278 5.87995 15.1954 6.58199 15.5844 7.51472L15.6437 7.65745C15.954 8.40519 16.2861 9.20555 16.8931 9.76069C18.1931 10.9497 19 12.6085 19 14.4438C19 17.4494 16.8356 19.9822 13.8854 20.7523C14.2207 21.1195 14.3415 21.527 14.1515 21.7048C13.9412 21.9016 13.4298 21.7422 13.0093 21.3487C12.9456 21.289 12.8242 21.3229 12.8044 21.4051C12.7202 21.7557 12.5319 22 12.3131 22C12.0943 22 11.9061 21.7557 11.8218 21.4051C11.802 21.3229 11.6806 21.289 11.6169 21.3487C11.1964 21.7422 10.685 21.9016 10.4747 21.7048C10.3047 21.5458 10.3835 21.2029 10.642 20.8694C7.42599 20.2779 5 17.6259 5 14.4438C5 12.6085 5.8069 10.9497 7.1069 9.76069ZM8.48407 13.1177C8.59339 12.7086 8.32752 12.294 7.89024 12.1918C7.45296 12.0895 7.00986 12.3382 6.90054 12.7473C6.69618 13.5121 6.57568 14.7188 6.86973 15.9235C7.16813 17.146 7.91287 18.4231 9.48116 19.1567C9.88431 19.3453 10.3745 19.1924 10.5761 18.8153C10.7777 18.4381 10.6143 17.9795 10.2111 17.7909C9.19481 17.3155 8.68315 16.4936 8.46103 15.5836C8.23457 14.6557 8.32945 13.6963 8.48407 13.1177Z" fill="currentColor"/>
<path d="M14.6862 3.49154C15.1205 3.39642 15.3902 2.9899 15.2885 2.58357C15.1868 2.17723 14.7523 1.92494 14.318 2.02006C13.4654 2.20678 12.1559 2.92392 11.572 4.39835C11.6922 4.41533 11.8111 4.43697 11.9283 4.46311C11.9743 4.47337 12.0257 4.47337 12.0717 4.46311C12.3959 4.39081 12.7328 4.3529 13.0769 4.3529C13.1863 4.3529 13.2945 4.35675 13.4015 4.36429C13.8124 3.81183 14.3707 3.56064 14.6862 3.49154Z" fill="currentColor"/>
</svg>
