<svg viewBox="0 0 24 24" fill="currentColor" xmlns="http://www.w3.org/2000/svg">
<path d="M5 9C3.34315 9 2 10.3431 2 12C2 13.6569 3.34315 15 5 15H19C20.6569 15 22 13.6569 22 12C22 10.3431 20.6569 9 19 9H5ZM6.53033 10.4697L7.82322 11.7626C7.92085 11.8602 8.07915 11.8602 8.17678 11.7626L8.76256 11.1768C9.44598 10.4934 10.554 10.4934 11.2374 11.1768L11.8232 11.7626C11.9209 11.8602 12.0791 11.8602 12.1768 11.7626L12.7626 11.1768C13.446 10.4934 14.554 10.4934 15.2374 11.1768L15.8232 11.7626C15.9209 11.8602 16.0791 11.8602 16.1768 11.7626L17.4697 10.4697C17.7626 10.1768 18.2374 10.1768 18.5303 10.4697C18.8232 10.7626 18.8232 11.2374 18.5303 11.5303L17.2374 12.8232C16.554 13.5066 15.446 13.5066 14.7626 12.8232L14.1768 12.2374C14.0791 12.1398 13.9209 12.1398 13.8232 12.2374L13.2374 12.8232C12.554 13.5066 11.446 13.5066 10.7626 12.8232L10.1768 12.2374C10.0791 12.1398 9.92085 12.1398 9.82322 12.2374L9.23744 12.8232C8.55402 13.5066 7.44598 13.5066 6.76256 12.8232L5.46967 11.5303C5.17678 11.2374 5.17678 10.7626 5.46967 10.4697C5.76256 10.1768 6.23744 10.1768 6.53033 10.4697Z" fill="currentColor"/>
<path d="M2.00933 8.63751C2.00321 8.60778 2 8.57699 2 8.54545C2 6.03507 4.03507 4 6.54545 4H17.4545C19.9649 4 22 6.03507 22 8.54545C22 8.577 21.9968 8.60779 21.9907 8.63752C21.1957 7.92991 20.148 7.5 19 7.5H5C3.85196 7.5 2.80434 7.92991 2.00933 8.63751Z" fill="currentColor"/>
<path d="M21.9907 15.3625C21.9968 15.3922 22 15.423 22 15.4545C22 17.9649 19.9649 20 17.4545 20H6.54545C4.03507 20 2 17.9649 2 15.4545C2 15.423 2.00321 15.3922 2.00933 15.3625C2.80434 16.0701 3.85196 16.5 5 16.5H19C20.148 16.5 21.1957 16.0701 21.9907 15.3625Z" fill="currentColor"/>
</svg>
