<svg viewBox="0 0 24 24" fill="currentColor" xmlns="http://www.w3.org/2000/svg">
<path d="M12 2C8.68629 2 6 4.68629 6 8V16C6 17.1046 6.89543 18 8 18H16C17.1046 18 18 17.1046 18 16V8C18 4.68629 15.3137 2 12 2ZM10.6742 5.33644L9.67031 7.33644C9.4845 7.70664 9.03376 7.85612 8.66356 7.6703C8.29336 7.48449 8.14389 7.03376 8.3297 6.66356L9.33354 4.66356C9.51936 4.29336 9.97009 4.14388 10.3403 4.3297C10.7105 4.51551 10.86 4.96624 10.6742 5.33644ZM12.1105 11.9318C11.704 12.0115 11.3099 11.7465 11.2302 11.3401L10.7998 9.14406C10.7201 8.73758 10.9851 8.34347 11.3915 8.2638C11.798 8.18413 12.1921 8.44906 12.2718 8.85554L12.7022 11.0515C12.7819 11.458 12.517 11.8521 12.1105 11.9318ZM15.0925 5.79418L15.7066 7.94605C15.8203 8.34436 15.5896 8.7594 15.1913 8.87308C14.7929 8.98675 14.3779 8.75601 14.2642 8.3577L13.6501 6.20582C13.5364 5.80751 13.7672 5.39247 14.1655 5.2788C14.5638 5.16512 14.9788 5.39587 15.0925 5.79418ZM10.5578 12.5422C10.8107 12.8702 10.7497 13.3412 10.4216 13.594L8.64915 14.9601C8.32107 15.2129 7.85013 15.152 7.59727 14.8239C7.34442 14.4958 7.4054 14.0249 7.73348 13.772L9.50595 12.406C9.83403 12.1531 10.305 12.2141 10.5578 12.5422ZM14.5234 13.6924C14.7389 13.3386 15.2003 13.2265 15.5541 13.442C15.9079 13.6574 16.02 14.1189 15.8045 14.4726L14.6406 16.3839C14.4251 16.7377 13.9637 16.8498 13.6099 16.6343C13.2561 16.4189 13.144 15.9574 13.3594 15.6037L14.5234 13.6924Z" fill="currentColor"/>
<path d="M10 19.5V20C10 21.1046 10.8954 22 12 22C13.1046 22 14 21.1046 14 20V19.5H10Z" fill="currentColor"/>
</svg>
