<svg viewBox="0 0 24 24" fill="currentColor" xmlns="http://www.w3.org/2000/svg">
<path d="M18.0635 5.5C16.8532 3.4077 14.591 2 12 2C9.409 2 7.1468 3.4077 5.93646 5.5H18.0635Z" fill="currentColor"/>
<path d="M5.93646 12.5C7.02844 14.3877 8.97663 15.7181 11.25 15.9603V22C11.25 22.4142 11.5858 22.75 12 22.75C12.4142 22.75 12.75 22.4142 12.75 22V15.9603C15.0234 15.7181 16.9715 14.3877 18.0635 12.5H5.93646Z" fill="currentColor"/>
<path d="M5 7C4.44772 7 4 7.44772 4 8V10C4 10.5523 4.44772 11 5 11H19C19.5523 11 20 10.5523 20 10V8C20 7.44772 19.5523 7 19 7H5Z" fill="currentColor"/>
</svg>
