<svg viewBox="0 0 24 24" fill="currentColor" xmlns="http://www.w3.org/2000/svg">
<path d="M14.8521 2.60169C14.9351 3.00474 14.6564 3.39501 14.2295 3.47338C12.972 3.70427 12.0911 4.3914 11.5117 5.2188C11.1665 5.71183 10.9363 6.24464 10.8047 6.73801C11.1107 6.96397 11.5384 7.0046 11.8893 6.82139C12.4243 6.54207 13.0967 6.78583 13.2963 7.33145L13.3249 7.4096C13.4794 7.83188 13.9243 8.09565 14.3942 8.04348C14.9996 7.97626 15.5289 8.42831 15.5186 9.00378L15.5166 9.11957C15.5086 9.56955 15.8263 9.96911 16.285 10.0912C16.8796 10.2495 17.2067 10.8575 16.9852 11.4021L16.9372 11.5201C16.771 11.9288 16.9084 12.392 17.2752 12.6597L17.3528 12.7164C17.8339 13.0676 17.8993 13.7302 17.4952 14.1593L17.4111 14.2487C17.105 14.5737 17.059 15.0493 17.2978 15.4212L17.37 15.5336C17.687 16.0274 17.4917 16.6716 16.946 16.9321L16.895 16.9565C16.4763 17.1564 16.249 17.5943 16.338 18.0293L16.3636 18.154C16.48 18.7229 16.0466 19.2611 15.4348 19.3069C14.961 19.3424 14.5746 19.6799 14.5001 20.1232L14.4828 20.2264C14.3874 20.7941 13.7779 21.1475 13.1987 20.9708C12.7491 20.8338 12.2595 21.0152 12.0287 21.4045L12.0031 21.4477C11.7017 21.9561 10.9855 22.0814 10.5113 21.7086C10.1457 21.4211 9.61484 21.4211 9.24918 21.7086C8.77499 22.0814 8.05883 21.9561 7.75744 21.4477L7.73183 21.4045C7.50104 21.0152 7.01145 20.8338 6.56184 20.9708C5.98259 21.1475 5.37312 20.7941 5.27775 20.2264L5.2604 20.1232C5.18593 19.6799 4.79953 19.3424 4.32568 19.3069C3.71394 19.2611 3.28047 18.7229 3.39697 18.154L3.42251 18.0293C3.51156 17.5943 3.28419 17.1564 2.86553 16.9565L2.81452 16.9321C2.26881 16.6716 2.07352 16.0274 2.39053 15.5336L2.46267 15.4212C2.70147 15.0493 2.65556 14.5737 2.34946 14.2487L2.26532 14.1593C1.8612 13.7302 1.92661 13.0676 2.40776 12.7164L2.48533 12.6597C2.85212 12.392 2.98948 11.9288 2.82328 11.5201L2.77528 11.4021C2.55379 10.8575 2.88095 10.2495 3.47555 10.0912C3.93426 9.96911 4.25192 9.56955 4.24393 9.11957L4.24187 9.00378C4.23165 8.42831 4.76094 7.97626 5.36628 8.04348C5.83617 8.09565 6.28116 7.83188 6.43564 7.4096L6.46423 7.33145C6.66384 6.78583 7.33624 6.54207 7.87123 6.82139C8.28553 7.03769 8.80679 6.942 9.10866 6.59764C9.15348 6.54651 9.20269 6.50113 9.2553 6.4615C9.42625 5.77973 9.73544 5.05967 10.1983 4.39869C10.9686 3.29861 12.1872 2.33362 13.929 2.01381C14.3558 1.93544 14.7691 2.19864 14.8521 2.60169ZM7.5183 10.6738C7.5183 10.2632 7.16581 9.93031 6.73099 9.93031C6.29617 9.93031 5.94368 10.2632 5.94368 10.6738V11.665C5.94368 12.0756 6.29617 12.4085 6.73099 12.4085C7.16581 12.4085 7.5183 12.0756 7.5183 11.665V10.6738ZM13.0295 11.9129C12.5947 11.9129 12.2422 12.2457 12.2422 12.6563V13.6476C12.2422 14.0582 12.5947 14.391 13.0295 14.391C13.4643 14.391 13.8168 14.0582 13.8168 13.6476V12.6563C13.8168 12.2457 13.4643 11.9129 13.0295 11.9129ZM9.61781 16.6214C9.61781 16.2108 9.26531 15.8779 8.83049 15.8779C8.39567 15.8779 8.04318 16.2108 8.04318 16.6214V17.6127C8.04318 18.0233 8.39567 18.3561 8.83049 18.3561C9.26531 18.3561 9.61781 18.0233 9.61781 17.6127V16.6214Z" fill="currentColor"/>
<path d="M15.6814 21.81C15.6067 21.7508 15.5241 21.7054 15.4372 21.6739C15.684 21.4077 15.8721 21.087 15.9771 20.7258C17.2216 20.4381 18.0732 19.3197 17.9448 18.0992C19.021 17.4128 19.4064 16.0705 18.8312 14.961C19.6047 13.9626 19.4745 12.5713 18.5323 11.7162C18.8874 10.5283 18.2504 9.28631 17.085 8.78843C17.0273 8.11043 16.6765 7.51524 16.1572 7.10932C16.1843 7.06521 16.2121 7.02137 16.2407 6.97783C16.8338 6.07424 17.787 5.25995 19.1681 4.98946C19.5939 4.90607 20.0106 5.16439 20.0989 5.56643C20.1872 5.96848 19.9137 6.36199 19.4879 6.44538C18.6195 6.61545 17.9981 7.12286 17.579 7.76125C17.4053 8.02587 17.2716 8.30592 17.174 8.58035C17.5704 8.52242 17.977 8.73528 18.116 9.11845L18.1444 9.1967C18.2787 9.56688 18.6684 9.79831 19.0799 9.75223C19.6088 9.69301 20.0716 10.0878 20.0628 10.5907L20.0608 10.7029C20.0538 11.0995 20.3301 11.451 20.7342 11.5595C21.2572 11.6999 21.5405 12.2332 21.347 12.7131L21.3156 12.791C21.163 13.1693 21.2896 13.5974 21.6277 13.8463C22.0714 14.1728 22.1252 14.792 21.7531 15.1904C21.467 15.4968 21.4194 15.948 21.6423 16.2981L21.67 16.3417C21.9548 16.789 21.7784 17.3705 21.286 17.6076C20.908 17.7896 20.7028 18.1856 20.7827 18.5791L20.8036 18.682C20.9047 19.1798 20.5255 19.6502 19.9904 19.6906C19.5752 19.722 19.2368 20.0181 19.1721 20.4067L19.1549 20.51C19.0722 21.006 18.5392 21.3146 18.0335 21.1591C17.6401 21.0382 17.2112 21.1975 17.0103 21.5391L16.9849 21.5824C16.7227 22.0283 16.095 22.1379 15.6814 21.81Z" fill="currentColor"/>
</svg>
