<svg viewBox="0 0 24 24" fill="currentColor" xmlns="http://www.w3.org/2000/svg">
<path d="M6.75 10.6615C6.75 9.70991 7.5335 8.93846 8.5 8.93846C9.4665 8.93846 10.25 9.70991 10.25 10.6615C10.25 11.6132 9.4665 12.3846 8.5 12.3846C7.5335 12.3846 6.75 11.6132 6.75 10.6615Z" fill="currentColor"/>
<path d="M15.2142 5.481C13.1925 4.95903 10.9536 4.86434 8.92678 5.18495C5.9384 5.65768 4.25266 6.87168 3.42889 8.22789C2.59957 9.59325 2.5656 11.229 3.13328 12.6986C3.70286 14.1732 4.8547 15.4149 6.29683 15.9845C7.70753 16.5416 9.47284 16.487 11.3858 15.2428C11.8877 14.8934 12.6708 14.5471 13.5168 14.3027C14.3745 14.055 15.3742 13.8894 16.3059 13.962C18.0638 14.0991 19.775 13.4369 20.6417 12.3968C21.0627 11.8916 21.2841 11.3025 21.2457 10.646C21.2068 9.98184 20.8967 9.17199 20.1096 8.2509C18.9902 6.94097 17.2419 6.00451 15.2142 5.481ZM8.49997 7.46154C10.2949 7.46154 11.75 8.89423 11.75 10.6615C11.75 12.4288 10.2949 13.8615 8.49997 13.8615C6.70504 13.8615 5.24997 12.4288 5.24997 10.6615C5.24997 8.89423 6.70504 7.46154 8.49997 7.46154Z" fill="currentColor"/>
<path d="M11.8099 19.7904C6.38333 23.3306 1.48294 18.4077 2.04391 13.9236C2.81455 15.436 4.10837 16.7114 5.73837 17.3552C7.64349 18.1077 9.92841 17.9652 12.2241 16.4676L12.2348 16.4606L12.2453 16.4532C12.5655 16.2284 13.1841 15.938 13.9391 15.7199C14.6887 15.5034 15.4967 15.3805 16.1875 15.4344C18.2932 15.5985 20.4867 14.8472 21.738 13.408C22.9803 16.603 19.5812 18.8967 16.2467 18.6367C14.6242 18.5102 12.6315 19.2136 11.8099 19.7904Z" fill="currentColor"/>
</svg>
