<svg viewBox="0 0 24 24" fill="currentColor" xmlns="http://www.w3.org/2000/svg">
<path d="M21.7372 1.8618C21.8135 2.26892 21.5453 2.66083 21.1382 2.73717L12.75 4.30996V6.78382L20.8618 5.26286C21.2689 5.18652 21.6608 5.45468 21.7372 5.8618C21.8135 6.26892 21.5453 6.66083 21.1382 6.73717L12.75 8.30996V12H21C21.5523 12 22.0064 12.4503 21.9416 12.9988C21.8902 13.4343 21.8063 13.8515 21.6956 14.25H2.30433C2.19369 13.8515 2.10976 13.4343 2.05835 12.9988C1.9936 12.4503 2.4477 12 2.99999 12H7.25V9.34121L5.13822 9.73717C4.7311 9.8135 4.33918 9.54535 4.26285 9.13823C4.18651 8.73111 4.45466 8.33919 4.86178 8.26286L7.25 7.81507V5.34121L5.13822 5.73717C4.7311 5.8135 4.33918 5.54535 4.26285 5.13823C4.18651 4.73111 4.45466 4.33919 4.86178 4.26286L7.27414 3.81054C7.35808 3.48806 7.65124 3.25001 8 3.25001C8.25004 3.25001 8.47151 3.37237 8.60778 3.56048L11.25 3.06507V3.00001C11.25 2.5858 11.5858 2.25001 12 2.25001C12.3411 2.25001 12.629 2.47773 12.72 2.78944L20.8618 1.26286C21.2689 1.18652 21.6608 1.45468 21.7372 1.8618ZM11.25 4.59121L8.75 5.05996V7.53382L11.25 7.06507V4.59121ZM11.25 8.59121L8.75 9.05996V12H11.25V8.59121Z" fill="currentColor"/>
<path d="M7 21C7 21.5523 7.44771 22 8 22H16C16.5523 22 17 21.5523 17 21V20.618C17 20.2393 17.216 19.8972 17.5375 19.697C18.6619 18.997 20.1775 17.6621 21.1214 15.75H2.8786C3.82245 17.6621 5.33807 18.997 6.46247 19.697C6.78402 19.8972 7 20.2393 7 20.618V21Z" fill="currentColor"/>
</svg>
