<svg viewBox="0 0 24 24" fill="currentColor" xmlns="http://www.w3.org/2000/svg">
<path d="M13.6087 4.31323C13.2153 4.85948 12.9808 5.48158 12.8586 6.04554C16.8731 6.47391 20 9.87179 20 14C20 18.4183 16.4183 22 12 22C7.58172 22 4 18.4183 4 14C4 10.5256 6.2149 7.56844 9.30977 6.46358C7.9332 5.72061 7 4.28135 7 2.62767V2.54654C7 2.24469 7.24873 2 7.55555 2C9.42804 2 11.0301 3.13918 11.6846 4.75149C11.8569 4.30607 12.0881 3.85799 12.3913 3.43677C13.2804 2.20198 14.7556 1.25 17 1.25C17.4142 1.25 17.75 1.58579 17.75 2C17.75 2.41421 17.4142 2.75 17 2.75C15.2444 2.75 14.2196 3.46468 13.6087 4.31323Z" fill="currentColor"/>
</svg>
