<svg viewBox="0 0 24 24" fill="currentColor" xmlns="http://www.w3.org/2000/svg">
<path d="M5.75 12C5.75 8.54822 8.54822 5.75 12 5.75C15.4518 5.75 18.25 8.54822 18.25 12C18.25 15.4518 15.4518 18.25 12 18.25C8.54822 18.25 5.75 15.4518 5.75 12Z" fill="currentColor"/>
<path d="M12 22C6.47715 22 2 17.5228 2 12C2 6.47715 6.47715 2 12 2C17.5228 2 22 6.47715 22 12C22 17.5228 17.5228 22 12 22ZM12 4.25C7.71979 4.25 4.25 7.71979 4.25 12C4.25 16.2802 7.71979 19.75 12 19.75C16.2802 19.75 19.75 16.2802 19.75 12C19.75 7.71979 16.2802 4.25 12 4.25Z" fill="currentColor"/>
</svg>
