<svg viewBox="0 0 24 24" fill="currentColor" xmlns="http://www.w3.org/2000/svg">
<path d="M2.53033 1.46967C2.23744 1.17678 1.76256 1.17678 1.46967 1.46967C1.17678 1.76256 1.17678 2.23744 1.46967 2.53033L4.39862 5.45929L3.51472 6.34319C3.1242 6.73371 3.1242 7.36688 3.51472 7.7574L6.34315 10.5858C6.73368 10.9764 7.36684 10.9764 7.75736 10.5858L8.64127 9.70193L9.41518 10.4758C8.73572 11.6263 8.89022 13.1329 9.87868 14.1213C10.8671 15.1098 12.3737 15.2643 13.5242 14.5848L14.2981 15.3587L13.4142 16.2426C13.0237 16.6331 13.0237 17.2663 13.4142 17.6568L16.2426 20.4852C16.6332 20.8758 17.2663 20.8758 17.6568 20.4852L18.5407 19.6014L21.4697 22.5303C21.7626 22.8232 22.2374 22.8232 22.5303 22.5303C22.8232 22.2374 22.8232 21.7626 22.5303 21.4697L19.6014 18.5407L20.4853 17.6568C20.8758 17.2663 20.8758 16.6331 20.4853 16.2426L17.6568 13.4142C17.2663 13.0236 16.6332 13.0236 16.2426 13.4142L15.3587 14.2981L14.5848 13.5242C15.2643 12.3737 15.1098 10.8671 14.1213 9.87868C13.1329 8.89023 11.6263 8.73573 10.4758 9.41518L9.70193 8.64126L10.5858 7.7574C10.9763 7.36688 10.9763 6.73371 10.5858 6.34319L7.75736 3.51476C7.36684 3.12423 6.73368 3.12423 6.34315 3.51476L5.45929 4.39862L2.53033 1.46967Z" fill="currentColor"/>
</svg>
