<svg viewBox="0 0 24 24" fill="currentColor" xmlns="http://www.w3.org/2000/svg">
<path d="M15.0173 2.27773C15.3876 1.90742 15.988 1.90742 16.3583 2.27773L21.7223 7.64163C22.0926 8.01194 22.0926 8.61231 21.7223 8.98261L16.636 14.0688C16.4582 14.2466 16.217 14.3465 15.9655 14.3465H12.728C12.4765 14.3465 12.2353 14.2466 12.0575 14.0688L11.4971 13.5084L7.47413 17.5314L7.64174 17.6993C8.01205 18.0696 8.01205 18.67 7.64174 19.0403L4.95974 21.7223C4.58943 22.0926 3.98904 22.0926 3.61873 21.7223L2.27773 20.3813C1.90742 20.011 1.90742 19.4106 2.27773 19.0403L4.95974 16.3584C5.33004 15.9881 5.93043 15.9881 6.30074 16.3584L6.46819 16.5258L10.4914 12.5027L9.93097 11.9423C9.75315 11.7645 9.65324 11.5233 9.65324 11.2718V8.0344C9.65324 7.78292 9.75315 7.54173 9.93097 7.36391L15.0173 2.27773ZM16.1906 3.78653C15.9129 3.5088 15.4626 3.5088 15.1849 3.78653L12.5029 6.46848C12.2251 6.74621 12.2251 7.19649 12.5029 7.47422C12.7806 7.75194 13.2309 7.75194 13.5086 7.47422L16.1906 4.79226C16.4684 4.51454 16.4684 4.06425 16.1906 3.78653ZM18.2022 6.80351C18.4799 6.52579 18.4799 6.07551 18.2022 5.79778C17.9244 5.52006 17.4741 5.52006 17.1964 5.79778L14.5144 8.47973C14.2367 8.75746 14.2367 9.20774 14.5144 9.48547C14.7921 9.76319 15.2424 9.76319 15.5201 9.48547L18.2022 6.80351ZM20.2136 7.80949C19.9359 7.53177 19.4856 7.53177 19.2079 7.80949L16.5259 10.4914C16.2482 10.7692 16.2482 11.2195 16.5259 11.4972C16.8036 11.7749 17.2539 11.7749 17.5316 11.4972L20.2136 8.81523C20.4914 8.5375 20.4914 8.08722 20.2136 7.80949Z" fill="currentColor"/>
</svg>
