<svg viewBox="0 0 24 24" fill="currentColor" xmlns="http://www.w3.org/2000/svg">
<path d="M2.04391 13.9236C1.48294 18.4077 6.38333 23.3306 11.8099 19.7904C12.6315 19.2136 14.6242 18.5102 16.2467 18.6367C19.5812 18.8967 22.9803 16.603 21.738 13.408C20.4867 14.8472 18.2932 15.5985 16.1875 15.4344C15.4967 15.3805 14.6887 15.5034 13.9391 15.7199C13.1841 15.938 12.5655 16.2284 12.2453 16.4532L12.2348 16.4606L12.2241 16.4676C9.92841 17.9652 7.64349 18.1077 5.73837 17.3552C4.10837 16.7114 2.81455 15.436 2.04391 13.9236Z" fill="currentColor"/>
<path d="M15.2142 5.481C17.2419 6.00451 18.9902 6.94097 20.1096 8.2509C20.8967 9.17199 21.2068 9.98184 21.2457 10.646C21.2841 11.3025 21.0626 11.8916 20.6416 12.3968C19.775 13.4369 18.0637 14.0991 16.3058 13.962C15.3741 13.8894 14.3745 14.055 13.5168 14.3027C12.6708 14.5471 11.8877 14.8934 11.3857 15.2428C9.47284 16.487 7.70753 16.5416 6.29683 15.9845C4.8547 15.4149 3.70286 14.1731 3.13328 12.6986C2.5656 11.229 2.59957 9.59325 3.42889 8.22789C4.25266 6.87168 5.9384 5.65768 8.92678 5.18495C10.9536 4.86434 13.1924 4.95903 15.2142 5.481ZM10.4801 8.61731C10.1619 8.35622 9.68901 8.39855 9.42384 8.71186C9.15867 9.02518 9.20166 9.49082 9.51987 9.75192L12.5198 12.2135C12.838 12.4745 13.311 12.4322 13.5761 12.1189C13.8413 11.8056 13.7983 11.3399 13.4801 11.0789L10.4801 8.61731ZM14.4801 8.61731C14.1619 8.35622 13.689 8.39855 13.4238 8.71186C13.1586 9.02518 13.2016 9.49082 13.5198 9.75192L16.5198 12.2135C16.838 12.4745 17.311 12.4322 17.5761 12.1189C17.8413 11.8056 17.7983 11.3399 17.4801 11.0789L14.4801 8.61731ZM6.98014 9.10962C6.66193 8.84853 6.18901 8.89086 5.92384 9.20417C5.65867 9.51748 5.70166 9.98313 6.01987 10.2442L9.01987 12.7058C9.33807 12.9669 9.811 12.9245 10.0761 12.6112C10.3413 12.2979 10.2983 11.8323 9.98014 11.5712L6.98014 9.10962Z" fill="currentColor"/>
</svg>
