<svg viewBox="0 0 24 24" fill="currentColor" xmlns="http://www.w3.org/2000/svg">
<path d="M2.00438 16.7168C1.98561 17.2315 2.02386 17.7508 2.18322 18.2406C2.26976 18.5066 2.36968 18.7587 2.46112 18.9344C2.64002 19.2795 2.93356 19.7063 3.11342 19.8866C3.26539 20.0382 3.59261 20.2707 3.89835 20.4471C3.95196 20.4777 4.00468 20.5063 4.05536 20.5321C4.23214 20.6241 4.48906 20.7266 4.7595 20.8152C5.24899 20.9757 5.76833 21.0145 6.28313 20.9957C11.4058 20.8088 15.0504 18.7935 17.1042 17.0313C18.2417 16.0554 19.0298 14.6374 18.7489 13.1651C18.4266 11.4762 17.3976 9.6575 16.4798 8.3531C15.941 7.5875 15.2746 6.9194 14.5066 6.38413C13.2325 5.49619 11.4812 4.52786 9.83471 4.23098C8.35952 3.965 6.94425 4.75712 5.96828 5.89485C4.20629 7.94888 2.19126 11.5938 2.00438 16.7168ZM9.41678 6.1228C9.71353 6.11009 9.94657 6.18822 10.1159 6.35719C10.2797 6.52072 10.3608 6.75053 10.3507 7.05489C10.3403 7.42505 10.2819 7.54877 9.97556 7.78908C9.7686 7.94656 9.32221 8.17948 8.98369 8.28839C8.49643 8.46397 8.3316 8.46494 8.16775 8.30142C8.00389 8.13789 8.00487 7.9734 8.1808 7.48712C8.28993 7.14927 8.52332 6.70378 8.68112 6.49724C8.92191 6.19151 9.05416 6.12494 9.41678 6.1228ZM12.6939 9.39329C12.9906 9.38058 13.2236 9.45871 13.393 9.62768C13.5568 9.79121 13.6379 10.021 13.6278 10.3254C13.6174 10.6955 13.559 10.8193 13.2526 11.0596C13.0457 11.2171 12.5993 11.45 12.2608 11.5589C11.7735 11.7345 11.6087 11.7354 11.4448 11.5719C11.281 11.4084 11.2819 11.2439 11.4579 10.7576C11.567 10.4198 11.8004 9.97427 11.9582 9.76772C12.199 9.462 12.3312 9.39543 12.6939 9.39329ZM15.2353 13.0382C15.4761 12.7325 15.6083 12.6659 15.9709 12.6638C16.2677 12.6511 16.5007 12.7292 16.67 12.8982C16.8339 13.0617 16.9149 13.2915 16.9049 13.5959C16.8945 13.966 16.836 14.0897 16.5297 14.3301C16.3227 14.4875 15.8764 14.7205 15.5378 14.8294C15.0506 15.005 14.8857 15.0059 14.7219 14.8424C14.558 14.6789 14.559 14.5144 14.7349 14.0281C14.8441 13.6903 15.0775 13.2448 15.2353 13.0382ZM7.73934 11.0674C8.03609 11.0547 8.26913 11.1328 8.43844 11.3018C8.60229 11.4653 8.68335 11.6951 8.67331 11.9995C8.66287 12.3696 8.60446 12.4933 8.29812 12.7336C8.09116 12.8911 7.64477 13.124 7.30624 13.233C6.81898 13.4085 6.65416 13.4095 6.4903 13.246C6.32645 13.0825 6.32742 12.918 6.50336 12.4317C6.61249 12.0938 6.84588 11.6483 7.00368 11.4418C7.24447 11.1361 7.37672 11.0695 7.73934 11.0674ZM10.2807 14.7123C10.5215 14.4066 10.6538 14.34 11.0164 14.3379C11.3132 14.3251 11.5462 14.4033 11.7155 14.5722C11.8794 14.7358 11.9604 14.9656 11.9504 15.2699C11.9399 15.6401 11.8815 15.7638 11.5752 16.0041C11.3682 16.1616 10.9218 16.3945 10.5833 16.5034C10.0961 16.679 9.93123 16.68 9.76738 16.5165C9.60352 16.3529 9.60449 16.1885 9.78043 15.7022C9.88956 15.3643 10.1229 14.9188 10.2807 14.7123ZM6.0619 16.0119C6.35865 15.9992 6.59168 16.0773 6.761 16.2463C6.92485 16.4098 7.0059 16.6397 6.99586 16.944C6.98543 17.3142 6.92701 17.4379 6.62068 17.6782C6.41372 17.8357 5.96733 18.0686 5.6288 18.1775C5.14154 18.3531 4.97672 18.3541 4.81286 18.1905C4.64901 18.027 4.64998 17.8625 4.82592 17.3762C4.93505 17.0384 5.16843 16.5929 5.32623 16.3864C5.56703 16.0806 5.69928 16.0141 6.0619 16.0119Z" fill="currentColor"/>
<path d="M16.5223 1.64792C16.5572 1.31874 16.5918 1.0389 16.6167 1.01408C16.6415 0.98926 16.6827 0.997242 16.7237 1.03812C16.7564 1.07083 16.9932 1.43953 17.238 1.86577C17.491 2.28372 17.768 2.82491 17.8407 3.06299C17.9218 3.2928 18.0094 3.81042 18.1182 4.91186L18.8266 4.97348C19.2302 5.01223 19.7899 5.12408 20.0859 5.23748C20.3819 5.35088 20.9406 5.64367 21.3265 5.8799C21.7041 6.12441 22.0159 6.35286 21.9994 6.36941C21.9827 6.4024 21.7104 6.46158 21.3888 6.48815C21.0672 6.53116 20.6132 6.6572 20.3899 6.78189C20.1585 6.89839 19.7529 7.20509 19.0482 7.90832L19.6229 8.28326C19.9349 8.47881 20.3533 8.7971 20.5499 8.99333C20.7383 9.18138 21.0492 9.57432 21.237 9.86107C21.4167 10.1396 21.6364 10.6071 21.8791 11.3788L21.2881 10.9875C20.9597 10.7756 20.4832 10.5152 20.2284 10.4098C19.9735 10.3044 19.5786 10.1916 19.3482 10.1436C19.3208 10.1394 19.2951 10.1353 19.2709 10.1313C18.79 9.13152 18.2176 8.21621 17.7065 7.48987C17.0692 6.58418 16.2787 5.79082 15.3643 5.1535C14.6729 4.67163 13.8153 4.14221 12.8775 3.69412C12.877 3.6909 12.8765 3.68766 12.8759 3.68439C12.8279 3.45439 12.7148 3.06028 12.6092 2.80594C12.5036 2.55161 12.2427 2.07612 11.6382 1.15854L12.14 1.31185C12.4115 1.40072 12.8799 1.62002 13.1672 1.8075C13.4464 1.98679 13.8401 2.297 14.0285 2.48505C14.2252 2.68128 14.5441 3.09885 15.1157 3.98373L15.5717 3.5287C15.8204 3.2805 16.1277 2.87569 16.2444 2.64472C16.3694 2.42192 16.4875 1.96066 16.5223 1.64792Z" fill="currentColor"/>
</svg>
