<svg viewBox="0 0 24 24" fill="currentColor" xmlns="http://www.w3.org/2000/svg">
<path d="M2.83329 14C2.64729 13.5984 2.60626 13.0674 2.86861 12.3858C3.29324 11.2824 2.98152 10.9534 2.6052 10.5562C2.41186 10.3522 2.20147 10.1302 2.06512 9.77587C1.66338 8.21003 3.18391 7.08017 4.8773 7.68824C6.13375 8.13941 6.71891 7.35945 7.23272 6.67459C7.38601 6.47027 7.53295 6.27441 7.68948 6.12224C8.42312 5.40898 10.5064 4.30191 11.5058 5.60017C12.4106 6.7754 13.0318 6.29679 13.5339 5.90991C13.7454 5.74696 13.9358 5.60029 14.1173 5.60029C14.9208 4.90447 17.0761 5.38454 17.5025 6.78465C18.0579 8.60814 19.3399 8.73198 20.1434 8.73198C21.2024 8.55999 22.9158 9.13609 21.4025 12.7797C19.404 10.0491 16.1633 8.27402 12.5053 8.27402C8.3272 8.27402 4.69348 10.5898 2.83329 14Z" fill="currentColor"/>
<path d="M22 19.5C22 19.7804 21.7672 20 21.4868 20H3.51316C3.2328 20 3 19.7804 3 19.5C3 14.2533 7.25329 10 12.5 10C17.7467 10 22 14.2533 22 19.5ZM8.5 14.75C8.5 14.3358 8.16421 14 7.75 14C7.33579 14 7 14.3358 7 14.75C7 15.1642 7.33579 15.5 7.75 15.5C8.16421 15.5 8.5 15.1642 8.5 14.75ZM11.75 17.5C12.1642 17.5 12.5 17.1642 12.5 16.75C12.5 16.3358 12.1642 16 11.75 16C11.3358 16 11 16.3358 11 16.75C11 17.1642 11.3358 17.5 11.75 17.5ZM18.5 16.75C18.5 16.3358 18.1642 16 17.75 16C17.3358 16 17 16.3358 17 16.75C17 17.1642 17.3358 17.5 17.75 17.5C18.1642 17.5 18.5 17.1642 18.5 16.75ZM13.75 13.5C14.1642 13.5 14.5 13.1642 14.5 12.75C14.5 12.3358 14.1642 12 13.75 12C13.3358 12 13 12.3358 13 12.75C13 13.1642 13.3358 13.5 13.75 13.5Z" fill="currentColor"/>
</svg>
