<svg viewBox="0 0 24 24" fill="currentColor" xmlns="http://www.w3.org/2000/svg">
<path d="M10 5C10 6.65685 8.65685 8 7 8C5.34315 8 4 6.65685 4 5C4 3.34315 5.34315 2 7 2C8.65685 2 10 3.34315 10 5Z" fill="currentColor"/>
<path d="M14 5C14 6.65685 15.3431 8 17 8C18.6569 8 20 6.65685 20 5C20 3.34315 18.6569 2 17 2C15.3431 2 14 3.34315 14 5Z" fill="currentColor"/>
<path d="M10.8988 10H3.10116C2.32911 10 1.79721 10.7533 2.07436 11.4542L5.9732 21.3141C6.33484 22.2286 7.66516 22.2286 8.0268 21.3141L11.9256 11.4542C12.2028 10.7533 11.6709 10 10.8988 10Z" fill="currentColor"/>
<path d="M13.1012 22H20.8988C21.6709 22 22.2028 21.2467 21.9256 20.5458L18.0268 10.6859C17.6652 9.77135 16.3348 9.77136 15.9732 10.6859L12.0744 20.5458C11.7972 21.2467 12.3291 22 13.1012 22Z" fill="currentColor"/>
</svg>
