<svg viewBox="0 0 24 24" fill="currentColor" xmlns="http://www.w3.org/2000/svg">
<path d="M18.4826 18.4826C22.8863 14.0788 23.155 7.10596 19.2887 2.38868C18.8683 1.87571 18.1024 1.87907 17.6334 2.34806L16.572 3.40939C20.2066 7.04409 20.2065 12.937 16.5719 16.5716C12.9373 20.2062 7.04439 20.2063 3.40969 16.5717L2.34806 17.6334C1.87907 18.1024 1.87571 18.8683 2.38868 19.2887C7.10596 23.155 14.0788 22.8863 18.4826 18.4826Z" fill="currentColor"/>
<path d="M15.2981 15.2978C18.2292 12.3667 18.2293 7.61438 15.2983 4.68317L4.68347 15.298C7.61468 18.229 12.367 18.2289 15.2981 15.2978ZM13.1752 11.9014L14.0243 12.7506C14.3761 13.1024 14.3761 13.6726 14.0243 14.0244C13.6726 14.3761 13.1023 14.3761 12.7506 14.0244L11.9014 13.1752C11.5496 12.8235 11.5496 12.2532 11.9014 11.9014C12.2531 11.5497 12.8234 11.5497 13.1752 11.9014ZM12.6007 9.29121C12.472 8.81072 12.7571 8.31683 13.2376 8.18809L14.3976 7.87726C14.8781 7.74851 15.372 8.03366 15.5008 8.51415C15.6295 8.99464 15.3444 9.48853 14.8639 9.61727L13.7039 9.9281C13.2234 10.0568 12.7295 9.7717 12.6007 9.29121ZM8.18825 13.2376C8.317 12.7571 8.81088 12.4719 9.29137 12.6007C9.77186 12.7294 10.057 13.2233 9.92826 13.7038L9.61744 14.8638C9.48869 15.3443 8.99481 15.6294 8.51432 15.5007C8.03383 15.3719 7.74868 14.8781 7.87743 14.3976L8.18825 13.2376Z" fill="currentColor"/>
</svg>
