<svg viewBox="0 0 24 24" fill="currentColor" xmlns="http://www.w3.org/2000/svg">
<path d="M20 13.8108C20 18.8859 16.4183 22 12 22C7.58172 22 4 18.8859 4 13.8108C4 13.4973 4.01336 13.1774 4.03948 12.8532C4.07027 12.4711 4.51162 12.2916 4.81437 12.5267L7.39723 14.532C7.75317 14.8084 8.24999 14.8125 8.6105 14.5421L11.4 12.45C11.7556 12.1833 12.2444 12.1833 12.6 12.45L15.3895 14.5421C15.75 14.8125 16.2468 14.8084 16.6028 14.532L19.1856 12.5267C19.4884 12.2916 19.9297 12.4711 19.9605 12.8532C19.9866 13.1774 20 13.4973 20 13.8108Z" fill="currentColor"/>
<path d="M17 6.5C17 7.59849 16.5627 8.60505 15.8362 9.38634C16.6195 10.0384 17.2342 10.8863 17.6051 11.8547L15.9843 13.1132L13.5 11.25C12.6111 10.5833 11.3889 10.5833 10.5 11.25L8.01576 13.1132L6.3949 11.8547C6.76579 10.8863 7.38048 10.0384 8.16386 9.38635C7.43734 8.60506 7 7.5985 7 6.5C7 4.01472 9.23858 2 12 2C14.7614 2 17 4.01472 17 6.5ZM10.5 5.75C10.5 5.33579 10.1642 5 9.75 5C9.33579 5 9 5.33579 9 5.75C9 6.16421 9.33579 6.5 9.75 6.5C10.1642 6.5 10.5 6.16421 10.5 5.75ZM15 5.75C15 5.33579 14.6642 5 14.25 5C13.8358 5 13.5 5.33579 13.5 5.75C13.5 6.16421 13.8358 6.5 14.25 6.5C14.6642 6.5 15 6.16421 15 5.75ZM12.0716 8.49662C12.2611 8.47863 12.4748 8.31625 12.6551 8.11111C12.9178 7.81213 13.049 7.24359 12.9832 7.14622C12.9667 7.12186 12.9425 7.09924 12.9116 7.07938C12.7879 7 12.5253 7 12 7C11.4747 7 11.2121 7 11.0884 7.07938C11.0575 7.09924 11.0332 7.12186 11.0168 7.14622C10.951 7.24359 11.0822 7.81213 11.3449 8.11111C11.5252 8.31625 11.7389 8.47863 11.9283 8.49662C11.9757 8.50113 12.0242 8.50113 12.0716 8.49662Z" fill="currentColor"/>
</svg>
