<svg viewBox="0 0 24 24" fill="currentColor" xmlns="http://www.w3.org/2000/svg">
<path d="M14.8647 13.416C14.7748 11.5338 15.2292 9.63042 16.2276 7.96153C15.9748 7.68303 15.712 7.40713 15.4396 7.13472C14.1411 5.83622 12.7632 4.75632 11.4029 3.92736L10.1565 5.17372C9.8636 5.46662 9.38873 5.46662 9.09584 5.17372C8.80295 4.88083 8.80295 4.40596 9.09584 4.11306L10.0343 3.17457C7.09946 1.73549 4.40708 1.5575 2.98229 2.98229C0.974532 4.99005 2.14946 9.51487 5.55095 13.6884C7.1454 12.7554 8.94827 12.3146 10.7395 12.3663L12.3002 10.8056C12.5931 10.5127 13.0679 10.5127 13.3608 10.8056C13.6537 11.0985 13.6537 11.5734 13.3608 11.8663L12.6221 12.605C13.3931 12.7803 14.1469 13.0507 14.8647 13.416ZM12.6479 6.60444C12.9408 6.89733 12.9408 7.3722 12.6479 7.6651L10.987 9.32607C10.6941 9.61896 10.2192 9.61896 9.92631 9.32607C9.63342 9.03317 9.63342 8.5583 9.92631 8.26541L11.5873 6.60444C11.8802 6.31154 12.3551 6.31154 12.6479 6.60444ZM4.94342 3.28266C5.23632 2.98976 5.71119 2.98976 6.00409 3.28266C6.29698 3.57555 6.29698 4.05043 6.00409 4.34332L4.34311 6.00429C4.05022 6.29718 3.57535 6.29718 3.28245 6.00429C2.98956 5.7114 2.98956 5.23652 3.28245 4.94363L4.94342 3.28266ZM6.6044 8.26508C6.8973 7.97219 7.37217 7.97219 7.66507 8.26508C7.95796 8.55797 7.95796 9.03285 7.66507 9.32574L6.00409 10.9867C5.7112 11.2796 5.23633 11.2796 4.94343 10.9867C4.65054 10.6938 4.65054 10.2189 4.94343 9.92605L6.6044 8.26508Z" fill="currentColor"/>
<path d="M18.7614 18.7616C15.8319 15.832 15.5754 11.2417 17.9919 8.02131C18.3812 7.50249 19.1332 7.50659 19.5919 7.96525C22.3148 10.6881 22.7284 14.8458 20.8329 18.0046L21.1923 18.364C21.5828 18.7546 21.5828 19.3877 21.1923 19.7782L19.7781 21.1925C19.3875 21.583 18.7544 21.583 18.3639 21.1925L18.0045 20.8331C14.8456 22.7286 10.688 22.3149 7.96513 19.5921L5.47368 17.1006C5.01501 16.6419 5.01091 15.8899 5.52973 15.5006C8.7501 13.0841 13.3404 13.3406 16.27 16.2701L18.7614 18.7616Z" fill="currentColor"/>
</svg>
