<svg viewBox="0 0 24 24" fill="currentColor" xmlns="http://www.w3.org/2000/svg">
<path d="M5.23092 8.37973C5.98453 8.01456 7.07901 8.1724 7.66643 8.33036C7.11896 7.64704 6.79301 6.78873 6.79301 5.85664C6.79301 4.82183 7.19476 3.87796 7.85535 3.16352C8.26036 2.7255 8.87581 3.24157 8.87581 3.83814C8.87581 4.79283 9.21776 5.67012 9.78943 6.36125H14.2106C14.7822 5.67012 15.1242 4.79283 15.1242 3.83814C15.1242 3.24157 15.7396 2.7255 16.1446 3.16352C16.8052 3.87796 17.207 4.82183 17.207 5.85664C17.207 6.78873 16.881 7.64704 16.3336 8.33036C16.921 8.1724 18.0155 8.01456 18.7691 8.37973L21.1264 9.29356C21.2524 9.34242 21.3838 9.3754 21.5151 9.40835C21.554 9.41813 21.593 9.42791 21.6317 9.4381C21.8733 9.50152 22.1593 9.63585 21.8933 9.89363C21.8136 9.97089 21.7094 10.0955 21.5809 10.2493C20.8698 11.0999 19.4119 12.8441 17.207 12.4167L17.2002 12.4154C17.1956 12.4427 17.1888 12.4696 17.1798 12.4958L16.3115 15.0203C16.3014 15.0498 16.2887 15.0777 16.2738 15.104C16.105 14.9327 15.9238 14.7745 15.7337 14.6306C14.726 13.8679 13.401 13.4398 12 13.4398C10.599 13.4398 9.27397 13.8679 8.26627 14.6306C8.07946 14.7721 7.90125 14.9272 7.73487 15.0952C7.70857 15.0577 7.68702 15.0159 7.67137 14.9705L6.8202 12.4958C6.81118 12.4696 6.80437 12.4427 6.79983 12.4154L6.79301 12.4167C4.58814 12.8441 3.13019 11.0999 2.41914 10.2493C2.29059 10.0955 2.18645 9.97089 2.10672 9.89363C1.84073 9.63585 2.12674 9.50152 2.36826 9.4381C2.40704 9.42791 2.44598 9.41813 2.48492 9.40836C2.6162 9.3754 2.7476 9.34242 2.87364 9.29356L5.23092 8.37973Z" fill="currentColor"/>
<path d="M12 21C14.2091 21 16 19.6569 16 18C16 16.3431 14.2091 15 12 15C9.79086 15 8 16.3431 8 18C8 19.6569 9.79086 21 12 21ZM10 17.5H11C11.2761 17.5 11.5 17.7239 11.5 18C11.5 18.2762 11.2761 18.5 11 18.5H10C9.72386 18.5 9.5 18.2762 9.5 18C9.5 17.7239 9.72386 17.5 10 17.5ZM12.5 18C12.5 17.7239 12.7239 17.5 13 17.5H14C14.2761 17.5 14.5 17.7239 14.5 18C14.5 18.2762 14.2761 18.5 14 18.5H13C12.7239 18.5 12.5 18.2762 12.5 18Z" fill="currentColor"/>
</svg>
