<svg viewBox="0 0 24 24" fill="currentColor" xmlns="http://www.w3.org/2000/svg">
<path d="M4.83458 6C4.35129 6 3.93716 6.34563 3.85071 6.82112L2.06427 16.6465C2.02273 16.7564 2 16.8756 2 17C2 17.5523 2.44772 18 3 18H21C21.5523 18 22 17.5523 22 17C22 16.8756 21.9773 16.7564 21.9357 16.6465L20.1493 6.82112C20.0628 6.34563 19.6487 6 19.1654 6H18C17.4477 6 17 6.44772 17 7V16H7V7C7 6.44772 6.55228 6 6 6H4.83458Z" fill="currentColor"/>
<path d="M14.6003 6.9617C13.5562 6.43963 12.2951 6.64427 11.4697 7.46973C11.1007 7.83865 10.5372 7.93011 10.0705 7.69678L9.33545 7.32924C8.96497 7.144 8.51446 7.29417 8.32922 7.66465C8.14398 8.03513 8.29415 8.48564 8.66463 8.67088L9.39972 9.03843C10.4438 9.56049 11.7049 9.35585 12.5303 8.53039C12.8993 8.16147 13.4628 8.07001 13.9295 8.30334L14.6646 8.67088C15.0351 8.85612 15.4856 8.70595 15.6708 8.33547C15.8561 7.96499 15.7059 7.51448 15.3354 7.32924L14.6003 6.9617Z" fill="currentColor"/>
<path d="M11.4697 10.4698C12.2951 9.64426 13.5562 9.43962 14.6003 9.96169L15.3354 10.3293C15.7059 10.5145 15.8561 10.965 15.6708 11.3355C15.4856 11.706 15.0351 11.8562 14.6646 11.6709L13.9295 11.3034C13.4628 11.0701 12.8993 11.1615 12.5303 11.5304C11.7049 12.3559 10.4438 12.5605 9.39972 12.0385L8.66463 11.6709C8.29415 11.4857 8.14398 11.0352 8.32922 10.6647C8.51446 10.2942 8.96497 10.144 9.33545 10.3293L10.0705 10.6968C10.5372 10.9301 11.1007 10.8387 11.4697 10.4698Z" fill="currentColor"/>
<path d="M14.6003 12.9617C13.5562 12.4397 12.2951 12.6443 11.4697 13.4698C11.1007 13.8387 10.5372 13.9301 10.0705 13.6968L9.33545 13.3293C8.96497 13.144 8.51446 13.2942 8.32922 13.6647C8.14398 14.0352 8.29415 14.4857 8.66463 14.6709L9.39972 15.0385C10.4438 15.5605 11.7049 15.3559 12.5303 14.5304C12.8993 14.1615 13.4628 14.0701 13.9295 14.3034L14.6646 14.6709C15.0351 14.8562 15.4856 14.706 15.6708 14.3355C15.8561 13.965 15.7059 13.5145 15.3354 13.3293L14.6003 12.9617Z" fill="currentColor"/>
</svg>
