<svg viewBox="0 0 24 24" fill="currentColor" xmlns="http://www.w3.org/2000/svg">
<path d="M2.43999 19.513L15.3104 7.03098L18.3738 4.05998L19.4356 3.03023C20.0222 2.46128 20.9734 2.46128 21.56 3.03023C22.1467 3.59918 22.1467 4.52163 21.56 5.09058L20.4982 6.12032L17.3037 9.21851L4.56444 21.5734C3.97779 22.1423 3.02664 22.1423 2.43999 21.5734C1.85334 21.0044 1.85334 20.082 2.43999 19.513Z" fill="currentColor"/>
<path d="M12 2C9.53412 2 7.26448 2.81489 5.46179 4.18215C6.03592 4.10189 6.62295 4.06035 7.21999 4.06035C10.3229 4.06035 13.1557 5.18238 15.3104 7.03092L18.3738 4.05992C16.5984 2.76646 14.3915 2 12 2Z" fill="currentColor"/>
</svg>
