<svg viewBox="0 0 24 24" fill="currentColor" xmlns="http://www.w3.org/2000/svg">
<path d="M13.1218 2.64036C13.4716 3.20049 13.8171 3.85038 14.0147 4.48107C14.5011 4.03361 15.1253 3.64356 15.7083 3.33333C16.5969 2.86047 17.6165 3.44917 17.6513 4.45514C17.6742 5.1152 17.6485 5.85092 17.5041 6.49595C18.1491 6.35164 18.8848 6.32596 19.5448 6.34878C20.5508 6.38358 21.1395 7.40323 20.6666 8.29183C20.3564 8.87476 19.9664 9.49895 19.519 9.98536C20.1496 10.1829 20.7995 10.5284 21.3596 10.8782C22.2135 11.4113 22.2135 12.5887 21.3596 13.1218C20.7995 13.4716 20.1495 13.8172 19.5188 14.0147C19.9663 14.5011 20.3564 15.1254 20.6666 15.7084C21.1395 16.597 20.5508 17.6167 19.5448 17.6515C18.8848 17.6743 18.1492 17.6486 17.5042 17.5043C17.6485 18.1493 17.6742 18.8849 17.6513 19.5449C17.6166 20.5508 16.5969 21.1395 15.7083 20.6667C15.1253 20.3564 14.5011 19.9664 14.0147 19.5189C13.8171 20.1496 13.4716 20.7995 13.1218 21.3596C12.5887 22.2135 11.4113 22.2135 10.8782 21.3596C10.5284 20.7995 10.1829 20.1496 9.98534 19.5189C9.49892 19.9664 8.87468 20.3564 8.29169 20.6667C7.4031 21.1395 6.38344 20.5508 6.34865 19.5449C6.32583 18.8849 6.3515 18.1493 6.49579 17.5043C5.85081 17.6486 5.11519 17.6743 4.45521 17.6515C3.44923 17.6167 2.86053 16.597 3.33339 15.7084C3.64364 15.1254 4.03373 14.5011 4.48122 14.0147C3.85048 13.8172 3.20053 13.4716 2.64036 13.1218C1.78655 12.5887 1.78655 11.4113 2.64036 10.8782C3.20048 10.5284 3.85035 10.1829 4.48104 9.98536C4.03362 9.49895 3.6436 8.87476 3.3334 8.29183C2.86053 7.40323 3.44923 6.38358 4.45521 6.34878C5.11522 6.32596 5.85087 6.35164 6.49586 6.49595C6.35152 5.85092 6.32583 5.1152 6.34866 4.45514C6.38345 3.44917 7.40311 2.86047 8.2917 3.33333C8.87469 3.64356 9.49892 4.03361 9.98534 4.48107C10.1829 3.85038 10.5284 3.20049 10.8782 2.64036C11.4113 1.78655 12.5887 1.78655 13.1218 2.64036ZM12 17.4565C15.0135 17.4565 17.4564 15.0136 17.4564 12.0001C17.4564 8.98656 15.0135 6.54364 12 6.54364C8.98649 6.54364 6.54357 8.98656 6.54357 12.0001C6.54357 15.0136 8.98649 17.4565 12 17.4565Z" fill="currentColor"/>
<path d="M10.0903 13.637C10.0903 14.089 9.72385 14.4554 9.27183 14.4554C8.81981 14.4554 8.45337 14.089 8.45337 13.637C8.45337 13.185 8.81981 12.8185 9.27183 12.8185C9.72385 12.8185 10.0903 13.185 10.0903 13.637Z" fill="currentColor"/>
<path d="M10.0903 10.3631C10.0903 10.8152 9.72385 11.1816 9.27183 11.1816C8.81981 11.1816 8.45337 10.8152 8.45337 10.3631C8.45337 9.91112 8.81981 9.54468 9.27183 9.54468C9.72385 9.54468 10.0903 9.91112 10.0903 10.3631Z" fill="currentColor"/>
<path d="M12.8185 12.0001C12.8185 12.4521 12.452 12.8185 12 12.8185C11.548 12.8185 11.1815 12.4521 11.1815 12.0001C11.1815 11.548 11.548 11.1816 12 11.1816C12.452 11.1816 12.8185 11.548 12.8185 12.0001Z" fill="currentColor"/>
<path d="M12.8185 8.45335C12.8185 8.90538 12.452 9.27182 12 9.27182C11.548 9.27182 11.1815 8.90538 11.1815 8.45335C11.1815 8.00133 11.548 7.63489 12 7.63489C12.452 7.63489 12.8185 8.00133 12.8185 8.45335Z" fill="currentColor"/>
<path d="M12.8185 15.5467C12.8185 15.9987 12.452 16.3652 12 16.3652C11.548 16.3652 11.1815 15.9987 11.1815 15.5467C11.1815 15.0947 11.548 14.7283 12 14.7283C12.452 14.7283 12.8185 15.0947 12.8185 15.5467Z" fill="currentColor"/>
<path d="M15.5467 13.637C15.5467 14.089 15.1802 14.4554 14.7282 14.4554C14.2762 14.4554 13.9097 14.089 13.9097 13.637C13.9097 13.185 14.2762 12.8185 14.7282 12.8185C15.1802 12.8185 15.5467 13.185 15.5467 13.637Z" fill="currentColor"/>
<path d="M15.5467 10.3631C15.5467 10.8152 15.1802 11.1816 14.7282 11.1816C14.2762 11.1816 13.9097 10.8152 13.9097 10.3631C13.9097 9.91112 14.2762 9.54468 14.7282 9.54468C15.1802 9.54468 15.5467 9.91112 15.5467 10.3631Z" fill="currentColor"/>
</svg>
