<svg viewBox="0 0 24 24" fill="currentColor" xmlns="http://www.w3.org/2000/svg">
<path d="M11.273 6.50018C11.3052 5.51065 11.5391 3.91764 12.6121 2.88028C13.7366 1.79316 15.4927 1.5964 16.5 1.58164C16.9599 1.5749 17.315 1.91797 17.3081 2.36242C17.2932 3.33596 17.0902 5.03328 15.9658 6.1204C15.0629 6.9933 13.7527 7.29216 12.75 7.38369V11.0002H19C19.5523 11.0002 20 11.4479 20 12.0002V13.0002C20 13.5525 19.5523 14.0002 19 14.0002H18L17.1095 21.1242C17.0469 21.6246 16.6215 22.0002 16.1172 22.0002H7.88278C7.37846 22.0002 6.95306 21.6246 6.8905 21.1242L6 14.0002H5C4.44772 14.0002 4 13.5525 4 13.0002V12.0002C4 11.4479 4.44772 11.0002 5 11.0002H11.25V6.50018H11.273Z" fill="currentColor"/>
</svg>
