<svg viewBox="0 0 24 24" fill="currentColor" xmlns="http://www.w3.org/2000/svg">
<path d="M13.5303 3.29654C13.8232 2.99994 13.8232 2.51905 13.5303 2.22245C13.2375 1.92585 12.7626 1.92585 12.4697 2.22245C11.8154 2.88501 11.4758 3.72092 11.3042 4.55616C11.1307 4.32393 10.9246 4.12728 10.7197 3.97494C10.2273 3.6088 9.45263 3.28861 8.73087 3.5696C8.34424 3.72012 8.15131 4.15953 8.29995 4.55105C8.44859 4.94257 8.88251 5.13794 9.26913 4.98742C9.26913 4.98742 9.32004 4.97019 9.43899 5.00105C9.55474 5.03108 9.6946 5.09723 9.8319 5.19932C10.1362 5.42562 10.2489 5.68058 10.25 5.80461C10.2505 5.85365 10.2555 5.90155 10.2647 5.94792C6.12448 6.67586 3 9.95885 3 13.8987C3 18.3729 7.02944 22 12 22C16.9706 22 21 18.3729 21 13.8987C21 10.1333 18.1461 6.9679 14.2791 6.05949C14.8675 5.74614 15.4677 5.5443 16 5.5443C16.4142 5.5443 16.75 5.20427 16.75 4.78481C16.75 4.36535 16.4142 4.02532 16 4.02532C15.0086 4.02532 14.0393 4.43655 13.273 4.88772C13.0758 5.00385 12.8867 5.1258 12.7081 5.24935C12.8156 4.45107 13.0621 3.77069 13.5303 3.29654ZM18.6025 14.9332C18.9854 15.0931 19.1678 15.5371 19.0099 15.9248C18.3464 17.5542 17.0152 18.8705 15.346 19.6515C14.97 19.8274 14.5243 19.6613 14.3506 19.2806C14.1768 18.8998 14.3408 18.4485 14.7169 18.2726C16.0877 17.6312 17.1215 16.5779 17.6232 15.3458C17.7811 14.958 18.2195 14.7733 18.6025 14.9332Z" fill="currentColor"/>
</svg>
