<svg viewBox="0 0 24 24" fill="currentColor" xmlns="http://www.w3.org/2000/svg">
<path d="M20.1529 4H14.7208C14.2903 4 13.9082 4.27543 13.7721 4.68377L12 10H8.99995V8C8.99995 7.53404 8.68126 7.14252 8.24995 7.0315V5C8.24995 4.58579 7.91416 4.25 7.49995 4.25C7.08574 4.25 6.74995 4.58579 6.74995 5V7.0315C6.31864 7.14252 5.99995 7.53404 5.99995 8V10H5.23449C4.04246 10 3.11508 11.0361 3.24672 12.2209L3.52734 14.7465C3.98875 14.5868 4.48422 14.5 4.99995 14.5C7.48523 14.5 9.49995 16.5147 9.49995 19H11.689C11.5656 18.5206 11.5 18.018 11.5 17.5C11.5 14.1863 14.1863 11.5 17.5 11.5C19.292 11.5 20.9006 12.2856 22 13.5313V10L21.1393 4.8356C21.0589 4.35341 20.6417 4 20.1529 4ZM19.0388 5C19.5338 5 19.9543 5.36214 20.0277 5.85166L20.5 9H14L14.9862 5.71265C15.1131 5.28967 15.5024 5 15.944 5H19.0388ZM5.24996 12.5C5.24996 12.0858 5.58574 11.75 5.99996 11.75H8.99996C9.41417 11.75 9.74996 12.0858 9.74996 12.5C9.74996 12.9142 9.41417 13.25 8.99996 13.25H5.99996C5.58574 13.25 5.24996 12.9142 5.24996 12.5Z" fill="currentColor"/>
<path d="M22 17.5C22 19.9853 19.9853 22 17.5 22C15.0147 22 13 19.9853 13 17.5C13 15.0147 15.0147 13 17.5 13C19.9853 13 22 15.0147 22 17.5ZM20 17.5C20 16.1193 18.8807 15 17.5 15C16.1193 15 15 16.1193 15 17.5C15 18.8807 16.1193 20 17.5 20C18.8807 20 20 18.8807 20 17.5Z" fill="currentColor"/>
<path d="M5 22C6.65685 22 8 20.6569 8 19C8 17.3431 6.65685 16 5 16C3.34315 16 2 17.3431 2 19C2 20.6569 3.34315 22 5 22ZM5 20.5C4.17157 20.5 3.5 19.8284 3.5 19C3.5 18.1716 4.17157 17.5 5 17.5C5.82843 17.5 6.5 18.1716 6.5 19C6.5 19.8284 5.82843 20.5 5 20.5Z" fill="currentColor"/>
</svg>
