<svg viewBox="0 0 24 24" fill="currentColor" xmlns="http://www.w3.org/2000/svg">
<path d="M7.50003 1.25C7.91424 1.25 8.25003 1.58579 8.25003 2V3.11445C8.40579 3.16337 8.55499 3.22713 8.69596 3.30407L9.53036 2.46967C9.82326 2.17678 10.2981 2.17678 10.591 2.46967C10.8839 2.76256 10.8839 3.23744 10.591 3.53033L9.7376 4.38375C9.90554 4.71974 10 5.09884 10 5.5V8C10 8.55228 10.4477 9 11 9H13.5C13.5 5.82436 16.0744 3.25 19.25 3.25C19.6642 3.25 20 3.58579 20 4C20 4.41421 19.6642 4.75 19.25 4.75C16.9028 4.75 15 6.65279 15 9H15.5C15.5 6.92893 17.1789 5.25 19.25 5.25C19.6642 5.25 20 5.58579 20 6C20 6.41421 19.6642 6.75 19.25 6.75C18.0074 6.75 17 7.75736 17 9H17.5C17.5 8.0335 18.2835 7.25 19.25 7.25C19.6642 7.25 20 7.58579 20 8C20 8.41421 19.6642 8.75 19.25 8.75C19.1119 8.75 19 8.86193 19 9C19 12.613 16.2628 15.5866 12.749 15.9604C12.7496 15.9735 12.75 15.9867 12.75 16V19.25H15.6893L17.4697 17.4697C17.7626 17.1768 18.2374 17.1768 18.5303 17.4697C18.8232 17.7626 18.8232 18.2374 18.5303 18.5303L17.0607 20L18.5303 21.4697C18.8232 21.7626 18.8232 22.2374 18.5303 22.5303C18.2374 22.8232 17.7626 22.8232 17.4697 22.5303L15.6893 20.75H12.75V23C12.75 23.4142 12.4142 23.75 12 23.75C11.5858 23.75 11.25 23.4142 11.25 23V20.75H7.81069L8.53036 21.4697C8.82325 21.7626 8.82325 22.2374 8.53036 22.5303C8.23746 22.8232 7.76259 22.8232 7.4697 22.5303L5.4697 20.5303C5.1768 20.2374 5.1768 19.7626 5.4697 19.4697L7.4697 17.4697C7.76259 17.1768 8.23746 17.1768 8.53036 17.4697C8.82325 17.7626 8.82325 18.2374 8.53036 18.5303L7.81069 19.25H11.25V16C11.25 15.9867 11.2503 15.9735 11.251 15.9604C7.73724 15.5866 5.00003 12.613 5.00003 9V8.5625L3.05003 7.1C2.81856 6.9264 2.70759 6.63515 2.76487 6.35154C2.82214 6.06794 3.03743 5.84257 3.31812 5.77239L5.0044 5.35082C5.02569 4.98902 5.12393 4.64791 5.28297 4.34361L4.4697 3.53033C4.1768 3.23744 4.1768 2.76256 4.4697 2.46967C4.76259 2.17678 5.23746 2.17678 5.53036 2.46967L6.34363 3.28295C6.47287 3.2154 6.60875 3.15882 6.75003 3.11445V2C6.75003 1.58579 7.08581 1.25 7.50003 1.25ZM7.50003 6.5C8.05231 6.5 8.50003 6.05228 8.50003 5.5C8.50003 4.94772 8.05231 4.5 7.50003 4.5C6.94775 4.5 6.50003 4.94772 6.50003 5.5C6.50003 6.05228 6.94775 6.5 7.50003 6.5Z" fill="currentColor"/>
</svg>
