<svg viewBox="0 0 24 24" fill="currentColor" xmlns="http://www.w3.org/2000/svg">
<path d="M21.9984 2C21.9984 1.58579 21.6627 1.25 21.2484 1.25C20.8342 1.25 20.4984 1.58579 20.4984 2V4.25001H17.8546C17.5579 3.51705 16.8393 3 16 3H8C7.16065 3 6.44207 3.51705 6.14538 4.25001H3.49939V2.00001C3.49939 1.58579 3.1636 1.25001 2.74939 1.25001C2.33518 1.25001 1.99939 1.58579 1.99939 2.00001V12C1.99939 12.0102 1.99959 12.0204 2 12.0305V13.1231C2.08819 13.2378 2.20389 13.3597 2.35338 13.4883C2.81652 13.8864 3.53057 14.279 4.47813 14.6236C6.3671 15.3105 9.02637 15.75 12 15.75C14.9736 15.75 17.6329 15.3105 19.5219 14.6236C20.4694 14.279 21.1835 13.8864 21.6466 13.4883C21.7961 13.3597 21.9118 13.2378 22 13.1231V12C22 11.9822 21.9995 11.9644 21.9984 11.9466V2ZM12.75 13.9903V10.0097C16.6089 10.109 20 10.9622 20 12C20 13.0378 16.6089 13.891 12.75 13.9903ZM11.25 10.0097V13.9903C7.39113 13.891 4 13.0378 4 12C4 10.9622 7.39113 10.109 11.25 10.0097ZM12.75 9.00831V7H16C16.8393 7 17.5579 6.48296 17.8546 5.75001H20.4984V10.4181C18.858 9.62664 16.0233 9.08112 12.75 9.00831ZM11.25 7V9.00831C7.97528 9.08115 5.13948 9.62712 3.49939 10.4192V5.75001H6.14538C6.44208 6.48296 7.16066 7 8 7H11.25Z" fill="currentColor"/>
<path d="M2 15.0887V18.9999C2 20.6568 6.47715 21.9999 12 21.9999C17.5228 21.9999 22 20.6568 22 18.9999V15.0887C21.4426 15.4488 20.7754 15.7637 20.0345 16.0332C17.9422 16.794 15.1015 17.2499 12 17.2499C8.8985 17.2499 6.05777 16.794 3.96552 16.0332C3.22456 15.7637 2.55737 15.4488 2 15.0887Z" fill="currentColor"/>
</svg>
