<svg viewBox="0 0 24 24" fill="currentColor" xmlns="http://www.w3.org/2000/svg">
<path d="M4.28128 3.51934C3.87284 3.94466 3.9148 4.64652 4.37075 5.0158L8.95422 8.72811C9.15563 8.89124 9.40188 8.95863 9.63991 8.93374L10.9815 10.3307L9.63991 11.7278C9.40189 11.7029 9.15563 11.7703 8.95423 11.9334L4.37075 15.6457C3.91481 16.015 3.87285 16.7168 4.28128 17.1422L5.45902 18.3686C5.86746 18.7939 6.54145 18.7502 6.89607 18.2754L10.461 13.5024C10.6176 13.2927 10.6824 13.0363 10.6585 12.7884L12 11.3914L13.3415 12.7884C13.3176 13.0363 13.3824 13.2927 13.539 13.5024L17.1039 18.2754C17.4586 18.7502 18.1325 18.7939 18.541 18.3686L19.7187 17.1422C20.1272 16.7168 20.0852 16.015 19.6292 15.6457L15.0458 11.9334C14.8444 11.7703 14.5981 11.7029 14.3601 11.7278L13.0185 10.3307L14.3601 8.93374C14.5981 8.95863 14.8444 8.89124 15.0458 8.72811L19.6293 5.0158C20.0852 4.64652 20.1272 3.94466 19.7187 3.51934L18.541 2.29291C18.1325 1.86759 17.4586 1.91128 17.1039 2.38608L13.539 7.15905C13.3824 7.36878 13.3176 7.62522 13.3415 7.87308L12 9.27009L10.6585 7.87308C10.6824 7.62522 10.6176 7.36878 10.461 7.15905L6.89607 2.38608C6.54144 1.91128 5.86746 1.86759 5.45902 2.29291L4.28128 3.51934Z" fill="currentColor"/>
<path d="M4 21.25C4 20.8358 4.31269 20.5 4.6984 20.5H6.02169L6.19136 19.6608C6.74201 19.6447 7.28468 19.384 7.65408 18.8894L11.219 14.1164C11.4192 13.8484 11.5443 13.5418 11.5961 13.2263L12 12.8057L12.4039 13.2263C12.4557 13.5418 12.5808 13.8484 12.781 14.1164L16.3459 18.8894C16.5633 19.1805 16.8407 19.3905 17.1444 19.5174L17.3431 20.5H18.6664C19.0521 20.5 19.3648 20.8358 19.3648 21.25C19.3648 21.6642 19.0521 22 18.6664 22H4.6984C4.31269 22 4 21.6642 4 21.25Z" fill="currentColor"/>
</svg>
