<svg width="16" height="16" viewBox="0 0 16 16" fill="none" xmlns="http://www.w3.org/2000/svg">
  <path d="M2.5 9.17H9.5C9.855 9.17 10.166 9.47 10.166 9.87C10.166 12.258 8.288 14.17 6 14.17C3.712 14.17 1.833 12.258 1.833 9.87C1.833 9.47 2.145 9.17 2.5 9.17Z" stroke="currentColor" stroke-width="1"/>
  <path d="M6 3.17C7 3.17 7.833 4.007 7.833 5.07C7.833 6.133 7 6.97 6 6.97C5 6.97 4.167 6.133 4.167 5.07C4.167 4.007 5 3.17 6 3.17Z" stroke="currentColor" stroke-width="1"/>
  <path d="M10 1.83C11 1.83 11.833 2.67 11.833 3.73C11.833 4.793 11 5.63 10 5.63C9.93 5.63 9.86 5.624 9.793 5.616C9.819 5.435 9.833 5.25 9.833 5.063C9.833 4.016 9.422 3.052 8.747 2.345C9.076 2.024 9.518 1.83 10 1.83Z" stroke="currentColor" stroke-width="1"/>
  <path d="M13.5 7.83C13.855 7.83 14.166 8.13 14.166 8.53C14.166 10.327 13.1 11.855 11.6 12.5C11.963 11.696 12.166 10.8 12.166 9.863C12.166 9.066 11.816 8.332 11.25 7.83H13.5Z" stroke="currentColor" stroke-width="1"/>
</svg>
