<?xml version="1.0" encoding="utf-8"?>
<!-- Generator: Adobe Illustrator 22.0.0, SVG Export Plug-In . SVG Version: 6.00 Build 0)  -->
<svg version="1.1" id="lni_lni-user-globe" xmlns="http://www.w3.org/2000/svg" xmlns:xlink="http://www.w3.org/1999/xlink" x="0px"
	 y="0px" viewBox="0 0 64 64" style="enable-background:new 0 0 64 64;" xml:space="preserve">
<path d="M59.4,34.6c-3.1-5.2-8.5-8.4-14.5-8.5c-0.1,0-0.2,0-0.3,0c0,0,0,0,0,0c-0.1,0-0.2,0-0.3,0c-3.1,0.1-6.1,0.9-8.6,2.5
	c-1.9-1.6-4.1-2.9-6.4-3.7c3.3-2,5.5-5.7,5.5-9.8c0-6.4-5.2-11.6-11.6-11.6S11.6,8.7,11.6,15.1c0,4.1,2.2,7.8,5.5,9.8
	c-3.3,1.1-6.3,3.2-8.7,6.1c-3.8,4.5-5.9,10.7-6,17.5c0,0.9,0.5,1.7,1.2,2.1c2.4,1.2,10.7,5,19.7,5c2.7,0,5.6-0.3,8.4-0.9
	c3.1,3.6,7.5,5.7,12.2,5.9c0,0,0,0,0,0c0,0,0,0,0,0c0.1,0,0.3,0,0.4,0c0.1,0,0.2,0,0.3,0c0.1,0,0.2,0,0.3,0c5.4-0.1,10.4-2.7,13.6-7
	c2.2-3,3.3-6.5,3.3-10.1C61.8,40.2,60.9,37.2,59.4,34.6z M36.9,33.2c0.8-0.6,1.7-1.1,2.7-1.6c-0.5,1.2-0.9,2.3-1.3,3.5
	c-1-0.2-1.9-0.4-2.9-0.6C35.8,34.1,36.3,33.6,36.9,33.2C36.8,33.2,36.8,33.2,36.9,33.2z M46.8,43.3c0,1-0.1,2.1-0.2,3.1
	c-1.6-0.1-3.3-0.1-4.9,0c-0.1-1-0.2-2.1-0.2-3.1c0-1.1,0.1-2.1,0.2-3.2c0.9,0.1,1.8,0.1,2.8,0.1c0.7,0,1.4,0,2.1-0.1
	C46.8,41.2,46.8,42.3,46.8,43.3z M42.8,35.7c0.4-1.2,0.9-2.3,1.4-3.4c0.6,1.1,1,2.3,1.4,3.4C44.7,35.8,43.7,35.8,42.8,35.7z
	 M45.6,50.8c-0.4,1.2-0.9,2.3-1.4,3.5c-0.6-1.1-1-2.3-1.4-3.5C43.7,50.8,44.7,50.8,45.6,50.8z M31.9,43.3c0-1.7,0.3-3.3,1-4.8
	c1.5,0.5,3,0.8,4.5,1.1c-0.2,1.2-0.3,2.5-0.3,3.7c0,1.2,0.1,2.5,0.2,3.7c-1.5,0.3-3,0.7-4.5,1.1C32.2,46.6,31.9,45,31.9,43.3z
	 M38.2,51.4c0.4,1.2,0.8,2.4,1.3,3.6c-1.6-0.7-3-1.6-4.2-2.9C36.3,51.8,37.3,51.6,38.2,51.4z M50.2,51.3c1.2,0.2,2.4,0.4,3.5,0.8
	c-1.4,1.5-3.1,2.6-5,3.2C49.3,54,49.8,52.6,50.2,51.3z M51.1,46.9c0.1-1.2,0.2-2.4,0.2-3.6c0-1.2-0.1-2.4-0.2-3.6
	c1.8-0.3,3.5-0.7,5.2-1.2c0.6,1.5,1,3.2,1,4.8c0,1.7-0.3,3.3-0.9,4.8C54.6,47.6,52.9,47.2,51.1,46.9z M53.7,34.5
	c-1.2,0.3-2.3,0.6-3.5,0.8c-0.4-1.3-0.9-2.7-1.5-4C50.6,32,52.3,33.1,53.7,34.5z M23.2,8c3.9,0,7.1,3.2,7.1,7.1
	c0,3.9-3.2,7.1-7.1,7.1c-3.9,0-7.1-3.2-7.1-7.1C16.1,11.2,19.3,8,23.2,8z M6.8,47.1c0.4-5.2,2.1-9.8,4.9-13.2
	c3-3.6,7.1-5.5,11.4-5.5c3.3,0,6.3,1.1,8.9,3.1c-0.9,0.9-1.7,2-2.3,3.1c-1.6,2.6-2.4,5.7-2.4,8.7c0,2.5,0.6,5,1.6,7.2
	c-2,0.3-3.9,0.5-5.8,0.5C16.4,51,9.9,48.5,6.8,47.1z"/>
</svg>
