<?xml version="1.0" encoding="utf-8"?>
<!-- Generator: Adobe Illustrator 22.0.0, SVG Export Plug-In . SVG Version: 6.00 Build 0)  -->
<svg version="1.1" id="lni_lni-user-alt" xmlns="http://www.w3.org/2000/svg" xmlns:xlink="http://www.w3.org/1999/xlink" x="0px"
	 y="0px" viewBox="0 0 64 64" style="enable-background:new 0 0 64 64;" xml:space="preserve">
<g>
	<path d="M32,27.7c7.4,0,13.4-5.8,13.4-13s-6-13-13.4-13c-7.4,0-13.4,5.8-13.4,13S24.6,27.7,32,27.7z M32,6.3c4.9,0,8.9,3.8,8.9,8.5
		s-4,8.5-8.9,8.5c-4.9,0-8.9-3.8-8.9-8.5S27.1,6.3,32,6.3z"/>
	<path d="M38.5,32.2H25.5C14.8,32.2,6.1,41,6.1,51.7V60c0,1.2,1,2.3,2.3,2.3s2.3-1,2.3-2.3v-8.3c0-8.2,6.7-15,15-15h12.9
		c8.2,0,15,6.7,15,15V60c0,1.2,1,2.3,2.3,2.3s2.3-1,2.3-2.3v-8.3C57.9,41,49.2,32.2,38.5,32.2z"/>
</g>
</svg>
