<svg viewBox="0 0 24 24" fill="currentColor" xmlns="http://www.w3.org/2000/svg">
<path d="M4 7C2.89543 7 2 7.89543 2 9V21C2 21.5523 2.44771 22 3 22H5V18.5C5 17.1193 6.11929 16 7.5 16C8.88071 16 10 17.1193 10 18.5V22H12C12.5523 22 13 21.5523 13 21V9C13 7.89543 12.1046 7 11 7H4Z" fill="currentColor"/>
<path d="M10 2C8.89543 2 8 2.89543 8 4V5.5H11C12.933 5.5 14.5 7.067 14.5 9V21C14.5 21.3556 14.4258 21.6938 14.292 22H20C21.1046 22 22 21.1046 22 20V4C22 2.89543 21.1046 2 20 2H10Z" fill="currentColor"/>
</svg>
