<svg viewBox="0 0 24 24" fill="currentColor" xmlns="http://www.w3.org/2000/svg">
<path d="M4 1.25H20C20.4142 1.25 20.75 1.58579 20.75 2C20.75 2.41421 20.4142 2.75 20 2.75H19V7.25H22C22.4142 7.25 22.75 7.58579 22.75 8C22.75 8.41421 22.4142 8.75 22 8.75V21.25C22.4142 21.25 22.75 21.5858 22.75 22C22.75 22.4142 22.4142 22.75 22 22.75H2C1.58579 22.75 1.25 22.4142 1.25 22C1.25 21.5858 1.58579 21.25 2 21.25V8.75C1.58579 8.75 1.25 8.41421 1.25 8C1.25 7.58579 1.58579 7.25 2 7.25H5V2.75H4C3.58579 2.75 3.25 2.41421 3.25 2C3.25 1.58579 3.58579 1.25 4 1.25ZM14 21.25V18C14 17.4477 13.5523 17 13 17H11C10.4477 17 10 17.4477 10 18V21.25H14ZM5 11.25C4.58579 11.25 4.25 11.5858 4.25 12C4.25 12.4142 4.58579 12.75 5 12.75H9C9.41421 12.75 9.75 12.4142 9.75 12C9.75 11.5858 9.41421 11.25 9 11.25H5ZM14.25 12C14.25 12.4142 14.5858 12.75 15 12.75H19C19.4142 12.75 19.75 12.4142 19.75 12C19.75 11.5858 19.4142 11.25 19 11.25H15C14.5858 11.25 14.25 11.5858 14.25 12ZM5 14.25C4.58579 14.25 4.25 14.5858 4.25 15C4.25 15.4142 4.58579 15.75 5 15.75H9C9.41421 15.75 9.75 15.4142 9.75 15C9.75 14.5858 9.41421 14.25 9 14.25H5ZM14.25 15C14.25 15.4142 14.5858 15.75 15 15.75H19C19.4142 15.75 19.75 15.4142 19.75 15C19.75 14.5858 19.4142 14.25 19 14.25H15C14.5858 14.25 14.25 14.5858 14.25 15Z" fill="currentColor"/>
</svg>
