<svg viewBox="0 0 24 24" fill="currentColor" xmlns="http://www.w3.org/2000/svg">
<path d="M4 7C2.89543 7 2 7.89543 2 9V21C2 21.5523 2.44771 22 3 22H5V18.5C5 17.1193 6.11929 16 7.5 16C8.88071 16 10 17.1193 10 18.5V22H12C12.5523 22 13 21.5523 13 21V9C13 7.89543 12.1046 7 11 7H4ZM5 9.25H10C10.4142 9.25 10.75 9.58579 10.75 10C10.75 10.4142 10.4142 10.75 10 10.75H5C4.58579 10.75 4.25 10.4142 4.25 10C4.25 9.58579 4.58579 9.25 5 9.25ZM4.25 13C4.25 12.5858 4.58579 12.25 5 12.25H10C10.4142 12.25 10.75 12.5858 10.75 13C10.75 13.4142 10.4142 13.75 10 13.75H5C4.58579 13.75 4.25 13.4142 4.25 13Z" fill="currentColor"/>
<path d="M10 2C8.89543 2 8 2.89543 8 4V5.5H11C12.933 5.5 14.5 7.067 14.5 9V21C14.5 21.3556 14.4258 21.6938 14.292 22H20C21.1046 22 22 21.1046 22 20V4C22 2.89543 21.1046 2 20 2H10Z" fill="currentColor"/>
</svg>
