<svg viewBox="0 0 24 24" fill="currentColor" xmlns="http://www.w3.org/2000/svg">
<path d="M17.8727 22H20C21.1046 22 22 21.1046 22 20V8C22 6.89543 21.1046 6 20 6H18.5V20C18.5 20.7436 18.2681 21.4331 17.8727 22Z" fill="currentColor"/>
<path d="M2 4C2 2.89543 2.89543 2 4 2H15C16.1046 2 17 2.89543 17 4V20C17 21.1046 16.1046 22 15 22H12V17.5C12 16.1193 10.8807 15 9.5 15C8.11929 15 7 16.1193 7 17.5V22H4C2.89543 22 2 21.1046 2 20V4ZM6.25 7C6.25 7.41421 6.58579 7.75 7 7.75H12C12.4142 7.75 12.75 7.41421 12.75 7C12.75 6.58579 12.4142 6.25 12 6.25H7C6.58579 6.25 6.25 6.58579 6.25 7ZM6.25 11C6.25 11.4142 6.58579 11.75 7 11.75H12C12.4142 11.75 12.75 11.4142 12.75 11C12.75 10.5858 12.4142 10.25 12 10.25H7C6.58579 10.25 6.25 10.5858 6.25 11Z" fill="currentColor"/>
</svg>
