<svg viewBox="0 0 24 24" fill="currentColor" xmlns="http://www.w3.org/2000/svg">
<path d="M2 4C2 3.44772 2.44772 3 3 3H21C21.5523 3 22 3.44772 22 4V5C22 5.55228 21.5523 6 21 6H3C2.44772 6 2 5.55228 2 5V4Z" fill="currentColor"/>
<path d="M3 7.5V19.25H2C1.58579 19.25 1.25 19.5858 1.25 20C1.25 20.4142 1.58579 20.75 2 20.75H8V15C8 12.7909 9.79086 11 12 11C14.2091 11 16 12.7909 16 15V20.75H22C22.4142 20.75 22.75 20.4142 22.75 20C22.75 19.5858 22.4142 19.25 22 19.25H21V7.5H3Z" fill="currentColor"/>
</svg>
