<svg viewBox="0 0 24 24" fill="currentColor" xmlns="http://www.w3.org/2000/svg">
<path d="M4 4C4 4 5.5 2 12 2C18.5 2 20 4 20 4V20C20 21.1046 19.1046 22 18 22H15.75V12C15.75 11.5858 15.4142 11.25 15 11.25C14.5858 11.25 14.25 11.5858 14.25 12V14.25H9.75V12C9.75 11.5858 9.41421 11.25 9 11.25C8.58579 11.25 8.25 11.5858 8.25 12V22H6C4.89543 22 4 21.1046 4 20V4Z" fill="currentColor"/>
<path d="M14.25 15.75H9.75V18.25H14.25V15.75Z" fill="currentColor"/>
<path d="M14.25 19.75H9.75V22H14.25V19.75Z" fill="currentColor"/>
</svg>
