<svg viewBox="0 0 24 24" fill="currentColor" xmlns="http://www.w3.org/2000/svg">
<path d="M2 4C2 2.89543 2.89543 2 4 2H15C16.1046 2 17 2.89543 17 4V20C17 21.1046 16.1046 22 15 22H12V17.5C12 16.1193 10.8807 15 9.5 15C8.11929 15 7 16.1193 7 17.5V22H4C2.89543 22 2 21.1046 2 20V4ZM6.08054 7.75002H8.74999V5.08057C7.41902 5.37115 6.37112 6.41905 6.08054 7.75002ZM8.74999 11.9195V9.25002H6.08054C6.37112 10.581 7.41902 11.6289 8.74999 11.9195ZM10.25 11.9195C11.581 11.6289 12.6289 10.581 12.9194 9.25002H10.25V11.9195ZM10.25 5.08057V7.75002H12.9194C12.6289 6.41905 11.581 5.37115 10.25 5.08057Z" fill="currentColor"/>
<path d="M17.8727 22H20C21.1046 22 22 21.1046 22 20V8C22 6.89543 21.1046 6 20 6H18.5V20C18.5 20.7436 18.2681 21.4331 17.8727 22Z" fill="currentColor"/>
</svg>
