<svg viewBox="0 0 24 24" fill="currentColor" xmlns="http://www.w3.org/2000/svg">
<path d="M2 3.35988C2 3.15613 2.12015 2.97149 2.30658 2.88874C4.97629 1.70375 8.0237 1.70375 10.6934 2.88874C10.8798 2.97149 11 3.15613 11 3.35988V21.0013C11 21.5529 10.5523 22 9.99999 22H3C2.44771 22 2 21.5529 2 21.0013V3.35988Z" fill="currentColor"/>
<path d="M15 22H12.292C12.4258 21.6942 12.5 21.3564 12.5 21.0013V11.0144H20C21.1046 11.0144 22 11.9086 22 13.0118V20.0026C22 21.1057 21.1046 22 20 22H19V19.0039C19 17.9008 18.1046 17.0065 17 17.0065C15.8954 17.0065 15 17.9008 15 19.0039V22Z" fill="currentColor"/>
</svg>
