<svg viewBox="0 0 24 24" fill="currentColor" xmlns="http://www.w3.org/2000/svg">
<path d="M4.99191 2.13177C7.8906 2.50015 11.4986 3.6861 14.5552 6.24999H3V3.99999C3 2.89543 3.89616 1.99252 4.99191 2.13177Z" fill="currentColor"/>
<path d="M18.5958 11.25C17.8841 9.91285 17.0458 8.75268 16.1248 7.75H3V11.25H18.5958Z" fill="currentColor"/>
<path d="M19.3074 12.75H3V16.25H20.4091C20.1284 14.9809 19.7556 13.8168 19.3074 12.75Z" fill="currentColor"/>
<path d="M20.9911 21.25H22C22.4142 21.25 22.75 21.5858 22.75 22C22.75 22.4142 22.4142 22.75 22 22.75H2C1.58579 22.75 1.25 22.4142 1.25 22C1.25 21.5858 1.58579 21.25 2 21.25H3V17.75H20.6893C20.8577 18.8445 20.9613 20.0098 20.9911 21.25Z" fill="currentColor"/>
</svg>
