<svg viewBox="0 0 24 24" fill="currentColor" xmlns="http://www.w3.org/2000/svg">
<path d="M3 3C3 2.44772 3.44772 2 4 2H5C5.55228 2 6 2.44772 6 3V5H8V3C8 2.44772 8.44772 2 9 2H10C10.5523 2 11 2.44772 11 3V5H13V3C13 2.44772 13.4477 2 14 2H15C15.5523 2 16 2.44772 16 3V5H18V3C18 2.44772 18.4477 2 19 2H20C20.5523 2 21 2.44772 21 3V8.25H3V3Z" fill="currentColor"/>
<path d="M3 9.75H21V20C21 21.1046 20.1046 22 19 22H15V18.725C15 16.9482 14.546 15.1421 13.3093 13.8663C12.8363 13.3783 12.3551 13 12 13C11.6449 13 11.1637 13.3783 10.6907 13.8663C9.45398 15.1421 9 16.9482 9 18.725V22H5C3.89543 22 3 21.1046 3 20V9.75Z" fill="currentColor"/>
</svg>
