<svg viewBox="0 0 24 24" fill="currentColor" xmlns="http://www.w3.org/2000/svg">
<path d="M6 5C6 4.44772 6.44772 4 7 4C7.55228 4 8 4.44772 8 5V7H11V5C11 4.44772 11.4477 4 12 4C12.5523 4 13 4.44772 13 5V7H16V5C16 4.44772 16.4477 4 17 4C17.5523 4 18 4.44772 18 5V22H14.5V18.5C14.5 17.1193 13.3807 16 12 16C10.6193 16 9.5 17.1193 9.5 18.5V22H6V5Z" fill="currentColor"/>
<path d="M4.5 13H3C2.44772 13 2 13.4477 2 14V21C2 21.5523 2.44772 22 3 22H4.5V13Z" fill="currentColor"/>
<path d="M19.5 22H21C21.5523 22 22 21.5523 22 21V14C22 13.4477 21.5523 13 21 13H19.5V22Z" fill="currentColor"/>
</svg>
