<svg viewBox="0 0 24 24" fill="currentColor" xmlns="http://www.w3.org/2000/svg">
<path d="M3 2C2.44772 2 2 2.44772 2 3V8C2 8.55228 2.44772 9 3 9V21.25H2C1.58579 21.25 1.25 21.5858 1.25 22C1.25 22.4142 1.58579 22.75 2 22.75H22C22.4142 22.75 22.75 22.4142 22.75 22C22.75 21.5858 22.4142 21.25 22 21.25H21V9C21.5523 9 22 8.55228 22 8V3C22 2.44772 21.5523 2 21 2H20C19.4477 2 19 2.44772 19 3V5H17V3C17 2.44772 16.5523 2 16 2H15C14.4477 2 14 2.44772 14 3V8C14 8.55228 14.4477 9 15 9V12H9V9C9.55228 9 10 8.55228 10 8V3C10 2.44772 9.55228 2 9 2H8C7.44772 2 7 2.44772 7 3V5H5V3C5 2.44772 4.55228 2 4 2H3ZM14.5 21.25H9.5V17.5C9.5 16.1193 10.6193 15 12 15C13.3807 15 14.5 16.1193 14.5 17.5V21.25Z" fill="currentColor"/>
</svg>
