<svg viewBox="0 0 24 24" fill="currentColor" xmlns="http://www.w3.org/2000/svg">
<path d="M3 3C3 2.44772 3.44772 2 4 2H5C5.55228 2 6 2.44772 6 3V5H8V3C8 2.44772 8.44772 2 9 2H10C10.5523 2 11 2.44772 11 3V5H13V3C13 2.44772 13.4477 2 14 2H15C15.5523 2 16 2.44772 16 3V5H18V3C18 2.44772 18.4477 2 19 2H20C20.5523 2 21 2.44772 21 3V8.25H3V3Z" fill="currentColor"/>
<path d="M3 9.75V20C3 21.1046 3.89543 22 5 22H9V18C9 16.3431 10.3431 15 12 15C13.6569 15 15 16.3431 15 18V22H19C20.1046 22 21 21.1046 21 20V9.75H3Z" fill="currentColor"/>
</svg>
