<svg viewBox="0 0 24 24" fill="currentColor" xmlns="http://www.w3.org/2000/svg">
<path d="M2.34339 10.2191L11.1766 2.30555C11.6314 1.89815 12.3686 1.89815 12.8234 2.30555L21.6566 10.2191C22.3902 10.8763 21.8706 12 20.8332 12C19.8208 12 19 12.8208 19 13.8332V21.25H22C22.4142 21.25 22.75 21.5858 22.75 22C22.75 22.4142 22.4142 22.75 22 22.75H2C1.58579 22.75 1.25 22.4142 1.25 22C1.25 21.5858 1.58579 21.25 2 21.25H5V13.8332C5 12.8208 4.17924 12 3.16678 12C2.12937 12 1.60983 10.8763 2.34339 10.2191ZM9.5 21.25H14.5V18.5C14.5 17.1193 13.3807 16 12 16C10.6193 16 9.5 17.1193 9.5 18.5V21.25ZM12.75 6C12.75 5.58579 12.4142 5.25 12 5.25C11.5858 5.25 11.25 5.58579 11.25 6V7.75H9C8.58579 7.75 8.25 8.08579 8.25 8.5C8.25 8.91421 8.58579 9.25 9 9.25H11.25V13C11.25 13.4142 11.5858 13.75 12 13.75C12.4142 13.75 12.75 13.4142 12.75 13V9.25H15C15.4142 9.25 15.75 8.91421 15.75 8.5C15.75 8.08579 15.4142 7.75 15 7.75H12.75V6Z" fill="currentColor"/>
</svg>
