<svg viewBox="0 0 24 24" fill="currentColor" xmlns="http://www.w3.org/2000/svg">
<path d="M3.37965 3.51493C3.60866 2.62459 4.43169 2 5.37589 2H18.6241C19.5683 2 20.3913 2.62459 20.6203 3.51493L21.9688 8.75747C22.1311 9.38861 21.64 10 20.9707 10H3.02934C2.36001 10 1.86889 9.38861 2.03123 8.75746L3.37965 3.51493ZM9 5.25C8.58579 5.25 8.25 5.58579 8.25 6C8.25 6.41421 8.58579 6.75 9 6.75H15C15.4142 6.75 15.75 6.41421 15.75 6C15.75 5.58579 15.4142 5.25 15 5.25H9Z" fill="currentColor"/>
<path d="M4 11.5V20C4 21.1046 4.89543 22 6 22H9.5V18.5C9.5 17.1193 10.6193 16 12 16C13.3807 16 14.5 17.1193 14.5 18.5V22H18C19.1046 22 20 21.1046 20 20V11.5H4Z" fill="currentColor"/>
</svg>
