<svg viewBox="0 0 24 24" fill="currentColor" xmlns="http://www.w3.org/2000/svg">
<path d="M2.34339 10.2191L11.1766 2.30555C11.6314 1.89815 12.3686 1.89815 12.8234 2.30555L21.6566 10.2191C22.3902 10.8763 21.8706 12 20.8332 12H19V21.25H22C22.4142 21.25 22.75 21.5858 22.75 22C22.75 22.4142 22.4142 22.75 22 22.75H2C1.58579 22.75 1.25 22.4142 1.25 22C1.25 21.5858 1.58579 21.25 2 21.25H5V12H3.16678C2.12937 12 1.60983 10.8763 2.34339 10.2191ZM9.5 21.25H14.5V18.5C14.5 17.1193 13.3807 16 12 16C10.6193 16 9.5 17.1193 9.5 18.5V21.25Z" fill="currentColor"/>
</svg>
