<svg viewBox="0 0 24 24" fill="currentColor" xmlns="http://www.w3.org/2000/svg">
<path d="M4.0666 7.25C4.42532 5.14305 6.32683 2 12 2C17.6732 2 19.5747 5.14305 19.9334 7.25H22C22.4142 7.25 22.75 7.58579 22.75 8C22.75 8.41421 22.4142 8.75 22 8.75V21.25C22.4142 21.25 22.75 21.5858 22.75 22C22.75 22.4142 22.4142 22.75 22 22.75H2C1.58579 22.75 1.25 22.4142 1.25 22C1.25 21.5858 1.58579 21.25 2 21.25V8.75C1.58579 8.75 1.25 8.41421 1.25 8C1.25 7.58579 1.58579 7.25 2 7.25H4.0666ZM18 8.75H14V21.25H18V8.75ZM10 8.75H6V21.25H10V8.75Z" fill="currentColor"/>
</svg>
