<svg viewBox="0 0 24 24" fill="currentColor" xmlns="http://www.w3.org/2000/svg">
<path d="M4.05398 8.65452L11.3225 2.24738C11.6967 1.91754 12.3033 1.91754 12.6775 2.24738L19.946 8.65452C20.5496 9.18661 20.1221 10.0964 19.2685 10.0964H4.73151C3.87787 10.0964 3.45037 9.18661 4.05398 8.65452Z" fill="currentColor"/>
<path d="M4.8 11.6145V20.4819H3.77143C3.34538 20.4819 3 20.8218 3 21.241C3 21.6602 3.34538 22 3.77143 22H20.2286C20.6546 22 21 21.6602 21 21.241C21 20.8218 20.6546 20.4819 20.2286 20.4819H19.2V11.6145H14.0571V20.4819H9.94286V11.6145H4.8Z" fill="currentColor"/>
</svg>
