<svg viewBox="0 0 24 24" fill="currentColor" xmlns="http://www.w3.org/2000/svg">
<path d="M19.25 2C19.25 1.58579 18.9142 1.25 18.5 1.25C18.0858 1.25 17.75 1.58579 17.75 2V4H16C15.4477 4 15 4.44772 15 5V22H20C21.1046 22 22 21.1046 22 20V5C22 4.44772 21.5523 4 21 4H19.25V2Z" fill="currentColor"/>
<path d="M13.5 8H4C2.89543 8 2 8.89543 2 10V20C2 21.1046 2.89543 22 4 22H6V18.5C6 17.1193 7.11929 16 8.5 16C9.88071 16 11 17.1193 11 18.5V22H13.5V8ZM5.75 13C5.75 12.5858 6.08579 12.25 6.5 12.25H10.5C10.9142 12.25 11.25 12.5858 11.25 13C11.25 13.4142 10.9142 13.75 10.5 13.75H6.5C6.08579 13.75 5.75 13.4142 5.75 13Z" fill="currentColor"/>
</svg>
