<svg viewBox="0 0 24 24" fill="currentColor" xmlns="http://www.w3.org/2000/svg">
<path d="M9.4759 11.7071C9.18016 11.8891 9 12.2115 9 12.5588V21C9 21.5523 9.44772 22 10 22H13V18.5C13 17.1193 14.1193 16 15.5 16C16.8807 16 18 17.1193 18 18.5V22H21C21.5523 22 22 21.5523 22 21V12.5588C22 12.2115 21.8198 11.8891 21.5241 11.7071L16.5482 8.64507C15.9054 8.24949 15.0946 8.24949 14.4518 8.64507L9.4759 11.7071Z" fill="currentColor"/>
<path d="M4.7543 2C4.30782 2 3.91543 2.29598 3.79278 2.72528L2.07695 8.73067C2.0259 8.90935 2 9.09428 2 9.28011V20C2 21.1046 2.89543 22 4 22H7.70801C7.57422 21.6938 7.5 21.3556 7.5 21V12.5588C7.5 11.6907 7.95039 10.8847 8.68976 10.4297L10 9.62337V9.28011C10 9.09428 9.9741 8.90935 9.92305 8.73067L8.20722 2.72528C8.08457 2.29598 7.69218 2 7.2457 2H4.7543Z" fill="currentColor"/>
</svg>
