<svg viewBox="0 0 24 24" fill="currentColor" xmlns="http://www.w3.org/2000/svg">
<path d="M14 2C12.8954 2 12 2.89543 12 4V9.75439C10.3607 6.34971 6.87782 4 2.84615 4C2.37884 4 2 4.37884 2 4.84615V20C2 21.1046 2.89543 22 4 22H5V18.5C5 17.1193 6.11929 16 7.5 16C8.88071 16 10 17.1193 10 18.5V22H20C21.1046 22 22 21.1046 22 20V4C22 2.89543 21.1046 2 20 2H14ZM15 5.25H19C19.4142 5.25 19.75 5.58579 19.75 6C19.75 6.41421 19.4142 6.75 19 6.75H15C14.5858 6.75 14.25 6.41421 14.25 6C14.25 5.58579 14.5858 5.25 15 5.25ZM14.25 10C14.25 9.58579 14.5858 9.25 15 9.25H19C19.4142 9.25 19.75 9.58579 19.75 10C19.75 10.4142 19.4142 10.75 19 10.75H15C14.5858 10.75 14.25 10.4142 14.25 10ZM15 13.25H19C19.4142 13.25 19.75 13.5858 19.75 14C19.75 14.4142 19.4142 14.75 19 14.75H15C14.5858 14.75 14.25 14.4142 14.25 14C14.25 13.5858 14.5858 13.25 15 13.25ZM14.25 18C14.25 17.5858 14.5858 17.25 15 17.25H19C19.4142 17.25 19.75 17.5858 19.75 18C19.75 18.4142 19.4142 18.75 19 18.75H15C14.5858 18.75 14.25 18.4142 14.25 18Z" fill="currentColor"/>
</svg>
