<svg viewBox="0 0 24 24" fill="currentColor" xmlns="http://www.w3.org/2000/svg">
<path d="M2 4C2 2.89543 2.89543 2 4 2H10C11.1046 2 12 2.89543 12 4V12C12 11.4477 12.4477 11 13 11H21C21.5523 11 22 11.4477 22 12V21.25C22.4142 21.25 22.75 21.5858 22.75 22C22.75 22.4142 22.4142 22.75 22 22.75H2C1.58579 22.75 1.25 22.4142 1.25 22C1.25 21.5858 1.58579 21.25 2 21.25V4ZM3.5 6V7C3.5 7.55228 3.94772 8 4.5 8H5.5C6.05228 8 6.5 7.55228 6.5 7V6C6.5 5.44772 6.05228 5 5.5 5H4.5C3.94772 5 3.5 5.44772 3.5 6ZM4.5 9C3.94772 9 3.5 9.44771 3.5 10V11C3.5 11.5523 3.94772 12 4.5 12H5.5C6.05228 12 6.5 11.5523 6.5 11V10C6.5 9.44772 6.05228 9 5.5 9H4.5ZM3.5 14V15C3.5 15.5523 3.94772 16 4.5 16H5.5C6.05228 16 6.5 15.5523 6.5 15V14C6.5 13.4477 6.05228 13 5.5 13H4.5C3.94772 13 3.5 13.4477 3.5 14ZM4.5 17C3.94772 17 3.5 17.4477 3.5 18V19C3.5 19.5523 3.94772 20 4.5 20H5.5C6.05228 20 6.5 19.5523 6.5 19V18C6.5 17.4477 6.05228 17 5.5 17H4.5ZM7.5 6V7C7.5 7.55228 7.94772 8 8.5 8H9.5C10.0523 8 10.5 7.55228 10.5 7V6C10.5 5.44772 10.0523 5 9.5 5H8.5C7.94772 5 7.5 5.44772 7.5 6ZM8.5 9C7.94772 9 7.5 9.44771 7.5 10V11C7.5 11.5523 7.94772 12 8.5 12H9.5C10.0523 12 10.5 11.5523 10.5 11V10C10.5 9.44772 10.0523 9 9.5 9H8.5ZM7.5 14V15C7.5 15.5523 7.94772 16 8.5 16H9.5C10.0523 16 10.5 15.5523 10.5 15V14C10.5 13.4477 10.0523 13 9.5 13H8.5C7.94772 13 7.5 13.4477 7.5 14ZM8.5 17C7.94772 17 7.5 17.4477 7.5 18V19C7.5 19.5523 7.94772 20 8.5 20H9.5C10.0523 20 10.5 19.5523 10.5 19V18C10.5 17.4477 10.0523 17 9.5 17H8.5ZM13.5 14V15C13.5 15.5523 13.9477 16 14.5 16H15.5C16.0523 16 16.5 15.5523 16.5 15V14C16.5 13.4477 16.0523 13 15.5 13H14.5C13.9477 13 13.5 13.4477 13.5 14ZM13.5 18V19C13.5 19.5523 13.9477 20 14.5 20H15.5C16.0523 20 16.5 19.5523 16.5 19V18C16.5 17.4477 16.0523 17 15.5 17H14.5C13.9477 17 13.5 17.4477 13.5 18ZM18.5 13C17.9477 13 17.5 13.4477 17.5 14V15C17.5 15.5523 17.9477 16 18.5 16H19.5C20.0523 16 20.5 15.5523 20.5 15V14C20.5 13.4477 20.0523 13 19.5 13H18.5ZM17.5 18V19C17.5 19.5523 17.9477 20 18.5 20H19.5C20.0523 20 20.5 19.5523 20.5 19V18C20.5 17.4477 20.0523 17 19.5 17H18.5C17.9477 17 17.5 17.4477 17.5 18Z" fill="currentColor"/>
</svg>
