<svg viewBox="0 0 24 24" fill="currentColor" xmlns="http://www.w3.org/2000/svg">
<path d="M12 4C12 2.89543 12.8954 2 14 2H20C21.1046 2 22 2.89543 22 4V20C22 21.1046 21.1046 22 20 22H10V18.5C10 17.1193 8.88071 16 7.5 16C6.11929 16 5 17.1193 5 18.5V22H4C2.89543 22 2 21.1046 2 20V10C2 8.89543 2.89543 8 4 8H12V4ZM4.25 12C4.25 12.4142 4.58579 12.75 5 12.75H10C10.4142 12.75 10.75 12.4142 10.75 12C10.75 11.5858 10.4142 11.25 10 11.25H5C4.58579 11.25 4.25 11.5858 4.25 12ZM15 5.25C14.5858 5.25 14.25 5.58579 14.25 6C14.25 6.41421 14.5858 6.75 15 6.75H19C19.4142 6.75 19.75 6.41421 19.75 6C19.75 5.58579 19.4142 5.25 19 5.25H15ZM14.25 11C14.25 11.4142 14.5858 11.75 15 11.75H19C19.4142 11.75 19.75 11.4142 19.75 11C19.75 10.5858 19.4142 10.25 19 10.25H15C14.5858 10.25 14.25 10.5858 14.25 11ZM15 15.25C14.5858 15.25 14.25 15.5858 14.25 16C14.25 16.4142 14.5858 16.75 15 16.75H19C19.4142 16.75 19.75 16.4142 19.75 16C19.75 15.5858 19.4142 15.25 19 15.25H15Z" fill="currentColor"/>
</svg>
