<svg viewBox="0 0 24 24" fill="currentColor" xmlns="http://www.w3.org/2000/svg">
<path d="M11 5.99845C11 5.57893 10.7381 5.204 10.3443 5.05958L3.34425 2.49291C2.69164 2.25362 2 2.73669 2 3.43179V21.25C1.58579 21.25 1.25 21.5858 1.25 22C1.25 22.4142 1.58579 22.75 2 22.75H22C22.4142 22.75 22.75 22.4142 22.75 22C22.75 21.5858 22.4142 21.25 22 21.25V8.30163C22 7.6446 21.3772 7.16611 20.7423 7.3354L13.7423 9.20206C13.3046 9.3188 13 9.71525 13 10.1683V21.25H11V5.99845ZM16 21.25V19.5C16 18.6716 16.6716 18 17.5 18C18.3284 18 19 18.6716 19 19.5V21.25H16ZM8 19.5V21.25H5V19.5C5 18.6716 5.67157 18 6.5 18C7.32843 18 8 18.6716 8 19.5ZM5 6.25002H8C8.41421 6.25002 8.75 6.5858 8.75 7.00002C8.75 7.41423 8.41421 7.75002 8 7.75002H5C4.58579 7.75002 4.25 7.41423 4.25 7.00002C4.25 6.5858 4.58579 6.25002 5 6.25002ZM5 10.25H8C8.41421 10.25 8.75 10.5858 8.75 11C8.75 11.4142 8.41421 11.75 8 11.75H5C4.58579 11.75 4.25 11.4142 4.25 11C4.25 10.5858 4.58579 10.25 5 10.25ZM5 14.25H8C8.41421 14.25 8.75 14.5858 8.75 15C8.75 15.4142 8.41421 15.75 8 15.75H5C4.58579 15.75 4.25 15.4142 4.25 15C4.25 14.5858 4.58579 14.25 5 14.25ZM15.25 11C15.25 10.5858 15.5858 10.25 16 10.25H19C19.4142 10.25 19.75 10.5858 19.75 11C19.75 11.4142 19.4142 11.75 19 11.75H16C15.5858 11.75 15.25 11.4142 15.25 11ZM15.25 15C15.25 14.5858 15.5858 14.25 16 14.25H19C19.4142 14.25 19.75 14.5858 19.75 15C19.75 15.4142 19.4142 15.75 19 15.75H16C15.5858 15.75 15.25 15.4142 15.25 15Z" fill="currentColor"/>
</svg>
