<svg viewBox="0 0 24 24" fill="currentColor" xmlns="http://www.w3.org/2000/svg">
<path d="M10 2C8.89543 2 8 2.89543 8 4V9.5H11C12.933 9.5 14.5 11.067 14.5 13V21C14.5 21.0844 14.4958 21.1678 14.4877 21.25H12.9685C12.9891 21.1701 13 21.0863 13 21V13C13 11.8954 12.1046 11 11 11H4C2.89543 11 2 11.8954 2 13V21C2 21.0863 2.01094 21.1701 2.0315 21.25H2C1.58579 21.25 1.25 21.5858 1.25 22C1.25 22.4142 1.58579 22.75 2 22.75H22C22.4142 22.75 22.75 22.4142 22.75 22C22.75 21.5858 22.4142 21.25 22 21.25V4C22 2.89543 21.1046 2 20 2H10Z" fill="currentColor"/>
</svg>
