<svg viewBox="0 0 24 24" fill="currentColor" xmlns="http://www.w3.org/2000/svg">
<path d="M5.37589 2C4.43169 2 3.60866 2.62459 3.37965 3.51493L2.03123 8.75746C1.86889 9.38861 2.36001 10 3.02934 10H20.9707C21.64 10 22.1311 9.38861 21.9688 8.75747L20.6203 3.51493C20.3913 2.62459 19.5683 2 18.6241 2H5.37589Z" fill="currentColor"/>
<path d="M4 20V11.5H20V20C20 21.1046 19.1046 22 18 22H14.5V18.5C14.5 17.1193 13.3807 16 12 16C10.6193 16 9.5 17.1193 9.5 18.5V22H6C4.89543 22 4 21.1046 4 20Z" fill="currentColor"/>
</svg>
