<svg viewBox="0 0 24 24" fill="currentColor" xmlns="http://www.w3.org/2000/svg">
<path d="M5 3.76219C5 3.34125 5.34125 3 5.76219 3H18.2378C18.6588 3 19 3.34125 19 3.76219V4.25H22C22.4142 4.25 22.75 4.58579 22.75 5V6.17157C22.75 8.1815 21.9516 10.1091 20.5303 11.5303C20.2374 11.8232 19.7626 11.8232 19.4697 11.5303C19.1768 11.2374 19.1768 10.7626 19.4697 10.4697C20.6096 9.32974 21.25 7.78367 21.25 6.17157V5.75H19V7.92893C19 11.7294 16.3824 14.9881 12.75 15.8571V18H15.4066C15.8558 18 16.2499 18.2995 16.3701 18.7324L16.7917 20.25H22C22.4142 20.25 22.75 20.5858 22.75 21C22.75 21.4142 22.4142 21.75 22 21.75H2C1.58579 21.75 1.25 21.4142 1.25 21C1.25 20.5858 1.58579 20.25 2 20.25H7.20833L7.6299 18.7324C7.75013 18.2995 8.14421 18 8.59342 18H11.25V15.8571C7.6176 14.9881 5 11.7294 5 7.92893V5.75H2.75V6.17157C2.75 7.78367 3.3904 9.32974 4.53033 10.4697C4.82322 10.7626 4.82322 11.2374 4.53033 11.5303C4.23744 11.8232 3.76256 11.8232 3.46967 11.5303C2.04844 10.1091 1.25 8.1815 1.25 6.17157V5C1.25 4.58579 1.58579 4.25 2 4.25H5V3.76219ZM10.6405 11H13.4048C13.598 11 13.7442 10.9468 13.8434 10.8403C13.9478 10.7283 14 10.5714 14 10.3697C14 10.1681 13.9478 10.014 13.8434 9.90756C13.7442 9.80112 13.598 9.7479 13.4048 9.7479H12.7784V5.63866C12.7784 5.43137 12.7235 5.27451 12.6139 5.16807C12.5043 5.05602 12.3503 5 12.1519 5C12.0161 5 11.8856 5.01961 11.7603 5.05882C11.6402 5.09804 11.5228 5.15686 11.4079 5.23529L10.3272 5.95798C10.1863 6.04762 10.0923 6.15686 10.0453 6.28571C9.99832 6.41457 9.98788 6.54342 10.014 6.67227C10.0401 6.80112 10.0949 6.91036 10.1784 7C10.262 7.08964 10.3638 7.14566 10.4838 7.16807C10.6039 7.18487 10.7318 7.14846 10.8676 7.05882L11.3453 6.74419V9.7479H10.6405C10.4473 9.7479 10.2985 9.80112 10.1941 9.90756C10.0949 10.014 10.0453 10.1681 10.0453 10.3697C10.0453 10.5714 10.0949 10.7283 10.1941 10.8403C10.2985 10.9468 10.4473 11 10.6405 11Z" fill="currentColor"/>
</svg>
