<svg viewBox="0 0 24 24" fill="currentColor" xmlns="http://www.w3.org/2000/svg">
<path d="M5 3.76219V4.25H2C1.58579 4.25 1.25 4.58579 1.25 5V6.17157C1.25 8.1815 2.04844 10.1091 3.46967 11.5303C3.76256 11.8232 4.23744 11.8232 4.53033 11.5303C4.82322 11.2374 4.82322 10.7626 4.53033 10.4697C3.3904 9.32974 2.75 7.78367 2.75 6.17157V5.75H5V7.92893C5 11.7294 7.6176 14.9881 11.25 15.8571V18H8.59342C8.14421 18 7.75013 18.2995 7.6299 18.7324L7.20833 20.25H2C1.58579 20.25 1.25 20.5858 1.25 21C1.25 21.4142 1.58579 21.75 2 21.75H22C22.4142 21.75 22.75 21.4142 22.75 21C22.75 20.5858 22.4142 20.25 22 20.25H16.7917L16.3701 18.7324C16.2499 18.2995 15.8558 18 15.4066 18H12.75V15.8571C16.3824 14.9881 19 11.7294 19 7.92893V5.75H21.25V6.17157C21.25 7.78367 20.6096 9.32974 19.4697 10.4697C19.1768 10.7626 19.1768 11.2374 19.4697 11.5303C19.7626 11.8232 20.2374 11.8232 20.5303 11.5303C21.9516 10.1091 22.75 8.1815 22.75 6.17157V5C22.75 4.58579 22.4142 4.25 22 4.25H19V3.76219C19 3.34125 18.6588 3 18.2378 3H5.76219C5.34125 3 5 3.34125 5 3.76219ZM10.7067 11.728C10.5093 11.728 10.3627 11.6827 10.2667 11.592C10.176 11.496 10.1307 11.3573 10.1307 11.176C10.1307 11.0587 10.16 10.9493 10.2187 10.848C10.2773 10.7467 10.3573 10.6427 10.4587 10.536L11.9627 8.952C12.1867 8.712 12.3467 8.49867 12.4427 8.312C12.544 8.12533 12.5947 7.93867 12.5947 7.752C12.5947 7.51733 12.5173 7.33867 12.3627 7.216C12.2133 7.09333 11.9947 7.032 11.7067 7.032C11.552 7.032 11.392 7.056 11.2267 7.104C11.0667 7.14667 10.8987 7.21867 10.7227 7.32C10.6053 7.384 10.496 7.408 10.3947 7.392C10.2987 7.37067 10.216 7.32533 10.1467 7.256C10.0773 7.18133 10.032 7.09333 10.0107 6.992C9.98933 6.89067 10 6.78933 10.0427 6.688C10.0853 6.58667 10.1653 6.50133 10.2827 6.432C10.5173 6.288 10.7733 6.18133 11.0507 6.112C11.328 6.03733 11.6027 6 11.8747 6C12.296 6 12.6507 6.064 12.9387 6.192C13.2267 6.31467 13.4453 6.496 13.5947 6.736C13.744 6.976 13.8187 7.26933 13.8187 7.616C13.8187 7.84 13.784 8.05867 13.7147 8.272C13.6453 8.48533 13.536 8.70133 13.3867 8.92C13.2427 9.13333 13.0507 9.36267 12.8107 9.608L11.7253 10.712H13.5787C13.7493 10.712 13.8773 10.7547 13.9627 10.84C14.0533 10.9253 14.0987 11.0507 14.0987 11.216C14.0987 11.3813 14.0533 11.5093 13.9627 11.6C13.8773 11.6853 13.7493 11.728 13.5787 11.728H10.7067Z" fill="currentColor"/>
</svg>
