<svg viewBox="0 0 24 24" fill="currentColor" xmlns="http://www.w3.org/2000/svg">
<path d="M2.00116 5.23328C1.96665 4.68276 2.71464 4.48192 2.96202 4.97528L6.44486 10.1625C6.65832 10.4804 7.13529 10.4502 7.30693 10.1079L11.0917 2.55974C11.466 1.81342 12.534 1.81342 12.9083 2.55974L16.6931 10.1079C16.8647 10.4502 17.3417 10.4804 17.5551 10.1625L21.038 4.97528C21.2854 4.48192 22.0333 4.68276 21.9988 5.23328L20.1866 17.1917C20.1709 17.1907 20.1551 17.1902 20.1391 17.1902H3.86087C3.84491 17.1902 3.82907 17.1907 3.81336 17.1917L2.00116 5.23328ZM12.243 9.00197C12.15 8.78125 11.85 8.78125 11.757 9.00197L11.0809 10.6072C11.0424 10.6986 10.9597 10.7614 10.8644 10.7713L9.19288 10.9465C8.96304 10.9706 8.87033 11.2684 9.04271 11.4289L10.2964 12.5962C10.3678 12.6627 10.3994 12.7641 10.3791 12.8618L10.0221 14.5752C9.97305 14.8108 10.2158 14.9949 10.4153 14.8734L11.8662 13.9896C11.9489 13.9392 12.0511 13.9392 12.1338 13.9896L13.5847 14.8734C13.7842 14.9949 14.027 14.8108 13.9779 14.5752L13.6209 12.8618C13.6006 12.7641 13.6322 12.6627 13.7036 12.5962L14.9573 11.4289C15.1297 11.2684 15.037 10.9706 14.8071 10.9465L13.1356 10.7713C13.0403 10.7614 12.9576 10.6986 12.9191 10.6072L12.243 9.00197Z" fill="currentColor"/>
<path d="M3.86084 18.7091H20.1391V19.9748C20.1391 21.0933 19.2299 22 18.1082 22H5.89176C4.77011 22 3.86084 21.0933 3.86084 19.9748V18.7091Z" fill="currentColor"/>
</svg>
