<svg viewBox="0 0 24 24" fill="currentColor" xmlns="http://www.w3.org/2000/svg">
<path d="M2 16.4C2 16.7314 2.26863 17 2.6 17C3.92548 17 5 18.0745 5 19.4C5 19.7314 5.26863 20 5.6 20H18.4C18.7314 20 19 19.7314 19 19.4C19 18.0745 20.0745 17 21.4 17C21.7314 17 22 16.7314 22 16.4V7.6C22 7.26863 21.7314 7 21.4 7C20.0745 7 19 5.92548 19 4.6C19 4.26863 18.7314 4 18.4 4H5.6C5.26863 4 5 4.26863 5 4.6C5 5.92548 3.92548 7 2.6 7C2.26863 7 2 7.26863 2 7.6V16.4ZM8 13.25H16C16.4142 13.25 16.75 13.5858 16.75 14C16.75 14.4142 16.4142 14.75 16 14.75H8C7.58579 14.75 7.25 14.4142 7.25 14C7.25 13.5858 7.58579 13.25 8 13.25ZM8.25 17C8.25 16.5858 8.58579 16.25 9 16.25H15C15.4142 16.25 15.75 16.5858 15.75 17C15.75 17.4142 15.4142 17.75 15 17.75H9C8.58579 17.75 8.25 17.4142 8.25 17ZM12.2393 6.16348L12.9051 7.74875C12.9431 7.83907 13.0245 7.90101 13.1183 7.91087L14.7644 8.08386C14.9907 8.10765 15.082 8.40176 14.9123 8.56027L13.6777 9.71301C13.6074 9.77868 13.5762 9.87891 13.5963 9.97531L13.9478 11.6675C13.9961 11.9002 13.7571 12.082 13.5606 11.9619L12.1317 11.0891C12.0503 11.0394 11.9497 11.0394 11.8683 11.0891L10.4394 11.9619C10.2429 12.082 10.0039 11.9002 10.0522 11.6675L10.4037 9.97531C10.4238 9.87891 10.3926 9.77868 10.3223 9.71301L9.08773 8.56026C8.91797 8.40176 9.00927 8.10765 9.23561 8.08386L10.8817 7.91087C10.9755 7.90101 11.0569 7.83907 11.0949 7.74875L11.7607 6.16348C11.8523 5.94551 12.1477 5.94551 12.2393 6.16348Z" fill="currentColor"/>
</svg>
