<svg viewBox="0 0 24 24" fill="currentColor" xmlns="http://www.w3.org/2000/svg">
<path d="M19 13C19 15.2091 17.2091 17 15 17C12.7909 17 11 15.2091 11 13C11 10.7909 12.7909 9 15 9C17.2091 9 19 10.7909 19 13Z" fill="currentColor"/>
<path d="M2.6 15C2.26863 15 2 14.7314 2 14.4V5.6C2 5.26863 2.26863 5 2.6 5C3.92548 5 5 3.92548 5 2.6C5 2.26863 5.26863 2 5.6 2H18.4C18.7314 2 19 2.26863 19 2.6C19 3.92548 20.0745 5 21.4 5C21.7314 5 22 5.26863 22 5.6V14.4C22 14.7314 21.7314 15 21.4 15C20.8667 15 20.3739 15.174 19.9755 15.4683L21.9072 18.876C22.188 19.3714 21.7931 19.9806 21.2355 19.9122L19.7131 19.7254C19.4124 19.6885 19.1239 19.8582 19.0049 20.1419L18.4025 21.5781C18.1819 22.1041 17.4664 22.1479 17.1856 21.6525L15.3908 18.4863C18.246 18.2859 20.5 15.9062 20.5 13C20.5 9.96243 18.0376 7.5 15 7.5C13.8516 7.5 12.7854 7.85197 11.9034 8.45391L11.5963 6.97531C11.5762 6.87891 11.6074 6.77868 11.6777 6.71301L12.9123 5.56027C13.082 5.40176 12.9907 5.10765 12.7644 5.08386L11.1183 4.91087C11.0245 4.90101 10.9431 4.83907 10.9051 4.74875L10.2393 3.16348C10.1477 2.94551 9.85228 2.94551 9.76073 3.16348L9.09487 4.74875C9.05694 4.83907 8.97549 4.90101 8.88171 4.91087L7.23561 5.08386C7.00927 5.10765 6.91797 5.40176 7.08773 5.56026L8.32231 6.71301C8.39265 6.77868 8.42376 6.87891 8.40373 6.97531L8.05224 8.6675C8.00391 8.90018 8.24292 9.08195 8.43939 8.96194L9.86826 8.0891C9.94966 8.03937 10.0503 8.03937 10.1317 8.0891L11.3851 8.85472C10.9297 9.25221 10.5404 9.72352 10.2358 10.25H6C5.58579 10.25 5.25 10.5858 5.25 11C5.25 11.4142 5.58579 11.75 6 11.75H9.64267C9.54934 12.1516 9.5 12.57 9.5 13C9.5 13.0838 9.50187 13.1671 9.50558 13.25H7C6.58579 13.25 6.25 13.5858 6.25 14C6.25 14.4142 6.58579 14.75 7 14.75H9.78426C10.4757 16.8115 12.3551 18.3281 14.6092 18.4863L12.8144 21.6525C12.5336 22.1479 11.8181 22.1041 11.5975 21.5781L10.9951 20.1419C10.8761 19.8582 10.5876 19.6885 10.2869 19.7254L8.76449 19.9122C8.20692 19.9806 7.81197 19.3714 8.09276 18.876L8.58935 18H5.6C5.26863 18 5 17.7314 5 17.4C5 16.0745 3.92548 15 2.6 15Z" fill="currentColor"/>
</svg>
