<svg viewBox="0 0 24 24" fill="currentColor" xmlns="http://www.w3.org/2000/svg">
<path d="M5.64109 3.50945C5.24643 2.84285 5.72691 2 6.50159 2H9.35776C9.71111 2 10.0382 2.18648 10.2183 2.49055L12 5.50002L13.7818 2.49055C13.9618 2.18648 14.2889 2 14.6423 2H17.4984C18.2731 2 18.7536 2.84285 18.3589 3.50945L15.3987 8.50945C15.2187 8.81352 14.8915 9 14.5382 9H13.7324C13.9026 9.29417 14 9.63571 14 10C14 10.113 13.9906 10.2239 13.9726 10.3318C16.3173 11.1477 18 13.3773 18 16C18 19.3137 15.3137 22 12 22C8.6863 22 6.00001 19.3137 6.00001 16C6.00001 13.3773 7.68272 11.1477 10.0274 10.3318C10.0094 10.2239 10 10.113 10 10C10 9.63571 10.0974 9.29417 10.2676 9H9.46182C9.10847 9 8.78134 8.81352 8.60132 8.50945L5.64109 3.50945ZM12.5 10C12.5 9.72386 12.2761 9.5 12 9.5C11.7239 9.5 11.5 9.72386 11.5 10C11.5 10.0069 11.5001 10.0137 11.5004 10.0205C11.6652 10.0069 11.8318 10 12 10C12.1682 10 12.3349 10.0069 12.4996 10.0205C12.4999 10.0137 12.5 10.0069 12.5 10ZM12.319 12.218C12.197 11.9273 11.803 11.9273 11.681 12.218L10.7932 14.3317C10.7426 14.4521 10.634 14.5347 10.5089 14.5478L8.31415 14.7785C8.01236 14.8102 7.89063 15.2023 8.11697 15.4137L9.76308 16.9507C9.85686 17.0382 9.89835 17.1719 9.87165 17.3004L9.40299 19.5567C9.33854 19.8669 9.65723 20.1093 9.91919 19.9492L11.8243 18.7855C11.9329 18.7192 12.0671 18.7192 12.1757 18.7855L14.0808 19.9492C14.3428 20.1093 14.6615 19.8669 14.597 19.5567L14.1284 17.3004C14.1017 17.1719 14.1431 17.0382 14.2369 16.9507L15.883 15.4137C16.1094 15.2023 15.9876 14.8102 15.6859 14.7785L13.4911 14.5478C13.366 14.5347 13.2574 14.4521 13.2068 14.3317L12.319 12.218Z" fill="currentColor"/>
</svg>
