<svg viewBox="0 0 24 24" fill="currentColor" xmlns="http://www.w3.org/2000/svg">
<path d="M8.5 2H7C6.44772 2 6 2.44772 6 3V9C6 9.55228 6.44771 10 7 10H8.5V2Z" fill="currentColor"/>
<path d="M14 2H10V11C10 11.5523 10.4477 12 11 12H11.25V14.0702C9.39935 14.4213 8 16.0472 8 18C8 20.2091 9.79086 22 12 22C14.2091 22 16 20.2091 16 18C16 16.0472 14.6006 14.4213 12.75 14.0702V12H13C13.5523 12 14 11.5523 14 11V2ZM12 20C10.8954 20 10 19.1046 10 18C10 16.8954 10.8954 16 12 16C13.1046 16 14 16.8954 14 18C14 19.1046 13.1046 20 12 20Z" fill="currentColor"/>
<path d="M17 10H15.5V2H17C17.5523 2 18 2.44772 18 3V9C18 9.55229 17.5523 10 17 10Z" fill="currentColor"/>
</svg>
