<svg viewBox="0 0 24 24" fill="currentColor" xmlns="http://www.w3.org/2000/svg">
<path d="M9.75 16C9.75 14.7574 10.7574 13.75 12 13.75C13.2426 13.75 14.25 14.7574 14.25 16C14.25 17.2426 13.2426 18.25 12 18.25C10.7574 18.25 9.75 17.2426 9.75 16Z" fill="currentColor"/>
<path d="M5.64109 3.50945C5.24643 2.84285 5.72691 2 6.50159 2H9.35776C9.71111 2 10.0382 2.18648 10.2183 2.49055L12 5.50002L13.7818 2.49055C13.9618 2.18648 14.2889 2 14.6423 2H17.4984C18.2731 2 18.7536 2.84285 18.3589 3.50945L15.3987 8.50945C15.2187 8.81352 14.8915 9 14.5382 9H13.7324C13.9026 9.29417 14 9.63571 14 10C14 10.113 13.9906 10.2239 13.9726 10.3318C16.3173 11.1477 18 13.3773 18 16C18 19.3137 15.3137 22 12 22C8.6863 22 6.00001 19.3137 6.00001 16C6.00001 13.3773 7.68272 11.1477 10.0274 10.3318C10.0094 10.2239 10 10.113 10 10C10 9.63571 10.0974 9.29417 10.2676 9H9.46182C9.10847 9 8.78134 8.81352 8.60132 8.50945L5.64109 3.50945ZM12.5 10C12.5 9.72386 12.2761 9.5 12 9.5C11.7239 9.5 11.5 9.72386 11.5 10C11.5 10.0069 11.5001 10.0137 11.5004 10.0205C11.6652 10.0069 11.8318 10 12 10C12.1682 10 12.3349 10.0069 12.4996 10.0205C12.4999 10.0137 12.5 10.0069 12.5 10ZM12 12.25C9.92893 12.25 8.25 13.9289 8.25 16C8.25 18.0711 9.92893 19.75 12 19.75C14.0711 19.75 15.75 18.0711 15.75 16C15.75 13.9289 14.0711 12.25 12 12.25Z" fill="currentColor"/>
</svg>
