<svg viewBox="0 0 24 24" fill="currentColor" xmlns="http://www.w3.org/2000/svg">
<path d="M5.64109 3.50945C5.24643 2.84285 5.72691 2 6.50159 2H9.35776C9.71111 2 10.0382 2.18648 10.2183 2.49055L12 5.50002L13.7818 2.49055C13.9618 2.18648 14.2889 2 14.6423 2H17.4984C18.2731 2 18.7536 2.84285 18.3589 3.50945L15.3987 8.50945C15.2187 8.81352 14.8915 9 14.5382 9H13.7324C13.9026 9.29417 14 9.63571 14 10C14 10.113 13.9906 10.2239 13.9726 10.3318C16.3173 11.1477 18 13.3773 18 16C18 19.3137 15.3137 22 12 22C8.6863 22 6.00001 19.3137 6.00001 16C6.00001 13.3773 7.68272 11.1477 10.0274 10.3318C10.0094 10.2239 10 10.113 10 10C10 9.63571 10.0974 9.29417 10.2676 9H9.46182C9.10847 9 8.78134 8.81352 8.60132 8.50945L5.64109 3.50945ZM12.5 10C12.5 9.72386 12.2761 9.5 12 9.5C11.7239 9.5 11.5 9.72386 11.5 10C11.5 10.0069 11.5001 10.0137 11.5004 10.0205C11.6652 10.0069 11.8318 10 12 10C12.1682 10 12.3349 10.0069 12.4996 10.0205C12.4999 10.0137 12.5 10.0069 12.5 10ZM10.161 18.8571C10.2554 18.9524 10.3914 19 10.569 19H13.4587C13.6308 19 13.7641 18.9552 13.8584 18.8655C13.9528 18.7703 14 18.6359 14 18.4622C14 18.2885 13.9528 18.1569 13.8584 18.0672C13.7641 17.9776 13.6308 17.9328 13.4587 17.9328H12.7009V13.5294C12.7009 13.3501 12.6509 13.2185 12.551 13.1345C12.4566 13.0448 12.3262 13 12.1596 13C12.043 13 11.9237 13.0224 11.8015 13.0672C11.6849 13.112 11.5684 13.1709 11.4518 13.2437L10.2942 13.9496C10.1721 14.028 10.0888 14.1232 10.0444 14.2353C10 14.3417 9.9889 14.451 10.0111 14.563C10.0389 14.6695 10.0916 14.7619 10.1693 14.8403C10.2471 14.9188 10.3387 14.9664 10.4441 14.9832C10.5552 15 10.6745 14.9692 10.8022 14.8908L11.4101 14.5168V17.9328H10.569C10.3914 17.9328 10.2554 17.9776 10.161 18.0672C10.0666 18.1569 10.0194 18.2885 10.0194 18.4622C10.0194 18.6303 10.0666 18.7619 10.161 18.8571Z" fill="currentColor"/>
</svg>
