<svg viewBox="0 0 24 24" fill="currentColor" xmlns="http://www.w3.org/2000/svg">
<path d="M15 17C12.7909 17 11 15.2091 11 13C11 10.7909 12.7909 9 15 9C17.2091 9 19 10.7909 19 13C19 15.2091 17.2091 17 15 17ZM17.0303 12.5303C17.3232 12.2374 17.3232 11.7626 17.0303 11.4697C16.7374 11.1768 16.2626 11.1768 15.9697 11.4697L14.5 12.9393L14.0303 12.4697C13.7374 12.1768 13.2626 12.1768 12.9697 12.4697C12.6768 12.7626 12.6768 13.2374 12.9697 13.5303L13.9697 14.5303C14.2626 14.8232 14.7374 14.8232 15.0303 14.5303L17.0303 12.5303Z" fill="currentColor"/>
<path d="M2 4C2 2.89543 2.89543 2 4 2H14C15.1046 2 16 2.89543 16 4V7.59069C15.6757 7.53112 15.3415 7.5 15 7.5C12.951 7.5 11.1638 8.62042 10.2174 10.282C10.1486 10.2612 10.0756 10.25 10 10.25H5C4.58579 10.25 4.25 10.5858 4.25 11C4.25 11.4142 4.58579 11.75 5 11.75H9.64267C9.54934 12.1516 9.5 12.57 9.5 13C9.5 13.0838 9.50187 13.1671 9.50558 13.25H5C4.58579 13.25 4.25 13.5858 4.25 14C4.25 14.4142 4.58579 14.75 5 14.75H8.70741L7.85712 16.25H5C4.58579 16.25 4.25 16.5858 4.25 17C4.25 17.4142 4.58579 17.75 5 17.75H7.00683L6.78785 18.1363C5.92904 19.6513 7.1075 21.6268 8.94719 21.401L9.85017 21.2902L10.1478 22H4C2.89543 22 2 21.1046 2 20V4ZM9.23927 3.16348C9.14772 2.94551 8.85228 2.94551 8.76073 3.16348L8.09487 4.74875C8.05694 4.83907 7.97549 4.90101 7.88171 4.91087L6.23561 5.08386C6.00927 5.10765 5.91797 5.40176 6.08773 5.56026L7.32231 6.71301C7.39265 6.77868 7.42376 6.87891 7.40373 6.97531L7.05224 8.6675C7.00391 8.90018 7.24292 9.08195 7.43939 8.96194L8.86826 8.0891C8.94966 8.03937 9.05034 8.03937 9.13174 8.0891L10.5606 8.96194C10.7571 9.08195 10.9961 8.90018 10.9478 8.6675L10.5963 6.97531C10.5762 6.87891 10.6074 6.77868 10.6777 6.71301L11.9123 5.56027C12.082 5.40176 11.9907 5.10765 11.7644 5.08386L10.1183 4.91087C10.0245 4.90101 9.94306 4.83907 9.90513 4.74875L9.23927 3.16348Z" fill="currentColor"/>
<path d="M19.944 15.4126C19.1042 17.1302 17.3957 18.3456 15.3908 18.4863L17.1856 21.6525C17.4664 22.1479 18.1819 22.1041 18.4025 21.5781L19.0049 20.1419C19.1239 19.8582 19.4124 19.6885 19.7131 19.7254L21.2355 19.9122C21.7931 19.9806 22.188 19.3714 21.9072 18.876L19.944 15.4126Z" fill="currentColor"/>
<path d="M14.6092 18.4863C12.6043 18.3456 10.8958 17.1302 10.056 15.4126L8.09276 18.876C7.81197 19.3714 8.20692 19.9806 8.76449 19.9122L10.2869 19.7254C10.5876 19.6885 10.8761 19.8582 10.9951 20.1419L11.5975 21.5781C11.8181 22.1041 12.5336 22.1479 12.8144 21.6525L14.6092 18.4863Z" fill="currentColor"/>
</svg>
