<svg viewBox="0 0 24 24" fill="currentColor" xmlns="http://www.w3.org/2000/svg">
<path d="M5 3.76219C5 3.34125 5.34125 3 5.76219 3H18.2378C18.6588 3 19 3.34125 19 3.76219V4.25H22C22.4142 4.25 22.75 4.58579 22.75 5V6.17157C22.75 8.1815 21.9516 10.1091 20.5303 11.5303C20.2374 11.8232 19.7626 11.8232 19.4697 11.5303C19.1768 11.2374 19.1768 10.7626 19.4697 10.4697C20.6096 9.32974 21.25 7.78367 21.25 6.17157V5.75H19V7.92893C19 11.7294 16.3824 14.9881 12.75 15.8571V18H15.4066C15.8558 18 16.2499 18.2995 16.3701 18.7324L16.7917 20.25H21C21.4142 20.25 21.75 20.5858 21.75 21C21.75 21.4142 21.4142 21.75 21 21.75H3C2.58579 21.75 2.25 21.4142 2.25 21C2.25 20.5858 2.58579 20.25 3 20.25H7.20833L7.6299 18.7324C7.75013 18.2995 8.14421 18 8.59342 18H11.25V15.8571C7.6176 14.9881 5 11.7294 5 7.92893V5.75H2.75V6.17157C2.75 7.78367 3.3904 9.32974 4.53033 10.4697C4.82322 10.7626 4.82322 11.2374 4.53033 11.5303C4.23744 11.8232 3.76256 11.8232 3.46967 11.5303C2.04844 10.1091 1.25 8.1815 1.25 6.17157V5C1.25 4.58579 1.58579 4.25 2 4.25H5V3.76219ZM16.0828 8.25459C15.6711 8.20885 15.3003 8.5055 15.2546 8.91718C15.0595 10.6732 13.6732 12.0595 11.9172 12.2546C11.5055 12.3003 11.2088 12.6711 11.2546 13.0828C11.3003 13.4945 11.6711 13.7912 12.0828 13.7454C14.5361 13.4728 16.4728 11.5361 16.7454 9.08282C16.7912 8.67114 16.4945 8.30033 16.0828 8.25459Z" fill="currentColor"/>
</svg>
