<svg viewBox="0 0 24 24" fill="currentColor" xmlns="http://www.w3.org/2000/svg">
<path d="M22 12C22 17.5228 17.5228 22 12 22C10.2235 22 8.55518 21.5368 7.10927 20.7245L3.45883 21.9413C2.59351 22.2297 1.77028 21.4065 2.05872 20.5412L3.27553 16.8907C2.46324 15.4448 2 13.7765 2 12C2 6.47715 6.47715 2 12 2C17.5228 2 22 6.47715 22 12ZM10.4809 16.1893C11.1469 16.7298 11.4799 17 12 17C12.5201 17 12.8531 16.7298 13.5191 16.1893C14.9903 14.9955 17 13.0234 17 11.1587C17 8.04374 14.2499 6.88075 12 9.28706C9.75008 6.88075 7 8.04374 7 11.1588C7 13.0234 9.00971 14.9955 10.4809 16.1893Z" fill="currentColor"/>
</svg>
