<svg viewBox="0 0 24 24" fill="currentColor" xmlns="http://www.w3.org/2000/svg">
<path d="M2 6C2 4.34315 3.34315 3 5 3H19C20.6569 3 22 4.34315 22 6V16C22 17.6569 20.6569 19 19 19H15L12.7071 21.6602C12.3166 22.1133 11.6834 22.1133 11.2929 21.6602L9 19H5C3.34315 19 2 17.6569 2 16V6ZM16.0303 7.96967C15.7374 7.67678 15.2626 7.67678 14.9697 7.96967L10.5 12.4393L9.03033 10.9697C8.73744 10.6768 8.26256 10.6768 7.96967 10.9697C7.67678 11.2626 7.67678 11.7374 7.96967 12.0303L9.96967 14.0303C10.1103 14.171 10.3011 14.25 10.5 14.25C10.6989 14.25 10.8897 14.171 11.0303 14.0303L16.0303 9.03033C16.3232 8.73744 16.3232 8.26256 16.0303 7.96967Z" fill="currentColor"/>
</svg>
