<svg viewBox="0 0 24 24" fill="currentColor" xmlns="http://www.w3.org/2000/svg">
<path d="M12 22C17.5228 22 22 17.5228 22 12C22 6.47715 17.5228 2 12 2C6.47715 2 2 6.47715 2 12C2 13.7765 2.46324 15.4448 3.27553 16.8907L2.05872 20.5412C1.77028 21.4065 2.59351 22.2297 3.45883 21.9413L7.10927 20.7245C8.55518 21.5368 10.2235 22 12 22ZM6.25 10C6.25 9.58579 6.58579 9.25 7 9.25H17C17.4142 9.25 17.75 9.58579 17.75 10C17.75 10.4142 17.4142 10.75 17 10.75H7C6.58579 10.75 6.25 10.4142 6.25 10ZM7 13.25H14C14.4142 13.25 14.75 13.5858 14.75 14C14.75 14.4142 14.4142 14.75 14 14.75H7C6.58579 14.75 6.25 14.4142 6.25 14C6.25 13.5858 6.58579 13.25 7 13.25Z" fill="currentColor"/>
</svg>
