<svg viewBox="0 0 24 24" fill="currentColor" xmlns="http://www.w3.org/2000/svg">
<path d="M5 3C3.34315 3 2 4.34315 2 6V16C2 17.6569 3.34315 19 5 19H9L11.2929 21.6602C11.6834 22.1133 12.3166 22.1133 12.7071 21.6602L15 19H19C20.6569 19 22 17.6569 22 16V6C22 4.34315 20.6569 3 19 3H5ZM7 8.25H17C17.4142 8.25 17.75 8.58579 17.75 9C17.75 9.41421 17.4142 9.75 17 9.75H7C6.58579 9.75 6.25 9.41421 6.25 9C6.25 8.58579 6.58579 8.25 7 8.25ZM6.25 13C6.25 12.5858 6.58579 12.25 7 12.25H14C14.4142 12.25 14.75 12.5858 14.75 13C14.75 13.4142 14.4142 13.75 14 13.75H7C6.58579 13.75 6.25 13.4142 6.25 13Z" fill="currentColor"/>
</svg>
