<svg viewBox="0 0 24 24" fill="currentColor" xmlns="http://www.w3.org/2000/svg">
<path d="M22 12C22 17.5228 17.5228 22 12 22C10.2235 22 8.55518 21.5368 7.10927 20.7245L3.45883 21.9413C2.59351 22.2297 1.77028 21.4065 2.05872 20.5412L3.27553 16.8907C2.46324 15.4448 2 13.7765 2 12C2 6.47715 6.47715 2 12 2C17.5228 2 22 6.47715 22 12ZM8 11.25C7.58579 11.25 7.25 11.5858 7.25 12C7.25 12.4142 7.58579 12.75 8 12.75H16C16.4142 12.75 16.75 12.4142 16.75 12C16.75 11.5858 16.4142 11.25 16 11.25H8Z" fill="currentColor"/>
</svg>
