<svg viewBox="0 0 24 24" fill="currentColor" xmlns="http://www.w3.org/2000/svg">
<path d="M2 8.61539C2 6.06638 4.06638 4 6.61538 4H15C18.866 4 22 7.13401 22 11C22 14.866 18.866 18 15 18H6.27481L3.70711 20.6909C3.07714 21.3512 2 20.8836 2 19.9499V8.61539ZM9 11C9 10.4477 8.55229 10 8 10C7.44772 10 7 10.4477 7 11C7 11.5523 7.44772 12 8 12C8.55229 12 9 11.5523 9 11ZM12 12C12.5523 12 13 11.5523 13 11C13 10.4477 12.5523 10 12 10C11.4477 10 11 10.4477 11 11C11 11.5523 11.4477 12 12 12ZM17 11C17 10.4477 16.5523 10 16 10C15.4477 10 15 10.4477 15 11C15 11.5523 15.4477 12 16 12C16.5523 12 17 11.5523 17 11Z" fill="currentColor"/>
</svg>
