<svg viewBox="0 0 24 24" fill="currentColor" xmlns="http://www.w3.org/2000/svg">
<path d="M2 6C2 4.34315 3.34315 3 5 3H19C20.6569 3 22 4.34315 22 6V16C22 17.6569 20.6569 19 19 19H15L12.7071 21.6602C12.3166 22.1133 11.6834 22.1133 11.2929 21.6602L9 19H5C3.34315 19 2 17.6569 2 16V6ZM12 6.25C11.5858 6.25 11.25 6.58579 11.25 7V10.25H8C7.58579 10.25 7.25 10.5858 7.25 11C7.25 11.4142 7.58579 11.75 8 11.75H11.25V15C11.25 15.4142 11.5858 15.75 12 15.75C12.4142 15.75 12.75 15.4142 12.75 15V11.75H16C16.4142 11.75 16.75 11.4142 16.75 11C16.75 10.5858 16.4142 10.25 16 10.25H12.75V7C12.75 6.58579 12.4142 6.25 12 6.25Z" fill="currentColor"/>
</svg>
