<svg viewBox="0 0 24 24" fill="currentColor" xmlns="http://www.w3.org/2000/svg">
<path d="M2 8.61539C2 6.06638 4.06638 4 6.61538 4H15C18.866 4 22 7.13401 22 11C22 14.866 18.866 18 15 18H6.27481L3.70711 20.6909C3.07714 21.3512 2 20.8836 2 19.9499V8.61539ZM14 8C14 6.89543 13.1046 6 12 6C10.8954 6 10 6.89543 10 8C10 9.10457 10.8954 10 12 10C13.1046 10 14 9.10457 14 8ZM8 12C8 14.2091 9.79086 16 12 16C14.2091 16 16 14.2091 16 12C16 11.4477 15.5523 11 15 11H9C8.44772 11 8 11.4477 8 12Z" fill="currentColor"/>
</svg>
