<svg viewBox="0 0 24 24" fill="currentColor" xmlns="http://www.w3.org/2000/svg">
<path d="M22 12C22 17.5228 17.5228 22 12 22C10.2235 22 8.55518 21.5368 7.10927 20.7245L3.45883 21.9413C2.59351 22.2297 1.77028 21.4065 2.05872 20.5412L3.27553 16.8907C2.46324 15.4448 2 13.7765 2 12C2 6.47715 6.47715 2 12 2C17.5228 2 22 6.47715 22 12ZM16.0303 10.0303C16.3232 9.73744 16.3232 9.26256 16.0303 8.96967C15.7374 8.67678 15.2626 8.67678 14.9697 8.96967L10.5 13.4393L9.03033 11.9697C8.73744 11.6768 8.26256 11.6768 7.96967 11.9697C7.67678 12.2626 7.67678 12.7374 7.96967 13.0303L9.96967 15.0303C10.1103 15.171 10.3011 15.25 10.5 15.25C10.6989 15.25 10.8897 15.171 11.0303 15.0303L16.0303 10.0303Z" fill="currentColor"/>
</svg>
