<svg viewBox="0 0 24 24" fill="currentColor" xmlns="http://www.w3.org/2000/svg">
<path d="M2 6C2 4.34315 3.34315 3 5 3H19C20.6569 3 22 4.34315 22 6V16C22 17.6569 20.6569 19 19 19H15L12.7071 21.6602C12.3166 22.1133 11.6834 22.1133 11.2929 21.6602L9 19H5C3.34315 19 2 17.6569 2 16V6ZM7 8.25C6.58579 8.25 6.25 8.58579 6.25 9V13C6.25 13.4142 6.58579 13.75 7 13.75C7.41421 13.75 7.75 13.4142 7.75 13V9C7.75 8.58579 7.41421 8.25 7 8.25ZM12.75 7C12.75 6.58579 12.4142 6.25 12 6.25C11.5858 6.25 11.25 6.58579 11.25 7V15C11.25 15.4142 11.5858 15.75 12 15.75C12.4142 15.75 12.75 15.4142 12.75 15V7ZM17 9.25C16.5858 9.25 16.25 9.58579 16.25 10V12C16.25 12.4142 16.5858 12.75 17 12.75C17.4142 12.75 17.75 12.4142 17.75 12V10C17.75 9.58579 17.4142 9.25 17 9.25Z" fill="currentColor"/>
</svg>
