<svg viewBox="0 0 24 24" fill="currentColor" xmlns="http://www.w3.org/2000/svg">
<path d="M4 6C2.89543 6 2 6.89543 2 8V16C2 17.1046 2.89543 18 4 18H4.25V15C4.25 13.4812 5.48122 12.25 7 12.25H17C18.5188 12.25 19.75 13.4812 19.75 15V18H20C21.1046 18 22 17.1046 22 16V8C22 6.89543 21.1046 6 20 6H4ZM4.25 9C4.25 8.58579 4.58579 8.25 5 8.25H9C9.41421 8.25 9.75 8.58579 9.75 9C9.75 9.41421 9.41421 9.75 9 9.75H5C4.58579 9.75 4.25 9.41421 4.25 9ZM18 8.25H19C19.4142 8.25 19.75 8.58579 19.75 9C19.75 9.41421 19.4142 9.75 19 9.75H18C17.5858 9.75 17.25 9.41421 17.25 9C17.25 8.58579 17.5858 8.25 18 8.25Z" fill="currentColor"/>
<path d="M18.25 18V15C18.25 14.3096 17.6904 13.75 17 13.75H7C6.30964 13.75 5.75 14.3096 5.75 15V18H18.25Z" fill="currentColor"/>
</svg>
