<svg viewBox="0 0 24 24" fill="currentColor" xmlns="http://www.w3.org/2000/svg">
<path d="M1.76744 5.65649C1.76744 5.17377 2.1045 4.75665 2.5763 4.65551L14.8554 2.02311C15.4924 1.88656 16.093 2.37236 16.093 3.0241V21.4644H17.6279V5.53299L21.4339 6.38972C21.9008 6.49482 22.2326 6.90967 22.2326 7.38846V21.4644C22.6564 21.4644 23 21.8082 23 22.2322C23 22.6563 22.6564 23 22.2326 23H1.76744C1.3436 23 1 22.6563 1 22.2322C1 21.8082 1.3436 21.4644 1.76744 21.4644V5.65649ZM3.81395 6.36475V7.38846C3.81395 7.67115 4.04302 7.90031 4.32558 7.90031H5.34884C5.6314 7.90031 5.86047 7.67115 5.86047 7.38846V6.36475C5.86047 6.08206 5.6314 5.8529 5.34884 5.8529H4.32558C4.04302 5.8529 3.81395 6.08206 3.81395 6.36475ZM3.81395 10.4596V11.4833C3.81395 11.766 4.04302 11.9951 4.32558 11.9951H5.34884C5.6314 11.9951 5.86047 11.766 5.86047 11.4833V10.4596C5.86047 10.1769 5.6314 9.94773 5.34884 9.94773H4.32558C4.04302 9.94773 3.81395 10.1769 3.81395 10.4596ZM4.32558 14.0426C4.04302 14.0426 3.81395 14.2717 3.81395 14.5544V15.5781C3.81395 15.8608 4.04302 16.09 4.32558 16.09H5.34884C5.6314 16.09 5.86047 15.8608 5.86047 15.5781V14.5544C5.86047 14.2717 5.6314 14.0426 5.34884 14.0426H4.32558ZM3.81395 18.6492V19.673C3.81395 19.9556 4.04302 20.1848 4.32558 20.1848H5.34884C5.6314 20.1848 5.86047 19.9556 5.86047 19.673V18.6492C5.86047 18.3666 5.6314 18.1374 5.34884 18.1374H4.32558C4.04302 18.1374 3.81395 18.3666 3.81395 18.6492ZM8.4186 5.8529C8.13604 5.8529 7.90698 6.08206 7.90698 6.36475V7.38846C7.90698 7.67115 8.13604 7.90031 8.4186 7.90031H9.44186C9.72442 7.90031 9.95349 7.67115 9.95349 7.38846V6.36475C9.95349 6.08206 9.72442 5.8529 9.44186 5.8529H8.4186ZM7.90698 10.4596V11.4833C7.90698 11.766 8.13604 11.9951 8.4186 11.9951H9.44186C9.72442 11.9951 9.95349 11.766 9.95349 11.4833V10.4596C9.95349 10.1769 9.72442 9.94773 9.44186 9.94773H8.4186C8.13604 9.94773 7.90698 10.1769 7.90698 10.4596ZM8.4186 14.0426C8.13604 14.0426 7.90698 14.2717 7.90698 14.5544V15.5781C7.90698 15.8608 8.13604 16.09 8.4186 16.09H9.44186C9.72442 16.09 9.95349 15.8608 9.95349 15.5781V14.5544C9.95349 14.2717 9.72442 14.0426 9.44186 14.0426H8.4186ZM7.90698 18.6492V19.673C7.90698 19.9556 8.13604 20.1848 8.4186 20.1848H9.44186C9.72442 20.1848 9.95349 19.9556 9.95349 19.673V18.6492C9.95349 18.3666 9.72442 18.1374 9.44186 18.1374H8.4186C8.13604 18.1374 7.90698 18.3666 7.90698 18.6492ZM12.5116 5.8529C12.2291 5.8529 12 6.08206 12 6.36475V7.38846C12 7.67115 12.2291 7.90031 12.5116 7.90031H13.5349C13.8174 7.90031 14.0465 7.67115 14.0465 7.38846V6.36475C14.0465 6.08206 13.8174 5.8529 13.5349 5.8529H12.5116ZM12 10.4596V11.4833C12 11.766 12.2291 11.9951 12.5116 11.9951H13.5349C13.8174 11.9951 14.0465 11.766 14.0465 11.4833V10.4596C14.0465 10.1769 13.8174 9.94773 13.5349 9.94773H12.5116C12.2291 9.94773 12 10.1769 12 10.4596ZM12.5116 14.0426C12.2291 14.0426 12 14.2717 12 14.5544V15.5781C12 15.8608 12.2291 16.09 12.5116 16.09H13.5349C13.8174 16.09 14.0465 15.8608 14.0465 15.5781V14.5544C14.0465 14.2717 13.8174 14.0426 13.5349 14.0426H12.5116ZM12 18.6492V19.673C12 19.9556 12.2291 20.1848 12.5116 20.1848H13.5349C13.8174 20.1848 14.0465 19.9556 14.0465 19.673V18.6492C14.0465 18.3666 13.8174 18.1374 13.5349 18.1374H12.5116C12.2291 18.1374 12 18.3666 12 18.6492Z" fill="currentColor"/>
</svg>
