<svg viewBox="0 0 24 24" fill="currentColor" xmlns="http://www.w3.org/2000/svg">
<path d="M14 2.75H12.75V4H18.25V2.75H17C16.5858 2.75 16.25 2.41421 16.25 2C16.25 1.58579 16.5858 1.25 17 1.25H21C21.4142 1.25 21.75 1.58579 21.75 2C21.75 2.41421 21.4142 2.75 21 2.75H19.75V4H20C21.1046 4 22 4.89543 22 6V17C22 18.1046 21.1046 19 20 19H14.25V21.25H15.5C15.9142 21.25 16.25 21.5858 16.25 22C16.25 22.4142 15.9142 22.75 15.5 22.75H8.5C8.08579 22.75 7.75 22.4142 7.75 22C7.75 21.5858 8.08579 21.25 8.5 21.25H9.75V19H4C2.89543 19 2 18.1046 2 17V6C2 4.89543 2.89543 4 4 4H4.25V2.75H3C2.58579 2.75 2.25 2.41421 2.25 2C2.25 1.58579 2.58579 1.25 3 1.25H7C7.41421 1.25 7.75 1.58579 7.75 2C7.75 2.41421 7.41421 2.75 7 2.75H5.75V4H11.25V2.75H10C9.58579 2.75 9.25 2.41421 9.25 2C9.25 1.58579 9.58579 1.25 10 1.25H14C14.4142 1.25 14.75 1.58579 14.75 2C14.75 2.41421 14.4142 2.75 14 2.75ZM4.36608 8.46035C4.13858 8.59366 4 8.82982 4 9.0842V15.2675C4 15.672 4.3444 16 4.76923 16H7.07692V13.4362C7.07692 12.4248 7.93791 11.6049 9 11.6049C10.0621 11.6049 10.9231 12.4248 10.9231 13.4362V16H13.2308C13.6556 16 14 15.672 14 15.2675V9.0842C14 8.82982 13.8614 8.59366 13.6339 8.46035L9.8063 6.21732C9.31183 5.92756 8.68817 5.92756 8.1937 6.21732L4.36608 8.46035ZM16 11.25C15.5858 11.25 15.25 11.5858 15.25 12C15.25 12.4142 15.5858 12.75 16 12.75H20C20.4142 12.75 20.75 12.4142 20.75 12C20.75 11.5858 20.4142 11.25 20 11.25H16ZM16 14.25C15.5858 14.25 15.25 14.5858 15.25 15C15.25 15.4142 15.5858 15.75 16 15.75H18.5C18.9142 15.75 19.25 15.4142 19.25 15C19.25 14.5858 18.9142 14.25 18.5 14.25H16Z" fill="currentColor"/>
</svg>
