<svg viewBox="0 0 24 24" fill="currentColor" xmlns="http://www.w3.org/2000/svg">
<path d="M19.5 1.25C17.7892 1.25 16.3871 2.57189 16.2595 4.25H4C2.48122 4.25 1.25 5.48122 1.25 7V19C1.25 20.5188 2.48122 21.75 4 21.75H20C21.5188 21.75 22.75 20.5188 22.75 19V4.25H22.7405C22.6129 2.57189 21.2108 1.25 19.5 1.25ZM21.25 19C21.25 19.6904 20.6904 20.25 20 20.25H4C3.30964 20.25 2.75 19.6904 2.75 19V7C2.75 6.30964 3.30964 5.75 4 5.75H16.25V15.5C16.25 15.9142 16.5858 16.25 17 16.25C17.4142 16.25 17.75 15.9142 17.75 15.5C17.75 14.5335 18.5335 13.75 19.5 13.75C20.4665 13.75 21.25 14.5335 21.25 15.5V19Z" fill="currentColor"/>
<path d="M4 18V13.75H9C9.41421 13.75 9.75 13.4142 9.75 13V11.5C9.75 11.0858 9.41421 10.75 9 10.75C8.58579 10.75 8.25 11.0858 8.25 11.5V12.25H4V8C4 7.44771 4.44772 7 5 7H8.25V8.5C8.25 8.91421 8.58579 9.25 9 9.25C9.41421 9.25 9.75 8.91421 9.75 8.5V7H14C14.5523 7 15 7.44772 15 8V12.25H12C11.5858 12.25 11.25 12.5858 11.25 13C11.25 13.4142 11.5858 13.75 12 13.75H15V18C15 18.5523 14.5523 19 14 19H8.75C8.75 18.62 8.87016 18.0333 9.20865 17.5632C9.42625 17.261 9.7486 16.9835 10.25 16.8442V17C10.25 17.4142 10.5858 17.75 11 17.75C11.4142 17.75 11.75 17.4142 11.75 17V16C11.75 15.5858 11.4142 15.25 11 15.25C9.55556 15.25 8.5804 15.8686 7.99135 16.6868C7.42984 17.4667 7.25 18.38 7.25 19H5C4.44771 19 4 18.5523 4 18Z" fill="currentColor"/>
</svg>
