<svg viewBox="0 0 24 24" fill="currentColor" xmlns="http://www.w3.org/2000/svg">
<path d="M17 12C14.2386 12 12 9.76142 12 7C12 4.23858 14.2386 2 17 2C19.7614 2 22 4.23858 22 7C22 9.76142 19.7614 12 17 12ZM16.6633 10.3531C16.7592 10.451 16.8766 10.5 17.0156 10.5C17.1642 10.5 17.284 10.451 17.3751 10.3531C17.471 10.2552 17.5189 10.1327 17.5189 9.98583V9.58398C17.7769 9.53353 18.007 9.44957 18.2092 9.33211C18.4584 9.1901 18.6525 9.00647 18.7915 8.78122C18.9305 8.55596 19 8.29643 19 8.00262C19 7.62557 18.8898 7.31952 18.6693 7.08447C18.4536 6.84453 18.1181 6.67314 17.6627 6.5703L16.8431 6.38667C16.6322 6.33771 16.486 6.28139 16.4045 6.21773C16.3278 6.14918 16.2894 6.06593 16.2894 5.968C16.2894 5.82109 16.3565 5.70112 16.4908 5.60808C16.6298 5.51504 16.8263 5.46852 17.0803 5.46852C17.2912 5.46852 17.4638 5.48566 17.598 5.51994C17.737 5.54932 17.8616 5.58849 17.9719 5.63746C18.1205 5.70112 18.2475 5.72071 18.353 5.69622C18.4632 5.66684 18.5495 5.61053 18.6118 5.52728C18.6789 5.44404 18.7172 5.351 18.7268 5.24816C18.7412 5.14043 18.7244 5.03515 18.6765 4.93232C18.6334 4.82949 18.5567 4.74869 18.4464 4.68993C18.2882 4.59199 18.1037 4.51609 17.8928 4.46222C17.7627 4.42598 17.6381 4.39998 17.5189 4.38423V4.01417C17.5189 3.86726 17.471 3.74484 17.3751 3.6469C17.2793 3.54897 17.1594 3.5 17.0156 3.5C16.8766 3.5 16.7592 3.54897 16.6633 3.6469C16.5675 3.74484 16.5195 3.86726 16.5195 4.01417V4.41399C16.2628 4.4629 16.0327 4.54509 15.8293 4.66055C15.5752 4.80745 15.3763 4.99843 15.2325 5.23347C15.0935 5.46362 15.024 5.7256 15.024 6.01941C15.024 6.40626 15.1319 6.72211 15.3476 6.96695C15.5681 7.20689 15.9012 7.37828 16.347 7.48111L17.1594 7.6574C17.3032 7.69168 17.4159 7.73085 17.4974 7.77492C17.5788 7.8141 17.6364 7.86062 17.6699 7.91448C17.7083 7.96345 17.7274 8.02466 17.7274 8.09811C17.7274 8.17646 17.7011 8.24991 17.6483 8.31847C17.6004 8.38213 17.5165 8.43354 17.3967 8.47272C17.2817 8.51189 17.1235 8.53148 16.9222 8.53148C16.6346 8.53148 16.3925 8.50455 16.196 8.45068C16.0042 8.39192 15.8604 8.33561 15.7646 8.28174C15.6208 8.21808 15.4938 8.20339 15.3835 8.23767C15.2781 8.26705 15.1918 8.32826 15.1247 8.4213C15.0576 8.51434 15.0168 8.61717 15.0024 8.7298C14.9929 8.84243 15.012 8.95261 15.06 9.06034C15.1127 9.16807 15.2014 9.25131 15.326 9.31007C15.4746 9.37863 15.6663 9.44718 15.9012 9.51574C16.0818 9.56846 16.2879 9.60525 16.5195 9.62611V9.98583C16.5195 10.1327 16.5675 10.2552 16.6633 10.3531Z" fill="currentColor"/>
<path d="M18 13.4236C17.674 13.4739 17.3401 13.5 17 13.5C13.4101 13.5 10.5 10.5899 10.5 7C10.5 6.69591 10.5209 6.3967 10.5613 6.10372C10.0849 5.92151 9.54278 5.97937 9.10811 6.27732L2.70811 10.6642C2.26551 10.9675 2 11.476 2 12.0203V20.3666C2 21.2687 2.71634 22 3.6 22H6.8V18.7332C6.8 16.929 8.23269 15.4664 10 15.4664C11.7673 15.4664 13.2 16.929 13.2 18.7332V22H16.4C17.2837 22 18 21.2687 18 20.3666V13.4236Z" fill="currentColor"/>
</svg>
