<svg viewBox="0 0 24 24" fill="currentColor" xmlns="http://www.w3.org/2000/svg">
<path d="M10.1034 1C9.68447 1 9.34483 1.3436 9.34483 1.76744C9.34483 2.19129 9.68447 2.53488 10.1034 2.53488V21.4651H5.28728V18.1128H7.03271C7.81059 18.1128 8.31651 17.3258 7.96864 16.657L6.2486 13.3501H6.53422C7.15651 13.3501 7.56126 12.7205 7.28296 12.1855L5.28897 8.35182C4.98047 7.7587 4.09999 7.7587 3.79149 8.35182L1.7975 12.1855C1.5192 12.7205 1.92395 13.3501 2.54624 13.3501H2.83186L1.11182 16.657C0.763947 17.3258 1.26987 18.1128 2.04775 18.1128H3.79318V21.4651H2.01149C1.59252 21.4651 1.25287 21.8087 1.25287 22.2326C1.25287 22.6564 1.59252 23 2.01149 23H22.2414C22.6604 23 23 22.6564 23 22.2326C23 21.8087 22.6604 21.4651 22.2414 21.4651V2.53488C22.6604 2.53488 23 2.19129 23 1.76744C23 1.3436 22.6604 1 22.2414 1H10.1034ZM18.1954 20.186V21.4651H14.1494V20.186C14.1494 19.0558 15.0551 18.1395 16.1724 18.1395C17.2897 18.1395 18.1954 19.0558 18.1954 20.186ZM11.6207 2.7907H12.6322C12.9115 2.7907 13.1379 3.01976 13.1379 3.30233V4.32558C13.1379 4.60815 12.9115 4.83721 12.6322 4.83721H11.6207C11.3414 4.83721 11.1149 4.60815 11.1149 4.32558V3.30233C11.1149 3.01976 11.3414 2.7907 11.6207 2.7907ZM15.6667 2.7907H16.6782C16.9575 2.7907 17.1839 3.01976 17.1839 3.30233V4.32558C17.1839 4.60815 16.9575 4.83721 16.6782 4.83721H15.6667C15.3874 4.83721 15.1609 4.60815 15.1609 4.32558V3.30233C15.1609 3.01976 15.3874 2.7907 15.6667 2.7907ZM19.2069 3.30233C19.2069 3.01976 19.4333 2.7907 19.7126 2.7907H20.7241C21.0035 2.7907 21.2299 3.01976 21.2299 3.30233V4.32558C21.2299 4.60815 21.0035 4.83721 20.7241 4.83721H19.7126C19.4333 4.83721 19.2069 4.60815 19.2069 4.32558V3.30233ZM11.1149 11.4884C11.1149 11.2058 11.3414 10.9767 11.6207 10.9767H12.6322C12.9115 10.9767 13.1379 11.2058 13.1379 11.4884V12.5116C13.1379 12.7942 12.9115 13.0233 12.6322 13.0233H11.6207C11.3414 13.0233 11.1149 12.7942 11.1149 12.5116V11.4884ZM15.1609 11.4884C15.1609 11.2058 15.3874 10.9767 15.6667 10.9767H16.6782C16.9575 10.9767 17.1839 11.2058 17.1839 11.4884V12.5116C17.1839 12.7942 16.9575 13.0233 16.6782 13.0233H15.6667C15.3874 13.0233 15.1609 12.7942 15.1609 12.5116V11.4884ZM19.7126 10.9767H20.7241C21.0035 10.9767 21.2299 11.2058 21.2299 11.4884V12.5116C21.2299 12.7942 21.0035 13.0233 20.7241 13.0233H19.7126C19.4333 13.0233 19.2069 12.7942 19.2069 12.5116V11.4884C19.2069 11.2058 19.4333 10.9767 19.7126 10.9767ZM11.6207 6.88372H12.6322C12.9115 6.88372 13.1379 7.11278 13.1379 7.39535V8.4186C13.1379 8.70117 12.9115 8.93023 12.6322 8.93023H11.6207C11.3414 8.93023 11.1149 8.70117 11.1149 8.4186V7.39535C11.1149 7.11278 11.3414 6.88372 11.6207 6.88372ZM15.6667 6.88372H16.6782C16.9575 6.88372 17.1839 7.11278 17.1839 7.39535V8.4186C17.1839 8.70117 16.9575 8.93023 16.6782 8.93023H15.6667C15.3874 8.93023 15.1609 8.70117 15.1609 8.4186V7.39535C15.1609 7.11278 15.3874 6.88372 15.6667 6.88372ZM19.2069 7.39535C19.2069 7.11278 19.4333 6.88372 19.7126 6.88372H20.7241C21.0035 6.88372 21.2299 7.11278 21.2299 7.39535V8.4186C21.2299 8.70117 21.0035 8.93023 20.7241 8.93023H19.7126C19.4333 8.93023 19.2069 8.70117 19.2069 8.4186V7.39535ZM11.1149 15.5814C11.1149 15.2988 11.3414 15.0698 11.6207 15.0698H12.6322C12.9115 15.0698 13.1379 15.2988 13.1379 15.5814V16.6047C13.1379 16.8872 12.9115 17.1163 12.6322 17.1163H11.6207C11.3414 17.1163 11.1149 16.8872 11.1149 16.6047V15.5814ZM15.1609 15.5814C15.1609 15.2988 15.3874 15.0698 15.6667 15.0698H16.6782C16.9575 15.0698 17.1839 15.2988 17.1839 15.5814V16.6047C17.1839 16.8872 16.9575 17.1163 16.6782 17.1163H15.6667C15.3874 17.1163 15.1609 16.8872 15.1609 16.6047V15.5814ZM19.7126 15.0698H20.7241C21.0035 15.0698 21.2299 15.2988 21.2299 15.5814V16.6047C21.2299 16.8872 21.0035 17.1163 20.7241 17.1163H19.7126C19.4333 17.1163 19.2069 16.8872 19.2069 16.6047V15.5814C19.2069 15.2988 19.4333 15.0698 19.7126 15.0698Z" fill="currentColor"/>
</svg>
