<svg viewBox="0 0 24 24" fill="currentColor" xmlns="http://www.w3.org/2000/svg">
<path d="M9 2C8.44771 2 8 2.44772 8 3V6H4C2.89543 6 2 6.89543 2 8V21.25C1.58579 21.25 1.25 21.5858 1.25 22C1.25 22.4142 1.58579 22.75 2 22.75H22C22.4142 22.75 22.75 22.4142 22.75 22C22.75 21.5858 22.4142 21.25 22 21.25V8C22 6.89543 21.1046 6 20 6H16V3C16 2.44772 15.5523 2 15 2H9ZM9.5 3H10.5C10.7761 3 11 3.22386 11 3.5V4.5C11 4.77614 10.7761 5 10.5 5H9.5C9.22386 5 9 4.77614 9 4.5V3.5C9 3.22386 9.22386 3 9.5 3ZM4 9.5C4 9.22386 4.22386 9 4.5 9H5.5C5.77614 9 6 9.22386 6 9.5V10.5C6 10.7761 5.77614 11 5.5 11H4.5C4.22386 11 4 10.7761 4 10.5V9.5ZM18.5 9H19.5C19.7761 9 20 9.22386 20 9.5V10.5C20 10.7761 19.7761 11 19.5 11H18.5C18.2239 11 18 10.7761 18 10.5V9.5C18 9.22386 18.2239 9 18.5 9ZM4 13.5C4 13.2239 4.22386 13 4.5 13H5.5C5.77614 13 6 13.2239 6 13.5V14.5C6 14.7761 5.77614 15 5.5 15H4.5C4.22386 15 4 14.7761 4 14.5V13.5ZM18.5 13H19.5C19.7761 13 20 13.2239 20 13.5V14.5C20 14.7761 19.7761 15 19.5 15H18.5C18.2239 15 18 14.7761 18 14.5V13.5C18 13.2239 18.2239 13 18.5 13ZM4 17.5C4 17.2239 4.22386 17 4.5 17H5.5C5.77614 17 6 17.2239 6 17.5V18.5C6 18.7761 5.77614 19 5.5 19H4.5C4.22386 19 4 18.7761 4 18.5V17.5ZM18.5 17H19.5C19.7761 17 20 17.2239 20 17.5V18.5C20 18.7761 19.7761 19 19.5 19H18.5C18.2239 19 18 18.7761 18 18.5V17.5C18 17.2239 18.2239 17 18.5 17ZM9 11.5C9 11.2239 9.22386 11 9.5 11H10.5C10.7761 11 11 11.2239 11 11.5V12.5C11 12.7761 10.7761 13 10.5 13H9.5C9.22386 13 9 12.7761 9 12.5V11.5ZM9.5 7H10.5C10.7761 7 11 7.22386 11 7.5V8.5C11 8.77614 10.7761 9 10.5 9H9.5C9.22386 9 9 8.77614 9 8.5V7.5C9 7.22386 9.22386 7 9.5 7ZM9 15.5C9 15.2239 9.22386 15 9.5 15H10.5C10.7761 15 11 15.2239 11 15.5V16.5C11 16.7761 10.7761 17 10.5 17H9.5C9.22386 17 9 16.7761 9 16.5V15.5ZM9.5 19H10.5C10.7761 19 11 19.2239 11 19.5V20.5C11 20.7761 10.7761 21 10.5 21H9.5C9.22386 21 9 20.7761 9 20.5V19.5C9 19.2239 9.22386 19 9.5 19ZM13 3.5C13 3.22386 13.2239 3 13.5 3H14.5C14.7761 3 15 3.22386 15 3.5V4.5C15 4.77614 14.7761 5 14.5 5H13.5C13.2239 5 13 4.77614 13 4.5V3.5ZM13.5 11H14.5C14.7761 11 15 11.2239 15 11.5V12.5C15 12.7761 14.7761 13 14.5 13H13.5C13.2239 13 13 12.7761 13 12.5V11.5C13 11.2239 13.2239 11 13.5 11ZM13 7.5C13 7.22386 13.2239 7 13.5 7H14.5C14.7761 7 15 7.22386 15 7.5V8.5C15 8.77614 14.7761 9 14.5 9H13.5C13.2239 9 13 8.77614 13 8.5V7.5ZM13.5 15H14.5C14.7761 15 15 15.2239 15 15.5V16.5C15 16.7761 14.7761 17 14.5 17H13.5C13.2239 17 13 16.7761 13 16.5V15.5C13 15.2239 13.2239 15 13.5 15ZM13 19.5C13 19.2239 13.2239 19 13.5 19H14.5C14.7761 19 15 19.2239 15 19.5V20.5C15 20.7761 14.7761 21 14.5 21H13.5C13.2239 21 13 20.7761 13 20.5V19.5Z" fill="currentColor"/>
</svg>
