<svg viewBox="0 0 24 24" fill="currentColor" xmlns="http://www.w3.org/2000/svg">
<path d="M12.75 4C12.75 3.30964 13.3096 2.75 14 2.75C14.6904 2.75 15.25 3.30964 15.25 4C15.25 4.41421 15.5858 4.75 16 4.75C16.4142 4.75 16.75 4.41421 16.75 4C16.75 2.48122 15.5188 1.25 14 1.25C13.212 1.25 12.5014 1.58145 12 2.11253C11.4986 1.58145 10.788 1.25 10 1.25C8.48122 1.25 7.25 2.48122 7.25 4C7.25 4.41421 7.58579 4.75 8 4.75C8.41421 4.75 8.75 4.41421 8.75 4C8.75 3.30964 9.30964 2.75 10 2.75C10.6904 2.75 11.25 3.30964 11.25 4V5.25H4C3.58579 5.25 3.25 5.58579 3.25 6C3.25 6.41421 3.58579 6.75 4 6.75H4.04642C4.06749 6.91895 4.09558 7.08572 4.13039 7.25H19.8696C19.9044 7.08572 19.9325 6.91895 19.9536 6.75H20C20.4142 6.75 20.75 6.41421 20.75 6C20.75 5.58579 20.4142 5.25 20 5.25H12.75V4Z" fill="currentColor"/>
<path d="M15 11.917C16.8917 11.5997 18.4832 10.3972 19.3341 8.75H4.66591C5.51684 10.3972 7.10835 11.5997 9 11.917V13.25H2C1.58579 13.25 1.25 13.5858 1.25 14C1.25 14.4142 1.58579 14.75 2 14.75H2.04642C2.11176 15.274 2.24466 15.777 2.43614 16.25H21.5639C21.7553 15.777 21.8882 15.274 21.9536 14.75H22C22.4142 14.75 22.75 14.4142 22.75 14C22.75 13.5858 22.4142 13.25 22 13.25H15V11.917Z" fill="currentColor"/>
<path d="M3.31592 17.75C4.41551 19.1217 6.10516 20 7.99995 20V21.25H5.99995C5.58574 21.25 5.24995 21.5858 5.24995 22C5.24995 22.4142 5.58574 22.75 5.99995 22.75H17.9999C18.4141 22.75 18.7499 22.4142 18.7499 22C18.7499 21.5858 18.4141 21.25 17.9999 21.25H15.9999V20C17.8947 20 19.5843 19.1217 20.6839 17.75H3.31592Z" fill="currentColor"/>
</svg>
