<svg viewBox="0 0 24 24" fill="currentColor" xmlns="http://www.w3.org/2000/svg">
<path d="M7 2C6.44772 2 6 2.44772 6 3V5H5.37589C4.43169 5 3.60866 5.62459 3.37965 6.51493L2.03123 11.7575C1.86889 12.3886 2.36001 13 3.02934 13H20.9707C21.64 13 22.1311 12.3886 21.9688 11.7575L20.6203 6.51493C20.3913 5.62459 19.5683 5 18.6241 5H9V3C9 2.44772 8.55229 2 8 2H7ZM8.25 9C8.25 8.58579 8.58579 8.25 9 8.25H15C15.4142 8.25 15.75 8.58579 15.75 9C15.75 9.41421 15.4142 9.75 15 9.75H9C8.58579 9.75 8.25 9.41421 8.25 9Z" fill="currentColor"/>
<path d="M4 20V14.5H20V20C20 21.1046 19.1046 22 18 22H14V19C14 17.8954 13.1046 17 12 17C10.8954 17 10 17.8954 10 19V22H6C4.89543 22 4 21.1046 4 20Z" fill="currentColor"/>
</svg>
