<svg viewBox="0 0 24 24" fill="currentColor" xmlns="http://www.w3.org/2000/svg">
<path d="M22.2326 4.0241C22.2326 5.14197 21.3163 6.04819 20.186 6.04819C19.0558 6.04819 18.1395 5.14197 18.1395 4.0241C18.1395 2.90622 19.0558 2 20.186 2C21.3163 2 22.2326 2.90622 22.2326 4.0241Z" fill="currentColor"/>
<path d="M2.7907 13.0293C2.7907 12.4511 3.04067 11.9006 3.47758 11.5165L3.81395 11.2208V6.04818C3.81395 5.48924 4.27208 5.03613 4.83721 5.03613H6.88372C7.44885 5.03613 7.90698 5.48924 7.90698 6.04818V7.62235L10.6404 5.21928C11.4158 4.53759 12.5842 4.53759 13.3596 5.21928L20.5224 11.5165C20.9593 11.9006 21.2093 12.4511 21.2093 13.0293V21.4819H22.2326C22.6564 21.4819 23 21.8218 23 22.241C23 22.6602 22.6564 23 22.2326 23H1.76744C1.3436 23 1 22.6602 1 22.241C1 21.8218 1.3436 21.4819 1.76744 21.4819H2.7907V13.0293ZM15.0698 16.1685C15.0698 15.6096 14.6116 15.1565 14.0465 15.1565H9.95349C9.38836 15.1565 8.93023 15.6096 8.93023 16.1685V21.4819H15.0698V16.1685ZM12 13.1324C13.1303 13.1324 14.0465 12.2262 14.0465 11.1083C14.0465 9.99042 13.1303 9.0842 12 9.0842C10.8697 9.0842 9.95349 9.99042 9.95349 11.1083C9.95349 12.2262 10.8697 13.1324 12 13.1324Z" fill="currentColor"/>
<path d="M20.9535 7.56629C20.9535 7.14708 20.6099 6.80725 20.186 6.80725C19.7622 6.80725 19.4186 7.14708 19.4186 7.56629V8.07231C19.4186 8.49151 19.7622 8.83135 20.186 8.83135C20.6099 8.83135 20.9535 8.49151 20.9535 8.07231V7.56629Z" fill="currentColor"/>
<path d="M17.3721 4.02412C17.3721 4.44332 17.0285 4.78315 16.6047 4.78315H16.093C15.6692 4.78315 15.3256 4.44332 15.3256 4.02412C15.3256 3.60491 15.6692 3.26508 16.093 3.26508H16.6047C17.0285 3.26508 17.3721 3.60491 17.3721 4.02412Z" fill="currentColor"/>
<path d="M18.1963 7.06571C18.496 6.76929 18.496 6.2887 18.1963 5.99227C17.8966 5.69585 17.4106 5.69585 17.1109 5.99227L16.7492 6.35009C16.4495 6.64651 16.4495 7.12711 16.7492 7.42353C17.0489 7.71995 17.5348 7.71995 17.8345 7.42353L18.1963 7.06571Z" fill="currentColor"/>
</svg>
