<svg viewBox="0 0 24 24" fill="currentColor" xmlns="http://www.w3.org/2000/svg">
<path d="M8 6C7.44772 6 7 6.44772 7 7V22H10V18C10 17.4477 10.4477 17 11 17H13C13.5523 17 14 17.4477 14 18V22H17V7C17 6.44772 16.5523 6 16 6H8ZM9.25 15C9.25 14.5858 9.58579 14.25 10 14.25H14C14.4142 14.25 14.75 14.5858 14.75 15C14.75 15.4142 14.4142 15.75 14 15.75H10C9.58579 15.75 9.25 15.4142 9.25 15ZM12.75 8V9.25H14C14.4142 9.25 14.75 9.58579 14.75 10C14.75 10.4142 14.4142 10.75 14 10.75H12.75V12C12.75 12.4142 12.4142 12.75 12 12.75C11.5858 12.75 11.25 12.4142 11.25 12V10.75H10C9.58579 10.75 9.25 10.4142 9.25 10C9.25 9.58579 9.58579 9.25 10 9.25H11.25V8C11.25 7.58579 11.5858 7.25 12 7.25C12.4142 7.25 12.75 7.58579 12.75 8Z" fill="currentColor"/>
<path d="M15.3328 4.10463H16C17.3807 4.10463 18.5 5.24922 18.5 6.66114V22H20C21.1046 22 22 21.0843 22 19.9548V3.02353C22 2.30954 21.3026 1.81534 20.6489 2.06604L15.3328 4.10463Z" fill="currentColor"/>
<path d="M5.5 22H4C2.89543 22 2 21.0843 2 19.9548V3.02353C2 2.30954 2.69737 1.81534 3.35112 2.06604L8.6672 4.10463H8C6.61929 4.10463 5.5 5.24922 5.5 6.66114V22Z" fill="currentColor"/>
</svg>
