<svg viewBox="0 0 24 24" fill="currentColor" xmlns="http://www.w3.org/2000/svg">
<path d="M2 11.7869C2 11.2156 2.2443 10.6716 2.67127 10.2921L10.6713 3.18096C11.429 2.50739 12.571 2.50739 13.3287 3.18096L21.3287 10.2921C21.7557 10.6716 22 11.2156 22 11.7869V21.25C22.4142 21.25 22.75 21.5858 22.75 22C22.75 22.4142 22.4142 22.75 22 22.75H2C1.58579 22.75 1.25 22.4142 1.25 22C1.25 21.5858 1.58579 21.25 2 21.25V11.7869ZM11.6023 8.27541C11.2349 8.6428 11.2349 9.23845 11.6023 9.60583L7.60596 13.6022C7.23858 13.2348 6.64293 13.2348 6.27554 13.6022C5.90815 13.9696 5.90815 14.5652 6.27554 14.9326L8.93639 17.5935C9.30377 17.9609 9.89943 17.9609 10.2668 17.5935C10.6342 17.2261 10.6342 16.6304 10.2668 16.2631L11.7661 14.7638L13.7617 16.7594L13.5954 16.9257C13.4117 17.1094 13.4117 17.4072 13.5954 17.5909L15.5911 19.5866C16.1421 20.1376 17.0356 20.1376 17.5867 19.5866C18.1378 19.0355 18.1378 18.142 17.5867 17.5909L15.5911 15.5953C15.4074 15.4116 15.1095 15.4116 14.9258 15.5953L14.7595 15.7616L12.7639 13.766L14.2632 12.2667C14.6306 12.6341 15.2262 12.6341 15.5936 12.2667C15.961 11.8993 15.961 11.3036 15.5936 10.9363L12.9328 8.27541C12.5654 7.90802 11.9697 7.90802 11.6023 8.27541Z" fill="currentColor"/>
</svg>
