<svg viewBox="0 0 24 24" fill="currentColor" xmlns="http://www.w3.org/2000/svg">
<path d="M17 12C19.7614 12 22 9.76142 22 7C22 4.23858 19.7614 2 17 2C14.2386 2 12 4.23858 12 7C12 9.76142 14.2386 12 17 12ZM19.5303 5.53033L18.0607 7L19.5303 8.46967C19.8232 8.76256 19.8232 9.23744 19.5303 9.53033C19.2374 9.82322 18.7626 9.82322 18.4697 9.53033L17 8.06066L15.5303 9.53033C15.2374 9.82322 14.7626 9.82322 14.4697 9.53033C14.1768 9.23744 14.1768 8.76256 14.4697 8.46967L15.9393 7L14.4697 5.53033C14.1768 5.23744 14.1768 4.76256 14.4697 4.46967C14.7626 4.17678 15.2374 4.17678 15.5303 4.46967L17 5.93934L18.4697 4.46967C18.7626 4.17678 19.2374 4.17678 19.5303 4.46967C19.8232 4.76256 19.8232 5.23744 19.5303 5.53033Z" fill="currentColor"/>
<path d="M18 13.4236V20.3666C18 21.2687 17.2837 22 16.4 22H13.2V18.7332C13.2 16.929 11.7673 15.4664 10 15.4664C8.23269 15.4664 6.8 16.929 6.8 18.7332V22H3.6C2.71634 22 2 21.2687 2 20.3666V12.0203C2 11.476 2.26551 10.9675 2.70811 10.6642L9.10811 6.27732C9.54278 5.97937 10.0849 5.92151 10.5613 6.10372C10.5209 6.3967 10.5 6.69591 10.5 7C10.5 10.5899 13.4101 13.5 17 13.5C17.3401 13.5 17.674 13.4739 18 13.4236Z" fill="currentColor"/>
</svg>
