<svg viewBox="0 0 24 24" fill="currentColor" xmlns="http://www.w3.org/2000/svg">
<path d="M17 12C19.7614 12 22 9.76142 22 7C22 4.23858 19.7614 2 17 2C14.2386 2 12 4.23858 12 7C12 9.76142 14.2386 12 17 12ZM15.5303 9.53033C15.2374 9.82322 14.7626 9.82322 14.4697 9.53033C14.1768 9.23744 14.1768 8.76256 14.4697 8.46967L18.4697 4.46967C18.7626 4.17678 19.2374 4.17678 19.5303 4.46967C19.8232 4.76256 19.8232 5.23744 19.5303 5.53033L15.5303 9.53033ZM20 9C20 9.55228 19.5523 10 19 10C18.4477 10 18 9.55228 18 9C18 8.44772 18.4477 8 19 8C19.5523 8 20 8.44772 20 9ZM15 6C14.4477 6 14 5.55228 14 5C14 4.44772 14.4477 4 15 4C15.5523 4 16 4.44772 16 5C16 5.55228 15.5523 6 15 6Z" fill="currentColor"/>
<path d="M10.5613 6.10372C10.5209 6.3967 10.5 6.69591 10.5 7C10.5 10.5899 13.4101 13.5 17 13.5C17.3401 13.5 17.674 13.4739 18 13.4236V20.3666C18 21.2687 17.2837 22 16.4 22H13.2V18.7332C13.2 16.929 11.7673 15.4664 10 15.4664C8.23269 15.4664 6.8 16.929 6.8 18.7332V22H3.6C2.71634 22 2 21.2687 2 20.3666V12.0203C2 11.476 2.26551 10.9675 2.70811 10.6642L9.10811 6.27732C9.54278 5.97937 10.0849 5.92151 10.5613 6.10372Z" fill="currentColor"/>
</svg>
