<svg viewBox="0 0 24 24" fill="currentColor" xmlns="http://www.w3.org/2000/svg">
<path d="M22 7C22 9.76142 19.7614 12 17 12C14.2386 12 12 9.76142 12 7C12 4.23858 14.2386 2 17 2C19.7614 2 22 4.23858 22 7ZM17.75 4C17.75 3.58579 17.4142 3.25 17 3.25C16.5858 3.25 16.25 3.58579 16.25 4V6.25H14C13.5858 6.25 13.25 6.58579 13.25 7C13.25 7.41421 13.5858 7.75 14 7.75H16.25V10C16.25 10.4142 16.5858 10.75 17 10.75C17.4142 10.75 17.75 10.4142 17.75 10V7.75H20C20.4142 7.75 20.75 7.41421 20.75 7C20.75 6.58579 20.4142 6.25 20 6.25H17.75V4Z" fill="currentColor"/>
<path d="M18 13.4236V20.3666C18 21.2687 17.2837 22 16.4 22H13.2V18.7332C13.2 16.929 11.7673 15.4664 10 15.4664C8.23269 15.4664 6.8 16.929 6.8 18.7332V22H3.6C2.71634 22 2 21.2687 2 20.3666V12.0203C2 11.476 2.26551 10.9675 2.70811 10.6642L9.10811 6.27732C9.54278 5.97937 10.0849 5.92151 10.5613 6.10372C10.5209 6.3967 10.5 6.69591 10.5 7C10.5 10.5899 13.4101 13.5 17 13.5C17.3401 13.5 17.674 13.4739 18 13.4236Z" fill="currentColor"/>
</svg>
