<svg viewBox="0 0 24 24" fill="currentColor" xmlns="http://www.w3.org/2000/svg">
<path d="M11.2736 6.37795L11.7297 4.88232H11.7519L12.2219 6.37795H11.2736Z" fill="currentColor"/>
<path d="M3 2H21C21.5523 2 22 2.44772 22 3V21.25C22.4142 21.25 22.75 21.5858 22.75 22C22.75 22.4142 22.4142 22.75 22 22.75H2C1.58579 22.75 1.25 22.4142 1.25 22C1.25 21.5858 1.58579 21.25 2 21.25V3C2 2.44772 2.44772 2 3 2ZM15 21.25V16C15 15.4477 14.5523 15 14 15H10C9.44772 15 9 15.4477 9 16V21.25H15ZM5.4505 8C5.73415 8 5.89822 7.83322 5.89822 7.5427V5.51715H5.92047L6.81034 7.65299C6.88265 7.83591 7.01057 7.9193 7.20523 7.9193C7.39989 7.9193 7.51947 7.83591 7.59455 7.65299L8.48721 5.51715H8.50667V7.5427C8.50667 7.83322 8.67074 8 8.95439 8C9.24082 8 9.40489 7.83322 9.40489 7.5427V4.64022C9.40489 4.23134 9.16574 4 8.74583 4C8.3871 4 8.19522 4.13988 8.04783 4.50303L7.21357 6.55279H7.19132L6.35428 4.50303C6.20968 4.13988 6.0178 4 5.66185 4C5.23915 4 5 4.23403 5 4.64022V7.5427C5 7.83322 5.16407 8 5.4505 8ZM10.4116 8C10.6841 8 10.837 7.8655 10.9344 7.53732L11.0706 7.12307H12.4444L12.5806 7.55346C12.6696 7.87088 12.8226 8 13.1174 8C13.4149 8 13.629 7.80363 13.629 7.52656C13.629 7.42434 13.6096 7.33289 13.5623 7.20646L12.564 4.57566C12.411 4.17216 12.1663 4 11.7464 4C11.3487 4 11.1012 4.18023 10.9538 4.57566L9.96385 7.20646C9.91936 7.32482 9.89155 7.44586 9.89155 7.52925C9.89155 7.82246 10.089 8 10.4116 8ZM16.3988 7.94082C16.6741 7.94082 16.8521 7.79556 16.8521 7.5427C16.8521 7.28985 16.6713 7.14459 16.3988 7.14459H15.1418V4.51379C15.1418 4.18561 14.9555 4 14.6329 4C14.3103 4 14.1212 4.18561 14.1212 4.51379V7.42434C14.1212 7.75252 14.3103 7.94082 14.6329 7.94082H16.3988ZM17.7809 7.94082H19.5467C19.822 7.94082 20 7.79556 20 7.5427C20 7.28985 19.8192 7.14459 19.5467 7.14459H18.2898V4.51379C18.2898 4.18561 18.1034 4 17.7809 4C17.4583 4 17.2692 4.18561 17.2692 4.51379V7.42434C17.2692 7.75252 17.4583 7.94082 17.7809 7.94082ZM4 10.25C3.58579 10.25 3.25 10.5858 3.25 11C3.25 11.4142 3.58579 11.75 4 11.75H8C8.41421 11.75 8.75 11.4142 8.75 11C8.75 10.5858 8.41421 10.25 8 10.25H4ZM15.25 11C15.25 11.4142 15.5858 11.75 16 11.75H20C20.4142 11.75 20.75 11.4142 20.75 11C20.75 10.5858 20.4142 10.25 20 10.25H16C15.5858 10.25 15.25 10.5858 15.25 11ZM4 13.25C3.58579 13.25 3.25 13.5858 3.25 14C3.25 14.4142 3.58579 14.75 4 14.75H8C8.41421 14.75 8.75 14.4142 8.75 14C8.75 13.5858 8.41421 13.25 8 13.25H4ZM15.25 14C15.25 14.4142 15.5858 14.75 16 14.75H20C20.4142 14.75 20.75 14.4142 20.75 14C20.75 13.5858 20.4142 13.25 20 13.25H16C15.5858 13.25 15.25 13.5858 15.25 14Z" fill="currentColor"/>
</svg>
