<svg viewBox="0 0 24 24" fill="currentColor" xmlns="http://www.w3.org/2000/svg">
<path d="M12 2C11.4477 2 11 2.44772 11 3V3.5H13V3C13 2.44772 12.5523 2 12 2Z" fill="currentColor"/>
<path d="M11 18.5H13V21C13 21.5523 12.5523 22 12 22C11.4477 22 11 21.5523 11 21V18.5Z" fill="currentColor"/>
<path d="M9.56592 11.296L10.1413 9.922H10.1533L10.7337 11.296H9.56592Z" fill="currentColor"/>
<path d="M5 5H19C20.1046 5 21 5.89543 21 7V15C21 16.1046 20.1046 17 19 17H5C3.89543 17 3 16.1046 3 15V7C3 5.89543 3.89543 5 5 5ZM5.452 13.03C5.628 13.054 5.796 13.066 5.956 13.066C6.232 13.066 6.48 13.034 6.7 12.97C6.92 12.906 7.108 12.816 7.264 12.7C7.42 12.58 7.54 12.436 7.624 12.268C7.708 12.1 7.75 11.912 7.75 11.704C7.75 11.396 7.654 11.146 7.462 10.954C7.27 10.762 6.98 10.624 6.592 10.54L5.896 10.39C5.708 10.35 5.578 10.302 5.506 10.246C5.438 10.186 5.404 10.114 5.404 10.03C5.404 9.946 5.43 9.872 5.482 9.808C5.538 9.744 5.618 9.696 5.722 9.664C5.826 9.628 5.952 9.61 6.1 9.61C6.236 9.61 6.376 9.624 6.52 9.652C6.668 9.676 6.8 9.714 6.916 9.766C7.04 9.818 7.146 9.834 7.234 9.814C7.326 9.79 7.398 9.744 7.45 9.676C7.506 9.608 7.538 9.53 7.546 9.442C7.554 9.35 7.538 9.262 7.498 9.178C7.458 9.094 7.392 9.028 7.3 8.98C7.144 8.888 6.958 8.82 6.742 8.776C6.53 8.728 6.32 8.704 6.112 8.704C5.844 8.704 5.6 8.738 5.38 8.806C5.164 8.87 4.976 8.962 4.816 9.082C4.66 9.202 4.538 9.348 4.45 9.52C4.366 9.688 4.324 9.876 4.324 10.084C4.324 10.4 4.418 10.658 4.606 10.858C4.794 11.058 5.08 11.198 5.464 11.278L6.166 11.428C6.354 11.468 6.484 11.516 6.556 11.572C6.632 11.628 6.67 11.702 6.67 11.794C6.67 11.898 6.616 11.986 6.508 12.058C6.404 12.126 6.22 12.16 5.956 12.16C5.788 12.16 5.608 12.14 5.416 12.1C5.224 12.06 5.052 12.004 4.9 11.932C4.784 11.88 4.68 11.868 4.588 11.896C4.496 11.92 4.422 11.97 4.366 12.046C4.31 12.118 4.276 12.202 4.264 12.298C4.252 12.394 4.268 12.486 4.312 12.574C4.356 12.658 4.432 12.726 4.54 12.778C4.664 12.838 4.804 12.89 4.96 12.934C5.116 12.978 5.28 13.01 5.452 13.03ZM8.13133 12.97C8.21533 13.026 8.31933 13.054 8.44333 13.054C8.59933 13.054 8.71533 13.018 8.79133 12.946C8.86733 12.874 8.94133 12.758 9.01333 12.598L9.20722 12.142H11.0934L11.2873 12.598C11.3553 12.758 11.4313 12.874 11.5153 12.946C11.6033 13.018 11.7273 13.054 11.8873 13.054C12.0073 13.054 12.1073 13.026 12.1873 12.97C12.2713 12.914 12.3213 12.834 12.3373 12.73C12.3573 12.626 12.3353 12.51 12.2713 12.382L10.7773 9.166C10.7013 9.01 10.6113 8.896 10.5073 8.824C10.4073 8.752 10.2893 8.716 10.1533 8.716C10.0173 8.716 9.89533 8.752 9.78733 8.824C9.68333 8.896 9.59533 9.01 9.52333 9.166L8.02933 12.382C7.97333 12.51 7.95533 12.626 7.97533 12.73C7.99533 12.83 8.04733 12.91 8.13133 12.97ZM12.9655 12.856C13.0655 12.952 13.2035 13 13.3795 13H15.3895C15.5415 13 15.6575 12.96 15.7375 12.88C15.8215 12.8 15.8635 12.686 15.8635 12.538C15.8635 12.39 15.8215 12.278 15.7375 12.202C15.6575 12.122 15.5415 12.082 15.3895 12.082H13.9255V9.322C13.9255 9.142 13.8775 9.004 13.7815 8.908C13.6895 8.812 13.5535 8.764 13.3735 8.764C13.1975 8.764 13.0615 8.812 12.9655 8.908C12.8695 9.004 12.8215 9.142 12.8215 9.322V12.442C12.8215 12.618 12.8695 12.756 12.9655 12.856ZM16.4753 12.856C16.5753 12.952 16.7193 13 16.9073 13H18.9413C19.0853 13 19.1933 12.964 19.2653 12.892C19.3373 12.82 19.3733 12.714 19.3733 12.574C19.3733 12.438 19.3373 12.334 19.2653 12.262C19.1933 12.186 19.0853 12.148 18.9413 12.148H17.3873V11.278H18.8093C18.9493 11.278 19.0553 11.242 19.1273 11.17C19.2033 11.098 19.2413 10.992 19.2413 10.852C19.2413 10.712 19.2033 10.606 19.1273 10.534C19.0553 10.462 18.9493 10.426 18.8093 10.426H17.3873V9.622H18.9413C19.0853 9.622 19.1933 9.586 19.2653 9.514C19.3373 9.438 19.3733 9.33 19.3733 9.19C19.3733 9.054 19.3373 8.95 19.2653 8.878C19.1933 8.806 19.0853 8.77 18.9413 8.77H16.9073C16.7193 8.77 16.5753 8.82 16.4753 8.92C16.3793 9.016 16.3313 9.156 16.3313 9.34V12.43C16.3313 12.614 16.3793 12.756 16.4753 12.856Z" fill="currentColor"/>
</svg>
