<svg viewBox="0 0 24 24" fill="currentColor" xmlns="http://www.w3.org/2000/svg">
<path d="M6.22004 10.642H5.48804V9.61603H6.22004C6.43204 9.61603 6.59404 9.66003 6.70604 9.74803C6.81804 9.83203 6.87404 9.95803 6.87404 10.126C6.87404 10.302 6.81804 10.432 6.70604 10.516C6.59404 10.6 6.43204 10.642 6.22004 10.642Z" fill="currentColor"/>
<path d="M5 5H19C20.1046 5 21 5.89543 21 7V15C21 16.1046 20.1046 17 19 17H5C3.89543 17 3 16.1046 3 15V7C3 5.89543 3.89543 5 5 5ZM4.528 12.91C4.624 13.006 4.76 13.054 4.936 13.054C5.12 13.054 5.258 13.006 5.35 12.91C5.442 12.81 5.488 12.672 5.488 12.496V11.422H5.818C5.914 11.422 5.998 11.44 6.07 11.476C6.146 11.508 6.208 11.568 6.256 11.656L6.802 12.658C6.878 12.794 6.964 12.894 7.06 12.958C7.16 13.022 7.288 13.054 7.444 13.054C7.6 13.054 7.718 13.02 7.798 12.952C7.882 12.88 7.926 12.79 7.93 12.682C7.934 12.57 7.904 12.456 7.84 12.34L7.54 11.8C7.452 11.632 7.342 11.508 7.21 11.428C7.14766 11.3883 7.08086 11.358 7.00959 11.3371C7.0896 11.3146 7.1644 11.2869 7.234 11.254C7.458 11.146 7.628 10.994 7.744 10.798C7.864 10.598 7.924 10.364 7.924 10.096C7.924 9.68 7.792 9.356 7.528 9.124C7.268 8.888 6.898 8.77 6.418 8.77H4.942C4.766 8.77 4.628 8.818 4.528 8.914C4.432 9.01 4.384 9.148 4.384 9.328V12.496C4.384 12.672 4.432 12.81 4.528 12.91ZM8.76433 12.856C8.86433 12.952 9.00833 13 9.19633 13H11.2303C11.3743 13 11.4823 12.964 11.5543 12.892C11.6263 12.82 11.6623 12.714 11.6623 12.574C11.6623 12.438 11.6263 12.334 11.5543 12.262C11.4823 12.186 11.3743 12.148 11.2303 12.148H9.67633V11.278H11.0983C11.2383 11.278 11.3443 11.242 11.4163 11.17C11.4923 11.098 11.5303 10.992 11.5303 10.852C11.5303 10.712 11.4923 10.606 11.4163 10.534C11.3443 10.462 11.2383 10.426 11.0983 10.426H9.67633V9.622H11.2303C11.3743 9.622 11.4823 9.586 11.5543 9.514C11.6263 9.438 11.6623 9.33 11.6623 9.19C11.6623 9.054 11.6263 8.95 11.5543 8.878C11.4823 8.806 11.3743 8.77 11.2303 8.77H9.19633C9.00833 8.77 8.86433 8.82 8.76433 8.92C8.66833 9.016 8.62033 9.156 8.62033 9.34V12.43C8.62033 12.614 8.66833 12.756 8.76433 12.856ZM12.4379 12.922C12.5259 13.01 12.6539 13.054 12.8219 13.054C12.9899 13.054 13.1159 13.01 13.1999 12.922C13.2879 12.834 13.3319 12.704 13.3319 12.532V10.5704L15.0659 12.742C15.1539 12.85 15.2359 12.93 15.3119 12.982C15.3919 13.03 15.4999 13.054 15.6359 13.054C15.7719 13.054 15.8799 13.01 15.9599 12.922C16.0399 12.83 16.0799 12.708 16.0799 12.556V9.232C16.0799 9.064 16.0359 8.936 15.9479 8.848C15.8639 8.76 15.7379 8.716 15.5699 8.716C15.4019 8.716 15.2739 8.76 15.1859 8.848C15.1019 8.936 15.0599 9.064 15.0599 9.232V11.1941L13.3259 9.028C13.2379 8.916 13.1579 8.836 13.0859 8.788C13.0139 8.74 12.9139 8.716 12.7859 8.716C12.6419 8.716 12.5259 8.764 12.4379 8.86C12.3499 8.952 12.3059 9.086 12.3059 9.262V12.532C12.3059 12.704 12.3499 12.834 12.4379 12.922ZM17.9928 12.91C18.0887 13.006 18.2248 13.054 18.4008 13.054C18.5848 13.054 18.7227 13.006 18.8148 12.91C18.9067 12.81 18.9528 12.672 18.9528 12.496V9.67H19.8948C20.0427 9.67 20.1548 9.632 20.2308 9.556C20.3108 9.476 20.3507 9.364 20.3507 9.22C20.3507 9.072 20.3108 8.96 20.2308 8.884C20.1548 8.808 20.0427 8.77 19.8948 8.77H16.9067C16.7587 8.77 16.6447 8.808 16.5647 8.884C16.4888 8.96 16.4508 9.072 16.4508 9.22C16.4508 9.364 16.4888 9.476 16.5647 9.556C16.6447 9.632 16.7587 9.67 16.9067 9.67H17.8488V12.496C17.8488 12.672 17.8968 12.81 17.9928 12.91Z" fill="currentColor"/>
<path d="M12 2C11.4477 2 11 2.44772 11 3V3.5H13V3C13 2.44772 12.5523 2 12 2Z" fill="currentColor"/>
<path d="M11 18.5H13V21C13 21.5523 12.5523 22 12 22C11.4477 22 11 21.5523 11 21V18.5Z" fill="currentColor"/>
</svg>
