<svg viewBox="0 0 24 24" fill="currentColor" xmlns="http://www.w3.org/2000/svg">
<path d="M2.34339 10.2191L11.1766 2.30555C11.6314 1.89815 12.3686 1.89815 12.8234 2.30555L21.6566 10.2191C22.3902 10.8763 21.8706 12 20.8332 12H19V20C19 21.1046 18.1046 22 17 22H7C5.89543 22 5 21.1046 5 20V12H3.16678C2.12937 12 1.60983 10.8763 2.34339 10.2191ZM8.15695 12.0008C7.73045 12.0073 7.41044 12.359 7.44217 12.7862C7.4739 13.2135 7.84537 13.5546 8.27186 13.5481C11.1891 13.5035 13.4952 15.8077 13.4506 18.7225C13.4441 19.1486 13.7855 19.5197 14.2131 19.5514C14.6407 19.5832 14.9927 19.2634 14.9992 18.8373C15.0576 15.0158 11.9817 11.9424 8.15695 12.0008ZM8.11015 15.0503C7.68365 15.0568 7.36364 15.4085 7.39537 15.8357C7.4271 16.263 7.79857 16.6041 8.22506 16.5976C9.45682 16.5788 10.4174 17.5385 10.3986 18.7692C10.3921 19.1954 10.7334 19.5665 11.1611 19.5982C11.5887 19.6299 11.9406 19.3102 11.9471 18.8841C11.9798 16.7466 10.2494 15.0177 8.11015 15.0503ZM7.28118 18.2109C6.89005 18.6017 6.90934 19.2547 7.32428 19.6692L7.33104 19.676C7.74598 20.0906 8.39943 20.1099 8.79057 19.7191C9.18171 19.3282 9.16242 18.6753 8.74748 18.2608L8.74072 18.254C8.32578 17.8394 7.67232 17.8201 7.28118 18.2109Z" fill="currentColor"/>
</svg>
