<svg viewBox="0 0 24 24" fill="currentColor" xmlns="http://www.w3.org/2000/svg">
<path d="M13.0001 1.25C10.9291 1.25 9.25008 2.92893 9.25008 5V5.99459L9.25006 6L9.25008 6.00541V12.6661C8.63943 12.8821 7.95745 12.8261 7.38377 12.4983L6.98199 12.2687C5.74875 11.564 4.22319 11.6165 3.04135 12.4044L1.58405 13.376C1.23941 13.6057 1.14628 14.0714 1.37604 14.416C1.60581 14.7607 2.07146 14.8538 2.4161 14.624L3.8734 13.6525C4.5825 13.1798 5.49784 13.1482 6.23779 13.5711L6.63956 13.8007C7.79243 14.4594 9.20773 14.4594 10.3606 13.8007L10.8838 13.5017C11.5755 13.1064 12.4247 13.1064 13.1164 13.5017L13.6396 13.8007C14.7925 14.4594 16.2078 14.4594 17.3606 13.8007L17.7624 13.5711C18.5024 13.1482 19.4177 13.1798 20.1268 13.6525L21.5841 14.624C21.9287 14.8538 22.3944 14.7607 22.6242 14.416C22.8539 14.0714 22.7608 13.6057 22.4161 13.376L20.9588 12.4044C20.0021 11.7666 18.82 11.6107 17.7501 11.9484V5C17.7501 3.75736 18.7575 2.75 20.0001 2.75H22.0001C22.4143 2.75 22.7501 2.41421 22.7501 2C22.7501 1.58579 22.4143 1.25 22.0001 1.25H20.0001C17.9291 1.25 16.2501 2.92893 16.2501 5V5.25H10.7501V5C10.7501 3.75736 11.7575 2.75 13.0001 2.75H15.0001C15.4143 2.75 15.7501 2.41421 15.7501 2C15.7501 1.58579 15.4143 1.25 15.0001 1.25H13.0001ZM10.7501 6.75H16.2501V9.25H10.7501V6.75ZM10.7501 10.75H16.2501V12.6661C15.6395 12.8821 14.9575 12.8261 14.3838 12.4983L13.8606 12.1993C12.9045 11.653 11.7679 11.5597 10.7501 11.9196V10.75Z" fill="currentColor"/>
<path d="M10.8838 17.5017C11.5755 17.1064 12.4247 17.1064 13.1164 17.5017L13.6396 17.8007C14.7925 18.4594 16.2078 18.4594 17.3606 17.8007L17.7624 17.5711C18.5024 17.1482 19.4177 17.1798 20.1268 17.6525L21.5841 18.624C21.9287 18.8538 22.3944 18.7607 22.6242 18.416C22.8539 18.0714 22.7608 17.6057 22.4161 17.376L20.9588 16.4044C19.777 15.6165 18.2515 15.564 17.0182 16.2687L16.6164 16.4983C15.9247 16.8936 15.0755 16.8936 14.3838 16.4983L13.8606 16.1993C12.7078 15.5406 11.2925 15.5406 10.1396 16.1993L9.61639 16.4983C8.92467 16.8936 8.07549 16.8936 7.38377 16.4983L6.98199 16.2687C5.74875 15.564 4.22319 15.6165 3.04135 16.4044L1.58405 17.376C1.23941 17.6057 1.14628 18.0714 1.37604 18.416C1.60581 18.7607 2.07146 18.8538 2.4161 18.624L3.8734 17.6525C4.5825 17.1798 5.49784 17.1482 6.23779 17.5711L6.63956 17.8007C7.79243 18.4594 9.20773 18.4594 10.3606 17.8007L10.8838 17.5017Z" fill="currentColor"/>
<path d="M13.1164 21.5017C12.4247 21.1064 11.5755 21.1064 10.8838 21.5017L10.3606 21.8007C9.20773 22.4594 7.79243 22.4594 6.63956 21.8007L6.23779 21.5711C5.49784 21.1482 4.5825 21.1798 3.8734 21.6525L2.4161 22.624C2.07146 22.8538 1.60581 22.7607 1.37604 22.416C1.14628 22.0714 1.23941 21.6057 1.58405 21.376L3.04135 20.4044C4.22319 19.6165 5.74875 19.564 6.98199 20.2687L7.38377 20.4983C8.07549 20.8936 8.92467 20.8936 9.61639 20.4983L10.1396 20.1993C11.2925 19.5406 12.7078 19.5406 13.8606 20.1993L14.3838 20.4983C15.0755 20.8936 15.9247 20.8936 16.6164 20.4983L17.0182 20.2687C18.2515 19.564 19.777 19.6165 20.9588 20.4044L22.4161 21.376C22.7608 21.6057 22.8539 22.0714 22.6242 22.416C22.3944 22.7607 21.9287 22.8538 21.5841 22.624L20.1268 21.6525C19.4177 21.1798 18.5024 21.1482 17.7624 21.5711L17.3606 21.8007C16.2078 22.4594 14.7925 22.4594 13.6396 21.8007L13.1164 21.5017Z" fill="currentColor"/>
</svg>
