<svg viewBox="0 0 24 24" fill="currentColor" xmlns="http://www.w3.org/2000/svg">
<path d="M4 3C2.89543 3 2 3.89543 2 5V6.25H22V5C22 3.89543 21.1046 3 20 3H4Z" fill="currentColor"/>
<path d="M22 7.75V19C22 20.1046 21.1046 21 20 21H4C2.89543 21 2 20.1046 2 19V7.75H22ZM4.36608 11.4603C4.13858 11.5937 4 11.8298 4 12.0842V18.2675C4 18.672 4.3444 19 4.76923 19H7.07692V16.4362C7.07692 15.4248 7.93791 14.6049 9 14.6049C10.0621 14.6049 10.9231 15.4248 10.9231 16.4362V19H13.2308C13.6556 19 14 18.672 14 18.2675V12.0842C14 11.8298 13.8614 11.5937 13.6339 11.4603L9.8063 9.21732C9.31183 8.92756 8.68817 8.92756 8.1937 9.21732L4.36608 11.4603ZM16 14.25C15.5858 14.25 15.25 14.5858 15.25 15C15.25 15.4142 15.5858 15.75 16 15.75H20C20.4142 15.75 20.75 15.4142 20.75 15C20.75 14.5858 20.4142 14.25 20 14.25H16ZM16 17.25C15.5858 17.25 15.25 17.5858 15.25 18C15.25 18.4142 15.5858 18.75 16 18.75H18.5C18.9142 18.75 19.25 18.4142 19.25 18C19.25 17.5858 18.9142 17.25 18.5 17.25H16Z" fill="currentColor"/>
</svg>
