<?xml version="1.0" encoding="utf-8"?>
<!-- Generator: Adobe Illustrator 22.0.0, SVG Export Plug-In . SVG Version: 6.00 Build 0)  -->
<svg version="1.1" id="lni_lni-copy" xmlns="http://www.w3.org/2000/svg" xmlns:xlink="http://www.w3.org/1999/xlink" x="0px"
	 y="0px" viewBox="0 0 64 64" style="enable-background:new 0 0 64 64;" xml:space="preserve">
<g>
	<path d="M56.6,13.2L46.1,2.8c-0.7-0.7-1.7-1.1-2.7-1.1H25.2c-2.9,0-5.3,2.4-5.3,5.3v36.5c0,2.9,2.4,5.3,5.3,5.3h27.2
		c2.9,0,5.3-2.4,5.3-5.3V15.9C57.7,14.9,57.3,13.9,56.6,13.2z M46.3,9.4l3.8,3.8h-3.8V9.4z M52.4,44.3H25.2c-0.4,0-0.8-0.4-0.8-0.8
		V7c0-0.4,0.4-0.8,0.8-0.8h16.6v9.2c0,1.2,1,2.3,2.3,2.3h9.1v25.9C53.2,44,52.8,44.3,52.4,44.3z"/>
	<path d="M44.1,22.5H30.9c-1.2,0-2.3,1-2.3,2.3s1,2.3,2.3,2.3h13.2c1.2,0,2.3-1,2.3-2.3S45.3,22.5,44.1,22.5z"/>
	<path d="M44.1,30.9H30.9c-1.2,0-2.3,1-2.3,2.3c0,1.2,1,2.3,2.3,2.3h13.2c1.2,0,2.3-1,2.3-2.3C46.3,31.9,45.3,30.9,44.1,30.9z"/>
	<path d="M41.8,52c-1.2,0-2.3,1-2.3,2.3V57c0,0.4-0.4,0.8-0.8,0.8H11.6c-0.4,0-0.8-0.4-0.8-0.8V20.4c0-0.4,0.4-0.8,0.8-0.8H15
		c1.2,0,2.3-1,2.3-2.3s-1-2.3-2.3-2.3h-3.4c-2.9,0-5.3,2.4-5.3,5.3V57c0,2.9,2.4,5.3,5.3,5.3h27.2c2.9,0,5.3-2.4,5.3-5.3v-2.7
		C44.1,53,43.1,52,41.8,52z"/>
</g>
</svg>
