<?xml version="1.0" encoding="utf-8"?>
<!-- Generator: Adobe Illustrator 22.0.0, SVG Export Plug-In . SVG Version: 6.00 Build 0)  -->
<svg version="1.1" id="lni_lni-star" xmlns="http://www.w3.org/2000/svg" xmlns:xlink="http://www.w3.org/1999/xlink" x="0px"
	 y="0px" viewBox="0 0 64 64" style="enable-background:new 0 0 64 64;" xml:space="preserve">
<g>
	<path d="M16.1,62.2c-0.9,0-1.8-0.3-2.5-0.8c-1.4-1-2.2-2.8-1.9-4.5l2.6-16.1L3.1,29.3c-1.2-1.2-1.6-3-1.1-4.7
		c0.5-1.6,1.9-2.8,3.5-3L21,19.1l7-14.7c0.8-1.6,2.3-2.6,4-2.6c0,0,0,0,0,0c1.7,0,3.3,1,4,2.6L43,19l15.4,2.4c1.6,0.3,3,1.4,3.5,3
		c0.6,1.7,0.1,3.5-1.1,4.7L49.7,40.7l2.6,16.2c0.3,1.8-0.4,3.5-1.9,4.5c-1.4,1-3.1,1.1-4.6,0.3L32,54.2l-13.8,7.5
		C17.6,62.1,16.8,62.2,16.1,62.2z M6.3,26c0,0,0,0.1,0,0.2l11.7,12c0.7,0.7,1,1.8,0.9,2.8l-2.7,16.7c0,0,0,0,0,0.1l14.4-7.8
		c0.9-0.5,2-0.5,3,0l14.4,7.8c0,0,0,0,0-0.1l-2.7-16.8c-0.2-1,0.2-2,0.9-2.8l11.7-12c0.1-0.1,0-0.2,0-0.2l-16.1-2.5
		c-1-0.2-1.9-0.8-2.3-1.8L32,6.4l-7.2,15.3c-0.4,0.9-1.3,1.6-2.3,1.8L6.3,26z"/>
</g>
</svg>
