<?xml version="1.0" encoding="utf-8"?>
<!-- Generator: Adobe Illustrator 22.0.0, SVG Export Plug-In . SVG Version: 6.00 Build 0)  -->
<svg version="1.1" id="lni_lni-tap" xmlns="http://www.w3.org/2000/svg" xmlns:xlink="http://www.w3.org/1999/xlink" x="0px"
	 y="0px" viewBox="0 0 64 64" style="enable-background:new 0 0 64 64;" xml:space="preserve">
<g>
	<g>
		<path d="M22,18.4c-1.1,0-2.1-0.8-2.2-2c-0.3-3,0.4-6,2-8.5c3.9-6.1,12.1-7.9,18.2-4c4.3,2.7,6.6,7.5,6,12.5
			c-0.1,1.2-1.3,2.1-2.5,2c-1.2-0.1-2.1-1.2-2-2.5c0.4-3.3-1.1-6.5-4-8.2c-4-2.6-9.4-1.4-12,2.6c-1.1,1.7-1.5,3.6-1.3,5.6
			c0.1,1.2-0.7,2.3-2,2.5C22.2,18.3,22.1,18.4,22,18.4z"/>
	</g>
	<g>
		<path d="M30.8,62.3c-2.8,0-5.3-1.9-6-4.6c-1.2-4.7-4.3-8.5-4.4-8.6c-0.8-1-1.9-2.4-2.4-4.4c-0.1-0.5-0.4-1.1-0.6-1.6
			c-0.2-0.5-0.4-1-0.5-1.4c-0.8-2.5-1.8-4.6-3-6.5c-0.8-1.2-0.8-2.3-0.6-2.9c0.2-1,0.9-1.8,1.9-2.5c1-0.6,2.5-0.8,3.6-0.6
			c2,0.4,3.4,1.7,4.3,2.7c0.5,0.5,1,1.4,2,3.4c0,0,0,0.1,0.1,0.1c0.9-5,1.7-10.1,2.5-15l0.4-2.6c0.4-2.4,2.3-4,4.7-3.9
			c0,0,0.1,0,0.1,0c2.4,0.2,4.2,2.2,4.2,4.6c0,1.4,0,2.8,0,4.2l0,1.3c0,0.9,0,1.7,0,2.5c0,0.9,0,1.7,0,2.6l0,0.5
			c2.7,1.1,8.4,4,12.7,9.6c0,0,0,0.1,0.1,0.1c0.7,1,0.9,2.1,0.7,3.2c-0.6,3.4-1.8,8.1-4.1,12c-0.3,0.7-0.5,1.5-0.7,2.1l-0.1,0.4
			l-0.3,1.8c-0.3,1.9-1.9,3.4-3.9,3.6c0,0-0.1,0-0.1,0L30.8,62.3z M18.4,33.7c1.1,1.9,2.1,4,2.9,6.5c0.1,0.4,0.3,0.8,0.4,1.2
			c0.3,0.7,0.5,1.4,0.7,2.1c0.3,0.9,0.7,1.7,1.5,2.7c0.2,0.2,3.9,4.6,5.3,10.4c0.2,0.7,0.8,1.2,1.6,1.2l10.3-0.1l0.3-1.7
			c0-0.1,0-0.2,0.1-0.3l0.1-0.5c0.2-0.7,0.5-1.7,0.9-2.7c0-0.1,0.1-0.2,0.1-0.3c1.5-2.6,2.8-6.3,3.6-10.5
			c-4.9-6.1-11.9-8.4-11.9-8.4c-0.9-0.3-1.6-1.2-1.6-2.2l0-2.1c0-0.9,0-1.7,0-2.5c0-0.9,0-1.7,0-2.6l0-1.3c0-1.4,0-2.7,0-4.1
			c0-0.1,0-0.2-0.1-0.2c0,0,0,0,0,0c0,0,0,0.1,0,0.1l-0.4,2.6c-0.8,5-1.6,10.2-2.6,15.2c0,0.1,0,0.1,0,0.2c-0.2,0.7-0.4,1.6-1,2.5
			c-0.4,0.6-1.5,2.4-3.4,2.4c0,0,0,0-0.1,0c-0.6,0-1.8-0.2-2.7-1.7c-0.4-0.6-0.8-1.5-1.3-2.4c-0.4-0.8-1.1-2.1-1.3-2.4c0,0,0,0,0,0
			C19.3,34.3,18.9,33.9,18.4,33.7z M24.5,37.1L24.5,37.1L24.5,37.1z M20,35C20,35,20,35,20,35C20,35,20,35,20,35z"/>
	</g>
</g>
</svg>
