<svg viewBox="0 0 24 24" fill="currentColor" xmlns="http://www.w3.org/2000/svg">
<path d="M7.25 5.75V3.75C7.25 2.7835 8.0335 2 9 2H15C15.9665 2 16.75 2.7835 16.75 3.75V5.75H20C21.1046 5.75 22 6.64543 22 7.75V20C22 21.1046 21.1046 22 20 22H4C2.89543 22 2 21.1046 2 20V7.75C2 6.64543 2.89543 5.75 4 5.75H7.25ZM8.75 3.75V5.75H15.25V3.75C15.25 3.61193 15.1381 3.5 15 3.5H9C8.86193 3.5 8.75 3.61193 8.75 3.75ZM8.22159 16.9162C8.21366 17.2617 8.48729 17.5353 8.83276 17.5273C9.17224 17.5195 9.50453 17.4116 9.78892 17.2197L9.91096 17.5026L10.215 18.2448C10.3362 18.5406 10.3968 18.6885 10.5132 18.7317C10.5472 18.7444 10.5834 18.7505 10.6202 18.75C10.7463 18.748 10.8638 18.6305 11.099 18.3954C11.1693 18.325 11.4029 18.0915 11.407 17.9132L11.1807 16.0024L12.7754 14.5824L12.9512 14.879L14.8238 18.2016C14.9971 18.5092 15.0838 18.663 15.2305 18.6789C15.3772 18.6948 15.5075 18.5646 15.7681 18.304L15.8238 18.2483C16.1152 17.957 16.2483 17.5458 16.1783 17.1527L15.3175 12.3191L16.23 11.5063C16.7695 11.0259 17.0535 10.3238 16.9916 9.62377C16.9505 9.15891 16.591 8.79946 16.1261 8.75837C15.426 8.69649 14.7238 8.9805 14.2434 9.51987L13.4306 10.4324L8.59643 9.5717C8.20321 9.50177 7.80563 9.62137 7.51427 9.91276L7.5133 9.91372C7.25323 10.1738 7.05419 10.3729 7.07008 10.5194C7.08599 10.6661 7.2398 10.7527 7.54741 10.9261L10.8703 12.7984L11.1669 12.9741L9.74668 14.5686L7.99658 14.2867C7.96546 14.2817 7.9499 14.2792 7.88244 14.2866C7.82054 14.2935 7.81754 14.2931 7.81754 14.2931C7.64007 14.3639 7.41363 14.5903 7.41363 14.5903C7.12219 14.8817 6.97648 15.0275 7.0031 15.1837C7.02972 15.3399 7.21315 15.415 7.58003 15.5653L8.24633 15.8382L8.52923 15.9602C8.33734 16.2446 8.22938 16.5768 8.22159 16.9162Z" fill="currentColor"/>
</svg>
