<svg viewBox="0 0 24 24" fill="currentColor" xmlns="http://www.w3.org/2000/svg">
<path d="M19 8C20.6569 8 22 6.65685 22 5C22 3.34315 20.6569 2 19 2C17.3431 2 16 3.34315 16 5C16 6.65685 17.3431 8 19 8Z" fill="currentColor"/>
<path d="M5.01021 16.2473C3.24109 16.6896 2 18.2792 2 20.1028V21.9999H22V19.8177C22 18.3505 20.6712 17.2415 19.2277 17.504C17.4247 17.8318 15.5767 17.824 13.7766 17.4812L10.427 16.8431L9.27753 12.5532L9.28201 12.5499L10.3787 11.7365L10.3547 11.6778C9.98005 10.7603 9.44046 9.60123 8.81769 8.72993C8.50507 8.29255 8.19078 7.95547 7.8901 7.7533C7.59401 7.5542 7.36172 7.51666 7.16569 7.56918C6.96967 7.62171 6.78727 7.77037 6.63039 8.09084C6.47109 8.41626 6.36744 8.86532 6.3154 9.40042C6.21171 10.4663 6.32395 11.7399 6.45822 12.7218L6.46681 12.7847L7.82326 12.9407L7.82862 12.9414L8.79058 16.5314L7.00223 16.1908C6.34198 16.065 5.66227 16.0843 5.01021 16.2473Z" fill="currentColor"/>
<path d="M8.46762 6.9963C8.39981 6.9507 8.32973 6.90798 8.25757 6.86892C11.2444 6.50415 14.0771 8.24898 14.833 11.07C14.8408 11.0991 14.8436 11.1284 14.842 11.1572C14.828 11.4022 14.4779 11.4163 14.2225 11.3869L12.1097 11.1438C11.8108 11.1095 11.5087 11.1423 11.2263 11.2361C10.8451 10.3125 10.2892 9.12395 9.62677 8.19723C9.28639 7.72101 8.89857 7.28608 8.46762 6.9963Z" fill="currentColor"/>
<path d="M5.48249 12.7751C5.19103 12.8351 4.91298 12.9577 4.67138 13.1369L2.96317 14.4038C2.75669 14.557 2.44641 14.7198 2.31179 14.5146C2.29599 14.4906 2.28378 14.4638 2.27598 14.4347C1.52007 11.6136 3.10086 8.68616 5.86989 7.50867C5.82693 7.57858 5.7876 7.65062 5.75167 7.72402C5.52335 8.19045 5.40496 8.76102 5.34829 9.34363C5.23801 10.4774 5.35084 11.7847 5.48249 12.7751Z" fill="currentColor"/>
</svg>
