<svg viewBox="0 0 24 24" fill="currentColor" xmlns="http://www.w3.org/2000/svg">
<path d="M6.06936 7.81786C5.7266 7.79742 5.38008 7.85169 5.0573 7.98067L2.7751 8.89256C2.49923 9.00279 2.1048 9.09257 2.01603 8.82073C2.00561 8.78885 2 8.75494 2 8.71979C2 5.31243 4.63607 2.4908 8.07389 2C8.00512 2.06581 7.93978 2.13512 7.87782 2.20698C7.48405 2.66366 7.1817 3.27089 6.94455 3.91033C6.48307 5.15467 6.2184 6.662 6.06936 7.81786Z" fill="currentColor"/>
<path d="M7.17276 8.05262C7.31636 6.90552 7.57161 5.43641 8.0055 4.26648C8.2233 3.67919 8.47293 3.20443 8.74766 2.88581C9.0182 2.57203 9.26589 2.45959 9.50005 2.45959C9.73422 2.45959 9.9819 2.57203 10.2525 2.88581C10.5272 3.20443 10.7768 3.67919 10.9946 4.26648C11.4285 5.43641 11.6838 6.90552 11.8274 8.05262L11.8366 8.12601L10.3714 8.71147C10.3313 8.72748 10.2908 8.74234 10.2501 8.75605V17.25H22.0001C22.4143 17.25 22.7501 17.5858 22.7501 18C22.7501 18.4142 22.4143 18.75 22.0001 18.75H19.8107L22.5304 21.4697C22.8233 21.7626 22.8233 22.2374 22.5304 22.5303C22.2375 22.8232 21.7626 22.8232 21.4698 22.5303L17.6894 18.75H10.2501V22C10.2501 22.4142 9.91425 22.75 9.50004 22.75C9.08583 22.75 8.75004 22.4142 8.75004 22V18.75H4.46357L2.67086 22.3354C2.48562 22.7059 2.03511 22.8561 1.66463 22.6708C1.29415 22.4856 1.14398 22.0351 1.32922 21.6646L3.32922 17.6646C3.45626 17.4105 3.71596 17.25 4.00004 17.25H5.39876L1.42388 12.4801C1.1587 12.1619 1.2017 11.689 1.5199 11.4238C1.83811 11.1587 2.31103 11.2017 2.57621 11.5199L7.35132 17.25H8.75004V8.75605C8.70929 8.74234 8.66884 8.72748 8.62877 8.71147L7.16357 8.12603L7.17276 8.05262Z" fill="currentColor"/>
<path d="M11.1222 2.20698C11.0602 2.13512 10.9949 2.06581 10.9261 2C14.3639 2.49082 17 5.31244 17 8.71979C17 8.75494 16.9944 8.78885 16.984 8.82073C16.8952 9.09257 16.5007 9.00279 16.2249 8.89256L13.9427 7.98067C13.6199 7.85169 13.2734 7.79743 12.9306 7.81786C12.7816 6.662 12.5169 5.15467 12.0554 3.91033C11.8183 3.27089 11.516 2.66366 11.1222 2.20698Z" fill="currentColor"/>
</svg>
