<svg viewBox="0 0 24 24" fill="currentColor" xmlns="http://www.w3.org/2000/svg">
<path d="M12.75 2C12.75 1.58579 12.4142 1.25 12 1.25C11.5858 1.25 11.25 1.58579 11.25 2V3.09451C9.95608 3.42755 9 4.60212 9 6C8.44772 6 8 6.44772 8 7V21.25H6.5V11H5C3.89543 11 3 11.8954 3 13V21.25H2C1.58579 21.25 1.25 21.5858 1.25 22C1.25 22.4142 1.58579 22.75 2 22.75H22C22.4142 22.75 22.75 22.4142 22.75 22C22.75 21.5858 22.4142 21.25 22 21.25H21V13C21 11.8954 20.1046 11 19 11H17.5V21.25H16V7C16 6.44772 15.5523 6 15 6C15 4.60212 14.0439 3.42755 12.75 3.09451V2Z" fill="currentColor"/>
</svg>
