<svg viewBox="0 0 24 24" fill="currentColor" xmlns="http://www.w3.org/2000/svg">
<path d="M11 2.75C6.44365 2.75 2.75 6.44365 2.75 11C2.75 15.5563 6.44365 19.25 11 19.25C13.2784 19.25 15.3399 18.3274 16.8336 16.8336C18.3274 15.3399 19.25 13.2784 19.25 11C19.25 6.44365 15.5563 2.75 11 2.75ZM1.25 11C1.25 5.61522 5.61522 1.25 11 1.25C16.3848 1.25 20.75 5.61522 20.75 11C20.75 13.4221 19.866 15.639 18.4043 17.3436L22.5303 21.4697C22.8232 21.7626 22.8232 22.2374 22.5303 22.5303C22.2374 22.8232 21.7626 22.8232 21.4697 22.5303L17.3436 18.4043C15.639 19.866 13.4221 20.75 11 20.75C5.61522 20.75 1.25 16.3848 1.25 11Z" fill="currentColor"/>
<path d="M7.22158 14.1662C7.21365 14.5117 7.48728 14.7853 7.83275 14.7773C8.17223 14.7695 8.50452 14.6616 8.78891 14.4697L8.91095 14.7526L9.21504 15.4948C9.33624 15.7906 9.39683 15.9385 9.51319 15.9817C9.54715 15.9944 9.58342 16.0005 9.62021 16C9.74626 15.998 9.86382 15.8805 10.099 15.6454C10.1693 15.575 10.4029 15.3415 10.407 15.1632L10.1807 13.2524L11.7754 11.8324L11.9512 12.129L13.8238 15.4516C13.9971 15.7592 14.0838 15.913 14.2305 15.9289C14.3772 15.9448 14.5075 15.8146 14.7681 15.554L14.8238 15.4983C15.1152 15.207 15.2483 14.7958 15.1783 14.4027L14.3175 9.56906L15.23 8.75626C15.7695 8.27592 16.0535 7.57382 15.9916 6.87377C15.9505 6.40891 15.591 6.04946 15.1261 6.00837C14.426 5.94649 13.7238 6.2305 13.2434 6.76987L12.4306 7.68241L7.59642 6.8217C7.2032 6.75177 6.80562 6.87137 6.51426 7.16276L6.5133 7.16372C6.25322 7.42382 6.05418 7.62288 6.07007 7.76938C6.08598 7.91606 6.23979 8.00272 6.5474 8.17605L9.87033 10.0484L10.1669 10.2241L8.74667 11.8186L6.99657 11.5367C6.96545 11.5317 6.94989 11.5292 6.88243 11.5366L6.75865 11.571C6.59383 11.6602 6.41384 11.8401 6.41384 11.8401C6.1224 12.1315 5.97647 12.2775 6.00309 12.4337C6.02971 12.5899 6.21314 12.665 6.58002 12.8153L7.24632 13.0882L7.52922 13.2102C7.33733 13.4946 7.22937 13.8268 7.22158 14.1662Z" fill="currentColor"/>
</svg>
