<svg viewBox="0 0 24 24" fill="currentColor" xmlns="http://www.w3.org/2000/svg">
<path d="M12 1.25C14.0711 1.25 15.75 2.92893 15.75 5H17C18.1046 5 19 5.89543 19 7V19C19 20.1046 18.1046 21 17 21C17 21.5523 16.5523 22 16 22C15.4477 22 15 21.5523 15 21H9C9 21.5523 8.55229 22 8 22C7.44772 22 7 21.5523 7 21C5.89543 21 5 20.1046 5 19V7C5 5.89543 5.89543 5 7 5H8.25C8.25 2.92893 9.92893 1.25 12 1.25ZM12 2.75C10.7574 2.75 9.75 3.75736 9.75 5H14.25C14.25 3.75736 13.2426 2.75 12 2.75ZM8 17.25C7.58579 17.25 7.25 17.5858 7.25 18C7.25 18.4142 7.58579 18.75 8 18.75H16C16.4142 18.75 16.75 18.4142 16.75 18C16.75 17.5858 16.4142 17.25 16 17.25H8Z" fill="currentColor"/>
</svg>
