<svg viewBox="0 0 24 24" fill="currentColor" xmlns="http://www.w3.org/2000/svg">
<path d="M7.25 4V3C7.25 2.0335 8.0335 1.25 9 1.25H15C15.9665 1.25 16.75 2.0335 16.75 3V4H18C19.1046 4 20 4.89543 20 6V19C20 20.1046 19.1046 21 18 21C18 21.5523 17.5523 22 17 22C16.4477 22 16 21.5523 16 21H8C8 21.5523 7.55228 22 7 22C6.44772 22 6 21.5523 6 21C4.89543 21 4 20.1046 4 19V6C4 4.89543 4.89543 4 6 4H7.25ZM8.75 3V4H15.25V3C15.25 2.86193 15.1381 2.75 15 2.75H9C8.86193 2.75 8.75 2.86193 8.75 3ZM12 7.25C11.5858 7.25 11.25 7.58579 11.25 8V17C11.25 17.4142 11.5858 17.75 12 17.75C12.4142 17.75 12.75 17.4142 12.75 17V8C12.75 7.58579 12.4142 7.25 12 7.25ZM8.75 11C8.75 10.5858 8.41421 10.25 8 10.25C7.58579 10.25 7.25 10.5858 7.25 11V15C7.25 15.4142 7.58579 15.75 8 15.75C8.41421 15.75 8.75 15.4142 8.75 15V11ZM16 10.25C15.5858 10.25 15.25 10.5858 15.25 11V15C15.25 15.4142 15.5858 15.75 16 15.75C16.4142 15.75 16.75 15.4142 16.75 15V11C16.75 10.5858 16.4142 10.25 16 10.25Z" fill="currentColor"/>
</svg>
