<svg viewBox="0 0 24 24" fill="currentColor" xmlns="http://www.w3.org/2000/svg">
<path d="M7.25 5.75V3.75C7.25 2.7835 8.0335 2 9 2H15C15.9665 2 16.75 2.7835 16.75 3.75V5.75H17V22H7V5.75H7.25ZM8.75 3.75V5.75H15.25V3.75C15.25 3.61193 15.1381 3.5 15 3.5H9C8.86193 3.5 8.75 3.61193 8.75 3.75Z" fill="currentColor"/>
<path d="M2 7.75C2 6.64543 2.89543 5.75 4 5.75H5V22H4C2.89543 22 2 21.1046 2 20V7.75Z" fill="currentColor"/>
<path d="M20 22H19V5.75H20C21.1046 5.75 22 6.64543 22 7.75V20C22 21.1046 21.1046 22 20 22Z" fill="currentColor"/>
</svg>
