<svg viewBox="0 0 24 24" fill="currentColor" xmlns="http://www.w3.org/2000/svg">
<path d="M8 3C8 2.44772 8.44772 2 9 2H15C15.5523 2 16 2.44772 16 3V5C16 5.55228 15.5523 6 15 6H9C8.44772 6 8 5.55228 8 5V3Z" fill="currentColor"/>
<path d="M6 4H6.5V5C6.5 6.38071 7.61929 7.5 9 7.5H15C16.3807 7.5 17.5 6.38071 17.5 5V4H18C19.1046 4 20 4.89543 20 6V20C20 21.1046 19.1046 22 18 22H6C4.89543 22 4 21.1046 4 20V6C4 4.89543 4.89543 4 6 4ZM6 10.25C5.58579 10.25 5.25 10.5858 5.25 11C5.25 11.4142 5.58579 11.75 6 11.75H12C12.4142 11.75 12.75 11.4142 12.75 11C12.75 10.5858 12.4142 10.25 12 10.25H6ZM16 10.25C15.5858 10.25 15.25 10.5858 15.25 11C15.25 11.4142 15.5858 11.75 16 11.75H18C18.4142 11.75 18.75 11.4142 18.75 11C18.75 10.5858 18.4142 10.25 18 10.25H16ZM6 13.75C5.58579 13.75 5.25 14.0858 5.25 14.5C5.25 14.9142 5.58579 15.25 6 15.25H12C12.4142 15.25 12.75 14.9142 12.75 14.5C12.75 14.0858 12.4142 13.75 12 13.75H6ZM16 13.75C15.5858 13.75 15.25 14.0858 15.25 14.5C15.25 14.9142 15.5858 15.25 16 15.25H18C18.4142 15.25 18.75 14.9142 18.75 14.5C18.75 14.0858 18.4142 13.75 18 13.75H16ZM6 17.25C5.58579 17.25 5.25 17.5858 5.25 18C5.25 18.4142 5.58579 18.75 6 18.75H12C12.4142 18.75 12.75 18.4142 12.75 18C12.75 17.5858 12.4142 17.25 12 17.25H6ZM16 17.25C15.5858 17.25 15.25 17.5858 15.25 18C15.25 18.4142 15.5858 18.75 16 18.75H18C18.4142 18.75 18.75 18.4142 18.75 18C18.75 17.5858 18.4142 17.25 18 17.25H16Z" fill="currentColor"/>
</svg>
