<svg viewBox="0 0 24 24" fill="currentColor" xmlns="http://www.w3.org/2000/svg">
<path d="M12 4C12 2.89543 12.8954 2 14 2H20C21.1046 2 22 2.89543 22 4V21.25C22.4142 21.25 22.75 21.5858 22.75 22C22.75 22.4142 22.4142 22.75 22 22.75H2C1.58579 22.75 1.25 22.4142 1.25 22C1.25 21.5858 1.58579 21.25 2 21.25V11.4396C2 10.1775 3.15465 9.23094 4.39223 9.47845L12 11V4ZM14.25 14C14.25 14.4142 14.5858 14.75 15 14.75H19C19.4142 14.75 19.75 14.4142 19.75 14C19.75 13.5858 19.4142 13.25 19 13.25H15C14.5858 13.25 14.25 13.5858 14.25 14ZM15 9.25C14.5858 9.25 14.25 9.58579 14.25 10C14.25 10.4142 14.5858 10.75 15 10.75H19C19.4142 10.75 19.75 10.4142 19.75 10C19.75 9.58579 19.4142 9.25 19 9.25H15ZM14.25 6C14.25 6.41421 14.5858 6.75 15 6.75H19C19.4142 6.75 19.75 6.41421 19.75 6C19.75 5.58579 19.4142 5.25 19 5.25H15C14.5858 5.25 14.25 5.58579 14.25 6ZM15 17.25C14.5858 17.25 14.25 17.5858 14.25 18C14.25 18.4142 14.5858 18.75 15 18.75H19C19.4142 18.75 19.75 18.4142 19.75 18C19.75 17.5858 19.4142 17.25 19 17.25H15ZM4.25 14C4.25 14.4142 4.58579 14.75 5 14.75H6C6.41421 14.75 6.75 14.4142 6.75 14C6.75 13.5858 6.41421 13.25 6 13.25H5C4.58579 13.25 4.25 13.5858 4.25 14ZM5 17.25C4.58579 17.25 4.25 17.5858 4.25 18C4.25 18.4142 4.58579 18.75 5 18.75H6C6.41421 18.75 6.75 18.4142 6.75 18C6.75 17.5858 6.41421 17.25 6 17.25H5ZM8.25 14C8.25 14.4142 8.58579 14.75 9 14.75H10C10.4142 14.75 10.75 14.4142 10.75 14C10.75 13.5858 10.4142 13.25 10 13.25H9C8.58579 13.25 8.25 13.5858 8.25 14ZM9 17.25C8.58579 17.25 8.25 17.5858 8.25 18C8.25 18.4142 8.58579 18.75 9 18.75H10C10.4142 18.75 10.75 18.4142 10.75 18C10.75 17.5858 10.4142 17.25 10 17.25H9Z" fill="currentColor"/>
</svg>
