<svg viewBox="0 0 24 24" fill="currentColor" xmlns="http://www.w3.org/2000/svg">
<path d="M17.67 12.06C17.7833 12.18 17.9267 12.24 18.1 12.24C18.2733 12.24 18.4133 12.18 18.52 12.06C18.6333 11.9467 18.69 11.8067 18.69 11.64V11.0098C19.0569 10.9472 19.3836 10.8373 19.67 10.68C20.01 10.4933 20.2767 10.25 20.47 9.94996C20.6633 9.6433 20.76 9.29329 20.76 8.89996C20.76 8.39996 20.6067 7.99329 20.3 7.67996C20 7.36663 19.5333 7.13996 18.9 6.99996L17.79 6.75996C17.4633 6.68663 17.2333 6.5933 17.1 6.47996C16.9733 6.36663 16.91 6.21663 16.91 6.02996C16.91 5.77663 17.0167 5.56996 17.23 5.40996C17.45 5.24996 17.7567 5.16996 18.15 5.16996C18.4633 5.16996 18.7267 5.19996 18.94 5.25996C19.1533 5.31996 19.35 5.3933 19.53 5.47996C19.7033 5.56663 19.8533 5.59996 19.98 5.57996C20.1133 5.5533 20.22 5.49663 20.3 5.40996C20.38 5.31663 20.43 5.20996 20.45 5.08996C20.4767 4.96996 20.4633 4.84996 20.41 4.72996C20.3633 4.60996 20.2767 4.50996 20.15 4.42996C19.9167 4.26329 19.64 4.13663 19.32 4.04996C19.1002 3.98448 18.8902 3.93868 18.69 3.91258V3.30996C18.69 3.14329 18.6333 3.00329 18.52 2.88996C18.4067 2.76996 18.2667 2.70996 18.1 2.70996C17.9267 2.70996 17.7833 2.76996 17.67 2.88996C17.5567 3.00329 17.5 3.14329 17.5 3.30996V3.93905C17.1297 3.99449 16.7997 4.10146 16.51 4.25996C16.1633 4.45329 15.89 4.70663 15.69 5.01996C15.4967 5.33329 15.4 5.68996 15.4 6.08996C15.4 6.60329 15.55 7.02329 15.85 7.34996C16.15 7.66996 16.6067 7.89663 17.22 8.02996L18.32 8.26996C18.5467 8.31663 18.7267 8.37663 18.86 8.44996C19 8.51663 19.0967 8.59663 19.15 8.68996C19.21 8.78329 19.24 8.88996 19.24 9.00996C19.24 9.15663 19.1967 9.28663 19.11 9.39996C19.03 9.5133 18.8967 9.60663 18.71 9.67996C18.5233 9.74663 18.2767 9.77996 17.97 9.77996C17.5567 9.77996 17.2067 9.73663 16.92 9.64996C16.6333 9.55663 16.41 9.46663 16.25 9.37996C16.0833 9.29329 15.9333 9.26663 15.8 9.29996C15.6733 9.33329 15.57 9.4033 15.49 9.50996C15.41 9.60996 15.3633 9.72996 15.35 9.86996C15.3367 10.0033 15.3567 10.1333 15.41 10.26C15.47 10.3867 15.5733 10.4867 15.72 10.56C15.9467 10.68 16.23 10.79 16.57 10.89C16.8417 10.9699 17.1517 11.0221 17.5 11.0467V11.64C17.5 11.8067 17.5567 11.9467 17.67 12.06Z" fill="currentColor"/>
<path d="M11.1679 17.2481L9.03647 20.4453C8.59343 21.1098 9.06982 22 9.86852 22H14.1315C14.9302 22 15.4066 21.1098 14.9635 20.4453L12.8321 17.2481C12.4362 16.6543 11.5638 16.6543 11.1679 17.2481Z" fill="currentColor"/>
<path d="M1.25 15C1.25 14.5858 1.58579 14.25 2 14.25H22C22.4142 14.25 22.75 14.5858 22.75 15C22.75 15.4142 22.4142 15.75 22 15.75H2C1.58579 15.75 1.25 15.4142 1.25 15Z" fill="currentColor"/>
<path d="M6 7C7.10457 7 8 6.10457 8 5C8 3.89543 7.10457 3 6 3C4.89543 3 4 3.89543 4 5C4 6.10457 4.89543 7 6 7Z" fill="currentColor"/>
<path d="M3 8C2.44772 8 2 8.44772 2 9C2 11.2091 3.79086 13 6 13C8.20914 13 10 11.2091 10 9C10 8.44772 9.55228 8 9 8H3Z" fill="currentColor"/>
</svg>
