<svg viewBox="0 0 24 24" fill="currentColor" xmlns="http://www.w3.org/2000/svg">
<path d="M1.28845 3.76279C1.41943 3.36983 1.84417 3.15746 2.23713 3.28845L4.13605 3.92142C5.07226 4.23349 5.76948 5.02329 5.96302 5.99098L7.41384 13.2451C7.5307 13.8294 8.04372 14.25 8.63957 14.25H18.3956C18.9815 14.25 19.4888 13.8431 19.6159 13.2712L21.2678 5.83726C21.3577 5.43291 21.7583 5.17796 22.1627 5.26782C22.567 5.35768 22.822 5.75831 22.7321 6.16266L21.0801 13.5965C20.8005 14.8548 19.6845 15.75 18.3956 15.75H8.63957C7.32869 15.75 6.20005 14.8247 5.94297 13.5393L4.49214 6.28515C4.40417 5.84529 4.08726 5.48629 3.6617 5.34444L1.76279 4.71147C1.36983 4.58049 1.15746 4.15575 1.28845 3.76279Z" fill="currentColor"/>
<path d="M11 18.5C11 19.3284 10.3284 20 9.49996 20C8.67153 20 7.99996 19.3284 7.99996 18.5C7.99996 17.6716 8.67153 17 9.49996 17C10.3284 17 11 17.6716 11 18.5Z" fill="currentColor"/>
<path d="M17.5 20C18.3284 20 19 19.3284 19 18.5C19 17.6716 18.3284 17 17.5 17C16.6715 17 16 17.6716 16 18.5C16 19.3284 16.6715 20 17.5 20Z" fill="currentColor"/>
</svg>
