<svg viewBox="0 0 24 24" fill="currentColor" xmlns="http://www.w3.org/2000/svg">
<path d="M22 12C22 17.5228 17.5228 22 12 22C6.47715 22 2 17.5228 2 12C2 6.47715 6.47715 2 12 2C17.5228 2 22 6.47715 22 12ZM11.4341 18.2545C11.6015 18.4182 11.8133 18.5 12.0694 18.5C12.3256 18.5 12.5324 18.4182 12.6901 18.2545C12.8575 18.0999 12.9413 17.9089 12.9413 17.6815V16.8219C13.4834 16.7365 13.9661 16.5865 14.3894 16.372C14.8918 16.1173 15.2858 15.7854 15.5715 15.3762C15.8572 14.9579 16 14.4804 16 13.9439C16 13.2618 15.7734 12.7071 15.3203 12.2796C14.877 11.8522 14.1874 11.543 13.2516 11.352L11.6114 11.0247C11.1287 10.9246 10.7888 10.7973 10.5918 10.6427C10.4046 10.4881 10.311 10.2835 10.311 10.0289C10.311 9.68328 10.4687 9.40136 10.7839 9.18311C11.109 8.96485 11.5621 8.85572 12.1433 8.85572C12.6063 8.85572 12.9954 8.89664 13.3107 8.97849C13.6259 9.06034 13.9165 9.16037 14.1825 9.27859C14.4386 9.39682 14.6603 9.44229 14.8474 9.415C15.0445 9.37863 15.2021 9.30133 15.3203 9.18311C15.4385 9.05579 15.5124 8.91028 15.5419 8.74659C15.5813 8.5829 15.5616 8.4192 15.4828 8.25551C15.4139 8.09182 15.2858 7.9554 15.0986 7.84628C14.7538 7.61892 14.345 7.44614 13.8722 7.32791C13.5473 7.23858 13.237 7.17611 12.9413 7.14051V6.31847C12.9413 6.09112 12.8575 5.90014 12.6901 5.74554C12.5226 5.58185 12.3157 5.5 12.0694 5.5C11.8133 5.5 11.6015 5.58185 11.4341 5.74554C11.2666 5.90014 11.1829 6.09112 11.1829 6.31847V7.17661C10.6356 7.25224 10.148 7.39816 9.71999 7.61438C9.20773 7.8781 8.80384 8.22368 8.50831 8.6511C8.22263 9.07852 8.07979 9.56506 8.07979 10.1107C8.07979 10.8109 8.30144 11.3839 8.74474 11.8295C9.18803 12.266 9.86283 12.5752 10.7691 12.7571L12.3945 13.0845C12.7295 13.1481 12.9954 13.23 13.1925 13.33C13.3993 13.421 13.5422 13.5301 13.621 13.6574C13.7096 13.7847 13.754 13.9302 13.754 14.0939C13.754 14.294 13.6899 14.4713 13.5619 14.6259C13.4437 14.7805 13.2466 14.9078 12.9708 15.0079C12.695 15.0988 12.3305 15.1443 11.8774 15.1443C11.2666 15.1443 10.7494 15.0852 10.3258 14.9669C9.90223 14.8396 9.57222 14.7169 9.3358 14.5986C9.08952 14.4804 8.86787 14.444 8.67085 14.4895C8.48368 14.535 8.33099 14.6305 8.21278 14.776C8.09457 14.9124 8.02561 15.0761 8.00591 15.2671C7.98621 15.4489 8.01576 15.6263 8.09457 15.7991C8.18323 15.9718 8.33592 16.1083 8.55264 16.2083C8.88758 16.372 9.30624 16.522 9.80864 16.6584C10.2101 16.7675 10.6682 16.8387 11.1829 16.8722V17.6815C11.1829 17.9089 11.2666 18.0999 11.4341 18.2545Z" fill="currentColor"/>
</svg>
