<svg viewBox="0 0 24 24" fill="currentColor" xmlns="http://www.w3.org/2000/svg">
<path d="M12 2.75C6.88942 2.75 2.75 6.88942 2.75 12C2.75 12.5421 2.79126 13.0602 2.86481 13.556L4.72756 11.0042C4.97178 10.6696 5.44097 10.5964 5.77553 10.8406C6.11009 11.0848 6.18333 11.554 5.93911 11.8886L3.10174 15.7755C2.93374 16.0057 2.64985 16.1207 2.36902 16.0725C2.0882 16.0243 1.85896 15.8211 1.77737 15.5481C1.45947 14.4843 1.25 13.3045 1.25 12C1.25 6.06099 6.06099 1.25 12 1.25C15.2114 1.25 18.0938 2.6576 20.0623 4.88756C20.3364 5.19809 20.3069 5.67204 19.9963 5.94617C19.6858 6.22029 19.2119 6.19077 18.9377 5.88024C17.2421 3.9594 14.7635 2.75 12 2.75Z" fill="currentColor"/>
<path d="M14.8 7.8C14.8 9.3464 13.5464 10.6 12 10.6C10.4536 10.6 9.19999 9.3464 9.19999 7.8C9.19999 6.2536 10.4536 5 12 5C13.5464 5 14.8 6.2536 14.8 7.8Z" fill="currentColor"/>
<path d="M7.79999 12C7.0268 12 6.39999 12.6268 6.39999 13.4C6.39999 16.4928 8.9072 19 12 19C15.0928 19 17.6 16.4928 17.6 13.4C17.6 12.6268 16.9732 12 16.2 12H7.79999ZM10.95 13.05C10.95 12.8567 11.1067 12.7 11.3 12.7H12.7C12.8933 12.7 13.05 12.8567 13.05 13.05V15.9667C13.05 16.1181 13.0009 16.2655 12.91 16.3867L12.28 17.2267C12.14 17.4133 11.86 17.4133 11.72 17.2267L11.09 16.3867C10.9991 16.2655 10.95 16.1181 10.95 15.9667V13.05Z" fill="currentColor"/>
<path d="M21.25 12C21.25 17.1106 17.1106 21.25 12 21.25C9.23651 21.25 6.75788 20.0406 5.06227 18.1198C4.78815 17.8092 4.31419 17.7797 4.00366 18.0538C3.69313 18.328 3.66361 18.8019 3.93773 19.1124C5.90621 21.3424 8.78864 22.75 12 22.75C17.939 22.75 22.75 17.939 22.75 12C22.75 10.6955 22.5405 9.51564 22.2226 8.45189C22.141 8.17889 21.9118 7.9757 21.631 7.92747C21.3502 7.87924 21.0663 7.99431 20.8983 8.22445L18.0609 12.1114C17.8167 12.446 17.8899 12.9152 18.2245 13.1594C18.559 13.4036 19.0282 13.3304 19.2724 12.9958L21.1352 10.444C21.2087 10.9398 21.25 11.4579 21.25 12Z" fill="currentColor"/>
</svg>
