<svg viewBox="0 0 24 24" fill="currentColor" xmlns="http://www.w3.org/2000/svg">
<path d="M2 4C2 2.89543 2.89543 2 4 2H20C21.1046 2 22 2.89543 22 4V22C22 22.4142 21.6642 22.75 21.25 22.75C20.8358 22.75 20.5 22.4142 20.5 22V20H12.75V22C12.75 22.4142 12.4142 22.75 12 22.75C11.5858 22.75 11.25 22.4142 11.25 22V10H3.5V22C3.5 22.4142 3.16421 22.75 2.75 22.75C2.33579 22.75 2 22.4142 2 22V4ZM10 5.25C9.58579 5.25 9.25 5.58579 9.25 6C9.25 6.41421 9.58579 6.75 10 6.75H14C14.4142 6.75 14.75 6.41421 14.75 6C14.75 5.58579 14.4142 5.25 14 5.25H10ZM14.75 12.5C14.75 12.9142 15.0858 13.25 15.5 13.25H17.5C17.9142 13.25 18.25 12.9142 18.25 12.5C18.25 12.0858 17.9142 11.75 17.5 11.75H15.5C15.0858 11.75 14.75 12.0858 14.75 12.5ZM15.5 16.75C15.0858 16.75 14.75 17.0858 14.75 17.5C14.75 17.9142 15.0858 18.25 15.5 18.25H17.5C17.9142 18.25 18.25 17.9142 18.25 17.5C18.25 17.0858 17.9142 16.75 17.5 16.75H15.5Z" fill="currentColor"/>
</svg>
