<svg viewBox="0 0 24 24" fill="currentColor" xmlns="http://www.w3.org/2000/svg">
<path d="M18.4697 1.46967C18.7626 1.17678 19.2374 1.17678 19.5303 1.46967L22.5303 4.46967C22.8232 4.76256 22.8232 5.23744 22.5303 5.53033C22.2374 5.82322 21.7626 5.82322 21.4697 5.53033L19.75 3.81066V9C19.75 9.41421 19.4142 9.75 19 9.75C18.5858 9.75 18.25 9.41421 18.25 9V3.81066L16.5303 5.53033C16.2374 5.82322 15.7626 5.82322 15.4697 5.53033C15.1768 5.23744 15.1768 4.76256 15.4697 4.46967L18.4697 1.46967Z" fill="currentColor"/>
<path d="M11.25 19H4C2.89543 19 2 18.1046 2 17V6C2 4.89543 2.89543 4 4 4H13.9838C13.5663 4.84153 13.708 5.88999 14.409 6.59099C15.0421 7.22405 15.9585 7.40101 16.75 7.12187V9C16.75 10.2426 17.7574 11.25 19 11.25C20.2426 11.25 21.25 10.2426 21.25 9V7.12187C21.4922 7.20729 21.7461 7.25 22 7.25V17C22 18.1046 21.1046 19 20 19H12.75V21.25H15C15.4142 21.25 15.75 21.5858 15.75 22C15.75 22.4142 15.4142 22.75 15 22.75H9C8.58579 22.75 8.25 22.4142 8.25 22C8.25 21.5858 8.58579 21.25 9 21.25H11.25V19ZM12.0521 16.5C12.2442 16.5 12.3993 16.437 12.5175 16.3111C12.6431 16.1922 12.7059 16.0453 12.7059 15.8704V15.2092C13.1125 15.1435 13.4746 15.0281 13.792 14.8631C14.1688 14.6672 14.4644 14.4119 14.6786 14.0971C14.8929 13.7753 15 13.408 15 12.9953C15 12.4706 14.8301 12.0439 14.4902 11.7151C14.1577 11.3863 13.6406 11.1485 12.9387 11.0016L11.7085 10.7497C11.3465 10.6728 11.0916 10.5749 10.9438 10.4559C10.8035 10.337 10.7333 10.1796 10.7333 9.98374C10.7333 9.71791 10.8515 9.50105 11.0879 9.33316C11.3317 9.16527 11.6716 9.08132 12.1075 9.08132C12.4547 9.08132 12.7466 9.1128 12.983 9.17576C13.2194 9.23872 13.4374 9.31567 13.6369 9.40661C13.829 9.49755 13.9952 9.53253 14.1356 9.51154C14.2833 9.48356 14.4016 9.4241 14.4902 9.33316C14.5789 9.23522 14.6343 9.12329 14.6564 8.99738C14.686 8.87146 14.6712 8.74554 14.6121 8.61962C14.5604 8.4937 14.4644 8.38877 14.324 8.30483C14.0654 8.12994 13.7588 7.99703 13.4041 7.90609C13.1605 7.83737 12.9278 7.78932 12.7059 7.76193V7.12959C12.7059 6.9547 12.6431 6.8078 12.5175 6.68888C12.3919 6.56296 12.2368 6.5 12.0521 6.5C11.86 6.5 11.7011 6.56296 11.5755 6.68888C11.4499 6.8078 11.3871 6.9547 11.3871 7.12959V7.7897C10.9767 7.84788 10.611 7.96013 10.29 8.12644C9.9058 8.32931 9.60288 8.59514 9.38123 8.92392C9.16698 9.25271 9.05984 9.62697 9.05984 10.0467C9.05984 10.5853 9.22608 11.0261 9.55855 11.3688C9.89102 11.7046 10.3971 11.9425 11.0768 12.0824L12.2959 12.3342C12.5471 12.3832 12.7466 12.4461 12.8943 12.5231C13.0495 12.593 13.1566 12.677 13.2157 12.7749C13.2822 12.8729 13.3155 12.9848 13.3155 13.1107C13.3155 13.2646 13.2675 13.401 13.1714 13.5199C13.0827 13.6389 12.935 13.7368 12.7281 13.8137C12.5212 13.8837 12.2479 13.9187 11.908 13.9187C11.4499 13.9187 11.0621 13.8732 10.7444 13.7823C10.4267 13.6843 10.1792 13.5899 10.0018 13.499C9.81714 13.408 9.6509 13.38 9.50314 13.415C9.36276 13.45 9.24825 13.5234 9.15959 13.6354C9.07093 13.7403 9.01921 13.8662 9.00443 14.0131C8.98966 14.153 9.01182 14.2894 9.07093 14.4224C9.13742 14.5553 9.25194 14.6602 9.41448 14.7371C9.66568 14.8631 9.97968 14.9785 10.3565 15.0834C10.6576 15.1673 11.0011 15.2221 11.3871 15.2479V15.8704C11.3871 16.0453 11.4499 16.1922 11.5755 16.3111C11.7011 16.437 11.86 16.5 12.0521 16.5Z" fill="currentColor"/>
</svg>
