<svg viewBox="0 0 24 24" fill="currentColor" xmlns="http://www.w3.org/2000/svg">
<path d="M18 3.52469C17.9045 3.37931 17.7968 3.24087 17.6754 3.11239C16.7953 2.18126 15.4209 2.01273 14.6326 2.00008C14.2726 1.99431 13.9947 2.28815 14.0001 2.66884C14.0118 3.50269 14.1706 4.95648 15.0507 5.88761C15.5963 6.46486 16.3318 6.74902 17 6.88464V11C17 11.5523 17.4477 12 18 12C18.5523 12 19 11.5523 19 11V6.88464C19.6682 6.74902 20.4037 6.46486 20.9493 5.88761C21.8294 4.95648 21.9882 3.50269 21.9999 2.66884C22.0053 2.28815 21.7274 1.99431 21.3674 2.00008C20.5791 2.01273 19.2047 2.18126 18.3246 3.11239C18.2032 3.24087 18.0955 3.37931 18 3.52469Z" fill="currentColor"/>
<path d="M17.111 21.1297C14.6039 21.9654 11.9057 22.0159 9.37549 21.2813C9.45629 21.0355 9.5 20.7729 9.5 20.5V15.5C9.5 15.2515 9.46373 15.0114 9.39619 14.7848C11.2132 14.2852 13.1183 14.1864 14.9795 14.4966L15.549 14.5915C16.317 14.7195 16.8929 15.2604 17.1179 15.9318L14.7437 16.7952C14.3544 16.9367 14.1536 17.367 14.2952 17.7563C14.4367 18.1456 14.867 18.3464 15.2563 18.2048L17.6228 17.3443L19.9824 16.7544C21.0073 16.4982 22 17.2733 22 18.3297C22 19.0286 21.5528 19.6491 20.8897 19.8701L17.111 21.1297Z" fill="currentColor"/>
<path d="M3 14.5C2.44772 14.5 2 14.9477 2 15.5V20.5C2 21.0523 2.44772 21.5 3 21.5H7C7.55228 21.5 8 21.0523 8 20.5V15.5C8 14.9477 7.55228 14.5 7 14.5H3Z" fill="currentColor"/>
</svg>
