<svg viewBox="0 0 24 24" fill="currentColor" xmlns="http://www.w3.org/2000/svg">
<path d="M2.83209 8H4.00001C4.46596 8 4.85749 8.31869 4.9685 8.75H6.58579C6.64432 8.75 6.7279 8.72544 6.81663 8.6496C7.60093 7.97929 8.80803 7.2694 10.236 7.05082C11.6567 6.83335 13.2609 7.11004 14.8064 8.32502C14.9217 8.27756 15.0512 8.25 15.1934 8.25H19.3385C19.5148 8.09441 19.7464 8 20 8H21.1679C19.6248 4.46819 16.1006 2 12 2C7.89937 2 4.37521 4.46819 2.83209 8Z" fill="currentColor"/>
<path d="M21.1679 16H20C19.7464 16 19.5148 15.9056 19.3385 15.75H17.3271C16.6932 15.75 16.0887 16.0174 15.6622 16.4865L12.533 19.9286C11.712 20.8318 10.2158 20.4554 9.91975 19.2713C9.91662 19.2588 9.90536 19.25 9.89244 19.25H9.63278C8.75022 19.25 8.00577 18.5928 7.8963 17.7171L7.83766 17.248C7.10602 17.2094 6.61635 16.6196 6.57816 15.9846C6.07577 15.8291 5.55266 15.75 5.02634 15.75H4.66147C4.48519 15.9056 4.25362 16 4.00001 16H2.83209C4.37521 19.5318 7.89937 22 12 22C16.1006 22 19.6248 19.5318 21.1679 16Z" fill="currentColor"/>
<path d="M5.02634 14.25H5.00001V10.25H6.58579C7.0577 10.25 7.4767 10.0587 7.79119 9.78988C8.41864 9.25362 9.37555 8.7 10.463 8.53355C11.5215 8.37151 12.7384 8.56826 13.974 9.58024C14.1372 9.71383 14.3015 9.86232 14.4664 10.027L14.4697 10.0303C14.575 10.1357 14.6376 10.2677 14.6574 10.4046C14.6863 10.6048 14.6237 10.8156 14.4697 10.9697L14.3986 11.0407C14.1295 11.3098 13.7035 11.3401 13.399 11.1118L13.1438 10.9204C12.4471 10.3978 11.4722 10.4671 10.8564 11.0829L7.39922 14.5401C7.33684 14.6025 7.24457 14.6243 7.16088 14.5964C6.4726 14.367 5.75184 14.25 5.02634 14.25Z" fill="currentColor"/>
<path d="M8.27488 15.7858C8.81647 15.9128 9.23898 16.3652 9.31063 16.9383L9.38471 17.531C9.40035 17.6561 9.5067 17.75 9.63278 17.75H9.89244C10.5937 17.75 11.2049 18.2272 11.375 18.9075C11.3768 18.9148 11.379 18.9188 11.379 18.9188L11.3806 18.9208C11.3821 18.9222 11.3869 18.9259 11.3954 18.928C11.4039 18.9301 11.4099 18.9292 11.4119 18.9286L11.4142 18.9276C11.4142 18.9276 11.418 18.9252 11.4231 18.9196L14.5523 15.4775C15.263 14.6957 16.2706 14.25 17.3271 14.25H19V9.75H16.0307C16.0469 9.79406 16.0617 9.83853 16.0749 9.88336C16.2931 10.6197 16.1115 11.4491 15.5303 12.0303L15.4593 12.1014C14.6623 12.8983 13.4007 12.988 12.499 12.3118L12.2438 12.1204C12.1583 12.0562 12.0434 12.0545 11.957 12.1111C11.9428 12.1204 11.9294 12.1312 11.9171 12.1436L8.27488 15.7858Z" fill="currentColor"/>
</svg>
