<svg viewBox="0 0 24 24" fill="currentColor" xmlns="http://www.w3.org/2000/svg">
<path d="M5.02633 13.7668C5.55265 13.7668 6.07576 13.8459 6.57815 14.0014C6.61634 14.6365 7.10601 15.2262 7.83766 15.2648L7.89629 15.7339C8.00576 16.6096 8.75021 17.2668 9.63278 17.2668H9.89243C9.90535 17.2668 9.91661 17.2756 9.91974 17.2881C10.2158 18.4722 11.712 18.8486 12.533 17.9455L15.6622 14.5033C16.0887 14.0342 16.6932 13.7668 17.3271 13.7668H19.3385C19.5148 13.9224 19.7464 14.0168 20 14.0168H22V6.01682H20C19.7464 6.01682 19.5148 6.11122 19.3385 6.26682H15.1934C15.0512 6.26682 14.9217 6.29437 14.8064 6.34184C13.2609 5.12686 11.6567 4.85017 10.236 5.06763C8.80803 5.28622 7.60092 5.9961 6.81663 6.66641C6.72789 6.74225 6.64431 6.76681 6.58579 6.76681H4.9685C4.85748 6.33551 4.46596 6.01682 4 6.01682H2V14.0168H4C4.25362 14.0168 4.48518 13.9224 4.66147 13.7668H5.02633ZM5 12.2668V8.26681H6.58579C7.05769 8.26681 7.47669 8.07548 7.79118 7.80669C8.41864 7.27043 9.37555 6.71682 10.463 6.55036C11.5215 6.38832 12.7384 6.58508 13.974 7.59705C14.1372 7.73065 14.3015 7.87914 14.4664 8.04384L14.4697 8.04716C14.575 8.15253 14.6376 8.2845 14.6574 8.42146C14.6863 8.62163 14.6237 8.83246 14.4697 8.98647L14.3986 9.05755C14.1295 9.32664 13.7035 9.35692 13.399 9.12858L13.1438 8.93718C12.4471 8.41465 11.4722 8.48393 10.8564 9.09974L7.39922 12.5569C7.33684 12.6193 7.24457 12.6411 7.16087 12.6132C6.4726 12.3838 5.75184 12.2668 5.02633 12.2668H5ZM9.31063 14.9552C9.23898 14.382 8.81646 13.9296 8.27488 13.8026L11.9171 10.1604C11.9294 10.148 11.9428 10.1372 11.957 10.1279C12.0434 10.0713 12.1583 10.073 12.2438 10.1372L12.499 10.3286C13.4007 11.0048 14.6623 10.9151 15.4593 10.1182L15.5303 10.0471C16.1115 9.46595 16.293 8.63647 16.0749 7.90017C16.0617 7.85535 16.0469 7.81087 16.0307 7.76682H19V12.2668H17.3271C16.2706 12.2668 15.263 12.7125 14.5523 13.4943L11.4231 16.9364C11.418 16.942 11.4142 16.9445 11.4142 16.9445L11.4119 16.9455C11.4099 16.946 11.4039 16.947 11.3954 16.9448C11.3869 16.9427 11.3821 16.939 11.3805 16.9376L11.379 16.9356C11.379 16.9356 11.3768 16.9316 11.375 16.9243C11.2049 16.2441 10.5937 15.7668 9.89243 15.7668H9.63278C9.5067 15.7668 9.40035 15.6729 9.38471 15.5478L9.31063 14.9552Z" fill="currentColor"/>
</svg>
