<svg viewBox="0 0 24 24" fill="currentColor" xmlns="http://www.w3.org/2000/svg">
<path d="M6.54326 3C4.95193 3 3.6195 4.16789 3.46116 5.70149L2.65493 11.6832C2.6145 11.9832 2.84777 12.25 3.15045 12.25H6.83755C7.86888 12.25 8.54939 13.0496 8.74791 13.8048C9.11749 15.2109 10.4344 16.25 12 16.25C13.5656 16.25 14.8825 15.2109 15.2521 13.8048C15.4506 13.0496 16.1311 12.25 17.1624 12.25H20.8496C21.1522 12.25 21.3855 11.9832 21.3451 11.6832L20.5388 5.70149C20.3805 4.16788 19.0481 3 17.4567 3H6.54326ZM7.25 7C7.25 6.58579 7.58579 6.25 8 6.25H16C16.4142 6.25 16.75 6.58579 16.75 7C16.75 7.41421 16.4142 7.75 16 7.75H8C7.58579 7.75 7.25 7.41421 7.25 7ZM10 9.25H14C14.4142 9.25 14.75 9.58579 14.75 10C14.75 10.4142 14.4142 10.75 14 10.75H10C9.58579 10.75 9.25 10.4142 9.25 10C9.25 9.58579 9.58579 9.25 10 9.25Z" fill="currentColor"/>
<path d="M21.6227 14.1986C21.5963 13.9437 21.3816 13.75 21.1253 13.75H17.1624C17.1008 13.75 17.0279 13.7724 16.9478 13.8443C16.8635 13.92 16.7891 14.0376 16.753 14.1749C16.2129 16.2296 14.2907 17.75 12 17.75C9.70926 17.75 7.78712 16.2296 7.24705 14.1749C7.21094 14.0376 7.13648 13.92 7.05216 13.8443C6.97208 13.7724 6.89921 13.75 6.83755 13.75H2.87469C2.61843 13.75 2.40366 13.9437 2.37734 14.1986L2.01567 17.7015C1.83333 19.4675 3.26524 21 5.09777 21H18.9022C20.7348 21 22.1667 19.4675 21.9843 17.7015L21.6227 14.1986Z" fill="currentColor"/>
</svg>
