<svg viewBox="0 0 24 24" fill="currentColor" xmlns="http://www.w3.org/2000/svg">
<path d="M18 1.25C17.5858 1.25 17.25 1.58579 17.25 2C17.25 2.41421 17.5858 2.75 18 2.75H20.253L12.5888 10.8176C12.4994 10.9117 12.3528 10.9217 12.2514 10.8406L6.16743 5.97348C5.47112 5.41643 4.46731 5.47203 3.83678 6.10256L1.46967 8.46967C1.17678 8.76256 1.17678 9.23744 1.46967 9.53033C1.76256 9.82322 2.23744 9.82322 2.53033 9.53033L4.89744 7.16322C4.98752 7.07314 5.13092 7.0652 5.23039 7.14478L11.3143 12.0119C12.0241 12.5797 13.0503 12.5097 13.6763 11.8507L21.25 3.8784V6C21.25 6.41421 21.5858 6.75 22 6.75C22.4142 6.75 22.75 6.41421 22.75 6V2C22.75 1.58579 22.4142 1.25 22 1.25H18Z" fill="currentColor"/>
<path d="M4.18382 11C3.53002 11 3 11.53 3 12.1838V20.8162C3 21.47 3.53002 22 4.18382 22H6.81618C7.46998 22 8 21.47 8 20.8162V12.1838C8 11.53 7.46998 11 6.81618 11H4.18382Z" fill="currentColor"/>
<path d="M18.1838 10C17.53 10 17 10.53 17 11.1838V13.5949C17.3215 13.5341 17.6554 13.5 18 13.5C19.4359 13.5 20.6855 14.0925 21.6332 14.7402C21.7589 14.8261 21.8812 14.9143 22 15.004V11.1838C22 10.53 21.47 10 20.8162 10H18.1838Z" fill="currentColor"/>
<path d="M14.7689 14.481C14.6295 14.5655 14.4954 14.6523 14.3668 14.7402C13.4107 15.3937 12.6491 16.1801 12.1573 16.7508C11.2809 17.7678 11.2809 19.2322 12.1573 20.2492C12.5824 20.7425 13.2091 21.397 13.9888 21.9875C13.9325 21.9957 13.8748 22 13.8162 22H11.1838C10.53 22 10 21.47 10 20.8162V15.1838C10 14.53 10.53 14 11.1838 14H13.8162C14.2068 14 14.5533 14.1892 14.7689 14.481Z" fill="currentColor"/>
<path d="M22.7064 19.27C21.8184 20.3005 20.0441 22 18 22C15.9559 22 14.1816 20.3005 13.2936 19.27C12.9021 18.8158 12.9021 18.1842 13.2936 17.73C14.1816 16.6995 15.9559 15 18 15C20.0441 15 21.8184 16.6995 22.7064 17.73C23.0979 18.1842 23.0979 18.8158 22.7064 19.27ZM19.5 18.5C19.5 17.6716 18.8284 17 18 17C17.1716 17 16.5 17.6716 16.5 18.5C16.5 19.3284 17.1716 20 18 20C18.8284 20 19.5 19.3284 19.5 18.5Z" fill="currentColor"/>
</svg>
