<svg viewBox="0 0 24 24" fill="currentColor" xmlns="http://www.w3.org/2000/svg">
<path d="M2 7C2 5.89543 2.89543 5 4 5H20C21.1046 5 22 5.89543 22 7V17C22 18.1046 21.1046 19 20 19H4C2.89543 19 2 18.1046 2 17V7ZM4 12.5V14.5C4 15.3284 4.67157 16 5.5 16H7.5C8.32843 16 9 15.3284 9 14.5V12.5C9 11.6716 8.32843 11 7.5 11H5.5C4.67157 11 4 11.6716 4 12.5ZM19.5 12.75C19.9142 12.75 20.25 12.4142 20.25 12C20.25 11.5858 19.9142 11.25 19.5 11.25H11C10.5858 11.25 10.25 11.5858 10.25 12C10.25 12.4142 10.5858 12.75 11 12.75H19.5ZM17.25 15C17.25 14.5858 16.9142 14.25 16.5 14.25H11C10.5858 14.25 10.25 14.5858 10.25 15C10.25 15.4142 10.5858 15.75 11 15.75H16.5C16.9142 15.75 17.25 15.4142 17.25 15ZM19.5 8.75C19.9142 8.75 20.25 8.41421 20.25 8C20.25 7.58579 19.9142 7.25 19.5 7.25H4.5C4.08579 7.25 3.75 7.58579 3.75 8C3.75 8.41421 4.08579 8.75 4.5 8.75H19.5Z" fill="currentColor"/>
</svg>
