<svg viewBox="0 0 24 24" fill="currentColor" xmlns="http://www.w3.org/2000/svg">
<path d="M5 2H8.25V22H5C3.89543 22 3 21.1046 3 20V19.75H5C5.41421 19.75 5.75 19.4142 5.75 19C5.75 18.5858 5.41421 18.25 5 18.25H3V12.75H5C5.41421 12.75 5.75 12.4142 5.75 12C5.75 11.5858 5.41421 11.25 5 11.25H3V5.75H5C5.41421 5.75 5.75 5.41421 5.75 5C5.75 4.58579 5.41421 4.25 5 4.25H3V4C3 2.89543 3.89543 2 5 2Z" fill="currentColor"/>
<path d="M19 22H9.75V2H19C20.1046 2 21 2.89543 21 4V20C21 21.1046 20.1046 22 19 22Z" fill="currentColor"/>
</svg>
