<svg viewBox="0 0 24 24" fill="currentColor" xmlns="http://www.w3.org/2000/svg">
<path d="M13.5526 2.6479C12.6978 1.78403 11.3022 1.78403 10.4474 2.6479L9.45703 3.64876C9.04396 4.06621 8.48019 4.29973 7.89293 4.29663L6.48492 4.28922C5.26963 4.28282 4.28282 5.26962 4.28922 6.48492L4.29663 7.89293C4.29973 8.48019 4.06621 9.04396 3.64876 9.45703L2.6479 10.4474C1.78403 11.3022 1.78403 12.6978 2.6479 13.5526L3.64876 14.543C4.06621 14.956 4.29973 15.5198 4.29663 16.1071L4.28922 17.5151C4.28282 18.7304 5.26962 19.7172 6.48492 19.7108L7.89293 19.7034C8.48019 19.7003 9.04396 19.9338 9.45703 20.3512L10.4474 21.3521C11.3022 22.216 12.6978 22.216 13.5526 21.3521L14.543 20.3512C14.956 19.9338 15.5198 19.7003 16.1071 19.7034L17.5151 19.7108C18.7304 19.7172 19.7172 18.7304 19.7108 17.5151L19.7034 16.1071C19.7003 15.5198 19.9338 14.956 20.3512 14.543L21.3521 13.5526C22.216 12.6978 22.216 11.3022 21.3521 10.4474L20.3512 9.45703C19.9338 9.04396 19.7003 8.48019 19.7034 7.89293L19.7108 6.48492C19.7172 5.26962 18.7304 4.28282 17.5151 4.28922L16.1071 4.29663C15.5198 4.29973 14.956 4.06621 14.543 3.64876L13.5526 2.6479ZM9.5 11C8.67157 11 8 10.3284 8 9.5C8 8.67157 8.67157 8 9.5 8C10.3284 8 11 8.67157 11 9.5C11 10.3284 10.3284 11 9.5 11ZM15.5303 8.46967C15.8232 8.76256 15.8232 9.23744 15.5303 9.53033L9.53033 15.5303C9.23744 15.8232 8.76256 15.8232 8.46967 15.5303C8.17678 15.2374 8.17678 14.7626 8.46967 14.4697L14.4697 8.46967C14.7626 8.17678 15.2374 8.17678 15.5303 8.46967ZM14.5 16C13.6716 16 13 15.3284 13 14.5C13 13.6716 13.6716 13 14.5 13C15.3284 13 16 13.6716 16 14.5C16 15.3284 15.3284 16 14.5 16Z" fill="currentColor"/>
</svg>
