<svg viewBox="0 0 24 24" fill="currentColor" xmlns="http://www.w3.org/2000/svg">
<path d="M12.75 11.9441C15.1556 11.5823 17 9.50652 17 7C17 4.23858 14.7614 2 12 2C9.23858 2 7 4.23858 7 7C7 9.50652 8.84437 11.5823 11.25 11.9441V21.25C11.25 21.6642 11.5858 22 12 22C12.4142 22 12.75 21.6642 12.75 21.25V11.9441ZM12 4.75C10.7574 4.75 9.75 5.75736 9.75 7C9.75 7.41421 9.41421 7.75 9 7.75C8.58579 7.75 8.25 7.41421 8.25 7C8.25 4.92893 9.92893 3.25 12 3.25C12.4142 3.25 12.75 3.58579 12.75 4C12.75 4.41421 12.4142 4.75 12 4.75Z" fill="currentColor"/>
</svg>
