<svg viewBox="0 0 24 24" fill="currentColor" xmlns="http://www.w3.org/2000/svg">
<path d="M16.5755 12.7922C16.7011 12.9307 16.86 13 17.0521 13C17.2442 13 17.3993 12.9307 17.5175 12.7922C17.6431 12.6614 17.7059 12.4998 17.7059 12.3075V11.5801C18.1125 11.5078 18.4746 11.3809 18.792 11.1994C19.1688 10.9839 19.4644 10.703 19.6786 10.3568C19.8929 10.0028 20 9.59881 20 9.14481C20 8.56768 19.8301 8.09829 19.4902 7.73662C19.1577 7.37496 18.6406 7.11333 17.9387 6.95173L16.7085 6.67471C16.3465 6.59007 16.0916 6.48234 15.9438 6.35152C15.8035 6.22071 15.7333 6.04757 15.7333 5.83211C15.7333 5.5397 15.8515 5.30115 16.0879 5.11647C16.3317 4.93179 16.6716 4.83945 17.1075 4.83945C17.4547 4.83945 17.7466 4.87408 17.983 4.94334C18.2194 5.01259 18.4374 5.09724 18.6369 5.19727C18.829 5.29731 18.9952 5.33578 19.1356 5.3127C19.2833 5.28192 19.4016 5.21651 19.4902 5.11647C19.5789 5.00874 19.6343 4.88562 19.6564 4.74711C19.686 4.6086 19.6712 4.47009 19.6121 4.33158C19.5604 4.19307 19.4644 4.07765 19.324 3.98531C19.0654 3.79293 18.7588 3.64673 18.4041 3.54669C18.1605 3.47111 17.9278 3.41825 17.7059 3.38812V2.69255C17.7059 2.50018 17.6431 2.33858 17.5175 2.20777C17.3919 2.06926 17.2368 2 17.0521 2C16.86 2 16.7011 2.06926 16.5755 2.20777C16.4499 2.33858 16.3871 2.50018 16.3871 2.69255V3.41867C15.9767 3.48267 15.611 3.60614 15.29 3.78909C14.9058 4.01224 14.6029 4.30465 14.3812 4.66632C14.167 5.02798 14.0598 5.43966 14.0598 5.90136C14.0598 6.49388 14.2261 6.97866 14.5586 7.35572C14.891 7.72508 15.3971 7.98671 16.0768 8.14061L17.2959 8.41763C17.5471 8.47149 17.7466 8.54075 17.8943 8.62539C18.0495 8.70234 18.1566 8.79468 18.2157 8.90241C18.2822 9.01014 18.3155 9.13326 18.3155 9.27177C18.3155 9.44106 18.2675 9.59111 18.1714 9.72193C18.0827 9.85275 17.935 9.96047 17.7281 10.0451C17.5212 10.1221 17.2479 10.1605 16.908 10.1605C16.4499 10.1605 16.0621 10.1105 15.7444 10.0105C15.4267 9.90276 15.1792 9.79888 15.0018 9.69885C14.8171 9.59881 14.6509 9.56803 14.5031 9.60651C14.3628 9.64498 14.2482 9.72578 14.1596 9.8489C14.0709 9.96432 14.0192 10.1028 14.0044 10.2644C13.9897 10.4183 14.0118 10.5684 14.0709 10.7146C14.1374 10.8608 14.2519 10.9762 14.4145 11.0609C14.6657 11.1994 14.9797 11.3263 15.3565 11.4418C15.6576 11.534 16.0011 11.5943 16.3871 11.6227V12.3075C16.3871 12.4998 16.4499 12.6614 16.5755 12.7922Z" fill="currentColor"/>
<path d="M17.111 21.1297C14.6039 21.9654 11.9057 22.0159 9.37549 21.2813C9.45629 21.0355 9.5 20.7729 9.5 20.5V15.5C9.5 15.2515 9.46373 15.0114 9.39619 14.7848C11.2132 14.2852 13.1183 14.1864 14.9795 14.4966L15.549 14.5915C16.317 14.7195 16.8929 15.2604 17.1179 15.9318L14.7437 16.7952C14.3544 16.9367 14.1536 17.367 14.2952 17.7563C14.4367 18.1456 14.867 18.3464 15.2563 18.2048L17.6228 17.3443L19.9824 16.7544C21.0073 16.4982 22 17.2733 22 18.3297C22 19.0286 21.5528 19.6491 20.8897 19.8701L17.111 21.1297Z" fill="currentColor"/>
<path d="M3 14.5C2.44772 14.5 2 14.9477 2 15.5V20.5C2 21.0523 2.44772 21.5 3 21.5H7C7.55228 21.5 8 21.0523 8 20.5V15.5C8 14.9477 7.55228 14.5 7 14.5H3Z" fill="currentColor"/>
</svg>
