<svg viewBox="0 0 24 24" fill="currentColor" xmlns="http://www.w3.org/2000/svg">
<path d="M8 3C8 2.44772 8.44772 2 9 2H15C15.5523 2 16 2.44772 16 3V5C16 5.55228 15.5523 6 15 6H9C8.44772 6 8 5.55228 8 5V3Z" fill="currentColor"/>
<path d="M6.5 4H6C4.89543 4 4 4.89543 4 6V20C4 21.1046 4.89543 22 6 22H18C19.1046 22 20 21.1046 20 20V6C20 4.89543 19.1046 4 18 4H17.5V5C17.5 6.38071 16.3807 7.5 15 7.5H9C7.61929 7.5 6.5 6.38071 6.5 5V4ZM12.0521 19C11.86 19 11.7011 18.937 11.5755 18.8111C11.4499 18.6922 11.3871 18.5453 11.3871 18.3704V17.7479C11.0011 17.7221 10.6576 17.6673 10.3565 17.5834C9.97968 17.4785 9.66568 17.3631 9.41448 17.2371C9.25194 17.1602 9.13742 17.0553 9.07093 16.9223C9.01182 16.7894 8.98966 16.653 9.00443 16.5131C9.01921 16.3662 9.07093 16.2403 9.15959 16.1354C9.24825 16.0234 9.36276 15.95 9.50314 15.915C9.6509 15.88 9.81714 15.908 10.0018 15.999C10.1792 16.0899 10.4267 16.1843 10.7444 16.2823C11.0621 16.3732 11.4499 16.4187 11.908 16.4187C12.2479 16.4187 12.5212 16.3837 12.7281 16.3137C12.935 16.2368 13.0827 16.1389 13.1714 16.0199C13.2675 15.901 13.3155 15.7646 13.3155 15.6107C13.3155 15.4848 13.2822 15.3729 13.2157 15.2749C13.1566 15.177 13.0495 15.093 12.8943 15.0231C12.7466 14.9461 12.5471 14.8832 12.2959 14.8342L11.0768 14.5824C10.3971 14.4425 9.89102 14.2046 9.55855 13.8688C9.22608 13.5261 9.05984 13.0853 9.05984 12.5467C9.05984 12.127 9.16697 11.7527 9.38123 11.4239C9.60288 11.0951 9.9058 10.8293 10.29 10.6264C10.611 10.4601 10.9767 10.3479 11.3871 10.2897V9.62959C11.3871 9.4547 11.4499 9.3078 11.5755 9.18888C11.7011 9.06296 11.86 9 12.0521 9C12.2368 9 12.3919 9.06296 12.5175 9.18888C12.6431 9.3078 12.7059 9.4547 12.7059 9.62959V10.2619C12.9278 10.2893 13.1605 10.3374 13.4041 10.4061C13.7588 10.497 14.0654 10.6299 14.324 10.8048C14.4644 10.8888 14.5604 10.9937 14.6121 11.1196C14.6712 11.2455 14.686 11.3715 14.6564 11.4974C14.6343 11.6233 14.5789 11.7352 14.4902 11.8332C14.4016 11.9241 14.2833 11.9836 14.1356 12.0115C13.9952 12.0325 13.829 11.9976 13.6369 11.9066C13.4374 11.8157 13.2194 11.7387 12.983 11.6758C12.7466 11.6128 12.4547 11.5813 12.1075 11.5813C11.6716 11.5813 11.3317 11.6653 11.0879 11.8332C10.8515 12.001 10.7333 12.2179 10.7333 12.4837C10.7333 12.6796 10.8035 12.837 10.9438 12.9559C11.0916 13.0749 11.3465 13.1728 11.7085 13.2497L12.9387 13.5016C13.6406 13.6485 14.1577 13.8863 14.4902 14.2151C14.8301 14.5439 15 14.9706 15 15.4953C15 15.908 14.8929 16.2753 14.6786 16.5971C14.4644 16.9119 14.1688 17.1672 13.792 17.3631C13.4746 17.5281 13.1125 17.6435 12.7059 17.7092V18.3704C12.7059 18.5453 12.6431 18.6922 12.5175 18.8111C12.3993 18.937 12.2442 19 12.0521 19Z" fill="currentColor"/>
</svg>
