<svg viewBox="0 0 24 24" fill="currentColor" xmlns="http://www.w3.org/2000/svg">
<path d="M15.4625 12.9021C14.5984 12.9021 14.0479 12.2057 14.0479 11.1047C14.0479 10 14.6021 9.30005 15.4625 9.30005C16.3229 9.30005 16.8734 10 16.8734 11.1047C16.8734 12.2057 16.3229 12.9021 15.4625 12.9021Z" fill="currentColor"/>
<path d="M16.8872 18.0186C15.3124 19.3386 13.2823 20.1333 11.0667 20.1333C6.05929 20.1333 2 16.074 2 11.0667C2 6.05929 6.05929 2 11.0667 2C16.074 2 20.1333 6.05929 20.1333 11.0667C20.1333 13.2823 19.3386 15.3124 18.0186 16.8872L21.7657 20.6343C22.0781 20.9467 22.0781 21.4533 21.7657 21.7657C21.4533 22.0781 20.9467 22.0781 20.6343 21.7657L16.8872 18.0186ZM8.13438 12.1438C8.13438 11.3453 7.65313 10.8969 6.5375 10.6745L5.98333 10.5615C5.3599 10.4375 5.10833 10.237 5.10833 9.9125C5.10833 9.52604 5.46927 9.27083 6.0125 9.27083C6.46458 9.27083 6.80365 9.4349 6.97865 9.83229C7.1026 10.0583 7.25573 10.1568 7.50365 10.1568C7.78438 10.1568 7.97396 9.97813 7.97396 9.71563C7.97396 9.62083 7.95938 9.54427 7.93385 9.47135C7.70052 8.78594 6.975 8.38125 6.0125 8.38125C4.84219 8.38125 4.00365 9.01927 4.00365 9.98177C4.00365 10.7656 4.51771 11.2688 5.56771 11.4766L6.12552 11.5859C6.78542 11.7208 7.03333 11.9177 7.03333 12.2641C7.03333 12.6505 6.63229 12.9349 6.04167 12.9349C5.53854 12.9349 5.12656 12.7526 4.95521 12.3516C4.82396 12.1182 4.67448 12.0307 4.44844 12.0307C4.16406 12.0307 3.96354 12.224 3.96354 12.5156C3.96354 12.6141 3.98542 12.7161 4.02188 12.8109C4.23333 13.387 4.92969 13.8208 6.01615 13.8208C7.32865 13.8208 8.13438 13.1719 8.13438 12.1438ZM11.8604 13.7333C12.163 13.7333 12.3599 13.562 12.3599 13.2776C12.3599 12.9932 12.1594 12.8219 11.8604 12.8219H9.9099V11.4948H11.7656C12.0427 11.4948 12.225 11.3344 12.225 11.0719C12.225 10.8094 12.0391 10.649 11.7656 10.649H9.9099V9.38385H11.8604C12.1594 9.38385 12.3599 9.2125 12.3599 8.92813C12.3599 8.64375 12.163 8.4724 11.8604 8.4724H9.35938C9.01302 8.4724 8.80885 8.68385 8.80885 9.04479V13.1573C8.80885 13.5219 9.01302 13.7333 9.35938 13.7333H11.8604ZM15.4625 13.8208C17.0193 13.8208 18 12.7781 18 11.1047C18 9.4276 17.0193 8.38125 15.4625 8.38125C13.9021 8.38125 12.925 9.4276 12.925 11.1047C12.925 12.7781 13.9021 13.8208 15.4625 13.8208Z" fill="currentColor"/>
</svg>
