<svg viewBox="0 0 24 24" fill="currentColor" xmlns="http://www.w3.org/2000/svg">
<path d="M20 6.75C20.4142 6.75 20.75 6.41421 20.75 6C20.75 5.58579 20.4142 5.25 20 5.25H3C2.58579 5.25 2.25 5.58579 2.25 6C2.25 6.41421 2.58579 6.75 3 6.75H20Z" fill="currentColor"/>
<path d="M15.8089 8.46523C15.306 8.05369 14.7212 7.98146 14.1784 8.17117C13.6911 8.34147 13.2807 8.7045 12.9569 9.08131C12.3011 9.8445 11.7669 10.9402 11.4835 11.8556C11.2595 12.5792 11.2669 13.4627 11.3851 14.2796C11.4748 14.8992 11.6352 15.5281 11.8465 16.0884C11.4614 16.3952 11.1391 16.5919 10.9188 16.6765C10.8482 16.7036 10.7577 16.7402 10.6596 16.793L9.64442 17.3397C9.27972 17.536 9.14327 17.9909 9.33965 18.3556C9.53603 18.7203 9.99088 18.8567 10.3556 18.6604L11.3708 18.1137C11.3859 18.1056 11.4077 18.0955 11.4562 18.0769C11.8013 17.9445 12.1805 17.7154 12.565 17.4285C12.6186 17.4961 12.6743 17.5603 12.7321 17.6206C12.982 17.8814 13.3603 18.1577 13.85 18.1577C14.2037 18.1577 14.5705 17.9978 14.8487 17.8549C15.1607 17.6947 15.5067 17.4766 15.858 17.2327C16.466 16.8107 17.1327 16.2816 17.7382 15.7623L17.7091 15.9564C17.6351 16.4504 17.8147 16.9806 18.2774 17.2548C18.7767 17.5509 19.3597 17.4052 19.7312 17.0023C20.0898 16.6135 20.4793 16.1718 20.8112 15.7932L21.0029 15.5744C21.2503 15.2918 21.4435 15.0711 21.5496 14.9569C21.8314 14.6533 21.8139 14.1788 21.5104 13.8969C21.2068 13.6151 20.7323 13.6326 20.4504 13.9361C20.3277 14.0683 20.1135 14.313 19.8644 14.5976L19.6832 14.8044C19.5528 14.9532 19.4151 15.1099 19.275 15.268C19.2158 14.8183 18.937 14.4547 18.595 14.2537C18.1591 13.9974 17.5245 13.9554 17.0317 14.3892C16.3846 14.9587 15.647 15.5532 15.0026 16.0005C14.6793 16.2249 14.3937 16.4024 14.1635 16.5206C14.0192 16.5947 13.9281 16.6287 13.8811 16.6444C13.8648 16.6313 13.8427 16.6116 13.815 16.5827C13.7757 16.5417 13.7334 16.4904 13.6891 16.4286C14.6227 15.4136 15.4355 13.9601 15.9289 12.6224C16.2153 11.8459 16.4129 11.0587 16.4506 10.3724C16.4855 9.73801 16.3955 8.94525 15.8089 8.46523ZM14.5215 12.1033C14.1605 13.0822 13.6221 14.0873 13.033 14.8718C12.9649 14.6103 12.9092 14.3379 12.8697 14.0648C12.7668 13.3539 12.7857 12.7217 12.9165 12.2992C13.156 11.5252 13.6057 10.6279 14.0946 10.059C14.3432 9.76968 14.5453 9.6319 14.6733 9.58718C14.7457 9.56187 14.7787 9.56043 14.8589 9.62605C14.8587 9.62591 14.8585 9.62551 14.8589 9.62605C14.8671 9.63635 14.981 9.77944 14.9529 10.2901C14.9262 10.7751 14.778 11.4079 14.5215 12.1033ZM13.9164 16.6683C13.9166 16.6684 13.9164 16.6684 13.9164 16.6683Z" fill="currentColor"/>
<path d="M8.25 16C8.25 15.5858 7.91421 15.25 7.5 15.25H3C2.58579 15.25 2.25 15.5858 2.25 16C2.25 16.4142 2.58579 16.75 3 16.75H7.5C7.91421 16.75 8.25 16.4142 8.25 16Z" fill="currentColor"/>
<path d="M9.5 10.25C9.91421 10.25 10.25 10.5858 10.25 11C10.25 11.4142 9.91421 11.75 9.5 11.75H3C2.58579 11.75 2.25 11.4142 2.25 11C2.25 10.5858 2.58579 10.25 3 10.25H9.5Z" fill="currentColor"/>
</svg>
