<svg viewBox="0 0 24 24" fill="currentColor" xmlns="http://www.w3.org/2000/svg">
<path d="M9.77809 22H20C21.1046 22 22 21.1046 22 20V16C22 14.8954 21.1046 14 20 14H17.7781L9.77809 22Z" fill="currentColor"/>
<path d="M11.4977 18.1591L19.4852 10.1716C20.2663 9.39055 20.2663 8.12422 19.4852 7.34317L16.6568 4.51474C15.8758 3.73369 14.6094 3.73369 13.8284 4.51474L11.5 6.84313V18.0001C11.5 18.0533 11.4992 18.1063 11.4977 18.1591Z" fill="currentColor"/>
<path d="M2 18C2 20.2091 3.79086 22 6 22C8.20914 22 10 20.2091 10 18V4C10 2.89543 9.10457 2 8 2H4C2.89543 2 2 2.89543 2 4V18ZM6 19.5C5.17157 19.5 4.5 18.8284 4.5 18C4.5 17.1716 5.17157 16.5 6 16.5C6.82843 16.5 7.5 17.1716 7.5 18C7.5 18.8284 6.82843 19.5 6 19.5Z" fill="currentColor"/>
</svg>
