<svg viewBox="0 0 24 24" fill="currentColor" xmlns="http://www.w3.org/2000/svg">
<path d="M6.25 2H5C3.34315 2 2 3.34315 2 5V6.25H6.25V2Z" fill="currentColor"/>
<path d="M2 7.75V19C2 20.6569 3.34315 22 5 22H6.25V7.75H2Z" fill="currentColor"/>
<path d="M7.75 12.75V16.25H11.25V12.75H7.75Z" fill="currentColor"/>
<path d="M11.25 11.25H7.75V7.75H11.25V11.25Z" fill="currentColor"/>
<path d="M12.75 12.75V16.25H16.25V12.75H12.75Z" fill="currentColor"/>
<path d="M16.25 11.25H12.75V7.75H16.25V11.25Z" fill="currentColor"/>
<path d="M17.75 12.75V16.25H22V12.75H17.75Z" fill="currentColor"/>
<path d="M22 11.25H17.75V7.75H22V11.25Z" fill="currentColor"/>
<path d="M7.75 22V17.75H11.25V22H7.75Z" fill="currentColor"/>
<path d="M12.75 22V17.75H16.25V22H12.75Z" fill="currentColor"/>
<path d="M17.75 22V17.75H22V19C22 20.6569 20.6569 22 19 22H17.75Z" fill="currentColor"/>
<path d="M22 6.25V5C22 3.34315 20.6569 2 19 2H7.75V6.25H22Z" fill="currentColor"/>
</svg>
