<svg viewBox="0 0 24 24" fill="currentColor" xmlns="http://www.w3.org/2000/svg">
<path d="M5 2C3.89543 2 3 2.89543 3 4V20C3 21.1046 3.89543 22 5 22H19C20.1046 22 21 21.1046 21 20V4C21 2.89543 20.1046 2 19 2H5ZM6 4.25H8C8.41421 4.25 8.75 4.58579 8.75 5C8.75 5.41421 8.41421 5.75 8 5.75H6C5.58579 5.75 5.25 5.41421 5.25 5C5.25 4.58579 5.58579 4.25 6 4.25ZM11 4.25H13C13.4142 4.25 13.75 4.58579 13.75 5C13.75 5.41421 13.4142 5.75 13 5.75H11C10.5858 5.75 10.25 5.41421 10.25 5C10.25 4.58579 10.5858 4.25 11 4.25ZM16 4.25H18C18.4142 4.25 18.75 4.58579 18.75 5C18.75 5.41421 18.4142 5.75 18 5.75H16C15.5858 5.75 15.25 5.41421 15.25 5C15.25 4.58579 15.5858 4.25 16 4.25ZM6 7.75H8C8.41421 7.75 8.75 8.08579 8.75 8.5C8.75 8.91421 8.41421 9.25 8 9.25H6C5.58579 9.25 5.25 8.91421 5.25 8.5C5.25 8.08579 5.58579 7.75 6 7.75ZM11 7.75H13C13.4142 7.75 13.75 8.08579 13.75 8.5C13.75 8.91421 13.4142 9.25 13 9.25H11C10.5858 9.25 10.25 8.91421 10.25 8.5C10.25 8.08579 10.5858 7.75 11 7.75ZM16 7.75H18C18.4142 7.75 18.75 8.08579 18.75 8.5C18.75 8.91421 18.4142 9.25 18 9.25H16C15.5858 9.25 15.25 8.91421 15.25 8.5C15.25 8.08579 15.5858 7.75 16 7.75ZM6 11.25H8C8.41421 11.25 8.75 11.5858 8.75 12C8.75 12.4142 8.41421 12.75 8 12.75H6C5.58579 12.75 5.25 12.4142 5.25 12C5.25 11.5858 5.58579 11.25 6 11.25ZM11 11.25H13C13.4142 11.25 13.75 11.5858 13.75 12C13.75 12.4142 13.4142 12.75 13 12.75H11C10.5858 12.75 10.25 12.4142 10.25 12C10.25 11.5858 10.5858 11.25 11 11.25ZM16 11.25H18C18.4142 11.25 18.75 11.5858 18.75 12C18.75 12.4142 18.4142 12.75 18 12.75H16C15.5858 12.75 15.25 12.4142 15.25 12C15.25 11.5858 15.5858 11.25 16 11.25ZM6 14.75H8C8.41421 14.75 8.75 15.0858 8.75 15.5C8.75 15.9142 8.41421 16.25 8 16.25H6C5.58579 16.25 5.25 15.9142 5.25 15.5C5.25 15.0858 5.58579 14.75 6 14.75ZM11 14.75H13C13.4142 14.75 13.75 15.0858 13.75 15.5C13.75 15.9142 13.4142 16.25 13 16.25H11C10.5858 16.25 10.25 15.9142 10.25 15.5C10.25 15.0858 10.5858 14.75 11 14.75ZM16 14.75H18C18.4142 14.75 18.75 15.0858 18.75 15.5C18.75 15.9142 18.4142 16.25 18 16.25H16C15.5858 16.25 15.25 15.9142 15.25 15.5C15.25 15.0858 15.5858 14.75 16 14.75ZM6 18.25H8C8.41421 18.25 8.75 18.5858 8.75 19C8.75 19.4142 8.41421 19.75 8 19.75H6C5.58579 19.75 5.25 19.4142 5.25 19C5.25 18.5858 5.58579 18.25 6 18.25ZM11 18.25H13C13.4142 18.25 13.75 18.5858 13.75 19C13.75 19.4142 13.4142 19.75 13 19.75H11C10.5858 19.75 10.25 19.4142 10.25 19C10.25 18.5858 10.5858 18.25 11 18.25ZM16 18.25H18C18.4142 18.25 18.75 18.5858 18.75 19C18.75 19.4142 18.4142 19.75 18 19.75H16C15.5858 19.75 15.25 19.4142 15.25 19C15.25 18.5858 15.5858 18.25 16 18.25Z" fill="currentColor"/>
</svg>
