<svg viewBox="0 0 24 24" fill="currentColor" xmlns="http://www.w3.org/2000/svg">
<path d="M2 11.2479C2.36618 6.30929 6.30929 2.36618 11.2479 2V3.97778C11.2479 4.39314 11.5846 4.72986 12 4.72986C12.4154 4.72986 12.7521 4.39314 12.7521 3.97778V2C17.6907 2.36618 21.6338 6.30929 22 11.2479H20.0222C19.6069 11.2479 19.2701 11.5846 19.2701 12C19.2701 12.4154 19.6069 12.7521 20.0222 12.7521H22C21.6338 17.6907 17.6907 21.6338 12.7521 22V20.0222C12.7521 19.6069 12.4154 19.2701 12 19.2701C11.5846 19.2701 11.2479 19.6069 11.2479 20.0222V22C6.30929 21.6338 2.36618 17.6907 2 12.7521H3.97778C4.39314 12.7521 4.72986 12.4154 4.72986 12C4.72986 11.5846 4.39314 11.2479 3.97778 11.2479H2ZM11.5754 16.8111C11.701 16.937 11.8599 17 12.052 17C12.2441 17 12.3992 16.937 12.5174 16.8111C12.643 16.6922 12.7058 16.5453 12.7058 16.3704V15.7092C13.1124 15.6435 13.4745 15.5281 13.7919 15.3631C14.1687 15.1672 14.4642 14.9119 14.6785 14.5971C14.8928 14.2753 14.9999 13.908 14.9999 13.4953C14.9999 12.9706 14.83 12.5439 14.4901 12.2151C14.1576 11.8863 13.6405 11.6485 12.9386 11.5016L11.7084 11.2497C11.3464 11.1728 11.0915 11.0749 10.9437 10.9559C10.8034 10.837 10.7332 10.6796 10.7332 10.4837C10.7332 10.2179 10.8514 10.001 11.0878 9.83316C11.3316 9.66527 11.6715 9.58132 12.1074 9.58132C12.4546 9.58132 12.7465 9.6128 12.9829 9.67576C13.2193 9.73872 13.4373 9.81567 13.6368 9.90661C13.8289 9.99755 13.9951 10.0325 14.1355 10.0115C14.2832 9.98356 14.4014 9.9241 14.4901 9.83316C14.5788 9.73522 14.6342 9.62329 14.6563 9.49738C14.6859 9.37146 14.6711 9.24554 14.612 9.11962C14.5603 8.9937 14.4642 8.88877 14.3239 8.80483C14.0653 8.62994 13.7587 8.49703 13.404 8.40609C13.1604 8.33737 12.9277 8.28932 12.7058 8.26193V7.62959C12.7058 7.4547 12.643 7.3078 12.5174 7.18888C12.3918 7.06296 12.2367 7 12.052 7C11.8599 7 11.701 7.06296 11.5754 7.18888C11.4498 7.3078 11.387 7.4547 11.387 7.62959V8.2897C10.9766 8.34788 10.6109 8.46013 10.2899 8.62644C9.9057 8.82931 9.60278 9.09514 9.38113 9.42392C9.16687 9.75271 9.05974 10.127 9.05974 10.5467C9.05974 11.0853 9.22598 11.5261 9.55845 11.8688C9.89092 12.2046 10.397 12.4425 11.0767 12.5824L12.2958 12.8342C12.547 12.8832 12.7465 12.9461 12.8942 13.0231C13.0494 13.093 13.1565 13.177 13.2156 13.2749C13.2821 13.3729 13.3154 13.4848 13.3154 13.6107C13.3154 13.7646 13.2674 13.901 13.1713 14.0199C13.0826 14.1389 12.9349 14.2368 12.728 14.3137C12.5211 14.3837 12.2478 14.4187 11.9079 14.4187C11.4498 14.4187 11.062 14.3732 10.7443 14.2823C10.4266 14.1843 10.1791 14.0899 10.0017 13.999C9.81704 13.908 9.6508 13.88 9.50304 13.915C9.36266 13.95 9.24814 14.0234 9.15948 14.1354C9.07082 14.2403 9.01911 14.3662 9.00433 14.5131C8.98955 14.653 9.01172 14.7894 9.07082 14.9224C9.13732 15.0553 9.25184 15.1602 9.41438 15.2371C9.66558 15.3631 9.97958 15.4785 10.3564 15.5834C10.6575 15.6673 11.001 15.7221 11.387 15.7479V16.3704C11.387 16.5453 11.4498 16.6922 11.5754 16.8111Z" fill="currentColor"/>
</svg>
