<svg viewBox="0 0 24 24" fill="currentColor" xmlns="http://www.w3.org/2000/svg">
<path d="M2.75 2C2.75 1.58579 2.41421 1.25 2 1.25C1.58579 1.25 1.25 1.58579 1.25 2V22C1.25 22.4142 1.58579 22.75 2 22.75C2.41421 22.75 2.75 22.4142 2.75 22V13H12.4726C13.1933 13 13.6774 12.2606 13.3891 11.6001L11.7745 7.89994C11.6632 7.64493 11.6632 7.35507 11.7745 7.10006L13.3891 3.39994C13.6774 2.73936 13.1933 2 12.4726 2H2.75ZM6.71703 10.8678C6.6333 10.7845 6.59143 10.6817 6.59143 10.5593V10.1235C6.33409 10.1055 6.10505 10.0671 5.90432 10.0084C5.65312 9.93494 5.44379 9.85415 5.27632 9.766C5.16796 9.71214 5.09161 9.63869 5.04729 9.54564C5.00788 9.45261 4.9931 9.35712 5.00296 9.25918C5.01281 9.15635 5.04729 9.06821 5.10639 8.99475C5.1655 8.9164 5.24184 8.86499 5.33543 8.8405C5.43394 8.81602 5.54476 8.83561 5.6679 8.89927C5.78611 8.96292 5.95111 9.02903 6.16291 9.09759C6.37471 9.16124 6.6333 9.19307 6.93868 9.19307C7.16525 9.19307 7.34749 9.16859 7.48541 9.11962C7.62332 9.06576 7.72183 8.9972 7.78094 8.91396C7.84497 8.83071 7.87699 8.73522 7.87699 8.62749C7.87699 8.53935 7.85482 8.461 7.81049 8.39244C7.77109 8.32389 7.69967 8.26513 7.59623 8.21616C7.49772 8.16229 7.36473 8.11822 7.19727 8.08395L6.38456 7.90766C5.93141 7.80972 5.59402 7.64323 5.37237 7.40819C5.15072 7.16824 5.0399 6.85974 5.0399 6.48269C5.0399 6.18888 5.11132 5.9269 5.25416 5.69675C5.40192 5.4666 5.60387 5.28052 5.85999 5.13851C6.07401 5.02209 6.31782 4.94352 6.59143 4.90279V4.44071C6.59143 4.31829 6.6333 4.21546 6.71703 4.13221C6.80076 4.04407 6.90666 4 7.03472 4C7.15786 4 7.2613 4.04407 7.34503 4.13221C7.42877 4.21546 7.47063 4.31829 7.47063 4.44071V4.88335C7.61851 4.90252 7.77366 4.93616 7.93609 4.98426C8.17252 5.04792 8.37692 5.14096 8.54932 5.26338C8.6429 5.32214 8.70693 5.39559 8.74141 5.48374C8.78082 5.57188 8.79067 5.66002 8.77096 5.74816C8.75619 5.83631 8.71925 5.91466 8.66014 5.98321C8.60103 6.04687 8.52223 6.08849 8.42372 6.10808C8.33013 6.12277 8.21931 6.09829 8.09125 6.03463C7.95826 5.97097 7.81295 5.9171 7.65534 5.87303C7.49772 5.82896 7.30316 5.80693 7.07167 5.80693C6.78106 5.80693 6.55449 5.86569 6.39195 5.98321C6.23433 6.10073 6.15552 6.25254 6.15552 6.43861C6.15552 6.57573 6.20232 6.6859 6.2959 6.76915C6.39441 6.8524 6.56434 6.92095 6.80569 6.97482L7.62579 7.1511C8.09371 7.25393 8.43849 7.42043 8.66014 7.65058C8.88671 7.88073 9 8.17943 9 8.54669C9 8.83561 8.92858 9.09269 8.78574 9.31794C8.6429 9.5383 8.44588 9.71703 8.19468 9.85415C7.98305 9.96966 7.7417 10.0504 7.47063 10.0964V10.5593C7.47063 10.6817 7.42877 10.7845 7.34503 10.8678C7.26622 10.9559 7.16279 11 7.03472 11C6.90666 11 6.80076 10.9559 6.71703 10.8678Z" fill="currentColor"/>
<path d="M13 21C13 21.5523 13.5037 22 14.125 22H20.875C21.4963 22 22 21.5523 22 21C22 18.7909 19.9853 17 17.5 17C15.0147 17 13 18.7909 13 21Z" fill="currentColor"/>
<path d="M19.5 13.5C19.5 14.6046 18.6046 15.5 17.5 15.5C16.3954 15.5 15.5 14.6046 15.5 13.5C15.5 12.3954 16.3954 11.5 17.5 11.5C18.6046 11.5 19.5 12.3954 19.5 13.5Z" fill="currentColor"/>
</svg>
