<svg viewBox="0 0 24 24" fill="currentColor" xmlns="http://www.w3.org/2000/svg">
<path d="M13.678 21.8598C13.1324 21.952 12.5718 22 12 22C6.47715 22 2 17.5228 2 12C2 6.47715 6.47715 2 12 2C17.5228 2 22 6.47715 22 12C22 12.5718 21.952 13.1325 21.8598 13.6781C21.8536 13.6717 21.8473 13.6653 21.841 13.659C21.2544 13.0724 20.4245 12.8774 19.6762 13.074C19.7248 12.723 19.75 12.3644 19.75 12C19.75 7.71979 16.2802 4.25 12 4.25C7.71979 4.25 4.25 7.71979 4.25 12C4.25 16.2802 7.71979 19.75 12 19.75C12.3644 19.75 12.7229 19.7248 13.074 19.6762C12.8774 20.4245 13.0724 21.2544 13.659 21.841C13.6653 21.8473 13.6716 21.8536 13.678 21.8598Z" fill="currentColor"/>
<path d="M17.7153 14.5333C18.059 13.759 18.25 12.9018 18.25 12C18.25 8.54822 15.4518 5.75 12 5.75C8.54822 5.75 5.75 8.54822 5.75 12C5.75 15.4518 8.54822 18.25 12 18.25C12.9018 18.25 13.7589 18.059 14.5333 17.7153L13.659 16.841C13.3108 16.4928 13.1006 16.0589 13.0283 15.6073C12.7016 15.7002 12.3566 15.75 12 15.75C9.92893 15.75 8.25 14.0711 8.25 12C8.25 9.92893 9.92893 8.25 12 8.25C14.0711 8.25 15.75 9.92893 15.75 12C15.75 12.3566 15.7002 12.7016 15.6072 13.0284C16.0589 13.1006 16.4928 13.3108 16.8409 13.659L17.7153 14.5333Z" fill="currentColor"/>
<path d="M9.75 12C9.75 10.7574 10.7574 9.75 12 9.75C13.2426 9.75 14.25 10.7574 14.25 12C14.25 13.2426 13.2426 14.25 12 14.25C10.7574 14.25 9.75 13.2426 9.75 12Z" fill="currentColor"/>
<path d="M19.7197 14.7197L17.75 16.6893L15.7803 14.7197C15.4874 14.4268 15.0126 14.4268 14.7197 14.7197C14.4268 15.0126 14.4268 15.4874 14.7197 15.7803L16.6893 17.75L14.7196 19.7197C14.4267 20.0126 14.4267 20.4874 14.7196 20.7803C15.0125 21.0732 15.4874 21.0732 15.7803 20.7803L17.75 18.8107L19.7197 20.7803C20.0126 21.0732 20.4875 21.0732 20.7804 20.7803C21.0733 20.4874 21.0733 20.0126 20.7804 19.7197L18.8107 17.75L20.7804 15.7803C21.0733 15.4874 21.0733 15.0126 20.7804 14.7197C20.4875 14.4268 20.0126 14.4268 19.7197 14.7197Z" fill="currentColor"/>
</svg>
