<svg viewBox="0 0 24 24" fill="currentColor" xmlns="http://www.w3.org/2000/svg">
<path d="M21.7803 17.2197C22.0732 17.5126 22.0732 17.9874 21.7803 18.2803L18.2803 21.7803C17.9874 22.0732 17.5126 22.0732 17.2197 21.7803L15.2197 19.7803C14.9268 19.4874 14.9268 19.0126 15.2197 18.7197C15.5126 18.4268 15.9874 18.4268 16.2803 18.7197L17.75 20.1893L20.7197 17.2197C21.0126 16.9268 21.4874 16.9268 21.7803 17.2197Z" fill="currentColor"/>
<path d="M14.8931 21.5751C13.9773 21.8515 13.006 22 12 22C6.47715 22 2 17.5228 2 12C2 6.47715 6.47715 2 12 2C17.5228 2 22 6.47715 22 12C22 13.2325 21.777 14.4129 21.3692 15.5031C20.7543 15.4707 20.1287 15.6893 19.659 16.159L17.75 18.068L17.341 17.659C17.3336 17.6516 17.3261 17.6442 17.3186 17.6369C18.8157 16.2239 19.75 14.2211 19.75 12C19.75 7.71979 16.2802 4.25 12 4.25C7.71979 4.25 4.25 7.71979 4.25 12C4.25 16.2802 7.71979 19.75 12 19.75C12.5228 19.75 13.0334 19.6982 13.5272 19.5996C13.5983 20.054 13.8089 20.4908 14.159 20.841L14.8931 21.5751Z" fill="currentColor"/>
<path d="M9.75 12C9.75 10.7574 10.7574 9.75 12 9.75C13.2426 9.75 14.25 10.7574 14.25 12C14.25 13.2426 13.2426 14.25 12 14.25C10.7574 14.25 9.75 13.2426 9.75 12Z" fill="currentColor"/>
<path d="M13.9115 17.9523C13.309 18.1456 12.6667 18.25 12 18.25C8.54822 18.25 5.75 15.4518 5.75 12C5.75 8.54822 8.54822 5.75 12 5.75C15.4518 5.75 18.25 8.54822 18.25 12C18.25 14.0445 17.2683 15.8597 15.7506 17C15.1746 16.9998 14.5985 17.2195 14.159 17.659C14.0668 17.7512 13.9843 17.8494 13.9115 17.9523ZM12 8.25C9.92893 8.25 8.25 9.92893 8.25 12C8.25 14.0711 9.92893 15.75 12 15.75C14.0711 15.75 15.75 14.0711 15.75 12C15.75 9.92893 14.0711 8.25 12 8.25Z" fill="currentColor"/>
</svg>
