<svg viewBox="0 0 24 24" fill="currentColor" xmlns="http://www.w3.org/2000/svg">
<path d="M16.5 6.5C16.5 8.98528 14.4853 11 12 11C9.51472 11 7.5 8.98528 7.5 6.5C7.5 4.01472 9.51472 2 12 2C14.4853 2 16.5 4.01472 16.5 6.5Z" fill="currentColor"/>
<path d="M11 16.5C11 18.9853 8.98528 21 6.5 21C4.01472 21 2 18.9853 2 16.5C2 14.0147 4.01472 12 6.5 12C8.98528 12 11 14.0147 11 16.5Z" fill="currentColor"/>
<path d="M22 16.5C22 18.9853 19.9853 21 17.5 21C15.0147 21 13 18.9853 13 16.5C13 14.0147 15.0147 12 17.5 12C19.9853 12 22 14.0147 22 16.5Z" fill="currentColor"/>
</svg>
