<svg viewBox="0 0 24 24" fill="currentColor" xmlns="http://www.w3.org/2000/svg">
<path d="M12 22C6.47715 22 2 17.5228 2 12C2 6.47715 6.47715 2 12 2C17.5228 2 22 6.47715 22 12C22 17.5228 17.5228 22 12 22ZM16.067 9.18691L12.433 7.1146C12.1651 6.9618 11.8349 6.9618 11.567 7.1146L7.93301 9.18691C7.66506 9.33971 7.5 9.62209 7.5 9.92769V14.0723C7.5 14.3779 7.66506 14.6603 7.93301 14.8131L11.567 16.8854C11.8349 17.0382 12.1651 17.0382 12.433 16.8854L16.067 14.8131C16.3349 14.6603 16.5 14.3779 16.5 14.0723V9.92769C16.5 9.62209 16.3349 9.33971 16.067 9.18691Z" fill="currentColor"/>
</svg>
