<svg viewBox="0 0 24 24" fill="currentColor" xmlns="http://www.w3.org/2000/svg">
<path d="M12 22C6.47715 22 2 17.5228 2 12C2 6.47715 6.47715 2 12 2C17.5228 2 22 6.47715 22 12C22 17.5228 17.5228 22 12 22ZM11.2929 7.05025L7.05025 11.2929C6.65972 11.6834 6.65972 12.3166 7.05025 12.7071L11.2929 16.9497C11.6834 17.3403 12.3166 17.3403 12.7071 16.9497L16.9497 12.7071C17.3403 12.3166 17.3403 11.6834 16.9497 11.2929L12.7071 7.05025C12.3166 6.65973 11.6834 6.65973 11.2929 7.05025Z" fill="currentColor"/>
</svg>
