<svg viewBox="0 0 24 24" fill="currentColor" xmlns="http://www.w3.org/2000/svg">
<path d="M5.8156 2.54751C6.18409 1.8175 7.14681 1.8175 7.51531 2.54751L11.2095 9.86585C11.565 10.5702 11.0973 11.4319 10.3596 11.4319H2.9713C2.23358 11.4319 1.76592 10.5702 2.12144 9.86585L5.8156 2.54751Z" fill="currentColor"/>
<path d="M5.8156 13.1156C6.18409 12.3855 7.14681 12.3856 7.51531 13.1156L11.2095 20.4339C11.565 21.1382 11.0973 22 10.3596 22H2.9713C2.23358 22 1.76592 21.1382 2.12144 20.4339L5.8156 13.1156Z" fill="currentColor"/>
<path d="M16.4847 2.54751C16.8532 1.8175 17.8159 1.8175 18.1844 2.54751L21.8786 9.86585C22.2341 10.5702 21.7664 11.4319 21.0287 11.4319H13.6404C12.9027 11.4319 12.435 10.5702 12.7905 9.86585L16.4847 2.54751Z" fill="currentColor"/>
<path d="M16.4847 13.1156C16.8532 12.3855 17.8159 12.3856 18.1844 13.1156L21.8786 20.4339C22.2341 21.1382 21.7664 22 21.0287 22H13.6404C12.9027 22 12.435 21.1382 12.7905 20.4339L16.4847 13.1156Z" fill="currentColor"/>
</svg>
