<?xml version="1.0" encoding="utf-8"?>
<!-- Generator: Adobe Illustrator 22.0.0, SVG Export Plug-In . SVG Version: 6.00 Build 0)  -->
<svg version="1.1" id="lni_lni-world-2" xmlns="http://www.w3.org/2000/svg" xmlns:xlink="http://www.w3.org/1999/xlink" x="0px"
	 y="0px" viewBox="0 0 64 64" style="enable-background:new 0 0 64 64;" xml:space="preserve">
<path d="M58.1,16.6c-5.4-9.2-15-14.7-25.6-14.9c-0.3,0-0.7,0-1,0C20.9,1.9,11.3,7.5,5.9,16.6c-2.7,4.6-4.2,10-4.2,15.4
	c0,6.5,2,12.6,5.8,17.8c5.7,7.7,14.4,12.3,23.9,12.4c0.2,0,0.3,0,0.5,0s0.3,0,0.5,0c9.6-0.1,18.3-4.7,23.9-12.4
	c3.8-5.2,5.8-11.4,5.8-17.8C62.3,26.6,60.8,21.3,58.1,16.6z M52.6,16.6c-3.7,1.2-7.6,2.1-11.5,2.6c-1.1-4.4-2.8-8.6-5-12.6
	C42.8,7.7,48.6,11.2,52.6,16.6z M31.4,56.8c-1.8-3.1-3.3-6.3-4.4-9.5c2.9-0.2,5.9-0.2,8.8-0.1C34.7,50.5,33.2,53.7,31.4,56.8z
	 M36.6,19.6c-3.5,0.2-7.1,0.2-10.5-0.1c1.2-4.3,2.9-8.4,5.2-12.3C33.7,11.2,35.5,15.3,36.6,19.6z M25.1,24c2.2,0.2,4.5,0.3,6.9,0.3
	c1.9,0,3.8-0.1,5.6-0.2c0.4,2.6,0.7,5.3,0.7,7.9c0,3.6-0.4,7.2-1.2,10.7c-3.7-0.3-7.6-0.2-11.3,0.1c-0.8-3.5-1.3-7.1-1.3-10.8
	C24.4,29.3,24.7,26.6,25.1,24z M26.4,6.9c-2.1,3.9-3.7,8-4.8,12.2c-3.5-0.5-6.9-1.3-10.2-2.4C15.1,11.6,20.4,8.2,26.4,6.9z M6.3,32
	c0-4,0.9-7.9,2.7-11.5c3.8,1.3,7.7,2.3,11.7,2.9c-0.5,2.8-0.7,5.7-0.7,8.6c0,3.8,0.4,7.6,1.3,11.3c-3.7,0.6-7.3,1.4-10.9,2.5
	C7.7,41.7,6.3,37,6.3,32z M13.3,49.7c3-0.9,6-1.5,9.1-2c1,3.2,2.4,6.4,4,9.4C21.4,56,16.8,53.5,13.3,49.7z M36.2,57.4
	c1.7-3.2,3.2-6.5,4.2-9.8c3.5,0.4,7,1.1,10.3,2.1C46.8,53.8,41.8,56.5,36.2,57.4z M53.7,45.9c-3.9-1.3-8-2.1-12.1-2.7
	c0.8-3.6,1.2-7.4,1.2-11.2c0-2.8-0.2-5.6-0.7-8.4c4.4-0.6,8.8-1.6,13-3.1c1.8,3.5,2.7,7.5,2.7,11.5C57.8,37,56.3,41.7,53.7,45.9z"/>
</svg>
