<?xml version="1.0" encoding="utf-8"?>
<!-- Generator: Adobe Illustrator 25.2.1, SVG Export Plug-In . SVG Version: 6.00 Build 0)  -->
<svg version="1.1" id="lni_lni-corner-down-left" xmlns="http://www.w3.org/2000/svg" xmlns:xlink="http://www.w3.org/1999/xlink"
	 x="0px" y="0px" viewBox="0 0 64 64" style="enable-background:new 0 0 64 64;" xml:space="preserve">
<path d="M58.8,1.8c-1.2,0-2.2,1-2.2,2.2v31.9c0,2.8-2.3,5-5,5H10.6l13-13c0.9-0.9,0.9-2.3,0-3.2c-0.9-0.9-2.3-0.9-3.2,0L3.6,41.6
	c-0.4,0.4-0.7,1-0.7,1.6s0.2,1.2,0.7,1.6l16.8,16.8c0.4,0.4,1,0.7,1.6,0.7s1.2-0.2,1.6-0.7c0.9-0.9,0.9-2.3,0-3.2l-13-13h40.9
	c5.3,0,9.5-4.3,9.5-9.5V4C61.1,2.8,60.1,1.8,58.8,1.8z"/>
</svg>
