<?xml version="1.0" encoding="utf-8"?>
<!-- Generator: Adobe Illustrator 25.2.1, SVG Export Plug-In . SVG Version: 6.00 Build 0)  -->
<svg version="1.1" id="lni_lni-left-arrow-box" xmlns="http://www.w3.org/2000/svg" xmlns:xlink="http://www.w3.org/1999/xlink"
	 x="0px" y="0px" viewBox="0 0 64 64" style="enable-background:new 0 0 64 64;" xml:space="preserve">
<g>
	<path d="M56,1.8H8C4.6,1.8,1.8,4.6,1.8,8v48c0,3.4,2.8,6.2,6.2,6.2h48c3.4,0,6.2-2.8,6.2-6.2V8C62.2,4.6,59.4,1.8,56,1.8z M57.8,56
		c0,1-0.8,1.8-1.8,1.8H8c-1,0-1.8-0.8-1.8-1.8V8C6.2,7,7,6.2,8,6.2h48c1,0,1.8,0.8,1.8,1.8V56z"/>
	<path d="M43.7,29.8H25.1l5.1-6c0.8-1,0.7-2.4-0.3-3.2c-0.9-0.8-2.4-0.7-3.2,0.3l-8.2,9.7c-0.7,0.8-0.7,2.1,0,2.9l8.2,9.7
		c0.4,0.5,1.1,0.8,1.7,0.8c0.5,0,1-0.2,1.4-0.5c1-0.8,1.1-2.2,0.3-3.2l-5.1-6h18.6c1.2,0,2.2-1,2.2-2.2
		C45.9,30.8,44.9,29.8,43.7,29.8z"/>
</g>
</svg>
