<svg viewBox="0 0 24 24" fill="currentColor" xmlns="http://www.w3.org/2000/svg">
<path d="M12.75 8.90549C14.0439 8.57246 15 7.39788 15 6C15 4.34315 12 2 12 2C12 2 9 4.34315 9 6C9 7.39788 9.95608 8.57246 11.25 8.90549V10H11C10.4477 10 10 10.4477 10 11V13H8C7.44772 13 7 13.4477 7 14V16C7 16.5523 7.44772 17 8 17H10V21C10 21.5523 10.4477 22 11 22H13C13.5523 22 14 21.5523 14 21V17H16C16.5523 17 17 16.5523 17 16V14C17 13.4477 16.5523 13 16 13H14V11C14 10.4477 13.5523 10 13 10H12.75V8.90549Z" fill="currentColor"/>
</svg>
