<svg viewBox="0 0 24 24" fill="currentColor" xmlns="http://www.w3.org/2000/svg">
<path d="M12.516 2.16227C12.2035 1.94591 11.7965 1.94591 11.484 2.16227L6.03165 5.93777C5.71105 6.15977 5.62442 6.60968 5.83815 6.94268C6.05189 7.27568 6.48505 7.36567 6.80565 7.14367L7.34888 6.76751V9.21254L2.31075 12.7012C1.99015 12.9232 1.90351 13.3731 2.11725 13.7061C2.33098 14.0391 2.76414 14.1291 3.08474 13.9071L4.5582 12.8868V20.0676C4.5582 21.1348 5.39115 22 6.41865 22H10V19C10 17.8954 10.8954 17 12 17C13.1046 17 14 17.8954 14 19V22H17.5814C18.6089 22 19.4418 21.1348 19.4418 20.0676V12.7948L20.8919 13.8902C21.2035 14.1256 21.6399 14.054 21.8665 13.7304C22.0931 13.4067 22.0242 12.9535 21.7126 12.7181L16.6511 8.89465V6.76751L17.1944 7.14367C17.515 7.36567 17.9481 7.27568 18.1619 6.94268C18.3756 6.60968 18.289 6.15977 17.9684 5.93777L12.516 2.16227ZM12 7.25C12.4142 7.25 12.75 7.58579 12.75 8V9.25H14C14.4142 9.25 14.75 9.58579 14.75 10C14.75 10.4142 14.4142 10.75 14 10.75H12.75V13C12.75 13.4142 12.4142 13.75 12 13.75C11.5858 13.75 11.25 13.4142 11.25 13V10.75H10C9.58579 10.75 9.25 10.4142 9.25 10C9.25 9.58579 9.58579 9.25 10 9.25H11.25V8C11.25 7.58579 11.5858 7.25 12 7.25Z" fill="currentColor"/>
</svg>
