<svg viewBox="0 0 24 24" fill="currentColor" xmlns="http://www.w3.org/2000/svg">
<path d="M6 2C5.44772 2 5 2.44772 5 3C5 3.55228 5.44772 4 6 4V7.33579C6.06398 7.33579 6.12796 7.31138 6.17678 7.26256L7.76256 5.67678C8.44598 4.99336 9.55402 4.99336 10.2374 5.67678L11.8232 7.26256C11.9209 7.36019 12.0791 7.36019 12.1768 7.26256L13.6954 5.74398C14.423 5.01632 15.6184 5.07055 16.2772 5.86109L17.3187 7.11091C17.4177 7.22976 17.5999 7.23103 17.7006 7.11356L18 6.76422V4C18.5523 4 19 3.55228 19 3C19 2.44772 18.5523 2 18 2H6Z" fill="currentColor"/>
<path d="M17.8326 8.67132C17.2355 8.78211 16.5916 8.58146 16.1664 8.07121L15.1249 6.8214C15.0307 6.70846 14.86 6.70072 14.756 6.80467L13.2374 8.32325C12.554 9.00667 11.446 9.00667 10.7626 8.32325L9.17681 6.73747C9.07918 6.63984 8.92088 6.63984 8.82325 6.73747L7.23747 8.32325C6.95003 8.61069 6.58749 8.77723 6.21301 8.82288C6.52677 9.80195 7.16912 10.6132 8.0187 11.0406C8.66964 11.3681 9.34258 11.6118 10.0262 11.7716C10.0091 11.845 10 11.9214 10 12V13C10 13.5385 10.4257 13.9776 10.9589 13.9992C10.781 16.1581 10.0296 18.23 8.78421 20H8.00003C7.44775 20 7.00003 20.4477 7.00003 21C7.00003 21.5523 7.44775 22 8.00003 22H16C16.5523 22 17 21.5523 17 21C17 20.4477 16.5523 20 16 20H15.2158C13.9704 18.23 13.219 16.1581 13.0411 13.9992C13.5743 13.9776 14 13.5385 14 13V12C14 11.9214 13.9909 11.845 13.9738 11.7716C14.6575 11.6118 15.3304 11.3681 15.9813 11.0406C16.8744 10.5913 17.5384 9.71794 17.8326 8.67132Z" fill="currentColor"/>
</svg>
