<svg viewBox="0 0 24 24" fill="currentColor" xmlns="http://www.w3.org/2000/svg">
<path d="M5.76271 2C6.18395 2 6.52542 2.33579 6.52542 2.75V2.96174C6.58839 2.96142 6.65269 2.96879 6.71727 2.98466C8.77728 3.49108 10.9337 3.64152 13.0465 3.43376C14.2804 3.31243 15.5368 3.31112 16.7707 3.43245L19.0842 3.65995C19.6041 3.71107 20 4.14124 20 4.65499V12.645C20 13.2366 19.4805 13.6989 18.8819 13.64L16.7707 13.4324C15.5368 13.3111 14.2937 13.3111 13.0598 13.4324C10.923 13.6426 8.76533 13.4881 6.68197 12.976L6.52542 12.9375V21.25C6.52542 21.6642 6.18395 22 5.76271 22C5.34148 22 5 21.6642 5 21.25V2.75C5 2.33579 5.34148 2 5.76271 2ZM16 8C16 7.86119 15.792 7.83825 15.7202 7.95705C15.3787 8.52219 14.7585 8.9 14.05 8.9C12.973 8.9 12.1 8.02696 12.1 6.95C12.1 6.24154 12.4778 5.62132 13.0429 5.27983C13.1618 5.20804 13.1388 5 13 5C11.3431 5 10 6.34315 10 8C10 9.65685 11.3431 11 13 11C14.6569 11 16 9.65685 16 8ZM14.7577 5.07357C14.7165 4.97548 14.5835 4.97548 14.5423 5.07357L14.2427 5.78694C14.2256 5.82758 14.189 5.85545 14.1468 5.85989L13.406 5.93774C13.3042 5.94844 13.2631 6.08079 13.3395 6.15212L13.895 6.67085C13.9267 6.70041 13.9407 6.74551 13.9317 6.78889L13.7735 7.55038C13.7518 7.65508 13.8593 7.73688 13.9477 7.68287L14.5907 7.2901C14.609 7.27891 14.6295 7.27331 14.65 7.27331C14.6705 7.27331 14.691 7.27891 14.7093 7.2901L15.3523 7.68287C15.4407 7.73688 15.5482 7.65508 15.5265 7.55038L15.3683 6.78889C15.3593 6.74551 15.3733 6.70041 15.405 6.67085L15.9605 6.15212C16.0369 6.08079 15.9958 5.94844 15.894 5.93774L15.1532 5.85989C15.111 5.85545 15.0744 5.82758 15.0573 5.78694L14.7577 5.07357Z" fill="currentColor"/>
</svg>
