<svg viewBox="0 0 24 24" fill="currentColor" xmlns="http://www.w3.org/2000/svg">
<path d="M4 4.0241V19.9759C4 21.0938 4.89543 22 6 22H19C19.5523 22 20 21.5469 20 20.988V6.80723C20 6.33565 19.6813 5.93941 19.25 5.82706V3.51807C19.6642 3.51807 20 3.17824 20 2.75904C20 2.33983 19.6642 2 19.25 2H6C4.89543 2 4 2.90622 4 4.0241ZM17.75 5.79518H6.5C5.94772 5.79518 5.5 5.34747 5.5 4.79518V4.53012C5.5 3.97118 5.94772 3.51807 6.5 3.51807H17.75V5.79518ZM11.5853 8.2319C11.681 8.07725 11.8405 7.99995 12 8C12.1594 8.00005 12.3188 8.07735 12.4144 8.2319L13.1818 9.47153C13.268 9.61064 13.417 9.69745 13.5795 9.70313L15.0274 9.75375C15.3885 9.76638 15.6117 10.1563 15.442 10.4782L14.7615 11.7684C14.6851 11.9132 14.6851 12.0868 14.7615 12.2316L15.442 13.5218C15.6117 13.8437 15.3885 14.2336 15.0274 14.2462L13.5795 14.2969C13.417 14.3025 13.268 14.3894 13.1818 14.5285L12.4144 15.7681C12.223 16.0773 11.7767 16.0773 11.5853 15.7681L10.8179 14.5285C10.7317 14.3894 10.5827 14.3025 10.4202 14.2969L8.97231 14.2462C8.61116 14.2336 8.38799 13.8437 8.55773 13.5218L9.23822 12.2316C9.31458 12.0868 9.31458 11.9132 9.23822 11.7684L8.55773 10.4782C8.38799 10.1563 8.61116 9.76638 8.97231 9.75375L10.4202 9.70313C10.5827 9.69745 10.7317 9.61064 10.8179 9.47153L11.5853 8.2319ZM9 17.25H15C15.4142 17.25 15.75 17.5858 15.75 18C15.75 18.4142 15.4142 18.75 15 18.75H9C8.58579 18.75 8.25 18.4142 8.25 18C8.25 17.5858 8.58579 17.25 9 17.25Z" fill="currentColor"/>
</svg>
