<svg viewBox="0 0 24 24" fill="currentColor" xmlns="http://www.w3.org/2000/svg">
<path d="M6 2H19.25C19.6642 2 20 2.33983 20 2.75904C20 3.17824 19.6642 3.51807 19.25 3.51807V5.82706C19.6813 5.93941 20 6.33565 20 6.80723V20.988C20 21.5469 19.5523 22 19 22H6C4.89543 22 4 21.0938 4 19.9759V4.0241C4 2.90622 4.89543 2 6 2ZM17.75 3.51807H6.5C5.94772 3.51807 5.5 3.97118 5.5 4.53012V4.79518C5.5 5.34747 5.94772 5.79518 6.5 5.79518H17.75V3.51807ZM16 14C16 13.8149 15.7226 13.7843 15.6269 13.9427C15.1716 14.6962 14.3446 15.2 13.4 15.2C11.9641 15.2 10.8 14.0359 10.8 12.6C10.8 11.6554 11.3038 10.8284 12.0573 10.3731C12.2157 10.2774 12.1851 10 12 10C9.79086 10 8 11.7909 8 14C8 16.2091 9.79086 18 12 18C14.2091 18 16 16.2091 16 14ZM14.3436 10.0981C14.2886 9.9673 14.1114 9.9673 14.0564 10.0981L13.6569 11.0493C13.6342 11.1034 13.5853 11.1406 13.529 11.1465L12.5414 11.2503C12.4056 11.2646 12.3508 11.4411 12.4526 11.5362L13.1934 12.2278C13.2356 12.2672 13.2543 12.3273 13.2422 12.3852L13.0313 13.4005C13.0023 13.5401 13.1458 13.6492 13.2636 13.5772L14.121 13.0535C14.1454 13.0385 14.1727 13.0311 14.2 13.0311C14.2273 13.0311 14.2546 13.0385 14.279 13.0535L15.1364 13.5772C15.2542 13.6492 15.3977 13.5401 15.3687 13.4005L15.1578 12.3852C15.1457 12.3273 15.1644 12.2672 15.2066 12.2278L15.9474 11.5362C16.0492 11.4411 15.9944 11.2646 15.8586 11.2503L14.871 11.1465C14.8147 11.1406 14.7658 11.1034 14.7431 11.0493L14.3436 10.0981Z" fill="currentColor"/>
</svg>
