<svg viewBox="0 0 24 24" fill="currentColor" xmlns="http://www.w3.org/2000/svg">
<path d="M17 8.5C17 9.15654 16.8954 9.73949 16.7036 10.25H17C17.4142 10.25 17.75 10.5858 17.75 11C17.75 11.4142 17.4142 11.75 17 11.75V21.25H18V14.75C17.5858 14.75 17.25 14.4142 17.25 14C17.25 13.5858 17.5858 13.25 18 13.25H18.0145C18.0049 13.1554 18 13.057 18 12.9545C18 11.5738 20 10 20 10C20 10 22 11.5738 22 12.9545C22 13.057 21.9951 13.1554 21.9855 13.25H22C22.4142 13.25 22.75 13.5858 22.75 14C22.75 14.4142 22.4142 14.75 22 14.75V21.25C22.4142 21.25 22.75 21.5858 22.75 22C22.75 22.4142 22.4142 22.75 22 22.75H2C1.58579 22.75 1.25 22.4142 1.25 22C1.25 21.5858 1.58579 21.25 2 21.25V14.75C1.58579 14.75 1.25 14.4142 1.25 14C1.25 13.5858 1.58579 13.25 2 13.25H2.0145C2.00493 13.1554 2 13.057 2 12.9545C2 11.5738 4 10 4 10C4 10 6 11.5738 6 12.9545C6 13.057 5.99507 13.1554 5.9855 13.25H6C6.41421 13.25 6.75 13.5858 6.75 14C6.75 14.4142 6.41421 14.75 6 14.75V21.25H7V11.75C6.58579 11.75 6.25 11.4142 6.25 11C6.25 10.5858 6.58579 10.25 7 10.25H7.29641C7.10458 9.73949 7 9.15654 7 8.5C7 5.46243 12 2 12 2C12 2 17 5.46243 17 8.5ZM12 9C13.1046 9 14 8.10457 14 7C14 6.90746 13.8613 6.89217 13.8134 6.97137C13.5858 7.34812 13.1723 7.6 12.7 7.6C11.982 7.6 11.4 7.01797 11.4 6.3C11.4 5.82769 11.6519 5.41421 12.0286 5.18655C12.1078 5.13869 12.0925 5 12 5C10.8954 5 10 5.89543 10 7C10 8.10457 10.8954 9 12 9ZM11.76 15.0875C10.6521 15.9964 10 17.4227 10 18.9375V22H14V18.9375C14 17.4227 13.3479 15.9964 12.24 15.0875C12.0978 14.9708 11.9022 14.9708 11.76 15.0875Z" fill="currentColor"/>
</svg>
