<svg viewBox="0 0 24 24" fill="currentColor" xmlns="http://www.w3.org/2000/svg">
<path d="M4.31783 9.25006C4.51347 9.05442 4.62338 8.78907 4.62338 8.5124V5.66651C4.62338 5.09036 5.09044 4.6233 5.66659 4.6233H8.51248C8.78916 4.6233 9.0545 4.51339 9.25014 4.31775L11.2623 2.30555C11.6697 1.89815 12.3303 1.89815 12.7377 2.30555L14.7499 4.31775C14.9455 4.51339 15.2108 4.6233 15.4875 4.6233H18.3334C18.9096 4.6233 19.3766 5.09036 19.3766 5.66651V8.51239C19.3766 8.78907 19.4865 9.05441 19.6822 9.25005L21.6945 11.2623C22.1019 11.6697 22.1019 12.3303 21.6945 12.7377L19.6822 14.75C19.4865 14.9456 19.3766 15.2109 19.3766 15.4876V18.3333C19.3766 18.9095 18.9096 19.3765 18.3334 19.3765H15.4877C15.211 19.3765 14.9457 19.4864 14.75 19.6821L12.7377 21.6945C12.3303 22.1019 11.6697 22.1019 11.2623 21.6945L9.24997 19.6821C9.05433 19.4864 8.78898 19.3765 8.51231 19.3765H5.66659C5.09044 19.3765 4.62338 18.9095 4.62338 18.3333V15.4876C4.62338 15.2109 4.51347 14.9456 4.31783 14.7499L2.30555 12.7377C1.89815 12.3303 1.89815 11.6697 2.30555 11.2623L4.31783 9.25006ZM16 12C16 11.8149 15.7226 11.7843 15.6269 11.9427C15.1716 12.6962 14.3446 13.2 13.4 13.2C11.9641 13.2 10.8 12.0359 10.8 10.6C10.8 9.65538 11.3038 8.82842 12.0573 8.37311C12.2157 8.27739 12.1851 8 12 8C9.79086 8 8 9.79086 8 12C8 14.2091 9.79086 16 12 16C14.2091 16 16 14.2091 16 12ZM14.3436 8.09809C14.2886 7.9673 14.1114 7.9673 14.0564 8.09809L13.6569 9.04925C13.6342 9.10344 13.5853 9.14061 13.529 9.14652L12.5414 9.25032C12.4056 9.26459 12.3508 9.44106 12.4526 9.53616L13.1934 10.2278C13.2356 10.2672 13.2543 10.3273 13.2422 10.3852L13.0313 11.4005C13.0023 11.5401 13.1458 11.6492 13.2636 11.5772L14.121 11.0535C14.1454 11.0385 14.1727 11.0311 14.2 11.0311C14.2273 11.0311 14.2546 11.0385 14.279 11.0535L15.1364 11.5772C15.2542 11.6492 15.3977 11.5401 15.3687 11.4005L15.1578 10.3852C15.1457 10.3273 15.1644 10.2672 15.2066 10.2278L15.9474 9.53616C16.0492 9.44106 15.9944 9.26459 15.8586 9.25032L14.871 9.14652C14.8147 9.14061 14.7658 9.10344 14.7431 9.04925L14.3436 8.09809Z" fill="currentColor"/>
</svg>
