<svg viewBox="0 0 24 24" fill="currentColor" xmlns="http://www.w3.org/2000/svg">
<path d="M7.75 17.25V6.75H16.25V17.25H7.75ZM9 12.5V16H15V12.5C15 10.7688 14.0219 9.1387 12.36 8.1C12.1467 7.96667 11.8533 7.96667 11.64 8.1C9.97808 9.1387 9 10.7688 9 12.5Z" fill="currentColor"/>
<path d="M5 2.53846C5 2.24108 5.24108 2 5.53846 2C5.83585 2 6.07692 2.24108 6.07692 2.53846V4H7.15385V2.53846C7.15385 2.24108 7.39492 2 7.69231 2C7.98969 2 8.23077 2.24108 8.23077 2.53846V4H9.30769V2.53846C9.30769 2.24108 9.54877 2 9.84615 2C10.1435 2 10.3846 2.24108 10.3846 2.53846V4H11.4615V2.53846C11.4615 2.24108 11.7026 2 12 2C12.2974 2 12.5385 2.24108 12.5385 2.53846V4H13.6154V2.53846C13.6154 2.24108 13.8565 2 14.1538 2C14.4512 2 14.6923 2.24108 14.6923 2.53846V4H15.7692V2.53846C15.7692 2.24108 16.0103 2 16.3077 2C16.6051 2 16.8462 2.24108 16.8462 2.53846V4H17.9231V2.53846C17.9231 2.24108 18.1642 2 18.4615 2C18.7589 2 19 2.24108 19 2.53846V21.4615C19 21.7589 18.7589 22 18.4615 22C18.1642 22 17.9231 21.7589 17.9231 21.4615V20H16.8462V21.4615C16.8462 21.7589 16.6051 22 16.3077 22C16.0103 22 15.7692 21.7589 15.7692 21.4615V20H14.6923V21.4615C14.6923 21.7589 14.4512 22 14.1538 22C13.8565 22 13.6154 21.7589 13.6154 21.4615V20H12.5385V21.4615C12.5385 21.7589 12.2974 22 12 22C11.7026 22 11.4615 21.7589 11.4615 21.4615V20H10.3846V21.4615C10.3846 21.7589 10.1435 22 9.84615 22C9.54877 22 9.30769 21.7589 9.30769 21.4615V20H8.23077V21.4615C8.23077 21.7589 7.98969 22 7.69231 22C7.39492 22 7.15385 21.7589 7.15385 21.4615V20H6.07692V21.4615C6.07692 21.7589 5.83585 22 5.53846 22C5.24108 22 5 21.7589 5 21.4615V2.53846ZM6.25 5.25V18.75H17.75V5.25H6.25Z" fill="currentColor"/>
</svg>
