<svg viewBox="0 0 24 24" fill="currentColor" xmlns="http://www.w3.org/2000/svg">
<path d="M4.33546 1.3291C3.96497 1.14386 3.51447 1.29403 3.32923 1.66451C3.14398 2.03499 3.29415 2.4855 3.66464 2.67074C6.05855 3.8677 8.64583 4.51858 11.25 4.62338V8.24992H4.00005C3.58583 8.24992 3.25005 8.58571 3.25005 8.99992C3.25005 9.41413 3.58583 9.74992 4.00005 9.74992H6.29272C6.26509 9.82811 6.25005 9.91226 6.25005 9.99992V12.2499H4.00005C3.58583 12.2499 3.25005 12.5857 3.25005 12.9999C3.25005 13.4141 3.58583 13.7499 4.00005 13.7499H6.25005V21.9999C6.25005 22.4141 6.58583 22.7499 7.00005 22.7499C7.41426 22.7499 7.75005 22.4141 7.75005 21.9999V13.7499H16.25V21.9999C16.25 22.4141 16.5858 22.7499 17 22.7499C17.4142 22.7499 17.75 22.4141 17.75 21.9999V13.7499H20C20.4142 13.7499 20.75 13.4141 20.75 12.9999C20.75 12.5857 20.4142 12.2499 20 12.2499H17.75V9.99992C17.75 9.91226 17.735 9.82811 17.7073 9.74992H20C20.4142 9.74992 20.75 9.41413 20.75 8.99992C20.75 8.58571 20.4142 8.24992 20 8.24992H12.75V4.62338C15.3542 4.51858 17.9415 3.8677 20.3354 2.67074C20.7059 2.4855 20.8561 2.03499 20.6708 1.66451C20.4856 1.29403 20.0351 1.14386 19.6646 1.3291C14.8396 3.74159 9.16043 3.74159 4.33546 1.3291ZM16.25 12.2499H7.75005V9.99992C7.75005 9.91226 7.73501 9.82811 7.70737 9.74992H16.2927C16.265 9.82811 16.25 9.91226 16.25 9.99992V12.2499Z" fill="currentColor"/>
</svg>
