<svg viewBox="0 0 24 24" fill="currentColor" xmlns="http://www.w3.org/2000/svg">
<path d="M11.8363 2C11.947 2 12.0577 2 12.1684 2C14.3796 2.05703 16.3479 2.74375 18.0734 4.06016C18.2797 4.21745 18.4799 4.38359 18.6742 4.55859C20.2878 6.0112 21.3247 7.80156 21.7852 9.92969C21.9112 10.5122 21.9828 11.1543 22 11.8559C22 11.9634 22 12.0708 22 12.1781C21.9612 13.8219 21.5557 15.3573 20.7836 16.7844C20.6602 17.0122 20.5266 17.2357 20.3828 17.4547C19.8617 18.2482 19.2557 18.9437 18.5648 19.5414C16.7401 21.1201 14.5999 21.9396 12.1441 22C12.0465 22 11.9488 22 11.8512 22C9.12201 21.9172 6.81198 20.9355 4.92109 19.0551C4.73542 18.8702 4.55885 18.679 4.39141 18.4816C2.86589 16.6832 2.06875 14.5805 2 12.1734C2 12.0594 2 11.9454 2 11.8316C2.02865 10.5059 2.30143 9.23945 2.81836 8.03242C2.9194 7.797 3.03255 7.56237 3.15781 7.32852C4.13646 5.50221 5.5319 4.10768 7.34414 3.14492C8.71628 2.41628 10.2137 2.03464 11.8363 2ZM12.5961 20.8066C13.9635 20.6858 15.1948 20.3197 16.2898 19.7082C17.2917 19.1488 18.1461 18.4309 18.8531 17.5543C19.9773 16.1605 20.6229 14.5724 20.7898 12.7898C20.8141 12.5299 20.826 12.2699 20.8258 12.0098C20.8247 10.4796 20.4602 9.05781 19.732 7.74453C18.8313 6.12031 17.5307 4.88828 15.8305 4.04844C14.6909 3.48542 13.4629 3.19544 12.1465 3.17852C11.8598 3.17487 11.6004 3.1918 11.3684 3.2293C10.2665 3.40664 9.35326 3.92708 8.62852 4.79063C7.9207 5.63385 7.57578 6.60182 7.59375 7.69453C7.59818 7.95625 7.62669 8.21458 7.6793 8.46953C7.87669 9.42474 8.33958 10.228 9.06797 10.8793C9.71016 11.4535 10.4613 11.8083 11.3215 11.9437C11.4569 11.9651 11.6495 11.9815 11.8992 11.993C12.1943 12.0068 12.3874 12.0189 12.4785 12.0293C13.34 12.1283 14.0977 12.4415 14.7516 12.9691C15.5622 13.6236 16.0799 14.4549 16.3047 15.4633C16.3625 15.7221 16.3962 15.9801 16.4059 16.2371C16.4249 16.7447 16.3602 17.2408 16.2117 17.7254C16.1375 17.9684 16.0376 18.2083 15.9121 18.4453C15.3181 19.5669 14.3983 20.3086 13.1527 20.6703C13.0715 20.694 12.9723 20.7154 12.8551 20.7344C12.7548 20.7508 12.6548 20.7685 12.5551 20.7875C12.5493 20.7885 12.5445 20.7909 12.5406 20.7945C12.5224 20.8104 12.5285 20.816 12.559 20.8113C12.5715 20.8092 12.5839 20.8077 12.5961 20.8066ZM13.1664 16.707C13.1664 16.3977 13.0435 16.101 12.8248 15.8823C12.606 15.6635 12.3094 15.5406 12 15.5406C11.6906 15.5406 11.394 15.6635 11.1752 15.8823C10.9565 16.101 10.8336 16.3977 10.8336 16.707C10.8336 16.8602 10.8638 17.0119 10.9224 17.1534C10.981 17.2949 11.0669 17.4235 11.1752 17.5318C11.2835 17.6401 11.4121 17.726 11.5536 17.7846C11.6952 17.8433 11.8468 17.8734 12 17.8734C12.1532 17.8734 12.3048 17.8433 12.4464 17.7846C12.5879 17.726 12.7165 17.6401 12.8248 17.5318C12.9331 17.4235 13.019 17.2949 13.0776 17.1534C13.1362 17.0119 13.1664 16.8602 13.1664 16.707Z" fill="currentColor"/>
<path d="M11.9996 8.4582C12.6434 8.4582 13.1652 7.93633 13.1652 7.29257C13.1652 6.64882 12.6434 6.12695 11.9996 6.12695C11.3559 6.12695 10.834 6.64882 10.834 7.29257C10.834 7.93633 11.3559 8.4582 11.9996 8.4582Z" fill="currentColor"/>
</svg>
