<svg viewBox="0 0 24 24" fill="currentColor" xmlns="http://www.w3.org/2000/svg">
<path d="M6.99994 6C7.5368 6 8.02425 5.78848 8.3835 5.44422L11.9057 8.96648L11.3932 11.2729L9.58088 11.6612C8.65874 11.8588 7.99994 12.6738 7.99994 13.6168V16H6.99994C5.34309 16 3.99994 17.3431 3.99994 19C3.99994 20.6569 5.34309 22 6.99994 22H20.9999C22.6568 22 23.9999 20.6569 23.9999 19C23.9999 17.6938 23.1651 16.5825 21.9999 16.1707V11.474C21.9999 10.6206 21.4725 9.91285 20.7499 9.61916V5C20.7499 4.0335 19.9664 3.25 18.9999 3.25H14.5799C13.7596 3.25 13.0495 3.81968 12.8715 4.62037L12.2914 7.23085L8.99901 3.93841C8.96646 2.86234 8.08391 2 6.99994 2C5.95123 2 5.09105 2.80715 5.00672 3.83411L0.906724 7.1141C0.491598 7.44621 0.24994 7.949 0.24994 8.48063V10H0.137939C0.137939 12.2091 1.98125 14 4.25508 14C5.79142 14 7.13121 13.1824 7.83869 11.9707C8.07386 11.5679 8.13794 11.0947 8.13794 10.6283V10.2276L6.99983 11.3333H3.99983V10H1.74994V8.48063C1.74994 8.40468 1.78446 8.33285 1.84377 8.28541L5.51954 5.34479C5.88539 5.7473 6.41316 6 6.99994 6ZM19.2499 9.58929L13.0066 10.9271L14.3358 4.94577C14.3612 4.83138 14.4627 4.75 14.5799 4.75H18.9999C19.138 4.75 19.2499 4.86193 19.2499 5V9.58929ZM8.49994 19C8.49994 19.8284 7.82837 20.5 6.99994 20.5C6.17151 20.5 5.49994 19.8284 5.49994 19C5.49994 18.1716 6.17151 17.5 6.99994 17.5C7.82837 17.5 8.49994 18.1716 8.49994 19ZM11.4999 20.5C10.6715 20.5 9.99994 19.8284 9.99994 19C9.99994 18.1716 10.6715 17.5 11.4999 17.5C12.3283 17.5 12.9999 18.1716 12.9999 19C12.9999 19.8284 12.3283 20.5 11.4999 20.5ZM17.9999 19C17.9999 19.8284 17.3283 20.5 16.4999 20.5C15.6715 20.5 14.9999 19.8284 14.9999 19C14.9999 18.1716 15.6715 17.5 16.4999 17.5C17.3283 17.5 17.9999 18.1716 17.9999 19ZM20.9999 20.5C20.1715 20.5 19.4999 19.8284 19.4999 19C19.4999 18.1716 20.1715 17.5 20.9999 17.5C21.8283 17.5 22.4999 18.1716 22.4999 19C22.4999 19.8284 21.8283 20.5 20.9999 20.5Z" fill="currentColor"/>
</svg>
