<svg viewBox="0 0 24 24" fill="currentColor" xmlns="http://www.w3.org/2000/svg">
<path d="M10 5C9.44772 5 9 5.44772 9 6V8C9 8.55229 9.44772 9 10 9H14C14.5523 9 15 8.55229 15 8V6C15 5.44772 14.5523 5 14 5H10Z" fill="currentColor"/>
<path d="M2 16C2 15.4477 2.44772 15 3 15H7C7.55228 15 8 15.4477 8 16V18C8 18.5523 7.55228 19 7 19H3C2.44772 19 2 18.5523 2 18V16Z" fill="currentColor"/>
<path d="M9 16C9 15.4477 9.44772 15 10 15H14C14.5523 15 15 15.4477 15 16V18C15 18.5523 14.5523 19 14 19H10C9.44772 19 9 18.5523 9 18V16Z" fill="currentColor"/>
<path d="M5.5 11C5.5 10.4477 5.94772 10 6.5 10H10.5C11.0523 10 11.5 10.4477 11.5 11V13C11.5 13.5523 11.0523 14 10.5 14H6.5C5.94772 14 5.5 13.5523 5.5 13V11Z" fill="currentColor"/>
<path d="M12.5 11C12.5 10.4477 12.9477 10 13.5 10H17.5C18.0523 10 18.5 10.4477 18.5 11V13C18.5 13.5523 18.0523 14 17.5 14H13.5C12.9477 14 12.5 13.5523 12.5 13V11Z" fill="currentColor"/>
<path d="M17 15C16.4477 15 16 15.4477 16 16V18C16 18.5523 16.4477 19 17 19H21C21.5523 19 22 18.5523 22 18V16C22 15.4477 21.5523 15 21 15H17Z" fill="currentColor"/>
</svg>
