<svg viewBox="0 0 24 24" fill="currentColor" xmlns="http://www.w3.org/2000/svg">
<path d="M2 6C2 5.44772 2.44772 5 3 5H5C5.55228 5 6 5.44772 6 6V8C6 8.55228 5.55228 9 5 9H3C2.44772 9 2 8.55228 2 8V6Z" fill="currentColor"/>
<path d="M22 11C22 10.4477 21.5523 10 21 10H19C18.4477 10 18 10.4477 18 11V13C18 13.5523 18.4477 14 19 14H21C21.5523 14 22 13.5523 22 13V11Z" fill="currentColor"/>
<path d="M2 16C2 15.4477 2.44772 15 3 15H5C5.55228 15 6 15.4477 6 16V18C6 18.5523 5.55228 19 5 19H3C2.44772 19 2 18.5523 2 18V16Z" fill="currentColor"/>
<path d="M7 6C7 5.44772 7.44772 5 8 5H14C14.5523 5 15 5.44772 15 6V8C15 8.55228 14.5523 9 14 9H8C7.44772 9 7 8.55228 7 8V6Z" fill="currentColor"/>
<path d="M17 11C17 10.4477 16.5523 10 16 10H10C9.44772 10 9 10.4477 9 11V13C9 13.5523 9.44772 14 10 14H16C16.5523 14 17 13.5523 17 13V11Z" fill="currentColor"/>
<path d="M7 16C7 15.4477 7.44772 15 8 15H14C14.5523 15 15 15.4477 15 16V18C15 18.5523 14.5523 19 14 19H8C7.44772 19 7 18.5523 7 18V16Z" fill="currentColor"/>
<path d="M16 6C16 5.44772 16.4477 5 17 5H21C21.5523 5 22 5.44772 22 6V8C22 8.55228 21.5523 9 21 9H17C16.4477 9 16 8.55228 16 8V6Z" fill="currentColor"/>
<path d="M8 11C8 10.4477 7.55228 10 7 10H3C2.44772 10 2 10.4477 2 11V13C2 13.5523 2.44772 14 3 14H7C7.55228 14 8 13.5523 8 13V11Z" fill="currentColor"/>
<path d="M16 16C16 15.4477 16.4477 15 17 15H21C21.5523 15 22 15.4477 22 16V18C22 18.5523 21.5523 19 21 19H17C16.4477 19 16 18.5523 16 18V16Z" fill="currentColor"/>
</svg>
