<svg viewBox="0 0 24 24" fill="currentColor" xmlns="http://www.w3.org/2000/svg">
<path d="M17 5C16.4477 5 16 5.44772 16 6V8C16 8.55229 16.4477 9 17 9H21C21.5523 9 22 8.55229 22 8V6C22 5.44772 21.5523 5 21 5H17Z" fill="currentColor"/>
<path d="M2 16C2 15.4477 2.44772 15 3 15H7C7.55228 15 8 15.4477 8 16V18C8 18.5523 7.55228 19 7 19H3C2.44772 19 2 18.5523 2 18V16Z" fill="currentColor"/>
<path d="M9 16C9 15.4477 9.44772 15 10 15H14C14.5523 15 15 15.4477 15 16V18C15 18.5523 14.5523 19 14 19H10C9.44772 19 9 18.5523 9 18V16Z" fill="currentColor"/>
<path d="M9 11C9 10.4477 9.44772 10 10 10H14C14.5523 10 15 10.4477 15 11V13C15 13.5523 14.5523 14 14 14H10C9.44772 14 9 13.5523 9 13V11Z" fill="currentColor"/>
<path d="M16 11C16 10.4477 16.4477 10 17 10H21C21.5523 10 22 10.4477 22 11V13C22 13.5523 21.5523 14 21 14H17C16.4477 14 16 13.5523 16 13V11Z" fill="currentColor"/>
<path d="M17 15C16.4477 15 16 15.4477 16 16V18C16 18.5523 16.4477 19 17 19H21C21.5523 19 22 18.5523 22 18V16C22 15.4477 21.5523 15 21 15H17Z" fill="currentColor"/>
</svg>
