<svg viewBox="0 0 24 24" fill="currentColor" xmlns="http://www.w3.org/2000/svg">
<path d="M8 2C7.44772 2 7 2.44772 7 3V21.25H5V7C5 6.44772 4.55228 6 4 6C3.44772 6 3 6.44772 3 7V21.25H2C1.58579 21.25 1.25 21.5858 1.25 22C1.25 22.4142 1.58579 22.75 2 22.75H22C22.4142 22.75 22.75 22.4142 22.75 22C22.75 21.5858 22.4142 21.25 22 21.25H21V7C21 6.44772 20.5523 6 20 6C19.4477 6 19 6.44772 19 7V21.25H17V3C17 2.44772 16.5523 2 16 2H8ZM15 4V8H13V4H15ZM9 4H11V8H9V4ZM15 10V14H13V10H15ZM9 10H11V14H9V10ZM15 16V20H13V16H15ZM9 16H11V20H9V16Z" fill="currentColor"/>
</svg>
