<svg viewBox="0 0 24 24" fill="currentColor" xmlns="http://www.w3.org/2000/svg">
<path d="M8 2C7.44772 2 7 2.44772 7 3V6.5H8C9.38071 6.5 10.5 7.61929 10.5 9V20.5H9V9C9 8.44772 8.55228 8 8 8H4C3.44772 8 3 8.44772 3 9V20.5H2.75C2.33579 20.5 2 20.8358 2 21.25C2 21.6642 2.33579 22 2.75 22H21.25C21.6642 22 22 21.6642 22 21.25C22 20.8358 21.6642 20.5 21.25 20.5H21V7C21 6.44772 20.5523 6 20 6C19.4477 6 19 6.44772 19 7V20.5H17.5V3C17.5 2.44772 17.0523 2 16.5 2H8ZM7 20H5V16H7V20ZM7 14H5V10H7V14ZM13 4H15V8H13V4ZM15 10V14H13V10H15ZM13 16H15V20H13V16Z" fill="currentColor"/>
</svg>
