<svg viewBox="0 0 24 24" fill="currentColor" xmlns="http://www.w3.org/2000/svg">
<path d="M8 18.0444C8 19.1244 7.10457 20 6 20C4.89543 20 4 19.1244 4 18.0444C4 16.9643 4.89543 16.0887 6 16.0887C7.10457 16.0887 8 16.9643 8 18.0444Z" fill="currentColor"/>
<path d="M13 18.0444C13 19.1244 12.1046 20 11 20C9.89543 20 9 19.1244 9 18.0444C9 16.9643 9.89543 16.0887 11 16.0887C12.1046 16.0887 13 16.9643 13 18.0444Z" fill="currentColor"/>
<path d="M20 18.0444C20 19.1244 19.1046 20 18 20C16.8954 20 16 19.1244 16 18.0444C16 16.9643 16.8954 16.0887 18 16.0887C19.1046 16.0887 20 16.9643 20 18.0444Z" fill="currentColor"/>
<path d="M4.92401 3.07076C5.52748 2.99249 6.13411 2.97956 6.73344 3.02994L3.61456 8.31214C3.28122 7.77383 3.014 7.19361 2.82202 6.58266C2.80057 6.51439 2.80913 6.44046 2.84565 6.3786L4.71997 3.20422C4.7631 3.13117 4.83849 3.08186 4.92401 3.07076Z" fill="currentColor"/>
<path d="M6.41813 10.997C5.73714 10.6125 5.12482 10.1342 4.59705 9.58157L8.2996 3.31085C8.95494 3.4931 9.58898 3.75436 10.1865 4.09169L10.6639 4.36119C10.9328 4.51301 11.194 4.67686 11.4466 4.85209C11.4159 4.88682 11.388 4.92488 11.3637 4.96614L7.4727 11.5559C7.2431 11.4505 7.01787 11.3355 6.79765 11.2112L6.41813 10.997Z" fill="currentColor"/>
<path d="M12.6069 5.79396L8.8999 12.0723C9.04232 12.1108 9.18578 12.1459 9.33017 12.1775H3C2.44772 12.1775 2 12.6153 2 13.1553V16.0887C2 16.5131 2.27644 16.8743 2.66284 17.0096C3.11138 15.6253 4.43587 14.622 6 14.622C6.97934 14.622 7.86474 15.0153 8.5 15.6492C9.13526 15.0153 10.0207 14.622 11 14.622C12.5855 14.622 13.9248 15.6529 14.3551 17.0666H14.6449C15.0752 15.6529 16.4145 14.622 18 14.622C19.5641 14.622 20.8886 15.6253 21.3372 17.0096C21.7236 16.8743 22 16.5131 22 16.0887V9.05119C22 8.85815 21.9416 8.66942 21.8321 8.5088L19.2969 4.7904C19.1114 4.51837 18.7992 4.35498 18.4648 4.35498H15C14.4477 4.35498 14 4.79276 14 5.33279V7.28841H13.8867C13.8451 7.16092 13.7765 7.04056 13.6816 6.93597L13.1347 6.33282C12.9657 6.14645 12.7896 5.96672 12.6069 5.79396ZM17.9338 5.8217C18.2851 5.8217 18.6106 6.00191 18.7913 6.29643L19.9442 8.17529C19.9807 8.2348 20 8.30288 20 8.37227C20 8.58372 19.8247 8.75513 19.6085 8.75513H16C15.7239 8.75513 15.5 8.53624 15.5 8.26623V6.3106C15.5 6.04059 15.7239 5.8217 16 5.8217H17.9338ZM16 9.9774H17.5C17.9142 9.9774 18.25 10.3058 18.25 10.7108C18.25 11.1158 17.9142 11.4441 17.5 11.4441H16C15.5858 11.4441 15.25 11.1158 15.25 10.7108C15.25 10.3058 15.5858 9.9774 16 9.9774Z" fill="currentColor"/>
</svg>
