<svg viewBox="0 0 24 24" fill="currentColor" xmlns="http://www.w3.org/2000/svg">
<path d="M12.772 1.75904C12.772 1.33983 12.4264 1 12 1C11.5736 1 11.228 1.33983 11.228 1.75904V2.84213C9.32309 3.19741 7.88269 4.84296 7.88269 6.81928C7.88269 7.75196 8.20349 8.61098 8.74253 9.29547L7.56437 12.3028C6.9479 11.5928 6.59603 10.7397 6.59603 9.85542C6.59603 9.43622 6.2504 9.09638 5.82404 9.09638C5.39768 9.09638 5.05204 9.43622 5.05204 9.85542C5.05204 11.4422 5.78626 12.8354 6.95409 13.8606L4.03488 21.3121C3.90502 21.6436 4.15386 22 4.51515 22H6.15697C6.36983 22 6.56073 21.8712 6.63724 21.6759L9.18437 15.1741C9.82621 15.4125 10.5145 15.5714 11.228 15.6385V15.9277C11.228 16.3469 11.5736 16.6867 12 16.6867C12.4264 16.6867 12.772 16.3469 12.772 15.9277V15.6385C13.4855 15.5714 14.1738 15.4125 14.8156 15.1741L17.3628 21.6759C17.4393 21.8712 17.6302 22 17.843 22H19.4849C19.8461 22 20.095 21.6436 19.9651 21.3121L17.0459 13.8606C18.2137 12.8354 18.948 11.4422 18.948 9.85542C18.948 9.43622 18.6023 9.09638 18.176 9.09638C17.7496 9.09638 17.404 9.43622 17.404 9.85542C17.404 10.7397 17.0521 11.5928 16.4356 12.3028L15.2575 9.29547C15.7965 8.61098 16.1173 7.75196 16.1173 6.81928C16.1173 4.84296 14.6769 3.19741 12.772 2.84213V1.75904ZM12.772 13.9036C12.772 13.4844 12.4264 13.1446 12 13.1446C11.5736 13.1446 11.228 13.4844 11.228 13.9036V14.1139C10.6974 14.0544 10.1975 13.9345 9.73652 13.7647L10.926 10.7284C11.2684 10.8191 11.6285 10.8675 12 10.8675C12.3715 10.8675 12.7316 10.8191 13.074 10.7284L14.2635 13.7647C13.8025 13.9345 13.3026 14.0544 12.772 14.1139V13.9036ZM12 8.84337C10.8631 8.84337 9.94137 7.93715 9.94137 6.81928C9.94137 5.7014 10.8631 4.79518 12 4.79518C13.137 4.79518 14.0587 5.7014 14.0587 6.81928C14.0587 7.93715 13.137 8.84337 12 8.84337Z" fill="currentColor"/>
</svg>
