<svg viewBox="0 0 24 24" fill="currentColor" xmlns="http://www.w3.org/2000/svg">
<path d="M5.7406 14.25L7.97368 8.75H16.0263L18.2594 14.25H5.7406Z" fill="currentColor"/>
<path d="M5.13158 15.75L3.40602 20H3C2.44772 20 2 20.4477 2 21C2 21.5523 2.44772 22 3 22H21C21.5523 22 22 21.5523 22 21C22 20.4477 21.5523 20 21 20H20.594L18.8684 15.75H5.13158Z" fill="currentColor"/>
<path d="M15.4174 7.25H8.58276L10.4611 2.62381C10.6142 2.24669 10.9806 2 11.3877 2H12.6125C13.0196 2 13.386 2.24669 13.5391 2.62381L15.4174 7.25Z" fill="currentColor"/>
</svg>
