<svg viewBox="0 0 24 24" fill="currentColor" xmlns="http://www.w3.org/2000/svg">
<path d="M8.75 22V20C8.75 19.5858 8.41421 19.25 8 19.25C7.58579 19.25 7.25 19.5858 7.25 20V22H4.75V18.5C4.75 18.0858 4.41421 17.75 4 17.75C3.58579 17.75 3.25 18.0858 3.25 18.5V22H2.94281C2.6908 22 2.46188 21.8887 2.29273 21.7073C2.11135 21.5381 2 21.3092 2 21.0572V2.94281C2 2.42211 2.47531 2 3.06164 2H8.93836C9.52469 2 10 2.42211 10 2.94281V14H21.0572C21.5779 14 22 14.4753 22 15.0616V20.9384C22 21.5247 21.5779 22 21.0572 22H20.75V18.5C20.75 18.0858 20.4142 17.75 20 17.75C19.5858 17.75 19.25 18.0858 19.25 18.5V22H16.75V20C16.75 19.5858 16.4142 19.25 16 19.25C15.5858 19.25 15.25 19.5858 15.25 20V22H12.75V18.5C12.75 18.0858 12.4142 17.75 12 17.75C11.5858 17.75 11.25 18.0858 11.25 18.5V22H8.75Z" fill="currentColor"/>
</svg>
