<svg viewBox="0 0 24 24" fill="currentColor" xmlns="http://www.w3.org/2000/svg">
<path d="M7 6C7.53686 6 8.02431 5.78848 8.38356 5.44422L11.9058 8.96648L11.3933 11.2729L9.58094 11.6612C8.6588 11.8588 8 12.6738 8 13.6168V16H7C5.34315 16 4 17.3431 4 19C4 20.6569 5.34315 22 7 22H21C22.6569 22 24 20.6569 24 19C24 17.6938 23.1652 16.5825 22 16.1707V11.474C22 10.6206 21.4726 9.91285 20.75 9.61916V5C20.75 4.0335 19.9665 3.25 19 3.25H14.5799C13.7597 3.25 13.0496 3.81968 12.8716 4.62037L12.2915 7.23085L8.99907 3.93841C8.96652 2.86234 8.08397 2 7 2C5.89543 2 5 2.89543 5 4C5 4.02719 5.00054 4.05425 5.00162 4.08118L2.6 7.28333C2.37281 7.58625 2.25 7.95469 2.25 8.33333V10.0945C0.95608 10.4275 0 11.6021 0 13C0 14.6569 1.34315 16 3 16C4.65685 16 6 14.6569 6 13C6 11.6021 5.04392 10.4275 3.75 10.0945V8.33333C3.75 8.27924 3.76754 8.22661 3.8 8.18333L5.76033 5.56956C6.10112 5.8391 6.53177 6 7 6ZM19.25 9.58929L13.0067 10.9271L14.3359 4.94577C14.3613 4.83138 14.4628 4.75 14.5799 4.75H19C19.1381 4.75 19.25 4.86193 19.25 5V9.58929ZM8.5 19C8.5 19.8284 7.82843 20.5 7 20.5C6.17157 20.5 5.5 19.8284 5.5 19C5.5 18.1716 6.17157 17.5 7 17.5C7.82843 17.5 8.5 18.1716 8.5 19ZM11.5 20.5C10.6716 20.5 10 19.8284 10 19C10 18.1716 10.6716 17.5 11.5 17.5C12.3284 17.5 13 18.1716 13 19C13 19.8284 12.3284 20.5 11.5 20.5ZM18 19C18 19.8284 17.3284 20.5 16.5 20.5C15.6716 20.5 15 19.8284 15 19C15 18.1716 15.6716 17.5 16.5 17.5C17.3284 17.5 18 18.1716 18 19ZM21 20.5C20.1716 20.5 19.5 19.8284 19.5 19C19.5 18.1716 20.1716 17.5 21 17.5C21.8284 17.5 22.5 18.1716 22.5 19C22.5 19.8284 21.8284 20.5 21 20.5Z" fill="currentColor"/>
</svg>
