<svg viewBox="0 0 24 24" fill="currentColor" xmlns="http://www.w3.org/2000/svg">
<path d="M7.39787 2.79643L3.08811 6H3C2.44772 6 2 6.44772 2 7V8C2 8.55228 2.44772 9 3 9H7V12.5566L10.8212 10.3505C10.8787 10.3173 10.9388 10.2925 11 10.2759V9H17V11.5C17 12.0552 17.3016 12.54 17.75 12.7993V16C17.75 16.4143 18.0858 16.75 18.5 16.75C18.9142 16.75 19.25 17.0858 19.25 17.5C19.25 17.9143 18.9142 18.25 18.5 18.25C18.0858 18.25 17.75 17.9143 17.75 17.5C17.75 17.0858 17.4142 16.75 17 16.75C16.5858 16.75 16.25 17.0858 16.25 17.5C16.25 18.7427 17.2574 19.75 18.5 19.75C19.7426 19.75 20.75 18.7427 20.75 17.5C20.75 16.5204 20.1239 15.6869 19.25 15.3781V12.7993C19.6984 12.54 20 12.0552 20 11.5V9H21C21.5523 9 22 8.55228 22 8V7C22 6.44772 21.5523 6 21 6H14.9119L10.6021 2.79643C9.62198 2.06786 8.37802 2.06786 7.39787 2.79643ZM9.75 4.03203L12.3975 6H9.75V4.03203ZM8.25 6H5.60249L8.25 4.03203V6Z" fill="currentColor"/>
<path d="M5 22C5 21.4477 5.44772 21 6 21H7V19.2887L11 16.9793V21H12C12.5523 21 13 21.4477 13 22C13 22.5523 12.5523 23 12 23H6C5.44772 23 5 22.5523 5 22Z" fill="currentColor"/>
<path d="M11 11.9793V15.2759C10.9388 15.2925 10.8787 15.3173 10.8212 15.3505L7 17.5566V14.2887L11 11.9793Z" fill="currentColor"/>
</svg>
