<svg viewBox="0 0 24 24" fill="currentColor" xmlns="http://www.w3.org/2000/svg">
<path d="M11.25 2H5C3.34315 2 2 3.34315 2 5V19C2 20.6569 3.34315 22 5 22H11.25V2ZM7 14.25H9C9.41421 14.25 9.75 14.5858 9.75 15C9.75 15.4142 9.41421 15.75 9 15.75H7C6.58579 15.75 6.25 15.4142 6.25 15C6.25 14.5858 6.58579 14.25 7 14.25ZM3.5 5.5C3.5 4.39543 4.39543 3.5 5.5 3.5H9C9.55229 3.5 10 3.94772 10 4.5V11C10 11.5523 9.55228 12 9 12H4.5C3.94772 12 3.5 11.5523 3.5 11V5.5Z" fill="currentColor"/>
<path d="M12.75 22H19C20.6569 22 22 20.6569 22 19V5C22 3.34315 20.6569 2 19 2H12.75V22ZM14.25 15C14.25 14.5858 14.5858 14.25 15 14.25H17C17.4142 14.25 17.75 14.5858 17.75 15C17.75 15.4142 17.4142 15.75 17 15.75H15C14.5858 15.75 14.25 15.4142 14.25 15ZM18.5 3.5C19.6046 3.5 20.5 4.39543 20.5 5.5V11C20.5 11.5523 20.0523 12 19.5 12H15C14.4477 12 14 11.5523 14 11V4.5C14 3.94772 14.4477 3.5 15 3.5H18.5Z" fill="currentColor"/>
</svg>
