<svg viewBox="0 0 24 24" fill="currentColor" xmlns="http://www.w3.org/2000/svg">
<path d="M7 2C5.89543 2 5 2.89543 5 4V5.25H2C1.58579 5.25 1.25 5.58579 1.25 6C1.25 6.41421 1.58579 6.75 2 6.75H5V8C5 9.10457 5.89543 10 7 10H8C8 11.9528 9.39935 13.5787 11.25 13.9298V15.0227L9.29617 14.4992C8.89607 14.392 8.48481 14.6294 8.37761 15.0295C8.2704 15.4296 8.50784 15.8409 8.90794 15.9481L11.25 16.5756V18.7991L9.29617 18.2756C8.89607 18.1684 8.48481 18.4058 8.37761 18.8059C8.2704 19.206 8.50784 19.6172 8.90794 19.7244L11.25 20.352V22C11.25 22.4142 11.5858 22.75 12 22.75C12.4142 22.75 12.75 22.4142 12.75 22V20.7539L14.7035 21.2774C15.1036 21.3846 15.5148 21.1471 15.6221 20.747C15.7293 20.3469 15.4918 19.9357 15.0917 19.8285L12.75 19.201V16.9776L14.7035 17.501C15.1036 17.6082 15.5148 17.3708 15.6221 16.9707C15.7293 16.5706 15.4918 16.1593 15.0917 16.0521L12.75 15.4246V13.9298C14.6006 13.5787 16 11.9528 16 10H17C18.1046 10 19 9.10457 19 8V6.75H22C22.4142 6.75 22.75 6.41421 22.75 6C22.75 5.58579 22.4142 5.25 22 5.25H19V4C19 2.89543 18.1046 2 17 2H7ZM9 5.25H15C15.4142 5.25 15.75 5.58579 15.75 6C15.75 6.41421 15.4142 6.75 15 6.75H9C8.58579 6.75 8.25 6.41421 8.25 6C8.25 5.58579 8.58579 5.25 9 5.25Z" fill="currentColor"/>
</svg>
