<svg viewBox="0 0 24 24" fill="currentColor" xmlns="http://www.w3.org/2000/svg">
<path d="M3 5C2.44772 5 2 5.44772 2 6V19C2 19.5523 2.44772 20 3 20H6C6.55228 20 7 19.5523 7 19V14.5H9.5V19C9.5 19.5523 9.94771 20 10.5 20H13.5C14.0523 20 14.5 19.5523 14.5 19V14.5H17V19C17 19.5523 17.4477 20 18 20H21C21.5523 20 22 19.5523 22 19V6C22 5.44772 21.5523 5 21 5H18C17.4477 5 17 5.44772 17 6V10.5H14.5V6C14.5 5.44772 14.0523 5 13.5 5H10.5C9.94771 5 9.5 5.44772 9.5 6V10.5H7V6C7 5.44772 6.55228 5 6 5H3Z" fill="currentColor"/>
</svg>
