<svg viewBox="0 0 24 24" fill="currentColor" xmlns="http://www.w3.org/2000/svg">
<path d="M8 18C8 19.1046 7.10457 20 6 20C4.89543 20 4 19.1046 4 18C4 16.8954 4.89543 16 6 16C7.10457 16 8 16.8954 8 18Z" fill="currentColor"/>
<path d="M13 18C13 19.1046 12.1046 20 11 20C9.89543 20 9 19.1046 9 18C9 16.8954 9.89543 16 11 16C12.1046 16 13 16.8954 13 18Z" fill="currentColor"/>
<path d="M20 18C20 19.1046 19.1046 20 18 20C16.8954 20 16 19.1046 16 18C16 16.8954 16.8954 16 18 16C19.1046 16 20 16.8954 20 18Z" fill="currentColor"/>
<path d="M6 4C3.79086 4 2 5.79086 2 8C2 10.2091 3.79086 12 6 12H3C2.44772 12 2 12.4477 2 13V16C2 16.434 2.27644 16.8034 2.66284 16.9417C3.11138 15.526 4.43587 14.5 6 14.5C6.97934 14.5 7.86474 14.9022 8.5 15.5505C9.13526 14.9022 10.0207 14.5 11 14.5C12.5855 14.5 13.9248 15.5543 14.3551 17H14.6449C15.0752 15.5543 16.4145 14.5 18 14.5C19.5641 14.5 20.8886 15.526 21.3372 16.9417C21.7236 16.8034 22 16.434 22 16V8.80278C22 8.60535 21.9416 8.41234 21.8321 8.24808L19.2969 4.4453C19.1114 4.1671 18.7992 4 18.4648 4H15C14.4477 4 14 4.44772 14 5V8C14 5.79086 12.2091 4 10 4H6ZM14 8V12H10C12.2091 12 14 10.2091 14 8ZM17.9338 5.5C18.2851 5.5 18.6106 5.6843 18.7913 5.9855L19.9442 7.907C19.9807 7.96786 20 8.03749 20 8.10845C20 8.3247 19.8247 8.5 19.6085 8.5H16C15.7239 8.5 15.5 8.27614 15.5 8V6C15.5 5.72386 15.7239 5.5 16 5.5H17.9338ZM16 9.75H17.5C17.9142 9.75 18.25 10.0858 18.25 10.5C18.25 10.9142 17.9142 11.25 17.5 11.25H16C15.5858 11.25 15.25 10.9142 15.25 10.5C15.25 10.0858 15.5858 9.75 16 9.75Z" fill="currentColor"/>
</svg>
