<svg viewBox="0 0 24 24" fill="currentColor" xmlns="http://www.w3.org/2000/svg">
<path d="M2 7C2 5.89543 2.89543 5 4 5H7.17157C7.70201 5 8.21071 4.78929 8.58579 4.41421L10.4142 2.58579C10.7893 2.21071 11.298 2 11.8284 2H17C17.5523 2 18 2.44772 18 3C18 3.55228 17.5523 4 17 4H14V6C14 5.44772 14.4477 5 15 5H18.4648C18.7992 5 19.1114 5.1671 19.2969 5.4453L21.8321 9.24808C21.9416 9.41234 22 9.60535 22 9.80278V16C22 16.434 21.7236 16.8034 21.3372 16.9417C20.8886 15.526 19.5641 14.5 18 14.5C16.4145 14.5 15.0752 15.5543 14.6449 17H14.3551C13.9248 15.5543 12.5855 14.5 11 14.5C10.0207 14.5 9.13526 14.9022 8.5 15.5505C7.86474 14.9022 6.97934 14.5 6 14.5C4.43587 14.5 3.11138 15.526 2.66284 16.9417C2.27644 16.8034 2 16.434 2 16V13C2 12.4477 2.44772 12 3 12H4C2.89543 12 2 11.1046 2 10V7ZM6 6.25C5.58579 6.25 5.25 6.58579 5.25 7V10C5.25 10.4142 5.58579 10.75 6 10.75C6.41421 10.75 6.75 10.4142 6.75 10V7C6.75 6.58579 6.41421 6.25 6 6.25ZM10.75 7C10.75 6.58579 10.4142 6.25 10 6.25C9.58579 6.25 9.25 6.58579 9.25 7V10C9.25 10.4142 9.58579 10.75 10 10.75C10.4142 10.75 10.75 10.4142 10.75 10V7ZM16 6.5C15.7239 6.5 15.5 6.72386 15.5 7V9C15.5 9.27614 15.7239 9.5 16 9.5H19.6085C19.8247 9.5 20 9.3247 20 9.10845C20 9.03749 19.9807 8.96786 19.9442 8.907L18.7913 6.9855C18.6106 6.6843 18.2851 6.5 17.9338 6.5H16ZM15.25 12C15.25 12.4142 15.5858 12.75 16 12.75H17.5C17.9142 12.75 18.25 12.4142 18.25 12C18.25 11.5858 17.9142 11.25 17.5 11.25H16C15.5858 11.25 15.25 11.5858 15.25 12Z" fill="currentColor"/>
<path d="M6 20C7.10457 20 8 19.1046 8 18C8 16.8954 7.10457 16 6 16C4.89543 16 4 16.8954 4 18C4 19.1046 4.89543 20 6 20Z" fill="currentColor"/>
<path d="M11 20C12.1046 20 13 19.1046 13 18C13 16.8954 12.1046 16 11 16C9.89543 16 9 16.8954 9 18C9 19.1046 9.89543 20 11 20Z" fill="currentColor"/>
<path d="M20 18C20 19.1046 19.1046 20 18 20C16.8954 20 16 19.1046 16 18C16 16.8954 16.8954 16 18 16C19.1046 16 20 16.8954 20 18Z" fill="currentColor"/>
</svg>
