<svg viewBox="0 0 24 24" fill="currentColor" xmlns="http://www.w3.org/2000/svg">
<path d="M11 3C10.4477 3 10 3.44772 10 4V4.25203C6.54955 5.14012 4 8.27232 4 12H3C2.44772 12 2 12.4477 2 13V14C2 14.5523 2.44772 15 3 15H3.25C3.25 16.9538 4.07059 19.1433 5.47197 20.5326C5.76613 20.8242 6.241 20.8222 6.53262 20.528C6.82424 20.2339 6.82219 19.759 6.52803 19.4674C5.43995 18.3887 4.75 16.5968 4.75 15.0001L19.25 15C19.25 16.5968 18.56 18.3887 17.472 19.4674C17.1778 19.759 17.1758 20.2339 17.4674 20.528C17.759 20.8222 18.2339 20.8242 18.528 20.5326C19.9294 19.1433 20.75 16.9538 20.75 15.0001L21 15C21.5523 15 22 14.5523 22 14V13C22 12.4477 21.5523 12 21 12H20C20 8.27232 17.4505 5.14012 14 4.25204V4C14 3.44772 13.5523 3 13 3H11ZM15.7505 12H14.2505L14.25 11.0003C14.2498 10.5861 14.5854 10.2502 14.9997 10.25C15.4139 10.2498 15.7498 10.5854 15.75 10.9997L15.7505 12ZM12.75 12H11.25V10C11.25 9.58579 11.5858 9.25 12 9.25C12.4142 9.25 12.75 9.58579 12.75 10V12ZM9.75 12H8.25V11C8.25 10.5858 8.58579 10.25 9 10.25C9.41421 10.25 9.75 10.5858 9.75 11V12Z" fill="currentColor"/>
</svg>
