<svg viewBox="0 0 24 24" fill="currentColor" xmlns="http://www.w3.org/2000/svg">
<path d="M5 4.35355L5.21967 4.57322C5.51256 4.86612 5.98744 4.86612 6.28033 4.57322C6.57322 4.28033 6.57322 3.80546 6.28033 3.51256L5.13388 2.36612C4.64573 1.87796 3.85427 1.87796 3.36612 2.36612L2.21967 3.51256C1.92678 3.80546 1.92678 4.28033 2.21967 4.57322C2.51256 4.86612 2.98744 4.86612 3.28033 4.57322L3.5 4.35355V15.7322L3.28033 15.5126C2.98744 15.2197 2.51256 15.2197 2.21967 15.5126C1.92678 15.8055 1.92678 16.2803 2.21967 16.5732L3.36612 17.7197C3.85427 18.2078 4.64573 18.2078 5.13388 17.7197L6.28033 16.5732C6.57322 16.2803 6.57322 15.8055 6.28033 15.5126C5.98744 15.2197 5.51256 15.2197 5.21967 15.5126L5 15.7322V4.35355Z" fill="currentColor"/>
<path d="M8.35355 19L8.57322 18.7803C8.86612 18.4874 8.86612 18.0126 8.57322 17.7197C8.28033 17.4268 7.80546 17.4268 7.51256 17.7197L6.36612 18.8661C5.87796 19.3543 5.87796 20.1457 6.36612 20.6339L7.51256 21.7803C7.80546 22.0732 8.28033 22.0732 8.57322 21.7803C8.86612 21.4874 8.86612 21.0126 8.57322 20.7197L8.35355 20.5H19.7322L19.5126 20.7197C19.2197 21.0126 19.2197 21.4874 19.5126 21.7803C19.8055 22.0732 20.2803 22.0732 20.5732 21.7803L21.7197 20.6339C22.2078 20.1457 22.2078 19.3543 21.7197 18.8661L20.5732 17.7197C20.2803 17.4268 19.8055 17.4268 19.5126 17.7197C19.2197 18.0126 19.2197 18.4874 19.5126 18.7803L19.7322 19H8.35355Z" fill="currentColor"/>
<path d="M10.75 2H9C8.44772 2 8 2.44772 8 3V15C8 15.5523 8.44772 16 9 16H10.75V13.5C10.75 13.0858 11.0858 12.75 11.5 12.75C11.9142 12.75 12.25 13.0858 12.25 13.5V16H21C21.5523 16 22 15.5523 22 15V7.75H19.5C19.0858 7.75 18.75 7.41421 18.75 7C18.75 6.58579 19.0858 6.25 19.5 6.25H22V3C22 2.44772 21.5523 2 21 2H12.25V6.25H15.5C15.9142 6.25 16.25 6.58579 16.25 7C16.25 7.41421 15.9142 7.75 15.5 7.75H12.25V10C12.25 10.4142 11.9142 10.75 11.5 10.75C11.0858 10.75 10.75 10.4142 10.75 10V2Z" fill="currentColor"/>
</svg>
