<svg viewBox="0 0 24 24" fill="currentColor" xmlns="http://www.w3.org/2000/svg">
<path d="M5 2H13.25V8C13.25 8.9665 14.0335 9.75 15 9.75H20.9992C20.9997 9.76904 21 9.78811 21 9.80721V20C21 21.1046 20.1046 22 19 22H5C3.89543 22 3 21.1046 3 20V4C3 2.89543 3.89543 2 5 2ZM14.88 11.8767L11.7884 9.10694C11.6292 8.96435 11.3712 8.96435 11.212 9.10694L8.12037 11.8767C7.86362 12.1067 8.04546 12.5 8.40856 12.5H9.05018V15.3C9.05018 15.6866 9.36358 16 9.75018 16H13.2502C13.6368 16 13.9502 15.6866 13.9502 15.3V12.5H14.5918C14.9549 12.5 15.1367 12.1067 14.88 11.8767ZM7.25023 16.25H7.00023V10.75H7.25023C7.66444 10.75 8.00023 10.4142 8.00023 10C8.00023 9.58579 7.66444 9.25 7.25023 9.25H5.25023C4.83601 9.25 4.50023 9.58579 4.50023 10C4.50023 10.4142 4.83601 10.75 5.25023 10.75H5.50023V16.25H5.25023C4.83601 16.25 4.50023 16.5857 4.50023 17C4.50023 17.4142 4.83601 17.75 5.25023 17.75H7.25023C7.36581 17.75 7.47528 17.7238 7.57306 17.6771C7.52635 17.7749 7.50019 17.8844 7.50018 18L7.50016 18.4911L7.5001 18.5L7.50016 18.5089L7.5001 19.5C7.50008 19.9142 7.83585 20.25 8.25007 20.25C8.66428 20.25 9.00008 19.9143 9.0001 19.5L9.00012 19.25H14.5001V19.5C14.5001 19.9142 14.8358 20.25 15.2501 20.25C15.6643 20.25 16.0001 19.9142 16.0001 19.5V17.5C16.0001 17.0858 15.6643 16.75 15.2501 16.75C14.8358 16.75 14.5001 17.0858 14.5001 17.5V17.75H8.95751C8.85455 17.4587 8.57676 17.25 8.25022 17.25C8.13463 17.25 8.02514 17.2761 7.92736 17.3228C7.97407 17.2251 8.00023 17.1156 8.00023 17C8.00023 16.5857 7.66444 16.25 7.25023 16.25Z" fill="currentColor"/>
<path d="M14.8399 2.61172L20.2768 8.24999H15C14.8619 8.24999 14.75 8.13806 14.75 7.99999V2.52417C14.7808 2.55232 14.8108 2.58151 14.8399 2.61172Z" fill="currentColor"/>
</svg>
