<svg viewBox="0 0 24 24" fill="currentColor" xmlns="http://www.w3.org/2000/svg">
<path d="M6 2C6.41421 2 6.75 2.33579 6.75 2.75V3.75H17.25V2.75C17.25 2.33579 17.5858 2 18 2C18.4142 2 18.75 2.33579 18.75 2.75V21.25C18.75 21.6642 18.4142 22 18 22C17.5858 22 17.25 21.6642 17.25 21.25V20.25H6.75V21.25C6.75 21.6642 6.41421 22 6 22C5.58579 22 5.25 21.6642 5.25 21.25V2.75C5.25 2.33579 5.58579 2 6 2ZM17.25 18.75V15.25H6.75V18.75H17.25ZM17.25 13.75V10.25H6.75V13.75H17.25ZM17.25 8.75V5.25H6.75V8.75H17.25Z" fill="currentColor"/>
</svg>
