<svg viewBox="0 0 24 24" fill="currentColor" xmlns="http://www.w3.org/2000/svg">
<path d="M10.75 10.5C10.75 8.98122 11.9812 7.75 13.5 7.75C15.0188 7.75 16.25 8.98122 16.25 10.5C16.25 12.0188 15.0188 13.25 13.5 13.25C11.9812 13.25 10.75 12.0188 10.75 10.5Z" fill="currentColor"/>
<path d="M13.5 2C8.80558 2 5 5.80558 5 10.5V11H4C3.44772 11 3 11.4477 3 12V14C3 14.5523 3.44772 15 4 15H5V17H3C1.89543 17 1 17.8954 1 19V21C1 21.5523 1.44772 22 2 22C2.55228 22 3 21.5523 3 21V19H13.5C18.1944 19 22 15.1944 22 10.5C22 5.80558 18.1944 2 13.5 2ZM13.5 6.25C15.8472 6.25 17.75 8.15279 17.75 10.5C17.75 12.8472 15.8472 14.75 13.5 14.75C11.1528 14.75 9.25 12.8472 9.25 10.5C9.25 8.15279 11.1528 6.25 13.5 6.25Z" fill="currentColor"/>
</svg>
