<svg viewBox="0 0 24 24" fill="currentColor" xmlns="http://www.w3.org/2000/svg">
<path d="M6 2C4.89543 2 4 2.89543 4 4V4.25H3.75V4C3.75 3.58579 3.41421 3.25 3 3.25C2.58579 3.25 2.25 3.58579 2.25 4V6C2.25 6.41421 2.58579 6.75 3 6.75C3.41421 6.75 3.75 6.41421 3.75 6V5.75H4V6C4 7.10457 4.89543 8 6 8H16C17.1046 8 18 7.10457 18 6V5.75H20C20.1381 5.75 20.25 5.86193 20.25 6V11C20.25 11.1381 20.1381 11.25 20 11.25H12C11.0335 11.25 10.25 12.0335 10.25 13V15H10C9.44772 15 9 15.4477 9 16V21C9 21.5523 9.44772 22 10 22H12C12.5523 22 13 21.5523 13 21V16C13 15.4477 12.5523 15 12 15H11.75V13C11.75 12.8619 11.8619 12.75 12 12.75H20C20.9665 12.75 21.75 11.9665 21.75 11V6C21.75 5.0335 20.9665 4.25 20 4.25H18V4C18 2.89543 17.1046 2 16 2H6Z" fill="currentColor"/>
</svg>
