<svg viewBox="0 0 24 24" fill="currentColor" xmlns="http://www.w3.org/2000/svg">
<path d="M4 4C4 2.89543 4.89543 2 6 2H16C17.1046 2 18 2.89543 18 4V4.2791C20.1116 4.52657 21.75 6.32195 21.75 8.5C21.75 10.8472 19.8472 12.75 17.5 12.75H12C11.8619 12.75 11.75 12.8619 11.75 13V15H12C12.5523 15 13 15.4477 13 16V21C13 21.5523 12.5523 22 12 22H10C9.44772 22 9 21.5523 9 21V16C9 15.4477 9.44772 15 10 15H10.25V13C10.25 12.0335 11.0335 11.25 12 11.25H17.5C19.0188 11.25 20.25 10.0188 20.25 8.5C20.25 7.15197 19.2801 6.03047 18 5.79534V6C18 7.10457 17.1046 8 16 8H6C4.89543 8 4 7.10457 4 6V5.75H3C2.58579 5.75 2.25 5.41421 2.25 5C2.25 4.58579 2.58579 4.25 3 4.25H4V4Z" fill="currentColor"/>
</svg>
