<svg viewBox="0 0 24 24" fill="currentColor" xmlns="http://www.w3.org/2000/svg">
<path d="M5 2C4.44772 2 4 2.44772 4 3V5C4 5.55228 4.44772 6 5 6H9C7.34315 6 6 7.34315 6 9V14.25H5C4.58579 14.25 4.25 14.5858 4.25 15C4.25 15.4142 4.58579 15.75 5 15.75H6V17.25C6 17.6642 6.33579 18 6.75 18C7.44036 18 8 18.5596 8 19.25C8 19.9404 7.44036 20.5 6.75 20.5C6.05964 20.5 5.5 19.9404 5.5 19.25C5.5 18.8358 5.16421 18.5 4.75 18.5C4.33579 18.5 4 18.8358 4 19.25C4 20.7688 5.23122 22 6.75 22C8.26878 22 9.5 20.7688 9.5 19.25C9.5 17.9912 8.65425 16.93 7.5 16.6035V15.75H8.5C8.91421 15.75 9.25 15.4142 9.25 15C9.25 14.5858 8.91421 14.25 8.5 14.25H7.5V11.5987C7.94126 11.8539 8.45357 12 9 12C9.64251 12 10.2378 11.798 10.726 11.4541L12.0893 18.2706C12.031 18.5041 12 18.7485 12 19C12 20.6569 13.3431 22 15 22C16.6569 22 18 20.6569 18 19V6H19C19.5523 6 20 5.55228 20 5V3C20 2.44772 19.5523 2 19 2H5ZM9 6H16.5V16.4013C16.0587 16.1461 15.5464 16 15 16C14.3575 16 13.7622 16.202 13.274 16.5459L11.9107 9.72935C11.969 9.49587 12 9.25155 12 9C12 7.34315 10.6569 6 9 6ZM10 9C10 9.55229 9.55229 10 9 10C8.44771 10 8 9.55229 8 9C8 8.44771 8.44771 8 9 8C9.55229 8 10 8.44771 10 9ZM15 20C14.4477 20 14 19.5523 14 19C14 18.4477 14.4477 18 15 18C15.5523 18 16 18.4477 16 19C16 19.5523 15.5523 20 15 20Z" fill="currentColor"/>
</svg>
