<svg viewBox="0 0 24 24" fill="currentColor" xmlns="http://www.w3.org/2000/svg">
<path d="M10.2567 10.5694C11.7732 11.0968 13.5203 10.7461 14.7302 9.51719C15.7838 8.44709 16.1817 6.96324 15.9241 5.58058C15.8613 5.24364 15.4522 5.15114 15.2118 5.39537L13.6747 6.9565C13.5332 7.10031 13.3385 7.179 13.1369 7.17388L11.6057 7.135C11.2096 7.12494 10.8939 6.79989 10.8947 6.40285L10.8976 4.8862C10.8979 4.69453 10.9734 4.51067 11.1077 4.37423L12.6715 2.78593C12.9083 2.54541 12.8167 2.14376 12.4854 2.0792C11.121 1.81333 9.65523 2.21685 8.5989 3.28975C7.46857 4.43781 7.09286 6.06208 7.47176 7.52672L2.42037 12.6573C1.85988 13.2266 1.85988 14.1415 2.42037 14.7108L3.26112 15.5648C3.83248 16.1451 4.76713 16.1451 5.33848 15.5648L10.2567 10.5694Z" fill="currentColor"/>
<path d="M16.6967 11H17.3033C17.7708 11 18.1858 11.303 18.3336 11.7521L18.5641 12.4525C18.606 12.5798 18.6933 12.6876 18.8098 12.7557L19.2919 13.0376C19.4112 13.1074 19.5526 13.1305 19.6883 13.1024L20.3928 12.9564C20.8508 12.8614 21.3174 13.074 21.5512 13.484L21.8544 14.0161C22.0882 14.4261 22.0366 14.9416 21.7265 15.2959L21.2423 15.8489C21.1547 15.9489 21.1065 16.0768 21.1065 16.2092V16.7909C21.1065 16.9232 21.1547 17.0511 21.2423 17.1511L21.7265 17.7042C22.0367 18.0584 22.0882 18.5739 21.8545 18.984L21.5512 19.516C21.3175 19.9261 20.8509 20.1386 20.3929 20.0437L19.6883 19.8976C19.5527 19.8695 19.4113 19.8926 19.2919 19.9624L18.8098 20.2443C18.6934 20.3124 18.606 20.4202 18.5641 20.5475L18.3336 21.2479C18.1858 21.697 17.7708 22 17.3033 22H16.6967C16.2293 22 15.8142 21.697 15.6664 21.2479L15.4359 20.5475C15.394 20.4202 15.3067 20.3124 15.1902 20.2443L14.7081 19.9624C14.5887 19.8927 14.4474 19.8696 14.3117 19.8977L13.6071 20.0437C13.1491 20.1386 12.6825 19.9261 12.4488 19.5161L12.1455 18.984C11.9118 18.574 11.9633 18.0585 12.2735 17.7042L12.7577 17.1511C12.8453 17.0511 12.8935 16.9232 12.8935 16.7909V16.2091C12.8935 16.0768 12.8453 15.9489 12.7577 15.8489L12.2735 15.2958C11.9633 14.9416 11.9118 14.4261 12.1455 14.016L12.4488 13.484C12.6825 13.0739 13.1491 12.8614 13.6071 12.9563L14.3117 13.1024C14.4474 13.1305 14.5887 13.1074 14.7081 13.0376L15.1902 12.7557C15.3067 12.6876 15.394 12.5798 15.4359 12.4525L15.6664 11.7521C15.8142 11.303 16.2293 11 16.6967 11ZM17 18.15C17.9205 18.15 18.6667 17.4113 18.6667 16.5C18.6667 15.5887 17.9205 14.85 17 14.85C16.0795 14.85 15.3333 15.5887 15.3333 16.5C15.3333 17.4113 16.0795 18.15 17 18.15Z" fill="currentColor"/>
</svg>
