<svg viewBox="0 0 24 24" fill="currentColor" xmlns="http://www.w3.org/2000/svg">
<path d="M6.31496 21.6996L2.3004 17.685C1.89987 17.2845 1.89987 16.6351 2.3004 16.2346L2.92215 15.6128C2.9303 15.6218 2.93871 15.6306 2.94737 15.6392L5.4857 18.1776C5.78611 18.478 6.27316 18.478 6.57356 18.1776C6.87397 17.8772 6.87397 17.3901 6.57356 17.0897L4.03523 14.5514C4.02657 14.5427 4.01776 14.5343 4.0088 14.5262L5.82258 12.7124L6.93619 13.826C7.2366 14.1264 7.72365 14.1264 8.02405 13.826C8.32445 13.5256 8.32445 13.0385 8.02405 12.7381L6.91044 11.6245L8.724 9.81097C8.73218 9.81995 8.74061 9.82878 8.74928 9.83746L11.2876 12.3758C11.588 12.6762 12.0751 12.6762 12.3755 12.3758C12.6759 12.0754 12.6759 11.5883 12.3755 11.2879L9.83714 8.7496C9.82847 8.74092 9.81963 8.73249 9.81065 8.72432L11.6244 6.91053L12.7381 8.02421C13.0385 8.32461 13.5256 8.32461 13.826 8.02421C14.1264 7.7238 14.1264 7.23675 13.826 6.93635L12.7123 5.82268L14.5255 4.00948L16.7269 6.21092C17.0273 6.51132 17.5144 6.51132 17.8148 6.21092C18.1152 5.91051 18.1152 5.42346 17.8148 5.12306L15.6133 2.92162L16.2346 2.3004C16.6351 1.89987 17.2845 1.89987 17.685 2.3004L21.6996 6.31496C22.1001 6.71549 22.1001 7.36489 21.6996 7.76543L7.76543 21.6996C7.3649 22.1001 6.71549 22.1001 6.31496 21.6996Z" fill="currentColor"/>
</svg>
