<svg viewBox="0 0 24 24" fill="currentColor" xmlns="http://www.w3.org/2000/svg">
<path d="M20.8812 4.18896C21.6356 5.35941 21.6356 6.8749 20.8814 8.04541L21.7784 8.94241C22.0739 9.23792 22.0739 9.71705 21.7784 10.0126C21.4828 10.3081 21.0037 10.3081 20.7082 10.0126L19.8682 9.17252L18.4179 10.6228L19.2579 11.4629C19.5535 11.7584 19.5535 12.2375 19.2579 12.533C18.9624 12.8286 18.4833 12.8286 18.1878 12.533L17.3477 11.693L15.3625 13.6782L15.6158 13.9316C16.4039 14.7197 16.4039 15.9973 15.6158 16.7854L11.7488 20.6524C10.9607 21.4405 9.68305 21.4405 8.89501 20.6524L8.33658 20.094L7.24323 21.1873C6.15967 22.2709 4.40288 22.2709 3.31932 21.1873L2.81267 20.6807C1.72911 19.5971 1.72911 17.8403 2.81267 16.7568L3.90602 15.6634L3.34775 15.1052C2.5597 14.3171 2.5597 13.0395 3.34775 12.2514L7.2148 8.38438C8.00285 7.59634 9.28051 7.59634 10.0686 8.38438L10.3219 8.63761L12.3072 6.6523L11.4671 5.81222C11.1716 5.5167 11.1716 5.03758 11.4671 4.74206C11.7626 4.44655 12.2417 4.44655 12.5372 4.74206L13.3773 5.58215L14.8274 4.13205L13.9874 3.29204C13.6919 2.99653 13.6919 2.51741 13.9874 2.22189C14.2829 1.92638 14.7621 1.92638 15.0576 2.22189L15.9545 3.11883C17.125 2.3645 18.6405 2.3645 19.811 3.11882L20.7082 2.22164C21.0037 1.92612 21.4828 1.92612 21.7784 2.22164C22.0739 2.51715 22.0739 2.99628 21.7784 3.29179L20.8812 4.18896ZM3.88283 17.8269C3.3903 18.3195 3.3903 19.118 3.88282 19.6105L4.38948 20.1172C4.882 20.6097 5.68055 20.6097 6.17307 20.1172L7.26642 19.0238L4.97618 16.7336L3.88283 17.8269ZM6.42656 13.1432C6.13104 13.4387 6.13104 13.9179 6.42656 14.2134C6.72207 14.5089 7.2012 14.5089 7.49671 14.2134L10.017 11.6931C10.3125 11.3976 10.3125 10.9184 10.017 10.6229C9.7215 10.3274 9.24238 10.3274 8.94686 10.6229L6.42656 13.1432ZM9.78682 17.5738C10.0823 17.8693 10.5615 17.8693 10.857 17.5738L13.3773 15.0535C13.6728 14.7579 13.6728 14.2788 13.3773 13.9833C13.0818 13.6878 12.6026 13.6878 12.3071 13.9833L9.78682 16.5036C9.49131 16.7991 9.49131 17.2782 9.78682 17.5738Z" fill="currentColor"/>
</svg>
