<svg viewBox="0 0 24 24" fill="currentColor" xmlns="http://www.w3.org/2000/svg">
<path d="M13.1516 6.57189C12.7735 6.94997 12.5611 7.46275 12.5611 7.99744V8.58792L11.8484 9.30069H10.9096C10.73 9.30069 10.64 9.51785 10.767 9.64485L12.0266 10.9044L5.61164 17.3194C5.57348 17.3576 5.54026 17.3988 5.51196 17.4423L5.4903 17.4377L4.70422 17.2805C4.2865 17.197 3.86136 17.385 3.64219 17.7503L2.07183 20.3676C1.95285 20.566 1.9841 20.8198 2.14763 20.9833L3.01665 21.8524C3.18018 22.0159 3.43402 22.0472 3.63233 21.9282L6.24959 20.3578C6.61487 20.1386 6.80294 19.7135 6.7194 19.2957L6.56218 18.5096L6.5577 18.4884C6.60127 18.4601 6.64257 18.4268 6.68079 18.3886L13.0957 11.9736L14.3553 13.2332C14.4823 13.3602 14.6994 13.2702 14.6994 13.0906V12.1518L15.4122 11.439H16.0027C16.5373 11.439 17.0501 11.2266 17.4282 10.8485L21.1143 7.16237C22.2952 5.98141 22.2952 4.06669 21.1143 2.88572C19.9333 1.70476 18.0187 1.70476 16.8377 2.88572L13.1516 6.57189ZM15.2339 7.6405L18.7977 4.07662C19.0929 3.78138 19.5716 3.78138 19.8668 4.07662C20.1621 4.37187 20.1621 4.85055 19.8668 5.14579L16.303 8.70966C16.0078 9.0049 15.5291 9.0049 15.2339 8.70966C14.9387 8.41442 14.9387 7.93574 15.2339 7.6405Z" fill="currentColor"/>
</svg>
