<svg viewBox="0 0 24 24" fill="currentColor" xmlns="http://www.w3.org/2000/svg">
<path d="M16 17.25C15.5858 17.25 15.25 17.5858 15.25 18C15.25 18.4142 15.5858 18.75 16 18.75H17C17.4142 18.75 17.75 18.4142 17.75 18C17.75 17.5858 17.4142 17.25 17 17.25H16Z" fill="currentColor"/>
<path d="M13.9234 1.96516C14.4296 1.50498 15.0891 1.25 15.7732 1.25H21C21.4142 1.25 21.75 1.58579 21.75 2C21.75 2.41421 21.4142 2.75 21 2.75H18.75V7H20C20.5523 7 21 7.44772 21 8V21C21 21.0863 20.9891 21.1701 20.9685 21.25H22C22.4142 21.25 22.75 21.5858 22.75 22C22.75 22.4142 22.4142 22.75 22 22.75H2C1.58579 22.75 1.25 22.4142 1.25 22C1.25 21.5858 1.58579 21.25 2 21.25H3.0315C3.01094 21.1701 3 21.0863 3 21V18C3 17.4477 3.44772 17 4 17H5.25V11.8772L5.07664 12.0348C4.57044 12.495 3.91089 12.75 3.22679 12.75H2C1.58579 12.75 1.25 12.4142 1.25 12C1.25 11.5858 1.58579 11.25 2 11.25H3.22679C3.53774 11.25 3.83754 11.1341 4.06763 10.9249L13.9234 1.96516ZM19 13.443C19 12.7448 18.3026 12.2615 17.6489 12.5067L11.6489 14.7567C11.2586 14.903 11 15.2762 11 15.693V21.25H19V13.443ZM6.75 17H9V13C9 12.4477 9.44772 12 10 12H11.25V6.42269L6.75 10.5136V17ZM12.75 12H15V8C15 7.44772 15.4477 7 16 7H17.25V2.75H15.7732C15.4623 2.75 15.1625 2.8659 14.9324 3.07507L12.75 5.05905V12Z" fill="currentColor"/>
</svg>
