<svg viewBox="0 0 24 24" fill="currentColor" xmlns="http://www.w3.org/2000/svg">
<path d="M8.19866 7.12938C8.09515 7.82863 8.08573 8.53891 8.17003 9.23906L5.61164 6.68065C5.57345 6.64246 5.5402 6.6012 5.51189 6.55766L5.4903 6.56223L4.70422 6.71944C4.2865 6.80299 3.86136 6.61492 3.64219 6.24963L2.07183 3.63235C1.95285 3.43403 1.9841 3.18019 2.14763 3.01666L3.01665 2.14763C3.18018 1.9841 3.43402 1.95285 3.63233 2.07184L6.24959 3.6422C6.61487 3.86138 6.80294 4.28652 6.7194 4.70425L6.56219 5.49033L6.55768 5.51166C6.60126 5.53999 6.64256 5.57327 6.68079 5.61149L8.19866 7.12938Z" fill="currentColor"/>
<path d="M17 15.9873C17.8429 15.854 18.6682 15.5785 19.4378 15.1611L21.1144 16.8377C22.2953 18.0186 22.2953 19.9333 21.1144 21.1143C19.9334 22.2952 18.0188 22.2952 16.8378 21.1143L13.1517 17.4281C13.0858 17.3623 13.025 17.2923 12.9694 17.2188L14.2479 15.9203C14.5115 15.9753 14.7775 16.0162 15.0445 16.043C15.0793 16.1589 15.1424 16.2681 15.234 16.3596L18.7978 19.9235C19.093 20.2187 19.5717 20.2187 19.8669 19.9235C20.1622 19.6282 20.1622 19.1496 19.8669 18.8543L17 15.9873Z" fill="currentColor"/>
<path d="M20.186 12.7388C18.4576 14.4944 15.9618 14.9954 13.7953 14.242L6.76926 21.3782C5.95304 22.2073 4.61782 22.2073 3.80161 21.3782L2.60053 20.1583C1.79982 19.345 1.79982 18.0381 2.60053 17.2248L9.8168 9.89532C9.27551 7.80298 9.81224 5.48258 11.427 3.84249C12.936 2.30978 15.03 1.73333 16.9791 2.11314C17.4524 2.20537 17.5833 2.77915 17.245 3.12276L15.0111 5.39175C14.8191 5.58668 14.7113 5.84933 14.7108 6.12315L14.7067 8.28979C14.7056 8.85699 15.1566 9.32134 15.7225 9.33571L17.9099 9.39126C18.1978 9.39857 18.4759 9.28616 18.6782 9.08071L20.8739 6.85053C21.2175 6.50164 21.8018 6.63378 21.8915 7.11511C22.2596 9.09035 21.6911 11.2101 20.186 12.7388Z" fill="currentColor"/>
</svg>
