<svg viewBox="0 0 24 24" fill="currentColor" xmlns="http://www.w3.org/2000/svg">
<path d="M14 5C14 4.44772 14.4477 4 15 4H18.4648C18.7992 4 19.1114 4.1671 19.2969 4.4453L21.8321 8.24808C21.9416 8.41234 22 8.60535 22 8.80278V16C22 16.434 21.7236 16.8034 21.3372 16.9417C20.8886 15.526 19.5641 14.5 18 14.5C16.4145 14.5 15.0752 15.5543 14.6449 17H14.3551C13.9248 15.5543 12.5855 14.5 11 14.5C10.0207 14.5 9.13526 14.9022 8.5 15.5505C7.86474 14.9022 6.97934 14.5 6 14.5C4.43587 14.5 3.11138 15.526 2.66284 16.9417C2.27644 16.8034 2 16.434 2 16V13C2 12.4477 2.44772 12 3 12C3 11.6084 3.97612 9.59291 4.73388 8.10358C4.98731 7.60548 5.60217 7.41937 6.0928 7.68698L6.84461 8.09706C7.18378 8.28206 7.59918 8.25514 7.91164 8.0279L9.7824 6.66734C10.2694 6.31318 10.9566 6.46656 11.2468 6.99416L14 12V5ZM16 5.5C15.7239 5.5 15.5 5.72386 15.5 6V8C15.5 8.27614 15.7239 8.5 16 8.5H19.6085C19.8247 8.5 20 8.3247 20 8.10845C20 8.03749 19.9807 7.96786 19.9442 7.907L18.7913 5.9855C18.6106 5.6843 18.2851 5.5 17.9338 5.5H16ZM16 9.75C15.5858 9.75 15.25 10.0858 15.25 10.5C15.25 10.9142 15.5858 11.25 16 11.25H17.5C17.9142 11.25 18.25 10.9142 18.25 10.5C18.25 10.0858 17.9142 9.75 17.5 9.75H16Z" fill="currentColor"/>
<path d="M6 20C7.10457 20 8 19.1046 8 18C8 16.8954 7.10457 16 6 16C4.89543 16 4 16.8954 4 18C4 19.1046 4.89543 20 6 20Z" fill="currentColor"/>
<path d="M11 20C12.1046 20 13 19.1046 13 18C13 16.8954 12.1046 16 11 16C9.89543 16 9 16.8954 9 18C9 19.1046 9.89543 20 11 20Z" fill="currentColor"/>
<path d="M20 18C20 19.1046 19.1046 20 18 20C16.8954 20 16 19.1046 16 18C16 16.8954 16.8954 16 18 16C19.1046 16 20 16.8954 20 18Z" fill="currentColor"/>
</svg>
