<svg viewBox="0 0 24 24" fill="currentColor" xmlns="http://www.w3.org/2000/svg">
<path d="M8.17279 18C8.17279 19.1046 7.28841 20 6.19748 20C5.10655 20 4.22217 19.1046 4.22217 18C4.22217 16.8954 5.10655 16 6.19748 16C7.28841 16 8.17279 16.8954 8.17279 18Z" fill="currentColor"/>
<path d="M13.1111 18C13.1111 19.1046 12.2267 20 11.1358 20C10.0449 20 9.16052 19.1046 9.16052 18C9.16052 16.8954 10.0449 16 11.1358 16C12.2267 16 13.1111 16.8954 13.1111 18Z" fill="currentColor"/>
<path d="M20.0247 18C20.0247 19.1046 19.1403 20 18.0494 20C16.9584 20 16.0741 19.1046 16.0741 18C16.0741 16.8954 16.9584 16 18.0494 16C19.1403 16 20.0247 16.8954 20.0247 18Z" fill="currentColor"/>
<path d="M7.95193 4.91995C8.09309 4.64455 8.17284 4.3317 8.17284 4C8.17284 2.89543 7.28846 2 6.19753 2C5.1066 2 4.22222 2.89543 4.22222 4C4.22222 4.41794 4.34883 4.80593 4.56534 5.12681L3.93764 6.08013C3.6402 6.53186 3.48148 7.06263 3.48148 7.60555C3.48148 8.27082 4.00011 8.66264 4.41533 8.77555C4.7313 8.86146 4.96296 9.1543 4.96296 9.5C4.96296 9.91421 4.63132 10.25 4.22222 10.25C3.81312 10.25 3.48148 9.91421 3.48148 9.5C3.48148 9.08579 3.14984 8.75 2.74074 8.75C2.33164 8.75 2 9.08579 2 9.5C2 10.7426 2.99492 11.75 4.22222 11.75C5.44952 11.75 6.44444 10.7426 6.44444 9.5C6.44444 8.52688 5.83488 7.69958 4.98228 7.38527C5.01205 7.21694 5.07576 7.05577 5.17031 6.91218L5.79788 5.95904C5.92695 5.9859 6.06062 6 6.19753 6C6.41769 6 6.62944 5.96353 6.8272 5.89624L9.77476 9.37805L7.18519 12H3.23457C2.6891 12 2.24691 12.4477 2.24691 13V16C2.24691 16.434 2.51994 16.8034 2.90157 16.9417C3.34457 15.526 4.65271 14.5 6.19753 14.5C7.16478 14.5 8.03925 14.9022 8.66667 15.5505C9.29408 14.9022 10.1685 14.5 11.1358 14.5C12.7017 14.5 14.0245 15.5543 14.4494 17H14.7357C15.1607 15.5543 16.4834 14.5 18.0494 14.5C19.5942 14.5 20.9023 15.526 21.3453 16.9417C21.727 16.8034 22 16.434 22 16V8.80278C22 8.60535 21.9423 8.41234 21.8341 8.24808L19.3302 4.4453C19.1471 4.1671 18.8387 4 18.5085 4H15.0864C14.541 4 14.0988 4.44772 14.0988 5V9H11.4059L7.95193 4.91995ZM16.0741 5.5H17.984C18.3309 5.5 18.6524 5.6843 18.8309 5.9855L19.9696 7.907C20.0056 7.96786 20.0247 8.03749 20.0247 8.10845C20.0247 8.3247 19.8516 8.5 19.638 8.5H16.0741C15.8013 8.5 15.5802 8.27614 15.5802 8V6C15.5802 5.72386 15.8013 5.5 16.0741 5.5ZM15.3333 10.5C15.3333 10.0858 15.665 9.75 16.0741 9.75H17.5556C17.9647 9.75 18.2963 10.0858 18.2963 10.5C18.2963 10.9142 17.9647 11.25 17.5556 11.25H16.0741C15.665 11.25 15.3333 10.9142 15.3333 10.5Z" fill="currentColor"/>
</svg>
