<svg viewBox="0 0 24 24" fill="currentColor" xmlns="http://www.w3.org/2000/svg">
<path d="M1 3.76C1 3.34026 1.34792 3 1.77711 3H3.29345C4.58437 3 5.71402 3.84877 6.04664 5.06865L6.17335 5.53333H19.1862C20.3175 5.53333 21.1726 6.53535 20.9702 7.62389L20.2349 11.5794C20.1469 12.0527 19.866 12.4708 19.4567 12.7376L14.5197 15.9565L15.3777 16.5859C15.9097 16.1692 16.5847 15.92 17.3193 15.92C19.036 15.92 20.4277 17.2811 20.4277 18.96C20.4277 20.6389 19.036 22 17.3193 22C15.6026 22 14.2109 20.6389 14.2109 18.96C14.2109 18.5498 14.294 18.1585 14.4446 17.8014L10.4079 14.8405L6.90321 20.8387C6.57514 21.4001 5.96458 21.7467 5.30333 21.7467C4.05788 21.7467 3.17114 20.5634 3.54619 19.4019L6.14869 11.3421L4.5449 5.46029C4.39371 4.90581 3.88023 4.52 3.29345 4.52H1.77711C1.34792 4.52 1 4.17974 1 3.76ZM7.36871 12.6114L5.02826 19.8596C4.96955 20.0414 5.10836 20.2267 5.30333 20.2267C5.40684 20.2267 5.50242 20.1724 5.55377 20.0845L9.15481 13.9215L7.36871 12.6114ZM17.3193 20.48C18.1777 20.48 18.8735 19.7995 18.8735 18.96C18.8735 18.1205 18.1777 17.44 17.3193 17.44C16.4609 17.44 15.7651 18.1205 15.7651 18.96C15.7651 19.7995 16.4609 20.48 17.3193 20.48Z" fill="currentColor"/>
</svg>
