<svg viewBox="0 0 24 24" fill="currentColor" xmlns="http://www.w3.org/2000/svg">
<path d="M15.4558 15.1415C15.518 15.2692 15.2692 15.518 15.1415 15.4558C13.6836 14.7462 11.4506 14.5599 10.0461 17.4971C10.0018 17.5898 9.90429 17.6479 9.80126 17.6427C8.26639 17.565 5.557 18.2975 5.29764 21.7629C5.28152 21.9782 5.02061 22.0839 4.8783 21.9201C3.07025 19.8394 0.681558 15.2655 2.8842 10.3245C2.96334 10.147 3.21301 10.1389 3.32349 10.3006C4.19546 11.5764 6.06868 13.1864 8.23164 11.6461C7.37959 11.6424 6.52755 11.6386 6.0834 8.69143C6.07798 8.65542 6.06928 8.61859 6.05763 8.58404L5.79623 7.80884C5.73221 7.61899 5.91177 7.43943 6.10162 7.50345L6.57279 7.66233C6.79095 7.73589 7.03087 7.68025 7.19253 7.51858L7.51858 7.19253C7.68025 7.03087 7.73589 6.79095 7.66233 6.57279L7.50345 6.10162C7.43943 5.91177 7.61899 5.73221 7.80884 5.79623L8.58404 6.05763C8.61859 6.06928 8.65542 6.07798 8.69143 6.0834C11.6386 6.52755 11.6424 7.37959 11.6461 8.23164C13.1864 6.06868 11.5764 4.19546 10.3006 3.32349C10.1389 3.21301 10.147 2.96334 10.3245 2.8842C15.2655 0.681559 19.8394 3.07025 21.9201 4.8783C22.0839 5.02061 21.9782 5.28152 21.7629 5.29764C18.2975 5.557 17.565 8.26639 17.6427 9.80126C17.6479 9.90429 17.5898 10.0018 17.4971 10.0461C14.5599 11.4506 14.7462 13.6836 15.4558 15.1415Z" fill="currentColor"/>
</svg>
