<svg viewBox="0 0 24 24" fill="currentColor" xmlns="http://www.w3.org/2000/svg">
<path d="M15.3947 5.31229C15.2915 5.05637 15.0015 4.93302 14.7468 5.03676C14.0277 5.32976 12.7594 6.20734 11.9984 7.76451C11.2371 6.2113 9.97128 5.33571 9.25316 5.04311C8.99855 4.93936 8.70848 5.06272 8.60526 5.31864C8.50205 5.57455 8.62478 5.86611 8.87938 5.96985C9.54372 6.24054 10.9985 7.27804 11.4776 9.23608C11.2226 9.41697 11.0561 9.71533 11.0561 10.053V10.1397C9.56799 7.6687 6.82548 4.72379 2.59941 5.50648C2.59941 5.50648 1.893 5.66605 2.01392 6.26985C2.03104 6.35531 2.05702 6.43885 2.08301 6.52238C2.10946 6.60742 2.13591 6.69246 2.153 6.77952L2.59941 9.05317C2.59941 9.72881 3.09686 11.0801 5.08667 11.0801C4.25758 11.7557 3.16266 13.3751 3.59431 15.1339C4.09176 17.1609 5.58412 18.1743 7.07647 18.6811C9.5116 19.5079 9.99624 18.5929 10.6029 17.4475C10.7398 17.189 10.8829 16.9187 11.0561 16.6541L11.0598 16.6373C11.1079 17.741 11.6168 18.1041 11.949 18.165V18.1684C11.9549 18.1684 11.961 18.1683 11.9671 18.1681C11.9968 18.1726 12.0249 18.1748 12.051 18.1748V18.1587C12.3832 18.0978 12.8921 17.7346 12.9402 16.6309L12.9439 16.6478C13.1171 16.9124 13.2602 17.1826 13.3971 17.4411C14.0038 18.5865 14.4884 19.5016 16.9235 18.6747C18.4159 18.168 19.9082 17.1545 20.4057 15.1276C20.8373 13.3688 19.7424 11.7494 18.9133 11.0737C20.9031 11.0737 21.4006 9.72246 21.4006 9.04682L21.847 6.77317C21.8641 6.68611 21.8905 6.60107 21.917 6.51604C21.943 6.4325 21.969 6.34896 21.9861 6.2635C22.107 5.6597 21.4006 5.50013 21.4006 5.50013C17.1745 4.71745 14.432 7.66236 12.9439 10.1333V10.0467C12.9439 9.70898 12.7774 9.41062 12.5224 9.22973C13.0015 7.27169 14.4563 6.2342 15.1206 5.96351C15.3752 5.85976 15.498 5.5682 15.3947 5.31229Z" fill="currentColor"/>
</svg>
