<svg viewBox="0 0 24 24" fill="currentColor" xmlns="http://www.w3.org/2000/svg">
<path d="M5.14923 4.50039L5.30351 4.34017C5.51296 4.12264 5.80005 4 6.0998 4C6.71456 4 7.21092 4.50536 7.24875 5.12778C7.37547 7.21234 7.86779 10 9.18453 10C9.53887 10 9.78658 9.79328 9.89785 9.08263C9.99057 8.49041 10.4432 8 11.0343 8C11.8524 8 12.5989 7.52708 12.9579 6.78144L13.1697 6.34144C13.2786 6.11527 13.4224 5.90823 13.5958 5.72817C14.5084 4.78038 16.0113 4.78038 16.9239 5.72817C17.0972 5.90823 17.2411 6.11527 17.35 6.34144L17.6094 6.88017C17.9392 7.5654 18.6253 8 19.377 8C20.8257 8 22 9.19125 22 10.6607V14.0465C22 14.9883 21.343 15.7744 20.4685 15.959C20.2539 16.0043 20.0742 16.1803 20.0742 16.4027C20.0742 17.0763 19.7024 17.6931 19.1114 18V21.5C19.1114 21.7761 18.8907 22 18.6185 22H16.7156C16.4434 22 16.2227 21.7761 16.2227 21.5C16.2227 21.2239 16.4434 21 16.7156 21H18.1485V18C17.5574 17.6931 17.1856 17.0763 17.1856 16.4027V16C15.7757 16 13.5304 15.9735 12.3712 15.8948V16.4027C12.3712 17.0763 11.9994 17.6931 11.4083 18V21.5C11.4083 21.7761 11.1876 22 10.9154 22H9.01259C8.74037 22 8.51969 21.7761 8.51969 21.5C8.51969 21.2239 8.74037 21 9.01259 21H10.4454V18C9.8544 17.6931 9.48257 17.0763 9.48257 16.4027V15.5246C7.21292 15.5246 4.66817 12.5 4.66817 8H3.28203C2.93696 8 2.6058 7.85812 2.36468 7.60771C1.80926 7.03088 1.90009 6.08319 2.55663 5.62863C2.67954 5.54353 2.81615 5.48085 2.96031 5.44342L4.0012 5.17317C4.43744 5.05991 4.83459 4.82717 5.14923 4.50039Z" fill="currentColor"/>
</svg>
