<svg viewBox="0 0 24 24" fill="currentColor" xmlns="http://www.w3.org/2000/svg">
<path d="M17.4208 2.40739L16.7909 4.33222C16.5439 4.40129 16.2883 4.48975 16.0242 4.59737C15.1742 4.94376 13.9843 6.25972 13.9843 8.75321C13.9843 9.27269 13.6783 10.3116 12.4544 10.3116L12.4639 10.3231C8.26273 10.5205 6.84471 13.2308 6.84471 16.5453V19.1427C6.84471 19.6341 7.01217 20.0857 7.29212 20.4414H4.74302C4.02888 20.4414 3.78829 20.3228 3.70428 20.2472C3.64898 20.1974 3.52991 20.0448 3.52991 19.4396C3.52991 19.3169 3.57475 19.2013 3.83625 19.0741C4.11459 18.9388 4.48737 18.883 4.74302 18.883C5.16549 18.883 5.50798 18.5341 5.50798 18.1038C5.50798 17.6734 5.16549 17.3245 4.74302 17.3245C4.33931 17.3245 3.72307 17.4023 3.17721 17.6677C2.61452 17.9413 2 18.4935 2 19.4396C2 20.1701 2.12819 20.908 2.69104 21.4148C3.22517 21.8958 3.97361 21.9998 4.74302 21.9998H15.2592V20.7009C15.2592 20.1382 15.1231 20.0646 15.0989 20.0516L15.0965 20.0502C15.0479 20.0205 14.9518 19.9822 14.7642 19.956C14.5767 19.9298 14.3462 19.9216 14.0496 19.9206C13.2748 19.9177 12.7172 19.2353 12.7679 18.5003C12.8863 16.7832 12.4969 15.7078 12.0128 15.0791C11.526 14.447 10.9032 14.2077 10.4145 14.2077C9.99203 14.2077 9.64955 13.8588 9.64955 13.4285C9.64955 12.9981 9.99203 12.6493 10.4145 12.6493C11.3814 12.6493 12.4449 13.1152 13.2166 14.1173C13.9589 15.0814 14.395 16.4889 14.3081 18.3651C14.5324 18.3699 14.758 18.3821 14.972 18.412C15.267 18.4532 15.5887 18.5339 15.8826 18.7132C16.5527 19.1221 16.7891 19.8446 16.7891 20.7009C16.7891 21.4183 17.36 21.9998 18.0642 21.9998H18.5743C18.6958 22.0024 18.8198 21.9754 18.9358 21.9154C19.9023 21.4156 20.0378 20.065 19.1904 19.3764L19.0665 19.2757C18.9212 19.1576 18.7465 19.1021 18.574 19.1057V16.5927C19.7843 15.2785 20.9682 12.5963 20.1371 9.89678L21.3441 8.97466C21.5315 8.83149 21.6649 8.62697 21.7217 8.39548L21.9695 7.38574C22.074 6.95977 21.9044 6.51285 21.5458 6.2693L20.6139 5.63633C20.0759 4.81422 19.3959 4.33906 18.574 4.19559V2.59129C18.574 2.26473 18.3093 2 17.9827 2C17.727 2 17.5003 2.16437 17.4208 2.40739ZM18.829 7.19476C18.4065 7.19476 18.064 6.8459 18.064 6.41555C18.064 5.9852 18.4065 5.63633 18.829 5.63633C19.2515 5.63633 19.5939 5.9852 19.5939 6.41555C19.5939 6.8459 19.2515 7.19476 18.829 7.19476Z" fill="currentColor"/>
</svg>
