<svg viewBox="0 0 24 24" fill="currentColor" xmlns="http://www.w3.org/2000/svg">
<path d="M7.43279 3.72C7.43279 3.32235 7.1127 3 6.71784 3C6.32299 3 6.00289 3.32235 6.00289 3.72V4.76947C5.64116 4.85995 5.3046 5.0162 5.00598 5.22516L4.21091 4.42448C3.93171 4.1433 3.47903 4.1433 3.19982 4.42448C2.92062 4.70565 2.92062 5.16153 3.19982 5.44271L4.05044 6.29933C3.80689 6.74946 3.66822 7.26737 3.66822 7.81846V8.11081L2.36337 8.85296C2.14165 8.97906 2.00326 9.21441 2.00006 9.47082C1.99685 9.72724 2.12931 9.96602 2.34781 10.0977L3.66822 10.8935V12.2123C3.66822 17.0656 7.50935 21 12.2476 21C16.9859 21 20.8258 17.2133 20.8258 12.36C20.8258 12.1986 20.9581 12.0678 21.1201 12.0678C21.606 12.0678 22 11.6754 22 11.1913C22 10.7072 21.606 10.3148 21.1201 10.3148C19.9861 10.3148 19.0669 11.2305 19.0669 12.36H18.4802C18.4802 10.9078 19.6621 9.73044 21.1201 9.73044C21.606 9.73044 22 9.33799 22 8.85391C22 8.36983 21.606 7.97739 21.1201 7.97739C18.6902 7.97739 16.7204 9.93959 16.7204 12.36H16.1337C16.1337 9.61687 18.3662 7.39304 21.1201 7.39304C21.606 7.39304 22 7.0006 22 6.51652C22 6.03244 21.606 5.64 21.1201 5.64C17.3942 5.64 14.3739 8.6487 14.3739 12.36H10.5931C9.92751 12.36 9.38797 11.8165 9.38814 11.1462L9.38901 7.81846C9.38901 7.37073 9.32466 6.94489 9.20003 6.55951L10.309 5.44271C10.5882 5.16153 10.5882 4.70565 10.309 4.42448C10.0298 4.1433 9.57711 4.1433 9.29791 4.42448L8.42195 5.30662C8.14649 5.05561 7.81539 4.86985 7.43279 4.76824V3.72ZM7.48129 7.56C7.48129 8.09019 7.0545 8.52 6.52802 8.52C6.00155 8.52 5.57475 8.09019 5.57475 7.56C5.57475 7.02981 6.00155 6.6 6.52802 6.6C7.0545 6.6 7.48129 7.02981 7.48129 7.56Z" fill="currentColor"/>
</svg>
