<svg viewBox="0 0 24 24" fill="currentColor" xmlns="http://www.w3.org/2000/svg">
<path d="M9.43825 4.58885C10.2266 4.08484 11.3132 4.08484 12 4.08484C12.7008 4.08484 13.8176 4.08484 14.6094 4.62015C14.8654 4.79326 15.0875 5.02234 15.2505 5.32549C15.4324 5.66378 15.5407 6.09431 15.5407 6.64223C15.609 6.67676 15.6819 6.72992 15.7574 6.80079C15.8217 6.86116 15.8878 6.93437 15.9547 7.01985C16.2134 7.35088 16.4815 7.86581 16.6864 8.53075C15.8047 9.01956 14.6642 10.008 14.1051 11.4363C13.5218 12.9264 13.6192 14.7752 15.05 16.8056C16.6255 19.0413 14.6746 22.2325 12 21.9866C9.32541 22.2325 7.37448 19.0413 8.95003 16.8056C10.3808 14.7752 10.4782 12.9264 9.89493 11.4363C9.33579 10.008 8.19533 9.01956 7.3136 8.53075C7.57143 7.69412 7.92934 7.09496 8.24266 6.80079C8.31814 6.72992 8.39103 6.67676 8.45932 6.64223C8.45932 6.09431 8.56767 5.66378 8.74955 5.32549C8.92257 5.00369 9.16213 4.76536 9.43825 4.58885Z" fill="currentColor"/>
<path d="M16.0289 15.5255C16.9374 13.4728 17.1376 11.621 16.9996 10.1429C16.4335 10.5543 15.8321 11.1937 15.516 12.001C15.1715 12.881 15.1269 14.0563 16.0289 15.5255Z" fill="currentColor"/>
<path d="M8.48401 12.001C8.8285 12.881 8.87314 14.0563 7.97114 15.5255C7.18866 13.7575 6.9316 12.1385 6.96355 10.7789C6.96869 10.5601 6.98133 10.3479 7.00047 10.1429C7.56658 10.5543 8.16798 11.1937 8.48401 12.001Z" fill="currentColor"/>
<path d="M6.45384 6.6759C5.36454 6.68419 4.63582 6.89835 3.9922 7.29876C3.45221 7.63467 2.97234 8.10189 2.38953 8.68842C3.51434 9.82033 4.57208 10.3865 5.44958 10.6352C5.45749 10.3982 5.47295 10.1671 5.49519 9.9423C5.60614 8.82039 5.88633 7.84955 6.24191 7.08932C6.30859 6.94676 6.37934 6.80835 6.45384 6.6759Z" fill="currentColor"/>
<path d="M7.58828 4.30611C7.41231 4.57008 7.27359 4.85552 7.17051 5.15972C5.96659 5.09358 4.9738 5.19925 4.08136 5.54747C3.73516 5.68256 3.42012 5.84889 3.12807 6.03631C2.5338 4.9242 2.18297 3.64151 2.00684 2.56247C1.93837 2.14293 2.39757 1.86232 2.76443 2.07014C4.35727 2.97246 6.24708 3.67116 7.71943 4.12248C7.67439 4.18141 7.63062 4.24259 7.58828 4.30611Z" fill="currentColor"/>
<path d="M20.0076 7.29902C20.5475 7.63492 21.0276 8.10193 21.6104 8.68846C20.4856 9.82037 19.4279 10.3865 18.5504 10.6352C18.5425 10.3982 18.527 10.1671 18.5048 9.94234C18.3938 8.82043 18.1136 7.84959 17.758 7.08936C17.6913 6.9468 17.6206 6.80872 17.5461 6.67627C18.6354 6.68456 19.3639 6.8986 20.0076 7.29902Z" fill="currentColor"/>
<path d="M16.4117 4.30611C16.5877 4.57008 16.7264 4.85552 16.8295 5.15972C18.0334 5.09358 19.0262 5.19925 19.9186 5.54747C20.2648 5.68256 20.5799 5.84889 20.8719 6.03631C21.4662 4.9242 21.817 3.64151 21.9932 2.56247C22.0616 2.14293 21.6024 1.86232 21.2356 2.07014C19.6427 2.97246 17.7529 3.67116 16.2806 4.12248C16.3256 4.18141 16.3694 4.24259 16.4117 4.30611Z" fill="currentColor"/>
</svg>
