<svg viewBox="0 0 24 24" fill="currentColor" xmlns="http://www.w3.org/2000/svg">
<path d="M4.25 3C2.95608 3.33303 2 4.50761 2 5.90549V6.90549C2 8.30337 2.95608 9.47794 4.25 9.81097V10.4911C4.25 10.9552 4.43437 11.4003 4.76256 11.7285L6.24312 13.2091C6.20003 13.3555 6.16237 13.5044 6.13039 13.6553H5.33333C4.95469 13.6553 4.58625 13.7781 4.28333 14.0053L2.55 15.3053C2.21863 15.5538 2.15147 16.0239 2.4 16.3553C2.64853 16.6866 3.11863 16.7538 3.45 16.5053L5.18333 15.2053C5.22661 15.1728 5.27924 15.1553 5.33333 15.1553H6V16.3822L5.45417 16.5186C4.77825 16.6876 4.26696 17.2415 4.15242 17.9287L3.7602 20.282C3.69211 20.6906 3.96812 21.077 4.3767 21.1451C4.78528 21.2132 5.1717 20.9372 5.2398 20.5286L5.63201 18.1753C5.64837 18.0771 5.72141 17.998 5.81797 17.9739L6.24592 17.8669C6.58593 18.4858 7.24398 18.9053 8 18.9053H16C16.756 18.9053 17.4141 18.4858 17.7541 17.8669L18.182 17.9739C18.2786 17.998 18.3516 18.0771 18.368 18.1753L18.7602 20.5286C18.8283 20.9372 19.2147 21.2132 19.6233 21.1451C20.0319 21.077 20.3079 20.6906 20.2398 20.282L19.8476 17.9287C19.733 17.2415 19.2218 16.6876 18.5458 16.5186L18 16.3822V15.1553H18.6667C18.7208 15.1553 18.7734 15.1728 18.8167 15.2053L20.55 16.5053C20.8814 16.7538 21.3515 16.6866 21.6 16.3553C21.8485 16.0239 21.7814 15.5538 21.45 15.3053L19.7167 14.0053C19.4137 13.7781 19.0453 13.6553 18.6667 13.6553H17.8696C17.8376 13.5044 17.8 13.3555 17.7569 13.2091L19.2374 11.7285C19.5656 11.4003 19.75 10.9552 19.75 10.4911V9.81097C21.0439 9.47794 22 8.30337 22 6.90549V5.90549C22 4.50761 21.0439 3.33303 19.75 3V6.40549C19.75 6.8197 19.4142 7.15549 19 7.15549C18.5858 7.15549 18.25 6.8197 18.25 6.40549V3C16.9561 3.33303 16 4.50761 16 5.90549V6.90549C16 8.30337 16.9561 9.47794 18.25 9.81097V10.4911C18.25 10.5574 18.2237 10.621 18.1768 10.6678L17.1006 11.744C16.4332 10.6695 15.4358 9.82142 14.25 9.34141V7.90527C14.25 7.49106 13.9142 7.15527 13.5 7.15527C13.0858 7.15527 12.75 7.49106 12.75 7.90527V8.95169C12.5043 8.92106 12.254 8.90527 12 8.90527C11.746 8.90527 11.4957 8.92106 11.25 8.95169V7.90527C11.25 7.49106 10.9142 7.15527 10.5 7.15527C10.0858 7.15527 9.75 7.49106 9.75 7.90527V9.34141C8.56419 9.82142 7.56676 10.6695 6.89939 11.744L5.82322 10.6678C5.77634 10.621 5.75 10.5574 5.75 10.4911V9.81097C7.04392 9.47794 8 8.30337 8 6.90549V5.90549C8 4.50761 7.04392 3.33303 5.75 3V6.40549C5.75 6.8197 5.41421 7.15549 5 7.15549C4.58579 7.15549 4.25 6.8197 4.25 6.40549V3Z" fill="currentColor"/>
</svg>
