<svg viewBox="0 0 24 24" fill="currentColor" xmlns="http://www.w3.org/2000/svg">
<path d="M9.63272 14.1018C8.56378 14.9985 7.21066 15.7071 6.44464 16.0324C6.84608 16.8281 7.94999 16.6955 8.45177 16.5297L12.9678 14.7395V13.0486L13.9714 14.5405L13.8736 14.589C14.2834 14.5851 14.9159 14.4669 15.7629 14.113L14.975 12.5513L16.5679 13.7354C16.9291 13.5484 17.3194 13.3241 17.7386 13.0561L16.9821 11.5567L18.4016 12.6118L18.4875 12.5513C18.9308 12.2375 19.3217 12.0021 19.6657 11.8313L19 10.5L20.3903 11.5427C21.6372 11.1889 22 11.9557 22 12.5513C21.9763 12.6453 21.9432 12.7566 21.9004 12.8806C21.2736 14.6975 19.3238 15.4707 17.4838 16.2003C17.2542 16.2914 17.0261 16.3819 16.8027 16.4735C16.7252 16.5053 16.648 16.5373 16.5712 16.5695C15.1684 17.1571 13.9975 18.1501 12.9324 19.2289C11.1087 21.0763 9.52932 22 7.95 22C0.924977 21.0054 1.42678 14.209 2.93214 11.5567C2.93214 10.2306 3.73499 7.77729 6.94643 8.57296C9.62642 7.98274 12.4721 5.89661 14.3774 4.18203C14.5328 4.04217 14.689 3.89578 14.8468 3.74789C15.8138 2.84168 16.8411 1.87892 18.1205 2.01248C18.3457 2.03599 18.5473 2.09395 18.7271 2.17787C20.0279 2.78488 19.9587 4.58733 19.1717 5.81495L19.4911 7.08107L18.6096 6.49869C18.1279 6.99411 17.5974 7.4008 17.1377 7.69762L17.4839 9.07026L16.331 8.30849C16.1303 8.60466 15.8928 8.89622 15.6299 9.17982L15.9786 10.5622L14.9285 9.8684C14.6221 10.1449 14.2988 10.4099 13.9714 10.6598V12.5513L13.1139 11.2766C12.2845 11.8398 11.4995 12.2838 10.9688 12.5473L11.9643 12.054V14.0432L10.9607 12.5514C10.8456 12.7796 10.6946 13.0037 10.5171 13.2217L10.9607 14.5405L9.63272 14.1018ZM5.58536 9.5C4.75693 9.5 4.08536 10.1716 4.08536 11C4.08536 11.3438 4.20103 11.6606 4.39558 11.9136C4.5948 12.1727 4.96344 12.1984 5.24489 12.0323C6.03465 11.5662 6.43407 10.9134 6.60376 10.4256C6.69556 10.1618 6.60627 9.86614 6.36807 9.72015C6.14021 9.58051 5.87219 9.5 5.58536 9.5Z" fill="currentColor"/>
</svg>
