<svg viewBox="0 0 24 24" fill="currentColor" xmlns="http://www.w3.org/2000/svg">
<path d="M5.47927 3.29599C5.80178 3.23321 6.34825 3.14351 6.68867 3.09866C7.02909 3.05382 7.48597 3.00897 7.69202 3C7.90702 3 8.15786 3.02691 8.2564 3.08073C8.35494 3.12557 8.43557 3.23321 8.43557 3.30496C8.43557 3.37672 8.10411 4.09428 7.69202 4.89256C7.28889 5.69982 6.68867 6.75822 6.36616 7.25154C6.0347 7.74486 5.48823 8.45345 5.13885 8.8212C4.79843 9.18895 4.29676 9.62845 4.03696 9.78093C3.74133 9.96032 3.37403 10.0949 3.10528 10.1307C2.69319 10.1846 2.63944 10.1666 2.40652 9.93342C2.24527 9.763 2.12881 9.50288 2.05714 9.17998C2.00339 8.90192 1.98547 8.35479 2.01235 7.92425C2.04818 7.50268 2.15568 6.83894 2.25423 6.44428C2.35277 6.04963 2.58569 5.42176 2.76486 5.05401C2.98882 4.61451 3.22174 4.29161 3.46362 4.11222C3.66071 3.95974 4.06384 3.74447 4.35947 3.62786C4.6551 3.51126 5.15677 3.36775 5.47927 3.29599Z" fill="currentColor"/>
<path d="M15.5844 3.30494C15.5755 3.24216 15.6471 3.13452 15.7457 3.08071C15.8532 3.01792 16.1936 2.99999 16.6774 3.03587C17.0984 3.07175 17.824 3.1704 18.2899 3.2601C18.7557 3.34979 19.3828 3.51125 19.6784 3.62785C19.9741 3.74446 20.3772 3.95972 20.5743 4.1122C20.8162 4.29159 21.0491 4.61449 21.2731 5.05399C21.4522 5.42174 21.6941 6.04962 21.7926 6.44427C21.927 6.95553 21.9897 7.46679 21.9987 8.19331C22.0076 9.00057 21.9718 9.30553 21.8554 9.58358C21.7658 9.78091 21.6045 9.99618 21.497 10.059C21.3626 10.1397 21.1566 10.1666 20.8878 10.1307C20.646 10.1038 20.2697 9.94236 19.9472 9.73607C19.6516 9.54771 19.1499 9.1082 18.8364 8.76736C18.5228 8.42652 18.0032 7.74484 17.6718 7.25152C17.3492 6.7582 16.749 5.6998 16.3459 4.89254C15.9338 4.09426 15.5934 3.3767 15.5844 3.30494Z" fill="currentColor"/>
<path d="M5.25832 10.7434C4.98981 10.956 4.81545 11.2855 4.88695 11.6196C4.91831 11.7714 4.99236 12.0056 5.08064 12.242C5.20121 12.565 5.41202 12.8429 5.6339 13.1073C7.1391 14.9011 7.43025 17.3817 7.3774 18.4633C7.26094 18.8131 7.20719 19.1629 7.22511 19.4589C7.22511 21.2313 9.24375 21.1183 10.2531 20.8402C10.5219 20.7774 11.0325 20.616 12 20.2303C12.9675 20.616 13.4523 20.7774 13.7211 20.8402C14.7304 21.1183 16.749 21.2313 16.749 19.4589C16.7669 19.1629 16.7132 18.8131 16.5967 18.4633C16.5439 17.3817 16.835 14.9011 18.3402 13.1073C18.5621 12.8429 18.7729 12.565 18.8935 12.242C18.9818 12.0056 19.0558 11.7714 19.0872 11.6196C19.0876 11.6176 19.088 11.6155 19.0885 11.6135C19.1653 11.2518 18.9812 10.8957 18.6922 10.6634C18.345 10.3844 17.9775 10.045 17.7302 9.77599C17.3483 9.36092 16.782 8.61317 16.425 8.08185L16.4197 8.07404L16.4146 8.06615C16.0538 7.51435 15.4286 6.40915 15.0072 5.56643C14.9404 5.43682 14.8752 5.30907 14.8128 5.1854C14.6571 4.87668 14.3552 4.66453 14.0092 4.63832C13.3031 4.58483 12.6206 4.56443 12 4.56433C11.3987 4.56443 10.7249 4.58358 10.0349 4.63343C9.68524 4.65869 9.38054 4.87388 9.22402 5.18616C9.16209 5.30973 9.09731 5.43719 9.03066 5.56638C8.6093 6.4091 7.98407 7.51434 7.62332 8.06615L7.61817 8.07404L7.61292 8.08185C7.25378 8.61636 6.65995 9.39176 6.23533 9.84027C5.9787 10.1168 5.60855 10.466 5.25832 10.7434ZM10.3796 14.9383C10.4691 14.8217 10.7379 14.6692 10.9887 14.5975C11.2664 14.5168 11.7233 14.4809 12.1981 14.4988C12.7177 14.5257 13.0761 14.5885 13.3179 14.7051C13.5329 14.8128 13.7121 14.9742 13.7659 15.1177C13.8375 15.315 13.8106 15.4496 13.6315 15.8263C13.5061 16.0774 13.2283 16.4721 13.0044 16.7053C12.7804 16.9296 12.4579 17.1717 12.2877 17.2435C12.019 17.3421 11.9294 17.3421 11.7054 17.2435C11.5621 17.1717 11.2664 16.9385 11.0514 16.7143C10.8275 16.49 10.5587 16.1223 10.4423 15.8801C10.3258 15.6469 10.2273 15.3868 10.2273 15.2971C10.2183 15.2164 10.29 15.0549 10.3796 14.9383ZM8.99997 11.96C8.44768 11.96 7.99997 11.5143 7.99997 10.9644C7.99997 10.4146 8.44768 9.96885 8.99997 9.96885C9.55225 9.96885 9.99997 10.4146 9.99997 10.9644C9.99997 11.5143 9.55225 11.96 8.99997 11.96ZM16 10.9644C16 11.5143 15.5523 11.96 15 11.96C14.4477 11.96 14 11.5143 14 10.9644C14 10.4146 14.4477 9.96885 15 9.96885C15.5523 9.96885 16 10.4146 16 10.9644Z" fill="currentColor"/>
</svg>
