<svg viewBox="0 0 24 24" fill="currentColor" xmlns="http://www.w3.org/2000/svg">
<path d="M15.7709 2L16.8309 2.00545C17.1204 2.00694 17.3951 2.13387 17.5839 2.35341L18.7022 3.65372C18.8913 3.87365 19.1666 4.00061 19.4567 4.00168L21.4071 4.00884C21.6708 4.00981 21.9592 4.11181 21.9872 4.37396C22.0058 4.54773 22.0017 4.82014 21.9906 5.29953C21.9906 7.04341 20.4841 7.79443 19.2306 8.05141C18.6993 8.16034 18.2598 8.59479 18.2553 9.13718L18.24 10.9548C18.2166 13.3651 18.1931 13.7941 18.0759 14.1685C17.9978 14.4025 17.8102 14.8393 17.654 15.1435C17.5112 15.4015 17.2323 15.7953 16.6628 16.4123C16.4886 16.6011 16.3875 16.8469 16.3862 17.1037L16.3824 17.9128C16.3811 18.1801 16.5157 18.4298 16.7398 18.5757C16.9351 18.7005 17.1851 18.9423 17.2867 19.1061C17.3961 19.2621 17.5211 19.5429 17.568 19.7301C17.6149 19.9095 17.6383 20.4243 17.6227 20.8612C17.5993 21.6178 17.5836 21.6802 17.4039 21.8206C17.2314 21.9554 17.0949 21.9751 14.8106 21.9696C14.6468 21.9692 14.5129 21.8362 14.5129 21.6724C14.5129 21.5164 14.4738 21.1732 14.4347 20.9158C14.3996 20.6844 14.2824 20.3206 13.998 19.7225C13.9318 19.5834 13.8956 19.4316 13.8956 19.2775V16.3965C13.8956 16.0707 13.6314 15.8066 13.3056 15.8066C12.9798 15.8066 12.7157 16.0707 12.7157 16.3965V18.362C12.7157 18.4529 12.6333 18.5217 12.5438 18.5055C12.4422 18.4821 12.2781 18.4353 12.1687 18.3963C11.9968 18.3339 11.9656 18.2637 11.9265 17.8658C11.9031 17.6084 11.7859 17.2028 11.6687 16.961C11.5515 16.6958 11.2858 16.3292 11.0358 16.0796C10.7935 15.8378 10.4107 15.5647 10.1606 15.4399C9.87148 15.3073 9.52768 15.2215 9.1995 15.1981C8.78537 15.1747 8.66036 15.1903 8.51971 15.3073C8.42594 15.3931 8.32437 15.5413 8.30092 15.6505C8.26186 15.791 8.30093 15.908 8.43376 16.0718C8.57441 16.2512 8.70724 16.3058 9.0823 16.3604C9.36359 16.3994 9.69177 16.5164 9.89492 16.6412C10.0981 16.766 10.3481 17.0234 10.481 17.2418C10.692 17.5772 10.731 17.7254 10.7701 18.3729C10.817 19.0593 10.8404 19.1373 11.0279 19.2933C11.1451 19.3947 11.3405 19.4727 11.4889 19.4727C11.6218 19.4805 11.864 19.5195 12.0125 19.5741C12.1687 19.6287 12.411 19.7613 12.5594 19.8705C12.7079 19.9797 12.9267 20.2449 13.0439 20.4555C13.1053 20.568 13.1579 20.6909 13.206 20.8725C13.3581 21.4464 12.8627 21.9699 12.2689 21.9712L9.78553 21.9766C7.48458 21.9766 6.6507 21.9731 6.23717 21.8832C5.93486 21.8174 5.80054 21.4913 5.80054 21.1819V18.2481C5.80054 15.3774 5.8064 14.8989 5.91958 14.3816C5.95593 14.2155 6.04065 14.0657 6.15643 13.9412C7.36036 12.6463 9.63335 10.046 10.444 8.53661C10.4694 8.4893 10.4972 8.44486 10.5289 8.4015C10.6916 8.17894 10.8446 7.9525 10.8873 7.88144C10.9654 7.74103 10.9811 7.74103 11.2389 7.93604C11.3381 8.01423 11.4932 8.11681 11.6434 8.20653C11.7811 8.28875 11.9399 8.32605 12.1003 8.32605H13.7474C14.852 8.32605 15.7474 7.43062 15.7474 6.32605V4.19969L15.7709 2Z" fill="currentColor"/>
<path d="M14.591 2L14.5676 4.12949C14.5519 6.16537 14.5441 6.26677 14.3722 6.58658C14.2628 6.79719 14.0597 7.0078 13.8253 7.15601C13.5283 7.34321 13.3721 7.39002 13.0283 7.39002C12.7391 7.38222 12.4813 7.32761 12.2469 7.21061C12.0203 7.0936 11.8249 6.9142 11.6765 6.68019C11.4655 6.34477 11.4577 6.30577 11.4655 5.19813C11.4655 4.15289 11.4811 4.04368 11.6687 3.63807C11.7781 3.40406 11.95 3.10764 12.0515 2.97504C12.1453 2.85023 12.3797 2.63963 12.5594 2.50702C12.747 2.38222 13.0751 2.21841 13.2939 2.14041C13.5127 2.0702 13.8956 2.0078 14.591 2Z" fill="currentColor"/>
<path d="M4.58163 19.8862L4.58944 18.3027C2.39379 18.3027 2.39379 18.3105 2.18282 18.5211C1.98748 18.724 1.97966 18.763 2.01873 19.4338C2.04217 19.9018 2.1125 20.2606 2.21407 20.4868C2.30002 20.6818 2.50318 20.9938 2.67508 21.181C2.84698 21.3683 3.15953 21.6023 3.37832 21.7115C3.58929 21.8129 3.97997 21.9221 4.23782 21.9533L4.70665 22.0001C4.61288 21.5867 4.58163 20.752 4.58163 19.8862Z" fill="currentColor"/>
</svg>
