<svg viewBox="0 0 24 24" fill="currentColor" xmlns="http://www.w3.org/2000/svg">
<path d="M17 2.24127C18.267 1.9563 19.8843 1.8442 21.4234 2.35725C21.7743 2.53268 21.9498 2.88353 21.4234 3.40985L19.9425 5.38446C19.1213 4.14005 18.1189 3.07192 17 2.24127Z" fill="currentColor"/>
<path d="M20.1379 9.91565C21.0132 12.7741 20.8559 15.6469 19.8954 17.9525C21.1216 18.3876 22 19.5607 22 20.9396C22 21.1941 21.9701 21.4416 21.9136 21.6788C21.8195 22.0737 21.3093 22.089 21.0158 21.8095C20.4496 21.2704 19.6844 20.9396 18.8421 20.9396C18.3685 20.9396 17.9193 21.0442 17.5161 21.2316C17.4581 21.279 17.3994 21.3254 17.34 21.3709L17.3578 21.3107C17.1057 21.4456 16.8739 21.6138 16.6684 21.8095C16.3749 22.089 15.8647 22.0737 15.7706 21.6788C15.7141 21.4416 15.6842 21.1941 15.6842 20.9396C15.6842 19.6604 16.4402 18.5583 17.5284 18.0583C17.054 15.563 15.1862 13.3608 12.4003 11.8855C12.216 12.5213 12.2206 13.2556 12.4573 13.9799C12.5483 14.2583 12.3886 14.5741 12.0975 14.5498C10.99 14.4575 9.92805 13.5709 9.49933 12.2589C9.33043 11.7421 9.2797 11.2201 9.33148 10.7324C7.6295 10.3514 5.97941 10.3712 4.25679 10.3918C4.00055 10.3948 3.74271 10.3979 3.48285 10.3997L3.48411 10.3781C2.65624 10.3289 2 9.63993 2 8.79716C2 7.92245 2.70692 7.21335 3.57895 7.21335C3.87375 7.21335 4.18056 7.077 4.29528 6.8046C5.21071 4.63093 6.84259 2.96659 8.9972 2.30271C13.443 0.932881 18.4309 4.34131 20.1379 9.91565ZM7.75 7.5C8.16421 7.5 8.5 7.16421 8.5 6.75C8.5 6.33579 8.16421 6 7.75 6C7.33579 6 7 6.33579 7 6.75C7 7.16421 7.33579 7.5 7.75 7.5Z" fill="currentColor"/>
</svg>
