<svg viewBox="0 0 24 24" fill="currentColor" xmlns="http://www.w3.org/2000/svg">
<path d="M2.96761 11.2727C3.00605 11.2316 3.08293 11.2316 3.12137 11.2316C3.27514 11.2316 3.4289 11.3138 3.54422 11.4371C4.31304 12.2591 5.69692 13.2044 8.19558 13.2044C9.61789 13.2044 10.6558 13.04 11.3093 12.7523C11.7321 12.5468 12.0397 12.1769 12.1166 11.7248C12.1934 11.2316 12.0397 10.7384 11.6937 10.3685C10.5789 9.29985 10.0792 7.73801 10.2714 6.17618C10.5405 3.99784 12.2703 2.2305 14.3077 2.025C16.6141 1.77839 18.69 3.38133 19.1897 5.72407C19.2281 5.88848 19.3819 6.01178 19.5357 6.05288C20.3813 6.13508 21.1502 6.17618 21.8805 6.09398C21.919 6.09398 21.9574 6.13508 21.9574 6.13508C21.9574 6.13508 21.9959 6.17618 21.9959 6.21728C22.0728 7.40921 21.0733 8.14902 19.2666 8.39563C19.1128 8.39563 18.9975 8.51893 18.959 8.64223C18.7668 9.13544 18.4593 9.62865 18.1133 10.0397C17.7289 10.4918 17.6136 11.1494 17.8442 11.6426C18.6131 13.451 19.6894 16.8213 18.2671 19.2051C17.1523 21.0547 14.7305 22 11.0402 22C7.19611 22 4.54369 21.0136 3.15981 19.0818C1.58374 16.9035 1.89126 13.9031 2.46788 11.807C2.54476 11.5193 2.73696 11.3549 2.96761 11.2727ZM16 7C16.5523 7 17 6.55228 17 6C17 5.44772 16.5523 5 16 5C15.4477 5 15 5.44772 15 6C15 6.55228 15.4477 7 16 7Z" fill="currentColor"/>
</svg>
