<svg viewBox="0 0 24 24" fill="currentColor" xmlns="http://www.w3.org/2000/svg">
<path d="M14.6714 12.9959C14.6714 14.4537 15.0587 15.8085 15.724 16.8403C15.4047 16.8755 15.0747 16.8944 14.7342 16.8944C14.6012 16.8944 14.469 16.8931 14.3376 16.8905C13.3952 17.4361 12.1335 17.9344 10.7031 17.9998C10.558 18.0064 10.4631 17.8505 10.5281 17.7175L11.0999 16.5467C8.88705 16.0974 7.19793 15.2473 6.45462 14.2041C5.98091 14.614 5.46063 14.9652 4.90448 15.2499L2.62952 16.4144C2.28346 16.5915 1.90096 16.2519 2.02331 15.8761L2.2352 15.2254C2.5773 14.1747 3.38263 13.3502 4.40893 13C3.38263 12.6498 2.5773 11.8253 2.2352 10.7746L2.02331 10.1239C1.90096 9.74813 2.28346 9.40851 2.62952 9.58565L4.90448 10.7501C5.46063 11.0348 5.98091 11.386 6.45462 11.7959C7.19793 10.7527 8.88705 9.90263 11.0999 9.45325L10.5281 8.28253C10.4631 8.14949 10.558 7.99357 10.7031 8.0002C12.1335 8.06558 13.3953 8.56388 14.3376 9.10948C14.469 9.10692 14.6012 9.10563 14.7342 9.10563C15.073 9.10563 15.4014 9.12432 15.7192 9.15911C15.0568 10.19 14.6714 11.5418 14.6714 12.9959Z" fill="currentColor"/>
<path d="M17.0066 9.8891C16.4839 10.6536 16.1373 11.7497 16.1373 12.9959C16.1373 14.2422 16.4839 15.3383 17.0066 16.1028C17.1101 16.2542 17.2187 16.3904 17.3312 16.5116C19.2137 15.9422 20.5982 14.8521 21.4291 14.0368C21.6969 13.774 22 13.361 22 13C22 12.6425 21.716 12.2449 21.4307 11.9648C20.5991 11.1484 19.212 10.0558 17.3253 9.48669C17.2149 9.60626 17.1083 9.74037 17.0066 9.8891ZM18.25 14.75C17.8358 14.75 17.5 14.4142 17.5 14C17.5 13.5858 17.8358 13.25 18.25 13.25C18.6642 13.25 19 13.5858 19 14C19 14.4142 18.6642 14.75 18.25 14.75Z" fill="currentColor"/>
</svg>
