<svg viewBox="0 0 24 24" fill="currentColor" xmlns="http://www.w3.org/2000/svg">
<path d="M8.5 8.5C8.5 9.05228 8.05228 9.5 7.5 9.5C6.94772 9.5 6.5 9.05228 6.5 8.5C6.5 7.94772 6.94772 7.5 7.5 7.5C8.05228 7.5 8.5 7.94772 8.5 8.5Z" fill="currentColor"/>
<path d="M16.5 9.5C17.0523 9.5 17.5 9.05228 17.5 8.5C17.5 7.94772 17.0523 7.5 16.5 7.5C15.9477 7.5 15.5 7.94772 15.5 8.5C15.5 9.05228 15.9477 9.5 16.5 9.5Z" fill="currentColor"/>
<path d="M4.23204 10.1692C4.37498 10.4429 4.30595 10.7989 4.04759 10.9681C2.763 11.8092 2 12.86 2 14C2 16.7614 6.47715 19 12 19C17.5228 19 22 16.7614 22 14C22 12.8457 21.2177 11.7828 19.9038 10.9366C19.6451 10.7699 19.5734 10.4162 19.7132 10.1421C20.1173 9.35005 20.2183 8.34446 19.9173 7.35007C18.9935 4.29812 15.1286 3.98437 13.6001 6.40881C13.4415 6.66027 13.1146 6.76689 12.8311 6.67753C12.1999 6.47862 11.5869 6.55576 11.1208 6.70839C10.836 6.80166 10.5047 6.68895 10.347 6.43412C8.82953 3.98222 4.94093 4.28754 4.01396 7.35007C3.70953 8.35584 3.81636 9.37308 4.23204 10.1692ZM10 8.5C10 9.88071 8.88071 11 7.5 11C6.11929 11 5 9.88071 5 8.5C5 7.11929 6.11929 6 7.5 6C8.88071 6 10 7.11929 10 8.5ZM16.5 11C15.1193 11 14 9.88071 14 8.5C14 7.11929 15.1193 6 16.5 6C17.8807 6 19 7.11929 19 8.5C19 9.88071 17.8807 11 16.5 11ZM5.25 14C5.25 14.3153 5.4338 14.562 5.67753 14.6459C8.57946 15.6456 13.8788 16.5948 18.3038 14.7335C18.5606 14.6255 18.75 14.3483 18.75 14C18.75 13.5858 19.0858 13.25 19.5 13.25C19.9142 13.25 20.25 13.5858 20.25 14C20.25 14.8807 19.7615 15.7476 18.8854 16.1161C13.9622 18.187 8.23387 17.1131 5.18897 16.0641C4.28654 15.7532 3.75 14.897 3.75 14C3.75 13.5858 4.08579 13.25 4.5 13.25C4.91421 13.25 5.25 13.5858 5.25 14ZM11 12.75C11 13.1642 10.6642 13.5 10.25 13.5C9.83579 13.5 9.5 13.1642 9.5 12.75C9.5 12.3358 9.83579 12 10.25 12C10.6642 12 11 12.3358 11 12.75ZM13.75 13.5C13.3358 13.5 13 13.1642 13 12.75C13 12.3358 13.3358 12 13.75 12C14.1642 12 14.5 12.3358 14.5 12.75C14.5 13.1642 14.1642 13.5 13.75 13.5Z" fill="currentColor"/>
</svg>
