<svg viewBox="0 0 24 24" fill="currentColor" xmlns="http://www.w3.org/2000/svg">
<path d="M15.6753 14.4727L20.3221 11.8479C21.7913 10.7067 21.4697 9.37706 20.8943 8.74162C20.7765 8.61148 20.6193 8.52699 20.4574 8.45904L17.0649 7.03509C16.8954 6.33274 16.0952 5 14.4675 5C12.8399 5 12.0397 6.33274 11.8701 7.03509C4.79244 6.96314 2 14.4011 2 17.2105C2 17.8634 2.12769 19.5 3.03896 19.5H13.9481C14.3784 19.5 14.7273 19.1583 14.7273 18.7368C14.7273 18.3154 14.3784 17.9737 13.9481 17.9737H11.0894C11.6982 17.3703 12.1436 16.9007 12.4444 16.5464C12.804 15.95 12.9761 15.3769 12.951 14.8717C12.9243 14.3341 12.6701 13.7685 11.9456 13.2362C11.1607 12.6596 10.3572 12.6768 9.59448 12.9548C8.80366 13.243 8.11351 13.7994 7.71958 14.1852C7.42366 14.475 6.94881 14.47 6.65898 14.1741C6.36915 13.8782 6.3741 13.4033 6.67003 13.1135C7.1419 12.6514 8.0102 11.9357 9.08085 11.5455C10.1796 11.145 11.5406 11.0775 12.8336 12.0274C13.8721 12.7903 14.3971 13.7508 14.4492 14.7972C14.4579 14.974 14.4531 15.1498 14.436 15.3242L17.2163 18.8252C17.5483 19.2432 18.0529 19.4868 18.5867 19.4868H21.2208C21.635 19.4868 21.9708 19.1511 21.9708 18.7368C21.9708 18.3226 21.635 17.9868 21.2208 17.9868H18.5867C18.5105 17.9868 18.4384 17.952 18.391 17.8923L15.6753 14.4727ZM14.7273 8.5614C14.2969 8.5614 13.9481 8.21973 13.9481 7.79825C13.9481 7.37677 14.2969 7.03509 14.7273 7.03509C15.1576 7.03509 15.5065 7.37677 15.5065 7.79825C15.5065 8.21973 15.1576 8.5614 14.7273 8.5614Z" fill="currentColor"/>
</svg>
