<svg viewBox="0 0 24 24" fill="currentColor" xmlns="http://www.w3.org/2000/svg">
<path d="M16.2222 2.10998C16.0386 2.16857 15.7925 2.26623 15.6754 2.32873C15.5582 2.38732 15.398 2.48106 15.3238 2.53575C15.2496 2.59044 14.7145 3.10605 14.1324 3.67634C13.4918 4.30913 12.9333 4.82474 12.7067 4.99271C12.5036 5.14114 12.1872 5.35598 12.0036 5.46535C11.82 5.57472 11.4528 5.77003 11.1833 5.89893C10.9138 6.02783 10.5036 6.20751 10.2654 6.29345C10.0271 6.37938 9.65211 6.50438 9.42556 6.57078C9.199 6.63328 8.78886 6.73093 8.50761 6.78562C8.22637 6.84031 7.76154 6.91062 7.47249 6.93796C7.18344 6.96921 6.76939 6.99655 6.55455 6.99655C6.33971 6.99655 5.99597 7.02389 5.79285 7.05514C5.58973 7.08249 5.28115 7.1567 5.10928 7.21139C4.93741 7.26607 4.67179 7.37154 4.52336 7.44576C4.37102 7.51997 4.14447 7.64888 4.01556 7.73481C3.88666 7.82075 3.67573 7.9809 3.54292 8.09808C3.41011 8.21136 3.2109 8.41057 3.10153 8.53947C2.98825 8.66838 2.82419 8.87931 2.74216 9.00821C2.65623 9.13711 2.52733 9.36757 2.45311 9.51601C2.3828 9.66444 2.28515 9.89881 2.24218 10.0316C2.19531 10.1683 2.13281 10.3949 2.09765 10.5394C2.04297 10.7542 2.03125 11.098 2.01562 12.3675L2 13.9299C2.21093 14.8088 2.32421 15.3361 2.39061 15.6682C2.45311 16.0002 2.55076 16.5627 2.60545 16.9181C2.66014 17.2736 2.74216 17.9064 2.78123 18.3243C2.82419 18.7423 2.87888 19.4102 2.90232 19.8087C2.92185 20.2071 2.94138 20.7461 2.94138 21.0117C2.94138 21.3828 2.957 21.5195 3.01169 21.6328C3.04684 21.7109 3.1484 21.8281 3.23434 21.8867L3.39058 22L7.31624 21.9961C7.29671 21.1602 7.27718 21.0508 7.21078 20.9219C7.16391 20.836 7.07016 20.711 6.99594 20.6446C6.92563 20.5821 6.76157 20.4493 6.63658 20.3516C6.50768 20.2579 6.33581 20.0938 6.24987 19.9844C6.16394 19.879 6.03503 19.668 5.96472 19.5157C5.89441 19.3634 5.8202 19.1368 5.79676 19.0079C5.77332 18.879 5.75379 18.3439 5.75379 17.8165C5.75379 17.0158 5.76551 16.84 5.81629 16.7423C5.85145 16.6799 5.99988 16.4924 6.14441 16.3322C6.28893 16.1721 6.50768 15.8986 6.63267 15.7268C6.75376 15.5549 6.92954 15.2736 7.02328 15.1018C7.11703 14.9299 7.26156 14.6213 7.33968 14.4182L7.48811 14.0471C7.57014 14.2893 7.64045 14.4104 7.69905 14.469C7.75764 14.5276 7.94904 14.676 8.12481 14.7932L8.44902 15.0041C8.35528 15.2307 8.23809 15.465 8.12872 15.6682C8.01935 15.8713 7.84748 16.1603 7.74592 16.3127C7.64436 16.465 7.43734 16.7384 7.28109 16.9259L7.00375 17.2697C7.00375 18.5509 7.01938 18.7774 7.06235 18.9103C7.0936 19.0079 7.17953 19.1485 7.24984 19.2227C7.32015 19.297 7.49202 19.4415 7.62874 19.5391C7.76936 19.6368 7.96857 19.8282 8.07403 19.9688C8.17559 20.1055 8.29668 20.2891 8.33965 20.3751C8.38262 20.461 8.45293 20.6641 8.49199 20.8243C8.54277 21.0274 8.56621 21.2539 8.56621 21.5586V21.9961L11.281 22C11.6013 21.707 11.6521 21.625 11.6716 21.5078C11.6872 21.4219 11.6872 21.2891 11.6716 21.2149C11.6521 21.1055 11.4997 20.9336 10.906 20.336C10.199 19.6251 10.1677 19.586 10.1677 19.4376C10.1677 19.3516 10.2146 18.5079 10.2693 17.5626C10.3279 16.6174 10.3787 15.84 10.3787 15.8361C10.3826 15.8283 10.5427 15.8596 10.7341 15.9025C10.9255 15.9416 11.2966 15.9963 11.5544 16.0236C11.8239 16.051 12.238 16.0588 12.5309 16.0471C12.8083 16.0314 13.2418 15.9885 13.4879 15.9455C13.734 15.9025 14.0817 15.8283 14.2613 15.7775L14.5816 15.6877C14.6402 15.8986 14.6832 16.0822 14.7184 16.2346C14.7535 16.3869 14.859 16.7814 14.9527 17.1134L15.1285 17.7189L15.1246 19.1642C14.652 19.4845 14.5387 19.6016 14.4254 19.7813C14.3395 19.9141 14.2496 20.1055 14.2301 20.211C14.2067 20.3126 14.191 20.4688 14.191 20.5625C14.191 20.6524 14.2184 20.8243 14.2535 20.9414C14.2887 21.0586 14.3707 21.2422 14.4371 21.3477C14.5074 21.4531 14.6246 21.5938 14.6988 21.6563C14.773 21.7227 14.9449 21.8242 15.0777 21.8867C15.3199 21.9961 15.3316 21.9961 16.1129 21.9961C16.8238 21.9961 16.9292 21.9883 17.1206 21.9141C17.2378 21.8711 17.4136 21.7734 17.5112 21.7031C17.6089 21.6328 17.7495 21.4805 17.8316 21.3672C17.9097 21.25 17.9917 21.0938 18.0151 21.0196C18.0386 20.9453 18.3159 19.668 18.6284 18.1876L19.1987 15.4924C19.1323 14.8557 19.0971 14.469 19.0737 14.2229C19.0542 13.9768 19.0268 13.4495 19.0151 13.0511C18.9995 12.6448 19.0073 11.9144 19.0307 11.3909C19.0581 10.8753 19.0854 10.4261 19.0932 10.3949C19.1049 10.3519 19.351 10.2816 19.9213 10.1527C20.4291 10.0355 20.8236 9.92224 20.9682 9.85193C21.101 9.78553 21.3002 9.641 21.4291 9.50819C21.5736 9.36757 21.7103 9.17617 21.7963 9.00821C21.8861 8.82462 21.9447 8.63322 21.976 8.42229C22.0072 8.18402 22.0072 8.0473 21.972 7.83637C21.9447 7.68794 21.8666 7.44966 21.8002 7.30904C21.7064 7.11764 21.5658 6.94187 21.2182 6.58641L20.7572 6.11767C20.7533 4.88724 20.7377 4.65678 20.6987 4.56303C20.6674 4.49272 20.226 4.02399 19.6948 3.49666C18.9995 2.80918 18.6714 2.51622 18.4878 2.40685C18.3472 2.32873 18.0542 2.19982 17.8316 2.12951C17.4722 2.00842 17.3941 1.9967 16.9956 2.00061C16.6246 2.00061 16.4996 2.02014 16.2222 2.10998Z" fill="currentColor"/>
</svg>
