<svg viewBox="0 0 24 24" fill="currentColor" xmlns="http://www.w3.org/2000/svg">
<path d="M11.0521 4C11.0521 2.89543 10.1634 2 9.06725 2V5C9.06725 6.10457 9.95591 7 11.0521 7C11.7371 7.17255 11.8398 8.10314 11.209 8.42096L11.0521 8.5C9.69811 8.5 8.52503 7.71936 7.95201 6.58038C1.51575 10.8385 1.88836 17.7046 2.0881 21.3852C2.09984 21.6015 2.11099 21.8069 2.12011 22H11.0521V16.618C11.0521 16.4712 11.084 16.3292 11.1427 16.2005C10.5168 16.1372 9.84314 15.993 9.21916 15.6649C8.0025 15.0253 7.11084 13.7764 6.83999 11.593C6.789 11.182 7.07834 10.8072 7.48625 10.7558C7.89416 10.7044 8.26617 10.996 8.31716 11.407C8.54253 13.2236 9.22225 13.9747 9.90777 14.3351C10.6707 14.7362 11.5989 14.75 12.5408 14.75C12.7906 14.75 13.0009 14.9046 13.2054 15.0549C13.3006 15.1249 13.3945 15.194 13.4906 15.2461L19.2676 18.3805C19.4122 18.4589 19.5748 18.503 19.7386 18.4913C22.1209 18.321 22.0352 15.6959 21.9824 14.0811L21.977 13.9131C21.9689 13.648 21.8645 13.3946 21.6783 13.2071L14.3201 5.79289C14.134 5.60536 13.8816 5.5 13.6184 5.5H11.0521V4ZM18.4954 13.2502C18.9065 13.2502 19.2398 13.586 19.2398 14.0002C19.2398 14.1302 19.2846 14.3418 19.3972 14.4995C19.4825 14.6188 19.6312 14.7502 19.9841 14.7502C20.3952 14.7502 20.7285 15.086 20.7285 15.5002C20.7285 15.9144 20.3952 16.2502 19.9841 16.2502C19.1461 16.2502 18.5504 15.8815 18.1891 15.3759C17.8552 14.9085 17.7511 14.3702 17.7511 14.0002C17.7511 13.586 18.0844 13.2502 18.4954 13.2502ZM12.7889 9.50018C12.3778 9.50018 12.0445 9.1644 12.0445 8.75018C12.0445 8.33597 12.3778 8.00018 12.7889 8.00018C13.2 8.00018 13.5332 8.33597 13.5332 8.75018C13.5332 9.1644 13.2 9.50018 12.7889 9.50018Z" fill="currentColor"/>
<path d="M16.0144 3H12.0446V4.5H14.5144C15.3428 4.5 16.0144 3.82843 16.0144 3Z" fill="currentColor"/>
<path d="M7.5785 3C6.58605 3 1.12761 4 2.12004 12C3.39443 8.57578 6.1234 6.25081 7.19395 5.33875C7.37396 5.18539 7.50708 5.07197 7.57851 5L7.5785 3Z" fill="currentColor"/>
</svg>
