<svg viewBox="0 0 24 24" fill="currentColor" xmlns="http://www.w3.org/2000/svg">
<path d="M4 10C4 5.58172 7.58172 2 12 2C16.4183 2 20 5.58172 20 10V12C20 13.1046 19.1046 14 18 14H6C4.89543 14 4 13.1046 4 12V10ZM7.72761 8.1819C8.02345 6.99855 9.30294 4.75 12 4.75C14.6971 4.75 15.9766 6.99855 16.2724 8.1819C16.3729 8.58375 16.7801 8.82807 17.1819 8.72761C17.5837 8.62715 17.8281 8.21994 17.7276 7.8181C17.3568 6.33478 15.7029 3.25 12 3.25C8.29706 3.25 6.64322 6.33478 6.27239 7.8181C6.17193 8.21994 6.41625 8.62715 6.8181 8.72761C7.21994 8.82807 7.62715 8.58375 7.72761 8.1819Z" fill="currentColor"/>
<path d="M8.25 15.5V18.75C8.25 19.3056 8.03532 19.5804 7.81177 19.7413C7.54998 19.9298 7.21332 20 7 20C6.75076 20 6.38284 19.9394 6.10636 19.7901C5.86238 19.6583 5.75 19.5032 5.75 19.25C5.75 18.8944 5.88135 18.7446 6.00073 18.6586C6.15835 18.5452 6.37002 18.5 6.5 18.5C6.91421 18.5 7.25 18.1642 7.25 17.75C7.25 17.3358 6.91421 17 6.5 17C6.12998 17 5.59165 17.1048 5.12427 17.4413C4.61865 17.8054 4.25 18.4056 4.25 19.25C4.25 20.1968 4.80429 20.7917 5.39364 21.1099C5.95049 21.4106 6.58257 21.5 7 21.5C7.45335 21.5 8.11668 21.3702 8.68823 20.9587C9.29802 20.5196 9.75 19.7944 9.75 18.75V15.5H8.25Z" fill="currentColor"/>
<path d="M11.25 21.25V15.5H12.75V21.25C12.75 21.6642 12.4142 22 12 22C11.5858 22 11.25 21.6642 11.25 21.25Z" fill="currentColor"/>
<path d="M14.25 18.75V15.5H15.75V18.75C15.75 19.3056 15.9647 19.5804 16.1882 19.7413C16.45 19.9298 16.7867 20 17 20C17.2492 20 17.6172 19.9394 17.8936 19.7901C18.1376 19.6583 18.25 19.5032 18.25 19.25C18.25 18.8944 18.1186 18.7446 17.9993 18.6586C17.8417 18.5452 17.63 18.5 17.5 18.5C17.0858 18.5 16.75 18.1642 16.75 17.75C16.75 17.3358 17.0858 17 17.5 17C17.87 17 18.4083 17.1048 18.8757 17.4413C19.3814 17.8054 19.75 18.4056 19.75 19.25C19.75 20.1968 19.1957 20.7917 18.6064 21.1099C18.0495 21.4106 17.4174 21.5 17 21.5C16.5466 21.5 15.8833 21.3702 15.3118 20.9587C14.702 20.5196 14.25 19.7944 14.25 18.75Z" fill="currentColor"/>
</svg>
