<svg viewBox="0 0 24 24" fill="currentColor" xmlns="http://www.w3.org/2000/svg">
<path d="M2.68781 10.1442C1.06651 7.65831 2.68781 5.65572 3.70112 4.96516C5.96276 3.42394 8.53466 3.78698 10.5 5.63779C7.73022 6.25601 5.5902 8.65911 5.34584 11.6565L5.15479 14C3.51496 13.0136 2.73809 11.0258 3.19446 9.62627L2.68781 10.1442Z" fill="currentColor"/>
<path d="M12.8492 14.2194L13.0272 15.2874C13.133 15.9222 12.6435 16.5 12 16.5C11.3565 16.5 10.867 15.9222 10.9728 15.2874L11.1508 14.2194C11.22 13.8043 11.5792 13.5 12 13.5C12.4209 13.5 12.78 13.8043 12.8492 14.2194Z" fill="currentColor"/>
<path d="M6.61794 11.5848C6.83389 8.99331 9.00022 7 11.6007 7H12.3993C14.9998 7 17.1661 8.99331 17.3821 11.5848L17.639 14.6678C17.8236 16.8833 16.1719 18.7992 13.9998 18.9852L14 19C14 19.5523 13.1046 20 12 20C10.8954 20 10 19.5523 10 19L10.0002 18.9852C7.82814 18.7992 6.17639 16.8833 6.36102 14.6678L6.61794 11.5848ZM9.67121 13.9728L9.4932 15.0408C9.23502 16.5899 10.4296 18 12 18C13.5704 18 14.765 16.5899 14.5068 15.0408L14.3288 13.9728C14.1391 12.8344 13.1541 12 12 12C10.8459 12 9.86094 12.8344 9.67121 13.9728ZM9.5 11.75C9.5 11.3358 9.16421 11 8.75 11C8.33579 11 8 11.3358 8 11.75C8 12.1642 8.33579 12.5 8.75 12.5C9.16421 12.5 9.5 12.1642 9.5 11.75ZM15.25 12.5C15.6642 12.5 16 12.1642 16 11.75C16 11.3358 15.6642 11 15.25 11C14.8358 11 14.5 11.3358 14.5 11.75C14.5 12.1642 14.8358 12.5 15.25 12.5Z" fill="currentColor"/>
<path d="M20.2989 4.96516C21.3122 5.65572 22.9335 7.65831 21.3122 10.1442L20.8055 9.62627C21.2619 11.0258 20.485 13.0136 18.8452 14L18.6542 11.6565C18.4098 8.65911 16.2698 6.25601 13.5 5.63779C15.4653 3.78698 18.0372 3.42394 20.2989 4.96516Z" fill="currentColor"/>
</svg>
