<svg viewBox="0 0 24 24" fill="currentColor" xmlns="http://www.w3.org/2000/svg">
<path d="M11.5821 2.00691C11.463 1.9854 11.3474 2.01522 11.2554 2.0812C11.1578 2.1511 11.0869 2.26206 11.0669 2.39551C10.8926 3.55593 11.0626 4.69435 11.4972 5.69396C10.4006 4.97933 9.04575 4.6616 7.65796 4.9021L7.4105 4.94511C7.16564 4.98764 7.00123 5.22226 7.04324 5.4696C7.52921 8.32813 10.1393 10.2819 12.9584 9.96367L12.9177 9.98713V10.5737C12.9177 10.7091 12.8923 10.845 12.838 10.9643C12.7859 11.0786 12.7072 11.1783 12.5988 11.2482C12.3105 11.435 12.0471 11.4887 11.9259 11.4887C11.4298 11.4887 6.47126 11.4887 5.97537 15.9936C5.49147 20.3894 9.61186 21.8333 11.4301 22H17.3808C17.8767 20.4984 16.389 19.4973 15.8931 19.6474H11.4404C11.3827 19.6547 11.3238 19.6606 11.2638 19.6655C11.1575 19.6738 11.0477 19.6782 10.9342 19.6782C10.5234 19.6782 10.1904 19.3419 10.1904 18.9274C10.1904 18.5129 10.5234 18.1766 10.9342 18.1766C11.5629 18.1766 11.8514 17.9845 11.9845 17.8442C12.1356 17.6853 12.1739 17.5025 12.1739 17.4258C12.1739 16.8695 11.9611 16.5943 11.7393 16.4335C11.6198 16.3465 11.4847 16.2849 11.3529 16.2433C11.1983 16.195 11.0484 16.1744 10.9342 16.1744C10.5234 16.1744 10.1904 15.8381 10.1904 15.4236C10.1904 15.0091 10.5234 14.6728 10.9342 14.6728C11.3839 14.6728 12.0417 14.8028 12.6086 15.2149C13.2134 15.6543 13.6616 16.3802 13.6616 17.4258C13.6616 17.7371 13.5752 18.1262 13.3531 18.4962H15.3972C15.9449 18.4962 16.389 18.0485 16.389 17.4957V15.493C16.389 13.8912 17.3807 13.4909 17.8766 13.4909H19.0858C19.5409 13.4909 19.9503 13.1776 19.9862 12.7196C20.2056 9.92408 17.7543 7.98499 16.389 7.98499L16.3833 7.98841C16.4942 5.13183 14.5658 2.5485 11.8303 2.05188L11.5821 2.00691Z" fill="currentColor"/>
<path d="M3 18.5176C3 17.443 3.67102 16.5266 4.6132 16.1719C4.58212 16.6318 4.58793 17.1027 4.64119 17.5762C4.77378 18.7549 5.19891 19.9243 6.03868 20.9564C5.85895 20.9982 5.67176 21.0203 5.47945 21.0203C4.11009 21.0203 3 19.8998 3 18.5176Z" fill="currentColor"/>
</svg>
