<svg viewBox="0 0 24 24" fill="currentColor" xmlns="http://www.w3.org/2000/svg">
<path d="M9.78104 2.00033C9.98045 1.99642 10.2698 2.02768 10.5044 2.07847C10.7195 2.12144 11.0244 2.20349 11.1808 2.25428C11.3333 2.30507 11.607 2.42227 11.783 2.50823C11.9629 2.59808 12.2405 2.75827 12.4008 2.86766C12.5611 2.97315 12.87 3.23882 13.085 3.4576C13.3001 3.67639 13.5738 3.99676 13.6911 4.17647C13.8084 4.35228 13.8983 4.50856 13.8866 4.52028C13.8749 4.532 13.6481 4.52028 13.3783 4.49293C13.1085 4.46558 12.4673 4.44214 11.9511 4.44214C11.435 4.43824 10.7742 4.45386 9.95699 4.50075L9.82014 4.1374C9.74585 3.93815 9.57771 3.60216 9.44868 3.38728C9.31965 3.17631 9.17498 2.94189 9.12805 2.85985C9.07722 2.78171 9.03812 2.66059 9.03812 2.59418C9.03812 2.52385 9.0694 2.39883 9.11241 2.32069C9.15151 2.23865 9.24145 2.13316 9.31574 2.08628C9.42522 2.01986 9.51124 2.00033 9.78104 2.00033ZM3.75953 5.59468C3.9433 5.59077 4.24829 5.61812 4.44379 5.64938C4.63539 5.68454 4.88172 5.73923 4.9912 5.7744C5.09677 5.80565 5.19844 5.84081 5.21408 5.84863C5.23363 5.85644 5.07331 5.96974 4.86217 6.10258C4.65494 6.2315 4.35777 6.43076 4.20919 6.53624C4.0567 6.64564 3.82209 6.83317 3.68133 6.95037C3.54057 7.07149 3.34506 7.2473 3.05572 7.52469L2.9306 7.39967C2.86022 7.32934 2.64125 7.15353 2.44966 7.00898C2.16813 6.79801 2.08602 6.71205 2.04301 6.58703C2.01173 6.49327 2 6.37215 2.01564 6.2862C2.02737 6.20416 2.08602 6.08304 2.14467 6.01662C2.20723 5.95021 2.31672 5.86816 2.39101 5.83691C2.4653 5.80565 2.63343 5.75486 2.76246 5.72361C2.8915 5.68844 3.09482 5.64938 3.21212 5.62984C3.32942 5.61421 3.57576 5.59859 3.75953 5.59468ZM12.0293 5.61031C12.5963 5.61812 13.2297 5.65328 13.5347 5.68844C13.824 5.72361 14.3245 5.80174 14.6491 5.86426C14.9697 5.92677 15.4897 6.05179 15.8025 6.13774C16.1153 6.2276 16.608 6.38778 16.8974 6.49717C17.1867 6.60657 17.6012 6.77456 17.8162 6.87614C18.0313 6.97382 18.4184 7.16916 18.6764 7.3059C18.9345 7.44264 19.3138 7.66143 19.5171 7.79036C19.7204 7.91929 20.0098 8.11463 20.1623 8.22402C20.3148 8.32951 20.5963 8.54439 20.7879 8.70067C20.9795 8.85304 21.2766 9.11089 21.4448 9.26717C21.6716 9.47814 21.7849 9.6227 21.8749 9.81023C21.9883 10.0368 22 10.0993 22 10.4158C22 10.7088 21.9804 10.8026 21.8983 10.9823C21.8436 11.0995 21.7302 11.2753 21.6442 11.3652C21.5621 11.4589 21.3587 11.6191 21.1984 11.7207C21.0381 11.8223 20.7566 11.9864 20.5728 12.088C20.3891 12.1856 20.0919 12.3302 19.9081 12.4122C19.7243 12.4904 19.3294 12.6505 18.4809 12.9709L18.2346 12.5138C18.0978 12.2638 17.8866 11.9082 17.7654 11.7246C17.6442 11.541 17.3744 11.2206 17.1711 11.0057C16.9599 10.7909 16.6628 10.5291 16.4868 10.4119C16.3148 10.2986 16.0411 10.1462 15.8807 10.072C15.7204 9.99776 15.4154 9.88055 15.2043 9.81413C14.9971 9.74772 14.7664 9.69302 14.696 9.69302C14.6295 9.69302 14.5005 9.73209 14.4184 9.78288C14.3363 9.82976 14.2346 9.93134 14.1955 10.0056C14.1525 10.0798 14.1212 10.2009 14.1212 10.2673C14.1212 10.3377 14.1564 10.4666 14.1994 10.5525C14.2542 10.6658 14.3245 10.7323 14.4418 10.783C14.5357 10.826 14.7586 10.9081 14.9423 10.9667C15.1261 11.0214 15.3607 11.1151 15.4702 11.1659C15.5758 11.2206 15.7713 11.3417 15.9003 11.4316C16.0293 11.5215 16.2326 11.7012 16.35 11.8262C16.4712 11.9551 16.651 12.17 16.7488 12.3106C16.8465 12.4513 17.0147 12.7326 17.1281 12.9358C17.2375 13.1389 17.3236 13.3108 17.3196 13.3108C17.3118 13.3147 17.0342 13.3811 16.7019 13.4554C16.3695 13.5335 15.8299 13.639 15.5093 13.6937C15.1848 13.7445 14.6686 13.8226 14.3558 13.8617C13.9101 13.9164 13.5152 13.932 12.4985 13.932C11.3216 13.932 11.1652 13.9242 10.6999 13.8382C10.4184 13.7875 10.043 13.7054 9.85924 13.6546C9.67546 13.6038 9.261 13.428 8.94037 13.2678C8.61584 13.1077 8.24829 12.9397 8.11926 12.8928C7.97849 12.8459 7.74389 12.8029 7.53275 12.7912C7.33724 12.7795 7.11046 12.7873 7.02444 12.8107C6.93842 12.8342 6.78201 12.9123 6.67644 12.9826C6.57087 13.053 6.42229 13.1975 6.35191 13.3069C6.27761 13.4124 6.17986 13.5999 6.13685 13.7171C6.0782 13.8656 6.05474 14.0219 6.05474 14.225C6.05474 14.4477 6.08211 14.6001 6.16813 14.8501C6.23069 15.0338 6.36364 15.319 6.45748 15.4909C6.55523 15.6589 6.69599 15.8698 6.77028 15.9558C6.84457 16.0417 6.99316 16.155 7.10264 16.2058C7.21212 16.2566 7.37243 16.2957 7.4741 16.2957C7.57185 16.2957 7.79863 16.2488 7.9824 16.1941C8.26002 16.1082 8.39296 16.0886 8.80352 16.0847C9.11241 16.0808 9.37048 16.1003 9.50733 16.1355C9.62463 16.1668 9.83578 16.2371 9.97654 16.2957C10.1173 16.3543 10.4301 16.5184 10.6725 16.659C10.9658 16.8348 11.1378 16.9638 11.1887 17.0458C11.2356 17.124 11.2669 17.2451 11.2669 17.3506C11.2669 17.4717 11.2395 17.5693 11.1769 17.6631C11.1183 17.753 10.9853 17.8545 10.7977 17.9561C10.6373 18.0421 10.4145 18.1749 10.3089 18.2491C10.1994 18.3195 10 18.4953 9.85924 18.6359C9.71848 18.7766 9.52297 19.0266 9.42131 19.1868C9.31965 19.347 9.19062 19.6009 9.13587 19.7533C9.07722 19.9057 9.00684 20.1557 8.97556 20.3081C8.94428 20.4644 8.92082 20.8121 8.92082 21.0816C8.92082 21.4372 8.90518 21.6013 8.86217 21.6872C8.83089 21.7497 8.74487 21.8474 8.67449 21.9021C8.58847 21.9685 8.49853 21.9998 8.37341 21.9998C8.22483 22.0037 8.12708 21.9607 7.7478 21.7419C7.50147 21.6013 7.21994 21.4294 7.12219 21.359C7.02444 21.2926 6.86021 21.1481 6.75464 21.0426C6.64516 20.9332 6.48485 20.7339 6.39492 20.5933C6.30499 20.4526 6.18377 20.226 6.13294 20.0854C6.0782 19.9447 5.99609 19.683 5.94917 19.4993C5.89834 19.2962 5.82796 19.1165 5.76149 19.0305C5.70283 18.9563 5.50733 18.8 5.32356 18.6828C5.13978 18.5656 4.85044 18.3663 4.6784 18.2335C4.50635 18.1046 4.19746 17.8311 3.99022 17.6279C3.7869 17.4209 3.5132 17.1122 3.38025 16.9403C3.25122 16.7684 3.06745 16.5067 2.97752 16.3543C2.88368 16.2019 2.72727 15.905 2.62561 15.6901C2.52395 15.4752 2.39492 15.1588 2.34018 14.9869C2.28543 14.815 2.21114 14.561 2.17595 14.4204C2.14076 14.2797 2.08602 13.9828 2.05474 13.7562C2.02737 13.5296 2 13.1702 2 12.9553C2 12.7404 2.01955 12.4161 2.04301 12.2325C2.06256 12.0489 2.10948 11.7676 2.14076 11.6074C2.17595 11.4472 2.26588 11.1229 2.34409 10.8846C2.42229 10.6463 2.5826 10.2634 2.70381 10.0251C2.82111 9.78679 3.04399 9.41954 3.19257 9.20466C3.34115 8.98978 3.65005 8.62253 3.87683 8.38811C4.10362 8.1537 4.42033 7.85678 4.58065 7.72785C4.74096 7.59892 5.0303 7.38795 5.22581 7.26293C5.42131 7.13791 5.76149 6.93865 5.98827 6.82535C6.21505 6.70815 6.57478 6.54406 6.78983 6.4581C7.00489 6.37215 7.35679 6.24713 7.57185 6.18071C7.7869 6.1143 8.14663 6.01662 8.37341 5.96583C8.6002 5.91505 9.01075 5.83691 9.29228 5.79002C9.5738 5.74705 10.0039 5.69235 10.2502 5.66891C10.4966 5.64938 10.7781 5.62203 10.8759 5.61421C10.9736 5.6064 11.4897 5.6064 12.0293 5.61031ZM17.9062 9.6227C17.871 9.69302 17.8397 9.81023 17.8358 9.87664C17.8358 9.94697 17.871 10.0759 17.914 10.1618C17.9661 10.266 18.0443 10.3442 18.1486 10.3963C18.2346 10.4392 18.3597 10.4744 18.4223 10.4744C18.4848 10.4744 18.61 10.4392 18.696 10.3963C18.8003 10.3442 18.8785 10.266 18.9306 10.1618C18.9736 10.0759 19.0088 9.95088 19.0088 9.88837C19.0088 9.82195 18.9736 9.70083 18.9306 9.61488C18.8785 9.5107 18.8003 9.43256 18.696 9.38047C18.61 9.33749 18.4809 9.30233 18.4106 9.30233C18.3441 9.30233 18.2151 9.34531 18.129 9.4C18.043 9.45079 17.9413 9.55237 17.9062 9.6227ZM10.8133 15.0377L10.9892 15.065C11.087 15.0806 11.697 15.108 13.5152 15.1432L13.3196 15.2916C13.2102 15.3737 12.913 15.5417 12.6549 15.6706C12.3969 15.7995 12.0254 15.948 11.8338 16.0027C11.6422 16.0574 11.392 16.1121 11.2864 16.1238C11.1417 16.1394 11.0557 16.1238 10.9541 16.073C10.8798 16.0339 10.7781 15.9402 10.7273 15.8659C10.6764 15.7839 10.6373 15.6628 10.6334 15.569C10.6295 15.4713 10.6647 15.3346 10.7195 15.2213L10.8133 15.0377Z" fill="currentColor"/>
</svg>
