<svg viewBox="0 0 24 24" fill="currentColor" xmlns="http://www.w3.org/2000/svg">
<path d="M15.0771 9.55584C14.3434 10.4382 13.2373 11 12 11C10.7627 11 9.65663 10.4382 8.9229 9.55584C8.51904 9.83589 8.02869 10 7.5 10C6.11929 10 5 8.88071 5 7.5C5 6.11929 6.11929 5 7.5 5C7.83112 5 8.1472 5.06437 8.43642 5.18129C9.0986 3.88642 10.4458 3 12 3C13.5542 3 14.9014 3.88642 15.5636 5.18129C15.8528 5.06437 16.1689 5 16.5 5C17.8807 5 19 6.11929 19 7.5C19 8.88071 17.8807 10 16.5 10C15.9713 10 15.481 9.83589 15.0771 9.55584Z" fill="currentColor"/>
<path d="M12 12.5001C13.2737 12.5001 14.4468 12.0662 15.3784 11.3403C15.7348 11.4443 16.1113 11.5001 16.5 11.5001C16.7411 11.5001 16.9773 11.4788 17.2067 11.4379L15.6746 18.077C15.2797 19.788 13.7561 21.0001 12 21.0001C10.2439 21.0001 8.7203 19.788 8.32543 18.077L6.79333 11.4379C7.02272 11.4788 7.25887 11.5001 7.5 11.5001C7.88866 11.5001 8.26525 11.4443 8.62163 11.3403C9.55321 12.0662 10.7263 12.5001 12 12.5001ZM10.916 15.376C10.5714 15.1462 10.1057 15.2393 9.87597 15.584C9.64621 15.9286 9.73933 16.3943 10.084 16.624L11.25 17.4014V18.5C11.25 18.9142 11.5858 19.25 12 19.25C12.4142 19.25 12.75 18.9142 12.75 18.5V17.4014L13.916 16.624C14.2607 16.3943 14.3538 15.9286 14.124 15.584C13.8943 15.2393 13.4286 15.1462 13.084 15.376L12 16.0986L10.916 15.376Z" fill="currentColor"/>
<path d="M4.37728 10H2.16272C2.55533 11.165 3.61469 12 4.85989 12C5.50696 12 6.10384 11.7744 6.58304 11.3944C5.69862 11.187 4.92725 10.6861 4.37728 10Z" fill="currentColor"/>
<path d="M17.4265 11.3922C17.904 11.7676 18.4973 11.9902 19.1401 11.9902C20.3818 11.9902 21.4387 11.1602 21.834 10H19.6227C19.0747 10.6836 18.3069 11.1834 17.4265 11.3922Z" fill="currentColor"/>
</svg>
