<svg viewBox="0 0 24 24" fill="currentColor" xmlns="http://www.w3.org/2000/svg">
<path d="M19.0026 5H21.0675C21.567 5 22 5.39817 22 5.92906C22 6.29405 21.9667 6.92449 21.9001 7.55492C21.8827 7.74501 21.8744 7.94409 21.8657 8.15218C21.8577 8.34364 21.8494 8.54272 21.8335 8.74943V8.78261C21.8002 9.47941 21.7669 10.2426 21.7669 10.9725C21.7669 11.1716 21.6336 11.3043 21.4338 11.3043C20.369 11.3043 20.4208 10.5979 20.4816 9.76888C20.4881 9.68041 20.4947 9.59055 20.5 9.5C20.2722 9.61349 20.1359 9.69289 20.0259 9.75698C19.8786 9.84278 19.7785 9.90114 19.5688 9.97712V10.4085C19.5688 12.5984 18.8694 14.7551 17.6038 16.5137L20.2349 17.7082C20.6678 17.8741 20.8343 18.3387 20.7677 18.77C20.7011 19.2014 20.3348 19.5 19.8685 19.5H16.538C15.6721 19.5 14.8062 19.2014 14.1401 18.6041H8.34508C7.94542 19.1682 7.27933 19.5 6.57993 19.5H2.94972C2.51676 19.5 2.18371 19.2677 2.05049 18.8364C1.91727 18.405 2.05049 18.0069 2.41684 17.7746L3.81564 16.8455V16.746C3.81564 13.2288 6.67984 10.4085 10.1768 10.4085H10.743C11.8088 10.4085 12.7746 9.91076 13.4074 9.04806L14.8062 7.12357C15.772 5.79634 17.3373 5 19.0026 5ZM19.75 7.5C20.1642 7.5 20.5 7.16421 20.5 6.75C20.5 6.33579 20.1642 6 19.75 6C19.3358 6 19 6.33579 19 6.75C19 7.16421 19.3358 7.5 19.75 7.5Z" fill="currentColor"/>
</svg>
