<svg viewBox="0 0 24 24" fill="currentColor" xmlns="http://www.w3.org/2000/svg">
<path d="M17.4067 6.59327C16.1752 5.3618 14.881 4.29138 13.5801 3.40229C15.0691 2.64441 16.4791 2.18882 17.7024 2.04768C19.2451 1.86968 20.385 2.19749 21.0938 2.90624C21.8025 3.61499 22.1303 4.75487 21.9523 6.29762C21.8112 7.52089 21.3556 8.93091 20.5977 10.42C19.7086 9.11899 18.6382 7.82475 17.4067 6.59327Z" fill="currentColor"/>
<path d="M16.2601 7.73986C17.6367 9.11645 18.7915 10.5677 19.6963 12.0002C18.7915 13.4326 17.6368 14.8836 16.2603 16.2601C14.8836 17.6367 13.4324 18.7916 11.9999 19.6964C10.5674 18.7916 9.11627 17.6368 7.73972 16.2603C6.36319 14.8837 5.20838 13.4326 4.30365 12.0002C5.20841 10.5676 6.3633 9.11635 7.73994 7.73971C9.11642 6.36322 10.5675 5.20843 11.9999 4.30371C13.4324 5.20846 14.8835 6.36329 16.2601 7.73986ZM11.9997 14.7034C13.4923 14.7034 14.7023 13.4934 14.7023 12.0007C14.7023 10.5081 13.4923 9.29809 11.9997 9.29809C10.5071 9.29809 9.29707 10.5081 9.29707 12.0007C9.29707 13.4934 10.5071 14.7034 11.9997 14.7034Z" fill="currentColor"/>
<path d="M13.5801 20.5978C14.8811 19.7087 16.1754 18.6383 17.4069 17.4067C18.6383 16.1754 19.7086 14.8812 20.5977 13.5804C21.3555 15.0694 21.811 16.4793 21.9521 17.7025C22.1301 19.2452 21.8023 20.385 21.0935 21.0938C20.3848 21.8025 19.245 22.1303 17.7023 21.9523C16.4791 21.8112 15.0691 21.3557 13.5801 20.5978Z" fill="currentColor"/>
<path d="M6.59313 17.4069C7.82456 18.6383 9.11874 19.7087 10.4197 20.5978C8.93073 21.3556 7.52083 21.8111 6.29766 21.9522C4.75501 22.1301 3.6152 21.8023 2.90648 21.0936C2.19776 20.3849 1.86995 19.2451 2.04791 17.7024C2.189 16.4793 2.64451 15.0694 3.40227 13.5804C4.29133 14.8813 5.36172 16.1755 6.59313 17.4069Z" fill="currentColor"/>
<path d="M3.40221 10.42C4.29132 9.1189 5.36179 7.82461 6.59331 6.59309C7.82469 5.3617 9.11881 4.29134 10.4197 3.40229C8.93068 2.64446 7.52072 2.18891 6.2975 2.04779C4.75481 1.86982 3.61497 2.19763 2.90624 2.90636C2.1975 3.61511 1.86969 4.75496 2.04768 6.29768C2.18881 7.52092 2.64437 8.9309 3.40221 10.42Z" fill="currentColor"/>
</svg>
