<svg viewBox="0 0 24 24" fill="currentColor" xmlns="http://www.w3.org/2000/svg">
<path d="M15.75 4H19C20.1046 4 21 4.89543 21 6V9C21 9.55228 20.5523 10 20 10H4C3.44772 10 3 9.55228 3 9V6C3 4.89543 3.89543 4 5 4H8.25C8.25 2.48122 9.48122 1.25 11 1.25H13C14.5188 1.25 15.75 2.48122 15.75 4ZM11 2.75C10.3096 2.75 9.75 3.30964 9.75 4H14.25C14.25 3.30964 13.6904 2.75 13 2.75H11ZM9.25 7C9.25 7.41421 9.58579 7.75 10 7.75H14C14.4142 7.75 14.75 7.41421 14.75 7C14.75 6.58579 14.4142 6.25 14 6.25H10C9.58579 6.25 9.25 6.58579 9.25 7Z" fill="currentColor"/>
<path d="M4 18.25V11.5H20V18.25H15V17C15 16.4477 14.5523 16 14 16H10C9.44772 16 9 16.4477 9 17V18.25H4Z" fill="currentColor"/>
<path d="M4 19.75V20C4 21.1046 4.89543 22 6 22H18C19.1046 22 20 21.1046 20 20V19.75H4Z" fill="currentColor"/>
</svg>
