<svg viewBox="0 0 24 24" fill="currentColor" xmlns="http://www.w3.org/2000/svg">
<path d="M6 1.25C4.89543 1.25 4 2.14543 4 3.25V20C4 21.1046 4.89543 22 6 22H19C19.5523 22 20 21.5523 20 21V6C20 5.53404 19.6813 5.14251 19.25 5.0315V2.75C19.6642 2.75 20 2.41421 20 2C20 1.58579 19.6642 1.25 19.25 1.25H6ZM17.75 2.75V5H6.5C5.94772 5 5.5 4.55228 5.5 4V3.75C5.5 3.19772 5.94772 2.75 6.5 2.75H17.75ZM10.0303 7.96967L13.0303 10.9697C13.3232 11.2626 13.3232 11.7374 13.0303 12.0303C12.7374 12.3232 12.2626 12.3232 11.9697 12.0303L10.25 10.3107V17.5C10.25 17.9142 9.91421 18.25 9.5 18.25C9.08579 18.25 8.75 17.9142 8.75 17.5V10.3107L7.03033 12.0303C6.73744 12.3232 6.26256 12.3232 5.96967 12.0303C5.67678 11.7374 5.67678 11.2626 5.96967 10.9697L8.96967 7.96967C9.26256 7.67678 9.73744 7.67678 10.0303 7.96967ZM15.25 9.5V16.6893L16.9697 14.9697C17.2626 14.6768 17.7374 14.6768 18.0303 14.9697C18.3232 15.2626 18.3232 15.7374 18.0303 16.0303L15.0303 19.0303C14.7374 19.3232 14.2626 19.3232 13.9697 19.0303L10.9697 16.0303C10.6768 15.7374 10.6768 15.2626 10.9697 14.9697C11.2626 14.6768 11.7374 14.6768 12.0303 14.9697L13.75 16.6893V9.5C13.75 9.08579 14.0858 8.75 14.5 8.75C14.9142 8.75 15.25 9.08579 15.25 9.5Z" fill="currentColor"/>
</svg>
