<svg viewBox="0 0 24 24" fill="currentColor" xmlns="http://www.w3.org/2000/svg">
<path d="M3.9516 10.0586V16.1092C5.01327 16.26 5.65339 16.395 6.05933 16.4983C6.46526 16.6094 7.08197 16.8159 7.42545 16.9588C7.76893 17.1097 8.27635 17.3558 8.55738 17.5146C8.83841 17.6734 9.35363 18.0149 9.71272 18.2849C10.064 18.5548 10.6183 19.0392 10.9383 19.3648L11.25 19.6818V8.38292C11.25 8.16866 11.1826 7.95894 11.0487 7.79166C10.8024 7.48401 10.5521 7.2121 10.3216 6.97767C9.9235 6.5727 9.26776 6.02481 8.8306 5.73102C8.40125 5.43722 7.78454 5.0799 7.46448 4.92903C7.14442 4.77816 6.59797 4.56377 6.25449 4.45261C5.91101 4.34938 5.2943 4.19851 4.88837 4.12705C4.48243 4.05558 4.09992 4 4.05308 4C3.97502 4 3.9516 5.26253 3.9516 10.0586Z" fill="currentColor"/>
<path d="M12.75 19.706V8.40099C12.75 8.17259 12.8282 7.95107 12.9716 7.77327L13.0304 7.70025C13.3349 7.30323 13.8345 6.77122 14.139 6.50918C14.4356 6.24715 14.982 5.83424 15.3489 5.59603C15.7158 5.35782 16.2545 5.04814 16.5589 4.90521C16.8556 4.76228 17.402 4.55583 17.7689 4.43672C18.1358 4.32556 18.7135 4.18263 19.057 4.11911C19.4005 4.06352 19.7596 4.01588 20.0328 4V16.1489L19.541 16.1965C19.2756 16.2203 18.8072 16.2918 18.5105 16.3553C18.2061 16.4189 17.6831 16.5618 17.3396 16.6809C16.9961 16.7921 16.4496 17.0065 16.1296 17.1573C15.8095 17.3082 15.1928 17.6655 14.7635 17.9514C14.3566 18.2273 13.767 18.709 12.75 19.706Z" fill="currentColor"/>
<path d="M2.4516 10.0586V17.4111L3.74056 17.5943C4.74947 17.7376 5.33276 17.8619 5.67618 17.9486C6.0284 18.0459 6.56183 18.2255 6.83634 18.3384C7.15148 18.4775 7.59991 18.6965 7.81941 18.8206C8.01766 18.9326 8.43375 19.2054 8.74858 19.4372C8.47888 19.3631 8.18024 19.2898 7.93286 19.2377C7.21468 19.0789 6.90242 19.0551 5.43482 19.0551C3.96721 19.063 3.64715 19.0868 2 19.4441L2.03903 6.98559L2.45755 6.854C2.45335 7.6905 2.4516 8.74374 2.4516 10.0586Z" fill="currentColor"/>
<path d="M15.2601 19.4494C15.3983 19.3393 15.5093 19.2582 15.6002 19.1963C15.99 18.9373 16.5369 18.6236 16.7691 18.5141C17.0279 18.3922 17.5147 18.2008 17.8015 18.108L17.8163 18.1032L17.831 18.0981C18.1141 17.9999 18.5753 17.8741 18.8169 17.8237L18.8246 17.8221C19.0663 17.7703 19.4745 17.7086 19.6751 17.6906L21.5328 17.5106V6.88507C21.6572 6.92429 21.811 6.97303 22 7.03325L21.9844 19.4441L21.1023 19.2536C20.345 19.0868 20.0094 19.063 18.5886 19.063C17.1678 19.0551 16.84 19.0789 16.1296 19.2377C15.8722 19.2919 15.5518 19.3717 15.2601 19.4494Z" fill="currentColor"/>
</svg>
