<svg viewBox="0 0 24 24" fill="currentColor" xmlns="http://www.w3.org/2000/svg">
<path d="M4 3.25C4 2.14543 4.89543 1.25 6 1.25H19.25C19.6642 1.25 20 1.58579 20 2C20 2.41421 19.6642 2.75 19.25 2.75V5.0315C19.6813 5.14251 20 5.53404 20 6V21C20 21.5523 19.5523 22 19 22H6C4.89543 22 4 21.1046 4 20V3.25ZM17.75 5V2.75H6.5C5.94772 2.75 5.5 3.19772 5.5 3.75V4C5.5 4.55228 5.94772 5 6.5 5H17.75ZM7 9V13C7 13.5523 7.44772 14 8 14H16C16.5523 14 17 13.5523 17 13V9C17 8.44772 16.5523 8 16 8H8C7.44772 8 7 8.44772 7 9ZM8 16.25C7.58579 16.25 7.25 16.5858 7.25 17C7.25 17.4142 7.58579 17.75 8 17.75H16C16.4142 17.75 16.75 17.4142 16.75 17C16.75 16.5858 16.4142 16.25 16 16.25H8Z" fill="currentColor"/>
</svg>
