<svg viewBox="0 0 24 24" fill="currentColor" xmlns="http://www.w3.org/2000/svg">
<path d="M4 3.25C4 2.14543 4.89543 1.25 6 1.25H19.25C19.6642 1.25 20 1.58579 20 2C20 2.41421 19.6642 2.75 19.25 2.75V5.0315C19.6813 5.14251 20 5.53404 20 6V21C20 21.5523 19.5523 22 19 22H6C4.89543 22 4 21.1046 4 20V3.25ZM17.75 5V2.75H6.5C5.94772 2.75 5.5 3.19772 5.5 3.75V4C5.5 4.55228 5.94772 5 6.5 5H17.75ZM7.25 9C7.25 9.41421 7.58579 9.75 8 9.75H16C16.4142 9.75 16.75 9.41421 16.75 9C16.75 8.58579 16.4142 8.25 16 8.25H8C7.58579 8.25 7.25 8.58579 7.25 9ZM8 11.25C7.58579 11.25 7.25 11.5858 7.25 12C7.25 12.4142 7.58579 12.75 8 12.75H16C16.4142 12.75 16.75 12.4142 16.75 12C16.75 11.5858 16.4142 11.25 16 11.25H8Z" fill="currentColor"/>
</svg>
