<svg viewBox="0 0 24 24" fill="currentColor" xmlns="http://www.w3.org/2000/svg">
<path d="M22 17.75H20.75V21.25H22C22.4142 21.25 22.75 21.5858 22.75 22C22.75 22.4142 22.4142 22.75 22 22.75H4.5C2.70507 22.75 1.25 21.2949 1.25 19.5C1.25 17.7051 2.70507 16.25 4.5 16.25H22C22.4142 16.25 22.75 16.5858 22.75 17C22.75 17.4142 22.4142 17.75 22 17.75Z" fill="currentColor"/>
<path d="M2 10.25H3.25V13.75H2C1.58579 13.75 1.25 14.0858 1.25 14.5C1.25 14.9142 1.58579 15.25 2 15.25H19.5C21.2949 15.25 22.75 13.7949 22.75 12C22.75 10.2051 21.2949 8.75 19.5 8.75H2C1.58579 8.75 1.25 9.08579 1.25 9.5C1.25 9.91421 1.58579 10.25 2 10.25Z" fill="currentColor"/>
<path d="M22 2.75H20.75V6.25H22C22.4142 6.25 22.75 6.58579 22.75 7C22.75 7.41421 22.4142 7.75 22 7.75H4.5C2.70507 7.75 1.25 6.29493 1.25 4.5C1.25 2.70507 2.70507 1.25 4.5 1.25H22C22.4142 1.25 22.75 1.58579 22.75 2C22.75 2.41421 22.4142 2.75 22 2.75Z" fill="currentColor"/>
</svg>
