<svg viewBox="0 0 24 24" fill="currentColor" xmlns="http://www.w3.org/2000/svg">
<path d="M3.9516 10.0586V16.1092C5.01327 16.26 5.65339 16.395 6.05933 16.4983C6.46526 16.6094 7.08197 16.8159 7.42545 16.9588C7.76893 17.1097 8.27635 17.3558 8.55738 17.5146C8.83841 17.6734 9.35363 18.0149 9.71272 18.2849C10.064 18.5548 10.6183 19.0392 10.9383 19.3648L11.25 19.6818V8.38292C11.25 8.16866 11.1826 7.95894 11.0487 7.79166C10.8024 7.48401 10.5521 7.2121 10.3216 6.97767C9.9235 6.5727 9.26776 6.02481 8.8306 5.73102C8.40125 5.43722 7.78454 5.0799 7.46448 4.92903C7.14442 4.77816 6.59797 4.56377 6.25449 4.45261C5.91101 4.34938 5.2943 4.19851 4.88837 4.12705C4.48243 4.05558 4.09992 4 4.05308 4C3.97502 4 3.9516 5.26253 3.9516 10.0586ZM5.27239 11.8181C5.37285 11.4163 5.78006 11.1719 6.1819 11.2724C6.63945 11.3868 7.2242 11.6928 7.78544 12.0598C8.36481 12.4386 8.98945 12.9288 9.53033 13.4697C9.82322 13.7626 9.82322 14.2374 9.53033 14.5303C9.23744 14.8232 8.76256 14.8232 8.46967 14.5303C8.01055 14.0712 7.46852 13.6447 6.96456 13.3152C6.44247 12.9739 6.02722 12.7799 5.8181 12.7276C5.41625 12.6271 5.17193 12.2199 5.27239 11.8181ZM5.8181 8.72761C5.41625 8.62715 5.17193 8.21994 5.27239 7.8181C5.37285 7.41625 5.78006 7.17193 6.1819 7.27239C6.63945 7.38678 7.2242 7.69281 7.78544 8.05977C8.36481 8.43859 8.98945 8.92879 9.53033 9.46967C9.82322 9.76256 9.82322 10.2374 9.53033 10.5303C9.23744 10.8232 8.76256 10.8232 8.46967 10.5303C8.01055 10.0712 7.46852 9.64474 6.96456 9.31523C6.44247 8.97386 6.02722 8.77989 5.8181 8.72761Z" fill="currentColor"/>
<path d="M12.75 19.706C13.767 18.709 14.3566 18.2273 14.7635 17.9514C15.1928 17.6655 15.8095 17.3082 16.1296 17.1573C16.4496 17.0065 16.9961 16.7921 17.3396 16.6809C17.6831 16.5618 18.2061 16.4189 18.5105 16.3553C18.8072 16.2918 19.2756 16.2203 19.541 16.1965L20.0328 16.1489V4C19.7596 4.01588 19.4005 4.06352 19.057 4.11911C18.7135 4.18263 18.1358 4.32556 17.7689 4.43672C17.402 4.55583 16.8556 4.76228 16.5589 4.90521C16.2545 5.04814 15.7158 5.35782 15.3489 5.59603C14.982 5.83424 14.4356 6.24715 14.139 6.50918C13.8345 6.77122 13.3349 7.30323 13.0304 7.70025L12.9716 7.77327C12.8282 7.95107 12.75 8.17259 12.75 8.40099V19.706ZM18.7276 7.8181C18.8281 8.21994 18.5837 8.62715 18.1819 8.72761C17.9728 8.77989 17.5575 8.97386 17.0354 9.31523C16.5315 9.64474 15.9895 10.0712 15.5303 10.5303C15.2374 10.8232 14.7626 10.8232 14.4697 10.5303C14.1768 10.2374 14.1768 9.76256 14.4697 9.46967C15.0105 8.92879 15.6352 8.43859 16.2146 8.05977C16.7758 7.69281 17.3606 7.38678 17.8181 7.27239C18.2199 7.17193 18.6271 7.41625 18.7276 7.8181ZM18.1819 12.7276C17.9728 12.7799 17.5575 12.9739 17.0354 13.3152C16.5315 13.6447 15.9895 14.0712 15.5303 14.5303C15.2374 14.8232 14.7626 14.8232 14.4697 14.5303C14.1768 14.2374 14.1768 13.7626 14.4697 13.4697C15.0105 12.9288 15.6352 12.4386 16.2146 12.0598C16.7758 11.6928 17.3606 11.3868 17.8181 11.2724C18.2199 11.1719 18.6271 11.4163 18.7276 11.8181C18.8281 12.2199 18.5837 12.6271 18.1819 12.7276Z" fill="currentColor"/>
<path d="M2.4516 17.4111V10.0586C2.4516 8.74374 2.45335 7.6905 2.45755 6.854L2.03903 6.98559L2 19.4441C3.64715 19.0868 3.96721 19.063 5.43482 19.0551C6.90242 19.0551 7.21468 19.0789 7.93286 19.2377C8.18024 19.2898 8.47888 19.3631 8.74858 19.4372C8.43375 19.2054 8.01766 18.9326 7.81941 18.8206C7.59991 18.6965 7.15148 18.4775 6.83634 18.3384C6.56183 18.2255 6.0284 18.0459 5.67618 17.9486C5.33276 17.8619 4.74947 17.7376 3.74056 17.5943L2.4516 17.4111Z" fill="currentColor"/>
<path d="M15.2601 19.4494C15.3983 19.3393 15.5093 19.2582 15.6002 19.1963C15.99 18.9373 16.5369 18.6236 16.7691 18.5141C17.0279 18.3922 17.5147 18.2008 17.8015 18.108L17.8163 18.1032L17.831 18.0981C18.1141 17.9999 18.5753 17.8741 18.8169 17.8237L18.8246 17.8221C19.0663 17.7703 19.4745 17.7086 19.6751 17.6906L21.5328 17.5106V6.88507C21.6572 6.92429 21.811 6.97303 22 7.03325L21.9844 19.4441L21.1023 19.2536C20.345 19.0868 20.0094 19.063 18.5886 19.063C17.1678 19.0551 16.84 19.0789 16.1296 19.2377C15.8722 19.2919 15.5518 19.3717 15.2601 19.4494Z" fill="currentColor"/>
</svg>
