<svg viewBox="0 0 24 24" fill="currentColor" xmlns="http://www.w3.org/2000/svg">
<path d="M5 3.25C4.58579 3.25 4.25 3.58579 4.25 4V8.68934L1.46967 11.4697C1.17678 11.7626 1.17678 12.2374 1.46967 12.5303L4.25 15.3107V20C4.25 20.4142 4.58579 20.75 5 20.75H9C9.41421 20.75 9.75 20.4142 9.75 20C9.75 19.5858 9.41421 19.25 9 19.25H5.75V15C5.75 14.8011 5.67098 14.6103 5.53033 14.4697L3.06066 12L5.53033 9.53033C5.67098 9.38968 5.75 9.19891 5.75 9V4.75H9C9.41421 4.75 9.75 4.41421 9.75 4C9.75 3.58579 9.41421 3.25 9 3.25H5Z" fill="currentColor"/>
<path d="M15 3.25C14.5858 3.25 14.25 3.58579 14.25 4C14.25 4.41421 14.5858 4.75 15 4.75H18.25V9C18.25 9.19891 18.329 9.38968 18.4697 9.53033L20.9393 12L18.4697 14.4697C18.329 14.6103 18.25 14.8011 18.25 15V19.25H15C14.5858 19.25 14.25 19.5858 14.25 20C14.25 20.4142 14.5858 20.75 15 20.75H19C19.4142 20.75 19.75 20.4142 19.75 20V15.3107L22.5303 12.5303C22.8232 12.2374 22.8232 11.7626 22.5303 11.4697L19.75 8.68934V4C19.75 3.58579 19.4142 3.25 19 3.25H15Z" fill="currentColor"/>
</svg>
