<svg viewBox="0 0 24 24" fill="currentColor" xmlns="http://www.w3.org/2000/svg">
<path d="M4 2C2.89543 2 2 2.89543 2 4V14C2 15.1046 2.89543 16 4 16H5.69989C5.82799 15.6932 6.01766 15.4061 6.26889 15.1575L6.64743 14.7829L6.64463 14.2504C6.63703 12.8081 7.80812 11.637 9.25036 11.6446L9.78289 11.6474L10.1575 11.2689C11.1719 10.2437 12.8281 10.2437 13.8425 11.2689L14.2171 11.6474L14.7496 11.6446C16.1919 11.637 17.363 12.8081 17.3554 14.2504L17.3526 14.7829L17.7311 15.1575C17.9823 15.4061 18.172 15.6932 18.3001 16H20C21.1046 16 22 15.1046 22 14V4C22 2.89543 21.1046 2 20 2H4ZM8.25 5C8.25 4.58579 8.58579 4.25 9 4.25H15C15.4142 4.25 15.75 4.58579 15.75 5C15.75 5.41421 15.4142 5.75 15 5.75H9C8.58579 5.75 8.25 5.41421 8.25 5ZM6 8.25H18C18.4142 8.25 18.75 8.58579 18.75 9C18.75 9.41421 18.4142 9.75 18 9.75H6C5.58579 9.75 5.25 9.41421 5.25 9C5.25 8.58579 5.58579 8.25 6 8.25Z" fill="currentColor"/>
<path d="M12.7763 12.324C12.3489 11.892 11.6511 11.892 11.2237 12.324L10.7285 12.8244C10.522 13.0331 10.2401 13.1499 9.94647 13.1483L9.24246 13.1446C8.63481 13.1414 8.14141 13.6348 8.14461 14.2425L8.14832 14.9465C8.14986 15.2401 8.0331 15.522 7.82438 15.7285L7.32395 16.2237C6.89202 16.6511 6.89202 17.3489 7.32395 17.7763L7.82438 18.2715C8.0331 18.478 8.14986 18.7599 8.14832 19.0535L8.14461 19.7575C8.14141 20.3652 8.63481 20.8586 9.24246 20.8554L9.94647 20.8517C10.2401 20.8501 10.522 20.9669 10.7285 21.1756L11.2237 21.676C11.6511 22.108 12.3489 22.108 12.7763 21.676L13.2715 21.1756C13.478 20.9669 13.7599 20.8501 14.0535 20.8517L14.7575 20.8554C15.3652 20.8586 15.8586 20.3652 15.8554 19.7575L15.8517 19.0535C15.8501 18.7599 15.9669 18.478 16.1756 18.2715L16.676 17.7763C17.108 17.3489 17.108 16.6511 16.676 16.2237L16.1756 15.7285C15.9669 15.522 15.8501 15.2401 15.8517 14.9465L15.8554 14.2425C15.8586 13.6348 15.3652 13.1414 14.7575 13.1446L14.0535 13.1483C13.7599 13.1499 13.478 13.0331 13.2715 12.8244L12.7763 12.324ZM15.0303 16.0303L12.0303 19.0303C11.7374 19.3232 11.2626 19.3232 10.9697 19.0303L9.46967 17.5303C9.17678 17.2374 9.17678 16.7626 9.46967 16.4697C9.76256 16.1768 10.2374 16.1768 10.5303 16.4697L11.5 17.4393L13.9697 14.9697C14.2626 14.6768 14.7374 14.6768 15.0303 14.9697C15.3232 15.2626 15.3232 15.7374 15.0303 16.0303Z" fill="currentColor"/>
</svg>
