<svg viewBox="0 0 24 24" fill="currentColor" xmlns="http://www.w3.org/2000/svg">
<path d="M14.1716 2C14.1978 2 14.2239 2.00051 14.25 2.00154V5C14.25 6.51878 15.4812 7.75 17 7.75H19.9985C19.9995 7.77608 20 7.80223 20 7.82843V20C20 21.1046 19.1046 22 18 22H6C4.89543 22 4 21.1046 4 20V4C4 2.89543 4.89543 2 6 2H14.1716ZM11.7607 14.1635L11.0949 15.7488C11.0569 15.8391 10.9755 15.901 10.8817 15.9109L9.23561 16.0839C9.00927 16.1076 8.91797 16.4018 9.08773 16.5603L10.3223 17.713C10.3926 17.7787 10.4238 17.8789 10.4037 17.9753L10.0522 19.6675C10.0039 19.9002 10.2429 20.082 10.4394 19.9619L11.8683 19.0891C11.909 19.0642 11.9545 19.0518 12 19.0518C12.0455 19.0518 12.091 19.0642 12.1317 19.0891L13.5606 19.9619C13.7571 20.082 13.9961 19.9002 13.9478 19.6675L13.5963 17.9753C13.5762 17.8789 13.6074 17.7787 13.6777 17.713L14.9123 16.5603C15.082 16.4018 14.9907 16.1076 14.7644 16.0839L13.1183 15.9109C13.0245 15.901 12.9431 15.8391 12.9051 15.7488L12.2393 14.1635C12.1477 13.9455 11.8523 13.9455 11.7607 14.1635ZM7.25 8C7.25 8.41421 7.58579 8.75 8 8.75H12C12.4142 8.75 12.75 8.41421 12.75 8C12.75 7.58579 12.4142 7.25 12 7.25H8C7.58579 7.25 7.25 7.58579 7.25 8ZM8 10.25C7.58579 10.25 7.25 10.5858 7.25 11C7.25 11.4142 7.58579 11.75 8 11.75H16C16.4142 11.75 16.75 11.4142 16.75 11C16.75 10.5858 16.4142 10.25 16 10.25H8Z" fill="currentColor"/>
<path d="M15.75 2.75L19.25 6.25H17C16.3096 6.25 15.75 5.69036 15.75 5V2.75Z" fill="currentColor"/>
</svg>
