<svg viewBox="0 0 24 24" fill="currentColor" xmlns="http://www.w3.org/2000/svg">
<path d="M11 17.4C11 16.6268 11.6156 16 12.375 16H20.625C21.3844 16 22 16.6268 22 17.4C22 20.4928 19.5376 23 16.5 23C13.4624 23 11 20.4928 11 17.4Z" fill="currentColor"/>
<path d="M19.25 11.8C19.25 13.3464 18.0188 14.6 16.5 14.6C14.9812 14.6 13.75 13.3464 13.75 11.8C13.75 10.2536 14.9812 9 16.5 9C18.0188 9 19.25 10.2536 19.25 11.8Z" fill="currentColor"/>
<path d="M6.13708 9.24827L7.12574 6.67999H7.14345L8.13983 9.24827H6.13708Z" fill="currentColor"/>
<path d="M3 2C2.44772 2 2 2.44772 2 3V15C2 15.5523 2.44772 16 3 16H9.85756C10.3432 15.1124 11.2779 14.5 12.375 14.5H13.1926C12.6015 13.7584 12.25 12.8165 12.25 11.8C12.25 11.7261 12.2519 11.6526 12.2555 11.5795C12.2277 11.66 12.1885 11.7294 12.1378 11.7876C12.0256 11.9163 11.8633 11.9807 11.6507 11.9807C11.4382 11.9807 11.2728 11.9163 11.1548 11.7876C11.0426 11.6589 10.9865 11.4754 10.9865 11.2372V5.74345C10.9865 5.49885 11.0426 5.3154 11.1548 5.1931C11.2728 5.06437 11.4411 5 11.6596 5C11.8721 5 12.0345 5.06437 12.1467 5.1931C12.2647 5.3154 12.3238 5.49885 12.3238 5.74345V7.78909C12.426 7.60789 12.5706 7.45383 12.7577 7.3269C13.0234 7.14667 13.3275 7.05655 13.6699 7.05655C14.0537 7.05655 14.3873 7.15632 14.6707 7.35586C14.8223 7.46257 14.9561 7.59322 15.0722 7.7478C15.5172 7.58752 15.9975 7.5 16.5 7.5C16.6708 7.5 16.8391 7.51011 17.0043 7.52976C17.1643 7.40552 17.344 7.30572 17.5433 7.23035C17.8326 7.11448 18.1543 7.05655 18.5086 7.05655C18.6916 7.05655 18.8865 7.0823 19.0931 7.13379C19.2998 7.17885 19.5035 7.25931 19.7042 7.37517C19.8223 7.4331 19.902 7.51678 19.9433 7.62621C19.9906 7.7292 20.0083 7.83862 19.9965 7.95448C19.9846 8.06391 19.9463 8.16368 19.8813 8.25379C19.8223 8.33747 19.7455 8.3954 19.6511 8.42759C19.5566 8.45333 19.4503 8.43402 19.3322 8.36966C19.2201 8.29885 19.102 8.24736 18.978 8.21517C18.9141 8.19777 18.852 8.18508 18.7917 8.17709C19.975 8.94579 20.75 10.2907 20.75 11.8C20.75 12.8165 20.3985 13.7584 19.8074 14.5H20.625C21.1264 14.5 21.5938 14.6279 22 14.8515V3C22 2.44772 21.5523 2 21 2H3ZM4.61056 11.9807C4.44525 11.9807 4.30945 11.9389 4.20317 11.8552C4.1028 11.7715 4.03786 11.6589 4.00834 11.5172C3.98472 11.3756 4.01129 11.2179 4.08804 11.0441L6.35526 5.62759C6.44972 5.40874 6.5619 5.25103 6.6918 5.15448C6.82169 5.05149 6.97225 5 7.14347 5C7.31469 5 7.46525 5.05149 7.59514 5.15448C7.72503 5.25103 7.83426 5.40874 7.92282 5.62759L10.2077 11.0441C10.2845 11.2179 10.3111 11.3789 10.2875 11.5269C10.2697 11.6685 10.2107 11.7811 10.1103 11.8648C10.01 11.9421 9.88007 11.9807 9.72065 11.9807C9.51991 11.9807 9.36345 11.9292 9.25127 11.8262C9.14499 11.7232 9.05052 11.5623 8.96787 11.3434L8.60087 10.4166H5.67995L5.31907 11.3434C5.23051 11.5687 5.13604 11.7329 5.03567 11.8359C4.9412 11.9324 4.7995 11.9807 4.61056 11.9807Z" fill="currentColor"/>
<path d="M9.52474 18C9.58266 18.6994 9.74089 19.3712 9.98512 20H3C2.44772 20 2 19.5523 2 19C2 18.4477 2.44772 18 3 18H9.52474Z" fill="currentColor"/>
<path d="M13.8914 8.40434C13.7251 8.23316 13.5184 8.14758 13.2714 8.14758C13.0825 8.14758 12.9142 8.19585 12.7666 8.2924C12.6249 8.38896 12.5127 8.54022 12.4301 8.7462C12.3474 8.94574 12.3061 9.20321 12.3061 9.51861C12.3061 9.89389 12.3626 10.1932 12.4755 10.4166C12.7449 9.61554 13.2417 8.91688 13.8914 8.40434Z" fill="currentColor"/>
</svg>
