<svg viewBox="0 0 24 24" fill="currentColor" xmlns="http://www.w3.org/2000/svg">
<path d="M4.75 5C4.75 4.86193 4.86193 4.75 5 4.75H19C19.1381 4.75 19.25 4.86193 19.25 5V19C19.25 19.1381 19.1381 19.25 19 19.25H17.2073C17.235 19.1718 17.25 19.0877 17.25 19C17.25 18.5858 16.9142 18.25 16.5 18.25H14.5C14.0858 18.25 13.75 18.5858 13.75 19C13.75 19.0877 13.765 19.1718 13.7927 19.25H5C4.86193 19.25 4.75 19.1381 4.75 19V5ZM12 11C13.1046 11 14 10.1046 14 9C14 7.89543 13.1046 7 12 7C10.8954 7 10 7.89543 10 9C10 10.1046 10.8954 11 12 11ZM9 12C8.44772 12 8 12.4477 8 13C8 15.2091 9.79086 17 12 17C14.2091 17 16 15.2091 16 13C16 12.4477 15.5523 12 15 12H9ZM17 13C17 13.1827 16.9902 13.3631 16.9711 13.5407C17.5947 13.1043 18 12.3976 18 11.6C18 11.2686 17.7202 11 17.375 11H15C16.1046 11 17 11.8954 17 13ZM9 9C9 8.70758 9.04184 8.42492 9.11986 8.1577C8.93716 8.05736 8.72556 8 8.5 8C7.80964 8 7.25 8.53726 7.25 9.2C7.25 9.86274 7.80964 10.4 8.5 10.4C8.7754 10.4 9.03 10.3145 9.23656 10.1696C9.08424 9.81022 9 9.41495 9 9ZM14.8801 8.1577C14.9582 8.42492 15 8.70758 15 9C15 9.41495 14.9158 9.81022 14.7634 10.1696C14.97 10.3145 15.2246 10.4 15.5 10.4C16.1904 10.4 16.75 9.86274 16.75 9.2C16.75 8.53726 16.1904 8 15.5 8C15.2744 8 15.0628 8.05736 14.8801 8.1577ZM7 13C7 11.8954 7.89543 11 9 11H6.625C6.27982 11 6 11.2686 6 11.6C6 12.3976 6.40527 13.1043 7.0289 13.5407C7.0098 13.3631 7 13.1827 7 13Z" fill="currentColor"/>
<path d="M5 2C3.34315 2 2 3.34315 2 5V19C2 20.6569 3.34315 22 5 22H19C20.6569 22 22 20.6569 22 19V5C22 3.34315 20.6569 2 19 2H5ZM5 3.25H19C19.9665 3.25 20.75 4.0335 20.75 5V19C20.75 19.9665 19.9665 20.75 19 20.75H5C4.0335 20.75 3.25 19.9665 3.25 19V5C3.25 4.0335 4.0335 3.25 5 3.25Z" fill="currentColor"/>
</svg>
