<svg viewBox="0 0 24 24" fill="currentColor" xmlns="http://www.w3.org/2000/svg">
<path d="M12 2C12.4264 2 12.772 2.33983 12.772 2.75904V3.84213C14.6769 4.19741 16.1173 5.84296 16.1173 7.81928C16.1173 8.75196 15.7965 9.61098 15.2575 10.2955L16.4356 13.3028C17.0521 12.5928 17.404 11.7397 17.404 10.8554C17.404 10.4362 17.7496 10.0964 18.176 10.0964C18.6023 10.0964 18.948 10.4362 18.948 10.8554C18.948 12.4422 18.2137 13.8354 17.0459 14.8606L19.9651 21.3121C20.095 21.6436 19.8461 22 19.4849 22H17.843C17.6302 22 17.4393 21.8712 17.3628 21.6759L14.8156 16.1741C13.9449 16.4975 12.9885 16.6747 12 16.6747C11.0115 16.6747 10.0551 16.4975 9.18437 16.1741L6.63724 21.6759C6.56073 21.8712 6.36983 22 6.15697 22H4.51515C4.15386 22 3.90502 21.6436 4.03488 21.3121L6.95409 14.8606C5.78626 13.8354 5.05204 12.4422 5.05204 10.8554C5.05204 10.4362 5.39768 10.0964 5.82404 10.0964C6.2504 10.0964 6.59603 10.4362 6.59603 10.8554C6.59603 11.7397 6.9479 12.5928 7.56437 13.3028L8.74253 10.2955C8.20349 9.61098 7.88269 8.75196 7.88269 7.81928C7.88269 5.84296 9.32309 4.19741 11.228 3.84213V2.75904C11.228 2.33983 11.5736 2 12 2ZM12 15.1566C12.8214 15.1566 13.5847 15.0148 14.2635 14.7647L13.074 11.7284C12.7316 11.8191 12.3715 11.8675 12 11.8675C11.6285 11.8675 11.2684 11.8191 10.926 11.7284L9.73652 14.7647C10.4153 15.0148 11.1786 15.1566 12 15.1566ZM12 9.84337C13.137 9.84337 14.0587 8.93715 14.0587 7.81928C14.0587 6.7014 13.137 5.79518 12 5.79518C10.863 5.79518 9.94134 6.7014 9.94134 7.81928C9.94134 8.93715 10.863 9.84337 12 9.84337Z" fill="currentColor"/>
</svg>
