<svg viewBox="0 0 24 24" fill="currentColor" xmlns="http://www.w3.org/2000/svg">
<path d="M5 4C5 2.89543 5.89543 2 7 2H17C18.1046 2 19 2.89543 19 4V20C19 21.1046 18.1046 22 17 22H7C5.89543 22 5 21.1046 5 20V4ZM7.25 6C7.25 6.41421 7.58579 6.75 8 6.75H16C16.4142 6.75 16.75 6.41421 16.75 6C16.75 5.58579 16.4142 5.25 16 5.25H8C7.58579 5.25 7.25 5.58579 7.25 6ZM8 8.25C7.58579 8.25 7.25 8.58579 7.25 9C7.25 9.41421 7.58579 9.75 8 9.75H16C16.4142 9.75 16.75 9.41421 16.75 9C16.75 8.58579 16.4142 8.25 16 8.25H8ZM7.25 12C7.25 12.4142 7.58579 12.75 8 12.75H12C12.4142 12.75 12.75 12.4142 12.75 12C12.75 11.5858 12.4142 11.25 12 11.25H8C7.58579 11.25 7.25 11.5858 7.25 12ZM12 20C13.1046 20 14 19.1046 14 18C14 16.8954 13.1046 16 12 16C10.8954 16 10 16.8954 10 18C10 19.1046 10.8954 20 12 20Z" fill="currentColor"/>
</svg>
