<svg viewBox="0 0 24 24" fill="currentColor" xmlns="http://www.w3.org/2000/svg">
<path d="M19.4196 8.5394L10.248 17.711L6.289 13.752L15.4606 4.5804C15.7219 4.31906 16.0325 4.11205 16.3742 3.97133L21.0336 2.05274C21.2949 1.94516 21.5952 2.00522 21.795 2.205C21.9948 2.40479 22.0548 2.7051 21.9473 2.96635L20.0287 7.62579C19.888 7.96755 19.6809 8.27806 19.4196 8.5394Z" fill="currentColor"/>
<path d="M5.4487 21.9983C5.06769 22.0171 4.68046 21.881 4.38947 21.59L2.40997 19.6105C1.86334 19.0639 1.86334 18.1777 2.40997 17.631L5.22836 14.8126L9.18736 18.7716L7.459 20.5H22C22.4142 20.5 22.75 20.8358 22.75 21.25C22.75 21.6642 22.4142 22 22 22H5.49982C5.48264 22 5.46559 21.9994 5.4487 21.9983Z" fill="currentColor"/>
</svg>
