<svg viewBox="0 0 24 24" fill="currentColor" xmlns="http://www.w3.org/2000/svg">
<path d="M8 2C7.58579 2 7.25 2.33579 7.25 2.75C7.25 3.16421 7.58579 3.5 8 3.5H9.0315C9.01094 3.57991 9 3.66368 9 3.75V8.67363C6.63505 9.79709 5 12.2076 5 15C5 18.866 8.13401 22 12 22C15.866 22 19 18.866 19 15C19 12.2076 17.3649 9.79709 15 8.67363V8H13C12.5858 8 12.25 7.66421 12.25 7.25C12.25 6.83579 12.5858 6.5 13 6.5H15V5.5H14C13.5858 5.5 13.25 5.16421 13.25 4.75C13.25 4.33579 13.5858 4 14 4H15C15 3.91368 14.9891 3.57991 14.9685 3.5H16C16.4142 3.5 16.75 3.16421 16.75 2.75C16.75 2.33579 16.4142 2 16 2H8Z" fill="currentColor"/>
</svg>
