<svg viewBox="0 0 24 24" fill="currentColor" xmlns="http://www.w3.org/2000/svg">
<path d="M2.68857 9.05869C1.77048 8.64797 1.77047 7.35203 2.68857 6.94131L11.0416 3.20451C11.6511 2.93183 12.3489 2.93183 12.9584 3.20451L21.3114 6.94131C22.2295 7.35203 22.2295 8.64797 21.3114 9.05869L12.9584 12.7955C12.3489 13.0682 11.6511 13.0682 11.0416 12.7955L2.68857 9.05869Z" fill="currentColor"/>
<path d="M2.25 10.5058V15C2.25 15.4142 2.58579 15.75 3 15.75C3.41421 15.75 3.75 15.4142 3.75 15V11.1768L2.25 10.5058Z" fill="currentColor"/>
<path d="M5 11.736V14C5 17.8659 8.13401 21 12 21C15.866 21 19 17.8659 19 14V11.736L13.571 14.1647C12.5717 14.6118 11.4283 14.6118 10.429 14.1647L5 11.736Z" fill="currentColor"/>
</svg>
