<svg viewBox="0 0 24 24" fill="currentColor" xmlns="http://www.w3.org/2000/svg">
<path d="M3.73964 20.118C3.49941 20.118 3.31609 20.0562 3.18965 19.9326C3.06322 19.809 3 19.6354 3 19.4118V14.4424C3 14.2188 3.06322 14.0452 3.18965 13.9217C3.31609 13.7981 3.49941 13.7363 3.73964 13.7363C3.97354 13.7363 4.15371 13.7981 4.28015 13.9217C4.40658 14.0452 4.4698 14.2188 4.4698 14.4424V16.3137H7.58008V14.4424C7.58008 14.2188 7.64329 14.0452 7.76973 13.9217C7.89616 13.7981 8.07633 13.7363 8.31023 13.7363C8.55046 13.7363 8.73379 13.7981 8.86022 13.9217C8.98666 14.0452 9.04987 14.2188 9.04987 14.4424V19.4118C9.04987 19.6354 8.98666 19.809 8.86022 19.9326C8.73379 20.0562 8.55046 20.118 8.31023 20.118C8.07633 20.118 7.89616 20.0562 7.76973 19.9326C7.64329 19.809 7.58008 19.6354 7.58008 19.4118V17.4523H4.4698V19.4118C4.4698 19.6354 4.40658 19.809 4.28015 19.9326C4.16003 20.0562 3.97986 20.118 3.73964 20.118Z" fill="currentColor"/>
<path d="M17.6906 20.1356C17.0331 20.1356 16.4547 20.0032 15.9553 19.7384C15.4622 19.4677 15.0766 19.0911 14.7984 18.6086C14.5266 18.1261 14.3907 17.5641 14.3907 16.9227C14.3907 16.4343 14.4665 15.9959 14.6182 15.6075C14.7763 15.2133 15.0007 14.8779 15.2915 14.6013C15.5823 14.3189 15.93 14.1011 16.3346 13.9481C16.7455 13.7951 17.1975 13.7186 17.6906 13.7186C18.3607 13.7186 18.9423 13.851 19.4354 14.1158C19.9285 14.3806 20.3109 14.7543 20.5828 15.2368C20.8609 15.7135 21 16.2725 21 16.9139C21 17.4023 20.921 17.8436 20.7629 18.2379C20.6049 18.6321 20.3805 18.9705 20.0897 19.253C19.7989 19.5354 19.4512 19.7531 19.0466 19.9061C18.642 20.0591 18.19 20.1356 17.6906 20.1356ZM17.6906 18.9705C18.0636 18.9705 18.3797 18.8911 18.6388 18.7322C18.9044 18.5674 19.1067 18.332 19.2457 18.026C19.3911 17.7142 19.4638 17.3464 19.4638 16.9227C19.4638 16.2754 19.3089 15.7753 18.9992 15.4222C18.6894 15.0632 18.2532 14.8838 17.6906 14.8838C17.3239 14.8838 17.0078 14.9632 16.7423 15.1221C16.4768 15.281 16.2745 15.5134 16.1354 15.8194C15.9964 16.1254 15.9268 16.4932 15.9268 16.9227C15.9268 17.5641 16.0817 18.0672 16.3915 18.4321C16.7012 18.791 17.1343 18.9705 17.6906 18.9705Z" fill="currentColor"/>
<path d="M10.7641 22C10.5478 22 10.3904 21.9542 10.2921 21.8627C10.1987 21.7666 10.152 21.627 10.152 21.4439C10.152 21.3158 10.1815 21.2014 10.2405 21.1007C10.3044 21 10.3855 20.9016 10.4838 20.8055L11.7745 19.5491C11.9663 19.3569 12.1015 19.1921 12.1802 19.0548C12.2638 18.9175 12.3055 18.7802 12.3055 18.6429C12.3055 18.469 12.2441 18.3386 12.1212 18.2516C11.9982 18.1647 11.8212 18.1212 11.5901 18.1212C11.4721 18.1212 11.3468 18.1372 11.214 18.1692C11.0812 18.1967 10.9387 18.247 10.7862 18.3203C10.6535 18.3752 10.533 18.3912 10.4248 18.3683C10.3216 18.3454 10.2331 18.2951 10.1593 18.2173C10.0905 18.1395 10.0462 18.0502 10.0266 17.9495C10.0118 17.8489 10.029 17.7505 10.0782 17.6543C10.1274 17.5537 10.2159 17.4713 10.3437 17.4072C10.5699 17.2928 10.8034 17.2104 11.0444 17.1601C11.2902 17.1097 11.5361 17.0845 11.7819 17.0845C12.1851 17.0845 12.5219 17.1395 12.7923 17.2493C13.0677 17.3591 13.2766 17.5193 13.4192 17.7299C13.5618 17.9358 13.6331 18.1921 13.6331 18.4988C13.6331 18.691 13.6011 18.8786 13.5372 19.0617C13.4782 19.2448 13.3799 19.4279 13.2422 19.6109C13.1095 19.794 12.93 19.9885 12.7038 20.1945L11.8525 20.9771H13.3307C13.5126 20.9771 13.6503 21.0206 13.7437 21.1075C13.8421 21.1945 13.8912 21.3203 13.8912 21.4851C13.8912 21.6499 13.8421 21.778 13.7437 21.8696C13.6503 21.9565 13.5126 22 13.3307 22H10.7641Z" fill="currentColor"/>
<path d="M19.9425 12.6443C19.245 12.3101 18.4819 12.1659 17.6906 12.1659C17.0466 12.1659 16.4203 12.2661 15.8269 12.487L15.8199 12.4896C15.243 12.7078 14.7193 13.0294 14.2706 13.4636C13.8151 13.8985 13.4696 14.4217 13.2328 15.0124L13.2276 15.0254C13.1425 15.2434 13.0748 15.4666 13.0231 15.6937C12.6179 15.5753 12.1956 15.5318 11.7819 15.5318C11.4364 15.5318 11.0931 15.5672 10.7533 15.6368L10.7476 15.638C10.6812 15.6519 10.6153 15.6673 10.5499 15.6843V14.4424C10.5499 13.9021 10.3863 13.2777 9.89 12.7926C9.39364 12.3075 8.78566 12.1835 8.31023 12.1835C7.82835 12.1835 7.22949 12.3142 6.73995 12.7926C6.24368 13.2777 6.08008 13.9021 6.08008 14.4424V14.7609H5.9698V14.4424C5.9698 13.9021 5.8062 13.2777 5.30992 12.7926C4.94882 12.4397 4.52823 12.276 4.13898 12.2144C4.90913 8.80582 8.69143 4.60383 10.7157 2.54847C11.4359 1.81718 12.5641 1.81718 13.2843 2.54847C15.3946 4.69114 19.4154 9.16668 19.9425 12.6443Z" fill="currentColor"/>
</svg>
