<svg viewBox="0 0 24 24" fill="currentColor" xmlns="http://www.w3.org/2000/svg">
<path d="M7.24893 19.0213H5.53613V17.4468H7.24893C7.66416 17.4468 7.96866 17.5121 8.16243 17.6426C8.3562 17.7731 8.45308 17.9688 8.45308 18.2298C8.45308 18.4908 8.3562 18.6894 8.16243 18.8255C7.96866 18.956 7.66416 19.0213 7.24893 19.0213Z" fill="currentColor"/>
<path d="M7.07246 16.4681H5.53613V14.9787H7.07246C7.47385 14.9787 7.77142 15.0411 7.96519 15.166C8.15897 15.2908 8.25585 15.4752 8.25585 15.7191C8.25585 15.9688 8.15897 16.156 7.96519 16.2809C7.77142 16.4057 7.47385 16.4681 7.07246 16.4681Z" fill="currentColor"/>
<path d="M4 12C2.89543 12 2 12.8954 2 14V20C2 21.1046 2.89543 22 4 22H10C11.1046 22 12 21.1046 12 20V14C12 12.8954 11.1046 12 10 12H4ZM4.21781 19.8213C4.07248 19.7021 3.99982 19.5319 3.99982 19.3106V14.6894C3.99982 14.4681 4.07248 14.2979 4.21781 14.1787C4.36314 14.0596 4.57075 14 4.84065 14H7.35276C7.87179 14 8.3147 14.0624 8.68148 14.1872C9.04826 14.3121 9.32508 14.4908 9.51193 14.7234C9.7057 14.956 9.80259 15.234 9.80259 15.5574C9.80259 15.9149 9.67802 16.2184 9.42888 16.4681C9.24086 16.6565 8.99964 16.798 8.7052 16.8927C9.06603 16.9811 9.35569 17.1261 9.57421 17.3277C9.85795 17.5773 9.99982 17.9035 9.99982 18.3064C9.99982 18.8397 9.7749 19.2567 9.32508 19.5574C8.87525 19.8525 8.25587 20 7.46695 20H4.84065C4.57075 20 4.36314 19.9404 4.21781 19.8213Z" fill="currentColor"/>
<path d="M14 12C12.8954 12 12 12.8954 12 14V20C12 21.1046 12.8954 22 14 22H20C21.1046 22 22 21.1046 22 20V14C22 12.8954 21.1046 12 20 12H14ZM15.6901 19.6286C15.1468 19.381 14.7276 19.0344 14.4325 18.5887C14.144 18.1376 13.9998 17.6066 13.9998 16.9959C13.9998 16.5392 14.0803 16.1293 14.2413 15.7662C14.409 15.3975 14.6505 15.0839 14.9657 14.8253C15.281 14.5612 15.6633 14.3576 16.1127 14.2146C16.5688 14.0715 17.082 14 17.6521 14C17.9875 14 18.3263 14.0358 18.6683 14.1073C19.0171 14.1733 19.319 14.2696 19.5739 14.3961C19.7416 14.4732 19.8556 14.5695 19.916 14.685C19.9763 14.8006 19.9931 14.9161 19.9663 15.0316C19.9462 15.1472 19.8891 15.2462 19.7952 15.3287C19.708 15.4113 19.5974 15.4635 19.4632 15.4856C19.3291 15.5076 19.1781 15.4828 19.0104 15.4113C18.8092 15.3122 18.5979 15.2407 18.3766 15.1967C18.1552 15.1527 17.9305 15.1307 17.7024 15.1307C17.253 15.1307 16.874 15.205 16.5655 15.3535C16.2637 15.4966 16.0356 15.7056 15.8813 15.9807C15.727 16.2558 15.6499 16.5942 15.6499 16.9959C15.6499 17.392 15.727 17.7304 15.8813 18.011C16.0356 18.2916 16.2637 18.5062 16.5655 18.6547C16.874 18.7978 17.253 18.8693 17.7024 18.8693C17.9171 18.8693 18.1351 18.8473 18.3564 18.8033C18.5845 18.7593 18.8025 18.6905 19.0104 18.597C19.1848 18.5254 19.3391 18.5007 19.4733 18.5227C19.6141 18.5392 19.7282 18.5887 19.8154 18.6713C19.9093 18.7483 19.9663 18.8418 19.9864 18.9519C20.0132 19.0619 19.9998 19.1719 19.9462 19.282C19.8925 19.392 19.7919 19.4856 19.6443 19.5626C19.3961 19.7001 19.0909 19.8074 18.7287 19.8845C18.3665 19.9615 18.0076 20 17.6521 20C16.8875 20 16.2335 19.8762 15.6901 19.6286Z" fill="currentColor"/>
<path d="M10.9773 7.45265L11.982 5.05865H12L13.0126 7.45265H10.9773Z" fill="currentColor"/>
<path d="M9 2C7.89543 2 7 2.89543 7 4V10C7 11.1046 7.89543 12 9 12H15C16.1046 12 17 11.1046 17 10V4C17 2.89543 16.1046 2 15 2H9ZM9.01201 9.88268C8.91001 9.80468 8.84401 9.69968 8.81401 9.56768C8.79001 9.43568 8.81701 9.28868 8.89501 9.12668L11.199 4.07768C11.295 3.87368 11.409 3.72668 11.541 3.63668C11.673 3.54068 11.826 3.49268 12 3.49268C12.174 3.49268 12.327 3.54068 12.459 3.63668C12.591 3.72668 12.702 3.87368 12.792 4.07768L15.114 9.12668C15.192 9.28868 15.219 9.43868 15.195 9.57668C15.177 9.70868 15.117 9.81368 15.015 9.89168C14.913 9.96368 14.781 9.99968 14.619 9.99968C14.415 9.99968 14.256 9.95168 14.142 9.85568C14.034 9.75968 13.938 9.60968 13.854 9.40568L13.4811 8.54168H10.5127L10.146 9.40568C10.056 9.61568 9.96001 9.76868 9.85801 9.86468C9.76201 9.95468 9.61801 9.99968 9.42601 9.99968C9.25801 9.99968 9.12001 9.96068 9.01201 9.88268Z" fill="currentColor"/>
</svg>
