<svg viewBox="0 0 24 24" fill="currentColor" xmlns="http://www.w3.org/2000/svg">
<path d="M9.72 8.70067C9.01512 8.4033 8.26153 8.25 7.5 8.25C7.08579 8.25 6.75 8.58579 6.75 9C6.75 9.41421 7.08579 9.75 7.5 9.75C8.05967 9.75 8.61514 9.86258 9.13695 10.0827L9.20848 10.1129C9.59012 10.2739 10.03 10.095 10.191 9.71339C10.352 9.33175 10.1732 8.89185 9.79152 8.73085L9.72 8.70067Z" fill="currentColor"/>
<path d="M9.72 11.2788C9.01512 10.9814 8.26153 10.8281 7.5 10.8281C7.08579 10.8281 6.75 11.1639 6.75 11.5781C6.75 11.9923 7.08579 12.3281 7.5 12.3281C8.05967 12.3281 8.61514 12.4407 9.13695 12.6609L9.20848 12.691C9.59012 12.852 10.03 12.6732 10.191 12.2915C10.352 11.9099 10.1732 11.47 9.79152 11.309L9.72 11.2788Z" fill="currentColor"/>
<path d="M16.5 8.25C15.7385 8.25 14.9849 8.4033 14.28 8.70067L14.2085 8.73085C13.8268 8.89185 13.648 9.33175 13.809 9.71339C13.97 10.095 14.4099 10.2739 14.7915 10.1129L14.863 10.0827C15.3849 9.86258 15.9403 9.75 16.5 9.75C16.9142 9.75 17.25 9.41421 17.25 9C17.25 8.58579 16.9142 8.25 16.5 8.25Z" fill="currentColor"/>
<path d="M16.5 10.8281C15.7385 10.8281 14.9849 10.9814 14.28 11.2788L14.2085 11.309C13.8268 11.47 13.648 11.9099 13.809 12.2915C13.97 12.6732 14.4099 12.852 14.7915 12.691L14.863 12.6609C15.3849 12.4407 15.9403 12.3281 16.5 12.3281C16.9142 12.3281 17.25 11.9923 17.25 11.5781C17.25 11.1639 16.9142 10.8281 16.5 10.8281Z" fill="currentColor"/>
<path d="M3 10.8889C3 5.97969 7.02944 2 12 2C16.9706 2 21 5.97969 21 10.8889C21 16.2006 15.929 20.041 12.7799 21.6333C12.2877 21.8821 11.7123 21.8821 11.2201 21.6333C8.07101 20.041 3 16.2006 3 10.8889ZM6.53362 6C6.23891 6 6 6.24333 6 6.5435V15.2343C6 15.5344 6.23891 15.7778 6.53362 15.7778C8.14856 15.7778 9.7488 16.0889 11.25 16.6945V6.91673C9.7488 6.31109 8.14856 6 6.53362 6ZM17.4664 15.7778C17.7611 15.7778 18 15.5344 18 15.2343V6.5435C18 6.24333 17.7611 6 17.4664 6C15.8514 6 14.2512 6.31109 12.75 6.91673V16.6945C14.2512 16.0889 15.8514 15.7778 17.4664 15.7778Z" fill="currentColor"/>
</svg>
