<svg viewBox="0 0 24 24" fill="currentColor" xmlns="http://www.w3.org/2000/svg">
<path d="M4 2C2.89543 2 2 2.89543 2 4V20C2 21.1046 2.89543 22 4 22H10C11.1046 22 12 21.1046 12 20C12 21.1046 12.8954 22 14 22H20C21.1046 22 22 21.1046 22 20V4C22 2.89543 21.1046 2 20 2H14C12.8954 2 12 2.89543 12 4C12 2.89543 11.1046 2 10 2H4ZM14.25 6C14.25 5.58579 14.5858 5.25 15 5.25H19C19.4142 5.25 19.75 5.58579 19.75 6C19.75 6.41421 19.4142 6.75 19 6.75H15C14.5858 6.75 14.25 6.41421 14.25 6ZM5 5.25H9C9.41421 5.25 9.75 5.58579 9.75 6C9.75 6.41421 9.41421 6.75 9 6.75H5C4.58579 6.75 4.25 6.41421 4.25 6C4.25 5.58579 4.58579 5.25 5 5.25ZM14.25 9C14.25 8.58579 14.5858 8.25 15 8.25H19C19.4142 8.25 19.75 8.58579 19.75 9C19.75 9.41421 19.4142 9.75 19 9.75H15C14.5858 9.75 14.25 9.41421 14.25 9ZM5 8.25H9C9.41421 8.25 9.75 8.58579 9.75 9C9.75 9.41421 9.41421 9.75 9 9.75H5C4.58579 9.75 4.25 9.41421 4.25 9C4.25 8.58579 4.58579 8.25 5 8.25ZM5 12.25C5.41421 12.25 5.75 12.5858 5.75 13V14C5.75 14.4142 5.41421 14.75 5 14.75C4.58579 14.75 4.25 14.4142 4.25 14V13C4.25 12.5858 4.58579 12.25 5 12.25ZM15.75 13V14C15.75 14.4142 15.4142 14.75 15 14.75C14.5858 14.75 14.25 14.4142 14.25 14V13C14.25 12.5858 14.5858 12.25 15 12.25C15.4142 12.25 15.75 12.5858 15.75 13Z" fill="currentColor"/>
</svg>
