<svg viewBox="0 0 24 24" fill="currentColor" xmlns="http://www.w3.org/2000/svg">
<path d="M9 2C8.44771 2 8 2.44772 8 3V3.65456C9.1577 2.92324 10.5294 2.5 12 2.5C13.4706 2.5 14.8423 2.92324 16 3.65456V3C16 2.44772 15.5523 2 15 2H9Z" fill="currentColor"/>
<path d="M8 16.3454C9.1577 17.0768 10.5294 17.5 12 17.5C13.4706 17.5 14.8423 17.0768 16 16.3454V21.5C16 21.912 15.5296 22.1472 15.2 21.9L12.6 19.95C12.2444 19.6833 11.7556 19.6833 11.4 19.95L8.8 21.9C8.47038 22.1472 8 21.912 8 21.5V16.3454Z" fill="currentColor"/>
<path d="M9.75 10C9.75 8.75736 10.7574 7.75 12 7.75C13.2426 7.75 14.25 8.75736 14.25 10C14.25 11.2426 13.2426 12.25 12 12.25C10.7574 12.25 9.75 11.2426 9.75 10Z" fill="currentColor"/>
<path d="M18 10C18 13.3137 15.3137 16 12 16C8.68629 16 6 13.3137 6 10C6 6.68629 8.68629 4 12 4C15.3137 4 18 6.68629 18 10ZM12 6.25C9.92893 6.25 8.25 7.92893 8.25 10C8.25 12.0711 9.92893 13.75 12 13.75C14.0711 13.75 15.75 12.0711 15.75 10C15.75 7.92893 14.0711 6.25 12 6.25Z" fill="currentColor"/>
</svg>
