<svg viewBox="0 0 24 24" fill="currentColor" xmlns="http://www.w3.org/2000/svg">
<path d="M7 2C5.5135 2 4.27952 3.08114 4.04148 4.5H1.5C1.22386 4.5 1 4.72386 1 5V6H0.5C0.223858 6 0 6.22386 0 6.5V11.5C0 11.7761 0.223858 12 0.5 12H1V13C1 13.2761 1.22386 13.5 1.5 13.5H3.13378C3.0487 13.6471 3 13.8179 3 14V19C3 19.5523 3.44772 20 4 20V21C4 21.5523 4.44772 22 5 22H6C6.55228 22 7 21.5523 7 21V20H17V21C17 21.5523 17.4477 22 18 22H19C19.5523 22 20 21.5523 20 21V20C20.5523 20 21 19.5523 21 19V14C21 13.8179 20.9513 13.6471 20.8662 13.5H22.5C22.7761 13.5 23 13.2761 23 13V12H23.5C23.7761 12 24 11.7761 24 11.5V6.5C24 6.22386 23.7761 6 23.5 6H23V5C23 4.72386 22.7761 4.5 22.5 4.5H19.9585C19.7205 3.08114 18.4865 2 17 2H7ZM2 5.5H4V12.5H2V12H2.5C2.77614 12 3 11.7761 3 11.5V6.5C3 6.22386 2.77614 6 2.5 6H2V5.5ZM22 12V12.5H20V5.5H22V6H21.5C21.2239 6 21 6.22386 21 6.5V11.5C21 11.7761 21.2239 12 21.5 12H22ZM7 5C6.44772 5 6 4.55228 6 4C6 3.44772 6.44772 3 7 3C7.55228 3 8 3.44772 8 4C8 4.55228 7.55228 5 7 5ZM18 4C18 4.55228 17.5523 5 17 5C16.4477 5 16 4.55228 16 4C16 3.44772 16.4477 3 17 3C17.5523 3 18 3.44772 18 4ZM10 3H14C14.5523 3 15 3.44772 15 4C15 4.55228 14.5523 5 14 5H10C9.44772 5 9 4.55228 9 4C9 3.44772 9.44772 3 10 3ZM6 7C6 6.44772 6.44772 6 7 6H11.25V12H6V7ZM12.75 12V6H17C17.5523 6 18 6.44772 18 7V12H12.75ZM7 16.5C7 17.3284 6.32843 18 5.5 18C4.67157 18 4 17.3284 4 16.5C4 15.6716 4.67157 15 5.5 15C6.32843 15 7 15.6716 7 16.5ZM18.5 18C17.6716 18 17 17.3284 17 16.5C17 15.6716 17.6716 15 18.5 15C19.3284 15 20 15.6716 20 16.5C20 17.3284 19.3284 18 18.5 18ZM8.25 16.5C8.25 16.0858 8.58579 15.75 9 15.75H15C15.4142 15.75 15.75 16.0858 15.75 16.5C15.75 16.9142 15.4142 17.25 15 17.25H9C8.58579 17.25 8.25 16.9142 8.25 16.5Z" fill="currentColor"/>
</svg>
