<svg viewBox="0 0 24 24" fill="currentColor" xmlns="http://www.w3.org/2000/svg">
<path d="M6 5C4.89543 5 4 5.89543 4 7V7.25H2C1.58579 7.25 1.25 7.58579 1.25 8C1.25 8.41421 1.58579 8.75 2 8.75H4V11.25H2C1.58579 11.25 1.25 11.5858 1.25 12C1.25 12.4142 1.58579 12.75 2 12.75H4V15.25H2C1.58579 15.25 1.25 15.5858 1.25 16C1.25 16.4142 1.58579 16.75 2 16.75H4V17C4 18.1046 4.89543 19 6 19H20C21.1046 19 22 18.1046 22 17V7C22 5.89543 21.1046 5 20 5H6ZM4 16.75V15.25H6C6.41421 15.25 6.75 15.5858 6.75 16C6.75 16.4142 6.41421 16.75 6 16.75H4ZM4 12.75V11.25H6C6.41421 11.25 6.75 11.5858 6.75 12C6.75 12.4142 6.41421 12.75 6 12.75H4ZM4 8.75V7.25H6C6.41421 7.25 6.75 7.58579 6.75 8C6.75 8.41421 6.41421 8.75 6 8.75H4Z" fill="currentColor"/>
</svg>
