<svg viewBox="0 0 24 24" fill="currentColor" xmlns="http://www.w3.org/2000/svg">
<path d="M4 2C2.89543 2 2 2.89543 2 4V14C2 15.1046 2.89543 16 4 16H11.25V17.6395L6.53148 21.4143C6.20803 21.6731 6.15559 22.1451 6.41435 22.4685C6.67311 22.792 7.14507 22.8444 7.46852 22.5857L11.25 19.5605V22C11.25 22.4142 11.5858 22.75 12 22.75C12.4142 22.75 12.75 22.4142 12.75 22V19.5605L16.5315 22.5857C16.8549 22.8444 17.3269 22.792 17.5857 22.4685C17.8444 22.1451 17.792 21.6731 17.4685 21.4143L12.75 17.6395V16H20C21.1046 16 22 15.1046 22 14V4C22 2.89543 21.1046 2 20 2H4Z" fill="currentColor"/>
</svg>
