<svg viewBox="0 0 24 24" fill="currentColor" xmlns="http://www.w3.org/2000/svg">
<path d="M13.8417 4.78107C13.9436 4.54111 14 4.27714 14 4C14 2.89543 13.1046 2 12 2C10.8954 2 10 2.89543 10 4C10 4.27714 10.0564 4.54111 10.1583 4.78107L4.93934 10H4C2.89543 10 2 10.8954 2 12V20C2 21.1046 2.89543 22 4 22H20C21.1046 22 22 21.1046 22 20V12C22 10.8954 21.1046 10 20 10H19.0607L13.8417 4.78107ZM11.2189 5.84173C11.4589 5.94363 11.7229 6 12 6C12.2771 6 12.5411 5.94363 12.7811 5.84173L16.9393 10H7.06066L11.2189 5.84173Z" fill="currentColor"/>
</svg>
