<svg viewBox="0 0 24 24" fill="currentColor" xmlns="http://www.w3.org/2000/svg">
<path d="M5.20748 6.00698C5.9487 6.30979 6.82291 6.56551 7.7961 6.75768C7.98134 5.93246 8.20976 5.1715 8.47521 4.49372C8.85806 3.5162 9.33269 2.67373 9.8981 2.06311C9.91779 2.04185 9.93765 2.02081 9.95768 2C7.67175 2.48448 5.67165 3.76595 4.24841 5.54716C4.53006 5.70664 4.85005 5.86096 5.20748 6.00698Z" fill="currentColor"/>
<path d="M4.65039 7.42939C5.48857 7.77182 6.45664 8.05389 7.51734 8.26299C7.34369 9.43168 7.25 10.6914 7.25 12C7.25 13.3086 7.34369 14.5683 7.51734 15.737C6.45664 15.9461 5.48857 16.2282 4.65039 16.5706C4.19578 16.7563 3.77101 16.9632 3.38622 17.1911C2.50546 15.6699 2 13.8953 2 12C2 10.1047 2.50546 8.33007 3.38622 6.8089C3.77101 7.03681 4.19578 7.24368 4.65039 7.42939Z" fill="currentColor"/>
<path d="M20.6138 17.1911C21.4945 15.6699 22 13.8953 22 12C22 10.1047 21.4945 8.33007 20.6138 6.8089C20.229 7.03681 19.8042 7.24368 19.3496 7.42939C18.5114 7.77181 17.5434 8.05389 16.4827 8.26299C16.6563 9.43168 16.75 10.6914 16.75 12C16.75 13.3086 16.6563 14.5683 16.4827 15.737C17.5434 15.9461 18.5114 16.2282 19.3496 16.5706C19.8042 16.7563 20.229 16.9632 20.6138 17.1911Z" fill="currentColor"/>
<path d="M16.2039 17.2423C17.1771 17.4345 18.0513 17.6902 18.7925 17.993C19.1499 18.139 19.4699 18.2934 19.7516 18.4528C18.3284 20.234 16.3282 21.5155 14.0423 22C14.0624 21.9792 14.0822 21.9581 14.1019 21.9369C14.6673 21.3263 15.1419 20.4838 15.5248 19.5063C15.7902 18.8285 16.0187 18.0675 16.2039 17.2423Z" fill="currentColor"/>
<path d="M15.0006 15.5006C15.1609 14.4196 15.25 13.2399 15.25 12C15.25 10.7601 15.1609 9.58045 15.0006 8.49945C14.0466 8.61782 13.039 8.68074 12 8.68074C10.961 8.68074 9.95345 8.61782 8.99937 8.49945C8.83909 9.58045 8.75 10.7601 8.75 12C8.75 13.2399 8.83909 14.4196 8.99937 15.5006C9.95345 15.3822 10.961 15.3193 12 15.3193C13.039 15.3193 14.0466 15.3822 15.0006 15.5006Z" fill="currentColor"/>
<path d="M9.28296 17.0089C10.1408 16.9067 11.0525 16.8513 12 16.8513C12.9475 16.8513 13.8592 16.9067 14.717 17.0089C14.5528 17.7189 14.3555 18.3667 14.1321 18.9373C13.7911 19.808 13.4038 20.4612 13.0121 20.8843C12.6219 21.3056 12.2796 21.4472 12 21.4472C11.7204 21.4472 11.3781 21.3056 10.9879 20.8843C10.5962 20.4612 10.2089 19.808 9.86791 18.9373C9.64443 18.3667 9.44715 17.7189 9.28296 17.0089Z" fill="currentColor"/>
<path d="M7.7961 17.2423C7.98134 18.0675 8.20976 18.8285 8.47521 19.5063C8.85806 20.4838 9.33269 21.3263 9.8981 21.9369C9.91779 21.9581 9.93765 21.9792 9.95768 22C7.67175 21.5155 5.67165 20.234 4.24841 18.4528C4.53006 18.2934 4.85005 18.139 5.20747 17.993C5.9487 17.6902 6.82291 17.4345 7.7961 17.2423Z" fill="currentColor"/>
<path d="M12 7.14872C12.9475 7.14872 13.8592 7.09329 14.717 6.99112C14.5528 6.28105 14.3555 5.63327 14.1321 5.06266C13.7911 4.19196 13.4038 3.53874 13.0121 3.11573C12.6219 2.69433 12.2796 2.5528 12 2.5528C11.7204 2.5528 11.3781 2.69433 10.9879 3.11573C10.5962 3.53874 10.2089 4.19196 9.86791 5.06266C9.64443 5.63327 9.44715 6.28105 9.28296 6.99112C10.1408 7.09329 11.0525 7.14872 12 7.14872Z" fill="currentColor"/>
<path d="M18.7925 6.00698C19.1499 5.86096 19.4699 5.70664 19.7516 5.54716C18.3284 3.76595 16.3282 2.48448 14.0423 2C14.0624 2.02081 14.0822 2.04185 14.1019 2.06311C14.6673 2.67373 15.1419 3.5162 15.5248 4.49372C15.7902 5.1715 16.0187 5.93246 16.2039 6.75768C17.1771 6.56551 18.0513 6.30979 18.7925 6.00698Z" fill="currentColor"/>
</svg>
