<svg viewBox="0 0 24 24" fill="currentColor" xmlns="http://www.w3.org/2000/svg">
<path d="M18.9038 2.30686C18.2521 1.45536 17.0703 1.51582 16.4022 2.18389L15.4768 3.10933C14.4959 2.41076 13.2959 1.9999 12 1.9999C8.68632 1.9999 6.00002 4.68619 6.00002 7.9999C6.00002 9.29584 6.41088 10.4958 7.10945 11.4767L6.18401 12.4021C5.51594 13.0702 5.45548 14.252 6.30699 14.9037C7.69262 15.9642 9.39698 16.6308 11.25 16.7354V21.2499H8.00002C7.58581 21.2499 7.25002 21.5857 7.25002 21.9999C7.25002 22.4141 7.58581 22.7499 8.00002 22.7499H16C16.4142 22.7499 16.75 22.4141 16.75 21.9999C16.75 21.5857 16.4142 21.2499 16 21.2499H12.75V16.6964C17.2489 16.2054 20.75 12.3935 20.75 7.7639C20.75 5.71249 20.0617 3.81971 18.9038 2.30686ZM8.12583 12.5816C9.17114 13.4664 10.5232 13.9999 12 13.9999C15.3137 13.9999 18 11.3136 18 7.9999C18 6.52316 17.4665 5.17101 16.5817 4.1257L17.4629 3.24455C17.5143 3.19307 17.5755 3.17396 17.6231 3.1751C17.6649 3.17611 17.6914 3.19075 17.7126 3.21854C18.6772 4.47883 19.25 6.05341 19.25 7.7639C19.25 11.8983 15.8984 15.2499 11.764 15.2499C10.0535 15.2499 8.47895 14.6771 7.21866 13.7125C7.19088 13.6913 7.17623 13.6648 7.17522 13.623C7.17408 13.5754 7.19319 13.5143 7.24467 13.4628L8.12583 12.5816Z" fill="currentColor"/>
</svg>
