<svg viewBox="0 0 24 24" fill="currentColor" xmlns="http://www.w3.org/2000/svg">
<path d="M3 4C3 2.89543 3.89543 2 5 2H17C17.8457 2 18.5688 2.52493 18.8613 3.26675C18.6877 3.37048 18.5239 3.49712 18.3743 3.64667L15.6545 6.36648C15.7153 6.25811 15.75 6.1331 15.75 6C15.75 5.58579 15.4142 5.25 15 5.25H7C6.58579 5.25 6.25 5.58579 6.25 6C6.25 6.41421 6.58579 6.75 7 6.75H15C15.1331 6.75 15.2581 6.71533 15.3665 6.65452L13.771 8.25H7C6.58579 8.25 6.25 8.58579 6.25 9C6.25 9.41421 6.58579 9.75 7 9.75H12.271L10.771 11.25H7C6.58579 11.25 6.25 11.5858 6.25 12C6.25 12.4142 6.58579 12.75 7 12.75H9.271L9.05056 12.9704C8.72382 13.2972 8.46501 13.6854 8.28906 14.1127L8.23252 14.25H7C6.58579 14.25 6.25 14.5858 6.25 15C6.25 15.4142 6.58579 15.75 7 15.75H7.61487L6.91837 17.4415C6.61095 18.1881 6.78259 19.0463 7.35351 19.6172C7.92443 20.1882 8.78264 20.3598 9.52922 20.0524L12.8581 18.6817C13.2853 18.5057 13.6736 18.2469 14.0003 17.9202L19 12.9205V20C19 21.1046 18.1046 22 17 22H5C3.89543 22 3 21.1046 3 20V4Z" fill="currentColor"/>
<path d="M20.3274 5.28698C19.9447 4.90434 19.3244 4.90434 18.9417 5.28698L17.6447 6.58402L20.416 9.35532L21.713 8.05828C22.0957 7.67564 22.0957 7.05526 21.713 6.67263L20.3274 5.28698Z" fill="currentColor"/>
<path d="M19.3553 10.416L16.584 7.64465L9.80628 14.4224C9.62334 14.6054 9.47844 14.8227 9.37993 15.0619L8.03691 18.3236C7.96161 18.5064 8.00366 18.7167 8.1435 18.8565C8.28335 18.9963 8.49357 19.0384 8.67645 18.9631L11.938 17.6201C12.1773 17.5216 12.3946 17.3767 12.5776 17.1937L19.3553 10.416Z" fill="currentColor"/>
</svg>
