<svg viewBox="0 0 24 24" fill="currentColor" xmlns="http://www.w3.org/2000/svg">
<path d="M6.25 7.83132H4C3.44772 7.83132 3 8.28443 3 8.84337V17.9518C3 20.1876 4.79086 22 7 22H17C19.2091 22 21 20.1876 21 17.9518V8.84337C21 8.28443 20.5523 7.83132 20 7.83132H17.75V7.81928C17.75 4.60538 15.1756 2 12 2C8.82436 2 6.25 4.60538 6.25 7.81928V7.83132ZM7.75 7.81928C7.75 5.44379 9.65279 3.51807 12 3.51807C14.3472 3.51807 16.25 5.44379 16.25 7.81928V7.83132H7.75V7.81928ZM11.681 11.0881C11.742 10.9409 11.8712 10.8674 12.0003 10.8675C12.1292 10.8676 12.258 10.9411 12.319 11.0881L13.2068 13.2272C13.2574 13.3491 13.366 13.4327 13.4911 13.446L15.6859 13.6794C15.9876 13.7115 16.1094 14.1084 15.883 14.3223L14.2369 15.8778C14.1431 15.9664 14.1017 16.1017 14.1284 16.2317L14.597 18.5152C14.6615 18.8292 14.3428 19.0744 14.0808 18.9125L12.1757 17.7347C12.0671 17.6676 11.9329 17.6676 11.8243 17.7347L9.91919 18.9125C9.65723 19.0744 9.33854 18.8292 9.40298 18.5152L9.87164 16.2317C9.89835 16.1017 9.85686 15.9664 9.76308 15.8778L8.11697 14.3223C7.89063 14.1084 8.01236 13.7115 8.31415 13.6794L10.5089 13.446C10.634 13.4327 10.7426 13.3491 10.7932 13.2272L11.681 11.0881Z" fill="currentColor"/>
</svg>
