<svg viewBox="0 0 24 24" fill="currentColor" xmlns="http://www.w3.org/2000/svg">
<path d="M9.22496 2.28736C8.84181 1.90421 8.22059 1.90421 7.83744 2.28736L2.28736 7.83744C1.90421 8.2206 1.90421 8.84181 2.28736 9.22496L2.98113 9.91872L2.28737 10.6125C1.90421 10.9956 1.90421 11.6168 2.28737 12L12 21.7126C12.3832 22.0958 13.0044 22.0958 13.3875 21.7126L14.0813 21.0189L14.775 21.7126C15.1582 22.0958 15.7794 22.0958 16.1626 21.7126L21.7126 16.1626C22.0958 15.7794 22.0958 15.1582 21.7126 14.775L21.0189 14.0813L21.7126 13.3875C22.0958 13.0044 22.0958 12.3832 21.7126 12L12 2.28736C11.6168 1.90421 10.9956 1.90421 10.6125 2.28736L9.91872 2.98113L9.22496 2.28736ZM6.5199 6.51996C6.8128 6.22707 7.28767 6.22707 7.58056 6.51996L8.46445 7.40385L9.34833 6.51996C9.64122 6.22707 10.1161 6.22707 10.409 6.51996C10.7019 6.81286 10.7019 7.28773 10.409 7.58062L9.52511 8.46451L11.2189 10.1583C11.947 9.84983 12.8207 9.99234 13.4142 10.5858C14.0077 11.1794 14.1502 12.0531 13.8417 12.7811L15.5355 14.4749L16.4194 13.591C16.7123 13.2981 17.1872 13.2981 17.4801 13.591C17.773 13.8839 17.773 14.3588 17.4801 14.6517L16.5962 15.5356L17.4801 16.4195C17.7729 16.7124 17.7729 17.1872 17.4801 17.4801C17.1872 17.773 16.7123 17.773 16.4194 17.4801L15.5355 16.5962L14.6517 17.4801C14.3588 17.773 13.8839 17.773 13.591 17.4801C13.2981 17.1872 13.2981 16.7123 13.591 16.4194L14.4749 15.5356L12.7811 13.8418C12.053 14.1503 11.1793 14.0078 10.5858 13.4143C9.99228 12.8208 9.84977 11.947 10.1583 11.219L8.46445 9.52517L7.58056 10.409C7.28767 10.7019 6.8128 10.7019 6.51991 10.409C6.22701 10.1162 6.22701 9.64128 6.51991 9.34839L7.40379 8.46451L6.5199 7.58062C6.22701 7.28773 6.22701 6.81286 6.5199 6.51996Z" fill="currentColor"/>
</svg>
