<svg viewBox="0 0 24 24" fill="currentColor" xmlns="http://www.w3.org/2000/svg">
<path d="M5.73427 11.9566C5.22742 11.7366 4.80782 11.5013 4.47079 11.2583C4.80782 11.0153 5.22742 10.78 5.73427 10.56C7.30177 9.87966 9.51606 9.44137 12 9.44137C14.4839 9.44137 16.6982 9.87966 18.2657 10.56C18.7726 10.78 19.1922 11.0153 19.5292 11.2583C19.1922 11.5013 18.7726 11.7366 18.2657 11.9566C18.0337 12.0573 17.7874 12.1527 17.5283 12.2422C17.1614 11.4825 16.6129 11 16 11C14.8954 11 14 12.567 14 14.5C14 16.433 14.8954 18 16 18C16.6109 18 17.1577 17.5208 17.5246 16.7654C18.0111 16.6189 18.4679 16.4532 18.8897 16.2701C20.6473 15.5072 22 14.3413 22 12.8733V9.64325C22 8.17531 20.6473 7.00938 18.8897 6.24653C17.0905 5.46556 14.6536 5 12 5C9.34641 5 6.90954 5.46556 5.11025 6.24653C3.3527 7.00938 2 8.17531 2 9.64325V12.8733C2 14.3413 3.3527 15.5072 5.11025 16.2701C5.53207 16.4532 5.98892 16.6189 6.4754 16.7654C6.84225 17.5208 7.38914 18 8 18C9.10457 18 10 16.433 10 14.5C10 12.567 9.10457 11 8 11C7.38711 11 6.8386 11.4825 6.47173 12.2422C6.21255 12.1527 5.96632 12.0573 5.73427 11.9566ZM17.9449 15.319C17.9809 15.0563 18 14.782 18 14.5C18 14.1216 17.9657 13.7571 17.9022 13.4158C18.249 13.3004 18.5789 13.1749 18.8897 13.04C19.5305 12.7619 20.1174 12.4302 20.6047 12.0498V12.8733C20.6047 13.6353 19.875 14.4882 18.2657 15.1867C18.1616 15.2319 18.0547 15.276 17.9449 15.319ZM6 14.5C6 14.782 6.01906 15.0563 6.05505 15.319C5.94535 15.276 5.83838 15.2319 5.73427 15.1867C4.12505 14.4882 3.39535 13.6353 3.39535 12.8733V12.0498C3.88255 12.4302 4.4695 12.7619 5.11025 13.04C5.42113 13.1749 5.75104 13.3004 6.09782 13.4158C6.03432 13.7571 6 14.1216 6 14.5ZM3.39535 9.64325C3.39535 8.88128 4.12505 8.02841 5.73427 7.32993C7.30177 6.64957 9.51606 6.21128 12 6.21128C14.4839 6.21128 16.6982 6.64957 18.2657 7.32993C19.875 8.02841 20.6047 8.88128 20.6047 9.64325C20.6047 9.86491 20.5429 10.0943 20.4157 10.3253C19.9686 10.0036 19.4497 9.71967 18.8897 9.47662C17.0905 8.69565 14.6536 8.23009 12 8.23009C9.34641 8.23009 6.90954 8.69565 5.11025 9.47662C4.55028 9.71967 4.0314 10.0036 3.58428 10.3253C3.4571 10.0943 3.39535 9.86491 3.39535 9.64325Z" fill="currentColor"/>
</svg>
