<svg viewBox="0 0 24 24" fill="currentColor" xmlns="http://www.w3.org/2000/svg">
<path d="M7.25 6V3.75C7.25 2.7835 8.0335 2 9 2H15C15.9665 2 16.75 2.7835 16.75 3.75V6H17.25V22H6.75V6H7.25ZM8.75 3.75V6H15.25V3.75C15.25 3.61193 15.1381 3.5 15 3.5H9C8.86193 3.5 8.75 3.61193 8.75 3.75Z" fill="currentColor"/>
<path d="M5.25 6H4C2.89543 6 2 6.89543 2 8V20C2 21.1046 2.89543 22 4 22H5.25V6Z" fill="currentColor"/>
<path d="M18.75 22V6H20C21.1046 6 22 6.89543 22 8V20C22 21.1046 21.1046 22 20 22H18.75Z" fill="currentColor"/>
</svg>
