<svg viewBox="0 0 24 24" fill="currentColor" xmlns="http://www.w3.org/2000/svg">
<path d="M16.571 14.0129C17.6941 11.7435 16.8207 8.33999 14.2797 5.78644C11.3046 2.7966 7.17009 2.10411 5.04501 4.2397C4.44575 4.84193 4.07028 5.60474 3.90674 6.45672C3.86188 6.48559 3.81936 6.51951 3.78002 6.55849L2.22738 8.09689C1.92421 8.39728 1.92421 8.88431 2.22738 9.18471C2.53055 9.4851 3.02209 9.4851 3.32526 9.18471L3.90978 8.60555C3.99556 9.10263 4.13701 9.60872 4.33243 10.1135L3.26247 11.1737C2.9593 11.4741 2.9593 11.9611 3.26247 12.2615C3.56565 12.5619 4.05719 12.5619 4.36036 12.2615L5.05441 11.5738C5.289 11.9606 5.55583 12.3404 5.85408 12.7083L4.81512 13.7377C4.51194 14.0381 4.51194 14.5251 4.81512 14.8255C5.11829 15.1259 5.60983 15.1259 5.913 14.8255L6.91178 13.8359C7.25664 14.1545 7.61481 14.4437 7.98174 14.7025L7.40285 15.2761C7.09968 15.5765 7.09968 16.0635 7.40285 16.3639C7.70603 16.6643 8.19757 16.6643 8.50074 16.3639L9.35802 15.5145C9.82501 15.7393 10.2968 15.9174 10.7649 16.0473L10.5081 16.3017C10.205 16.6021 10.205 17.0891 10.5081 17.3895C10.8113 17.6899 11.3029 17.6899 11.606 17.3895L12.7001 16.3054C13.5869 16.2879 14.4115 16.068 15.1063 15.6344L20.1236 20.6765C20.5528 21.1078 21.2552 21.1078 21.6845 20.6765C22.1052 20.2537 22.1052 19.5744 21.6845 19.1516L16.571 14.0129Z" fill="currentColor"/>
</svg>
