<svg viewBox="0 0 24 24" fill="currentColor" xmlns="http://www.w3.org/2000/svg">
<path d="M11.5996 2.19325L10.205 3.94355C10.0552 4.1316 10.0552 4.39882 10.205 4.58687L11.3015 5.96307C10.7785 6.20078 10.3544 6.69785 10.1279 7.33047C9.78966 7.02182 9.37331 6.83977 8.92308 6.83977C7.89487 6.83977 7.04335 7.78926 6.89476 9.02776C6.72792 8.94477 6.5474 8.89941 6.35897 8.89941C5.50931 8.89941 4.82051 9.82155 4.82051 10.9591C4.82051 11.299 4.88203 11.6197 4.99096 11.9023C3.25694 12.9287 2 14.442 2 16.2693C2 18.2665 3.49649 19.8857 5.49515 20.9147C5.87318 21.1094 6.33678 20.9595 6.53064 20.5799C6.72449 20.2003 6.57518 19.7348 6.19716 19.5402C4.41889 18.6246 3.53846 17.4176 3.53846 16.2693C3.53846 15.1987 4.29961 14.0795 5.85527 13.1846C7.38955 12.3019 9.56039 11.7314 12 11.7314C14.4396 11.7314 16.6105 12.3019 18.1447 13.1846C19.7004 14.0795 20.4615 15.1987 20.4615 16.2693C20.4615 17.4176 19.5811 18.6246 17.8028 19.5402C17.4248 19.7348 17.2755 20.2003 17.4694 20.5799C17.6632 20.9595 18.1268 21.1094 18.5049 20.9147C20.5035 19.8857 22 18.2665 22 16.2693C22 14.442 20.7431 12.9287 19.009 11.9023C19.118 11.6197 19.1795 11.299 19.1795 10.9591C19.1795 9.82155 18.4907 8.89941 17.641 8.89941C17.4526 8.89941 17.2721 8.94477 17.1052 9.02776C16.9567 7.78926 16.1051 6.83977 15.0769 6.83977C14.6267 6.83977 14.2103 7.02182 13.8721 7.33047C13.6456 6.69785 13.2215 6.20078 12.6985 5.96307L13.795 4.58687C13.9448 4.39882 13.9448 4.1316 13.795 3.94355L12.4004 2.19325C12.1952 1.93558 11.8049 1.93558 11.5996 2.19325Z" fill="currentColor"/>
</svg>
