<svg viewBox="0 0 24 24" fill="currentColor" xmlns="http://www.w3.org/2000/svg">
<path d="M10 3C10 2.44772 10.4477 2 11 2H17C17.5523 2 18 2.44772 18 3C18 3.55228 17.5523 4 17 4H14V5.5H10V3Z" fill="currentColor"/>
<path d="M8 8C8 7.44772 8.44772 7 9 7H15C15.5523 7 16 7.44772 16 8V10H17C17.5523 10 18 10.4477 18 11V21C18 21.5523 17.5523 22 17 22H7C6.44771 22 6 21.5523 6 21V11C6 10.4477 6.44772 10 7 10H8V8ZM9 13V19C9 19.5523 9.44772 20 10 20H14C14.5523 20 15 19.5523 15 19V13C15 12.4477 14.5523 12 14 12H10C9.44772 12 9 12.4477 9 13Z" fill="currentColor"/>
</svg>
