<svg viewBox="0 0 24 24" fill="currentColor" xmlns="http://www.w3.org/2000/svg">
<path d="M9 2C6.92893 2 5.25 3.67893 5.25 5.75C5.25 6.5942 5.52896 7.37325 5.99973 8H3C2.44772 8 2 8.44771 2 9V10C2 10.5523 2.44772 11 3 11H21C21.5523 11 22 10.5523 22 10V9C22 8.44772 21.5523 8 21 8H18.0003C18.471 7.37325 18.75 6.5942 18.75 5.75C18.75 3.67893 17.0711 2 15 2C13.7733 2 12.6842 2.58901 12 3.49963C11.3158 2.58901 10.2267 2 9 2ZM11.25 8H9C7.75736 8 6.75 6.99264 6.75 5.75C6.75 4.50736 7.75736 3.5 9 3.5C10.2426 3.5 11.25 4.50736 11.25 5.75V8ZM15 8H12.75V5.75C12.75 4.50736 13.7574 3.5 15 3.5C16.2426 3.5 17.25 4.50736 17.25 5.75C17.25 6.99264 16.2426 8 15 8Z" fill="currentColor"/>
<path d="M3 12.5H11.25V22H5C3.89543 22 3 21.1046 3 20V12.5Z" fill="currentColor"/>
<path d="M19 22H12.75V12.5H21V20C21 21.1046 20.1046 22 19 22Z" fill="currentColor"/>
</svg>
