<svg viewBox="0 0 24 24" fill="currentColor" xmlns="http://www.w3.org/2000/svg">
<path d="M7.31748 6.78077C6.87657 6.27847 6.03622 6.37711 5.73745 6.96622L4.4741 9.45722C4.90707 9.30926 5.3739 9.22862 5.86056 9.22862C7.56664 9.22862 9.02892 10.2196 9.64356 11.6283C11.1007 10.851 12.8993 10.851 14.3564 11.6283C14.9711 10.2196 16.4333 9.22862 18.1394 9.22862C18.6969 9.22862 19.2284 9.33443 19.7127 9.52606L18.6136 7.1782C18.2658 6.43527 17.2411 6.25465 16.6356 6.82953C16.3359 7.11405 15.85 7.11405 15.5503 6.82953C15.2506 6.54501 15.2506 6.0837 15.5503 5.79918C16.9175 4.50122 19.2309 4.90902 20.0161 6.5864L22.9337 12.8184C23.1058 13.1861 22.9314 13.6167 22.5441 13.7801C22.4194 13.8327 22.2879 13.8512 22.1612 13.8399C21.8032 15.6391 20.1387 17 18.1394 17C15.9033 17 14.086 15.2976 14.0471 13.1835C12.8565 12.2755 11.1435 12.2755 9.95288 13.1835C9.91401 15.2976 8.0967 17 5.86056 17C3.86126 17 2.19678 15.6391 1.83883 13.8398C1.7045 13.8519 1.56511 13.8304 1.43468 13.7708C1.0528 13.5962 0.892284 13.1608 1.07615 12.7982L4.35454 6.33409C5.13778 4.78973 7.34076 4.53117 8.49659 5.84794C8.76793 6.15705 8.72394 6.61646 8.39833 6.87405C8.07273 7.13165 7.58882 7.08989 7.31748 6.78077Z" fill="currentColor"/>
</svg>
