<svg viewBox="0 0 24 24" fill="currentColor" xmlns="http://www.w3.org/2000/svg">
<path d="M18.0019 3.17455C19.4029 4.10749 20.5305 5.47358 21.1798 6.97296C21.829 8.50565 22.1024 10.2716 21.9657 12.2707C21.8632 13.8368 21.5556 15.1695 21.0431 16.3357C20.9406 16.5689 20.8381 16.7689 20.7355 16.9688C20.3255 17.8684 19.9155 18.7014 20.1205 19.5344C20.1546 19.6676 20.223 19.8009 20.2572 19.9342L20.267 19.961C20.4356 20.421 20.6272 20.9433 20.3255 21.4336C20.1205 21.8001 19.6763 22 19.1637 22C18.9245 22 17.2502 21.9334 16.6693 20.2008C16.3618 19.3011 16.2592 18.4348 16.3618 17.6685C16.3618 17.5019 16.3959 17.3353 16.4301 17.1687L16.4344 17.1407C16.5354 16.4846 16.6313 15.8618 16.3618 15.3361C16.1567 14.9363 15.7125 14.6697 15.2 14.3365L15.1546 14.3091C13.1843 13.1167 10.9884 11.7878 9.86941 9.63851C8.53677 10.1383 7.37498 11.1046 6.69157 12.2707C5.93983 13.5702 5.76898 15.1695 6.17902 16.5356C6.21319 16.6023 6.21319 16.6689 6.24736 16.7689C6.34987 17.0354 6.41821 17.302 6.45238 17.6018C6.48655 18.1016 6.28153 18.5681 5.93983 18.8013C5.70064 18.9679 5.42727 19.0013 5.15391 18.9346C4.23132 18.6681 3.37706 17.0021 2.83034 15.6693C2.21527 14.1366 1.94191 12.504 2.01025 10.938C2.21527 8.17246 3.65042 5.54022 5.80315 3.87425C6.75991 3.10791 7.75085 2.64144 8.77596 2.47484C9.86941 2.27492 10.997 2.44152 11.8513 2.94131C12.603 2.27492 13.7306 1.94173 14.8583 2.00837C15.9175 2.07501 16.9768 2.47484 18.0019 3.17455Z" fill="currentColor"/>
</svg>
