<svg viewBox="0 0 24 24" fill="currentColor" xmlns="http://www.w3.org/2000/svg">
<path d="M5.25 8C5.25 4.27208 8.27208 1.25 12 1.25C15.7279 1.25 18.75 4.27208 18.75 8H20C21.1046 8 22 8.89543 22 10V11.2498C21.8871 11.2497 21.7724 11.2752 21.6646 11.3292L13.0062 15.6584C12.9226 15.7002 12.837 15.7365 12.75 15.7672V14C12.75 13.5858 12.4142 13.25 12 13.25C11.5858 13.25 11.25 13.5858 11.25 14V15.7672C11.163 15.7365 11.0774 15.7002 10.9938 15.6584L2.33541 11.3292C2.22755 11.2752 2.11291 11.2497 2 11.2498V10C2 8.89543 2.89543 8 4 8H5.25ZM6.75 8H17.25C17.25 5.10051 14.8995 2.75 12 2.75C9.1005 2.75 6.75 5.10051 6.75 8Z" fill="currentColor"/>
<path d="M22 12.8385L13.6771 17C12.6213 17.5279 11.3787 17.5279 10.3229 17L2 12.8385V20C2 21.1046 2.89543 22 4 22H20C21.1046 22 22 21.1046 22 20V12.8385Z" fill="currentColor"/>
</svg>
