<svg viewBox="0 0 24 24" fill="currentColor" xmlns="http://www.w3.org/2000/svg">
<path d="M22 4C22 5.10457 21.1046 6 20 6C18.8954 6 18 5.10457 18 4C18 2.89543 18.8954 2 20 2C21.1046 2 22 2.89543 22 4Z" fill="currentColor"/>
<path d="M2 19C2 18.4477 2.44772 18 3 18H21C21.5523 18 22 18.4477 22 19V21C22 21.5523 21.5523 22 21 22H3C2.44772 22 2 21.5523 2 21V19Z" fill="currentColor"/>
<path d="M4.28223 16.5C5.63309 8.52029 11.5769 4.93337 16.5197 3.62598C16.5067 3.74884 16.5 3.8736 16.5 3.99992C16.5 5.76892 17.8124 7.2314 19.5167 7.46682C18.9737 10.5113 19.0864 13.8342 19.403 16.5H4.28223Z" fill="currentColor"/>
</svg>
