<svg viewBox="0 0 24 24" fill="currentColor" xmlns="http://www.w3.org/2000/svg">
<path d="M10.7819 6.47688C11.0397 4.37647 12.8299 2.75 15 2.75C17.3472 2.75 19.25 4.65279 19.25 7V9.14538C18.5171 9.44207 18 10.1607 18 11C18 12.1046 18.8954 13 20 13C21.1046 13 22 12.1046 22 11C22 10.1607 21.483 9.44207 20.75 9.14538V7C20.75 3.82436 18.1756 1.25 15 1.25C12.045 1.25 9.61061 3.47909 9.28663 6.34751L1.77713 20.5321C1.42454 21.1981 1.90734 22 2.66092 22H17.3391C18.0927 22 18.5755 21.1981 18.2229 20.5321L10.7819 6.47688Z" fill="currentColor"/>
</svg>
