<svg viewBox="0 0 24 24" fill="currentColor" xmlns="http://www.w3.org/2000/svg">
<path d="M6.25 11C6.25 7.82436 8.82436 5.25 12 5.25C14.3492 5.25 16.3694 6.65879 17.2617 8.67762L13.4697 12.4697C13.1768 12.7626 13.1768 13.2374 13.4697 13.5303C13.7626 13.8232 14.2374 13.8232 14.5303 13.5303L17.7134 10.3473C17.7376 10.5615 17.75 10.7793 17.75 11C17.75 14.1756 15.1756 16.75 12 16.75C9.6508 16.75 7.63065 15.3412 6.73828 13.3224L10.5303 9.53033C10.8232 9.23744 10.8232 8.76256 10.5303 8.46967C10.2374 8.17678 9.76256 8.17678 9.46967 8.46967L6.28664 11.6527C6.26243 11.4385 6.25 11.2207 6.25 11Z" fill="currentColor"/>
<path d="M12.75 19.9692C17.3696 19.5881 21 15.718 21 11C21 6.02944 16.9706 2 12 2C7.02944 2 3 6.02944 3 11C3 15.718 6.63035 19.5881 11.25 19.9692V21.25H9C8.58579 21.25 8.25 21.5858 8.25 22C8.25 22.4142 8.58579 22.75 9 22.75H15C15.4142 22.75 15.75 22.4142 15.75 22C15.75 21.5858 15.4142 21.25 15 21.25H12.75V19.9692ZM12 18.25C7.99594 18.25 4.75 15.0041 4.75 11C4.75 6.99594 7.99594 3.75 12 3.75C16.0041 3.75 19.25 6.99594 19.25 11C19.25 15.0041 16.0041 18.25 12 18.25Z" fill="currentColor"/>
</svg>
