<svg viewBox="0 0 24 24" fill="currentColor" xmlns="http://www.w3.org/2000/svg">
<path d="M10 2C9.44772 2 9 2.44772 9 3V8.5H15V3C15 2.44772 14.5523 2 14 2H10Z" fill="currentColor"/>
<path d="M7 10H17C17.5523 10 18 10.4477 18 11V20C18 21.1046 17.1046 22 16 22H8C6.89543 22 6 21.1046 6 20V11C6 10.4477 6.44772 10 7 10ZM9.9039 13C9.34548 13 8.92072 13.5549 9.01252 14.1644L9.61497 18.1644C9.68759 18.6466 10.0646 19 10.5063 19H13.4937C13.9354 19 14.3124 18.6466 14.385 18.1644L14.9875 14.1644C15.0793 13.5549 14.6545 13 14.0961 13H9.9039Z" fill="currentColor"/>
</svg>
