<svg viewBox="0 0 24 24" fill="currentColor" xmlns="http://www.w3.org/2000/svg">
<path d="M7 7C7 4.23858 9.23858 2 12 2C14.7614 2 17 4.23858 17 7V15.125C17 15.6082 16.6082 16 16.125 16H7.875C7.39175 16 7 15.6082 7 15.125V7Z" fill="currentColor"/>
<path d="M18.5 9.33528V15.125C18.5 16.4367 17.4367 17.5 16.125 17.5H7.875C6.56332 17.5 5.5 16.4367 5.5 15.125V9.33528C4.55596 10.6484 4 12.2593 4 14V22H20V14C20 12.2593 19.444 10.6484 18.5 9.33528ZM9.25 20C9.25 19.5858 9.58579 19.25 10 19.25H14C14.4142 19.25 14.75 19.5858 14.75 20C14.75 20.4142 14.4142 20.75 14 20.75H10C9.58579 20.75 9.25 20.4142 9.25 20Z" fill="currentColor"/>
</svg>
