<svg viewBox="0 0 24 24" fill="currentColor" xmlns="http://www.w3.org/2000/svg">
<path d="M2.6946 4.49581L7.19032 3C7.34905 5.05055 8.80439 6.79292 10.83 7.29844C11.5982 7.49015 12.4018 7.49015 13.17 7.29844C15.1956 6.79292 16.6509 5.05055 16.8097 3L21.3054 4.49581C21.7913 4.65749 22.0806 5.15507 21.9801 5.65645L21.366 8.72179C21.2462 9.31976 20.6285 9.6776 20.049 9.48477L18.0936 8.83411V19.9862C18.0936 20.5461 17.6389 21 17.078 21H6.92201C6.36111 21 5.90641 20.5461 5.90641 19.9862V8.83411L3.95103 9.48477C3.3715 9.6776 2.7538 9.31976 2.634 8.72179L2.01985 5.65645C1.9194 5.15507 2.20868 4.65749 2.6946 4.49581ZM12.0003 9.84813C11.8692 9.84802 11.738 9.92169 11.676 10.0691L10.7743 12.212C10.723 12.3341 10.6127 12.4179 10.4857 12.4312L8.25665 12.665C7.95016 12.6972 7.82653 13.0948 8.05641 13.309L9.72819 14.8673C9.82344 14.956 9.86556 15.0915 9.83845 15.2218L9.36248 17.5093C9.29703 17.8238 9.62069 18.0695 9.88673 17.9073L11.8216 16.7274C11.9318 16.6602 12.0682 16.6602 12.1784 16.7274L14.1133 17.9073C14.3793 18.0695 14.703 17.8238 14.6375 17.5093L14.1616 15.2218C14.1344 15.0915 14.1766 14.956 14.2718 14.8673L15.9436 13.309C16.1735 13.0948 16.0498 12.6972 15.7433 12.665L13.5143 12.4312C13.3873 12.4179 13.277 12.3341 13.2257 12.212L12.324 10.0691C12.2621 9.92191 12.1312 9.84824 12.0003 9.84813Z" fill="currentColor"/>
<path d="M8.72205 3.01347C10.8615 3.64446 13.1387 3.64446 15.2781 3.01347C15.1195 4.35904 14.1431 5.48807 12.8006 5.8231C12.275 5.95427 11.7252 5.95427 11.1996 5.8231C9.85707 5.48807 8.8807 4.35904 8.72205 3.01347Z" fill="currentColor"/>
</svg>
