<svg viewBox="0 0 24 24" fill="currentColor" xmlns="http://www.w3.org/2000/svg">
<path d="M3.92224 4.02182C3.92224 2.9052 4.82638 2 5.94169 2H18.0585C19.1738 2 20.0779 2.9052 20.0779 4.02182V5.28545H3.92224V4.02182Z" fill="currentColor"/>
<path d="M3.80103 6.80182L2.0213 17.9381C1.94579 18.4106 2.07298 18.893 2.37154 19.2667C3.31082 20.4422 4.86321 20.9381 6.30894 20.5245L6.54495 20.457C7.12306 20.2917 7.74454 20.3888 8.24481 20.7227L8.62633 20.9773C10.6693 22.3409 13.3307 22.3409 15.3737 20.9773L15.7552 20.7227C16.2555 20.3888 16.8769 20.2917 17.455 20.457L17.6911 20.5245C19.1368 20.9381 20.6892 20.4422 21.6285 19.2667C21.927 18.893 22.0542 18.4106 21.9787 17.9381L20.199 6.80182H3.80103Z" fill="currentColor"/>
</svg>
