<svg viewBox="0 0 24 24" fill="currentColor" xmlns="http://www.w3.org/2000/svg">
<path d="M3 17H21C21.5523 17 22 17.4477 22 18V21C22 21.5523 21.5523 22 21 22H3C2.44772 22 2 21.5523 2 21V18C2 17.4477 2.44772 17 3 17ZM5.75 18.5C5.75 18.0858 5.41421 17.75 5 17.75C4.58579 17.75 4.25 18.0858 4.25 18.5V20.5C4.25 20.9142 4.58579 21.25 5 21.25C5.41421 21.25 5.75 20.9142 5.75 20.5V18.5ZM9.25 18.5C9.25 18.0858 8.91421 17.75 8.5 17.75C8.08579 17.75 7.75 18.0858 7.75 18.5V20.5C7.75 20.9142 8.08579 21.25 8.5 21.25C8.91421 21.25 9.25 20.9142 9.25 20.5V18.5ZM12.75 18.5C12.75 18.0858 12.4142 17.75 12 17.75C11.5858 17.75 11.25 18.0858 11.25 18.5V20.5C11.25 20.9142 11.5858 21.25 12 21.25C12.4142 21.25 12.75 20.9142 12.75 20.5V18.5ZM16.25 18.5C16.25 18.0858 15.9142 17.75 15.5 17.75C15.0858 17.75 14.75 18.0858 14.75 18.5V20.5C14.75 20.9142 15.0858 21.25 15.5 21.25C15.9142 21.25 16.25 20.9142 16.25 20.5V18.5ZM19.75 18.5C19.75 18.0858 19.4142 17.75 19 17.75C18.5858 17.75 18.25 18.0858 18.25 18.5V20.5C18.25 20.9142 18.5858 21.25 19 21.25C19.4142 21.25 19.75 20.9142 19.75 20.5V18.5Z" fill="currentColor"/>
<path d="M13.988 4.2203C13.9959 4.14796 14 4.07445 14 4C14 2.89543 13.1046 2 12 2C10.8954 2 10 2.89543 10 4C10 4.07445 10.0041 4.14796 10.012 4.2203C5.99799 5.12533 3 8.71255 3 13V15.5H21V13C21 8.71255 18.002 5.12533 13.988 4.2203Z" fill="currentColor"/>
</svg>
