<svg viewBox="0 0 24 24" fill="currentColor" xmlns="http://www.w3.org/2000/svg">
<path d="M12.9713 2.26111C12.3672 1.91296 11.6328 1.91296 11.0287 2.26111L4.02871 6.29559C3.94577 6.3434 3.86695 6.3968 3.79258 6.45521L12 11.1856L20.2074 6.45521C20.1331 6.3968 20.0542 6.3434 19.9713 6.29559L12.9713 2.26111Z" fill="currentColor"/>
<path d="M20.9765 7.79224L12.75 12.5336V22.0001C12.8253 21.9685 12.8992 21.9319 12.9713 21.8904L19.9713 17.8559C20.6062 17.4899 21 16.7957 21 16.0421V8.10948C21 8.00228 20.992 7.89627 20.9765 7.79224Z" fill="currentColor"/>
<path d="M11.25 22.0001V12.5336L3.02347 7.79224C3.00797 7.89627 3 8.00228 3 8.10948V16.0421C3 16.7957 3.39378 17.4899 4.02871 17.8559L11.0287 21.8904C11.1008 21.9319 11.1747 21.9685 11.25 22.0001Z" fill="currentColor"/>
</svg>
