<svg viewBox="0 0 24 24" fill="currentColor" xmlns="http://www.w3.org/2000/svg">
<path d="M5.52503 5.39414C7.19427 3.75776 9.4787 2.75 12 2.75C14.5213 2.75 16.8057 3.75776 18.475 5.39414C18.7708 5.68411 19.2456 5.67939 19.5356 5.3836C19.8255 5.08781 19.8208 4.61296 19.525 4.32299C17.5868 2.42288 14.9296 1.25 12 1.25C9.07039 1.25 6.41323 2.42288 4.47497 4.32299C4.17918 4.61296 4.17446 5.08781 4.46443 5.3836C4.75439 5.67939 5.22924 5.68411 5.52503 5.39414Z" fill="currentColor"/>
<path d="M8.87554 6.58568C9.79407 6.05434 10.8604 5.75 12 5.75C13.1396 5.75 14.2059 6.05434 15.1245 6.58568C15.483 6.79309 15.9418 6.67057 16.1492 6.31202C16.3566 5.95347 16.2341 5.49468 15.8755 5.28727C14.7349 4.62742 13.4104 4.25 12 4.25C10.5896 4.25 9.26514 4.62742 8.12445 5.28727C7.76591 5.49468 7.64339 5.95347 7.85079 6.31202C8.0582 6.67057 8.517 6.79309 8.87554 6.58568Z" fill="currentColor"/>
<path d="M8.87554 17.4143C8.517 17.2069 8.0582 17.3294 7.8508 17.688C7.64339 18.0465 7.76591 18.5053 8.12446 18.7127C9.26514 19.3726 10.5896 19.75 12 19.75C13.4104 19.75 14.7349 19.3726 15.8755 18.7127C16.2341 18.5053 16.3566 18.0465 16.1492 17.688C15.9418 17.3294 15.483 17.2069 15.1245 17.4143C14.2059 17.9457 13.1396 18.25 12 18.25C10.8604 18.25 9.79407 17.9457 8.87554 17.4143Z" fill="currentColor"/>
<path d="M20.5487 18.5187C20.8001 18.1895 20.737 17.7188 20.4078 17.4674C20.0786 17.2161 19.6079 17.2791 19.3565 17.6083C19.0867 17.9617 18.792 18.2951 18.475 18.6059C16.8057 20.2422 14.5213 21.25 12 21.25C9.4787 21.25 7.19427 20.2422 5.52503 18.6059C5.22924 18.3159 4.75439 18.3206 4.46443 18.6164C4.17446 18.9122 4.17918 19.387 4.47497 19.677C6.41323 21.5771 9.07039 22.75 12 22.75C14.9296 22.75 17.5868 21.5771 19.525 19.677C19.8931 19.3162 20.2353 18.9291 20.5487 18.5187Z" fill="currentColor"/>
<path d="M13.4819 15.5048C14.0277 15.8349 14.692 16 15.4746 16C15.8363 16 16.2013 15.9633 16.5696 15.89C16.9379 15.8166 17.27 15.7212 17.5659 15.6039C17.7238 15.5452 17.8356 15.4498 17.9014 15.3177C17.9671 15.1857 18 15.0243 18 14.8336V12.2806C18 12.0605 17.9474 11.8918 17.8422 11.7744C17.7435 11.657 17.5955 11.5983 17.3982 11.5983H15.8494C15.6521 11.5983 15.5009 11.6534 15.3957 11.7634C15.2904 11.8661 15.2378 12.0165 15.2378 12.2146C15.2378 12.4053 15.2904 12.5557 15.3957 12.6657C15.5009 12.7758 15.6521 12.8308 15.8494 12.8308H16.7373V14.3518C16.5872 14.3996 16.436 14.4391 16.2835 14.4704C16.0336 14.5218 15.7902 14.5475 15.5535 14.5475C14.8498 14.5475 14.3171 14.3347 13.9554 13.9092C13.6002 13.4837 13.4227 12.8565 13.4227 12.0275C13.4227 11.4773 13.4983 11.0151 13.6496 10.641C13.8074 10.2595 14.0442 9.97341 14.3598 9.78267C14.6755 9.58459 15.0668 9.48556 15.5338 9.48556C15.8231 9.48556 16.0895 9.51857 16.3328 9.58459C16.5762 9.64328 16.8063 9.73865 17.0234 9.8707C17.1878 9.95873 17.3325 9.98808 17.4574 9.95873C17.589 9.92205 17.6942 9.84869 17.7731 9.73865C17.8586 9.62127 17.9112 9.48923 17.9309 9.3425C17.9573 9.18845 17.9441 9.04539 17.8915 8.91334C17.8454 8.77396 17.7534 8.66025 17.6153 8.57221C17.2864 8.3668 16.9444 8.22008 16.5893 8.13205C16.2342 8.04402 15.879 8 15.5239 8C14.9452 8 14.4256 8.09537 13.9652 8.28611C13.5114 8.47685 13.1234 8.74828 12.8012 9.10041C12.4855 9.44521 12.2422 9.86703 12.0712 10.3659C11.9067 10.8574 11.8245 11.4113 11.8245 12.0275C11.8245 12.8271 11.9659 13.5241 12.2487 14.1183C12.5315 14.7125 12.9426 15.1747 13.4819 15.5048Z" fill="currentColor"/>
<path d="M7.3497 15.8569C7.70484 15.9523 8.05012 16 8.38553 16C8.92481 16 9.39175 15.89 9.78635 15.6699C10.1809 15.4498 10.4835 15.1453 10.6939 14.7565C10.9044 14.3604 11.0096 13.9055 11.0096 13.392C11.0096 12.9005 10.9175 12.4677 10.7334 12.0935C10.5492 11.7194 10.2927 11.4296 9.96392 11.2242C9.63509 11.0115 9.25035 10.9051 8.80972 10.9051C8.48746 10.9051 8.19151 10.9674 7.92187 11.0922C7.82268 11.138 7.73061 11.1909 7.64565 11.2506V9.51861H10.0034C10.2204 9.51861 10.3848 9.45992 10.4966 9.34254C10.6084 9.21783 10.6643 9.04543 10.6643 8.82535C10.6643 8.59793 10.6084 8.42553 10.4966 8.30816C10.3848 8.18344 10.2204 8.12109 10.0034 8.12109H6.83673C6.62628 8.12109 6.46186 8.18344 6.34348 8.30816C6.23168 8.43287 6.17578 8.61627 6.17578 8.85836V12.3136C6.17578 12.519 6.2251 12.6768 6.32375 12.7868C6.4224 12.8895 6.57366 12.9409 6.77754 12.9409C6.89592 12.9409 7.00772 12.9152 7.11295 12.8638C7.21817 12.8125 7.30367 12.7575 7.36943 12.6988C7.55358 12.5447 7.73115 12.4383 7.90214 12.3796C8.07971 12.3136 8.25399 12.2806 8.42498 12.2806C8.76697 12.2806 9.03661 12.387 9.23391 12.5997C9.43779 12.8125 9.53972 13.0949 9.53972 13.447C9.53972 13.6745 9.49369 13.8725 9.40162 14.0413C9.30954 14.21 9.17472 14.342 8.99715 14.4374C8.81958 14.5328 8.60584 14.5805 8.35593 14.5805C8.10602 14.5805 7.85939 14.5438 7.61606 14.4704C7.3793 14.3971 7.14583 14.2944 6.91565 14.1623C6.75781 14.0669 6.61312 14.0339 6.48159 14.0633C6.35663 14.0926 6.25141 14.1623 6.16591 14.2724C6.08699 14.3751 6.03438 14.4998 6.00807 14.6465C5.98834 14.7932 6.00478 14.9363 6.0574 15.0757C6.11659 15.215 6.22181 15.3324 6.37307 15.4278C6.66902 15.6185 6.99457 15.7616 7.3497 15.8569Z" fill="currentColor"/>
</svg>
