<svg viewBox="0 0 24 24" fill="currentColor" xmlns="http://www.w3.org/2000/svg">
<path d="M20 4V20C20 21.1046 19.1046 22 18 22H6C4.89543 22 4 21.1046 4 20V7.82843C4 7.29799 4.21071 6.78929 4.58579 6.41421L8.41421 2.58579C8.78929 2.21071 9.29799 2 9.82843 2H18C19.1046 2 20 2.89543 20 4ZM13.4819 16.5048C14.0277 16.8349 14.692 17 15.4746 17C15.8363 17 16.2013 16.9633 16.5696 16.89C16.9379 16.8166 17.27 16.7212 17.5659 16.6039C17.7238 16.5452 17.8356 16.4498 17.9014 16.3177C17.9671 16.1857 18 16.0243 18 15.8336V13.2806C18 13.0605 17.9474 12.8918 17.8422 12.7744C17.7435 12.657 17.5955 12.5983 17.3982 12.5983H15.8494C15.6521 12.5983 15.5009 12.6534 15.3957 12.7634C15.2904 12.8661 15.2378 13.0165 15.2378 13.2146C15.2378 13.4053 15.2904 13.5557 15.3957 13.6657C15.5009 13.7758 15.6521 13.8308 15.8494 13.8308H16.7373V15.3518C16.5872 15.3996 16.436 15.4391 16.2835 15.4704C16.0336 15.5218 15.7902 15.5475 15.5535 15.5475C14.8498 15.5475 14.3171 15.3347 13.9554 14.9092C13.6002 14.4837 13.4227 13.8565 13.4227 13.0275C13.4227 12.4773 13.4983 12.0151 13.6496 11.641C13.8074 11.2595 14.0442 10.9734 14.3598 10.7827C14.6755 10.5846 15.0668 10.4856 15.5338 10.4856C15.8231 10.4856 16.0895 10.5186 16.3328 10.5846C16.5762 10.6433 16.8063 10.7387 17.0234 10.8707C17.1878 10.9587 17.3325 10.9881 17.4574 10.9587C17.589 10.9221 17.6942 10.8487 17.7731 10.7387C17.8586 10.6213 17.9112 10.4892 17.9309 10.3425C17.9573 10.1884 17.9441 10.0454 17.8915 9.91334C17.8454 9.77396 17.7534 9.66025 17.6153 9.57221C17.2864 9.3668 16.9445 9.22008 16.5893 9.13205C16.2342 9.04402 15.879 9 15.5239 9C14.9452 9 14.4256 9.09537 13.9652 9.28611C13.5114 9.47684 13.1234 9.74828 12.8012 10.1004C12.4855 10.4452 12.2422 10.867 12.0712 11.3659C11.9067 11.8574 11.8245 12.4113 11.8245 13.0275C11.8245 13.8271 11.9659 14.5241 12.2487 15.1183C12.5315 15.7125 12.9426 16.1747 13.4819 16.5048ZM7.3497 16.8569C7.70484 16.9523 8.05012 17 8.38552 17C8.92481 17 9.39175 16.89 9.78635 16.6699C10.1809 16.4498 10.4835 16.1453 10.6939 15.7565C10.9044 15.3604 11.0096 14.9055 11.0096 14.392C11.0096 13.9005 10.9175 13.4677 10.7334 13.0935C10.5492 12.7194 10.2927 12.4296 9.96392 12.2242C9.63509 12.0115 9.25035 11.9051 8.80972 11.9051C8.48746 11.9051 8.19151 11.9674 7.92187 12.0922C7.82268 12.138 7.73061 12.1909 7.64565 12.2506V10.5186H10.0034C10.2204 10.5186 10.3848 10.4599 10.4966 10.3425C10.6084 10.2178 10.6643 10.0454 10.6643 9.82531C10.6643 9.59789 10.6084 9.42549 10.4966 9.30812C10.3848 9.1834 10.2204 9.12105 10.0034 9.12105H6.83673C6.62628 9.12105 6.46186 9.1834 6.34348 9.30812C6.23168 9.43283 6.17578 9.61623 6.17578 9.85832V13.3136C6.17578 13.519 6.2251 13.6768 6.32375 13.7868C6.4224 13.8895 6.57366 13.9409 6.77754 13.9409C6.89592 13.9409 7.00772 13.9152 7.11295 13.8638C7.21817 13.8125 7.30367 13.7575 7.36943 13.6988C7.55358 13.5447 7.73115 13.4383 7.90214 13.3796C8.07971 13.3136 8.25399 13.2806 8.42498 13.2806C8.76697 13.2806 9.03661 13.387 9.23391 13.5997C9.43779 13.8125 9.53972 14.0949 9.53972 14.447C9.53972 14.6745 9.49369 14.8725 9.40162 15.0413C9.30954 15.21 9.17472 15.342 8.99715 15.4374C8.81958 15.5328 8.60584 15.5805 8.35593 15.5805C8.10602 15.5805 7.85939 15.5438 7.61606 15.4704C7.3793 15.3971 7.14583 15.2944 6.91565 15.1623C6.75781 15.0669 6.61312 15.0339 6.48159 15.0633C6.35663 15.0926 6.25141 15.1623 6.16591 15.2724C6.08699 15.3751 6.03438 15.4998 6.00807 15.6465C5.98834 15.7932 6.00478 15.9363 6.0574 16.0757C6.11659 16.215 6.22181 16.3324 6.37307 16.4278C6.66902 16.6185 6.99457 16.7616 7.3497 16.8569Z" fill="currentColor"/>
</svg>
