<svg viewBox="0 0 24 24" fill="currentColor" xmlns="http://www.w3.org/2000/svg">
<path d="M5.45904 5.45926C7.13378 3.78452 9.44525 2.75 11.9998 2.75C14.5531 2.75 16.8637 3.78358 18.5382 5.45698C18.8312 5.74977 19.3061 5.74961 19.5989 5.45661C19.8917 5.16362 19.8915 4.68874 19.5985 4.39595C17.6542 2.45296 14.9668 1.25 11.9998 1.25C9.03146 1.25 6.34293 2.45406 4.39838 4.3986C4.10549 4.6915 4.10549 5.16637 4.39838 5.45926C4.69127 5.75216 5.16615 5.75216 5.45904 5.45926Z" fill="currentColor"/>
<path d="M7.58036 7.58058C8.71221 6.44873 10.2737 5.75 11.9998 5.75C13.7248 5.75 15.2853 6.44783 16.417 7.57838C16.71 7.87113 17.1849 7.87089 17.4777 7.57785C17.7704 7.28481 17.7702 6.80994 17.4771 6.51719C16.0757 5.11714 14.1383 4.25 11.9998 4.25C9.85988 4.25 7.92135 5.11827 6.5197 6.51992C6.22681 6.81282 6.22681 7.28769 6.5197 7.58058C6.81259 7.87348 7.28747 7.87348 7.58036 7.58058Z" fill="currentColor"/>
<path d="M9.70168 9.7019C10.2906 9.11295 11.1021 8.75 11.9998 8.75C12.8964 8.75 13.7071 9.11212 14.2959 9.6999C14.589 9.99253 15.0639 9.99212 15.3565 9.69898C15.6492 9.40583 15.6488 8.93096 15.3556 8.63832C14.4971 7.78127 13.3098 7.25 11.9998 7.25C10.6883 7.25 9.49978 7.78248 8.64102 8.64124C8.34813 8.93414 8.34813 9.40901 8.64102 9.7019C8.93391 9.9948 9.40879 9.9948 9.70168 9.7019Z" fill="currentColor"/>
<path d="M14.0281 21.3931C14.7495 21.7977 15.6313 22 16.6734 22C17.1632 22 17.662 21.954 18.1697 21.8621C18.6774 21.7609 19.1272 21.6368 19.519 21.4897C19.6883 21.4253 19.8085 21.3241 19.8798 21.1862C19.9599 21.0483 20 20.8782 20 20.6759V17.3241C20 17.0943 19.9377 16.9195 19.813 16.8C19.6972 16.6713 19.5279 16.6069 19.3053 16.6069H17.1009C16.8782 16.6069 16.7045 16.6621 16.5799 16.7724C16.4641 16.8828 16.4062 17.0437 16.4062 17.2552C16.4062 17.4575 16.4641 17.6184 16.5799 17.7379C16.7045 17.8575 16.8782 17.9172 17.1009 17.9172H18.5705V20.1834C18.3297 20.2592 18.0848 20.3222 17.8357 20.3724C17.4705 20.446 17.1098 20.4828 16.7535 20.4828C15.7204 20.4828 14.941 20.1885 14.4155 19.6C13.89 19.0115 13.6273 18.1517 13.6273 17.0207C13.6273 16.2759 13.7386 15.646 13.9613 15.131C14.1929 14.6161 14.5358 14.2253 14.99 13.9586C15.4443 13.6828 16.0009 13.5448 16.66 13.5448C17.0875 13.5448 17.475 13.5908 17.8223 13.6828C18.1697 13.7747 18.5126 13.9218 18.851 14.1241C19.0292 14.2253 19.1895 14.2621 19.332 14.2345C19.4834 14.2069 19.6081 14.1379 19.7061 14.0276C19.8041 13.9172 19.8709 13.7885 19.9065 13.6414C19.9421 13.4851 19.9332 13.3333 19.8798 13.1862C19.8352 13.0391 19.7373 12.9149 19.5858 12.8138C19.1405 12.5195 18.664 12.3126 18.1563 12.1931C17.6576 12.0644 17.1588 12 16.66 12C15.9029 12 15.226 12.1195 14.6293 12.3586C14.0326 12.5885 13.5249 12.9241 13.1063 13.3655C12.6966 13.7977 12.3804 14.3218 12.1577 14.9379C11.944 15.554 11.8371 16.2483 11.8371 17.0207C11.8371 18.0414 12.0241 18.9241 12.3982 19.669C12.7723 20.4138 13.3156 20.9885 14.0281 21.3931Z" fill="currentColor"/>
<path d="M5.75015 21.8069C6.24002 21.9356 6.72098 22 7.19303 22C7.89665 22 8.5023 21.8667 9.00998 21.6C9.52657 21.3241 9.92291 20.9471 10.199 20.469C10.4751 19.9816 10.6132 19.4207 10.6132 18.7862C10.6132 18.1701 10.4885 17.6322 10.2391 17.1724C9.99862 16.7034 9.65571 16.3402 9.21038 16.0828C8.77396 15.8161 8.25737 15.6828 7.66063 15.6828C7.20639 15.6828 6.78778 15.7701 6.40479 15.9448C6.22842 16.0253 6.0681 16.1213 5.92383 16.233V13.6H9.39742C9.6379 13.6 9.82048 13.5356 9.94518 13.4069C10.0788 13.2782 10.1456 13.0989 10.1456 12.869C10.1456 12.6299 10.0788 12.4506 9.94518 12.331C9.82048 12.2023 9.6379 12.1379 9.39742 12.1379H5.002C4.76152 12.1379 4.57448 12.2069 4.44088 12.3448C4.31619 12.4736 4.25384 12.6621 4.25384 12.9103V17.4207C4.25384 17.6322 4.31173 17.7977 4.42752 17.9172C4.5433 18.0368 4.71253 18.0966 4.9352 18.0966C5.0777 18.0966 5.2113 18.0644 5.33599 18C5.46069 17.9264 5.56311 17.8529 5.64327 17.7793C5.90157 17.5402 6.16431 17.3747 6.43151 17.2828C6.69871 17.1816 6.97482 17.131 7.25983 17.131C7.78532 17.131 8.19948 17.292 8.5023 17.6138C8.80513 17.9264 8.95654 18.3402 8.95654 18.8552C8.95654 19.1862 8.88529 19.4759 8.74278 19.7241C8.60028 19.9724 8.39542 20.1655 8.12822 20.3034C7.86103 20.4414 7.54039 20.5103 7.16631 20.5103C6.78332 20.5103 6.4226 20.4598 6.08415 20.3586C5.7457 20.2575 5.4117 20.1103 5.08216 19.9172C4.90402 19.8161 4.73925 19.7747 4.58784 19.7931C4.44533 19.8115 4.32064 19.8759 4.21376 19.9862C4.11579 20.0874 4.04899 20.2161 4.01336 20.3724C3.98664 20.5195 4 20.6713 4.05344 20.8276C4.11579 20.9747 4.23157 21.1034 4.4008 21.2138C4.8105 21.4805 5.26029 21.6782 5.75015 21.8069Z" fill="currentColor"/>
</svg>
