<svg viewBox="0 0 24 24" fill="currentColor" xmlns="http://www.w3.org/2000/svg">
<path d="M8.94232 11.4447L10.1163 8.57288H10.1374L11.3205 11.4447H8.94232Z" fill="currentColor"/>
<path d="M2 5C2 3.89543 2.89543 3 4 3H20C21.1046 3 22 3.89543 22 5V16C22 17.1046 21.1046 18 20 18H12.75V20.25H15C15.4142 20.25 15.75 20.5858 15.75 21C15.75 21.4142 15.4142 21.75 15 21.75H9C8.58579 21.75 8.25 21.4142 8.25 21C8.25 20.5858 8.58579 20.25 9 20.25H11.25V18H4C2.89543 18 2 17.1046 2 16V5ZM14.9007 14.2625C15.0409 14.4136 15.2407 14.4892 15.5001 14.4892C15.7595 14.4892 15.9558 14.4136 16.0891 14.2625C16.2223 14.1041 16.2889 13.8846 16.2889 13.6039V9.91161C16.2889 9.62371 16.2188 9.40418 16.0785 9.25304C15.9453 9.09469 15.7525 9.01552 15.5001 9.01552C15.2407 9.01552 15.0409 9.09469 14.9007 9.25304C14.7675 9.40418 14.7009 9.62371 14.7009 9.91161V13.6039C14.7009 13.8846 14.7675 14.1041 14.9007 14.2625ZM14.8165 7.9251C14.9778 8.06185 15.2057 8.13023 15.5001 8.13023C15.7946 8.13023 16.0189 8.06185 16.1732 7.9251C16.3274 7.78115 16.4046 7.57962 16.4046 7.32051C16.4046 7.05421 16.3274 6.85268 16.1732 6.71592C16.0189 6.57197 15.7946 6.5 15.5001 6.5C15.2057 6.5 14.9778 6.57197 14.8165 6.71592C14.6623 6.85268 14.5852 7.05421 14.5852 7.32051C14.5852 7.57962 14.6623 7.78115 14.8165 7.9251ZM6.64582 14.3596C6.77202 14.4532 6.93328 14.5 7.12959 14.5C7.35394 14.5 7.52221 14.446 7.63439 14.3381C7.75358 14.2229 7.86576 14.0394 7.97092 13.7874L8.39946 12.751H11.868L12.3038 13.7874C12.4019 14.0322 12.5141 14.2121 12.6403 14.3273C12.7735 14.4424 12.9593 14.5 13.1977 14.5C13.387 14.5 13.5413 14.4568 13.6604 14.3704C13.7796 14.2769 13.8497 14.1509 13.8708 13.9926C13.8988 13.827 13.8673 13.6471 13.7761 13.4528L11.0628 7.39609C10.9577 7.15137 10.828 6.97503 10.6737 6.86707C10.5195 6.75191 10.3407 6.69433 10.1374 6.69433C9.93404 6.69433 9.75525 6.75191 9.60101 6.86707C9.44676 6.97503 9.31355 7.15137 9.20137 7.39609L6.50911 13.4528C6.41796 13.6471 6.38641 13.8234 6.41446 13.9818C6.44951 14.1401 6.52663 14.2661 6.64582 14.3596Z" fill="currentColor"/>
</svg>
