<svg viewBox="0 0 24 24" fill="currentColor" xmlns="http://www.w3.org/2000/svg">
<path d="M10.1163 10.0729L8.94232 12.9447H11.3205L10.1374 10.0729H10.1163Z" fill="currentColor"/>
<path d="M12 1.25C12.4142 1.25 12.75 1.58579 12.75 2V4H15.25V3C15.25 2.58579 15.5858 2.25 16 2.25C16.4142 2.25 16.75 2.58579 16.75 3V4H18C19.1046 4 20 4.89543 20 6V7.25H21C21.4142 7.25 21.75 7.58579 21.75 8C21.75 8.41421 21.4142 8.75 21 8.75H20V11.25H22C22.4142 11.25 22.75 11.5858 22.75 12C22.75 12.4142 22.4142 12.75 22 12.75H20V15.25H21C21.4142 15.25 21.75 15.5858 21.75 16C21.75 16.4142 21.4142 16.75 21 16.75H20V18C20 19.1046 19.1046 20 18 20H16.75V21C16.75 21.4142 16.4142 21.75 16 21.75C15.5858 21.75 15.25 21.4142 15.25 21V20H12.75V22C12.75 22.4142 12.4142 22.75 12 22.75C11.5858 22.75 11.25 22.4142 11.25 22V20H8.75V21C8.75 21.4142 8.41421 21.75 8 21.75C7.58579 21.75 7.25 21.4142 7.25 21V20H6C4.89543 20 4 19.1046 4 18V16.75H3C2.58579 16.75 2.25 16.4142 2.25 16C2.25 15.5858 2.58579 15.25 3 15.25H4V12.75H2C1.58579 12.75 1.25 12.4142 1.25 12C1.25 11.5858 1.58579 11.25 2 11.25H4V8.75H3C2.58579 8.75 2.25 8.41421 2.25 8C2.25 7.58579 2.58579 7.25 3 7.25H4V6C4 4.89543 4.89543 4 6 4H7.25V3C7.25 2.58579 7.58579 2.25 8 2.25C8.41421 2.25 8.75 2.58579 8.75 3V4H11.25V2C11.25 1.58579 11.5858 1.25 12 1.25ZM6.74583 15.9205C6.85388 15.9735 6.9818 16 7.12959 16C7.35394 16 7.52221 15.946 7.63439 15.8381C7.75358 15.7229 7.86576 15.5394 7.97092 15.2874L8.39946 14.251H11.868L12.3038 15.2874C12.4019 15.5322 12.5141 15.7121 12.6403 15.8273C12.7735 15.9424 12.9593 16 13.1977 16C13.387 16 13.5413 15.9568 13.6604 15.8704C13.7796 15.7769 13.8497 15.6509 13.8708 15.4926C13.8988 15.327 13.8673 15.1471 13.7761 14.9528L11.0628 8.89609C10.9577 8.65137 10.828 8.47503 10.6737 8.36707C10.5195 8.25191 10.3407 8.19433 10.1374 8.19433C9.93404 8.19433 9.75525 8.25191 9.60101 8.36707C9.44676 8.47503 9.31355 8.65137 9.20137 8.89609L6.50911 14.9528C6.43916 15.1019 6.40432 15.2404 6.40456 15.3684C6.59128 15.4882 6.72139 15.6886 6.74583 15.9205ZM15.5001 15.9892C15.7595 15.9892 15.9558 15.9136 16.0891 15.7625C16.2223 15.6041 16.2889 15.3846 16.2889 15.1039V11.4116C16.2889 11.1237 16.2188 10.9042 16.0785 10.753C15.9453 10.5947 15.7525 10.5155 15.5001 10.5155C15.2407 10.5155 15.0409 10.5947 14.9007 10.753C14.7675 10.9042 14.7009 11.1237 14.7009 11.4116V15.1039C14.7009 15.3846 14.7675 15.6041 14.9007 15.7625C15.0409 15.9136 15.2407 15.9892 15.5001 15.9892ZM15.5001 9.63023C15.7946 9.63023 16.0189 9.56185 16.1732 9.4251C16.3274 9.28115 16.4046 9.07962 16.4046 8.82051C16.4046 8.55421 16.3274 8.35268 16.1732 8.21592C16.0189 8.07197 15.7946 8 15.5001 8C15.2057 8 14.9778 8.07197 14.8165 8.21592C14.6623 8.35268 14.5852 8.55421 14.5852 8.82051C14.5852 9.07962 14.6623 9.28115 14.8165 9.4251C14.9778 9.56185 15.2057 9.63023 15.5001 9.63023Z" fill="currentColor"/>
</svg>
