<svg viewBox="0 0 24 24" fill="currentColor" xmlns="http://www.w3.org/2000/svg">
<path d="M13 3V3.07893C16.0042 3.55805 18.3 6.16092 18.3 9.3V12.8394C18.3 13.6012 18.4895 14.3509 18.8515 15.0212L19.4069 16.0497C20.1264 17.3822 19.1614 19 17.647 19H6.35299C4.83859 19 3.87361 17.3822 4.59318 16.0497L5.14857 15.0212C5.51051 14.3509 5.70001 13.6012 5.70001 12.8394V9.3C5.70001 6.16092 7.99585 3.55805 11 3.07893V3C11 2.44772 11.4477 2 12 2C12.5523 2 13 2.44772 13 3ZM12.75 5.99999C12.75 5.58577 12.4142 5.24999 12 5.24999C11.5858 5.24999 11.25 5.58577 11.25 5.99999V9.99999C11.25 10.4142 11.5858 10.75 12 10.75C12.4142 10.75 12.75 10.4142 12.75 9.99999V5.99999Z" fill="currentColor"/>
<path d="M8.87733 20.5C9.61039 21.4145 10.7368 22 12 22C13.2632 22 14.3896 21.4145 15.1227 20.5H8.87733Z" fill="currentColor"/>
</svg>
