<svg viewBox="0 0 24 24" fill="currentColor" xmlns="http://www.w3.org/2000/svg">
<path d="M17 17C17 19.7614 14.7614 22 12 22C9.23858 22 7 19.7614 7 17C7 14.2386 9.23858 12 12 12C14.7614 12 17 14.2386 17 17ZM12 13.25C11.5858 13.25 11.25 13.5858 11.25 14V17C11.25 17.4142 11.5858 17.75 12 17.75C12.4142 17.75 12.75 17.4142 12.75 17V14C12.75 13.5858 12.4142 13.25 12 13.25ZM12 21C12.5523 21 13 20.5523 13 20C13 19.4477 12.5523 19 12 19C11.4477 19 11 19.4477 11 20C11 20.5523 11.4477 21 12 21Z" fill="currentColor"/>
<path d="M2 4C2 2.89543 2.89543 2 4 2H20C21.1046 2 22 2.89543 22 4V9.25H2V4ZM5 3.75C4.58579 3.75 4.25 4.08579 4.25 4.5V6.5C4.25 6.91421 4.58579 7.25 5 7.25C5.41421 7.25 5.75 6.91421 5.75 6.5V4.5C5.75 4.08579 5.41421 3.75 5 3.75ZM8 3.75C7.58579 3.75 7.25 4.08579 7.25 4.5V6.5C7.25 6.91421 7.58579 7.25 8 7.25C8.41421 7.25 8.75 6.91421 8.75 6.5V4.5C8.75 4.08579 8.41421 3.75 8 3.75ZM12 4.75C11.5858 4.75 11.25 5.08579 11.25 5.5C11.25 5.91421 11.5858 6.25 12 6.25H19C19.4142 6.25 19.75 5.91421 19.75 5.5C19.75 5.08579 19.4142 4.75 19 4.75H12Z" fill="currentColor"/>
<path d="M2 16V10.75H10.2086C7.4899 11.5278 5.5 14.0315 5.5 17C5.5 17.3401 5.52611 17.674 5.57645 18H4C2.89543 18 2 17.1046 2 16Z" fill="currentColor"/>
<path d="M18.4236 18H20C21.1046 18 22 17.1046 22 16V10.75H13.7914C16.5101 11.5278 18.5 14.0315 18.5 17C18.5 17.3401 18.4739 17.674 18.4236 18Z" fill="currentColor"/>
</svg>
