<svg viewBox="0 0 24 24" fill="currentColor" xmlns="http://www.w3.org/2000/svg">
<path d="M17 2.25C17.4142 2.25 17.75 2.58579 17.75 3V4H20C21.1046 4 22 4.89543 22 6V7.25H2V6C2 4.89543 2.89543 4 4 4H6.25V3C6.25 2.58579 6.58579 2.25 7 2.25C7.41421 2.25 7.75 2.58579 7.75 3V4H16.25V3C16.25 2.58579 16.5858 2.25 17 2.25Z" fill="currentColor"/>
<path d="M2 8.75H22V18C22 19.1046 21.1046 20 20 20H4C2.89543 20 2 19.1046 2 18V8.75ZM12.75 10C12.75 9.58579 12.4142 9.25 12 9.25C11.5858 9.25 11.25 9.58579 11.25 10V13.25H8C7.58579 13.25 7.25 13.5858 7.25 14C7.25 14.4142 7.58579 14.75 8 14.75H11.25V18C11.25 18.4142 11.5858 18.75 12 18.75C12.4142 18.75 12.75 18.4142 12.75 18V14.75H16C16.4142 14.75 16.75 14.4142 16.75 14C16.75 13.5858 16.4142 13.25 16 13.25H12.75V10Z" fill="currentColor"/>
</svg>
