<svg viewBox="0 0 24 24" fill="currentColor" xmlns="http://www.w3.org/2000/svg">
<path d="M11.4415 2C10.5806 2 9.81635 2.55086 9.54412 3.36754L9.11999 4.63996C9.04267 4.87192 8.88305 5.06751 8.6713 5.18976L7.76646 5.71217C7.55472 5.83442 7.30552 5.87486 7.06598 5.82584L5.75197 5.55695C4.90859 5.38436 4.04939 5.77081 3.61896 6.51634L3.06048 7.48366C2.63005 8.22919 2.72497 9.1665 3.29612 9.8106L4.18599 10.8141C4.34822 10.9971 4.43779 11.2331 4.43779 11.4776L4.43778 12.5225C4.43777 12.767 4.3482 13.003 4.18598 13.1859L3.2961 14.1895C2.72494 14.8336 2.63002 15.7709 3.06045 16.5164L3.61893 17.4837C4.04937 18.2293 4.90856 18.6157 5.75195 18.4431L7.06598 18.1742C7.30551 18.1252 7.55469 18.1656 7.76643 18.2879L8.67128 18.8102C8.88304 18.9325 9.04267 19.1281 9.11999 19.3601L9.54412 20.6325C9.81635 21.4491 10.5806 22 11.4415 22H12.5585C13.4193 22 14.1836 21.4491 14.4558 20.6325L14.88 19.36C14.9573 19.1281 15.1169 18.9325 15.3286 18.8102L16.2335 18.2878C16.4452 18.1656 16.6944 18.1251 16.934 18.1742L18.248 18.4431C19.0914 18.6156 19.9506 18.2292 20.381 17.4837L20.9395 16.5163C21.3699 15.7708 21.275 14.8335 20.7038 14.1894L19.8139 13.1859C19.6517 13.0029 19.5621 12.7669 19.5621 12.5224V11.4777C19.5621 11.2332 19.6516 10.9971 19.8139 10.8142L20.7037 9.81067C21.2749 9.16657 21.3698 8.22925 20.9394 7.48373L20.3809 6.51641C19.9505 5.77088 19.0913 5.38443 18.2479 5.55701L16.9339 5.8259C16.6943 5.87492 16.4451 5.83447 16.2334 5.7122L15.3286 5.18976C15.1169 5.06751 14.9573 4.87193 14.88 4.63999L14.4558 3.36754C14.1836 2.55086 13.4193 2 12.5585 2H11.4415ZM9.5 14.2768V9.72318C9.5 8.95536 10.3295 8.47399 10.9961 8.85494L14.9806 11.1318C15.6524 11.5157 15.6524 12.4843 14.9806 12.8682L10.9961 15.1451C10.3295 15.526 9.5 15.0446 9.5 14.2768Z" fill="currentColor"/>
</svg>
