<svg viewBox="0 0 24 24" fill="currentColor" xmlns="http://www.w3.org/2000/svg">
<path d="M12.75 2.75H14C14.4142 2.75 14.75 2.41421 14.75 2C14.75 1.58579 14.4142 1.25 14 1.25H10C9.58579 1.25 9.25 1.58579 9.25 2C9.25 2.41421 9.58579 2.75 10 2.75H11.25V4H5.75V2.75H7C7.41421 2.75 7.75 2.41421 7.75 2C7.75 1.58579 7.41421 1.25 7 1.25H3C2.58579 1.25 2.25 1.58579 2.25 2C2.25 2.41421 2.58579 2.75 3 2.75H4.25V4H4C2.89543 4 2 4.89543 2 6V17C2 18.1046 2.89543 19 4 19H9.75V21.25H8.5C8.08579 21.25 7.75 21.5858 7.75 22C7.75 22.4142 8.08579 22.75 8.5 22.75H15.5C15.9142 22.75 16.25 22.4142 16.25 22C16.25 21.5858 15.9142 21.25 15.5 21.25H14.25V19H20C21.1046 19 22 18.1046 22 17V6C22 4.89543 21.1046 4 20 4H19.75V2.75H21C21.4142 2.75 21.75 2.41421 21.75 2C21.75 1.58579 21.4142 1.25 21 1.25H17C16.5858 1.25 16.25 1.58579 16.25 2C16.25 2.41421 16.5858 2.75 17 2.75H18.25V4H12.75V2.75Z" fill="currentColor"/>
</svg>
