<svg viewBox="0 0 24 24" fill="currentColor" xmlns="http://www.w3.org/2000/svg">
<path d="M4 4H4.75V6.25H3.5C3.08579 6.25 2.75 6.58579 2.75 7C2.75 7.41421 3.08579 7.75 3.5 7.75H7.5C7.91421 7.75 8.25 7.41421 8.25 7C8.25 6.58579 7.91421 6.25 7.5 6.25H6.25V4H11.25V6.25H10C9.58579 6.25 9.25 6.58579 9.25 7C9.25 7.41421 9.58579 7.75 10 7.75H14C14.4142 7.75 14.75 7.41421 14.75 7C14.75 6.58579 14.4142 6.25 14 6.25H12.75V4H17.75V6.25H16.5C16.0858 6.25 15.75 6.58579 15.75 7C15.75 7.41421 16.0858 7.75 16.5 7.75H20.5C20.9142 7.75 21.25 7.41421 21.25 7C21.25 6.58579 20.9142 6.25 20.5 6.25H19.25V4H20C21.1046 4 22 4.89543 22 6V17C22 18.1046 21.1046 19 20 19H17.75V21C17.75 21.4142 17.4142 21.75 17 21.75C16.5858 21.75 16.25 21.4142 16.25 21V19H7.75V21C7.75 21.4142 7.41421 21.75 7 21.75C6.58579 21.75 6.25 21.4142 6.25 21V19H4C2.89543 19 2 18.1046 2 17V6C2 4.89543 2.89543 4 4 4Z" fill="currentColor"/>
</svg>
