<svg viewBox="0 0 24 24" fill="currentColor" xmlns="http://www.w3.org/2000/svg">
<path d="M12.7369 5.85986C13.4768 5.56645 14 4.84433 14 4C14 2.89543 13.1046 2 12 2C10.8954 2 10 2.89543 10 4C10 4.84433 10.5232 5.56645 11.2631 5.85986C11.2545 5.90526 11.25 5.9521 11.25 6V7H5C3.89543 7 3 7.89543 3 9V11.2676C2.4022 11.6134 2 12.2597 2 13V16C2 16.7403 2.4022 17.3866 3 17.7324V20C3 21.1046 3.89543 22 5 22H19C20.1046 22 21 21.1046 21 20V17.7324C21.5978 17.3866 22 16.7403 22 16V13C22 12.2597 21.5978 11.6134 21 11.2676V9C21 7.89543 20.1046 7 19 7H12.75V6C12.75 5.9521 12.7455 5.90526 12.7369 5.85986ZM8.94036 15.9695C9.73704 16.7658 10.8151 17.25 11.9996 17.25C13.1841 17.25 14.2621 16.7658 15.0588 15.9695C15.3518 15.6767 15.8267 15.6768 16.1195 15.9698C16.4123 16.2628 16.4122 16.7376 16.1192 17.0305C15.0578 18.0913 13.6047 18.75 11.9996 18.75C10.3945 18.75 8.94134 18.0913 7.87995 17.0305C7.58699 16.7376 7.58688 16.2628 7.8797 15.9698C8.17252 15.6768 8.6474 15.6767 8.94036 15.9695ZM16 12.5C16 13.3284 15.5523 14 15 14C14.4477 14 14 13.3284 14 12.5C14 11.6716 14.4477 11 15 11C15.5523 11 16 11.6716 16 12.5ZM9 14C8.44771 14 8 13.3284 8 12.5C8 11.6716 8.44771 11 9 11C9.55229 11 10 11.6716 10 12.5C10 13.3284 9.55229 14 9 14Z" fill="currentColor"/>
</svg>
