<svg viewBox="0 0 24 24" fill="currentColor" xmlns="http://www.w3.org/2000/svg">
<path d="M9.5 16.5C10.0523 16.5 10.5 15.8284 10.5 15C10.5 14.1716 10.0523 13.5 9.5 13.5C8.94771 13.5 8.5 14.1716 8.5 15C8.5 15.8284 8.94771 16.5 9.5 16.5Z" fill="currentColor"/>
<path d="M14.5 16.5C15.0523 16.5 15.5 15.8284 15.5 15C15.5 14.1716 15.0523 13.5 14.5 13.5C13.9477 13.5 13.5 14.1716 13.5 15C13.5 15.8284 13.9477 16.5 14.5 16.5Z" fill="currentColor"/>
<path d="M12.7369 6.85986C13.4768 6.56645 14 5.84433 14 5C14 3.89543 13.1046 3 12 3C10.8954 3 10 3.89543 10 5C10 5.84433 10.5232 6.56645 11.2631 6.85986C11.2545 6.90526 11.25 6.9521 11.25 7V9H6C4.89543 9 4 9.89543 4 11V11.1707C2.83481 11.5825 2 12.6938 2 14V16C2 17.3062 2.83481 18.4175 4 18.8293V19C4 20.1046 4.89543 21 6 21H18C19.1046 21 20 20.1046 20 19V18.8293C21.1652 18.4175 22 17.3062 22 16V14C22 12.6938 21.1652 11.5825 20 11.1707V11C20 9.89543 19.1046 9 18 9H12.75V7C12.75 6.9521 12.7455 6.90526 12.7369 6.85986ZM7 11H17C17.5523 11 18 11.4477 18 12V18C18 18.5523 17.5523 19 17 19H7C6.44771 19 6 18.5523 6 18V12C6 11.4477 6.44772 11 7 11Z" fill="currentColor"/>
</svg>
