<svg viewBox="0 0 24 24" fill="currentColor" xmlns="http://www.w3.org/2000/svg">
<path d="M17 2.25C17.4142 2.25 17.75 2.58579 17.75 3V4H20C21.1046 4 22 4.89543 22 6V7.25H2V6C2 4.89543 2.89543 4 4 4H6.25V3C6.25 2.58579 6.58579 2.25 7 2.25C7.41421 2.25 7.75 2.58579 7.75 3V4H16.25V3C16.25 2.58579 16.5858 2.25 17 2.25Z" fill="currentColor"/>
<path d="M2 8.75H22V18C22 19.1046 21.1046 20 20 20H4C2.89543 20 2 19.1046 2 18V8.75ZM17 17C18.1046 17 19 16.1046 19 15C19 13.8954 18.1046 13 17 13C15.8954 13 15 13.8954 15 15C15 16.1046 15.8954 17 17 17Z" fill="currentColor"/>
</svg>
