<svg viewBox="0 0 24 24" fill="currentColor" xmlns="http://www.w3.org/2000/svg">
<path d="M17 2.25C17.4142 2.25 17.75 2.58579 17.75 3V4H20C21.1046 4 22 4.89543 22 6V7.25H2V6C2 4.89543 2.89543 4 4 4H6.25V3C6.25 2.58579 6.58579 2.25 7 2.25C7.41421 2.25 7.75 2.58579 7.75 3V4H16.25V3C16.25 2.58579 16.5858 2.25 17 2.25Z" fill="currentColor"/>
<path d="M2 8.75H22V18C22 19.1046 21.1046 20 20 20H4C2.89543 20 2 19.1046 2 18V8.75ZM17.5303 11.5303C17.8232 11.2374 17.8232 10.7626 17.5303 10.4697C17.2374 10.1768 16.7626 10.1768 16.4697 10.4697L11 15.9393L8.53033 13.4697C8.23744 13.1768 7.76256 13.1768 7.46967 13.4697C7.17678 13.7626 7.17678 14.2374 7.46967 14.5303L10.4697 17.5303C10.7626 17.8232 11.2374 17.8232 11.5303 17.5303L17.5303 11.5303Z" fill="currentColor"/>
</svg>
