<svg viewBox="0 0 24 24" fill="currentColor" xmlns="http://www.w3.org/2000/svg">
<path d="M18 21C20.2091 21 22 19.2091 22 17C22 14.7909 20.2091 13 18 13C15.7909 13 14 14.7909 14 17C14 19.2091 15.7909 21 18 21ZM18.75 15V16.6893L19.5303 17.4697C19.8232 17.7626 19.8232 18.2374 19.5303 18.5303C19.2374 18.8232 18.7626 18.8232 18.4697 18.5303L17.4697 17.5303C17.329 17.3897 17.25 17.1989 17.25 17V15C17.25 14.5858 17.5858 14.25 18 14.25C18.4142 14.25 18.75 14.5858 18.75 15Z" fill="currentColor"/>
<path d="M17 2.25C17.4142 2.25 17.75 2.58579 17.75 3V4H20C21.1046 4 22 4.89543 22 6V7.25H2V6C2 4.89543 2.89543 4 4 4H6.25V3C6.25 2.58579 6.58579 2.25 7 2.25C7.41421 2.25 7.75 2.58579 7.75 3V4H16.25V3C16.25 2.58579 16.5858 2.25 17 2.25Z" fill="currentColor"/>
<path d="M2 8.75H22V13.2251C20.9972 12.1629 19.576 11.5 18 11.5C14.9624 11.5 12.5 13.9624 12.5 17C12.5 18.1068 12.8269 19.1372 13.3895 20H4C2.89543 20 2 19.1046 2 18V8.75Z" fill="currentColor"/>
</svg>
