<svg viewBox="0 0 24 24" fill="currentColor" xmlns="http://www.w3.org/2000/svg">
<path d="M6.75 13C6.75 11.2051 8.20507 9.75 10 9.75C11.7949 9.75 13.25 11.2051 13.25 13C13.25 14.7949 11.7949 16.25 10 16.25C8.20507 16.25 6.75 14.7949 6.75 13Z" fill="currentColor"/>
<path d="M12.382 4C12.7607 4 13.107 4.214 13.2764 4.55279L13.7236 5.44721C13.893 5.786 14.2393 6 14.618 6H16V5C16 4.44772 16.4477 4 17 4H19C19.5523 4 20 4.44772 20 5V6C21.1046 6 22 6.89543 22 8V18C22 19.1046 21.1046 20 20 20H4C2.89543 20 2 19.1046 2 18V8C2 6.89543 2.89543 6 4 6H5.38197C5.76074 6 6.107 5.786 6.27639 5.44721L6.72361 4.55279C6.893 4.214 7.23926 4 7.61803 4H12.382ZM10 8.25C7.37665 8.25 5.25 10.3766 5.25 13C5.25 15.6234 7.37665 17.75 10 17.75C12.6234 17.75 14.75 15.6234 14.75 13C14.75 10.3766 12.6234 8.25 10 8.25ZM18 9.25C17.5858 9.25 17.25 9.58579 17.25 10V16C17.25 16.4142 17.5858 16.75 18 16.75C18.4142 16.75 18.75 16.4142 18.75 16V10C18.75 9.58579 18.4142 9.25 18 9.25Z" fill="currentColor"/>
</svg>
