<svg viewBox="0 0 24 24" fill="currentColor" xmlns="http://www.w3.org/2000/svg">
<path d="M5 2C3.34315 2 2 3.34315 2 5V19C2 20.6569 3.34315 22 5 22H13C14.6569 22 16 20.6569 16 19V14.8324C15.4288 14.6488 14.911 14.3204 14.5 13.8756C13.8432 14.5863 12.9138 15 11.9296 15H8.75C7.52799 15 6.51121 14.1236 6.29319 12.9647C5.8086 12.5526 5.5 11.9374 5.5 11.25V8.25C5.5 7.56262 5.8086 6.9474 6.29319 6.53528C6.51121 5.37643 7.52799 4.5 8.75 4.5H15.9585C15.7205 3.08114 14.4865 2 13 2H5ZM6 18.25H12C12.4142 18.25 12.75 18.5858 12.75 19C12.75 19.4142 12.4142 19.75 12 19.75H6C5.58579 19.75 5.25 19.4142 5.25 19C5.25 18.5858 5.58579 18.25 6 18.25Z" fill="currentColor"/>
<path d="M8.75 6C8.19772 6 7.75 6.44772 7.75 7V7.5C7.33579 7.5 7 7.83579 7 8.25V11.25C7 11.6642 7.33579 12 7.75 12V12.5C7.75 13.0523 8.19772 13.5 8.75 13.5H11.9296C12.5983 13.5 13.2228 13.1658 13.5937 12.6094L13.6679 12.4981C14.0638 11.9043 14.9362 11.9043 15.3321 12.4981L15.4063 12.6094C15.7772 13.1658 16.4017 13.5 17.0704 13.5H20.25C20.8023 13.5 21.25 13.0523 21.25 12.5V12C21.6642 12 22 11.6642 22 11.25V8.25C22 7.83579 21.6642 7.5 21.25 7.5V7C21.25 6.44772 20.8023 6 20.25 6H8.75ZM11 11.5C10.1716 11.5 9.5 10.8284 9.5 10C9.5 9.17157 10.1716 8.5 11 8.5C11.8284 8.5 12.5 9.17157 12.5 10C12.5 10.8284 11.8284 11.5 11 11.5ZM19.5 10C19.5 10.8284 18.8284 11.5 18 11.5C17.1716 11.5 16.5 10.8284 16.5 10C16.5 9.17157 17.1716 8.5 18 8.5C18.8284 8.5 19.5 9.17157 19.5 10Z" fill="currentColor"/>
</svg>
