<svg viewBox="0 0 24 24" fill="currentColor" xmlns="http://www.w3.org/2000/svg">
<path d="M16 22C12.6863 22 10 19.3137 10 16C10 12.6863 12.6863 10 16 10C19.3137 10 22 12.6863 22 16C22 19.3137 19.3137 22 16 22ZM19.5303 14.5303C19.8232 14.2374 19.8232 13.7626 19.5303 13.4697C19.2374 13.1768 18.7626 13.1768 18.4697 13.4697L14.5 17.4393L13.0303 15.9697C12.7374 15.6768 12.2626 15.6768 11.9697 15.9697C11.6768 16.2626 11.6768 16.7374 11.9697 17.0303L13.9697 19.0303C14.2626 19.3232 14.7374 19.3232 15.0303 19.0303L19.5303 14.5303Z" fill="currentColor"/>
<path d="M9 2C5.13401 2 2 3.34315 2 5V5.48478C2.03673 5.5237 2.07859 5.5643 2.12623 5.60654C2.43796 5.88292 2.93183 6.16608 3.60649 6.41907C4.95026 6.92299 6.85699 7.25 9 7.25C11.143 7.25 13.0497 6.92299 14.3935 6.41907C15.0682 6.16608 15.562 5.88292 15.8738 5.60654C15.9214 5.5643 15.9633 5.5237 16 5.48478V5C16 3.34315 12.866 2 9 2Z" fill="currentColor"/>
<path d="M2 10.4848V7.33179C2.3289 7.51454 2.69238 7.67826 3.0798 7.82355C4.63146 8.40542 6.72474 8.74998 9 8.74998C11.2753 8.74998 13.3685 8.40542 14.9202 7.82355C15.3076 7.67826 15.6711 7.51454 16 7.33179V8.49998C13.2265 8.49998 10.8046 10.0055 9.50692 12.2439C9.33955 12.2479 9.17052 12.25 9 12.25C6.85699 12.25 4.95026 11.923 3.60649 11.4191C2.93183 11.1661 2.43796 10.8829 2.12623 10.6065C2.07859 10.5643 2.03673 10.5237 2 10.4848Z" fill="currentColor"/>
<path d="M8.84352 13.7495C6.62887 13.734 4.59582 13.3921 3.0798 12.8236C2.69238 12.6783 2.3289 12.5146 2 12.3318V15.4848C2.03673 15.5237 2.07859 15.5643 2.12623 15.6065C2.43796 15.8829 2.93183 16.1661 3.60649 16.4191C4.86671 16.8917 6.62205 17.2086 8.60307 17.2462C8.53528 16.8409 8.5 16.4246 8.5 16C8.5 15.2159 8.62033 14.4599 8.84352 13.7495Z" fill="currentColor"/>
<path d="M9.0202 18.75C9.01347 18.75 9.00673 18.75 9 18.75C6.72474 18.75 4.63146 18.4054 3.0798 17.8236C2.69238 17.6783 2.3289 17.5146 2 17.3318V19C2 20.6569 5.13401 22 9 22C9.80154 22 10.5716 21.9423 11.2888 21.836C10.2882 21.0272 9.49982 19.9664 9.0202 18.75Z" fill="currentColor"/>
</svg>
