<svg viewBox="0 0 24 24" fill="currentColor" xmlns="http://www.w3.org/2000/svg">
<path d="M18.8571 22C20.5929 22 22 20.7359 22 19.1765C22 17.9406 21.1161 16.8901 19.8853 16.5075C19.7104 15.0969 18.3787 14 16.7619 14C15.0262 14 13.619 15.2641 13.619 16.8235C13.619 17.1684 13.6879 17.4989 13.8139 17.8044C13.6661 17.7784 13.5134 17.7647 13.3571 17.7647C12.0553 17.7647 11 18.7128 11 19.8824C11 21.0519 12.0553 22 13.3571 22H18.8571Z" fill="currentColor"/>
<path d="M2 4V7C2 8.10457 2.89543 9 4 9H20C21.1046 9 22 8.10457 22 7V4C22 2.89543 21.1046 2 20 2H4C2.89543 2 2 2.89543 2 4ZM5 3.75C5.41421 3.75 5.75 4.08579 5.75 4.5V6.5C5.75 6.91421 5.41421 7.25 5 7.25C4.58579 7.25 4.25 6.91421 4.25 6.5V4.5C4.25 4.08579 4.58579 3.75 5 3.75ZM8 3.75C8.41421 3.75 8.75 4.08579 8.75 4.5V6.5C8.75 6.91421 8.41421 7.25 8 7.25C7.58579 7.25 7.25 6.91421 7.25 6.5V4.5C7.25 4.08579 7.58579 3.75 8 3.75ZM19 6.25H12C11.5858 6.25 11.25 5.91421 11.25 5.5C11.25 5.08579 11.5858 4.75 12 4.75H19C19.4142 4.75 19.75 5.08579 19.75 5.5C19.75 5.91421 19.4142 6.25 19 6.25Z" fill="currentColor"/>
<path d="M2 13C2 11.8954 2.89543 11 4 11H20C21.1046 11 22 11.8954 22 13V15.9945C21.7416 15.7736 21.4583 15.5811 21.1574 15.4206C20.5128 13.6488 18.7041 12.5 16.7619 12.5C15.5372 12.5 14.3577 12.9623 13.494 13.75H12C11.5858 13.75 11.25 14.0858 11.25 14.5C11.25 14.9142 11.5858 15.25 12 15.25H12.4297C12.2743 15.6237 12.1725 16.0269 12.1351 16.4542C11.2863 16.7223 10.536 17.2631 10.0553 18H4C2.89543 18 2 17.1046 2 16V13ZM5 12.75C4.58579 12.75 4.25 13.0858 4.25 13.5V15.5C4.25 15.9142 4.58579 16.25 5 16.25C5.41421 16.25 5.75 15.9142 5.75 15.5V13.5C5.75 13.0858 5.41421 12.75 5 12.75ZM8 12.75C7.58579 12.75 7.25 13.0858 7.25 13.5V15.5C7.25 15.9142 7.58579 16.25 8 16.25C8.41421 16.25 8.75 15.9142 8.75 15.5V13.5C8.75 13.0858 8.41421 12.75 8 12.75Z" fill="currentColor"/>
</svg>
