<svg viewBox="0 0 24 24" fill="currentColor" xmlns="http://www.w3.org/2000/svg">
<path d="M22 14.3529C22 17.4717 19.4416 20 16.2857 20H6.28571C3.91878 20 2 18.1038 2 15.7647C2 13.4256 3.91878 11.5294 6.28571 11.5294C6.56983 11.5294 6.8475 11.5567 7.11616 11.6089C6.88706 10.9978 6.7619 10.3369 6.7619 9.64706C6.7619 6.52827 9.32028 4 12.4762 4C15.4159 4 17.8371 6.19371 18.1551 9.01498C20.393 9.78024 22 11.8811 22 14.3529ZM16.5303 13.5303C16.8232 13.2374 16.8232 12.7626 16.5303 12.4697C16.2374 12.1768 15.7626 12.1768 15.4697 12.4697L13.75 14.1893V9C13.75 8.58579 13.4142 8.25 13 8.25C12.5858 8.25 12.25 8.58579 12.25 9V14.1893L10.5303 12.4697C10.2374 12.1768 9.76256 12.1768 9.46967 12.4697C9.17678 12.7626 9.17678 13.2374 9.46967 13.5303L12.4697 16.5303C12.7626 16.8232 13.2374 16.8232 13.5303 16.5303L16.5303 13.5303Z" fill="currentColor"/>
</svg>
