<svg viewBox="0 0 24 24" fill="currentColor" xmlns="http://www.w3.org/2000/svg">
<path d="M22 14.3529C22 17.4717 19.4416 20 16.2857 20H6.28571C3.91878 20 2 18.1038 2 15.7647C2 13.4256 3.91878 11.5294 6.28571 11.5294C6.56983 11.5294 6.8475 11.5567 7.11616 11.6089C6.88706 10.9978 6.7619 10.3369 6.7619 9.64706C6.7619 6.52827 9.32028 4 12.4762 4C15.4159 4 17.8371 6.19371 18.1551 9.01498C20.393 9.78024 22 11.8811 22 14.3529ZM17.5303 11.5303C17.8232 11.2374 17.8232 10.7626 17.5303 10.4697C17.2374 10.1768 16.7626 10.1768 16.4697 10.4697L11 15.9393L8.53033 13.4697C8.23744 13.1768 7.76256 13.1768 7.46967 13.4697C7.17678 13.7626 7.17678 14.2374 7.46967 14.5303L10.4697 17.5303C10.7626 17.8232 11.2374 17.8232 11.5303 17.5303L17.5303 11.5303Z" fill="currentColor"/>
</svg>
