<svg viewBox="0 0 24 24" fill="currentColor" xmlns="http://www.w3.org/2000/svg">
<path d="M13.5358 5.25716C12.8706 3.36254 11.024 2 8.85 2C6.11619 2 3.9 4.15463 3.9 6.8125C3.9 7.61469 4.10188 8.37104 4.45894 9.03614C3.5674 9.75841 3 10.846 3 12.0625C3 14.2371 4.81325 16 7.05 16H7.25V16.4384C7.25 17.012 6.85963 17.512 6.30317 17.6511L5.61694 17.8227C5.25323 17.324 4.66446 17 4 17C2.89543 17 2 17.8954 2 19C2 20.1046 2.89543 21 4 21C5.01028 21 5.8456 20.2509 5.98085 19.2779L6.66697 19.1063C7.89118 18.8003 8.75 17.7003 8.75 16.4384V16H11.25V19.1454C10.517 19.4421 10 20.1607 10 21C10 22.1046 10.8954 23 12 23C13.1046 23 14 22.1046 14 21C14 20.1607 13.483 19.4421 12.75 19.1454V16H15.25V16.4384C15.25 17.7003 16.1088 18.8003 17.333 19.1063L18.0191 19.2779C18.1544 20.2509 18.9897 21 20 21C21.1046 21 22 20.1046 22 19C22 17.8954 21.1046 17 20 17C19.3355 17 18.7468 17.324 18.3831 17.8227L17.6968 17.6511C17.1404 17.512 16.75 17.012 16.75 16.4384V16H16.95C19.1868 16 21 14.2371 21 12.0625C21 10.6734 20.2601 9.45224 19.1425 8.75133C19.1803 8.54811 19.2 8.3388 19.2 8.125C19.2 6.192 17.5882 4.625 15.6 4.625C14.832 4.625 14.1202 4.85879 13.5358 5.25716Z" fill="currentColor"/>
</svg>
