<svg viewBox="0 0 24 24" fill="currentColor" xmlns="http://www.w3.org/2000/svg">
<path d="M8.5 4C5.46243 4 3 6.46243 3 9.5C3 10.4168 3.22431 11.2812 3.62104 12.0413C2.63045 12.8668 2 14.1098 2 15.5C2 17.9853 4.01472 20 6.5 20H17.5C19.9853 20 22 17.9853 22 15.5C22 13.9124 21.1779 12.5168 19.9361 11.7158C19.9781 11.4836 20 11.2443 20 11C20 8.79086 18.2091 7 16 7C15.1467 7 14.3558 7.26719 13.7064 7.72247C12.9674 5.55718 10.9155 4 8.5 4ZM15.5303 14.5303L12.5303 17.5303C12.2374 17.8232 11.7626 17.8232 11.4697 17.5303L8.46967 14.5303C8.17678 14.2374 8.17678 13.7626 8.46967 13.4697C8.76256 13.1768 9.23744 13.1768 9.53033 13.4697L11.25 15.1893V10C11.25 9.58579 11.5858 9.25 12 9.25C12.4142 9.25 12.75 9.58579 12.75 10V15.1893L14.4697 13.4697C14.7626 13.1768 15.2374 13.1768 15.5303 13.4697C15.8232 13.7626 15.8232 14.2374 15.5303 14.5303Z" fill="currentColor"/>
</svg>
