<svg viewBox="0 0 24 24" fill="currentColor" xmlns="http://www.w3.org/2000/svg">
<path d="M8.5 4C10.9155 4 12.9674 5.55718 13.7064 7.72247C14.3558 7.26719 15.1467 7 16 7C18.2091 7 20 8.79086 20 11C20 11.2443 19.9781 11.4836 19.9361 11.7158C21.1779 12.5168 22 13.9124 22 15.5C22 17.9853 19.9853 20 17.5 20H6.5C4.01472 20 2 17.9853 2 15.5C2 14.1098 2.63045 12.8668 3.62104 12.0413C3.22431 11.2812 3 10.4168 3 9.5C3 6.46243 5.46243 4 8.5 4ZM12.5303 9.46967C12.2374 9.17678 11.7626 9.17678 11.4697 9.46967L8.46967 12.4697C8.17678 12.7626 8.17678 13.2374 8.46967 13.5303C8.76256 13.8232 9.23744 13.8232 9.53033 13.5303L11.25 11.8107V17C11.25 17.4142 11.5858 17.75 12 17.75C12.4142 17.75 12.75 17.4142 12.75 17V11.8107L14.4697 13.5303C14.7626 13.8232 15.2374 13.8232 15.5303 13.5303C15.8232 13.2374 15.8232 12.7626 15.5303 12.4697L12.5303 9.46967Z" fill="currentColor"/>
</svg>
