<svg viewBox="0 0 24 24" fill="currentColor" xmlns="http://www.w3.org/2000/svg">
<path d="M22 14.3529C22 17.4717 19.4416 20 16.2857 20H6.28571C3.91878 20 2 18.1038 2 15.7647C2 13.4256 3.91878 11.5294 6.28571 11.5294C6.56983 11.5294 6.8475 11.5567 7.11616 11.6089C6.88706 10.9978 6.7619 10.3369 6.7619 9.64706C6.7619 6.52827 9.32028 4 12.4762 4C15.4159 4 17.8371 6.19371 18.1551 9.01498C20.393 9.78024 22 11.8811 22 14.3529ZM13.5303 8.46967C13.2374 8.17678 12.7626 8.17678 12.4697 8.46967L9.46967 11.4697C9.17678 11.7626 9.17678 12.2374 9.46967 12.5303C9.76256 12.8232 10.2374 12.8232 10.5303 12.5303L12.25 10.8107V16C12.25 16.4142 12.5858 16.75 13 16.75C13.4142 16.75 13.75 16.4142 13.75 16V10.8107L15.4697 12.5303C15.7626 12.8232 16.2374 12.8232 16.5303 12.5303C16.8232 12.2374 16.8232 11.7626 16.5303 11.4697L13.5303 8.46967Z" fill="currentColor"/>
</svg>
