<svg viewBox="0 0 24 24" fill="currentColor" xmlns="http://www.w3.org/2000/svg">
<path d="M18.8571 22C20.5929 22 22 20.7359 22 19.1765C22 17.9406 21.1161 16.8901 19.8853 16.5075C19.7104 15.0969 18.3787 14 16.7619 14C15.0262 14 13.619 15.2641 13.619 16.8235C13.619 17.1684 13.6879 17.4989 13.8139 17.8044C13.6661 17.7784 13.5134 17.7647 13.3571 17.7647C12.0553 17.7647 11 18.7128 11 19.8824C11 21.0519 12.0553 22 13.3571 22H18.8571Z" fill="currentColor"/>
<path d="M4 2C2.89543 2 2 2.89543 2 4V9.25H22V4C22 2.89543 21.1046 2 20 2H4ZM5.75 4.5V6.5C5.75 6.91421 5.41421 7.25 5 7.25C4.58579 7.25 4.25 6.91421 4.25 6.5V4.5C4.25 4.08579 4.58579 3.75 5 3.75C5.41421 3.75 5.75 4.08579 5.75 4.5ZM8.75 4.5V6.5C8.75 6.91421 8.41421 7.25 8 7.25C7.58579 7.25 7.25 6.91421 7.25 6.5V4.5C7.25 4.08579 7.58579 3.75 8 3.75C8.41421 3.75 8.75 4.08579 8.75 4.5ZM11.25 5.5C11.25 5.08579 11.5858 4.75 12 4.75H19C19.4142 4.75 19.75 5.08579 19.75 5.5C19.75 5.91421 19.4142 6.25 19 6.25H12C11.5858 6.25 11.25 5.91421 11.25 5.5Z" fill="currentColor"/>
<path d="M2 10.75V16C2 17.1046 2.89543 18 4 18H10.0553C10.536 17.2631 11.2863 16.7223 12.1351 16.4542C12.3397 14.1166 14.4717 12.5 16.7619 12.5C18.7041 12.5 20.5128 13.6488 21.1574 15.4206C21.4583 15.5811 21.7416 15.7736 22 15.9945V10.75H2ZM5 12.75C5.41421 12.75 5.75 13.0858 5.75 13.5V15.5C5.75 15.9142 5.41421 16.25 5 16.25C4.58579 16.25 4.25 15.9142 4.25 15.5V13.5C4.25 13.0858 4.58579 12.75 5 12.75ZM8 12.75C8.41421 12.75 8.75 13.0858 8.75 13.5V15.5C8.75 15.9142 8.41421 16.25 8 16.25C7.58579 16.25 7.25 15.9142 7.25 15.5V13.5C7.25 13.0858 7.58579 12.75 8 12.75Z" fill="currentColor"/>
</svg>
