<svg viewBox="0 0 24 24" fill="currentColor" xmlns="http://www.w3.org/2000/svg">
<path d="M20 8.76471C20 11.1038 17.9533 13 15.4286 13H7.42857C5.53502 13 4 11.5778 4 9.82353C4 8.06921 5.53502 6.64706 7.42857 6.64706C7.65587 6.64706 7.878 6.66755 8.09293 6.70665C7.90965 6.24835 7.80952 5.75265 7.80952 5.23529C7.80952 2.89621 9.85622 1 12.381 1C14.7327 1 16.6697 2.64528 16.9241 4.76123C18.7144 5.33518 20 6.91084 20 8.76471ZM15.5303 6.53033C15.8232 6.23744 15.8232 5.76256 15.5303 5.46967C15.2374 5.17678 14.7626 5.17678 14.4697 5.46967L11 8.93934L9.53033 7.46967C9.23744 7.17678 8.76256 7.17678 8.46967 7.46967C8.17678 7.76256 8.17678 8.23744 8.46967 8.53033L10.4697 10.5303C10.7626 10.8232 11.2374 10.8232 11.5303 10.5303L15.5303 6.53033Z" fill="currentColor"/>
<path d="M3 17C3 15.8954 3.89543 15 5 15H19C20.1046 15 21 15.8954 21 17V20C21 21.1046 20.1046 22 19 22H5C3.89543 22 3 21.1046 3 20V17ZM6 16.75C5.58579 16.75 5.25 17.0858 5.25 17.5V19.5C5.25 19.9142 5.58579 20.25 6 20.25C6.41421 20.25 6.75 19.9142 6.75 19.5V17.5C6.75 17.0858 6.41421 16.75 6 16.75ZM9 16.75C8.58579 16.75 8.25 17.0858 8.25 17.5V19.5C8.25 19.9142 8.58579 20.25 9 20.25C9.41421 20.25 9.75 19.9142 9.75 19.5V17.5C9.75 17.0858 9.41421 16.75 9 16.75ZM12.0002 17.7499C11.586 17.7499 11.2502 18.0857 11.2502 18.4999C11.2502 18.9142 11.586 19.2499 12.0002 19.2499H18.0002C18.4144 19.2499 18.7502 18.9142 18.7502 18.4999C18.7502 18.0857 18.4144 17.7499 18.0002 17.7499H12.0002Z" fill="currentColor"/>
</svg>
