<svg viewBox="0 0 24 24" fill="currentColor" xmlns="http://www.w3.org/2000/svg">
<path d="M16.75 15.9258C19.1647 15.5197 21 13.4952 21 11.0588C21 8.89598 19.5537 7.05771 17.5396 6.38811C17.2534 3.9195 15.0743 2 12.4286 2C9.58825 2 7.28571 4.21224 7.28571 6.94118C7.28571 7.54476 7.39836 8.12307 7.60454 8.65776C7.36275 8.61214 7.11285 8.58824 6.85714 8.58824C4.7269 8.58824 3 10.2474 3 12.2941C3 14.3408 4.7269 16 6.85714 16H7.25V16.4384C7.25 17.012 6.85963 17.512 6.30317 17.6511L5.61694 17.8227C5.25323 17.324 4.66446 17 4 17C2.89543 17 2 17.8954 2 19C2 20.1046 2.89543 21 4 21C5.01028 21 5.8456 20.2509 5.98085 19.2779L6.66697 19.1063C7.89118 18.8003 8.75 17.7003 8.75 16.4384V16H11.25V19.1454C10.517 19.4421 10 20.1607 10 21C10 22.1046 10.8954 23 12 23C13.1046 23 14 22.1046 14 21C14 20.1607 13.483 19.4421 12.75 19.1454V16H15.25V16.4384C15.25 17.7003 16.1088 18.8003 17.333 19.1063L18.0191 19.2779C18.1544 20.2509 18.9897 21 20 21C21.1046 21 22 20.1046 22 19C22 17.8954 21.1046 17 20 17C19.3355 17 18.7468 17.324 18.3831 17.8227L17.6968 17.6511C17.1404 17.512 16.75 17.012 16.75 16.4384V15.9258Z" fill="currentColor"/>
</svg>
