<svg viewBox="0 0 24 24" fill="currentColor" xmlns="http://www.w3.org/2000/svg">
<path d="M12 12.5C13.1046 12.5 14 11.6046 14 10.5C14 9.39543 13.1046 8.5 12 8.5C10.8954 8.5 10 9.39543 10 10.5C10 11.6046 10.8954 12.5 12 12.5Z" fill="currentColor"/>
<path d="M2 5C2 3.89543 2.89543 3 4 3H20C21.1046 3 22 3.89543 22 5V16C22 17.1046 21.1046 18 20 18H12.75V20.25H15C15.4142 20.25 15.75 20.5858 15.75 21C15.75 21.4142 15.4142 21.75 15 21.75H9C8.58579 21.75 8.25 21.4142 8.25 21C8.25 20.5858 8.58579 20.25 9 20.25H11.25V18H4C2.89543 18 2 17.1046 2 16V5ZM11.6967 5.5C11.2293 5.5 10.8142 5.77543 10.6664 6.18377L10.5019 6.63808C10.4176 6.87103 10.2498 7.06438 10.031 7.18067L9.83236 7.28628C9.63183 7.39288 9.40099 7.42805 9.17781 7.386L8.60711 7.27847C8.14912 7.19218 7.68255 7.38541 7.44881 7.75817L7.14553 8.24183C6.91179 8.61459 6.96334 9.08325 7.2735 9.4053L7.61374 9.75859C7.7932 9.94493 7.89346 10.1936 7.89346 10.4523V10.5478C7.89346 10.8065 7.79319 11.0551 7.61374 11.2414L7.27348 11.5947C6.96332 11.9168 6.91178 12.3854 7.14552 12.7582L7.4488 13.2419C7.68253 13.6146 8.14911 13.8079 8.6071 13.7216L9.17782 13.614C9.40098 13.572 9.63181 13.6071 9.83233 13.7137L10.031 13.8193C10.2498 13.9356 10.4176 14.129 10.5019 14.3619L10.6664 14.8162C10.8142 15.2246 11.2293 15.5 11.6967 15.5H12.3033C12.7708 15.5 13.1858 15.2246 13.3336 14.8162L13.4981 14.3619C13.5824 14.129 13.7502 13.9356 13.969 13.8193L14.1677 13.7137C14.3682 13.6071 14.599 13.5719 14.8222 13.614L15.3929 13.7215C15.8509 13.8078 16.3175 13.6146 16.5512 13.2418L16.8545 12.7582C17.0882 12.3854 17.0367 11.9167 16.7265 11.5947L16.3862 11.2414C16.2068 11.0551 16.1065 10.8064 16.1065 10.5478V10.4523C16.1065 10.1936 16.2068 9.94496 16.3862 9.7586L16.7265 9.40533C17.0366 9.08328 17.0882 8.61463 16.8544 8.24186L16.5512 7.7582C16.3174 7.38544 15.8508 7.19221 15.3928 7.27851L14.8222 7.38603C14.599 7.42808 14.3681 7.39291 14.1676 7.28628L13.9689 7.18067C13.7502 7.06438 13.5824 6.87104 13.4981 6.63812L13.3336 6.18377C13.1858 5.77543 12.7708 5.5 12.3033 5.5H11.6967Z" fill="currentColor"/>
</svg>
