<svg viewBox="0 0 24 24" fill="currentColor" xmlns="http://www.w3.org/2000/svg">
<path d="M2 5V16C2 17.1046 2.89543 18 4 18H11.25V20.25H9C8.58579 20.25 8.25 20.5858 8.25 21C8.25 21.4142 8.58579 21.75 9 21.75H15C15.4142 21.75 15.75 21.4142 15.75 21C15.75 20.5858 15.4142 20.25 15 20.25H12.75V18H20C21.1046 18 22 17.1046 22 16V5C22 3.89543 21.1046 3 20 3H4C2.89543 3 2 3.89543 2 5ZM13.7372 4.78849C14.1301 4.91947 14.3425 5.34421 14.2115 5.73717L11.2115 14.7372C11.0805 15.1301 10.6558 15.3425 10.2628 15.2115C9.86987 15.0805 9.6575 14.6558 9.78849 14.2628L12.7885 5.26283C12.9195 4.86987 13.3442 4.6575 13.7372 4.78849ZM15.4697 5.46967C15.7626 5.17678 16.2374 5.17678 16.5303 5.46967L19.8232 8.76256C20.5066 9.44598 20.5066 10.554 19.8232 11.2374L16.5303 14.5303C16.2374 14.8232 15.7626 14.8232 15.4697 14.5303C15.1768 14.2374 15.1768 13.7626 15.4697 13.4697L18.7626 10.1768C18.8602 10.0791 18.8602 9.92085 18.7626 9.82322L15.4697 6.53033C15.1768 6.23744 15.1768 5.76256 15.4697 5.46967ZM8.53033 5.46967C8.82323 5.76256 8.82323 6.23744 8.53033 6.53033L5.23744 9.82322C5.13981 9.92085 5.13981 10.0791 5.23744 10.1768L8.53033 13.4697C8.82323 13.7626 8.82323 14.2374 8.53033 14.5303C8.23744 14.8232 7.76256 14.8232 7.46967 14.5303L4.17678 11.2374C3.49336 10.554 3.49336 9.44598 4.17678 8.76256L7.46967 5.46967C7.76257 5.17678 8.23744 5.17678 8.53033 5.46967Z" fill="currentColor"/>
</svg>
