<svg viewBox="0 0 24 24" fill="currentColor" xmlns="http://www.w3.org/2000/svg">
<path d="M4 3C2.89543 3 2 3.89543 2 5V6.25H22V5C22 3.89543 21.1046 3 20 3H4Z" fill="currentColor"/>
<path d="M22 7.75V19C22 20.1046 21.1046 21 20 21H4C2.89543 21 2 20.1046 2 19V7.75H22ZM14.0929 10.2453C14.2284 9.85382 14.0209 9.42669 13.6294 9.29124C13.238 9.15578 12.8109 9.3633 12.6754 9.75474L9.90707 17.7547C9.77161 18.1462 9.97913 18.5733 10.3706 18.7088C10.762 18.8442 11.1891 18.6367 11.3246 18.2453L14.0929 10.2453ZM8.8292 10.9846C9.12753 10.6972 9.13641 10.2224 8.84904 9.92413C8.56168 9.62581 8.08689 9.61692 7.78857 9.90429L4.74996 12.8313C4.08335 13.4734 4.08335 14.5266 4.74996 15.1687L7.78857 18.0957C8.08689 18.3831 8.56168 18.3742 8.84904 18.0759C9.13641 17.7776 9.12753 17.3028 8.8292 17.0154L5.79059 14.0884C5.75997 14.0589 5.75 14.0276 5.75 14C5.75 13.9724 5.75997 13.9411 5.79059 13.9116L8.8292 10.9846ZM16.2114 9.90429C15.9131 9.61692 15.4383 9.62581 15.151 9.92413C14.8636 10.2224 14.8725 10.6972 15.1708 10.9846L18.2094 13.9116C18.24 13.9411 18.25 13.9724 18.25 14C18.25 14.0276 18.24 14.0589 18.2094 14.0884L15.1708 17.0154C14.8725 17.3028 14.8636 17.7776 15.151 18.0759C15.4383 18.3742 15.9131 18.3831 16.2114 18.0957L19.25 15.1687C19.9167 14.5266 19.9167 13.4734 19.25 12.8313L16.2114 9.90429Z" fill="currentColor"/>
</svg>
