<svg viewBox="0 0 24 24" fill="currentColor" xmlns="http://www.w3.org/2000/svg">
<path d="M11.442 2H12.5589C13.4198 2 14.1841 2.55086 14.4563 3.36754L14.8805 4.63999C14.9578 4.87193 15.1174 5.06751 15.3291 5.18976L16.2339 5.7122C16.4456 5.83447 16.6948 5.87492 16.9344 5.8259L18.2484 5.55701C19.0917 5.38443 19.9509 5.77088 20.3814 6.51641L20.9399 7.48373C21.3703 8.22925 21.2754 9.16657 20.7042 9.81067L19.8144 10.8142C19.6521 10.9971 19.5625 11.2332 19.5626 11.4777V12.5224C19.5626 12.7669 19.6522 13.0029 19.8144 13.1859L20.7043 14.1894C21.2755 14.8335 21.3704 15.7708 20.94 16.5163L20.3815 17.4837C19.951 18.2292 19.0918 18.6156 18.2485 18.4431L16.9344 18.1742C16.6949 18.1251 16.4457 18.1656 16.234 18.2878L15.3291 18.8102C15.1174 18.9325 14.9578 19.1281 14.8804 19.36L14.4563 20.6325C14.1841 21.4491 13.4198 22 12.5589 22H11.442C10.5811 22 9.81684 21.4491 9.54461 20.6325L9.12048 19.3601C9.04316 19.1281 8.88353 18.9325 8.67176 18.8102L7.76692 18.2879C7.55518 18.1656 7.306 18.1252 7.06647 18.1742L5.75243 18.4431C4.90905 18.6157 4.04985 18.2293 3.61942 17.4837L3.06094 16.5164C2.63051 15.7709 2.72543 14.8336 3.29659 14.1895L4.18647 13.1859C4.34868 13.003 4.43826 12.767 4.43826 12.5225L4.43828 11.4776C4.43828 11.2331 4.3487 10.9971 4.18648 10.8141L3.29661 9.8106C2.72546 9.1665 2.63054 8.22919 3.06097 7.48366L3.61945 6.51634C4.04988 5.77081 4.90908 5.38436 5.75246 5.55695L7.06647 5.82584C7.30601 5.87486 7.55521 5.83442 7.76695 5.71217L8.67179 5.18976C8.88354 5.06751 9.04316 4.87192 9.12047 4.63996L9.54461 3.36754C9.81684 2.55086 10.5811 2 11.442 2ZM13.733 9.24213C13.8668 8.85009 13.6574 8.42388 13.2653 8.29016C12.8733 8.15644 12.4471 8.36584 12.3134 8.75787L10.2668 14.7579C10.133 15.1499 10.3424 15.5761 10.7345 15.7098C11.1265 15.8436 11.5527 15.6342 11.6864 15.2421L13.733 9.24213ZM8.94579 9.86675C9.24038 9.57556 9.24315 9.1007 8.95197 8.8061C8.66079 8.51151 8.18592 8.50874 7.89133 8.79992L5.67032 10.9952C5.10989 11.5491 5.10989 12.4509 5.67032 13.0048L7.89133 15.2001C8.18592 15.4913 8.66079 15.4885 8.95197 15.1939C9.24315 14.8993 9.24038 14.4244 8.94579 14.1333L6.78752 12L8.94579 9.86675ZM16.1087 8.79992C15.8141 8.50874 15.3392 8.51151 15.048 8.8061C14.7568 9.1007 14.7596 9.57556 15.0542 9.86675L17.2125 12L15.0542 14.1333C14.7596 14.4244 14.7568 14.8993 15.048 15.1939C15.3392 15.4885 15.8141 15.4913 16.1087 15.2001L18.3297 13.0048C18.8901 12.4509 18.8901 11.5491 18.3297 10.9952L16.1087 8.79992Z" fill="currentColor"/>
</svg>
