<svg viewBox="0 0 24 24" fill="currentColor" xmlns="http://www.w3.org/2000/svg">
<path d="M12.9713 2.53965L19.9713 6.42854C20.6062 6.78128 21 7.45052 21 8.17685V15.8233C21 16.5496 20.6062 17.2189 19.9713 17.5716L12.9713 21.4605C12.3672 21.7961 11.6328 21.7961 11.0287 21.4605L4.02871 17.5716C3.39378 17.2189 3 16.5496 3 15.8233V8.17685C3 7.45052 3.39378 6.78128 4.02871 6.42854L11.0287 2.53965C11.6328 2.20407 12.3672 2.20407 12.9713 2.53965ZM13.7117 9.23722C13.8427 8.84426 13.6303 8.41952 13.2374 8.28853C12.8444 8.15755 12.4197 8.36992 12.2887 8.76287L10.2887 14.7629C10.1577 15.1559 10.3701 15.5806 10.763 15.7116C11.156 15.8426 11.5807 15.6302 11.7117 15.2373L13.7117 9.23722ZM9.03373 9.86068C9.32495 9.56613 9.32225 9.09126 9.0277 8.80004C8.73314 8.50882 8.25828 8.51152 7.96705 8.80607L5.79662 11.0014C5.25033 11.5539 5.25033 12.4463 5.79662 12.9988L7.96705 15.1941C8.25828 15.4886 8.73314 15.4913 9.0277 15.2001C9.32225 14.9089 9.32495 14.434 9.03373 14.1394L6.91856 12.0001L9.03373 9.86068ZM16.0335 8.80607C15.7423 8.51152 15.2674 8.50882 14.9729 8.80004C14.6783 9.09126 14.6756 9.56613 14.9668 9.86068L17.082 12.0001L14.9668 14.1394C14.6756 14.434 14.6783 14.9089 14.9729 15.2001C15.2674 15.4913 15.7423 15.4886 16.0335 15.1941L18.204 12.9988C18.7502 12.4463 18.7502 11.5539 18.204 11.0014L16.0335 8.80607Z" fill="currentColor"/>
</svg>
