<svg viewBox="0 0 24 24" fill="currentColor" xmlns="http://www.w3.org/2000/svg">
<path d="M8.75 12C8.75 10.2051 10.2051 8.75 12 8.75C13.7949 8.75 15.25 10.2051 15.25 12C15.25 13.7949 13.7949 15.25 12 15.25C10.2051 15.25 8.75 13.7949 8.75 12Z" fill="currentColor"/>
<path d="M11.236 2H12.7639C13.5214 2 14.214 2.428 14.5528 3.10557L14.8704 3.7408C14.954 3.90797 15.095 4.03938 15.2677 4.11091C15.4404 4.18245 15.6331 4.18929 15.8104 4.13018L16.4841 3.9056C17.2028 3.66605 17.9951 3.85309 18.5308 4.38876L19.6112 5.46912C20.1468 6.00478 20.3339 6.79712 20.0943 7.51579L19.8698 8.18951C19.8106 8.36684 19.8175 8.55955 19.889 8.73225C19.9606 8.90495 20.092 9.04605 20.2592 9.12964L20.8944 9.44724C21.5719 9.78602 21.9999 10.4785 21.9999 11.2361V12.764C21.9999 13.5215 21.5719 14.214 20.8944 14.5528L20.2592 14.8704C20.092 14.954 19.9605 15.0951 19.889 15.2678C19.8175 15.4405 19.8106 15.6332 19.8697 15.8106L20.0943 16.4843C20.3338 17.2029 20.1468 17.9953 19.6111 18.5309L18.5308 19.6113C17.9951 20.147 17.2028 20.334 16.4841 20.0945L15.8103 19.8699C15.633 19.8108 15.4404 19.8176 15.2677 19.8891C15.095 19.9606 14.954 20.092 14.8704 20.2592L14.5528 20.8944C14.214 21.572 13.5214 22 12.7639 22H11.236C10.4785 22 9.78597 21.572 9.44718 20.8944L9.12957 20.2592C9.04598 20.092 8.90491 19.9606 8.73223 19.8891C8.55952 19.8175 8.3668 19.8107 8.18945 19.8698L7.51576 20.0944C6.79709 20.3339 6.00475 20.1469 5.46909 19.6112L4.38872 18.5308C3.85306 17.9952 3.66601 17.2028 3.90557 16.4842L4.13016 15.8104C4.18926 15.6331 4.18242 15.4404 4.1109 15.2678C4.03938 15.0951 3.90797 14.954 3.7408 14.8704L3.10557 14.5528C2.428 14.214 2 13.5215 2 12.764V11.2361C2 10.4785 2.428 9.78602 3.10557 9.44724L3.74079 9.12963C3.90796 9.04604 4.03938 8.90495 4.1109 8.73227C4.18241 8.5596 4.18924 8.36694 4.13015 8.18964L3.90555 7.51586C3.666 6.79719 3.85304 6.00486 4.38871 5.46919L5.46907 4.38883C6.00473 3.85317 6.79707 3.66612 7.51574 3.90568L8.1894 4.13023C8.36677 4.18935 8.55952 4.1825 8.73224 4.11093C8.90491 4.03939 9.04598 3.90797 9.12957 3.7408L9.44718 3.10557C9.78597 2.428 10.4785 2 11.236 2ZM12 7.25C9.37665 7.25 7.25 9.37665 7.25 12C7.25 14.6234 9.37665 16.75 12 16.75C14.6234 16.75 16.75 14.6234 16.75 12C16.75 9.37665 14.6234 7.25 12 7.25Z" fill="currentColor"/>
</svg>
