<svg viewBox="0 0 24 24" fill="currentColor" xmlns="http://www.w3.org/2000/svg">
<path d="M7.22706 2H7.77295C8.19369 2 8.56721 2.27543 8.70026 2.68377L8.8492 3.1409C8.92461 3.37232 9.08182 3.5683 9.29138 3.6921L9.39572 3.75373C9.61054 3.88064 9.86504 3.92265 10.1093 3.87152L10.5536 3.77851C10.9658 3.69221 11.3857 3.88544 11.596 4.2582L11.869 4.74186C12.0794 5.11463 12.033 5.58328 11.7538 5.90533L11.4402 6.26714C11.2826 6.44897 11.1959 6.68154 11.1959 6.92217V7.07793C11.1959 7.31852 11.2826 7.55104 11.4402 7.73285L11.7539 8.0947C12.033 8.41675 12.0794 8.88541 11.869 9.25817L11.5961 9.74183C11.3857 10.1146 10.9658 10.3078 10.5536 10.2215L10.1093 10.1285C9.86508 10.0774 9.6106 10.1194 9.39579 10.2463L9.29143 10.3079C9.08184 10.4317 8.9246 10.6277 8.84919 10.8591L8.70026 11.3162C8.56721 11.7246 8.19369 12 7.77295 12H7.22706C6.80633 12 6.4328 11.7246 6.29975 11.3162L6.15083 10.8592C6.07541 10.6277 5.91816 10.4317 5.70856 10.3079L5.6042 10.2463C5.3894 10.1194 5.13493 10.0774 4.89076 10.1285L4.44639 10.2216C4.0342 10.3079 3.61428 10.1146 3.40392 9.74186L3.13097 9.2582C2.9206 8.88544 2.96699 8.41678 3.24613 8.09473L3.55976 7.7329C3.71736 7.55108 3.80411 7.31854 3.80411 7.07794V6.92211C3.80412 6.6815 3.71736 6.44895 3.55977 6.26712L3.24615 5.9053C2.967 5.58325 2.92061 5.11459 3.13098 4.74183L3.40393 4.25817C3.61429 3.88541 4.03421 3.69218 4.4464 3.77847L4.89074 3.8715C5.13493 3.92262 5.38941 3.88062 5.60423 3.75374L5.70859 3.69209C5.91817 3.5683 6.07541 3.37231 6.15082 3.14087L6.29975 2.68377C6.4328 2.27543 6.80633 2 7.22706 2ZM7.5 8.5C8.32843 8.5 9 7.82843 9 7C9 6.17157 8.32843 5.5 7.5 5.5C6.67157 5.5 6 6.17157 6 7C6 7.82843 6.67157 8.5 7.5 8.5Z" fill="currentColor"/>
<path d="M15.6361 9H16.3639C16.9249 9 17.423 9.35806 17.6003 9.8889L17.8346 10.5899C17.9121 10.8219 18.072 11.0174 18.2839 11.1395L18.6448 11.3473C18.8562 11.4691 19.1048 11.5094 19.3439 11.4606L20.0714 11.3121C20.621 11.1999 21.1809 11.4511 21.4614 11.9357L21.8253 12.5644C22.1058 13.049 22.0439 13.6583 21.6718 14.0769L21.1804 14.6296C21.0177 14.8127 20.9278 15.0491 20.9278 15.2941V15.706C20.9278 15.951 21.0177 16.1874 21.1805 16.3704L21.6718 16.9231C22.044 17.3418 22.1059 17.951 21.8254 18.4356L21.4614 19.0644C21.181 19.549 20.6211 19.8002 20.0715 19.688L19.3439 19.5395C19.1049 19.4907 18.8562 19.5309 18.6448 19.6527L18.284 19.8605C18.072 19.9826 17.9121 20.1781 17.8346 20.4101L17.6003 21.1111C17.423 21.6419 16.9249 22 16.3639 22H15.6361C15.0751 22 14.5771 21.6419 14.3997 21.1111L14.1654 20.4102C14.0879 20.1781 13.928 19.9826 13.716 19.8605L13.3552 19.6527C13.1438 19.531 12.8952 19.4907 12.6561 19.5395L11.9285 19.688C11.3789 19.8002 10.819 19.549 10.5386 19.0644L10.1746 18.4357C9.89414 17.9511 9.95599 17.3418 10.3282 16.9232L10.8195 16.3705C10.9823 16.1874 11.0721 15.951 11.0721 15.7061L11.0722 15.294C11.0722 15.0491 10.9823 14.8126 10.8195 14.6296L10.3282 14.0769C9.95601 13.6582 9.89415 13.049 10.1746 12.5644L10.5386 11.9356C10.8191 11.451 11.3789 11.1998 11.9285 11.312L12.6561 11.4605C12.8952 11.5093 13.1438 11.4691 13.3552 11.3473L13.716 11.1395C13.928 11.0174 14.0879 10.8219 14.1654 10.5899L14.3997 9.8889C14.5771 9.35806 15.0751 9 15.6361 9ZM16 18C17.3807 18 18.5 16.8807 18.5 15.5C18.5 14.1193 17.3807 13 16 13C14.6193 13 13.5 14.1193 13.5 15.5C13.5 16.8807 14.6193 18 16 18Z" fill="currentColor"/>
</svg>
