<svg viewBox="0 0 24 24" fill="currentColor" xmlns="http://www.w3.org/2000/svg">
<path d="M6.61803 2H7.38197C7.76074 2 8.107 2.214 8.2764 2.55279L8.4352 2.8704C8.477 2.95398 8.54754 3.01969 8.63387 3.05545C8.72022 3.09122 8.81657 3.09464 8.90523 3.06509L9.2421 2.9528C9.60143 2.83302 9.9976 2.92655 10.2654 3.19438L10.8056 3.73456C11.0734 4.00239 11.167 4.39856 11.0472 4.75789L10.9349 5.09475C10.9054 5.18342 10.9088 5.27977 10.9445 5.36612C10.9803 5.45247 11.046 5.52302 11.1296 5.56482L11.4472 5.72362C11.786 5.89301 12 6.23927 12 6.61805V7.38198C12 7.76075 11.786 8.10701 11.4472 8.27641L11.1296 8.4352C11.046 8.477 10.9803 8.54755 10.9445 8.63389C10.9088 8.72025 10.9053 8.81662 10.9349 8.9053L11.0472 9.24214C11.167 9.60147 11.0734 9.99764 10.8056 10.2655L10.2654 10.8057C9.99758 11.0735 9.60141 11.167 9.24207 11.0472L8.90518 10.9349C8.81653 10.9054 8.7202 10.9088 8.63388 10.9446C8.54754 10.9803 8.477 11.046 8.4352 11.1296L8.2764 11.4472C8.107 11.786 7.76074 12 7.38197 12H6.61803C6.23926 12 5.893 11.786 5.7236 11.4472L5.5648 11.1296C5.523 11.046 5.45246 10.9803 5.36613 10.9445C5.27977 10.9088 5.18341 10.9053 5.09474 10.9349L4.75789 11.0472C4.39855 11.167 4.00238 11.0734 3.73455 10.8056L3.19437 10.2654C2.92653 9.99759 2.83301 9.60142 2.95279 9.24209L3.06508 8.90521C3.09463 8.81655 3.09121 8.72022 3.05545 8.63388C3.01969 8.54754 2.95399 8.477 2.8704 8.43521L2.55279 8.27641C2.214 8.10701 2 7.76075 2 7.38198V6.61805C2 6.23927 2.214 5.89301 2.55279 5.72362L2.8704 5.56482C2.95398 5.52302 3.01969 5.45248 3.05545 5.36614C3.09121 5.2798 3.09463 5.18347 3.06508 5.09482L2.95278 4.75793C2.833 4.3986 2.92652 4.00243 3.19436 3.7346L3.73454 3.19441C4.00237 2.92658 4.39854 2.83306 4.75788 2.95284L5.09471 3.06511C5.18339 3.09468 5.27977 3.09125 5.36613 3.05547C5.45247 3.01969 5.523 2.95398 5.5648 2.8704L5.7236 2.55279C5.893 2.214 6.23926 2 6.61803 2ZM7 9C8.10457 9 9 8.10457 9 7C9 5.89543 8.10457 5 7 5C5.89543 5 5 5.89543 5 7C5 8.10457 5.89543 9 7 9Z" fill="currentColor"/>
<path d="M15.5416 10H16.4584C16.9129 10 17.3284 10.2568 17.5317 10.6633L17.7222 11.0445C17.7724 11.1448 17.857 11.2236 17.9606 11.2665C18.0643 11.3095 18.1799 11.3136 18.2863 11.2781L18.6905 11.1434C19.1217 10.9996 19.5971 11.1119 19.9185 11.4333L20.5667 12.0815C20.8881 12.4029 21.0004 12.8783 20.8566 13.3095L20.7219 13.7137C20.6864 13.8201 20.6905 13.9357 20.7334 14.0393C20.7764 14.143 20.8552 14.2276 20.9555 14.2778L21.3367 14.4683C21.7432 14.6716 22 15.0871 22 15.5417V16.4584C22 16.9129 21.7432 17.3284 21.3367 17.5317L20.9555 17.7222C20.8552 17.7724 20.7764 17.8571 20.7334 17.9607C20.6905 18.0643 20.6864 18.1799 20.7219 18.2864L20.8566 18.6906C21.0003 19.1218 20.8881 19.5972 20.5667 19.9186L19.9185 20.5668C19.5971 20.8882 19.1217 21.0004 18.6905 20.8567L18.2862 20.7219C18.1798 20.6865 18.0642 20.6906 17.9607 20.7335C17.857 20.7764 17.7724 20.8552 17.7222 20.9555L17.5317 21.3367C17.3284 21.7432 16.9129 22 16.4584 22H15.5416C15.0871 22 14.6716 21.7432 14.4683 21.3367L14.2778 20.9555C14.2276 20.8552 14.143 20.7764 14.0394 20.7334C13.9357 20.6905 13.8201 20.6864 13.7137 20.7219L13.3095 20.8566C12.8783 21.0004 12.4029 20.8881 12.0815 20.5667L11.4332 19.9185C11.1118 19.5971 10.9996 19.1217 11.1433 18.6905L11.2781 18.2863C11.3136 18.1799 11.3095 18.0643 11.2665 17.9607C11.2236 17.8571 11.1448 17.7724 11.0445 17.7223L10.6633 17.5317C10.2568 17.3284 10 16.9129 10 16.4584V15.5417C10 15.0871 10.2568 14.6716 10.6633 14.4683L11.0445 14.2778C11.1448 14.2276 11.2236 14.143 11.2665 14.0394C11.3095 13.9358 11.3136 13.8202 11.2781 13.7138L11.1433 13.3095C10.9996 12.8783 11.1118 12.4029 11.4332 12.0815L12.0814 11.4333C12.4028 11.1119 12.8783 10.9997 13.3095 11.1434L13.7137 11.2781C13.8201 11.3136 13.9357 11.3095 14.0394 11.2666C14.143 11.2236 14.2276 11.1448 14.2778 11.0445L14.4683 10.6633C14.6716 10.2568 15.0871 10 15.5416 10ZM16 18C17.1046 18 18 17.1046 18 16C18 14.8954 17.1046 14 16 14C14.8954 14 14 14.8954 14 16C14 17.1046 14.8954 18 16 18Z" fill="currentColor"/>
</svg>
