<svg viewBox="0 0 24 24" fill="currentColor" xmlns="http://www.w3.org/2000/svg">
<path d="M2 6C2 4.89543 2.89543 4 4 4H20C21.1046 4 22 4.89543 22 6V18C22 19.1046 21.1046 20 20 20H4C2.89543 20 2 19.1046 2 18V6ZM6 6.25C5.58579 6.25 5.25 6.58579 5.25 7V8.14538C4.51704 8.44207 4 9.16066 4 10C4 10.8393 4.51704 11.5579 5.25 11.8546V17C5.25 17.4142 5.58579 17.75 6 17.75C6.41421 17.75 6.75 17.4142 6.75 17V11.8546C7.48296 11.5579 8 10.8393 8 10C8 9.16066 7.48296 8.44207 6.75 8.14538V7C6.75 6.58579 6.41421 6.25 6 6.25ZM12.75 7C12.75 6.58579 12.4142 6.25 12 6.25C11.5858 6.25 11.25 6.58579 11.25 7V10.1454C10.517 10.4421 10 11.1607 10 12C10 12.8393 10.517 13.5579 11.25 13.8546V17C11.25 17.4142 11.5858 17.75 12 17.75C12.4142 17.75 12.75 17.4142 12.75 17V13.8546C13.483 13.5579 14 12.8393 14 12C14 11.1607 13.483 10.4421 12.75 10.1454V7ZM18 6.25C17.5858 6.25 17.25 6.58579 17.25 7V12.1454C16.517 12.4421 16 13.1607 16 14C16 14.8393 16.517 15.5579 17.25 15.8546V17C17.25 17.4142 17.5858 17.75 18 17.75C18.4142 17.75 18.75 17.4142 18.75 17V15.8546C19.483 15.5579 20 14.8393 20 14C20 13.1607 19.483 12.4421 18.75 12.1454V7C18.75 6.58579 18.4142 6.25 18 6.25Z" fill="currentColor"/>
</svg>
