<svg viewBox="0 0 24 24" fill="currentColor" xmlns="http://www.w3.org/2000/svg">
<path d="M2 6C2 4.89543 2.89543 4 4 4H20C21.1046 4 22 4.89543 22 6V18C22 19.1046 21.1046 20 20 20H4C2.89543 20 2 19.1046 2 18V6ZM6 6.25C5.58579 6.25 5.25 6.58579 5.25 7V8.25H4C3.58579 8.25 3.25 8.58579 3.25 9C3.25 9.41421 3.58579 9.75 4 9.75H5.25V17C5.25 17.4142 5.58579 17.75 6 17.75C6.41421 17.75 6.75 17.4142 6.75 17V9.75H8C8.41421 9.75 8.75 9.41421 8.75 9C8.75 8.58579 8.41421 8.25 8 8.25H6.75V7C6.75 6.58579 6.41421 6.25 6 6.25ZM12.75 7C12.75 6.58579 12.4142 6.25 12 6.25C11.5858 6.25 11.25 6.58579 11.25 7V11.25H10C9.58579 11.25 9.25 11.5858 9.25 12C9.25 12.4142 9.58579 12.75 10 12.75H11.25V17C11.25 17.4142 11.5858 17.75 12 17.75C12.4142 17.75 12.75 17.4142 12.75 17V12.75H14C14.4142 12.75 14.75 12.4142 14.75 12C14.75 11.5858 14.4142 11.25 14 11.25H12.75V7ZM18 6.25C17.5858 6.25 17.25 6.58579 17.25 7V14.25H16C15.5858 14.25 15.25 14.5858 15.25 15C15.25 15.4142 15.5858 15.75 16 15.75H17.25V17C17.25 17.4142 17.5858 17.75 18 17.75C18.4142 17.75 18.75 17.4142 18.75 17V15.75H20C20.4142 15.75 20.75 15.4142 20.75 15C20.75 14.5858 20.4142 14.25 20 14.25H18.75V7C18.75 6.58579 18.4142 6.25 18 6.25Z" fill="currentColor"/>
</svg>
