<svg viewBox="0 0 24 24" fill="currentColor" xmlns="http://www.w3.org/2000/svg">
<path d="M3.75 13.5C3.75 13.0858 4.08579 12.75 4.5 12.75H6.5C6.91421 12.75 7.25 13.0858 7.25 13.5C7.25 13.9142 6.91421 14.25 6.5 14.25H4.5C4.08579 14.25 3.75 13.9142 3.75 13.5Z" fill="currentColor"/>
<path d="M3.75 15.5C3.75 15.0858 4.08579 14.75 4.5 14.75H8C8.41421 14.75 8.75 15.0858 8.75 15.5C8.75 15.9142 8.41421 16.25 8 16.25H4.5C4.08579 16.25 3.75 15.9142 3.75 15.5Z" fill="currentColor"/>
<path d="M4.11446 8.25005C4.35866 7.47253 4.97249 6.8587 5.75001 6.6145V8.25005H4.11446Z" fill="currentColor"/>
<path d="M6.50001 11.5001C5.3806 11.5001 4.43302 10.7644 4.11446 9.75005H6.50001C6.91422 9.75005 7.25001 9.41426 7.25001 9.00005V6.6145C8.26428 6.93306 9.00001 7.88064 9.00001 9.00005C9.00001 10.3808 7.88072 11.5001 6.50001 11.5001Z" fill="currentColor"/>
<path d="M18.25 5.5C18.25 5.08579 18.5858 4.75 19 4.75C19.4142 4.75 19.75 5.08579 19.75 5.5V9.5C19.75 9.91421 19.4142 10.25 19 10.25C18.5858 10.25 18.25 9.91421 18.25 9.5V5.5Z" fill="currentColor"/>
<path d="M13 7.75C12.5858 7.75 12.25 8.08579 12.25 8.5V9.5C12.25 9.91421 12.5858 10.25 13 10.25C13.4142 10.25 13.75 9.91421 13.75 9.5V8.5C13.75 8.08579 13.4142 7.75 13 7.75Z" fill="currentColor"/>
<path d="M15.25 6.5C15.25 6.08579 15.5858 5.75 16 5.75C16.4142 5.75 16.75 6.08579 16.75 6.5V9.5C16.75 9.91421 16.4142 10.25 16 10.25C15.5858 10.25 15.25 9.91421 15.25 9.5V6.5Z" fill="currentColor"/>
<path d="M19.0303 14.0303L17.0303 16.0303C16.7374 16.3232 16.2626 16.3232 15.9697 16.0303L15 15.0607L14.0303 16.0303C13.7374 16.3232 13.2626 16.3232 12.9697 16.0303C12.6768 15.7374 12.6768 15.2626 12.9697 14.9697L14.4697 13.4697C14.7626 13.1768 15.2374 13.1768 15.5303 13.4697L16.5 14.4393L17.9697 12.9697C18.2626 12.6768 18.7374 12.6768 19.0303 12.9697C19.3232 13.2626 19.3232 13.7374 19.0303 14.0303Z" fill="currentColor"/>
<path d="M2 5C2 3.89543 2.89543 3 4 3H20C21.1046 3 22 3.89543 22 5V16C22 17.1046 21.1046 18 20 18H12.75V20.25H15C15.4142 20.25 15.75 20.5858 15.75 21C15.75 21.4142 15.4142 21.75 15 21.75H9C8.58579 21.75 8.25 21.4142 8.25 21C8.25 20.5858 8.58579 20.25 9 20.25H11.25V18H4C2.89543 18 2 17.1046 2 16V5ZM3 5V16C3 16.5523 3.44772 17 4 17H9C9.55228 17 10 16.5523 10 16V5C10 4.44772 9.55228 4 9 4H4C3.44772 4 3 4.44772 3 5ZM12 4C11.4477 4 11 4.44772 11 5V10C11 10.5523 11.4477 11 12 11H20C20.5523 11 21 10.5523 21 10V5C21 4.44772 20.5523 4 20 4H12ZM11 13V16C11 16.5523 11.4477 17 12 17H20C20.5523 17 21 16.5523 21 16V13C21 12.4477 20.5523 12 20 12H12C11.4477 12 11 12.4477 11 13Z" fill="currentColor"/>
</svg>
