<svg viewBox="0 0 24 24" fill="currentColor" xmlns="http://www.w3.org/2000/svg">
<path d="M5 5C5 3.34315 8.13401 2 12 2C15.866 2 19 3.34315 19 5V5.48478C18.9633 5.5237 18.9214 5.5643 18.8738 5.60654C18.562 5.88292 18.0682 6.16608 17.3935 6.41907C16.0497 6.92299 14.143 7.25 12 7.25C9.85699 7.25 7.95026 6.92299 6.60649 6.41907C5.93183 6.16608 5.43796 5.88292 5.12623 5.60654C5.07859 5.5643 5.03673 5.5237 5 5.48478V5Z" fill="currentColor"/>
<path d="M5 7.33179V10.4848C5.03673 10.5237 5.07859 10.5643 5.12623 10.6065C5.43796 10.8829 5.93183 11.1661 6.60649 11.4191C7.95026 11.923 9.85699 12.25 12 12.25C14.143 12.25 16.0497 11.923 17.3935 11.4191C18.0682 11.1661 18.562 10.8829 18.8738 10.6065C18.9214 10.5643 18.9633 10.5237 19 10.4848V7.33179C18.6711 7.51454 18.3076 7.67826 17.9202 7.82355C16.3685 8.40542 14.2753 8.74998 12 8.74998C9.72474 8.74998 7.63146 8.40542 6.0798 7.82355C5.69238 7.67826 5.3289 7.51454 5 7.33179Z" fill="currentColor"/>
<path d="M19 12.3318C18.6711 12.5146 18.3076 12.6783 17.9202 12.8236C16.3685 13.4054 14.2753 13.75 12 13.75C9.72474 13.75 7.63146 13.4054 6.0798 12.8236C5.69238 12.6783 5.3289 12.5146 5 12.3318V15.4848C5.03673 15.5237 5.07859 15.5643 5.12623 15.6065C5.43796 15.8829 5.93183 16.1661 6.60649 16.4191C7.95026 16.923 9.85699 17.25 12 17.25C14.143 17.25 16.0497 16.923 17.3935 16.4191C18.0682 16.1661 18.562 15.8829 18.8738 15.6065C18.9214 15.5643 18.9633 15.5237 19 15.4848V12.3318Z" fill="currentColor"/>
<path d="M19 17.3318C18.6711 17.5146 18.3076 17.6783 17.9202 17.8236C16.3685 18.4054 14.2753 18.75 12 18.75C9.72474 18.75 7.63146 18.4054 6.0798 17.8236C5.69238 17.6783 5.3289 17.5146 5 17.3318V19C5 20.6569 8.13401 22 12 22C15.866 22 19 20.6569 19 19V17.3318Z" fill="currentColor"/>
</svg>
