<svg viewBox="0 0 24 24" fill="currentColor" xmlns="http://www.w3.org/2000/svg">
<path d="M11.5302 11.578C11.2136 11.6828 11 11.9768 11 12.3079V14.409C11 17.7429 13.0628 20.7348 16.1945 21.9431C16.391 22.019 16.609 22.019 16.8055 21.9431C19.9372 20.7348 22 17.7429 22 14.409V12.3079C22 11.9768 21.7864 11.6828 21.4698 11.578L16.8865 10.0622C16.6356 9.97927 16.3644 9.97927 16.1135 10.0622L11.5302 11.578Z" fill="currentColor"/>
<path d="M9 2C5.13401 2 2 3.34315 2 5V5.48478C2.03673 5.5237 2.07859 5.5643 2.12623 5.60654C2.43796 5.88292 2.93183 6.16608 3.60649 6.41907C4.95026 6.92299 6.85699 7.25 9 7.25C11.143 7.25 13.0497 6.92299 14.3935 6.41907C15.0682 6.16608 15.562 5.88292 15.8738 5.60654C15.9214 5.5643 15.9633 5.5237 16 5.48478V5C16 3.34315 12.866 2 9 2Z" fill="currentColor"/>
<path d="M2 10.4848V7.33179C2.3289 7.51454 2.69238 7.67826 3.0798 7.82355C4.63146 8.40542 6.72474 8.74998 9 8.74998C11.2753 8.74998 13.3685 8.40542 14.9202 7.82355C15.3076 7.67826 15.6711 7.51454 16 7.33179V8.54613C15.8794 8.56858 15.76 8.59923 15.6425 8.63807L11.0592 10.1539C10.1544 10.4531 9.52766 11.2863 9.50089 12.244C9.33549 12.248 9.16848 12.25 9 12.25C6.85699 12.25 4.95026 11.923 3.60649 11.4191C2.93183 11.1661 2.43796 10.8829 2.12623 10.6065C2.07859 10.5643 2.03673 10.5237 2 10.4848Z" fill="currentColor"/>
<path d="M9.5 13.7444C9.33442 13.7481 9.1677 13.75 9 13.75C6.72474 13.75 4.63146 13.4054 3.0798 12.8236C2.69238 12.6783 2.3289 12.5146 2 12.3318V15.4848C2.03673 15.5237 2.07859 15.5643 2.12623 15.6065C2.43796 15.8829 2.93183 16.1661 3.60649 16.4191C4.95026 16.923 6.85699 17.25 9 17.25C9.31429 17.25 9.6235 17.243 9.9266 17.2294C9.64812 16.3312 9.5 15.3826 9.5 14.409V13.7444Z" fill="currentColor"/>
<path d="M10.5197 18.6978C10.0253 18.7322 9.51738 18.75 9 18.75C6.72474 18.75 4.63146 18.4054 3.0798 17.8236C2.69238 17.6783 2.3289 17.5146 2 17.3318V19C2 20.6569 5.13401 22 9 22C10.3615 22 11.6323 21.8334 12.7073 21.5452C11.8033 20.7398 11.0614 19.7726 10.5197 18.6978Z" fill="currentColor"/>
</svg>
