<svg viewBox="0 0 24 24" fill="currentColor" xmlns="http://www.w3.org/2000/svg">
<path d="M15.6361 10H16.3639C16.9249 10 17.423 10.3305 17.6003 10.8205L17.8239 11.4381C17.9083 11.671 18.076 11.8644 18.2948 11.9807L18.6631 12.1765C18.8636 12.2831 19.0945 12.3183 19.3177 12.2762L20.0714 12.1342C20.621 12.0307 21.1809 12.2625 21.4614 12.7098L21.8253 13.2902C22.1058 13.7376 22.0439 14.2999 21.6718 14.6864L21.2075 15.1684C21.0281 15.3548 20.9278 15.6034 20.9278 15.8622V16.1379C20.9278 16.3966 21.0281 16.6452 21.2076 16.8316L21.6718 17.3136C22.044 17.7001 22.1059 18.2625 21.8254 18.7098L21.4614 19.2902C21.181 19.7375 20.6211 19.9694 20.0715 19.8658L19.3177 19.7238C19.0945 19.6818 18.8637 19.7169 18.6631 19.8235L18.2948 20.0193C18.0761 20.1356 17.9083 20.329 17.8239 20.5619L17.6003 21.1795C17.423 21.6695 16.9249 22 16.3639 22H15.6361C15.0751 22 14.5771 21.6695 14.3997 21.1795L14.1761 20.5619C14.0918 20.329 13.924 20.1356 13.7052 20.0193L13.3368 19.8235C13.1363 19.717 12.9055 19.6818 12.6823 19.7238L11.9285 19.8659C11.3789 19.9694 10.819 19.7376 10.5386 19.2902L10.1746 18.7098C9.89413 18.2625 9.956 17.7001 10.3282 17.3137L10.7924 16.8316C10.9719 16.6453 11.0721 16.3967 11.0721 16.138L11.0722 15.8621C11.0722 15.6034 10.9719 15.3547 10.7924 15.1684L10.3282 14.6864C9.95601 14.2999 9.89416 13.7375 10.1746 13.2902L10.5386 12.7098C10.8191 12.2625 11.3789 12.0306 11.9285 12.1342L12.6823 12.2762C12.9055 12.3182 13.1363 12.2831 13.3369 12.1765L13.7052 11.9807C13.924 11.8644 14.0918 11.671 14.1761 11.4381L14.3997 10.8205C14.5771 10.3305 15.0751 10 15.6361 10ZM16 18C17.1046 18 18 17.1046 18 16C18 14.8954 17.1046 14 16 14C14.8954 14 14 14.8954 14 16C14 17.1046 14.8954 18 16 18Z" fill="currentColor"/>
<path d="M9 2C5.13401 2 2 3.34315 2 5V5.48478C2.03673 5.5237 2.07859 5.5643 2.12623 5.60654C2.43796 5.88292 2.93183 6.16608 3.60649 6.41907C4.95026 6.92299 6.85699 7.25 9 7.25C11.143 7.25 13.0497 6.92299 14.3935 6.41907C15.0682 6.16608 15.562 5.88292 15.8738 5.60654C15.9214 5.5643 15.9633 5.5237 16 5.48478V5C16 3.34315 12.866 2 9 2Z" fill="currentColor"/>
<path d="M16 7.33179C15.6711 7.51454 15.3076 7.67826 14.9202 7.82355C13.3685 8.40542 11.2753 8.74998 9 8.74998C6.72474 8.74998 4.63146 8.40542 3.0798 7.82355C2.69238 7.67826 2.3289 7.51454 2 7.33179V10.4848C2.03673 10.5237 2.07859 10.5643 2.12623 10.6065C2.43796 10.8829 2.93183 11.1661 3.60649 11.4191C4.95026 11.923 6.85699 12.25 9 12.25C9.01882 12.25 9.03763 12.25 9.05642 12.2499L9.26772 11.9129C9.90139 10.9024 11.0987 10.4514 12.2063 10.6601L12.7877 10.7697L12.8312 10.7465L12.9892 10.3099C13.4032 9.1665 14.5093 8.49998 15.6361 8.49998H16V7.33179Z" fill="currentColor"/>
<path d="M8.50373 13.7445C6.42137 13.6983 4.51795 13.3629 3.0798 12.8236C2.69238 12.6783 2.3289 12.5146 2 12.3318V15.4848C2.03673 15.5237 2.07859 15.5643 2.12623 15.6065C2.43796 15.8829 2.93183 16.1661 3.60649 16.4191C4.87601 16.8951 6.64798 17.2133 8.64696 17.247C8.77131 16.8913 8.97318 16.5582 9.24774 16.2732L9.5108 16L9.24776 15.7269C8.72332 15.1823 8.46408 14.4628 8.50373 13.7445Z" fill="currentColor"/>
<path d="M8.57821 18.746C6.46678 18.7063 4.53508 18.3693 3.0798 17.8236C2.69238 17.6783 2.3289 17.5146 2 17.3318V19C2 20.6569 5.13401 22 9 22C10.4506 22 11.7981 21.8109 12.9157 21.4871L12.8312 21.2535L12.7877 21.2304L12.2062 21.3399C11.0987 21.5486 9.90137 21.0977 9.2677 20.0871L8.90377 19.5067C8.7521 19.2648 8.64415 19.0083 8.57821 18.746Z" fill="currentColor"/>
</svg>
