<svg viewBox="0 0 24 24" fill="currentColor" xmlns="http://www.w3.org/2000/svg">
<path d="M16 14.5V15H19V14.5C19 13.6716 18.3284 13 17.5 13C16.6716 13 16 13.6716 16 14.5ZM14 15V14.5C14 12.567 15.567 11 17.5 11C19.433 11 21 12.567 21 14.5V15C21.5523 15 22 15.4477 22 16V21C22 21.5523 21.5523 22 21 22H14C13.4477 22 13 21.5523 13 21V16C13 15.4477 13.4477 15 14 15Z" fill="currentColor"/>
<path d="M9 2C5.13401 2 2 3.34315 2 5V5.48478C2.03673 5.5237 2.07859 5.5643 2.12623 5.60654C2.43796 5.88292 2.93183 6.16608 3.60649 6.41907C4.95026 6.92299 6.85699 7.25 9 7.25C11.143 7.25 13.0497 6.92299 14.3935 6.41907C15.0682 6.16608 15.562 5.88292 15.8738 5.60654C15.9214 5.5643 15.9633 5.5237 16 5.48478V5C16 3.34315 12.866 2 9 2Z" fill="currentColor"/>
<path d="M2 10.4848V7.33179C2.3289 7.51454 2.69238 7.67826 3.0798 7.82355C4.63146 8.40542 6.72474 8.74998 9 8.74998C11.2753 8.74998 13.3685 8.40542 14.9202 7.82355C15.3076 7.67826 15.6711 7.51454 16 7.33179V9.72888C14.8911 10.0772 13.9487 10.8014 13.3221 11.7521C12.1118 12.0623 10.6237 12.25 9 12.25C6.85699 12.25 4.95026 11.923 3.60649 11.4191C2.93183 11.1661 2.43796 10.8829 2.12623 10.6065C2.07859 10.5643 2.03673 10.5237 2 10.4848Z" fill="currentColor"/>
<path d="M12.6125 13.4403C11.5093 13.6403 10.2836 13.75 9 13.75C6.72474 13.75 4.63146 13.4054 3.0798 12.8236C2.69238 12.6783 2.3289 12.5146 2 12.3318V15.4848C2.03673 15.5237 2.07859 15.5643 2.12623 15.6065C2.43796 15.8829 2.93183 16.1661 3.60649 16.4191C4.95026 16.923 6.85699 17.25 9 17.25C9.88081 17.25 10.7217 17.1948 11.5 17.0947V16C11.5 15.1702 11.9043 14.4348 12.5267 13.98C12.5456 13.797 12.5744 13.6169 12.6125 13.4403Z" fill="currentColor"/>
<path d="M11.5 18.6061C10.7063 18.7 9.86634 18.75 9 18.75C6.72474 18.75 4.63146 18.4054 3.0798 17.8236C2.69238 17.6783 2.3289 17.5146 2 17.3318V19C2 20.6569 5.13401 22 9 22C9.92819 22 10.8142 21.9226 11.6247 21.782C11.5438 21.536 11.5 21.2731 11.5 21V18.6061Z" fill="currentColor"/>
</svg>
