<svg viewBox="0 0 24 24" fill="currentColor" xmlns="http://www.w3.org/2000/svg">
<path d="M22 20.8C22 21.4627 21.4627 22 20.8 22H11.2C10.5373 22 10 21.4627 10 20.8V13.2C10 12.5373 10.5373 12 11.2 12H14.3361C14.6346 12 14.9224 12.1113 15.1433 12.3121L16.6567 13.6879C16.8776 13.8887 17.1654 14 17.4639 14H20.8C21.4627 14 22 14.5373 22 15.2V20.8Z" fill="currentColor"/>
<path d="M9 2C5.13401 2 2 3.34315 2 5V5.48478C2.03673 5.5237 2.07859 5.5643 2.12623 5.60654C2.43796 5.88292 2.93183 6.16608 3.60649 6.41907C4.95026 6.92299 6.85699 7.25 9 7.25C11.143 7.25 13.0497 6.92299 14.3935 6.41907C15.0682 6.16608 15.562 5.88292 15.8738 5.60654C15.9214 5.5643 15.9633 5.5237 16 5.48478V5C16 3.34315 12.866 2 9 2Z" fill="currentColor"/>
<path d="M2 10.4848V7.33179C2.3289 7.51454 2.69238 7.67826 3.0798 7.82355C4.63146 8.40542 6.72474 8.74998 9 8.74998C11.2753 8.74998 13.3685 8.40542 14.9202 7.82355C15.3076 7.67826 15.6711 7.51454 16 7.33179V10.4848C15.9633 10.5237 15.9214 10.5643 15.8738 10.6065C15.7953 10.6761 15.7052 10.7462 15.6036 10.816C15.2163 10.6101 14.7815 10.5 14.3361 10.5H11.2C10.0441 10.5 9.05791 11.2263 8.67283 12.2474C6.66327 12.2161 4.88148 11.8972 3.60649 11.4191C2.93183 11.1661 2.43796 10.8829 2.12623 10.6065C2.07859 10.5643 2.03673 10.5237 2 10.4848Z" fill="currentColor"/>
<path d="M8.5 13.7444C6.4191 13.6979 4.51709 13.3626 3.0798 12.8236C2.69238 12.6783 2.3289 12.5146 2 12.3318V15.4848C2.03673 15.5237 2.07859 15.5643 2.12623 15.6065C2.43796 15.8829 2.93183 16.1661 3.60649 16.4191C4.84481 16.8834 6.56119 17.1976 8.5 17.244V13.7444Z" fill="currentColor"/>
<path d="M8.5 18.7444C6.4191 18.6979 4.51709 18.3625 3.0798 17.8236C2.69238 17.6783 2.3289 17.5146 2 17.3318V19C2 20.6253 5.01578 21.9487 8.77994 21.9985C8.60075 21.6374 8.5 21.2305 8.5 20.8V18.7444Z" fill="currentColor"/>
</svg>
