<svg viewBox="0 0 24 24" fill="currentColor" xmlns="http://www.w3.org/2000/svg">
<path d="M9 2C5.13401 2 2 3.34315 2 5V5.48478C2.03673 5.5237 2.07859 5.5643 2.12623 5.60654C2.43796 5.88292 2.93183 6.16608 3.60649 6.41907C4.95026 6.92299 6.85699 7.25 9 7.25C11.143 7.25 13.0497 6.92299 14.3935 6.41907C15.0682 6.16608 15.562 5.88292 15.8738 5.60654C15.9214 5.5643 15.9633 5.5237 16 5.48478V5C16 3.34315 12.866 2 9 2Z" fill="currentColor"/>
<path d="M2 10.4848V7.33179C2.3289 7.51454 2.69238 7.67826 3.0798 7.82355C4.63146 8.40542 6.72474 8.74998 9 8.74998C11.2753 8.74998 13.3685 8.40542 14.9202 7.82355C15.3076 7.67826 15.6711 7.51454 16 7.33179V8.49998C13.2265 8.49998 10.8046 10.0055 9.50692 12.2439C9.33955 12.2479 9.17052 12.25 9 12.25C6.85699 12.25 4.95026 11.923 3.60649 11.4191C2.93183 11.1661 2.43796 10.8829 2.12623 10.6065C2.07859 10.5643 2.03673 10.5237 2 10.4848Z" fill="currentColor"/>
<path d="M8.84352 13.7495C6.62887 13.734 4.59582 13.3921 3.0798 12.8236C2.69238 12.6783 2.3289 12.5146 2 12.3318V15.4848C2.03673 15.5237 2.07859 15.5643 2.12623 15.6065C2.43796 15.8829 2.93183 16.1661 3.60649 16.4191C4.86671 16.8917 6.62205 17.2086 8.60307 17.2462C8.53528 16.8409 8.5 16.4246 8.5 16C8.5 15.2159 8.62033 14.4599 8.84352 13.7495Z" fill="currentColor"/>
<path d="M9.0202 18.75C9.01347 18.75 9.00673 18.75 9 18.75C6.72474 18.75 4.63146 18.4054 3.0798 17.8236C2.69238 17.6783 2.3289 17.5146 2 17.3318V19C2 20.6569 5.13401 22 9 22C9.80154 22 10.5716 21.9423 11.2888 21.836C10.2882 21.0272 9.49982 19.9664 9.0202 18.75Z" fill="currentColor"/>
<path d="M16 22C12.6863 22 10 19.3137 10 16C10 12.6863 12.6863 10 16 10C19.3137 10 22 12.6863 22 16C22 19.3137 19.3137 22 16 22ZM15.0018 14.9427C14.723 14.6916 14.3078 14.6882 14.026 14.9184C14.4082 14.2218 15.1485 13.7499 15.9998 13.7499C17.2433 13.7499 18.2499 14.7567 18.2499 15.9999C18.2499 17.2432 17.2433 18.2499 15.9998 18.2499C15.5856 18.2499 15.2498 18.5857 15.2498 18.9999C15.2498 19.4141 15.5856 19.7499 15.9998 19.7499C18.0718 19.7499 19.7499 18.0715 19.7499 15.9999C19.7499 13.9283 18.0718 12.2499 15.9998 12.2499C14.224 12.2499 12.7376 13.4828 12.3489 15.1394L12.1791 14.9696C11.8862 14.6767 11.4114 14.6767 11.1184 14.9696C10.8255 15.2624 10.8255 15.7373 11.1184 16.0302L12.6182 17.5302C12.7637 17.6757 12.9625 17.755 13.1681 17.7497C13.3737 17.7443 13.5681 17.6547 13.7058 17.5019L15.057 16.0019C15.3343 15.6941 15.3095 15.2199 15.0018 14.9427Z" fill="currentColor"/>
</svg>
