<svg viewBox="0 0 24 24" fill="currentColor" xmlns="http://www.w3.org/2000/svg">
<path d="M5.00876 3.99399C5.1928 2.88345 8.2525 2 12 2C15.7475 2 18.8072 2.88345 18.9912 3.99399C18.9566 4.03009 18.9177 4.06763 18.8738 4.10654C18.562 4.38292 18.0682 4.66608 17.3935 4.91907C16.0497 5.42299 14.143 5.75 12 5.75C9.85699 5.75 7.95026 5.42299 6.60649 4.91907C5.93183 4.66608 5.43796 4.38292 5.12623 4.10654C5.08234 4.06762 5.04335 4.0301 5.00876 3.99399Z" fill="currentColor"/>
<path d="M5 5.83179V8.98476C5.03673 9.02368 5.07859 9.06428 5.12623 9.10652C5.43796 9.3829 5.93183 9.66606 6.60649 9.91905C7.95026 10.423 9.85699 10.75 12 10.75C14.143 10.75 16.0497 10.423 17.3935 9.91905C18.0682 9.66606 18.562 9.3829 18.8738 9.10652C18.9214 9.06428 18.9633 9.02368 19 8.98476V5.83179C18.6711 6.01454 18.3076 6.17826 17.9202 6.32355C16.3685 6.90542 14.2753 7.24998 12 7.24998C9.72474 7.24998 7.63146 6.90542 6.0798 6.32355C5.69238 6.17826 5.3289 6.01454 5 5.83179Z" fill="currentColor"/>
<path d="M17.9202 11.3236C18.3076 11.1783 18.6711 11.0146 19 10.8318V12.9C19 13.9838 16.2633 14.8758 12.7499 14.9881L12.75 15V16.75H19C19.9665 16.75 20.75 17.5335 20.75 18.5V20.1893L21.4697 19.4697C21.7626 19.1768 22.2374 19.1768 22.5303 19.4697C22.8232 19.7626 22.8232 20.2374 22.5303 20.5303L20.5303 22.5303C20.3839 22.6768 20.1919 22.75 20 22.75C19.8983 22.75 19.8013 22.7298 19.7129 22.6931C19.6245 22.6565 19.5416 22.6022 19.4697 22.5303L17.4697 20.5303C17.1768 20.2374 17.1768 19.7626 17.4697 19.4697C17.7626 19.1768 18.2374 19.1768 18.5303 19.4697L19.25 20.1893V18.5C19.25 18.3619 19.1381 18.25 19 18.25H12.75V20.1893L13.4697 19.4697C13.7626 19.1768 14.2374 19.1768 14.5303 19.4697C14.8232 19.7626 14.8232 20.2374 14.5303 20.5303L12.5303 22.5303C12.4584 22.6022 12.3755 22.6565 12.2871 22.6931C12.1987 22.7298 12.1017 22.75 12 22.75C11.9871 22.75 11.9742 22.7497 11.9614 22.749C11.8738 22.7446 11.7901 22.7251 11.7129 22.6931C11.6245 22.6565 11.5416 22.6022 11.4697 22.5303L9.46967 20.5303C9.17678 20.2374 9.17678 19.7626 9.46967 19.4697C9.76256 19.1768 10.2374 19.1768 10.5303 19.4697L11.25 20.1893V18.25H5C4.86193 18.25 4.75 18.3619 4.75 18.5V20.1893L5.46967 19.4697C5.76256 19.1768 6.23744 19.1768 6.53033 19.4697C6.82322 19.7626 6.82322 20.2374 6.53033 20.5303L4.53033 22.5303C4.45842 22.6022 4.37555 22.6565 4.28709 22.6931C4.19866 22.7298 4.10169 22.75 4 22.75C3.80806 22.75 3.61612 22.6768 3.46967 22.5303L1.46967 20.5303C1.17678 20.2374 1.17678 19.7626 1.46967 19.4697C1.76256 19.1768 2.23744 19.1768 2.53033 19.4697L3.25 20.1893V18.5C3.25 17.5335 4.0335 16.75 5 16.75H11.25V15L11.2501 14.9881C7.73672 14.8758 5 13.9838 5 12.9V10.8318C5.3289 11.0146 5.69238 11.1783 6.0798 11.3236C7.63146 11.9054 9.72474 12.25 12 12.25C14.2753 12.25 16.3685 11.9054 17.9202 11.3236Z" fill="currentColor"/>
</svg>
