<svg viewBox="0 0 24 24" fill="currentColor" xmlns="http://www.w3.org/2000/svg">
<path d="M11.6361 6H12.3639C12.9249 6 13.423 6.33052 13.6003 6.82053L13.8239 7.43812C13.9083 7.67104 14.076 7.86438 14.2948 7.98067L14.6631 8.17648C14.8636 8.28311 15.0945 8.31828 15.3177 8.27623L16.0714 8.13421C16.621 8.03066 17.1809 8.26253 17.4614 8.70985L17.8253 9.29024C18.1058 9.73755 18.0439 10.2999 17.6718 10.6864L17.2075 11.1684C17.0281 11.3548 16.9278 11.6034 16.9278 11.8622V12.1379C16.9278 12.3966 17.0281 12.6452 17.2076 12.8316L17.6718 13.3136C18.044 13.7001 18.1059 14.2625 17.8254 14.7098L17.4614 15.2902C17.181 15.7375 16.6211 15.9694 16.0715 15.8658L15.3177 15.7238C15.0945 15.6818 14.8637 15.7169 14.6631 15.8235L14.2948 16.0193C14.0761 16.1356 13.9083 16.329 13.8239 16.5619L13.6003 17.1795C13.423 17.6695 12.9249 18 12.3639 18H11.6361C11.0751 18 10.5771 17.6695 10.3997 17.1795L10.1761 16.5619C10.0918 16.329 9.92396 16.1356 9.70519 16.0193L9.33685 15.8235C9.13632 15.717 8.90549 15.6818 8.68233 15.7238L7.92852 15.8659C7.37893 15.9694 6.81904 15.7376 6.53855 15.2902L6.17462 14.7098C5.89414 14.2625 5.95599 13.7001 6.32818 13.3137L6.79243 12.8316C6.97189 12.6453 7.07215 12.3967 7.07215 12.138V11.8621C7.07216 11.6034 6.9719 11.3547 6.79243 11.1684L6.3282 10.6864C5.95601 10.2999 5.89415 9.73751 6.17464 9.2902L6.53857 8.7098C6.81906 8.26249 7.37895 8.03062 7.92853 8.13417L8.68232 8.27619C8.9055 8.31824 9.13634 8.28308 9.33688 8.17648L9.70521 7.98067C9.92397 7.86438 10.0918 7.67103 10.1761 7.43808L10.3997 6.82053C10.5771 6.33052 11.0751 6 11.6361 6ZM12 14C13.1046 14 14 13.1046 14 12C14 10.8954 13.1046 10 12 10C10.8954 10 10 10.8954 10 12C10 13.1046 10.8954 14 12 14Z" fill="currentColor"/>
<path d="M2.75 12C2.75 6.88942 6.88942 2.75 12 2.75C14.7635 2.75 17.2421 3.9594 18.9377 5.88024C19.2119 6.19077 19.6858 6.22029 19.9963 5.94617C20.3069 5.67204 20.3364 5.19809 20.0623 4.88756C18.0938 2.6576 15.2114 1.25 12 1.25C6.06099 1.25 1.25 6.06099 1.25 12C1.25 13.3045 1.45947 14.4843 1.77737 15.5481C1.85843 15.8193 2.08529 16.0218 2.36396 16.0716C2.64262 16.1215 2.92559 16.0101 3.09562 15.7838L5.59965 12.4505C5.84844 12.1193 5.78164 11.6491 5.45046 11.4004C5.11929 11.1516 4.64913 11.2184 4.40035 11.5495L2.86951 13.5874C2.79302 13.0821 2.75 12.5535 2.75 12Z" fill="currentColor"/>
<path d="M21.25 12C21.25 17.1106 17.1106 21.25 12 21.25C9.23651 21.25 6.75788 20.0406 5.06227 18.1198C4.78815 17.8092 4.31419 17.7797 4.00366 18.0538C3.69313 18.328 3.66361 18.8019 3.93773 19.1124C5.90621 21.3424 8.78864 22.75 12 22.75C17.939 22.75 22.75 17.939 22.75 12C22.75 10.6955 22.5405 9.51564 22.2226 8.45189C22.1416 8.18067 21.9147 7.97818 21.636 7.92836C21.3574 7.87853 21.0744 7.98985 20.9044 8.21618L18.4003 11.5495C18.1516 11.8807 18.2184 12.3509 18.5495 12.5997C18.8807 12.8484 19.3509 12.7816 19.5997 12.4505L21.1305 10.4126C21.207 10.9179 21.25 11.4465 21.25 12Z" fill="currentColor"/>
</svg>
