<svg viewBox="0 0 24 24" fill="currentColor" xmlns="http://www.w3.org/2000/svg">
<path d="M3 6C1.89543 6 1 6.89543 1 8V16C1 17.1046 1.89543 18 3 18H21C22.1046 18 23 17.1046 23 16V8C23 6.89543 22.1046 6 21 6H3ZM3.80274 14C3.65347 14 3.53245 13.9686 3.43967 13.9059C3.34689 13.8396 3.27427 13.7381 3.22183 13.6017L2.04187 10.5975C1.97732 10.4315 1.98741 10.2914 2.07212 10.177C2.16087 10.059 2.31618 10 2.53806 10C2.68732 10 2.8043 10.0332 2.88902 10.0996C2.97374 10.1623 3.0403 10.2619 3.08871 10.3983L3.85318 12.4952L4.67409 10.3983C4.73057 10.2619 4.80117 10.1623 4.88588 10.0996C4.9706 10.0332 5.07952 10 5.21264 10C5.34576 10 5.45267 10.0332 5.53335 10.0996C5.61403 10.1623 5.68059 10.2637 5.73303 10.4039L6.52074 12.5453L7.32447 10.3983C7.37288 10.2619 7.43742 10.1623 7.51811 10.0996C7.60282 10.0332 7.71981 10 7.86907 10C8.05464 10 8.18978 10.059 8.27449 10.177C8.36324 10.2914 8.37333 10.4315 8.30475 10.5975L7.11268 13.6072C7.06024 13.74 6.98763 13.8396 6.89484 13.9059C6.80609 13.9686 6.68709 14 6.53783 14C6.38453 14 6.2615 13.9686 6.16871 13.9059C6.07996 13.8396 6.00937 13.7381 5.95692 13.6017L5.17866 11.6032L4.38364 13.6072C4.32716 13.74 4.25455 13.8396 4.1658 13.9059C4.07705 13.9686 3.95603 14 3.80274 14ZM10.6279 14C10.4787 14 10.3577 13.9686 10.2649 13.9059C10.1721 13.8396 10.0995 13.7381 10.047 13.6017L8.86707 10.5975C8.80253 10.4315 8.81261 10.2914 8.89733 10.177C8.98608 10.059 9.14139 10 9.36326 10C9.51252 10 9.62951 10.0332 9.71423 10.0996C9.79894 10.1623 9.8655 10.2619 9.91391 10.3983L10.6784 12.4952L11.4993 10.3983C11.5558 10.2619 11.6264 10.1623 11.7111 10.0996C11.7958 10.0332 11.9047 10 12.0378 10C12.171 10 12.2779 10.0332 12.3586 10.0996C12.4392 10.1623 12.5058 10.2637 12.5582 10.4039L13.3459 12.5453L14.1497 10.3983C14.1981 10.2619 14.2626 10.1623 14.3433 10.0996C14.428 10.0332 14.545 10 14.6943 10C14.8798 10 15.015 10.059 15.0997 10.177C15.1884 10.2914 15.1985 10.4315 15.13 10.5975L13.9379 13.6072C13.8854 13.74 13.8128 13.8396 13.72 13.9059C13.6313 13.9686 13.5123 14 13.363 14C13.2097 14 13.0867 13.9686 12.9939 13.9059C12.9052 13.8396 12.8346 13.7381 12.7821 13.6017L12.0039 11.6032L11.2088 13.6072C11.1524 13.74 11.0798 13.8396 10.991 13.9059C10.9023 13.9686 10.7812 14 10.6279 14ZM17.0901 13.9059C16.9973 13.8396 16.9247 13.7381 16.8722 13.6017L15.6923 10.5975C15.6277 10.4315 15.6378 10.2914 15.7225 10.177C15.8113 10.059 15.9666 10 16.1885 10C16.3377 10 16.4547 10.0332 16.5394 10.0996C16.6241 10.1623 16.6907 10.2619 16.7391 10.3983L17.5036 12.4952L18.3245 10.3983C18.381 10.2619 18.4516 10.1623 18.5363 10.0996C18.621 10.0332 18.7299 10 18.8631 10C18.9962 10 19.1031 10.0332 19.1838 10.0996C19.2644 10.1623 19.331 10.2637 19.3834 10.4039L20.1712 12.5453L20.9749 10.3983C21.0233 10.2619 21.0878 10.1623 21.1685 10.0996C21.2532 10.0332 21.3702 10 21.5195 10C21.705 10 21.8402 10.059 21.9249 10.177C22.0137 10.2914 22.0237 10.4315 21.9552 10.5975L20.7631 13.6072C20.7107 13.74 20.638 13.8396 20.5453 13.9059C20.4565 13.9686 20.3375 14 20.1882 14C20.0349 14 19.9119 13.9686 19.8191 13.9059C19.7304 13.8396 19.6598 13.7381 19.6073 13.6017L18.8291 11.6032L18.0341 13.6072C17.9776 13.74 17.905 13.8396 17.8162 13.9059C17.7275 13.9686 17.6064 14 17.4531 14C17.3039 14 17.1829 13.9686 17.0901 13.9059Z" fill="currentColor"/>
</svg>
