<svg viewBox="0 0 24 24" fill="currentColor" xmlns="http://www.w3.org/2000/svg">
<path d="M2 4C2 2.89543 2.89543 2 4 2H20C21.1046 2 22 2.89543 22 4V9.25H2V4ZM5.75 4.5C5.75 4.08579 5.41421 3.75 5 3.75C4.58579 3.75 4.25 4.08579 4.25 4.5V6.5C4.25 6.91421 4.58579 7.25 5 7.25C5.41421 7.25 5.75 6.91421 5.75 6.5V4.5ZM8.75 4.5C8.75 4.08579 8.41421 3.75 8 3.75C7.58579 3.75 7.25 4.08579 7.25 4.5V6.5C7.25 6.91421 7.58579 7.25 8 7.25C8.41421 7.25 8.75 6.91421 8.75 6.5V4.5ZM11.25 5.5C11.25 5.91421 11.5858 6.25 12 6.25H19C19.4142 6.25 19.75 5.91421 19.75 5.5C19.75 5.08579 19.4142 4.75 19 4.75H12C11.5858 4.75 11.25 5.08579 11.25 5.5Z" fill="currentColor"/>
<path d="M22 10.75V16C22 17.1046 21.1046 18 20 18H18.4236C18.4739 17.674 18.5 17.3401 18.5 17C18.5 14.0315 16.5101 11.5278 13.7914 10.75H22Z" fill="currentColor"/>
<path d="M10.2086 10.75C7.4899 11.5278 5.5 14.0315 5.5 17C5.5 17.3401 5.52611 17.674 5.57645 18H4C2.89543 18 2 17.1046 2 16V10.75H10.2086Z" fill="currentColor"/>
<path d="M12 22C9.23858 22 7 19.7614 7 17C7 14.2386 9.23858 12 12 12C14.7614 12 17 14.2386 17 17C17 19.7614 14.7614 22 12 22ZM12.75 14C12.75 13.5858 12.4142 13.25 12 13.25C11.5858 13.25 11.25 13.5858 11.25 14V18.1893L10.0303 16.9697C9.73744 16.6768 9.26256 16.6768 8.96967 16.9697C8.67678 17.2626 8.67678 17.7374 8.96967 18.0303L11.4697 20.5303C11.7626 20.8232 12.2374 20.8232 12.5303 20.5303L15.0303 18.0303C15.3232 17.7374 15.3232 17.2626 15.0303 16.9697C14.7374 16.6768 14.2626 16.6768 13.9697 16.9697L12.75 18.1893V14Z" fill="currentColor"/>
</svg>
