<svg viewBox="0 0 24 24" fill="currentColor" xmlns="http://www.w3.org/2000/svg">
<path d="M17.75 3C17.75 2.58579 17.4142 2.25 17 2.25C16.5858 2.25 16.25 2.58579 16.25 3V4H7.75V3C7.75 2.58579 7.41421 2.25 7 2.25C6.58579 2.25 6.25 2.58579 6.25 3V4H4C2.89543 4 2 4.89543 2 6V7.25H22V6C22 4.89543 21.1046 4 20 4H17.75V3Z" fill="currentColor"/>
<path d="M2 8.75H22V18C22 19.1046 21.1046 20 20 20H4C2.89543 20 2 19.1046 2 18V8.75ZM17.9051 13.7488L17.2393 12.1635C17.1477 11.9455 16.8523 11.9455 16.7607 12.1635L16.0949 13.7488C16.0569 13.8391 15.9755 13.901 15.8817 13.9109L14.2356 14.0839C14.0093 14.1076 13.918 14.4018 14.0877 14.5603L15.3223 15.713C15.3926 15.7787 15.4238 15.8789 15.4037 15.9753L15.0522 17.6675C15.0039 17.9002 15.2429 18.082 15.4394 17.9619L16.8683 17.0891C16.909 17.0642 16.9545 17.0518 17 17.0518C17.0455 17.0518 17.091 17.0642 17.1317 17.0891L18.5606 17.9619C18.7571 18.082 18.9961 17.9002 18.9478 17.6675L18.5963 15.9753C18.5762 15.8789 18.6074 15.7787 18.6777 15.713L19.9123 14.5603C20.082 14.4018 19.9907 14.1076 19.7644 14.0839L18.1183 13.9109C18.0245 13.901 17.9431 13.8391 17.9051 13.7488Z" fill="currentColor"/>
</svg>
