<svg viewBox="0 0 24 24" fill="currentColor" xmlns="http://www.w3.org/2000/svg">
<path d="M5 2H13.25V8C13.25 8.9665 14.0335 9.75 15 9.75H20.9992C20.9997 9.76904 21 9.78811 21 9.80721V20C21 21.1046 20.1046 22 19 22H5C3.89543 22 3 21.1046 3 20V4C3 2.89543 3.89543 2 5 2ZM14.2763 18.6286C14.7253 18.8762 15.2693 19 15.9084 19C16.1989 19 16.4894 18.9752 16.7799 18.9257C17.0704 18.8762 17.3398 18.8074 17.588 18.7194C17.7306 18.6699 17.8336 18.5873 17.897 18.4718C17.9657 18.3563 18 18.216 18 18.0509V16.227C18 16.0344 17.9498 15.8886 17.8495 15.7895C17.7544 15.685 17.6144 15.6327 17.4296 15.6327H16.257C16.0774 15.6327 15.9374 15.6795 15.8371 15.773C15.742 15.8611 15.6945 15.9904 15.6945 16.1609C15.6945 16.3315 15.742 16.4635 15.8371 16.5571C15.9374 16.6506 16.0774 16.6974 16.257 16.6974H16.8116V17.6157C16.7112 17.6408 16.6109 17.6621 16.5105 17.6795C16.3257 17.7125 16.154 17.729 15.9955 17.729C15.4779 17.729 15.0871 17.586 14.823 17.2999C14.5589 17.0138 14.4268 16.5901 14.4268 16.0289C14.4268 15.6547 14.4849 15.3384 14.6011 15.0798C14.7173 14.8212 14.8916 14.6259 15.124 14.4938C15.3617 14.3618 15.6575 14.2957 16.0114 14.2957C16.2174 14.2957 16.4128 14.3177 16.5977 14.3618C16.7825 14.4003 16.9542 14.458 17.1127 14.5351C17.2658 14.6066 17.4032 14.6259 17.5246 14.5928C17.6461 14.5543 17.7412 14.4828 17.8099 14.3783C17.8838 14.2682 17.9287 14.1499 17.9445 14.0234C17.9657 13.8913 17.9498 13.7675 17.897 13.652C17.8495 13.5309 17.757 13.4374 17.6197 13.3714C17.3556 13.2283 17.0862 13.132 16.8116 13.0825C16.5369 13.0275 16.2676 13 16.0035 13C15.5175 13 15.0818 13.0715 14.6962 13.2146C14.3159 13.3521 13.9937 13.5557 13.7296 13.8253C13.4655 14.0894 13.2622 14.4085 13.1196 14.7827C12.9823 15.1513 12.9136 15.5667 12.9136 16.0289C12.9136 16.6231 13.0298 17.1431 13.2622 17.5887C13.4946 18.0344 13.8326 18.381 14.2763 18.6286ZM11.317 18.9835C11.5599 18.9835 11.7422 18.9175 11.8636 18.7854C11.9851 18.6479 12.0459 18.4553 12.0459 18.2077V13.7923C12.0459 13.5392 11.9825 13.3466 11.8557 13.2146C11.7342 13.0825 11.5547 13.0165 11.317 13.0165C11.0846 13.0165 10.905 13.0825 10.7782 13.2146C10.6515 13.3466 10.5881 13.5392 10.5881 13.7923V18.2077C10.5881 18.4553 10.6515 18.6479 10.7782 18.7854C10.905 18.9175 11.0846 18.9835 11.317 18.9835ZM6.73682 18.9835C7.21746 18.9835 7.45779 18.7221 7.45779 18.1994V16.5983H9.22456C9.40942 16.5983 9.54939 16.5488 9.64447 16.4498C9.74482 16.3508 9.795 16.205 9.795 16.0124C9.795 15.8253 9.74482 15.6823 9.64447 15.5832C9.54939 15.4842 9.40942 15.4347 9.22456 15.4347H7.45779V14.2627H9.39886C9.58901 14.2627 9.73162 14.2132 9.82669 14.1142C9.92176 14.0096 9.9693 13.8611 9.9693 13.6685C9.9693 13.4814 9.92176 13.3384 9.82669 13.2393C9.73162 13.1403 9.58901 13.0908 9.39886 13.0908H6.76058C6.51234 13.0908 6.32219 13.1596 6.19015 13.2971C6.06338 13.4292 6 13.6217 6 13.8748V18.1994C6 18.4525 6.06338 18.6479 6.19015 18.7854C6.32219 18.9175 6.50442 18.9835 6.73682 18.9835Z" fill="currentColor"/>
<path d="M14.8399 2.61172L20.2768 8.24999H15C14.8619 8.24999 14.75 8.13806 14.75 7.99999V2.52417C14.7808 2.55232 14.8108 2.58151 14.8399 2.61172Z" fill="currentColor"/>
</svg>
