<svg viewBox="0 0 24 24" fill="currentColor" xmlns="http://www.w3.org/2000/svg">
<path d="M22 18C22 19.1046 21.1046 20 20 20H4C2.89543 20 2 19.1046 2 18V6C2 4.89543 2.89543 4 4 4H9.17157C9.70201 4 10.2107 4.21071 10.5858 4.58579L12.4142 6.41421C12.7893 6.78929 13.298 7 13.8284 7H20C21.1046 7 22 7.89543 22 9V18Z" fill="currentColor"/>
<path d="M19.75 5.5L19.2764 4.55279C19.107 4.214 18.7607 4 18.382 4H12.1213L13.4749 5.35355C13.5686 5.44732 13.6958 5.5 13.8284 5.5H19.75Z" fill="currentColor"/>
</svg>
