<svg viewBox="0 0 24 24" fill="currentColor" xmlns="http://www.w3.org/2000/svg">
<path d="M5 2H13.25V8C13.25 8.9665 14.0335 9.75 15 9.75H20.9992C20.9997 9.76904 21 9.78811 21 9.80721V20C21 21.1046 20.1046 22 19 22H11.1536C12.5873 20.8077 13.5 19.0104 13.5 17C13.5 13.4101 10.5899 10.5 7 10.5C5.49147 10.5 4.10297 11.0139 3 11.8762V4C3 2.89543 3.89543 2 5 2Z" fill="currentColor"/>
<path d="M14.8399 2.61172L20.2768 8.24999H15C14.8619 8.24999 14.75 8.13806 14.75 7.99999V2.52417C14.7808 2.55232 14.8108 2.58151 14.8399 2.61172Z" fill="currentColor"/>
<path d="M7 22C4.23858 22 2 19.7614 2 17C2 14.2386 4.23858 12 7 12C9.76142 12 12 14.2386 12 17C12 19.7614 9.76142 22 7 22ZM7.75 13.99C7.75 13.5758 7.41421 13.24 7 13.24C6.58579 13.24 6.25 13.5758 6.25 13.99V16.99C6.25 17.4042 6.58579 17.74 7 17.74C7.41421 17.74 7.75 17.4042 7.75 16.99V13.99ZM7.75 19.49C7.75 19.0758 7.41421 18.74 7 18.74C6.58579 18.74 6.25 19.0758 6.25 19.49V19.5C6.25 19.9142 6.58579 20.25 7 20.25C7.41421 20.25 7.75 19.9142 7.75 19.5V19.49Z" fill="currentColor"/>
</svg>
