<svg viewBox="0 0 24 24" fill="currentColor" xmlns="http://www.w3.org/2000/svg">
<path d="M22 18C22 19.1046 21.1046 20 20 20H4C2.89543 20 2 19.1046 2 18V6C2 4.89543 2.89543 4 4 4H9.17157C9.70201 4 10.2107 4.21071 10.5858 4.58579L12.4142 6.41421C12.7893 6.78929 13.298 7 13.8284 7H20C21.1046 7 22 7.89543 22 9V18ZM4.25 12C4.25 12.4142 4.58579 12.75 5 12.75H10C10.4142 12.75 10.75 12.4142 10.75 12C10.75 11.5858 10.4142 11.25 10 11.25H5C4.58579 11.25 4.25 11.5858 4.25 12ZM5 15.25C4.58579 15.25 4.25 15.5858 4.25 16C4.25 16.4142 4.58579 16.75 5 16.75H13C13.4142 16.75 13.75 16.4142 13.75 16C13.75 15.5858 13.4142 15.25 13 15.25H5Z" fill="currentColor"/>
</svg>
