<svg viewBox="0 0 24 24" fill="currentColor" xmlns="http://www.w3.org/2000/svg">
<path d="M11.5302 11.578C11.2136 11.6828 11 11.9768 11 12.3079V14.409C11 17.7429 13.0628 20.7348 16.1945 21.9431C16.391 22.019 16.609 22.019 16.8055 21.9431C19.9372 20.7348 22 17.7429 22 14.409V12.3079C22 11.9768 21.7864 11.6828 21.4698 11.578L16.8865 10.0622C16.6356 9.97927 16.3644 9.97927 16.1135 10.0622L11.5302 11.578Z" fill="currentColor"/>
<path d="M10.2024 18C9.74686 16.8811 9.5 15.6659 9.5 14.409V12.3079C9.5 11.3235 10.1343 10.4598 11.0592 10.1539L15.6425 8.63809C16.1992 8.45397 16.8008 8.45397 17.3575 8.63809L21.9408 10.1539C21.9607 10.1605 21.9804 10.1673 22 10.1744V7C22 5.89543 21.1046 5 20 5H13.8284C13.298 5 12.7893 4.78929 12.4142 4.41421L10.5858 2.58579C10.2107 2.21071 9.70201 2 9.17157 2H4C2.89543 2 2 2.89543 2 4V16C2 17.1046 2.89543 18 4 18H10.2024Z" fill="currentColor"/>
</svg>
