<svg viewBox="0 0 24 24" fill="currentColor" xmlns="http://www.w3.org/2000/svg">
<path d="M5 2H13.25V8C13.25 8.9665 14.0335 9.75 15 9.75H20.9992C20.9997 9.76904 21 9.78811 21 9.80721V20C21 21.1046 20.1046 22 19 22H5C3.89543 22 3 21.1046 3 20V4C3 2.89543 3.89543 2 5 2ZM13.9228 11.4623C13.6258 11.1735 13.151 11.1802 12.8623 11.4772C12.5735 11.7742 12.5802 12.249 12.8772 12.5377L15.1527 14.75H7C6.58579 14.75 6.25 15.0858 6.25 15.5C6.25 15.9142 6.58579 16.25 7 16.25H15.1527L12.8772 18.4623C12.5802 18.751 12.5735 19.2258 12.8623 19.5228C13.151 19.8198 13.6258 19.8265 13.9228 19.5377L17.5228 16.0377C17.6681 15.8965 17.75 15.7026 17.75 15.5C17.75 15.2974 17.6681 15.1035 17.5228 14.9623L13.9228 11.4623Z" fill="currentColor"/>
<path d="M14.8399 2.61172L20.2768 8.24999H15C14.8619 8.24999 14.75 8.13806 14.75 7.99999V2.52417C14.7808 2.55232 14.8108 2.58151 14.8399 2.61172Z" fill="currentColor"/>
</svg>
