<svg viewBox="0 0 24 24" fill="currentColor" xmlns="http://www.w3.org/2000/svg">
<path d="M8.76962 18C8.59388 17.3633 8.5 16.6926 8.5 16C8.5 11.8579 11.8579 8.5 16 8.5C18.4534 8.5 20.6317 9.67801 22 11.4993V7C22 5.89543 21.1046 5 20 5H13.8284C13.298 5 12.7893 4.78929 12.4142 4.41421L10.5858 2.58579C10.2107 2.21071 9.70201 2 9.17157 2H4C2.89543 2 2 2.89543 2 4V16C2 17.1046 2.89543 18 4 18H8.76962Z" fill="currentColor"/>
<path d="M16 22C12.6863 22 10 19.3137 10 16C10 12.6863 12.6863 10 16 10C19.3137 10 22 12.6863 22 16C22 19.3137 19.3137 22 16 22ZM16.75 12C16.75 11.5858 16.4142 11.25 16 11.25C15.5858 11.25 15.25 11.5858 15.25 12V18.1893L13.5303 16.4697C13.2374 16.1768 12.7626 16.1768 12.4697 16.4697C12.1768 16.7626 12.1768 17.2374 12.4697 17.5303L15.4697 20.5303C15.7626 20.8232 16.2374 20.8232 16.5303 20.5303L19.5303 17.5303C19.8232 17.2374 19.8232 16.7626 19.5303 16.4697C19.2374 16.1768 18.7626 16.1768 18.4697 16.4697L16.75 18.1893V12Z" fill="currentColor"/>
</svg>
