<svg viewBox="0 0 24 24" fill="currentColor" xmlns="http://www.w3.org/2000/svg">
<path d="M12 2.25C12.4142 2.25 12.75 2.58579 12.75 3V4.25H17.5L21.2764 2.3618C21.6088 2.19558 22 2.43733 22 2.80902V7.19098C22 7.56267 21.6088 7.80442 21.2764 7.6382L17.5 5.75H12.75V7H13C15.2091 7 17 8.79086 17 11V12.25H7V11C7 8.79086 8.79086 7 11 7H11.25V5.75H9C6.65279 5.75 4.75 7.65279 4.75 10C4.75 10.4142 4.41421 10.75 4 10.75C3.58579 10.75 3.25 10.4142 3.25 10C3.25 6.82436 5.82436 4.25 9 4.25H11.25V3C11.25 2.58579 11.5858 2.25 12 2.25Z" fill="currentColor"/>
<path d="M7 13.75V17.25H17V13.75H7Z" fill="currentColor"/>
<path d="M17 18.75H7V21C7 21.5523 7.44772 22 8 22H16C16.5523 22 17 21.5523 17 21V18.75Z" fill="currentColor"/>
</svg>
