<svg viewBox="0 0 24 24" fill="currentColor" xmlns="http://www.w3.org/2000/svg">
<path d="M18 16C19.1046 16 20 15.1046 20 14V6.625C20 5.52043 19.1046 4.625 18 4.625H13.6813C13.1198 4.625 12.5842 4.38895 12.2053 3.97454L10.9947 2.65046C10.6158 2.23605 10.0802 2 9.51865 2H6C4.89543 2 4 2.89543 4 4V14C4 15.1046 4.89543 16 6 16H11.25V18.1454C10.7487 18.3483 10.3483 18.7486 10.1454 19.25H2C1.58579 19.25 1.25 19.5858 1.25 20C1.25 20.4142 1.58579 20.75 2 20.75H10.1454C10.4421 21.483 11.1607 22 12 22C12.8393 22 13.5579 21.483 13.8546 20.75H22C22.4142 20.75 22.75 20.4142 22.75 20C22.75 19.5858 22.4142 19.25 22 19.25H13.8546C13.6517 18.7486 13.2513 18.3483 12.75 18.1454V16H18Z" fill="currentColor"/>
</svg>
