<svg viewBox="0 0 24 24" fill="currentColor" xmlns="http://www.w3.org/2000/svg">
<path d="M12 1.25C12.4142 1.25 12.75 1.58579 12.75 2V6H16.5751C18.2096 6 19.0268 6 19.5883 6.4808C20.1499 6.9616 20.2757 7.76908 20.5274 9.38406L21.6173 16.3776C21.8331 17.7625 20.9446 19.0796 19.5797 19.3981C18.1504 19.7316 16.719 18.8526 16.3699 17.4271L16.1655 16.5925C16.0683 16.1957 15.7127 15.9167 15.3042 15.9167H8.69576C8.28729 15.9167 7.93167 16.1957 7.83451 16.5925L7.63011 17.4271C7.281 18.8526 5.84959 19.7316 4.42033 19.3981C3.05538 19.0796 2.16688 17.7625 2.38271 16.3776L3.47262 9.38406C3.7243 7.76908 3.85015 6.9616 4.41168 6.4808C4.97321 6 5.79045 6 7.42491 6H11.25V2C11.25 1.58579 11.5858 1.25 12 1.25ZM15 10.5C15.5523 10.5 16 10.0523 16 9.5C16 8.94771 15.5523 8.5 15 8.5C14.4477 8.5 14 8.94771 14 9.5C14 10.0523 14.4477 10.5 15 10.5ZM17 13C17.5523 13 18 12.5523 18 12C18 11.4477 17.5523 11 17 11C16.4477 11 16 11.4477 16 12C16 12.5523 16.4477 13 17 13ZM8.5 8.75C8.08579 8.75 7.75 9.08579 7.75 9.5V10.25H7C6.58579 10.25 6.25 10.5858 6.25 11C6.25 11.4142 6.58579 11.75 7 11.75H7.75V12.5C7.75 12.9142 8.08579 13.25 8.5 13.25C8.91421 13.25 9.25 12.9142 9.25 12.5V11.75H10C10.4142 11.75 10.75 11.4142 10.75 11C10.75 10.5858 10.4142 10.25 10 10.25H9.25V9.5C9.25 9.08579 8.91421 8.75 8.5 8.75Z" fill="currentColor"/>
</svg>
