<svg viewBox="0 0 24 24" fill="currentColor" xmlns="http://www.w3.org/2000/svg">
<path d="M20 11C20 10.4477 20.4477 10 21 10C21.5523 10 22 10.4477 22 11V13C22 13.5523 21.5523 14 21 14C20.4477 14 20 13.5523 20 13V11Z" fill="currentColor"/>
<path d="M4 6H17C18.1046 6 19 6.89543 19 8V16C19 17.1046 18.1046 18 17 18H4C2.89543 18 2 17.1046 2 16V8C2 6.89543 2.89543 6 4 6ZM6.25 9C6.25 8.58579 5.91421 8.25 5.5 8.25C5.08579 8.25 4.75 8.58579 4.75 9V15C4.75 15.4142 5.08579 15.75 5.5 15.75C5.91421 15.75 6.25 15.4142 6.25 15V9ZM11.25 9C11.25 8.58579 10.9142 8.25 10.5 8.25C10.0858 8.25 9.75 8.58579 9.75 9V15C9.75 15.4142 10.0858 15.75 10.5 15.75C10.9142 15.75 11.25 15.4142 11.25 15V9Z" fill="currentColor"/>
</svg>
