<svg viewBox="0 0 24 24" fill="currentColor" xmlns="http://www.w3.org/2000/svg">
<path d="M12.75 2C12.75 1.58579 12.4142 1.25 12 1.25C11.5858 1.25 11.25 1.58579 11.25 2V4H4C2.89543 4 2 4.89543 2 6V6.25H22V6C22 4.89543 21.1046 4 20 4H12.75V2Z" fill="currentColor"/>
<path d="M2 20V7.75H22V20C22 21.1046 21.1046 22 20 22H4C2.89543 22 2 21.1046 2 20ZM10 12C10 10.8954 9.10457 10 8 10C6.89543 10 6 10.8954 6 12C6 13.1046 6.89543 14 8 14C9.10457 14 10 13.1046 10 12ZM5 20H11C11.5523 20 12 19.5523 12 19C12 16.7909 10.2091 15 8 15C5.79086 15 4 16.7909 4 19C4 19.5523 4.44772 20 5 20ZM14 12.25C13.5858 12.25 13.25 12.5858 13.25 13C13.25 13.4142 13.5858 13.75 14 13.75H18C18.4142 13.75 18.75 13.4142 18.75 13C18.75 12.5858 18.4142 12.25 18 12.25H14ZM14 15.25C13.5858 15.25 13.25 15.5858 13.25 16C13.25 16.4142 13.5858 16.75 14 16.75H19C19.4142 16.75 19.75 16.4142 19.75 16C19.75 15.5858 19.4142 15.25 19 15.25H14Z" fill="currentColor"/>
</svg>
