<svg viewBox="0 0 24 24" fill="currentColor" xmlns="http://www.w3.org/2000/svg">
<path d="M12 22C6.47715 22 2 17.5228 2 12C2 6.47715 6.47715 2 12 2C17.5228 2 22 6.47715 22 12C22 17.5228 17.5228 22 12 22ZM12 7.5C12.8284 7.5 13.5 6.82843 13.5 6C13.5 5.17157 12.8284 4.5 12 4.5C11.1716 4.5 10.5 5.17157 10.5 6C10.5 6.82843 11.1716 7.5 12 7.5ZM12 9.5C11.1716 9.5 10.5 10.1716 10.5 11V18C10.5 18.8284 11.1716 19.5 12 19.5C12.8284 19.5 13.5 18.8284 13.5 18V11C13.5 10.1716 12.8284 9.5 12 9.5Z" fill="currentColor"/>
</svg>
