<svg viewBox="0 0 24 24" fill="currentColor" xmlns="http://www.w3.org/2000/svg">
<path d="M7.34569 4.43196C7.76529 4.61179 8.25007 4.76908 8.7865 4.89641C8.90381 4.48861 9.03865 4.10628 9.18932 3.75472C9.43192 3.18865 9.72555 2.67895 10.0722 2.2688C8.83871 2.6214 7.74449 3.30389 6.89102 4.21472C7.02983 4.28885 7.18137 4.36154 7.34569 4.43196Z" fill="currentColor"/>
<path d="M6.75481 5.81064C7.26398 6.02885 7.83766 6.21387 8.45983 6.3605C8.32329 7.18705 8.25 8.07716 8.25 8.99987C8.25 9.92265 8.3233 10.8129 8.45986 11.6395C7.83768 11.7861 7.26398 11.9711 6.75481 12.1893C6.48215 12.3062 6.22256 12.4349 5.98087 12.5756C5.35785 11.5291 5 10.3063 5 8.99994C5 7.69359 5.35784 6.47083 5.98085 5.42432C6.22254 5.56508 6.48214 5.69378 6.75481 5.81064Z" fill="currentColor"/>
<path d="M19 8.99994C19 10.3063 18.6421 11.5291 18.0191 12.5756C17.7774 12.4349 17.5179 12.3062 17.2452 12.1893C16.736 11.9711 16.1623 11.7861 15.5401 11.6395C15.6767 10.8129 15.75 9.92265 15.75 8.99987C15.75 8.07716 15.6767 7.18706 15.5402 6.3605C16.1623 6.21387 16.736 6.02885 17.2452 5.81064C17.5179 5.69378 17.7775 5.56508 18.0191 5.42432C18.6422 6.47083 19 7.69359 19 8.99994Z" fill="currentColor"/>
<path d="M15.2135 13.1036C15.7499 13.2309 16.2347 13.3882 16.6543 13.568C16.8186 13.6385 16.9701 13.7111 17.1089 13.7853C16.2555 14.6961 15.1612 15.3786 13.9277 15.7312C14.2744 15.321 14.568 14.8112 14.8107 14.2451C14.9613 13.8936 15.0962 13.5113 15.2135 13.1036Z" fill="currentColor"/>
<path d="M14.25 8.99997C14.25 9.84466 14.1829 10.6456 14.0633 11.3764C13.4044 11.2937 12.7119 11.2501 12 11.2501C11.2881 11.2501 10.5956 11.2937 9.93672 11.3764C9.81707 10.6456 9.75 9.84466 9.75 8.99997C9.75 8.15534 9.81706 7.35447 9.9367 6.62378C10.5956 6.70643 11.2881 6.75006 12 6.75006C12.7119 6.75006 13.4044 6.70643 14.0633 6.62378C14.1829 7.35447 14.25 8.15534 14.25 8.99997Z" fill="currentColor"/>
<path d="M10.2749 12.8464C10.8215 12.7839 11.3997 12.75 12 12.75C12.6003 12.75 13.1785 12.7839 13.7251 12.8464C13.6363 13.1365 13.538 13.4067 13.432 13.6542C13.2115 14.1687 12.9688 14.5579 12.7291 14.8236C12.7428 14.8801 12.75 14.9392 12.75 15V18.1453C13.2513 18.3483 13.6517 18.7486 13.8546 19.25H22C22.4142 19.25 22.75 19.5858 22.75 20C22.75 20.4142 22.4142 20.75 22 20.75H13.8546C13.5579 21.4829 12.8393 22 12 22C11.1607 22 10.4421 21.4829 10.1454 20.75H2C1.58579 20.75 1.25 20.4142 1.25 20C1.25 19.5858 1.58579 19.25 2 19.25H10.1454C10.3483 18.7486 10.7487 18.3483 11.25 18.1453V15C11.25 14.9392 11.2572 14.8801 11.2709 14.8236C11.0312 14.5579 10.7885 14.1687 10.568 13.6542C10.462 13.4067 10.3637 13.1365 10.2749 12.8464Z" fill="currentColor"/>
<path d="M9.18932 14.2451C9.03867 13.8936 8.90385 13.5113 8.78655 13.1036C8.2501 13.2309 7.7653 13.3882 7.34569 13.568C7.18138 13.6385 7.02986 13.7111 6.89105 13.7853C7.74455 14.6961 8.83882 15.3786 10.0723 15.7312C9.72563 15.321 9.43196 14.8112 9.18932 14.2451Z" fill="currentColor"/>
<path d="M12 5.24997C12.6003 5.24997 13.1786 5.21609 13.7252 5.15354C13.6363 4.86338 13.5381 4.59313 13.432 4.34557C13.1843 3.76778 12.9087 3.34811 12.6409 3.08378C12.3763 2.82264 12.1606 2.74988 12 2.74988C11.8394 2.74988 11.6237 2.82264 11.3591 3.08378C11.0913 3.34811 10.8157 3.76778 10.568 4.34557C10.4619 4.59313 10.3637 4.86338 10.2748 5.15354C10.8214 5.21609 11.3997 5.24997 12 5.24997Z" fill="currentColor"/>
<path d="M17.109 4.21472C16.9702 4.28885 16.8186 4.36154 16.6543 4.43196C16.2347 4.61179 15.7499 4.76908 15.2135 4.89641C15.0962 4.48861 14.9613 4.10628 14.8107 3.75472C14.5681 3.18865 14.2745 2.67895 13.9278 2.2688C15.1613 2.6214 16.2555 3.30389 17.109 4.21472Z" fill="currentColor"/>
</svg>
