<svg viewBox="0 0 24 24" fill="currentColor" xmlns="http://www.w3.org/2000/svg">
<path d="M5 5C5 3.34315 6.34315 2 8 2H16C17.6569 2 19 3.34315 19 5V19C19 20.6569 17.6569 22 16 22H8C6.34315 22 5 20.6569 5 19V5ZM7.25677 10.0916C7.57856 10.3689 8.07793 10.3478 8.37213 10.0445C10.3845 7.96967 13.6155 7.96967 15.6279 10.0445C15.9221 10.3478 16.4214 10.3689 16.7432 10.0916C17.065 9.81426 17.0874 9.34354 16.7932 9.04021C14.1548 6.31993 9.84523 6.31993 7.20682 9.04021C6.91261 9.34354 6.93498 9.81426 7.25677 10.0916ZM9.36205 12.2624C9.68384 12.5398 10.1832 12.5187 10.4774 12.2154C11.3271 11.3393 12.6729 11.3393 13.5226 12.2154C13.8168 12.5187 14.3162 12.5398 14.638 12.2624C14.9598 11.9851 14.9821 11.5144 14.6879 11.2111C13.2122 9.68956 10.7878 9.68956 9.3121 11.2111C9.01789 11.5144 9.04026 11.9851 9.36205 12.2624ZM12 13.0155C11.4186 13.0155 10.9474 13.4597 10.9474 14.0077C10.9474 14.5558 11.4186 15 12 15H12.0095C12.5908 15 13.0621 14.5558 13.0621 14.0077C13.0621 13.4597 12.5908 13.0155 12.0095 13.0155H12ZM9 18.25C8.58579 18.25 8.25 18.5858 8.25 19C8.25 19.4142 8.58579 19.75 9 19.75H15C15.4142 19.75 15.75 19.4142 15.75 19C15.75 18.5858 15.4142 18.25 15 18.25H9Z" fill="currentColor"/>
</svg>
