<svg viewBox="0 0 24 24" fill="currentColor" xmlns="http://www.w3.org/2000/svg">
<path d="M3.5724 5.39414C5.24163 3.75776 7.52606 2.75 10.0474 2.75C12.5687 2.75 14.8531 3.75776 16.5223 5.39414C16.8181 5.68411 17.293 5.67939 17.5829 5.3836C17.8729 5.08781 17.8682 4.61296 17.5724 4.32299C15.6341 2.42288 12.977 1.25 10.0474 1.25C7.11776 1.25 4.46059 2.42288 2.52233 4.32299C2.22654 4.61296 2.22182 5.08781 2.51179 5.3836C2.80176 5.67939 3.27661 5.68411 3.5724 5.39414Z" fill="currentColor"/>
<path d="M6.92291 6.58568C7.84144 6.05434 8.90772 5.75 10.0474 5.75C11.187 5.75 12.2533 6.05434 13.1718 6.58568C13.5304 6.79309 13.9892 6.67057 14.1966 6.31202C14.404 5.95347 14.2815 5.49468 13.9229 5.28727C12.7822 4.62742 11.4577 4.25 10.0474 4.25C8.637 4.25 7.3125 4.62742 6.17182 5.28727C5.81327 5.49468 5.69075 5.95347 5.89816 6.31202C6.10557 6.67057 6.56436 6.79309 6.92291 6.58568Z" fill="currentColor"/>
<path d="M6.92291 17.4144C6.56436 17.207 6.10557 17.3295 5.89816 17.6881C5.69075 18.0466 5.81327 18.5054 6.17182 18.7128C7.3125 19.3727 8.637 19.7501 10.0474 19.7501C11.4577 19.7501 12.7822 19.3727 13.9229 18.7128C14.2815 18.5054 14.404 18.0466 14.1966 17.6881C13.9892 17.3295 13.5304 17.207 13.1718 17.4144C12.2533 17.9458 11.187 18.2501 10.0474 18.2501C8.90772 18.2501 7.84144 17.9458 6.92291 17.4144Z" fill="currentColor"/>
<path d="M18.5961 18.5187C18.8475 18.1895 18.7844 17.7188 18.4552 17.4674C18.126 17.2161 17.6553 17.2791 17.4039 17.6083C17.1341 17.9617 16.8393 18.2951 16.5223 18.6059C14.8531 20.2422 12.5687 21.25 10.0474 21.25C7.52606 21.25 5.24163 20.2422 3.5724 18.6059C3.27661 18.3159 2.80176 18.3206 2.51179 18.6164C2.22182 18.9122 2.22654 19.387 2.52233 19.677C4.46059 21.5771 7.11776 22.75 10.0474 22.75C12.977 22.75 15.6341 21.5771 17.5724 19.677C17.9405 19.3162 18.2827 18.9291 18.5961 18.5187Z" fill="currentColor"/>
<path d="M10.2286 16C9.40689 16 8.68592 15.8345 8.06564 15.5034C7.45342 15.1724 6.97814 14.709 6.63981 14.1131C6.30147 13.5099 6.13231 12.8037 6.13231 11.9945C6.13231 11.3839 6.22897 10.8359 6.42231 10.3503C6.61564 9.85747 6.88953 9.43816 7.24397 9.09241C7.60647 8.73931 8.03745 8.4708 8.53689 8.2869C9.04439 8.09563 9.60828 8 10.2286 8C11.0583 8 11.7793 8.16552 12.3915 8.49655C13.0037 8.82023 13.479 9.28 13.8173 9.87586C14.1556 10.4717 14.3248 11.1743 14.3248 11.9834C14.3248 12.594 14.2281 13.1457 14.0348 13.6386C13.8415 14.1315 13.5636 14.5545 13.2011 14.9076C12.8466 15.2607 12.4156 15.5329 11.9081 15.7241C11.4087 15.908 10.8488 16 10.2286 16ZM10.2286 14.7862C10.7522 14.7862 11.1952 14.6759 11.5577 14.4552C11.9283 14.2345 12.2102 13.9145 12.4036 13.4952C12.6049 13.0759 12.7056 12.5756 12.7056 11.9945C12.7056 11.1117 12.4881 10.4276 12.0531 9.94207C11.6262 9.45655 11.018 9.21379 10.2286 9.21379C9.713 9.21379 9.26995 9.32414 8.89939 9.54483C8.52883 9.75816 8.24286 10.0745 8.04147 10.4938C7.84814 10.9057 7.75147 11.406 7.75147 11.9945C7.75147 12.8699 7.96897 13.554 8.40397 14.0469C8.83897 14.5398 9.44717 14.7862 10.2286 14.7862Z" fill="currentColor"/>
<path d="M3.77331 15.9778C3.52359 15.9778 3.33025 15.9153 3.19331 15.7902C3.06442 15.6578 2.99998 15.4776 2.99998 15.2496V8.75024C2.99998 8.51484 3.06442 8.33461 3.19331 8.20956C3.33025 8.0845 3.52359 8.02197 3.77331 8.02197C4.02303 8.02197 4.21234 8.0845 4.34123 8.20956C4.47817 8.33461 4.54664 8.51484 4.54664 8.75024V15.2496C4.54664 15.4776 4.4822 15.6578 4.35331 15.7902C4.22442 15.9153 4.03109 15.9778 3.77331 15.9778Z" fill="currentColor"/>
<path d="M17.6258 15.7903C17.7628 15.9154 17.9561 15.9779 18.2058 15.9779C18.4636 15.9779 18.6569 15.9154 18.7858 15.7903C18.9147 15.6579 18.9792 15.4777 18.9792 15.2497V9.29104H21.3354C21.5448 9.29104 21.706 9.23955 21.8187 9.13656C21.9396 9.02622 22 8.87909 22 8.69518C22 8.50392 21.9396 8.36047 21.8187 8.26484C21.706 8.16185 21.5448 8.11035 21.3354 8.11035H15.0762C14.8668 8.11035 14.7017 8.16185 14.5808 8.26484C14.468 8.36047 14.4117 8.50392 14.4117 8.69518C14.4117 8.87909 14.468 9.02622 14.5808 9.13656C14.7017 9.23955 14.8668 9.29104 15.0762 9.29104H17.4325V15.2497C17.4325 15.4777 17.4969 15.6579 17.6258 15.7903Z" fill="currentColor"/>
</svg>
