<svg viewBox="0 0 24 24" fill="currentColor" xmlns="http://www.w3.org/2000/svg">
<path d="M10.4336 16.2834H11.2691C11.5046 16.2834 11.6858 16.2329 11.8126 16.132C11.9394 16.0266 12.0028 15.8707 12.0028 15.6644C12.0028 15.4535 11.9394 15.2976 11.8126 15.1967C11.6858 15.0958 11.5046 15.0454 11.2691 15.0454H10.4336V16.2834Z" fill="currentColor"/>
<path d="M5 2H13.25V8C13.25 8.9665 14.0335 9.75 15 9.75H20.9992C20.9997 9.76904 21 9.78811 21 9.80721V20C21 21.1046 20.1046 22 19 22H5C3.89543 22 3 21.1046 3 20V4C3 2.89543 3.89543 2 5 2ZM14.8072 18.6905C15.1922 18.8968 15.6586 19 16.2066 19C16.4557 19 16.7048 18.9794 16.9538 18.9381C17.2029 18.8968 17.4339 18.8395 17.6468 18.7662C17.769 18.7249 17.8573 18.6561 17.9117 18.5598C17.9706 18.4635 18 18.3466 18 18.2091V16.6891C18 16.5287 17.957 16.4072 17.8709 16.3246C17.7894 16.2375 17.6694 16.1939 17.5109 16.1939H16.5055C16.3515 16.1939 16.2315 16.2329 16.1455 16.3109C16.0639 16.3842 16.0232 16.492 16.0232 16.6341C16.0232 16.7762 16.0639 16.8863 16.1455 16.9642C16.2315 17.0422 16.3515 17.0812 16.5055 17.0812H16.981V17.8465C16.895 17.8674 16.8089 17.8851 16.7229 17.8996C16.5644 17.9271 16.4172 17.9409 16.2813 17.9409C15.8375 17.9409 15.5024 17.8216 15.2759 17.5832C15.0495 17.3448 14.9363 16.9917 14.9363 16.5241C14.9363 16.2123 14.9861 15.9486 15.0857 15.7331C15.1854 15.5177 15.3348 15.3549 15.5341 15.2448C15.7379 15.1348 15.9915 15.0798 16.2949 15.0798C16.4715 15.0798 16.6391 15.0981 16.7976 15.1348C16.9561 15.1669 17.1033 15.215 17.2392 15.2792C17.3705 15.3388 17.4882 15.3549 17.5924 15.3274C17.6966 15.2953 17.7781 15.2357 17.837 15.1486C17.9004 15.0569 17.9389 14.9583 17.9524 14.8528C17.9706 14.7428 17.957 14.6396 17.9117 14.5433C17.8709 14.4425 17.7917 14.3645 17.6739 14.3095C17.4475 14.1903 17.2165 14.11 16.981 14.0688C16.7455 14.0229 16.5146 14 16.2881 14C15.8715 14 15.4978 14.0596 15.1672 14.1788C14.8412 14.2934 14.5649 14.4631 14.3385 14.6878C14.112 14.9078 13.9377 15.1738 13.8154 15.4856C13.6976 15.7928 13.6388 16.1389 13.6388 16.5241C13.6388 17.0193 13.7384 17.4525 13.9377 17.8239C14.1369 18.1953 14.4268 18.4842 14.8072 18.6905ZM6.56383 18.9794L6.80839 18.9656C7.14352 18.9473 7.42204 18.8808 7.64395 18.7662C7.87039 18.647 8.04022 18.4796 8.15344 18.2641C8.26666 18.044 8.32327 17.7758 8.32327 17.4594V14.6534C8.32327 14.4425 8.26892 14.2843 8.16023 14.1788C8.05154 14.0688 7.89756 14.0138 7.6983 14.0138C7.49903 14.0138 7.34505 14.0688 7.23636 14.1788C7.12767 14.2843 7.07332 14.4425 7.07332 14.6534V17.4801C7.07332 17.6451 7.03483 17.7643 6.95784 17.8377C6.88085 17.9065 6.76084 17.9454 6.5978 17.9546L6.40759 17.9684C6.27173 17.9775 6.16983 18.028 6.1019 18.1197C6.03397 18.2114 6 18.3191 6 18.4429C6 18.6034 6.04755 18.7364 6.14266 18.8418C6.24229 18.9427 6.38268 18.9885 6.56383 18.9794ZM9.80859 18.9862C10.0169 18.9862 10.1732 18.9312 10.2773 18.8212C10.3815 18.7066 10.4336 18.5484 10.4336 18.3466V17.2531H11.4865C12.03 17.2531 12.4489 17.1133 12.7432 16.8336C13.0421 16.5493 13.1916 16.1596 13.1916 15.6644C13.1916 15.1692 13.0421 14.7818 12.7432 14.5021C12.4489 14.2178 12.03 14.0757 11.4865 14.0757H9.81538C9.61611 14.0757 9.45987 14.1307 9.34665 14.2407C9.23796 14.3508 9.18361 14.5089 9.18361 14.7153V18.3466C9.18361 18.5484 9.23796 18.7066 9.34665 18.8212C9.45534 18.9312 9.60932 18.9862 9.80859 18.9862Z" fill="currentColor"/>
<path d="M14.8399 2.61172L20.2768 8.24999H15C14.8619 8.24999 14.75 8.13806 14.75 7.99999V2.52417C14.7808 2.55232 14.8108 2.58151 14.8399 2.61172Z" fill="currentColor"/>
</svg>
