<svg viewBox="0 0 24 24" fill="currentColor" xmlns="http://www.w3.org/2000/svg">
<path d="M2 7C2 5.89543 2.89543 5 4 5H20C21.1046 5 22 5.89543 22 7V17C22 18.1046 21.1046 19 20 19H4C2.89543 19 2 18.1046 2 17V7ZM7 9C7 8.44771 6.55228 8 6 8C5.44772 8 5 8.44771 5 9C5 9.55229 5.44772 10 6 10C6.55228 10 7 9.55229 7 9ZM7 12C7 11.4477 6.55228 11 6 11C5.44772 11 5 11.4477 5 12C5 12.5523 5.44772 13 6 13C6.55228 13 7 12.5523 7 12ZM9 13C9.55229 13 10 12.5523 10 12C10 11.4477 9.55229 11 9 11C8.44771 11 8 11.4477 8 12C8 12.5523 8.44771 13 9 13ZM10 9C10 8.44771 9.55229 8 9 8C8.44771 8 8 8.44771 8 9C8 9.55229 8.44771 10 9 10C9.55229 10 10 9.55229 10 9ZM12 10C12.5523 10 13 9.55229 13 9C13 8.44771 12.5523 8 12 8C11.4477 8 11 8.44771 11 9C11 9.55229 11.4477 10 12 10ZM13 12C13 11.4477 12.5523 11 12 11C11.4477 11 11 11.4477 11 12C11 12.5523 11.4477 13 12 13C12.5523 13 13 12.5523 13 12ZM15 10C15.5523 10 16 9.55229 16 9C16 8.44771 15.5523 8 15 8C14.4477 8 14 8.44771 14 9C14 9.55229 14.4477 10 15 10ZM16 12C16 11.4477 15.5523 11 15 11C14.4477 11 14 11.4477 14 12C14 12.5523 14.4477 13 15 13C15.5523 13 16 12.5523 16 12ZM18 10C18.5523 10 19 9.55229 19 9C19 8.44771 18.5523 8 18 8C17.4477 8 17 8.44771 17 9C17 9.55229 17.4477 10 18 10ZM19 12C19 11.4477 18.5523 11 18 11C17.4477 11 17 11.4477 17 12C17 12.5523 17.4477 13 18 13C18.5523 13 19 12.5523 19 12ZM8 15.25C7.58579 15.25 7.25 15.5858 7.25 16C7.25 16.4142 7.58579 16.75 8 16.75H16C16.4142 16.75 16.75 16.4142 16.75 16C16.75 15.5858 16.4142 15.25 16 15.25H8Z" fill="currentColor"/>
</svg>
