<svg viewBox="0 0 24 24" fill="currentColor" xmlns="http://www.w3.org/2000/svg">
<path d="M4 6C4 4.89543 4.89543 4 6 4H18C19.1046 4 20 4.89543 20 6V15C20 15.1821 19.9513 15.3529 19.8662 15.5H4.13378C4.0487 15.3529 4 15.1821 4 15V6ZM11 6.25C10.5858 6.25 10.25 6.58579 10.25 7C10.25 7.41421 10.5858 7.75 11 7.75H13C13.4142 7.75 13.75 7.41421 13.75 7C13.75 6.58579 13.4142 6.25 13 6.25H11Z" fill="currentColor"/>
<path d="M3 17C2.44772 17 2 17.4477 2 18C2 19.1046 2.89543 20 4 20H20C21.1046 20 22 19.1046 22 18C22 17.4477 21.5523 17 21 17H3Z" fill="currentColor"/>
</svg>
