<svg viewBox="0 0 24 24" fill="currentColor" xmlns="http://www.w3.org/2000/svg">
<path d="M15 10C14.4477 10 14 10.4477 14 11V20C14 20.5523 14.4477 21 15 21H21C21.5523 21 22 20.5523 22 20V11C22 10.4477 21.5523 10 21 10H15ZM17 18.25H19C19.4142 18.25 19.75 18.5858 19.75 19C19.75 19.4142 19.4142 19.75 19 19.75H17C16.5858 19.75 16.25 19.4142 16.25 19C16.25 18.5858 16.5858 18.25 17 18.25Z" fill="currentColor"/>
<path d="M3 6C3 4.89543 3.89543 4 5 4H19C20.1046 4 21 4.89543 21 6V8.5H15C13.6193 8.5 12.5 9.61929 12.5 11V18H4C3.44772 18 3 17.5523 3 17V6Z" fill="currentColor"/>
<path d="M12.5 19.25H2C1.58579 19.25 1.25 19.5858 1.25 20C1.25 20.4142 1.58579 20.75 2 20.75H12.6145C12.5401 20.5132 12.5 20.2613 12.5 20V19.25Z" fill="currentColor"/>
</svg>
