<svg viewBox="0 0 24 24" fill="currentColor" xmlns="http://www.w3.org/2000/svg">
<path d="M13 6C13 6.55228 13.4477 7 14 7C14.5523 7 15 6.55228 15 6V3C15 2.44772 14.5523 2 14 2C13.4477 2 13 2.44772 13 3V6Z" fill="currentColor"/>
<path d="M21.7055 4.29402L21.99 5.92592C22.061 6.33352 21.7451 6.70632 21.3286 6.70632H19.2395C19.0325 6.70632 18.8748 6.89069 18.9083 7.09361L19.1755 8.71143C19.2189 8.97426 19.2065 9.2432 19.1391 9.50099C19.0833 9.71454 18.9172 9.88602 18.6987 9.95563L18.6403 9.97426C18.5083 10.0163 18.3642 10.0065 18.2397 9.94704C18.1028 9.88156 18.0025 9.76211 17.9654 9.62004L17.7736 8.8865C17.7126 8.65311 17.6237 8.42782 17.509 8.21495C17.3416 7.90393 17.0826 7.65501 16.8135 7.42492L16.2334 6.92901C16.0698 6.78918 15.9839 6.57978 16.0025 6.36624V2.99623C16.0025 2.44603 16.4485 2 16.9987 2H18.8731C20.2768 2 21.4747 2.97024 21.7055 4.29402Z" fill="currentColor"/>
<path d="M1.25 20C1.25 19.5858 1.58579 19.25 2 19.25H22C22.4142 19.25 22.75 19.5858 22.75 20C22.75 20.4142 22.4142 20.75 22 20.75H2C1.58579 20.75 1.25 20.4142 1.25 20Z" fill="currentColor"/>
<path d="M19.1542 11.3848C19.8397 11.1664 20.3984 10.6142 20.5903 9.88046C20.711 9.41908 20.7332 8.93757 20.6554 8.46701L20.6124 8.20632H21V17C21 17.5523 20.5523 18 20 18H4C3.44772 18 3 17.5523 3 17V6C3 4.89543 3.89543 4 5 4H11.5V6C11.5 7.38072 12.6193 8.5 14 8.5C14.4851 8.5 14.9379 8.36184 15.3213 8.12271L15.8388 8.56509C16.0837 8.77443 16.16 8.87359 16.1883 8.92611C16.247 9.03499 16.2918 9.14903 16.3224 9.26597L16.5142 9.99952C16.6673 10.5852 17.0731 11.0519 17.5928 11.3004C18.0634 11.5253 18.6018 11.5609 19.0958 11.4034L19.1542 11.3848Z" fill="currentColor"/>
</svg>
