<svg viewBox="0 0 24 24" fill="currentColor" xmlns="http://www.w3.org/2000/svg">
<path d="M22 17V18C22 19.1046 21.1046 20 20 20H4C2.89543 20 2 19.1046 2 18V17C2 16.4477 2.44772 16 3 16H8.46482C8.79917 16 9.1114 16.1671 9.29687 16.4453L9.70313 17.0547C9.8886 17.3329 10.2008 17.5 10.5352 17.5H13.4648C13.7992 17.5 14.1114 17.3329 14.2969 17.0547L14.7031 16.4453C14.8886 16.1671 15.2008 16 15.5352 16H21C21.5523 16 22 16.4477 22 17Z" fill="currentColor"/>
<path d="M6 4C4.89543 4 4 4.89543 4 6V14.5H8.46482C9.3007 14.5 10.0813 14.9178 10.5449 15.6132L10.8028 16H13.1972L13.4551 15.6132C13.9187 14.9178 14.6993 14.5 15.5352 14.5H20V6C20 4.89543 19.1046 4 18 4H6Z" fill="currentColor"/>
</svg>
