<svg viewBox="0 0 24 24" fill="currentColor" xmlns="http://www.w3.org/2000/svg">
<path d="M18.2135 3.08901C17.7615 2.637 17.0286 2.637 16.5766 3.08901L9.83281 9.83281C9.3808 10.2848 9.3808 11.0177 9.83281 11.4697L11.1816 12.8184C11.4745 13.1113 11.4745 13.5862 11.1816 13.8791C10.8887 14.172 10.4138 14.172 10.1209 13.8791L8.77215 12.5303C7.73436 11.4925 7.73436 9.80994 8.77215 8.77215L15.516 2.02834C16.5537 0.990553 18.2363 0.990553 19.2741 2.02834L21.9717 4.72587C23.0094 5.76366 23.0094 7.44625 21.9717 8.48405L18.5998 11.8559C18.3069 12.1488 17.832 12.1488 17.5391 11.856C17.2462 11.5631 17.2462 11.0882 17.5391 10.7953L20.911 7.42339C21.363 6.97138 21.363 6.23853 20.911 5.78653L18.2135 3.08901ZM12.8184 10.1209C13.1113 9.82802 13.5862 9.82802 13.8791 10.1209L15.2279 11.4697C16.2656 12.5075 16.2656 14.1901 15.2279 15.2279L8.48405 21.9717C7.44625 23.0095 5.76366 23.0094 4.72587 21.9717L2.02834 19.2741C0.990553 18.2363 0.990553 16.5537 2.02834 15.516L5.40025 12.1441C5.69314 11.8512 6.16801 11.8512 6.46091 12.1441C6.7538 12.4369 6.7538 12.9118 6.46091 13.2047L3.08901 16.5766C2.637 17.0286 2.637 17.7615 3.08901 18.2135L5.78653 20.911C6.23853 21.363 6.97138 21.363 7.42339 20.911L14.1672 14.1672C14.6192 13.7152 14.6192 12.9823 14.1672 12.5303L12.8184 11.1816C12.5255 10.8887 12.5255 10.4138 12.8184 10.1209Z" fill="currentColor"/>
</svg>
