<svg viewBox="0 0 24 24" fill="currentColor" xmlns="http://www.w3.org/2000/svg">
<path d="M21.5303 2.46967C21.8232 2.76256 21.8232 3.23744 21.5303 3.53033L3.53033 21.5303C3.23744 21.8232 2.76256 21.8232 2.46967 21.5303C2.17678 21.2374 2.17678 20.7626 2.46967 20.4697L20.4697 2.46967C20.7626 2.17678 21.2374 2.17678 21.5303 2.46967Z" fill="currentColor"/>
<path d="M14.432 12.75H16C16.4142 12.75 16.75 12.4142 16.75 12C16.75 11.5858 16.4142 11.25 16 11.25H15.932L14.432 12.75Z" fill="currentColor"/>
<path d="M18.9561 8.22586C20.319 8.93368 21.25 10.3581 21.25 12C21.25 14.3472 19.3472 16.25 17 16.25H15C14.5858 16.25 14.25 16.5858 14.25 17C14.25 17.4142 14.5858 17.75 15 17.75H17C20.1756 17.75 22.75 15.1756 22.75 12C22.75 9.9466 21.6737 8.14464 20.0545 7.12744L18.9561 8.22586Z" fill="currentColor"/>
<path d="M9.56802 11.25H8C7.58579 11.25 7.25 11.5858 7.25 12C7.25 12.4142 7.58579 12.75 8 12.75H8.06802L9.56802 11.25Z" fill="currentColor"/>
<path d="M5.04393 15.7741C3.68102 15.0663 2.75 13.6419 2.75 12C2.75 9.65279 4.65279 7.75 7 7.75H9C9.41421 7.75 9.75 7.41421 9.75 7C9.75 6.58579 9.41421 6.25 9 6.25H7C3.82436 6.25 1.25 8.82436 1.25 12C1.25 14.0533 2.3263 15.8553 3.94551 16.8725L5.04393 15.7741Z" fill="currentColor"/>
</svg>
