<svg viewBox="0 0 24 24" fill="currentColor" xmlns="http://www.w3.org/2000/svg">
<path d="M12.2347 3.05414C14.6402 0.648621 18.5403 0.64862 20.9459 3.05414C23.3514 5.45965 23.3514 9.35977 20.9459 11.7653L18.6507 14.0604C18.3578 14.3533 17.8829 14.3533 17.5901 14.0604C17.2972 13.7675 17.2972 13.2927 17.5901 12.9998L19.8852 10.7046C21.7049 8.88489 21.7049 5.93453 19.8852 4.1148C18.0655 2.29507 15.1151 2.29507 13.2954 4.1148L11.0002 6.40994C10.7073 6.70284 10.2325 6.70284 9.93957 6.40994C9.64668 6.11705 9.64668 5.64218 9.93957 5.34928L12.2347 3.05414ZM15.5905 8.40947C15.8834 8.70237 15.8834 9.17724 15.5905 9.47013L9.47014 15.5905C9.17724 15.8834 8.70237 15.8834 8.40948 15.5905C8.11658 15.2976 8.11658 14.8228 8.40948 14.5299L14.5299 8.40947C14.8228 8.11658 15.2976 8.11658 15.5905 8.40947ZM6.40994 9.93957C6.70284 10.2325 6.70284 10.7073 6.40994 11.0002L4.1148 13.2954C2.29507 15.1151 2.29507 18.0655 4.1148 19.8852C5.93453 21.7049 8.88489 21.7049 10.7046 19.8852L12.9998 17.5901C13.2927 17.2972 13.7675 17.2972 14.0604 17.5901C14.3533 17.8829 14.3533 18.3578 14.0604 18.6507L11.7653 20.9459C9.35977 23.3514 5.45965 23.3514 3.05414 20.9459C0.64862 18.5403 0.64862 14.6402 3.05414 12.2347L5.34928 9.93957C5.64218 9.64668 6.11705 9.64668 6.40994 9.93957Z" fill="currentColor"/>
</svg>
