<svg viewBox="0 0 24 24" fill="currentColor" xmlns="http://www.w3.org/2000/svg">
<path d="M2 5C2 3.89543 2.89543 3 4 3H20C21.1046 3 22 3.89543 22 5V16C22 17.1046 21.1046 18 20 18H12.75V20.25H15C15.4142 20.25 15.75 20.5858 15.75 21C15.75 21.4142 15.4142 21.75 15 21.75H9C8.58579 21.75 8.25 21.4142 8.25 21C8.25 20.5858 8.58579 20.25 9 20.25H11.25V18H4C2.89543 18 2 17.1046 2 16V5ZM8.32475 13.3008C8.45152 13.4336 8.63111 13.5 8.86351 13.5C9.10648 13.5 9.28871 13.4336 9.41019 13.3008C9.53168 13.1625 9.59242 12.9689 9.59242 12.7199V8.28008C9.59242 8.02559 9.52904 7.83195 9.40227 7.69917C9.28079 7.56639 9.1012 7.5 8.86351 7.5C8.63111 7.5 8.45152 7.56639 8.32475 7.69917C8.19799 7.83195 8.1346 8.02559 8.1346 8.28008V12.7199C8.1346 12.9689 8.19799 13.1625 8.32475 13.3008ZM3.69015 13.2261C3.8222 13.3589 4.00443 13.4253 4.23683 13.4253H6.89101C7.09173 13.4253 7.2449 13.37 7.35054 13.2593C7.46146 13.1487 7.51692 12.991 7.51692 12.7863C7.51692 12.5816 7.46146 12.4267 7.35054 12.3216C7.2449 12.2109 7.09173 12.1556 6.89101 12.1556H4.95782V8.33817C4.95782 8.08921 4.89444 7.89834 4.76767 7.76556C4.64618 7.63278 4.4666 7.56639 4.22891 7.56639C3.9965 7.56639 3.81692 7.63278 3.69015 7.76556C3.56338 7.89834 3.5 8.08921 3.5 8.33817V12.6535C3.5 12.897 3.56338 13.0878 3.69015 13.2261ZM13.043 13.5C13.2438 13.5 13.4049 13.4557 13.5263 13.3672C13.6478 13.2787 13.7482 13.1376 13.8274 12.944L15.7527 8.51245C15.8372 8.31881 15.8636 8.14454 15.8319 7.98963C15.8055 7.83472 15.7368 7.71577 15.6259 7.63278C15.515 7.54426 15.3777 7.5 15.2139 7.5C15.0132 7.5 14.8574 7.54979 14.7465 7.64938C14.6355 7.74343 14.5405 7.88728 14.4612 8.08091L13.0666 11.468L11.6724 8.08921C11.5931 7.89557 11.4981 7.74896 11.3871 7.64938C11.2815 7.54979 11.1204 7.5 10.9039 7.5C10.7295 7.5 10.5843 7.54426 10.4681 7.63278C10.3519 7.71577 10.2779 7.83472 10.2462 7.98963C10.2146 8.14454 10.241 8.31881 10.3255 8.51245L12.2428 12.944C12.3273 13.1376 12.4303 13.2787 12.5518 13.3672C12.6786 13.4557 12.8423 13.5 13.043 13.5ZM16.6732 13.2261C16.8053 13.3589 16.9954 13.4253 17.2437 13.4253H19.9296C20.1197 13.4253 20.2623 13.3755 20.3574 13.2759C20.4525 13.1763 20.5 13.0297 20.5 12.8361C20.5 12.648 20.4525 12.5041 20.3574 12.4046C20.2623 12.2994 20.1197 12.2469 19.9296 12.2469H17.8775V11.0436H19.7552C19.9401 11.0436 20.0801 10.9938 20.1752 10.8942C20.2755 10.7946 20.3257 10.648 20.3257 10.4544C20.3257 10.2607 20.2755 10.1141 20.1752 10.0145C20.0801 9.91494 19.9401 9.86515 19.7552 9.86515H17.8775V8.75311H19.9296C20.1197 8.75311 20.2623 8.70332 20.3574 8.60373C20.4525 8.49862 20.5 8.34924 20.5 8.1556C20.5 7.9675 20.4525 7.82365 20.3574 7.72407C20.2623 7.62448 20.1197 7.57469 19.9296 7.57469H17.2437C16.9954 7.57469 16.8053 7.64385 16.6732 7.78216C16.5465 7.91494 16.4831 8.10858 16.4831 8.36307V12.6369C16.4831 12.8914 16.5465 13.0878 16.6732 13.2261Z" fill="currentColor"/>
</svg>
