<svg viewBox="0 0 24 24" fill="currentColor" xmlns="http://www.w3.org/2000/svg">
<path d="M7.27186 1.54571C7.57324 1.26156 7.58721 0.786891 7.30306 0.485506C7.01892 0.184122 6.54425 0.170149 6.24286 0.454297C5.01829 1.60884 4.25 3.21602 4.25 5C4.25 6.78398 5.01829 8.39117 6.24286 9.54571C6.54425 9.82985 7.01892 9.81588 7.30306 9.5145C7.58721 9.21311 7.57324 8.73845 7.27186 8.4543C6.32486 7.56146 5.75 6.34022 5.75 5C5.75 3.65979 6.32486 2.43855 7.27186 1.54571Z" fill="currentColor"/>
<path d="M17.7571 0.454297C17.4558 0.170149 16.9811 0.184122 16.6969 0.485506C16.4128 0.786891 16.4268 1.26156 16.7281 1.54571C17.6751 2.43854 18.25 3.65979 18.25 5C18.25 6.34022 17.6751 7.56146 16.7281 8.4543C16.4268 8.73845 16.4128 9.21311 16.6969 9.5145C16.9811 9.81588 17.4558 9.82985 17.7571 9.54571C18.9817 8.39117 19.75 6.78398 19.75 5C19.75 3.21602 18.9817 1.60884 17.7571 0.454297Z" fill="currentColor"/>
<path d="M9.56891 3.14568C9.8703 2.86153 9.88427 2.38686 9.60012 2.08548C9.31597 1.78409 8.8413 1.77012 8.53992 2.05427C7.74966 2.79933 7.25 3.84083 7.25 4.99997C7.25 6.15911 7.74966 7.20061 8.53992 7.94568C8.8413 8.22983 9.31597 8.21585 9.60012 7.91447C9.88427 7.61308 9.8703 7.13841 9.56891 6.85427C9.05623 6.3709 8.75 5.71535 8.75 4.99997C8.75 4.2846 9.05623 3.62904 9.56891 3.14568Z" fill="currentColor"/>
<path d="M15.4601 2.05427C15.1587 1.77012 14.684 1.78409 14.3999 2.08548C14.1157 2.38686 14.1297 2.86153 14.4311 3.14568C14.9438 3.62904 15.25 4.2846 15.25 4.99997C15.25 5.71535 14.9438 6.3709 14.4311 6.85427C14.1297 7.13841 14.1157 7.61308 14.3999 7.91447C14.684 8.21585 15.1587 8.22983 15.4601 7.94568C16.2503 7.20061 16.75 6.15911 16.75 4.99997C16.75 3.84083 16.2503 2.79933 15.4601 2.05427Z" fill="currentColor"/>
<path d="M13.5 5C13.5 5.55521 13.1984 6.03997 12.75 6.29933V10H20C21.1046 10 22 10.8954 22 12V20C22 21.1046 21.1046 22 20 22H4C2.89543 22 2 21.1046 2 20V12C2 10.8954 2.89543 10 4 10H11.25V6.29933C10.8016 6.03997 10.5 5.55521 10.5 5C10.5 4.17158 11.1716 3.5 12 3.5C12.8284 3.5 13.5 4.17158 13.5 5ZM8.67901 19C8.93627 19 9.12922 18.9336 9.25785 18.8008C9.38648 18.6625 9.4508 18.4689 9.4508 18.2199V13.7801C9.4508 13.5256 9.38369 13.332 9.24946 13.1992C9.12083 13.0664 8.93068 13 8.67901 13C8.43294 13 8.24279 13.0664 8.10856 13.1992C7.97434 13.332 7.90723 13.5256 7.90723 13.7801V18.2199C7.90723 18.4689 7.97434 18.6625 8.10856 18.8008C8.24279 18.9336 8.43294 19 8.67901 19ZM3.78018 18.9253H6.59048C6.803 18.9253 6.96519 18.87 7.07704 18.7593C7.19449 18.6487 7.25321 18.491 7.25321 18.2863C7.25321 18.0816 7.19449 17.9267 7.07704 17.8216C6.96519 17.7109 6.803 17.6556 6.59048 17.6556H4.54357V13.8382C4.54357 13.5892 4.47646 13.3983 4.34224 13.2656C4.21361 13.1328 4.02346 13.0664 3.77179 13.0664C3.52571 13.0664 3.33556 13.1328 3.20134 13.2656C3.06711 13.3983 3 13.5892 3 13.8382V18.1535C3 18.397 3.06711 18.5878 3.20134 18.7261C3.34115 18.8589 3.5341 18.9253 3.78018 18.9253ZM12.5843 18.8672C12.7185 18.9557 12.8919 19 13.1044 19C13.3169 19 13.4875 18.9557 13.6161 18.8672C13.7448 18.7787 13.851 18.6376 13.9349 18.444L15.9734 14.0125C16.0629 13.8188 16.0909 13.6445 16.0573 13.4896C16.0294 13.3347 15.9567 13.2158 15.8392 13.1328C15.7218 13.0443 15.5763 13 15.403 13C15.1905 13 15.0255 13.0498 14.908 13.1494C14.7906 13.2434 14.6899 13.3873 14.606 13.5809L13.1293 16.968L11.6531 13.5892C11.5692 13.3956 11.4685 13.249 11.3511 13.1494C11.2392 13.0498 11.0687 13 10.8394 13C10.6548 13 10.501 13.0443 10.378 13.1328C10.2549 13.2158 10.1766 13.3347 10.1431 13.4896C10.1095 13.6445 10.1375 13.8188 10.227 14.0125L12.2571 18.444C12.3466 18.6376 12.4556 18.7787 12.5843 18.8672ZM17.5521 18.9253H20.396C20.5973 18.9253 20.7483 18.8755 20.849 18.7759C20.9497 18.6764 21 18.5297 21 18.3361C21 18.148 20.9497 18.0042 20.849 17.9046C20.7483 17.7994 20.5973 17.7469 20.396 17.7469H18.2232V16.5436H20.2114C20.4072 16.5436 20.5554 16.4938 20.6561 16.3942C20.7623 16.2946 20.8154 16.148 20.8154 15.9544C20.8154 15.7607 20.7623 15.6141 20.6561 15.5145C20.5554 15.4149 20.4072 15.3651 20.2114 15.3651H18.2232V14.2531H20.396C20.5973 14.2531 20.7483 14.2033 20.849 14.1037C20.9497 13.9986 21 13.8492 21 13.6556C21 13.4675 20.9497 13.3237 20.849 13.2241C20.7483 13.1245 20.5973 13.0747 20.396 13.0747H17.5521C17.2893 13.0747 17.0879 13.1438 16.9481 13.2822C16.8139 13.4149 16.7468 13.6086 16.7468 13.8631V18.1369C16.7468 18.3914 16.8139 18.5878 16.9481 18.7261C17.0879 18.8589 17.2893 18.9253 17.5521 18.9253Z" fill="currentColor"/>
</svg>
