<svg viewBox="0 0 24 24" fill="currentColor" xmlns="http://www.w3.org/2000/svg">
<path d="M20 11C20 10.4477 20.4477 10 21 10C21.5523 10 22 10.4477 22 11V13C22 13.5523 21.5523 14 21 14C20.4477 14 20 13.5523 20 13V11Z" fill="currentColor"/>
<path d="M4 6C2.89543 6 2 6.89543 2 8V16C2 17.1046 2.89543 18 4 18H17C18.1046 18 19 17.1046 19 16V8C19 6.89543 18.1046 6 17 6H4ZM6.25 9V15C6.25 15.4142 5.91421 15.75 5.5 15.75C5.08579 15.75 4.75 15.4142 4.75 15V9C4.75 8.58579 5.08579 8.25 5.5 8.25C5.91421 8.25 6.25 8.58579 6.25 9Z" fill="currentColor"/>
</svg>
