<svg viewBox="0 0 24 24" fill="currentColor" xmlns="http://www.w3.org/2000/svg">
<path d="M12.2498 13H11C10.4477 13 10 13.4477 10 14V15.625H12.9955L12.2809 13.2131C12.2599 13.1421 12.2498 13.0704 12.2498 13Z" fill="currentColor"/>
<path d="M10 17.125V21C10 21.5523 10.4477 22 11 22H21C21.5523 22 22 21.5523 22 21V17.125H19.0168C19.0054 17.1253 18.994 17.1253 18.9826 17.125H14.0168C14.0054 17.1253 13.994 17.1253 13.9826 17.125H10Z" fill="currentColor"/>
<path d="M22 15.625V14C22 13.4477 21.5523 13 21 13H18.7822L19.56 15.625H22Z" fill="currentColor"/>
<path d="M17.2498 13H13.7822L14.56 15.625H17.9955L17.2809 13.2131C17.2599 13.1421 17.2498 13.0704 17.2498 13Z" fill="currentColor"/>
<path d="M4 2C2.89543 2 2 2.89543 2 4V9.25H22V4C22 2.89543 21.1046 2 20 2H4ZM5 3.75C5.41421 3.75 5.75 4.08579 5.75 4.5V6.5C5.75 6.91421 5.41421 7.25 5 7.25C4.58579 7.25 4.25 6.91421 4.25 6.5V4.5C4.25 4.08579 4.58579 3.75 5 3.75ZM8 3.75C8.41421 3.75 8.75 4.08579 8.75 4.5V6.5C8.75 6.91421 8.41421 7.25 8 7.25C7.58579 7.25 7.25 6.91421 7.25 6.5V4.5C7.25 4.08579 7.58579 3.75 8 3.75ZM11.25 5.5C11.25 5.08579 11.5858 4.75 12 4.75H19C19.4142 4.75 19.75 5.08579 19.75 5.5C19.75 5.91421 19.4142 6.25 19 6.25H12C11.5858 6.25 11.25 5.91421 11.25 5.5Z" fill="currentColor"/>
<path d="M2 10.75V16C2 17.1046 2.89543 18 4 18H8.5V14C8.5 12.6193 9.61929 11.5 11 11.5H21C21.3556 11.5 21.6938 11.5742 22 11.708V10.75H2ZM5.75 13V15C5.75 15.4142 5.41421 15.75 5 15.75C4.58579 15.75 4.25 15.4142 4.25 15V13C4.25 12.5858 4.58579 12.25 5 12.25C5.41421 12.25 5.75 12.5858 5.75 13Z" fill="currentColor"/>
</svg>
