<svg viewBox="0 0 24 24" fill="currentColor" xmlns="http://www.w3.org/2000/svg">
<path d="M12 6C12 5.44772 12.4477 5 13 5H21C21.5523 5 22 5.44772 22 6C22 6.55228 21.5523 7 21 7H13C12.4477 7 12 6.55228 12 6Z" fill="currentColor"/>
<path d="M7 12C7 11.4477 7.44772 11 8 11H16C16.5523 11 17 11.4477 17 12C17 12.5523 16.5523 13 16 13H8C7.44772 13 7 12.5523 7 12Z" fill="currentColor"/>
<path d="M2 18C2 17.4477 2.44772 17 3 17H11C11.5523 17 12 17.4477 12 18C12 18.5523 11.5523 19 11 19H3C2.44772 19 2 18.5523 2 18Z" fill="currentColor"/>
</svg>
