<svg viewBox="0 0 24 24" fill="currentColor" xmlns="http://www.w3.org/2000/svg">
<path d="M7 7C7 4.23858 9.23858 2 12 2C14.7614 2 17 4.23858 17 7V11C17 13.7614 14.7614 16 12 16C9.23858 16 7 13.7614 7 11V7Z" fill="currentColor"/>
<path d="M5 9.25C5.41421 9.25 5.75 9.58579 5.75 10V11C5.75 14.4518 8.54822 17.25 12 17.25C15.4518 17.25 18.25 14.4518 18.25 11V10C18.25 9.58579 18.5858 9.25 19 9.25C19.4142 9.25 19.75 9.58579 19.75 10V11C19.75 15.0272 16.6783 18.337 12.75 18.7142V22C12.75 22.4142 12.4142 22.75 12 22.75C11.5858 22.75 11.25 22.4142 11.25 22V18.7142C7.3217 18.337 4.25 15.0272 4.25 11V10C4.25 9.58579 4.58579 9.25 5 9.25Z" fill="currentColor"/>
</svg>
