<svg viewBox="0 0 24 24" fill="currentColor" xmlns="http://www.w3.org/2000/svg">
<path d="M6 4C6 2.89543 6.89543 2 8 2H16C17.1046 2 18 2.89543 18 4V15C18 16.1046 17.1046 17 16 17H8C6.89543 17 6 16.1046 6 15V4ZM10.25 4C10.25 4.41421 10.5858 4.75 11 4.75H13C13.4142 4.75 13.75 4.41421 13.75 4C13.75 3.58579 13.4142 3.25 13 3.25H11C10.5858 3.25 10.25 3.58579 10.25 4Z" fill="currentColor"/>
<path d="M6 20V17.8727C6.56692 18.2681 7.25638 18.5 8 18.5H16C16.7436 18.5 17.4331 18.2681 18 17.8727V20C18 21.1046 17.1046 22 16 22H8C6.89543 22 6 21.1046 6 20Z" fill="currentColor"/>
</svg>
