<svg viewBox="0 0 24 24" fill="currentColor" xmlns="http://www.w3.org/2000/svg">
<path d="M8 2C6.34315 2 5 3.34315 5 5V19C5 20.6569 6.34315 22 8 22H16C17.6569 22 19 20.6569 19 19V5C19 3.34315 17.6569 2 16 2H8ZM9 18.25H15C15.4142 18.25 15.75 18.5858 15.75 19C15.75 19.4142 15.4142 19.75 15 19.75H9C8.58579 19.75 8.25 19.4142 8.25 19C8.25 18.5858 8.58579 18.25 9 18.25ZM7 12C7 11.4477 7.44772 11 8 11H10C10.5523 11 11 11.4477 11 12V14C11 14.5523 10.5523 15 10 15H8C7.44772 15 7 14.5523 7 14V12ZM8 5H10C10.5523 5 11 5.44772 11 6V8C11 8.55228 10.5523 9 10 9H8C7.44772 9 7 8.55228 7 8V6C7 5.44772 7.44772 5 8 5ZM13 12C13 11.4477 13.4477 11 14 11H16C16.5523 11 17 11.4477 17 12V14C17 14.5523 16.5523 15 16 15H14C13.4477 15 13 14.5523 13 14V12ZM14 5H16C16.5523 5 17 5.44772 17 6V8C17 8.55228 16.5523 9 16 9H14C13.4477 9 13 8.55228 13 8V6C13 5.44772 13.4477 5 14 5Z" fill="currentColor"/>
</svg>
