<svg viewBox="0 0 24 24" fill="currentColor" xmlns="http://www.w3.org/2000/svg">
<path d="M8 2C6.34315 2 5 3.34315 5 5V16.25H19V5C19 3.34315 17.6569 2 16 2H8ZM7 11C7 10.4477 7.44772 10 8 10H10C10.5523 10 11 10.4477 11 11V13C11 13.5523 10.5523 14 10 14H8C7.44772 14 7 13.5523 7 13V11ZM8 4H10C10.5523 4 11 4.44772 11 5V7C11 7.55228 10.5523 8 10 8H8C7.44772 8 7 7.55228 7 7V5C7 4.44772 7.44772 4 8 4ZM13 11C13 10.4477 13.4477 10 14 10H16C16.5523 10 17 10.4477 17 11V13C17 13.5523 16.5523 14 16 14H14C13.4477 14 13 13.5523 13 13V11ZM14 4H16C16.5523 4 17 4.44772 17 5V7C17 7.55228 16.5523 8 16 8H14C13.4477 8 13 7.55228 13 7V5C13 4.44772 13.4477 4 14 4Z" fill="currentColor"/>
<path d="M19 17.75H5V19C5 20.6569 6.34315 22 8 22H16C17.6569 22 19 20.6569 19 19V17.75Z" fill="currentColor"/>
</svg>
