<svg viewBox="0 0 24 24" fill="currentColor" xmlns="http://www.w3.org/2000/svg">
<path d="M4 2C2.89543 2 2 2.89543 2 4V7C2 8.10457 2.89543 9 4 9H11.25V12.25H5.5C4.5335 12.25 3.75 13.0335 3.75 14V17H3C2.44772 17 2 17.4477 2 18V21C2 21.5523 2.44772 22 3 22H6C6.55228 22 7 21.5523 7 21V18C7 17.4477 6.55228 17 6 17H5.25V14C5.25 13.8619 5.36193 13.75 5.5 13.75H11.25V17H10.5C9.94771 17 9.5 17.4477 9.5 18V21C9.5 21.5523 9.94771 22 10.5 22H13.5C14.0523 22 14.5 21.5523 14.5 21V18C14.5 17.4477 14.0523 17 13.5 17H12.75V13.75H18.5C18.6381 13.75 18.75 13.8619 18.75 14V17H18C17.4477 17 17 17.4477 17 18V21C17 21.5523 17.4477 22 18 22H21C21.5523 22 22 21.5523 22 21V18C22 17.4477 21.5523 17 21 17H20.25V14C20.25 13.0335 19.4665 12.25 18.5 12.25H12.75V9H20C21.1046 9 22 8.10457 22 7V4C22 2.89543 21.1046 2 20 2H4ZM5.75 4.5V6.5C5.75 6.91421 5.41421 7.25 5 7.25C4.58579 7.25 4.25 6.91421 4.25 6.5V4.5C4.25 4.08579 4.58579 3.75 5 3.75C5.41421 3.75 5.75 4.08579 5.75 4.5ZM8.75 4.5V6.5C8.75 6.91421 8.41421 7.25 8 7.25C7.58579 7.25 7.25 6.91421 7.25 6.5V4.5C7.25 4.08579 7.58579 3.75 8 3.75C8.41421 3.75 8.75 4.08579 8.75 4.5ZM11.25 5.5C11.25 5.08579 11.5858 4.75 12 4.75H19C19.4142 4.75 19.75 5.08579 19.75 5.5C19.75 5.91421 19.4142 6.25 19 6.25H12C11.5858 6.25 11.25 5.91421 11.25 5.5Z" fill="currentColor"/>
</svg>
