<svg viewBox="0 0 24 24" fill="currentColor" xmlns="http://www.w3.org/2000/svg">
<path d="M5.00876 3.99399C5.1928 2.88345 8.2525 2 12 2C15.7475 2 18.8072 2.88345 18.9912 3.99399C18.9566 4.03009 18.9177 4.06763 18.8738 4.10654C18.562 4.38292 18.0682 4.66608 17.3935 4.91907C16.0497 5.42299 14.143 5.75 12 5.75C9.85699 5.75 7.95026 5.42299 6.60649 4.91907C5.93183 4.66608 5.43796 4.38292 5.12623 4.10654C5.08234 4.06762 5.04335 4.0301 5.00876 3.99399Z" fill="currentColor"/>
<path d="M5 5.83179V8.98476C5.03673 9.02368 5.07859 9.06428 5.12623 9.10652C5.43796 9.3829 5.93183 9.66606 6.60649 9.91905C7.95026 10.423 9.85699 10.75 12 10.75C14.143 10.75 16.0497 10.423 17.3935 9.91905C18.0682 9.66606 18.562 9.3829 18.8738 9.10652C18.9214 9.06428 18.9633 9.02368 19 8.98476V5.83179C18.6711 6.01454 18.3076 6.17826 17.9202 6.32355C16.3685 6.90542 14.2753 7.24998 12 7.24998C9.72474 7.24998 7.63146 6.90542 6.0798 6.32355C5.69238 6.17826 5.3289 6.01454 5 5.83179Z" fill="currentColor"/>
<path d="M17.9202 11.3236C18.3076 11.1783 18.6711 11.0146 19 10.8318V13.9C19 14.9838 16.2633 15.8758 12.75 15.9881V18.1454C13.2513 18.3483 13.6517 18.7486 13.8546 19.25H22C22.4142 19.25 22.75 19.5858 22.75 20C22.75 20.4142 22.4142 20.75 22 20.75H13.8546C13.5579 21.483 12.8393 22 12 22C11.1607 22 10.4421 21.483 10.1454 20.75H2C1.58579 20.75 1.25 20.4142 1.25 20C1.25 19.5858 1.58579 19.25 2 19.25H10.1454C10.3483 18.7486 10.7487 18.3483 11.25 18.1454V15.9881C7.73667 15.8758 5 14.9838 5 13.9V10.8318C5.3289 11.0146 5.69238 11.1783 6.0798 11.3236C7.63146 11.9054 9.72474 12.25 12 12.25C14.2753 12.25 16.3685 11.9054 17.9202 11.3236Z" fill="currentColor"/>
</svg>
