<svg viewBox="0 0 24 24" fill="currentColor" xmlns="http://www.w3.org/2000/svg">
<path d="M21.5303 2.46967C21.8232 2.76256 21.8232 3.23744 21.5303 3.53033L3.53033 21.5303C3.23744 21.8232 2.76256 21.8232 2.46967 21.5303C2.17678 21.2374 2.17678 20.7626 2.46967 20.4697L20.4697 2.46967C20.7626 2.17678 21.2374 2.17678 21.5303 2.46967Z" fill="currentColor"/>
<path d="M20 11C20 10.4477 20.4477 10 21 10C21.5523 10 22 10.4477 22 11V13C22 13.5523 21.5523 14 21 14C20.4477 14 20 13.5523 20 13V11Z" fill="currentColor"/>
<path d="M14.818 6H4C2.89543 6 2 6.89543 2 8V16C2 16.7627 2.42697 17.4258 3.05494 17.7631L14.818 6Z" fill="currentColor"/>
<path d="M9.18198 18H17C18.1046 18 19 17.1046 19 16V8.18201L9.18198 18Z" fill="currentColor"/>
</svg>
