<svg viewBox="0 0 24 24" fill="currentColor" xmlns="http://www.w3.org/2000/svg">
<path d="M7.12486 16.2479H7.8768C8.08873 16.2479 8.25175 16.1965 8.36587 16.0938C8.47999 15.9865 8.53704 15.8277 8.53704 15.6176C8.53704 15.4029 8.47999 15.2442 8.36587 15.1415C8.25175 15.0387 8.08873 14.9874 7.8768 14.9874H7.12486V16.2479Z" fill="currentColor"/>
<path d="M11.2562 17.8937H11.843C12.059 17.8937 12.2445 17.8633 12.3994 17.8026C12.5583 17.7419 12.6887 17.6532 12.7906 17.5365C12.8966 17.4198 12.974 17.2727 13.0229 17.0953C13.0759 16.9179 13.1024 16.7079 13.1024 16.4651C13.1024 15.9796 12.9985 15.6224 12.7906 15.3937C12.5828 15.1602 12.2669 15.0435 11.843 15.0435H11.2562V17.8937Z" fill="currentColor"/>
<path d="M5 2H13.25V8C13.25 8.9665 14.0335 9.75 15 9.75H20.9992C20.9997 9.76904 21 9.78811 21 9.80721V20C21 21.1046 20.1046 22 19 22H5C3.89543 22 3 21.1046 3 20V4C3 2.89543 3.89543 2 5 2ZM6.56243 19C6.74991 19 6.89051 18.944 6.98425 18.8319C7.07799 18.7152 7.12486 18.5542 7.12486 18.3487V17.2353H8.07243C8.5615 17.2353 8.93849 17.0929 9.2034 16.8081C9.47239 16.5187 9.60688 16.1218 9.60688 15.6176C9.60688 15.1134 9.47239 14.719 9.2034 14.4342C8.93849 14.1447 8.5615 14 8.07243 14H6.56854C6.38922 14 6.24861 14.056 6.14672 14.1681C6.04891 14.2801 6 14.4412 6 14.6513V18.3487C6 18.5542 6.04891 18.7152 6.14672 18.8319C6.24453 18.944 6.3831 19 6.56243 19ZM10.7182 18.937H11.9164C12.2913 18.937 12.6235 18.8833 12.9129 18.7759C13.2063 18.6639 13.4529 18.5028 13.6526 18.2927C13.8523 18.078 14.0051 17.8189 14.1111 17.5154C14.2171 17.2073 14.27 16.8571 14.27 16.465C14.27 15.6807 14.0642 15.0738 13.6526 14.6443C13.245 14.2148 12.6663 14 11.9164 14H10.7182C10.5266 14 10.3799 14.0584 10.278 14.1751C10.1802 14.2871 10.1313 14.4505 10.1313 14.6653V18.2717C10.1313 18.4865 10.1802 18.6522 10.278 18.7689C10.3799 18.881 10.5266 18.937 10.7182 18.937ZM15.0839 18.8319C15.1858 18.944 15.3264 19 15.5057 19C15.8766 19 16.0621 18.7782 16.0621 18.3347V16.9762H17.4253C17.568 16.9762 17.676 16.9342 17.7494 16.8501C17.8268 16.7661 17.8655 16.6424 17.8655 16.479C17.8655 16.3203 17.8268 16.1989 17.7494 16.1148C17.676 16.0308 17.568 15.9888 17.4253 15.9888H16.0621V14.9944H17.5598C17.7066 14.9944 17.8166 14.9524 17.89 14.8683C17.9633 14.7796 18 14.6536 18 14.4902C18 14.3315 17.9633 14.2101 17.89 14.126C17.8166 14.042 17.7066 14 17.5598 14H15.5241C15.3325 14 15.1858 14.0584 15.0839 14.1751C14.9861 14.2871 14.9372 14.4505 14.9372 14.6653V18.3347C14.9372 18.5495 14.9861 18.7152 15.0839 18.8319Z" fill="currentColor"/>
<path d="M14.8399 2.61172L20.2768 8.24999H15C14.8619 8.24999 14.75 8.13806 14.75 7.99999V2.52417C14.7808 2.55232 14.8108 2.58151 14.8399 2.61172Z" fill="currentColor"/>
</svg>
