<svg viewBox="0 0 24 24" fill="currentColor" xmlns="http://www.w3.org/2000/svg">
<path d="M7.0731 16.2834H7.79044C7.99262 16.2834 8.14815 16.2329 8.25702 16.132C8.36588 16.0266 8.4203 15.8707 8.4203 15.6644C8.4203 15.4535 8.36588 15.2976 8.25702 15.1967C8.14815 15.0958 7.99262 15.0454 7.79044 15.0454H7.0731V16.2834Z" fill="currentColor"/>
<path d="M5 2H13.25V8C13.25 8.9665 14.0335 9.75 15 9.75H20.9992C20.9997 9.76904 21 9.78811 21 9.80721V20C21 21.1046 20.1046 22 19 22H5C3.89543 22 3 21.1046 3 20V4C3 2.89543 3.89543 2 5 2ZM15.2589 18.6905C15.5894 18.8968 15.9899 19 16.4603 19C16.6742 19 16.888 18.9794 17.1019 18.9381C17.3157 18.8968 17.514 18.8395 17.6967 18.7662C17.8017 18.7249 17.8775 18.6561 17.9242 18.5598C17.9747 18.4635 18 18.3466 18 18.2091V16.6891C18 16.5287 17.9631 16.4072 17.8892 16.3246C17.8192 16.2375 17.7162 16.1939 17.5801 16.1939H16.7169C16.5848 16.1939 16.4817 16.2329 16.4078 16.3109C16.3379 16.3842 16.3029 16.492 16.3029 16.6341C16.3029 16.7762 16.3379 16.8863 16.4078 16.9642C16.4817 17.0422 16.5848 17.0812 16.7169 17.0812H17.1252V17.8465C17.0513 17.8674 16.9774 17.8851 16.9036 17.8996C16.7675 17.9271 16.6411 17.9409 16.5245 17.9409C16.1435 17.9409 15.8557 17.8216 15.6613 17.5832C15.4669 17.3448 15.3697 16.9917 15.3697 16.5241C15.3697 16.2123 15.4125 15.9486 15.498 15.7331C15.5836 15.5177 15.7119 15.3549 15.883 15.2448C16.0579 15.1348 16.2757 15.0798 16.5362 15.0798C16.6878 15.0798 16.8316 15.0981 16.9677 15.1348C17.1038 15.1669 17.2302 15.215 17.3468 15.2792C17.4596 15.3388 17.5607 15.3549 17.6501 15.3274C17.7395 15.2953 17.8095 15.2357 17.86 15.1486C17.9145 15.0569 17.9475 14.9583 17.9592 14.8528C17.9747 14.7428 17.9631 14.6396 17.9242 14.5433C17.8892 14.4425 17.8212 14.3645 17.7201 14.3095C17.5257 14.1903 17.3274 14.11 17.1252 14.0688C16.923 14.0229 16.7247 14 16.5303 14C16.1726 14 15.8519 14.0596 15.568 14.1788C15.2881 14.2934 15.0509 14.4631 14.8565 14.6878C14.6621 14.9078 14.5124 15.1738 14.4075 15.4856C14.3064 15.7928 14.2558 16.1389 14.2558 16.5241C14.2558 17.0193 14.3414 17.4525 14.5124 17.8239C14.6835 18.1953 14.9323 18.4842 15.2589 18.6905ZM10.4428 18.9862C10.606 18.9862 10.7285 18.9358 10.8102 18.8349C10.8957 18.7341 10.9385 18.5851 10.9385 18.3879V16.1394L12.6239 18.6286C12.7095 18.7524 12.7892 18.8441 12.8631 18.9037C12.9408 18.9587 13.0458 18.9862 13.178 18.9862C13.3102 18.9862 13.4152 18.9358 13.4929 18.8349C13.5707 18.7295 13.6096 18.5896 13.6096 18.4154V14.6052C13.6096 14.4127 13.5668 14.2659 13.4813 14.1651C13.3996 14.0642 13.2771 14.0138 13.1138 14.0138C12.9505 14.0138 12.8261 14.0642 12.7406 14.1651C12.6589 14.2659 12.6181 14.4127 12.6181 14.6052V16.8543L10.9326 14.3714C10.8471 14.243 10.7693 14.1513 10.6994 14.0963C10.6294 14.0413 10.5322 14.0138 10.4078 14.0138C10.2678 14.0138 10.155 14.0688 10.0695 14.1788C9.98396 14.2843 9.94119 14.4379 9.94119 14.6396V18.3879C9.94119 18.5851 9.98396 18.7341 10.0695 18.8349C10.155 18.9358 10.2795 18.9862 10.4428 18.9862ZM6.53655 18.9862C6.7154 18.9862 6.84954 18.9312 6.93896 18.8212C7.02839 18.7066 7.0731 18.5484 7.0731 18.3466V17.2531H7.97707C8.44363 17.2531 8.80327 17.1133 9.056 16.8336C9.31261 16.5493 9.44091 16.1596 9.44091 15.6644C9.44091 15.1692 9.31261 14.7818 9.056 14.5021C8.80327 14.2178 8.44363 14.0757 7.97707 14.0757H6.54238C6.37131 14.0757 6.23717 14.1307 6.13997 14.2407C6.04666 14.3508 6 14.5089 6 14.7153V18.3466C6 18.5484 6.04666 18.7066 6.13997 18.8212C6.23328 18.9312 6.36548 18.9862 6.53655 18.9862Z" fill="currentColor"/>
<path d="M14.8399 2.61172L20.2768 8.24999H15C14.8619 8.24999 14.75 8.13806 14.75 7.99999V2.52417C14.7808 2.55232 14.8108 2.58151 14.8399 2.61172Z" fill="currentColor"/>
</svg>
