<svg viewBox="0 0 24 24" fill="currentColor" xmlns="http://www.w3.org/2000/svg">
<path d="M15 8C15.5523 8 16 8.44771 16 9V15C16 15.5523 15.5523 16 15 16H9C8.44771 16 8 15.5523 8 15V11.4142C8 11.149 8.10536 10.8946 8.29289 10.7071L10.7071 8.29289C10.8946 8.10536 11.149 8 11.4142 8H15Z" fill="currentColor"/>
<path d="M12.75 2V4H15.25V2C15.25 1.58579 15.5858 1.25 16 1.25C16.4142 1.25 16.75 1.58579 16.75 2V4H18C19.1046 4 20 4.89543 20 6V7.25H22C22.4142 7.25 22.75 7.58579 22.75 8C22.75 8.41421 22.4142 8.75 22 8.75H20V11.25H22C22.4142 11.25 22.75 11.5858 22.75 12C22.75 12.4142 22.4142 12.75 22 12.75H20V15.25H22C22.4142 15.25 22.75 15.5858 22.75 16C22.75 16.4142 22.4142 16.75 22 16.75H20V18C20 19.1046 19.1046 20 18 20H16.75V22C16.75 22.4142 16.4142 22.75 16 22.75C15.5858 22.75 15.25 22.4142 15.25 22V20H12.75V22C12.75 22.4142 12.4142 22.75 12 22.75C11.5858 22.75 11.25 22.4142 11.25 22V20H8.75V22C8.75 22.4142 8.41421 22.75 8 22.75C7.58579 22.75 7.25 22.4142 7.25 22V20H6C4.89543 20 4 19.1046 4 18V16.75H2C1.58579 16.75 1.25 16.4142 1.25 16C1.25 15.5858 1.58579 15.25 2 15.25H4V12.75H2C1.58579 12.75 1.25 12.4142 1.25 12C1.25 11.5858 1.58579 11.25 2 11.25H4V8.75H2C1.58579 8.75 1.25 8.41421 1.25 8C1.25 7.58579 1.58579 7.25 2 7.25H4V6C4 4.89543 4.89543 4 6 4H7.25V2C7.25 1.58579 7.58579 1.25 8 1.25C8.41421 1.25 8.75 1.58579 8.75 2V4H11.25V2C11.25 1.58579 11.5858 1.25 12 1.25C12.4142 1.25 12.75 1.58579 12.75 2ZM7 6C6.44772 6 6 6.44771 6 7V17C6 17.5523 6.44771 18 7 18H17C17.5523 18 18 17.5523 18 17V7C18 6.44772 17.5523 6 17 6H7Z" fill="currentColor"/>
</svg>
