<svg viewBox="0 0 24 24" fill="currentColor" xmlns="http://www.w3.org/2000/svg">
<path d="M7.10172 16.2834H7.83819C8.04576 16.2834 8.20543 16.2329 8.31719 16.132C8.42896 16.0266 8.48485 15.8707 8.48485 15.6644C8.48485 15.4535 8.42896 15.2976 8.31719 15.1967C8.20543 15.0958 8.04576 15.0454 7.83819 15.0454H7.10172V16.2834Z" fill="currentColor"/>
<path d="M15.6229 17.8995H15.0481V15.1003H15.6229C16.0381 15.1003 16.3474 15.2149 16.551 15.4442C16.7546 15.6689 16.8564 16.0196 16.8564 16.4965C16.8564 16.7349 16.8304 16.9412 16.7785 17.1154C16.7306 17.2897 16.6548 17.4341 16.551 17.5487C16.4512 17.6634 16.3235 17.7505 16.1678 17.8101C16.0161 17.8697 15.8345 17.8995 15.6229 17.8995Z" fill="currentColor"/>
<path d="M5 2H13.25V8C13.25 8.9665 14.0335 9.75 15 9.75H20.9992C20.9997 9.76904 21 9.78811 21 9.80721V20C21 21.1046 20.1046 22 19 22H5C3.89543 22 3 21.1046 3 20V4C3 2.89543 3.89543 2 5 2ZM11.615 19C11.8905 19 12.138 18.9633 12.3575 18.89C12.577 18.8166 12.7647 18.7134 12.9203 18.5805C13.076 18.4429 13.1958 18.2779 13.2796 18.0853C13.3634 17.8927 13.4053 17.6772 13.4053 17.4388C13.4053 17.0857 13.3095 16.7992 13.1179 16.5791C12.9263 16.359 12.6369 16.2008 12.2497 16.1045L11.5552 15.9326C11.3676 15.8867 11.2378 15.8317 11.166 15.7675C11.0981 15.6988 11.0642 15.6162 11.0642 15.5199C11.0642 15.4237 11.0901 15.3388 11.142 15.2655C11.1979 15.1921 11.2777 15.1371 11.3815 15.1004C11.4853 15.0591 11.611 15.0385 11.7587 15.0385C11.8945 15.0385 12.0342 15.0546 12.1779 15.0867C12.3256 15.1142 12.4573 15.1577 12.5731 15.2173C12.6968 15.2769 12.8026 15.2953 12.8904 15.2724C12.9822 15.2448 13.0541 15.1921 13.1059 15.1142C13.1618 15.0362 13.1938 14.9468 13.2017 14.8459C13.2097 14.7405 13.1938 14.6396 13.1538 14.5433C13.1139 14.447 13.0481 14.3714 12.9563 14.3164C12.8006 14.2109 12.615 14.133 12.3994 14.0825C12.1879 14.0275 11.9783 14 11.7707 14C11.5033 14 11.2598 14.039 11.0402 14.1169C10.8247 14.1903 10.6371 14.2957 10.4774 14.4333C10.3217 14.5708 10.2 14.7382 10.1122 14.9354C10.0283 15.1279 9.98642 15.3434 9.98642 15.5818C9.98642 15.9441 10.0802 16.2398 10.2678 16.4691C10.4554 16.6983 10.7409 16.8588 11.1241 16.9505L11.8246 17.1224C12.0122 17.1683 12.1419 17.2233 12.2138 17.2875C12.2896 17.3517 12.3276 17.4365 12.3276 17.542C12.3276 17.6612 12.2737 17.762 12.1659 17.8446C12.0621 17.9225 11.8785 17.9615 11.615 17.9615C11.4474 17.9615 11.2678 17.9386 11.0762 17.8927C10.8846 17.8469 10.7129 17.7827 10.5612 17.7001C10.4455 17.6405 10.3417 17.6268 10.2499 17.6589C10.1581 17.6864 10.0842 17.7437 10.0283 17.8308C9.97245 17.9133 9.93852 18.0096 9.92654 18.1197C9.91457 18.2297 9.93053 18.3352 9.97444 18.436C10.0184 18.5323 10.0942 18.6103 10.202 18.6699C10.3257 18.7387 10.4654 18.7983 10.6211 18.8487C10.7768 18.8991 10.9404 18.9358 11.1121 18.9587C11.2877 18.9862 11.4554 19 11.615 19ZM6.55086 18.9862C6.73448 18.9862 6.87219 18.9312 6.964 18.8212C7.05581 18.7066 7.10172 18.5484 7.10172 18.3466V17.2531H8.02979C8.5088 17.2531 8.87803 17.1133 9.13749 16.8336C9.40095 16.5493 9.53267 16.1596 9.53267 15.6644C9.53267 15.1692 9.40095 14.7818 9.13749 14.5021C8.87803 14.2178 8.5088 14.0757 8.02979 14.0757H6.55685C6.38121 14.0757 6.24349 14.1307 6.1437 14.2407C6.0479 14.3508 6 14.5089 6 14.7153V18.3466C6 18.5484 6.0479 18.7066 6.1437 18.8212C6.2395 18.9312 6.37522 18.9862 6.55086 18.9862ZM14.0901 18.7593C14.1899 18.8693 14.3336 18.9243 14.5212 18.9243H15.6948C16.062 18.9243 16.3873 18.8716 16.6708 18.7662C16.9582 18.6561 17.1997 18.4979 17.3953 18.2916C17.5908 18.0807 17.7405 17.8262 17.8443 17.5282C17.9481 17.2256 18 16.8817 18 16.4966C18 15.7263 17.7984 15.1302 17.3953 14.7084C16.9961 14.2866 16.4293 14.0757 15.6948 14.0757H14.5212C14.3336 14.0757 14.1899 14.133 14.0901 14.2476C13.9943 14.3576 13.9464 14.5181 13.9464 14.729V18.271C13.9464 18.4819 13.9943 18.6447 14.0901 18.7593Z" fill="currentColor"/>
<path d="M14.8399 2.61172L20.2768 8.24999H15C14.8619 8.24999 14.75 8.13806 14.75 7.99999V2.52417C14.7808 2.55232 14.8108 2.58151 14.8399 2.61172Z" fill="currentColor"/>
</svg>
