<svg viewBox="0 0 24 24" fill="currentColor" xmlns="http://www.w3.org/2000/svg">
<path d="M13.609 1.26868C12.9219 -0.0895606 11.0781 -0.0895586 10.391 1.26868L8.16873 5.66144C7.98174 6.03105 8.12979 6.48225 8.4994 6.66923C8.86901 6.85622 9.32021 6.70817 9.5072 6.33856L11.7295 1.9458C11.8084 1.78985 11.9192 1.75 12 1.75C12.0808 1.75 12.1916 1.78985 12.2705 1.9458L15.6482 8.62237L14.387 9.35049C14.1475 9.48879 14.0035 9.7477 14.0124 10.0242C14.0213 10.3006 14.1817 10.5497 14.4296 10.6723L17.6617 12.2704C17.8864 12.3815 18.1519 12.373 18.3691 12.2476C18.5862 12.1222 18.7264 11.8966 18.7425 11.6464L18.9746 8.04828C18.9924 7.77225 18.8568 7.50884 18.6218 7.3629C18.3869 7.21696 18.0907 7.21219 17.8511 7.35049L16.9492 7.87122L13.609 1.26868Z" fill="currentColor"/>
<path d="M8.06872 8.95173C8.05258 8.70149 7.91245 8.47586 7.69528 8.35048C7.47811 8.2251 7.21265 8.21655 6.98786 8.32769L3.75581 9.92577C3.50786 10.0484 3.34752 10.2975 3.33861 10.5739C3.32971 10.8504 3.47369 11.1093 3.71323 11.2476L4.97436 11.9757L1.4676 18.9075C1.1505 19.5343 1.19925 20.2317 1.48896 20.7723C1.77953 21.3146 2.34617 21.75 3.07659 21.75H5.96396C6.37817 21.75 6.71396 21.4142 6.71396 21C6.71396 20.5858 6.37817 20.25 5.96396 20.25H3.07659C2.98731 20.25 2.88503 20.2018 2.81112 20.0639C2.73635 19.9244 2.72508 19.7447 2.80607 19.5846L6.27539 12.7269L7.17733 13.2476C7.41687 13.3859 7.71308 13.3811 7.94804 13.2352C8.18301 13.0892 8.31857 12.8258 8.30077 12.5498L8.06872 8.95173Z" fill="currentColor"/>
<path d="M20.3843 14.6614C20.1973 14.2918 19.7461 14.1438 19.3765 14.3308C19.0069 14.5177 18.8589 14.969 19.0459 15.3386L21.1939 19.5846C21.2749 19.7447 21.2636 19.9244 21.1889 20.0639C21.115 20.2018 21.0127 20.25 20.9234 20.25H13.75V19C13.75 18.7234 13.5978 18.4693 13.3539 18.3387C13.11 18.2082 12.8141 18.2225 12.584 18.376L9.58397 20.376C9.37532 20.5151 9.25 20.7492 9.25 21C9.25 21.2508 9.37532 21.4849 9.58397 21.624L12.584 23.624C12.8141 23.7775 13.11 23.7918 13.3539 23.6613C13.5978 23.5307 13.75 23.2766 13.75 23V21.75H20.9234C21.6538 21.75 22.2205 21.3146 22.511 20.7723C22.8007 20.2317 22.8495 19.5343 22.5324 18.9075L20.3843 14.6614Z" fill="currentColor"/>
</svg>
