<svg viewBox="0 0 24 24" fill="currentColor" xmlns="http://www.w3.org/2000/svg">
<path d="M2 5C2 3.89543 2.89543 3 4 3H20C21.1046 3 22 3.89543 22 5V6.25H2V5Z" fill="currentColor"/>
<path d="M2 7.75H22V19C22 20.1046 21.1046 21 20 21H4C2.89543 21 2 20.1046 2 19V7.75ZM11.002 12.9428C10.7232 12.6917 10.308 12.6883 10.0261 12.9185C10.4084 12.2219 11.1487 11.75 12 11.75C13.2435 11.75 14.2501 12.7567 14.2501 14C14.2501 15.2433 13.2435 16.25 12 16.25C11.5858 16.25 11.25 16.5858 11.25 17C11.25 17.4142 11.5858 17.75 12 17.75C14.072 17.75 15.7501 16.0716 15.7501 14C15.7501 11.9284 14.072 10.25 12 10.25C10.2242 10.25 8.73775 11.4829 8.34909 13.1395L8.1793 12.9697C7.88642 12.6768 7.41155 12.6768 7.11864 12.9696C6.82573 13.2625 6.8257 13.7374 7.11858 14.0303L8.61841 15.5303C8.76386 15.6758 8.96266 15.7551 9.1683 15.7497C9.37393 15.7444 9.56834 15.6548 9.70601 15.502L11.0572 14.002C11.3345 13.6942 11.3097 13.22 11.002 12.9428Z" fill="currentColor"/>
</svg>
