<svg viewBox="0 0 24 24" fill="currentColor" xmlns="http://www.w3.org/2000/svg">
<path d="M5 2H19C20.6569 2 22 3.34315 22 5V19C22 20.6569 20.6569 22 19 22H5C3.34315 22 2 20.6569 2 19V5C2 3.34315 3.34315 2 5 2ZM5.75 12C5.75 8.54826 8.52417 5.75 12 5.75C13.8682 5.75 15.3249 6.43637 16.3788 7.21431L15.3312 8.39401C15.1351 8.6148 15.0869 8.93008 15.2079 9.19941C15.3289 9.46874 15.5967 9.642 15.892 9.642H19C19.4142 9.642 19.75 9.30621 19.75 8.892V5.392C19.75 5.08055 19.5575 4.8015 19.2664 4.69089C18.9752 4.58028 18.646 4.66112 18.4392 4.89401L17.3782 6.08887C16.1244 5.13662 14.3289 4.25 12 4.25C7.69183 4.25 4.25 7.72374 4.25 12C4.25 12.4142 4.58579 12.75 5 12.75C5.41421 12.75 5.75 12.4142 5.75 12ZM19.75 12C19.75 11.5858 19.4142 11.25 19 11.25C18.5858 11.25 18.25 11.5858 18.25 12C18.25 15.4498 15.4498 18.25 12 18.25C10.5534 18.25 9.32277 17.6188 8.36834 16.8599L9.49736 15.611C9.69619 15.391 9.74678 15.0746 9.62646 14.8036C9.50614 14.5327 9.23748 14.358 8.941 14.358H5.777C5.36279 14.358 5.027 14.6938 5.027 15.108V18.608C5.027 18.9182 5.21801 19.1965 5.50753 19.3079C5.79705 19.4194 6.12532 19.3411 6.33336 19.111L7.3608 17.9744C8.48997 18.8898 10.064 19.75 12 19.75C16.2782 19.75 19.75 16.2782 19.75 12Z" fill="currentColor"/>
</svg>
