<svg viewBox="0 0 24 24" fill="currentColor" xmlns="http://www.w3.org/2000/svg">
<path d="M12.978 2.28226C12.3705 1.94172 11.6295 1.94172 11.022 2.28226L6.02205 5.08507C5.93957 5.1313 5.86121 5.18288 5.78728 5.23924L12 8.72186L18.2127 5.23924C18.1388 5.18288 18.0604 5.1313 17.978 5.08507L12.978 2.28226Z" fill="currentColor"/>
<path d="M18.9775 6.53003L12.75 10.0209V16.9909C12.8276 16.9595 12.9038 16.923 12.978 16.8814L17.978 14.0786C18.6091 13.7248 19 13.0576 19 12.334V6.82956C19 6.72838 18.9924 6.6283 18.9775 6.53003Z" fill="currentColor"/>
<path d="M11.25 10.0209V16.9909C11.1724 16.9595 11.0962 16.923 11.022 16.8814L6.02205 14.0786C5.39085 13.7248 5 13.0576 5 12.334V6.82956C5 6.72838 5.00764 6.6283 5.02251 6.53003L11.25 10.0209Z" fill="currentColor"/>
<path d="M3.50523 15.5879C3.82989 15.3306 3.88455 14.8589 3.62731 14.5343C3.37008 14.2096 2.89836 14.1549 2.5737 14.4122C1.81667 15.012 1.25 15.7998 1.25 16.75C1.25 17.5709 1.67551 18.2737 2.27482 18.8316C2.87304 19.3885 3.69779 19.8555 4.65415 20.2321C5.80614 20.6857 7.2037 21.0294 8.75 21.2315V22C8.75 22.2626 8.88732 22.5061 9.11204 22.6419C9.33675 22.7777 9.61614 22.7861 9.84863 22.6641L12.3486 21.3516C12.5823 21.2289 12.7343 20.9924 12.7489 20.7289C12.7634 20.4653 12.6384 20.2135 12.4196 20.0659L9.91961 18.3784C9.68971 18.2232 9.39293 18.2076 9.14801 18.3377C8.90308 18.4679 8.75 18.7226 8.75 19V19.7178C7.38892 19.5271 6.18087 19.2212 5.20371 18.8364C4.35043 18.5004 3.71071 18.119 3.29688 17.7337C2.88413 17.3495 2.75 17.0165 2.75 16.75C2.75 16.443 2.93157 16.0424 3.50523 15.5879Z" fill="currentColor"/>
<path d="M21.4263 14.4122C21.1016 14.1549 20.6299 14.2096 20.3727 14.5343C20.1155 14.8589 20.1701 15.3306 20.4948 15.5879C21.0684 16.0424 21.25 16.443 21.25 16.75C21.25 17.2067 20.8246 17.8623 19.5314 18.5103C18.3014 19.1267 16.522 19.6047 14.4244 19.8173C14.0123 19.8591 13.7121 20.227 13.7538 20.6391C13.7956 21.0512 14.1635 21.3514 14.5756 21.3096C16.791 21.0851 18.7617 20.5738 20.2034 19.8514C21.5819 19.1606 22.75 18.1281 22.75 16.75C22.75 15.7998 22.1833 15.012 21.4263 14.4122Z" fill="currentColor"/>
</svg>
