<svg viewBox="0 0 24 24" fill="currentColor" xmlns="http://www.w3.org/2000/svg">
<path d="M3 3.25C2.58579 3.25 2.25 3.58579 2.25 4C2.25 4.41421 2.58579 4.75 3 4.75C11.9746 4.75 19.25 12.0254 19.25 21C19.25 21.4142 19.5858 21.75 20 21.75C20.4142 21.75 20.75 21.4142 20.75 21C20.75 11.1969 12.8031 3.25 3 3.25Z" fill="currentColor"/>
<path d="M3 9.25C2.58579 9.25 2.25 9.58579 2.25 10C2.25 10.4142 2.58579 10.75 3 10.75C8.66092 10.75 13.25 15.3391 13.25 21C13.25 21.4142 13.5858 21.75 14 21.75C14.4142 21.75 14.75 21.4142 14.75 21C14.75 14.5107 9.48935 9.25 3 9.25Z" fill="currentColor"/>
<path d="M5 22C6.65685 22 8 20.6569 8 19C8 17.3431 6.65685 16 5 16C3.34315 16 2 17.3431 2 19C2 20.6569 3.34315 22 5 22Z" fill="currentColor"/>
</svg>
