<svg viewBox="0 0 24 24" fill="currentColor" xmlns="http://www.w3.org/2000/svg">
<path d="M7 5.25C6.86193 5.25 6.75 5.13807 6.75 5V2H13.25V5C13.25 5.13807 13.1381 5.25 13 5.25H7Z" fill="currentColor"/>
<path d="M5 2H5.25V5C5.25 5.9665 6.0335 6.75 7 6.75H13C13.9665 6.75 14.75 5.9665 14.75 5V2H15.1716C15.702 2 16.2107 2.21071 16.5858 2.58579L20.4142 6.41421C20.7893 6.78929 21 7.29799 21 7.82843V20C21 21.1046 20.1046 22 19 22H5C3.89543 22 3 21.1046 3 20V4C3 2.89543 3.89543 2 5 2ZM12 18C14.2091 18 16 16.2091 16 14C16 11.7909 14.2091 10 12 10C9.79086 10 8 11.7909 8 14C8 16.2091 9.79086 18 12 18Z" fill="currentColor"/>
</svg>
