<svg viewBox="0 0 24 24" fill="currentColor" xmlns="http://www.w3.org/2000/svg">
<path d="M4 2.75C3.30964 2.75 2.75 3.30964 2.75 4V8C2.75 8.41421 2.41421 8.75 2 8.75C1.58579 8.75 1.25 8.41421 1.25 8V4C1.25 2.48122 2.48122 1.25 4 1.25H8C8.41421 1.25 8.75 1.58579 8.75 2C8.75 2.41421 8.41421 2.75 8 2.75H4Z" fill="currentColor"/>
<path d="M4 21.25C3.30964 21.25 2.75 20.6904 2.75 20V16C2.75 15.5858 2.41421 15.25 2 15.25C1.58579 15.25 1.25 15.5858 1.25 16V20C1.25 21.5188 2.48122 22.75 4 22.75H8C8.41421 22.75 8.75 22.4142 8.75 22C8.75 21.5858 8.41421 21.25 8 21.25H4Z" fill="currentColor"/>
<path d="M21.25 4C21.25 3.30964 20.6904 2.75 20 2.75H16C15.5858 2.75 15.25 2.41421 15.25 2C15.25 1.58579 15.5858 1.25 16 1.25H20C21.5188 1.25 22.75 2.48122 22.75 4V8C22.75 8.41421 22.4142 8.75 22 8.75C21.5858 8.75 21.25 8.41421 21.25 8V4Z" fill="currentColor"/>
<path d="M20 21.25C20.6904 21.25 21.25 20.6904 21.25 20V16C21.25 15.5858 21.5858 15.25 22 15.25C22.4142 15.25 22.75 15.5858 22.75 16V20C22.75 21.5188 21.5188 22.75 20 22.75H16C15.5858 22.75 15.25 22.4142 15.25 22C15.25 21.5858 15.5858 21.25 16 21.25H20Z" fill="currentColor"/>
<path d="M12 10.75C11.3096 10.75 10.75 11.3096 10.75 12C10.75 12.6904 11.3096 13.25 12 13.25C12.6904 13.25 13.25 12.6904 13.25 12C13.25 11.3096 12.6904 10.75 12 10.75Z" fill="currentColor"/>
<path d="M12 7C14.8441 7 17.3164 9.382 18.5753 10.8578C19.1416 11.5216 19.1416 12.4784 18.5753 13.1422C17.3164 14.618 14.8441 17 12 17C9.15594 17 6.68355 14.618 5.42468 13.1422C4.85844 12.4784 4.85844 11.5216 5.42468 10.8578C6.68355 9.382 9.15594 7 12 7ZM9.25 12C9.25 13.5188 10.4812 14.75 12 14.75C13.5188 14.75 14.75 13.5188 14.75 12C14.75 10.4812 13.5188 9.25 12 9.25C10.4812 9.25 9.25 10.4812 9.25 12Z" fill="currentColor"/>
</svg>
