<svg viewBox="0 0 24 24" fill="currentColor" xmlns="http://www.w3.org/2000/svg">
<path d="M4 2H20C21.1046 2 22 2.89543 22 4V7.75H2V4C2 2.89543 2.89543 2 4 2ZM5.75 4C5.75 3.58579 5.41421 3.25 5 3.25C4.58579 3.25 4.25 3.58579 4.25 4V6C4.25 6.41421 4.58579 6.75 5 6.75C5.41421 6.75 5.75 6.41421 5.75 6V4ZM8.75 4C8.75 3.58579 8.41421 3.25 8 3.25C7.58579 3.25 7.25 3.58579 7.25 4V6C7.25 6.41421 7.58579 6.75 8 6.75C8.41421 6.75 8.75 6.41421 8.75 6V4ZM12 5.75H19C19.4142 5.75 19.75 5.41421 19.75 5C19.75 4.58579 19.4142 4.25 19 4.25H12C11.5858 4.25 11.25 4.58579 11.25 5C11.25 5.41421 11.5858 5.75 12 5.75Z" fill="currentColor"/>
<path d="M2 14.75H22V9.25H2V14.75ZM5 10.25C5.41421 10.25 5.75 10.5858 5.75 11V13C5.75 13.4142 5.41421 13.75 5 13.75C4.58579 13.75 4.25 13.4142 4.25 13V11C4.25 10.5858 4.58579 10.25 5 10.25ZM8 10.25C8.41421 10.25 8.75 10.5858 8.75 11V13C8.75 13.4142 8.41421 13.75 8 13.75C7.58579 13.75 7.25 13.4142 7.25 13V11C7.25 10.5858 7.58579 10.25 8 10.25ZM19 12.75H12C11.5858 12.75 11.25 12.4142 11.25 12C11.25 11.5858 11.5858 11.25 12 11.25H19C19.4142 11.25 19.75 11.5858 19.75 12C19.75 12.4142 19.4142 12.75 19 12.75Z" fill="currentColor"/>
<path d="M2 16.25H22V20C22 21.1046 21.1046 22 20 22H4C2.89543 22 2 21.1046 2 20V16.25ZM5.75 18C5.75 17.5858 5.41421 17.25 5 17.25C4.58579 17.25 4.25 17.5858 4.25 18V20C4.25 20.4142 4.58579 20.75 5 20.75C5.41421 20.75 5.75 20.4142 5.75 20V18ZM8.75 18C8.75 17.5858 8.41421 17.25 8 17.25C7.58579 17.25 7.25 17.5858 7.25 18V20C7.25 20.4142 7.58579 20.75 8 20.75C8.41421 20.75 8.75 20.4142 8.75 20V18ZM12 19.75H19C19.4142 19.75 19.75 19.4142 19.75 19C19.75 18.5858 19.4142 18.25 19 18.25H12C11.5858 18.25 11.25 18.5858 11.25 19C11.25 19.4142 11.5858 19.75 12 19.75Z" fill="currentColor"/>
</svg>
