<svg viewBox="0 0 24 24" fill="currentColor" xmlns="http://www.w3.org/2000/svg">
<path d="M10 20.8889C10 20.5821 10.2388 20.3333 10.5333 20.3333H21.4667C21.7612 20.3333 22 20.5821 22 20.8889C22 21.5025 21.5224 22 20.9333 22H11.0667C10.4776 22 10 21.5025 10 20.8889Z" fill="currentColor"/>
<path d="M20 12C20.5523 12 21 12.4477 21 13V18.8102H11V13C11 12.4477 11.4477 12 12 12H20Z" fill="currentColor"/>
<path d="M4 2C2.89543 2 2 2.89543 2 4V9.25H22V4C22 2.89543 21.1046 2 20 2H4ZM5 3.75C5.41421 3.75 5.75 4.08579 5.75 4.5V6.5C5.75 6.91421 5.41421 7.25 5 7.25C4.58579 7.25 4.25 6.91421 4.25 6.5V4.5C4.25 4.08579 4.58579 3.75 5 3.75ZM8 3.75C8.41421 3.75 8.75 4.08579 8.75 4.5V6.5C8.75 6.91421 8.41421 7.25 8 7.25C7.58579 7.25 7.25 6.91421 7.25 6.5V4.5C7.25 4.08579 7.58579 3.75 8 3.75ZM11.25 5.5C11.25 5.08579 11.5858 4.75 12 4.75H19C19.4142 4.75 19.75 5.08579 19.75 5.5C19.75 5.91421 19.4142 6.25 19 6.25H12C11.5858 6.25 11.25 5.91421 11.25 5.5Z" fill="currentColor"/>
<path d="M2 10.75H10.909C10.0749 11.1552 9.5 12.0104 9.5 13V18H4C2.89543 18 2 17.1046 2 16V10.75ZM5.75 13C5.75 12.5858 5.41421 12.25 5 12.25C4.58579 12.25 4.25 12.5858 4.25 13V15C4.25 15.4142 4.58579 15.75 5 15.75C5.41421 15.75 5.75 15.4142 5.75 15V13ZM8.75 13C8.75 12.5858 8.41421 12.25 8 12.25C7.58579 12.25 7.25 12.5858 7.25 13V15C7.25 15.4142 7.58579 15.75 8 15.75C8.41421 15.75 8.75 15.4142 8.75 15V13Z" fill="currentColor"/>
<path d="M21.091 10.75C21.4506 10.9247 21.762 11.183 22 11.4998V10.75H21.091Z" fill="currentColor"/>
</svg>
