<svg viewBox="0 0 24 24" fill="currentColor" xmlns="http://www.w3.org/2000/svg">
<path d="M4 2C2.89543 2 2 2.89543 2 4V9.25H22V4C22 2.89543 21.1046 2 20 2H4ZM5 3.75C5.41421 3.75 5.75 4.08579 5.75 4.5V6.5C5.75 6.91421 5.41421 7.25 5 7.25C4.58579 7.25 4.25 6.91421 4.25 6.5V4.5C4.25 4.08579 4.58579 3.75 5 3.75ZM8 3.75C8.41421 3.75 8.75 4.08579 8.75 4.5V6.5C8.75 6.91421 8.41421 7.25 8 7.25C7.58579 7.25 7.25 6.91421 7.25 6.5V4.5C7.25 4.08579 7.58579 3.75 8 3.75ZM11.25 5.5C11.25 5.08579 11.5858 4.75 12 4.75H19C19.4142 4.75 19.75 5.08579 19.75 5.5C19.75 5.91421 19.4142 6.25 19 6.25H12C11.5858 6.25 11.25 5.91421 11.25 5.5Z" fill="currentColor"/>
<path d="M2 10.75H12.5067C10.6895 12.0144 9.5 14.1183 9.5 16.5C9.5 17.0149 9.55559 17.5168 9.66109 18H4C2.89543 18 2 17.1046 2 16V10.75ZM5.75 13C5.75 12.5858 5.41421 12.25 5 12.25C4.58579 12.25 4.25 12.5858 4.25 13V15C4.25 15.4142 4.58579 15.75 5 15.75C5.41421 15.75 5.75 15.4142 5.75 15V13ZM8.75 13C8.75 12.5858 8.41421 12.25 8 12.25C7.58579 12.25 7.25 12.5858 7.25 13V15C7.25 15.4142 7.58579 15.75 8 15.75C8.41421 15.75 8.75 15.4142 8.75 15V13Z" fill="currentColor"/>
<path d="M20.4933 10.75C21.063 11.1464 21.571 11.6253 22 12.1694V10.75H20.4933Z" fill="currentColor"/>
<path d="M12.8712 12.8495C13.1784 12.9724 13.5322 13.081 13.9237 13.1706C14.0134 12.8312 14.1174 12.5129 14.2343 12.2206C14.3921 11.8262 14.581 11.4598 14.8043 11.1475C13.8905 11.4406 13.0806 11.9658 12.444 12.6537C12.5695 12.7199 12.7117 12.7857 12.8712 12.8495Z" fill="currentColor"/>
<path d="M12.3142 14.242C12.7127 14.4014 13.1594 14.5368 13.6424 14.6447C13.5721 15.2022 13.5351 15.7905 13.5351 16.3955C13.5351 17.0006 13.5721 17.5888 13.6424 18.1464C13.1594 18.2543 12.7127 18.3896 12.3142 18.5491C12.0549 18.6528 11.8077 18.7699 11.5801 18.9015C11.1956 18.1497 10.9787 17.2979 10.9787 16.3955C10.9787 15.4931 11.1956 14.6414 11.5801 13.8896C11.8077 14.0211 12.0549 14.1383 12.3142 14.242Z" fill="currentColor"/>
<path d="M21.3986 18.9015C21.7831 18.1497 22 17.2979 22 16.3955C22 15.4931 21.7831 14.6414 21.3986 13.8896C21.1709 14.0211 20.9238 14.1383 20.6645 14.242C20.2659 14.4014 19.8192 14.5368 19.3363 14.6447C19.4065 15.2022 19.4436 15.7905 19.4436 16.3955C19.4436 17.0006 19.4065 17.5888 19.3363 18.1464C19.8192 18.2543 20.2659 18.3896 20.6645 18.5491C20.9238 18.6528 21.1709 18.7699 21.3986 18.9015Z" fill="currentColor"/>
<path d="M19.055 19.6207C19.4464 19.7103 19.8003 19.819 20.1074 19.9419C20.267 20.0057 20.4092 20.0715 20.5346 20.1377C19.898 20.8256 19.0882 21.3508 18.1744 21.6439C18.3977 21.3316 18.5866 20.9652 18.7443 20.5708C18.8613 20.2784 18.9653 19.9602 19.055 19.6207Z" fill="currentColor"/>
<path d="M17.8536 17.9143C17.9117 17.4385 17.9436 16.9287 17.9436 16.3956C17.9436 15.8626 17.9117 15.3527 17.8536 14.877C17.4131 14.9193 16.9562 14.9414 16.4893 14.9414C16.0224 14.9414 15.5655 14.9193 15.125 14.877C15.067 15.3527 15.0351 15.8626 15.0351 16.3956C15.0351 16.9287 15.067 17.4385 15.125 17.9143C15.5655 17.872 16.0224 17.8499 16.4893 17.8499C16.9562 17.8499 17.4131 17.872 17.8536 17.9143Z" fill="currentColor"/>
<path d="M15.417 19.3941C15.7609 19.3653 16.1195 19.3499 16.4893 19.3499C16.8592 19.3499 17.2178 19.3653 17.5617 19.3941C17.4978 19.617 17.4274 19.8242 17.3516 20.0137C17.1731 20.46 16.9793 20.7709 16.8024 20.9579C16.6271 21.1433 16.521 21.1563 16.4893 21.1563C16.4577 21.1563 16.3516 21.1433 16.1762 20.9579C15.9994 20.7709 15.8056 20.46 15.627 20.0137C15.5512 19.8242 15.4808 19.617 15.417 19.3941Z" fill="currentColor"/>
<path d="M13.9237 19.6207C14.0134 19.9602 14.1174 20.2784 14.2343 20.5708C14.3921 20.9652 14.581 21.3316 14.8043 21.6439C13.8905 21.3508 13.0806 20.8256 12.444 20.1377C12.5695 20.0715 12.7117 20.0057 12.8712 19.9419C13.1784 19.819 13.5322 19.7103 13.9237 19.6207Z" fill="currentColor"/>
<path d="M16.4893 13.4414C16.8592 13.4414 17.2178 13.426 17.5617 13.3972C17.4978 13.1743 17.4274 12.967 17.3516 12.7776C17.1731 12.3312 16.9793 12.0204 16.8024 11.8334C16.6271 11.6479 16.521 11.635 16.4893 11.635C16.4577 11.635 16.3516 11.6479 16.1762 11.8334C15.9994 12.0204 15.8056 12.3312 15.627 12.7776C15.5512 12.967 15.4808 13.1743 15.417 13.3972C15.7609 13.426 16.1195 13.4414 16.4893 13.4414Z" fill="currentColor"/>
<path d="M20.1074 12.8495C20.267 12.7857 20.4092 12.7199 20.5346 12.6537C19.898 11.9658 19.0882 11.4406 18.1744 11.1475C18.3977 11.4598 18.5866 11.8262 18.7443 12.2206C18.8613 12.5129 18.9653 12.8312 19.055 13.1706C19.4464 13.081 19.8003 12.9724 20.1074 12.8495Z" fill="currentColor"/>
</svg>
