<svg viewBox="0 0 24 24" fill="currentColor" xmlns="http://www.w3.org/2000/svg">
<path d="M11.5302 11.578C11.2136 11.6828 11 11.9768 11 12.3079V14.409C11 17.7429 13.0628 20.7348 16.1945 21.9431C16.391 22.019 16.609 22.019 16.8055 21.9431C19.9372 20.7348 22 17.7429 22 14.409V12.3079C22 11.9768 21.7864 11.6828 21.4698 11.578L16.8865 10.0622C16.6356 9.97927 16.3644 9.97927 16.1135 10.0622L11.5302 11.578Z" fill="currentColor"/>
<path d="M4 2C2.89543 2 2 2.89543 2 4V9.25H13.7923L15.6425 8.63809C16.1992 8.45397 16.8008 8.45397 17.3575 8.63809L19.2077 9.25H22V4C22 2.89543 21.1046 2 20 2H4ZM5 3.75C5.41421 3.75 5.75 4.08579 5.75 4.5V6.5C5.75 6.91421 5.41421 7.25 5 7.25C4.58579 7.25 4.25 6.91421 4.25 6.5V4.5C4.25 4.08579 4.58579 3.75 5 3.75ZM8 3.75C8.41421 3.75 8.75 4.08579 8.75 4.5V6.5C8.75 6.91421 8.41421 7.25 8 7.25C7.58579 7.25 7.25 6.91421 7.25 6.5V4.5C7.25 4.08579 7.58579 3.75 8 3.75ZM11.25 5.5C11.25 5.08579 11.5858 4.75 12 4.75H19C19.4142 4.75 19.75 5.08579 19.75 5.5C19.75 5.91421 19.4142 6.25 19 6.25H12C11.5858 6.25 11.25 5.91421 11.25 5.5Z" fill="currentColor"/>
<path d="M10.1209 10.75C9.73239 11.1605 9.5 11.7121 9.5 12.3079V14.409C9.5 15.6659 9.74686 16.8811 10.2024 18H4C2.89543 18 2 17.1046 2 16V10.75H10.1209ZM5.75 13C5.75 12.5858 5.41421 12.25 5 12.25C4.58579 12.25 4.25 12.5858 4.25 13V15C4.25 15.4142 4.58579 15.75 5 15.75C5.41421 15.75 5.75 15.4142 5.75 15V13ZM8.75 13C8.75 12.5858 8.41421 12.25 8 12.25C7.58579 12.25 7.25 12.5858 7.25 13V15C7.25 15.4142 7.58579 15.75 8 15.75C8.41421 15.75 8.75 15.4142 8.75 15V13Z" fill="currentColor"/>
</svg>
