<svg viewBox="0 0 24 24" fill="currentColor" xmlns="http://www.w3.org/2000/svg">
<path d="M15.6361 10H16.3639C16.9249 10 17.423 10.3305 17.6003 10.8205L17.8239 11.4381C17.9083 11.671 18.076 11.8644 18.2948 11.9807L18.6631 12.1765C18.8636 12.2831 19.0945 12.3183 19.3177 12.2762L20.0714 12.1342C20.621 12.0307 21.1809 12.2625 21.4614 12.7098L21.8253 13.2902C22.1058 13.7376 22.0439 14.2999 21.6718 14.6864L21.2075 15.1684C21.0281 15.3548 20.9278 15.6034 20.9278 15.8622V16.1379C20.9278 16.3966 21.0281 16.6452 21.2076 16.8316L21.6718 17.3136C22.044 17.7001 22.1059 18.2625 21.8254 18.7098L21.4614 19.2902C21.181 19.7375 20.6211 19.9694 20.0715 19.8658L19.3177 19.7238C19.0945 19.6818 18.8637 19.7169 18.6631 19.8235L18.2948 20.0193C18.0761 20.1356 17.9083 20.329 17.8239 20.5619L17.6003 21.1795C17.423 21.6695 16.9249 22 16.3639 22H15.6361C15.0751 22 14.5771 21.6695 14.3997 21.1795L14.1761 20.5619C14.0918 20.329 13.924 20.1356 13.7052 20.0193L13.3368 19.8235C13.1363 19.717 12.9055 19.6818 12.6823 19.7238L11.9285 19.8659C11.3789 19.9694 10.819 19.7376 10.5386 19.2902L10.1746 18.7098C9.89413 18.2625 9.95599 17.7001 10.3282 17.3137L10.7924 16.8316C10.9719 16.6453 11.0721 16.3967 11.0721 16.138L11.0722 15.8621C11.0722 15.6034 10.9719 15.3547 10.7924 15.1684L10.3282 14.6864C9.956 14.2999 9.89415 13.7375 10.1746 13.2902L10.5386 12.7098C10.8191 12.2625 11.3789 12.0306 11.9285 12.1342L12.6823 12.2762C12.9055 12.3182 13.1363 12.2831 13.3369 12.1765L13.7052 11.9807C13.924 11.8644 14.0918 11.671 14.1761 11.4381L14.3997 10.8205C14.5771 10.3305 15.0751 10 15.6361 10ZM16 18C17.1046 18 18 17.1046 18 16C18 14.8954 17.1046 14 16 14C14.8954 14 14 14.8954 14 16C14 17.1046 14.8954 18 16 18Z" fill="currentColor"/>
<path d="M4 2C2.89543 2 2 2.89543 2 4V9.25H13.6949C14.2209 8.76593 14.9244 8.5 15.6361 8.5H16.3639C17.0756 8.5 17.7791 8.76593 18.3052 9.25H22V4C22 2.89543 21.1046 2 20 2H4ZM5 3.75C5.41421 3.75 5.75 4.08579 5.75 4.5V6.5C5.75 6.91421 5.41421 7.25 5 7.25C4.58579 7.25 4.25 6.91421 4.25 6.5V4.5C4.25 4.08579 4.58579 3.75 5 3.75ZM8 3.75C8.41421 3.75 8.75 4.08579 8.75 4.5V6.5C8.75 6.91421 8.41421 7.25 8 7.25C7.58579 7.25 7.25 6.91421 7.25 6.5V4.5C7.25 4.08579 7.58579 3.75 8 3.75ZM11.25 5.5C11.25 5.08579 11.5858 4.75 12 4.75H19C19.4142 4.75 19.75 5.08579 19.75 5.5C19.75 5.91421 19.4142 6.25 19 6.25H12C11.5858 6.25 11.25 5.91421 11.25 5.5Z" fill="currentColor"/>
<path d="M10.7761 10.75H2V16C2 17.1046 2.89543 18 4 18H8.50219C8.52937 17.3689 8.78557 16.7531 9.24776 16.2732L9.51082 16L9.24778 15.7269C9.03918 15.5103 8.87255 15.266 8.74998 15.0051C8.74722 15.417 8.4125 15.75 8 15.75C7.58579 15.75 7.25 15.4142 7.25 15V13C7.25 12.5858 7.58579 12.25 8 12.25C8.35256 12.25 8.6483 12.4933 8.72853 12.8211C8.77855 12.7095 8.83693 12.6 8.90381 12.4933L9.26774 11.9129C9.62822 11.3381 10.1711 10.9443 10.7761 10.75ZM5.75 13V15C5.75 15.4142 5.41421 15.75 5 15.75C4.58579 15.75 4.25 15.4142 4.25 15V13C4.25 12.5858 4.58579 12.25 5 12.25C5.41421 12.25 5.75 12.5858 5.75 13Z" fill="currentColor"/>
<path d="M22 11.1376V10.75H21.2237C21.4991 10.8384 21.7617 10.9682 22 11.1376Z" fill="currentColor"/>
</svg>
