<svg viewBox="0 0 24 24" fill="currentColor" xmlns="http://www.w3.org/2000/svg">
<path d="M2 4C2 2.89543 2.89543 2 4 2H20C21.1046 2 22 2.89543 22 4V9.25H15.2731C14.284 8.76951 13.1735 8.5 12 8.5C10.8265 8.5 9.71598 8.76951 8.72691 9.25H2V4ZM5.75 4.5C5.75 4.08579 5.41421 3.75 5 3.75C4.58579 3.75 4.25 4.08579 4.25 4.5V6.5C4.25 6.91421 4.58579 7.25 5 7.25C5.41421 7.25 5.75 6.91421 5.75 6.5V4.5ZM8.75 4.5C8.75 4.08579 8.41421 3.75 8 3.75C7.58579 3.75 7.25 4.08579 7.25 4.5V6.5C7.25 6.91421 7.58579 7.25 8 7.25C8.41421 7.25 8.75 6.91421 8.75 6.5V4.5ZM11.25 5.5C11.25 5.91421 11.5858 6.25 12 6.25H19C19.4142 6.25 19.75 5.91421 19.75 5.5C19.75 5.08579 19.4142 4.75 19 4.75H12C11.5858 4.75 11.25 5.08579 11.25 5.5Z" fill="currentColor"/>
<path d="M6.64393 10.75H2V16C2 17.1046 2.89543 18 4 18H4.76962C4.59388 17.3633 4.5 16.6926 4.5 16C4.5 13.9559 5.31774 12.1028 6.64393 10.75Z" fill="currentColor"/>
<path d="M19.2304 18H20C21.1046 18 22 17.1046 22 16V10.75H17.3561C18.6823 12.1028 19.5 13.9559 19.5 16C19.5 16.6926 19.4061 17.3633 19.2304 18Z" fill="currentColor"/>
<path d="M12 22C8.68629 22 6 19.3137 6 16C6 12.6863 8.68629 10 12 10C15.3137 10 18 12.6863 18 16C18 19.3137 15.3137 22 12 22ZM11.002 14.9428C10.7232 14.6917 10.308 14.6883 10.0261 14.9185C10.4084 14.2219 11.1487 13.75 12 13.75C13.2435 13.75 14.2501 14.7567 14.2501 16C14.2501 17.2433 13.2435 18.25 12 18.25C11.5858 18.25 11.25 18.5858 11.25 19C11.25 19.4142 11.5858 19.75 12 19.75C14.072 19.75 15.7501 18.0716 15.7501 16C15.7501 13.9284 14.072 12.25 12 12.25C10.2242 12.25 8.73776 13.4829 8.34909 15.1395L8.1793 14.9697C7.88642 14.6768 7.41155 14.6768 7.11864 14.9696C6.82573 15.2625 6.8257 15.7374 7.11858 16.0303L8.61841 17.5303C8.76386 17.6758 8.96266 17.7551 9.1683 17.7497C9.37393 17.7444 9.56834 17.6548 9.70601 17.502L11.0572 16.002C11.3345 15.6942 11.3097 15.22 11.002 14.9428Z" fill="currentColor"/>
</svg>
