<svg viewBox="0 0 24 24" fill="currentColor" xmlns="http://www.w3.org/2000/svg">
<path d="M19.7754 14.4415C19.7754 15.0896 19.252 15.6149 18.6062 15.6149C17.9605 15.6149 17.4371 15.0896 17.4371 14.4415C17.4371 13.7935 17.9605 13.2681 18.6062 13.2681C19.252 13.2681 19.7754 13.7935 19.7754 14.4415Z" fill="currentColor"/>
<path d="M11.075 12.8638C11.075 11.8938 11.8585 11.1075 12.825 11.1075H20.1785C21.145 11.1075 21.9285 11.8938 21.9285 12.8638V20.2437C21.9285 21.2137 21.145 22 20.1785 22H12.825C11.8585 22 11.075 21.2137 11.075 20.2437V12.8638ZM12.825 12.6129C12.6869 12.6129 12.575 12.7252 12.575 12.8638V17.4439L14.1054 15.908C14.5158 15.4961 15.1881 15.5202 15.5682 15.9603L17.579 18.2888L18.133 17.7329C18.5235 17.341 19.1567 17.341 19.5472 17.7329L20.4285 18.6174V12.8638C20.4285 12.7252 20.3166 12.6129 20.1785 12.6129H12.825Z" fill="currentColor"/>
<path d="M4 2C2.89543 2 2 2.89864 2 4.00718V9.27601H22V4.00718C22 2.89864 21.1046 2 20 2H4ZM5 3.75628C5.41421 3.75628 5.75 4.09327 5.75 4.50897V6.51615C5.75 6.93185 5.41421 7.26884 5 7.26884C4.58579 7.26884 4.25 6.93185 4.25 6.51615V4.50897C4.25 4.09327 4.58579 3.75628 5 3.75628ZM8 3.75628C8.41421 3.75628 8.75 4.09327 8.75 4.50897V6.51615C8.75 6.93185 8.41421 7.26884 8 7.26884C7.58579 7.26884 7.25 6.93185 7.25 6.51615V4.50897C7.25 4.09327 7.58579 3.75628 8 3.75628ZM11.25 5.51256C11.25 5.09686 11.5858 4.75987 12 4.75987H19C19.4142 4.75987 19.75 5.09686 19.75 5.51256C19.75 5.92826 19.4142 6.26525 19 6.26525H12C11.5858 6.26525 11.25 5.92826 11.25 5.51256Z" fill="currentColor"/>
<path d="M2 10.7814H10.3235C9.85603 11.3463 9.57497 12.0721 9.57497 12.8638V18.0574H4C2.89543 18.0574 2 17.1588 2 16.0502V10.7814ZM5.75 13.0395C5.75 12.6238 5.41421 12.2868 5 12.2868C4.58579 12.2868 4.25 12.6238 4.25 13.0395V15.0466C4.25 15.4623 4.58579 15.7993 5 15.7993C5.41421 15.7993 5.75 15.4623 5.75 15.0466V13.0395ZM8.75 13.0395C8.75 12.6238 8.41421 12.2868 8 12.2868C7.58579 12.2868 7.25 12.6238 7.25 13.0395V15.0466C7.25 15.4623 7.58579 15.7993 8 15.7993C8.41421 15.7993 8.75 15.4623 8.75 15.0466V13.0395Z" fill="currentColor"/>
</svg>
