<svg viewBox="0 0 24 24" fill="currentColor" xmlns="http://www.w3.org/2000/svg">
<path d="M2 4C2 2.89543 2.89543 2 4 2H20C21.1046 2 22 2.89543 22 4V8.25H2V4ZM5.75 4C5.75 3.58579 5.41421 3.25 5 3.25C4.58579 3.25 4.25 3.58579 4.25 4V6C4.25 6.41421 4.58579 6.75 5 6.75C5.41421 6.75 5.75 6.41421 5.75 6V4ZM8.75 4C8.75 3.58579 8.41421 3.25 8 3.25C7.58579 3.25 7.25 3.58579 7.25 4V6C7.25 6.41421 7.58579 6.75 8 6.75C8.41421 6.75 8.75 6.41421 8.75 6V4ZM13 5.75H19C19.4142 5.75 19.75 5.41421 19.75 5C19.75 4.58579 19.4142 4.25 19 4.25H13C12.5858 4.25 12.25 4.58579 12.25 5C12.25 5.41421 12.5858 5.75 13 5.75Z" fill="currentColor"/>
<path d="M2 9.75H22V14C22 15.1046 21.1046 16 20 16H12.75V18.1454C13.2513 18.3483 13.6517 18.7486 13.8546 19.25H22C22.4142 19.25 22.75 19.5858 22.75 20C22.75 20.4142 22.4142 20.75 22 20.75H13.8546C13.5579 21.483 12.8393 22 12 22C11.1607 22 10.4421 21.483 10.1454 20.75H2C1.58579 20.75 1.25 20.4142 1.25 20C1.25 19.5858 1.58579 19.25 2 19.25H10.1454C10.3483 18.7486 10.7487 18.3483 11.25 18.1454V16H4C2.89543 16 2 15.1046 2 14V9.75ZM5 11.25C4.58579 11.25 4.25 11.5858 4.25 12V14C4.25 14.4142 4.58579 14.75 5 14.75C5.41421 14.75 5.75 14.4142 5.75 14V12C5.75 11.5858 5.41421 11.25 5 11.25ZM8 11.25C7.58579 11.25 7.25 11.5858 7.25 12V14C7.25 14.4142 7.58579 14.75 8 14.75C8.41421 14.75 8.75 14.4142 8.75 14V12C8.75 11.5858 8.41421 11.25 8 11.25ZM19 13.75C19.4142 13.75 19.75 13.4142 19.75 13C19.75 12.5858 19.4142 12.25 19 12.25H13C12.5858 12.25 12.25 12.5858 12.25 13C12.25 13.4142 12.5858 13.75 13 13.75H19Z" fill="currentColor"/>
</svg>
