<svg viewBox="0 0 24 24" fill="currentColor" xmlns="http://www.w3.org/2000/svg">
<path d="M4 4H20C21.1046 4 22 4.89543 22 6V9C22 10.1046 21.1046 11 20 11H4C2.89543 11 2 10.1046 2 9V6C2 4.89543 2.89543 4 4 4ZM5.75 6.5C5.75 6.08579 5.41421 5.75 5 5.75C4.58579 5.75 4.25 6.08579 4.25 6.5V8.5C4.25 8.91421 4.58579 9.25 5 9.25C5.41421 9.25 5.75 8.91421 5.75 8.5V6.5ZM8.75 6.5C8.75 6.08579 8.41421 5.75 8 5.75C7.58579 5.75 7.25 6.08579 7.25 6.5V8.5C7.25 8.91421 7.58579 9.25 8 9.25C8.41421 9.25 8.75 8.91421 8.75 8.5V6.5ZM12 6.75C11.5858 6.75 11.25 7.08579 11.25 7.5C11.25 7.91421 11.5858 8.25 12 8.25H19C19.4142 8.25 19.75 7.91421 19.75 7.5C19.75 7.08579 19.4142 6.75 19 6.75H12Z" fill="currentColor"/>
<path d="M4 13C2.89543 13 2 13.8954 2 15V18C2 19.1046 2.89543 20 4 20H20C21.1046 20 22 19.1046 22 18V15C22 13.8954 21.1046 13 20 13H4ZM5 14.75C5.41421 14.75 5.75 15.0858 5.75 15.5V17.5C5.75 17.9142 5.41421 18.25 5 18.25C4.58579 18.25 4.25 17.9142 4.25 17.5V15.5C4.25 15.0858 4.58579 14.75 5 14.75ZM8 14.75C8.41421 14.75 8.75 15.0858 8.75 15.5V17.5C8.75 17.9142 8.41421 18.25 8 18.25C7.58579 18.25 7.25 17.9142 7.25 17.5V15.5C7.25 15.0858 7.58579 14.75 8 14.75ZM11.25 16.5C11.25 16.0858 11.5858 15.75 12 15.75H19C19.4142 15.75 19.75 16.0858 19.75 16.5C19.75 16.9142 19.4142 17.25 19 17.25H12C11.5858 17.25 11.25 16.9142 11.25 16.5Z" fill="currentColor"/>
</svg>
