<svg viewBox="0 0 24 24" fill="currentColor" xmlns="http://www.w3.org/2000/svg">
<path d="M22 21C22 21.5523 21.5523 22 21 22H11C10.4477 22 10 21.5523 10 21V14C10 13.4477 10.4477 13 11 13H14.4046C14.6586 13 14.9031 13.0967 15.0885 13.2705L16.3115 14.417C16.4969 14.5908 16.7414 14.6875 16.9954 14.6875H21C21.5523 14.6875 22 15.1352 22 15.6875V21Z" fill="currentColor"/>
<path d="M2 4C2 2.89543 2.89543 2 4 2H20C21.1046 2 22 2.89543 22 4V9.25H2V4ZM5.75 4.5C5.75 4.08579 5.41421 3.75 5 3.75C4.58579 3.75 4.25 4.08579 4.25 4.5V6.5C4.25 6.91421 4.58579 7.25 5 7.25C5.41421 7.25 5.75 6.91421 5.75 6.5V4.5ZM8.75 4.5C8.75 4.08579 8.41421 3.75 8 3.75C7.58579 3.75 7.25 4.08579 7.25 4.5V6.5C7.25 6.91421 7.58579 7.25 8 7.25C8.41421 7.25 8.75 6.91421 8.75 6.5V4.5ZM12 4.75C11.5858 4.75 11.25 5.08579 11.25 5.5C11.25 5.91421 11.5858 6.25 12 6.25H19C19.4142 6.25 19.75 5.91421 19.75 5.5C19.75 5.08579 19.4142 4.75 19 4.75H12Z" fill="currentColor"/>
<path d="M2 16V10.75H22V13.3955C21.6938 13.2617 21.3556 13.1875 21 13.1875H17.1932L16.1144 12.1762C15.651 11.7418 15.0397 11.5 14.4046 11.5H11C10.0068 11.5 9.14894 12.0791 8.74558 12.9181C8.70479 12.5424 8.38654 12.25 8 12.25C7.58579 12.25 7.25 12.5858 7.25 13V15C7.25 15.4142 7.58579 15.75 8 15.75C8.19209 15.75 8.36731 15.6778 8.5 15.559V18H4C2.89543 18 2 17.1046 2 16ZM5 12.25C4.58579 12.25 4.25 12.5858 4.25 13V15C4.25 15.4142 4.58579 15.75 5 15.75C5.41421 15.75 5.75 15.4142 5.75 15V13C5.75 12.5858 5.41421 12.25 5 12.25Z" fill="currentColor"/>
</svg>
