<svg viewBox="0 0 24 24" fill="currentColor" xmlns="http://www.w3.org/2000/svg">
<path d="M14.4062 15.5135V13.8919C14.4062 12.847 15.2877 12 16.375 12H18.625C19.7123 12 20.5938 12.847 20.5938 13.8919V15.5135H20.875C21.4963 15.5135 22 15.9975 22 16.5946V20.9189C22 21.516 21.4963 22 20.875 22H14.125C13.5037 22 13 21.516 13 20.9189V16.5946C13 15.9975 13.5037 15.5135 14.125 15.5135H14.4062ZM16.0938 13.8919V15.5135H18.9062V13.8919C18.9062 13.7426 18.7803 13.6216 18.625 13.6216H16.375C16.2197 13.6216 16.0938 13.7426 16.0938 13.8919Z" fill="currentColor"/>
<path d="M2 4C2 2.89543 2.89543 2 4 2H20C21.1046 2 22 2.89543 22 4V9.25H2V4ZM5.75 4.5C5.75 4.08579 5.41421 3.75 5 3.75C4.58579 3.75 4.25 4.08579 4.25 4.5V6.5C4.25 6.91421 4.58579 7.25 5 7.25C5.41421 7.25 5.75 6.91421 5.75 6.5V4.5ZM8.75 4.5C8.75 4.08579 8.41421 3.75 8 3.75C7.58579 3.75 7.25 4.08579 7.25 4.5V6.5C7.25 6.91421 7.58579 7.25 8 7.25C8.41421 7.25 8.75 6.91421 8.75 6.5V4.5ZM12 4.75C11.5858 4.75 11.25 5.08579 11.25 5.5C11.25 5.91421 11.5858 6.25 12 6.25H19C19.4142 6.25 19.75 5.91421 19.75 5.5C19.75 5.08579 19.4142 4.75 19 4.75H12Z" fill="currentColor"/>
<path d="M2 16C2 17.1046 2.89543 18 4 18H11.5V16.5946C11.5 15.8547 11.8074 15.21 12.2887 14.75H12C11.5858 14.75 11.25 14.4142 11.25 14C11.25 13.5858 11.5858 13.25 12 13.25H12.9674C13.1916 12.0919 14.0116 11.1715 15.0705 10.75H2V16ZM5 12.25C5.41421 12.25 5.75 12.5858 5.75 13V15C5.75 15.4142 5.41421 15.75 5 15.75C4.58579 15.75 4.25 15.4142 4.25 15V13C4.25 12.5858 4.58579 12.25 5 12.25ZM8 12.25C8.41421 12.25 8.75 12.5858 8.75 13V15C8.75 15.4142 8.41421 15.75 8 15.75C7.58579 15.75 7.25 15.4142 7.25 15V13C7.25 12.5858 7.58579 12.25 8 12.25Z" fill="currentColor"/>
<path d="M22 13.1001V10.75H19.9295C20.9423 11.1531 21.7366 12.0127 22 13.1001Z" fill="currentColor"/>
</svg>
