<svg viewBox="0 0 24 24" fill="currentColor" xmlns="http://www.w3.org/2000/svg">
<path d="M16.3525 3.39092C17.4602 3.33095 18.5838 3.71434 19.4258 4.53725C20.993 6.06886 20.993 8.54835 19.4258 10.08C18.8433 10.6492 18.1262 11.0081 17.3727 11.1555C17.7651 9.6958 17.3877 8.07001 16.2239 6.91789C14.4305 5.14238 11.5009 5.21547 9.80016 7.07815L3.01283 14.5116C1.61141 16.0464 1.67131 18.3994 3.14903 19.8624C4.62675 21.3254 7.00347 21.3847 8.55374 19.9973L16.062 13.2776C16.2899 13.0737 16.4912 12.8519 16.6659 12.6165C18.0204 12.5948 19.3717 12.0788 20.4085 11.0655C22.5305 8.99167 22.5305 5.62554 20.4085 3.55169C19.2721 2.44115 17.7581 1.9279 16.2761 2.00813C15.8904 2.02901 15.5949 2.35549 15.6159 2.73734C15.637 3.11918 15.9668 3.4118 16.3525 3.39092ZM9.19228 14.8591L6.28154 17.7408C6.00841 18.0112 5.56557 18.0112 5.29244 17.7408C5.0193 17.4704 5.0193 17.032 5.29244 16.7616L8.20318 13.8799C8.47631 13.6094 8.91915 13.6094 9.19228 13.8799C9.46541 14.1503 9.46541 14.5887 9.19228 14.8591ZM14.2457 11.4877C13.5174 12.2088 12.3365 12.2088 11.6081 11.4877C10.8798 10.7666 10.8798 9.59749 11.6081 8.8764C12.3365 8.15531 13.5174 8.15531 14.2457 8.8764C14.9741 9.59749 14.9741 10.7666 14.2457 11.4877Z" fill="currentColor"/>
</svg>
