<svg viewBox="0 0 24 24" fill="currentColor" xmlns="http://www.w3.org/2000/svg">
<path d="M5.27336 8H3C2.44772 8 2 8.44772 2 9V10C2 10.5523 2.44772 11 3 11H4L5.15882 19.2773C5.29711 20.2651 6.14207 21 7.1395 21H16.8605C17.8579 21 18.7029 20.2651 18.8412 19.2773L20 11H21C21.5523 11 22 10.5523 22 10V9C22 8.44772 21.5523 8 21 8H18.7266L17.1931 4.01281C16.7846 2.95078 15.7643 2.25 14.6264 2.25H9.3736C8.23573 2.25 7.21537 2.95078 6.8069 4.01281L5.27336 8ZM8.20692 4.55128C8.39259 4.06854 8.85638 3.75 9.3736 3.75H14.6264C15.1436 3.75 15.6074 4.06854 15.7931 4.55128L17.1195 8H6.88048L8.20692 4.55128ZM8.35291 12.2646C8.75908 12.1833 9.1542 12.4467 9.23544 12.8529L10.2354 17.8529C10.3167 18.2591 10.0533 18.6542 9.64709 18.7354C9.24092 18.8167 8.8458 18.5533 8.76456 18.1471L7.76456 13.1471C7.68333 12.7409 7.94674 12.3458 8.35291 12.2646ZM14.7646 12.8529C14.8458 12.4467 15.2409 12.1833 15.6471 12.2646C16.0533 12.3458 16.3167 12.7409 16.2354 13.1471L15.2354 18.1471C15.1542 18.5533 14.7591 18.8167 14.3529 18.7354C13.9467 18.6542 13.6833 18.2591 13.7646 17.8529L14.7646 12.8529Z" fill="currentColor"/>
</svg>
