<svg viewBox="0 0 24 24" fill="currentColor" xmlns="http://www.w3.org/2000/svg">
<path d="M5.46193 4.47236C5.75334 4.76672 5.75095 5.24159 5.45658 5.533C3.78257 7.19018 2.75 9.47573 2.75 12C2.75 14.5243 3.78257 16.8098 5.45658 18.467C5.75095 18.7584 5.75334 19.2333 5.46193 19.5276C5.17052 19.822 4.69566 19.8244 4.40129 19.533C2.45601 17.6073 1.25 14.9431 1.25 12C1.25 9.05693 2.45601 6.39273 4.40129 4.467C4.69566 4.17559 5.17052 4.17799 5.46193 4.47236Z" fill="currentColor"/>
<path d="M18.5381 4.47236C18.8295 4.17799 19.3043 4.17559 19.5987 4.467C21.544 6.39273 22.75 9.05693 22.75 12C22.75 14.9431 21.544 17.6073 19.5987 19.533C19.3043 19.8244 18.8295 19.822 18.5381 19.5276C18.2467 19.2333 18.2491 18.7584 18.5434 18.467C20.2174 16.8098 21.25 14.5243 21.25 12C21.25 9.47573 20.2174 7.19018 18.5434 5.533C18.2491 5.24159 18.2467 4.76672 18.5381 4.47236Z" fill="currentColor"/>
<path d="M8.29036 7.27241C8.58177 7.56677 8.57937 8.04164 8.285 8.33305C7.33485 9.27365 6.75 10.5692 6.75 12C6.75 13.4308 7.33485 14.7264 8.285 15.667C8.57937 15.9584 8.58177 16.4333 8.29036 16.7276C7.99895 17.022 7.52408 17.0244 7.22971 16.733C6.00829 15.5239 5.25 13.8496 5.25 12C5.25 10.1504 6.00829 8.4762 7.22971 7.26705C7.52408 6.97564 7.99895 6.97804 8.29036 7.27241Z" fill="currentColor"/>
<path d="M15.7096 7.27241C16.001 6.97804 16.4759 6.97564 16.7703 7.26705C17.9917 8.4762 18.75 10.1504 18.75 12C18.75 13.8496 17.9917 15.5239 16.7703 16.733C16.4759 17.0244 16.001 17.022 15.7096 16.7276C15.4182 16.4333 15.4206 15.9584 15.715 15.667C16.6651 14.7264 17.25 13.4308 17.25 12C17.25 10.5692 16.6651 9.27365 15.715 8.33305C15.4206 8.04164 15.4182 7.56677 15.7096 7.27241Z" fill="currentColor"/>
<path d="M12.75 14.9055C14.0439 14.5725 15 13.3979 15 12C15 10.3431 13.6569 9 12 9C10.3431 9 9 10.3431 9 12C9 13.3979 9.95608 14.5725 11.25 14.9055V22C11.25 22.4142 11.5858 22.75 12 22.75C12.4142 22.75 12.75 22.4142 12.75 22V14.9055Z" fill="currentColor"/>
</svg>
