<svg viewBox="0 0 24 24" fill="currentColor" xmlns="http://www.w3.org/2000/svg">
<path d="M2.34339 10.2191L11.1766 2.30555C11.6314 1.89815 12.3686 1.89815 12.8234 2.30555L21.6566 10.2191C22.3902 10.8763 21.8706 12 20.8332 12H19V20C19 21.1046 18.1046 22 17 22H7C5.89543 22 5 21.1046 5 20V12H3.16678C2.12937 12 1.60983 10.8763 2.34339 10.2191ZM7.20682 12.0402C6.91261 12.3435 6.93498 12.8143 7.25677 13.0916C7.57856 13.3689 8.07793 13.3478 8.37213 13.0445C10.3845 10.9697 13.6155 10.9697 15.6279 13.0445C15.9221 13.3478 16.4214 13.3689 16.7432 13.0916C17.065 12.8143 17.0874 12.3435 16.7932 12.0402C14.1548 9.31993 9.84523 9.31993 7.20682 12.0402ZM9.3121 14.2111C9.01789 14.5144 9.04026 14.9851 9.36205 15.2624C9.68384 15.5398 10.1832 15.5187 10.4774 15.2154C11.3271 14.3393 12.6729 14.3393 13.5226 15.2154C13.8168 15.5187 14.3162 15.5398 14.638 15.2624C14.9598 14.9851 14.9821 14.5144 14.6879 14.2111C13.2122 12.6896 10.7878 12.6896 9.3121 14.2111ZM10.9474 17.0077C10.9474 17.5558 11.4186 18 12 18H12.0095C12.5908 18 13.0621 17.5558 13.0621 17.0077C13.0621 16.4597 12.5908 16.0155 12.0095 16.0155H12C11.4186 16.0155 10.9474 16.4597 10.9474 17.0077Z" fill="currentColor"/>
</svg>
