<svg viewBox="0 0 24 24" fill="currentColor" xmlns="http://www.w3.org/2000/svg">
<path d="M8.5 4C10.9155 4 12.9674 5.55718 13.7064 7.72247C14.3558 7.26719 15.1467 7 16 7C18.2091 7 20 8.79086 20 11C20 11.2443 19.9781 11.4836 19.9361 11.7158C21.1779 12.5168 22 13.9124 22 15.5C22 17.9853 19.9853 20 17.5 20H6.5C4.01472 20 2 17.9853 2 15.5C2 14.1098 2.63045 12.8668 3.62104 12.0413C3.22431 11.2812 3 10.4168 3 9.5C3 6.46243 5.46243 4 8.5 4ZM7.20682 12.0402C6.91261 12.3435 6.93498 12.8143 7.25677 13.0916C7.57856 13.3689 8.07793 13.3478 8.37213 13.0445C10.3845 10.9697 13.6155 10.9697 15.6279 13.0445C15.9221 13.3478 16.4214 13.3689 16.7432 13.0916C17.065 12.8143 17.0874 12.3435 16.7932 12.0402C14.1548 9.31993 9.84523 9.31993 7.20682 12.0402ZM9.3121 14.2111C9.01789 14.5144 9.04026 14.9851 9.36205 15.2624C9.68384 15.5398 10.1832 15.5187 10.4774 15.2154C11.3271 14.3393 12.6729 14.3393 13.5226 15.2154C13.8168 15.5187 14.3162 15.5398 14.638 15.2624C14.9598 14.9851 14.9821 14.5144 14.6879 14.2111C13.2122 12.6896 10.7878 12.6896 9.3121 14.2111ZM11 17C11 17.5523 11.4457 18 11.9955 18H12.0045C12.5543 18 13 17.5523 13 17C13 16.4477 12.5543 16 12.0045 16H11.9955C11.4457 16 11 16.4477 11 17Z" fill="currentColor"/>
</svg>
