<svg viewBox="0 0 24 24" fill="currentColor" xmlns="http://www.w3.org/2000/svg">
<path d="M12 5C6.47715 5 2 9.47715 2 15C2 15.9609 2.13554 16.8902 2.38854 17.7697C2.6083 18.5337 3.34587 19 4.14082 19H19.8592C20.6541 19 21.3917 18.5337 21.6115 17.7697C21.8645 16.8902 22 15.9609 22 15C22 9.47715 17.5228 5 12 5ZM17.25 15C17.25 14.5858 17.5858 14.25 18 14.25H20C20.4142 14.25 20.75 14.5858 20.75 15C20.75 15.4142 20.4142 15.75 20 15.75H18C17.5858 15.75 17.25 15.4142 17.25 15ZM4 14.25H6C6.41421 14.25 6.75 14.5858 6.75 15C6.75 15.4142 6.41421 15.75 6 15.75H4C3.58579 15.75 3.25 15.4142 3.25 15C3.25 14.5858 3.58579 14.25 4 14.25ZM12 9.75C11.5858 9.75 11.25 9.41421 11.25 9V7C11.25 6.58579 11.5858 6.25 12 6.25C12.4142 6.25 12.75 6.58579 12.75 7V9C12.75 9.41421 12.4142 9.75 12 9.75ZM15.7119 10.227L17.1261 8.81278C17.419 8.51989 17.8938 8.51989 18.1867 8.81278C18.4796 9.10567 18.4796 9.58055 18.1867 9.87344L16.7725 11.2877C16.4796 11.5805 16.0048 11.5805 15.7119 11.2877C15.419 10.9948 15.419 10.5199 15.7119 10.227ZM8.28814 11.2877C7.99525 11.5805 7.52038 11.5805 7.22748 11.2877L5.81327 9.87344C5.52038 9.58055 5.52038 9.10567 5.81327 8.81278C6.10616 8.51989 6.58104 8.51989 6.87393 8.81278L8.28814 10.227C8.58104 10.5199 8.58104 10.9948 8.28814 11.2877ZM10 15C10 13.8954 10.8954 13 12 13C12.653 13 13.757 13.6989 14.5507 14.2704C15.0568 14.6349 15.0568 15.3651 14.5507 15.7296C13.757 16.3011 12.653 17 12 17C10.8954 17 10 16.1046 10 15Z" fill="currentColor"/>
</svg>
