<svg viewBox="0 0 24 24" fill="currentColor" xmlns="http://www.w3.org/2000/svg">
<path d="M16.8418 13.8611H15.9278V10.1389H16.8418C17.4511 10.1389 17.9081 10.293 18.2128 10.6011C18.5229 10.9037 18.678 11.3686 18.678 11.9959C18.678 12.3095 18.6399 12.5846 18.5637 12.8212C18.4875 13.0523 18.3733 13.2448 18.221 13.3989C18.0686 13.553 17.8782 13.6685 17.6497 13.7455C17.4212 13.8226 17.1519 13.8611 16.8418 13.8611Z" fill="currentColor"/>
<path d="M5 2C3.89543 2 3 2.89543 3 4V20C3 21.1046 3.89543 22 5 22H19C20.1046 22 21 21.1046 21 20V4C21 2.89543 20.1046 2 19 2H5ZM6.26348 15C6.03498 15 5.80104 14.9807 5.56166 14.9422C5.32772 14.9092 5.10194 14.8597 4.88432 14.7937C4.67215 14.7276 4.48173 14.6451 4.31307 14.5461C4.19338 14.4801 4.10906 14.3948 4.06009 14.2902C4.01113 14.1802 3.99209 14.0702 4.00297 13.9601C4.01929 13.8501 4.06009 13.7538 4.12538 13.6713C4.1961 13.5832 4.28315 13.5282 4.38652 13.5062C4.49533 13.4787 4.61502 13.4979 4.74559 13.564C4.96865 13.6905 5.21075 13.784 5.4719 13.8446C5.73848 13.9051 6.00234 13.9354 6.26348 13.9354C6.66064 13.9354 6.94354 13.8748 7.1122 13.7538C7.28085 13.6272 7.36518 13.4704 7.36518 13.2834C7.36518 13.1238 7.30534 12.9972 7.18565 12.9037C7.06595 12.8102 6.8565 12.7304 6.55727 12.6644L5.63511 12.4663C5.11282 12.3563 4.72383 12.1692 4.46813 11.9051C4.21787 11.6355 4.09274 11.2834 4.09274 10.8487C4.09274 10.5736 4.14986 10.3232 4.26411 10.0977C4.37836 9.87208 4.53885 9.67675 4.74559 9.51169C4.95233 9.34663 5.19715 9.22008 5.48006 9.13205C5.7684 9.04402 6.08395 9 6.4267 9C6.73137 9 7.03059 9.03851 7.32438 9.11554C7.61816 9.18707 7.87659 9.29436 8.09964 9.43741C8.20845 9.50344 8.2819 9.58872 8.31998 9.69326C8.36351 9.7923 8.37711 9.89408 8.36079 9.99862C8.34991 10.0977 8.3091 10.1857 8.23838 10.2627C8.17309 10.3398 8.08876 10.3893 7.98539 10.4113C7.88203 10.4333 7.75689 10.4085 7.61 10.337C7.43047 10.2435 7.24005 10.1747 7.03875 10.1307C6.83745 10.0867 6.63072 10.0646 6.41854 10.0646C6.19004 10.0646 5.99418 10.0949 5.83097 10.1554C5.67319 10.216 5.55078 10.3012 5.46373 10.4113C5.38213 10.5213 5.34132 10.6479 5.34132 10.7909C5.34132 10.9505 5.39845 11.0798 5.5127 11.1788C5.62695 11.2779 5.82553 11.3576 6.10843 11.4182L7.03059 11.6162C7.56376 11.7318 7.96091 11.9188 8.22206 12.1774C8.4832 12.4305 8.61377 12.7662 8.61377 13.1843C8.61377 13.4594 8.55936 13.7098 8.45055 13.9354C8.34175 14.1554 8.18397 14.3453 7.97723 14.5048C7.7705 14.6644 7.52295 14.7882 7.23461 14.8762C6.94626 14.9587 6.62256 15 6.26348 15ZM11.4914 15C11.2629 15 11.029 14.9807 10.7896 14.9422C10.5557 14.9092 10.3299 14.8597 10.1123 14.7937C9.9001 14.7276 9.70968 14.6451 9.54103 14.5461C9.42134 14.4801 9.33701 14.3948 9.28805 14.2902C9.23908 14.1802 9.22004 14.0702 9.23092 13.9601C9.24724 13.8501 9.28805 13.7538 9.35333 13.6713C9.42406 13.5832 9.51111 13.5282 9.61448 13.5062C9.72329 13.4787 9.84298 13.4979 9.97355 13.564C10.1966 13.6905 10.4387 13.784 10.6999 13.8446C10.9664 13.9051 11.2303 13.9354 11.4914 13.9354C11.8886 13.9354 12.1715 13.8748 12.3402 13.7538C12.5088 13.6272 12.5931 13.4704 12.5931 13.2834C12.5931 13.1238 12.5333 12.9972 12.4136 12.9037C12.2939 12.8102 12.0845 12.7304 11.7852 12.6644L10.8631 12.4663C10.3408 12.3563 9.95179 12.1692 9.69608 11.9051C9.44582 11.6355 9.32069 11.2834 9.32069 10.8487C9.32069 10.5736 9.37782 10.3232 9.49207 10.0977C9.60632 9.87208 9.76681 9.67675 9.97355 9.51169C10.1803 9.34663 10.4251 9.22008 10.708 9.13205C10.9964 9.04402 11.3119 9 11.6547 9C11.9593 9 12.2585 9.03851 12.5523 9.11554C12.8461 9.18707 13.1045 9.29436 13.3276 9.43741C13.4364 9.50344 13.5099 9.58872 13.5479 9.69326C13.5915 9.7923 13.6051 9.89408 13.5887 9.99862C13.5779 10.0977 13.5371 10.1857 13.4663 10.2627C13.401 10.3398 13.3167 10.3893 13.2133 10.4113C13.11 10.4333 12.9848 10.4085 12.838 10.337C12.6584 10.2435 12.468 10.1747 12.2667 10.1307C12.0654 10.0867 11.8587 10.0646 11.6465 10.0646C11.418 10.0646 11.2221 10.0949 11.0589 10.1554C10.9011 10.216 10.7787 10.3012 10.6917 10.4113C10.6101 10.5213 10.5693 10.6479 10.5693 10.7909C10.5693 10.9505 10.6264 11.0798 10.7407 11.1788C10.8549 11.2779 11.0535 11.3576 11.3364 11.4182L12.2585 11.6162C12.7917 11.7318 13.1889 11.9188 13.45 12.1774C13.7112 12.4305 13.8417 12.7662 13.8417 13.1843C13.8417 13.4594 13.7873 13.7098 13.6785 13.9354C13.5697 14.1554 13.4119 14.3453 13.2052 14.5048C12.9985 14.6644 12.7509 14.7882 12.4626 14.8762C12.1742 14.9587 11.8505 15 11.4914 15ZM14.8343 14.7359C14.72 14.6204 14.6629 14.4553 14.6629 14.2407V9.75928C14.6629 9.5447 14.72 9.37964 14.8343 9.2641C14.9485 9.14856 15.1117 9.09078 15.3239 9.09078H16.9153C17.9 9.09078 18.6589 9.34388 19.1921 9.85007C19.7307 10.3508 20 11.066 20 11.9959C20 12.4635 19.9293 12.879 19.7878 13.2421C19.6518 13.5997 19.4532 13.9023 19.1921 14.1499C18.9309 14.3975 18.61 14.5873 18.2291 14.7194C17.8483 14.8459 17.4103 14.9092 16.9153 14.9092H15.3239C15.1117 14.9092 14.9485 14.8514 14.8343 14.7359ZM19 5C19 5.55228 18.5523 6 18 6C17.4477 6 17 5.55228 17 5C17 4.44772 17.4477 4 18 4C18.5523 4 19 4.44772 19 5ZM18 20C17.4477 20 17 19.5523 17 19C17 18.4477 17.4477 18 18 18C18.5523 18 19 18.4477 19 19C19 19.5523 18.5523 20 18 20ZM7 5C7 5.55228 6.55228 6 6 6C5.44772 6 5 5.55228 5 5C5 4.44772 5.44772 4 6 4C6.55228 4 7 4.44772 7 5ZM6 20C5.44772 20 5 19.5523 5 19C5 18.4477 5.44772 18 6 18C6.55228 18 7 18.4477 7 19C7 19.5523 6.55228 20 6 20Z" fill="currentColor"/>
</svg>
