<svg viewBox="0 0 24 24" fill="currentColor" xmlns="http://www.w3.org/2000/svg">
<path d="M5 2C3.89543 2 3 2.89543 3 4H21C21 2.89543 20.1046 2 19 2H5Z" fill="currentColor"/>
<path d="M16.8418 11.8611H15.9278V8.13892H16.8418C17.4511 8.13892 17.9081 8.29297 18.2128 8.60109C18.5229 8.9037 18.678 9.36863 18.678 9.99586C18.678 10.3095 18.6399 10.5846 18.5637 10.8212C18.4875 11.0523 18.3733 11.2448 18.221 11.3989C18.0686 11.553 17.8782 11.6685 17.6497 11.7455C17.4212 11.8226 17.1519 11.8611 16.8418 11.8611Z" fill="currentColor"/>
<path d="M3 20V6H21V20C21 21.1045 20.1047 21.9999 19.0002 22C19.0002 21.92 18.9904 21.8386 18.9701 21.7575L18.3489 19.2724C18.015 17.9369 16.815 17 15.4384 17H8.56155C7.18495 17 5.985 17.9369 5.65113 19.2724L5.02986 21.7575C5.00957 21.8386 4.99983 21.92 4.99977 22C3.8953 21.9999 3 21.1045 3 20ZM6.26348 13C6.62256 13 6.94626 12.9587 7.23461 12.8762C7.52295 12.7882 7.7705 12.6644 7.97723 12.5048C8.18397 12.3453 8.34175 12.1554 8.45055 11.9354C8.55936 11.7098 8.61377 11.4594 8.61377 11.1843C8.61377 10.7662 8.4832 10.4305 8.22206 10.1774C7.96091 9.91884 7.56376 9.73177 7.03059 9.61623L6.10843 9.41816C5.82553 9.35763 5.62695 9.27785 5.5127 9.17882C5.39845 9.07978 5.34132 8.95048 5.34132 8.79092C5.34132 8.64787 5.38213 8.52132 5.46373 8.41128C5.55078 8.30124 5.67319 8.21596 5.83097 8.15543C5.99418 8.09491 6.19004 8.06465 6.41854 8.06465C6.63072 8.06465 6.83745 8.08666 7.03875 8.13067C7.24005 8.17469 7.43047 8.24347 7.61 8.337C7.75689 8.40853 7.88203 8.43329 7.98539 8.41128C8.08876 8.38927 8.17309 8.33975 8.23838 8.26272C8.3091 8.18569 8.34991 8.09766 8.36079 7.99862C8.37711 7.89409 8.36351 7.7923 8.31998 7.69326C8.2819 7.58872 8.20845 7.50344 8.09964 7.43741C7.87659 7.29436 7.61816 7.18707 7.32438 7.11554C7.03059 7.03851 6.73137 7 6.4267 7C6.08395 7 5.7684 7.04402 5.48006 7.13205C5.19715 7.22008 4.95233 7.34663 4.74559 7.51169C4.53885 7.67675 4.37836 7.87208 4.26411 8.09766C4.14986 8.32325 4.09274 8.57359 4.09274 8.84869C4.09274 9.28336 4.21787 9.63549 4.46813 9.90509C4.72383 10.1692 5.11282 10.3563 5.63511 10.4663L6.55727 10.6644C6.8565 10.7304 7.06595 10.8102 7.18565 10.9037C7.30534 10.9972 7.36518 11.1238 7.36518 11.2834C7.36518 11.4704 7.28085 11.6272 7.1122 11.7538C6.94354 11.8748 6.66064 11.9354 6.26348 11.9354C6.00234 11.9354 5.73848 11.9051 5.4719 11.8446C5.21075 11.784 4.96865 11.6905 4.74559 11.564C4.61502 11.4979 4.49533 11.4787 4.38652 11.5062C4.28315 11.5282 4.1961 11.5832 4.12538 11.6713C4.06009 11.7538 4.01929 11.8501 4.00297 11.9601C3.99209 12.0702 4.01113 12.1802 4.06009 12.2902C4.10906 12.3948 4.19338 12.4801 4.31307 12.5461C4.48173 12.6451 4.67215 12.7276 4.88432 12.7937C5.10194 12.8597 5.32772 12.9092 5.56166 12.9422C5.80104 12.9807 6.03498 13 6.26348 13ZM11.4914 13C11.8505 13 12.1742 12.9587 12.4626 12.8762C12.7509 12.7882 12.9985 12.6644 13.2052 12.5048C13.4119 12.3453 13.5697 12.1554 13.6785 11.9354C13.7873 11.7098 13.8417 11.4594 13.8417 11.1843C13.8417 10.7662 13.7112 10.4305 13.45 10.1774C13.1889 9.91884 12.7917 9.73177 12.2585 9.61623L11.3364 9.41816C11.0535 9.35763 10.8549 9.27785 10.7407 9.17882C10.6264 9.07978 10.5693 8.95048 10.5693 8.79092C10.5693 8.64787 10.6101 8.52132 10.6917 8.41128C10.7787 8.30124 10.9011 8.21596 11.0589 8.15543C11.2221 8.09491 11.418 8.06465 11.6465 8.06465C11.8587 8.06465 12.0654 8.08666 12.2667 8.13067C12.468 8.17469 12.6584 8.24347 12.838 8.337C12.9848 8.40853 13.11 8.43329 13.2133 8.41128C13.3167 8.38927 13.401 8.33975 13.4663 8.26272C13.5371 8.18569 13.5779 8.09766 13.5887 7.99862C13.6051 7.89409 13.5915 7.7923 13.5479 7.69326C13.5099 7.58872 13.4364 7.50344 13.3276 7.43741C13.1045 7.29436 12.8461 7.18707 12.5523 7.11554C12.2585 7.03851 11.9593 7 11.6547 7C11.3119 7 10.9964 7.04402 10.708 7.13205C10.4251 7.22008 10.1803 7.34663 9.97355 7.51169C9.76681 7.67675 9.60632 7.87208 9.49207 8.09766C9.37782 8.32325 9.32069 8.57359 9.32069 8.84869C9.32069 9.28336 9.44582 9.63549 9.69608 9.90509C9.95179 10.1692 10.3408 10.3563 10.8631 10.4663L11.7852 10.6644C12.0845 10.7304 12.2939 10.8102 12.4136 10.9037C12.5333 10.9972 12.5931 11.1238 12.5931 11.2834C12.5931 11.4704 12.5088 11.6272 12.3402 11.7538C12.1715 11.8748 11.8886 11.9354 11.4914 11.9354C11.2303 11.9354 10.9664 11.9051 10.6999 11.8446C10.4387 11.784 10.1966 11.6905 9.97355 11.564C9.84298 11.4979 9.72329 11.4787 9.61448 11.5062C9.51111 11.5282 9.42406 11.5832 9.35333 11.6713C9.28805 11.7538 9.24724 11.8501 9.23092 11.9601C9.22004 12.0702 9.23908 12.1802 9.28805 12.2902C9.33701 12.3948 9.42134 12.4801 9.54103 12.5461C9.70968 12.6451 9.9001 12.7276 10.1123 12.7937C10.3299 12.8597 10.5557 12.9092 10.7896 12.9422C11.029 12.9807 11.2629 13 11.4914 13ZM14.8343 12.7359C14.9485 12.8514 15.1117 12.9092 15.3239 12.9092H16.9153C17.4103 12.9092 17.8483 12.8459 18.2291 12.7194C18.61 12.5873 18.9309 12.3975 19.1921 12.1499C19.4532 11.9023 19.6518 11.5997 19.7878 11.2421C19.9293 10.879 20 10.4635 20 9.99587C20 9.06602 19.7307 8.35076 19.1921 7.85007C18.6589 7.34388 17.9 7.09078 16.9153 7.09078H15.3239C15.1117 7.09078 14.9485 7.14856 14.8343 7.2641C14.72 7.37964 14.6629 7.5447 14.6629 7.75928V12.2407C14.6629 12.4553 14.72 12.6204 14.8343 12.7359Z" fill="currentColor"/>
<path d="M13 19H11V22H13V19Z" fill="currentColor"/>
<path d="M15 22V19H15.4384C15.8973 19 16.2973 19.3123 16.4086 19.7575L16.9692 22H15Z" fill="currentColor"/>
<path d="M8.56155 19H9V22H7.03078L7.59141 19.7575C7.7027 19.3123 8.10268 19 8.56155 19Z" fill="currentColor"/>
</svg>
