<svg viewBox="0 0 24 24" fill="currentColor" xmlns="http://www.w3.org/2000/svg">
<path d="M11.4825 2.17512C11.2008 2.32798 10.9602 2.58093 10.8145 2.93394L10.3072 4.16221C10.2349 4.33728 10.2381 4.52539 10.3019 4.689L8.98292 7.82918C8.85647 8.13023 8.58497 8.3367 8.27237 8.36955L2.78537 8.9462C2.0309 9.02549 1.72658 10.0059 2.29243 10.5342L6.40771 14.3767C6.64216 14.5956 6.74586 14.9297 6.67911 15.251L5.50746 20.8917C5.34636 21.6673 6.14308 22.2732 6.79798 21.8731L10.3089 19.7285C10.5237 19.8719 10.8093 19.8861 11.0432 19.7408L12.1317 19.0645C12.1358 19.062 12.1397 19.06 12.1434 19.0583L12.1541 19.0534L12.1651 19.0519C12.1687 19.0514 12.1722 19.0512 12.1757 19.0512C12.1792 19.0512 12.1828 19.0514 12.1863 19.0519L12.1974 19.0534L12.2081 19.0583L12.2131 19.0607L12.2198 19.0645L13.3083 19.7408C13.6314 19.9416 14.0534 19.8379 14.2508 19.5092C14.4482 19.1806 14.3463 18.7514 14.0231 18.5507L12.9346 17.8744C12.8779 17.8392 12.8193 17.8081 12.7592 17.7813C12.6965 17.7533 12.6319 17.7356 12.5673 17.7275C12.508 17.6998 12.4437 17.6803 12.3757 17.6707C12.3094 17.6613 12.2426 17.6566 12.1757 17.6566C12.117 17.6566 12.0583 17.6602 12 17.6674V3.66465L12.0787 3.47402C12.0959 3.43234 12.1151 3.41619 12.126 3.409C12.1395 3.40013 12.1566 3.39464 12.1757 3.39464C12.1949 3.39464 12.212 3.40013 12.2254 3.409C12.2363 3.41619 12.2555 3.43234 12.2727 3.47402L12.78 4.70229C12.9266 5.05736 13.3285 5.2243 13.6776 5.07516C14.0267 4.92603 14.1909 4.51728 14.0443 4.16221L13.537 2.93395C13.2525 2.24512 12.6071 1.93732 12 2.01056V2C11.8172 2 11.6344 2.05837 11.4825 2.17512Z" fill="currentColor"/>
<path d="M15.0588 6.61875C14.9121 6.26368 14.5102 6.09674 14.1611 6.24588C13.812 6.39502 13.6479 6.80376 13.7945 7.15883L14.3017 8.3871C14.5095 8.89025 14.9654 9.25458 15.5118 9.31298L16.7658 9.44701C17.1424 9.48727 17.4798 9.2094 17.5194 8.8264C17.5589 8.44339 17.2857 8.10026 16.9091 8.06001L15.6551 7.92598C15.6299 7.92328 15.5894 7.90367 15.566 7.84702L15.0588 6.61875Z" fill="currentColor"/>
<path d="M19.4172 8.32809C19.0406 8.28784 18.7032 8.5657 18.6637 8.94871C18.6241 9.33172 18.8973 9.67484 19.2739 9.7151L20.5279 9.84913C20.5536 9.85188 20.5676 9.86002 20.5793 9.87055C20.5941 9.88384 20.6117 9.90815 20.6227 9.94402C20.6453 10.0182 20.6263 10.0806 20.5823 10.1224L19.6417 11.0156C19.365 11.2784 19.3501 11.7196 19.6085 12.0011C19.867 12.2826 20.3008 12.2978 20.5776 12.0349L21.5181 11.1418C22.4291 10.2767 21.994 8.60351 20.6712 8.46213L19.4172 8.32809Z" fill="currentColor"/>
<path d="M18.6965 13.8211C18.9733 13.5583 18.9882 13.117 18.7298 12.8355C18.4713 12.554 18.0375 12.5389 17.7607 12.8018L16.8202 13.6949C16.4259 14.0693 16.2603 14.6289 16.3687 15.1593L16.6364 16.4704C16.7135 16.8475 17.0764 17.0897 17.4472 17.0114C17.8179 16.933 18.0561 16.5639 17.9791 16.1868L17.7113 14.8757C17.6976 14.8085 17.7216 14.747 17.756 14.7143L18.6965 13.8211Z" fill="currentColor"/>
<path d="M18.5146 18.8091C18.4376 18.432 18.0746 18.1899 17.7039 18.2682C17.3331 18.3465 17.095 18.7157 17.172 19.0928L17.4398 20.4039C17.4494 20.4509 17.4434 20.484 17.4343 20.5077C17.4242 20.5341 17.4068 20.557 17.3859 20.5732C17.365 20.5893 17.3468 20.5942 17.3362 20.595C17.3297 20.5956 17.3154 20.596 17.2887 20.5795L16.2002 19.9032C15.8771 19.7024 15.4551 19.8061 15.2577 20.1348C15.0603 20.4634 15.1622 20.8926 15.4854 21.0934L16.5739 21.7696C17.756 22.5041 19.0345 21.3546 18.7824 20.1202L18.5146 18.8091Z" fill="currentColor"/>
</svg>
