<svg viewBox="0 0 24 24" fill="currentColor" xmlns="http://www.w3.org/2000/svg">
<path d="M10.5109 2.2545C11.0735 0.915164 12.9265 0.915169 13.4891 2.2545L14.0439 3.57556C14.2043 3.95746 14.0248 4.39708 13.6429 4.55748C13.261 4.71788 12.8214 4.53833 12.661 4.15644L12.1061 2.83538C12.0873 2.79055 12.0663 2.77318 12.0543 2.76544C12.0396 2.75591 12.0209 2.75 12 2.75C11.979 2.75 11.9604 2.75591 11.9457 2.76544C11.9337 2.77318 11.9127 2.79055 11.8939 2.83538L11.339 4.15644C11.1786 4.53833 10.739 4.71788 10.3571 4.55748C9.97521 4.39707 9.79566 3.95745 9.95606 3.57556L10.5109 2.2545ZM9.82823 5.81664C10.2101 5.97704 10.3897 6.41666 10.2293 6.79856L9.6744 8.11962C9.44709 8.66078 8.9484 9.05264 8.35076 9.11545L6.97901 9.25961C6.56706 9.3029 6.19802 9.00405 6.15473 8.5921C6.11143 8.18016 6.41029 7.81112 6.82223 7.76782L8.19398 7.62366C8.22154 7.62077 8.26584 7.59968 8.29143 7.53874L8.84631 6.21768C9.00671 5.83579 9.44633 5.65623 9.82823 5.81664ZM14.1718 5.81664C14.5537 5.65623 14.9933 5.83579 15.1537 6.21768L15.7086 7.53874C15.7342 7.59967 15.7785 7.62077 15.806 7.62366L17.1778 7.76782C17.5897 7.81112 17.8886 8.18016 17.8453 8.5921C17.802 9.00405 17.4329 9.3029 17.021 9.25961L15.6492 9.11545C15.0516 9.05264 14.5529 8.66078 14.3256 8.11962L13.7707 6.79856C13.6103 6.41666 13.7899 5.97704 14.1718 5.81664ZM4.90301 8.72365C4.9463 9.13559 4.64745 9.50464 4.23551 9.54793L2.86375 9.69209C2.83566 9.69504 2.82031 9.70381 2.80753 9.71513C2.79137 9.72942 2.77204 9.75558 2.76007 9.79415C2.7353 9.87394 2.75616 9.9411 2.80428 9.98603L3.8331 10.9466C4.13586 11.2293 4.15213 11.7039 3.86944 12.0067C3.58675 12.3094 3.11216 12.3257 2.8094 12.043L1.78058 11.0824C0.784107 10.152 1.26003 8.35237 2.70698 8.20031L4.07873 8.05615C4.49067 8.01285 4.85972 8.3117 4.90301 8.72365ZM19.097 8.72365C19.1403 8.31171 19.5093 8.01285 19.9213 8.05615L21.293 8.20031C22.74 8.35237 23.2159 10.152 22.2194 11.0824L21.1906 12.043C20.8878 12.3257 20.4132 12.3094 20.1306 12.0067C19.8479 11.7039 19.8641 11.2293 20.1669 10.9467L21.1957 9.98603C21.2438 9.9411 21.2647 9.87394 21.2399 9.79415C21.228 9.75558 21.2086 9.72942 21.1925 9.71513C21.1797 9.70381 21.1643 9.69504 21.1362 9.69209L19.7645 9.54793C19.3525 9.50464 19.0537 9.13559 19.097 8.72365ZM4.8307 12.9042C5.11339 12.6015 5.58798 12.5852 5.89074 12.8679L6.91956 13.8285C7.35079 14.2312 7.53193 14.8331 7.41344 15.4036L7.12053 16.8137C7.03628 17.2193 6.63923 17.4798 6.23367 17.3955C5.82811 17.3113 5.56763 16.9142 5.65187 16.5087L5.94479 15.0985C5.95979 15.0263 5.93353 14.9601 5.89586 14.9249L4.86704 13.9643C4.56428 13.6816 4.54801 13.207 4.8307 12.9042ZM19.1693 12.9042C19.452 13.207 19.4357 13.6816 19.133 13.9643L18.1041 14.9249C18.0665 14.9601 18.0402 15.0263 18.0552 15.0985L18.3481 16.5087C18.4324 16.9142 18.1719 17.3113 17.7663 17.3955C17.3608 17.4798 16.9637 17.2193 16.8795 16.8137L16.5866 15.4036C16.4681 14.8331 16.6492 14.2312 17.0804 13.8285L18.1093 12.8679C18.412 12.5852 18.8866 12.6015 19.1693 12.9042ZM12 19.5894C11.9962 19.5894 11.9923 19.5896 11.9884 19.5902C11.9844 19.5907 11.9803 19.5913 11.9763 19.5918C11.9724 19.5935 11.9685 19.5953 11.9646 19.597C11.9623 19.598 11.96 19.5991 11.9576 19.6004C11.9557 19.6014 11.9538 19.6025 11.9518 19.6037L10.7611 20.3311C10.4076 20.547 9.94603 20.4355 9.7301 20.082C9.51418 19.7285 9.62569 19.2669 9.97917 19.051L11.1699 18.3236C11.2319 18.2858 11.296 18.2523 11.3618 18.2235C11.4303 18.1934 11.501 18.1744 11.5717 18.1656C11.6366 18.1359 11.7069 18.1149 11.7812 18.1045C11.8538 18.0944 11.9269 18.0894 12 18.0894C12.0731 18.0894 12.1462 18.0944 12.2188 18.1045C12.2931 18.1149 12.3634 18.1359 12.4283 18.1656C12.499 18.1744 12.5696 18.1934 12.6382 18.2235C12.704 18.2523 12.7681 18.2858 12.8301 18.3236L14.0208 19.051C14.3743 19.2669 14.4858 19.7285 14.2699 20.082C14.054 20.4355 13.5924 20.547 13.2389 20.3311L12.0482 19.6037C12.0437 19.601 12.0394 19.5988 12.0354 19.597C12.0315 19.5953 12.0276 19.5935 12.0237 19.5918C12.0197 19.5913 12.0156 19.5907 12.0116 19.5902C12.0077 19.5896 12.0038 19.5894 12 19.5894ZM5.95291 18.7472C6.35846 18.8314 6.61894 19.2285 6.5347 19.634L6.24179 21.0442C6.23129 21.0947 6.23781 21.1304 6.24776 21.1559C6.25884 21.1843 6.27788 21.2089 6.30072 21.2263C6.32357 21.2437 6.34348 21.2489 6.35505 21.2498C6.36224 21.2504 6.37785 21.2509 6.407 21.2331L7.59772 20.5057C7.9512 20.2898 8.4128 20.4013 8.62873 20.7548C8.84465 21.1083 8.73314 21.5699 8.37966 21.7858L7.18894 22.5132C5.89584 23.3031 4.49736 22.0668 4.77314 20.7391L5.06605 19.329C5.15029 18.9234 5.54735 18.6629 5.95291 18.7472ZM18.0471 18.7472C18.4526 18.663 18.8497 18.9234 18.9339 19.329L19.2269 20.7391C19.5026 22.0668 18.1041 23.3031 16.8111 22.5132L15.6203 21.7858C15.2669 21.5699 15.1553 21.1083 15.3713 20.7548C15.5872 20.4013 16.0488 20.2898 16.4023 20.5057L17.593 21.2331C17.6221 21.2509 17.6378 21.2504 17.645 21.2498C17.6565 21.2489 17.6764 21.2437 17.6993 21.2263C17.7221 21.2089 17.7412 21.1843 17.7522 21.1559C17.7622 21.1304 17.7687 21.0947 17.7582 21.0442L17.4653 19.634C17.3811 19.2285 17.6415 18.8314 18.0471 18.7472Z" fill="currentColor"/>
</svg>
