<svg viewBox="0 0 24 24" fill="currentColor" xmlns="http://www.w3.org/2000/svg">
<path d="M5 2H13.25V8C13.25 8.9665 14.0335 9.75 15 9.75H20.9992C20.9997 9.76904 21 9.78811 21 9.80721V20C21 21.1046 20.1046 22 19 22H5C3.89543 22 3 21.1046 3 20V4C3 2.89543 3.89543 2 5 2ZM7.69081 19C7.96599 19 8.21325 18.9633 8.4326 18.89C8.65194 18.8166 8.83938 18.7134 8.99492 18.5805C9.15045 18.4429 9.27009 18.2779 9.35384 18.0853C9.43759 17.8927 9.47947 17.6772 9.47947 17.4388C9.47947 17.0857 9.38375 16.7992 9.19233 16.5791C9.0009 16.359 8.71176 16.2008 8.32492 16.1045L7.63099 15.9326C7.44355 15.8867 7.31393 15.8317 7.24215 15.7675C7.17435 15.6988 7.14045 15.6162 7.14045 15.5199C7.14045 15.4237 7.16638 15.3388 7.21822 15.2655C7.27405 15.1921 7.35382 15.1371 7.45751 15.1004C7.5612 15.0591 7.68682 15.0385 7.83438 15.0385C7.96998 15.0385 8.10956 15.0546 8.25313 15.0867C8.40069 15.1142 8.5323 15.1577 8.64795 15.2173C8.77158 15.2769 8.87727 15.2953 8.96501 15.2724C9.05673 15.2448 9.12852 15.1921 9.18036 15.1142C9.2362 15.0362 9.2681 14.9468 9.27608 14.8459C9.28405 14.7405 9.2681 14.6396 9.22822 14.5433C9.18834 14.447 9.12253 14.3714 9.03081 14.3164C8.87527 14.2109 8.68983 14.133 8.47447 14.0825C8.2631 14.0275 8.05373 14 7.84634 14C7.57914 14 7.33587 14.039 7.11652 14.1169C6.90117 14.1903 6.71373 14.2957 6.5542 14.4333C6.39867 14.5708 6.27703 14.7382 6.18929 14.9354C6.10554 15.1279 6.06367 15.3434 6.06367 15.5818C6.06367 15.9441 6.15739 16.2398 6.34483 16.4691C6.53227 16.6983 6.81742 16.8588 7.20027 16.9505L7.90018 17.1224C8.08762 17.1683 8.21724 17.2233 8.28902 17.2875C8.3648 17.3517 8.40268 17.4365 8.40268 17.542C8.40268 17.6612 8.34884 17.762 8.24117 17.8446C8.13748 17.9225 7.95402 17.9615 7.69081 17.9615C7.52331 17.9615 7.34385 17.9386 7.15242 17.8927C6.96099 17.8469 6.7895 17.7827 6.63795 17.7001C6.5223 17.6405 6.41861 17.6268 6.32688 17.6589C6.23516 17.6864 6.16138 17.7437 6.10554 17.8308C6.04971 17.9133 6.01581 18.0096 6.00385 18.1197C5.99188 18.2297 6.00783 18.3352 6.0517 18.436C6.09557 18.5323 6.17135 18.6103 6.27902 18.6699C6.40266 18.7387 6.54224 18.7983 6.69777 18.8487C6.85331 18.8991 7.01682 18.9358 7.18831 18.9587C7.36379 18.9862 7.53129 19 7.69081 19ZM11.7808 18.9862C11.9323 18.9862 12.054 18.9496 12.1457 18.8762C12.2374 18.8028 12.3132 18.6859 12.373 18.5254L13.8267 14.8528C13.8905 14.6923 13.9104 14.5479 13.8865 14.4195C13.8665 14.2912 13.8147 14.1926 13.7309 14.1238C13.6472 14.0504 13.5435 14.0138 13.4199 14.0138C13.2683 14.0138 13.1507 14.055 13.0669 14.1376C12.9832 14.2155 12.9114 14.3347 12.8516 14.4952L11.7985 17.3022L10.7459 14.5021C10.686 14.3416 10.6143 14.2201 10.5305 14.1376C10.4507 14.055 10.3291 14.0138 10.1656 14.0138C10.034 14.0138 9.92431 14.0504 9.83657 14.1238C9.74884 14.1926 9.693 14.2912 9.66908 14.4195C9.64515 14.5479 9.66509 14.6923 9.7289 14.8528L11.1766 18.5254C11.2404 18.6859 11.3182 18.8028 11.4099 18.8762C11.5056 18.9496 11.6292 18.9862 11.7808 18.9862ZM15.1884 18.6905C15.5274 18.8968 15.9382 19 16.4207 19C16.6401 19 16.8594 18.9794 17.0788 18.9381C17.2981 18.8968 17.5015 18.8395 17.6889 18.7662C17.7966 18.7249 17.8744 18.6561 17.9222 18.5598C17.9741 18.4635 18 18.3466 18 18.2091V16.6891C18 16.5287 17.9621 16.4072 17.8863 16.3246C17.8146 16.2375 17.7089 16.1939 17.5693 16.1939H16.6839C16.5483 16.1939 16.4426 16.2329 16.3669 16.3109C16.2951 16.3842 16.2592 16.492 16.2592 16.6341C16.2592 16.7762 16.2951 16.8863 16.3669 16.9642C16.4426 17.0422 16.5483 17.0812 16.6839 17.0812H17.1027V17.8465C17.0269 17.8674 16.9511 17.8851 16.8754 17.8996C16.7358 17.9271 16.6062 17.9409 16.4865 17.9409C16.0957 17.9409 15.8006 17.8216 15.6012 17.5832C15.4018 17.3448 15.3021 16.9917 15.3021 16.5241C15.3021 16.2123 15.3459 15.9486 15.4337 15.7331C15.5214 15.5177 15.653 15.3549 15.8285 15.2448C16.0079 15.1348 16.2313 15.0798 16.4985 15.0798C16.654 15.0798 16.8016 15.0981 16.9412 15.1348C17.0807 15.1669 17.2104 15.215 17.33 15.2792C17.4457 15.3388 17.5493 15.3549 17.6411 15.3274C17.7328 15.2953 17.8046 15.2357 17.8564 15.1486C17.9123 15.0569 17.9462 14.9583 17.9581 14.8528C17.9741 14.7428 17.9621 14.6396 17.9222 14.5433C17.8863 14.4425 17.8165 14.3645 17.7129 14.3095C17.5135 14.1903 17.3101 14.11 17.1027 14.0688C16.8953 14.0229 16.6919 14 16.4925 14C16.1256 14 15.7966 14.0596 15.5054 14.1788C15.2183 14.2934 14.975 14.4631 14.7756 14.6878C14.5762 14.9078 14.4227 15.1738 14.315 15.4856C14.2113 15.7928 14.1595 16.1389 14.1595 16.5241C14.1595 17.0193 14.2472 17.4525 14.4227 17.8239C14.5982 18.1953 14.8534 18.4842 15.1884 18.6905Z" fill="currentColor"/>
<path d="M14.8399 2.61172L20.2768 8.24999H15C14.8619 8.24999 14.75 8.13806 14.75 7.99999V2.52417C14.7808 2.55232 14.8108 2.58151 14.8399 2.61172Z" fill="currentColor"/>
</svg>
