<svg viewBox="0 0 24 24" fill="currentColor" xmlns="http://www.w3.org/2000/svg">
<path d="M11.25 10.7738C10.2529 10.8378 9.38313 11.0261 8.74301 11.2821C8.34289 11.4422 8.06943 11.614 7.90826 11.7664C7.7498 11.9163 7.74999 11.9954 7.75 11.9999C7.74999 12.0044 7.7498 12.0837 7.90826 12.2336C8.06943 12.386 8.34289 12.5578 8.74301 12.7179C9.38313 12.9739 10.2529 13.1622 11.25 13.2262V10.7738Z" fill="currentColor"/>
<path d="M12.75 13.2262V10.7738C13.7471 10.8378 14.6169 11.0261 15.257 11.2821C15.6571 11.4422 15.9306 11.614 16.0917 11.7664C16.2502 11.9163 16.25 11.9954 16.25 11.9999C16.25 12.0044 16.2502 12.0837 16.0917 12.2336C15.9306 12.386 15.6571 12.5578 15.257 12.7179C14.6169 12.9739 13.7471 13.1622 12.75 13.2262Z" fill="currentColor"/>
<path d="M12 21C17.5228 21 22 16.5228 22 11C22 5.47715 17.5228 1 12 1C6.47715 1 2 5.47715 2 11C2 16.5228 6.47715 21 12 21ZM7 5.25H17C17.4142 5.25 17.75 5.58579 17.75 6C17.75 6.41421 17.4142 6.75 17 6.75H12.75V9.27108C13.9126 9.33697 14.9775 9.55481 15.8141 9.88943C16.3188 10.0913 16.7775 10.3505 17.1224 10.6766C17.4688 11.0042 17.75 11.4512 17.75 12C17.75 12.5488 17.4688 12.9958 17.1224 13.3234C16.7775 13.6495 16.3188 13.9087 15.8141 14.1106C14.9775 14.4452 13.9126 14.663 12.75 14.7289V17C12.75 17.4142 12.4142 17.75 12 17.75C11.5858 17.75 11.25 17.4142 11.25 17V14.7289C10.0874 14.663 9.02247 14.4452 8.18592 14.1106C7.68122 13.9087 7.22245 13.6495 6.87759 13.3234C6.53115 12.9958 6.25 12.5488 6.25 12C6.25 11.4512 6.53115 11.0042 6.87759 10.6766C7.22245 10.3505 7.68122 10.0913 8.18592 9.88943C9.02247 9.55481 10.0874 9.33697 11.25 9.27108V6.75H7C6.58579 6.75 6.25 6.41421 6.25 6C6.25 5.58579 6.58579 5.25 7 5.25Z" fill="currentColor"/>
</svg>
