<svg viewBox="0 0 24 24" fill="currentColor" xmlns="http://www.w3.org/2000/svg">
<path d="M8.25 4V5H4C3.44772 5 3 5.44772 3 6V7C3 7.55228 3.44772 8 4 8H20C20.5523 8 21 7.55228 21 7V6C21 5.44772 20.5523 5 20 5H15.75V4C15.75 2.48122 14.5188 1.25 13 1.25H11C9.48122 1.25 8.25 2.48122 8.25 4ZM11 2.75H13C13.6904 2.75 14.25 3.30964 14.25 4V5H9.75V4C9.75 3.30964 10.3096 2.75 11 2.75Z" fill="currentColor"/>
<path d="M5 9.5V20C5 21.1046 5.89543 22 7 22H17C18.1046 22 19 21.1046 19 20V9.5H5ZM9.5 11.75C9.91421 11.75 10.25 12.0858 10.25 12.5V18.5C10.25 18.9142 9.91421 19.25 9.5 19.25C9.08579 19.25 8.75 18.9142 8.75 18.5V12.5C8.75 12.0858 9.08579 11.75 9.5 11.75ZM14.5 11.75C14.9142 11.75 15.25 12.0858 15.25 12.5V18.5C15.25 18.9142 14.9142 19.25 14.5 19.25C14.0858 19.25 13.75 18.9142 13.75 18.5V12.5C13.75 12.0858 14.0858 11.75 14.5 11.75Z" fill="currentColor"/>
</svg>
