<svg viewBox="0 0 24 24" fill="currentColor" xmlns="http://www.w3.org/2000/svg">
<path d="M12 1.25C9.92893 1.25 8.25 2.92893 8.25 5H4.5C3.67157 5 3 5.67157 3 6.5C3 7.32843 3.67157 8 4.5 8H19.5C20.3284 8 21 7.32843 21 6.5C21 5.67157 20.3284 5 19.5 5H15.75C15.75 2.92893 14.0711 1.25 12 1.25ZM12 2.75C13.2426 2.75 14.25 3.75736 14.25 5H9.75C9.75 3.75736 10.7574 2.75 12 2.75Z" fill="currentColor"/>
<path d="M5 20V9.5H19V20C19 21.1046 18.1046 22 17 22H7C5.89543 22 5 21.1046 5 20ZM10 16.25C9.58579 16.25 9.25 16.5858 9.25 17C9.25 17.4142 9.58579 17.75 10 17.75H14C14.4142 17.75 14.75 17.4142 14.75 17C14.75 16.5858 14.4142 16.25 14 16.25H10ZM7.75 13.5C7.75 13.9142 8.08579 14.25 8.5 14.25H15.5C15.9142 14.25 16.25 13.9142 16.25 13.5C16.25 13.0858 15.9142 12.75 15.5 12.75H8.5C8.08579 12.75 7.75 13.0858 7.75 13.5Z" fill="currentColor"/>
</svg>
