<svg viewBox="0 0 24 24" fill="currentColor" xmlns="http://www.w3.org/2000/svg">
<path d="M9.6 1.54992C9.35147 1.21855 8.88137 1.15139 8.55 1.39992C8.21863 1.64845 8.15147 2.11855 8.4 2.44992L10.3125 4.99992H4C2.89543 4.99992 2 5.89535 2 6.99992V19.9999C2 21.1045 2.89543 21.9999 4 21.9999L15.2435 21.9996L15.25 4.99992H13.6875L15.6 2.44992C15.8485 2.11855 15.7814 1.64845 15.45 1.39992C15.1186 1.15139 14.6485 1.21855 14.4 1.54992L12 4.74992L9.6 1.54992Z" fill="currentColor"/>
<path d="M16.7435 22H20C21.1046 22 22 21.1046 22 20V7C22 5.89543 21.1046 5 20 5L16.75 5.00029L16.7435 22ZM20.5 8C20.5 8.55229 20.0523 9 19.5 9C18.9477 9 18.5 8.55229 18.5 8C18.5 7.44772 18.9477 7 19.5 7C20.0523 7 20.5 7.44772 20.5 8ZM20.5 11.5C20.5 12.0523 20.0523 12.5 19.5 12.5C18.9477 12.5 18.5 12.0523 18.5 11.5C18.5 10.9477 18.9477 10.5 19.5 10.5C20.0523 10.5 20.5 10.9477 20.5 11.5Z" fill="currentColor"/>
</svg>
