<svg viewBox="0 0 24 24" fill="currentColor" xmlns="http://www.w3.org/2000/svg">
<path d="M2 5C2 3.89543 2.89543 3 4 3H20C21.1046 3 22 3.89543 22 5V16C22 17.1046 21.1046 18 20 18H12.75V20.25H15C15.4142 20.25 15.75 20.5858 15.75 21C15.75 21.4142 15.4142 21.75 15 21.75H9C8.58579 21.75 8.25 21.4142 8.25 21C8.25 20.5858 8.58579 20.25 9 20.25H11.25V18H4C2.89543 18 2 17.1046 2 16V5ZM14.8869 13.8645C15.0307 13.9548 15.2122 14 15.4314 14C15.6574 14 15.8354 13.9548 15.9655 13.8645C16.1025 13.7676 16.2189 13.6224 16.3148 13.4288L18.9035 8.00692C18.9926 7.81328 19.02 7.64223 18.9857 7.49378C18.9583 7.33887 18.883 7.21946 18.7597 7.13555C18.6433 7.04518 18.4926 7 18.3077 7C18.0886 7 17.9174 7.04841 17.7941 7.14523C17.6708 7.24205 17.5647 7.38728 17.4756 7.58091L15.4619 11.9778L13.4487 7.59059C13.3665 7.39696 13.2638 7.25173 13.1405 7.15491C13.0173 7.05164 12.8392 7 12.6063 7C12.4214 7 12.2639 7.04518 12.1338 7.13555C12.0037 7.21946 11.9181 7.33887 11.877 7.49378C11.8359 7.64223 11.8633 7.81328 11.9592 8.00692L14.5479 13.4288C14.6369 13.6224 14.7499 13.7676 14.8869 13.8645ZM7.69147 13.7967C7.82844 13.9322 8.02704 14 8.28729 14C8.54753 14 8.74271 13.9322 8.87283 13.7967C9.0098 13.6611 9.07829 13.4707 9.07829 13.2254V8.32642H10.8966C11.1089 8.32642 11.2732 8.27155 11.3897 8.16183C11.5061 8.0521 11.5643 7.90042 11.5643 7.70678C11.5643 7.50669 11.5061 7.355 11.3897 7.25173C11.2732 7.142 11.1089 7.08714 10.8966 7.08714H5.66773C5.45543 7.08714 5.29106 7.142 5.17464 7.25173C5.05821 7.355 5 7.50669 5 7.70678C5 7.90042 5.05821 8.0521 5.17464 8.16183C5.29106 8.27155 5.45543 8.32642 5.66773 8.32642H7.48601V13.2254C7.48601 13.4707 7.55449 13.6611 7.69147 13.7967Z" fill="currentColor"/>
</svg>
