<svg viewBox="0 0 24 24" fill="currentColor" xmlns="http://www.w3.org/2000/svg">
<path d="M14.0992 2.98913C15.9493 0.798752 19.2825 0.656631 21.3134 2.68081C23.1002 4.46166 23.2372 7.30522 21.6293 9.24869L17.4819 14.2616C17.2179 14.5808 16.7451 14.6254 16.4259 14.3614C16.1068 14.0974 16.0621 13.6246 16.3262 13.3054L20.4736 8.29251C21.5874 6.94625 21.4928 4.97745 20.2545 3.74323C18.8445 2.3379 16.5289 2.43706 15.2451 3.95703L11.774 8.06662C11.5067 8.38306 11.0335 8.42292 10.7171 8.15564C10.4007 7.88836 10.3608 7.41516 10.6281 7.09872L14.0992 2.98913ZM6.22953 2.76346C6.60784 2.59477 7.05127 2.7647 7.21996 3.14301L9.29377 7.79385C9.46246 8.17215 9.29253 8.61558 8.91422 8.78427C8.53591 8.95296 8.09248 8.78303 7.92379 8.40472L5.84998 3.75389C5.68129 3.37558 5.85122 2.93215 6.22953 2.76346ZM6.53497 10.3996H3.4245C3.01029 10.3996 2.6745 10.0638 2.6745 9.64962C2.6745 9.23541 3.01029 8.89962 3.4245 8.89962H6.53497C6.94918 8.89962 7.28497 9.23541 7.28497 9.64962C7.28497 10.0638 6.94918 10.3996 6.53497 10.3996ZM7.63125 11.2384C7.89532 11.5576 7.85069 12.0303 7.53156 12.2944L3.98309 15.2307C2.43665 16.5103 2.32892 18.8365 3.74972 20.2526C4.97963 21.4784 6.93843 21.5878 8.29825 20.5059L12.2895 17.3305C12.6136 17.0726 13.0854 17.1264 13.3433 17.4505C13.6012 17.7746 13.5475 18.2465 13.2234 18.5043L9.23214 21.6798C7.27649 23.2357 4.46063 23.079 2.69082 21.315C0.642766 19.2737 0.798839 15.9187 3.02681 14.075L6.57528 11.1388C6.89441 10.8747 7.36718 10.9193 7.63125 11.2384Z" fill="currentColor"/>
</svg>
