<svg viewBox="0 0 24 24" fill="currentColor" xmlns="http://www.w3.org/2000/svg">
<path d="M17.6724 2.25169C17.0684 1.9161 16.3339 1.91611 15.7298 2.25169L12.0287 4.30786C11.9458 4.35394 11.8669 4.40542 11.7926 4.46173L16.7011 7.1887L21.6097 4.46173C21.5353 4.40542 21.4565 4.35394 21.3735 4.30786L17.6724 2.25169Z" fill="currentColor"/>
<path d="M22.3788 5.75037L17.4511 8.48795V13.9474C17.5264 13.9169 17.6003 13.8816 17.6724 13.8416L21.3735 11.7854C22.0084 11.4327 22.4022 10.7635 22.4022 10.0371V6.05614C22.4022 5.95281 22.3943 5.85064 22.3788 5.75037Z" fill="currentColor"/>
<path d="M15.9511 13.9474V8.48795L11.0235 5.75037C11.008 5.85064 11 5.95281 11 6.05615V10.0371C11 10.7635 11.3938 11.4327 12.0287 11.7854L15.7298 13.8416C15.8019 13.8817 15.8758 13.9169 15.9511 13.9474Z" fill="currentColor"/>
<path d="M9.50001 7.25H8C6.48122 7.25 5.25 8.48122 5.25 10V12H4C3.44772 12 3 12.4477 3 13V14C2.44772 14 2 14.4477 2 15V19C2 19.5523 2.44772 20 3 20V21C3 21.5523 3.44772 22 4 22H8.92963C9.59834 22 10.2228 21.6658 10.5937 21.1094L11.1679 20.2481C11.5638 19.6543 12.4362 19.6543 12.8321 20.2481L13.4063 21.1094C13.7772 21.6658 14.4017 22 15.0704 22H20C20.5523 22 21 21.5523 21 21V20C21.5523 20 22 19.5523 22 19V15C22 14.4477 21.5523 14 21 14V13.7089L18.4009 15.1529C18.2943 15.2121 18.1853 15.2654 18.0743 15.3127C18.6309 15.6678 19 16.2908 19 17C19 18.1046 18.1046 19 17 19C15.8954 19 15 18.1046 15 17C15 16.3857 15.277 15.836 15.7129 15.4691L15.3885 15.3379C15.2566 15.2845 15.1273 15.2228 15.0014 15.1529L11.3003 13.0967C10.8118 12.8253 10.4049 12.4469 10.1022 12H6.75V10C6.75 9.30964 7.30964 8.75 8 8.75H9.50001V7.25ZM9 17C9 18.1046 8.10457 19 7 19C5.89543 19 5 18.1046 5 17C5 15.8954 5.89543 15 7 15C8.10457 15 9 15.8954 9 17Z" fill="currentColor"/>
</svg>
