<svg viewBox="0 0 24 24" fill="currentColor" xmlns="http://www.w3.org/2000/svg">
<path d="M18.75 9V7C18.75 5.48122 17.5188 4.25 16 4.25H8C6.48122 4.25 5.25 5.48122 5.25 7V9H4C3.44772 9 3 9.44772 3 10V11C2.44772 11 2 11.4477 2 12V16C2 16.5523 2.44772 17 3 17V18C3 18.5523 3.44772 19 4 19H8.92963C9.59834 19 10.2228 18.6658 10.5937 18.1094L11.1679 17.2481C11.5638 16.6543 12.4362 16.6543 12.8321 17.2481L13.4063 18.1094C13.7772 18.6658 14.4017 19 15.0704 19H20C20.5523 19 21 18.5523 21 18V17C21.5523 17 22 16.5523 22 16V12C22 11.4477 21.5523 11 21 11V10C21 9.44772 20.5523 9 20 9H18.75ZM8 5.75H16C16.6904 5.75 17.25 6.30964 17.25 7V9H6.75V7C6.75 6.30964 7.30964 5.75 8 5.75ZM5 13.25H9C9.41421 13.25 9.75 13.5858 9.75 14C9.75 14.4142 9.41421 14.75 9 14.75H5C4.58579 14.75 4.25 14.4142 4.25 14C4.25 13.5858 4.58579 13.25 5 13.25ZM14.25 14C14.25 13.5858 14.5858 13.25 15 13.25H19C19.4142 13.25 19.75 13.5858 19.75 14C19.75 14.4142 19.4142 14.75 19 14.75H15C14.5858 14.75 14.25 14.4142 14.25 14Z" fill="currentColor"/>
</svg>
