<svg viewBox="0 0 24 24" fill="currentColor" xmlns="http://www.w3.org/2000/svg">
<path d="M14.2022 4.16862C14.2022 2.97093 15.1731 2 16.3708 2C17.5685 2 18.5394 2.97093 18.5394 4.16862V4.63728C17.9279 4.17348 17.1928 3.89747 16.3707 3.89747C15.5487 3.89747 14.8137 4.17341 14.2022 4.63708V4.16862Z" fill="currentColor"/>
<path d="M14.7469 5.25298C14.6046 5.35567 14.469 5.47145 14.3414 5.599L13.2806 5.3338C12.866 5.23015 12.533 4.92185 12.3979 4.51641L12.2029 3.93149C12.0719 3.53854 11.6472 3.32617 11.2542 3.45715C10.8613 3.58814 10.6489 4.01288 10.7799 4.40584L10.9749 4.99075C11.2722 5.88273 12.0046 6.56098 12.9168 6.78902L13.4729 6.92804C13.3661 7.18894 13.2812 7.46616 13.2213 7.75591H11.4914C11.0772 7.75591 10.7414 8.0917 10.7414 8.50591C10.7414 8.92013 11.0772 9.25591 11.4914 9.25591H13.1402C13.1685 9.55749 13.2232 9.84898 13.3014 10.1266L12.9168 10.2228C12.0046 10.4508 11.2722 11.1291 10.9749 12.021L10.7799 12.606C10.6489 12.9989 10.8613 13.4236 11.2542 13.5546C11.6472 13.6856 12.0719 13.4732 12.2029 13.0803L12.3979 12.4954C12.533 12.0899 12.866 11.7816 13.2806 11.678L13.9607 11.5079C14.5559 12.3281 15.4152 12.8431 16.3708 12.8431C17.3264 12.8431 18.1858 12.3281 18.7809 11.5079L19.4611 11.678C19.8757 11.7816 20.2086 12.0899 20.3437 12.4954L20.5387 13.0803C20.6697 13.4732 21.0944 13.6856 21.4874 13.5546C21.8804 13.4236 22.0927 12.9989 21.9617 12.606L21.7668 12.021C21.4694 11.1291 20.737 10.4508 19.8249 10.2228L19.4403 10.1266C19.5184 9.84898 19.5731 9.55749 19.6014 9.25591H21.2502C21.6644 9.25591 22.0002 8.92013 22.0002 8.50591C22.0002 8.0917 21.6644 7.75591 21.2502 7.75591H19.5203C19.4604 7.46616 19.3755 7.18894 19.2688 6.92804L19.8249 6.78902C20.737 6.56098 21.4694 5.88273 21.7668 4.99075L21.9617 4.40584C22.0927 4.01288 21.8804 3.58814 21.4874 3.45715C21.0944 3.32617 20.6697 3.53854 20.5387 3.93149L20.3437 4.51641C20.2086 4.92185 19.8757 5.23015 19.4611 5.3338L18.4003 5.599C18.2014 5.40034 17.9835 5.23023 17.7506 5.09363C17.3317 4.848 16.864 4.71075 16.3707 4.71075C15.7792 4.71075 15.2248 4.90809 14.7469 5.25298Z" fill="currentColor"/>
<path d="M9.62407 7.25H8C6.48122 7.25 5.25 8.48122 5.25 10V12H4C3.44772 12 3 12.4477 3 13V14C2.44772 14 2 14.4477 2 15V19C2 19.5523 2.44772 20 3 20V21C3 21.5523 3.44772 22 4 22H8.92963C9.59834 22 10.2228 21.6658 10.5937 21.1094L11.1679 20.2481C11.5638 19.6543 12.4362 19.6543 12.8321 20.2481L13.4063 21.1094C13.7772 21.6658 14.4017 22 15.0704 22H20C20.5523 22 21 21.5523 21 21V20C21.5523 20 22 19.5523 22 19V15C22 14.9882 21.9998 14.9764 21.9994 14.9647C21.9868 14.9692 21.9742 14.9735 21.9615 14.9777C20.7826 15.3707 19.5084 14.7336 19.1155 13.5547L19.0562 13.3769C18.318 13.9671 17.4016 14.3432 16.3706 14.3432C15.3396 14.3432 14.4232 13.9671 13.685 13.3769L13.6257 13.5547C13.2328 14.7336 11.9586 15.3707 10.7797 14.9777C9.60081 14.5848 8.9637 13.3105 9.35666 12.1317L9.40055 12H6.75V10C6.75 9.30964 7.30964 8.75 8 8.75H9.25428C9.24563 8.66983 9.2412 8.5884 9.2412 8.50593C9.2412 8.04083 9.38231 7.6087 9.62407 7.25ZM17 19C15.8954 19 15 18.1046 15 17C15 15.8954 15.8954 15 17 15C18.1046 15 19 15.8954 19 17C19 18.1046 18.1046 19 17 19ZM9 17C9 18.1046 8.10457 19 7 19C5.89543 19 5 18.1046 5 17C5 15.8954 5.89543 15 7 15C8.10457 15 9 15.8954 9 17Z" fill="currentColor"/>
</svg>
