<svg viewBox="0 0 24 24" fill="currentColor" xmlns="http://www.w3.org/2000/svg">
<path d="M6.59985 12C6.59985 11.4477 7.04757 11 7.59985 11H16.3999C16.9521 11 17.3999 11.4477 17.3999 12V12.2001C17.7312 12.2001 17.9999 12.4687 17.9999 12.8001V15.2001C17.9999 15.5314 17.7313 15.8001 17.3999 15.8001V16C17.3999 16.5523 16.9521 17 16.3999 17H14.1007C13.5379 17 13.0123 16.7187 12.7001 16.2504C12.367 15.7507 11.6327 15.7507 11.2996 16.2504C10.9874 16.7187 10.4618 17 9.89899 17H7.59985C7.04757 17 6.59985 16.5523 6.59985 16V15.8001C6.26855 15.8 6 15.5314 6 15.2001V12.8001C6 12.4688 6.26855 12.2002 6.59985 12.2001V12ZM10 14C10 13.4477 9.55228 13 9 13C8.44772 13 8 13.4477 8 14C8 14.5523 8.44772 15 9 15C9.55228 15 10 14.5523 10 14ZM15 15C15.5523 15 16 14.5523 16 14C16 13.4477 15.5523 13 15 13C14.4477 13 14 13.4477 14 14C14 14.5523 14.4477 15 15 15Z" fill="currentColor"/>
<path d="M2 5C2 3.89543 2.89543 3 4 3H20C21.1046 3 22 3.89543 22 5V6.25H2V5Z" fill="currentColor"/>
<path d="M2 7.75H22V19C22 20.1046 21.1046 21 20 21H4C2.89543 21 2 20.1046 2 19V7.75ZM7.59985 9.5C6.49433 9.5 5.55743 10.2172 5.22704 11.211C4.78248 11.5955 4.5 12.1648 4.5 12.8001V15.2001C4.5 15.8354 4.78251 16.4047 5.22711 16.7892C5.55756 17.7829 6.4944 18.5 7.59985 18.5H9.89899C10.6815 18.5 11.4259 18.2125 11.9999 17.7083C12.5739 18.2125 13.3182 18.5 14.1007 18.5H16.3999C17.5052 18.5 18.442 17.7831 18.7725 16.7894C19.2173 16.405 19.4999 15.8355 19.4999 15.2001V12.8001C19.4999 12.1647 19.2173 11.5952 18.7726 11.2108C18.4421 10.217 17.5053 9.5 16.3999 9.5H7.59985Z" fill="currentColor"/>
</svg>
