<svg viewBox="0 0 24 24" fill="currentColor" xmlns="http://www.w3.org/2000/svg">
<path d="M6.59985 3C6.59985 2.44772 7.04757 2 7.59985 2H16.3999C16.9521 2 17.3999 2.44772 17.3999 3V3.20007C17.7312 3.20007 17.9999 3.4687 17.9999 3.80007V6.20007C17.9999 6.53144 17.7313 6.80007 17.3999 6.80007V7C17.3999 7.55228 16.9521 8 16.3999 8H14.1007C13.5379 8 13.0123 7.71872 12.7001 7.25043C12.367 6.75072 11.6327 6.75072 11.2996 7.25043C10.9874 7.71872 10.4618 8 9.89899 8H7.59985C7.04757 8 6.59985 7.55228 6.59985 7V6.80007C6.26855 6.79999 6 6.5314 6 6.20007V3.80007C6 3.46875 6.26855 3.20015 6.59985 3.20007V3ZM10 5C10 4.44772 9.55228 4 9 4C8.44772 4 8 4.44772 8 5C8 5.55228 8.44772 6 9 6C9.55228 6 10 5.55228 10 5ZM15 6C15.5523 6 16 5.55228 16 5C16 4.44772 15.5523 4 15 4C14.4477 4 14 4.44772 14 5C14 5.55228 14.4477 6 15 6Z" fill="currentColor"/>
<path d="M1.25 22C1.25 21.5858 1.58579 21.25 2 21.25H22C22.4142 21.25 22.75 21.5858 22.75 22C22.75 22.4142 22.4142 22.75 22 22.75H2C1.58579 22.75 1.25 22.4142 1.25 22Z" fill="currentColor"/>
<path d="M4.5 6.20007V6.06301C3.63739 6.28503 3 7.06808 3 8V19C3 19.5523 3.44772 20 4 20H20C20.5523 20 21 19.5523 21 19V8C21 7.06805 20.3626 6.28498 19.4999 6.06299V6.20007C19.4999 6.83551 19.2173 7.40496 18.7725 7.78944C18.442 8.78306 17.5052 9.5 16.3999 9.5H14.1007C13.3182 9.5 12.5739 9.21251 11.9999 8.70835C11.4259 9.21251 10.6815 9.5 9.89899 9.5H7.59985C6.4944 9.5 5.55756 8.78292 5.22711 7.78917C4.78251 7.4047 4.5 6.83536 4.5 6.20007Z" fill="currentColor"/>
</svg>
