<svg viewBox="0 0 24 24" fill="currentColor" xmlns="http://www.w3.org/2000/svg">
<path d="M6.59985 3C6.59985 2.44772 7.04757 2 7.59985 2H16.3999C16.9521 2 17.3999 2.44772 17.3999 3V3.20007C17.7312 3.20007 17.9999 3.4687 17.9999 3.80007V6.20007C17.9999 6.53144 17.7313 6.80007 17.3999 6.80007V7C17.3999 7.55228 16.9521 8 16.3999 8H14.1007C13.5379 8 13.0123 7.71872 12.7001 7.25043C12.367 6.75072 11.6327 6.75072 11.2996 7.25043C10.9874 7.71872 10.4618 8 9.89899 8H7.59985C7.04757 8 6.59985 7.55228 6.59985 7V6.80007C6.26855 6.79999 6 6.5314 6 6.20007V3.80007C6 3.46875 6.26855 3.20015 6.59985 3.20007V3ZM10 5C10 4.44772 9.55228 4 9 4C8.44772 4 8 4.44772 8 5C8 5.55228 8.44772 6 9 6C9.55228 6 10 5.55228 10 5ZM15 6C15.5523 6 16 5.55228 16 5C16 4.44772 15.5523 4 15 4C14.4477 4 14 4.44772 14 5C14 5.55228 14.4477 6 15 6Z" fill="currentColor"/>
<path d="M11.25 19H4C2.89543 19 2 18.1046 2 17V6C2 4.89543 2.89543 4 4 4H4.5V6.20007C4.5 6.83536 4.78251 7.4047 5.22711 7.78917C5.55756 8.78293 6.4944 9.5 7.59985 9.5H9.89899C10.6815 9.5 11.4259 9.21251 11.9999 8.70835C12.5739 9.21251 13.3182 9.5 14.1007 9.5H16.3999C17.5052 9.5 18.442 8.78306 18.7725 7.78944C19.2173 7.40496 19.4999 6.83551 19.4999 6.20007V4H20C21.1046 4 22 4.89543 22 6V17C22 18.1046 21.1046 19 20 19H12.75V21.25H15C15.4142 21.25 15.75 21.5858 15.75 22C15.75 22.4142 15.4142 22.75 15 22.75H9C8.58579 22.75 8.25 22.4142 8.25 22C8.25 21.5858 8.58579 21.25 9 21.25H11.25V19Z" fill="currentColor"/>
</svg>
