<svg viewBox="0 0 24 24" fill="currentColor" xmlns="http://www.w3.org/2000/svg">
<path d="M7.59986 7C7.04757 7 6.59986 7.44772 6.59986 8V8.20007C6.26855 8.20015 6 8.46875 6 8.80007V11.2001C6 11.5314 6.26855 11.8 6.59986 11.8001V12C6.59986 12.5523 7.04758 13 7.59986 13H9.89901C10.4618 13 10.9874 12.7187 11.2996 12.2504C11.6327 11.7507 12.367 11.7507 12.7002 12.2504C13.0124 12.7187 13.538 13 14.1008 13H16.3999C16.9522 13 17.3999 12.5523 17.3999 12L17.4 11.8001C17.7314 11.8001 18 11.5314 18 11.2001V8.80007C18 8.4687 17.7313 8.20007 17.3999 8.20007V8C17.3999 7.44772 16.9522 7 16.3999 7H7.59986ZM9 11C8.44772 11 8 10.5523 8 10C8 9.44772 8.44772 9 9 9C9.55228 9 10 9.44772 10 10C10 10.5523 9.55228 11 9 11ZM16 10C16 10.5523 15.5523 11 15 11C14.4477 11 14 10.5523 14 10C14 9.44772 14.4477 9 15 9C15.5523 9 16 9.44772 16 10Z" fill="currentColor"/>
<path d="M4 3C2.89543 3 2 3.89543 2 5V16C2 17.1046 2.89543 18 4 18H11.25V20.25H9C8.58579 20.25 8.25 20.5858 8.25 21C8.25 21.4142 8.58579 21.75 9 21.75H15C15.4142 21.75 15.75 21.4142 15.75 21C15.75 20.5858 15.4142 20.25 15 20.25H12.75V18H20C21.1046 18 22 17.1046 22 16V5C22 3.89543 21.1046 3 20 3H4ZM5.22704 7.21104C5.55743 6.21717 6.49433 5.5 7.59985 5.5H16.3999C17.5053 5.5 18.4421 6.21704 18.7726 7.21077C19.2173 7.59525 19.4999 8.16467 19.4999 8.80007V11.2001C19.4999 11.8355 19.2173 12.405 18.7725 12.7894C18.442 13.7831 17.5052 14.5 16.3999 14.5H14.1007C13.3182 14.5 12.5739 14.2125 11.9999 13.7083C11.4259 14.2125 10.6815 14.5 9.89899 14.5H7.59985C6.4944 14.5 5.55756 13.7829 5.22711 12.7892C4.78251 12.4047 4.5 11.8354 4.5 11.2001V8.80007C4.5 8.16482 4.78248 7.59551 5.22704 7.21104Z" fill="currentColor"/>
</svg>
