<svg viewBox="0 0 24 24" fill="currentColor" xmlns="http://www.w3.org/2000/svg">
<path d="M21.25 12C21.25 6.88942 17.1106 2.75 12 2.75C11.4465 2.75 10.9179 2.79302 10.4126 2.86951L12.4505 4.40035C12.7816 4.64913 12.8484 5.11929 12.5997 5.45046C12.3509 5.78164 11.8807 5.84844 11.5495 5.59965L8.2162 3.09562C7.98987 2.92559 7.87855 2.64262 7.92838 2.36396C7.9782 2.08529 8.18069 1.85843 8.45191 1.77737C9.51566 1.45947 10.6955 1.25 12 1.25C17.939 1.25 22.75 6.06099 22.75 12C22.75 15.2114 21.3424 18.0938 19.1124 20.0623C18.8019 20.3364 18.328 20.3069 18.0538 19.9963C17.7797 19.6858 17.8092 19.2119 18.1198 18.9377C20.0406 17.2421 21.25 14.7635 21.25 12Z" fill="currentColor"/>
<path d="M4.79948 9C4.79948 8.44772 5.2472 8 5.79948 8H18.1995C18.7518 8 19.1995 8.44772 19.1995 9V9.60026C19.6413 9.60026 19.9997 9.95843 19.9997 10.4003V13.6003C19.9997 14.0421 19.6416 14.4003 19.1997 14.4003L19.1995 15C19.1995 15.5523 18.7518 16 18.1995 16H14.6698C14.0011 16 13.3767 15.6658 13.0057 15.1094L12.8315 14.8481C12.4357 14.2543 11.5633 14.2543 11.1674 14.8481L10.9932 15.1094C10.6223 15.6658 9.99782 16 9.32911 16H5.79948C5.24719 16 4.79948 15.5523 4.79948 15V14.4003C4.35789 14.4 4 14.0419 4 13.6003V10.4003C4 9.95861 4.35789 9.60054 4.79948 9.60026V9ZM9.5 12C9.5 11.1716 8.82843 10.5 8 10.5C7.17157 10.5 6.5 11.1716 6.5 12C6.5 12.8284 7.17157 13.5 8 13.5C8.82843 13.5 9.5 12.8284 9.5 12ZM16 13.5C16.8284 13.5 17.5 12.8284 17.5 12C17.5 11.1716 16.8284 10.5 16 10.5C15.1716 10.5 14.5 11.1716 14.5 12C14.5 12.8284 15.1716 13.5 16 13.5Z" fill="currentColor"/>
<path d="M12 21.25C6.88942 21.25 2.75 17.1106 2.75 12C2.75 9.23652 3.9594 6.75789 5.88024 5.06228C6.19077 4.78816 6.22029 4.3142 5.94617 4.00367C5.67204 3.69314 5.19809 3.66362 4.88756 3.93774C2.6576 5.90622 1.25 8.78865 1.25 12C1.25 17.939 6.06099 22.75 12 22.75C13.3045 22.75 14.4843 22.5405 15.5481 22.2226C15.8193 22.1416 16.0218 21.9147 16.0716 21.636C16.1215 21.3574 16.0101 21.0744 15.7838 20.9044L12.4505 18.4003C12.1193 18.1516 11.6491 18.2184 11.4004 18.5495C11.1516 18.8807 11.2184 19.3509 11.5495 19.5997L13.5874 21.1305C13.0821 21.207 12.5535 21.25 12 21.25Z" fill="currentColor"/>
</svg>
