<svg viewBox="0 0 24 24" fill="currentColor" xmlns="http://www.w3.org/2000/svg">
<path d="M8.75 2C8.19772 2 7.75 2.44772 7.75 3V3.5C7.33579 3.5 7 3.83579 7 4.25V7.25C7 7.66421 7.33579 8 7.75 8V8.5C7.75 9.05228 8.19772 9.5 8.75 9.5H11.9296C12.5983 9.5 13.2228 9.1658 13.5937 8.6094L13.6679 8.49808C14.0638 7.90434 14.9362 7.90434 15.3321 8.49808L15.4063 8.6094C15.7772 9.1658 16.4017 9.5 17.0704 9.5H20.25C20.8023 9.5 21.25 9.05228 21.25 8.5V8C21.6642 8 22 7.66421 22 7.25V4.25C22 3.83579 21.6642 3.5 21.25 3.5V3C21.25 2.44772 20.8023 2 20.25 2H8.75ZM11 7.5C10.1716 7.5 9.5 6.82843 9.5 6C9.5 5.17157 10.1716 4.5 11 4.5C11.8284 4.5 12.5 5.17157 12.5 6C12.5 6.82843 11.8284 7.5 11 7.5ZM19.5 6C19.5 6.82843 18.8284 7.5 18 7.5C17.1716 7.5 16.5 6.82843 16.5 6C16.5 5.17157 17.1716 4.5 18 4.5C18.8284 4.5 19.5 5.17157 19.5 6Z" fill="currentColor"/>
<path d="M11.9296 11C12.9138 11 13.8432 10.5863 14.5 9.87562C15.1568 10.5863 16.0862 11 17.0704 11H20.25C20.9315 11 21.5491 10.7274 22 10.2853V14C22 15.1046 21.1046 16 20 16H14.0833L14.4375 20.25H16C16.4142 20.25 16.75 20.5858 16.75 21C16.75 21.4142 16.4142 21.75 16 21.75H8C7.58579 21.75 7.25 21.4142 7.25 21C7.25 20.5858 7.58579 20.25 8 20.25H9.5625L9.91667 16H4C2.89543 16 2 15.1046 2 14V5C2 3.89543 2.89543 3 4 3H5.879C5.63981 3.35736 5.5 3.78733 5.5 4.25V7.25C5.5 7.93738 5.8086 8.5526 6.29319 8.96472C6.51121 10.1236 7.52799 11 8.75 11H11.9296Z" fill="currentColor"/>
</svg>
