<svg viewBox="0 0 24 24" fill="currentColor" xmlns="http://www.w3.org/2000/svg">
<path d="M12.75 2C12.75 1.58579 12.4142 1.25 12 1.25C11.5858 1.25 11.25 1.58579 11.25 2V4.19719C11.1747 4.22767 11.1008 4.26292 11.0287 4.30296L5.62735 7.30371C5.54441 7.34979 5.46558 7.40127 5.39121 7.45757L12 11.1291L18.6088 7.45757C18.5344 7.40127 18.4556 7.34979 18.3727 7.30371L12.9713 4.30295C12.8992 4.26293 12.8253 4.22767 12.75 4.19719V2ZM12.75 4.19719V7C12.75 7.41421 12.4142 7.75 12 7.75C11.5858 7.75 11.25 7.41421 11.25 7V4.19719C11.7308 4.00263 12.2692 4.00263 12.75 4.19719ZM19.3779 8.74623L12.75 12.4284V19.777C12.8253 19.7465 12.8992 19.7113 12.9713 19.6712L17.2394 17.3001L19.4697 19.5303C19.7626 19.8232 20.2374 19.8232 20.5303 19.5303C20.8232 19.2374 20.8232 18.7626 20.5303 18.4697L18.5908 16.5301C19.0965 16.1561 19.4014 15.5612 19.4014 14.9222V9.05203C19.4014 8.94869 19.3934 8.84651 19.3779 8.74623ZM18.5908 16.5301C18.5217 16.5812 18.4489 16.6281 18.3727 16.6705L17.2394 17.3001L14.4697 14.5303C14.1768 14.2374 14.1768 13.7626 14.4697 13.4697C14.7626 13.1768 15.2374 13.1768 15.5303 13.4697L18.5908 16.5301ZM11.25 12.4284V19.777C11.1747 19.7465 11.1008 19.7113 11.0287 19.6712L6.11775 16.9429L8.53033 14.5303C8.82322 14.2374 8.82322 13.7626 8.53033 13.4697C8.23744 13.1768 7.76256 13.1768 7.46967 13.4697L4.9239 16.0154C4.71525 15.6958 4.59863 15.3174 4.59863 14.9222V9.05203C4.59863 8.94869 4.6066 8.84651 4.62211 8.74623L11.25 12.4284ZM2.46967 18.4697L4.9239 16.0154C5.09865 16.2832 5.33795 16.5097 5.62735 16.6705L6.11775 16.9429L3.53033 19.5303C3.23744 19.8232 2.76256 19.8232 2.46967 19.5303C2.17678 19.2374 2.17678 18.7626 2.46967 18.4697Z" fill="currentColor"/>
</svg>
