<svg viewBox="0 0 24 24" fill="currentColor" xmlns="http://www.w3.org/2000/svg">
<path d="M12 6.75C10.2051 6.75 8.75 8.20507 8.75 10C8.75 11.7949 10.2051 13.25 12 13.25C13.7949 13.25 15.25 11.7949 15.25 10C15.25 8.20507 13.7949 6.75 12 6.75Z" fill="currentColor"/>
<path d="M15.1517 17.3552C18.0029 16.1319 20 13.2992 20 10C20 5.58172 16.4183 2 12 2C7.58172 2 4 5.58172 4 10C4 13.2992 5.99707 16.1319 8.84827 17.3552L7.09468 21.0017C6.79954 21.4898 7.23663 22.0828 7.82341 21.9904C10.75 21.1429 13.25 21.1429 16.1766 21.9904C16.7634 22.0828 17.2005 21.4898 16.9053 21.0017L15.1517 17.3552ZM7.25 10C7.25 7.37665 9.37665 5.25 12 5.25C14.6234 5.25 16.75 7.37665 16.75 10C16.75 12.6234 14.6234 14.75 12 14.75C9.37665 14.75 7.25 12.6234 7.25 10Z" fill="currentColor"/>
</svg>
