<svg viewBox="0 0 24 24" fill="currentColor" xmlns="http://www.w3.org/2000/svg">
<path d="M2 5C2 3.89543 2.89543 3 4 3H20C21.1046 3 22 3.89543 22 5V6.25H2V5Z" fill="currentColor"/>
<path d="M2 7.75H22V19C22 20.1046 21.1046 21 20 21H4C2.89543 21 2 20.1046 2 19V7.75ZM5.07062 16.5381C5.20092 16.5381 5.30379 16.499 5.37923 16.4206C5.45466 16.3376 5.51639 16.2131 5.56439 16.0471L6.24016 13.5422L6.90168 16.0402C6.94626 16.2108 7.00627 16.3376 7.0817 16.4206C7.16057 16.499 7.26515 16.5381 7.39545 16.5381C7.52232 16.5381 7.62348 16.499 7.69891 16.4206C7.77778 16.3376 7.8395 16.2131 7.88408 16.0471L8.89733 12.285C8.95563 12.0776 8.94705 11.9024 8.87162 11.7594C8.79961 11.6119 8.68474 11.5381 8.52701 11.5381C8.40014 11.5381 8.30069 11.5796 8.22869 11.6626C8.16011 11.741 8.10524 11.8655 8.0641 12.0361L7.38092 14.7197L6.71138 12.043C6.6668 11.8678 6.61022 11.741 6.54164 11.6626C6.47306 11.5796 6.3822 11.5381 6.26904 11.5381C6.15589 11.5381 6.0633 11.5796 5.9913 11.6626C5.91929 11.741 5.85928 11.8655 5.81128 12.0361L5.1135 14.6572L4.4637 12.0361C4.42255 11.8655 4.36597 11.741 4.29396 11.6626C4.22196 11.5796 4.12252 11.5381 3.99565 11.5381C3.80705 11.5381 3.67504 11.6119 3.5996 11.7594C3.52759 11.9024 3.51902 12.0776 3.57388 12.285L4.57685 16.0402C4.62143 16.2108 4.68315 16.3376 4.76202 16.4206C4.84088 16.499 4.94375 16.5381 5.07062 16.5381ZM10.872 16.5381C11.0023 16.5381 11.1052 16.499 11.1807 16.4206C11.2561 16.3376 11.3178 16.2131 11.3658 16.0471L12.0416 13.5422L12.7031 16.0402C12.7477 16.2108 12.8077 16.3376 12.8831 16.4206C12.962 16.499 13.0666 16.5381 13.1969 16.5381C13.3237 16.5381 13.4249 16.499 13.5003 16.4206C13.5792 16.3376 13.6409 16.2131 13.6855 16.0471L14.6988 12.285C14.757 12.0776 14.7485 11.9024 14.673 11.7594C14.601 11.6119 14.4862 11.5381 14.3284 11.5381C14.2016 11.5381 14.1021 11.5796 14.0301 11.6626C13.9615 11.741 13.9067 11.8655 13.8655 12.0361L13.1824 14.7197L12.5128 12.043C12.4682 11.8678 12.4116 11.741 12.3431 11.6626C12.2745 11.5796 12.1836 11.5381 12.0705 11.5381C11.9573 11.5381 11.8647 11.5796 11.7927 11.6626C11.7207 11.741 11.6607 11.8655 11.6127 12.0361L10.9149 14.6572L10.2651 12.0361C10.224 11.8655 10.1674 11.741 10.0954 11.6626C10.0234 11.5796 9.92394 11.5381 9.79707 11.5381C9.60848 11.5381 9.47646 11.6119 9.40103 11.7594C9.32902 11.9024 9.32045 12.0776 9.37531 12.285L10.3783 16.0402C10.4229 16.2108 10.4846 16.3376 10.5634 16.4206C10.6423 16.499 10.7452 16.5381 10.872 16.5381ZM16.3649 16.4206C16.4437 16.499 16.5466 16.5381 16.6735 16.5381C16.8038 16.5381 16.9066 16.499 16.9821 16.4206C17.0575 16.3376 17.1192 16.2131 17.1672 16.0471L17.843 13.5422L18.5045 16.0402C18.5491 16.2108 18.6091 16.3376 18.6846 16.4206C18.7634 16.499 18.868 16.5381 18.9983 16.5381C19.1252 16.5381 19.2263 16.499 19.3018 16.4206C19.3806 16.3376 19.4424 16.2131 19.4869 16.0471L20.5002 12.285C20.5585 12.0776 20.5499 11.9024 20.4745 11.7594C20.4025 11.6119 20.2876 11.5381 20.1299 11.5381C20.003 11.5381 19.9035 11.5796 19.8315 11.6626C19.763 11.741 19.7081 11.8655 19.6669 12.0361L18.9838 14.7197L18.3142 12.043C18.2696 11.8678 18.2131 11.741 18.1445 11.6626C18.0759 11.5796 17.985 11.5381 17.8719 11.5381C17.7587 11.5381 17.6662 11.5796 17.5941 11.6626C17.5221 11.741 17.4621 11.8655 17.4141 12.0361L16.7164 14.6572L16.0665 12.0361C16.0254 11.8655 15.9688 11.741 15.8968 11.6626C15.8248 11.5796 15.7254 11.5381 15.5985 11.5381C15.4099 11.5381 15.2779 11.6119 15.2025 11.7594C15.1304 11.9024 15.1219 12.0776 15.1767 12.285L16.1797 16.0402C16.2243 16.2108 16.286 16.3376 16.3649 16.4206Z" fill="currentColor"/>
</svg>
