<svg viewBox="0 0 24 24" fill="currentColor" xmlns="http://www.w3.org/2000/svg">
<path d="M2 5C2 3.89543 2.89543 3 4 3H20C21.1046 3 22 3.89543 22 5V6.25H2V5Z" fill="currentColor"/>
<path d="M2 7.75V19C2 20.1046 2.89543 21 4 21H20C21.1046 21 22 20.1046 22 19V7.75H2ZM8.42126 10.4566C8.31256 10.4101 8.21191 10.3625 8.11914 10.3143C8.70245 9.72901 9.4173 9.27487 10.2156 9C9.99676 9.29751 9.80907 9.64194 9.65039 10.0122C9.54846 10.25 9.45575 10.505 9.373 10.7745C9.02099 10.684 8.7014 10.5767 8.42126 10.4566ZM7.83038 11.8354C8.19752 11.9927 8.60542 12.1281 9.04474 12.2388C8.95149 12.8528 8.90197 13.5071 8.90197 14.182C8.90197 14.857 8.95149 15.5112 9.04474 16.1253C8.60542 16.2359 8.19752 16.3713 7.83038 16.5287C7.61237 16.6221 7.4033 16.7256 7.2075 16.8396C6.77011 16.0525 6.521 15.1463 6.521 14.182C6.521 13.2177 6.77011 12.3116 7.2075 11.5244C7.4033 11.6384 7.61237 11.7419 7.83038 11.8354ZM16.7929 16.8396C16.5971 16.7256 16.388 16.6221 16.17 16.5287C15.8029 16.3713 15.395 16.2359 14.9557 16.1253C15.0489 15.5112 15.0984 14.857 15.0984 14.182C15.0984 13.5071 15.0489 12.8528 14.9557 12.2388C15.395 12.1281 15.8029 11.9927 16.17 11.8354C16.388 11.7419 16.5971 11.6384 16.7929 11.5244C17.2303 12.3116 17.4794 13.2177 17.4794 14.182C17.4794 15.1463 17.2303 16.0525 16.7929 16.8396ZM14.6274 17.5895C14.9794 17.68 15.299 17.7873 15.5791 17.9074C15.6878 17.954 15.7885 18.0016 15.8813 18.0497C15.298 18.635 14.5831 19.0892 13.7848 19.364C14.0036 19.0665 14.1913 18.7221 14.35 18.3518C14.4519 18.114 14.5447 17.8591 14.6274 17.5895ZM13.4784 15.8617C13.0029 15.8082 12.5074 15.7802 12.0002 15.7802C11.493 15.7802 10.9975 15.8082 10.522 15.8617C10.4449 15.3413 10.402 14.7764 10.402 14.182C10.402 13.5877 10.4449 13.0227 10.522 12.5023C10.9975 12.5558 11.493 12.5838 12.0002 12.5838C12.5074 12.5838 13.0029 12.5558 13.4784 12.5023C13.5555 13.0227 13.5984 13.5877 13.5984 14.182C13.5984 14.7764 13.5555 15.3413 13.4784 15.8617ZM10.8664 17.3338C11.2286 17.299 11.608 17.2802 12.0002 17.2802C12.3924 17.2802 12.7718 17.299 13.134 17.3338C13.083 17.4847 13.0286 17.6273 12.9713 17.761C12.7826 18.2011 12.5773 18.5095 12.3874 18.6968C12.2008 18.881 12.0708 18.9112 12.0002 18.9112C11.9296 18.9112 11.7996 18.881 11.613 18.6968C11.4231 18.5095 11.2178 18.2011 11.0291 17.761C10.9718 17.6273 10.9174 17.4847 10.8664 17.3338ZM9.373 17.5895C9.45575 17.8591 9.54846 18.114 9.65039 18.3518C9.80907 18.7221 9.99676 19.0665 10.2156 19.364C9.4173 19.0892 8.70245 18.635 8.11914 18.0497C8.21192 18.0016 8.31257 17.954 8.42126 17.9074C8.7014 17.7873 9.02099 17.68 9.373 17.5895ZM12.0002 11.0838C11.608 11.0838 11.2286 11.0651 10.8664 11.0302C10.9174 10.8794 10.9718 10.7367 11.0291 10.6031C11.2178 10.1629 11.4231 9.85457 11.613 9.6672C11.7996 9.48301 11.9296 9.45281 12.0002 9.45281C12.0708 9.45281 12.2008 9.48301 12.3874 9.6672C12.5773 9.85457 12.7826 10.1629 12.9713 10.6031C13.0286 10.7367 13.083 10.8794 13.134 11.0302C12.7718 11.0651 12.3924 11.0838 12.0002 11.0838ZM15.5791 10.4566C15.299 10.5767 14.9794 10.684 14.6274 10.7745C14.5447 10.505 14.4519 10.25 14.35 10.0122C14.1913 9.64194 14.0036 9.29751 13.7848 9C14.5831 9.27487 15.298 9.72901 15.8813 10.3143C15.7885 10.3625 15.6878 10.4101 15.5791 10.4566Z" fill="currentColor"/>
</svg>
