<svg viewBox="0 0 24 24" fill="currentColor" xmlns="http://www.w3.org/2000/svg">
<path d="M15.4274 21.5109L15.001 14.5516C14.9748 14.1243 15.4578 13.8512 15.8224 14.087L21.7616 17.9284C22.159 18.1855 22.0359 18.7856 21.568 18.8722L18.6193 19.4186C18.5013 19.4404 18.3943 19.5009 18.3159 19.5902L16.3586 21.8186C16.048 22.1722 15.456 21.9766 15.4274 21.5109Z" fill="currentColor"/>
<path d="M4 2C2.89543 2 2 2.89543 2 4V5.25H22V4C22 2.89543 21.1046 2 20 2H4Z" fill="currentColor"/>
<path d="M22 6.75H2V18C2 19.1046 2.89543 20 4 20H13.8318L13.5477 15.3626C13.5326 15.3838 13.5168 15.4031 13.5002 15.4205C13.4247 15.4989 13.3236 15.5381 13.1967 15.5381C13.0664 15.5381 12.9618 15.4989 12.8829 15.4205C12.8075 15.3376 12.7475 15.2108 12.7029 15.0402L12.0414 12.5421L11.3656 15.0471C11.3176 15.2131 11.2559 15.3376 11.1805 15.4205C11.105 15.4989 11.0022 15.5381 10.8719 15.5381C10.745 15.5381 10.6421 15.4989 10.5633 15.4205C10.4844 15.3376 10.4227 15.2108 10.3781 15.0402L9.37513 11.285C9.32026 11.0775 9.32884 10.9023 9.40084 10.7594C9.47628 10.6119 9.6083 10.5381 9.79689 10.5381C9.92376 10.5381 10.0232 10.5796 10.0952 10.6626C10.1672 10.741 10.2238 10.8655 10.2649 11.036L10.9147 13.6571L11.6125 11.036C11.6605 10.8655 11.7205 10.741 11.7925 10.6626C11.8645 10.5796 11.9571 10.5381 12.0703 10.5381C12.1834 10.5381 12.2743 10.5796 12.3429 10.6626C12.4115 10.741 12.468 10.8678 12.5126 11.043L13.1822 13.7197L13.8653 11.036C13.9065 10.8655 13.9614 10.741 14.0299 10.6626C14.1019 10.5796 14.2014 10.5381 14.3282 10.5381C14.486 10.5381 14.6008 10.6119 14.6729 10.7594C14.7483 10.9023 14.7569 11.0775 14.6986 11.285L14.2507 12.9478C14.6038 12.6703 15.0467 12.511 15.5018 12.5028L15.1766 11.285C15.1217 11.0775 15.1303 10.9023 15.2023 10.7594C15.2777 10.6119 15.4097 10.5381 15.5983 10.5381C15.7252 10.5381 15.8246 10.5796 15.8966 10.6626C15.9686 10.741 16.0252 10.8655 16.0664 11.036L16.4889 12.7402C16.5388 12.7669 16.5882 12.796 16.6368 12.8275L16.8929 12.9931L17.4139 11.036C17.4619 10.8655 17.522 10.741 17.594 10.6626C17.666 10.5796 17.7586 10.5381 17.8717 10.5381C17.9849 10.5381 18.0757 10.5796 18.1443 10.6626C18.2129 10.741 18.2695 10.8678 18.314 11.043L18.9836 13.7197L19.6668 11.036C19.7079 10.8655 19.7628 10.741 19.8314 10.6626C19.9034 10.5796 20.0028 10.5381 20.1297 10.5381C20.2874 10.5381 20.4023 10.6119 20.4743 10.7594C20.5497 10.9023 20.5583 11.0775 20.5 11.285L19.5731 14.7266L22 16.2963V6.75ZM4.76183 15.4205C4.68297 15.3376 4.62125 15.2108 4.57667 15.0402L3.5737 11.285C3.51884 11.0775 3.52741 10.9023 3.59942 10.7594C3.67486 10.6119 3.80687 10.5381 3.99546 10.5381C4.12233 10.5381 4.22177 10.5796 4.29378 10.6626C4.36579 10.741 4.42237 10.8655 4.46351 11.036L5.11332 13.6571L5.81109 11.036C5.8591 10.8655 5.9191 10.741 5.99111 10.6626C6.06312 10.5796 6.1557 10.5381 6.26886 10.5381C6.38201 10.5381 6.47288 10.5796 6.54146 10.6626C6.61004 10.741 6.66662 10.8678 6.71119 11.043L7.38074 13.7197L8.06391 11.036C8.10506 10.8655 8.15992 10.741 8.2285 10.6626C8.30051 10.5796 8.39995 10.5381 8.52682 10.5381C8.68455 10.5381 8.79942 10.6119 8.87143 10.7594C8.94687 10.9023 8.95544 11.0775 8.89715 11.285L7.88389 15.0471C7.83932 15.2131 7.7776 15.3376 7.69873 15.4205C7.62329 15.4989 7.52214 15.5381 7.39527 15.5381C7.26497 15.5381 7.16039 15.4989 7.08152 15.4205C7.00608 15.3376 6.94608 15.2108 6.9015 15.0402L6.23997 12.5421L5.56421 15.0471C5.5162 15.2131 5.45448 15.3376 5.37905 15.4205C5.30361 15.4989 5.20074 15.5381 5.07044 15.5381C4.94357 15.5381 4.8407 15.4989 4.76183 15.4205Z" fill="currentColor"/>
<path d="M18.1833 13.8277L17.8428 12.5421L17.5981 13.4492L18.1833 13.8277Z" fill="currentColor"/>
</svg>
