<svg viewBox="0 0 24 24" fill="currentColor" xmlns="http://www.w3.org/2000/svg">
<path d="M8 3C8 2.44772 8.44771 2 9 2H15C15.5523 2 16 2.44772 16 3V6.5H8V3Z" fill="currentColor"/>
<path d="M8 8H16C17.1046 8 18 8.89543 18 10V18C18 19.1046 17.1046 20 16 20H12.75V22C12.75 22.4142 12.4142 22.75 12 22.75C11.5858 22.75 11.25 22.4142 11.25 22V20H8C6.89543 20 6 19.1046 6 18V10C6 8.89543 6.89543 8 8 8ZM13.5303 11.5303C13.8232 11.2374 13.8232 10.7626 13.5303 10.4697C13.2374 10.1768 12.7626 10.1768 12.4697 10.4697L9.46967 13.4697C9.25517 13.6842 9.191 14.0068 9.30709 14.287C9.42318 14.5673 9.69665 14.75 10 14.75H12.1893L10.4697 16.4697C10.1768 16.7626 10.1768 17.2374 10.4697 17.5303C10.7626 17.8232 11.2374 17.8232 11.5303 17.5303L14.5303 14.5303C14.7448 14.3158 14.809 13.9932 14.6929 13.713C14.5768 13.4327 14.3033 13.25 14 13.25H11.8107L13.5303 11.5303Z" fill="currentColor"/>
</svg>
