<svg viewBox="0 0 24 24" fill="currentColor" xmlns="http://www.w3.org/2000/svg">
<path d="M11.5272 18.0151C11.4084 18.1068 11.264 18.1527 11.0938 18.1527C10.8402 18.1527 10.6428 18.0518 10.5016 17.8501C10.3603 17.6447 10.2897 17.3604 10.2897 16.9972C10.2897 16.7515 10.3218 16.5442 10.386 16.3755C10.4502 16.2031 10.5417 16.0729 10.6605 15.9849C10.7825 15.8932 10.9269 15.8473 11.0938 15.8473C11.3474 15.8473 11.5448 15.9482 11.6861 16.1499C11.8273 16.3517 11.8979 16.6341 11.8979 16.9972C11.8979 17.2393 11.8658 17.4466 11.8016 17.619C11.7374 17.7914 11.6459 17.9234 11.5272 18.0151Z" fill="currentColor"/>
<path d="M14.2266 16.7772H14.814C14.9842 16.7772 15.1142 16.7387 15.2041 16.6616C15.2939 16.5846 15.3389 16.4654 15.3389 16.304C15.3389 16.1499 15.2939 16.0344 15.2041 15.9574C15.1142 15.8767 14.9842 15.8363 14.814 15.8363H14.2266V16.7772Z" fill="currentColor"/>
<path d="M18.0885 18.1196H17.6262V15.8802H18.0885C18.4223 15.8802 18.6711 15.9719 18.8348 16.1553C18.9985 16.3351 19.0803 16.6157 19.0803 16.9971C19.0803 17.1879 19.0595 17.3529 19.0178 17.4923C18.9792 17.6317 18.9182 17.7473 18.8348 17.839C18.7545 17.9307 18.6518 18.0004 18.5266 18.048C18.4047 18.0957 18.2586 18.1196 18.0885 18.1196Z" fill="currentColor"/>
<path d="M5 2H13.25V8C13.25 8.9665 14.0335 9.75 15 9.75H20.9992C20.9997 9.76904 21 9.78811 21 9.80721V20C21 21.1046 20.1046 22 19 22H5C3.89543 22 3 21.1046 3 20V4C3 2.89543 3.89543 2 5 2ZM10.1886 18.7524C10.4486 18.9175 10.7504 19 11.0938 19C11.3506 19 11.5849 18.9541 11.7968 18.8624C12.0087 18.7671 12.19 18.6314 12.3409 18.4553C12.495 18.2756 12.6121 18.0628 12.6924 17.8171C12.7758 17.5713 12.8176 17.298 12.8176 16.9972C12.8176 16.5938 12.7454 16.2435 12.6009 15.9464C12.4565 15.6456 12.2542 15.4127 11.9942 15.2476C11.7374 15.0825 11.4373 15 11.0938 15C10.837 15 10.6027 15.0477 10.3908 15.1431C10.179 15.2348 9.99602 15.3686 9.84194 15.5447C9.69107 15.7208 9.57391 15.9317 9.49045 16.1774C9.4102 16.4232 9.37008 16.6965 9.37008 16.9972C9.37008 17.3971 9.44069 17.7474 9.58193 18.0481C9.72638 18.3489 9.92861 18.5837 10.1886 18.7524ZM5.14557 18.8955C5.2194 18.9578 5.31569 18.989 5.43446 18.989C5.55644 18.989 5.65274 18.9578 5.72336 18.8955C5.79398 18.8294 5.85176 18.7304 5.8967 18.5983L6.5293 16.6054L7.14858 18.5928C7.19031 18.7286 7.24649 18.8294 7.3171 18.8955C7.39093 18.9578 7.48884 18.989 7.61082 18.989C7.72958 18.989 7.82428 18.9578 7.8949 18.8955C7.96873 18.8294 8.02651 18.7304 8.06824 18.5983L9.01678 15.6052C9.07135 15.4402 9.06332 15.3008 8.9927 15.1871C8.9253 15.0697 8.81776 15.011 8.6701 15.011C8.55134 15.011 8.45825 15.044 8.39084 15.11C8.32664 15.1724 8.27528 15.2714 8.23676 15.4072L7.59722 17.5423L6.97043 15.4127C6.9287 15.2733 6.87574 15.1724 6.81154 15.11C6.74734 15.044 6.66227 15.011 6.55634 15.011C6.45042 15.011 6.36375 15.044 6.29634 15.11C6.22893 15.1724 6.17275 15.2714 6.12781 15.4072L5.4746 17.4925L4.8663 15.4072C4.82778 15.2714 4.77482 15.1724 4.70741 15.11C4.64 15.044 4.54691 15.011 4.42814 15.011C4.25159 15.011 4.12801 15.0697 4.05739 15.1871C3.98998 15.3008 3.98195 15.4402 4.03331 15.6052L4.97223 18.5928C5.01396 18.7286 5.07174 18.8294 5.14557 18.8955ZM13.7836 18.989C13.9313 18.989 14.042 18.945 14.1159 18.8569C14.1897 18.7652 14.2266 18.6387 14.2266 18.4773V17.4924H14.4914C14.5685 17.4924 14.6359 17.5089 14.6937 17.542C14.7547 17.5713 14.8044 17.6263 14.8429 17.707L15.2811 18.6259C15.3421 18.7506 15.4111 18.8423 15.4881 18.901C15.5684 18.9597 15.6711 18.989 15.7963 18.989C15.9215 18.989 16.0162 18.9578 16.0804 18.8955C16.1478 18.8294 16.1831 18.7469 16.1863 18.6479C16.1895 18.5452 16.1654 18.4406 16.1141 18.3343L15.8733 17.8391C15.8027 17.685 15.7144 17.5713 15.6085 17.4979C15.5585 17.4616 15.5049 17.4338 15.4477 17.4146C15.5119 17.3939 15.5719 17.3685 15.6278 17.3384C15.8075 17.2393 15.944 17.1 16.037 16.9202C16.1333 16.7368 16.1815 16.5222 16.1815 16.2765C16.1815 15.895 16.0756 15.5979 15.8637 15.3851C15.6551 15.1687 15.3581 15.0605 14.9729 15.0605H13.7885C13.6472 15.0605 13.5365 15.1045 13.4562 15.1926C13.3792 15.2806 13.3407 15.4072 13.3407 15.5722V18.4773C13.3407 18.6387 13.3792 18.7652 13.4562 18.8569C13.5333 18.945 13.6424 18.989 13.7836 18.989ZM16.8558 18.8074C16.9361 18.8955 17.0517 18.9395 17.2025 18.9395H18.1462C18.4416 18.9395 18.7032 18.8973 18.9311 18.8129C19.1622 18.7249 19.3564 18.5983 19.5137 18.4333C19.671 18.2646 19.7914 18.061 19.8748 17.8226C19.9583 17.5805 20 17.3054 20 16.9972C20 16.381 19.8379 15.9042 19.5137 15.5667C19.1927 15.2293 18.7369 15.0605 18.1462 15.0605H17.2025C17.0517 15.0605 16.9361 15.1064 16.8558 15.1981C16.7788 15.2861 16.7403 15.4145 16.7403 15.5832V18.4168C16.7403 18.5855 16.7788 18.7157 16.8558 18.8074Z" fill="currentColor"/>
<path d="M14.8399 2.61172L20.2768 8.24999H15C14.8619 8.24999 14.75 8.13806 14.75 7.99999V2.52417C14.7808 2.55232 14.8108 2.58151 14.8399 2.61172Z" fill="currentColor"/>
</svg>
