<svg viewBox="0 0 24 24" fill="currentColor" xmlns="http://www.w3.org/2000/svg">
<path d="M15.8154 15.7386H14.8659V14.2448H15.8154C16.083 14.2448 16.2889 14.3057 16.433 14.4274C16.5771 14.5491 16.6491 14.7372 16.6491 14.9917C16.6491 15.2407 16.5771 15.4288 16.433 15.556C16.2889 15.6777 16.083 15.7386 15.8154 15.7386Z" fill="currentColor"/>
<path d="M5 2H13.25V8C13.25 8.9665 14.0335 9.75 15 9.75H20.9992C20.9997 9.76904 21 9.78811 21 9.80721V20C21 21.1046 20.1046 22 19 22H5C3.89543 22 3 21.1046 3 20V4C3 2.89543 3.89543 2 5 2ZM11.751 19C11.9877 19 12.1652 18.9336 12.2836 18.8008C12.402 18.6625 12.4611 18.4689 12.4611 18.2199V13.7801C12.4611 13.5256 12.3994 13.332 12.2759 13.1992C12.1575 13.0664 11.9825 13 11.751 13C11.5245 13 11.3495 13.0664 11.226 13.1992C11.1025 13.332 11.0408 13.5256 11.0408 13.7801V18.2199C11.0408 18.4689 11.1025 18.6625 11.226 18.8008C11.3495 18.9336 11.5245 19 11.751 19ZM6.71791 18.9253H9.85198C10.0475 18.9253 10.1968 18.8728 10.2997 18.7676C10.4078 18.657 10.4618 18.4993 10.4618 18.2946C10.4618 18.0899 10.4078 17.935 10.2997 17.8299C10.1968 17.7248 10.0475 17.6722 9.85198 17.6722H7.7016L10.045 14.5104C10.1736 14.3389 10.2585 14.1674 10.2997 13.9959C10.3409 13.8243 10.3409 13.6694 10.2997 13.5311C10.2585 13.3928 10.1788 13.2822 10.0604 13.1992C9.94719 13.1162 9.80052 13.0747 9.6204 13.0747H6.60983C6.40913 13.0747 6.25731 13.1272 6.15439 13.2324C6.05146 13.3375 6 13.4924 6 13.6971C6 13.9018 6.05146 14.0595 6.15439 14.1701C6.25731 14.2752 6.40913 14.3278 6.60983 14.3278H8.6367L6.29334 17.4896C6.16468 17.6611 6.07977 17.8326 6.0386 18.0042C5.99743 18.1701 5.99743 18.325 6.0386 18.4689C6.07977 18.6072 6.15696 18.7178 6.27018 18.8008C6.38854 18.8838 6.53779 18.9253 6.71791 18.9253ZM13.6308 18.8008C13.7543 18.9336 13.9293 19 14.1557 19C14.3925 19 14.57 18.9336 14.6884 18.8008C14.8067 18.6625 14.8659 18.4716 14.8659 18.2282V16.9087H16.0624C16.68 16.9087 17.156 16.74 17.4905 16.4025C17.8302 16.0595 18 15.5892 18 14.9917C18 14.3942 17.8302 13.9267 17.4905 13.5892C17.156 13.2462 16.68 13.0747 16.0624 13.0747H14.1635C13.937 13.0747 13.7595 13.1411 13.6308 13.2739C13.5073 13.4066 13.4455 13.5975 13.4455 13.8465V18.2282C13.4455 18.4716 13.5073 18.6625 13.6308 18.8008Z" fill="currentColor"/>
<path d="M14.8399 2.61172L20.2768 8.24999H15C14.8619 8.24999 14.75 8.13806 14.75 7.99999V2.52417C14.7808 2.55232 14.8108 2.58151 14.8399 2.61172Z" fill="currentColor"/>
</svg>
