<svg viewBox="0 0 24 24" fill="currentColor" xmlns="http://www.w3.org/2000/svg">
<path d="M16.8116 17.8723C15.2436 19.1996 13.2153 20 11 20C6.02944 20 2 15.9706 2 11C2 6.02944 6.02944 2 11 2C15.9706 2 20 6.02944 20 11C20 13.2153 19.1996 15.2436 17.8723 16.8116L22.5303 21.4697C22.8232 21.7626 22.8232 22.2374 22.5303 22.5303C22.2374 22.8232 21.7626 22.8232 21.4697 22.5303L16.8116 17.8723ZM5.25 11C5.25 11.4142 5.58579 11.75 6 11.75H16C16.4142 11.75 16.75 11.4142 16.75 11C16.75 10.5858 16.4142 10.25 16 10.25H6C5.58579 10.25 5.25 10.5858 5.25 11Z" fill="currentColor"/>
</svg>
