<svg viewBox="0 0 24 24" fill="currentColor" xmlns="http://www.w3.org/2000/svg">
<path d="M12 22C17.5228 22 22 17.5228 22 12C22 6.47715 17.5228 2 12 2C6.47715 2 2 6.47715 2 12C2 17.5228 6.47715 22 12 22ZM5.77257 7.31803C5.87303 6.91619 6.28023 6.67186 6.68208 6.77233C7.6773 7.02113 8.63979 7.28996 9.42182 7.71652C10.2334 8.15919 10.888 8.79172 11.2117 9.76276C11.3427 10.1557 11.1303 10.5805 10.7374 10.7114C10.4726 10.7997 10.1935 10.7321 9.99943 10.5585C9.97894 11.3598 9.5394 11.9999 9.00018 11.9999C8.44789 11.9999 8.00018 11.3284 8.00018 10.4999C8.00018 9.8078 8.3127 9.22515 8.73761 9.05217L8.70354 9.03336C8.11056 8.70992 7.32305 8.47873 6.31828 8.22754C5.91643 8.12708 5.67211 7.71988 5.77257 7.31803ZM18.2278 7.31803C18.3282 7.71988 18.0839 8.12708 17.6821 8.22754C16.6773 8.47873 15.8898 8.70992 15.2968 9.03336L15.2627 9.05217C15.6877 9.22515 16.0002 9.8078 16.0002 10.4999C16.0002 11.3284 15.5525 11.9999 15.0002 11.9999C14.461 11.9999 14.0214 11.3598 14.0009 10.5585C13.8069 10.7321 13.5277 10.7997 13.263 10.7114C12.87 10.5805 12.6577 10.1557 12.7887 9.76276C13.1124 8.79172 13.767 8.15919 14.5785 7.71652C15.3606 7.28996 16.3231 7.02113 17.3183 6.77233C17.7201 6.67186 18.1273 6.91619 18.2278 7.31803ZM15.8689 16.8155C15.9706 17.2473 15.4159 17.5276 15.0287 17.3111C14.3398 16.9259 13.3065 16.5226 12.0002 16.5226C10.6939 16.5226 9.66057 16.9259 8.97166 17.3111C8.58445 17.5276 8.02978 17.2473 8.13149 16.8155C8.51562 15.1846 9.7542 13.9999 12.0002 13.9999C14.2462 13.9999 15.4847 15.1846 15.8689 16.8155Z" fill="currentColor"/>
</svg>
