<svg viewBox="0 0 24 24" fill="currentColor" xmlns="http://www.w3.org/2000/svg">
<path d="M12 22C17.5228 22 22 17.5228 22 12C22 6.47715 17.5228 2 12 2C6.47715 2 2 6.47715 2 12C2 17.5228 6.47715 22 12 22ZM18.1732 6.38194C18.6476 6.44972 19 6.85602 19 7.33525V10.1529C19 10.6418 18.6466 11.059 18.1644 11.1393L17.644 11.2261C16.5555 11.4075 15.4445 11.4075 14.356 11.2261L13.6235 11.104C13.2427 11.0405 12.9324 10.7635 12.8264 10.3923L12.3571 8.75H11.6429L11.1736 10.3923C11.0676 10.7635 10.7573 11.0405 10.3765 11.104L9.64399 11.2261C8.5555 11.4075 7.4445 11.4075 6.35601 11.2261L5.8356 11.1393C5.35341 11.059 5 10.6418 5 10.1529V7.33525C5 6.85602 5.35238 6.44972 5.82679 6.38194C7.57521 6.13217 9.35865 6.36805 10.982 7.06378L11.1904 7.1531C11.2531 7.17994 11.3117 7.21252 11.3659 7.25H12.6341C12.6883 7.21252 12.7469 7.17994 12.8096 7.1531L13.018 7.06378C14.6414 6.36805 16.4248 6.13217 18.1732 6.38194ZM13.2864 13.3069L15.0277 14.0262C15.9211 14.3953 16.007 15.6274 15.167 16.1132L14.6923 16.3877L15.0277 16.5262C15.9211 16.8953 16.007 18.1274 15.167 18.6132L13.3755 19.6493C13.0169 19.8567 12.5581 19.7341 12.3508 19.3755C12.1434 19.017 12.2659 18.5582 12.6245 18.3508L13.8292 17.6541L13.4938 17.5155C12.6005 17.1465 12.5145 15.9144 13.3546 15.4286L13.8292 15.1541L12.7136 14.6932C12.3308 14.5351 12.1487 14.0965 12.3068 13.7137C12.465 13.3309 12.9035 13.1487 13.2864 13.3069Z" fill="currentColor"/>
</svg>
