<svg viewBox="0 0 24 24" fill="currentColor" xmlns="http://www.w3.org/2000/svg">
<path d="M22 12C22 17.5228 17.5228 22 12 22C6.47715 22 2 17.5228 2 12C2 6.47715 6.47715 2 12 2C17.5228 2 22 6.47715 22 12ZM5 7.33519V10.1529C5 10.6417 5.35341 11.0589 5.8356 11.1393L6.35601 11.226C7.4445 11.4074 8.5555 11.4074 9.64399 11.226L10.3765 11.1039C10.7573 11.0404 11.0676 10.7634 11.1736 10.3922L11.6429 8.75H12.3571L12.8264 10.3922C12.9324 10.7634 13.2427 11.0404 13.6235 11.1039L14.356 11.226C15.4445 11.4074 16.5555 11.4074 17.644 11.226L18.1644 11.1393C18.6466 11.0589 19 10.6417 19 10.1529V7.33519C19 6.85596 18.6476 6.44966 18.1732 6.38189C16.4248 6.13211 14.6414 6.36799 13.018 7.06372L12.8096 7.15304C12.7469 7.1799 12.6883 7.2125 12.634 7.25H11.366C11.3117 7.2125 11.2531 7.1799 11.1904 7.15304L10.982 7.06372C9.35865 6.36799 7.57521 6.13211 5.82679 6.38189C5.35238 6.44966 5 6.85596 5 7.33519ZM10.5303 13.4697C10.2374 13.1768 9.76256 13.1768 9.46967 13.4697C9.17678 13.7626 9.17678 14.2374 9.46967 14.5303L10.9393 16L9.46967 17.4697C9.17678 17.7626 9.17678 18.2374 9.46967 18.5303C9.76256 18.8232 10.2374 18.8232 10.5303 18.5303L12 17.0607L13.4697 18.5303C13.7626 18.8232 14.2374 18.8232 14.5303 18.5303C14.8232 18.2374 14.8232 17.7626 14.5303 17.4697L13.0607 16L14.5303 14.5303C14.8232 14.2374 14.8232 13.7626 14.5303 13.4697C14.2374 13.1768 13.7626 13.1768 13.4697 13.4697L12 14.9393L10.5303 13.4697Z" fill="currentColor"/>
</svg>
