<svg viewBox="0 0 24 24" fill="currentColor" xmlns="http://www.w3.org/2000/svg">
<path d="M22 12C22 17.5228 17.5228 22 12 22C6.47715 22 2 17.5228 2 12C2 6.47715 6.47715 2 12 2C17.5228 2 22 6.47715 22 12ZM5 7.33519V10.1529C5 10.6417 5.35341 11.0589 5.8356 11.1393L6.35601 11.226C7.4445 11.4074 8.5555 11.4074 9.64399 11.226L10.3765 11.1039C10.7573 11.0404 11.0676 10.7634 11.1736 10.3922L11.6429 8.75H12.3571L12.8264 10.3922C12.9324 10.7634 13.2427 11.0404 13.6235 11.1039L14.356 11.226C15.4445 11.4074 16.5555 11.4074 17.644 11.226L18.1644 11.1393C18.6466 11.0589 19 10.6417 19 10.1529V7.33519C19 6.85596 18.6476 6.44966 18.1732 6.38189C16.4248 6.13211 14.6414 6.36799 13.018 7.06372L12.8096 7.15304C12.7469 7.1799 12.6883 7.2125 12.634 7.25H11.366C11.3117 7.2125 11.2531 7.1799 11.1904 7.15304L10.982 7.06372C9.35865 6.36799 7.57521 6.13211 5.82679 6.38189C5.35238 6.44966 5 6.85596 5 7.33519ZM8.03477 14.68C7.85805 14.3054 7.4111 14.145 7.03648 14.3217C6.66185 14.4984 6.50141 14.9453 6.67812 15.32C7.6307 17.3394 9.64784 18.75 12.0001 18.75C14.3523 18.75 16.3695 17.3394 17.3221 15.32C17.4988 14.9453 17.3383 14.4984 16.9637 14.3217C16.5891 14.145 16.1421 14.3054 15.9654 14.68C15.2423 16.2129 13.7304 17.25 12.0001 17.25C10.2698 17.25 8.75785 16.2129 8.03477 14.68Z" fill="currentColor"/>
</svg>
