<svg viewBox="0 0 24 24" fill="currentColor" xmlns="http://www.w3.org/2000/svg">
<path d="M22 12C22 17.5228 17.5228 22 12 22C6.47715 22 2 17.5228 2 12C2 6.47715 6.47715 2 12 2C17.5228 2 22 6.47715 22 12ZM5 8.33519V11.1529C5 11.6417 5.35341 12.0589 5.8356 12.1393L6.35601 12.226C7.4445 12.4074 8.5555 12.4074 9.64399 12.226L10.3765 12.1039C10.7573 12.0404 11.0676 11.7634 11.1736 11.3922L11.6429 9.75H12.3571L12.8264 11.3922C12.9324 11.7634 13.2427 12.0404 13.6235 12.1039L14.356 12.226C15.4445 12.4074 16.5555 12.4074 17.644 12.226L18.1644 12.1393C18.6466 12.0589 19 11.6417 19 11.1529V8.33519C19 7.85596 18.6476 7.44966 18.1732 7.38189C16.4248 7.13211 14.6414 7.36799 13.018 8.06372L12.8096 8.15304C12.7469 8.1799 12.6883 8.2125 12.634 8.25H11.366C11.3117 8.2125 11.2531 8.1799 11.1904 8.15304L10.982 8.06372C9.35865 7.36799 7.57521 7.13211 5.82679 7.38189C5.35238 7.44966 5 7.85596 5 8.33519ZM11.3217 18.32C11.4984 18.6946 11.9453 18.855 12.32 18.6783C12.6946 18.5016 12.855 18.0547 12.6783 17.68C11.7257 15.6606 9.7086 14.25 7.35635 14.25C6.94214 14.25 6.60635 14.5858 6.60635 15C6.60635 15.4142 6.94214 15.75 7.35635 15.75C9.08662 15.75 10.5986 16.7871 11.3217 18.32Z" fill="currentColor"/>
</svg>
