<svg viewBox="0 0 24 24" fill="currentColor" xmlns="http://www.w3.org/2000/svg">
<path d="M12 22C17.5228 22 22 17.5228 22 12C22 6.47715 17.5228 2 12 2C6.47715 2 2 6.47715 2 12C2 17.5228 6.47715 22 12 22ZM17.5 16C16.6716 16 16 15.2325 16 14.2857C16 13.3389 17.5 12 17.5 12C17.5 12 19 13.3389 19 14.2857C19 15.2325 18.3284 16 17.5 16ZM5 7.33519C5 6.85596 5.35238 6.44966 5.82679 6.38189C7.57521 6.13211 9.35865 6.36799 10.982 7.06372L11.1904 7.15304C11.2531 7.1799 11.3117 7.2125 11.366 7.25H12.634C12.6883 7.2125 12.7469 7.1799 12.8096 7.15304L13.018 7.06372C14.6414 6.36799 16.4248 6.13211 18.1732 6.38189C18.6476 6.44966 19 6.85596 19 7.33519V10.1529C19 10.6417 18.6466 11.0589 18.1644 11.1393L17.644 11.226C16.5555 11.4074 15.4445 11.4074 14.356 11.226L13.6235 11.1039C13.2427 11.0404 12.9324 10.7634 12.8264 10.3922L12.3571 8.75H11.6429L11.1736 10.3922C11.0676 10.7634 10.7573 11.0404 10.3765 11.1039L9.64399 11.226C8.5555 11.4074 7.4445 11.4074 6.35601 11.226L5.8356 11.1393C5.35341 11.0589 5 10.6417 5 10.1529V7.33519ZM9 15.25H15C15.4142 15.25 15.75 15.5858 15.75 16C15.75 16.4142 15.4142 16.75 15 16.75H9C8.58579 16.75 8.25 16.4142 8.25 16C8.25 15.5858 8.58579 15.25 9 15.25Z" fill="currentColor"/>
</svg>
