<svg viewBox="0 0 24 24" fill="currentColor" xmlns="http://www.w3.org/2000/svg">
<path d="M22 12C22 6.47715 17.5228 2 12 2C6.47715 2 2 6.47715 2 12C2 17.5228 6.47715 22 12 22C17.5228 22 22 17.5228 22 12ZM5 8.33519C5 7.85596 5.35238 7.44966 5.82679 7.38189C7.57521 7.13211 9.35865 7.36799 10.982 8.06372L11.1904 8.15304C11.2531 8.1799 11.3117 8.2125 11.366 8.25H12.634C12.6883 8.2125 12.7469 8.1799 12.8096 8.15304L13.018 8.06372C14.6414 7.36799 16.4248 7.13211 18.1732 7.38189C18.6476 7.44966 19 7.85596 19 8.33519V11.1529C19 11.6417 18.6466 12.0589 18.1644 12.1393L17.644 12.226C16.5555 12.4074 15.4445 12.4074 14.356 12.226L13.6235 12.1039C13.2427 12.0404 12.9324 11.7634 12.8264 11.3922L12.3571 9.75H11.6429L11.1736 11.3922C11.0676 11.7634 10.7573 12.0404 10.3765 12.1039L9.64399 12.226C8.5555 12.4074 7.4445 12.4074 6.35601 12.226L5.8356 12.1393C5.35341 12.0589 5 11.6417 5 11.1529V8.33519ZM13.9809 15.7245L12.9761 16.9805C12.4757 17.606 11.5243 17.606 11.0239 16.9805L10.0191 15.7245L9.4459 16.4888C8.98949 17.0973 8.09991 17.1606 7.56202 16.6227L6.96967 16.0303C6.67678 15.7374 6.67678 15.2626 6.96967 14.9697C7.26256 14.6768 7.73744 14.6768 8.03033 14.9697L8.41885 15.3582L9.01275 14.5663C9.50303 13.9126 10.4784 13.8974 10.9888 14.5355L12 15.7994L13.0112 14.5355C13.5216 13.8974 14.497 13.9126 14.9872 14.5663L15.5811 15.3582L15.9697 14.9697C16.2626 14.6768 16.7374 14.6768 17.0303 14.9697C17.3232 15.2626 17.3232 15.7374 17.0303 16.0303L16.438 16.6227C15.9001 17.1606 15.0105 17.0973 14.5541 16.4888L13.9809 15.7245Z" fill="currentColor"/>
</svg>
