<svg viewBox="0 0 24 24" fill="currentColor" xmlns="http://www.w3.org/2000/svg">
<path d="M12 22C17.5228 22 22 17.5228 22 12C22 6.47715 17.5228 2 12 2C6.47715 2 2 6.47715 2 12C2 17.5228 6.47715 22 12 22ZM5.82679 8.38189C7.57521 8.13211 9.35865 8.36799 10.982 9.06372L11.1904 9.15304C11.2531 9.1799 11.3117 9.2125 11.366 9.25H12.634C12.6883 9.2125 12.7469 9.1799 12.8096 9.15304L13.018 9.06372C14.6414 8.36799 16.4248 8.13211 18.1732 8.38189C18.6476 8.44966 19 8.85596 19 9.33519V12.1529C19 12.6417 18.6466 13.0589 18.1644 13.1393L17.644 13.226C16.5555 13.4074 15.4445 13.4074 14.356 13.226L13.6235 13.1039C13.2427 13.0404 12.9324 12.7634 12.8264 12.3922L12.3571 10.75H11.6429L11.1736 12.3922C11.0676 12.7634 10.7573 13.0404 10.3765 13.1039L9.64399 13.226C8.5555 13.4074 7.4445 13.4074 6.35601 13.226L5.8356 13.1393C5.35341 13.0589 5 12.6417 5 12.1529V9.33519C5 8.85596 5.35238 8.44966 5.82679 8.38189Z" fill="currentColor"/>
</svg>
