<svg viewBox="0 0 24 24" fill="currentColor" xmlns="http://www.w3.org/2000/svg">
<path d="M22 12C22 17.5228 17.5228 22 12 22C6.47715 22 2 17.5228 2 12C2 6.47715 6.47715 2 12 2C17.5228 2 22 6.47715 22 12ZM5 7.33519V10.1529C5 10.6417 5.35341 11.0589 5.8356 11.1393L6.35601 11.226C7.4445 11.4074 8.5555 11.4074 9.64399 11.226L10.3765 11.1039C10.7573 11.0404 11.0676 10.7634 11.1736 10.3922L11.6429 8.75H12.3571L12.8264 10.3922C12.9324 10.7634 13.2427 11.0404 13.6235 11.1039L14.356 11.226C15.4445 11.4074 16.5555 11.4074 17.644 11.226L18.1644 11.1393C18.6466 11.0589 19 10.6417 19 10.1529V7.33519C19 6.85596 18.6476 6.44966 18.1732 6.38189C16.4248 6.13211 14.6414 6.36799 13.018 7.06372L12.8096 7.15304C12.7469 7.1799 12.6883 7.2125 12.634 7.25H11.366C11.3117 7.2125 11.2531 7.1799 11.1904 7.15304L10.982 7.06372C9.35865 6.36799 7.57521 6.13211 5.82679 6.38189C5.35238 6.44966 5 6.85596 5 7.33519ZM15.0285 17.3112C15.4157 17.5277 15.9704 17.2474 15.8687 16.8156C15.4846 15.1847 14.246 14 12 14C9.75403 14 8.51545 15.1847 8.13131 16.8156C8.02961 17.2474 8.58428 17.5277 8.97148 17.3112C9.66039 16.926 10.6937 16.5226 12 16.5226C13.3063 16.5226 14.3396 16.926 15.0285 17.3112Z" fill="currentColor"/>
</svg>
