<svg viewBox="0 0 24 24" fill="currentColor" xmlns="http://www.w3.org/2000/svg">
<path d="M22 12C22 17.5228 17.5228 22 12 22C6.47715 22 2 17.5228 2 12C2 6.47715 6.47715 2 12 2C17.5228 2 22 6.47715 22 12ZM6.75 9C6.75 9.41421 7.08579 9.75 7.5 9.75H8.25V12C8.25 12.4142 8.58579 12.75 9 12.75C9.41421 12.75 9.75 12.4142 9.75 12V9.75H10.5C10.9142 9.75 11.25 9.41421 11.25 9C11.25 8.58579 10.9142 8.25 10.5 8.25H7.5C7.08579 8.25 6.75 8.58579 6.75 9ZM12.75 9C12.75 9.41421 13.0858 9.75 13.5 9.75H14.25V12C14.25 12.4142 14.5858 12.75 15 12.75C15.4142 12.75 15.75 12.4142 15.75 12V9.75H16.5C16.9142 9.75 17.25 9.41421 17.25 9C17.25 8.58579 16.9142 8.25 16.5 8.25H13.5C13.0858 8.25 12.75 8.58579 12.75 9ZM13.9809 16.7245L14.5541 17.4888C15.0105 18.0973 15.9001 18.1606 16.438 17.6227L17.0303 17.0303C17.3232 16.7374 17.3232 16.2626 17.0303 15.9697C16.7374 15.6768 16.2626 15.6768 15.9697 15.9697L15.5811 16.3582L14.9872 15.5663C14.497 14.9126 13.5216 14.8974 13.0112 15.5355L12 16.7994L10.9888 15.5355C10.4784 14.8974 9.50303 14.9126 9.01275 15.5663L8.41885 16.3582L8.03033 15.9697C7.73744 15.6768 7.26256 15.6768 6.96967 15.9697C6.67678 16.2626 6.67678 16.7374 6.96967 17.0303L7.56202 17.6227C8.09991 18.1606 8.98949 18.0973 9.4459 17.4888L10.0191 16.7245L11.0239 17.9805C11.5243 18.606 12.4757 18.606 12.9761 17.9805L13.9809 16.7245Z" fill="currentColor"/>
</svg>
