<svg viewBox="0 0 24 24" fill="currentColor" xmlns="http://www.w3.org/2000/svg">
<path d="M22 12C22 17.5228 17.5228 22 12 22C6.47715 22 2 17.5228 2 12C2 6.47715 6.47715 2 12 2C17.5228 2 22 6.47715 22 12ZM6.75 9C6.75 9.41421 7.08579 9.75 7.5 9.75H8.25V12C8.25 12.4142 8.58579 12.75 9 12.75C9.41421 12.75 9.75 12.4142 9.75 12V9.75H10.5C10.9142 9.75 11.25 9.41421 11.25 9C11.25 8.58579 10.9142 8.25 10.5 8.25H7.5C7.08579 8.25 6.75 8.58579 6.75 9ZM12.75 9C12.75 9.41421 13.0858 9.75 13.5 9.75H14.25V12C14.25 12.4142 14.5858 12.75 15 12.75C15.4142 12.75 15.75 12.4142 15.75 12V9.75H16.5C16.9142 9.75 17.25 9.41421 17.25 9C17.25 8.58579 16.9142 8.25 16.5 8.25H13.5C13.0858 8.25 12.75 8.58579 12.75 9ZM9 14.25C8.0335 14.25 7.25 15.0335 7.25 16V17C7.25 17.4142 7.58579 17.75 8 17.75C8.41421 17.75 8.75 17.4142 8.75 17V16C8.75 15.8619 8.86193 15.75 9 15.75H15C15.1381 15.75 15.25 15.8619 15.25 16V17C15.25 17.4142 15.5858 17.75 16 17.75C16.4142 17.75 16.75 17.4142 16.75 17V16C16.75 15.0335 15.9665 14.25 15 14.25H9Z" fill="currentColor"/>
</svg>
