<svg viewBox="0 0 24 24" fill="currentColor" xmlns="http://www.w3.org/2000/svg">
<path d="M12 22C17.5228 22 22 17.5228 22 12C22 6.47715 17.5228 2 12 2C6.47715 2 2 6.47715 2 12C2 17.5228 6.47715 22 12 22ZM8.75 15C8.75 15.6904 9.30964 16.25 10 16.25C10.6904 16.25 11.25 15.6904 11.25 15C11.25 14.5858 11.5858 14.25 12 14.25C12.4142 14.25 12.75 14.5858 12.75 15C12.75 15.6904 13.3096 16.25 14 16.25C14.6904 16.25 15.25 15.6904 15.25 15C15.25 14.5858 15.5858 14.25 16 14.25C16.4142 14.25 16.75 14.5858 16.75 15C16.75 16.5188 15.5188 17.75 14 17.75C13.212 17.75 12.5014 17.4186 12 16.8875C11.4986 17.4186 10.788 17.75 10 17.75C8.48122 17.75 7.25 16.5188 7.25 15C7.25 14.5858 7.58579 14.25 8 14.25C8.41421 14.25 8.75 14.5858 8.75 15ZM16 9.5C16 10.3284 15.5523 11 15 11C14.4477 11 14 10.3284 14 9.5C14 8.67157 14.4477 8 15 8C15.5523 8 16 8.67157 16 9.5ZM9 11C8.44771 11 8 10.3284 8 9.5C8 8.67157 8.44771 8 9 8C9.55228 8 10 8.67157 10 9.5C10 10.3284 9.55228 11 9 11Z" fill="currentColor"/>
</svg>
