<svg viewBox="0 0 24 24" fill="currentColor" xmlns="http://www.w3.org/2000/svg">
<path d="M12 22C17.5228 22 22 17.5228 22 12C22 6.47715 17.5228 2 12 2C6.47715 2 2 6.47715 2 12C2 17.5228 6.47715 22 12 22ZM10.5303 13.4697L12 14.9393L13.4697 13.4697C13.7626 13.1768 14.2374 13.1768 14.5303 13.4697C14.8232 13.7626 14.8232 14.2374 14.5303 14.5303L13.0607 16L14.5303 17.4697C14.8232 17.7626 14.8232 18.2374 14.5303 18.5303C14.2374 18.8232 13.7626 18.8232 13.4697 18.5303L12 17.0607L10.5303 18.5303C10.2374 18.8232 9.76256 18.8232 9.46967 18.5303C9.17678 18.2374 9.17678 17.7626 9.46967 17.4697L10.9393 16L9.46967 14.5303C9.17678 14.2374 9.17678 13.7626 9.46967 13.4697C9.76256 13.1768 10.2374 13.1768 10.5303 13.4697ZM6.46967 7.46967C6.76256 7.17678 7.23744 7.17678 7.53033 7.46967L8.5 8.43934L9.46967 7.46967C9.76256 7.17678 10.2374 7.17678 10.5303 7.46967C10.8232 7.76256 10.8232 8.23744 10.5303 8.53033L9.56066 9.5L10.5303 10.4697C10.8232 10.7626 10.8232 11.2374 10.5303 11.5303C10.2374 11.8232 9.76256 11.8232 9.46967 11.5303L8.5 10.5607L7.53033 11.5303C7.23744 11.8232 6.76256 11.8232 6.46967 11.5303C6.17678 11.2374 6.17678 10.7626 6.46967 10.4697L7.43934 9.5L6.46967 8.53033C6.17678 8.23744 6.17678 7.76256 6.46967 7.46967ZM14.5303 7.46967L15.5 8.43934L16.4697 7.46967C16.7626 7.17678 17.2374 7.17678 17.5303 7.46967C17.8232 7.76256 17.8232 8.23744 17.5303 8.53033L16.5607 9.5L17.5303 10.4697C17.8232 10.7626 17.8232 11.2374 17.5303 11.5303C17.2374 11.8232 16.7626 11.8232 16.4697 11.5303L15.5 10.5607L14.5303 11.5303C14.2374 11.8232 13.7626 11.8232 13.4697 11.5303C13.1768 11.2374 13.1768 10.7626 13.4697 10.4697L14.4393 9.5L13.4697 8.53033C13.1768 8.23744 13.1768 7.76256 13.4697 7.46967C13.7626 7.17678 14.2374 7.17678 14.5303 7.46967Z" fill="currentColor"/>
</svg>
