<svg viewBox="0 0 24 24" fill="currentColor" xmlns="http://www.w3.org/2000/svg">
<path d="M12 22C17.5228 22 22 17.5228 22 12C22 6.47715 17.5228 2 12 2C6.47715 2 2 6.47715 2 12C2 17.5228 6.47715 22 12 22ZM7.53033 7.46967L8.5 8.43934L9.46967 7.46967C9.76256 7.17678 10.2374 7.17678 10.5303 7.46967C10.8232 7.76256 10.8232 8.23744 10.5303 8.53033L9.56066 9.5L10.5303 10.4697C10.8232 10.7626 10.8232 11.2374 10.5303 11.5303C10.2374 11.8232 9.76256 11.8232 9.46967 11.5303L8.5 10.5607L7.53033 11.5303C7.23744 11.8232 6.76256 11.8232 6.46967 11.5303C6.17678 11.2374 6.17678 10.7626 6.46967 10.4697L7.43934 9.5L6.46967 8.53033C6.17678 8.23744 6.17678 7.76256 6.46967 7.46967C6.76256 7.17678 7.23744 7.17678 7.53033 7.46967ZM13.4697 7.46967C13.7626 7.17678 14.2374 7.17678 14.5303 7.46967L15.5 8.43934L16.4697 7.46967C16.7626 7.17678 17.2374 7.17678 17.5303 7.46967C17.8232 7.76256 17.8232 8.23744 17.5303 8.53033L16.5607 9.5L17.5303 10.4697C17.8232 10.7626 17.8232 11.2374 17.5303 11.5303C17.2374 11.8232 16.7626 11.8232 16.4697 11.5303L15.5 10.5607L14.5303 11.5303C14.2374 11.8232 13.7626 11.8232 13.4697 11.5303C13.1768 11.2374 13.1768 10.7626 13.4697 10.4697L14.4393 9.5L13.4697 8.53033C13.1768 8.23744 13.1768 7.76256 13.4697 7.46967ZM9 15.25H15C15.9665 15.25 16.75 16.0335 16.75 17V18C16.75 18.4142 16.4142 18.75 16 18.75C15.5858 18.75 15.25 18.4142 15.25 18V17C15.25 16.8619 15.1381 16.75 15 16.75H9C8.86193 16.75 8.75 16.8619 8.75 17V18C8.75 18.4142 8.41421 18.75 8 18.75C7.58579 18.75 7.25 18.4142 7.25 18V17C7.25 16.0335 8.0335 15.25 9 15.25Z" fill="currentColor"/>
</svg>
