<svg viewBox="0 0 24 24" fill="currentColor" xmlns="http://www.w3.org/2000/svg">
<path d="M12 22C17.5228 22 22 17.5228 22 12C22 6.47715 17.5228 2 12 2C6.47715 2 2 6.47715 2 12C2 17.5228 6.47715 22 12 22ZM8.94036 14.9695C9.73704 15.7658 10.8151 16.25 11.9996 16.25C13.1841 16.25 14.2621 15.7658 15.0588 14.9695C15.3518 14.6767 15.8267 14.6768 16.1195 14.9698C16.4123 15.2628 16.4122 15.7376 16.1192 16.0305C15.0578 17.0913 13.6047 17.75 11.9996 17.75C10.3945 17.75 8.94134 17.0913 7.87995 16.0305C7.58699 15.7376 7.58688 15.2628 7.8797 14.9698C8.17252 14.6768 8.6474 14.6767 8.94036 14.9695ZM16 10.5C16 11.3284 15.5523 12 15 12C14.4477 12 14 11.3284 14 10.5C14 9.67157 14.4477 9 15 9C15.5523 9 16 9.67157 16 10.5ZM9 12C8.44771 12 8 11.3284 8 10.5C8 9.67157 8.44771 9 9 9C9.55228 9 10 9.67157 10 10.5C10 11.3284 9.55228 12 9 12Z" fill="currentColor"/>
</svg>
