<svg viewBox="0 0 24 24" fill="currentColor" xmlns="http://www.w3.org/2000/svg">
<path d="M22 12C22 6.47715 17.5228 2 12 2C6.47715 2 2 6.47715 2 12C2 17.5228 6.47715 22 12 22C17.5228 22 22 17.5228 22 12ZM7.03648 14.3217C7.4111 14.145 7.85805 14.3054 8.03477 14.68C8.75785 16.2129 10.2698 17.25 12.0001 17.25C13.7304 17.25 15.2423 16.2129 15.9654 14.68C16.1421 14.3054 16.5891 14.145 16.9637 14.3217C17.3383 14.4984 17.4988 14.9453 17.3221 15.32C16.3695 17.3394 14.3523 18.75 12.0001 18.75C9.64784 18.75 7.6307 17.3394 6.67812 15.32C6.50141 14.9453 6.66185 14.4984 7.03648 14.3217ZM7.25 11C7.25 11.4142 6.91421 11.75 6.5 11.75C6.08579 11.75 5.75 11.4142 5.75 11C5.75 9.48122 6.98122 8.25 8.5 8.25C10.0188 8.25 11.25 9.48122 11.25 11C11.25 11.4142 10.9142 11.75 10.5 11.75C10.0858 11.75 9.75 11.4142 9.75 11C9.75 10.3096 9.19036 9.75 8.5 9.75C7.80964 9.75 7.25 10.3096 7.25 11ZM14.25 11C14.25 11.4142 13.9142 11.75 13.5 11.75C13.0858 11.75 12.75 11.4142 12.75 11C12.75 9.48122 13.9812 8.25 15.5 8.25C17.0188 8.25 18.25 9.48122 18.25 11C18.25 11.4142 17.9142 11.75 17.5 11.75C17.0858 11.75 16.75 11.4142 16.75 11C16.75 10.3096 16.1904 9.75 15.5 9.75C14.8096 9.75 14.25 10.3096 14.25 11Z" fill="currentColor"/>
</svg>
