<svg viewBox="0 0 24 24" fill="currentColor" xmlns="http://www.w3.org/2000/svg">
<path d="M22 12C22 17.5228 17.5228 22 12 22C6.47715 22 2 17.5228 2 12C2 6.47715 6.47715 2 12 2C17.5228 2 22 6.47715 22 12ZM8 14.25C7.58579 14.25 7.25 14.5858 7.25 15C7.25 16.5188 8.48122 17.75 10 17.75C10.788 17.75 11.4986 17.4186 12 16.8875C12.5014 17.4186 13.212 17.75 14 17.75C15.5188 17.75 16.75 16.5188 16.75 15C16.75 14.5858 16.4142 14.25 16 14.25C15.5858 14.25 15.25 14.5858 15.25 15C15.25 15.6904 14.6904 16.25 14 16.25C13.3096 16.25 12.75 15.6904 12.75 15C12.75 14.5858 12.4142 14.25 12 14.25C11.5858 14.25 11.25 14.5858 11.25 15C11.25 15.6904 10.6904 16.25 10 16.25C9.30964 16.25 8.75 15.6904 8.75 15C8.75 14.5858 8.41421 14.25 8 14.25ZM7.83541 7.82918C7.46493 7.64394 7.01442 7.79411 6.82918 8.16459C6.64394 8.53507 6.79411 8.98558 7.16459 9.17082L8.82295 10L7.16459 10.8292C6.79411 11.0144 6.64394 11.4649 6.82918 11.8354C7.01442 12.2059 7.46493 12.3561 7.83541 12.1708L10.8354 10.6708C11.0895 10.5438 11.25 10.2841 11.25 10C11.25 9.71592 11.0895 9.45622 10.8354 9.32918L7.83541 7.82918ZM16.8354 9.17082C17.2059 8.98558 17.3561 8.53507 17.1708 8.16459C16.9856 7.79411 16.5351 7.64394 16.1646 7.82918L13.1646 9.32918C12.9105 9.45622 12.75 9.71592 12.75 10C12.75 10.2841 12.9105 10.5438 13.1646 10.6708L16.1646 12.1708C16.5351 12.3561 16.9856 12.2059 17.1708 11.8354C17.3561 11.4649 17.2059 11.0144 16.8354 10.8292L15.1771 10L16.8354 9.17082Z" fill="currentColor"/>
</svg>
