<svg viewBox="0 0 24 24" fill="currentColor" xmlns="http://www.w3.org/2000/svg">
<path d="M22 12C22 17.5228 17.5228 22 12 22C6.47715 22 2 17.5228 2 12C2 6.47715 6.47715 2 12 2C17.5228 2 22 6.47715 22 12ZM13.2866 13.3068C12.9037 13.1486 12.4652 13.3308 12.307 13.7136C12.1489 14.0964 12.331 14.535 12.7138 14.6931L13.8294 15.154L13.3548 15.4285C12.5147 15.9143 12.6007 17.1464 13.494 17.5154L13.8294 17.654L12.6247 18.3507C12.2661 18.5581 12.1436 19.0169 12.351 19.3754C12.5583 19.734 13.0171 19.8566 13.3757 19.6492L15.1672 18.6131C16.0072 18.1273 15.9212 16.8952 15.0279 16.5261L14.6925 16.3876L15.1672 16.1131C16.0072 15.6273 15.9212 14.3952 15.0279 14.0261L13.2866 13.3068ZM7.25 10C7.25 9.30964 7.80964 8.75 8.5 8.75C9.19036 8.75 9.75 9.30964 9.75 10C9.75 10.4142 10.0858 10.75 10.5 10.75C10.9142 10.75 11.25 10.4142 11.25 10C11.25 8.48122 10.0188 7.25 8.5 7.25C6.98122 7.25 5.75 8.48122 5.75 10C5.75 10.4142 6.08579 10.75 6.5 10.75C6.91421 10.75 7.25 10.4142 7.25 10ZM14.25 10C14.25 9.30964 14.8096 8.75 15.5 8.75C16.1904 8.75 16.75 9.30964 16.75 10C16.75 10.4142 17.0858 10.75 17.5 10.75C17.9142 10.75 18.25 10.4142 18.25 10C18.25 8.48122 17.0188 7.25 15.5 7.25C13.9812 7.25 12.75 8.48122 12.75 10C12.75 10.4142 13.0858 10.75 13.5 10.75C13.9142 10.75 14.25 10.4142 14.25 10Z" fill="currentColor"/>
</svg>
