<svg viewBox="0 0 24 24" fill="currentColor" xmlns="http://www.w3.org/2000/svg">
<path d="M12 22C17.5228 22 22 17.5228 22 12C22 6.47715 17.5228 2 12 2C6.47715 2 2 6.47715 2 12C2 17.5228 6.47715 22 12 22ZM16.6983 14.4219C17.0552 14.2554 17.4873 14.5151 17.4109 14.9014C16.9874 17.0401 15.0712 19 12 19C8.92879 19 7.01256 17.0401 6.58913 14.9014C6.51266 14.5151 6.9448 14.2554 7.30165 14.4219C8.25259 14.8656 9.96769 15.5 12 15.5C14.0323 15.5 15.7474 14.8656 16.6983 14.4219ZM4.055 8.96749C3.81499 8.09719 4.38286 7.19317 5.32337 6.94831C6.14724 6.73382 7.01783 7.08742 7.37398 7.76562C7.3334 7.00526 7.9054 6.2761 8.72927 6.06161C9.66978 5.81675 10.6268 6.32378 10.8668 7.19408C11.3798 9.05421 10.3119 10.5042 9.35212 11.4683C8.89255 11.9299 8.20185 12.1098 7.56629 11.9333C6.23893 11.5646 4.56798 10.8276 4.055 8.96749ZM18.6766 6.94831C19.6171 7.19317 20.185 8.09719 19.945 8.96749C19.432 10.8276 17.7611 11.5646 16.4337 11.9333C15.7981 12.1098 15.1075 11.9299 14.6479 11.4683C13.6881 10.5042 12.6202 9.05421 13.1332 7.19408C13.3732 6.32378 14.3302 5.81675 15.2707 6.06161C16.0946 6.2761 16.6666 7.00526 16.626 7.76562C16.9822 7.08742 17.8528 6.73382 18.6766 6.94831Z" fill="currentColor"/>
</svg>
