<svg viewBox="0 0 24 24" fill="currentColor" xmlns="http://www.w3.org/2000/svg">
<path d="M22 12C22 17.5228 17.5228 22 12 22C6.47715 22 2 17.5228 2 12C2 6.47715 6.47715 2 12 2C17.5228 2 22 6.47715 22 12ZM7.25 16C7.25 16.4142 7.58579 16.75 8 16.75H8.25V17C8.25 17.4142 8.58579 17.75 9 17.75C9.41421 17.75 9.75 17.4142 9.75 17V16.75H11.25V17.5C11.25 17.9142 11.5858 18.25 12 18.25C12.4142 18.25 12.75 17.9142 12.75 17.5V16.75H14.25V17C14.25 17.4142 14.5858 17.75 15 17.75C15.4142 17.75 15.75 17.4142 15.75 17V16.75H16C16.4142 16.75 16.75 16.4142 16.75 16C16.75 15.5858 16.4142 15.25 16 15.25H15.75V15C15.75 14.5858 15.4142 14.25 15 14.25C14.5858 14.25 14.25 14.5858 14.25 15V15.25H12.75V14.5C12.75 14.0858 12.4142 13.75 12 13.75C11.5858 13.75 11.25 14.0858 11.25 14.5V15.25H9.75V15C9.75 14.5858 9.41421 14.25 9 14.25C8.58579 14.25 8.25 14.5858 8.25 15V15.25H8C7.58579 15.25 7.25 15.5858 7.25 16ZM16 9.5C16 8.67157 15.5523 8 15 8C14.4477 8 14 8.67157 14 9.5C14 10.3284 14.4477 11 15 11C15.5523 11 16 10.3284 16 9.5ZM9 11C9.55228 11 10 10.3284 10 9.5C10 8.67157 9.55228 8 9 8C8.44771 8 8 8.67157 8 9.5C8 10.3284 8.44771 11 9 11Z" fill="currentColor"/>
</svg>
