<svg viewBox="0 0 24 24" fill="currentColor" xmlns="http://www.w3.org/2000/svg">
<path d="M12 22C17.5228 22 22 17.5228 22 12C22 6.47715 17.5228 2 12 2C6.47715 2 2 6.47715 2 12C2 17.5228 6.47715 22 12 22ZM7.25 9C7.25 9.69036 7.80964 10.25 8.5 10.25C9.19036 10.25 9.75 9.69036 9.75 9C9.75 8.58579 10.0858 8.25 10.5 8.25C10.9142 8.25 11.25 8.58579 11.25 9C11.25 10.5188 10.0188 11.75 8.5 11.75C6.98122 11.75 5.75 10.5188 5.75 9C5.75 8.58579 6.08579 8.25 6.5 8.25C6.91421 8.25 7.25 8.58579 7.25 9ZM14.25 9C14.25 9.69036 14.8096 10.25 15.5 10.25C16.1904 10.25 16.75 9.69036 16.75 9C16.75 8.58579 17.0858 8.25 17.5 8.25C17.9142 8.25 18.25 8.58579 18.25 9C18.25 10.5188 17.0188 11.75 15.5 11.75C13.9812 11.75 12.75 10.5188 12.75 9C12.75 8.58579 13.0858 8.25 13.5 8.25C13.9142 8.25 14.25 8.58579 14.25 9ZM7.25 16C7.25 15.5858 7.58579 15.25 8 15.25H8.25V15C8.25 14.5858 8.58579 14.25 9 14.25C9.41421 14.25 9.75 14.5858 9.75 15V15.25H11.25V14.5C11.25 14.0858 11.5858 13.75 12 13.75C12.4142 13.75 12.75 14.0858 12.75 14.5V15.25H14.25V15C14.25 14.5858 14.5858 14.25 15 14.25C15.4142 14.25 15.75 14.5858 15.75 15V15.25H16C16.4142 15.25 16.75 15.5858 16.75 16C16.75 16.4142 16.4142 16.75 16 16.75H15.75V17C15.75 17.4142 15.4142 17.75 15 17.75C14.5858 17.75 14.25 17.4142 14.25 17V16.75H12.75V17.5C12.75 17.9142 12.4142 18.25 12 18.25C11.5858 18.25 11.25 17.9142 11.25 17.5V16.75H9.75V17C9.75 17.4142 9.41421 17.75 9 17.75C8.58579 17.75 8.25 17.4142 8.25 17V16.75H8C7.58579 16.75 7.25 16.4142 7.25 16Z" fill="currentColor"/>
</svg>
