<svg viewBox="0 0 24 24" fill="currentColor" xmlns="http://www.w3.org/2000/svg">
<path d="M12 22C17.5228 22 22 17.5228 22 12C22 6.47715 17.5228 2 12 2C6.47715 2 2 6.47715 2 12C2 17.5228 6.47715 22 12 22ZM15 11C14.4477 11 14 10.3284 14 9.5C14 8.67157 14.4477 8 15 8C15.5523 8 16 8.67157 16 9.5C16 10.3284 15.5523 11 15 11ZM10 9.5C10 10.3284 9.55228 11 9 11C8.44771 11 8 10.3284 8 9.5C8 8.67157 8.44771 8 9 8C9.55228 8 10 8.67157 10 9.5ZM12 14.9393L13.4697 13.4697C13.7626 13.1768 14.2374 13.1768 14.5303 13.4697C14.8232 13.7626 14.8232 14.2374 14.5303 14.5303L13.0607 16L14.5303 17.4697C14.8232 17.7626 14.8232 18.2374 14.5303 18.5303C14.2374 18.8232 13.7626 18.8232 13.4697 18.5303L12 17.0607L10.5303 18.5303C10.2374 18.8232 9.76256 18.8232 9.46967 18.5303C9.17678 18.2374 9.17678 17.7626 9.46967 17.4697L10.9393 16L9.46967 14.5303C9.17678 14.2374 9.17678 13.7626 9.46967 13.4697C9.76256 13.1768 10.2374 13.1768 10.5303 13.4697L12 14.9393Z" fill="currentColor"/>
</svg>
