<svg viewBox="0 0 24 24" fill="currentColor" xmlns="http://www.w3.org/2000/svg">
<path d="M22 12C22 17.5228 17.5228 22 12 22C6.47715 22 2 17.5228 2 12C2 6.47715 6.47715 2 12 2C17.5228 2 22 6.47715 22 12ZM9.46967 13.4697C9.17678 13.7626 9.17678 14.2374 9.46967 14.5303L10.9393 16L9.46967 17.4697C9.17678 17.7626 9.17678 18.2374 9.46967 18.5303C9.76256 18.8232 10.2374 18.8232 10.5303 18.5303L12 17.0607L13.4697 18.5303C13.7626 18.8232 14.2374 18.8232 14.5303 18.5303C14.8232 18.2374 14.8232 17.7626 14.5303 17.4697L13.0607 16L14.5303 14.5303C14.8232 14.2374 14.8232 13.7626 14.5303 13.4697C14.2374 13.1768 13.7626 13.1768 13.4697 13.4697L12 14.9393L10.5303 13.4697C10.2374 13.1768 9.76256 13.1768 9.46967 13.4697ZM7.25 9C7.25 8.58579 6.91421 8.25 6.5 8.25C6.08579 8.25 5.75 8.58579 5.75 9C5.75 10.5188 6.98122 11.75 8.5 11.75C10.0188 11.75 11.25 10.5188 11.25 9C11.25 8.58579 10.9142 8.25 10.5 8.25C10.0858 8.25 9.75 8.58579 9.75 9C9.75 9.69036 9.19036 10.25 8.5 10.25C7.80964 10.25 7.25 9.69036 7.25 9ZM14.25 9C14.25 8.58579 13.9142 8.25 13.5 8.25C13.0858 8.25 12.75 8.58579 12.75 9C12.75 10.5188 13.9812 11.75 15.5 11.75C17.0188 11.75 18.25 10.5188 18.25 9C18.25 8.58579 17.9142 8.25 17.5 8.25C17.0858 8.25 16.75 8.58579 16.75 9C16.75 9.69036 16.1904 10.25 15.5 10.25C14.8096 10.25 14.25 9.69036 14.25 9Z" fill="currentColor"/>
</svg>
