<svg viewBox="0 0 24 24" fill="currentColor" xmlns="http://www.w3.org/2000/svg">
<path d="M22 12C22 17.5228 17.5228 22 12 22C6.47715 22 2 17.5228 2 12C2 6.47715 6.47715 2 12 2C17.5228 2 22 6.47715 22 12ZM12.9761 17.9805L13.9809 16.7245L14.5541 17.4888C15.0105 18.0973 15.9001 18.1606 16.438 17.6227L17.0303 17.0303C17.3232 16.7374 17.3232 16.2626 17.0303 15.9697C16.7374 15.6768 16.2626 15.6768 15.9697 15.9697L15.5811 16.3582L14.9872 15.5663C14.497 14.9126 13.5216 14.8974 13.0112 15.5355L12 16.7994L10.9888 15.5355C10.4784 14.8974 9.50303 14.9126 9.01275 15.5663L8.41885 16.3582L8.03033 15.9697C7.73744 15.6768 7.26256 15.6768 6.96967 15.9697C6.67678 16.2626 6.67678 16.7374 6.96967 17.0303L7.56202 17.6227C8.09991 18.1606 8.98949 18.0973 9.4459 17.4888L10.0191 16.7245L11.0239 17.9805C11.5243 18.606 12.4757 18.606 12.9761 17.9805ZM7.83541 8.82918C7.46493 8.64394 7.01442 8.79411 6.82918 9.16459C6.64394 9.53507 6.79411 9.98558 7.16459 10.1708L8.82295 11L7.16459 11.8292C6.79411 12.0144 6.64394 12.4649 6.82918 12.8354C7.01442 13.2059 7.46493 13.3561 7.83541 13.1708L10.8354 11.6708C11.0895 11.5438 11.25 11.2841 11.25 11C11.25 10.7159 11.0895 10.4562 10.8354 10.3292L7.83541 8.82918ZM16.8354 10.1708C17.2059 9.98558 17.3561 9.53507 17.1708 9.16459C16.9856 8.79411 16.5351 8.64394 16.1646 8.82918L13.1646 10.3292C12.9105 10.4562 12.75 10.7159 12.75 11C12.75 11.2841 12.9105 11.5438 13.1646 11.6708L16.1646 13.1708C16.5351 13.3561 16.9856 13.2059 17.1708 12.8354C17.3561 12.4649 17.2059 12.0144 16.8354 11.8292L15.1771 11L16.8354 10.1708Z" fill="currentColor"/>
</svg>
