<svg viewBox="0 0 24 24" fill="currentColor" xmlns="http://www.w3.org/2000/svg">
<path d="M22 12C22 17.5228 17.5228 22 12 22C6.47715 22 2 17.5228 2 12C2 6.47715 6.47715 2 12 2C17.5228 2 22 6.47715 22 12ZM11.68 18.6783C12.0547 18.855 12.5016 18.6946 12.6783 18.32C13.4014 16.7871 14.9134 15.75 16.6437 15.75C17.0579 15.75 17.3937 15.4142 17.3937 15C17.3937 14.5858 17.0579 14.25 16.6437 14.25C14.2914 14.25 12.2743 15.6606 11.3217 17.68C11.145 18.0547 11.3054 18.5016 11.68 18.6783ZM7.25 9C7.25 8.58579 6.91421 8.25 6.5 8.25C6.08579 8.25 5.75 8.58579 5.75 9C5.75 10.5188 6.98122 11.75 8.5 11.75C10.0188 11.75 11.25 10.5188 11.25 9C11.25 8.58579 10.9142 8.25 10.5 8.25C10.0858 8.25 9.75 8.58579 9.75 9C9.75 9.69036 9.19036 10.25 8.5 10.25C7.80964 10.25 7.25 9.69036 7.25 9ZM14.25 9C14.25 8.58579 13.9142 8.25 13.5 8.25C13.0858 8.25 12.75 8.58579 12.75 9C12.75 10.5188 13.9812 11.75 15.5 11.75C17.0188 11.75 18.25 10.5188 18.25 9C18.25 8.58579 17.9142 8.25 17.5 8.25C17.0858 8.25 16.75 8.58579 16.75 9C16.75 9.69036 16.1904 10.25 15.5 10.25C14.8096 10.25 14.25 9.69036 14.25 9Z" fill="currentColor"/>
</svg>
