<svg viewBox="0 0 24 24" fill="currentColor" xmlns="http://www.w3.org/2000/svg">
<path d="M12 22C17.5228 22 22 17.5228 22 12C22 6.47715 17.5228 2 12 2C6.47715 2 2 6.47715 2 12C2 17.5228 6.47715 22 12 22ZM7.25 9C7.25 9.69036 7.80964 10.25 8.5 10.25C9.19036 10.25 9.75 9.69036 9.75 9C9.75 8.58579 10.0858 8.25 10.5 8.25C10.9142 8.25 11.25 8.58579 11.25 9C11.25 10.5188 10.0188 11.75 8.5 11.75C6.98122 11.75 5.75 10.5188 5.75 9C5.75 8.58579 6.08579 8.25 6.5 8.25C6.91421 8.25 7.25 8.58579 7.25 9ZM14.25 9C14.25 9.69036 14.8096 10.25 15.5 10.25C16.1904 10.25 16.75 9.69036 16.75 9C16.75 8.58579 17.0858 8.25 17.5 8.25C17.9142 8.25 18.25 8.58579 18.25 9C18.25 10.5188 17.0188 11.75 15.5 11.75C13.9812 11.75 12.75 10.5188 12.75 9C12.75 8.58579 13.0858 8.25 13.5 8.25C13.9142 8.25 14.25 8.58579 14.25 9ZM19 14.2857C19 15.2325 18.3284 16 17.5 16C16.6716 16 16 15.2325 16 14.2857C16 13.3389 17.5 12 17.5 12C17.5 12 19 13.3389 19 14.2857ZM9 15.25H15C15.4142 15.25 15.75 15.5858 15.75 16C15.75 16.4142 15.4142 16.75 15 16.75H9C8.58579 16.75 8.25 16.4142 8.25 16C8.25 15.5858 8.58579 15.25 9 15.25Z" fill="currentColor"/>
</svg>
