<svg viewBox="0 0 24 24" fill="currentColor" xmlns="http://www.w3.org/2000/svg">
<path d="M22 12C22 17.5228 17.5228 22 12 22C6.47715 22 2 17.5228 2 12C2 6.47715 6.47715 2 12 2C17.5228 2 22 6.47715 22 12ZM6.5 8.25C6.08579 8.25 5.75 8.58579 5.75 9C5.75 10.5188 6.98122 11.75 8.5 11.75C10.0188 11.75 11.25 10.5188 11.25 9C11.25 8.58579 10.9142 8.25 10.5 8.25C10.0858 8.25 9.75 8.58579 9.75 9C9.75 9.69036 9.19036 10.25 8.5 10.25C7.80964 10.25 7.25 9.69036 7.25 9C7.25 8.58579 6.91421 8.25 6.5 8.25ZM13.5 8.25C13.0858 8.25 12.75 8.58579 12.75 9C12.75 10.5188 13.9812 11.75 15.5 11.75C17.0188 11.75 18.25 10.5188 18.25 9C18.25 8.58579 17.9142 8.25 17.5 8.25C17.0858 8.25 16.75 8.58579 16.75 9C16.75 9.69036 16.1904 10.25 15.5 10.25C14.8096 10.25 14.25 9.69036 14.25 9C14.25 8.58579 13.9142 8.25 13.5 8.25ZM9 14.25C8.0335 14.25 7.25 15.0335 7.25 16V17C7.25 17.4142 7.58579 17.75 8 17.75C8.41421 17.75 8.75 17.4142 8.75 17V16C8.75 15.8619 8.86193 15.75 9 15.75H15C15.1381 15.75 15.25 15.8619 15.25 16V17C15.25 17.4142 15.5858 17.75 16 17.75C16.4142 17.75 16.75 17.4142 16.75 17V16C16.75 15.0335 15.9665 14.25 15 14.25H9Z" fill="currentColor"/>
</svg>
