<svg viewBox="0 0 24 24" fill="currentColor" xmlns="http://www.w3.org/2000/svg">
<path d="M12 22C17.5228 22 22 17.5228 22 12C22 6.47715 17.5228 2 12 2C6.47715 2 2 6.47715 2 12C2 17.5228 6.47715 22 12 22ZM8.03477 18.32C7.85805 18.6946 7.4111 18.855 7.03648 18.6783C6.66185 18.5016 6.50141 18.0547 6.67812 17.68C7.6307 15.6606 9.64784 14.25 12.0001 14.25C14.3523 14.25 16.3695 15.6606 17.3221 17.68C17.4988 18.0547 17.3383 18.5016 16.9637 18.6783C16.5891 18.855 16.1421 18.6946 15.9654 18.32C15.2423 16.7871 13.7304 15.75 12.0001 15.75C10.2698 15.75 8.75785 16.7871 8.03477 18.32ZM16 9.5C16 10.3284 15.5523 11 15 11C14.4477 11 14 10.3284 14 9.5C14 8.67157 14.4477 8 15 8C15.5523 8 16 8.67157 16 9.5ZM9 11C8.44771 11 8 10.3284 8 9.5C8 8.67157 8.44771 8 9 8C9.55228 8 10 8.67157 10 9.5C10 10.3284 9.55228 11 9 11Z" fill="currentColor"/>
</svg>
