<svg viewBox="0 0 24 24" fill="currentColor" xmlns="http://www.w3.org/2000/svg">
<path d="M22 12C22 17.5228 17.5228 22 12 22C6.47715 22 2 17.5228 2 12C2 6.47715 6.47715 2 12 2C17.5228 2 22 6.47715 22 12ZM5.27318 14.439C5.16994 14.8402 5.41143 15.2491 5.81257 15.3523C6.48437 15.5252 7.07368 15.9085 7.50486 16.4296C7.88923 16.8941 8.14616 17.4658 8.22433 18.0928C8.27558 18.5038 8.65034 18.7955 9.06137 18.7442C9.4724 18.693 9.76406 18.3182 9.71281 17.9072C9.63897 17.315 9.45619 16.7568 9.18551 16.2534C9.98118 15.9398 10.9462 15.75 11.9998 15.75C13.0535 15.75 14.0185 15.9398 14.8141 16.2534C14.5434 16.7568 14.3607 17.315 14.2868 17.9072C14.2356 18.3182 14.5272 18.693 14.9383 18.7442C15.3493 18.7955 15.7241 18.5038 15.7753 18.0928C15.8535 17.4658 16.1104 16.8941 16.4948 16.4296C16.926 15.9086 17.5153 15.5252 18.1871 15.3523C18.5882 15.2491 18.8297 14.8402 18.7265 14.439C18.6232 14.0379 18.2143 13.7964 17.8132 13.8996C17.0322 14.1007 16.3299 14.4947 15.7597 15.0269C14.689 14.5315 13.3867 14.25 11.9998 14.25C10.6129 14.25 9.31061 14.5315 8.23997 15.0269C7.66971 14.4947 6.96744 14.1007 6.18646 13.8996C5.78532 13.7964 5.37643 14.0379 5.27318 14.439ZM7.83541 7.82918C7.46493 7.64394 7.01442 7.79411 6.82918 8.16459C6.64394 8.53507 6.79411 8.98558 7.16459 9.17082L8.82295 10L7.16459 10.8292C6.79411 11.0144 6.64394 11.4649 6.82918 11.8354C7.01442 12.2059 7.46493 12.3561 7.83541 12.1708L10.8354 10.6708C11.0895 10.5438 11.25 10.2841 11.25 10C11.25 9.71592 11.0895 9.45622 10.8354 9.32918L7.83541 7.82918ZM16.8354 9.17082C17.2059 8.98558 17.3561 8.53507 17.1708 8.16459C16.9856 7.79411 16.5351 7.64394 16.1646 7.82918L13.1646 9.32918C12.9105 9.45622 12.75 9.71592 12.75 10C12.75 10.2841 12.9105 10.5438 13.1646 10.6708L16.1646 12.1708C16.5351 12.3561 16.9856 12.2059 17.1708 11.8354C17.3561 11.4649 17.2059 11.0144 16.8354 10.8292L15.1771 10L16.8354 9.17082Z" fill="currentColor"/>
</svg>
