<svg viewBox="0 0 24 24" fill="currentColor" xmlns="http://www.w3.org/2000/svg">
<path d="M18.9912 7H21.6709C22.0537 7 22.3101 6.7915 22.3101 6.42236C22.3101 6.05322 22.0605 5.84473 21.6709 5.84473H19.9688V5.81738L21.9546 3.24023C22.0537 3.11035 22.1597 2.95996 22.1597 2.73779C22.1597 2.32422 21.8828 2.06787 21.4419 2.06787H18.8647C18.4751 2.06787 18.2256 2.27637 18.2256 2.64551C18.2256 3.01465 18.4819 3.22314 18.8647 3.22314H20.4712V3.25049L18.4648 5.84131C18.3315 6.01562 18.2734 6.16943 18.2734 6.36426C18.2734 6.75049 18.5571 7 18.9912 7Z" fill="currentColor"/>
<path d="M12 2C13.7411 2 15.3782 2.44494 16.8039 3.22732C16.903 3.58466 17.0994 3.9256 17.412 4.20002C17.4995 4.27678 17.5903 4.34336 17.6832 4.40083L17.2789 4.92287L17.2733 4.93013C16.9757 5.31935 16.7734 5.78574 16.7734 6.36426C16.7734 6.9476 17.0002 7.53019 17.4761 7.95083C17.9333 8.35495 18.4935 8.5 18.9912 8.5H21.3704C21.7775 9.58934 22 10.7687 22 12C22 17.5228 17.5228 22 12 22C6.47715 22 2 17.5228 2 12C2 6.47715 6.47715 2 12 2ZM7.25 11C7.25 10.5858 6.91421 10.25 6.5 10.25C6.08579 10.25 5.75 10.5858 5.75 11C5.75 12.5188 6.98122 13.75 8.5 13.75C10.0188 13.75 11.25 12.5188 11.25 11C11.25 10.5858 10.9142 10.25 10.5 10.25C10.0858 10.25 9.75 10.5858 9.75 11C9.75 11.6904 9.19036 12.25 8.5 12.25C7.80964 12.25 7.25 11.6904 7.25 11ZM14.25 11C14.25 10.5858 13.9142 10.25 13.5 10.25C13.0858 10.25 12.75 10.5858 12.75 11C12.75 12.5188 13.9812 13.75 15.5 13.75C17.0188 13.75 18.25 12.5188 18.25 11C18.25 10.5858 17.9142 10.25 17.5 10.25C17.0858 10.25 16.75 10.5858 16.75 11C16.75 11.6904 16.1904 12.25 15.5 12.25C14.8096 12.25 14.25 11.6904 14.25 11ZM14 17C14 15.8954 13.1046 15 12 15C10.8954 15 10 15.8954 10 17C10 18.1046 10.8954 19 12 19C13.1046 19 14 18.1046 14 17ZM14.7115 5.23717C14.8074 4.94939 14.7206 4.63216 14.4914 4.43341C14.2622 4.23466 13.9359 4.19352 13.6646 4.32918L11.6646 5.32918C11.2941 5.51442 11.1439 5.96493 11.3292 6.33541C11.5144 6.70589 11.9649 6.85606 12.3354 6.67082L12.7159 6.48057L12.2885 7.76283C12.1926 8.05061 12.2794 8.36784 12.5086 8.56659C12.7378 8.76534 13.0641 8.80648 13.3354 8.67082L15.3354 7.67082C15.7059 7.48558 15.8561 7.03507 15.6708 6.66459C15.4856 6.29411 15.0351 6.14394 14.6646 6.32918L14.2841 6.51943L14.7115 5.23717Z" fill="currentColor"/>
</svg>
