<svg viewBox="0 0 24 24" fill="currentColor" xmlns="http://www.w3.org/2000/svg">
<path d="M22 12C22 6.47715 17.5228 2 12 2C6.47715 2 2 6.47715 2 12C2 17.5228 6.47715 22 12 22C17.5228 22 22 17.5228 22 12ZM7.8797 14.9698C8.17252 14.6768 8.6474 14.6767 8.94036 14.9695C9.73704 15.7658 10.8151 16.25 11.9996 16.25C13.1841 16.25 14.2621 15.7658 15.0588 14.9695C15.3518 14.6767 15.8267 14.6768 16.1195 14.9698C16.4123 15.2628 16.4122 15.7376 16.1192 16.0305C15.0578 17.0913 13.6047 17.75 11.9996 17.75C10.3945 17.75 8.94134 17.0913 7.87995 16.0305C7.58699 15.7376 7.58688 15.2628 7.8797 14.9698ZM7.25 10C7.25 10.4142 6.91421 10.75 6.5 10.75C6.08579 10.75 5.75 10.4142 5.75 10C5.75 8.48122 6.98122 7.25 8.5 7.25C10.0188 7.25 11.25 8.48122 11.25 10C11.25 10.4142 10.9142 10.75 10.5 10.75C10.0858 10.75 9.75 10.4142 9.75 10C9.75 9.30964 9.19036 8.75 8.5 8.75C7.80964 8.75 7.25 9.30964 7.25 10ZM14.25 10C14.25 10.4142 13.9142 10.75 13.5 10.75C13.0858 10.75 12.75 10.4142 12.75 10C12.75 8.48122 13.9812 7.25 15.5 7.25C17.0188 7.25 18.25 8.48122 18.25 10C18.25 10.4142 17.9142 10.75 17.5 10.75C17.0858 10.75 16.75 10.4142 16.75 10C16.75 9.30964 16.1904 8.75 15.5 8.75C14.8096 8.75 14.25 9.30964 14.25 10Z" fill="currentColor"/>
</svg>
