<svg viewBox="0 0 24 24" fill="currentColor" xmlns="http://www.w3.org/2000/svg">
<path d="M22 12C22 17.5228 17.5228 22 12 22C6.47715 22 2 17.5228 2 12C2 6.47715 6.47715 2 12 2C17.5228 2 22 6.47715 22 12ZM6.5 8.25C6.08579 8.25 5.75 8.58579 5.75 9C5.75 10.5188 6.98122 11.75 8.5 11.75C10.0188 11.75 11.25 10.5188 11.25 9C11.25 8.58579 10.9142 8.25 10.5 8.25C10.0858 8.25 9.75 8.58579 9.75 9C9.75 9.69036 9.19036 10.25 8.5 10.25C7.80964 10.25 7.25 9.69036 7.25 9C7.25 8.58579 6.91421 8.25 6.5 8.25ZM13.5 8.25C13.0858 8.25 12.75 8.58579 12.75 9C12.75 10.5188 13.9812 11.75 15.5 11.75C17.0188 11.75 18.25 10.5188 18.25 9C18.25 8.58579 17.9142 8.25 17.5 8.25C17.0858 8.25 16.75 8.58579 16.75 9C16.75 9.69036 16.1904 10.25 15.5 10.25C14.8096 10.25 14.25 9.69036 14.25 9C14.25 8.58579 13.9142 8.25 13.5 8.25ZM8.94036 14.9695C8.6474 14.6767 8.17252 14.6768 7.8797 14.9698C7.58688 15.2628 7.58699 15.7376 7.87995 16.0305C8.94134 17.0913 10.3945 17.75 11.9996 17.75C13.6047 17.75 15.0578 17.0913 16.1192 16.0305C16.4122 15.7376 16.4123 15.2628 16.1195 14.9698C15.8267 14.6768 15.3518 14.6767 15.0588 14.9695C14.2621 15.7658 13.1841 16.25 11.9996 16.25C10.8151 16.25 9.73704 15.7658 8.94036 14.9695Z" fill="currentColor"/>
</svg>
