<svg viewBox="0 0 24 24" fill="currentColor" xmlns="http://www.w3.org/2000/svg">
<path d="M12 22C17.5228 22 22 17.5228 22 12C22 6.47715 17.5228 2 12 2C6.47715 2 2 6.47715 2 12C2 17.5228 6.47715 22 12 22ZM8 15.25H16C16.4142 15.25 16.75 15.5858 16.75 16C16.75 16.4142 16.4142 16.75 16 16.75H8C7.58579 16.75 7.25 16.4142 7.25 16C7.25 15.5858 7.58579 15.25 8 15.25ZM16 10.5C16 11.3284 15.5523 12 15 12C14.4477 12 14 11.3284 14 10.5C14 9.67157 14.4477 9 15 9C15.5523 9 16 9.67157 16 10.5ZM9 12C8.44771 12 8 11.3284 8 10.5C8 9.67157 8.44771 9 9 9C9.55228 9 10 9.67157 10 10.5C10 11.3284 9.55228 12 9 12Z" fill="currentColor"/>
</svg>
