<svg viewBox="0 0 24 24" fill="currentColor" xmlns="http://www.w3.org/2000/svg">
<path d="M12 22C17.5228 22 22 17.5228 22 12C22 6.47715 17.5228 2 12 2C6.47715 2 2 6.47715 2 12C2 17.5228 6.47715 22 12 22ZM14 8.75H17C17.4142 8.75 17.75 9.08579 17.75 9.5C17.75 9.91421 17.4142 10.25 17 10.25H14C13.5858 10.25 13.25 9.91421 13.25 9.5C13.25 9.08579 13.5858 8.75 14 8.75ZM6.25 9.5C6.25 9.08579 6.58579 8.75 7 8.75H10C10.4142 8.75 10.75 9.08579 10.75 9.5C10.75 9.91421 10.4142 10.25 10 10.25H7C6.58579 10.25 6.25 9.91421 6.25 9.5ZM8 15.25H16C16.4142 15.25 16.75 15.5858 16.75 16C16.75 16.4142 16.4142 16.75 16 16.75H8C7.58579 16.75 7.25 16.4142 7.25 16C7.25 15.5858 7.58579 15.25 8 15.25Z" fill="currentColor"/>
</svg>
