<svg viewBox="0 0 24 24" fill="currentColor" xmlns="http://www.w3.org/2000/svg">
<path d="M12 22C6.47715 22 2 17.5228 2 12C2 6.47715 6.47715 2 12 2C17.5228 2 22 6.47715 22 12C22 17.5228 17.5228 22 12 22ZM7.83541 7.82918C7.46493 7.64394 7.01442 7.79411 6.82918 8.16459C6.64394 8.53507 6.79411 8.98558 7.16459 9.17082L8.82295 10L7.16459 10.8292C6.79411 11.0144 6.64394 11.4649 6.82918 11.8354C7.01442 12.2059 7.46493 12.3561 7.83541 12.1708L10.8354 10.6708C11.0895 10.5438 11.25 10.2841 11.25 10C11.25 9.71592 11.0895 9.45622 10.8354 9.32918L7.83541 7.82918ZM16.8354 9.17082C17.2059 8.98558 17.3561 8.53507 17.1708 8.16459C16.9856 7.79411 16.5351 7.64394 16.1646 7.82918L13.1646 9.32918C12.9105 9.45622 12.75 9.71592 12.75 10C12.75 10.2841 12.9105 10.5438 13.1646 10.6708L16.1646 12.1708C16.5351 12.3561 16.9856 12.2059 17.1708 11.8354C17.3561 11.4649 17.2059 11.0144 16.8354 10.8292L15.1771 10L16.8354 9.17082ZM16.018 17.1295C16.5557 16.6167 16.9998 16.0032 17.3221 15.32C17.4988 14.9453 17.3383 14.4984 16.9637 14.3217C16.5891 14.145 16.1421 14.3054 15.9654 14.68C15.2423 16.2129 13.7304 17.25 12.0001 17.25C10.2698 17.25 8.75785 16.2129 8.03477 14.68C7.85805 14.3054 7.4111 14.145 7.03648 14.3217C6.66185 14.4984 6.50141 14.9453 6.67812 15.32C7.6307 17.3394 9.64784 18.75 12.0001 18.75C12.48 18.75 12.9459 18.6913 13.3917 18.5807L13.75 19.2012C14.1642 19.9186 15.0816 20.1645 15.799 19.7502C16.5165 19.336 16.7623 18.4186 16.3481 17.7012L16.018 17.1295Z" fill="currentColor"/>
</svg>
