<svg viewBox="0 0 24 24" fill="currentColor" xmlns="http://www.w3.org/2000/svg">
<path d="M12 22C17.5228 22 22 17.5228 22 12C22 6.47715 17.5228 2 12 2C6.47715 2 2 6.47715 2 12C2 17.5228 6.47715 22 12 22ZM15 11C14.4477 11 14 10.3284 14 9.5C14 8.67157 14.4477 8 15 8C15.5523 8 16 8.67157 16 9.5C16 10.3284 15.5523 11 15 11ZM10 9.5C10 10.3284 9.55228 11 9 11C8.44771 11 8 10.3284 8 9.5C8 8.67157 8.44771 8 9 8C9.55228 8 10 8.67157 10 9.5ZM12 19C10.3431 19 9 17.6569 9 16C9 14.3431 10.3431 13 12 13C13.6569 13 15 14.3431 15 16C15 17.6569 13.6569 19 12 19Z" fill="currentColor"/>
</svg>
