<svg viewBox="0 0 24 24" fill="currentColor" xmlns="http://www.w3.org/2000/svg">
<path d="M8.96 12.69H10.01V11.13L8.96 12.69ZM8.96 12.69H10.01V11.13L8.96 12.69ZM20 5H4C2.9 5 2 5.9 2 7V17C2 18.1 2.9 19 4 19H20C21.1 19 22 18.1 22 17V7C22 5.9 21.1 5 20 5ZM7.06 14.61C6.95 14.72 6.8 14.77 6.61 14.77H3.81C3.58 14.77 3.42 14.71 3.3 14.6C3.19 14.49 3.14 14.32 3.14 14.12C3.14 13.97 3.17 13.84 3.23 13.72C3.31 13.61 3.4 13.49 3.5 13.38L4.91 11.92C5.12 11.68 5.26 11.49 5.35 11.34C5.44 11.18 5.48 11.01 5.48 10.86C5.48 10.66 5.4 10.5 5.28 10.4C5.15 10.31 4.94 10.24 4.7 10.24C4.57 10.24 4.43 10.26 4.28 10.31C4.15 10.33 3.99 10.39 3.82 10.49C3.67 10.56 3.54 10.57 3.44 10.55C3.32 10.53 3.22 10.47 3.15 10.37C3.07 10.28 3.03 10.18 3 10.06C3 9.94 3 9.83 3.06 9.72C3.13 9.6 3.21 9.51 3.35 9.43C3.6 9.3 3.84 9.2 4.11 9.15C4.38 9.09 4.65 9.07 4.91 9.07C5.35 9.07 5.71 9.13 6 9.25C6.29 9.38 6.54 9.58 6.7 9.81C6.85 10.05 6.93 10.35 6.93 10.71C6.93 10.93 6.91 11.15 6.83 11.36C6.76 11.58 6.65 11.79 6.5 12C6.35 12.22 6.16 12.44 5.93 12.7L5 13.62H6.61C6.8 13.62 6.95 13.67 7.06 13.77C7.16 13.86 7.21 13.99 7.22 14.16V14.21C7.22 14.38 7.16 14.51 7.06 14.61ZM12.06 13.68C11.95 13.78 11.8 13.83 11.6 13.83H11.41V14.11C11.41 14.35 11.35 14.53 11.23 14.65C11.1 14.77 10.94 14.84 10.7 14.84C10.46 14.84 10.3 14.78 10.17 14.65C10.05 14.55 9.99 14.35 9.99 14.11V13.83H8.37C8.14 13.83 7.96 13.78 7.83 13.67C7.7 13.58 7.64 13.4 7.64 13.19C7.64 13.05 7.66 12.93 7.71 12.82C7.76 12.69 7.85 12.55 7.97 12.38L9.93 9.52C10.04 9.34 10.16 9.24 10.29 9.16C10.42 9.08 10.58 9.05 10.77 9.05C10.97 9.05 11.13 9.1 11.25 9.23C11.36 9.33 11.43 9.53 11.43 9.77V12.7H11.62C11.82 12.7 11.97 12.75 12.08 12.85C12.17 12.96 12.22 13.08 12.22 13.27C12.22 13.45 12.15 13.59 12.06 13.68ZM15.8 9.44L14.01 15C13.95 15.19 13.84 15.33 13.72 15.39C13.6 15.48 13.47 15.51 13.35 15.51H13.3C13.17 15.51 13.03 15.46 12.91 15.39C12.81 15.33 12.7 15.22 12.64 15.06C12.57 14.91 12.57 14.75 12.62 14.57L14.41 9.01C14.47 8.83 14.57 8.68 14.7 8.62C14.81 8.53 14.97 8.49 15.12 8.5C15.24 8.5 15.39 8.55 15.51 8.62C15.63 8.68 15.74 8.8 15.79 8.96C15.85 9.11 15.85 9.26 15.8 9.44ZM20.91 10.18C20.73 10.56 20.73 10.56 20.73 10.56L18.67 14.37C18.59 14.54 18.48 14.64 18.34 14.72C18.21 14.79 18.05 14.82 17.83 14.82C17.65 14.82 17.5 14.79 17.39 14.71C17.28 14.62 17.21 14.52 17.21 14.37C17.19 14.24 17.23 14.09 17.31 13.92L19.3 10.31H17.29C17.1 10.31 16.94 10.24 16.82 10.15C16.72 10.05 16.66 9.89 16.66 9.7C16.66 9.51 16.72 9.36 16.82 9.25C16.94 9.15 17.1 9.1 17.29 9.1H20.31C20.5 9.1 20.67 9.15 20.79 9.26C20.91 9.37 21 9.53 21 9.72C21 9.9 20.9527 10.0899 20.91 10.18ZM10.01 12.69V11.13L8.96 12.69H10.01Z" fill="currentColor"/>
</svg>
