<svg viewBox="0 0 24 24" fill="currentColor" xmlns="http://www.w3.org/2000/svg">
<path d="M12 21.25C6.88942 21.25 2.75 17.1106 2.75 12C2.75 6.88942 6.88941 2.75 12 2.75C17.1106 2.75 21.25 6.88941 21.25 12C21.25 12.4142 21.5858 12.75 22 12.75C22.4142 12.75 22.75 12.4142 22.75 12C22.75 6.06099 17.939 1.25 12 1.25C6.06098 1.25 1.25 6.06099 1.25 12C1.25 17.939 6.06099 22.75 12 22.75C13.3045 22.75 14.4843 22.5405 15.5481 22.2226C15.8211 22.141 16.0243 21.9118 16.0725 21.631C16.1207 21.3502 16.0057 21.0663 15.7755 20.8983L11.8886 18.0609C11.554 17.8167 11.0848 17.8899 10.8406 18.2245C10.5964 18.559 10.6696 19.0282 11.0042 19.2724L13.556 21.1352C13.0602 21.2087 12.5421 21.25 12 21.25Z" fill="currentColor"/>
<path d="M8.27629 13.7075C8.27629 13.8581 8.23863 13.9711 8.1539 14.0558C8.06917 14.1405 7.95619 14.1782 7.80556 14.1782H5.63078C5.4519 14.1782 5.3201 14.1311 5.23537 14.0464C5.15063 13.9616 5.11298 13.8298 5.11298 13.6698C5.11298 13.5568 5.14122 13.4533 5.18829 13.3591C5.24478 13.265 5.31068 13.1802 5.39541 13.0955L6.48751 11.9563C6.64756 11.7775 6.76053 11.6268 6.82644 11.5044C6.89234 11.382 6.93 11.2502 6.93 11.1278C6.93 10.9678 6.87351 10.8454 6.76995 10.7701C6.66639 10.6948 6.51575 10.6477 6.31805 10.6477C6.21449 10.6477 6.11093 10.6665 5.99795 10.6948C5.89439 10.7136 5.772 10.7607 5.64019 10.836C5.52722 10.8925 5.42366 10.9019 5.33893 10.8831C5.24478 10.8642 5.16946 10.8172 5.11298 10.7418C5.05649 10.6759 5.01883 10.5912 5 10.4971C5 10.4029 5 10.3182 5.04707 10.2335C5.09415 10.1393 5.16005 10.064 5.27302 10.0075C5.46132 9.90395 5.65902 9.82863 5.86615 9.79097C6.07327 9.7439 6.28039 9.72507 6.48751 9.72507C6.82644 9.72507 7.10888 9.77214 7.33483 9.86629C7.56078 9.96985 7.74907 10.1205 7.87146 10.3088C7.98444 10.4877 8.05034 10.723 8.05034 11.0055C8.05034 11.1749 8.03151 11.3444 7.97502 11.5138C7.91853 11.6833 7.8338 11.8434 7.72083 12.0128C7.60785 12.1823 7.45722 12.3517 7.26892 12.5495L6.544 13.265H7.79614C7.94678 13.265 8.05975 13.3026 8.14448 13.3779C8.22922 13.4627 8.27629 13.5662 8.27629 13.7075Z" fill="currentColor"/>
<path d="M12.0616 12.6907C11.9769 12.6153 11.8639 12.5777 11.7039 12.5777H11.5532V10.2993C11.5532 10.1111 11.5061 9.96042 11.412 9.87569C11.3179 9.77212 11.1955 9.73447 11.0354 9.73447C10.8942 9.73447 10.7718 9.76271 10.6588 9.82861C10.5553 9.8851 10.4705 9.96983 10.3858 10.1016L8.86063 12.3235C8.76648 12.4553 8.70058 12.5683 8.66292 12.6624C8.62526 12.7566 8.60645 12.8413 8.60645 12.9543C8.60645 13.1237 8.65352 13.2555 8.75708 13.3309C8.86064 13.4156 9.00186 13.4532 9.18074 13.4532H10.4329V13.6698C10.4329 13.8581 10.48 14.0087 10.5741 14.0934C10.6777 14.197 10.8095 14.2347 10.9883 14.2347C11.1672 14.2347 11.299 14.1876 11.3932 14.0934C11.4967 13.9899 11.5344 13.8581 11.5344 13.6698V13.4532H11.685C11.8451 13.4532 11.9581 13.4156 12.0428 13.3403C12.1181 13.265 12.1652 13.1614 12.1652 13.0202C12.1652 12.879 12.1369 12.766 12.0616 12.6907ZM10.4517 12.5777H9.64205L10.4517 11.3632V12.5777Z" fill="currentColor"/>
<path d="M14.9518 10.0358L13.5679 14.3571C13.5208 14.5077 13.4361 14.6113 13.3419 14.6678C13.2383 14.7337 13.1442 14.7619 13.0501 14.7619H13.0124C12.9088 14.7619 12.8053 14.7242 12.7111 14.6678C12.6264 14.6207 12.5417 14.5359 12.4946 14.4136C12.4475 14.3006 12.4475 14.1688 12.4852 14.0276L13.8691 9.70625C13.9162 9.56503 13.9915 9.45205 14.0951 9.39557C14.1892 9.32966 14.3116 9.292 14.4246 9.30142C14.5187 9.30142 14.6317 9.33908 14.7259 9.39557C14.82 9.44264 14.9047 9.53678 14.9424 9.65917C14.9895 9.77215 14.9895 9.89454 14.9518 10.0358Z" fill="currentColor"/>
<path d="M19.0003 10.2617C19.0003 10.3935 18.9585 10.5278 18.9267 10.6125C18.8989 10.6867 18.8403 10.8077 18.7838 10.9113L17.1833 13.8675C17.1174 13.9993 17.0327 14.084 16.9291 14.1405C16.8255 14.197 16.7031 14.2252 16.5337 14.2252C16.3925 14.2252 16.2795 14.197 16.1948 14.1311C16.11 14.0652 16.0535 13.9804 16.0535 13.8675C16.0347 13.7639 16.0724 13.6509 16.1383 13.5191L17.6823 10.7136H16.1194C15.9688 10.7136 15.8464 10.6665 15.7523 10.5912C15.6675 10.5159 15.6299 10.3935 15.6299 10.2428C15.6299 10.0922 15.6675 9.97923 15.7523 9.8945C15.8464 9.81918 15.9688 9.78152 16.1194 9.78152H18.4637C18.6143 9.78152 18.7461 9.81918 18.8403 9.90391C18.9438 9.98865 19.0003 10.111 19.0003 10.2617Z" fill="currentColor"/>
</svg>
