<svg viewBox="0 0 24 24" fill="currentColor" xmlns="http://www.w3.org/2000/svg">
<path d="M9.73828 10.1953H11.2031V7.76172H11.1719C10.6055 8.58984 10.1953 9.24609 9.73828 10.1484V10.1953Z" fill="currentColor"/>
<path d="M4 4C2.89543 4 2 4.89543 2 6V16C2 16.9321 2.63766 17.7153 3.50056 17.9371C3.53409 16.0331 5.088 14.5 7 14.5C8.933 14.5 10.5 16.067 10.5 18H13.5C13.5 16.067 15.067 14.5 17 14.5C18.912 14.5 20.4659 16.0331 20.4994 17.9371C21.3623 17.7153 22 16.9321 22 16V12.75H15V11.25H21.4L18.6005 7.75061C18.2209 7.27618 17.6463 7 17.0387 7H15V6C15 4.89543 14.1046 4 13 4H4ZM7.24609 12.293H4.11328C3.57422 12.293 3.33984 11.9922 3.33984 11.5781C3.33984 11.2734 3.48047 11.0391 3.79297 10.7773L5.34375 9.44922C5.97656 8.90625 6.15625 8.66016 6.15625 8.32422C6.15625 7.96875 5.88281 7.72266 5.48047 7.72266C5.18359 7.72266 4.98047 7.85938 4.76953 8.16406C4.55078 8.48438 4.35156 8.60156 4.03516 8.60156C3.61328 8.60156 3.35547 8.35547 3.35547 7.95703C3.35547 7.82812 3.37891 7.70703 3.42969 7.58984C3.72656 6.91797 4.51953 6.5 5.50391 6.5C6.875 6.5 7.75 7.19141 7.75 8.21484C7.75 8.97266 7.35938 9.36719 6.48438 10.125L5.45703 11.0117V11.043H7.24609C7.66016 11.043 7.89453 11.2891 7.89453 11.668C7.89453 12.0391 7.66016 12.293 7.24609 12.293ZM12.7188 11.6055C12.7188 12.1367 12.3867 12.3906 11.9375 12.3906C11.4844 12.3906 11.1562 12.1367 11.1562 11.6055V11.3984H9.39453C8.79688 11.3984 8.38281 11.0195 8.38281 10.4727C8.38281 10.1719 8.48438 9.85547 8.70312 9.46484C9.07031 8.80469 9.41797 8.23047 9.85156 7.55078C10.3203 6.8125 10.7031 6.55859 11.3477 6.55859C12.1719 6.55859 12.7188 7.01562 12.7188 7.70703V10.1289H12.8477C13.2812 10.1289 13.4883 10.3984 13.4883 10.7656C13.4883 11.1328 13.2773 11.3984 12.8438 11.3984H12.7188V11.6055Z" fill="currentColor"/>
<path d="M9 18C9 19.1046 8.10457 20 7 20C5.89543 20 5 19.1046 5 18C5 16.8954 5.89543 16 7 16C8.10457 16 9 16.8954 9 18Z" fill="currentColor"/>
<path d="M19 18C19 19.1046 18.1046 20 17 20C15.8954 20 15 19.1046 15 18C15 16.8954 15.8954 16 17 16C18.1046 16 19 16.8954 19 18Z" fill="currentColor"/>
</svg>
