<svg viewBox="0 0 24 24" fill="currentColor" xmlns="http://www.w3.org/2000/svg">
<path d="M11 20.5C11 21.3284 10.3284 22 9.5 22C8.67157 22 8 21.3284 8 20.5C8 19.6716 8.67157 19 9.5 19C10.3284 19 11 19.6716 11 20.5Z" fill="currentColor"/>
<path d="M18 20.5C18 21.3284 17.3284 22 16.5 22C15.6716 22 15 21.3284 15 20.5C15 19.6716 15.6716 19 16.5 19C17.3284 19 18 19.6716 18 20.5Z" fill="currentColor"/>
<path d="M1.28869 1.76303C1.41968 1.37008 1.84442 1.15771 2.23737 1.28869L4.2699 1.9662C5.12349 2.25073 5.75918 2.97083 5.93564 3.85312L6.01506 4.2502H20.7194C21.8579 4.2502 22.6933 5.32013 22.4172 6.42464L21.1065 11.6672C20.8005 12.8914 19.7005 13.7502 18.4387 13.7502H7.91506L8.21409 15.2453C8.33094 15.8296 8.84396 16.2502 9.43981 16.2502H18.0002C18.4144 16.2502 18.7502 16.586 18.7502 17.0002C18.7502 17.4144 18.4144 17.7502 18.0002 17.7502H9.43981C8.12894 17.7502 7.0003 16.8249 6.74321 15.5395L4.46477 4.14729C4.39388 3.79283 4.13849 3.50354 3.79556 3.38923L1.76303 2.71172C1.37008 2.58073 1.15771 2.15599 1.28869 1.76303ZM14.0303 12.5303L16.5303 10.0303C16.8232 9.73744 16.8232 9.26256 16.5303 8.96967C16.2374 8.67678 15.7626 8.67678 15.4697 8.96967L14.25 10.1893V6C14.25 5.58579 13.9142 5.25 13.5 5.25C13.0858 5.25 12.75 5.58579 12.75 6V10.1893L11.5304 8.96968C11.2375 8.67678 10.7627 8.67677 10.4698 8.96966C10.1769 9.26255 10.1768 9.73742 10.4697 10.0303L12.9697 12.5303C13.1103 12.671 13.3011 12.75 13.5 12.75C13.6989 12.75 13.8897 12.671 14.0303 12.5303Z" fill="currentColor"/>
</svg>
