<svg viewBox="0 0 24 24" fill="currentColor" xmlns="http://www.w3.org/2000/svg">
<path d="M11 20.5C11 21.3284 10.3284 22 9.5 22C8.67157 22 8 21.3284 8 20.5C8 19.6716 8.67157 19 9.5 19C10.3284 19 11 19.6716 11 20.5Z" fill="currentColor"/>
<path d="M18 20.5C18 21.3284 17.3284 22 16.5 22C15.6716 22 15 21.3284 15 20.5C15 19.6716 15.6716 19 16.5 19C17.3284 19 18 19.6716 18 20.5Z" fill="currentColor"/>
<path d="M1.28869 1.76303C1.41968 1.37008 1.84442 1.15771 2.23737 1.28869L4.2699 1.9662C5.12349 2.25073 5.75918 2.97083 5.93564 3.85312L6.01506 4.2502H20.7194C21.8579 4.2502 22.6933 5.32013 22.4172 6.42464L21.1065 11.6672C20.8005 12.8914 19.7005 13.7502 18.4387 13.7502H7.91506L8.21409 15.2453C8.33094 15.8296 8.84396 16.2502 9.43981 16.2502H18.0002C18.4144 16.2502 18.7502 16.586 18.7502 17.0002C18.7502 17.4144 18.4144 17.7502 18.0002 17.7502H9.43981C8.12894 17.7502 7.0003 16.8249 6.74321 15.5395L4.46477 4.14729C4.39388 3.79283 4.13849 3.50354 3.79556 3.38923L1.76303 2.71172C1.37008 2.58073 1.15771 2.15599 1.28869 1.76303ZM14.25 6C14.25 5.58579 13.9142 5.25 13.5 5.25C13.0858 5.25 12.75 5.58579 12.75 6V8.25H10.5C10.0858 8.25 9.75 8.58579 9.75 9C9.75 9.41421 10.0858 9.75 10.5 9.75H12.75V12C12.75 12.4142 13.0858 12.75 13.5 12.75C13.9142 12.75 14.25 12.4142 14.25 12V9.75H16.5C16.9142 9.75 17.25 9.41421 17.25 9C17.25 8.58579 16.9142 8.25 16.5 8.25H14.25V6Z" fill="currentColor"/>
</svg>
