<svg viewBox="0 0 24 24" fill="currentColor" xmlns="http://www.w3.org/2000/svg">
<path d="M2.23737 1.28869C1.84442 1.15771 1.41968 1.37008 1.28869 1.76303C1.15771 2.15599 1.37008 2.58073 1.76303 2.71172L3.79556 3.38923C4.13849 3.50354 4.39388 3.79283 4.46477 4.14729L6.74321 15.5395C7.0003 16.8249 8.12894 17.7502 9.43981 17.7502H18.0002C18.4144 17.7502 18.7502 17.4144 18.7502 17.0002C18.7502 16.586 18.4144 16.2502 18.0002 16.2502H9.43981C8.84396 16.2502 8.33094 15.8296 8.21409 15.2453L7.91506 13.7502H18.4387C19.7005 13.7502 20.8005 12.8914 21.1065 11.6672L22.4172 6.42464C22.6933 5.32013 21.8579 4.2502 20.7194 4.2502H6.01506L5.93564 3.85312C5.75918 2.97083 5.12349 2.25073 4.2699 1.9662L2.23737 1.28869ZM14.0303 5.46967L16.5303 7.96967C16.8232 8.26256 16.8232 8.73744 16.5303 9.03033C16.2374 9.32322 15.7626 9.32322 15.4697 9.03033L14.25 7.81066V12C14.25 12.4142 13.9142 12.75 13.5 12.75C13.0858 12.75 12.75 12.4142 12.75 12V7.8107L11.5304 9.03032C11.2375 9.32322 10.7627 9.32323 10.4698 9.03034C10.1769 8.73745 10.1768 8.26258 10.4697 7.96968L12.9697 5.46968C13.1103 5.32902 13.3011 5.25 13.5 5.25C13.6989 5.25 13.8897 5.32902 14.0303 5.46967Z" fill="currentColor"/>
<path d="M11 20.5C11 21.3284 10.3284 22 9.5 22C8.67157 22 8 21.3284 8 20.5C8 19.6716 8.67157 19 9.5 19C10.3284 19 11 19.6716 11 20.5Z" fill="currentColor"/>
<path d="M18 20.5C18 21.3284 17.3284 22 16.5 22C15.6716 22 15 21.3284 15 20.5C15 19.6716 15.6716 19 16.5 19C17.3284 19 18 19.6716 18 20.5Z" fill="currentColor"/>
</svg>
