<svg viewBox="0 0 24 24" fill="currentColor" xmlns="http://www.w3.org/2000/svg">
<path d="M7.53548 2.13863C7.20205 1.95379 6.79797 1.95379 6.46454 2.13863L2.57566 4.29443C2.56843 4.29844 2.56126 4.30252 2.55414 4.30667L7.00001 6.69656L11.4459 4.30667C11.4388 4.30252 11.4316 4.29844 11.4244 4.29443L7.53548 2.13863Z" fill="currentColor"/>
<path d="M12 5.72223L7.75 8.00682V12.513L11.4244 10.4762C11.7794 10.2793 12 9.90328 12 9.49487V5.72223Z" fill="currentColor"/>
<path d="M6.25 12.513V8.00682L2 5.72223V9.49487C2 9.90328 2.22059 10.2793 2.57565 10.4762L6.25 12.513Z" fill="currentColor"/>
<path d="M11.1856 12.3337L13.4185 13.6018L13.8336 13.8497L11.8453 16.0997L9.35905 15.696C9.32226 15.6901 9.30386 15.6871 9.24487 15.6916C9.18588 15.6961 9.18361 15.6969 9.17908 15.6983C8.92654 15.7803 8.57939 16.1301 8.57939 16.1301C8.58654 16.1229 8.58415 16.1253 8.57939 16.1301C8.17118 16.5415 7.96706 16.7472 8.00433 16.9676C8.0416 17.188 8.29841 17.2941 8.81204 17.5061L9.74487 17.8912L10.1409 18.0634C9.87228 18.4646 9.72113 18.9335 9.71023 19.4124C9.69913 19.8999 10.0822 20.2859 10.5659 20.2747C11.0411 20.2637 11.5063 20.1114 11.9045 19.8407L12.0753 20.2398L12.5011 21.2871C12.6707 21.7045 12.7556 21.9132 12.9185 21.9742C12.966 21.992 13.0168 22.0008 13.0683 21.9999C13.2448 21.9972 13.4094 21.8313 13.7385 21.4996C13.837 21.4003 14.164 21.0708 14.1697 20.8192L13.853 18.123L16.0856 16.1193L16.3317 16.5378L18.9533 21.2262C19.196 21.6602 19.3173 21.8773 19.5227 21.8997C19.7281 21.9221 19.9105 21.7383 20.2754 21.3707L20.3533 21.2921C20.7613 20.881 20.9476 20.3008 20.8497 19.7461L19.6445 12.9255L20.922 11.7785C21.6773 11.1008 22.0749 10.11 21.9883 9.12224C21.9308 8.46629 21.4275 7.95907 20.7766 7.90109C19.7964 7.81378 18.8133 8.21454 18.1408 8.97563L17.0029 10.2633L13.4963 9.63403C13.4489 10.5393 12.941 11.3606 12.1472 11.8007L11.1856 12.3337Z" fill="currentColor"/>
</svg>
