<svg viewBox="0 0 24 24" fill="currentColor" xmlns="http://www.w3.org/2000/svg">
<path d="M2 6C2 4.89543 2.89543 4 4 4H20C21.1046 4 22 4.89543 22 6V18C22 18.4543 21.8485 18.8732 21.5934 19.209C21.8027 18.6221 21.9167 17.9903 21.9167 17.3333C21.9167 15.1154 20.6235 13.1996 18.75 12.2987V7C18.75 6.58579 18.4142 6.25 18 6.25C17.5858 6.25 17.25 6.58579 17.25 7V11.8249C16.9518 11.7756 16.6455 11.75 16.3333 11.75C16.1363 11.75 15.9417 11.7602 15.75 11.7801V7C15.75 6.58579 15.4142 6.25 15 6.25C14.5858 6.25 14.25 6.58579 14.25 7V12C14.25 12.0499 14.2549 12.0987 14.2642 12.146C13.7102 12.3671 13.2 12.6745 12.75 13.0514V7C12.75 6.58579 12.4142 6.25 12 6.25C11.5858 6.25 11.25 6.58579 11.25 7V15.0206C10.9289 15.7253 10.75 16.5084 10.75 17.3333C10.75 18.2991 10.9952 19.2076 11.4268 20H4C2.89543 20 2 19.1046 2 18V6ZM6.75 7C6.75 6.58579 6.41421 6.25 6 6.25C5.58579 6.25 5.25 6.58579 5.25 7V17C5.25 17.4142 5.58579 17.75 6 17.75C6.41421 17.75 6.75 17.4142 6.75 17V7ZM9.75 7C9.75 6.58579 9.41421 6.25 9 6.25C8.58579 6.25 8.25 6.58579 8.25 7V8.5C8.25 8.91421 8.58579 9.25 9 9.25C9.41421 9.25 9.75 8.91421 9.75 8.5V7ZM9 11.25C8.58579 11.25 8.25 11.5858 8.25 12V17C8.25 17.4142 8.58579 17.75 9 17.75C9.41421 17.75 9.75 17.4142 9.75 17V12C9.75 11.5858 9.41421 11.25 9 11.25Z" fill="currentColor"/>
<path d="M16.3333 14.75C14.9066 14.75 13.75 15.9066 13.75 17.3333C13.75 18.7601 14.9066 19.9167 16.3333 19.9167C17.7601 19.9167 18.9167 18.7601 18.9167 17.3333C18.9167 15.9066 17.7601 14.75 16.3333 14.75ZM12.25 17.3333C12.25 15.0782 14.0782 13.25 16.3333 13.25C18.5885 13.25 20.4167 15.0782 20.4167 17.3333C20.4167 18.1899 20.1529 18.9849 19.7022 19.6415L21.5303 21.4697C21.8232 21.7626 21.8232 22.2374 21.5303 22.5303C21.2374 22.8232 20.7626 22.8232 20.4697 22.5303L18.6415 20.7022C17.9849 21.1529 17.1899 21.4167 16.3333 21.4167C14.0782 21.4167 12.25 19.5885 12.25 17.3333Z" fill="currentColor"/>
</svg>
