<svg viewBox="0 0 24 24" fill="currentColor" xmlns="http://www.w3.org/2000/svg">
<path d="M4 4C2.89543 4 2 4.89543 2 6V18C2 19.1046 2.89543 20 4 20H20C21.1046 20 22 19.1046 22 18V6C22 4.89543 21.1046 4 20 4H4ZM6.75 7V17C6.75 17.4142 6.41421 17.75 6 17.75C5.58579 17.75 5.25 17.4142 5.25 17V7C5.25 6.58579 5.58579 6.25 6 6.25C6.41421 6.25 6.75 6.58579 6.75 7ZM9 6.25C9.41421 6.25 9.75 6.58579 9.75 7V8.5C9.75 8.91421 9.41421 9.25 9 9.25C8.58579 9.25 8.25 8.91421 8.25 8.5V7C8.25 6.58579 8.58579 6.25 9 6.25ZM9 11.25C9.41421 11.25 9.75 11.5858 9.75 12V17C9.75 17.4142 9.41421 17.75 9 17.75C8.58579 17.75 8.25 17.4142 8.25 17V12C8.25 11.5858 8.58579 11.25 9 11.25ZM15.75 17C15.75 17.4142 15.4142 17.75 15 17.75C14.5858 17.75 14.25 17.4142 14.25 17V15.5C14.25 15.0858 14.5858 14.75 15 14.75C15.4142 14.75 15.75 15.0858 15.75 15.5V17ZM15.75 12C15.75 12.4142 15.4142 12.75 15 12.75C14.5858 12.75 14.25 12.4142 14.25 12V7C14.25 6.58579 14.5858 6.25 15 6.25C15.4142 6.25 15.75 6.58579 15.75 7V12ZM12 6.25C12.4142 6.25 12.75 6.58579 12.75 7V17C12.75 17.4142 12.4142 17.75 12 17.75C11.5858 17.75 11.25 17.4142 11.25 17V7C11.25 6.58579 11.5858 6.25 12 6.25ZM18.75 7V17C18.75 17.4142 18.4142 17.75 18 17.75C17.5858 17.75 17.25 17.4142 17.25 17V7C17.25 6.58579 17.5858 6.25 18 6.25C18.4142 6.25 18.75 6.58579 18.75 7Z" fill="currentColor"/>
</svg>
