<svg viewBox="0 0 24 24" fill="currentColor" xmlns="http://www.w3.org/2000/svg">
<path d="M8.40266 4.36735C8.75211 4.58973 8.85513 5.0533 8.63275 5.40275L6.34353 9.00009H17.6565L15.3673 5.40275C15.1449 5.0533 15.2479 4.58973 15.5973 4.36735C15.9468 4.14497 16.4104 4.24798 16.6327 4.59744L19.4344 9.00009H21C21.5523 9.00009 22 9.44781 22 10.0001V11.0001C22 11.5524 21.5523 12.0001 21 12.0001H20L18.8412 20.2774C18.7029 21.2652 17.8579 22.0001 16.8605 22.0001H7.1395C6.14207 22.0001 5.29711 21.2652 5.15882 20.2774L4 12.0001H3C2.44772 12.0001 2 11.5524 2 11.0001V10.0001C2 9.44781 2.44772 9.00009 3 9.00009H4.56556L7.36725 4.59744C7.58963 4.24798 8.0532 4.14497 8.40266 4.36735ZM8.35291 12.2646C7.94674 12.3458 7.68333 12.7409 7.76456 13.1471L8.76456 18.1471C8.8458 18.5533 9.24092 18.8167 9.64709 18.7354C10.0533 18.6542 10.3167 18.2591 10.2354 17.8529L9.23544 12.8529C9.1542 12.4467 8.75908 12.1833 8.35291 12.2646ZM14.7646 12.8529L13.7646 17.8529C13.6833 18.2591 13.9467 18.6542 14.3529 18.7354C14.7591 18.8167 15.1542 18.5533 15.2354 18.1471L16.2354 13.1471C16.3167 12.7409 16.0533 12.3458 15.6471 12.2646C15.2409 12.1833 14.8458 12.4467 14.7646 12.8529Z" fill="currentColor"/>
</svg>
