<svg viewBox="0 0 24 24" fill="currentColor" xmlns="http://www.w3.org/2000/svg">
<path d="M8.63275 5.40275L6.34353 9.00009H17.6565L15.3673 5.40275C15.1449 5.0533 15.2479 4.58973 15.5973 4.36735C15.9468 4.14497 16.4104 4.24798 16.6327 4.59744L19.4344 9.00009H21C21.5523 9.00009 22 9.44781 22 10.0001V11.0001C22 11.5524 21.5523 12.0001 21 12.0001H20L18.8412 20.2774C18.7029 21.2652 17.8579 22.0001 16.8605 22.0001H7.1395C6.14207 22.0001 5.29711 21.2652 5.15882 20.2774L4 12.0001H3C2.44772 12.0001 2 11.5524 2 11.0001V10.0001C2 9.44781 2.44772 9.00009 3 9.00009H4.56556L7.36725 4.59744C7.58963 4.24798 8.0532 4.14497 8.40266 4.36735C8.75211 4.58973 8.85513 5.0533 8.63275 5.40275ZM12.0001 12.0001C11.8264 12.0001 11.6796 12.0561 11.5597 12.168C11.4399 12.2799 11.38 12.4198 11.38 12.5877V13.0447C11.0591 13.1006 10.7715 13.1945 10.5172 13.3264C10.1996 13.4943 9.95099 13.7126 9.77124 13.9812C9.59749 14.2442 9.51061 14.5436 9.51061 14.8794C9.51061 15.3215 9.64542 15.6825 9.91504 15.9623C10.1907 16.2365 10.6071 16.4324 11.1643 16.5499L12.1799 16.7514C12.3596 16.7906 12.5004 16.8354 12.6023 16.8857C12.7041 16.9305 12.776 16.9837 12.818 17.0452C12.8659 17.1012 12.8899 17.1711 12.8899 17.2551C12.8899 17.3446 12.8569 17.4286 12.791 17.5069C12.7311 17.5797 12.6262 17.6384 12.4765 17.6832C12.3327 17.728 12.1349 17.7504 11.8833 17.7504C11.5238 17.7504 11.2212 17.7196 10.9756 17.658C10.7359 17.5909 10.5561 17.5265 10.4363 17.4649C10.2566 17.3922 10.0978 17.3754 9.95998 17.4146C9.82816 17.4482 9.72031 17.5181 9.63643 17.6244C9.55255 17.7308 9.50162 17.8483 9.48365 17.977C9.47166 18.1057 9.49563 18.2316 9.55554 18.3548C9.62145 18.4779 9.7323 18.573 9.88808 18.6402C10.0738 18.7185 10.3135 18.7969 10.6071 18.8752C10.8328 18.9355 11.0905 18.9775 11.38 19.0014V19.4125C11.38 19.5804 11.4399 19.7203 11.5597 19.8322C11.6796 19.9441 11.8264 20.0001 12.0001 20.0001C12.1859 20.0001 12.3357 19.9441 12.4495 19.8322C12.5693 19.7203 12.6292 19.5804 12.6292 19.4125V18.9532C12.9517 18.8956 13.2393 18.7996 13.492 18.6654C13.8036 18.5031 14.0463 18.2932 14.22 18.0358C14.3938 17.7783 14.4806 17.4817 14.4806 17.1459C14.4806 16.715 14.3428 16.3653 14.0672 16.0966C13.7976 15.8224 13.3782 15.6265 12.809 15.509L11.7844 15.2991C11.5208 15.2432 11.338 15.1788 11.2362 15.1061C11.1403 15.0277 11.0924 14.9326 11.0924 14.8207C11.0924 14.6528 11.1763 14.5157 11.344 14.4093C11.5178 14.303 11.7635 14.2498 12.081 14.2498C12.3446 14.2498 12.5603 14.2694 12.7281 14.3086C12.9019 14.3422 13.0576 14.3869 13.1954 14.4429C13.3812 14.5157 13.54 14.538 13.6718 14.5101C13.8096 14.4765 13.9174 14.4121 13.9953 14.317C14.0792 14.2219 14.1271 14.1155 14.1391 13.998C14.1571 13.8749 14.1361 13.7546 14.0762 13.637C14.0223 13.5195 13.9264 13.4272 13.7886 13.36C13.5909 13.2481 13.3602 13.1613 13.0966 13.0998C12.934 13.0584 12.7782 13.0286 12.6292 13.0106V12.5877C12.6292 12.4198 12.5693 12.2799 12.4495 12.168C12.3297 12.0561 12.1799 12.0001 12.0001 12.0001Z" fill="currentColor"/>
</svg>
