<svg viewBox="0 0 24 24" fill="currentColor" xmlns="http://www.w3.org/2000/svg">
<path d="M7.06302 3.5H16.937C16.715 2.63739 15.9319 2 15 2H9.00001C8.06809 2 7.28504 2.63739 7.06302 3.5Z" fill="currentColor"/>
<path d="M4.06302 6.5H19.937C19.715 5.63739 18.9319 5 18 5H6.00001C5.06809 5 4.28504 5.63739 4.06302 6.5Z" fill="currentColor"/>
<path d="M4 8C2.89543 8 2 8.89543 2 10V20C2 21.1046 2.89543 22 4 22H20C21.1046 22 22 21.1046 22 20V10C22 8.89543 21.1046 8 20 8H4ZM12 18C10.3431 18 9 16.6569 9 15C9 13.3431 10.3431 12 12 12C13.6569 12 15 13.3431 15 15C15 16.6569 13.6569 18 12 18ZM4.25 19C4.25 18.5858 4.58579 18.25 5 18.25H8C8.41421 18.25 8.75 18.5858 8.75 19C8.75 19.4142 8.41421 19.75 8 19.75H5C4.58579 19.75 4.25 19.4142 4.25 19ZM16 10.25H19C19.4142 10.25 19.75 10.5858 19.75 11C19.75 11.4142 19.4142 11.75 19 11.75H16C15.5858 11.75 15.25 11.4142 15.25 11C15.25 10.5858 15.5858 10.25 16 10.25Z" fill="currentColor"/>
</svg>
