<svg viewBox="0 0 24 24" fill="currentColor" xmlns="http://www.w3.org/2000/svg">
<path d="M6.13239 2H11.25V6.25H2.45001L4.4174 2.97101C4.77885 2.3686 5.42986 2 6.13239 2Z" fill="currentColor"/>
<path d="M12.75 2V6.25H21.55L19.5826 2.97101C19.2212 2.3686 18.5701 2 17.8676 2H12.75Z" fill="currentColor"/>
<path d="M13.2411 15.5715H15.5579V12.1745H15.5278C14.4948 13.5642 13.8278 14.514 13.2411 15.5341V15.5715Z" fill="currentColor"/>
<path d="M2 7.75V20C2 21.1046 2.89543 22 4 22H20C21.1046 22 22 21.1046 22 20V7.75H2ZM10.7188 17.9017H6.71208C6.23569 17.9017 6 17.6537 6 17.2981C6 17.0314 6.11032 16.8536 6.41621 16.5916L8.5725 14.6684C9.46511 13.8683 9.69578 13.5408 9.69578 13.0541C9.69578 12.4973 9.23443 12.0996 8.58755 12.0996C8.00585 12.0996 7.60468 12.371 7.34392 12.9138C7.17342 13.1945 6.99791 13.3255 6.67196 13.3255C6.26578 13.3255 6.02507 13.1009 6.02507 12.75C6.02507 12.6424 6.04513 12.5441 6.08023 12.4459C6.32595 11.6972 7.2336 11 8.60259 11C10.1371 11 11.1701 11.8048 11.1701 12.9652C11.1701 13.7888 10.7388 14.3035 9.55537 15.3469L7.99081 16.7507V16.7787H10.7188C11.1099 16.7787 11.3456 16.9987 11.3456 17.3402C11.3456 17.6725 11.1099 17.9017 10.7188 17.9017ZM16.967 17.3122C16.967 17.7614 16.6611 18 16.2449 18C15.8287 18 15.5278 17.7614 15.5278 17.3122V16.6618H12.8299C12.2833 16.6618 11.9173 16.3436 11.9173 15.871C11.9173 15.5809 12.0075 15.3189 12.2332 14.9492C12.7296 14.1163 13.4517 13.0869 14.239 11.9967C14.7405 11.2807 15.1066 11.0468 15.7183 11.0468C16.4856 11.0468 16.967 11.4352 16.967 12.0668V15.5341H17.3782C17.7794 15.5341 18 15.768 18 16.1003C18 16.4325 17.7743 16.6618 17.3782 16.6618H16.967V17.3122Z" fill="currentColor"/>
</svg>
