<svg viewBox="0 0 24 24" fill="currentColor" xmlns="http://www.w3.org/2000/svg">
<path d="M11.25 2H6.13239C5.42986 2 4.77885 2.3686 4.4174 2.97101L2.45001 6.25H11.25V2Z" fill="currentColor"/>
<path d="M12.75 6.25V2H17.8676C18.5701 2 19.2212 2.3686 19.5826 2.97101L21.55 6.25H12.75Z" fill="currentColor"/>
<path d="M2 7.75V20C2 21.1046 2.89543 22 4 22H20C21.1046 22 22 21.1046 22 20V7.75H2ZM8.25 13C8.25 12.5858 8.58579 12.25 9 12.25H15C15.4142 12.25 15.75 12.5858 15.75 13C15.75 13.4142 15.4142 13.75 15 13.75H9C8.58579 13.75 8.25 13.4142 8.25 13ZM7 16.25H17C17.4142 16.25 17.75 16.5858 17.75 17C17.75 17.4142 17.4142 17.75 17 17.75H7C6.58579 17.75 6.25 17.4142 6.25 17C6.25 16.5858 6.58579 16.25 7 16.25Z" fill="currentColor"/>
</svg>
