<svg viewBox="0 0 24 24" fill="currentColor" xmlns="http://www.w3.org/2000/svg">
<path d="M11.25 2H6.13239C5.42986 2 4.77885 2.3686 4.4174 2.97101L2.45001 6.25H11.25V2Z" fill="currentColor"/>
<path d="M12.75 6.25V2H17.8676C18.5701 2 19.2212 2.3686 19.5826 2.97101L21.55 6.25H12.75Z" fill="currentColor"/>
<path d="M11 11.4595C10.8619 11.4595 10.75 11.5684 10.75 11.7027V13.1622H13.25V11.7027C13.25 11.5684 13.1381 11.4595 13 11.4595H11Z" fill="currentColor"/>
<path d="M2 7.75V20C2 21.1046 2.89543 22 4 22H20C21.1046 22 22 21.1046 22 20V7.75H2ZM9.25 11.7027C9.25 10.7623 10.0335 10 11 10H13C13.9665 10 14.75 10.7623 14.75 11.7027V13.1622H15C15.5523 13.1622 16 13.5978 16 14.1351V18.027C16 18.5644 15.5523 19 15 19H9C8.44772 19 8 18.5644 8 18.027V14.1351C8 13.5978 8.44772 13.1622 9 13.1622H9.25V11.7027Z" fill="currentColor"/>
</svg>
