<svg viewBox="0 0 24 24" fill="currentColor" xmlns="http://www.w3.org/2000/svg">
<path d="M6.13239 2H11.25V6.25H2.45001L4.4174 2.97101C4.77885 2.3686 5.42986 2 6.13239 2Z" fill="currentColor"/>
<path d="M12.75 2V6.25H21.55L19.5826 2.97101C19.2212 2.3686 18.5701 2 17.8676 2H12.75Z" fill="currentColor"/>
<path d="M2 7.75H22V20C22 21.1046 21.1046 22 20 22H4C2.89543 22 2 21.1046 2 20V7.75ZM15.5303 12.5303C15.8232 12.2374 15.8232 11.7626 15.5303 11.4697C15.2374 11.1768 14.7626 11.1768 14.4697 11.4697L12 13.9393L9.53033 11.4697C9.23744 11.1768 8.76256 11.1768 8.46967 11.4697C8.17678 11.7626 8.17678 12.2374 8.46967 12.5303L10.9393 15L8.46967 17.4697C8.17678 17.7626 8.17678 18.2374 8.46967 18.5303C8.76256 18.8232 9.23744 18.8232 9.53033 18.5303L12 16.0607L14.4697 18.5303C14.7626 18.8232 15.2374 18.8232 15.5303 18.5303C15.8232 18.2374 15.8232 17.7626 15.5303 17.4697L13.0607 15L15.5303 12.5303Z" fill="currentColor"/>
</svg>
