<svg viewBox="0 0 24 24" fill="currentColor" xmlns="http://www.w3.org/2000/svg">
<path d="M6.13239 2H11.25V6.25H2.45001L4.4174 2.97101C4.77885 2.3686 5.42986 2 6.13239 2Z" fill="currentColor"/>
<path d="M12.75 2V6.25H21.55L19.5826 2.97101C19.2212 2.3686 18.5701 2 17.8676 2H12.75Z" fill="currentColor"/>
<path d="M2 7.75H22V20C22 21.1046 21.1046 22 20 22H4C2.89543 22 2 21.1046 2 20V7.75ZM11.5754 19.7922C11.701 19.9307 11.8599 20 12.052 20C12.2441 20 12.3992 19.9307 12.5174 19.7922C12.643 19.6614 12.7058 19.4998 12.7058 19.3074V18.5801C13.1124 18.5078 13.4745 18.3809 13.7919 18.1994C14.1687 17.9839 14.4642 17.703 14.6785 17.3568C14.8928 17.0028 14.9999 16.5988 14.9999 16.1448C14.9999 15.5677 14.83 15.0983 14.4901 14.7366C14.1576 14.375 13.6405 14.1133 12.9386 13.9517L11.7084 13.6747C11.3464 13.5901 11.0915 13.4823 10.9437 13.3515C10.8034 13.2207 10.7332 13.0476 10.7332 12.8321C10.7332 12.5397 10.8514 12.3012 11.0878 12.1165C11.3316 11.9318 11.6715 11.8395 12.1074 11.8395C12.4546 11.8395 12.7465 11.8741 12.9829 11.9433C13.2193 12.0126 13.4373 12.0972 13.6368 12.1973C13.8289 12.2973 13.9951 12.3358 14.1355 12.3127C14.2832 12.2819 14.4014 12.2165 14.4901 12.1165C14.5788 12.0087 14.6342 11.8856 14.6563 11.7471C14.6859 11.6086 14.6711 11.4701 14.612 11.3316C14.5603 11.1931 14.4642 11.0777 14.3239 10.9853C14.0653 10.7929 13.7587 10.6467 13.404 10.5467C13.1604 10.4711 12.9277 10.4182 12.7058 10.3881V9.69255C12.7058 9.50018 12.643 9.33858 12.5174 9.20776C12.3918 9.06925 12.2367 9 12.052 9C11.8599 9 11.701 9.06925 11.5754 9.20776C11.4498 9.33858 11.387 9.50018 11.387 9.69255V10.4187C10.9766 10.4827 10.6109 10.6061 10.2899 10.7891C9.9057 11.0122 9.60278 11.3047 9.38113 11.6663C9.16687 12.028 9.05974 12.4397 9.05974 12.9014C9.05974 13.4939 9.22598 13.9787 9.55845 14.3557C9.89092 14.7251 10.397 14.9867 11.0767 15.1406L12.2958 15.4176C12.547 15.4715 12.7465 15.5407 12.8942 15.6254C13.0494 15.7023 13.1565 15.7947 13.2156 15.9024C13.2821 16.0101 13.3154 16.1333 13.3154 16.2718C13.3154 16.4411 13.2674 16.5911 13.1713 16.7219C13.0826 16.8527 12.9349 16.9605 12.728 17.0451C12.5211 17.1221 12.2478 17.1605 11.9079 17.1605C11.4498 17.1605 11.062 17.1105 10.7443 17.0105C10.4266 16.9028 10.1791 16.7989 10.0017 16.6988C9.81704 16.5988 9.6508 16.568 9.50304 16.6065C9.36266 16.645 9.24814 16.7258 9.15948 16.8489C9.07082 16.9643 9.01911 17.1028 9.00433 17.2644C8.98955 17.4183 9.01172 17.5684 9.07082 17.7146C9.13732 17.8608 9.25184 17.9762 9.41438 18.0609C9.66558 18.1994 9.97958 18.3263 10.3564 18.4418C10.6575 18.534 11.001 18.5943 11.387 18.6227V19.3074C11.387 19.4998 11.4498 19.6614 11.5754 19.7922Z" fill="currentColor"/>
</svg>
