<svg viewBox="0 0 24 24" fill="currentColor" xmlns="http://www.w3.org/2000/svg">
<path d="M11.25 2H6.13239C5.42986 2 4.77885 2.3686 4.4174 2.97101L2.45001 6.25H11.25V2Z" fill="currentColor"/>
<path d="M12.75 6.25V2H17.8676C18.5701 2 19.2212 2.3686 19.5826 2.97101L21.55 6.25H12.75Z" fill="currentColor"/>
<path d="M2 7.75V20C2 21.1046 2.89543 22 4 22H20C21.1046 22 22 21.1046 22 20V7.75H2ZM12 10.25C12.4142 10.25 12.75 10.5858 12.75 11V16.1893L14.4697 14.4697C14.7626 14.1768 15.2374 14.1768 15.5303 14.4697C15.8232 14.7626 15.8232 15.2374 15.5303 15.5303L12.5303 18.5303C12.2374 18.8232 11.7626 18.8232 11.4697 18.5303L8.46967 15.5303C8.17678 15.2374 8.17678 14.7626 8.46967 14.4697C8.76256 14.1768 9.23744 14.1768 9.53033 14.4697L11.25 16.1893V11C11.25 10.5858 11.5858 10.25 12 10.25Z" fill="currentColor"/>
</svg>
