<svg viewBox="0 0 24 24" fill="currentColor" xmlns="http://www.w3.org/2000/svg">
<path d="M6.25 12H4C2.89543 12 2 12.8954 2 14V20C2 21.1046 2.89543 22 4 22H10C11.1046 22 12 21.1046 12 20V14C12 12.8954 11.1046 12 10 12H7.75V14C7.75 14.4142 7.41421 14.75 7 14.75C6.58579 14.75 6.25 14.4142 6.25 14V12ZM3.75 19.5C3.75 19.0858 4.08579 18.75 4.5 18.75H6.5C6.91421 18.75 7.25 19.0858 7.25 19.5C7.25 19.9142 6.91421 20.25 6.5 20.25H4.5C4.08579 20.25 3.75 19.9142 3.75 19.5Z" fill="currentColor"/>
<path d="M14 12H16.25V14C16.25 14.4142 16.5858 14.75 17 14.75C17.4142 14.75 17.75 14.4142 17.75 14V12H20C21.1046 12 22 12.8954 22 14V20C22 21.1046 21.1046 22 20 22H14C12.8954 22 12 21.1046 12 20V14C12 12.8954 12.8954 12 14 12ZM14.5 18.75C14.0858 18.75 13.75 19.0858 13.75 19.5C13.75 19.9142 14.0858 20.25 14.5 20.25H16.5C16.9142 20.25 17.25 19.9142 17.25 19.5C17.25 19.0858 16.9142 18.75 16.5 18.75H14.5Z" fill="currentColor"/>
<path d="M4 2H6.25V4C6.25 4.41421 6.58579 4.75 7 4.75C7.41421 4.75 7.75 4.41421 7.75 4V2H10C11.1046 2 12 2.89543 12 4V10C12 11.1046 11.1046 12 10 12H4C2.89543 12 2 11.1046 2 10V4C2 2.89543 2.89543 2 4 2ZM4.5 8.75C4.08579 8.75 3.75 9.08579 3.75 9.5C3.75 9.91421 4.08579 10.25 4.5 10.25H6.5C6.91421 10.25 7.25 9.91421 7.25 9.5C7.25 9.08579 6.91421 8.75 6.5 8.75H4.5Z" fill="currentColor"/>
</svg>
