<svg viewBox="0 0 24 24" fill="currentColor" xmlns="http://www.w3.org/2000/svg">
<path d="M7 3C7 2.44772 7.44772 2 8 2H16C16.5523 2 17 2.44772 17 3V10C17 10.5523 16.5523 11 16 11H8C7.44772 11 7 10.5523 7 10V3ZM8.25 8C8.25 8.41421 8.58579 8.75 9 8.75H12C12.4142 8.75 12.75 8.41421 12.75 8C12.75 7.58579 12.4142 7.25 12 7.25H9C8.58579 7.25 8.25 7.58579 8.25 8ZM9 4.25C8.58579 4.25 8.25 4.58579 8.25 5C8.25 5.41421 8.58579 5.75 9 5.75H12C12.4142 5.75 12.75 5.41421 12.75 5C12.75 4.58579 12.4142 4.25 12 4.25H9ZM13.25 8C13.25 8.41421 13.5858 8.75 14 8.75H15C15.4142 8.75 15.75 8.41421 15.75 8C15.75 7.58579 15.4142 7.25 15 7.25H14C13.5858 7.25 13.25 7.58579 13.25 8ZM14 4.25C13.5858 4.25 13.25 4.58579 13.25 5C13.25 5.41421 13.5858 5.75 14 5.75H15C15.4142 5.75 15.75 5.41421 15.75 5C15.75 4.58579 15.4142 4.25 15 4.25H14Z" fill="currentColor"/>
<path d="M7 6H6C4.89543 6 4 6.89543 4 8V20C4 21.1046 4.89543 22 6 22H18C19.1046 22 20 21.1046 20 20V8C20 6.89543 19.1046 6 18 6H17V8C17.5523 8 18 8.44771 18 9V11C18 11.5523 17.5523 12 17 12H7C6.44771 12 6 11.5523 6 11V9C6 8.44771 6.44772 8 7 8V6ZM8 15C7.44772 15 7 14.5523 7 14C7 13.4477 7.44772 13 8 13C8.55229 13 9 13.4477 9 14C9 14.5523 8.55229 15 8 15ZM8 19C7.44772 19 7 18.5523 7 18C7 17.4477 7.44772 17 8 17C8.55229 17 9 17.4477 9 18C9 18.5523 8.55229 19 8 19ZM13 14C13 14.5523 12.5523 15 12 15C11.4477 15 11 14.5523 11 14C11 13.4477 11.4477 13 12 13C12.5523 13 13 13.4477 13 14ZM12 19C11.4477 19 11 18.5523 11 18C11 17.4477 11.4477 17 12 17C12.5523 17 13 17.4477 13 18C13 18.5523 12.5523 19 12 19ZM17 14C17 14.5523 16.5523 15 16 15C15.4477 15 15 14.5523 15 14C15 13.4477 15.4477 13 16 13C16.5523 13 17 13.4477 17 14ZM16 19C15.4477 19 15 18.5523 15 18C15 17.4477 15.4477 17 16 17C16.5523 17 17 17.4477 17 18C17 18.5523 16.5523 19 16 19Z" fill="currentColor"/>
</svg>
