<svg viewBox="0 0 24 24" fill="currentColor" xmlns="http://www.w3.org/2000/svg">
<path d="M2 4C2 3.44772 2.44772 3 3 3H6C6.55228 3 7 3.44772 7 4V7C7 7.55228 6.55228 8 6 8H3C2.44772 8 2 7.55228 2 7V4Z" fill="currentColor"/>
<path d="M2 13.25C1.58579 13.25 1.25 13.5858 1.25 14C1.25 14.4142 1.58579 14.75 2 14.75H2.10714L2.32143 16.25H20.3929L21.4643 14.75H22C22.4142 14.75 22.75 14.4142 22.75 14C22.75 13.5858 22.4142 13.25 22 13.25H18.9685C18.9891 13.1701 19 13.0863 19 13V10C19 9.44771 18.5523 9 18 9H15C14.4477 9 14 9.44771 14 10V13C14 13.0863 14.0109 13.1701 14.0315 13.25H12.9685C12.9891 13.1701 13 13.0863 13 13V10C13 9.44771 12.5523 9 12 9H3C2.44772 9 2 9.44771 2 10V13C2 13.0863 2.01094 13.1701 2.0315 13.25H2Z" fill="currentColor"/>
<path d="M2.53571 17.75H19.3214L18.1965 19.325C17.4456 20.3761 16.2333 21 14.9415 21H3.8673C3.36964 21 2.94772 20.6341 2.87735 20.1414L2.53571 17.75Z" fill="currentColor"/>
<path d="M9 3C8.44771 3 8 3.44772 8 4V7C8 7.55228 8.44771 8 9 8H12C12.5523 8 13 7.55228 13 7V4C13 3.44772 12.5523 3 12 3H9Z" fill="currentColor"/>
</svg>
