<svg viewBox="0 0 24 24" fill="currentColor" xmlns="http://www.w3.org/2000/svg">
<path d="M17.111 21.326C14.6039 22.1703 11.9057 22.2214 9.37549 21.4792C9.45629 21.2309 9.5 20.9655 9.5 20.6899V15.6386C9.5 15.3875 9.46373 15.1449 9.39619 14.916C11.2132 14.4113 13.1183 14.3115 14.9795 14.6249L15.549 14.7207C16.317 14.8501 16.8929 15.3965 17.1179 16.0748L14.7437 16.947C14.3544 17.09 14.1536 17.5248 14.2952 17.918C14.4367 18.3113 14.867 18.5142 15.2563 18.3712L17.6228 17.5018L19.9824 16.9058C21.0073 16.647 22 17.4301 22 18.4973C22 19.2034 21.5528 19.8302 20.8897 20.0535L17.111 21.326Z" fill="currentColor"/>
<path d="M3 14.6283C2.44772 14.6283 2 15.0806 2 15.6386V20.6899C2 21.2478 2.44772 21.7002 3 21.7002H7C7.55228 21.7002 8 21.2478 8 20.6899V15.6386C8 15.0806 7.55228 14.6283 7 14.6283H3Z" fill="currentColor"/>
<path d="M15 12.1026C12.2386 12.1026 10 9.84109 10 7.05132C10 4.26155 12.2386 2 15 2C17.7614 2 20 4.26155 20 7.05132C20 9.84109 17.7614 12.1026 15 12.1026ZM14.6477 10.4388C14.7436 10.5378 14.861 10.5872 15 10.5872C15.1486 10.5872 15.2684 10.5378 15.3595 10.4388C15.4554 10.3399 15.5033 10.2162 15.5033 10.0678V9.66183C15.7612 9.61086 15.9913 9.52604 16.1935 9.40737C16.4428 9.2639 16.6369 9.07839 16.7759 8.85082C16.9149 8.62326 16.9844 8.36106 16.9844 8.06424C16.9844 7.68331 16.8742 7.37412 16.6537 7.13666C16.438 6.89425 16.1025 6.72111 15.6471 6.61722L14.8274 6.4317C14.6165 6.38223 14.4703 6.32534 14.3889 6.26103C14.3122 6.19177 14.2738 6.10767 14.2738 6.00873C14.2738 5.86031 14.3409 5.73911 14.4751 5.64512C14.6141 5.55112 14.8107 5.50412 15.0647 5.50412C15.2756 5.50412 15.4482 5.52144 15.5824 5.55607C15.7214 5.58575 15.846 5.62533 15.9563 5.6748C16.1049 5.73911 16.2319 5.7589 16.3373 5.73416C16.4476 5.70448 16.5339 5.64759 16.5962 5.56349C16.6633 5.47939 16.7016 5.38539 16.7112 5.2815C16.7256 5.17267 16.7088 5.06631 16.6609 4.96242C16.6177 4.85853 16.541 4.7769 16.4308 4.71754C16.2726 4.6186 16.0881 4.54192 15.8772 4.4875C15.7471 4.45088 15.6224 4.42461 15.5033 4.4087V4.03484C15.5033 3.88643 15.4554 3.76275 15.3595 3.66381C15.2636 3.56487 15.1438 3.5154 15 3.5154C14.861 3.5154 14.7436 3.56487 14.6477 3.66381C14.5518 3.76275 14.5039 3.88643 14.5039 4.03484V4.43877C14.2472 4.48818 14.0171 4.57121 13.8137 4.68786C13.5596 4.83627 13.3607 5.0292 13.2169 5.26666C13.0779 5.49918 13.0084 5.76385 13.0084 6.06067C13.0084 6.45149 13.1162 6.77058 13.3319 7.01793C13.5524 7.26034 13.8856 7.43348 14.3313 7.53737L15.1438 7.71547C15.2876 7.7501 15.4002 7.78967 15.4817 7.8342C15.5632 7.87377 15.6207 7.92077 15.6543 7.97519C15.6926 8.02466 15.7118 8.0865 15.7118 8.16071C15.7118 8.23986 15.6854 8.31406 15.6327 8.38332C15.5848 8.44764 15.5009 8.49958 15.3811 8.53916C15.266 8.57873 15.1078 8.59852 14.9065 8.59852C14.6189 8.59852 14.3769 8.57131 14.1803 8.51689C13.9886 8.45753 13.8448 8.40064 13.749 8.34622C13.6052 8.28191 13.4781 8.26707 13.3679 8.3017C13.2624 8.33138 13.1762 8.39322 13.109 8.48721C13.0419 8.58121 13.0012 8.6851 12.9868 8.79888C12.9772 8.91266 12.9964 9.02397 13.0443 9.13281C13.0971 9.24164 13.1857 9.32574 13.3104 9.38511C13.459 9.45437 13.6507 9.52363 13.8856 9.59288C14.0662 9.64614 14.2723 9.68331 14.5039 9.70439V10.0678C14.5039 10.2162 14.5518 10.3399 14.6477 10.4388Z" fill="currentColor"/>
</svg>
