<svg viewBox="0 0 24 24" fill="currentColor" xmlns="http://www.w3.org/2000/svg">
<path d="M5.5 12.0769C7.433 12.0769 9 11.3881 9 10.5385C9 9.68879 7.433 9 5.5 9C3.567 9 2 9.68879 2 10.5385C2 11.3881 3.567 12.0769 5.5 12.0769Z" fill="currentColor"/>
<path d="M8.36483 12.6976C7.57921 13.043 6.56588 13.2308 5.5 13.2308C4.43412 13.2308 3.42079 13.043 2.63517 12.6976C2.41782 12.6021 2.20169 12.4874 2 12.3496V14.6338C2.15764 14.7939 2.40668 14.9717 2.74498 15.1384C3.43274 15.4773 4.4089 15.7308 5.5 15.7308C6.5911 15.7308 7.56726 15.4773 8.25502 15.1384C8.59332 14.9717 8.84236 14.7939 9 14.6338V12.3496C8.79831 12.4874 8.58218 12.6021 8.36483 12.6976Z" fill="currentColor"/>
<path d="M9 16.0217C8.89899 16.0809 8.79363 16.1375 8.68468 16.1912C7.85234 16.6014 6.7285 16.8846 5.5 16.8846C4.2715 16.8846 3.14766 16.6014 2.31532 16.1912C2.20637 16.1375 2.10101 16.0809 2 16.0217V17.4615C2 18.3112 3.567 19 5.5 19C7.433 19 9 18.3112 9 17.4615V16.0217Z" fill="currentColor"/>
<path d="M16.5 9.30769C19.5376 9.30769 22 8.34338 22 7.15385C22 5.96431 19.5376 5 16.5 5C13.4624 5 11 5.96431 11 7.15385C11 8.34338 13.4624 9.30769 16.5 9.30769Z" fill="currentColor"/>
<path d="M21.0019 10.1767C19.7673 10.6602 18.175 10.9231 16.5 10.9231C14.825 10.9231 13.2327 10.6602 11.9981 10.1767C11.6566 10.0429 11.3169 9.88238 11 9.68945V12.8874C11.2477 13.1114 11.6391 13.3603 12.1707 13.5937C13.2515 14.0682 14.7854 14.4231 16.5 14.4231C18.2146 14.4231 19.7485 14.0682 20.8293 13.5937C21.3609 13.3603 21.7523 13.1114 22 12.8874V9.68945C21.6831 9.88238 21.3434 10.0429 21.0019 10.1767Z" fill="currentColor"/>
<path d="M22 14.8304C21.8413 14.9133 21.6757 14.9925 21.5045 15.0677C20.1965 15.6419 18.4305 16.0385 16.5 16.0385C14.5695 16.0385 12.8035 15.6419 11.4955 15.0677C11.3243 14.9925 11.1587 14.9133 11 14.8304V16.8462C11 18.0357 13.4624 19 16.5 19C19.5376 19 22 18.0357 22 16.8462V14.8304Z" fill="currentColor"/>
</svg>
