<svg viewBox="0 0 24 24" fill="currentColor" xmlns="http://www.w3.org/2000/svg">
<path d="M7.25 3.5C7.25 2.5335 8.0335 1.75 9 1.75H15C15.9665 1.75 16.75 2.5335 16.75 3.5V5.5C16.75 6.4665 15.9665 7.25 15 7.25H12.75V7.75H16.5C17.5018 7.75 18.1544 8.19446 18.5394 8.67236C18.7234 8.9007 18.8393 9.12682 18.9099 9.29636C18.9456 9.38192 18.9707 9.45553 18.9878 9.5113C18.9963 9.53927 19.0029 9.56301 19.0078 9.58179L19.014 9.60628L20.6105 15.8594C21.276 16.1072 21.75 16.7482 21.75 17.5V20.5C21.75 21.4665 20.9665 22.25 20 22.25H4C3.0335 22.25 2.25 21.4665 2.25 20.5V17.5C2.25 16.7482 2.72403 16.1072 3.38949 15.8594L4.98595 9.60662L4.99219 9.58179C4.9971 9.56301 5.00368 9.53927 5.01223 9.5113C5.02927 9.45553 5.05441 9.38192 5.09006 9.29636C5.1607 9.12682 5.27664 8.9007 5.46058 8.67236C5.84555 8.19446 6.49824 7.75 7.5 7.75H11.25V7.25H9C8.0335 7.25 7.25 6.4665 7.25 5.5V3.5ZM15.25 5.5V3.5C15.25 3.36193 15.1381 3.25 15 3.25H9C8.86193 3.25 8.75 3.36193 8.75 3.5V5.5C8.75 5.63807 8.86193 5.75 9 5.75H15C15.1381 5.75 15.25 5.63807 15.25 5.5ZM3.75 17.5V20.5C3.75 20.6381 3.86193 20.75 4 20.75H20C20.1381 20.75 20.25 20.6381 20.25 20.5V17.5C20.25 17.3619 20.1381 17.25 20 17.25H4C3.86193 17.25 3.75 17.3619 3.75 17.5ZM10.75 14.5C11.1642 14.5 11.5 14.1642 11.5 13.75C11.5 13.3358 11.1642 13 10.75 13C10.3358 13 10 13.3358 10 13.75C10 14.1642 10.3358 14.5 10.75 14.5ZM8.5 13.75C8.5 13.3358 8.16421 13 7.75 13C7.33579 13 7 13.3358 7 13.75C7 14.1642 7.33579 14.5 7.75 14.5C8.16421 14.5 8.5 14.1642 8.5 13.75ZM7.75 11.5C8.16421 11.5 8.5 11.1642 8.5 10.75C8.5 10.3358 8.16421 10 7.75 10C7.33579 10 7 10.3358 7 10.75C7 11.1642 7.33579 11.5 7.75 11.5ZM11.5 10.75C11.5 10.3358 11.1642 10 10.75 10C10.3358 10 10 10.3358 10 10.75C10 11.1642 10.3358 11.5 10.75 11.5C11.1642 11.5 11.5 11.1642 11.5 10.75ZM13.25 10.75C13.25 11.1642 13.5858 11.5 14 11.5H16C16.4142 11.5 16.75 11.1642 16.75 10.75C16.75 10.3358 16.4142 10 16 10H14C13.5858 10 13.25 10.3358 13.25 10.75Z" fill="currentColor"/>
</svg>
