<svg viewBox="0 0 24 24" fill="currentColor" xmlns="http://www.w3.org/2000/svg">
<path d="M1.25 11.5C1.25 11.0858 1.58579 10.75 2 10.75H7C7.41421 10.75 7.75 11.0858 7.75 11.5C7.75 11.9142 7.41421 12.25 7 12.25H2C1.58579 12.25 1.25 11.9142 1.25 11.5Z" fill="currentColor"/>
<path d="M3 8C3 7.58579 3.33579 7.25 3.75 7.25H8.25C8.66421 7.25 9 7.58579 9 8C9 8.41421 8.66421 8.75 8.25 8.75H3.75C3.33579 8.75 3 8.41421 3 8Z" fill="currentColor"/>
<path d="M4 4C2.89543 4 2 4.89543 2 6V6.58567C2.41249 6.07592 3.04318 5.75 3.75 5.75H8.25C9.49264 5.75 10.5 6.75736 10.5 8C10.5 9.04563 9.78674 9.92467 8.82022 10.1771C9.09053 10.5484 9.25 11.0056 9.25 11.5C9.25 12.7426 8.24264 13.75 7 13.75H2V16C2 16.9321 2.63766 17.7153 3.50056 17.9371C3.53409 16.0331 5.088 14.5 7 14.5C8.933 14.5 10.5 16.067 10.5 18H13.5C13.5 16.067 15.067 14.5 17 14.5C18.912 14.5 20.4659 16.0331 20.4994 17.9371C21.3623 17.7153 22 16.9321 22 16V12.75H15V11.25H21.4L18.6005 7.75061C18.2209 7.27618 17.6463 7 17.0387 7H15V6C15 4.89543 14.1046 4 13 4H4Z" fill="currentColor"/>
<path d="M9 18C9 19.1046 8.10457 20 7 20C5.89543 20 5 19.1046 5 18C5 16.8954 5.89543 16 7 16C8.10457 16 9 16.8954 9 18Z" fill="currentColor"/>
<path d="M19 18C19 19.1046 18.1046 20 17 20C15.8954 20 15 19.1046 15 18C15 16.8954 15.8954 16 17 16C18.1046 16 19 16.8954 19 18Z" fill="currentColor"/>
</svg>
