<svg viewBox="0 0 24 24" fill="currentColor" xmlns="http://www.w3.org/2000/svg">
<path d="M2 6C2 4.89543 2.89543 4 4 4H13C14.1046 4 15 4.89543 15 6V7H17.0387C17.6463 7 18.2209 7.27618 18.6005 7.75061L21.4 11.25H15V12.75H22V16C22 16.9321 21.3623 17.7153 20.4994 17.9371C20.4659 16.0331 18.912 14.5 17 14.5C15.067 14.5 13.5 16.067 13.5 18H10.5C10.5 16.067 8.933 14.5 7 14.5C5.088 14.5 3.53409 16.0331 3.50056 17.9371C2.63766 17.7153 2 16.9321 2 16V6ZM4.25 8C4.25 8.41421 4.58579 8.75 5 8.75H12C12.4142 8.75 12.75 8.41421 12.75 8C12.75 7.58579 12.4142 7.25 12 7.25H5C4.58579 7.25 4.25 7.58579 4.25 8ZM5 11.25C4.58579 11.25 4.25 11.5858 4.25 12C4.25 12.4142 4.58579 12.75 5 12.75H12C12.4142 12.75 12.75 12.4142 12.75 12C12.75 11.5858 12.4142 11.25 12 11.25H5Z" fill="currentColor"/>
<path d="M7 20C8.10457 20 9 19.1046 9 18C9 16.8954 8.10457 16 7 16C5.89543 16 5 16.8954 5 18C5 19.1046 5.89543 20 7 20Z" fill="currentColor"/>
<path d="M17 20C18.1046 20 19 19.1046 19 18C19 16.8954 18.1046 16 17 16C15.8954 16 15 16.8954 15 18C15 19.1046 15.8954 20 17 20Z" fill="currentColor"/>
</svg>
