<svg viewBox="0 0 24 24" fill="currentColor" xmlns="http://www.w3.org/2000/svg">
<path d="M7.16299 12.2511V9.93829H11.326V12.2511H7.16299ZM12.7136 12.2511V9.93829H16.8766V12.2511H12.7136Z" fill="currentColor"/>
<path d="M12.5753 3.1419L19.6812 6.30006C19.6938 6.30485 19.7087 6.3107 19.7256 6.3177C19.7673 6.33494 19.8219 6.35939 19.885 6.39219C20.01 6.45712 20.1763 6.5587 20.3443 6.70814C20.6904 7.01601 21.0396 7.52781 21.0396 8.27978V19.3811V19.384V19.3872L21.0395 19.3949L21.039 19.4146C21.0385 19.4295 21.0376 19.4483 21.036 19.4702C21.0329 19.514 21.027 19.5719 21.0157 19.6397C20.9937 19.7718 20.9483 19.9587 20.8507 20.1539C20.7517 20.3519 20.5924 20.5709 20.3403 20.7389C20.084 20.9098 19.7733 21 19.4206 21H4.61894C4.26625 21 3.95561 20.9098 3.69924 20.7389C3.44722 20.5709 3.28786 20.3519 3.18889 20.1539C3.09127 19.9587 3.04592 19.7718 3.0239 19.6397C3.01261 19.5719 3.00669 19.514 3.00357 19.4702C3.002 19.4483 3.00111 19.4295 3.00061 19.4146L3.00012 19.3949L3.00003 19.3872L3.00001 19.384L3 19.3825V8.27978C3 7.52781 3.34913 7.01601 3.69527 6.70814C3.86329 6.5587 4.02956 6.45712 4.15456 6.39219C4.21771 6.35939 4.27226 6.33494 4.31393 6.3177C4.33083 6.3107 4.34573 6.30485 4.35836 6.30006L11.4644 3.14182C11.6104 3.06958 11.7987 2.99907 12.0247 3.00001C12.2496 3.00094 12.4352 3.07245 12.5753 3.1419ZM6.46915 8.55064C6.08596 8.55064 5.77532 8.86128 5.77532 9.24447V12.9449C5.77532 13.3281 6.08596 13.6387 6.46915 13.6387H17.5704C17.9536 13.6387 18.2643 13.3281 18.2643 12.9449V9.24447C18.2643 8.86128 17.9536 8.55064 17.5704 8.55064H6.46915ZM5.77532 17.0941V19.6397L18.2643 19.6382V17.0703C18.2643 16.6871 17.9536 16.3765 17.5704 16.3765L6.46915 16.4003C6.08596 16.4003 5.77532 16.7109 5.77532 17.0941Z" fill="currentColor"/>
</svg>
