<svg viewBox="0 0 24 24" fill="currentColor" xmlns="http://www.w3.org/2000/svg">
<path d="M21.2638 7.73505L21.975 11.8148C22.1526 12.8338 21.3627 13.7658 20.3214 13.7658H15.0988C14.5811 13.7658 14.187 14.2267 14.2708 14.734L14.9387 18.7786C15.0473 19.4357 15.0163 20.108 14.8478 20.7525C14.7081 21.2864 14.2929 21.715 13.7469 21.8891L13.6007 21.9356C13.2707 22.0408 12.9105 22.0163 12.5994 21.8676C12.2569 21.7039 12.0063 21.4053 11.9135 21.0501L11.434 19.2163C11.2814 18.6328 11.0591 18.0695 10.7726 17.5374C10.3539 16.7598 9.70656 16.1375 9.03367 15.5623L7.58339 14.3225C7.17448 13.9729 6.95973 13.4494 7.00626 12.9156V4C7.00626 2.89543 7.90169 2 9.00626 2H14.1827C17.692 2 20.6868 4.42561 21.2638 7.73505Z" fill="currentColor"/>
<path d="M6.12797 2.00811C6.08607 2.00276 6.04336 2 6 2H3C2.44772 2 2 2.44772 2 3V13C2 13.5523 2.44772 14 3 14H5.64344C5.52988 13.6364 5.48164 13.2508 5.50626 12.8608V4C5.50626 3.25992 5.73597 2.57349 6.12797 2.00811Z" fill="currentColor"/>
</svg>
