<svg viewBox="0 0 24 24" fill="currentColor" xmlns="http://www.w3.org/2000/svg">
<path d="M11.25 4C11.25 2.48122 12.4812 1.25 14 1.25C14.788 1.25 15.4986 1.58145 16 2.11253C16.5014 1.58145 17.212 1.25 18 1.25C19.5188 1.25 20.75 2.48122 20.75 4C20.75 4.78801 20.4186 5.49862 19.8875 6H20C21.1046 6 22 6.89543 22 8V18C22 19.1046 21.1046 20 20 20H16.75V6.75H15.25V20H4C2.89543 20 2 19.1046 2 18V8C2 6.89543 2.89543 6 4 6H12.1125C11.5814 5.49862 11.25 4.78801 11.25 4ZM14 2.75C13.3096 2.75 12.75 3.30964 12.75 4C12.75 4.69036 13.3096 5.25 14 5.25H15.25V4C15.25 3.30964 14.6904 2.75 14 2.75ZM18 5.25C18.6904 5.25 19.25 4.69036 19.25 4C19.25 3.30964 18.6904 2.75 18 2.75C17.3096 2.75 16.75 3.30964 16.75 4V5.25H18ZM9.05225 18C9.24434 18 9.39949 17.937 9.51771 17.8111C9.64331 17.6922 9.70611 17.5453 9.70611 17.3704V16.7092C10.1127 16.6435 10.4747 16.5281 10.7922 16.3631C11.169 16.1672 11.4645 15.9119 11.6788 15.5971C11.893 15.2753 12.0002 14.908 12.0002 14.4953C12.0002 13.9706 11.8302 13.5439 11.4904 13.2151C11.1579 12.8863 10.6407 12.6485 9.93884 12.5016L8.70869 12.2497C8.34667 12.1728 8.09177 12.0749 7.94401 11.9559C7.80363 11.837 7.73344 11.6796 7.73344 11.4837C7.73344 11.2179 7.85166 11.001 8.08808 10.8332C8.33189 10.6653 8.67175 10.5813 9.10766 10.5813C9.45491 10.5813 9.74674 10.6128 9.98317 10.6758C10.2196 10.7387 10.4375 10.8157 10.637 10.9066C10.8291 10.9976 10.9954 11.0325 11.1357 11.0115C11.2835 10.9836 11.4017 10.9241 11.4904 10.8332C11.579 10.7352 11.6344 10.6233 11.6566 10.4974C11.6862 10.3715 11.6714 10.2455 11.6123 10.1196C11.5606 9.9937 11.4645 9.88877 11.3241 9.80483C11.0655 9.62994 10.7589 9.49703 10.4043 9.40609C10.1607 9.33737 9.92792 9.28932 9.70611 9.26193V8.62959C9.70611 8.4547 9.64331 8.3078 9.51771 8.18888C9.39211 8.06296 9.23695 8 9.05225 8C8.86015 8 8.7013 8.06296 8.5757 8.18888C8.4501 8.3078 8.3873 8.4547 8.3873 8.62959V9.2897C7.97689 9.34788 7.61117 9.46013 7.29015 9.62644C6.90596 9.82931 6.60304 10.0951 6.38139 10.4239C6.16713 10.7527 6.06 11.127 6.06 11.5467C6.06 12.0853 6.22624 12.5261 6.55871 12.8688C6.89118 13.2046 7.39728 13.4425 8.077 13.5824L9.29606 13.8342C9.54726 13.8832 9.74674 13.9461 9.89451 14.0231C10.0497 14.093 10.1568 14.177 10.2159 14.2749C10.2824 14.3729 10.3156 14.4848 10.3156 14.6107C10.3156 14.7646 10.2676 14.901 10.1716 15.0199C10.0829 15.1389 9.93514 15.2368 9.72827 15.3137C9.5214 15.3837 9.24803 15.4187 8.90818 15.4187C8.4501 15.4187 8.06222 15.3732 7.74453 15.2823C7.42683 15.1843 7.17932 15.0899 7.00201 14.999C6.8173 14.908 6.65106 14.88 6.5033 14.915C6.36292 14.95 6.2484 15.0234 6.15975 15.1354C6.07109 15.2403 6.01937 15.3662 6.00459 15.5131C5.98982 15.653 6.01198 15.7894 6.07109 15.9224C6.13758 16.0553 6.2521 16.1602 6.41464 16.2371C6.66584 16.3631 6.97984 16.4785 7.35664 16.5834C7.65774 16.6673 8.00129 16.7221 8.3873 16.7479V17.3704C8.3873 17.5453 8.4501 17.6922 8.5757 17.8111C8.7013 17.937 8.86015 18 9.05225 18Z" fill="currentColor"/>
</svg>
