<svg viewBox="0 0 24 24" fill="currentColor" xmlns="http://www.w3.org/2000/svg">
<path d="M2.75 12C2.75 6.88942 6.88942 2.75 12 2.75C17.1106 2.75 21.25 6.88941 21.25 12C21.25 17.1106 17.1106 21.25 12 21.25C11.5858 21.25 11.25 21.5858 11.25 22C11.25 22.4142 11.5858 22.75 12 22.75C17.939 22.75 22.75 17.939 22.75 12C22.75 6.06099 17.939 1.25 12 1.25C6.06099 1.25 1.25 6.06099 1.25 12C1.25 13.3045 1.45947 14.4843 1.77737 15.5481C1.85896 15.8211 2.0882 16.0243 2.36902 16.0725C2.64985 16.1207 2.93374 16.0057 3.10174 15.7755L5.93911 11.8886C6.18333 11.554 6.11009 11.0848 5.77553 10.8406C5.44097 10.5964 4.97178 10.6696 4.72756 11.0042L2.86481 13.556C2.79126 13.0602 2.75 12.5421 2.75 12Z" fill="currentColor"/>
<path d="M11.2536 18.484C11.4123 18.652 11.613 18.736 11.8556 18.736C12.0983 18.736 12.2943 18.652 12.4436 18.484C12.6023 18.3254 12.6816 18.1294 12.6816 17.896V17.0138C13.1953 16.9261 13.6526 16.7722 14.0536 16.552C14.5296 16.2907 14.903 15.95 15.1736 15.53C15.4443 15.1007 15.5796 14.6107 15.5796 14.06C15.5796 13.36 15.365 12.7907 14.9356 12.352C14.5156 11.9134 13.8623 11.596 12.9756 11.4L11.4216 11.064C10.9643 10.9614 10.6423 10.8307 10.4556 10.672C10.2783 10.5134 10.1896 10.3034 10.1896 10.042C10.1896 9.68738 10.339 9.39804 10.6376 9.17404C10.9456 8.95004 11.375 8.83804 11.9256 8.83804C12.3643 8.83804 12.733 8.88004 13.0316 8.96404C13.3303 9.04804 13.6056 9.15071 13.8576 9.27204C14.1003 9.39338 14.3103 9.44004 14.4876 9.41204C14.6743 9.37471 14.8236 9.29538 14.9356 9.17404C15.0476 9.04338 15.1176 8.89404 15.1456 8.72604C15.183 8.55804 15.1643 8.39004 15.0896 8.22204C15.0243 8.05404 14.903 7.91404 14.7256 7.80204C14.399 7.56871 14.0116 7.39138 13.5636 7.27004C13.2558 7.17836 12.9618 7.11425 12.6816 7.07771V6.23404C12.6816 6.00071 12.6023 5.80471 12.4436 5.64604C12.285 5.47804 12.089 5.39404 11.8556 5.39404C11.613 5.39404 11.4123 5.47804 11.2536 5.64604C11.095 5.80471 11.0156 6.00071 11.0156 6.23404V7.11476C10.4972 7.19238 10.0352 7.34214 9.62963 7.56404C9.1443 7.83471 8.76163 8.18938 8.48163 8.62804C8.21096 9.06671 8.07563 9.56604 8.07563 10.126C8.07563 10.8447 8.28563 11.4327 8.70563 11.89C9.12563 12.338 9.76496 12.6554 10.6236 12.842L12.1636 13.178C12.481 13.2434 12.733 13.3274 12.9196 13.43C13.1156 13.5234 13.251 13.6354 13.3256 13.766C13.4096 13.8967 13.4516 14.046 13.4516 14.214C13.4516 14.4194 13.391 14.6014 13.2696 14.76C13.1576 14.9187 12.971 15.0494 12.7096 15.152C12.4483 15.2454 12.103 15.292 11.6736 15.292C11.095 15.292 10.605 15.2314 10.2036 15.11C9.8023 14.9794 9.48963 14.8534 9.26563 14.732C9.0323 14.6107 8.8223 14.5734 8.63563 14.62C8.4583 14.6667 8.31363 14.7647 8.20163 14.914C8.08963 15.054 8.0243 15.222 8.00563 15.418C7.98696 15.6047 8.01496 15.7867 8.08963 15.964C8.17363 16.1414 8.3183 16.2814 8.52363 16.384C8.84096 16.552 9.23763 16.706 9.71363 16.846C10.094 16.9579 10.528 17.031 11.0156 17.0654V17.896C11.0156 18.1294 11.095 18.3254 11.2536 18.484Z" fill="currentColor"/>
</svg>
