<svg viewBox="0 0 24 24" fill="currentColor" xmlns="http://www.w3.org/2000/svg">
<path d="M16.5 9.30769C19.5376 9.30769 22 8.34338 22 7.15385C22 5.96431 19.5376 5 16.5 5C13.4624 5 11 5.96431 11 7.15385C11 8.34338 13.4624 9.30769 16.5 9.30769Z" fill="currentColor"/>
<path d="M21.0019 10.1767C19.7673 10.6602 18.175 10.9231 16.5 10.9231C14.8251 10.9231 13.2327 10.6602 11.9981 10.1767C11.6566 10.0429 11.3169 9.88238 11 9.68945V12.8874C11.2477 13.1114 11.6391 13.3603 12.1707 13.5937C13.2515 14.0682 14.7854 14.4231 16.5 14.4231C18.2146 14.4231 19.7486 14.0682 20.8293 13.5937C21.3609 13.3603 21.7523 13.1114 22 12.8874V9.68945C21.6831 9.88238 21.3434 10.0429 21.0019 10.1767Z" fill="currentColor"/>
<path d="M22 14.8304C21.8413 14.9133 21.6757 14.9925 21.5045 15.0677C20.1965 15.6419 18.4305 16.0385 16.5 16.0385C14.5695 16.0385 12.8035 15.6419 11.4955 15.0677C11.3243 14.9925 11.1587 14.9133 11 14.8304V16.8462C11 18.0357 13.4624 19 16.5 19C19.5376 19 22 18.0357 22 16.8462V14.8304Z" fill="currentColor"/>
<path d="M5.85548 18.342C5.61281 18.342 5.41214 18.258 5.25348 18.09C5.09481 17.9313 5.01548 17.7353 5.01548 17.502V16.354L5.39348 16.69C4.74948 16.6713 4.18948 16.592 3.71348 16.452C3.23748 16.312 2.84081 16.158 2.52348 15.99C2.31814 15.8873 2.17348 15.7473 2.08948 15.57C2.01481 15.3927 1.98681 15.2107 2.00548 15.024C2.02414 14.828 2.08948 14.66 2.20148 14.52C2.31348 14.3707 2.45814 14.2727 2.63548 14.226C2.82214 14.1793 3.03214 14.2167 3.26548 14.338C3.48948 14.4593 3.80214 14.5853 4.20348 14.716C4.60481 14.8373 5.09481 14.898 5.67348 14.898C6.10281 14.898 6.44815 14.8513 6.70948 14.758C6.97081 14.6553 7.15748 14.5247 7.26948 14.366C7.39081 14.2073 7.45148 14.0253 7.45148 13.82C7.45148 13.652 7.40948 13.5027 7.32548 13.372C7.25081 13.2413 7.11548 13.1293 6.91948 13.036C6.73281 12.9333 6.48081 12.8493 6.16348 12.784L4.62348 12.448C3.76481 12.2613 3.12548 11.944 2.70548 11.496C2.28548 11.0387 2.07548 10.4507 2.07548 9.732C2.07548 9.172 2.21081 8.67267 2.48148 8.234C2.76148 7.79533 3.14414 7.44067 3.62948 7.17C4.12414 6.89933 4.70281 6.736 5.36548 6.68L5.01548 6.904V5.84C5.01548 5.60667 5.09481 5.41067 5.25348 5.252C5.41214 5.084 5.61281 5 5.85548 5C6.08881 5 6.28481 5.084 6.44348 5.252C6.60215 5.41067 6.68148 5.60667 6.68148 5.84V6.904L6.33148 6.652C6.71415 6.67067 7.12481 6.74533 7.56348 6.876C8.01148 6.99733 8.39881 7.17467 8.72548 7.408C8.90281 7.52 9.02415 7.66 9.08948 7.828C9.16415 7.996 9.18281 8.164 9.14548 8.332C9.11748 8.5 9.04748 8.64933 8.93548 8.78C8.82348 8.90133 8.67415 8.98067 8.48748 9.018C8.31015 9.046 8.10015 8.99933 7.85748 8.878C7.60548 8.75667 7.33015 8.654 7.03148 8.57C6.73281 8.486 6.36414 8.444 5.92548 8.444C5.37481 8.444 4.94548 8.556 4.63748 8.78C4.33881 9.004 4.18948 9.29333 4.18948 9.648C4.18948 9.90933 4.27814 10.1193 4.45548 10.278C4.64214 10.4367 4.96414 10.5673 5.42148 10.67L6.97548 11.006C7.86215 11.202 8.51548 11.5193 8.93548 11.958C9.36481 12.3967 9.57948 12.966 9.57948 13.666C9.57948 14.2167 9.44415 14.7067 9.17348 15.136C8.90281 15.556 8.52948 15.8967 8.05348 16.158C7.57748 16.4193 7.02215 16.5873 6.38748 16.662L6.68148 16.34V17.502C6.68148 17.7353 6.60215 17.9313 6.44348 18.09C6.29415 18.258 6.09814 18.342 5.85548 18.342Z" fill="currentColor"/>
</svg>
