<svg viewBox="0 0 24 24" fill="currentColor" xmlns="http://www.w3.org/2000/svg">
<path d="M18.276 22.0002C18.0334 22.0002 17.8327 21.9162 17.674 21.7482C17.5154 21.5895 17.436 21.3935 17.436 21.1602V20.0122L17.814 20.3482C17.17 20.3295 16.61 20.2502 16.134 20.1102C15.658 19.9702 15.2614 19.8162 14.944 19.6482C14.7387 19.5455 14.594 19.4055 14.51 19.2282C14.4354 19.0509 14.4074 18.8689 14.426 18.6822C14.4447 18.4862 14.51 18.3182 14.622 18.1782C14.734 18.0289 14.8787 17.9309 15.056 17.8842C15.2427 17.8375 15.4527 17.8749 15.686 17.9962C15.91 18.1175 16.2227 18.2435 16.624 18.3742C17.0254 18.4955 17.5154 18.5562 18.094 18.5562C18.5234 18.5562 18.8687 18.5095 19.13 18.4162C19.3914 18.3135 19.578 18.1829 19.69 18.0242C19.8114 17.8655 19.872 17.6835 19.872 17.4782C19.872 17.3102 19.83 17.1609 19.746 17.0302C19.6714 16.8995 19.536 16.7875 19.34 16.6942C19.1534 16.5915 18.9014 16.5075 18.584 16.4422L17.044 16.1062C16.1854 15.9195 15.546 15.6022 15.126 15.1542C14.706 14.6969 14.496 14.1089 14.496 13.3902C14.496 12.8302 14.6314 12.3309 14.902 11.8922C15.182 11.4535 15.5647 11.0989 16.05 10.8282C16.5447 10.5575 17.1234 10.3942 17.786 10.3382L17.436 10.5622V9.4982C17.436 9.26487 17.5154 9.06887 17.674 8.9102C17.8327 8.7422 18.0334 8.6582 18.276 8.6582C18.5094 8.6582 18.7054 8.7422 18.864 8.9102C19.0227 9.06887 19.102 9.26487 19.102 9.4982V10.5622L18.752 10.3102C19.1347 10.3289 19.5454 10.4035 19.984 10.5342C20.432 10.6555 20.8194 10.8329 21.146 11.0662C21.3234 11.1782 21.4447 11.3182 21.51 11.4862C21.5847 11.6542 21.6034 11.8222 21.566 11.9902C21.538 12.1582 21.468 12.3075 21.356 12.4382C21.244 12.5595 21.0947 12.6389 20.908 12.6762C20.7307 12.7042 20.5207 12.6575 20.278 12.5362C20.026 12.4149 19.7507 12.3122 19.452 12.2282C19.1534 12.1442 18.7847 12.1022 18.346 12.1022C17.7954 12.1022 17.366 12.2142 17.058 12.4382C16.7594 12.6622 16.61 12.9515 16.61 13.3062C16.61 13.5675 16.6987 13.7775 16.876 13.9362C17.0627 14.0949 17.3847 14.2255 17.842 14.3282L19.396 14.6642C20.2827 14.8602 20.936 15.1775 21.356 15.6162C21.7854 16.0549 22 16.6242 22 17.3242C22 17.8749 21.8647 18.3649 21.594 18.7942C21.3234 19.2142 20.95 19.5549 20.474 19.8162C19.998 20.0775 19.4427 20.2455 18.808 20.3202L19.102 19.9982V21.1602C19.102 21.3935 19.0227 21.5895 18.864 21.7482C18.7147 21.9162 18.5187 22.0002 18.276 22.0002Z" fill="currentColor"/>
<path d="M19.102 21.16C19.102 21.3388 19.0554 21.4957 18.9622 21.6307C18.9338 21.6718 18.9011 21.7109 18.864 21.748C18.8358 21.7798 18.8059 21.8085 18.7743 21.8343C18.7565 21.8488 18.7383 21.8623 18.7195 21.8749C18.5948 21.9583 18.447 22 18.276 22C18.151 22 18.0372 21.9777 17.9344 21.9331C17.8822 21.9104 17.8329 21.882 17.7864 21.8478C17.7812 21.844 17.776 21.8401 17.7709 21.8361C17.737 21.8099 17.7047 21.7805 17.674 21.748C17.5154 21.5893 17.436 21.3933 17.436 21.16V20.3294C17.3469 20.3231 17.2596 20.3155 17.1741 20.3067C17.0558 20.2944 16.9409 20.2796 16.8294 20.2624C16.5805 20.224 16.3487 20.1731 16.134 20.11C16.0664 20.0901 16.0004 20.0699 15.936 20.0495C15.547 19.926 15.2163 19.7921 14.944 19.648C14.7387 19.5453 14.594 19.4053 14.51 19.228C14.4354 19.0507 14.4074 18.8687 14.426 18.682C14.4447 18.486 14.51 18.318 14.622 18.178C14.734 18.0287 14.8787 17.9307 15.056 17.884C15.2427 17.8373 15.4527 17.8747 15.686 17.996C15.7598 18.0359 15.8431 18.0764 15.936 18.1173C16.1255 18.2008 16.3548 18.2863 16.624 18.374C17.0165 18.4926 17.4937 18.5533 18.0557 18.5559C18.0685 18.556 18.0812 18.556 18.094 18.556C18.1995 18.556 18.2999 18.5532 18.3952 18.5476C18.6879 18.5303 18.9329 18.4864 19.13 18.416C19.3914 18.3133 19.578 18.1827 19.69 18.024C19.8114 17.8653 19.872 17.6833 19.872 17.478C19.872 17.3196 19.8347 17.1779 19.7601 17.0527C19.7555 17.045 19.7508 17.0375 19.746 17.03C19.6714 16.8993 19.536 16.7873 19.34 16.694C19.1534 16.5913 18.9014 16.5073 18.584 16.442L17.044 16.106C16.1854 15.9193 15.546 15.602 15.126 15.154C14.706 14.6967 14.496 14.1087 14.496 13.39C14.496 12.83 14.6314 12.3307 14.902 11.892C15.1597 11.4883 15.5044 11.1557 15.936 10.8943C15.9734 10.8716 16.0114 10.8496 16.05 10.828C16.216 10.7372 16.3914 10.6585 16.5763 10.5918C16.6046 10.5816 16.6332 10.5716 16.662 10.562C16.8727 10.4914 17.0952 10.436 17.3297 10.3958C17.3648 10.3898 17.4003 10.3841 17.436 10.3787V9.49802C17.436 9.26863 17.5127 9.07533 17.666 8.91811C17.6687 8.9154 17.6713 8.9127 17.674 8.91002C17.6761 8.90786 17.6781 8.90573 17.6801 8.9036C17.734 8.8477 17.7926 8.80134 17.856 8.76452C17.9783 8.69352 18.1183 8.65802 18.276 8.65802C18.4561 8.65802 18.614 8.70805 18.7496 8.80811C18.7746 8.82657 18.7988 8.84674 18.8223 8.86861C18.8365 8.88179 18.8504 8.89559 18.864 8.91002C19.0227 9.06868 19.102 9.26468 19.102 9.49802V10.3417C19.1495 10.3478 19.1973 10.3548 19.2456 10.3626C19.4822 10.4007 19.7284 10.4578 19.984 10.534C20.0174 10.543 20.0503 10.5524 20.083 10.562C20.2666 10.6162 20.4396 10.6803 20.602 10.7541C20.799 10.8437 20.9803 10.9476 21.146 11.066C21.3234 11.178 21.4447 11.318 21.51 11.486C21.5847 11.654 21.6034 11.822 21.566 11.99C21.538 12.158 21.468 12.3073 21.356 12.438C21.244 12.5593 21.0947 12.6387 20.908 12.676C20.815 12.6907 20.713 12.6848 20.602 12.6584C20.5014 12.6345 20.3934 12.5937 20.278 12.536C20.026 12.4147 19.7507 12.312 19.452 12.228C19.2341 12.1667 18.979 12.1278 18.6866 12.1112C18.5782 12.1051 18.4647 12.102 18.346 12.102C18.1168 12.102 17.9086 12.1214 17.7215 12.1602C17.459 12.2146 17.2378 12.3072 17.058 12.438C16.921 12.5408 16.8154 12.6573 16.7413 12.7876C16.6538 12.9412 16.61 13.114 16.61 13.306C16.61 13.5673 16.6987 13.7773 16.876 13.936C17.0627 14.0947 17.3847 14.2253 17.842 14.328L19.396 14.664C20.2827 14.86 20.936 15.1773 21.356 15.616C21.7854 16.0547 22 16.624 22 17.324C22 17.8747 21.8647 18.3647 21.594 18.794C21.3481 19.1756 21.0174 19.4917 20.602 19.7423C20.5602 19.7675 20.5176 19.7921 20.474 19.816C20.3524 19.8828 20.2257 19.9434 20.0937 19.998C19.9986 20.0374 19.9007 20.0735 19.8002 20.1066C19.6571 20.1536 19.5084 20.1942 19.3543 20.2284C19.2718 20.2467 19.1877 20.2631 19.102 20.2778V21.16Z" fill="currentColor"/>
<path d="M4 5H7.5V8.29076C6.03408 8.88415 5 10.3213 5 12C5 13.6787 6.03408 15.1159 7.5 15.7092V19H4C2.89543 19 2 18.1046 2 17V7C2 5.89543 2.89543 5 4 5Z" fill="currentColor"/>
<path d="M12.9286 19H9V5H15V9.71181C14.4539 10.0711 13.9929 10.5286 13.6376 11.0852L13.6315 11.0948L13.6255 11.1045C13.1962 11.8003 12.996 12.5769 12.996 13.3902C12.996 14.4214 13.3073 15.3914 14.0212 16.1688L14.0264 16.1745L14.0317 16.1801C14.1475 16.3036 14.2704 16.4181 14.3995 16.5244C14.0156 16.6785 13.6877 16.9308 13.436 17.2598C13.1343 17.6446 12.9764 18.0879 12.9331 18.5364C12.9177 18.6925 12.9164 18.8473 12.9286 19Z" fill="currentColor"/>
<path d="M22 9.83232V7C22 5.89543 21.1046 5 20 5H16.5V7.97103C16.5314 7.93488 16.5642 7.89944 16.5983 7.86475C17.054 7.39068 17.6507 7.1582 18.276 7.1582C18.9104 7.1582 19.4964 7.40345 19.9398 7.8648C20.2949 8.2263 20.5068 8.66956 20.5764 9.14435C21.0826 9.30059 21.558 9.52278 21.9866 9.82348C21.9911 9.82641 21.9955 9.82936 22 9.83232Z" fill="currentColor"/>
</svg>
