<svg viewBox="0 0 24 24" fill="currentColor" xmlns="http://www.w3.org/2000/svg">
<path d="M22 12C22 17.5228 17.5228 22 12 22C10.2235 22 8.55518 21.5368 7.10927 20.7245L3.45883 21.9413C2.59351 22.2297 1.77028 21.4065 2.05872 20.5412L3.27553 16.8907C2.46324 15.4448 2 13.7765 2 12C2 6.47715 6.47715 2 12 2C17.5228 2 22 6.47715 22 12ZM11.9998 18.842C12.2424 18.842 12.4384 18.758 12.5878 18.59C12.7464 18.4313 12.8258 18.2353 12.8258 18.002V17.1198C13.3394 17.0321 13.7967 16.8782 14.1978 16.658C14.6738 16.3967 15.0471 16.056 15.3178 15.636C15.5884 15.2067 15.7238 14.7167 15.7238 14.166C15.7238 13.466 15.5091 12.8967 15.0798 12.458C14.6598 12.0193 14.0064 11.702 13.1198 11.506L11.5658 11.17C11.1084 11.0673 10.7864 10.9367 10.5998 10.778C10.4224 10.6193 10.3338 10.4093 10.3338 10.148C10.3338 9.79333 10.4831 9.504 10.7818 9.28C11.0898 9.056 11.5191 8.944 12.0698 8.944C12.5084 8.944 12.8771 8.986 13.1758 9.07C13.4744 9.154 13.7498 9.25667 14.0018 9.378C14.2444 9.49933 14.4544 9.546 14.6318 9.518C14.8184 9.48067 14.9678 9.40133 15.0798 9.28C15.1918 9.14933 15.2618 9 15.2898 8.832C15.3271 8.664 15.3084 8.496 15.2338 8.328C15.1684 8.16 15.0471 8.02 14.8698 7.908C14.5431 7.67467 14.1558 7.49733 13.7078 7.376C13.4 7.28432 13.106 7.22021 12.8258 7.18366V6.34C12.8258 6.10667 12.7464 5.91067 12.5878 5.752C12.4291 5.584 12.2331 5.5 11.9998 5.5C11.7571 5.5 11.5564 5.584 11.3978 5.752C11.2391 5.91067 11.1598 6.10667 11.1598 6.34V7.22072C10.6413 7.29834 10.1793 7.4481 9.77377 7.67C9.28843 7.94067 8.90577 8.29533 8.62576 8.734C8.3551 9.17267 8.21976 9.672 8.21976 10.232C8.21976 10.9507 8.42976 11.5387 8.84976 11.996C9.26976 12.444 9.9091 12.7613 10.7678 12.948L12.3078 13.284C12.6251 13.3493 12.8771 13.4333 13.0638 13.536C13.2598 13.6293 13.3951 13.7413 13.4698 13.872C13.5538 14.0027 13.5958 14.152 13.5958 14.32C13.5958 14.5253 13.5351 14.7073 13.4138 14.866C13.3018 15.0247 13.1151 15.1553 12.8538 15.258C12.5924 15.3513 12.2471 15.398 11.8178 15.398C11.2391 15.398 10.7491 15.3373 10.3478 15.216C9.94643 15.0853 9.63377 14.9593 9.40977 14.838C9.17643 14.7167 8.96643 14.6793 8.77977 14.726C8.60243 14.7727 8.45776 14.8707 8.34577 15.02C8.23376 15.16 8.16843 15.328 8.14977 15.524C8.1311 15.7107 8.1591 15.8927 8.23376 16.07C8.31777 16.2473 8.46243 16.3873 8.66776 16.49C8.9851 16.658 9.38177 16.812 9.85777 16.952C10.2381 17.0639 10.6721 17.137 11.1598 17.1714V18.002C11.1598 18.2353 11.2391 18.4313 11.3978 18.59C11.5564 18.758 11.7571 18.842 11.9998 18.842Z" fill="currentColor"/>
</svg>
