<svg viewBox="0 0 24 24" fill="currentColor" xmlns="http://www.w3.org/2000/svg">
<path d="M2 5C2 3.89543 2.89543 3 4 3H20C21.1046 3 22 3.89543 22 5V16C22 17.1046 21.1046 18 20 18H12.75V20.25H15C15.4142 20.25 15.75 20.5858 15.75 21C15.75 21.4142 15.4142 21.75 15 21.75H9C8.58579 21.75 8.25 21.4142 8.25 21C8.25 20.5858 8.58579 20.25 9 20.25H11.25V18H4C2.89543 18 2 17.1046 2 16V5ZM12 15.5C12.1921 15.5 12.3472 15.437 12.4655 15.3111C12.5911 15.1922 12.6539 15.0453 12.6539 14.8704V14.2092C13.0605 14.1435 13.4225 14.0281 13.7399 13.8631C14.1167 13.6672 14.4123 13.4119 14.6265 13.0971C14.8408 12.7753 14.9479 12.408 14.9479 11.9953C14.9479 11.4706 14.778 11.0439 14.4381 10.7151C14.1057 10.3863 13.5885 10.1485 12.8866 10.0016L11.6564 9.74974C11.2944 9.67279 11.0395 9.57485 10.8918 9.45593C10.7514 9.33701 10.6812 9.17961 10.6812 8.98374C10.6812 8.71791 10.7994 8.50105 11.0358 8.33316C11.2796 8.16527 11.6195 8.08132 12.0554 8.08132C12.4027 8.08132 12.6945 8.1128 12.9309 8.17576C13.1673 8.23872 13.3853 8.31567 13.5848 8.40661C13.7769 8.49755 13.9431 8.53253 14.0835 8.51154C14.2313 8.48356 14.3495 8.4241 14.4381 8.33316C14.5268 8.23522 14.5822 8.12329 14.6044 7.99738C14.6339 7.87146 14.6191 7.74554 14.56 7.61962C14.5083 7.4937 14.4123 7.38877 14.2719 7.30483C14.0133 7.12994 13.7067 6.99703 13.352 6.90609C13.1084 6.83737 12.8757 6.78932 12.6539 6.76193V6.12959C12.6539 5.9547 12.5911 5.8078 12.4655 5.68888C12.3399 5.56296 12.1847 5.5 12 5.5C11.8079 5.5 11.6491 5.56296 11.5235 5.68888C11.3979 5.8078 11.3351 5.9547 11.3351 6.12959V6.7897C10.9246 6.84788 10.5589 6.96013 10.2379 7.12644C9.85371 7.32931 9.55079 7.59514 9.32915 7.92392C9.11489 8.25271 9.00776 8.62697 9.00776 9.04669C9.00776 9.58534 9.17399 10.0261 9.50646 10.3688C9.83894 10.7046 10.345 10.9425 11.0248 11.0824L12.2438 11.3342C12.495 11.3832 12.6945 11.4461 12.8423 11.5231C12.9974 11.593 13.1045 11.677 13.1636 11.7749C13.2301 11.8729 13.2634 11.9848 13.2634 12.1107C13.2634 12.2646 13.2154 12.401 13.1193 12.5199C13.0307 12.6389 12.8829 12.7368 12.676 12.8137C12.4692 12.8837 12.1958 12.9187 11.8559 12.9187C11.3979 12.9187 11.01 12.8732 10.6923 12.7823C10.3746 12.6843 10.1271 12.5899 9.94976 12.499C9.76505 12.408 9.59882 12.38 9.45105 12.415C9.31068 12.45 9.19616 12.5234 9.1075 12.6354C9.01884 12.7403 8.96712 12.8662 8.95235 13.0131C8.93757 13.153 8.95973 13.2894 9.01884 13.4224C9.08533 13.5553 9.19985 13.6602 9.36239 13.7371C9.61359 13.8631 9.9276 13.9785 10.3044 14.0834C10.6055 14.1673 10.949 14.2221 11.3351 14.2479V14.8704C11.3351 15.0453 11.3979 15.1922 11.5235 15.3111C11.6491 15.437 11.8079 15.5 12 15.5Z" fill="currentColor"/>
</svg>
