<svg viewBox="0 0 24 24" fill="currentColor" xmlns="http://www.w3.org/2000/svg">
<path d="M11.4415 2H12.5585C13.4193 2 14.1836 2.55086 14.4558 3.36754L14.88 4.63999C14.9573 4.87193 15.1169 5.06751 15.3286 5.18976L16.2334 5.7122C16.4451 5.83447 16.6943 5.87492 16.9339 5.8259L18.2479 5.55701C19.0913 5.38443 19.9505 5.77088 20.3809 6.51641L20.9394 7.48373C21.3698 8.22925 21.2749 9.16657 20.7037 9.81067L19.8139 10.8142C19.6516 10.9971 19.5621 11.2332 19.5621 11.4777V12.5224C19.5621 12.7669 19.6517 13.0029 19.8139 13.1859L20.7038 14.1894C21.275 14.8335 21.3699 15.7708 20.9395 16.5163L20.381 17.4837C19.9506 18.2292 19.0914 18.6156 18.248 18.4431L16.934 18.1742C16.6944 18.1251 16.4452 18.1656 16.2335 18.2878L15.3286 18.8102C15.1169 18.9325 14.9573 19.1281 14.88 19.36L14.4558 20.6325C14.1836 21.4491 13.4193 22 12.5585 22H11.4415C10.5806 22 9.81635 21.4491 9.54412 20.6325L9.11999 19.3601C9.04267 19.1281 8.88304 18.9325 8.67128 18.8102L7.76643 18.2879C7.55469 18.1656 7.30551 18.1252 7.06598 18.1742L5.75195 18.4431C4.90856 18.6157 4.04937 18.2293 3.61893 17.4837L3.06045 16.5164C2.63002 15.7709 2.72494 14.8336 3.2961 14.1895L4.18598 13.1859C4.3482 13.003 4.43777 12.767 4.43778 12.5225L4.43779 11.4776C4.43779 11.2331 4.34822 10.9971 4.18599 10.8141L3.29612 9.8106C2.72497 9.1665 2.63005 8.22919 3.06048 7.48366L3.61896 6.51634C4.04939 5.77081 4.90859 5.38436 5.75197 5.55695L7.06598 5.82584C7.30552 5.87486 7.55472 5.83442 7.76646 5.71217L8.6713 5.18976C8.88305 5.06751 9.04267 4.87192 9.11999 4.63996L9.54412 3.36754C9.81635 2.55086 10.5806 2 11.4415 2ZM11.67 16.35C11.7833 16.47 11.9267 16.53 12.1 16.53C12.2733 16.53 12.4133 16.47 12.52 16.35C12.6333 16.2367 12.69 16.0967 12.69 15.93V15.2998C13.0569 15.2372 13.3836 15.1273 13.67 14.97C14.01 14.7833 14.2767 14.54 14.47 14.24C14.6633 13.9333 14.76 13.5833 14.76 13.19C14.76 12.69 14.6067 12.2833 14.3 11.97C14 11.6567 13.5333 11.43 12.9 11.29L11.79 11.05C11.4633 10.9767 11.2333 10.8833 11.1 10.77C10.9733 10.6567 10.91 10.5067 10.91 10.32C10.91 10.0667 11.0167 9.86 11.23 9.7C11.45 9.54 11.7567 9.46 12.15 9.46C12.4633 9.46 12.7267 9.49 12.94 9.55C13.1533 9.61 13.35 9.68333 13.53 9.77C13.7033 9.85667 13.8533 9.89 13.98 9.87C14.1133 9.84333 14.22 9.78667 14.3 9.7C14.38 9.60667 14.43 9.5 14.45 9.38C14.4767 9.26 14.4633 9.14 14.41 9.02C14.3633 8.9 14.2767 8.8 14.15 8.72C13.9167 8.55333 13.64 8.42667 13.32 8.34C13.1002 8.27451 12.8902 8.22872 12.69 8.20262V7.6C12.69 7.43333 12.6333 7.29333 12.52 7.18C12.4067 7.06 12.2667 7 12.1 7C11.9267 7 11.7833 7.06 11.67 7.18C11.5567 7.29333 11.5 7.43333 11.5 7.6V8.22909C11.1297 8.28453 10.7997 8.3915 10.51 8.55C10.1633 8.74333 9.89001 8.99667 9.69001 9.31C9.49668 9.62333 9.40001 9.98 9.40001 10.38C9.40001 10.8933 9.55001 11.3133 9.85001 11.64C10.15 11.96 10.6067 12.1867 11.22 12.32L12.32 12.56C12.5467 12.6067 12.7267 12.6667 12.86 12.74C13 12.8067 13.0967 12.8867 13.15 12.98C13.21 13.0733 13.24 13.18 13.24 13.3C13.24 13.4467 13.1967 13.5767 13.11 13.69C13.03 13.8033 12.8967 13.8967 12.71 13.97C12.5233 14.0367 12.2767 14.07 11.97 14.07C11.5567 14.07 11.2067 14.0267 10.92 13.94C10.6333 13.8467 10.41 13.7567 10.25 13.67C10.0833 13.5833 9.93334 13.5567 9.80001 13.59C9.67334 13.6233 9.57001 13.6933 9.49001 13.8C9.41001 13.9 9.36334 14.02 9.35001 14.16C9.33668 14.2933 9.35668 14.4233 9.41001 14.55C9.47001 14.6767 9.57334 14.7767 9.72001 14.85C9.94667 14.97 10.23 15.08 10.57 15.18C10.8417 15.2599 11.1517 15.3121 11.5 15.3367V15.93C11.5 16.0967 11.5567 16.2367 11.67 16.35Z" fill="currentColor"/>
</svg>
