<svg viewBox="0 0 24 24" fill="currentColor" xmlns="http://www.w3.org/2000/svg">
<path d="M3.52778 6.44444C3.52778 6.3228 3.5341 6.20233 3.54645 6.08333H5.88889C6.3031 6.08333 6.63889 5.74755 6.63889 5.33333C6.63889 4.91912 6.3031 4.58333 5.88889 4.58333H4.06191C4.73566 3.49498 5.98428 2.75 7.44444 2.75C8.1661 2.75 8.83874 2.93354 9.41587 3.25149C9.77867 3.45137 10.2348 3.31929 10.4347 2.95649C10.6346 2.59369 10.5025 2.13756 10.1397 1.93768C9.34401 1.49933 8.4228 1.25 7.44444 1.25C5.15834 1.25 3.16914 2.62002 2.38446 4.58333H2C1.58579 4.58333 1.25 4.91912 1.25 5.33333C1.25 5.74755 1.58579 6.08333 2 6.08333H2.04056C2.03209 6.20255 2.02778 6.32296 2.02778 6.44444C2.02778 6.56593 2.03209 6.68634 2.04056 6.80556H2C1.58579 6.80556 1.25 7.14134 1.25 7.55556C1.25 7.96977 1.58579 8.30556 2 8.30556H2.38446C3.16914 10.2689 5.15834 11.6389 7.44444 11.6389C8.07193 11.6389 8.67628 11.5363 9.23927 11.3468C9.63184 11.2147 9.84295 10.7893 9.71081 10.3967C9.57866 10.0042 9.1533 9.79304 8.76073 9.92518C8.35063 10.0632 7.90783 10.1389 7.44444 10.1389C5.98428 10.1389 4.73566 9.39391 4.06191 8.30556H5.88889C6.3031 8.30556 6.63889 7.96977 6.63889 7.55556C6.63889 7.14134 6.3031 6.80556 5.88889 6.80556H3.54645C3.5341 6.68656 3.52778 6.56609 3.52778 6.44444Z" fill="currentColor"/>
<path d="M16.5 12.3077C19.5376 12.3077 22 11.3434 22 10.1538C22 8.96431 19.5376 8 16.5 8C13.4624 8 11 8.96431 11 10.1538C11 11.3434 13.4624 12.3077 16.5 12.3077Z" fill="currentColor"/>
<path d="M21.0019 13.1767C19.7673 13.6602 18.175 13.9231 16.5 13.9231C14.825 13.9231 13.2327 13.6602 11.9981 13.1767C11.6566 13.0429 11.3169 12.8824 11 12.6895V15.8874C11.2477 16.1114 11.6391 16.3603 12.1707 16.5937C13.2515 17.0682 14.7854 17.4231 16.5 17.4231C18.2146 17.4231 19.7485 17.0682 20.8293 16.5937C21.3609 16.3603 21.7523 16.1114 22 15.8874V12.6895C21.6831 12.8824 21.3434 13.0429 21.0019 13.1767Z" fill="currentColor"/>
<path d="M21.5045 18.0677C21.6757 17.9925 21.8413 17.9133 22 17.8304V19.8462C22 21.0357 19.5376 22 16.5 22C13.4624 22 11 21.0357 11 19.8462V17.8304C11.1587 17.9133 11.3243 17.9925 11.4955 18.0677C12.8035 18.6419 14.5695 19.0385 16.5 19.0385C18.4305 19.0385 20.1965 18.6419 21.5045 18.0677Z" fill="currentColor"/>
</svg>
