<svg viewBox="0 0 24 24" fill="currentColor" xmlns="http://www.w3.org/2000/svg">
<path d="M12.75 2C12.75 1.58579 12.4142 1.25 12 1.25C11.5858 1.25 11.25 1.58579 11.25 2V4H4C2.89543 4 2 4.89543 2 6V18C2 19.1046 2.89543 20 4 20H20C21.1046 20 22 19.1046 22 18V6C22 4.89543 21.1046 4 20 4H12.75V2ZM8 11C6.89543 11 6 10.1046 6 9C6 7.89543 6.89543 7 8 7C9.10457 7 10 7.89543 10 9C10 10.1046 9.10457 11 8 11ZM5 12H11C11.5523 12 12 12.4477 12 13C12 15.2091 10.2091 17 8 17C5.79086 17 4 15.2091 4 13C4 12.4477 4.44772 12 5 12ZM13.25 9C13.25 8.58579 13.5858 8.25 14 8.25H19C19.4142 8.25 19.75 8.58579 19.75 9C19.75 9.41421 19.4142 9.75 19 9.75H14C13.5858 9.75 13.25 9.41421 13.25 9ZM14 11.25H18C18.4142 11.25 18.75 11.5858 18.75 12C18.75 12.4142 18.4142 12.75 18 12.75H14C13.5858 12.75 13.25 12.4142 13.25 12C13.25 11.5858 13.5858 11.25 14 11.25ZM13.25 15C13.25 14.5858 13.5858 14.25 14 14.25H19C19.4142 14.25 19.75 14.5858 19.75 15C19.75 15.4142 19.4142 15.75 19 15.75H14C13.5858 15.75 13.25 15.4142 13.25 15Z" fill="currentColor"/>
</svg>
