<svg viewBox="0 0 24 24" fill="currentColor" xmlns="http://www.w3.org/2000/svg">
<path d="M10.8862 8.07871H8.00003C8.18347 5.559 9.99891 3.5019 12.3736 3C12.3626 3.01145 12.3516 3.02302 12.3408 3.03471C12.0289 3.37055 11.7672 3.83391 11.556 4.37154C11.1704 5.35329 10.9265 6.65228 10.8862 8.07871Z" fill="currentColor"/>
<path d="M12.3736 14C9.99891 13.4981 8.18347 11.441 8.00003 8.92126H10.8862C10.9265 10.3477 11.1704 11.6467 11.556 12.6285C11.7672 13.1661 12.0289 13.6294 12.3408 13.9653L12.3564 13.982L12.3736 14Z" fill="currentColor"/>
<path d="M14.6264 14C17.0011 13.4981 18.8166 11.441 19 8.92126H16.1138C16.0735 10.3477 15.8296 11.6467 15.444 12.6285C15.2329 13.1661 14.9711 13.6294 14.6593 13.9653C14.6484 13.977 14.6375 13.9886 14.6264 14Z" fill="currentColor"/>
<path d="M14.6264 3C17.0011 3.5019 18.8166 5.559 19 8.07871H16.1138C16.0735 6.65228 15.8296 5.35329 15.444 4.37154C15.2329 3.83391 14.9711 3.37055 14.6593 3.03471C14.6484 3.02302 14.6375 3.01145 14.6264 3Z" fill="currentColor"/>
<path d="M12.3241 4.6845C11.9841 5.55021 11.7541 6.73888 11.7139 8.07874H15.2862C15.246 6.73888 15.0159 5.55021 14.6759 4.6845C14.4878 4.20562 14.2742 3.84635 14.0582 3.61369C13.843 3.38192 13.6542 3.30408 13.5 3.30408C13.3458 3.30408 13.157 3.38192 12.9418 3.61369C12.7258 3.84635 12.5122 4.20562 12.3241 4.6845Z" fill="currentColor"/>
<path d="M15.2862 8.92126C15.246 10.2612 15.0159 11.4498 14.6759 12.3155C14.4878 12.7944 14.2742 13.1537 14.0582 13.3863C13.843 13.6181 13.6542 13.696 13.5 13.696C13.3458 13.696 13.157 13.6181 12.9418 13.3863C12.7258 13.1537 12.5122 12.7944 12.3241 12.3155C11.9841 11.4498 11.7541 10.2612 11.7139 8.92126H15.2862Z" fill="currentColor"/>
<path d="M2.23719 4.28851C1.84423 4.15752 1.41949 4.36989 1.28851 4.76285C1.15752 5.15581 1.36989 5.58055 1.76285 5.71153L3.66176 6.3445C4.08732 6.48635 4.40423 6.84535 4.49221 7.28521L5.94303 14.5393C6.20011 15.8247 7.32875 16.75 8.63963 16.75H18.4914C19.7192 16.75 20.7983 15.9361 21.1356 14.7555L22.7212 9.20606C22.835 8.80778 22.6043 8.39267 22.2061 8.27888C21.8078 8.16508 21.3927 8.3957 21.2789 8.79398L19.6933 14.3434C19.54 14.88 19.0495 15.25 18.4914 15.25H8.63963C8.04378 15.25 7.53076 14.8294 7.4139 14.2451L5.96308 6.99104C5.76954 6.02335 5.07232 5.23355 4.13611 4.92148L2.23719 4.28851Z" fill="currentColor"/>
<path d="M9.50003 21C10.3284 21 11 20.3284 11 19.5C11 18.6716 10.3284 18 9.50003 18C8.6716 18 8.00003 18.6716 8.00003 19.5C8.00003 20.3284 8.6716 21 9.50003 21Z" fill="currentColor"/>
<path d="M19 19.5C19 20.3284 18.3284 21 17.5 21C16.6716 21 16 20.3284 16 19.5C16 18.6716 16.6716 18 17.5 18C18.3284 18 19 18.6716 19 19.5Z" fill="currentColor"/>
</svg>
