<svg viewBox="0 0 24 24" fill="currentColor" xmlns="http://www.w3.org/2000/svg">
<path d="M4 4.02532C4 2.90677 4.89543 2 6 2H18C19.1046 2 20 2.90677 20 4.02532V20.2278C20 21.0623 19.0592 21.5387 18.4 21.038L16.6 19.6709C16.2444 19.4008 15.7556 19.4008 15.4 19.6709L12.6 21.7975C12.2444 22.0675 11.7556 22.0675 11.4 21.7975L8.6 19.6709C8.24444 19.4008 7.75556 19.4008 7.4 19.6709L5.6 21.038C4.94076 21.5387 4 21.0623 4 20.2278V4.02532ZM5.75 6.05063C5.75 6.47009 6.08579 6.81013 6.5 6.81013H12C12.4142 6.81013 12.75 6.47009 12.75 6.05063C12.75 5.63118 12.4142 5.29114 12 5.29114H6.5C6.08579 5.29114 5.75 5.63118 5.75 6.05063ZM6.5 9.34177C6.08579 9.34177 5.75 9.68181 5.75 10.1013C5.75 10.5207 6.08579 10.8608 6.5 10.8608H12C12.4142 10.8608 12.75 10.5207 12.75 10.1013C12.75 9.68181 12.4142 9.34177 12 9.34177H6.5ZM5.75 14.1519C5.75 14.5714 6.08579 14.9114 6.5 14.9114H12C12.4142 14.9114 12.75 14.5714 12.75 14.1519C12.75 13.7324 12.4142 13.3924 12 13.3924H6.5C6.08579 13.3924 5.75 13.7324 5.75 14.1519ZM16 5.29114C15.5858 5.29114 15.25 5.63118 15.25 6.05063C15.25 6.47009 15.5858 6.81013 16 6.81013H17.5C17.9142 6.81013 18.25 6.47009 18.25 6.05063C18.25 5.63118 17.9142 5.29114 17.5 5.29114H16ZM15.25 10.1013C15.25 10.5207 15.5858 10.8608 16 10.8608H17.5C17.9142 10.8608 18.25 10.5207 18.25 10.1013C18.25 9.68181 17.9142 9.34177 17.5 9.34177H16C15.5858 9.34177 15.25 9.68181 15.25 10.1013ZM16 13.3924C15.5858 13.3924 15.25 13.7324 15.25 14.1519C15.25 14.5714 15.5858 14.9114 16 14.9114H17.5C17.9142 14.9114 18.25 14.5714 18.25 14.1519C18.25 13.7324 17.9142 13.3924 17.5 13.3924H16Z" fill="currentColor"/>
</svg>
