<svg viewBox="0 0 24 24" fill="currentColor" xmlns="http://www.w3.org/2000/svg">
<path d="M13.5526 2.6479C12.6978 1.78403 11.3022 1.78403 10.4474 2.6479L9.45703 3.64876C9.04396 4.06621 8.48019 4.29973 7.89293 4.29663L6.48492 4.28922C5.26963 4.28282 4.28282 5.26962 4.28922 6.48492L4.29663 7.89293C4.29973 8.48019 4.06621 9.04396 3.64876 9.45703L2.6479 10.4474C1.78403 11.3022 1.78403 12.6978 2.6479 13.5526L3.64876 14.543C4.06621 14.956 4.29973 15.5198 4.29663 16.1071L4.28922 17.5151C4.28282 18.7304 5.26962 19.7172 6.48492 19.7108L7.89293 19.7034C8.48019 19.7003 9.04396 19.9338 9.45703 20.3512L10.4474 21.3521C11.3022 22.216 12.6978 22.216 13.5526 21.3521L14.543 20.3512C14.956 19.9338 15.5198 19.7003 16.1071 19.7034L17.5151 19.7108C18.7304 19.7172 19.7172 18.7304 19.7108 17.5151L19.7034 16.1071C19.7003 15.5198 19.9338 14.956 20.3512 14.543L21.3521 13.5526C22.216 12.6978 22.216 11.3022 21.3521 10.4474L20.3512 9.45703C19.9338 9.04396 19.7003 8.48019 19.7034 7.89293L19.7108 6.48492C19.7172 5.26962 18.7304 4.28282 17.5151 4.28922L16.1071 4.29663C15.5198 4.29973 14.956 4.06621 14.543 3.64876L13.5526 2.6479ZM5.54013 14C5.19867 14 5 13.8252 5 13.5104V10.4681C5 10.1641 5.19867 10 5.55255 10C5.76984 10 5.92506 10.0807 6.09579 10.2744L7.80931 12.3161H7.83415V10.4896C7.83415 10.1748 8.03592 10 8.37428 10C8.71574 10 8.91441 10.1748 8.91441 10.4896V13.5373C8.91441 13.8359 8.72195 14 8.37738 14C8.14767 14 7.99557 13.922 7.83104 13.7256L6.1051 11.6624H6.08027V13.5104C6.08027 13.8252 5.87849 14 5.54013 14ZM10.1654 13.9408C9.80532 13.9408 9.59423 13.7525 9.59423 13.4243V10.5757C9.59423 10.2475 9.80532 10.0592 10.1654 10.0592H12.2173C12.5246 10.0592 12.7233 10.2044 12.7233 10.4573C12.7233 10.7102 12.5184 10.8554 12.2173 10.8554H10.7335V11.6274H12.149C12.4253 11.6274 12.6084 11.7619 12.6084 11.9906C12.6084 12.2192 12.4315 12.3537 12.149 12.3537H10.7335V13.1446H12.2173C12.5184 13.1446 12.7233 13.2898 12.7233 13.5427C12.7233 13.7956 12.5246 13.9408 12.2173 13.9408H10.1654ZM15.4736 13.4916C15.3681 13.844 15.1601 14 14.8 14C14.4368 14 14.2412 13.8494 14.1295 13.4889L13.2758 10.7828C13.2386 10.659 13.2137 10.5272 13.2137 10.4385C13.2137 10.1614 13.4248 10 13.7756 10C14.0736 10 14.2506 10.1399 14.3188 10.4304L14.8776 12.6819H14.9024L15.5543 10.4089C15.635 10.1264 15.8058 10 16.1069 10C16.3987 10 16.5818 10.1372 16.6563 10.4062L17.3113 12.6819H17.3361L17.8949 10.4304C17.9632 10.1399 18.1401 10 18.4381 10C18.7889 10 19 10.1614 19 10.4385C19 10.5245 18.9752 10.6537 18.9379 10.7828L18.0812 13.497C17.9694 13.8494 17.7738 14 17.42 14C17.0506 14 16.8488 13.8521 16.7401 13.4916L16.1193 11.5171H16.0945L15.4736 13.4916Z" fill="currentColor"/>
</svg>
