<svg viewBox="0 0 24 24" fill="currentColor" xmlns="http://www.w3.org/2000/svg">
<path d="M2 5C2 3.89543 2.89543 3 4 3H20C21.1046 3 22 3.89543 22 5V6.25H2V5Z" fill="currentColor"/>
<path d="M11 10.9595C10.8619 10.9595 10.75 11.0684 10.75 11.2027V12.6622H13.25V11.2027C13.25 11.0684 13.1381 10.9595 13 10.9595H11Z" fill="currentColor"/>
<path d="M2 7.75H22V19C22 20.1046 21.1046 21 20 21H4C2.89543 21 2 20.1046 2 19V7.75ZM9.25 11.2027V12.6622H9C8.44772 12.6622 8 13.0978 8 13.6351V17.527C8 18.0644 8.44772 18.5 9 18.5H15C15.5523 18.5 16 18.0644 16 17.527V13.6351C16 13.0978 15.5523 12.6622 15 12.6622H14.75V11.2027C14.75 10.2623 13.9665 9.5 13 9.5H11C10.0335 9.5 9.25 10.2623 9.25 11.2027Z" fill="currentColor"/>
</svg>
