<svg viewBox="0 0 24 24" fill="currentColor" xmlns="http://www.w3.org/2000/svg">
<path d="M5 2H11.25V11.25H2V5C2 3.34315 3.34315 2 5 2ZM7 4.25C6.58579 4.25 6.25 4.58579 6.25 5V6.25H5C4.58579 6.25 4.25 6.58579 4.25 7C4.25 7.41421 4.58579 7.75 5 7.75H6.25V9C6.25 9.41421 6.58579 9.75 7 9.75C7.41421 9.75 7.75 9.41421 7.75 9V7.75H9C9.41421 7.75 9.75 7.41421 9.75 7C9.75 6.58579 9.41421 6.25 9 6.25H7.75V5C7.75 4.58579 7.41421 4.25 7 4.25Z" fill="currentColor"/>
<path d="M2 12.75V19C2 20.6569 3.34315 22 5 22H11.25V12.75H2ZM5 16.25H9C9.41421 16.25 9.75 16.5858 9.75 17C9.75 17.4142 9.41421 17.75 9 17.75H5C4.58579 17.75 4.25 17.4142 4.25 17C4.25 16.5858 4.58579 16.25 5 16.25Z" fill="currentColor"/>
<path d="M12.75 12.75V22H19C20.6569 22 22 20.6569 22 19V12.75H12.75ZM14.25 15.5C14.25 15.0858 14.5858 14.75 15 14.75H19C19.4142 14.75 19.75 15.0858 19.75 15.5C19.75 15.9142 19.4142 16.25 19 16.25H15C14.5858 16.25 14.25 15.9142 14.25 15.5ZM14.25 18.5C14.25 18.0858 14.5858 17.75 15 17.75H19C19.4142 17.75 19.75 18.0858 19.75 18.5C19.75 18.9142 19.4142 19.25 19 19.25H15C14.5858 19.25 14.25 18.9142 14.25 18.5Z" fill="currentColor"/>
<path d="M22 11.25V5C22 3.34315 20.6569 2 19 2H12.75V11.25H22ZM19.5303 6.03033L18.5607 7L19.5303 7.96967C19.8232 8.26256 19.8232 8.73744 19.5303 9.03033C19.2374 9.32322 18.7626 9.32322 18.4697 9.03033L17.5 8.06066L16.5303 9.03033C16.2374 9.32322 15.7626 9.32322 15.4697 9.03033C15.1768 8.73744 15.1768 8.26256 15.4697 7.96967L16.4393 7L15.4697 6.03033C15.1768 5.73744 15.1768 5.26256 15.4697 4.96967C15.7626 4.67678 16.2374 4.67678 16.5303 4.96967L17.5 5.93934L18.4697 4.96967C18.7626 4.67678 19.2374 4.67678 19.5303 4.96967C19.8232 5.26256 19.8232 5.73744 19.5303 6.03033Z" fill="currentColor"/>
</svg>
