<svg viewBox="0 0 24 24" fill="currentColor" xmlns="http://www.w3.org/2000/svg">
<path d="M15.25 15.1622V13.7027C15.25 12.7623 16.0335 12 17 12H19C19.9665 12 20.75 12.7623 20.75 13.7027V15.1622H21C21.5523 15.1622 22 15.5978 22 16.1351V20.027C22 20.5644 21.5523 21 21 21H15C14.4477 21 14 20.5644 14 20.027V16.1351C14 15.5978 14.4477 15.1622 15 15.1622H15.25ZM16.75 13.7027V15.1622H19.25V13.7027C19.25 13.5684 19.1381 13.4595 19 13.4595H17C16.8619 13.4595 16.75 13.5684 16.75 13.7027Z" fill="currentColor"/>
<path d="M4 3H7.5V6.29076C6.03408 6.88415 5 8.32131 5 10C5 11.6787 6.03408 13.1159 7.5 13.7092V17H4C2.89543 17 2 16.1046 2 15V5C2 3.89543 2.89543 3 4 3Z" fill="currentColor"/>
<path d="M12.5 17H9V3H15V11.1789C14.245 11.7586 13.75 12.6625 13.75 13.7027V13.9944C13.0122 14.4158 12.5 15.2013 12.5 16.1351V17Z" fill="currentColor"/>
<path d="M22 12.4652V5C22 3.89543 21.1046 3 20 3H16.5V6.29076C17.9659 6.88415 19 8.32131 19 10C19 10.1693 18.9895 10.3362 18.9691 10.5H19C20.3265 10.5 21.5036 11.2964 22 12.4652Z" fill="currentColor"/>
</svg>
