<svg viewBox="0 0 24 24" fill="currentColor" xmlns="http://www.w3.org/2000/svg">
<path d="M16.8551 7.75H7.14486C6.39681 8.45937 5.30647 9.75877 4.21619 12C3.36045 13.7591 3.0692 15.905 3.01144 17.7572C2.93501 20.2086 5.04526 22 7.49778 22H16.5022C18.9547 22 21.065 20.2086 20.9886 17.7572C20.9308 15.905 20.6395 13.7591 19.7838 12C18.6935 9.75877 17.6032 8.45937 16.8551 7.75ZM12.1 19.24C11.9267 19.24 11.7833 19.18 11.67 19.06C11.5567 18.9467 11.5 18.8067 11.5 18.64V18.0467C11.1517 18.0221 10.8417 17.9699 10.57 17.89C10.23 17.79 9.94667 17.68 9.72 17.56C9.57334 17.4867 9.47 17.3867 9.41 17.26C9.35667 17.1333 9.33667 17.0033 9.35 16.87C9.36333 16.73 9.41 16.61 9.49 16.51C9.57 16.4033 9.67333 16.3333 9.8 16.3C9.93333 16.2667 10.0833 16.2933 10.25 16.38C10.41 16.4667 10.6333 16.5567 10.92 16.65C11.2067 16.7367 11.5567 16.78 11.97 16.78C12.2767 16.78 12.5233 16.7467 12.71 16.68C12.8967 16.6067 13.03 16.5133 13.11 16.4C13.1967 16.2867 13.24 16.1567 13.24 16.01C13.24 15.89 13.21 15.7833 13.15 15.69C13.0967 15.5967 13 15.5167 12.86 15.45C12.7267 15.3767 12.5467 15.3167 12.32 15.27L11.22 15.03C10.6067 14.8967 10.15 14.67 9.85 14.35C9.55 14.0233 9.4 13.6033 9.4 13.09C9.4 12.69 9.49667 12.3333 9.69 12.02C9.89 11.7067 10.1633 11.4533 10.51 11.26C10.7997 11.1015 11.1297 10.9945 11.5 10.9391V10.31C11.5 10.1433 11.5567 10.0033 11.67 9.89C11.7833 9.77 11.9267 9.71 12.1 9.71C12.2667 9.71 12.4067 9.77 12.52 9.89C12.6333 10.0033 12.69 10.1433 12.69 10.31V10.9126C12.8902 10.9387 13.1002 10.9845 13.32 11.05C13.64 11.1367 13.9167 11.2633 14.15 11.43C14.2767 11.51 14.3633 11.61 14.41 11.73C14.4633 11.85 14.4767 11.97 14.45 12.09C14.43 12.21 14.38 12.3167 14.3 12.41C14.22 12.4967 14.1133 12.5533 13.98 12.58C13.8533 12.6 13.7033 12.5667 13.53 12.48C13.35 12.3933 13.1533 12.32 12.94 12.26C12.7267 12.2 12.4633 12.17 12.15 12.17C11.7567 12.17 11.45 12.25 11.23 12.41C11.0167 12.57 10.91 12.7767 10.91 13.03C10.91 13.2167 10.9733 13.3667 11.1 13.48C11.2333 13.5933 11.4633 13.6867 11.79 13.76L12.9 14C13.5333 14.14 14 14.3667 14.3 14.68C14.6067 14.9933 14.76 15.4 14.76 15.9C14.76 16.2933 14.6633 16.6433 14.47 16.95C14.2767 17.25 14.01 17.4933 13.67 17.68C13.3836 17.8373 13.0569 17.9472 12.69 18.0098V18.64C12.69 18.8067 12.6333 18.9467 12.52 19.06C12.4133 19.18 12.2733 19.24 12.1 19.24Z" fill="currentColor"/>
<path d="M17.7257 2.6857L16.3 6.25H7.62499L6.32003 3.64008C6.14328 3.28657 6.28656 2.85671 6.64007 2.67996C7.53439 2.2328 8.52055 2 9.52043 2H9.84323C10.5941 2 11.3321 2.24905 11.9328 2.69957C12.5602 3.17016 13.4314 3.17647 14.0588 2.70588C14.6698 2.24769 15.4128 2 16.1765 2H17.2615C17.6152 2 17.8571 2.35726 17.7257 2.6857Z" fill="currentColor"/>
</svg>
