<svg viewBox="0 0 24 24" fill="currentColor" xmlns="http://www.w3.org/2000/svg">
<path d="M15.25 16.1622V14.7027C15.25 13.7623 16.0335 13 17 13H19C19.9665 13 20.75 13.7623 20.75 14.7027V16.1622H21C21.5523 16.1622 22 16.5978 22 17.1351V21.027C22 21.5644 21.5523 22 21 22H15C14.4477 22 14 21.5644 14 21.027V17.1351C14 16.5978 14.4477 16.1622 15 16.1622H15.25ZM16.75 14.7027V16.1622H19.25V14.7027C19.25 14.5684 19.1381 14.4595 19 14.4595H17C16.8619 14.4595 16.75 14.5684 16.75 14.7027Z" fill="currentColor"/>
<path d="M4 1C2.89543 1 2 1.89543 2 3V14C2 15.1046 2.89543 16 4 16H11.25V18.25H9C8.58579 18.25 8.25 18.5858 8.25 19C8.25 19.4142 8.58579 19.75 9 19.75H12.5V17.1351C12.5 16.7428 12.5904 16.3766 12.75 16.0527V16H12.7767C12.9982 15.5767 13.3391 15.2291 13.75 14.9944V14.7027C13.75 12.8954 15.2441 11.5 17 11.5H19C20.3265 11.5 21.5036 12.2964 22 13.4652V3C22 1.89543 21.1046 1 20 1H4ZM12.0399 13C11.8798 13 11.7475 12.937 11.6428 12.8111C11.5381 12.6922 11.4858 12.5453 11.4858 12.3704V11.7479C11.1641 11.7221 10.8778 11.6673 10.6269 11.5834C10.3129 11.4785 10.0513 11.3631 9.84192 11.2371C9.70647 11.1602 9.61104 11.0553 9.55563 10.9224C9.50637 10.7894 9.4879 10.653 9.50021 10.5131C9.51253 10.3662 9.55563 10.2403 9.62951 10.1354C9.70339 10.0234 9.79882 9.94998 9.9158 9.91501C10.0389 9.88003 10.1775 9.90801 10.3314 9.99895C10.4792 10.0899 10.6854 10.1843 10.9502 10.2823C11.2149 10.3732 11.5381 10.4187 11.9199 10.4187C12.2031 10.4187 12.4309 10.3837 12.6033 10.3137C12.7757 10.2368 12.8988 10.1389 12.9727 10.0199C13.0527 9.90101 13.0928 9.7646 13.0928 9.6107C13.0928 9.48479 13.065 9.37286 13.0096 9.27492C12.9604 9.17698 12.8711 9.09304 12.7418 9.02308C12.6187 8.94614 12.4524 8.88318 12.2431 8.83421L11.2272 8.58237C10.6608 8.44246 10.239 8.20462 9.96198 7.86884C9.68492 7.52606 9.54639 7.08534 9.54639 6.54669C9.54639 6.12697 9.63566 5.75271 9.81421 5.42392C9.99892 5.09514 10.2514 4.82931 10.5715 4.62644C10.839 4.46013 11.1438 4.34788 11.4858 4.2897V3.62959C11.4858 3.4547 11.5381 3.3078 11.6428 3.18888C11.7475 3.06296 11.8798 3 12.0399 3C12.1938 3 12.3231 3.06296 12.4278 3.18888C12.5325 3.3078 12.5848 3.4547 12.5848 3.62959V4.26193C12.7697 4.28932 12.9636 4.33737 13.1666 4.40609C13.4622 4.49703 13.7177 4.62994 13.9332 4.80483C14.0501 4.88877 14.1302 4.9937 14.1733 5.11962C14.2225 5.24554 14.2349 5.37146 14.2102 5.49738C14.1918 5.6233 14.1456 5.73522 14.0717 5.83316C13.9978 5.9241 13.8993 5.98356 13.7762 6.01154C13.6592 6.03253 13.5207 5.99755 13.3606 5.90661C13.1943 5.81567 13.0127 5.73872 12.8157 5.67576C12.6187 5.6128 12.3755 5.58132 12.0861 5.58132C11.7228 5.58132 11.4396 5.66527 11.2365 5.83316C11.0394 6.00105 10.9409 6.21791 10.9409 6.48374C10.9409 6.67961 10.9994 6.83701 11.1164 6.95593C11.2395 7.07485 11.4519 7.17279 11.7536 7.24974L12.7788 7.50157C13.3637 7.64848 13.7946 7.88632 14.0717 8.21511C14.3549 8.5439 14.4965 8.97062 14.4965 9.49528C14.4965 9.90801 14.4072 10.2753 14.2287 10.5971C14.0501 10.9119 13.8039 11.1672 13.4899 11.3631C13.2253 11.5281 12.9236 11.6435 12.5848 11.7092V12.3704C12.5848 12.5453 12.5325 12.6922 12.4278 12.8111C12.3293 12.937 12.2 13 12.0399 13Z" fill="currentColor"/>
</svg>
