<svg viewBox="0 0 24 24" fill="currentColor" xmlns="http://www.w3.org/2000/svg">
<path d="M2 4C2 2.89543 2.89543 2 4 2H16C17.1046 2 18 2.89543 18 4V19C18 19.5523 18.4477 20 19 20C19.5523 20 20 19.5523 20 19V9C20 8.44771 20.4477 8 21 8C21.5523 8 22 8.44772 22 9V19C22 20.6569 20.6569 22 19 22H4C2.89543 22 2 21.1046 2 20V4ZM5 4.25C4.58579 4.25 4.25 4.58579 4.25 5C4.25 5.41421 4.58579 5.75 5 5.75H15C15.4142 5.75 15.75 5.41421 15.75 5C15.75 4.58579 15.4142 4.25 15 4.25H5ZM12.25 9C12.25 9.41421 12.5858 9.75 13 9.75H15C15.4142 9.75 15.75 9.41421 15.75 9C15.75 8.58579 15.4142 8.25 15 8.25H13C12.5858 8.25 12.25 8.58579 12.25 9ZM12.25 12C12.25 12.4142 12.5858 12.75 13 12.75H15C15.4142 12.75 15.75 12.4142 15.75 12C15.75 11.5858 15.4142 11.25 15 11.25H13C12.5858 11.25 12.25 11.5858 12.25 12ZM5 15.25C4.58579 15.25 4.25 15.5858 4.25 16C4.25 16.4142 4.58579 16.75 5 16.75H10C10.4142 16.75 10.75 16.4142 10.75 16C10.75 15.5858 10.4142 15.25 10 15.25H5ZM12.5 15.25C12.0858 15.25 11.75 15.5858 11.75 16C11.75 16.4142 12.0858 16.75 12.5 16.75H15C15.4142 16.75 15.75 16.4142 15.75 16C15.75 15.5858 15.4142 15.25 15 15.25H12.5ZM4.25 19C4.25 19.4142 4.58579 19.75 5 19.75H7.5C7.91421 19.75 8.25 19.4142 8.25 19C8.25 18.5858 7.91421 18.25 7.5 18.25H5C4.58579 18.25 4.25 18.5858 4.25 19ZM9.25 19C9.25 19.4142 9.58579 19.75 10 19.75H15C15.4142 19.75 15.75 19.4142 15.75 19C15.75 18.5858 15.4142 18.25 15 18.25H10C9.58579 18.25 9.25 18.5858 9.25 19ZM5 7C4.44772 7 4 7.44772 4 8V13C4 13.5523 4.44772 14 5 14H10C10.5523 14 11 13.5523 11 13V8C11 7.44772 10.5523 7 10 7H5Z" fill="currentColor"/>
</svg>
