<svg viewBox="0 0 24 24" fill="currentColor" xmlns="http://www.w3.org/2000/svg">
<path d="M17.3302 1.48244C17.6161 1.18266 18.0908 1.17136 18.3906 1.4572C24.2031 6.99942 24.2031 16.0006 18.3906 21.5428C18.0908 21.8286 17.6161 21.8173 17.3302 21.5176C17.0444 21.2178 17.0557 20.743 17.3555 20.4572C22.5482 15.506 22.5482 7.494 17.3555 2.5428C17.0557 2.25696 17.0444 1.78222 17.3302 1.48244ZM14.0095 4.64914C14.2953 4.34936 14.7701 4.33805 15.0699 4.62389C19.0482 8.41721 19.0482 14.5829 15.0699 18.3762C14.7701 18.662 14.2953 18.6507 14.0095 18.3509C13.7237 18.0511 13.735 17.5764 14.0347 17.2906C17.3932 14.0883 17.3932 8.91179 14.0347 5.7095C13.735 5.42366 13.7237 4.94892 14.0095 4.64914ZM2.85809 7.79059C3.13054 7.53081 3.55334 7.51324 3.8464 7.74953L11.1459 13.6349C12.2204 12.1851 12.0762 10.1758 10.7132 8.87619C10.4134 8.59035 10.4021 8.11561 10.688 7.81583C10.9738 7.51605 11.4485 7.50475 11.7483 7.79059C13.8925 9.835 13.8925 13.1651 11.7483 15.2095C11.4759 15.4693 11.0531 15.4869 10.76 15.2506L3.46055 9.36525C2.386 10.815 2.53022 12.8243 3.89321 14.1239C4.19299 14.4098 4.20429 14.8845 3.91845 15.1843C3.63261 15.4841 3.15787 15.4954 2.85809 15.2095C0.71397 13.1651 0.71397 9.835 2.85809 7.79059Z" fill="currentColor"/>
</svg>
