<svg viewBox="0 0 24 24" fill="currentColor" xmlns="http://www.w3.org/2000/svg">
<path d="M2 5C2 3.89543 2.89543 3 4 3H20C21.1046 3 22 3.89543 22 5V16C22 17.1046 21.1046 18 20 18H12.75V20.25H15C15.4142 20.25 15.75 20.5858 15.75 21C15.75 21.4142 15.4142 21.75 15 21.75H9C8.58579 21.75 8.25 21.4142 8.25 21C8.25 20.5858 8.58579 20.25 9 20.25H11.25V18H4C2.89543 18 2 17.1046 2 16V5ZM6.02006 5.27197C5.95216 5.48028 6.06224 5.70544 6.26594 5.77488L7.31955 6.13404C7.49731 6.19463 7.6297 6.34799 7.66645 6.5359L8.84753 12.5751C8.98079 13.2565 9.56585 13.747 10.2454 13.747H14.6828C14.8976 13.747 15.0716 13.569 15.0716 13.3494C15.0716 13.1298 14.8976 12.9518 14.6828 12.9518H10.2454C9.93649 12.9518 9.67056 12.7289 9.60999 12.4191L9.45498 11.6265H14.9101C15.5642 11.6265 16.1344 11.1713 16.2931 10.5223L16.9725 7.74316C17.1156 7.15764 16.6826 6.59045 16.0924 6.59045H8.47007L8.4289 6.37995C8.33743 5.91224 8.00791 5.5305 7.56543 5.37967L6.51183 5.02051C6.30813 4.95107 6.08796 5.06365 6.02006 5.27197ZM10.2766 16C10.706 16 11.0541 15.644 11.0541 15.2048C11.0541 14.7657 10.706 14.4097 10.2766 14.4097C9.84713 14.4097 9.49901 14.7657 9.49901 15.2048C9.49901 15.644 9.84713 16 10.2766 16ZM14.6827 15.2048C14.6827 14.7657 14.3346 14.4097 13.9052 14.4097C13.4757 14.4097 13.1276 14.7657 13.1276 15.2048C13.1276 15.644 13.4757 16 13.9052 16C14.3346 16 14.6827 15.644 14.6827 15.2048Z" fill="currentColor"/>
</svg>
