<svg viewBox="0 0 24 24" fill="currentColor" xmlns="http://www.w3.org/2000/svg">
<path d="M4.42026 12.002C4.42026 13.0027 4.80492 13.6417 5.39013 13.6417C5.97533 13.6417 6.35999 13.0027 6.35999 12.002C6.35999 10.9973 5.97204 10.3583 5.39013 10.3583C4.80821 10.3583 4.42026 10.9973 4.42026 12.002Z" fill="currentColor"/>
<path d="M9.71671 10.3825V12.0583H10.1079C10.5715 12.0583 10.8477 11.7729 10.8477 11.2184C10.8477 10.6678 10.5715 10.3825 10.1178 10.3825H9.71671Z" fill="currentColor"/>
<path d="M4 5C2.89543 5 2 5.89543 2 7V17C2 18.1046 2.89543 19 4 19H20C21.1046 19 22 18.1046 22 17V7C22 5.89543 21.1046 5 20 5H4ZM7.78027 12.002C7.78027 13.8547 6.85644 15 5.39014 15C3.92055 15 3 13.8547 3 12.002C3 10.1494 3.92384 9 5.39014 9C6.85644 9 7.78027 10.1494 7.78027 12.002ZM9.71671 14.1078C9.71671 14.6785 9.46356 15 9.01973 15C8.57589 15 8.32274 14.6785 8.32274 14.1078V9.99263C8.32274 9.42197 8.57589 9.10047 9.01973 9.10047H10.4893C11.5447 9.10047 12.2548 9.92431 12.2548 11.2143C12.2548 12.4923 11.5019 13.3161 10.394 13.3161H9.71671V14.1078ZM13.4449 14.8995C13.0011 14.8995 12.7479 14.578 12.7479 14.0074V9.99263C12.7479 9.42197 13.0011 9.10047 13.4449 9.10047H15.5458C15.9205 9.10047 16.1605 9.34561 16.1605 9.77964C16.1605 10.2137 15.914 10.4588 15.5458 10.4588H14.1419V11.3912H15.4899C15.8219 11.3912 16.0389 11.6122 16.0389 12.002C16.0389 12.3918 15.8285 12.6129 15.4899 12.6129H14.1419V13.5412H15.5458C15.914 13.5412 16.1605 13.7863 16.1605 14.2204C16.1605 14.6544 15.9205 14.8995 15.5458 14.8995H13.4449ZM18.0608 14.1561C18.0608 14.7026 17.8175 15 17.4033 15C16.9858 15 16.7458 14.7026 16.7458 14.1561V9.78768C16.7458 9.27328 16.9759 9 17.4033 9C17.6564 9 17.8504 9.14066 18.051 9.46618L19.6586 12.1065H19.6849V9.84394C19.6849 9.29739 19.9282 9 20.3425 9C20.76 9 21 9.29739 21 9.84394V14.2123C21 14.7227 20.7732 15 20.3589 15C20.0926 15 19.9052 14.8634 19.7079 14.5338L18.0871 11.8453H18.0608V14.1561Z" fill="currentColor"/>
</svg>
