<svg viewBox="0 0 24 24" fill="currentColor" xmlns="http://www.w3.org/2000/svg">
<path d="M2 5C2 4.44772 2.44772 4 3 4H21C21.5523 4 22 4.44772 22 5V7C22 7.55228 21.5523 8 21 8H3C2.44772 8 2 7.55228 2 7V5Z" fill="currentColor"/>
<path d="M3 9.5V18C3 19.1046 3.89543 20 5 20H19C20.1046 20 21 19.1046 21 18V9.5H3ZM11.25 14C11.25 13.5858 11.5858 13.25 12 13.25H15C15.4142 13.25 15.75 13.5858 15.75 14C15.75 14.4142 15.4142 14.75 15 14.75H12C11.5858 14.75 11.25 14.4142 11.25 14ZM12 16.25H13.5C13.9142 16.25 14.25 16.5858 14.25 17C14.25 17.4142 13.9142 17.75 13.5 17.75H12C11.5858 17.75 11.25 17.4142 11.25 17C11.25 16.5858 11.5858 16.25 12 16.25ZM5 14C5 13.4477 5.44772 13 6 13H9C9.55229 13 10 13.4477 10 14V17C10 17.5523 9.55229 18 9 18H6C5.44772 18 5 17.5523 5 17V14Z" fill="currentColor"/>
</svg>
