<svg viewBox="0 0 24 24" fill="currentColor" xmlns="http://www.w3.org/2000/svg">
<path d="M10.3186 10.1984L9.62682 12.5911H11.0511L10.3445 10.1984H10.3186Z" fill="currentColor"/>
<path d="M5.11723 10.0486V12.1255H5.87191C6.51191 12.1255 6.88555 11.753 6.88555 11.085C6.88555 10.4211 6.51561 10.0486 5.87561 10.0486H5.11723Z" fill="currentColor"/>
<path d="M16.5336 10.0891V13.9109H17.3216C18.3205 13.9109 18.8606 13.247 18.8606 11.9838C18.8606 10.7611 18.3057 10.0891 17.3216 10.0891H16.5336Z" fill="currentColor"/>
<path d="M4 5C2.89543 5 2 5.89543 2 7V17C2 18.1046 2.89543 19 4 19H20C21.1046 19 22 18.1046 22 17V7C22 5.89543 21.1046 5 20 5H4ZM9.1015 14.4494C8.99792 14.8381 8.83144 15 8.53549 15C8.18775 15 7.96948 14.7773 7.96948 14.4251C7.96948 14.3239 7.99538 14.1862 8.04347 14.0364L9.50104 9.69231C9.65642 9.21862 9.91908 9 10.3408 9C10.7773 9 11.0363 9.21053 11.1954 9.68826L12.6603 14.0364C12.7121 14.1943 12.7306 14.3036 12.7306 14.4251C12.7306 14.7611 12.4976 15 12.172 15C11.8576 15 11.6911 14.8421 11.5912 14.4615L11.3101 13.5385H9.38266L9.1015 14.4494ZM5.11723 14.3644C5.11723 14.7652 4.91006 15 4.55861 15C4.20717 15 4 14.7652 4 14.3644V9.7166C4 9.31579 4.20717 9.08097 4.55861 9.08097H6.17156C7.26659 9.08097 8.02127 9.87854 8.02127 11.081C8.02127 12.2794 7.24069 13.081 6.11607 13.081H5.11723V14.3644ZM13.9699 15C13.6185 15 13.4113 14.7652 13.4113 14.3644V9.63968C13.4113 9.23482 13.6185 9 13.9699 9C14.3214 9 14.5286 9.23482 14.5286 9.63968V14.3644C14.5286 14.7652 14.3214 15 13.9699 15ZM17.4548 14.9231H15.975C15.6236 14.9231 15.4164 14.6883 15.4164 14.2834V9.7166C15.4164 9.31579 15.6236 9.08097 15.975 9.08097H17.4548C19.0566 9.08097 20 10.1255 20 11.9798C20 13.834 19.0566 14.9231 17.4548 14.9231Z" fill="currentColor"/>
</svg>
