<svg viewBox="0 0 24 24" fill="currentColor" xmlns="http://www.w3.org/2000/svg">
<path d="M7.44 16.25V21C7.44 21.56 7.89 22 8.44 22H15.44C15.99 22 16.44 21.56 16.44 21V16.25H7.44ZM11.94 20.25H9.94C9.53 20.25 9.19 19.92 9.19 19.5C9.19 19.08 9.53 18.75 9.94 18.75H11.94C12.35 18.75 12.69 19.09 12.69 19.5C12.69 19.91 12.35 20.25 11.94 20.25Z" fill="currentColor"/>
<path d="M11.94 2C8.40999 2 5.48999 4.61 4.99999 8.01C4.91999 8.55 5.37999 9 5.92999 9H6.58999L8.58999 13H8.42999C7.87999 13 7.42999 13.45 7.42999 14V14.75H16.44V14C16.44 13.45 15.99 13 15.44 13H15.28L17.28 9H17.94C18.49 9 18.95 8.55 18.87 8.01C18.39 4.61 15.47 2 11.94 2ZM13.6 13H10.28L8.27999 9H15.6L13.6 13Z" fill="currentColor"/>
</svg>
