<svg viewBox="0 0 24 24" fill="currentColor" xmlns="http://www.w3.org/2000/svg">
<path d="M2.75 12C2.75 6.88942 6.88942 2.75 12 2.75C17.1106 2.75 21.25 6.88941 21.25 12C21.25 17.1106 17.1106 21.25 12 21.25C11.5858 21.25 11.25 21.5858 11.25 22C11.25 22.4142 11.5858 22.75 12 22.75C17.939 22.75 22.75 17.939 22.75 12C22.75 6.06099 17.939 1.25 12 1.25C6.06099 1.25 1.25 6.06099 1.25 12C1.25 13.3045 1.45947 14.4843 1.77737 15.5481C1.85896 15.8211 2.0882 16.0243 2.36902 16.0725C2.64985 16.1207 2.93374 16.0057 3.10174 15.7755L5.93911 11.8886C6.18333 11.554 6.11009 11.0848 5.77553 10.8406C5.44097 10.5964 4.97178 10.6696 4.72756 11.0042L2.86481 13.556C2.79126 13.0602 2.75 12.5421 2.75 12Z" fill="currentColor"/>
<path d="M9.5 11C10.3284 11 11 10.3284 11 9.5C11 8.67157 10.3284 8 9.5 8C8.67157 8 8 8.67157 8 9.5C8 10.3284 8.67157 11 9.5 11Z" fill="currentColor"/>
<path d="M15.5303 8.46967C15.8232 8.76256 15.8232 9.23744 15.5303 9.53033L9.53033 15.5303C9.23744 15.8232 8.76256 15.8232 8.46967 15.5303C8.17678 15.2374 8.17678 14.7626 8.46967 14.4697L14.4697 8.46967C14.7626 8.17678 15.2374 8.17678 15.5303 8.46967Z" fill="currentColor"/>
<path d="M14.5 16C15.3284 16 16 15.3284 16 14.5C16 13.6716 15.3284 13 14.5 13C13.6716 13 13 13.6716 13 14.5C13 15.3284 13.6716 16 14.5 16Z" fill="currentColor"/>
</svg>
