<svg viewBox="0 0 24 24" fill="currentColor" xmlns="http://www.w3.org/2000/svg">
<path d="M6.04137 4.00249C5.46172 3.95838 5.05918 4.50759 5.1744 5.08479L5.6867 7.65119C5.17343 8.22287 4.75901 8.86739 4.46636 9.56445L2.64765 10.2384C2.25869 10.3825 2 10.7574 2 11.177V12.792C2 13.2047 2.25038 13.5749 2.63024 13.724L4.46636 14.4444C4.96854 15.6405 5.82926 16.682 6.93272 17.4661L6.67165 18.8072C6.55141 19.4249 7.01808 20 7.63955 20H9.83442C10.177 20 10.495 19.82 10.6746 19.5245L11.0172 18.9606C11.2958 18.987 11.5789 19.0005 11.8654 19.0005C12.6316 19.0005 13.3722 18.9038 14.0727 18.7233L14.538 19.5129C14.716 19.815 15.0378 20 15.3851 20H17.6187C18.2242 20 18.6868 19.4524 18.5934 18.8463L18.1848 16.1963C19.1726 15.028 19.7578 13.5768 19.7578 12.0044C19.7578 11.7289 19.7398 11.4571 19.7049 11.1899C20.6747 11.0195 21.4006 10.2997 21.7492 9.4932C22.1499 8.56607 22.1259 7.34678 21.2675 6.47719C20.9786 6.18446 20.5101 6.18446 20.2212 6.47719C19.9322 6.76992 19.9322 7.24453 20.2212 7.53726C20.5466 7.867 20.6135 8.38329 20.3936 8.8919C20.1829 9.3795 19.7762 9.69811 19.3301 9.72669C18.2641 6.9811 15.3247 5.00833 11.8654 5.00833C11.0041 5.00833 10.175 5.13063 9.39908 5.35672C8.47395 4.41949 7.09739 4.08286 6.04137 4.00249ZM12.036 6.75086C12.1123 6.75453 12.1921 6.7577 12.275 6.76099C12.7888 6.78138 13.4217 6.80649 14.0794 6.98513C14.8741 7.20099 15.6912 7.63053 16.5303 8.46966C16.8232 8.76256 16.8232 9.23743 16.5303 9.53032C16.2374 9.82322 15.7626 9.82322 15.4697 9.53033C14.8088 8.86947 14.2196 8.57755 13.6862 8.43268C13.2047 8.30189 12.7555 8.28299 12.2377 8.26121C12.1486 8.25746 12.0576 8.25363 11.964 8.24914C11.5503 8.22925 11.231 7.87773 11.2509 7.46399C11.2708 7.05025 11.6223 6.73098 12.036 6.75086Z" fill="currentColor"/>
</svg>
