<svg viewBox="0 0 24 24" fill="currentColor" xmlns="http://www.w3.org/2000/svg">
<path d="M5.1744 5.08479C5.05918 4.50759 5.46172 3.95838 6.04137 4.00249C7.09739 4.08286 8.47395 4.41949 9.39908 5.35672C10.175 5.13063 11.0041 5.00833 11.8654 5.00833C15.3247 5.00833 18.2641 6.9811 19.3301 9.72669C19.7762 9.69811 20.1829 9.3795 20.3936 8.8919C20.6135 8.38329 20.5466 7.867 20.2212 7.53726C19.9322 7.24453 19.9322 6.76992 20.2212 6.47719C20.5101 6.18446 20.9786 6.18446 21.2675 6.47719C22.1259 7.34678 22.1499 8.56607 21.7492 9.4932C21.4006 10.2997 20.6747 11.0195 19.7049 11.1899C19.7398 11.4571 19.7578 11.7289 19.7578 12.0044C19.7578 13.5768 19.1726 15.028 18.1848 16.1963L18.5934 18.8463C18.6868 19.4524 18.2242 20 17.6187 20H15.3851C15.0378 20 14.716 19.815 14.538 19.5129L14.0727 18.7233C13.3722 18.9038 12.6316 19.0005 11.8654 19.0005C11.5789 19.0005 11.2958 18.987 11.0172 18.9606L10.6746 19.5245C10.495 19.82 10.177 20 9.83442 20H7.63955C7.01808 20 6.55141 19.4249 6.67165 18.8072L6.93272 17.4661C5.82926 16.682 4.96854 15.6405 4.46636 14.4444L2.63024 13.724C2.25038 13.5749 2 13.2047 2 12.792V11.177C2 10.7574 2.25869 10.3825 2.64765 10.2384L4.46636 9.56445C4.75901 8.86739 5.17343 8.22287 5.6867 7.65119L5.1744 5.08479ZM11.588 15.9186C11.69 16.0266 11.819 16.0806 11.975 16.0806C12.131 16.0806 12.257 16.0266 12.353 15.9186C12.455 15.8166 12.506 15.6906 12.506 15.5406V14.9735C12.8362 14.9171 13.1302 14.8181 13.388 14.6766C13.694 14.5086 13.934 14.2896 14.108 14.0196C14.282 13.7436 14.369 13.4286 14.369 13.0746C14.369 12.6246 14.231 12.2586 13.955 11.9766C13.685 11.6946 13.265 11.4906 12.695 11.3646L11.696 11.1486C11.402 11.0826 11.195 10.9986 11.075 10.8966C10.961 10.7946 10.904 10.6596 10.904 10.4916C10.904 10.2636 11 10.0776 11.192 9.9336C11.39 9.7896 11.666 9.7176 12.02 9.7176C12.302 9.7176 12.539 9.7446 12.731 9.7986C12.923 9.8526 13.1 9.9186 13.262 9.9966C13.418 10.0746 13.553 10.1046 13.667 10.0866C13.787 10.0626 13.883 10.0116 13.955 9.9336C14.027 9.8496 14.072 9.7536 14.09 9.6456C14.114 9.5376 14.102 9.4296 14.054 9.3216C14.012 9.2136 13.934 9.1236 13.82 9.0516C13.61 8.9016 13.361 8.7876 13.073 8.7096C12.8751 8.65066 12.6861 8.60945 12.506 8.58596V8.0436C12.506 7.8936 12.455 7.7676 12.353 7.6656C12.251 7.5576 12.125 7.5036 11.975 7.5036C11.819 7.5036 11.69 7.5576 11.588 7.6656C11.486 7.7676 11.435 7.8936 11.435 8.0436V8.60978C11.1017 8.65968 10.8047 8.75595 10.544 8.8986C10.232 9.0726 9.986 9.3006 9.806 9.5826C9.632 9.8646 9.545 10.1856 9.545 10.5456C9.545 11.0076 9.68 11.3856 9.95 11.6796C10.22 11.9676 10.631 12.1716 11.183 12.2916L12.173 12.5076C12.377 12.5496 12.539 12.6036 12.659 12.6696C12.785 12.7296 12.872 12.8016 12.92 12.8856C12.974 12.9696 13.001 13.0656 13.001 13.1736C13.001 13.3056 12.962 13.4226 12.884 13.5246C12.812 13.6266 12.692 13.7106 12.524 13.7766C12.356 13.8366 12.134 13.8666 11.858 13.8666C11.486 13.8666 11.171 13.8276 10.913 13.7496C10.655 13.6656 10.454 13.5846 10.31 13.5066C10.16 13.4286 10.025 13.4046 9.905 13.4346C9.791 13.4646 9.698 13.5276 9.626 13.6236C9.554 13.7136 9.512 13.8216 9.5 13.9476C9.488 14.0676 9.506 14.1846 9.554 14.2986C9.608 14.4126 9.701 14.5026 9.833 14.5686C10.037 14.6766 10.292 14.7756 10.598 14.8656C10.8425 14.9375 11.1215 14.9845 11.435 15.0066V15.5406C11.435 15.6906 11.486 15.8166 11.588 15.9186Z" fill="currentColor"/>
</svg>
