<svg viewBox="0 0 24 24" fill="currentColor" xmlns="http://www.w3.org/2000/svg">
<path d="M2.02788 10.9501C1.91918 11.6023 2.13216 12.2669 2.59973 12.7345L11.2655 21.4003C12.0651 22.1999 13.3616 22.1999 14.1612 21.4003L21.4003 14.1612C22.1999 13.3616 22.1999 12.0651 21.4003 11.2655L12.7345 2.59973C12.2669 2.13216 11.6023 1.91918 10.9501 2.02788L4.74511 3.06204C3.88213 3.20588 3.20588 3.88213 3.06204 4.74511L2.02788 10.9501ZM15.1649 15.2905C14.9726 15.2905 14.8057 15.2198 14.6643 15.0784L14.1609 14.575C13.8445 14.8497 13.5371 15.0684 13.2388 15.2311C12.8654 15.4348 12.5317 15.5819 12.2375 15.6724C12.0508 15.7346 11.8783 15.7374 11.7199 15.6809C11.5672 15.6186 11.4399 15.5253 11.3381 15.4008C11.2306 15.2707 11.1684 15.1293 11.1514 14.9766C11.1288 14.8182 11.1571 14.6711 11.2363 14.5353C11.3211 14.3939 11.471 14.2893 11.686 14.2214C11.8953 14.1592 12.1611 14.046 12.4836 13.882C12.8004 13.7123 13.1341 13.4521 13.4849 13.1013C13.7451 12.8411 13.9261 12.6035 14.0279 12.3886C14.1241 12.168 14.158 11.9756 14.1297 11.8116C14.1071 11.6419 14.0336 11.4948 13.9091 11.3703C13.8073 11.2685 13.6913 11.2035 13.5612 11.1752C13.4368 11.1412 13.2869 11.1554 13.1115 11.2176C12.9361 11.2685 12.7325 11.3703 12.5006 11.5231L11.3635 12.2528C10.73 12.6601 10.1501 12.8553 9.62405 12.8383C9.09231 12.8157 8.60865 12.5866 8.17307 12.151C7.83366 11.8116 7.61304 11.4269 7.51122 10.997C7.41505 10.5614 7.43202 10.1145 7.56213 9.65631C7.67343 9.27602 7.86268 8.90524 8.12987 8.54396L7.59607 8.01017C7.45465 7.86874 7.38394 7.70187 7.38394 7.50953C7.37828 7.31154 7.44899 7.13901 7.59607 6.99193C7.73749 6.85051 7.9072 6.78263 8.10519 6.78829C8.29752 6.78829 8.4644 6.859 8.60582 7.00042L9.11715 7.51175C9.30914 7.36407 9.52619 7.22473 9.7683 7.09376C10.1134 6.89577 10.4556 6.76849 10.795 6.71192C10.9704 6.67232 11.1288 6.68363 11.2702 6.74586C11.4173 6.80243 11.5304 6.89294 11.6096 7.01739C11.6945 7.13618 11.7425 7.26912 11.7539 7.4162C11.7595 7.55762 11.7171 7.69621 11.6266 7.83197C11.5361 7.95643 11.3805 8.05542 11.1599 8.12896C10.9336 8.20816 10.7045 8.31281 10.4726 8.44292C10.2406 8.57302 9.99175 8.77101 9.72587 9.03689C9.39212 9.37064 9.19979 9.69874 9.14888 10.0212C9.10362 10.338 9.18847 10.6038 9.40343 10.8188C9.56183 10.9772 9.74284 11.0507 9.94649 11.0394C10.1558 11.0224 10.4302 10.9065 10.7696 10.6915L11.9151 9.9533C12.5713 9.53469 13.1596 9.33104 13.68 9.34235C14.2061 9.34801 14.6813 9.56297 15.1055 9.98724C15.4393 10.321 15.6543 10.7 15.7504 11.1243C15.8409 11.5429 15.8211 11.9756 15.691 12.4225C15.5814 12.799 15.3975 13.1695 15.1393 13.5339L15.6741 14.0687C15.8155 14.2101 15.8862 14.377 15.8862 14.5693C15.8975 14.7616 15.8296 14.9313 15.6825 15.0784C15.5355 15.2255 15.3629 15.2962 15.1649 15.2905Z" fill="currentColor"/>
</svg>
