<svg viewBox="0 0 24 24" fill="currentColor" xmlns="http://www.w3.org/2000/svg">
<path d="M12.9019 11.2967L14.0168 12.4116L14.0279 12.3887C14.1241 12.1681 14.158 11.9758 14.1297 11.8117C14.1071 11.642 14.0336 11.4949 13.9091 11.3705C13.8073 11.2687 13.6913 11.2036 13.5612 11.1753C13.4368 11.1414 13.2869 11.1555 13.1115 11.2177C13.0456 11.2369 12.9758 11.2632 12.9019 11.2967Z" fill="currentColor"/>
<path d="M9.14889 10.0213C9.16714 9.90571 9.20356 9.7894 9.25816 9.67236L10.4569 10.8711C10.2573 10.972 10.0872 11.0281 9.94651 11.0396C9.74286 11.0509 9.56184 10.9773 9.40345 10.8189C9.18849 10.604 9.10363 10.3381 9.14889 10.0213Z" fill="currentColor"/>
<path d="M2.02788 10.9501C1.91918 11.6023 2.13216 12.2669 2.59973 12.7345L11.2655 21.4003C12.0651 22.1999 13.3616 22.1999 14.1612 21.4003L21.4003 14.1612C22.1999 13.3616 22.1999 12.0651 21.4003 11.2655L12.7345 2.59973C12.2669 2.13216 11.6023 1.91918 10.9501 2.02788L4.74511 3.06204C3.88213 3.20588 3.20588 3.88213 3.06204 4.74511L2.02788 10.9501ZM15.6826 15.0786C15.5355 15.2256 15.3629 15.2963 15.165 15.2907C14.9726 15.2907 14.8057 15.22 14.6643 15.0786L14.1609 14.5751C13.8445 14.8498 13.5371 15.0686 13.2388 15.2313C12.8654 15.4349 12.5317 15.582 12.2375 15.6725C12.0509 15.7347 11.8783 15.7376 11.7199 15.681C11.5672 15.6188 11.4399 15.5254 11.3381 15.401C11.2306 15.2709 11.1684 15.1295 11.1514 14.9767C11.1288 14.8183 11.1571 14.6713 11.2363 14.5355C11.3211 14.3941 11.471 14.2894 11.686 14.2215C11.8953 14.1593 12.1612 14.0462 12.4836 13.8821C12.6724 13.781 12.8672 13.6477 13.0681 13.4823L11.653 12.0672L11.3635 12.253C10.73 12.6602 10.1502 12.8554 9.62407 12.8384C9.09232 12.8158 8.60866 12.5867 8.17308 12.1511C7.83367 11.8117 7.61305 11.4271 7.51123 10.9971C7.41506 10.5616 7.43203 10.1147 7.56214 9.65646C7.67345 9.27617 7.86269 8.90539 8.12988 8.54411L7.59608 8.01031C7.45466 7.86889 7.38395 7.70201 7.38395 7.50968C7.37829 7.31169 7.449 7.13916 7.59608 6.99208C7.7375 6.85066 7.90721 6.78277 8.1052 6.78843C8.29753 6.78843 8.46441 6.85914 8.60583 7.00056L9.11717 7.5119C9.30915 7.36421 9.5262 7.22488 9.76831 7.0939C10.1134 6.89591 10.4556 6.76863 10.795 6.71206C10.9704 6.67247 11.1288 6.68378 11.2702 6.74601C11.4173 6.80257 11.5304 6.89308 11.6096 7.01753C11.6945 7.13633 11.7426 7.26926 11.7539 7.41634C11.7595 7.55776 11.7171 7.69636 11.6266 7.83212C11.5361 7.95657 11.3805 8.05557 11.1599 8.12911C10.9336 8.2083 10.7045 8.31295 10.4726 8.44306C10.389 8.48993 10.3033 8.5456 10.2154 8.61009L11.6984 10.0931L11.9151 9.95344C12.5713 9.53483 13.1596 9.33119 13.68 9.3425C14.2061 9.34816 14.6813 9.56312 15.1056 9.98738C15.4393 10.3211 15.6543 10.7001 15.7504 11.1244C15.8409 11.543 15.8211 11.9758 15.691 12.4227C15.5814 12.7992 15.3975 13.1696 15.1394 13.5341L15.6741 14.0688C15.8155 14.2102 15.8862 14.3771 15.8862 14.5694C15.8975 14.7618 15.8296 14.9315 15.6826 15.0786Z" fill="currentColor"/>
</svg>
