<svg viewBox="0 0 24 24" fill="currentColor" xmlns="http://www.w3.org/2000/svg">
<path d="M17.75 12.5C18.1642 12.5 18.5 12.1642 18.5 11.75V5.56066L20.2197 7.28033C20.5126 7.57322 20.9874 7.57322 21.2803 7.28033C21.5732 6.98744 21.5732 6.51256 21.2803 6.21967L18.2803 3.21967C17.9874 2.92678 17.5126 2.92678 17.2197 3.21967L14.2197 6.21967C13.9268 6.51256 13.9268 6.98744 14.2197 7.28033C14.5126 7.57322 14.9874 7.57322 15.2803 7.28033L17 5.56066V11.75C17 12.1642 17.3358 12.5 17.75 12.5Z" fill="currentColor"/>
<path d="M12.861 5.52677C12.2952 6.39868 12.3945 7.57648 13.159 8.34099C13.7921 8.97405 14.7085 9.15101 15.5 8.87187V11.75C15.5 12.9926 16.5074 14 17.75 14C17.8137 14 17.8767 13.9974 17.9391 13.9922C17.4505 17.9423 14.0823 21 10 21C5.58172 21 2 17.4183 2 13C2 8.58172 5.58172 5 10 5C11.0081 5 11.9726 5.18646 12.861 5.52677ZM9.72 18.488C9.928 18.488 10.096 18.416 10.224 18.272C10.36 18.136 10.428 17.968 10.428 17.768V17.0118C10.8683 16.9367 11.2603 16.8047 11.604 16.616C12.012 16.392 12.332 16.1 12.564 15.74C12.796 15.372 12.912 14.952 12.912 14.48C12.912 13.88 12.728 13.392 12.36 13.016C12 12.64 11.44 12.368 10.68 12.2L9.348 11.912C8.956 11.824 8.68 11.712 8.52 11.576C8.368 11.44 8.292 11.26 8.292 11.036C8.292 10.732 8.42 10.484 8.676 10.292C8.94 10.1 9.308 10.004 9.78 10.004C10.156 10.004 10.472 10.04 10.728 10.112C10.984 10.184 11.22 10.272 11.436 10.376C11.644 10.48 11.824 10.52 11.976 10.496C12.136 10.464 12.264 10.396 12.36 10.292C12.456 10.18 12.516 10.052 12.54 9.908C12.572 9.764 12.556 9.62 12.492 9.476C12.436 9.332 12.332 9.212 12.18 9.116C11.9 8.916 11.568 8.764 11.184 8.66C10.9202 8.58142 10.6682 8.52646 10.428 8.49514V7.772C10.428 7.572 10.36 7.404 10.224 7.268C10.088 7.124 9.92 7.052 9.72 7.052C9.512 7.052 9.34 7.124 9.204 7.268C9.068 7.404 9 7.572 9 7.772V8.5269C8.55561 8.59343 8.15961 8.7218 7.812 8.912C7.396 9.144 7.068 9.448 6.828 9.824C6.596 10.2 6.48 10.628 6.48 11.108C6.48 11.724 6.66 12.228 7.02 12.62C7.38 13.004 7.928 13.276 8.664 13.436L9.984 13.724C10.256 13.78 10.472 13.852 10.632 13.94C10.8 14.02 10.916 14.116 10.98 14.228C11.052 14.34 11.088 14.468 11.088 14.612C11.088 14.788 11.036 14.944 10.932 15.08C10.836 15.216 10.676 15.328 10.452 15.416C10.228 15.496 9.932 15.536 9.564 15.536C9.068 15.536 8.648 15.484 8.304 15.38C7.96 15.268 7.692 15.16 7.5 15.056C7.3 14.952 7.12 14.92 6.96 14.96C6.808 15 6.684 15.084 6.588 15.212C6.492 15.332 6.436 15.476 6.42 15.644C6.404 15.804 6.428 15.96 6.492 16.112C6.564 16.264 6.688 16.384 6.864 16.472C7.136 16.616 7.476 16.748 7.884 16.868C8.21003 16.9639 8.58203 17.0266 9 17.0561V17.768C9 17.968 9.068 18.136 9.204 18.272C9.34 18.416 9.512 18.488 9.72 18.488Z" fill="currentColor"/>
</svg>
