<svg viewBox="0 0 24 24" fill="currentColor" xmlns="http://www.w3.org/2000/svg">
<path d="M8.40266 3.36735C8.75211 3.58973 8.85513 4.0533 8.63275 4.40275L6.34353 8.00009H17.6565L15.3673 4.40275C15.1449 4.0533 15.2479 3.58973 15.5973 3.36735C15.9468 3.14497 16.4104 3.24798 16.6327 3.59744L19.4344 8.00009H21C21.5523 8.00009 22 8.44781 22 9.00009V10.0001C22 10.5524 21.5523 11.0001 21 11.0001H20L18.8412 19.2774C18.7029 20.2652 17.8579 21.0001 16.8605 21.0001H7.1395C6.14207 21.0001 5.29711 20.2652 5.15882 19.2774L4 11.0001H3C2.44772 11.0001 2 10.5524 2 10.0001V9.00009C2 8.44781 2.44772 8.00009 3 8.00009H4.56556L7.36725 3.59744C7.58963 3.24798 8.0532 3.14497 8.40266 3.36735ZM8.75 15.5001C8.75 15.9143 9.08579 16.2501 9.5 16.2501H14.5C14.9142 16.2501 15.25 15.9143 15.25 15.5001C15.25 15.0859 14.9142 14.7501 14.5 14.7501H9.5C9.08579 14.7501 8.75 15.0859 8.75 15.5001Z" fill="currentColor"/>
</svg>
