<svg viewBox="0 0 24 24" fill="currentColor" xmlns="http://www.w3.org/2000/svg">
<path d="M10.0545 10.4387L9.54449 12.5445H10.618L10.083 10.4387H10.0545Z" fill="currentColor"/>
<path d="M4 5C2.89543 5 2 5.89543 2 7V17C2 18.1046 2.89543 19 4 19H20C21.1046 19 22 18.1046 22 17V7C22 5.89543 21.1046 5 20 5H4ZM7.37606 13.0469C7.37606 14.2405 6.54864 15 5.12919 15C3.97008 15 3.29958 14.5298 3.07846 13.9632C3.02497 13.8305 3 13.6939 3 13.5613C3 13.1514 3.27462 12.8701 3.6491 12.8701C3.93442 12.8701 4.12701 12.9705 4.3303 13.292C4.50862 13.5774 4.8082 13.6939 5.14702 13.6939C5.59996 13.6939 5.87815 13.4849 5.87815 13.1996C5.87815 12.9263 5.67842 12.8098 5.10065 12.6932L4.58351 12.5887C3.55994 12.3838 3 11.8011 3 10.9009C3 9.73543 3.89162 9 5.11492 9C6.13493 9 6.86606 9.40589 7.13354 10.1293C7.17634 10.2458 7.19774 10.3543 7.19774 10.4869C7.19774 10.8727 6.94809 11.134 6.57004 11.138C6.24906 11.138 6.04577 11.0134 5.86388 10.704C5.69626 10.4146 5.4573 10.3061 5.13275 10.3061C4.71191 10.3061 4.49792 10.5151 4.49792 10.7763C4.49792 11.0375 4.71904 11.1621 5.23261 11.2666L5.74975 11.3711C6.85536 11.5961 7.37606 12.1065 7.37606 13.0469ZM9.17 14.1802C9.02734 14.7629 8.79909 15 8.38894 15C7.90747 15 7.61859 14.6906 7.61859 14.1762C7.61859 14.0275 7.65782 13.8104 7.72558 13.6055L8.87755 10.0208C9.09867 9.31748 9.47315 9 10.0759 9C10.7214 9 11.0923 9.30543 11.3242 10.0208L12.4868 13.6055C12.5582 13.8265 12.5867 13.9873 12.5867 14.1721C12.5867 14.6544 12.2693 15 11.8306 15C11.3848 15 11.153 14.7709 11.0246 14.2083L10.9354 13.8145H9.25916L9.17 14.1802ZM13.9526 14.8995C13.4712 14.8995 13.1966 14.578 13.1966 14.0074V9.89216C13.1966 9.3215 13.4712 9 13.9526 9C14.4341 9 14.7087 9.3215 14.7087 9.89216V13.5412H16.1318C16.5312 13.5412 16.7987 13.7863 16.7987 14.2204C16.7987 14.6544 16.5383 14.8995 16.1318 14.8995H13.9526ZM20.3331 14.8995H18.0541C17.5726 14.8995 17.298 14.578 17.298 14.0074V9.99263C17.298 9.42197 17.5726 9.10047 18.0541 9.10047H20.3331C20.7396 9.10047 21 9.34561 21 9.77964C21 10.2137 20.7325 10.4588 20.3331 10.4588H18.8102V11.3912H20.2724C20.6327 11.3912 20.868 11.6122 20.868 12.002C20.868 12.3918 20.6398 12.6129 20.2724 12.6129H18.8102V13.5412H20.3331C20.7325 13.5412 21 13.7863 21 14.2204C21 14.6544 20.7396 14.8995 20.3331 14.8995Z" fill="currentColor"/>
</svg>
