<svg viewBox="0 0 24 24" fill="currentColor" xmlns="http://www.w3.org/2000/svg">
<path d="M5.1744 5.08479C5.05918 4.50759 5.46172 3.95838 6.04137 4.00249C7.09739 4.08286 8.47395 4.41949 9.39908 5.35672C10.175 5.13063 11.0041 5.00833 11.8654 5.00833C15.3247 5.00833 18.2641 6.9811 19.3301 9.72669C19.7762 9.69811 20.1829 9.3795 20.3936 8.8919C20.6135 8.38329 20.5466 7.867 20.2212 7.53726C19.9322 7.24453 19.9322 6.76992 20.2212 6.47719C20.5101 6.18446 20.9786 6.18446 21.2675 6.47719C22.1259 7.34678 22.1499 8.56607 21.7492 9.4932C21.4006 10.2997 20.6747 11.0195 19.7049 11.1899C19.7398 11.4571 19.7578 11.7289 19.7578 12.0044C19.7578 13.5768 19.1726 15.028 18.1848 16.1963L18.5934 18.8463C18.6868 19.4524 18.2242 20 17.6187 20H15.3851C15.0378 20 14.716 19.815 14.538 19.5129L14.0727 18.7233C13.3722 18.9038 12.6316 19.0005 11.8654 19.0005C11.5789 19.0005 11.2958 18.987 11.0172 18.9606L10.6746 19.5245C10.495 19.82 10.177 20 9.83442 20H7.63955C7.01808 20 6.55141 19.4249 6.67165 18.8072L6.93272 17.4661C5.82926 16.682 4.96854 15.6405 4.46636 14.4444L2.63024 13.724C2.25038 13.5749 2 13.2047 2 12.792V11.177C2 10.7574 2.25869 10.3825 2.64765 10.2384L4.46636 9.56445C4.75901 8.86739 5.17343 8.22287 5.6867 7.65119L5.1744 5.08479Z" fill="currentColor"/>
</svg>
