<svg viewBox="0 0 24 24" fill="currentColor" xmlns="http://www.w3.org/2000/svg">
<path d="M16.6786 14C15.1992 14 14 15.1992 14 16.6786C14 18.1579 15.1992 19.3571 16.6786 19.3571C17.4184 19.3571 18.0871 19.0582 18.5726 18.5726C19.0582 18.0871 19.3571 17.4184 19.3571 16.6786C19.3571 15.1992 18.1579 14 16.6786 14ZM12.5 16.6786C12.5 14.3708 14.3708 12.5 16.6786 12.5C18.9863 12.5 20.8571 14.3708 20.8571 16.6786C20.8571 17.5612 20.5829 18.3806 20.1158 19.0552L21.7803 20.7197C22.0732 21.0126 22.0732 21.4874 21.7803 21.7803C21.4874 22.0732 21.0126 22.0732 20.7197 21.7803L19.0552 20.1158C18.3806 20.5829 17.5612 20.8571 16.6786 20.8571C14.3708 20.8571 12.5 18.9863 12.5 16.6786Z" fill="currentColor"/>
<path d="M7.64856 2H4.67703C4.26813 2 3.90042 2.24895 3.74856 2.62861L2.2 6.5H6.36285L7.64856 2Z" fill="currentColor"/>
<path d="M7.92287 6.5H16.0771L14.7914 2H9.20858L7.92287 6.5Z" fill="currentColor"/>
<path d="M21.8 6.5H17.6372L16.3514 2H19.323C19.7319 2 20.0996 2.24895 20.2514 2.62861L21.8 6.5Z" fill="currentColor"/>
<path d="M20.0028 11C20.9335 10.9987 21.7152 10.3618 21.937 9.5C21.9781 9.34019 22 9.17265 22 9V8H2V9C2 9.17265 2.02188 9.34019 2.06301 9.5C2.27115 10.3087 2.97239 10.9194 3.82711 10.9926C3.88409 10.9975 3.94176 11 4 11H6.00279C6.35308 10.9995 6.68225 10.909 6.96842 10.7503C7.44259 10.4874 7.79867 10.0374 7.93699 9.5L8 9L8.06301 9.5C8.20133 10.0374 8.55741 10.4874 9.03158 10.7503C9.31775 10.909 9.64692 10.9995 9.99721 11H14.0028C14.3531 10.9995 14.6823 10.909 14.9684 10.7503C15.4426 10.4874 15.7987 10.0374 15.937 9.5L16 9L16.063 9.5C16.2013 10.0374 16.5574 10.4874 17.0316 10.7503C17.3177 10.909 17.6469 10.9995 17.9972 11H20.0028Z" fill="currentColor"/>
<path d="M3 12.3551V21C3 21.5523 3.44772 22 4 22H5V16C5 15.4477 5.44772 15 6 15H9C9.55228 15 10 15.4477 10 16V22H14.6921C12.5356 21.1946 11 19.1159 11 16.6786C11 15.0257 11.7062 13.5377 12.8333 12.5H10C9.25638 12.5 8.56692 12.2681 8 11.8727C7.43308 12.2681 6.74362 12.5 6 12.5H4C3.65251 12.5 3.31685 12.4494 3 12.3551Z" fill="currentColor"/>
</svg>
