<svg viewBox="0 0 24 24" fill="currentColor" xmlns="http://www.w3.org/2000/svg">
<path d="M9.8856 3.18353C9.65532 3.26207 9.5 3.48257 9.5 3.73092V5.30673C9.5 7.80714 11.0002 10.0511 13.2778 10.9574C13.4207 11.0142 13.5793 11.0142 13.7222 10.9574C15.9998 10.0511 17.5 7.80714 17.5 5.30673V3.73092C17.5 3.48257 17.3447 3.26207 17.1144 3.18353L13.7811 2.04667C13.5986 1.98444 13.4014 1.98444 13.2189 2.04667L9.8856 3.18353Z" fill="currentColor"/>
<path d="M8 5.30673C8 8.40514 9.85981 11.2117 12.7233 12.3511C13.2223 12.5496 13.7777 12.5496 14.2767 12.3511C17.1402 11.2117 19 8.40514 19 5.30673V4.90925H20.3498C21.4229 4.90925 22.2102 5.94675 21.9499 7.01777L20.7147 12.1014C20.4262 13.2885 19.3895 14.1213 18.2002 14.1213H8.28178L8.56361 15.5711C8.67375 16.1376 9.15726 16.5455 9.71885 16.5455H17.787C18.1774 16.5455 18.4938 16.8711 18.4938 17.2727C18.4938 17.6744 18.1774 18 17.787 18H9.71885C8.48336 18 7.41962 17.1028 7.17732 15.8563L5.0299 4.80946C4.96308 4.46575 4.72239 4.18522 4.39918 4.07437L2.48353 3.4174C2.11317 3.29039 1.91301 2.87853 2.03647 2.49748C2.15992 2.11643 2.56023 1.9105 2.93059 2.03752L4.84624 2.69449C5.65075 2.97039 6.24988 3.66866 6.41619 4.5242L6.49104 4.90925H8V5.30673Z" fill="currentColor"/>
<path d="M11 20.5C11 21.3284 10.3284 22 9.5 22C8.67157 22 8 21.3284 8 20.5C8 19.6716 8.67157 19 9.5 19C10.3284 19 11 19.6716 11 20.5Z" fill="currentColor"/>
<path d="M18 20.5C18 21.3284 17.3284 22 16.5 22C15.6716 22 15 21.3284 15 20.5C15 19.6716 15.6716 19 16.5 19C17.3284 19 18 19.6716 18 20.5Z" fill="currentColor"/>
</svg>
