<svg viewBox="0 0 24 24" fill="currentColor" xmlns="http://www.w3.org/2000/svg">
<path d="M3.86759 4.63008C3.34947 4.8046 3 5.29459 3 5.84649V9.34829C3 14.9048 6.37552 19.8913 11.5001 21.9052C11.8216 22.0316 12.1784 22.0316 12.4999 21.9052C17.6245 19.8913 21 14.9048 21 9.34829V5.84649C21 5.29459 20.6505 4.80461 20.1324 4.63008L12.6325 2.10372C12.2219 1.96543 11.7781 1.96543 11.3675 2.10372L3.86759 4.63008ZM11.3981 17.6452C11.2394 17.4848 11.1601 17.2867 11.1601 17.051V16.2116C10.6725 16.1768 10.2385 16.1029 9.85809 15.9899C9.38209 15.8484 8.98542 15.6928 8.66809 15.523C8.46276 15.4193 8.31809 15.2778 8.23409 15.0986C8.15942 14.9194 8.13142 14.7354 8.15009 14.5468C8.16876 14.3487 8.23409 14.179 8.34609 14.0375C8.45809 13.8866 8.60276 13.7875 8.78009 13.7404C8.96676 13.6932 9.17676 13.731 9.41009 13.8536C9.63409 13.9762 9.94676 14.1035 10.3481 14.2356C10.7494 14.3582 11.2394 14.4195 11.8181 14.4195C12.2474 14.4195 12.5928 14.3723 12.8541 14.278C13.1154 14.1743 13.3021 14.0422 13.4141 13.8819C13.5354 13.7215 13.5961 13.5376 13.5961 13.3301C13.5961 13.1603 13.5541 13.0094 13.4701 12.8774C13.3954 12.7453 13.2601 12.6322 13.0641 12.5378C12.8774 12.4341 12.6254 12.3492 12.3081 12.2832L10.7681 11.9436C9.90942 11.755 9.27009 11.4343 8.85009 10.9816C8.43009 10.5194 8.22009 9.92522 8.22009 9.19898C8.22009 8.63307 8.35542 8.12847 8.62609 7.68517C8.90609 7.24188 9.28876 6.88347 9.77409 6.60995C10.1796 6.3857 10.6416 6.23436 11.1601 6.15593V5.26591C11.1601 5.03012 11.2394 4.83205 11.3981 4.67171C11.5568 4.50194 11.7574 4.41705 12.0001 4.41705C12.2334 4.41705 12.4294 4.50194 12.5881 4.67171C12.7468 4.83205 12.8261 5.03012 12.8261 5.26591V6.11848C13.1063 6.15541 13.4003 6.22019 13.7081 6.31284C14.1561 6.43546 14.5434 6.61466 14.8701 6.85046C15.0474 6.96364 15.1688 7.10511 15.2341 7.27489C15.3088 7.44466 15.3274 7.61443 15.2901 7.78421C15.2621 7.95398 15.1921 8.10489 15.0801 8.23693C14.9681 8.35954 14.8188 8.43972 14.6321 8.47744C14.4548 8.50574 14.2448 8.45858 14.0021 8.33597C13.7501 8.21335 13.4748 8.1096 13.1761 8.02472C12.8774 7.93983 12.5088 7.89739 12.0701 7.89739C11.5194 7.89739 11.0901 8.01057 10.7821 8.23693C10.4834 8.46329 10.3341 8.75568 10.3341 9.11409C10.3341 9.37818 10.4228 9.5904 10.6001 9.75074C10.7868 9.91108 11.1088 10.0431 11.5661 10.1469L13.1201 10.4864C14.0068 10.6845 14.6601 11.0052 15.0801 11.4485C15.5094 11.8918 15.7241 12.4671 15.7241 13.1745C15.7241 13.731 15.5888 14.2261 15.3181 14.66C15.0474 15.0844 14.6741 15.4287 14.1981 15.6928C13.7971 15.9153 13.3397 16.0708 12.8261 16.1594V17.051C12.8261 17.2867 12.7468 17.4848 12.5881 17.6452C12.4388 17.8149 12.2428 17.8998 12.0001 17.8998C11.7574 17.8998 11.5568 17.8149 11.3981 17.6452Z" fill="currentColor"/>
</svg>
