<svg viewBox="0 0 24 24" fill="currentColor" xmlns="http://www.w3.org/2000/svg">
<path d="M4.23638 4.66346C3.55355 4.66346 3 5.23133 3 5.93182V9.15651C3 14.7972 6.37552 19.8593 11.5001 21.9038C11.8216 22.0321 12.1784 22.0321 12.4999 21.9038C17.6245 19.8593 21 14.7972 21 9.15651V5.93182C21 5.23133 20.4465 4.66346 19.7636 4.66346H18.9222C17.3428 4.66346 15.7987 4.18386 14.4846 3.28511L13.1094 2.34459C12.4376 1.88514 11.5624 1.88514 10.8906 2.34459L9.5154 3.28511C8.20126 4.18386 6.65719 4.66346 5.0778 4.66346H4.23638ZM11.398 18.605C11.2393 18.4422 11.16 18.2412 11.16 18.0018V17.1497C10.6724 17.1144 10.2384 17.0394 9.858 16.9246C9.382 16.781 8.98533 16.623 8.668 16.4507C8.46267 16.3454 8.318 16.2017 8.234 16.0198C8.15933 15.8379 8.13133 15.6512 8.15 15.4597C8.16867 15.2586 8.234 15.0863 8.346 14.9427C8.458 14.7895 8.60267 14.6889 8.78 14.6411C8.96667 14.5932 9.17667 14.6315 9.41 14.756C9.634 14.8804 9.94667 15.0097 10.348 15.1437C10.7493 15.2682 11.2393 15.3304 11.818 15.3304C12.2473 15.3304 12.5927 15.2826 12.854 15.1868C13.1153 15.0815 13.302 14.9475 13.414 14.7847C13.5353 14.6219 13.596 14.4352 13.596 14.2246C13.596 14.0522 13.554 13.899 13.47 13.765C13.3953 13.6309 13.26 13.516 13.064 13.4203C12.8773 13.315 12.6253 13.2288 12.308 13.1618L10.768 12.8171C9.90933 12.6256 9.27 12.3 8.85 11.8404C8.43 11.3713 8.22 10.7681 8.22 10.0308C8.22 9.45632 8.35533 8.94407 8.626 8.49405C8.906 8.04404 9.28867 7.6802 9.774 7.40253C10.1795 7.17489 10.6415 7.02126 11.16 6.94163V6.03812C11.16 5.79876 11.2393 5.59769 11.398 5.43491C11.5567 5.26257 11.7573 5.1764 12 5.1764C12.2333 5.1764 12.4293 5.26257 12.588 5.43491C12.7467 5.59769 12.826 5.79876 12.826 6.03812V6.90361C13.1062 6.9411 13.4002 7.00687 13.708 7.10092C14.156 7.2254 14.5433 7.40732 14.87 7.64669C15.0473 7.76158 15.1687 7.90521 15.234 8.07755C15.3087 8.2499 15.3273 8.42224 15.29 8.59459C15.262 8.76694 15.192 8.92013 15.08 9.05418C14.968 9.17865 14.8187 9.26004 14.632 9.29833C14.4547 9.32706 14.2447 9.27919 14.002 9.15471C13.75 9.03024 13.4747 8.92492 13.176 8.83875C12.8773 8.75257 12.5087 8.70949 12.07 8.70949C11.5193 8.70949 11.09 8.82438 10.782 9.05418C10.4833 9.28397 10.334 9.58079 10.334 9.94463C10.334 10.2127 10.4227 10.4282 10.6 10.5909C10.7867 10.7537 11.1087 10.8877 11.566 10.9931L13.12 11.3378C14.0067 11.5388 14.66 11.8644 15.08 12.3144C15.5093 12.7644 15.724 13.3485 15.724 14.0666C15.724 14.6315 15.5887 15.1342 15.318 15.5746C15.0473 16.0055 14.674 16.3549 14.198 16.623C13.797 16.8489 13.3396 17.0068 12.826 17.0968V18.0018C12.826 18.2412 12.7467 18.4422 12.588 18.605C12.4387 18.7774 12.2427 18.8635 12 18.8635C11.7573 18.8635 11.5567 18.7774 11.398 18.605Z" fill="currentColor"/>
</svg>
