<svg viewBox="0 0 24 24" fill="currentColor" xmlns="http://www.w3.org/2000/svg">
<path d="M1.76743 4V7C1.76743 7.55228 2.22556 8 2.79069 8H12C12.5651 8 13.0233 7.55228 13.0233 7V4C13.0233 3.44772 12.5651 3 12 3H2.79069C2.22556 3 1.76743 3.44772 1.76743 4ZM4.32557 4.25C4.74942 4.25 5.09301 4.58579 5.09301 5V6C5.09301 6.41421 4.74942 6.75 4.32557 6.75C3.90172 6.75 3.55813 6.41421 3.55813 6V5C3.55813 4.58579 3.90172 4.25 4.32557 4.25ZM7.39534 4.25C7.81919 4.25 8.16278 4.58579 8.16278 5V6C8.16278 6.41421 7.81919 6.75 7.39534 6.75C6.97149 6.75 6.6279 6.41421 6.6279 6V5C6.6279 4.58579 6.97149 4.25 7.39534 4.25ZM10.4651 4.25C10.889 4.25 11.2326 4.58579 11.2326 5V6C11.2326 6.41421 10.889 6.75 10.4651 6.75C10.0413 6.75 9.69766 6.41421 9.69766 6V5C9.69766 4.58579 10.0413 4.25 10.4651 4.25Z" fill="currentColor"/>
<path d="M1 14C1 13.5858 1.3436 13.25 1.76744 13.25H1.79968C1.77863 13.1701 1.76744 13.0863 1.76744 13V10C1.76744 9.44771 2.22557 9 2.7907 9H12C12.5651 9 13.0233 9.44771 13.0233 10V13C13.0233 13.0863 13.0121 13.1701 12.991 13.25H14.0787C14.0577 13.1701 14.0465 13.0863 14.0465 13V8C14.0465 7.44772 14.5046 7 15.0698 7H20.186C20.7512 7 21.2093 7.44772 21.2093 8V13C21.2093 13.0863 21.1981 13.1701 21.1771 13.25H22.2326C22.6564 13.25 23 13.5858 23 14C23 14.4142 22.6564 14.75 22.2326 14.75H21.6844L20.588 16.25H2.09635L1.87708 14.75H1.76744C1.3436 14.75 1 14.4142 1 14ZM5.09302 11C5.09302 10.5858 4.74943 10.25 4.32558 10.25C3.90173 10.25 3.55814 10.5858 3.55814 11V12C3.55814 12.4142 3.90173 12.75 4.32558 12.75C4.74943 12.75 5.09302 12.4142 5.09302 12V11ZM8.16279 11C8.16279 10.5858 7.8192 10.25 7.39535 10.25C6.9715 10.25 6.62791 10.5858 6.62791 11V12C6.62791 12.4142 6.9715 12.75 7.39535 12.75C7.8192 12.75 8.16279 12.4142 8.16279 12V11ZM11.2326 11C11.2326 10.5858 10.889 10.25 10.4651 10.25C10.0413 10.25 9.69767 10.5858 9.69767 11V12C9.69767 12.4142 10.0413 12.75 10.4651 12.75C10.889 12.75 11.2326 12.4142 11.2326 12V11ZM15.8372 9C15.8372 9.41421 16.1808 9.75 16.6047 9.75H18.6512C19.075 9.75 19.4186 9.41421 19.4186 9C19.4186 8.58579 19.075 8.25 18.6512 8.25H16.6047C16.1808 8.25 15.8372 8.58579 15.8372 9ZM15.8372 11.5C15.8372 11.9142 16.1808 12.25 16.6047 12.25H18.6512C19.075 12.25 19.4186 11.9142 19.4186 11.5C19.4186 11.0858 19.075 10.75 18.6512 10.75H16.6047C16.1808 10.75 15.8372 11.0858 15.8372 11.5Z" fill="currentColor"/>
<path d="M19.4917 17.75H2.31561L2.66519 20.1414C2.73721 20.6341 3.16894 21 3.67816 21H15.0099C16.3318 21 17.5723 20.3761 18.3406 19.325L19.4917 17.75Z" fill="currentColor"/>
</svg>
