<svg viewBox="0 0 24 24" fill="currentColor" xmlns="http://www.w3.org/2000/svg">
<path d="M13.7304 2.99997L11.75 3V2C11.75 1.58579 11.4142 1.25 11 1.25C10.5858 1.25 10.25 1.58579 10.25 2V3H8.00003C7.44774 3 7.00003 3.44772 7.00003 4V6H6.00003C5.44774 6 5.00003 6.44772 5.00003 7V10.4191L9.89324 8.78801C10.6117 8.54853 11.3884 8.54853 12.1068 8.78801L12.9493 9.06883C12.8346 8.80472 12.7727 8.51601 12.7727 8.21838V4.78174C12.7727 4.0615 13.1353 3.39352 13.7304 2.99997Z" fill="currentColor"/>
<path d="M10.25 10.2502L2.9046 12.6987C2.3982 12.8675 2.11365 13.4043 2.25817 13.9181L3.93228 19.8705C3.52186 19.9568 3.12705 20.1379 2.78212 20.4139L1.53151 21.4143C1.20806 21.6731 1.15562 22.1451 1.41438 22.4685C1.67313 22.792 2.1451 22.8444 2.46855 22.5856L3.71916 21.5852C4.17541 21.2202 4.82471 21.2202 5.28151 21.5856C6.28586 22.3891 7.7142 22.3891 8.71855 21.5856C9.17507 21.2204 9.82498 21.2204 10.2815 21.5856C11.2859 22.3891 12.7142 22.3891 13.7185 21.5856C14.1751 21.2204 14.825 21.2204 15.2815 21.5856C16.2859 22.3891 17.7142 22.3891 18.7185 21.5856C19.1753 21.2202 19.8246 21.2202 20.2809 21.5852L21.5315 22.5856C21.855 22.8444 22.3269 22.792 22.5857 22.4685C22.8444 22.1451 22.792 21.6731 22.4685 21.4143L21.2179 20.4139C20.2682 19.6541 18.9404 19.6134 17.9498 20.2898L19.7419 13.9181C19.8864 13.4043 19.6018 12.8675 19.0954 12.6987L11.75 10.2502V20.6631C11.5603 20.6246 11.3777 20.5416 11.2185 20.4143C10.9249 20.1794 10.595 20.0132 10.25 19.9156V10.2502Z" fill="currentColor"/>
<path d="M18.4457 2.25054C18.169 2.09487 17.831 2.09487 17.5543 2.25054L14.4634 3.98917C14.4297 4.00814 14.3975 4.02908 14.3669 4.05179L17.9091 5.94095L21.552 3.99805C21.5469 3.99505 21.5418 3.99209 21.5366 3.98917L18.4457 2.25054Z" fill="currentColor"/>
<path d="M22 5.15005L18.5227 7.0046V10.7058L21.5366 9.01051C21.8229 8.84949 22 8.5466 22 8.21817V5.15005Z" fill="currentColor"/>
<path d="M17.2954 10.6035V7.00458L14 5.24701V8.21815C14 8.54658 14.1771 8.84947 14.4634 9.01049L17.2954 10.6035Z" fill="currentColor"/>
</svg>
