<svg viewBox="0 0 24 24" fill="currentColor" xmlns="http://www.w3.org/2000/svg">
<path d="M18.848 2.35681L22.0438 7.47001C22.46 8.13606 21.9812 9.00001 21.1958 9.00001H14.8042C14.0188 9.00001 13.54 8.13606 13.9562 7.47001L17.152 2.35681C17.5437 1.73014 18.4563 1.73014 18.848 2.35681ZM18.75 3.99022C18.75 3.57601 18.4142 3.24022 18 3.24022C17.5858 3.24022 17.25 3.57601 17.25 3.99022V5.49022C17.25 5.90444 17.5858 6.24022 18 6.24022C18.4142 6.24022 18.75 5.90444 18.75 5.49022V3.99022ZM18.75 7.49022C18.75 7.07601 18.4142 6.74022 18 6.74022C17.5858 6.74022 17.25 7.07601 17.25 7.49022V7.50022C17.25 7.91444 17.5858 8.25022 18 8.25022C18.4142 8.25022 18.75 7.91444 18.75 7.50022V7.49022Z" fill="currentColor"/>
<path d="M14.7028 3.44534C14.5739 3.04202 14.1961 2.74997 13.75 2.74997L11.5 2.75V1.75C11.5 1.33579 11.1642 1 10.75 1C10.3358 1 10 1.33579 10 1.75V2.75H7.75003C7.19774 2.75 6.75003 3.19772 6.75003 3.75V5.75H5.75003C5.19774 5.75 4.75003 6.19772 4.75003 6.75V10.1691L9.64324 8.53801C10.3617 8.29853 11.1384 8.29853 11.8568 8.53801L12.4097 8.7223C12.2109 8.07228 12.2719 7.33476 12.6843 6.67493L14.7028 3.44534Z" fill="currentColor"/>
<path d="M10 10.0002L2.6546 12.4487C2.1482 12.6175 1.86365 13.1543 2.00817 13.6681L3.68228 19.6205C3.27186 19.7068 2.87705 19.8879 2.53212 20.1639L1.28151 21.1643C0.958059 21.4231 0.905618 21.8951 1.16438 22.2185C1.42313 22.542 1.8951 22.5944 2.21855 22.3356L3.46916 21.3352C3.92541 20.9702 4.57471 20.9702 5.03151 21.3356C6.03586 22.1391 7.4642 22.1391 8.46855 21.3356C8.92507 20.9704 9.57498 20.9704 10.0315 21.3356C11.0359 22.1391 12.4642 22.1391 13.4685 21.3356C13.9251 20.9704 14.575 20.9704 15.0315 21.3356C16.0359 22.1391 17.4642 22.1391 18.4685 21.3356C18.9253 20.9702 19.5746 20.9702 20.0309 21.3352L21.2815 22.3356C21.605 22.5944 22.0769 22.542 22.3357 22.2185C22.5944 21.8951 22.542 21.4231 22.2185 21.1643L20.9679 20.1639C20.0182 19.4041 18.6904 19.3634 17.6998 20.0398L19.4919 13.6681C19.6364 13.1543 19.3518 12.6175 18.8454 12.4487L11.5 10.0002V20.4131C11.3103 20.3746 11.1277 20.2916 10.9685 20.1643C10.6749 19.9294 10.345 19.7632 10 19.6656V10.0002Z" fill="currentColor"/>
</svg>
