<svg viewBox="0 0 24 24" fill="currentColor" xmlns="http://www.w3.org/2000/svg">
<path fill-rule="evenodd" clip-rule="evenodd" d="M16.1272 4.66852C16.409 4.43829 16.8243 4.44167 17.103 4.69276C17.4108 4.96999 17.4355 5.44422 17.1583 5.75198L15.8071 7.25198C15.6694 7.40481 15.475 7.49439 15.2694 7.49975C15.0637 7.5051 14.8649 7.42576 14.7195 7.2803L13.2196 5.7803C12.9268 5.48739 12.9268 5.01252 13.2197 4.71964C13.5126 4.42676 13.9875 4.42679 14.2804 4.7197L14.4501 4.88951C14.8388 3.23286 16.3253 2 18.1011 2C20.173 2 21.8511 3.67838 21.8511 5.75C21.8511 7.82162 20.173 9.5 18.1011 9.5C17.6869 9.5 17.3511 9.16421 17.3511 8.75C17.3511 8.33579 17.6869 8 18.1011 8C19.3446 8 20.3511 6.99325 20.3511 5.75C20.3511 4.50674 19.3446 3.5 18.1011 3.5C17.2497 3.5 16.5095 3.9719 16.1272 4.66852Z" fill="currentColor"/>
<path d="M13.6282 2.99997L13.6261 3.0034C13.0923 3.03266 12.5669 3.25117 12.1591 3.65892C11.2804 4.53755 11.2803 5.96217 12.1589 6.8409L13.6588 8.3409C14.0951 8.77729 14.6915 9.0153 15.3084 8.99924C15.4957 8.99436 15.6799 8.96619 15.8572 8.9165C15.8934 9.41199 16.0901 9.86292 16.3955 10.2176L12.1068 8.78801C11.3884 8.54853 10.6117 8.54853 9.89324 8.78801L5.00003 10.4191V7C5.00003 6.44772 5.44774 6 6.00003 6H7.00003V4C7.00003 3.44772 7.44774 3 8.00003 3H10.25V2C10.25 1.58579 10.5858 1.25 11 1.25C11.4142 1.25 11.75 1.58579 11.75 2V3L13.6282 2.99997Z" fill="currentColor"/>
<path d="M10.25 10.2502L2.9046 12.6987C2.3982 12.8675 2.11365 13.4043 2.25817 13.9181L3.93228 19.8705C3.52186 19.9568 3.12705 20.1379 2.78212 20.4139L1.53151 21.4143C1.20806 21.6731 1.15562 22.1451 1.41438 22.4685C1.67313 22.792 2.1451 22.8444 2.46855 22.5856L3.71916 21.5852C4.17541 21.2202 4.82471 21.2202 5.28151 21.5856C6.28586 22.3891 7.7142 22.3891 8.71855 21.5856C9.17507 21.2204 9.82498 21.2204 10.2815 21.5856C11.2859 22.3891 12.7142 22.3891 13.7185 21.5856C14.1751 21.2204 14.825 21.2204 15.2815 21.5856C16.2859 22.3891 17.7142 22.3891 18.7185 21.5856C19.1753 21.2202 19.8246 21.2202 20.2809 21.5852L21.5315 22.5856C21.855 22.8444 22.3269 22.792 22.5857 22.4685C22.8444 22.1451 22.792 21.6731 22.4685 21.4143L21.2179 20.4139C20.2682 19.6541 18.9404 19.6134 17.9498 20.2898L19.7419 13.9181C19.8864 13.4043 19.6018 12.8675 19.0954 12.6987L11.75 10.2502V20.6631C11.5603 20.6246 11.3777 20.5416 11.2185 20.4143C10.9249 20.1794 10.595 20.0132 10.25 19.9156V10.2502Z" fill="currentColor"/>
</svg>
