<svg viewBox="0 0 24 24" fill="currentColor" xmlns="http://www.w3.org/2000/svg">
<path d="M14.5828 2.5513C13.8057 3.28636 13.8057 4.47814 14.5828 5.2132L17.196 7.68497C17.64 8.10501 18.36 8.10501 18.804 7.68497L21.4172 5.2132C22.1943 4.47814 22.1943 3.28636 21.4172 2.5513C20.6401 1.81623 19.3801 1.81623 18.603 2.5513L18 3.12171L17.397 2.5513C16.6199 1.81623 15.3599 1.81623 14.5828 2.5513Z" fill="currentColor"/>
<path d="M12.6201 2.99999C12.3031 4.1426 12.6137 5.41536 13.5521 6.30293L16.1652 8.7747C16.4136 9.00971 16.6977 9.18761 17 9.3084V10.419L12.1068 8.78801C11.3884 8.54853 10.6117 8.54853 9.89324 8.78801L5.00003 10.4191V7C5.00003 6.44772 5.44774 6 6.00003 6H7.00003V4C7.00003 3.44772 7.44774 3 8.00003 3H10.25V2C10.25 1.58579 10.5858 1.25 11 1.25C11.4142 1.25 11.75 1.58579 11.75 2V3L12.6201 2.99999Z" fill="currentColor"/>
<path d="M10.25 10.2502L2.9046 12.6987C2.3982 12.8675 2.11365 13.4043 2.25817 13.9181L3.93228 19.8705C3.52186 19.9568 3.12705 20.1379 2.78212 20.4139L1.53151 21.4143C1.20806 21.6731 1.15562 22.1451 1.41438 22.4685C1.67313 22.792 2.1451 22.8444 2.46855 22.5856L3.71916 21.5852C4.17541 21.2202 4.82471 21.2202 5.28151 21.5856C6.28586 22.3891 7.7142 22.3891 8.71855 21.5856C9.17507 21.2204 9.82498 21.2204 10.2815 21.5856C11.2859 22.3891 12.7142 22.3891 13.7185 21.5856C14.1751 21.2204 14.825 21.2204 15.2815 21.5856C16.2859 22.3891 17.7142 22.3891 18.7185 21.5856C19.1753 21.2202 19.8246 21.2202 20.2809 21.5852L21.5315 22.5856C21.855 22.8444 22.3269 22.792 22.5857 22.4685C22.8444 22.1451 22.792 21.6731 22.4685 21.4143L21.2179 20.4139C20.2682 19.6541 18.9404 19.6134 17.9498 20.2898L19.7419 13.9181C19.8864 13.4043 19.6018 12.8675 19.0954 12.6987L11.75 10.2502V20.6631C11.5603 20.6246 11.3777 20.5416 11.2185 20.4143C10.9249 20.1794 10.595 20.0132 10.25 19.9156V10.2502Z" fill="currentColor"/>
</svg>
