<svg viewBox="0 0 24 24" fill="currentColor" xmlns="http://www.w3.org/2000/svg">
<path d="M21.7055 7.70598L21.99 6.07408C22.061 5.66648 21.7451 5.29368 21.3286 5.29368H19.2395C19.0325 5.29368 18.8748 5.10931 18.9083 4.90639L19.1755 3.28857C19.2189 3.02574 19.2065 2.7568 19.1391 2.49901C19.0833 2.28546 18.9172 2.11398 18.6987 2.04437L18.6403 2.02574C18.5083 1.98367 18.3642 1.99346 18.2397 2.05296C18.1028 2.11844 18.0025 2.23789 17.9654 2.37996L17.7736 3.1135C17.7126 3.34689 17.6237 3.57218 17.509 3.78505C17.3416 4.09607 17.0826 4.34499 16.8135 4.57508L16.2334 5.07099C16.0698 5.21082 15.9839 5.42022 16.0025 5.63376V9.00377C16.0025 9.55397 16.4485 10 16.9987 10H18.8731C20.2768 10 21.4747 9.02976 21.7055 7.70598Z" fill="currentColor"/>
<path d="M15 4.19309V3.99997C15 3.44768 14.5523 2.99997 14 2.99997L11.75 3V2C11.75 1.58579 11.4142 1.25 11 1.25C10.5858 1.25 10.25 1.58579 10.25 2V3H8.00003C7.44774 3 7.00003 3.44772 7.00003 4V6H6.00003C5.44774 6 5.00003 6.44772 5.00003 7V10.4191L9.89324 8.78801C10.6117 8.54853 11.3884 8.54853 12.1068 8.78801L14.577 9.61139C14.5283 9.41689 14.5025 9.21335 14.5025 9.00377V5.68031C14.4762 5.13536 14.657 4.60582 15 4.19309Z" fill="currentColor"/>
<path d="M10.25 10.2502L2.9046 12.6987C2.3982 12.8675 2.11365 13.4043 2.25817 13.9181L3.93228 19.8705C3.52186 19.9568 3.12705 20.1379 2.78212 20.4139L1.53151 21.4143C1.20806 21.6731 1.15562 22.1451 1.41438 22.4685C1.67313 22.792 2.1451 22.8444 2.46855 22.5856L3.71916 21.5852C4.17541 21.2202 4.82471 21.2202 5.28151 21.5856C6.28586 22.3891 7.7142 22.3891 8.71855 21.5856C9.17507 21.2204 9.82498 21.2204 10.2815 21.5856C11.2859 22.3891 12.7142 22.3891 13.7185 21.5856C14.1751 21.2204 14.825 21.2204 15.2815 21.5856C16.2859 22.3891 17.7142 22.3891 18.7185 21.5856C19.1753 21.2202 19.8246 21.2202 20.2809 21.5852L21.5315 22.5856C21.855 22.8444 22.3269 22.792 22.5857 22.4685C22.8444 22.1451 22.792 21.6731 22.4685 21.4143L21.2179 20.4139C20.2682 19.6541 18.9404 19.6134 17.9498 20.2898L19.7419 13.9181C19.8864 13.4043 19.6018 12.8675 19.0954 12.6987L11.75 10.2502V20.6631C11.5603 20.6246 11.3777 20.5416 11.2185 20.4143C10.9249 20.1794 10.595 20.0132 10.25 19.9156V10.2502Z" fill="currentColor"/>
</svg>
