<svg viewBox="0 0 24 24" fill="currentColor" xmlns="http://www.w3.org/2000/svg">
<path d="M18 10C20.2091 10 22 8.20914 22 6C22 3.79086 20.2091 2 18 2C15.7909 2 14 3.79086 14 6C14 8.20914 15.7909 10 18 10ZM18.5303 8.03033C18.2374 8.32322 17.7626 8.32322 17.4697 8.03033L14.9697 5.53033C14.6768 5.23744 14.6768 4.76256 14.9697 4.46967C15.2626 4.17678 15.7374 4.17678 16.0303 4.46967L18 6.43934L19.9697 4.46967C20.2626 4.17678 20.7374 4.17678 21.0303 4.46967C21.3232 4.76256 21.3232 5.23744 21.0303 5.53033L18.5303 8.03033Z" fill="currentColor"/>
<path d="M13.3895 3H11.75V2C11.75 1.58579 11.4142 1.25 11 1.25C10.5858 1.25 10.25 1.58579 10.25 2V3H8.00003C7.44774 3 7.00003 3.44772 7.00003 4V6H6.00003C5.44774 6 5.00003 6.44772 5.00003 7V10.4191L9.89324 8.78801C10.6117 8.54853 11.3884 8.54853 12.1068 8.78801L13.5853 9.28081C12.9035 8.3649 12.5 7.22957 12.5 6C12.5 4.89321 12.8269 3.86278 13.3895 3Z" fill="currentColor"/>
<path d="M2.9046 12.6987L10.25 10.2502V19.9156C10.595 20.0132 10.9249 20.1794 11.2185 20.4143C11.3777 20.5416 11.5603 20.6246 11.75 20.6631V10.2502L19.0954 12.6987C19.6018 12.8675 19.8864 13.4043 19.7419 13.9181L17.9498 20.2898C18.9404 19.6134 20.2682 19.6541 21.2179 20.4139L22.4685 21.4143C22.792 21.6731 22.8444 22.1451 22.5857 22.4685C22.3269 22.792 21.855 22.8444 21.5315 22.5857L20.2809 21.5852C19.8246 21.2202 19.1753 21.2202 18.7185 21.5857C17.7142 22.3891 16.2859 22.3891 15.2815 21.5857C14.825 21.2204 14.1751 21.2204 13.7185 21.5857C12.7142 22.3891 11.2859 22.3891 10.2815 21.5857C9.82498 21.2204 9.17507 21.2204 8.71855 21.5857C7.7142 22.3891 6.28586 22.3891 5.28151 21.5857C4.82471 21.2202 4.17541 21.2202 3.71916 21.5852L2.46855 22.5857C2.1451 22.8444 1.67313 22.792 1.41438 22.4685C1.15562 22.1451 1.20806 21.6731 1.53151 21.4143L2.78212 20.4139C3.12705 20.1379 3.52186 19.9568 3.93228 19.8705L2.25817 13.9181C2.11365 13.4043 2.3982 12.8675 2.9046 12.6987Z" fill="currentColor"/>
</svg>
