<svg viewBox="0 0 24 24" fill="currentColor" xmlns="http://www.w3.org/2000/svg">
<path d="M16.5005 3.5C15.0737 3.5 13.9171 4.6566 13.9171 6.08333C13.9171 7.51007 15.0737 8.66667 16.5005 8.66667C17.9272 8.66667 19.0838 7.51007 19.0838 6.08333C19.0838 4.6566 17.9272 3.5 16.5005 3.5ZM12.4171 6.08333C12.4171 3.82817 14.2453 2 16.5005 2C18.7556 2 20.5838 3.82817 20.5838 6.08333C20.5838 6.93993 20.32 7.73491 19.8693 8.39151L21.6975 10.2197C21.9904 10.5126 21.9904 10.9874 21.6975 11.2803C21.4046 11.5732 20.9297 11.5732 20.6368 11.2803L18.8086 9.45217C18.152 9.90291 17.3571 10.1667 16.5005 10.1667C14.2453 10.1667 12.4171 8.3385 12.4171 6.08333Z" fill="currentColor"/>
<path d="M11.541 8.65045C11.1423 7.88189 10.9171 7.00891 10.9171 6.08333C10.9171 4.94353 11.2587 3.8835 11.845 3H11.75V2C11.75 1.58579 11.4142 1.25 11 1.25C10.5858 1.25 10.25 1.58579 10.25 2V3H8.00003C7.44774 3 7.00003 3.44772 7.00003 4V6H6.00003C5.44774 6 5.00003 6.44772 5.00003 7V10.4191L9.89324 8.78801C10.4263 8.61033 10.9914 8.56448 11.541 8.65045Z" fill="currentColor"/>
<path d="M13.6436 10.8814L11.75 10.2502V20.6631C11.5603 20.6246 11.3777 20.5416 11.2185 20.4143C10.9249 20.1794 10.595 20.0132 10.25 19.9156V10.2502L2.9046 12.6987C2.3982 12.8675 2.11365 13.4043 2.25817 13.9181L3.93228 19.8705C3.52186 19.9568 3.12705 20.1379 2.78212 20.4139L1.53151 21.4143C1.20806 21.6731 1.15562 22.1451 1.41438 22.4685C1.67313 22.792 2.1451 22.8444 2.46855 22.5856L3.71916 21.5852C4.17541 21.2202 4.82471 21.2202 5.28151 21.5856C6.28586 22.3891 7.7142 22.3891 8.71855 21.5856C9.17507 21.2204 9.82498 21.2204 10.2815 21.5856C11.2859 22.3891 12.7142 22.3891 13.7185 21.5856C14.1751 21.2204 14.825 21.2204 15.2815 21.5856C16.2859 22.3891 17.7142 22.3891 18.7185 21.5856C19.1753 21.2202 19.8246 21.2202 20.2809 21.5852L21.5315 22.5856C21.855 22.8444 22.3269 22.792 22.5857 22.4685C22.8444 22.1451 22.792 21.6731 22.4685 21.4143L21.2179 20.4139C20.2682 19.6541 18.9404 19.6134 17.9498 20.2898L19.7419 13.9181C19.8864 13.4043 19.6018 12.8675 19.0954 12.6987L15.9054 11.6353C15.0854 11.5485 14.3184 11.2841 13.6436 10.8814Z" fill="currentColor"/>
</svg>
