<svg viewBox="0 0 24 24" fill="currentColor" xmlns="http://www.w3.org/2000/svg">
<path d="M21.5303 2.46967C21.8232 2.76256 21.8232 3.23744 21.5303 3.53033L16.5303 8.53033C16.3897 8.67098 16.1989 8.75 16 8.75C15.8011 8.75 15.6103 8.67098 15.4697 8.53033L13.4697 6.53033C13.1768 6.23744 13.1768 5.76256 13.4697 5.46967C13.7626 5.17678 14.2374 5.17678 14.5303 5.46967L16 6.93934L20.4697 2.46967C20.7626 2.17678 21.2374 2.17678 21.5303 2.46967Z" fill="currentColor"/>
<path d="M14.3556 9.53761L12.409 7.59099C11.5303 6.71231 11.5303 5.28769 12.409 4.40901C13.11 3.70804 14.1584 3.56627 14.9999 3.9837C14.9912 3.43893 14.5469 3 14 3H11.75V2C11.75 1.58579 11.4142 1.25 11 1.25C10.5858 1.25 10.25 1.58579 10.25 2V3H8.00003C7.44774 3 7.00003 3.44772 7.00003 4V6H6.00003C5.44774 6 5.00003 6.44772 5.00003 7V10.4191L9.89324 8.78801C10.6117 8.54853 11.3884 8.54853 12.1068 8.78801L14.3556 9.53761Z" fill="currentColor"/>
<path d="M10.25 10.2502L2.9046 12.6987C2.3982 12.8675 2.11365 13.4043 2.25817 13.9181L3.93228 19.8705C3.52186 19.9568 3.12705 20.1379 2.78212 20.4139L1.53151 21.4143C1.20806 21.6731 1.15562 22.1451 1.41438 22.4685C1.67313 22.792 2.1451 22.8444 2.46855 22.5857L3.71916 21.5852C4.17541 21.2202 4.82471 21.2202 5.28151 21.5857C6.28586 22.3891 7.7142 22.3891 8.71855 21.5857C9.17507 21.2204 9.82498 21.2204 10.2815 21.5857C11.2859 22.3891 12.7142 22.3891 13.7185 21.5857C14.1751 21.2204 14.825 21.2204 15.2815 21.5857C16.2859 22.3891 17.7142 22.3891 18.7185 21.5857C19.1753 21.2202 19.8246 21.2202 20.2809 21.5852L21.5315 22.5857C21.855 22.8444 22.3269 22.792 22.5857 22.4685C22.8444 22.1451 22.792 21.6731 22.4685 21.4143L21.2179 20.4139C20.2682 19.6541 18.9404 19.6134 17.9498 20.2898L19.7419 13.9181C19.8864 13.4043 19.6018 12.8675 19.0954 12.6987L11.75 10.2502V20.6631C11.5603 20.6246 11.3777 20.5416 11.2185 20.4143C10.9249 20.1794 10.595 20.0132 10.25 19.9156V10.2502Z" fill="currentColor"/>
</svg>
