<svg viewBox="0 0 24 24" fill="currentColor" xmlns="http://www.w3.org/2000/svg">
<path d="M18 10C20.2091 10 22 8.20914 22 6C22 3.79086 20.2091 2 18 2C15.7909 2 14 3.79086 14 6C14 8.20914 15.7909 10 18 10ZM18.3705 4.99728C18.6163 4.74351 18.7209 4.52882 18.7209 4.36482L18.7208 4.36194L18.7202 4.35409C18.7196 4.34738 18.7184 4.33858 18.7165 4.32794C18.7127 4.30653 18.7064 4.27988 18.6965 4.25017C18.6767 4.1903 18.6447 4.12391 18.5968 4.06383C18.5199 3.96739 18.3633 3.83559 18 3.83559C17.5927 3.83559 17.4288 3.96028 17.367 4.02568C17.3302 4.06474 17.3077 4.10566 17.2946 4.14075C17.2879 4.15839 17.2839 4.17398 17.2816 4.18621C17.2793 4.19794 17.2791 4.20518 17.2791 4.20518C17.2791 4.58027 16.9867 4.87301 16.6395 4.87301C16.2923 4.87301 16 4.58031 16 4.20522C16 3.87285 16.1238 3.44002 16.4562 3.08798C16.8029 2.72082 17.3194 2.5 18 2.5C18.7249 2.5 19.2486 2.79368 19.5799 3.20943C19.8878 3.59562 20 4.04964 20 4.36482C20 5.07887 19.5842 5.62236 19.27 5.94686C19.1025 6.11985 18.9336 6.26146 18.804 6.36506C18.7609 6.3996 18.7186 6.43265 18.6843 6.45939L18.6441 6.49092L18.6395 6.49461V6.91848C18.6395 7.29357 18.3472 7.58627 18 7.58627C17.6528 7.58627 17.3605 7.29357 17.3605 6.91848V6.43967C17.3605 6.30211 17.3659 5.90917 17.7184 5.5577C17.7695 5.50674 17.8334 5.4564 17.8708 5.42702L17.8726 5.42556L17.9223 5.38663C17.9551 5.36106 17.9886 5.33485 18.0262 5.30478C18.1368 5.21634 18.258 5.11356 18.3705 4.99728ZM18.7144 8.75485C18.7144 9.17266 18.3886 9.5 18 9.5C17.6115 9.5 17.2857 9.17266 17.2857 8.75485C17.2857 8.33704 17.6115 8.0097 18 8.0097C18.3886 8.0097 18.7144 8.33704 18.7144 8.75485Z" fill="currentColor"/>
<path d="M13.3895 3H11.75V2C11.75 1.58579 11.4142 1.25 11 1.25C10.5858 1.25 10.25 1.58579 10.25 2V3H8.00003C7.44774 3 7.00003 3.44772 7.00003 4V6H6.00003C5.44774 6 5.00003 6.44772 5.00003 7V10.4191L9.89324 8.78801C10.6117 8.54853 11.3884 8.54853 12.1068 8.78801L13.5853 9.28081C12.9035 8.3649 12.5 7.22957 12.5 6C12.5 4.89321 12.8269 3.86278 13.3895 3Z" fill="currentColor"/>
<path d="M2.9046 12.6987L10.25 10.2502V19.9156C10.595 20.0132 10.9249 20.1794 11.2185 20.4143C11.3777 20.5416 11.5603 20.6246 11.75 20.6631V10.2502L19.0954 12.6987C19.6018 12.8675 19.8864 13.4043 19.7419 13.9181L17.9498 20.2898C18.9404 19.6134 20.2682 19.6541 21.2179 20.4139L22.4685 21.4143C22.792 21.6731 22.8444 22.1451 22.5857 22.4685C22.3269 22.792 21.855 22.8444 21.5315 22.5857L20.2809 21.5852C19.8246 21.2202 19.1753 21.2202 18.7185 21.5857C17.7142 22.3891 16.2859 22.3891 15.2815 21.5857C14.825 21.2204 14.1751 21.2204 13.7185 21.5857C12.7142 22.3891 11.2859 22.3891 10.2815 21.5857C9.82498 21.2204 9.17507 21.2204 8.71855 21.5857C7.7142 22.3891 6.28586 22.3891 5.28151 21.5857C4.82471 21.2202 4.17541 21.2202 3.71916 21.5852L2.46855 22.5857C2.1451 22.8444 1.67313 22.792 1.41438 22.4685C1.15562 22.1451 1.20806 21.6731 1.53151 21.4143L2.78212 20.4139C3.12705 20.1379 3.52186 19.9568 3.93228 19.8705L2.25817 13.9181C2.11365 13.4043 2.3982 12.8675 2.9046 12.6987Z" fill="currentColor"/>
</svg>
