<svg viewBox="0 0 24 24" fill="currentColor" xmlns="http://www.w3.org/2000/svg">
<path d="M13.1507 2.99998L11.75 3V2C11.75 1.58579 11.4142 1.25 11 1.25C10.5858 1.25 10.25 1.58579 10.25 2V3H8.00003C7.44774 3 7.00003 3.44772 7.00003 4V6H6.00003C5.44774 6 5.00003 6.44772 5.00003 7V10.4191L9.89324 8.78801C10.6117 8.54853 11.3884 8.54853 12.1068 8.78801L12.5 8.91906V4.77698C12.5 4.32387 12.6231 3.87928 12.8563 3.49074L13.1507 2.99998Z" fill="currentColor"/>
<path d="M13.198 10.7329L11.75 10.2502V20.6631C11.5603 20.6246 11.3777 20.5416 11.2185 20.4143C10.9249 20.1794 10.595 20.0132 10.25 19.9156V10.2502L2.9046 12.6987C2.3982 12.8675 2.11365 13.4043 2.25817 13.9181L3.93228 19.8705C3.52186 19.9568 3.12705 20.1379 2.78212 20.4139L1.53151 21.4143C1.20806 21.6731 1.15562 22.1451 1.41438 22.4685C1.67313 22.792 2.1451 22.8444 2.46855 22.5856L3.71916 21.5852C4.17541 21.2202 4.82471 21.2202 5.28151 21.5856C6.28586 22.3891 7.7142 22.3891 8.71855 21.5856C9.17507 21.2204 9.82498 21.2204 10.2815 21.5856C11.2859 22.3891 12.7142 22.3891 13.7185 21.5856C14.1751 21.2204 14.825 21.2204 15.2815 21.5856C16.2859 22.3891 17.7142 22.3891 18.7185 21.5856C19.1753 21.2202 19.8246 21.2202 20.2809 21.5852L21.5315 22.5856C21.855 22.8444 22.3269 22.792 22.5857 22.4685C22.8444 22.1451 22.792 21.6731 22.4685 21.4143L21.2179 20.4139C20.2682 19.6541 18.9404 19.6134 17.9498 20.2898L19.7419 13.9181C19.8864 13.4043 19.6018 12.8675 19.0954 12.6987L15.4994 11.5H15C14.2921 11.5 13.6529 11.2057 13.198 10.7329Z" fill="currentColor"/>
<path d="M15.2087 2.4855C15.3894 2.1843 15.7149 2 16.0662 2H19.9338C20.2851 2 20.6106 2.1843 20.7913 2.4855L21.55 3.75H14.45L15.2087 2.4855Z" fill="currentColor"/>
<path d="M14 5.25H22V9C22 9.55228 21.5523 10 21 10H15C14.4477 10 14 9.55228 14 9V5.25ZM15.5 7.25C15.0858 7.25 14.75 7.58579 14.75 8C14.75 8.41421 15.0858 8.75 15.5 8.75H17.5C17.9142 8.75 18.25 8.41421 18.25 8C18.25 7.58579 17.9142 7.25 17.5 7.25H15.5Z" fill="currentColor"/>
</svg>
