<svg viewBox="0 0 24 24" fill="currentColor" xmlns="http://www.w3.org/2000/svg">
<path d="M12.625 7.79297H15.7578C16.1719 7.79297 16.4063 7.53906 16.4063 7.16797C16.4063 6.78906 16.1719 6.54297 15.7578 6.54297H13.9688V6.51172L14.9961 5.625C15.8711 4.86719 16.2617 4.47266 16.2617 3.71484C16.2617 2.69141 15.3867 2 14.0156 2C13.0313 2 12.2383 2.41797 11.9414 3.08984C11.8906 3.20703 11.8672 3.32812 11.8672 3.45703C11.8672 3.85547 12.125 4.10156 12.5469 4.10156C12.8633 4.10156 13.0625 3.98438 13.2813 3.66406C13.4922 3.35938 13.6953 3.22266 13.9922 3.22266C14.3945 3.22266 14.668 3.46875 14.668 3.82422C14.668 4.16016 14.4883 4.40625 13.8555 4.94922L12.3047 6.27734C11.9922 6.53906 11.8516 6.77344 11.8516 7.07812C11.8516 7.49219 12.086 7.79297 12.625 7.79297Z" fill="currentColor"/>
<path d="M20.4492 7.89062C20.8985 7.89062 21.2305 7.63672 21.2305 7.10547V6.89844H21.3555C21.7891 6.89844 22 6.63281 22 6.26562C22 5.89844 21.793 5.62891 21.3594 5.62891H21.2305V3.20703C21.2305 2.51562 20.6836 2.05859 19.8594 2.05859C19.2149 2.05859 18.832 2.3125 18.3633 3.05078C17.9297 3.73047 17.582 4.30469 17.2149 4.96484C16.9961 5.35547 16.8945 5.67188 16.8945 5.97266C16.8945 6.51953 17.3086 6.89844 17.9063 6.89844H19.668V7.10547C19.668 7.63672 19.9961 7.89062 20.4492 7.89062ZM19.7149 5.69531H18.25V5.64844C18.707 4.74609 19.1172 4.08984 19.6836 3.26172H19.7149V5.69531Z" fill="currentColor"/>
<path d="M11.2489 5.20749C10.7842 5.62234 10.3516 6.21808 10.3516 7.07812C10.3516 7.54736 10.4844 8.13226 10.9343 8.60902C10.5825 8.61563 10.2314 8.67529 9.89324 8.78801L5.00003 10.4191V7C5.00003 6.44772 5.44774 6 6.00003 6H7.00003V4C7.00003 3.44772 7.44774 3 8.00003 3H10.25V2C10.25 1.58579 10.5858 1.25 11 1.25C11.151 1.25 11.2915 1.2946 11.4092 1.37135C11.0615 1.66132 10.7701 2.02931 10.5694 2.4836L10.5651 2.49343C10.4271 2.81188 10.3672 3.13762 10.3672 3.45703C10.3672 3.98903 10.548 4.57189 11.0157 5.01621C11.0907 5.08741 11.1687 5.15097 11.2489 5.20749Z" fill="currentColor"/>
<path d="M17 8.92639C16.6111 9.18965 16.1672 9.29297 15.7578 9.29297H13.6217L17 10.419V8.92639Z" fill="currentColor"/>
<path d="M10.25 10.2502L2.9046 12.6987C2.3982 12.8675 2.11365 13.4043 2.25817 13.9181L3.93228 19.8705C3.52186 19.9568 3.12705 20.1379 2.78212 20.4139L1.53151 21.4143C1.20806 21.6731 1.15562 22.1451 1.41438 22.4685C1.67313 22.792 2.1451 22.8444 2.46855 22.5856L3.71916 21.5852C4.17541 21.2202 4.82471 21.2202 5.28151 21.5856C6.28586 22.3891 7.7142 22.3891 8.71855 21.5856C9.17507 21.2204 9.82498 21.2204 10.2815 21.5856C11.2859 22.3891 12.7142 22.3891 13.7185 21.5856C14.1751 21.2204 14.825 21.2204 15.2815 21.5856C16.2859 22.3891 17.7142 22.3891 18.7185 21.5856C19.1753 21.2202 19.8246 21.2202 20.2809 21.5852L21.5315 22.5856C21.855 22.8444 22.3269 22.792 22.5857 22.4685C22.8444 22.1451 22.792 21.6731 22.4685 21.4143L21.2179 20.4139C20.2682 19.6541 18.9404 19.6134 17.9498 20.2898L19.7419 13.9181C19.8864 13.4043 19.6018 12.8675 19.0954 12.6987L11.75 10.2502V20.6631C11.5603 20.6246 11.3777 20.5416 11.2185 20.4143C10.9249 20.1794 10.595 20.0132 10.25 19.9156V10.2502Z" fill="currentColor"/>
</svg>
