<svg viewBox="0 0 24 24" fill="currentColor" xmlns="http://www.w3.org/2000/svg">
<path d="M18.0038 2C18.438 2 18.8561 2.06905 19.2476 2.19676L17.9928 3.45036C17.612 3.83081 17.0302 3.92513 16.5485 3.68451L15.2922 3.05697C16.0055 2.40076 16.9578 2 18.0038 2Z" fill="currentColor"/>
<path d="M14 6C14 5.38501 14.1389 4.80244 14.3871 4.2819L15.8771 5.02615C16.9368 5.55551 18.2167 5.34801 19.0545 4.51102L20.6066 2.96039C21.405 3.64339 21.9312 4.63489 22 5.75001C20.6394 5.75297 17.7059 6.54117 16.341 9.63979C14.9598 9.00896 14 7.61645 14 6Z" fill="currentColor"/>
<path d="M17.8318 9.99637C17.8889 9.99877 17.9462 9.99999 18.0038 9.99999C19.7753 9.99999 21.278 8.85069 21.8057 7.25775C20.7969 7.33143 18.8582 7.9506 17.8318 9.99637Z" fill="currentColor"/>
<path d="M13.3796 2.99998L11.75 3V2C11.75 1.58579 11.4142 1.25 11 1.25C10.5858 1.25 10.25 1.58579 10.25 2V3H8.00003C7.44774 3 7.00003 3.44772 7.00003 4V6H6.00003C5.44774 6 5.00003 6.44772 5.00003 7V10.4191L9.89324 8.78801C10.6117 8.54853 11.3884 8.54853 12.1068 8.78801L13.6849 9.31404C12.6381 7.96407 12.2314 6.14554 12.7547 4.37898C12.902 3.88171 13.1142 3.4196 13.3796 2.99998Z" fill="currentColor"/>
<path d="M10.25 10.2502L2.9046 12.6987C2.3982 12.8675 2.11365 13.4043 2.25817 13.9181L3.93228 19.8705C3.52186 19.9568 3.12705 20.1379 2.78212 20.4139L1.53151 21.4143C1.20806 21.6731 1.15562 22.1451 1.41438 22.4685C1.67313 22.792 2.1451 22.8444 2.46855 22.5856L3.71916 21.5852C4.17541 21.2202 4.82471 21.2202 5.28151 21.5856C6.28586 22.3891 7.7142 22.3891 8.71855 21.5856C9.17507 21.2204 9.82498 21.2204 10.2815 21.5856C11.2859 22.3891 12.7142 22.3891 13.7185 21.5856C14.1751 21.2204 14.825 21.2204 15.2815 21.5856C16.2859 22.3891 17.7142 22.3891 18.7185 21.5856C19.1753 21.2202 19.8246 21.2202 20.2809 21.5852L21.5315 22.5856C21.855 22.8444 22.3269 22.792 22.5857 22.4685C22.8444 22.1451 22.792 21.6731 22.4685 21.4143L21.2179 20.4139C20.2682 19.6541 18.9404 19.6134 17.9498 20.2898L19.7419 13.9181C19.8864 13.4043 19.6018 12.8675 19.0954 12.6987L11.75 10.2502V20.6631C11.5603 20.6246 11.3777 20.5416 11.2185 20.4143C10.9249 20.1794 10.595 20.0132 10.25 19.9156V10.2502Z" fill="currentColor"/>
</svg>
