<svg viewBox="0 0 24 24" fill="currentColor" xmlns="http://www.w3.org/2000/svg">
<path d="M17.1411 1.24522C17.2784 0.91826 17.7216 0.91826 17.8589 1.24522L18.8577 3.62313C18.9146 3.7586 19.0368 3.85152 19.1774 3.8663L21.6466 4.12579C21.9861 4.16147 22.123 4.60264 21.8684 4.8404L20.0165 6.56952C19.911 6.66803 19.8644 6.81836 19.8944 6.96297L20.4216 9.50125C20.4941 9.85027 20.1356 10.1229 19.8409 9.94291L17.6976 8.63365C17.6366 8.59636 17.5683 8.57771 17.5 8.57771C17.4317 8.57771 17.3634 8.59636 17.3024 8.63365L15.1591 9.94291C14.8644 10.1229 14.5059 9.85027 14.5784 9.50125L15.1056 6.96297C15.1356 6.81836 15.089 6.66803 14.9835 6.56952L13.1316 4.8404C12.877 4.60264 13.0139 4.16147 13.3534 4.12579L15.8226 3.8663C15.9632 3.85152 16.0854 3.7586 16.1423 3.62313L17.1411 1.24522Z" fill="currentColor"/>
<path d="M13.124 9.12708L13.514 7.24969L12.1079 5.93677C11.2383 5.12487 11.3379 3.68285 12.2402 2.99999L11.75 3V2C11.75 1.58579 11.4142 1.25 11 1.25C10.5858 1.25 10.25 1.58579 10.25 2V3H8.00003C7.44774 3 7.00003 3.44772 7.00003 4V6H6.00003C5.44774 6 5.00003 6.44772 5.00003 7V10.4191L9.89324 8.78801C10.6117 8.54853 11.3884 8.54853 12.1068 8.78801L13.124 9.12708Z" fill="currentColor"/>
<path d="M15.388 11.4629C14.6622 11.6543 13.9868 11.3613 13.5549 10.8519L11.75 10.2502V20.6631C11.5603 20.6246 11.3777 20.5416 11.2185 20.4143C10.9249 20.1794 10.595 20.0132 10.25 19.9156V10.2502L2.9046 12.6987C2.3982 12.8675 2.11365 13.4043 2.25817 13.9181L3.93228 19.8705C3.52186 19.9568 3.12705 20.1379 2.78212 20.4139L1.53151 21.4143C1.20806 21.6731 1.15562 22.1451 1.41438 22.4685C1.67313 22.792 2.1451 22.8444 2.46855 22.5856L3.71916 21.5852C4.17541 21.2202 4.82471 21.2202 5.28151 21.5856C6.28586 22.3891 7.7142 22.3891 8.71855 21.5856C9.17507 21.2204 9.82498 21.2204 10.2815 21.5856C11.2859 22.3891 12.7142 22.3891 13.7185 21.5856C14.1751 21.2204 14.825 21.2204 15.2815 21.5856C16.2859 22.3891 17.7142 22.3891 18.7185 21.5856C19.1753 21.2202 19.8246 21.2202 20.2809 21.5852L21.5315 22.5856C21.855 22.8444 22.3269 22.792 22.5857 22.4685C22.8444 22.1451 22.792 21.6731 22.4685 21.4143L21.2179 20.4139C20.2682 19.6541 18.9404 19.6134 17.9498 20.2898L19.7419 13.9181C19.8864 13.4043 19.6018 12.8675 19.0954 12.6987L15.388 11.4629Z" fill="currentColor"/>
</svg>
