<svg viewBox="0 0 24 24" fill="currentColor" xmlns="http://www.w3.org/2000/svg">
<path d="M17.75 3.5C16.2312 3.5 15 4.73122 15 6.25C15 6.73687 15.1265 7.19418 15.3485 7.59086L19.0909 3.84848C18.6942 3.62652 18.2369 3.5 17.75 3.5ZM20.1515 4.90914L16.4091 8.65152C16.8058 8.87348 17.2631 9 17.75 9C19.2688 9 20.5 7.76878 20.5 6.25C20.5 5.76313 20.3735 5.30582 20.1515 4.90914ZM13.5 6.25C13.5 3.90279 15.4028 2 17.75 2C20.0972 2 22 3.90279 22 6.25C22 8.59721 20.0972 10.5 17.75 10.5C15.4028 10.5 13.5 8.59721 13.5 6.25Z" fill="currentColor"/>
<path d="M13.0059 3C12.3713 3.92454 12 5.0439 12 6.25C12 7.23889 12.2496 8.16947 12.6893 8.98217L12.1068 8.78801C11.3884 8.54853 10.6117 8.54853 9.89324 8.78801L5.00003 10.4191V7C5.00003 6.44772 5.44774 6 6.00003 6H7.00003V4C7.00003 3.44772 7.44774 3 8.00003 3H10.25V2C10.25 1.58579 10.5858 1.25 11 1.25C11.4142 1.25 11.75 1.58579 11.75 2V3H13.0059Z" fill="currentColor"/>
<path d="M15.1707 11.3904L11.75 10.2502V20.6631C11.5603 20.6246 11.3777 20.5416 11.2185 20.4143C10.9249 20.1794 10.595 20.0132 10.25 19.9156V10.2502L2.9046 12.6987C2.3982 12.8675 2.11365 13.4043 2.25817 13.9181L3.93228 19.8705C3.52186 19.9568 3.12705 20.1379 2.78212 20.4139L1.53151 21.4143C1.20806 21.6731 1.15562 22.1451 1.41438 22.4685C1.67313 22.792 2.1451 22.8444 2.46855 22.5857L3.71916 21.5852C4.17541 21.2202 4.82471 21.2202 5.28151 21.5857C6.28586 22.3891 7.7142 22.3891 8.71855 21.5857C9.17507 21.2204 9.82498 21.2204 10.2815 21.5857C11.2859 22.3891 12.7142 22.3891 13.7185 21.5857C14.1751 21.2204 14.825 21.2204 15.2815 21.5857C16.2859 22.3891 17.7142 22.3891 18.7185 21.5857C19.1753 21.2202 19.8246 21.2202 20.2809 21.5852L21.5315 22.5857C21.855 22.8444 22.3269 22.792 22.5857 22.4685C22.8444 22.1451 22.792 21.6731 22.4685 21.4143L21.2179 20.4139C20.2682 19.6541 18.9404 19.6134 17.9498 20.2898L19.7419 13.9181C19.8864 13.4043 19.6018 12.8675 19.0954 12.6987L16.7274 11.9093C16.1774 11.8106 15.6545 11.6337 15.1707 11.3904Z" fill="currentColor"/>
</svg>
