<svg viewBox="0 0 24 24" fill="currentColor" xmlns="http://www.w3.org/2000/svg">
<path d="M16.25 4.75V3.75C16.25 2.7835 17.0335 2 18 2H19C19.9665 2 20.75 2.7835 20.75 3.75V4.75H21C21.5523 4.75 22 5.19772 22 5.75V9.75C22 10.3023 21.5523 10.75 21 10.75H16C15.4477 10.75 15 10.3023 15 9.75V5.75C15 5.19772 15.4477 4.75 16 4.75H16.25ZM17.75 3.75V4.75H19.25V3.75C19.25 3.61193 19.1381 3.5 19 3.5H18C17.8619 3.5 17.75 3.61193 17.75 3.75Z" fill="currentColor"/>
<path d="M13.7968 10.9325C14.2186 11.7168 15.047 12.25 16 12.25H17.7494L19.0954 12.6987C19.6018 12.8675 19.8864 13.4043 19.7419 13.9181L17.9498 20.2898C18.9404 19.6134 20.2682 19.6541 21.2179 20.4139L22.4685 21.4143C22.792 21.6731 22.8444 22.1451 22.5857 22.4685C22.3269 22.792 21.855 22.8444 21.5315 22.5856L20.2809 21.5852C19.8246 21.2202 19.1753 21.2202 18.7185 21.5856C17.7142 22.3891 16.2859 22.3891 15.2815 21.5856C14.825 21.2204 14.1751 21.2204 13.7185 21.5856C12.7142 22.3891 11.2859 22.3891 10.2815 21.5856C9.82498 21.2204 9.17507 21.2204 8.71855 21.5856C7.7142 22.3891 6.28586 22.3891 5.28151 21.5856C4.82471 21.2202 4.17541 21.2202 3.71916 21.5852L2.46855 22.5856C2.1451 22.8444 1.67313 22.792 1.41438 22.4685C1.15562 22.1451 1.20806 21.6731 1.53151 21.4143L2.78212 20.4139C3.12705 20.1379 3.52186 19.9568 3.93228 19.8705L2.25817 13.9181C2.11365 13.4043 2.3982 12.8675 2.9046 12.6987L10.25 10.2502V19.9156C10.595 20.0132 10.9249 20.1794 11.2185 20.4143C11.3777 20.5416 11.5603 20.6246 11.75 20.6631V10.2502L13.7968 10.9325Z" fill="currentColor"/>
<path d="M13.5 9.2524L12.1068 8.78801C11.3884 8.54853 10.6117 8.54853 9.89324 8.78801L5.00003 10.4191V7C5.00003 6.44772 5.44774 6 6.00003 6H7.00003V4C7.00003 3.44772 7.44774 3 8.00003 3H10.25V2C10.25 1.58579 10.5858 1.25 11 1.25C11.4142 1.25 11.75 1.58579 11.75 2V3L14 2.99997C14.3112 2.99997 14.5892 3.1421 14.7726 3.36499C14.7641 3.43664 14.758 3.509 14.7543 3.58199C14.0047 4.01364 13.5 4.82289 13.5 5.75V9.2524Z" fill="currentColor"/>
</svg>
