<svg viewBox="0 0 24 24" fill="currentColor" xmlns="http://www.w3.org/2000/svg">
<path d="M11 10.4595C10.8619 10.4595 10.75 10.5684 10.75 10.7027V12.1622H13.25V10.7027C13.25 10.5684 13.1381 10.4595 13 10.4595H11Z" fill="currentColor"/>
<path d="M8.25 5.8C8.25 3.70132 9.92893 2 12 2C14.0711 2 15.75 3.70132 15.75 5.8V6.81333H17.9299C19.1765 6.81333 20.1402 7.8844 19.9832 9.0953L18.669 19.2286C18.5377 20.2411 17.6581 21 16.6158 21H7.38425C6.34194 21 5.46225 20.2411 5.33095 19.2286L4.0168 9.0953C3.85977 7.8844 4.82351 6.81333 6.0701 6.81333H8.25V5.8ZM12 3.52C10.7574 3.52 9.75 4.54079 9.75 5.8V6.81333H14.25V5.8C14.25 4.54079 13.2426 3.52 12 3.52ZM9.25 10.7027V12.1622H9C8.44772 12.1622 8 12.5978 8 13.1351V17.027C8 17.5644 8.44772 18 9 18H15C15.5523 18 16 17.5644 16 17.027V13.1351C16 12.5978 15.5523 12.1622 15 12.1622H14.75V10.7027C14.75 9.76233 13.9665 9 13 9H11C10.0335 9 9.25 9.76233 9.25 10.7027Z" fill="currentColor"/>
</svg>
