<svg viewBox="0 0 24 24" fill="currentColor" xmlns="http://www.w3.org/2000/svg">
<path d="M8.25 5.8V6.81333H6.0701C4.82351 6.81333 3.85977 7.8844 4.0168 9.0953L5.33095 19.2286C5.46225 20.2411 6.34194 21 7.38425 21H16.6158C17.6581 21 18.5377 20.2411 18.669 19.2286L19.9832 9.0953C20.1402 7.8844 19.1765 6.81333 17.9299 6.81333H15.75V5.8C15.75 3.70132 14.0711 2 12 2C9.92893 2 8.25 3.70132 8.25 5.8ZM12 3.52C13.2426 3.52 14.25 4.54079 14.25 5.8V6.81333H9.75V5.8C9.75 4.54079 10.7574 3.52 12 3.52ZM11.5755 18.7922C11.4499 18.6614 11.3871 18.4998 11.3871 18.3074V17.6227C11.0011 17.5943 10.6576 17.534 10.3565 17.4418C9.97968 17.3263 9.66568 17.1994 9.41448 17.0609C9.25194 16.9762 9.13742 16.8608 9.07093 16.7146C9.01182 16.5684 8.98966 16.4183 9.00443 16.2644C9.01921 16.1028 9.07093 15.9643 9.15959 15.8489C9.24825 15.7258 9.36276 15.645 9.50314 15.6065C9.65091 15.568 9.81714 15.5988 10.0018 15.6988C10.1792 15.7989 10.4267 15.9028 10.7444 16.0105C11.0621 16.1105 11.4499 16.1605 11.908 16.1605C12.2479 16.1605 12.5212 16.1221 12.7281 16.0451C12.935 15.9605 13.0827 15.8527 13.1714 15.7219C13.2675 15.5911 13.3155 15.4411 13.3155 15.2718C13.3155 15.1333 13.2822 15.0101 13.2157 14.9024C13.1566 14.7947 13.0495 14.7023 12.8943 14.6254C12.7466 14.5407 12.5471 14.4715 12.2959 14.4176L11.0768 14.1406C10.3971 13.9867 9.89102 13.7251 9.55855 13.3557C9.22608 12.9787 9.05984 12.4939 9.05984 11.9014C9.05984 11.4397 9.16697 11.028 9.38123 10.6663C9.60288 10.3047 9.9058 10.0122 10.29 9.78909C10.611 9.60614 10.9767 9.48267 11.3871 9.41867V8.69255C11.3871 8.50017 11.4499 8.33858 11.5755 8.20777C11.7011 8.06925 11.86 8 12.0521 8C12.2368 8 12.3919 8.06925 12.5175 8.20777C12.6431 8.33858 12.7059 8.50017 12.7059 8.69255V9.38812C12.9278 9.41825 13.1605 9.47111 13.4041 9.54669C13.7588 9.64673 14.0654 9.79293 14.324 9.98531C14.4644 10.0777 14.5604 10.1931 14.6121 10.3316C14.6712 10.4701 14.686 10.6086 14.6564 10.7471C14.6343 10.8856 14.5789 11.0087 14.4902 11.1165C14.4016 11.2165 14.2833 11.2819 14.1356 11.3127C13.9952 11.3358 13.829 11.2973 13.6369 11.1973C13.4374 11.0972 13.2194 11.0126 12.983 10.9433C12.7466 10.8741 12.4547 10.8395 12.1075 10.8395C11.6716 10.8395 11.3317 10.9318 11.0879 11.1165C10.8515 11.3012 10.7333 11.5397 10.7333 11.8321C10.7333 12.0476 10.8035 12.2207 10.9438 12.3515C11.0916 12.4823 11.3465 12.5901 11.7085 12.6747L12.9387 12.9517C13.6406 13.1133 14.1577 13.375 14.4902 13.7366C14.8301 14.0983 15 14.5677 15 15.1448C15 15.5988 14.8929 16.0028 14.6786 16.3568C14.4644 16.703 14.1688 16.9839 13.792 17.1994C13.4746 17.3809 13.1125 17.5078 12.7059 17.5801V18.3074C12.7059 18.4998 12.6431 18.6614 12.5175 18.7922C12.3993 18.9307 12.2442 19 12.0521 19C11.86 19 11.7011 18.9307 11.5755 18.7922Z" fill="currentColor"/>
</svg>
