<svg viewBox="0 0 24 24" fill="currentColor" xmlns="http://www.w3.org/2000/svg">
<path d="M2.23719 4.28869C1.84423 4.15771 1.41949 4.37008 1.28851 4.76303C1.15752 5.15599 1.36989 5.58073 1.76285 5.71172L3.66176 6.34469C4.08732 6.48654 4.40423 6.84554 4.49221 7.2854L5.94303 14.5395C6.20011 15.8249 7.32875 16.7502 8.63963 16.7502H18.4914C19.7192 16.7502 20.7983 15.9363 21.1356 14.7557L22.7212 9.20624C22.835 8.80797 22.6043 8.39285 22.2061 8.27906C21.8078 8.16527 21.3927 8.39589 21.2789 8.79416L19.6933 14.3436C19.54 14.8802 19.0495 15.2502 18.4914 15.2502H8.63963C8.04378 15.2502 7.53076 14.8296 7.4139 14.2453L5.96308 6.99122C5.76954 6.02353 5.07232 5.23373 4.13611 4.92166L2.23719 4.28869Z" fill="currentColor"/>
<path d="M9.50003 21.0002C10.3284 21.0002 11 20.3286 11 19.5002C11 18.6718 10.3284 18.0002 9.50003 18.0002C8.6716 18.0002 8.00003 18.6718 8.00003 19.5002C8.00003 20.3286 8.6716 21.0002 9.50003 21.0002Z" fill="currentColor"/>
<path d="M19 19.5002C19 20.3286 18.3284 21.0002 17.5 21.0002C16.6716 21.0002 16 20.3286 16 19.5002C16 18.6718 16.6716 18.0002 17.5 18.0002C18.3284 18.0002 19 18.6718 19 19.5002Z" fill="currentColor"/>
<path d="M10.5303 4.46985C10.2375 4.17696 9.76259 4.17696 9.4697 4.46985C9.17681 4.76275 9.17681 5.23762 9.4697 5.53051L12.4394 8.50018L9.4697 11.4699C9.17681 11.7628 9.17681 12.2376 9.4697 12.5305C9.76259 12.8234 10.2375 12.8234 10.5303 12.5305L13.5 9.56084L16.4697 12.5305C16.7626 12.8234 17.2375 12.8234 17.5303 12.5305C17.8232 12.2376 17.8232 11.7628 17.5303 11.4699L14.5607 8.50018L17.5303 5.53051C17.8232 5.23762 17.8232 4.76275 17.5303 4.46985C17.2375 4.17696 16.7626 4.17696 16.4697 4.46985L13.5 7.43952L10.5303 4.46985Z" fill="currentColor"/>
</svg>
