<svg viewBox="0 0 24 24" fill="currentColor" xmlns="http://www.w3.org/2000/svg">
<path d="M8.25 5.8C8.25 3.70132 9.92893 2 12 2C14.0711 2 15.75 3.70132 15.75 5.8V6.81333H17.9299C19.1765 6.81333 20.1402 7.8844 19.9832 9.0953L18.669 19.2286C18.5377 20.2411 17.6581 21 16.6158 21H7.38425C6.34194 21 5.46225 20.2411 5.33095 19.2286L4.0168 9.0953C3.85977 7.8844 4.82351 6.81333 6.0701 6.81333H8.25V5.8ZM12 3.52C10.7574 3.52 9.75 4.54079 9.75 5.8V6.81333H14.25V5.8C14.25 4.54079 13.2426 3.52 12 3.52ZM15.5303 11.5303C15.8232 11.2374 15.8232 10.7626 15.5303 10.4697C15.2374 10.1768 14.7626 10.1768 14.4697 10.4697L12 12.9393L9.53033 10.4697C9.23744 10.1768 8.76256 10.1768 8.46967 10.4697C8.17678 10.7626 8.17678 11.2374 8.46967 11.5303L10.9393 14L8.46967 16.4697C8.17678 16.7626 8.17678 17.2374 8.46967 17.5303C8.76256 17.8232 9.23744 17.8232 9.53033 17.5303L12 15.0607L14.4697 17.5303C14.7626 17.8232 15.2374 17.8232 15.5303 17.5303C15.8232 17.2374 15.8232 16.7626 15.5303 16.4697L13.0607 14L15.5303 11.5303Z" fill="currentColor"/>
</svg>
