<svg viewBox="0 0 24 24" fill="currentColor" xmlns="http://www.w3.org/2000/svg">
<path d="M8.25 5.8V6.81333H6.0701C4.82351 6.81333 3.85977 7.8844 4.0168 9.0953L5.33095 19.2286C5.46225 20.2411 6.34194 21 7.38425 21H16.6158C17.6581 21 18.5377 20.2411 18.669 19.2286L19.9832 9.0953C20.1402 7.8844 19.1765 6.81333 17.9299 6.81333H15.75V5.8C15.75 3.70132 14.0711 2 12 2C9.92893 2 8.25 3.70132 8.25 5.8ZM12 3.52C13.2426 3.52 14.25 4.54079 14.25 5.8V6.81333H9.75V5.8C9.75 4.54079 10.7574 3.52 12 3.52ZM12.75 10V15.1893L14.4697 13.4697C14.7626 13.1768 15.2374 13.1768 15.5303 13.4697C15.8232 13.7626 15.8232 14.2374 15.5303 14.5303L12.5303 17.5303C12.2374 17.8232 11.7626 17.8232 11.4697 17.5303L8.46967 14.5303C8.17678 14.2374 8.17678 13.7626 8.46967 13.4697C8.76256 13.1768 9.23744 13.1768 9.53033 13.4697L11.25 15.1893V10C11.25 9.58579 11.5858 9.25 12 9.25C12.4142 9.25 12.75 9.58579 12.75 10Z" fill="currentColor"/>
</svg>
