<svg viewBox="0 0 24 24" fill="currentColor" xmlns="http://www.w3.org/2000/svg">
<path d="M8.25 7V5.75C8.25 3.67893 9.92893 2 12 2C14.0711 2 15.75 3.67893 15.75 5.75V7H18C19.1046 7 20 7.89543 20 9V16.25H4V9C4 7.89543 4.89543 7 6 7H8.25ZM9.75 5.75V7H14.25V5.75C14.25 4.50736 13.2426 3.5 12 3.5C10.7574 3.5 9.75 4.50736 9.75 5.75ZM15 10C15.5523 10 16 9.55229 16 9C16 8.44771 15.5523 8 15 8C14.4477 8 14 8.44771 14 9C14 9.55229 14.4477 10 15 10ZM10 9C10 8.44771 9.55229 8 9 8C8.44771 8 8 8.44771 8 9C8 9.55229 8.44771 10 9 10C9.55229 10 10 9.55229 10 9Z" fill="currentColor"/>
<path d="M4 18V17.75H20V18C20 20.2091 18.2091 22 16 22H8C5.79086 22 4 20.2091 4 18Z" fill="currentColor"/>
</svg>
