<svg viewBox="0 0 24 24" fill="currentColor" xmlns="http://www.w3.org/2000/svg">
<path d="M1.28851 4.76303C1.41949 4.37008 1.84423 4.15771 2.23719 4.28869L4.13611 4.92166C5.07232 5.23373 5.76954 6.02353 5.96308 6.99122L7.4139 14.2453C7.53076 14.8296 8.04378 15.2502 8.63963 15.2502H18.4914C19.0495 15.2502 19.54 14.8802 19.6933 14.3436L21.2789 8.79416C21.3927 8.39589 21.8078 8.16527 22.2061 8.27906C22.6043 8.39285 22.835 8.80797 22.7212 9.20624L21.1356 14.7557C20.7983 15.9363 19.7192 16.7502 18.4914 16.7502H8.63963C7.32875 16.7502 6.20011 15.8249 5.94303 14.5395L4.49221 7.2854C4.40423 6.84554 4.08732 6.48654 3.66176 6.34469L1.76285 5.71172C1.36989 5.58073 1.15752 5.15599 1.28851 4.76303Z" fill="currentColor"/>
<path d="M11 19.5C11 20.3284 10.3284 21 9.5 21C8.67157 21 8 20.3284 8 19.5C8 18.6716 8.67157 18 9.5 18C10.3284 18 11 18.6716 11 19.5Z" fill="currentColor"/>
<path d="M17.5 21C18.3284 21 19 20.3284 19 19.5C19 18.6716 18.3284 18 17.5 18C16.6716 18 16 18.6716 16 19.5C16 20.3284 16.6716 21 17.5 21Z" fill="currentColor"/>
<path d="M14.25 5C14.25 4.58579 13.9142 4.25 13.5 4.25C13.0858 4.25 12.75 4.58579 12.75 5V8.25H11C10.709 8.25 10.4443 8.41834 10.3208 8.68188C10.1974 8.94542 10.2375 9.25658 10.4238 9.48014L12.9238 12.4801C13.0663 12.6511 13.2774 12.75 13.5 12.75C13.7226 12.75 13.9337 12.6511 14.0762 12.4801L16.5762 9.48014C16.7625 9.25658 16.8026 8.94542 16.6792 8.68188C16.5558 8.41834 16.291 8.25 16 8.25H14.25V5Z" fill="currentColor"/>
</svg>
