<svg viewBox="0 0 24 24" fill="currentColor" xmlns="http://www.w3.org/2000/svg">
<path d="M13.5 6.4C14.7426 6.4 15.75 5.41503 15.75 4.2C15.75 2.98497 14.7426 2 13.5 2C12.2573 2 11.25 2.98497 11.25 4.2C11.25 5.41503 12.2573 6.4 13.5 6.4Z" fill="currentColor"/>
<path d="M10.125 7.5C9.50368 7.5 9 7.99249 9 8.6C9 11.0301 11.0147 13 13.5 13C15.9853 13 18 11.0301 18 8.6C18 7.99249 17.4963 7.5 16.875 7.5H10.125Z" fill="currentColor"/>
<path d="M2.23716 4.28851C1.8442 4.15752 1.41946 4.36989 1.28848 4.76285C1.15749 5.15581 1.36986 5.58055 1.76282 5.71153L3.66173 6.3445C4.08729 6.48635 4.4042 6.84535 4.49218 7.28521L5.943 14.5393C6.20008 15.8247 7.32872 16.75 8.6396 16.75H18.4914C19.7192 16.75 20.7983 15.9361 21.1356 14.7555L22.7211 9.20606C22.8349 8.80778 22.6043 8.39267 22.206 8.27888C21.8078 8.16508 21.3926 8.3957 21.2788 8.79398L19.6933 14.3434C19.54 14.88 19.0495 15.25 18.4914 15.25H8.6396C8.04375 15.25 7.53073 14.8294 7.41387 14.2451L5.96305 6.99104C5.76951 6.02335 5.07229 5.23355 4.13608 4.92148L2.23716 4.28851Z" fill="currentColor"/>
<path d="M9.5 21C10.3284 21 11 20.3284 11 19.5C11 18.6716 10.3284 18 9.5 18C8.67157 18 8 18.6716 8 19.5C8 20.3284 8.67157 21 9.5 21Z" fill="currentColor"/>
<path d="M19 19.5C19 20.3284 18.3284 21 17.5 21C16.6716 21 16 20.3284 16 19.5C16 18.6716 16.6716 18 17.5 18C18.3284 18 19 18.6716 19 19.5Z" fill="currentColor"/>
</svg>
