<svg viewBox="0 0 24 24" fill="currentColor" xmlns="http://www.w3.org/2000/svg">
<path d="M11 20.5002C11 21.3286 10.3284 22.0002 9.5 22.0002C8.67157 22.0002 8 21.3286 8 20.5002C8 19.6718 8.67157 19.0002 9.5 19.0002C10.3284 19.0002 11 19.6718 11 20.5002Z" fill="currentColor"/>
<path d="M18 20.5002C18 21.3286 17.3284 22.0002 16.5 22.0002C15.6716 22.0002 15 21.3286 15 20.5002C15 19.6718 15.6716 19.0002 16.5 19.0002C17.3284 19.0002 18 19.6718 18 20.5002Z" fill="currentColor"/>
<path d="M2.23737 1.28869C1.84442 1.15771 1.41968 1.37008 1.28869 1.76303C1.15771 2.15599 1.37008 2.58073 1.76303 2.71172L3.79556 3.38923C4.13849 3.50354 4.39388 3.79283 4.46477 4.14729L6.74321 15.5395C7.0003 16.8249 8.12894 17.7502 9.43981 17.7502H18.0002C18.4144 17.7502 18.7502 17.4144 18.7502 17.0002C18.7502 16.586 18.4144 16.2502 18.0002 16.2502H9.43981C8.84396 16.2502 8.33094 15.8296 8.21409 15.2453L7.91506 13.7502H10.1752L9.27041 4.2502H6.01506L5.93564 3.85312C5.75918 2.97083 5.12349 2.25073 4.2699 1.9662L2.23737 1.28869Z" fill="currentColor"/>
<path d="M15.318 13.7502H11.682L10.7772 4.25018H16.2228L15.318 13.7502Z" fill="currentColor"/>
<path d="M16.8248 13.7502H18.4387C19.7005 13.7502 20.8005 12.8914 21.1065 11.6672L22.4172 6.42462C22.6933 5.32011 21.8579 4.25018 20.7194 4.25018H17.7296L16.8248 13.7502Z" fill="currentColor"/>
</svg>
