<svg viewBox="0 0 24 24" fill="currentColor" xmlns="http://www.w3.org/2000/svg">
<path d="M8.25 7H6C4.89543 7 4 7.89543 4 9V18C4 20.2091 5.79086 22 8 22H16C18.2091 22 20 20.2091 20 18V9C20 7.89543 19.1046 7 18 7H15.75V5C15.75 2.92893 14.0711 1.25 12 1.25C9.92893 1.25 8.25 2.92893 8.25 5V7ZM9.75 5C9.75 3.75736 10.7574 2.75 12 2.75C13.2426 2.75 14.25 3.75736 14.25 5V7H9.75V5ZM12.0521 20C11.86 20 11.7011 19.9307 11.5755 19.7922C11.4499 19.6614 11.3871 19.4998 11.3871 19.3074V18.6227C11.0011 18.5943 10.6576 18.534 10.3565 18.4418C9.97968 18.3263 9.66568 18.1994 9.41448 18.0609C9.25194 17.9762 9.13742 17.8608 9.07093 17.7146C9.01182 17.5684 8.98966 17.4183 9.00443 17.2644C9.01921 17.1028 9.07093 16.9643 9.15959 16.8489C9.24825 16.7258 9.36276 16.645 9.50314 16.6065C9.6509 16.568 9.81714 16.5988 10.0018 16.6988C10.1792 16.7989 10.4267 16.9028 10.7444 17.0105C11.0621 17.1105 11.4499 17.1605 11.908 17.1605C12.2479 17.1605 12.5212 17.1221 12.7281 17.0451C12.935 16.9605 13.0827 16.8527 13.1714 16.7219C13.2675 16.5911 13.3155 16.4411 13.3155 16.2718C13.3155 16.1333 13.2822 16.0101 13.2157 15.9024C13.1566 15.7947 13.0495 15.7023 12.8943 15.6254C12.7466 15.5407 12.5471 15.4715 12.2959 15.4176L11.0768 15.1406C10.3971 14.9867 9.89102 14.7251 9.55855 14.3557C9.22608 13.9787 9.05984 13.4939 9.05984 12.9014C9.05984 12.4397 9.16698 12.028 9.38123 11.6663C9.60288 11.3047 9.9058 11.0122 10.29 10.7891C10.611 10.6061 10.9767 10.4827 11.3871 10.4187V9.69255C11.3871 9.50018 11.4499 9.33858 11.5755 9.20776C11.7011 9.06925 11.86 9 12.0521 9C12.2368 9 12.3919 9.06925 12.5175 9.20776C12.6431 9.33858 12.7059 9.50018 12.7059 9.69255V10.3881C12.9278 10.4182 13.1605 10.4711 13.4041 10.5467C13.7588 10.6467 14.0654 10.7929 14.324 10.9853C14.4644 11.0777 14.5604 11.1931 14.6121 11.3316C14.6712 11.4701 14.686 11.6086 14.6564 11.7471C14.6343 11.8856 14.5789 12.0087 14.4902 12.1165C14.4016 12.2165 14.2833 12.2819 14.1356 12.3127C13.9952 12.3358 13.829 12.2973 13.6369 12.1973C13.4374 12.0972 13.2194 12.0126 12.983 11.9433C12.7466 11.8741 12.4547 11.8395 12.1075 11.8395C11.6716 11.8395 11.3317 11.9318 11.0879 12.1165C10.8515 12.3012 10.7333 12.5397 10.7333 12.8321C10.7333 13.0476 10.8035 13.2207 10.9438 13.3515C11.0916 13.4823 11.3465 13.5901 11.7085 13.6747L12.9387 13.9517C13.6406 14.1133 14.1577 14.375 14.4902 14.7366C14.8301 15.0983 15 15.5677 15 16.1448C15 16.5988 14.8929 17.0028 14.6786 17.3568C14.4644 17.703 14.1688 17.9839 13.792 18.1994C13.4746 18.3809 13.1125 18.5078 12.7059 18.5801V19.3074C12.7059 19.4998 12.6431 19.6614 12.5175 19.7922C12.3993 19.9307 12.2442 20 12.0521 20Z" fill="currentColor"/>
</svg>
