<svg viewBox="0 0 24 24" fill="currentColor" xmlns="http://www.w3.org/2000/svg">
<path d="M13.0711 13.7922C13.1967 13.9307 13.3555 14 13.5476 14C13.7397 14 13.8949 13.9307 14.0131 13.7922C14.1387 13.6614 14.2015 13.4998 14.2015 13.3075V12.5801C14.6081 12.5078 14.9701 12.3809 15.2875 12.1994C15.6643 11.9839 15.9599 11.703 16.1741 11.3568C16.3884 11.0028 16.4955 10.5988 16.4955 10.1448C16.4955 9.56768 16.3256 9.09829 15.9857 8.73662C15.6533 8.37496 15.1361 8.11333 14.4342 7.95173L13.2041 7.67471C12.842 7.59007 12.5871 7.48234 12.4394 7.35152C12.299 7.22071 12.2288 7.04757 12.2288 6.83211C12.2288 6.5397 12.347 6.30115 12.5834 6.11647C12.8273 5.93179 13.1671 5.83945 13.603 5.83945C13.9503 5.83945 14.2421 5.87408 14.4785 5.94334C14.715 6.01259 14.9329 6.09724 15.1324 6.19727C15.3245 6.29731 15.4907 6.33578 15.6311 6.3127C15.7789 6.28192 15.8971 6.21651 15.9857 6.11647C16.0744 6.00874 16.1298 5.88562 16.152 5.74711C16.1815 5.6086 16.1667 5.47009 16.1076 5.33158C16.0559 5.19307 15.9599 5.07765 15.8195 4.98531C15.5609 4.79293 15.2543 4.64673 14.8997 4.54669C14.656 4.47111 14.4233 4.41825 14.2015 4.38812V3.69255C14.2015 3.50018 14.1387 3.33858 14.0131 3.20777C13.8875 3.06926 13.7323 3 13.5476 3C13.3555 3 13.1967 3.06926 13.0711 3.20777C12.9455 3.33858 12.8827 3.50018 12.8827 3.69255V4.41867C12.4723 4.48267 12.1065 4.60614 11.7855 4.78909C11.4013 5.01224 11.0984 5.30465 10.8768 5.66632C10.6625 6.02798 10.5554 6.43966 10.5554 6.90136C10.5554 7.49388 10.7216 7.97866 11.0541 8.35572C11.3865 8.72508 11.8926 8.98671 12.5724 9.14061L13.7914 9.41763C14.0426 9.47149 14.2421 9.54075 14.3899 9.62539C14.545 9.70234 14.6522 9.79468 14.7113 9.90241C14.7778 10.0101 14.811 10.1333 14.811 10.2718C14.811 10.4411 14.763 10.5911 14.6669 10.7219C14.5783 10.8527 14.4305 10.9605 14.2236 11.0451C14.0168 11.1221 13.7434 11.1605 13.4035 11.1605C12.9455 11.1605 12.5576 11.1105 12.2399 11.0105C11.9222 10.9028 11.6747 10.7989 11.4974 10.6988C11.3127 10.5988 11.1464 10.568 10.9987 10.6065C10.8583 10.645 10.7438 10.7258 10.6551 10.8489C10.5665 10.9643 10.5147 11.1028 10.5 11.2644C10.4852 11.4183 10.5073 11.5684 10.5665 11.7146C10.6329 11.8608 10.7475 11.9762 10.91 12.0609C11.1612 12.1994 11.4752 12.3263 11.852 12.4418C12.1531 12.534 12.4967 12.5943 12.8827 12.6227V13.3075C12.8827 13.4998 12.9455 13.6614 13.0711 13.7922Z" fill="currentColor"/>
<path d="M2.23719 4.28851C1.84423 4.15752 1.41949 4.36989 1.28851 4.76285C1.15752 5.15581 1.36989 5.58055 1.76285 5.71153L3.66176 6.3445C4.08732 6.48635 4.40423 6.84535 4.49221 7.28521L5.94303 14.5393C6.20011 15.8247 7.32875 16.75 8.63963 16.75H18.4914C19.7192 16.75 20.7983 15.9361 21.1356 14.7555L22.7212 9.20606C22.835 8.80778 22.6043 8.39267 22.2061 8.27888C21.8078 8.16508 21.3927 8.3957 21.2789 8.79398L19.6933 14.3434C19.54 14.88 19.0495 15.25 18.4914 15.25H8.63963C8.04378 15.25 7.53076 14.8294 7.4139 14.2451L5.96308 6.99104C5.76954 6.02335 5.07232 5.23355 4.13611 4.92148L2.23719 4.28851Z" fill="currentColor"/>
<path d="M9.50003 21C10.3284 21 11 20.3284 11 19.5C11 18.6716 10.3284 18 9.50003 18C8.6716 18 8.00003 18.6716 8.00003 19.5C8.00003 20.3284 8.6716 21 9.50003 21Z" fill="currentColor"/>
<path d="M19 19.5C19 20.3284 18.3284 21 17.5 21C16.6716 21 16 20.3284 16 19.5C16 18.6716 16.6716 18 17.5 18C18.3284 18 19 18.6716 19 19.5Z" fill="currentColor"/>
</svg>
