<svg viewBox="0 0 24 24" fill="currentColor" xmlns="http://www.w3.org/2000/svg">
<path d="M12.375 5.62162C12.2197 5.62162 12.0937 5.74262 12.0937 5.89189V7.68883H16.875C17.4963 7.68883 18 8.15976 18 8.74069V12.9481C18 13.5291 17.4963 14 16.875 14H10.125C9.50368 14 9 13.5291 9 12.9481V8.74069C9 8.15976 9.50368 7.68883 10.125 7.68883H10.4062V5.89189C10.4062 4.84703 11.2877 4 12.375 4H14.625C15.7123 4 16.5937 4.84703 16.5937 5.89189C16.5937 6.33969 16.216 6.7027 15.75 6.7027C15.284 6.7027 14.9062 6.33969 14.9062 5.89189C14.9062 5.74262 14.7803 5.62162 14.625 5.62162H12.375Z" fill="currentColor"/>
<path d="M2.23716 4.28848C1.8442 4.15749 1.41946 4.36986 1.28848 4.76282C1.15749 5.15578 1.36986 5.58052 1.76282 5.7115L3.66173 6.34447C4.08729 6.48632 4.4042 6.84532 4.49218 7.28518L5.943 14.5393C6.20008 15.8247 7.32872 16.75 8.6396 16.75H18.4914C19.7192 16.75 20.7983 15.9361 21.1356 14.7555L22.7211 9.20603C22.8349 8.80775 22.6043 8.39264 22.206 8.27885C21.8078 8.16505 21.3926 8.39567 21.2788 8.79395L19.6933 14.3434C19.54 14.88 19.0495 15.25 18.4914 15.25H8.6396C8.04375 15.25 7.53073 14.8294 7.41387 14.2451L5.96305 6.99101C5.76951 6.02332 5.07229 5.23352 4.13608 4.92145L2.23716 4.28848Z" fill="currentColor"/>
<path d="M9.5 21C10.3284 21 11 20.3284 11 19.5C11 18.6716 10.3284 18 9.5 18C8.67157 18 8 18.6716 8 19.5C8 20.3284 8.67157 21 9.5 21Z" fill="currentColor"/>
<path d="M19 19.5C19 20.3284 18.3284 21 17.5 21C16.6716 21 16 20.3284 16 19.5C16 18.6716 16.6716 18 17.5 18C18.3284 18 19 18.6716 19 19.5Z" fill="currentColor"/>
</svg>
