<svg viewBox="0 0 24 24" fill="currentColor" xmlns="http://www.w3.org/2000/svg">
<path d="M12 2C11.4477 2 11 2.44772 11 3V3.5H13V3C13 2.44772 12.5523 2 12 2Z" fill="currentColor"/>
<path d="M11 18.5H13V21C13 21.5523 12.5523 22 12 22C11.4477 22 11 21.5523 11 21V18.5Z" fill="currentColor"/>
<path d="M3 7C3 5.89543 3.89543 5 5 5H19C20.1046 5 21 5.89543 21 7V15C21 16.1046 20.1046 17 19 17H5C3.89543 17 3 16.1046 3 15V7ZM6.25 9C6.25 9.41421 6.58579 9.75 7 9.75H17C17.4142 9.75 17.75 9.41421 17.75 9C17.75 8.58579 17.4142 8.25 17 8.25H7C6.58579 8.25 6.25 8.58579 6.25 9ZM7 12.25C6.58579 12.25 6.25 12.5858 6.25 13C6.25 13.4142 6.58579 13.75 7 13.75H14C14.4142 13.75 14.75 13.4142 14.75 13C14.75 12.5858 14.4142 12.25 14 12.25H7Z" fill="currentColor"/>
</svg>
