<svg viewBox="0 0 24 24" fill="currentColor" xmlns="http://www.w3.org/2000/svg">
<path d="M12.7976 2.54494L15.0171 7.82918C15.1435 8.13023 15.415 8.3367 15.7276 8.36955L21.2146 8.9462C21.9691 9.02549 22.2734 10.0059 21.7076 10.5342L17.5923 14.3767C17.3578 14.5956 17.2541 14.9297 17.3209 15.251L18.4925 20.8917C18.6536 21.6673 17.8569 22.2732 17.202 21.8731L12.4391 18.9637C12.1678 18.7979 11.8322 18.7979 11.5609 18.9637L6.79798 21.8731C6.14308 22.2732 5.34636 21.6673 5.50746 20.8917L6.67911 15.251C6.74586 14.9297 6.64216 14.5956 6.40771 14.3767L2.29243 10.5342C1.72658 10.0059 2.0309 9.02549 2.78537 8.9462L8.27237 8.36955C8.58497 8.3367 8.85647 8.13023 8.98292 7.82918L11.2024 2.54494C11.5076 1.81835 12.4924 1.81835 12.7976 2.54494ZM11.5757 17.8111C11.7013 17.937 11.8602 18 12.0522 18C12.2443 18 12.3995 17.937 12.5177 17.8111C12.6433 17.6922 12.7061 17.5453 12.7061 17.3704V16.7092C13.1127 16.6435 13.4747 16.5281 13.7922 16.3631C14.169 16.1672 14.4645 15.9119 14.6788 15.5971C14.893 15.2753 15.0002 14.908 15.0002 14.4953C15.0002 13.9706 14.8302 13.5439 14.4904 13.2151C14.1579 12.8863 13.6407 12.6485 12.9388 12.5016L11.7087 12.2497C11.3467 12.1728 11.0918 12.0749 10.944 11.9559C10.8036 11.837 10.7334 11.6796 10.7334 11.4837C10.7334 11.2179 10.8517 11.001 11.0881 10.8332C11.3319 10.6653 11.6718 10.5813 12.1077 10.5813C12.4549 10.5813 12.7467 10.6128 12.9832 10.6758C13.2196 10.7387 13.4375 10.8157 13.637 10.9066C13.8291 10.9976 13.9954 11.0325 14.1357 11.0115C14.2835 10.9836 14.4017 10.9241 14.4904 10.8332C14.579 10.7352 14.6344 10.6233 14.6566 10.4974C14.6862 10.3715 14.6714 10.2455 14.6123 10.1196C14.5606 9.9937 14.4645 9.88877 14.3241 9.80483C14.0655 9.62994 13.7589 9.49703 13.4043 9.40609C13.1607 9.33737 12.9279 9.28932 12.7061 9.26193V8.62959C12.7061 8.4547 12.6433 8.3078 12.5177 8.18888C12.3921 8.06296 12.237 8 12.0522 8C11.8602 8 11.7013 8.06296 11.5757 8.18888C11.4501 8.3078 11.3873 8.4547 11.3873 8.62959V9.2897C10.9769 9.34788 10.6112 9.46013 10.2901 9.62644C9.90596 9.82931 9.60304 10.0951 9.38139 10.4239C9.16713 10.7527 9.06 11.127 9.06 11.5467C9.06 12.0853 9.22624 12.5261 9.55871 12.8688C9.89118 13.2046 10.3973 13.4425 11.077 13.5824L12.2961 13.8342C12.5473 13.8832 12.7467 13.9461 12.8945 14.0231C13.0497 14.093 13.1568 14.177 13.2159 14.2749C13.2824 14.3729 13.3156 14.4848 13.3156 14.6107C13.3156 14.7646 13.2676 14.901 13.1716 15.0199C13.0829 15.1389 12.9351 15.2368 12.7283 15.3137C12.5214 15.3837 12.248 15.4187 11.9082 15.4187C11.4501 15.4187 11.0622 15.3732 10.7445 15.2823C10.4268 15.1843 10.1793 15.0899 10.002 14.999C9.8173 14.908 9.65106 14.88 9.5033 14.915C9.36292 14.95 9.2484 15.0234 9.15975 15.1354C9.07109 15.2403 9.01937 15.3662 9.00459 15.5131C8.98982 15.653 9.01198 15.7894 9.07109 15.9224C9.13758 16.0553 9.2521 16.1602 9.41464 16.2371C9.66584 16.3631 9.97984 16.4785 10.3566 16.5834C10.6577 16.6673 11.0013 16.7221 11.3873 16.7479V17.3704C11.3873 17.5453 11.4501 17.6922 11.5757 17.8111Z" fill="currentColor"/>
</svg>
