<svg viewBox="0 0 24 24" fill="currentColor" xmlns="http://www.w3.org/2000/svg">
<path d="M2.75 12C2.75 6.89137 6.89137 2.75 12 2.75C17.1086 2.75 21.25 6.89137 21.25 12C21.25 13.6861 20.7996 15.2647 20.013 16.6245C19.8056 16.983 19.9281 17.4418 20.2866 17.6492C20.6452 17.8566 21.104 17.7341 21.3114 17.3755C22.2265 15.7936 22.75 13.9568 22.75 12C22.75 6.06294 17.9371 1.25 12 1.25C6.06294 1.25 1.25 6.06294 1.25 12C1.25 17.9371 6.06294 22.75 12 22.75C13.534 22.75 14.9949 22.4282 16.3172 21.8478C17.1405 21.4863 17.5959 20.7587 17.6793 19.9858C17.7613 19.2272 17.4892 18.4285 16.9014 17.8408L16.5812 17.5206C17.1616 16.7465 17.1277 15.6393 16.439 14.9006L15.6426 14.0464C15.1676 13.5369 14.3783 13.4849 13.8406 13.9276C13.4269 14.2681 12.8828 14.4427 12.4183 14.1756C11.9893 13.9289 11.4444 13.4678 10.9477 12.6074C10.451 11.747 10.3241 11.0446 10.3249 10.5498C10.3258 10.0139 10.7491 9.62996 11.2509 9.44197C11.9031 9.19763 12.2527 8.48808 12.049 7.82205L11.7074 6.70517C11.3664 5.59014 10.1636 4.98542 9.06522 5.37678L8.66355 5.51989C7.92407 5.78338 7.28628 6.299 7.11216 7.06446C6.81409 8.37489 6.73618 10.7666 8.58615 13.9708C10.4361 17.1751 12.5464 18.3035 13.8303 18.7005C14.3789 18.8702 14.9357 18.7582 15.4293 18.4866C15.4421 18.5016 15.4555 18.5162 15.4697 18.5303L15.8408 18.9014C16.1132 19.1738 16.2203 19.5256 16.188 19.8247C16.1573 20.1095 16.0048 20.3467 15.7143 20.4743C14.5784 20.9729 13.3226 21.25 12 21.25C6.89137 21.25 2.75 17.1086 2.75 12Z" fill="currentColor"/>
</svg>
