<svg viewBox="0 0 24 24" fill="currentColor" xmlns="http://www.w3.org/2000/svg">
<path d="M17.5578 16.4796L16.0721 15.551C15.1862 14.9973 14.0224 15.2284 13.4152 16.0785C12.948 16.7325 12.2274 17.1967 11.4506 16.99C10.7333 16.7991 9.76488 16.3426 8.71116 15.2888C7.65743 14.2351 7.20087 13.2667 7.00997 12.5494C6.80326 11.7726 7.26746 11.052 7.9215 10.5848C8.77162 9.97756 9.00266 8.81377 8.44896 7.92786L7.52045 6.44223C6.59347 4.95907 4.616 4.54986 3.17653 5.5433L2.65013 5.9066C1.68099 6.57544 0.957075 7.57013 1.00198 8.7468C1.07885 10.7612 1.89449 14.2567 5.81887 18.1811C9.74325 22.1055 13.2388 22.9211 15.2532 22.998C16.4299 23.0429 17.4246 22.319 18.0934 21.3499L18.4567 20.8235C19.4501 19.384 19.0409 17.4065 17.5578 16.4796Z" fill="currentColor"/>
<path d="M15 4C15 4.55228 14.5523 5 14 5C13.4477 5 13 4.55228 13 4C13 3.44772 13.4477 3 14 3C14.5523 3 15 3.44772 15 4Z" fill="currentColor"/>
<path d="M15 7C15 7.55228 14.5523 8 14 8C13.4477 8 13 7.55228 13 7C13 6.44772 13.4477 6 14 6C14.5523 6 15 6.44772 15 7Z" fill="currentColor"/>
<path d="M15 10C15 10.5523 14.5523 11 14 11C13.4477 11 13 10.5523 13 10C13 9.44772 13.4477 9 14 9C14.5523 9 15 9.44772 15 10Z" fill="currentColor"/>
<path d="M18 4C18 4.55228 17.5523 5 17 5C16.4477 5 16 4.55228 16 4C16 3.44772 16.4477 3 17 3C17.5523 3 18 3.44772 18 4Z" fill="currentColor"/>
<path d="M18 7C18 7.55228 17.5523 8 17 8C16.4477 8 16 7.55228 16 7C16 6.44772 16.4477 6 17 6C17.5523 6 18 6.44772 18 7Z" fill="currentColor"/>
<path d="M18 10C18 10.5523 17.5523 11 17 11C16.4477 11 16 10.5523 16 10C16 9.44772 16.4477 9 17 9C17.5523 9 18 9.44772 18 10Z" fill="currentColor"/>
<path d="M21 4C21 4.55228 20.5523 5 20 5C19.4477 5 19 4.55228 19 4C19 3.44772 19.4477 3 20 3C20.5523 3 21 3.44772 21 4Z" fill="currentColor"/>
<path d="M21 7C21 7.55228 20.5523 8 20 8C19.4477 8 19 7.55228 19 7C19 6.44772 19.4477 6 20 6C20.5523 6 21 6.44772 21 7Z" fill="currentColor"/>
<path d="M21 10C21 10.5523 20.5523 11 20 11C19.4477 11 19 10.5523 19 10C19 9.44772 19.4477 9 20 9C20.5523 9 21 9.44772 21 10Z" fill="currentColor"/>
</svg>
