<svg viewBox="0 0 24 24" fill="currentColor" xmlns="http://www.w3.org/2000/svg">
<path d="M4 4C2.89543 4 2 4.89543 2 6V16C2 16.9321 2.63766 17.7153 3.50056 17.9371C3.53409 16.0331 5.088 14.5 7 14.5C8.933 14.5 10.5 16.067 10.5 18H13.5C13.5 16.067 15.067 14.5 17 14.5C18.912 14.5 20.4659 16.0331 20.4994 17.9371C21.3623 17.7153 22 16.9321 22 16V12.75H15V11.25H21.4L18.6005 7.75061C18.2209 7.27618 17.6463 7 17.0387 7H15V6C15 4.89543 14.1046 4 13 4H4ZM12.5303 7.53033L7.53033 12.5303C7.38968 12.671 7.19891 12.75 7 12.75C6.80109 12.75 6.61032 12.671 6.46967 12.5303L4.46967 10.5303C4.17678 10.2374 4.17678 9.76256 4.46967 9.46967C4.76256 9.17678 5.23744 9.17678 5.53033 9.46967L7 10.9393L11.4697 6.46967C11.7626 6.17678 12.2374 6.17678 12.5303 6.46967C12.8232 6.76256 12.8232 7.23744 12.5303 7.53033Z" fill="currentColor"/>
<path d="M9 18C9 19.1046 8.10457 20 7 20C5.89543 20 5 19.1046 5 18C5 16.8954 5.89543 16 7 16C8.10457 16 9 16.8954 9 18Z" fill="currentColor"/>
<path d="M19 18C19 19.1046 18.1046 20 17 20C15.8954 20 15 19.1046 15 18C15 16.8954 15.8954 16 17 16C18.1046 16 19 16.8954 19 18Z" fill="currentColor"/>
</svg>
