<svg viewBox="0 0 24 24" fill="currentColor" xmlns="http://www.w3.org/2000/svg">
<path d="M5.25 11.5C5.25 11.0858 5.58579 10.75 6 10.75H8C8.41421 10.75 8.75 11.0858 8.75 11.5C8.75 11.9142 8.41421 12.25 8 12.25H6C5.58579 12.25 5.25 11.9142 5.25 11.5Z" fill="currentColor"/>
<path d="M4 4C2.89543 4 2 4.89543 2 6V16C2 16.9321 2.63766 17.7153 3.50056 17.9371C3.53409 16.0331 5.088 14.5 7 14.5C8.933 14.5 10.5 16.067 10.5 18H13.5C13.5 16.067 15.067 14.5 17 14.5C18.912 14.5 20.4659 16.0331 20.4994 17.9371C21.3623 17.7153 22 16.9321 22 16V12.75H15V11.25H21.4L18.6005 7.75061C18.2209 7.27618 17.6463 7 17.0387 7H15V6C15 4.89543 14.1046 4 13 4H4ZM6.56619 5.5H10.4338C10.7851 5.5 11.1106 5.6843 11.2913 5.9855L12.05 7.25H4.95L5.7087 5.9855C5.88942 5.6843 6.21493 5.5 6.56619 5.5ZM12.5 8.75V12.5C12.5 13.0523 12.0523 13.5 11.5 13.5H5.5C4.94772 13.5 4.5 13.0523 4.5 12.5V8.75H12.5Z" fill="currentColor"/>
<path d="M9 18C9 19.1046 8.10457 20 7 20C5.89543 20 5 19.1046 5 18C5 16.8954 5.89543 16 7 16C8.10457 16 9 16.8954 9 18Z" fill="currentColor"/>
<path d="M19 18C19 19.1046 18.1046 20 17 20C15.8954 20 15 19.1046 15 18C15 16.8954 15.8954 16 17 16C18.1046 16 19 16.8954 19 18Z" fill="currentColor"/>
</svg>
