<svg viewBox="0 0 24 24" fill="currentColor" xmlns="http://www.w3.org/2000/svg">
<path d="M9.25 7.99023C9.25 7.57602 8.91421 7.24023 8.5 7.24023C8.08579 7.24023 7.75 7.57602 7.75 7.99023V9.49023C7.75 9.90445 8.08579 10.2402 8.5 10.2402C8.91421 10.2402 9.25 9.90445 9.25 9.49023V7.99023Z" fill="currentColor"/>
<path d="M9.25 11.4902C9.25 11.076 8.91421 10.7402 8.5 10.7402C8.08579 10.7402 7.75 11.076 7.75 11.4902V11.5002C7.75 11.9144 8.08579 12.2502 8.5 12.2502C8.91421 12.2502 9.25 11.9144 9.25 11.5002V11.4902Z" fill="currentColor"/>
<path d="M4 4C2.89543 4 2 4.89543 2 6V16C2 16.9321 2.63766 17.7153 3.50056 17.9371C3.53409 16.0331 5.088 14.5 7 14.5C8.933 14.5 10.5 16.067 10.5 18H13.5C13.5 16.067 15.067 14.5 17 14.5C18.912 14.5 20.4659 16.0331 20.4994 17.9371C21.3623 17.7153 22 16.9321 22 16V12.75H15V11.25H21.4L18.6005 7.75061C18.2209 7.27618 17.6463 7 17.0387 7H15V6C15 4.89543 14.1046 4 13 4H4ZM9.348 6.3568L12.5438 11.47C12.96 12.136 12.4812 13 11.6958 13H5.30425C4.51881 13 4.03997 12.136 4.45625 11.47L7.652 6.3568C8.04367 5.73013 8.95633 5.73013 9.348 6.3568Z" fill="currentColor"/>
<path d="M9 18C9 19.1046 8.10457 20 7 20C5.89543 20 5 19.1046 5 18C5 16.8954 5.89543 16 7 16C8.10457 16 9 16.8954 9 18Z" fill="currentColor"/>
<path d="M17 20C18.1046 20 19 19.1046 19 18C19 16.8954 18.1046 16 17 16C15.8954 16 15 16.8954 15 18C15 19.1046 15.8954 20 17 20Z" fill="currentColor"/>
</svg>
