<svg viewBox="0 0 24 24" fill="currentColor" xmlns="http://www.w3.org/2000/svg">
<path d="M8 6.5C7.86193 6.5 7.75 6.61193 7.75 6.75V7.75H9.25V6.75C9.25 6.61193 9.13807 6.5 9 6.5H8Z" fill="currentColor"/>
<path d="M4 3C2.89543 3 2 3.89543 2 5V16C2 16.9321 2.63766 17.7153 3.50056 17.9371C3.53409 16.0331 5.088 14.5 7 14.5C8.933 14.5 10.5 16.067 10.5 18H13.5C13.5 16.067 15.067 14.5 17 14.5C18.912 14.5 20.4659 16.0331 20.4994 17.9371C21.3623 17.7153 22 16.9321 22 16V12.75H15V11.25H21.4L18.6005 7.75061C18.2209 7.27618 17.6463 7 17.0387 7H15V5C15 3.89543 14.1046 3 13 3H4ZM6.25 6.75C6.25 5.7835 7.0335 5 8 5H9C9.9665 5 10.75 5.7835 10.75 6.75V7.75H11C11.5523 7.75 12 8.19772 12 8.75V11.75C12 12.3023 11.5523 12.75 11 12.75H6C5.44772 12.75 5 12.3023 5 11.75V8.75C5 8.19772 5.44772 7.75 6 7.75H6.25V6.75Z" fill="currentColor"/>
<path d="M9 18C9 19.1046 8.10457 20 7 20C5.89543 20 5 19.1046 5 18C5 16.8954 5.89543 16 7 16C8.10457 16 9 16.8954 9 18Z" fill="currentColor"/>
<path d="M19 18C19 19.1046 18.1046 20 17 20C15.8954 20 15 19.1046 15 18C15 16.8954 15.8954 16 17 16C18.1046 16 19 16.8954 19 18Z" fill="currentColor"/>
</svg>
