<svg viewBox="0 0 24 24" fill="currentColor" xmlns="http://www.w3.org/2000/svg">
<path d="M9 18C9 19.1046 8.10457 20 7 20C5.89543 20 5 19.1046 5 18C5 16.8954 5.89543 16 7 16C8.10457 16 9 16.8954 9 18Z" fill="currentColor"/>
<path d="M19 18C19 19.1046 18.1046 20 17 20C15.8954 20 15 19.1046 15 18C15 16.8954 15.8954 16 17 16C18.1046 16 19 16.8954 19 18Z" fill="currentColor"/>
<path d="M9.03033 7.46967C8.73744 7.17678 8.26256 7.17678 7.96967 7.46967L5.46967 9.96967C5.17678 10.2626 5.17678 10.7374 5.46967 11.0303C5.76256 11.3232 6.23744 11.3232 6.53033 11.0303L8.5 9.06066L10.4697 11.0303C10.7626 11.3232 11.2374 11.3232 11.5303 11.0303C11.8232 10.7374 11.8232 10.2626 11.5303 9.96967L9.03033 7.46967Z" fill="currentColor"/>
<path d="M4 3C2.89543 3 2 3.89543 2 5V16C2 16.9321 2.63766 17.7153 3.50056 17.9371C3.53409 16.0331 5.088 14.5 7 14.5C8.933 14.5 10.5 16.067 10.5 18H13.5C13.5 16.067 15.067 14.5 17 14.5C18.912 14.5 20.4659 16.0331 20.4994 17.9371C21.3623 17.7153 22 16.9321 22 16V10.75H15V9.25H21.4L18.6005 5.75061C18.2209 5.27618 17.6463 5 17.0387 5H15C15 3.89543 14.1046 3 13 3H4ZM12.5 9.5C12.5 11.7091 10.7091 13.5 8.5 13.5C6.29086 13.5 4.5 11.7091 4.5 9.5C4.5 7.29086 6.29086 5.5 8.5 5.5C10.7091 5.5 12.5 7.29086 12.5 9.5Z" fill="currentColor"/>
</svg>
