<svg viewBox="0 0 24 24" fill="currentColor" xmlns="http://www.w3.org/2000/svg">
<path d="M4 3C2.89543 3 2 3.89543 2 5V16C2 16.9321 2.63766 17.7153 3.50056 17.9371C3.53409 16.0331 5.088 14.5 7 14.5C8.933 14.5 10.5 16.067 10.5 18H13.5C13.5 16.067 15.067 14.5 17 14.5C18.912 14.5 20.4659 16.0331 20.4994 17.9371C21.3623 17.7153 22 16.9321 22 16V12.75H15V11.25H21.4L18.6005 7.75061C18.2209 7.27618 17.6463 7 17.0387 7H15V5C15 3.89543 14.1046 3 13 3H4ZM12.4905 9.07408L12.225 10.706C12.0096 12.0298 10.8915 13 9.58144 13H7.83203C7.31851 13 6.90222 12.5837 6.90222 12.0702V8.63376C6.88484 8.42022 6.96502 8.21082 7.11768 8.07099L7.65911 7.57508C7.91033 7.34499 8.152 7.09607 8.30831 6.78505C8.41529 6.57218 8.49826 6.34689 8.55522 6.1135L8.73424 5.37996C8.76891 5.23789 8.86245 5.11844 8.99031 5.05296C9.10647 4.99346 9.24095 4.98367 9.36415 5.02574L9.41871 5.04437C9.62257 5.11398 9.77759 5.28546 9.8297 5.49901C9.89262 5.7568 9.90419 6.02574 9.86368 6.28857L9.61429 7.90639C9.58301 8.10931 9.73017 8.29368 9.92341 8.29368H11.8732C12.2619 8.29368 12.5568 8.66648 12.4905 9.07408ZM5.29988 8.2C5.74171 8.2 6.09988 8.55817 6.09988 9V12.2C6.09988 12.6418 5.74171 13 5.29988 13C4.85805 13 4.49988 12.6418 4.49988 12.2V9C4.49988 8.55817 4.85805 8.2 5.29988 8.2Z" fill="currentColor"/>
<path d="M9 18C9 19.1046 8.10457 20 7 20C5.89543 20 5 19.1046 5 18C5 16.8954 5.89543 16 7 16C8.10457 16 9 16.8954 9 18Z" fill="currentColor"/>
<path d="M19 18C19 19.1046 18.1046 20 17 20C15.8954 20 15 19.1046 15 18C15 16.8954 15.8954 16 17 16C18.1046 16 19 16.8954 19 18Z" fill="currentColor"/>
</svg>
