<svg viewBox="0 0 24 24" fill="currentColor" xmlns="http://www.w3.org/2000/svg">
<path d="M4 4C2.89543 4 2 4.89543 2 6V16C2 16.9321 2.63766 17.7153 3.50056 17.9371C3.53409 16.0331 5.088 14.5 7 14.5C8.933 14.5 10.5 16.067 10.5 18H13.5C13.5 16.067 15.067 14.5 17 14.5C18.912 14.5 20.4659 16.0331 20.4994 17.9371C21.3623 17.7153 22 16.9321 22 16V12.75H15V11.25H21.4L18.6005 7.75061C18.2209 7.27618 17.6463 7 17.0387 7H15V6C15 4.89543 14.1046 4 13 4H4ZM8.42632 8.41152C8.70889 8.136 8.82927 7.90291 8.82927 7.72486L8.82915 7.72173L8.82845 7.7132C8.82769 7.70592 8.82637 7.69637 8.8242 7.68481C8.81985 7.66157 8.81253 7.63264 8.80121 7.60038C8.7784 7.53538 8.74159 7.46329 8.68653 7.39807C8.59813 7.29337 8.41804 7.15026 8.0002 7.15026C7.53177 7.15026 7.34331 7.28564 7.2723 7.35665C7.22989 7.39905 7.20409 7.44348 7.18893 7.48158C7.18131 7.50073 7.17665 7.51766 7.17398 7.53094C7.17143 7.54367 7.17112 7.55153 7.17112 7.55153C7.17112 7.95877 6.83495 8.27661 6.43566 8.27661C6.03637 8.27661 5.7002 7.95881 5.7002 7.55157C5.7002 7.19072 5.84258 6.72078 6.22483 6.33857C6.6235 5.93995 7.21753 5.7002 8.0002 5.7002C8.83381 5.7002 9.43605 6.01905 9.81712 6.47043C10.1711 6.88973 10.3002 7.38267 10.3002 7.72486C10.3002 8.50012 9.82205 9.09019 9.46072 9.4425C9.2681 9.63032 9.07382 9.78407 8.92485 9.89655C8.87525 9.93401 8.82652 9.96995 8.78718 9.99896L8.74088 10.0332L8.73566 10.0372V10.4974C8.73566 10.9046 8.39948 11.2224 8.0002 11.2224C7.60091 11.2224 7.26473 10.9046 7.26473 10.4974V9.97755C7.26473 9.8282 7.27098 9.40158 7.67631 9.01999C7.73508 8.96466 7.80864 8.91 7.85158 8.8781L7.85372 8.87651L7.91088 8.83425C7.94854 8.80649 7.98713 8.77803 8.03037 8.74538C8.15753 8.64936 8.29684 8.53777 8.42632 8.41152ZM8.82175 12.4912C8.82175 12.9448 8.44705 13.3002 8.00024 13.3002C7.55343 13.3002 7.17873 12.9448 7.17873 12.4912C7.17873 12.0375 7.55343 11.6822 8.00024 11.6822C8.44705 11.6822 8.82175 12.0375 8.82175 12.4912Z" fill="currentColor"/>
<path d="M9 18C9 19.1046 8.10457 20 7 20C5.89543 20 5 19.1046 5 18C5 16.8954 5.89543 16 7 16C8.10457 16 9 16.8954 9 18Z" fill="currentColor"/>
<path d="M19 18C19 19.1046 18.1046 20 17 20C15.8954 20 15 19.1046 15 18C15 16.8954 15.8954 16 17 16C18.1046 16 19 16.8954 19 18Z" fill="currentColor"/>
</svg>
