<svg viewBox="0 0 24 24" fill="currentColor" xmlns="http://www.w3.org/2000/svg">
<path d="M5.5 9.08333C5.5 7.6566 6.6566 6.5 8.08333 6.5C9.51007 6.5 10.6667 7.6566 10.6667 9.08333C10.6667 10.5101 9.51007 11.6667 8.08333 11.6667C6.6566 11.6667 5.5 10.5101 5.5 9.08333Z" fill="currentColor"/>
<path d="M4 4C2.89543 4 2 4.89543 2 6V16C2 16.9321 2.63766 17.7153 3.50056 17.9371C3.53409 16.0331 5.088 14.5 7 14.5C8.933 14.5 10.5 16.067 10.5 18H13.5C13.5 16.067 15.067 14.5 17 14.5C18.912 14.5 20.4659 16.0331 20.4994 17.9371C21.3623 17.7153 22 16.9321 22 16V12.75H15V11.25H21.4L18.6005 7.75061C18.2209 7.27618 17.6463 7 17.0387 7H15V6C15 4.89543 14.1046 4 13 4H4ZM8.08333 5C10.3385 5 12.1667 6.82817 12.1667 9.08333C12.1667 9.93993 11.9029 10.7349 11.4522 11.3915L13.2803 13.2197C13.5732 13.5126 13.5732 13.9874 13.2803 14.2803C12.9874 14.5732 12.5126 14.5732 12.2197 14.2803L10.3915 12.4522C9.73491 12.9029 8.93993 13.1667 8.08333 13.1667C5.82817 13.1667 4 11.3385 4 9.08333C4 6.82817 5.82817 5 8.08333 5Z" fill="currentColor"/>
<path d="M9 18C9 19.1046 8.10457 20 7 20C5.89543 20 5 19.1046 5 18C5 16.8954 5.89543 16 7 16C8.10457 16 9 16.8954 9 18Z" fill="currentColor"/>
<path d="M19 18C19 19.1046 18.1046 20 17 20C15.8954 20 15 19.1046 15 18C15 16.8954 15.8954 16 17 16C18.1046 16 19 16.8954 19 18Z" fill="currentColor"/>
</svg>
