<svg viewBox="0 0 24 24" fill="currentColor" xmlns="http://www.w3.org/2000/svg">
<path d="M5.75 9.5C5.75 7.98122 6.98122 6.75 8.5 6.75C8.98687 6.75 9.44418 6.87652 9.84086 7.09848L6.09848 10.8409C5.87652 10.4442 5.75 9.98687 5.75 9.5Z" fill="currentColor"/>
<path d="M7.15913 11.9015L10.9015 8.15912C11.1235 8.5558 11.25 9.01311 11.25 9.49998C11.25 11.0188 10.0188 12.25 8.49999 12.25C8.01312 12.25 7.55581 12.1235 7.15913 11.9015Z" fill="currentColor"/>
<path d="M4 4C2.89543 4 2 4.89543 2 6V16C2 16.9321 2.63766 17.7153 3.50056 17.9371C3.53409 16.0331 5.088 14.5 7 14.5C8.933 14.5 10.5 16.067 10.5 18H13.5C13.5 16.067 15.067 14.5 17 14.5C18.912 14.5 20.4659 16.0331 20.4994 17.9371C21.3623 17.7153 22 16.9321 22 16V12.75H15V11.25H21.4L18.6005 7.75061C18.2209 7.27618 17.6463 7 17.0387 7H15V6C15 4.89543 14.1046 4 13 4H4ZM8.5 5.25C10.8472 5.25 12.75 7.15279 12.75 9.5C12.75 11.8472 10.8472 13.75 8.5 13.75C6.15279 13.75 4.25 11.8472 4.25 9.5C4.25 7.15279 6.15279 5.25 8.5 5.25Z" fill="currentColor"/>
<path d="M9 18C9 19.1046 8.10457 20 7 20C5.89543 20 5 19.1046 5 18C5 16.8954 5.89543 16 7 16C8.10457 16 9 16.8954 9 18Z" fill="currentColor"/>
<path d="M19 18C19 19.1046 18.1046 20 17 20C15.8954 20 15 19.1046 15 18C15 16.8954 15.8954 16 17 16C18.1046 16 19 16.8954 19 18Z" fill="currentColor"/>
</svg>
