<svg viewBox="0 0 24 24" fill="currentColor" xmlns="http://www.w3.org/2000/svg">
<path d="M2.00146 4.02898C1.96503 3.53581 2.62135 3.30716 2.91852 3.70949L6.93667 9.14953L11.176 3.41009C11.5798 2.8633 12.4202 2.8633 12.824 3.41009L17.0633 9.14953L21.0815 3.70949C21.3786 3.30716 22.035 3.53581 21.9985 4.02898L20.2484 19.181C20.1727 20.2059 19.2907 21 18.2282 21H5.77183C4.70926 21 3.82735 20.2059 3.75165 19.181L2.00146 4.02898ZM8.25 16C8.25 16.4142 8.58579 16.75 9 16.75H15C15.4142 16.75 15.75 16.4142 15.75 16C15.75 15.5858 15.4142 15.25 15 15.25H9C8.58579 15.25 8.25 15.5858 8.25 16ZM12.9051 8.74875L12.2393 7.16348C12.1477 6.94551 11.8523 6.94551 11.7607 7.16348L11.0949 8.74875C11.0569 8.83907 10.9755 8.90101 10.8817 8.91087L9.23561 9.08386C9.00927 9.10765 8.91797 9.40176 9.08773 9.56026L10.3223 10.713C10.3926 10.7787 10.4238 10.8789 10.4037 10.9753L10.0522 12.6675C10.0039 12.9002 10.2429 13.082 10.4394 12.9619L11.8683 12.0891C11.909 12.0642 11.9545 12.0518 12 12.0518C12.0455 12.0518 12.091 12.0642 12.1317 12.0891L13.5606 12.9619C13.7571 13.082 13.9961 12.9002 13.9478 12.6675L13.5963 10.9753C13.5762 10.8789 13.6074 10.7787 13.6777 10.713L14.9123 9.56027C15.082 9.40176 14.9907 9.10765 14.7644 9.08386L13.1183 8.91087C13.0245 8.90101 12.9431 8.83907 12.9051 8.74875Z" fill="currentColor"/>
</svg>
