<svg viewBox="0 0 24 24" fill="currentColor" xmlns="http://www.w3.org/2000/svg">
<path d="M2.00195 7.27154C1.96084 6.77423 2.579 6.51886 2.89592 6.90223L5.9014 10.5378C6.37953 11.1162 7.29298 10.992 7.60203 10.3066L11.0777 2.59867C11.4376 1.80044 12.5624 1.80044 12.9223 2.59867L16.398 10.3066C16.707 10.992 17.6205 11.1162 18.0986 10.5378L21.1041 6.90223C21.421 6.51886 22.0392 6.77423 21.998 7.27154L20.273 16.0421C20.1855 17.1007 19.3076 17.915 18.2537 17.915H5.74626C4.69242 17.915 3.81451 17.1007 3.727 16.0421L2.00195 7.27154ZM12.2393 9.16348C12.1477 8.94551 11.8523 8.94551 11.7607 9.16348L11.0949 10.7488C11.0569 10.8391 10.9755 10.901 10.8817 10.9109L9.23561 11.0839C9.00927 11.1076 8.91797 11.4018 9.08773 11.5603L10.3223 12.713C10.3926 12.7787 10.4238 12.8789 10.4037 12.9753L10.0522 14.6675C10.0039 14.9002 10.2429 15.082 10.4394 14.9619L11.8683 14.0891C11.9497 14.0394 12.0503 14.0394 12.1317 14.0891L13.5606 14.9619C13.7571 15.082 13.9961 14.9002 13.9478 14.6675L13.5963 12.9753C13.5762 12.8789 13.6074 12.7787 13.6777 12.713L14.9123 11.5603C15.082 11.4018 14.9907 11.1076 14.7644 11.0839L13.1183 10.9109C13.0245 10.901 12.9431 10.8391 12.9051 10.7488L12.2393 9.16348Z" fill="currentColor"/>
<path d="M3.76636 20.9954C3.76636 20.4405 4.2257 19.9907 4.79232 19.9907H19.2077C19.7743 19.9907 20.2337 20.4405 20.2337 20.9954C20.2337 21.5504 19.7743 22.0002 19.2077 22.0002H4.79232C4.2257 22.0002 3.76636 21.5504 3.76636 20.9954Z" fill="currentColor"/>
</svg>
