<svg viewBox="0 0 24 24" fill="currentColor" xmlns="http://www.w3.org/2000/svg">
<path d="M10 5C10 6.65685 8.65685 8 7 8C5.34315 8 4 6.65685 4 5C4 3.34315 5.34315 2 7 2C8.65685 2 10 3.34315 10 5Z" fill="currentColor"/>
<path d="M7.5 10C4.46243 10 2 12.4624 2 15.5V20C2 21.1046 2.89543 22 4 22H9C9 20.2741 10.3431 18.875 12 18.875C13.6569 18.875 15 20.2741 15 22H20C21.1046 22 22 21.1046 22 20V15.5C22 12.4624 19.5376 10 16.5 10C14.6398 10 12.9954 10.9234 12 12.3369C11.0046 10.9234 9.36016 10 7.5 10ZM12 17.625C11.0059 17.625 10.2 16.7855 10.2 15.75C10.2 14.7145 11.0059 13.875 12 13.875C12.9941 13.875 13.8 14.7145 13.8 15.75C13.8 16.7855 12.9941 17.625 12 17.625Z" fill="currentColor"/>
<path d="M20 5C20 6.65685 18.6569 8 17 8C15.3431 8 14 6.65685 14 5C14 3.34315 15.3431 2 17 2C18.6569 2 20 3.34315 20 5Z" fill="currentColor"/>
</svg>
