<svg viewBox="0 0 24 24" fill="currentColor" xmlns="http://www.w3.org/2000/svg">
<path d="M5.25 5.75C5.25 3.67893 6.92893 2 9 2C10.2267 2 11.3158 2.58901 12 3.49963C12.6842 2.58901 13.7733 2 15 2C17.0711 2 18.75 3.67893 18.75 5.75C18.75 6.5942 18.471 7.37325 18.0003 8H21C21.5523 8 22 8.44772 22 9V10C22 10.5523 21.5523 11 21 11H3C2.44772 11 2 10.5523 2 10V9C2 8.44772 2.44772 8 3 8H5.99973C5.52896 7.37325 5.25 6.5942 5.25 5.75ZM9 8H11.25V5.75C11.25 4.50736 10.2426 3.5 9 3.5C7.75736 3.5 6.75 4.50736 6.75 5.75C6.75 6.99264 7.75736 8 9 8ZM12.75 8H15C16.2426 8 17.25 6.99264 17.25 5.75C17.25 4.50736 16.2426 3.5 15 3.5C13.7574 3.5 12.75 4.50736 12.75 5.75V8Z" fill="currentColor"/>
<path d="M3 12.5V20C3 21.1046 3.89543 22 5 22H19C20.1046 22 21 21.1046 21 20V12.5H3Z" fill="currentColor"/>
</svg>
