<svg viewBox="0 0 24 24" fill="currentColor" xmlns="http://www.w3.org/2000/svg">
<path d="M9 2C6.92893 2 5.25 3.67893 5.25 5.75C5.25 6.5942 5.52896 7.37325 5.99973 8H3C2.44772 8 2 8.44771 2 9V10C2 10.5523 2.44772 11 3 11H21C21.5523 11 22 10.5523 22 10V9C22 8.44772 21.5523 8 21 8H18.0003C18.471 7.37325 18.75 6.5942 18.75 5.75C18.75 3.67893 17.0711 2 15 2C13.7733 2 12.6842 2.58901 12 3.49963C11.3158 2.58901 10.2267 2 9 2ZM11.25 8H9C7.75736 8 6.75 6.99264 6.75 5.75C6.75 4.50736 7.75736 3.5 9 3.5C10.2426 3.5 11.25 4.50736 11.25 5.75V8ZM15 8H12.75V5.75C12.75 4.50736 13.7574 3.5 15 3.5C16.2426 3.5 17.25 4.50736 17.25 5.75C17.25 6.99264 16.2426 8 15 8Z" fill="currentColor"/>
<path d="M3 12.5V20C3 21.1046 3.89543 22 5 22H19C20.1046 22 21 21.1046 21 20V12.5H3ZM11.0949 15.7488L11.7607 14.1635C11.8523 13.9455 12.1477 13.9455 12.2393 14.1635L12.9051 15.7488C12.9431 15.8391 13.0245 15.901 13.1183 15.9109L14.7644 16.0839C14.9907 16.1076 15.082 16.4018 14.9123 16.5603L13.6777 17.713C13.6074 17.7787 13.5762 17.8789 13.5963 17.9753L13.9478 19.6675C13.9961 19.9002 13.7571 20.082 13.5606 19.9619L12.1317 19.0891C12.091 19.0642 12.0455 19.0518 12 19.0518C11.9545 19.0518 11.909 19.0642 11.8683 19.0891L10.4394 19.9619C10.2429 20.082 10.0039 19.9002 10.0522 19.6675L10.4037 17.9753C10.4238 17.8789 10.3926 17.7787 10.3223 17.713L9.08773 16.5603C8.91797 16.4018 9.00927 16.1076 9.23561 16.0839L10.8817 15.9109C10.9755 15.901 11.0569 15.8391 11.0949 15.7488Z" fill="currentColor"/>
</svg>
