<svg viewBox="0 0 24 24" fill="currentColor" xmlns="http://www.w3.org/2000/svg">
<path d="M16.4231 6.64679C16.437 6.67413 16.4524 6.70052 16.4694 6.72584C16.5578 6.9982 16.6144 7.28545 16.6345 7.58335L17.457 19.7353C17.5138 20.5753 17.2741 21.3631 16.83 22H18.9754C20.1503 22 21.0785 21.0028 20.9948 19.8304L20.1271 7.67849C20.0514 6.61863 19.1699 5.79747 18.1078 5.79747H17.8598C17.8598 3.70018 16.1604 2 14.0639 2C14.0438 2 14.0239 2.00078 14.0042 2.00232C14.4703 2.49614 14.8327 3.08905 15.0563 3.74609C15.817 4.11506 16.3415 4.89499 16.3415 5.79747H16.0076C16.1402 5.98757 16.2546 6.19146 16.3484 6.40673C16.3525 6.43733 16.3585 6.46734 16.3662 6.49667C16.3862 6.54614 16.4052 6.59619 16.4231 6.64679Z" fill="currentColor"/>
<path d="M3.89798 7.68597C3.96992 6.62295 4.85283 5.79747 5.91785 5.79747H7.23125V5.29114C7.23125 3.47349 8.70414 2 10.5211 2C12.338 2 13.8109 3.47349 13.8109 5.29114V5.92607C14.5343 6.19769 15.0646 6.87224 15.1196 7.68597L15.9421 19.8379C16.0212 21.0076 15.0941 22 13.9222 22H4.01229C3.42633 22 2.96278 21.5038 3.00236 20.9189L3.89798 7.68597ZM12.2925 5.29114C12.2925 4.31241 11.4994 3.51899 10.5211 3.51899C9.54272 3.51899 8.74962 4.31241 8.74962 5.29114V5.79747H12.2925V5.29114ZM9.77915 10.1907C9.67234 9.93642 9.32766 9.93642 9.22085 10.1907L8.44402 12.0402C8.39976 12.1456 8.30474 12.2178 8.19533 12.2293L6.27488 12.4312C6.01082 12.4589 5.9043 12.8021 6.10235 12.987L7.5427 14.3318C7.62476 14.4085 7.66105 14.5254 7.63769 14.6379L7.22761 16.6121C7.17123 16.8835 7.45008 17.0956 7.67929 16.9556L9.3463 15.9373C9.39379 15.9083 9.44689 15.8938 9.5 15.8938C9.55311 15.8938 9.60621 15.9083 9.6537 15.9373L11.3207 16.9556C11.5499 17.0956 11.8288 16.8835 11.7724 16.6121L11.3623 14.6379C11.3389 14.5254 11.3752 14.4085 11.4573 14.3318L12.8976 12.987C13.0957 12.8021 12.9892 12.4589 12.7251 12.4312L10.8047 12.2293C10.6953 12.2178 10.6002 12.1456 10.556 12.0402L9.77915 10.1907Z" fill="currentColor"/>
</svg>
