<svg viewBox="0 0 24 24" fill="currentColor" xmlns="http://www.w3.org/2000/svg">
<path d="M16.4179 4.439C16.4179 5.78602 15.3488 6.87799 14.0299 6.87799C12.711 6.87799 11.6419 5.78602 11.6419 4.439C11.6419 3.09198 12.711 2 14.0299 2C15.3488 2 16.4179 3.09198 16.4179 4.439Z" fill="currentColor"/>
<path d="M11.1939 7.72439C11.8294 7.56523 12.5106 7.86894 12.8155 8.49185C13.2348 9.34819 14.1073 9.65757 15.0167 9.88978L16.7655 10.3363C17.4969 10.5231 17.9552 11.2532 17.8308 12C17.8374 11.9999 17.8441 11.9999 17.8508 11.9999C19.0378 11.9999 20 12.9827 20 14.195V20.5364C20 20.9405 19.6793 21.2681 19.2836 21.2681C18.8879 21.2681 18.5672 20.9405 18.5672 20.5364V14.195C18.5672 13.7909 18.2464 13.4633 17.8508 13.4633C17.4551 13.4633 17.1344 13.7909 17.1344 14.195V14.6828C17.1344 15.0869 16.8136 15.4145 16.4179 15.4145C16.0223 15.4145 15.7015 15.0869 15.7015 14.6828V14.195C15.7015 13.8158 15.7957 13.4591 15.9614 13.1478L14.3217 12.7292C13.3372 12.4778 12.4423 11.9822 11.7082 11.3008C11.4344 11.8742 11.2598 12.4936 11.1939 13.1313L12.5112 14.4767C14.1276 16.1276 14.8638 18.4741 14.488 20.777C14.3579 21.5742 13.6197 22.1127 12.8391 21.9799C12.0586 21.847 11.5313 21.093 11.6614 20.2958C11.8698 19.0187 11.5035 17.719 10.6742 16.7528C10.1561 18.5631 9.19915 20.2228 7.87895 21.5712C7.3194 22.1426 6.41219 22.1426 5.85264 21.5712C5.29309 20.9997 5.29309 20.0731 5.85264 19.5016C7.16843 18.1577 7.99723 16.3965 8.20272 14.5076L8.29904 13.6223C8.30602 12.9149 8.4002 12.2159 8.57626 11.5409C7.81118 12.0673 7.14626 12.745 6.62515 13.5433C6.18621 14.2158 5.29661 14.3975 4.63819 13.9492C3.97976 13.5009 3.80185 12.5923 4.24079 11.9198C5.67172 9.72765 8.6757 8.29594 11.1939 7.72439Z" fill="currentColor"/>
</svg>
