<svg viewBox="0 0 24 24" fill="currentColor" xmlns="http://www.w3.org/2000/svg">
<path d="M13.925 4.38095C13.925 5.69592 12.8617 6.7619 11.55 6.7619C10.2383 6.7619 9.17499 5.69592 9.17499 4.38095C9.17499 3.06599 10.2383 2 11.55 2C12.8617 2 13.925 3.06599 13.925 4.38095Z" fill="currentColor"/>
<path d="M11.1021 9.34377C10.2571 7.84877 8.15177 7.66209 7.06368 9.0256L6.57469 9.63836C6.10558 10.2262 5.85 10.9566 5.85 11.7095V13.3494L5.75463 14.2099C5.55026 16.0539 4.72598 17.7732 3.41737 19.0851C2.86088 19.643 2.86088 20.5475 3.41737 21.1054C3.97387 21.6633 4.87613 21.6633 5.43263 21.1054C6.74561 19.7891 7.69735 18.169 8.21266 16.4017C9.03739 17.3449 9.40166 18.6136 9.19439 19.8604C9.06501 20.6386 9.58943 21.3747 10.3657 21.5044C11.142 21.6341 11.8762 21.1083 12.0056 20.3301C12.3794 18.082 11.6471 15.7913 10.0396 14.1798L8.7 12.8368V11.7095C8.7 11.6054 8.73533 11.5045 8.80017 11.4232L8.94472 11.2421C9.28978 11.6544 9.7588 11.9522 10.2894 12.0852L13.5794 12.9097C13.6154 12.9188 13.6515 12.9263 13.6875 12.9325V21.0476C13.6875 21.4421 14.0065 21.7619 14.4 21.7619C14.7935 21.7619 15.1125 21.4421 15.1125 21.0476V15.5714H19.3875V18.3289C18.6912 18.6115 18.2 19.2959 18.2 20.0952C18.2 21.1472 19.0507 22 20.1 22C21.1493 22 22 21.1472 22 20.0952C22 19.2959 21.5088 18.6115 20.8125 18.3289V14.8571C20.8125 12.6217 19.0048 10.8095 16.775 10.8095H15.1591C14.9727 10.486 14.6607 10.2357 14.2706 10.1379L11.1021 9.34377ZM15.1125 12.3142C15.1289 12.2894 15.1446 12.264 15.1595 12.2381H16.775C17.9708 12.2381 18.979 13.0436 19.2892 14.1429H15.1125V12.3142Z" fill="currentColor"/>
</svg>
