<svg viewBox="0 0 24 24" fill="currentColor" xmlns="http://www.w3.org/2000/svg">
<path d="M18 19.9997C18 20.552 17.5523 20.9997 17 20.9997H7C6.44772 20.9997 6 20.552 6 19.9997V8.99973H3C2.44772 8.99973 2 8.55201 2 7.99973V3.99976C2 3.44746 2.44773 2.99974 3.00003 2.99976L8.47297 2.99991C8.78771 2.99992 9.06713 3.20132 9.16666 3.49991L9.36754 4.10256C9.74524 5.23565 10.8056 5.99992 12 5.99992C13.1944 5.99992 14.2548 5.23565 14.6325 4.10256L14.8333 3.49991C14.9329 3.20132 15.2123 2.99992 15.527 2.99991L21 2.99976C21.5523 2.99974 22 3.44746 22 3.99976V7.99973C22 8.55201 21.5523 8.99973 21 8.99973H18V19.9997Z" fill="currentColor"/>
</svg>
