<svg viewBox="0 0 24 24" fill="currentColor" xmlns="http://www.w3.org/2000/svg">
<path d="M5 2H15.25V22H5C3.34315 22 2 20.6569 2 19V5C2 3.34315 3.34315 2 5 2ZM6 6C5.44772 6 5 6.44772 5 7V10C5 10.5523 5.44772 11 6 11H12C12.5523 11 13 10.5523 13 10V7C13 6.44772 12.5523 6 12 6H6ZM7 14C7 13.4477 6.55228 13 6 13C5.44772 13 5 13.4477 5 14C5 14.5523 5.44772 15 6 15C6.55228 15 7 14.5523 7 14ZM6 18C6.55228 18 7 17.5523 7 17C7 16.4477 6.55228 16 6 16C5.44772 16 5 16.4477 5 17C5 17.5523 5.44772 18 6 18ZM10 14C10 13.4477 9.55228 13 9 13C8.44771 13 8 13.4477 8 14C8 14.5523 8.44771 15 9 15C9.55228 15 10 14.5523 10 14ZM9 18C9.55228 18 10 17.5523 10 17C10 16.4477 9.55228 16 9 16C8.44771 16 8 16.4477 8 17C8 17.5523 8.44771 18 9 18ZM13 14C13 13.4477 12.5523 13 12 13C11.4477 13 11 13.4477 11 14C11 14.5523 11.4477 15 12 15C12.5523 15 13 14.5523 13 14ZM12 18C12.5523 18 13 17.5523 13 17C13 16.4477 12.5523 16 12 16C11.4477 16 11 16.4477 11 17C11 17.5523 11.4477 18 12 18Z" fill="currentColor"/>
<path d="M19 22H16.75V2H19C20.6569 2 22 3.34315 22 5V19C22 20.6569 20.6569 22 19 22Z" fill="currentColor"/>
</svg>
