<svg viewBox="0 0 24 24" fill="currentColor" xmlns="http://www.w3.org/2000/svg">
<path d="M4.96875 12.8979L5.79053 10.3008H5.82129L6.66064 12.8979H4.96875Z" fill="currentColor"/>
<path d="M2 7C2 5.89543 2.89543 5 4 5H20C21.1046 5 22 5.89543 22 7V17C22 18.1046 21.1046 19 20 19H15L12.7071 21.2929C12.3166 21.6834 11.6834 21.6834 11.2929 21.2929L9 19H4C2.89543 19 2 18.1046 2 17V7ZM3.67236 15.5127C4.02393 15.5127 4.22168 15.3369 4.34473 14.915L4.67871 13.9263H6.96826L7.30225 14.9282C7.4209 15.3413 7.61865 15.5127 7.99219 15.5127C8.37891 15.5127 8.65576 15.2534 8.65576 14.8887C8.65576 14.7568 8.63379 14.6382 8.57227 14.4668L6.83203 9.74707C6.64307 9.22852 6.33545 9 5.81689 9C5.31592 9 5.00391 9.2373 4.81934 9.75146L3.08789 14.4668C3.03076 14.6294 3 14.7788 3 14.8887C3 15.271 3.25928 15.5127 3.67236 15.5127ZM10.7827 15.5127C11.2002 15.5127 11.4463 15.2578 11.4463 14.8228V10.1865H12.7603C13.1162 10.1865 13.3579 9.97998 13.3579 9.63721C13.3579 9.29443 13.1206 9.08789 12.7603 9.08789H8.80957C8.44482 9.08789 8.20752 9.29443 8.20752 9.63721C8.20752 9.97998 8.44922 10.1865 8.80957 10.1865H10.1191V14.8228C10.1191 15.2578 10.3652 15.5127 10.7827 15.5127ZM15.1992 14.8931V11.1489H15.2344L16.8032 14.9897C16.9131 15.2622 17.0977 15.3896 17.3789 15.3896C17.6558 15.3896 17.8315 15.2666 17.9458 14.9854L19.5146 11.1489H19.5498V14.8931C19.5498 15.2842 19.7651 15.5127 20.1387 15.5127C20.5122 15.5127 20.7319 15.2842 20.7319 14.8931V9.85693C20.7319 9.31641 20.4155 9 19.8794 9C19.4136 9 19.1543 9.19775 18.9609 9.68555L17.3921 13.5835H17.3569L15.7837 9.68555C15.5903 9.19336 15.3354 9 14.874 9C14.3335 9 14.0171 9.3208 14.0171 9.85693V14.8931C14.0171 15.2842 14.2368 15.5127 14.6104 15.5127C14.9839 15.5127 15.1992 15.2842 15.1992 14.8931Z" fill="currentColor"/>
</svg>
