<svg viewBox="0 0 24 24" fill="currentColor" xmlns="http://www.w3.org/2000/svg">
<path d="M4.96875 12.8979L5.79053 10.3008H5.82129L6.66064 12.8979H4.96875Z" fill="currentColor"/>
<path d="M4 5C2.89543 5 2 5.89543 2 7V17C2 18.1046 2.89543 19 4 19H20C21.1046 19 22 18.1046 22 17V7C22 5.89543 21.1046 5 20 5H4ZM3.67236 15.5127C3.25928 15.5127 3 15.271 3 14.8887C3 14.7788 3.03076 14.6294 3.08789 14.4668L4.81934 9.75146C5.00391 9.2373 5.31592 9 5.81689 9C6.33545 9 6.64307 9.22852 6.83203 9.74707L8.57227 14.4668C8.63379 14.6382 8.65576 14.7568 8.65576 14.8887C8.65576 15.2534 8.37891 15.5127 7.99219 15.5127C7.61865 15.5127 7.4209 15.3413 7.30225 14.9282L6.96826 13.9263H4.67871L4.34473 14.915C4.22168 15.3369 4.02393 15.5127 3.67236 15.5127ZM10.7827 15.5127C10.3652 15.5127 10.1191 15.2578 10.1191 14.8228V10.1865H8.80957C8.44922 10.1865 8.20752 9.97998 8.20752 9.63721C8.20752 9.29443 8.44482 9.08789 8.80957 9.08789H12.7603C13.1206 9.08789 13.3579 9.29443 13.3579 9.63721C13.3579 9.97998 13.1162 10.1865 12.7603 10.1865H11.4463V14.8228C11.4463 15.2578 11.2002 15.5127 10.7827 15.5127ZM15.1992 14.8931C15.1992 15.2842 14.9839 15.5127 14.6104 15.5127C14.2368 15.5127 14.0171 15.2842 14.0171 14.8931V9.85693C14.0171 9.3208 14.3335 9 14.874 9C15.3354 9 15.5903 9.19336 15.7837 9.68555L17.3569 13.5835H17.3921L18.9609 9.68555C19.1543 9.19775 19.4136 9 19.8794 9C20.4155 9 20.7319 9.31641 20.7319 9.85693V14.8931C20.7319 15.2842 20.5122 15.5127 20.1387 15.5127C19.7651 15.5127 19.5498 15.2842 19.5498 14.8931V11.1489H19.5146L17.9458 14.9854C17.8315 15.2666 17.6558 15.3896 17.3789 15.3896C17.0977 15.3896 16.9131 15.2622 16.8032 14.9897L15.2344 11.1489H15.1992V14.8931Z" fill="currentColor"/>
</svg>
