<svg viewBox="0 0 24 24" fill="currentColor" xmlns="http://www.w3.org/2000/svg">
<path d="M12 12C14.7614 12 17 9.76142 17 7C17 4.23858 14.7614 2 12 2C9.23858 2 7 4.23858 7 7C7 9.76142 9.23858 12 12 12ZM10 7C10 7.08437 10.0042 7.16777 10.0123 7.25H11.5C11.7761 7.25 12 7.47386 12 7.75C12 8.02614 11.7761 8.25 11.5 8.25H10.3345C10.7667 8.99725 11.5746 9.5 12.5 9.5C12.9562 9.5 13.3824 9.37827 13.7496 9.16585C13.9887 9.02758 14.2945 9.10926 14.4328 9.34829C14.5711 9.58732 14.4894 9.89319 14.2504 10.0315C13.7351 10.3295 13.1367 10.5 12.5 10.5C11.0074 10.5 9.73303 9.56569 9.22981 8.25H9C8.72386 8.25 8.5 8.02614 8.5 7.75C8.5 7.47386 8.72386 7.25 9 7.25H9.00879C9.00296 7.16742 9 7.08406 9 7C9 6.91594 9.00296 6.83258 9.00879 6.75H9C8.72386 6.75 8.5 6.52614 8.5 6.25C8.5 5.97386 8.72386 5.75 9 5.75H9.22981C9.73303 4.43431 11.0074 3.5 12.5 3.5C13.1367 3.5 13.735 3.67045 14.2504 3.96854C14.4894 4.10682 14.5711 4.41268 14.4328 4.65171C14.2945 4.89074 13.9887 4.97242 13.7496 4.83415C13.3824 4.62173 12.9562 4.5 12.5 4.5C11.5746 4.5 10.7667 5.00275 10.3345 5.75H11.5C11.7761 5.75 12 5.97386 12 6.25C12 6.52614 11.7761 6.75 11.5 6.75H10.0123C10.0042 6.83223 10 6.91563 10 7Z" fill="currentColor"/>
<path d="M18.489 7.38129C18.3533 9.727 16.9737 11.7391 15 12.7678V20H13V13.4236C12.674 13.4739 12.3401 13.5 12 13.5C11.6599 13.5 11.326 13.4739 11 13.4236V20H9V12.7678C7.02627 11.7391 5.64669 9.727 5.511 7.38129L2.34339 10.2191C1.65029 10.8401 2.07588 11.8775 3 11.99V20C2.44772 20 2 20.4477 2 21C2 21.5523 2.44772 22 3 22H21C21.5523 22 22 21.5523 22 21C22 20.4477 21.5523 20 21 20V11.99C21.9241 11.8775 22.3497 10.8401 21.6566 10.2191L18.489 7.38129ZM5 20V12H7V20H5ZM17 20V12H19V20H17Z" fill="currentColor"/>
</svg>
