<svg viewBox="0 0 24 24" fill="currentColor" xmlns="http://www.w3.org/2000/svg">
<path d="M5.511 7.38129L2.34339 10.2191C1.65029 10.8401 2.07588 11.8775 3 11.99V20C2.44772 20 2 20.4477 2 21C2 21.5523 2.44772 22 3 22H21C21.5523 22 22 21.5523 22 21C22 20.4477 21.5523 20 21 20V11.99C21.9241 11.8775 22.3497 10.8401 21.6566 10.2191L18.489 7.38129C18.3533 9.727 16.9737 11.7391 15 12.7678V20H13V13.4236C12.674 13.4739 12.3401 13.5 12 13.5C11.6599 13.5 11.326 13.4739 11 13.4236V20H9V12.7678C7.02627 11.7391 5.64669 9.727 5.511 7.38129ZM5 20V12H7V20H5ZM17 20V12H19V20H17Z" fill="currentColor"/>
<path d="M12 12C14.7614 12 17 9.76142 17 7C17 4.23858 14.7614 2 12 2C9.23858 2 7 4.23858 7 7C7 9.76142 9.23858 12 12 12ZM11.717 10.3678C11.6333 10.2845 11.5914 10.1817 11.5914 10.0593V9.62351C11.3341 9.60546 11.1051 9.56709 10.9043 9.50839C10.6531 9.43494 10.4438 9.35415 10.2763 9.266C10.168 9.21214 10.0916 9.13869 10.0473 9.04565C10.0079 8.95261 9.9931 8.85712 10.003 8.75918C10.0128 8.65635 10.0473 8.56821 10.1064 8.49475C10.1655 8.4164 10.2418 8.36499 10.3354 8.3405C10.4339 8.31602 10.5448 8.33561 10.6679 8.39927C10.7861 8.46292 10.9511 8.52903 11.1629 8.59759C11.3747 8.66125 11.6333 8.69308 11.9387 8.69308C12.1653 8.69308 12.3475 8.66859 12.4854 8.61962C12.6233 8.56576 12.7218 8.4972 12.7809 8.41396C12.845 8.33071 12.877 8.23522 12.877 8.12749C12.877 8.03935 12.8548 7.961 12.8105 7.89245C12.7711 7.82389 12.6997 7.76513 12.5962 7.71616C12.4977 7.66229 12.3647 7.61822 12.1973 7.58395L11.3846 7.40766C10.9314 7.30972 10.594 7.14323 10.3724 6.90819C10.1507 6.66824 10.0399 6.35974 10.0399 5.98269C10.0399 5.68888 10.1113 5.4269 10.2542 5.19675C10.4019 4.9666 10.6039 4.78052 10.86 4.63851C11.074 4.52209 11.3178 4.44352 11.5914 4.40279V3.94071C11.5914 3.81829 11.6333 3.71546 11.717 3.63221C11.8008 3.54407 11.9067 3.5 12.0347 3.5C12.1579 3.5 12.2613 3.54407 12.345 3.63221C12.4288 3.71546 12.4706 3.81829 12.4706 3.94071V4.38335C12.6185 4.40252 12.7737 4.43616 12.9361 4.48426C13.1725 4.54792 13.3769 4.64096 13.5493 4.76338C13.6429 4.82214 13.7069 4.89559 13.7414 4.98374C13.7808 5.07188 13.7907 5.16002 13.771 5.24816C13.7562 5.33631 13.7192 5.41466 13.6601 5.48321C13.601 5.54687 13.5222 5.58849 13.4237 5.60808C13.3301 5.62277 13.2193 5.59829 13.0912 5.53463C12.9583 5.47097 12.813 5.4171 12.6553 5.37303C12.4977 5.32896 12.3032 5.30693 12.0717 5.30693C11.7811 5.30693 11.5545 5.36569 11.3919 5.48321C11.2343 5.60073 11.1555 5.75254 11.1555 5.93862C11.1555 6.07573 11.2023 6.1859 11.2959 6.26915C11.3944 6.3524 11.5643 6.42095 11.8057 6.47482L12.6258 6.6511C13.0937 6.75394 13.4385 6.92043 13.6601 7.15058C13.8867 7.38073 14 7.67943 14 8.04669C14 8.33561 13.9286 8.59269 13.7857 8.81794C13.6429 9.0383 13.4459 9.21703 13.1947 9.35415C12.983 9.46966 12.7417 9.55042 12.4706 9.59642V10.0593C12.4706 10.1817 12.4288 10.2845 12.345 10.3678C12.2662 10.4559 12.1628 10.5 12.0347 10.5C11.9067 10.5 11.8008 10.4559 11.717 10.3678Z" fill="currentColor"/>
</svg>
