<svg viewBox="0 0 24 24" fill="currentColor" xmlns="http://www.w3.org/2000/svg">
<path d="M10.0132 11.25V9.11365H13.4737C13.9366 9.11365 14.4079 9.5368 14.4079 10.1818C14.4079 10.8268 13.9366 11.25 13.4737 11.25H10.0132Z" fill="currentColor"/>
<path d="M10.0132 14.8864V12.75H14.3158C14.7787 12.75 15.25 13.1732 15.25 13.8182C15.25 14.4632 14.7787 14.8864 14.3158 14.8864H10.0132Z" fill="currentColor"/>
<path d="M8.75 2C8.75 1.58579 8.41421 1.25 8 1.25C7.58579 1.25 7.25 1.58579 7.25 2V4H6C4.89543 4 4 4.89543 4 6V7.25H2C1.58579 7.25 1.25 7.58579 1.25 8C1.25 8.41421 1.58579 8.75 2 8.75H4V11.25H2C1.58579 11.25 1.25 11.5858 1.25 12C1.25 12.4142 1.58579 12.75 2 12.75H4V15.25H2C1.58579 15.25 1.25 15.5858 1.25 16C1.25 16.4142 1.58579 16.75 2 16.75H4V18C4 19.1046 4.89543 20 6 20H7.25V22C7.25 22.4142 7.58579 22.75 8 22.75C8.41421 22.75 8.75 22.4142 8.75 22V20H11.25V22C11.25 22.4142 11.5858 22.75 12 22.75C12.4142 22.75 12.75 22.4142 12.75 22V20H15.25V22C15.25 22.4142 15.5858 22.75 16 22.75C16.4142 22.75 16.75 22.4142 16.75 22V20H18C19.1046 20 20 19.1046 20 18V16.75H22C22.4142 16.75 22.75 16.4142 22.75 16C22.75 15.5858 22.4142 15.25 22 15.25H20V12.75H22C22.4142 12.75 22.75 12.4142 22.75 12C22.75 11.5858 22.4142 11.25 22 11.25H20V8.75H22C22.4142 8.75 22.75 8.41421 22.75 8C22.75 7.58579 22.4142 7.25 22 7.25H20V6C20 4.89543 19.1046 4 18 4H16.75V2C16.75 1.58579 16.4142 1.25 16 1.25C15.5858 1.25 15.25 1.58579 15.25 2V4H12.75V2C12.75 1.58579 12.4142 1.25 12 1.25C11.5858 1.25 11.25 1.58579 11.25 2V4H8.75V2ZM10.1053 6.25C10.5195 6.25 10.8553 6.58579 10.8553 7V7.61364H11.4605V7C11.4605 6.58579 11.7963 6.25 12.2105 6.25C12.6247 6.25 12.9605 6.58579 12.9605 7V7.61364H13.4737C14.8711 7.61364 15.9079 8.81854 15.9079 10.1818C15.9079 10.6874 15.7653 11.1713 15.5145 11.5799C16.2664 12.0299 16.75 12.8871 16.75 13.8182C16.75 15.1815 15.7132 16.3864 14.3158 16.3864H12.9605V17C12.9605 17.4142 12.6247 17.75 12.2105 17.75C11.7963 17.75 11.4605 17.4142 11.4605 17V16.3864H10.8553V17C10.8553 17.4142 10.5195 17.75 10.1053 17.75C9.69105 17.75 9.35526 17.4142 9.35526 17V16.3864H8C7.58579 16.3864 7.25 16.0506 7.25 15.6364C7.25 15.2222 7.58579 14.8864 8 14.8864H8.51316V9.11364H8C7.58579 9.11364 7.25 8.77785 7.25 8.36364C7.25 7.94942 7.58579 7.61364 8 7.61364H9.35526V7C9.35526 6.58579 9.69105 6.25 10.1053 6.25Z" fill="currentColor"/>
</svg>
