<svg viewBox="0 0 24 24" fill="currentColor" xmlns="http://www.w3.org/2000/svg">
<path d="M15.4118 15.75C15.4118 15.3358 15.7476 15 16.1618 15H20.75C21.1642 15 21.5 15.3358 21.5 15.75V20.3442C21.5 20.7584 21.1642 21.0942 20.75 21.0942C20.3358 21.0942 20 20.7584 20 20.3442V17.5704L16.7254 20.87L16.7239 20.8715C16.0152 21.5908 14.862 21.5903 14.1538 20.87L12.4696 19.157C12.3521 19.0374 12.1686 19.0341 12.0474 19.147L9.31235 22.2463C9.03827 22.5568 8.56432 22.5864 8.25375 22.3123C7.94318 22.0383 7.91359 21.5643 8.18767 21.2537L10.9534 18.1197L10.9675 18.1053C11.6762 17.3846 12.8305 17.3846 13.5392 18.1053L15.2234 19.8184C15.3443 19.9413 15.5349 19.9413 15.6558 19.8184L15.6583 19.8159L18.949 16.5H16.1618C15.7476 16.5 15.4118 16.1642 15.4118 15.75Z" fill="currentColor"/>
<path d="M8.85522 9.75002V7.97729H11.7895C12.1172 7.97729 12.5132 8.29833 12.5132 8.86366C12.5132 9.42899 12.1172 9.75002 11.7895 9.75002H8.85522Z" fill="currentColor"/>
<path d="M8.85522 13.0227V11.25H12.5263C12.8541 11.25 13.25 11.571 13.25 12.1364C13.25 12.7017 12.8541 13.0227 12.5263 13.0227H8.85522Z" fill="currentColor"/>
<path d="M8.40547 18.74L9.85546 17.0969L9.89795 17.0537C11.032 15.9002 12.7948 15.7558 14.0863 16.6203C13.9739 16.3526 13.9118 16.0586 13.9118 15.75C13.9118 14.5074 14.9191 13.5 16.1618 13.5H18.4554C18.8074 12.5671 19 11.556 19 10.5C19 5.80558 15.1944 2 10.5 2C5.80558 2 2 5.80558 2 10.5C2 14.4716 4.72391 17.807 8.40547 18.74ZM8.84211 5.25C9.25632 5.25 9.59211 5.58579 9.59211 6V6.47727H9.93421V6C9.93421 5.58579 10.27 5.25 10.6842 5.25C11.0984 5.25 11.4342 5.58579 11.4342 6V6.47727H11.7895C13.0895 6.47727 14.0132 7.62149 14.0132 8.86364C14.0132 9.30318 13.8975 9.73046 13.6904 10.0991C14.3436 10.5315 14.75 11.3124 14.75 12.1364C14.75 13.3785 13.8264 14.5227 12.5263 14.5227H11.4342V15C11.4342 15.4142 11.0984 15.75 10.6842 15.75C10.27 15.75 9.93421 15.4142 9.93421 15V14.5227H9.59211V15C9.59211 15.4142 9.25632 15.75 8.84211 15.75C8.42789 15.75 8.09211 15.4142 8.09211 15V14.5227H7C6.58579 14.5227 6.25 14.1869 6.25 13.7727C6.25 13.3585 6.58579 13.0227 7 13.0227H7.35526V7.97727H7C6.58579 7.97727 6.25 7.64149 6.25 7.22727C6.25 6.81306 6.58579 6.47727 7 6.47727H8.09211V6C8.09211 5.58579 8.42789 5.25 8.84211 5.25Z" fill="currentColor"/>
</svg>
