<svg viewBox="0 0 24 24" fill="currentColor" xmlns="http://www.w3.org/2000/svg">
<path d="M7.25 5.8V3.77333C7.25 2.79395 8.0335 2 9 2H15C15.9665 2 16.75 2.79395 16.75 3.77333V5.8H20C21.1046 5.8 22 6.70737 22 7.82667V18.9733C22 20.0926 21.1046 21 20 21H4C2.89543 21 2 20.0926 2 18.9733V7.82667C2 6.70737 2.89543 5.8 4 5.8H7.25ZM8.75 3.77333V5.8H15.25V3.77333C15.25 3.63342 15.1381 3.52 15 3.52H9C8.86193 3.52 8.75 3.63342 8.75 3.77333ZM12.0521 18.9733C12.2442 18.9733 12.3993 18.9032 12.5175 18.7628C12.6431 18.6302 12.7059 18.4665 12.7059 18.2715V17.5345C13.1125 17.4612 13.4746 17.3326 13.792 17.1487C14.1688 16.9304 14.4644 16.6458 14.6786 16.2949C14.8929 15.9362 15 15.5268 15 15.0667C15 14.4819 14.8301 14.0063 14.4902 13.6398C14.1577 13.2733 13.6406 13.0082 12.9387 12.8444L11.7085 12.5637C11.3465 12.4779 11.0916 12.3688 10.9438 12.2362C10.8035 12.1036 10.7333 11.9282 10.7333 11.7099C10.7333 11.4136 10.8515 11.1718 11.0879 10.9847C11.3317 10.7976 11.6716 10.704 12.1075 10.704C12.4547 10.704 12.7466 10.7391 12.983 10.8092C13.2194 10.8794 13.4374 10.9652 13.6369 11.0666C13.829 11.1679 13.9952 11.2069 14.1356 11.1835C14.2833 11.1523 14.4016 11.0861 14.4902 10.9847C14.5789 10.8755 14.6343 10.7508 14.6564 10.6104C14.686 10.4701 14.6712 10.3297 14.6121 10.1893C14.5604 10.049 14.4644 9.93202 14.324 9.83845C14.0654 9.64351 13.7588 9.49535 13.4041 9.39398C13.1605 9.31739 12.9278 9.26383 12.7059 9.2333V8.52845C12.7059 8.33351 12.6431 8.16976 12.5175 8.0372C12.3919 7.89684 12.2368 7.82667 12.0521 7.82667C11.86 7.82667 11.7011 7.89684 11.5755 8.0372C11.4499 8.16976 11.3871 8.33351 11.3871 8.52845V9.26425C10.9767 9.3291 10.611 9.45422 10.29 9.63961C9.9058 9.86574 9.60288 10.162 9.38123 10.5285C9.16698 10.895 9.05984 11.3122 9.05984 11.78C9.05984 12.3805 9.22608 12.8717 9.55855 13.2538C9.89102 13.6281 10.3971 13.8932 11.0768 14.0492L12.2959 14.3299C12.5471 14.3844 12.7466 14.4546 12.8943 14.5404C13.0495 14.6184 13.1566 14.7119 13.2157 14.8211C13.2822 14.9303 13.3155 15.055 13.3155 15.1954C13.3155 15.3669 13.2675 15.519 13.1714 15.6516C13.0827 15.7841 12.935 15.8933 12.7281 15.9791C12.5212 16.057 12.2479 16.096 11.908 16.096C11.4499 16.096 11.0621 16.0453 10.7444 15.944C10.4267 15.8348 10.1792 15.7295 10.0018 15.6282C9.81714 15.5268 9.6509 15.4956 9.50314 15.5346C9.36276 15.5736 9.24825 15.6555 9.15959 15.7802C9.07093 15.8972 9.01921 16.0375 9.00443 16.2013C8.98966 16.3572 9.01182 16.5093 9.07093 16.6574C9.13742 16.8056 9.25194 16.9226 9.41448 17.0083C9.66568 17.1487 9.97968 17.2774 10.3565 17.3943C10.6576 17.4878 11.0011 17.5489 11.3871 17.5776V18.2715C11.3871 18.4665 11.4499 18.6302 11.5755 18.7628C11.7011 18.9032 11.86 18.9733 12.0521 18.9733Z" fill="currentColor"/>
</svg>
