<svg viewBox="0 0 24 24" fill="currentColor" xmlns="http://www.w3.org/2000/svg">
<path d="M10.8553 12.64V10.8436H13.7895C14.1172 10.8436 14.5132 11.169 14.5132 11.7418C14.5132 12.3147 14.1172 12.64 13.7895 12.64H10.8553Z" fill="currentColor"/>
<path d="M10.8553 15.9564V14.16H14.5263C14.8541 14.16 15.25 14.4853 15.25 15.0582C15.25 15.631 14.8541 15.9564 14.5263 15.9564H10.8553Z" fill="currentColor"/>
<path d="M7.25 5.8V3.77333C7.25 2.79395 8.0335 2 9 2H15C15.9665 2 16.75 2.79395 16.75 3.77333V5.8H20C21.1046 5.8 22 6.70737 22 7.82667V18.9733C22 20.0926 21.1046 21 20 21H4C2.89543 21 2 20.0926 2 18.9733V7.82667C2 6.70737 2.89543 5.8 4 5.8H7.25ZM8.75 3.77333C8.75 3.63342 8.86193 3.52 9 3.52H15C15.1381 3.52 15.25 3.63342 15.25 3.77333V5.8H8.75V3.77333ZM10.8421 8.08C10.4279 8.08 10.0921 8.42026 10.0921 8.84V9.32364H9C8.58579 9.32364 8.25 9.6639 8.25 10.0836C8.25 10.5034 8.58579 10.8436 9 10.8436H9.35526V15.9564H9C8.58579 15.9564 8.25 16.2966 8.25 16.7164C8.25 17.1361 8.58579 17.4764 9 17.4764H10.0921V17.96C10.0921 18.3797 10.4279 18.72 10.8421 18.72C11.2563 18.72 11.5921 18.3797 11.5921 17.96V17.4764H11.9342V17.96C11.9342 18.3797 12.27 18.72 12.6842 18.72C13.0984 18.72 13.4342 18.3797 13.4342 17.96V17.4764H14.5263C15.8264 17.4764 16.75 16.3169 16.75 15.0582C16.75 14.2232 16.3436 13.4319 15.6904 12.9938C15.8975 12.6202 16.0132 12.1872 16.0132 11.7418C16.0132 10.4831 15.0895 9.32364 13.7895 9.32364H13.4342V8.84C13.4342 8.42026 13.0984 8.08 12.6842 8.08C12.27 8.08 11.9342 8.42026 11.9342 8.84V9.32364H11.5921V8.84C11.5921 8.42026 11.2563 8.08 10.8421 8.08Z" fill="currentColor"/>
</svg>
