<svg viewBox="0 0 24 24" fill="currentColor" xmlns="http://www.w3.org/2000/svg">
<path d="M4 4C4 2.89543 4.89543 2 6 2H18C19.1046 2 20 2.89543 20 4V20C20 21.1046 19.1046 22 18 22H6C4.89543 22 4 21.1046 4 20V4ZM6 5V7C6 7.55228 6.44771 8 7 8H17C17.5523 8 18 7.55228 18 7V5C18 4.44772 17.5523 4 17 4H7C6.44772 4 6 4.44772 6 5ZM9.75 10C9.75 9.58579 9.41421 9.25 9 9.25C8.58579 9.25 8.25 9.58579 8.25 10V11.25H7C6.58579 11.25 6.25 11.5858 6.25 12C6.25 12.4142 6.58579 12.75 7 12.75H8.25V14C8.25 14.4142 8.58579 14.75 9 14.75C9.41421 14.75 9.75 14.4142 9.75 14V12.75H11C11.4142 12.75 11.75 12.4142 11.75 12C11.75 11.5858 11.4142 11.25 11 11.25H9.75V10ZM6.25 18C6.25 18.4142 6.58579 18.75 7 18.75H11C11.4142 18.75 11.75 18.4142 11.75 18C11.75 17.5858 11.4142 17.25 11 17.25H7C6.58579 17.25 6.25 17.5858 6.25 18ZM17.5303 11.0303C17.8232 10.7374 17.8232 10.2626 17.5303 9.96967C17.2374 9.67678 16.7626 9.67678 16.4697 9.96967L15.5 10.9393L14.5303 9.96967C14.2374 9.67678 13.7626 9.67678 13.4697 9.96967C13.1768 10.2626 13.1768 10.7374 13.4697 11.0303L14.4393 12L13.4697 12.9697C13.1768 13.2626 13.1768 13.7374 13.4697 14.0303C13.7626 14.3232 14.2374 14.3232 14.5303 14.0303L15.5 13.0607L16.4697 14.0303C16.7626 14.3232 17.2374 14.3232 17.5303 14.0303C17.8232 13.7374 17.8232 13.2626 17.5303 12.9697L16.5607 12L17.5303 11.0303ZM14 16.25C13.5858 16.25 13.25 16.5858 13.25 17C13.25 17.4142 13.5858 17.75 14 17.75H17C17.4142 17.75 17.75 17.4142 17.75 17C17.75 16.5858 17.4142 16.25 17 16.25H14ZM13.25 19C13.25 19.4142 13.5858 19.75 14 19.75H17C17.4142 19.75 17.75 19.4142 17.75 19C17.75 18.5858 17.4142 18.25 17 18.25H14C13.5858 18.25 13.25 18.5858 13.25 19Z" fill="currentColor"/>
</svg>
