<svg viewBox="0 0 24 24" fill="currentColor" xmlns="http://www.w3.org/2000/svg">
<path d="M4 5C2.89543 5 2 5.89543 2 7V17C2 18.1046 2.89543 19 4 19H20C21.1046 19 22 18.1046 22 17V7C22 5.89543 21.1046 5 20 5H4ZM13 9.25H19C19.4142 9.25 19.75 9.58579 19.75 10C19.75 10.4142 19.4142 10.75 19 10.75H13C12.5858 10.75 12.25 10.4142 12.25 10C12.25 9.58579 12.5858 9.25 13 9.25ZM12.25 14C12.25 13.5858 12.5858 13.25 13 13.25H16C16.4142 13.25 16.75 13.5858 16.75 14C16.75 14.4142 16.4142 14.75 16 14.75H13C12.5858 14.75 12.25 14.4142 12.25 14ZM7.14629 16.8111C7.04162 16.6922 6.98929 16.5453 6.98929 16.3704V15.7479C6.66761 15.7221 6.38131 15.6673 6.1304 15.5834C5.8164 15.4785 5.55473 15.3631 5.3454 15.2371C5.20995 15.1602 5.11452 15.0553 5.05911 14.9224C5.00985 14.7894 4.99138 14.653 5.00369 14.5131C5.01601 14.3662 5.05911 14.2403 5.13299 14.1354C5.20687 14.0234 5.3023 13.95 5.41928 13.915C5.54242 13.88 5.68095 13.908 5.83487 13.999C5.98264 14.0899 6.18889 14.1843 6.45364 14.2823C6.71838 14.3732 7.04162 14.4187 7.42335 14.4187C7.70656 14.4187 7.93437 14.3837 8.10676 14.3137C8.27915 14.2368 8.40229 14.1389 8.47617 14.0199C8.55621 13.901 8.59623 13.7646 8.59623 13.6107C8.59623 13.4848 8.56853 13.3729 8.51311 13.2749C8.46386 13.177 8.37458 13.093 8.24529 13.0231C8.12215 12.9461 7.95592 12.8832 7.74658 12.8342L6.7307 12.5824C6.16427 12.4425 5.74252 12.2046 5.46546 11.8688C5.1884 11.5261 5.04987 11.0853 5.04987 10.5467C5.04987 10.127 5.13915 9.75271 5.31769 9.42392C5.5024 9.09514 5.75483 8.82931 6.07499 8.62644C6.34251 8.46013 6.64728 8.34788 6.98929 8.2897V7.62959C6.98929 7.4547 7.04162 7.3078 7.14629 7.18888C7.25095 7.06296 7.38333 7 7.54341 7C7.69733 7 7.82662 7.06296 7.93129 7.18888C8.03596 7.3078 8.08829 7.4547 8.08829 7.62959V8.26193C8.27314 8.28932 8.46708 8.33737 8.67011 8.40609C8.96564 8.49703 9.22116 8.62994 9.43665 8.80483C9.55363 8.88877 9.63367 8.9937 9.67676 9.11962C9.72602 9.24554 9.73833 9.37146 9.71371 9.49738C9.69524 9.62329 9.64906 9.73522 9.57518 9.83316C9.50129 9.9241 9.40278 9.98356 9.27964 10.0115C9.16266 10.0325 9.02413 9.99755 8.86406 9.90661C8.69782 9.81567 8.51619 9.73872 8.31917 9.67576C8.12215 9.6128 7.87896 9.58132 7.58958 9.58132C7.22633 9.58132 6.94311 9.66527 6.73993 9.83316C6.54291 10.001 6.4444 10.2179 6.4444 10.4837C6.4444 10.6796 6.50289 10.837 6.61987 10.9559C6.74301 11.0749 6.95542 11.1728 7.25711 11.2497L8.28223 11.5016C8.86714 11.6485 9.29812 11.8863 9.57518 12.2151C9.85839 12.5439 10 12.9706 10 13.4953C10 13.908 9.91073 14.2753 9.73218 14.5971C9.55363 14.9119 9.30735 15.1672 8.99335 15.3631C8.72881 15.5281 8.42712 15.6435 8.08829 15.7092V16.3704C8.08829 16.5453 8.03596 16.6922 7.93129 16.8111C7.83278 16.937 7.70349 17 7.54341 17C7.38333 17 7.25095 16.937 7.14629 16.8111Z" fill="currentColor"/>
</svg>
