<svg viewBox="0 0 24 24" fill="currentColor" xmlns="http://www.w3.org/2000/svg">
<path d="M15.5 22C19.0899 22 22 19.0899 22 15.5C22 11.9101 19.0899 9 15.5 9C11.9101 9 9 11.9101 9 15.5C9 19.0899 11.9101 22 15.5 22ZM15.1463 19.83C15.0416 19.723 14.9893 19.5908 14.9893 19.4334V18.8731C14.6676 18.8499 14.3813 18.8005 14.1304 18.7251C13.8164 18.6306 13.5547 18.5268 13.3454 18.4134C13.21 18.3442 13.1145 18.2497 13.0591 18.1301C13.0099 18.0105 12.9914 17.8877 13.0037 17.7618C13.016 17.6296 13.0591 17.5163 13.133 17.4218C13.2069 17.3211 13.3023 17.255 13.4193 17.2235C13.5424 17.192 13.681 17.2172 13.8349 17.2991C13.9826 17.3809 14.1889 17.4659 14.4536 17.554C14.7184 17.6359 15.0416 17.6768 15.4233 17.6768C15.7066 17.6768 15.9344 17.6453 16.1068 17.5824C16.2792 17.5131 16.4023 17.425 16.4762 17.3179C16.5562 17.2109 16.5962 17.0881 16.5962 16.9496C16.5962 16.8363 16.5685 16.7356 16.5131 16.6474C16.4639 16.5593 16.3746 16.4837 16.2453 16.4208C16.1222 16.3515 15.9559 16.2949 15.7466 16.2508L14.7307 16.0241C14.1643 15.8982 13.7425 15.6842 13.4655 15.382C13.1884 15.0735 13.0499 14.6768 13.0499 14.192C13.0499 13.8143 13.1391 13.4774 13.3177 13.1815C13.5024 12.8856 13.7548 12.6464 14.075 12.4638C14.3425 12.3141 14.6473 12.2131 14.9893 12.1607V11.5666C14.9893 11.4092 15.0416 11.277 15.1463 11.17C15.251 11.0567 15.3833 11 15.5434 11C15.6973 11 15.8266 11.0567 15.9313 11.17C16.036 11.277 16.0883 11.4092 16.0883 11.5666V12.1357C16.2731 12.1604 16.4671 12.2036 16.6701 12.2655C16.9656 12.3473 17.2212 12.4669 17.4366 12.6243C17.5536 12.6999 17.6337 12.7943 17.6768 12.9077C17.726 13.021 17.7383 13.1343 17.7137 13.2476C17.6952 13.361 17.6491 13.4617 17.5752 13.5498C17.5013 13.6317 17.4028 13.6852 17.2796 13.7104C17.1627 13.7293 17.0241 13.6978 16.8641 13.6159C16.6978 13.5341 16.5162 13.4648 16.3192 13.4082C16.1222 13.3515 15.879 13.3232 15.5896 13.3232C15.2263 13.3232 14.9431 13.3987 14.7399 13.5498C14.5429 13.7009 14.4444 13.8961 14.4444 14.1354C14.4444 14.3116 14.5029 14.4533 14.6199 14.5603C14.743 14.6674 14.9554 14.7555 15.2571 14.8248L16.2822 15.0514C16.8671 15.1836 17.2981 15.3977 17.5752 15.6936C17.8584 15.9895 18 16.3736 18 16.8458C18 17.2172 17.9107 17.5477 17.7322 17.8374C17.5536 18.1207 17.3074 18.3505 16.9934 18.5268C16.7288 18.6753 16.4271 18.7791 16.0883 18.8383V19.4334C16.0883 19.5908 16.036 19.723 15.9313 19.83C15.8328 19.9433 15.7035 20 15.5434 20C15.3833 20 15.251 19.9433 15.1463 19.83Z" fill="currentColor"/>
<path d="M7.64239 13.9895C8.25518 10.7826 10.7826 8.25518 13.9895 7.64239C13.8045 4.49516 11.1937 2 8 2C4.68629 2 2 4.68629 2 8C2 11.1937 4.49516 13.8045 7.64239 13.9895ZM8 4.25C8.41421 4.25 8.75 4.58579 8.75 5V8C8.75 8.41421 8.41421 8.75 8 8.75H5.5C5.08579 8.75 4.75 8.41421 4.75 8C4.75 7.58579 5.08579 7.25 5.5 7.25H7.25V5C7.25 4.58579 7.58579 4.25 8 4.25Z" fill="currentColor"/>
</svg>
