<svg viewBox="0 0 24 24" fill="currentColor" xmlns="http://www.w3.org/2000/svg">
<path d="M4.71149 16.0028C4.57294 15.3571 4.5 14.6871 4.5 14C4.5 8.75329 8.75329 4.5 14 4.5C14.6871 4.5 15.3571 4.57294 16.0028 4.71149C14.5368 3.04883 12.3909 2 10 2C5.58172 2 2 5.58172 2 10C2 12.3909 3.04883 14.5368 4.71149 16.0028Z" fill="currentColor"/>
<path d="M22 14C22 18.4183 18.4183 22 14 22C9.58172 22 6 18.4183 6 14C6 9.58172 9.58172 6 14 6C18.4183 6 22 9.58172 22 14ZM14.052 20C14.2441 20 14.3992 19.9244 14.5174 19.7733C14.643 19.6306 14.7058 19.4544 14.7058 19.2445V18.451C15.1124 18.3721 15.4745 18.2337 15.7919 18.0357C16.1687 17.8006 16.4642 17.4942 16.6785 17.1165C16.8928 16.7303 16.9999 16.2896 16.9999 15.7943C16.9999 15.1647 16.83 14.6527 16.4901 14.2581C16.1576 13.8636 15.6405 13.5782 14.9386 13.4019L13.7084 13.0997C13.3464 13.0073 13.0915 12.8898 12.9437 12.7471C12.8034 12.6044 12.7332 12.4155 12.7332 12.1805C12.7332 11.8615 12.8514 11.6013 13.0878 11.3998C13.3316 11.1983 13.6715 11.0976 14.1074 11.0976C14.4546 11.0976 14.7465 11.1354 14.9829 11.2109C15.2193 11.2865 15.4373 11.3788 15.6368 11.4879C15.8289 11.5971 15.9951 11.639 16.1355 11.6139C16.2832 11.5803 16.4014 11.5089 16.4901 11.3998C16.5788 11.2823 16.6342 11.148 16.6563 10.9969C16.6859 10.8458 16.6711 10.6946 16.612 10.5435C16.5603 10.3924 16.4642 10.2665 16.3239 10.1658C16.0653 9.95593 15.7587 9.79643 15.404 9.6873C15.1604 9.60484 14.9277 9.54718 14.7058 9.51431V8.75551C14.7058 8.54565 14.643 8.36936 14.5174 8.22665C14.3918 8.07555 14.2367 8 14.052 8C13.8599 8 13.701 8.07555 13.5754 8.22665C13.4498 8.36936 13.387 8.54565 13.387 8.75551V9.54764C12.9766 9.61746 12.6109 9.75215 12.2899 9.95173C11.9057 10.1952 11.6028 10.5142 11.3811 10.9087C11.1669 11.3033 11.0597 11.7524 11.0597 12.256C11.0597 12.9024 11.226 13.4313 11.5584 13.8426C11.8909 14.2455 12.397 14.531 13.0767 14.6988L14.2958 15.001C14.547 15.0598 14.7465 15.1354 14.8942 15.2277C15.0494 15.3116 15.1565 15.4124 15.2156 15.5299C15.2821 15.6474 15.3154 15.7817 15.3154 15.9328C15.3154 16.1175 15.2674 16.2812 15.1713 16.4239C15.0826 16.5666 14.9349 16.6842 14.728 16.7765C14.5211 16.8604 14.2478 16.9024 13.9079 16.9024C13.4498 16.9024 13.062 16.8478 12.7443 16.7387C12.4266 16.6212 12.1791 16.5079 12.0017 16.3987C11.817 16.2896 11.6508 16.256 11.503 16.298C11.3627 16.34 11.2481 16.4281 11.1595 16.5624C11.0708 16.6884 11.0191 16.8395 11.0043 17.0157C10.9896 17.1836 11.0117 17.3473 11.0708 17.5068C11.1373 17.6663 11.2518 17.7922 11.4144 17.8846C11.6656 18.0357 11.9796 18.1742 12.3564 18.3001C12.6575 18.4007 13.001 18.4665 13.387 18.4974V19.2445C13.387 19.4544 13.4498 19.6306 13.5754 19.7733C13.701 19.9244 13.8599 20 14.052 20Z" fill="currentColor"/>
</svg>
