<svg viewBox="0 0 24 24" fill="currentColor" xmlns="http://www.w3.org/2000/svg">
<path d="M12 22C17.5228 22 22 17.5228 22 12C22 6.47715 17.5228 2 12 2C6.47715 2 2 6.47715 2 12C2 17.5228 6.47715 22 12 22ZM11.4343 19.6978C11.2668 19.5075 11.1831 19.2725 11.1831 18.9927V17.9966C10.6684 17.9553 10.2103 17.8676 9.80886 17.7335C9.30645 17.5656 8.88779 17.3809 8.55285 17.1794C8.33613 17.0563 8.18344 16.8884 8.09478 16.6758C8.01597 16.4631 7.98642 16.2448 8.00612 16.021C8.02582 15.7859 8.09478 15.5845 8.21299 15.4166C8.33121 15.2375 8.4839 15.12 8.67107 15.064C8.86809 15.008 9.08973 15.0528 9.33601 15.1983C9.57243 15.3438 9.90244 15.4949 10.326 15.6516C10.7496 15.7971 11.2668 15.8699 11.8776 15.8699C12.3307 15.8699 12.6952 15.8139 12.971 15.702C13.2469 15.5789 13.4439 15.4222 13.5621 15.2319C13.6902 15.0416 13.7542 14.8234 13.7542 14.5771C13.7542 14.3757 13.7099 14.1966 13.6212 14.0399C13.5424 13.8832 13.3995 13.7489 13.1927 13.6369C12.9957 13.5138 12.7297 13.4131 12.3947 13.3347L10.7693 12.9318C9.86304 12.7079 9.18824 12.3274 8.74495 11.7901C8.30165 11.2417 8.08001 10.5366 8.08001 9.67471C8.08001 9.00315 8.22285 8.40434 8.50852 7.87828C8.80405 7.35222 9.20794 6.9269 9.7202 6.60231C10.1482 6.3362 10.6359 6.15661 11.1831 6.06352V5.00735C11.1831 4.72753 11.2668 4.49248 11.4343 4.3022C11.6017 4.10073 11.8135 4 12.0697 4C12.3159 4 12.5228 4.10073 12.6903 4.3022C12.8577 4.49248 12.9415 4.72753 12.9415 5.00735V6.01908C13.2372 6.06291 13.5475 6.13979 13.8724 6.24974C14.3452 6.39524 14.7541 6.60791 15.0988 6.88772C15.286 7.02204 15.4141 7.18993 15.483 7.3914C15.5618 7.59286 15.5815 7.79433 15.5421 7.9958C15.5126 8.19727 15.4387 8.37636 15.3205 8.53305C15.2023 8.67856 15.0447 8.7737 14.8476 8.81847C14.6605 8.85205 14.4388 8.79608 14.1827 8.65058C13.9167 8.50507 13.6261 8.38195 13.3109 8.28122C12.9957 8.18048 12.6065 8.13012 12.1435 8.13012C11.5623 8.13012 11.1092 8.26443 10.7841 8.53305C10.4689 8.80168 10.3113 9.14865 10.3113 9.57398C10.3113 9.88737 10.4048 10.1392 10.592 10.3295C10.789 10.5198 11.1289 10.6765 11.6116 10.7996L13.2518 11.2025C14.1876 11.4376 14.8772 11.8181 15.3205 12.3442C15.7736 12.8702 16.0002 13.553 16.0002 14.3924C16.0002 15.0528 15.8574 15.6404 15.5717 16.1553C15.286 16.659 14.892 17.0675 14.3896 17.3809C13.9663 17.6449 13.4836 17.8295 12.9415 17.9347V18.9927C12.9415 19.2725 12.8577 19.5075 12.6903 19.6978C12.5327 19.8993 12.3258 20 12.0697 20C11.8135 20 11.6017 19.8993 11.4343 19.6978Z" fill="currentColor"/>
</svg>
