<svg viewBox="0 0 24 24" fill="currentColor" xmlns="http://www.w3.org/2000/svg">
<path d="M7.03345 4H8.38007L6.20214 7.9976H2.49438C2.50766 7.98193 2.5212 7.96642 2.535 7.95107L5.45016 4.70625C5.85403 4.25672 6.42954 4 7.03345 4Z" fill="currentColor"/>
<path d="M2 9.59662C2.03926 9.97763 2.18119 10.3511 2.42752 10.6731L11.091 22L6.13552 9.59662H2Z" fill="currentColor"/>
<path d="M7.85571 9.59662L12 19.9697L16.1443 9.59662H7.85571Z" fill="currentColor"/>
<path d="M17.8646 9.59662L12.9091 22L21.5726 10.6731C21.8189 10.3511 21.9608 9.97763 22.0001 9.59662H17.8646Z" fill="currentColor"/>
<path d="M21.5056 7.9976H17.7979L15.62 4H16.9666C17.5705 4 18.146 4.25672 18.5499 4.70625L21.465 7.95107C21.4788 7.96642 21.4924 7.98193 21.5056 7.9976Z" fill="currentColor"/>
<path d="M15.9786 7.9976H8.02136L10.1993 4H13.8007L15.9786 7.9976Z" fill="currentColor"/>
</svg>
