<svg viewBox="0 0 24 24" fill="currentColor" xmlns="http://www.w3.org/2000/svg">
<path d="M12.0868 22C11.7667 22 11.5019 21.8741 11.2926 21.6222C11.0832 21.3844 10.9786 21.0906 10.9786 20.7408V19.0199L11.4773 19.5236C10.6276 19.4956 9.88881 19.3767 9.26081 19.1668C8.6328 18.957 8.10947 18.7261 7.6908 18.4743C7.4199 18.3204 7.22904 18.1105 7.11821 17.8447C7.0197 17.5789 6.98276 17.3061 7.00739 17.0262C7.03202 16.7324 7.11821 16.4806 7.26598 16.2707C7.41374 16.0469 7.60461 15.9 7.83857 15.83C8.08484 15.7601 8.3619 15.816 8.66974 15.9979C8.96527 16.1798 9.37779 16.3687 9.90728 16.5645C10.4368 16.7464 11.0832 16.8374 11.8467 16.8374C12.4131 16.8374 12.8687 16.7674 13.2135 16.6275C13.5583 16.4736 13.8046 16.2777 13.9523 16.0399C14.1124 15.802 14.1925 15.5292 14.1925 15.2214C14.1925 14.9696 14.1371 14.7457 14.0262 14.5498C13.9277 14.354 13.7492 14.1861 13.4906 14.0462C13.2443 13.8923 12.9118 13.7664 12.4932 13.6684L10.4614 13.1647C9.32853 12.8849 8.48504 12.4092 7.93092 11.7377C7.3768 11.0521 7.09974 10.1707 7.09974 9.09339C7.09974 8.25394 7.27829 7.50542 7.63539 6.84785C8.0048 6.19028 8.50967 5.65862 9.14998 5.25289C9.80261 4.84715 10.5661 4.60231 11.4403 4.51836L10.9786 4.85415V3.25918C10.9786 2.90941 11.0832 2.6156 11.2926 2.37775C11.5019 2.12592 11.7667 2 12.0868 2C12.3947 2 12.6532 2.12592 12.8626 2.37775C13.0719 2.6156 13.1766 2.90941 13.1766 3.25918V4.85415L12.7148 4.47639C13.2197 4.50437 13.7615 4.6163 14.3402 4.81217C14.9313 4.99405 15.4423 5.25988 15.8733 5.60965C16.1073 5.77754 16.2673 5.98741 16.3535 6.23924C16.452 6.49108 16.4767 6.74292 16.4274 6.99475C16.3905 7.24659 16.2981 7.47044 16.1504 7.66632C16.0026 7.8482 15.8056 7.96712 15.5593 8.02308C15.3253 8.06506 15.0483 7.9951 14.7281 7.81322C14.3956 7.63134 14.0324 7.47744 13.6383 7.35152C13.2443 7.2256 12.7579 7.16264 12.1792 7.16264C11.4527 7.16264 10.8862 7.33054 10.4799 7.66632C10.0858 8.0021 9.88881 8.43582 9.88881 8.96747C9.88881 9.35922 10.0058 9.67401 10.2397 9.91186C10.486 10.1497 10.9108 10.3456 11.5142 10.4995L13.5645 11.0031C14.7343 11.297 15.5962 11.7726 16.1504 12.4302C16.7168 13.0878 17 13.9412 17 14.9906C17 15.816 16.8215 16.5505 16.4644 17.1941C16.1073 17.8237 15.6147 18.3344 14.9867 18.7261C14.3587 19.1179 13.626 19.3697 12.7887 19.4816L13.1766 18.9989V20.7408C13.1766 21.0906 13.0719 21.3844 12.8626 21.6222C12.6656 21.8741 12.407 22 12.0868 22Z" fill="currentColor"/>
</svg>
