<svg viewBox="0 0 24 24" fill="currentColor" xmlns="http://www.w3.org/2000/svg">
<path d="M2 5C2 3.89543 2.89543 3 4 3H20C21.1046 3 22 3.89543 22 5V7H19C17.3431 7 16 8.34315 16 10C16 11.6569 17.3431 13 19 13H22V15C22 16.1046 21.1046 17 20 17H13.4236C13.4739 16.674 13.5 16.3401 13.5 16C13.5 12.4101 10.5899 9.5 7 9.5C4.98956 9.5 3.1923 10.4127 2 11.8464V5Z" fill="currentColor"/>
<path d="M20 10C20 10.5523 19.5523 11 19 11C18.4477 11 18 10.5523 18 10C18 9.44772 18.4477 9 19 9C19.5523 9 20 9.44772 20 10Z" fill="currentColor"/>
<path d="M7 21C9.76142 21 12 18.7614 12 16C12 13.2386 9.76142 11 7 11C4.23858 11 2 13.2386 2 16C2 18.7614 4.23858 21 7 21ZM6.66087 19.8321C6.56501 19.7202 6.51708 19.5803 6.51708 19.4124V19.0013C6.28546 18.9774 6.07935 18.9354 5.89874 18.8751C5.66387 18.7968 5.47214 18.7184 5.32355 18.6401C5.19892 18.5729 5.11025 18.4778 5.05752 18.3547C5.00959 18.2315 4.99041 18.1056 5 17.9769C5.01438 17.8482 5.05512 17.7307 5.12223 17.6243C5.18933 17.518 5.27561 17.4481 5.38107 17.4145C5.49131 17.3753 5.61833 17.3921 5.76213 17.4648C5.858 17.5264 6.0018 17.5908 6.19353 17.6579C6.39005 17.7195 6.63211 17.7503 6.91971 17.7503C7.12103 17.7503 7.27921 17.7279 7.39425 17.6831C7.51408 17.6383 7.59796 17.5796 7.6459 17.5068C7.69862 17.4285 7.72499 17.3445 7.72499 17.255C7.72499 17.171 7.70581 17.1011 7.66747 17.0451C7.63391 16.9836 7.57639 16.9304 7.49491 16.8856C7.41342 16.8353 7.30078 16.7905 7.15698 16.7513L6.34452 16.5498C5.89874 16.4323 5.56561 16.2364 5.34512 15.9622C5.12942 15.6824 5.02157 15.3214 5.02157 14.8793C5.02157 14.5435 5.09107 14.2441 5.23008 13.9811C5.37388 13.7125 5.5728 13.4942 5.82684 13.3263C6.03027 13.1944 6.26035 13.1005 6.51708 13.0446V12.5876C6.51708 12.4197 6.56501 12.2798 6.66087 12.1679C6.75674 12.056 6.87418 12 7.01318 12C7.15698 12 7.27681 12.056 7.37268 12.1679C7.46854 12.2798 7.51648 12.4197 7.51648 12.5876V13.0105C7.63563 13.0285 7.76026 13.0583 7.89035 13.0997C8.10126 13.1612 8.2858 13.248 8.44398 13.3599C8.55422 13.4271 8.63092 13.5194 8.67406 13.6369C8.72199 13.7545 8.73877 13.8748 8.72439 13.9979C8.7148 14.1154 8.67645 14.2218 8.60935 14.3169C8.54703 14.412 8.46075 14.4764 8.35051 14.51C8.24506 14.538 8.11803 14.5156 7.96944 14.4428C7.8592 14.3868 7.73457 14.3421 7.59557 14.3085C7.46135 14.2693 7.2888 14.2497 7.07789 14.2497C6.82385 14.2497 6.62732 14.3029 6.48832 14.4092C6.3541 14.5156 6.287 14.6527 6.287 14.8206C6.287 14.9325 6.32534 15.0276 6.40204 15.106C6.48352 15.1787 6.62972 15.2431 6.84062 15.2991L7.66028 15.5089C8.11564 15.6264 8.45117 15.8223 8.66687 16.0965C8.88736 16.3652 8.9976 16.7149 8.9976 17.1459C8.9976 17.4816 8.9281 17.7782 8.7891 18.0357C8.65009 18.2931 8.45596 18.503 8.20671 18.6653C8.00451 18.7995 7.77443 18.8955 7.51648 18.9531V19.4124C7.51648 19.5803 7.46854 19.7202 7.37268 19.8321C7.28161 19.944 7.16177 20 7.01318 20C6.87418 20 6.75674 19.944 6.66087 19.8321Z" fill="currentColor"/>
</svg>
