<svg viewBox="0 0 24 24" fill="currentColor" xmlns="http://www.w3.org/2000/svg">
<path d="M18.2025 12.5C18.622 12.5 18.962 12.1642 18.962 11.75V5.56066L20.7035 7.28033C21.0001 7.57322 21.4809 7.57322 21.7775 7.28033C22.0742 6.98744 22.0742 6.51256 21.7775 6.21967L18.7396 3.21967C18.443 2.92678 17.9621 2.92678 17.6655 3.21967L14.6275 6.21967C14.3309 6.51256 14.3309 6.98744 14.6275 7.28033C14.9241 7.57322 15.405 7.57322 15.7016 7.28033L17.443 5.56066V11.75C17.443 12.1642 17.7831 12.5 18.2025 12.5Z" fill="currentColor"/>
<path d="M13.2015 5.60671C12.6853 6.46955 12.8027 7.5996 13.5534 8.34099C14.1945 8.97405 15.1225 9.15101 15.9241 8.87187V11.75C15.9241 12.972 16.9105 13.9664 18.14 13.9992C17.642 17.9459 14.2328 21 10.1013 21C5.62706 21 2 17.4183 2 13C2 8.58172 5.62706 5 10.1013 5C11.1994 5 12.2465 5.21577 13.2015 5.60671ZM10.154 19C10.3485 19 10.5057 18.9244 10.6254 18.7733C10.7526 18.6306 10.8161 18.4544 10.8161 18.2445V17.451C11.2279 17.3721 11.5945 17.2337 11.916 17.0357C12.2975 16.8006 12.5968 16.4942 12.8138 16.1165C13.0308 15.7303 13.1392 15.2896 13.1392 14.7943C13.1392 14.1647 12.9672 13.6527 12.623 13.2581C12.2863 12.8636 11.7626 12.5782 11.0518 12.4019L9.80611 12.0997C9.4395 12.0073 9.18138 11.8898 9.03175 11.7471C8.88959 11.6044 8.81852 11.4155 8.81852 11.1805C8.81852 10.8615 8.93822 10.6013 9.17764 10.3998C9.42454 10.1983 9.7687 10.0976 10.2101 10.0976C10.5618 10.0976 10.8573 10.1354 11.0967 10.2109C11.3361 10.2865 11.5568 10.3788 11.7589 10.4879C11.9534 10.5971 12.1217 10.639 12.2639 10.6139C12.4135 10.5803 12.5332 10.5089 12.623 10.3998C12.7128 10.2823 12.7689 10.148 12.7913 9.99685C12.8213 9.84575 12.8063 9.69465 12.7464 9.54355C12.6941 9.39245 12.5968 9.26653 12.4547 9.16579C12.1928 8.95593 11.8823 8.79643 11.5232 8.6873C11.2765 8.60484 11.0408 8.54718 10.8161 8.51431V7.75551C10.8161 7.54565 10.7526 7.36936 10.6254 7.22665C10.4982 7.07555 10.3411 7 10.154 7C9.95949 7 9.79863 7.07555 9.67144 7.22665C9.54425 7.36936 9.48065 7.54565 9.48065 7.75551V8.54764C9.06505 8.61746 8.6947 8.75215 8.36961 8.95173C7.98056 9.19517 7.6738 9.51417 7.44935 9.90871C7.23238 10.3033 7.12389 10.7524 7.12389 11.256C7.12389 11.9024 7.29223 12.4313 7.62891 12.8426C7.96559 13.2455 8.47809 13.531 9.16642 13.6988L10.4009 14.001C10.6553 14.0598 10.8573 14.1354 11.0069 14.2277C11.1641 14.3116 11.2725 14.4124 11.3324 14.5299C11.3997 14.6474 11.4334 14.7817 11.4334 14.9328C11.4334 15.1175 11.3848 15.2812 11.2875 15.4239C11.1977 15.5666 11.0481 15.6842 10.8386 15.7765C10.6291 15.8604 10.3523 15.9024 10.0081 15.9024C9.54425 15.9024 9.15145 15.8478 8.82974 15.7387C8.50802 15.6212 8.25738 15.5079 8.07782 15.3987C7.89078 15.2896 7.72244 15.256 7.5728 15.298C7.43065 15.34 7.31468 15.4281 7.2249 15.5624C7.13512 15.6884 7.08274 15.8395 7.06778 16.0157C7.05282 16.1836 7.07526 16.3473 7.13512 16.5068C7.20245 16.6663 7.31842 16.7922 7.48302 16.8846C7.7374 17.0357 8.05537 17.1742 8.43695 17.3001C8.74185 17.4007 9.08975 17.4665 9.48065 17.4974V18.2445C9.48065 18.4544 9.54425 18.6306 9.67144 18.7733C9.79863 18.9244 9.95949 19 10.154 19Z" fill="currentColor"/>
</svg>
