<svg viewBox="0 0 24 24" fill="currentColor" xmlns="http://www.w3.org/2000/svg">
<path d="M15.4118 15.75C15.4118 15.3358 15.7476 15 16.1618 15H20.75C21.1642 15 21.5 15.3358 21.5 15.75V20.3442C21.5 20.7584 21.1642 21.0942 20.75 21.0942C20.3358 21.0942 20 20.7584 20 20.3442V17.5704L16.7254 20.87L16.7239 20.8715C16.0152 21.5908 14.862 21.5903 14.1538 20.87L12.4696 19.157C12.3521 19.0374 12.1686 19.0341 12.0474 19.147L9.31235 22.2463C9.03827 22.5568 8.56432 22.5864 8.25375 22.3123C7.94318 22.0383 7.91359 21.5643 8.18767 21.2537L10.9534 18.1197L10.9675 18.1053C11.6762 17.3846 12.8305 17.3846 13.5392 18.1053L15.2234 19.8184C15.3443 19.9413 15.5349 19.9413 15.6558 19.8184L15.6583 19.8159L18.949 16.5H16.1618C15.7476 16.5 15.4118 16.1642 15.4118 15.75Z" fill="currentColor"/>
<path d="M8.40546 18.74C4.72391 17.807 2 14.4716 2 10.5C2 5.80558 5.80558 2 10.5 2C15.1944 2 19 5.80558 19 10.5C19 11.556 18.8074 12.5671 18.4554 13.5H16.1618C14.9191 13.5 13.9118 14.5074 13.9118 15.75C13.9118 16.0586 13.9739 16.3526 14.0863 16.6203C13.2288 16.0463 12.1635 15.9171 11.2124 16.2327C11.2163 16.2285 11.2202 16.2243 11.224 16.22C11.36 16.084 11.428 15.916 11.428 15.716V14.9598C11.8683 14.8847 12.2603 14.7527 12.604 14.564C13.012 14.34 13.332 14.048 13.564 13.688C13.796 13.32 13.912 12.9 13.912 12.428C13.912 11.828 13.728 11.34 13.36 10.964C13 10.588 12.44 10.316 11.68 10.148L10.348 9.86C9.95601 9.772 9.68001 9.66 9.52001 9.524C9.36801 9.388 9.29201 9.208 9.29201 8.984C9.29201 8.68 9.42001 8.432 9.67601 8.24C9.94001 8.048 10.308 7.952 10.78 7.952C11.156 7.952 11.472 7.988 11.728 8.06C11.984 8.132 12.22 8.22 12.436 8.324C12.644 8.428 12.824 8.468 12.976 8.444C13.136 8.412 13.264 8.344 13.36 8.24C13.456 8.128 13.516 8 13.54 7.856C13.572 7.712 13.556 7.568 13.492 7.424C13.436 7.28 13.332 7.16 13.18 7.064C12.9 6.864 12.568 6.712 12.184 6.608C11.9202 6.52942 11.6682 6.47446 11.428 6.44314V5.72C11.428 5.52 11.36 5.352 11.224 5.216C11.088 5.072 10.92 5 10.72 5C10.512 5 10.34 5.072 10.204 5.216C10.068 5.352 10 5.52 10 5.72V6.4749C9.55561 6.54143 9.15961 6.6698 8.81201 6.86C8.39601 7.092 8.06801 7.396 7.82801 7.772C7.59601 8.148 7.48001 8.576 7.48001 9.056C7.48001 9.672 7.66001 10.176 8.02001 10.568C8.38001 10.952 8.92801 11.224 9.66401 11.384L10.984 11.672C11.256 11.728 11.472 11.8 11.632 11.888C11.8 11.968 11.916 12.064 11.98 12.176C12.052 12.288 12.088 12.416 12.088 12.56C12.088 12.736 12.036 12.892 11.932 13.028C11.836 13.164 11.676 13.276 11.452 13.364C11.228 13.444 10.932 13.484 10.564 13.484C10.068 13.484 9.64801 13.432 9.30401 13.328C8.96001 13.216 8.69201 13.108 8.50001 13.004C8.30001 12.9 8.12001 12.868 7.96001 12.908C7.80801 12.948 7.68401 13.032 7.58801 13.16C7.49201 13.28 7.43601 13.424 7.42001 13.592C7.40401 13.752 7.42801 13.908 7.49201 14.06C7.56401 14.212 7.68801 14.332 7.86401 14.42C8.13601 14.564 8.47601 14.696 8.88401 14.816C9.21003 14.9119 9.58203 14.9746 10 15.0041V15.716C10 15.916 10.068 16.084 10.204 16.22C10.34 16.364 10.512 16.436 10.72 16.436C10.7239 16.436 10.7279 16.436 10.7318 16.4359C10.431 16.5924 10.149 16.7983 9.89794 17.0537L9.85544 17.0969L8.40546 18.74Z" fill="currentColor"/>
</svg>
