<svg viewBox="0 0 24 24" fill="currentColor" xmlns="http://www.w3.org/2000/svg">
<path d="M9.41177 21.75C9.41177 22.1642 9.74756 22.5 10.1618 22.5H14.75C15.1642 22.5 15.5 22.1642 15.5 21.75V17.1558C15.5 16.7416 15.1642 16.4058 14.75 16.4058C14.3358 16.4058 14 16.7416 14 17.1558V19.9296L10.7254 16.63L10.7239 16.6285C10.0152 15.9092 8.86196 15.9097 8.15379 16.63L6.46956 18.343C6.35205 18.4626 6.16863 18.4659 6.04744 18.353L3.31235 15.2537C3.03827 14.9432 2.56432 14.9136 2.25375 15.1877C1.94318 15.4617 1.91359 15.9357 2.18767 16.2463L4.95338 19.3803L4.96755 19.3947C5.6762 20.1154 6.83051 20.1154 7.53917 19.3947L9.2234 17.6816C9.34429 17.5587 9.53492 17.5587 9.6558 17.6816L9.65826 17.6841L12.949 21H10.1618C9.74756 21 9.41177 21.3358 9.41177 21.75Z" fill="currentColor"/>
<path d="M6.85968 15.8067C5.69592 14.3524 5 12.5075 5 10.5C5 5.80558 8.80558 2 13.5 2C18.1944 2 22 5.80558 22 10.5C22 13.9467 19.9485 16.9143 17 18.2482V17.1558C17 15.9132 15.9927 14.9058 14.75 14.9058C14.5436 14.9058 14.3437 14.9336 14.1539 14.9857V14.451C14.5605 14.3721 14.9225 14.2337 15.2399 14.0357C15.6167 13.8006 15.9123 13.4942 16.1265 13.1165C16.3408 12.7303 16.4479 12.2896 16.4479 11.7943C16.4479 11.1647 16.278 10.6527 15.9381 10.2581C15.6057 9.86359 15.0885 9.57817 14.3866 9.40189L13.1564 9.09969C12.7944 9.00735 12.5395 8.88982 12.3918 8.74711C12.2514 8.60441 12.1812 8.41553 12.1812 8.18048C12.1812 7.86149 12.2994 7.60126 12.5358 7.39979C12.7796 7.19832 13.1195 7.09759 13.5554 7.09759C13.9027 7.09759 14.1945 7.13536 14.4309 7.21091C14.6673 7.28646 14.8853 7.3788 15.0848 7.48793C15.2769 7.59706 15.4431 7.63903 15.5835 7.61385C15.7313 7.58027 15.8495 7.50892 15.9381 7.39979C16.0268 7.28227 16.0822 7.14795 16.1044 6.99685C16.1339 6.84575 16.1191 6.69465 16.06 6.54355C16.0083 6.39244 15.9123 6.26653 15.7719 6.16579C15.5133 5.95593 15.2067 5.79643 14.852 5.6873C14.6084 5.60484 14.3757 5.54718 14.1539 5.51431V4.75551C14.1539 4.54565 14.0911 4.36936 13.9655 4.22665C13.8399 4.07555 13.6847 4 13.5 4C13.3079 4 13.1491 4.07555 13.0235 4.22665C12.8979 4.36936 12.8351 4.54565 12.8351 4.75551V5.54764C12.4246 5.61746 12.0589 5.75215 11.7379 5.95173C11.3537 6.19517 11.0508 6.51417 10.8291 6.90871C10.6149 7.30325 10.5078 7.75236 10.5078 8.25603C10.5078 8.90241 10.674 9.43127 11.0065 9.8426C11.3389 10.2455 11.845 10.531 12.5248 10.6988L13.7438 11.001C13.995 11.0598 14.1945 11.1354 14.3423 11.2277C14.4974 11.3116 14.6045 11.4124 14.6636 11.5299C14.7301 11.6474 14.7634 11.7817 14.7634 11.9328C14.7634 12.1175 14.7154 12.2812 14.6193 12.4239C14.5307 12.5666 14.3829 12.6842 14.176 12.7765C13.9692 12.8604 13.6958 12.9024 13.3559 12.9024C12.8979 12.9024 12.51 12.8478 12.1923 12.7387C11.8746 12.6212 11.6271 12.5079 11.4498 12.3987C11.2651 12.2896 11.0988 12.256 10.9511 12.298C10.8107 12.34 10.6962 12.4281 10.6075 12.5624C10.5188 12.6884 10.4671 12.8395 10.4523 13.0157C10.4376 13.1836 10.4597 13.3473 10.5188 13.5068C10.5853 13.6663 10.6999 13.7922 10.8624 13.8846C11.1136 14.0357 11.4276 14.1742 11.8044 14.3001C12.1055 14.4007 12.449 14.4665 12.8351 14.4974V15.2445C12.8351 15.4399 12.8895 15.6062 12.9985 15.7434C12.838 15.9421 12.7108 16.1686 12.625 16.4146L11.7924 15.5757C10.4957 14.26 8.37966 14.2608 7.0842 15.5784L6.85968 15.8067Z" fill="currentColor"/>
</svg>
