<svg viewBox="0 0 24 24" fill="currentColor" xmlns="http://www.w3.org/2000/svg">
<g clip-path="url(#clip0_97_2053)">
<path d="M12.5303 0.46967C12.3896 0.329016 12.1989 0.25 11.9999 0.25C11.801 0.25 11.6103 0.329022 11.4696 0.469677L9.46966 2.46968C9.17677 2.76257 9.17678 3.23745 9.46968 3.53034C9.76257 3.82323 10.2374 3.82322 10.5303 3.53032L11.2499 2.81069V5C11.2499 5.01328 11.2503 5.02649 11.251 5.0396C9.87949 5.1855 8.62632 5.72747 7.60804 6.54894C7.59918 6.5391 7.59002 6.52944 7.58055 6.51997L6.03245 4.97187H7.05022C7.46443 4.97187 7.80022 4.63609 7.80022 4.22187C7.80022 3.80766 7.46443 3.47187 7.05022 3.47187H4.22179C4.02288 3.47187 3.83211 3.55089 3.69146 3.69155C3.55081 3.8322 3.47179 4.02297 3.47179 4.22188L3.47183 7.05027C3.47184 7.46448 3.80763 7.80027 4.22184 7.80026C4.63605 7.80026 4.97184 7.46446 4.97183 7.05025L4.97182 6.03256L6.51989 7.58063C6.52936 7.5901 6.53903 7.59927 6.54887 7.60813C5.72742 8.62642 5.18546 9.87959 5.03959 11.2511C5.02648 11.2504 5.01328 11.2501 5 11.2501H2.81066L3.53033 10.5304C3.82322 10.2375 3.82322 9.76262 3.53033 9.46972C3.23744 9.17683 2.76256 9.17683 2.46967 9.46972L0.46967 11.4697C0.329016 11.6104 0.25 11.8011 0.25 12.0001C0.25 12.199 0.329022 12.3897 0.469677 12.5304L2.46968 14.5303C2.76257 14.8232 3.23745 14.8232 3.53034 14.5303C3.82323 14.2374 3.82322 13.7626 3.53032 13.4697L2.81069 12.7501H5C5.01329 12.7501 5.02649 12.7497 5.0396 12.749C5.1855 14.1206 5.7275 15.3738 6.54902 16.3921C6.53921 16.4009 6.52959 16.41 6.52015 16.4195L4.97205 17.9675V16.9498C4.97205 16.5356 4.63627 16.1998 4.22205 16.1998C3.80784 16.1998 3.47205 16.5356 3.47205 16.9498V19.7782C3.47205 19.9771 3.55107 20.1679 3.69173 20.3085C3.83238 20.4492 4.02315 20.5282 4.22206 20.5282H7.05045C7.46467 20.5282 7.80045 20.1924 7.80044 19.7782C7.80044 19.3639 7.46465 19.0282 7.05043 19.0282H6.03274L7.58081 17.4801C7.59026 17.4707 7.5994 17.461 7.60823 17.4512C8.62648 18.2726 9.87958 18.8145 11.251 18.9604C11.2503 18.9735 11.2499 18.9867 11.2499 19V21.1893L10.5303 20.4697C10.2374 20.1768 9.76257 20.1768 9.46968 20.4697C9.17678 20.7626 9.17677 21.2374 9.46966 21.5303L11.4696 23.5303C11.6103 23.671 11.801 23.75 11.9999 23.75C12.1989 23.75 12.3896 23.671 12.5303 23.5303L14.5303 21.5303C14.8232 21.2374 14.8232 20.7626 14.5303 20.4697C14.2374 20.1768 13.7625 20.1768 13.4696 20.4697L12.7499 21.1893V19C12.7499 18.9867 12.7496 18.9735 12.7489 18.9604C14.1204 18.8145 15.3735 18.2726 16.3918 17.4512C16.4006 17.461 16.4097 17.4707 16.4192 17.4801L17.9673 19.0282H16.9496C16.5354 19.0282 16.1996 19.3639 16.1996 19.7782C16.1996 20.1924 16.5353 20.5282 16.9495 20.5282H19.7779C19.9768 20.5282 20.1676 20.4492 20.3083 20.3085C20.4489 20.1679 20.5279 19.9771 20.5279 19.7782V16.9498C20.5279 16.5356 20.1922 16.1998 19.7779 16.1998C19.3637 16.1998 19.0279 16.5356 19.0279 16.9498V17.9675L17.4798 16.4195C17.4704 16.41 17.4608 16.4009 17.451 16.3921C18.2725 15.3738 18.8145 14.1206 18.9604 12.749C18.9735 12.7497 18.9867 12.7501 19 12.7501H21.1893L20.4697 13.4697C20.1768 13.7626 20.1768 14.2374 20.4697 14.5303C20.7626 14.8232 21.2374 14.8232 21.5303 14.5303L23.5303 12.5304C23.671 12.3897 23.75 12.199 23.75 12.0001C23.75 11.8011 23.671 11.6104 23.5303 11.4697L21.5303 9.46972C21.2374 9.17683 20.7626 9.17683 20.4697 9.46972C20.1768 9.76262 20.1768 10.2375 20.4697 10.5304L21.1893 11.2501H19C18.9867 11.2501 18.9735 11.2504 18.9604 11.2511C18.8145 9.87959 18.2726 8.62642 17.4511 7.60813C17.461 7.59927 17.4706 7.5901 17.4801 7.58063L19.0282 6.03256V7.05025C19.0282 7.46446 19.3639 7.80026 19.7782 7.80026C20.1924 7.80027 20.5282 7.46448 20.5282 7.05027V4.22188C20.5282 4.02297 20.4492 3.8322 20.3085 3.69155C20.1679 3.55089 19.9771 3.47187 19.7782 3.47187H16.9498C16.5356 3.47187 16.1998 3.80766 16.1998 4.22187C16.1998 4.63609 16.5356 4.97187 16.9498 4.97187H17.9675L16.4195 6.51997C16.41 6.52944 16.4008 6.5391 16.392 6.54894C15.3737 5.72745 14.1204 5.18547 12.7489 5.03959C12.7496 5.02648 12.7499 5.01328 12.7499 5V2.81066L13.4696 3.53033C13.7625 3.82322 14.2374 3.82322 14.5303 3.53033C14.8232 3.23744 14.8232 2.76256 14.5303 2.46967L12.5303 0.46967ZM11.6424 16.8111C11.5377 16.6922 11.4854 16.5453 11.4854 16.3704V15.7479C11.1637 15.7221 10.8774 15.6673 10.6265 15.5834C10.3125 15.4785 10.0508 15.3631 9.84149 15.2371C9.70604 15.1602 9.61061 15.0553 9.5552 14.9223C9.50595 14.7894 9.48747 14.653 9.49979 14.5131C9.5121 14.3662 9.5552 14.2403 9.62908 14.1354C9.70296 14.0234 9.7984 13.95 9.91538 13.915C10.0385 13.88 10.177 13.908 10.331 13.999C10.4787 14.0899 10.685 14.1843 10.9497 14.2823C11.2145 14.3732 11.5377 14.4187 11.9194 14.4187C12.2027 14.4187 12.4305 14.3837 12.6029 14.3137C12.7752 14.2368 12.8984 14.1389 12.9723 14.0199C13.0523 13.901 13.0923 13.7646 13.0923 13.6107C13.0923 13.4848 13.0646 13.3729 13.0092 13.2749C12.96 13.177 12.8707 13.093 12.7414 13.0231C12.6182 12.9461 12.452 12.8832 12.2427 12.8342L11.2268 12.5824C10.6604 12.4425 10.2386 12.2046 9.96155 11.8688C9.68449 11.5261 9.54596 11.0853 9.54596 10.5467C9.54596 10.127 9.63524 9.75271 9.81379 9.42392C9.9985 9.09514 10.2509 8.82931 10.5711 8.62644C10.8386 8.46013 11.1434 8.34788 11.4854 8.2897V7.62959C11.4854 7.4547 11.5377 7.3078 11.6424 7.18888C11.747 7.06296 11.8794 7 12.0395 7C12.1934 7 12.3227 7.06296 12.4274 7.18888C12.5321 7.3078 12.5844 7.4547 12.5844 7.62959V8.26193C12.7692 8.28932 12.9632 8.33737 13.1662 8.40609C13.4617 8.49703 13.7172 8.62994 13.9327 8.80483C14.0497 8.88877 14.1298 8.9937 14.1729 9.11962C14.2221 9.24554 14.2344 9.37146 14.2098 9.49738C14.1913 9.62329 14.1452 9.73522 14.0713 9.83316C13.9974 9.9241 13.8989 9.98356 13.7757 10.0115C13.6588 10.0325 13.5202 9.99755 13.3602 9.90661C13.1939 9.81567 13.0123 9.73872 12.8153 9.67576C12.6182 9.6128 12.375 9.58132 12.0857 9.58132C11.7224 9.58132 11.4392 9.66527 11.236 9.83316C11.039 10.001 10.9405 10.2179 10.9405 10.4837C10.9405 10.6796 10.999 10.837 11.116 10.9559C11.2391 11.0749 11.4515 11.1728 11.7532 11.2497L12.7783 11.5016C13.3632 11.6485 13.7942 11.8863 14.0713 12.2151C14.3545 12.5439 14.4961 12.9706 14.4961 13.4953C14.4961 13.908 14.4068 14.2753 14.2283 14.5971C14.0497 14.9119 13.8034 15.1672 13.4894 15.3631C13.2249 15.5281 12.9232 15.6435 12.5844 15.7092V16.3704C12.5844 16.5453 12.5321 16.6922 12.4274 16.8111C12.3289 16.937 12.1996 17 12.0395 17C11.8794 17 11.747 16.937 11.6424 16.8111Z" fill="currentColor"/>
</g>
<defs>
<clipPath id="clip0_97_2053">
<rect fill="white"/>
</clipPath>
</defs>
</svg>
