<svg viewBox="0 0 24 24" fill="currentColor" xmlns="http://www.w3.org/2000/svg">
<path d="M7 13C10.3137 13 13 10.3137 13 7C13 3.68629 10.3137 1 7 1C3.68629 1 1 3.68629 1 7C1 10.3137 3.68629 13 7 13ZM6.66327 10.8321C6.56741 10.7202 6.51947 10.5803 6.51947 10.4124V10.0013C6.28785 9.97742 6.08174 9.93538 5.90114 9.87513C5.66627 9.79678 5.47454 9.71843 5.32594 9.64008C5.20132 9.57293 5.11264 9.47779 5.05992 9.35467C5.01198 9.23155 4.99281 9.10563 5.0024 8.97692C5.01678 8.8482 5.05752 8.73067 5.12463 8.62434C5.19173 8.51801 5.27801 8.44806 5.38346 8.41448C5.49371 8.37531 5.62073 8.3921 5.76453 8.46485C5.8604 8.52641 6.00419 8.59077 6.19593 8.65792C6.39245 8.71948 6.63451 8.75026 6.92211 8.75026C7.12343 8.75026 7.28161 8.72788 7.39664 8.68311C7.51648 8.63834 7.60036 8.57957 7.64829 8.50682C7.70102 8.42847 7.72738 8.34453 7.72738 8.25498C7.72738 8.17104 7.70821 8.10108 7.66986 8.04512C7.63631 7.98356 7.57879 7.9304 7.4973 7.88562C7.41582 7.83526 7.30318 7.79049 7.15938 7.75131L6.34691 7.54984C5.90114 7.43232 5.568 7.23645 5.34751 6.96222C5.13182 6.68241 5.02397 6.32144 5.02397 5.87933C5.02397 5.54355 5.09347 5.24414 5.23247 4.98111C5.37627 4.71249 5.57519 4.49423 5.82924 4.32634C6.03267 4.19439 6.26275 4.10046 6.51947 4.04456V3.58762C6.51947 3.41973 6.56741 3.27982 6.66327 3.16789C6.75914 3.05596 6.87657 3 7.01558 3C7.15938 3 7.27921 3.05596 7.37507 3.16789C7.47094 3.27982 7.51887 3.41973 7.51887 3.58762V4.01054C7.63803 4.02855 7.76265 4.05826 7.89275 4.09969C8.10365 4.16125 8.2882 4.24799 8.44637 4.35992C8.55662 4.42707 8.63331 4.51941 8.67645 4.63694C8.72439 4.75446 8.74116 4.87478 8.72678 4.9979C8.7172 5.11542 8.67885 5.22176 8.61174 5.31689C8.54943 5.41203 8.46315 5.47639 8.35291 5.50997C8.24745 5.53795 8.12043 5.51556 7.97184 5.44281C7.86159 5.38685 7.73697 5.34208 7.59796 5.3085C7.46375 5.26932 7.29119 5.24974 7.08029 5.24974C6.82624 5.24974 6.62972 5.3029 6.49071 5.40923C6.3565 5.51556 6.28939 5.65268 6.28939 5.82057C6.28939 5.93249 6.32774 6.02763 6.40443 6.10598C6.48592 6.17873 6.63211 6.24309 6.84302 6.29906L7.66267 6.50892C8.11803 6.62644 8.45356 6.82232 8.66926 7.09654C8.88975 7.36516 9 7.71494 9 8.14585C9 8.48164 8.9305 8.77824 8.79149 9.03568C8.65249 9.29311 8.45836 9.50297 8.20911 9.66527C8.0069 9.79951 7.77683 9.89546 7.51887 9.95312V10.4124C7.51887 10.5803 7.47094 10.7202 7.37507 10.8321C7.284 10.944 7.16417 11 7.01558 11C6.87657 11 6.75914 10.944 6.66327 10.8321Z" fill="currentColor"/>
<path d="M14.341 2.64184C14.4723 2.40035 14.7251 2.25 15 2.25C18.1756 2.25 20.75 4.82436 20.75 8V9C20.75 9.41421 20.4142 9.75 20 9.75C19.5858 9.75 19.25 9.41421 19.25 9V8C19.25 6.20936 18.1426 4.67736 16.5753 4.05151L17.296 5.16351C17.5213 5.5111 17.4222 5.9755 17.0746 6.20079C16.727 6.42608 16.2626 6.32694 16.0373 5.97935L14.3706 3.40792C14.2211 3.17727 14.2098 2.88333 14.341 2.64184Z" fill="currentColor"/>
<path d="M2 13.25C2.41421 13.25 2.75 13.5858 2.75 14V15C2.75 16.7906 3.8574 18.3226 5.42471 18.9485L4.70397 17.8365C4.47868 17.4889 4.57782 17.0245 4.92541 16.7992C5.273 16.5739 5.73741 16.6731 5.9627 17.0206L7.62936 19.5921C7.77886 19.8227 7.79021 20.1167 7.65895 20.3582C7.5277 20.5997 7.27486 20.75 7 20.75C3.82436 20.75 1.25 18.1756 1.25 15V14C1.25 13.5858 1.58579 13.25 2 13.25Z" fill="currentColor"/>
<path d="M17 23C20.3137 23 23 20.3137 23 17C23 13.6863 20.3137 11 17 11C13.6863 11 11 13.6863 11 17C11 20.3137 13.6863 23 17 23ZM16.1407 19.7524C15.7869 19.5873 15.4891 19.3425 15.2473 19.0179C15.0571 18.7517 14.9148 18.4409 14.8205 18.0853H14.4688C14.3332 18.0853 14.2211 18.044 14.1327 17.9615C14.0442 17.879 14 17.7772 14 17.6561C14 17.5351 14.0442 17.4333 14.1327 17.3508C14.2211 17.2682 14.3332 17.227 14.4688 17.227H14.6874C14.6832 17.1319 14.6811 17.0466 14.6811 16.9711C14.6811 16.9044 14.6834 16.8357 14.6879 16.7648H14.4688C14.3332 16.7648 14.2211 16.7235 14.1327 16.641C14.0442 16.5585 14 16.4567 14 16.3356C14 16.2146 14.0442 16.1128 14.1327 16.0303C14.2211 15.9477 14.3332 15.9065 14.4688 15.9065H14.822C14.9163 15.5506 15.0581 15.2425 15.2473 14.9821C15.4891 14.6575 15.7869 14.4127 16.1407 14.2476C16.5005 14.0825 16.8985 14 17.3349 14C17.559 14 17.789 14.0303 18.0249 14.0908C18.2608 14.1458 18.476 14.2311 18.6707 14.3466C18.8004 14.4182 18.8918 14.5089 18.9449 14.619C18.998 14.729 19.0127 14.8418 18.9891 14.9574C18.9714 15.0729 18.9242 15.1774 18.8476 15.271C18.7768 15.359 18.6795 15.4195 18.5557 15.4525C18.4318 15.4801 18.2903 15.4635 18.1311 15.403C18.0485 15.359 17.9423 15.3232 17.8126 15.2957C17.6888 15.2682 17.5679 15.2545 17.4499 15.2545C17.2848 15.2545 17.1315 15.2847 16.9899 15.3453C16.8543 15.4003 16.7363 15.4938 16.6361 15.6259C16.575 15.703 16.5204 15.7966 16.4724 15.9065H17.2111C17.3408 15.9065 17.4499 15.9477 17.5384 16.0303C17.6268 16.1128 17.6711 16.2146 17.6711 16.3356C17.6711 16.4567 17.6268 16.5585 17.5384 16.641C17.4499 16.7235 17.3408 16.7648 17.2111 16.7648H16.2933C16.2918 16.826 16.2911 16.8893 16.2911 16.9546C16.2911 17.0482 16.2926 17.1389 16.2955 17.227H17.2111C17.3408 17.227 17.4499 17.2682 17.5384 17.3508C17.6268 17.4333 17.6711 17.5351 17.6711 17.6561C17.6711 17.7772 17.6268 17.879 17.5384 17.9615C17.4499 18.044 17.3408 18.0853 17.2111 18.0853H16.4684C16.5173 18.2005 16.5732 18.2996 16.6361 18.3824C16.7363 18.5089 16.8543 18.6025 16.9899 18.663C17.1315 18.718 17.2848 18.7455 17.4499 18.7455C17.5738 18.7455 17.6947 18.7345 17.8126 18.7125C17.9305 18.685 18.0396 18.6465 18.1399 18.597C18.2932 18.5365 18.4318 18.5227 18.5557 18.5557C18.6854 18.5887 18.7857 18.6492 18.8564 18.7373C18.9272 18.8253 18.9714 18.9271 18.9891 19.0426C19.0127 19.1527 18.998 19.2627 18.9449 19.3728C18.8918 19.4828 18.8033 19.5736 18.6795 19.6451C18.4908 19.7607 18.2785 19.8487 18.0426 19.9092C17.8067 19.9697 17.5708 20 17.3349 20C16.8985 20 16.5005 19.9175 16.1407 19.7524Z" fill="currentColor"/>
</svg>
