<svg viewBox="0 0 24 24" fill="currentColor" xmlns="http://www.w3.org/2000/svg">
<path d="M18 12C18.4142 12 18.75 12.3358 18.75 12.75V18.9393L20.4697 17.2197C20.7626 16.9268 21.2374 16.9268 21.5303 17.2197C21.8232 17.5126 21.8232 17.9874 21.5303 18.2803L18.5303 21.2803C18.2374 21.5732 17.7626 21.5732 17.4697 21.2803L14.4697 18.2803C14.1768 17.9874 14.1768 17.5126 14.4697 17.2197C14.7626 16.9268 15.2374 16.9268 15.5303 17.2197L17.25 18.9393V12.75C17.25 12.3358 17.5858 12 18 12Z" fill="currentColor"/>
<path d="M12.868 18.4706C11.9777 18.8126 11.0107 19 10 19C5.58172 19 2 15.4183 2 11C2 6.58172 5.58172 3 10 3C14.2504 3 17.7266 6.31466 17.9846 10.5001C16.7491 10.5083 15.75 11.5125 15.75 12.75V15.6281C14.9585 15.349 14.0421 15.526 13.409 16.159C12.7838 16.7842 12.6034 17.6859 12.868 18.4706ZM9.60815 16.7733C9.73534 16.9244 9.89619 17 10.0907 17C10.2852 17 10.4424 16.9244 10.5621 16.7733C10.6893 16.6306 10.7529 16.4544 10.7529 16.2445V15.451C11.1646 15.3721 11.5312 15.2337 11.8527 15.0357C12.2342 14.8006 12.5335 14.4942 12.7505 14.1165C12.9675 13.7303 13.0759 13.2896 13.0759 12.7943C13.0759 12.1647 12.9039 11.6527 12.5597 11.2581C12.223 10.8636 11.6993 10.5782 10.9885 10.4019L9.74282 10.0997C9.37621 10.0073 9.11809 9.88982 8.96845 9.74711C8.8263 9.60441 8.75522 9.41553 8.75522 9.18048C8.75522 8.86149 8.87493 8.60126 9.11435 8.39979C9.36125 8.19832 9.70541 8.09759 10.1468 8.09759C10.4985 8.09759 10.794 8.13536 11.0334 8.21091C11.2728 8.28646 11.4936 8.3788 11.6956 8.48793C11.8901 8.59706 12.0584 8.63904 12.2006 8.61385C12.3502 8.58027 12.4699 8.50892 12.5597 8.39979C12.6495 8.28227 12.7056 8.14795 12.728 7.99685C12.758 7.84575 12.743 7.69465 12.6832 7.54355C12.6308 7.39245 12.5335 7.26653 12.3914 7.16579C12.1295 6.95593 11.819 6.79643 11.4599 6.6873C11.2132 6.60484 10.9775 6.54718 10.7529 6.51431V5.75551C10.7529 5.54565 10.6893 5.36936 10.5621 5.22665C10.4349 5.07555 10.2778 5 10.0907 5C9.89619 5 9.73534 5.07555 9.60815 5.22665C9.48096 5.36936 9.41736 5.54565 9.41736 5.75551V6.54764C9.00176 6.61746 8.63141 6.75215 8.30632 6.95173C7.91727 7.19517 7.61051 7.51417 7.38606 7.90871C7.16909 8.30325 7.0606 8.75236 7.0606 9.25603C7.0606 9.90241 7.22894 10.4313 7.56562 10.8426C7.9023 11.2455 8.4148 11.531 9.10313 11.6988L10.3376 12.001C10.592 12.0598 10.794 12.1354 10.9436 12.2277C11.1008 12.3116 11.2092 12.4124 11.2691 12.5299C11.3364 12.6474 11.3701 12.7817 11.3701 12.9328C11.3701 13.1175 11.3215 13.2812 11.2242 13.4239C11.1344 13.5666 10.9848 13.6842 10.7753 13.7765C10.5658 13.8604 10.289 13.9024 9.94483 13.9024C9.48096 13.9024 9.08816 13.8478 8.76645 13.7387C8.44473 13.6212 8.19409 13.5079 8.01453 13.3987C7.82748 13.2896 7.65914 13.256 7.50951 13.298C7.36736 13.34 7.25139 13.4281 7.16161 13.5624C7.07183 13.6884 7.01945 13.8395 7.00449 14.0157C6.98953 14.1836 7.01197 14.3473 7.07183 14.5068C7.13916 14.6663 7.25513 14.7922 7.41973 14.8846C7.67411 15.0357 7.99208 15.1742 8.37365 15.3001C8.67856 15.4007 9.02646 15.4665 9.41736 15.4974V16.2445C9.41736 16.4544 9.48096 16.6306 9.60815 16.7733Z" fill="currentColor"/>
</svg>
