<svg viewBox="0 0 24 24" fill="currentColor" xmlns="http://www.w3.org/2000/svg">
<path d="M21.4129 10.46C22.1957 11.3685 22.1957 12.6315 21.4129 13.54C19.6369 15.6009 16.0881 19 12 19C7.91186 19 4.36311 15.6009 2.58713 13.54C1.80429 12.6315 1.80429 11.3685 2.58713 10.46C4.36311 8.39906 7.91186 5 12 5C16.0881 5 19.6369 8.39906 21.4129 10.46ZM11.5755 16.8111C11.7011 16.937 11.86 17 12.0521 17C12.2442 17 12.3993 16.937 12.5175 16.8111C12.6431 16.6922 12.7059 16.5453 12.7059 16.3704V15.7092C13.1125 15.6435 13.4746 15.5281 13.792 15.3631C14.1688 15.1672 14.4644 14.9119 14.6786 14.5971C14.8929 14.2753 15 13.908 15 13.4953C15 12.9706 14.8301 12.5439 14.4902 12.2151C14.1577 11.8863 13.6406 11.6485 12.9387 11.5016L11.7085 11.2497C11.3465 11.1728 11.0916 11.0749 10.9438 10.9559C10.8035 10.837 10.7333 10.6796 10.7333 10.4837C10.7333 10.2179 10.8515 10.001 11.0879 9.83316C11.3317 9.66527 11.6716 9.58132 12.1075 9.58132C12.4547 9.58132 12.7466 9.6128 12.983 9.67576C13.2194 9.73872 13.4374 9.81567 13.6369 9.90661C13.829 9.99755 13.9952 10.0325 14.1356 10.0115C14.2833 9.98356 14.4016 9.9241 14.4902 9.83316C14.5789 9.73522 14.6343 9.6233 14.6564 9.49738C14.686 9.37146 14.6712 9.24554 14.6121 9.11962C14.5604 8.9937 14.4644 8.88877 14.324 8.80483C14.0654 8.62994 13.7588 8.49703 13.4041 8.40609C13.1605 8.33737 12.9278 8.28932 12.7059 8.26193V7.62959C12.7059 7.4547 12.6431 7.3078 12.5175 7.18888C12.3919 7.06296 12.2368 7 12.0521 7C11.86 7 11.7011 7.06296 11.5755 7.18888C11.4499 7.3078 11.3871 7.4547 11.3871 7.62959V8.2897C10.9767 8.34788 10.611 8.46013 10.29 8.62644C9.9058 8.82931 9.60288 9.09514 9.38123 9.42392C9.16697 9.75271 9.05984 10.127 9.05984 10.5467C9.05984 11.0853 9.22608 11.5261 9.55855 11.8688C9.89102 12.2046 10.3971 12.4425 11.0768 12.5824L12.2959 12.8342C12.5471 12.8832 12.7466 12.9461 12.8943 13.0231C13.0495 13.093 13.1566 13.177 13.2157 13.2749C13.2822 13.3729 13.3155 13.4848 13.3155 13.6107C13.3155 13.7646 13.2675 13.901 13.1714 14.0199C13.0827 14.1389 12.935 14.2368 12.7281 14.3137C12.5212 14.3837 12.2479 14.4187 11.908 14.4187C11.4499 14.4187 11.0621 14.3732 10.7444 14.2823C10.4267 14.1843 10.1792 14.0899 10.0018 13.999C9.81714 13.908 9.65091 13.88 9.50314 13.915C9.36276 13.95 9.24825 14.0234 9.15959 14.1354C9.07093 14.2403 9.01921 14.3662 9.00443 14.5131C8.98966 14.653 9.01182 14.7894 9.07093 14.9223C9.13742 15.0553 9.25194 15.1602 9.41448 15.2371C9.66568 15.3631 9.97968 15.4785 10.3565 15.5834C10.6576 15.6673 11.0011 15.7221 11.3871 15.7479V16.3704C11.3871 16.5453 11.4499 16.6922 11.5755 16.8111Z" fill="currentColor"/>
</svg>
