<svg viewBox="0 0 24 24" fill="currentColor" xmlns="http://www.w3.org/2000/svg">
<path d="M2 5C2 3.89543 2.89543 3 4 3H20C21.1046 3 22 3.89543 22 5V7.25H2V5Z" fill="currentColor"/>
<path d="M2 8.75V15C2 16.1046 2.89543 17 4 17H10.5764C10.5261 16.674 10.5 16.3401 10.5 16C10.5 12.4101 13.4101 9.5 17 9.5C19.0104 9.5 20.8077 10.4127 22 11.8464V8.75H2Z" fill="currentColor"/>
<path d="M17 21C19.7614 21 22 18.7614 22 16C22 13.2386 19.7614 11 17 11C14.2386 11 12 13.2386 12 16C12 18.7614 14.2386 21 17 21ZM16.6633 19.8321C16.5674 19.7202 16.5195 19.5803 16.5195 19.4124V19.0013C16.2879 18.9774 16.0817 18.9354 15.9011 18.8751C15.6663 18.7968 15.4745 18.7184 15.3259 18.6401C15.2013 18.5729 15.1126 18.4778 15.0599 18.3547C15.012 18.2315 14.9928 18.1056 15.0024 17.9769C15.0168 17.8482 15.0575 17.7307 15.1246 17.6243C15.1917 17.518 15.278 17.4481 15.3835 17.4145C15.4937 17.3753 15.6207 17.3921 15.7645 17.4648C15.8604 17.5264 16.0042 17.5908 16.1959 17.6579C16.3925 17.7195 16.6345 17.7503 16.9221 17.7503C17.1234 17.7503 17.2816 17.7279 17.3966 17.6831C17.5165 17.6383 17.6004 17.5796 17.6483 17.5068C17.701 17.4285 17.7274 17.3445 17.7274 17.255C17.7274 17.171 17.7082 17.1011 17.6699 17.0451C17.6363 16.9836 17.5788 16.9304 17.4973 16.8856C17.4158 16.8353 17.3032 16.7905 17.1594 16.7513L16.3469 16.5498C15.9011 16.4323 15.568 16.2364 15.3475 15.9622C15.1318 15.6824 15.024 15.3214 15.024 14.8793C15.024 14.5435 15.0935 14.2441 15.2325 13.9811C15.3763 13.7125 15.5752 13.4942 15.8292 13.3263C16.0327 13.1944 16.2627 13.1005 16.5195 13.0446V12.5876C16.5195 12.4197 16.5674 12.2798 16.6633 12.1679C16.7591 12.056 16.8766 12 17.0156 12C17.1594 12 17.2792 12.056 17.3751 12.1679C17.4709 12.2798 17.5189 12.4197 17.5189 12.5876V13.0105C17.638 13.0285 17.7627 13.0583 17.8927 13.0997C18.1037 13.1612 18.2882 13.248 18.4464 13.3599C18.5566 13.4271 18.6333 13.5194 18.6765 13.6369C18.7244 13.7545 18.7412 13.8748 18.7268 13.9979C18.7172 14.1154 18.6789 14.2218 18.6117 14.3169C18.5494 14.412 18.4632 14.4764 18.3529 14.51C18.2475 14.538 18.1204 14.5156 17.9718 14.4428C17.8616 14.3868 17.737 14.3421 17.598 14.3085C17.4638 14.2693 17.2912 14.2497 17.0803 14.2497C16.8262 14.2497 16.6297 14.3029 16.4907 14.4092C16.3565 14.5156 16.2894 14.6527 16.2894 14.8206C16.2894 14.9325 16.3277 15.0276 16.4044 15.106C16.4859 15.1787 16.6321 15.2431 16.843 15.2991L17.6627 15.5089C18.118 15.6264 18.4536 15.8223 18.6693 16.0965C18.8898 16.3652 19 16.7149 19 17.1459C19 17.4816 18.9305 17.7782 18.7915 18.0357C18.6525 18.2931 18.4584 18.503 18.2091 18.6653C18.0069 18.7995 17.7768 18.8955 17.5189 18.9531V19.4124C17.5189 19.5803 17.4709 19.7202 17.3751 19.8321C17.284 19.944 17.1642 20 17.0156 20C16.8766 20 16.7591 19.944 16.6633 19.8321Z" fill="currentColor"/>
</svg>
