<svg viewBox="0 0 24 24" fill="currentColor" xmlns="http://www.w3.org/2000/svg">
<path d="M15.4118 15.75C15.4118 15.3358 15.7476 15 16.1618 15H20.75C21.1642 15 21.5 15.3358 21.5 15.75V20.3442C21.5 20.7584 21.1642 21.0942 20.75 21.0942C20.3358 21.0942 20 20.7584 20 20.3442V17.5704L16.7254 20.87L16.7239 20.8715C16.0152 21.5908 14.862 21.5903 14.1538 20.87L12.4696 19.157C12.3521 19.0374 12.1686 19.0341 12.0474 19.147L9.31235 22.2463C9.03827 22.5568 8.56432 22.5864 8.25375 22.3123C7.94318 22.0383 7.91359 21.5643 8.18767 21.2537L10.9534 18.1197L10.9675 18.1053C11.6762 17.3846 12.8305 17.3846 13.5392 18.1053L15.2234 19.8184C15.3443 19.9413 15.5349 19.9413 15.6558 19.8184L15.6583 19.8159L18.949 16.5H16.1618C15.7476 16.5 15.4118 16.1642 15.4118 15.75Z" fill="currentColor"/>
<path d="M19 10.5C19 11.556 18.8074 12.5671 18.4554 13.5H16.1618C14.9191 13.5 13.9118 14.5074 13.9118 15.75C13.9118 16.0586 13.9739 16.3526 14.0863 16.6203C12.7947 15.7558 11.032 15.9002 9.89792 17.0537L9.85543 17.0969L8.40544 18.74C4.7239 17.807 2 14.4716 2 10.5C2 5.80558 5.80558 2 10.5 2C15.1944 2 19 5.80558 19 10.5ZM6.52778 9.77794C6.52778 9.6563 6.5341 9.53583 6.54645 9.41683H8.88889C9.3031 9.41683 9.63889 9.08104 9.63889 8.66683C9.63889 8.25262 9.3031 7.91683 8.88889 7.91683H7.06191C7.73566 6.82848 8.98428 6.0835 10.4444 6.0835C11.1661 6.0835 11.8387 6.26703 12.4159 6.58499C12.7787 6.78486 13.2348 6.65279 13.4347 6.28999C13.6346 5.92719 13.5025 5.47105 13.1397 5.27118C12.344 4.83282 11.4228 4.5835 10.4444 4.5835C8.15834 4.5835 6.16914 5.95352 5.38446 7.91683H5C4.58579 7.91683 4.25 8.25262 4.25 8.66683C4.25 9.08104 4.58579 9.41683 5 9.41683H5.04056C5.03209 9.53605 5.02778 9.65646 5.02778 9.77794C5.02778 9.89942 5.03209 10.0198 5.04056 10.1391H5C4.58579 10.1391 4.25 10.4748 4.25 10.8891C4.25 11.3033 4.58579 11.6391 5 11.6391H5.38446C6.16914 13.6024 8.15834 14.9724 10.4444 14.9724C11.4228 14.9724 12.344 14.7231 13.1397 14.2847C13.5025 14.0848 13.6346 13.6287 13.4347 13.2659C13.2348 12.9031 12.7787 12.771 12.4159 12.9709C11.8387 13.2888 11.1661 13.4724 10.4444 13.4724C8.98428 13.4724 7.73566 12.7274 7.06191 11.6391H8.88889C9.3031 11.6391 9.63889 11.3033 9.63889 10.8891C9.63889 10.4748 9.3031 10.1391 8.88889 10.1391H6.54645C6.5341 10.0201 6.52778 9.89958 6.52778 9.77794Z" fill="currentColor"/>
</svg>
