<svg viewBox="0 0 24 24" fill="currentColor" xmlns="http://www.w3.org/2000/svg">
<path d="M9.41177 21.75C9.41177 22.1642 9.74756 22.5 10.1618 22.5H14.75C15.1642 22.5 15.5 22.1642 15.5 21.75V17.1558C15.5 16.7416 15.1642 16.4058 14.75 16.4058C14.3358 16.4058 14 16.7416 14 17.1558V19.9296L10.7254 16.63L10.7239 16.6285C10.0152 15.9092 8.86196 15.9097 8.15379 16.63L6.46956 18.343C6.35205 18.4626 6.16863 18.4659 6.04744 18.353L3.31235 15.2537C3.03827 14.9432 2.56432 14.9136 2.25375 15.1877C1.94318 15.4617 1.91359 15.9357 2.18767 16.2463L4.95338 19.3803L4.96755 19.3947C5.6762 20.1154 6.83051 20.1154 7.53917 19.3947L9.2234 17.6816C9.34429 17.5587 9.53492 17.5587 9.6558 17.6816L9.65826 17.6841L12.949 21H10.1618C9.74756 21 9.41177 21.3358 9.41177 21.75Z" fill="currentColor"/>
<path d="M6.85966 15.8067L7.08417 15.5784C8.37963 14.2608 10.4956 14.26 11.7924 15.5757L12.6249 16.4146C12.9313 15.5361 13.7671 14.9058 14.75 14.9058C15.9926 14.9058 17 15.9132 17 17.1558V18.2483C19.9485 16.9143 22 13.9467 22 10.5C22 5.80558 18.1944 2 13.5 2C8.80558 2 5 5.80558 5 10.5C5 12.5075 5.69592 14.3524 6.85966 15.8067ZM9.54645 9.41683C9.53409 9.53583 9.52778 9.6563 9.52778 9.77794C9.52778 9.89958 9.53409 10.0201 9.54645 10.1391H11.8889C12.3031 10.1391 12.6389 10.4748 12.6389 10.8891C12.6389 11.3033 12.3031 11.6391 11.8889 11.6391H10.0619C10.7357 12.7274 11.9843 13.4724 13.4444 13.4724C14.1661 13.4724 14.8387 13.2888 15.4159 12.9709C15.7787 12.771 16.2348 12.9031 16.4347 13.2659C16.6346 13.6287 16.5025 14.0848 16.1397 14.2847C15.344 14.7231 14.4228 14.9724 13.4444 14.9724C11.1583 14.9724 9.16914 13.6024 8.38446 11.6391H8C7.58579 11.6391 7.25 11.3033 7.25 10.8891C7.25 10.4748 7.58579 10.1391 8 10.1391H8.04056C8.03209 10.0198 8.02778 9.89942 8.02778 9.77794C8.02778 9.65646 8.03209 9.53605 8.04056 9.41683H8C7.58579 9.41683 7.25 9.08104 7.25 8.66683C7.25 8.25262 7.58579 7.91683 8 7.91683H8.38446C9.16914 5.95352 11.1583 4.5835 13.4444 4.5835C14.4228 4.5835 15.344 4.83282 16.1397 5.27118C16.5025 5.47105 16.6346 5.92719 16.4347 6.28999C16.2348 6.65279 15.7787 6.78486 15.4159 6.58499C14.8387 6.26703 14.1661 6.0835 13.4444 6.0835C11.9843 6.0835 10.7357 6.82848 10.0619 7.91683H11.8889C12.3031 7.91683 12.6389 8.25262 12.6389 8.66683C12.6389 9.08104 12.3031 9.41683 11.8889 9.41683H9.54645Z" fill="currentColor"/>
</svg>
