<svg viewBox="0 0 24 24" fill="currentColor" xmlns="http://www.w3.org/2000/svg">
<path d="M5.61865 10.8889C5.57073 11.2513 5.54591 11.6223 5.54591 12C5.54591 12.3777 5.57073 12.7487 5.61865 13.1111H9.99992C10.597 13.1111 11.081 13.6086 11.081 14.2222C11.081 14.8359 10.597 15.3333 9.99992 15.3333H6.23943C7.40452 17.975 9.90965 19.7778 12.7675 19.7778C14.0757 19.7778 15.3016 19.404 16.3608 18.748C16.8722 18.4313 17.5366 18.6006 17.8447 19.1263C18.1529 19.6519 17.9881 20.3347 17.4767 20.6514C16.0935 21.508 14.4838 22 12.7675 22C8.65533 22 5.20231 19.1987 3.919 15.3333H3.08107C2.48401 15.3333 2 14.8359 2 14.2222C2 13.6086 2.48401 13.1111 3.08107 13.1111H3.4413C3.40328 12.746 3.38377 12.3753 3.38377 12C3.38377 11.6247 3.40328 11.254 3.4413 10.8889H3.08107C2.48401 10.8889 2 10.3914 2 9.77778C2 9.16413 2.48401 8.66667 3.08107 8.66667H3.919C5.20231 4.8013 8.65533 2 12.7675 2C14.4837 2 16.0935 2.49197 17.4767 3.3486C17.9881 3.66531 18.1529 4.34814 17.8447 4.87375C17.5366 5.39935 16.8722 5.56869 16.3608 5.25197C15.3016 4.59597 14.0757 4.22222 12.7675 4.22222C9.90965 4.22222 7.40452 6.02495 6.23943 8.66667H9.99992C10.597 8.66667 11.081 9.16413 11.081 9.77778C11.081 10.3914 10.597 10.8889 9.99992 10.8889H5.61865Z" fill="currentColor"/>
</svg>
