<svg viewBox="0 0 24 24" fill="currentColor" xmlns="http://www.w3.org/2000/svg">
<path d="M2 14C2 12.8954 2.89543 12 4 12H16C17.1046 12 18 12.8954 18 14C18 18.4183 14.4183 22 10 22C5.58172 22 2 18.4183 2 14Z" fill="currentColor"/>
<path d="M14 6C14 8.20914 12.2091 10 10 10C7.79086 10 6 8.20914 6 6C6 3.79086 7.79086 2 10 2C12.2091 2 14 3.79086 14 6Z" fill="currentColor"/>
<path d="M19.0521 13C18.86 13 18.7011 12.9307 18.5755 12.7922C18.4499 12.6614 18.3871 12.4998 18.3871 12.3075V11.361L18.6864 11.638C18.1766 11.6226 17.7333 11.5572 17.3565 11.4418C16.9797 11.3263 16.6657 11.1994 16.4145 11.0609C16.2519 10.9762 16.1374 10.8608 16.0709 10.7146C16.0118 10.5684 15.9897 10.4183 16.0044 10.2644C16.0192 10.1028 16.0709 9.96432 16.1596 9.8489C16.2482 9.72578 16.3628 9.64498 16.5031 9.60651C16.6509 9.56803 16.8171 9.59881 17.0018 9.69885C17.1792 9.79888 17.4267 9.90276 17.7444 10.0105C18.0621 10.1105 18.4499 10.1605 18.908 10.1605C19.2479 10.1605 19.5212 10.1221 19.7281 10.0451C19.935 9.96048 20.0827 9.85275 20.1714 9.72193C20.2675 9.59112 20.3155 9.44106 20.3155 9.27177C20.3155 9.13326 20.2822 9.01014 20.2157 8.90241C20.1566 8.79468 20.0495 8.70234 19.8943 8.62539C19.7466 8.54075 19.5471 8.47149 19.2959 8.41763L18.0768 8.14061C17.3971 7.98671 16.891 7.72508 16.5586 7.35572C16.2261 6.97866 16.0598 6.49388 16.0598 5.90136C16.0598 5.43966 16.167 5.02798 16.3812 4.66632C16.6029 4.30465 16.9058 4.01224 17.29 3.78909C17.6816 3.56593 18.1396 3.43127 18.6642 3.3851L18.3871 3.56978V2.69255C18.3871 2.50018 18.4499 2.33858 18.5755 2.20777C18.7011 2.06926 18.86 2 19.0521 2C19.2368 2 19.3919 2.06926 19.5175 2.20777C19.6431 2.33858 19.7059 2.50018 19.7059 2.69255V3.56978L19.4289 3.36202C19.7318 3.3774 20.0569 3.43896 20.4041 3.54669C20.7588 3.64673 21.0654 3.79293 21.324 3.98531C21.4644 4.07765 21.5604 4.19307 21.6121 4.33158C21.6712 4.47009 21.686 4.6086 21.6564 4.74711C21.6343 4.88562 21.5789 5.00874 21.4902 5.11647C21.4016 5.21651 21.2833 5.28192 21.1356 5.3127C20.9952 5.33578 20.829 5.29731 20.6369 5.19727C20.4374 5.09724 20.2194 5.01259 19.983 4.94334C19.7466 4.87408 19.4547 4.83946 19.1075 4.83946C18.6716 4.83946 18.3317 4.93179 18.0879 5.11647C17.8515 5.30115 17.7333 5.5397 17.7333 5.83211C17.7333 6.04757 17.8035 6.22071 17.9438 6.35152C18.0916 6.48234 18.3465 6.59007 18.7085 6.67471L19.9387 6.95173C20.6406 7.11333 21.1577 7.37496 21.4902 7.73662C21.8301 8.09829 22 8.56768 22 9.14481C22 9.59881 21.8929 10.0028 21.6786 10.3568C21.4644 10.703 21.1688 10.9839 20.792 11.1994C20.4152 11.4148 19.9756 11.5533 19.4732 11.6149L19.7059 11.3494V12.3075C19.7059 12.4998 19.6431 12.6614 19.5175 12.7922C19.3993 12.9307 19.2442 13 19.0521 13Z" fill="currentColor"/>
</svg>
