<svg viewBox="0 0 24 24" fill="currentColor" xmlns="http://www.w3.org/2000/svg">
<path d="M15.7151 12.3343C14.6621 13.0691 13.3814 13.5 12 13.5C10.6186 13.5 9.33786 13.0691 8.28486 12.3343L6.48149 14.4383C6.17078 14.8008 6 15.2624 6 15.7398V21.25H5C4.58579 21.25 4.25 21.5858 4.25 22C4.25 22.4142 4.58579 22.75 5 22.75H19C19.4142 22.75 19.75 22.4142 19.75 22C19.75 21.5858 19.4142 21.25 19 21.25H18V15.7398C18 15.2624 17.8292 14.8008 17.5185 14.4383L15.7151 12.3343ZM8.21656 18.2052L10.9378 14.5141C11.4431 13.8286 12.5569 13.8286 13.0622 14.5141L15.7834 18.2052C16.349 18.9724 15.7409 20 14.7212 20H9.27881C8.25915 20 7.65095 18.9724 8.21656 18.2052Z" fill="currentColor"/>
<path d="M18 4.4956V2.75H19C19.4142 2.75 19.75 2.41421 19.75 2C19.75 1.58579 19.4142 1.25 19 1.25H15.0339C16.3617 1.95204 17.417 3.10054 18 4.4956Z" fill="currentColor"/>
<path d="M8.96611 1.25H5C4.58579 1.25 4.25 1.58579 4.25 2C4.25 2.41421 4.58579 2.75 5 2.75H6V4.4956C6.58298 3.10054 7.63831 1.95204 8.96611 1.25Z" fill="currentColor"/>
<path d="M12 12C14.7614 12 17 9.76142 17 7C17 4.23858 14.7614 2 12 2C9.23858 2 7 4.23858 7 7C7 9.76142 9.23858 12 12 12ZM11.6633 10.8321C11.5674 10.7202 11.5195 10.5803 11.5195 10.4124V10.0013C11.2879 9.97742 11.0817 9.93538 10.9011 9.87513C10.6663 9.79678 10.4745 9.71843 10.3259 9.64008C10.2013 9.57293 10.1126 9.47779 10.0599 9.35467C10.012 9.23155 9.99281 9.10563 10.0024 8.97691C10.0168 8.8482 10.0575 8.73068 10.1246 8.62434C10.1917 8.51801 10.278 8.44806 10.3835 8.41448C10.4937 8.37531 10.6207 8.39209 10.7645 8.46485C10.8604 8.52641 11.0042 8.59077 11.1959 8.65792C11.3925 8.71948 11.6345 8.75026 11.9221 8.75026C12.1234 8.75026 12.2816 8.72788 12.3966 8.68311C12.5165 8.63833 12.6004 8.57957 12.6483 8.50682C12.701 8.42847 12.7274 8.34453 12.7274 8.25498C12.7274 8.17104 12.7082 8.10108 12.6699 8.04512C12.6363 7.98356 12.5788 7.9304 12.4973 7.88562C12.4158 7.83526 12.3032 7.79049 12.1594 7.75131L11.3469 7.54984C10.9011 7.43232 10.568 7.23645 10.3475 6.96222C10.1318 6.68241 10.024 6.32144 10.024 5.87933C10.024 5.54355 10.0935 5.24414 10.2325 4.98111C10.3763 4.71249 10.5752 4.49423 10.8292 4.32634C11.0327 4.19439 11.2627 4.10046 11.5195 4.04456V3.58762C11.5195 3.41973 11.5674 3.27982 11.6633 3.16789C11.7591 3.05596 11.8766 3 12.0156 3C12.1594 3 12.2792 3.05596 12.3751 3.16789C12.4709 3.27982 12.5189 3.41973 12.5189 3.58762V4.01054C12.638 4.02855 12.7627 4.05826 12.8927 4.09969C13.1037 4.16125 13.2882 4.24799 13.4464 4.35992C13.5566 4.42707 13.6333 4.51941 13.6765 4.63694C13.7244 4.75446 13.7412 4.87478 13.7268 4.9979C13.7172 5.11542 13.6789 5.22176 13.6117 5.31689C13.5494 5.41203 13.4632 5.47639 13.3529 5.50997C13.2475 5.53795 13.1204 5.51556 12.9718 5.44281C12.8616 5.38685 12.737 5.34208 12.598 5.3085C12.4638 5.26932 12.2912 5.24974 12.0803 5.24974C11.8262 5.24974 11.6297 5.3029 11.4907 5.40923C11.3565 5.51557 11.2894 5.65268 11.2894 5.82057C11.2894 5.93249 11.3277 6.02763 11.4044 6.10598C11.4859 6.17873 11.6321 6.24309 11.843 6.29906L12.6627 6.50892C13.118 6.62644 13.4536 6.82232 13.6693 7.09654C13.8898 7.36516 14 7.71494 14 8.14585C14 8.48164 13.9305 8.77824 13.7915 9.03568C13.6525 9.29311 13.4584 9.50297 13.2091 9.66527C13.0069 9.79951 12.7768 9.89546 12.5189 9.95312V10.4124C12.5189 10.5803 12.4709 10.7202 12.3751 10.8321C12.284 10.944 12.1642 11 12.0156 11C11.8766 11 11.7591 10.944 11.6633 10.8321Z" fill="currentColor"/>
</svg>
