<svg viewBox="0 0 24 24" fill="currentColor" xmlns="http://www.w3.org/2000/svg">
<path d="M12 10C14.2091 10 16 8.20914 16 6C16 3.79086 14.2091 2 12 2C9.79086 2 8 3.79086 8 6C8 8.20914 9.79086 10 12 10Z" fill="currentColor"/>
<path d="M6 12C4.89543 12 4 12.8954 4 14C4 18.4183 7.58172 22 12 22C16.4183 22 20 18.4183 20 14C20 12.8954 19.1046 12 18 12H6ZM10.5 13.5C10.5 13.2239 10.7239 13 11 13H13C13.2761 13 13.5 13.2239 13.5 13.5V17.6667C13.5 17.883 13.4298 18.0936 13.3 18.2667L12.4 19.4667C12.2 19.7333 11.8 19.7333 11.6 19.4667L10.7 18.2667C10.5702 18.0936 10.5 17.883 10.5 17.6667V13.5Z" fill="currentColor"/>
</svg>
