<svg viewBox="0 0 24 24" fill="currentColor" xmlns="http://www.w3.org/2000/svg">
<path d="M13 2C13.0913 2 13.1816 2.00408 13.2708 2.01205C10.4781 3.10357 8.5 5.82077 8.5 9C8.5 13.1421 11.8579 16.5 16 16.5V19C16 20.6569 14.6569 22 13 22H5C3.34315 22 2 20.6569 2 19V5C2 3.34315 3.34315 2 5 2H13ZM6 18.25C5.58579 18.25 5.25 18.5858 5.25 19C5.25 19.4142 5.58579 19.75 6 19.75H12C12.4142 19.75 12.75 19.4142 12.75 19C12.75 18.5858 12.4142 18.25 12 18.25H6Z" fill="currentColor"/>
<path d="M22 9C22 12.3137 19.3137 15 16 15C12.6863 15 10 12.3137 10 9C10 5.68629 12.6863 3 16 3C19.3137 3 22 5.68629 22 9ZM15.9999 13.5C16.16 13.5 16.2893 13.4433 16.3878 13.33C16.4925 13.223 16.5448 13.0908 16.5448 12.9334V12.3383C16.8837 12.2791 17.1854 12.1753 17.4499 12.0268C17.7639 11.8505 18.0102 11.6207 18.1887 11.3374C18.3673 11.0477 18.4565 10.7172 18.4565 10.3458C18.4565 9.87356 18.3149 9.48951 18.0317 9.1936C17.7547 8.89769 17.3237 8.68363 16.7388 8.55142L15.7137 8.32476C15.412 8.25551 15.1996 8.16737 15.0764 8.06034C14.9594 7.95331 14.9009 7.81165 14.9009 7.63536C14.9009 7.39612 14.9995 7.20094 15.1965 7.04984C15.3997 6.89874 15.6829 6.82319 16.0461 6.82319C16.3355 6.82319 16.5787 6.85152 16.7757 6.90819C16.9727 6.96485 17.1544 7.0341 17.3206 7.11595C17.4807 7.1978 17.6192 7.22928 17.7362 7.21039C17.8593 7.1852 17.9578 7.13169 18.0317 7.04984C18.1056 6.9617 18.1518 6.86097 18.1702 6.74764C18.1949 6.63431 18.1826 6.52099 18.1333 6.40766C18.0902 6.29433 18.0102 6.1999 17.8932 6.12434C17.6777 5.96695 17.4222 5.84732 17.1267 5.76548C16.9236 5.70363 16.7297 5.66039 16.5448 5.63574V5.06663C16.5448 4.90923 16.4925 4.77702 16.3878 4.66999C16.2832 4.55666 16.1539 4.5 15.9999 4.5C15.8399 4.5 15.7075 4.55666 15.6028 4.66999C15.4982 4.77702 15.4458 4.90923 15.4458 5.06663V5.66073C15.1038 5.71309 14.7991 5.81411 14.5315 5.9638C14.2114 6.14638 13.9589 6.38562 13.7742 6.68153C13.5957 6.97744 13.5064 7.31427 13.5064 7.69203C13.5064 8.17681 13.6449 8.57345 13.922 8.88195C14.1991 9.18416 14.6208 9.39822 15.1872 9.52414L16.2031 9.75079C16.4125 9.79486 16.5787 9.85152 16.7018 9.92078C16.8311 9.98374 16.9204 10.0593 16.9697 10.1474C17.0251 10.2356 17.0528 10.3363 17.0528 10.4496C17.0528 10.5881 17.0128 10.7109 16.9327 10.8179C16.8588 10.925 16.7357 11.0131 16.5633 11.0824C16.3909 11.1453 16.1631 11.1768 15.8799 11.1768C15.4982 11.1768 15.1749 11.1359 14.9102 11.054C14.6454 10.9659 14.4392 10.8809 14.2914 10.7991C14.1375 10.7172 13.999 10.692 13.8758 10.7235C13.7588 10.755 13.6634 10.8211 13.5895 10.9218C13.5156 11.0163 13.4726 11.1296 13.4602 11.2618C13.4479 11.3877 13.4664 11.5105 13.5156 11.6301C13.5711 11.7497 13.6665 11.8442 13.8019 11.9134C14.0113 12.0268 14.2729 12.1306 14.5869 12.2251C14.8379 12.3005 15.1242 12.3499 15.4458 12.3731V12.9334C15.4458 13.0908 15.4982 13.223 15.6028 13.33C15.7075 13.4433 15.8399 13.5 15.9999 13.5Z" fill="currentColor"/>
</svg>
