<svg viewBox="0 0 24 24" fill="currentColor" xmlns="http://www.w3.org/2000/svg">
<path d="M13 2C13.0913 2 13.1816 2.00408 13.2708 2.01205C10.4781 3.10357 8.5 5.82077 8.5 9C8.5 13.1421 11.8579 16.5 16 16.5V19C16 20.6569 14.6569 22 13 22H5C3.34315 22 2 20.6569 2 19V5C2 3.34315 3.34315 2 5 2H13ZM6 18.25C5.58579 18.25 5.25 18.5858 5.25 19C5.25 19.4142 5.58579 19.75 6 19.75H12C12.4142 19.75 12.75 19.4142 12.75 19C12.75 18.5858 12.4142 18.25 12 18.25H6Z" fill="currentColor"/>
<path d="M16 15C19.3137 15 22 12.3137 22 9C22 5.68629 19.3137 3 16 3C12.6863 3 10 5.68629 10 9C10 12.3137 12.6863 15 16 15ZM13.4555 4.64696C13.5303 4.61356 13.6615 4.56785 13.7471 4.54675C13.8637 4.51686 13.9548 4.50631 14.1207 4.50456C14.3011 4.5028 14.3703 4.51159 14.5125 4.54675C14.6072 4.57136 14.7603 4.62587 14.8496 4.66806C14.9389 4.71025 15.0628 4.77882 15.1229 4.82277C15.183 4.86673 15.2778 4.94936 15.3325 5.00738C15.3871 5.06364 15.4655 5.15682 15.5038 5.21483C15.5439 5.27285 15.6003 5.36955 15.6277 5.43108C15.655 5.49086 15.6969 5.60513 15.717 5.68425C15.7552 5.82314 15.7571 5.8794 15.7698 7.64982H16.5935C17.1201 7.64982 17.4591 7.65686 17.5283 7.66916C17.5884 7.67971 17.6759 7.70784 17.7233 7.7307C17.7725 7.75355 17.8472 7.80805 17.8928 7.85201C17.9383 7.89596 17.9948 7.97332 18.0203 8.0243C18.0458 8.07353 18.075 8.16671 18.0859 8.23C18.1023 8.31615 18.1005 8.36889 18.0841 8.44976C18.0732 8.50778 18.044 8.59569 18.0203 8.64316C17.9966 8.69238 17.9365 8.76798 17.8855 8.81545C17.8344 8.86116 17.7616 8.91039 17.7251 8.92621C17.6868 8.94204 17.6158 8.96841 17.5648 8.98247C17.49 9.00357 17.3187 9.0106 15.7698 9.02115L15.7753 10.1059C15.7808 11.0588 15.7844 11.2047 15.8117 11.2891C15.8281 11.3419 15.8719 11.4456 15.9101 11.5177C15.9502 11.5968 16.0231 11.6952 16.0887 11.7621C16.1488 11.8236 16.2345 11.8974 16.2801 11.9273C16.3256 11.9572 16.4076 12.0029 16.4623 12.0293C16.5169 12.0557 16.6153 12.0908 16.681 12.1066C16.7502 12.1242 16.8686 12.1365 16.9634 12.1383C17.0618 12.1383 17.1748 12.126 17.2459 12.1084C17.3115 12.0908 17.4135 12.0521 17.4736 12.0223C17.532 11.9906 17.6304 11.922 17.6887 11.8693C17.7488 11.8166 17.8199 11.7445 17.9 11.6495L17.7506 11.5757C17.6686 11.5353 17.5538 11.4597 17.4937 11.4087C17.4354 11.3577 17.3461 11.2557 17.2969 11.1836C17.2459 11.108 17.1875 10.992 17.1602 10.9111C17.1238 10.8004 17.1128 10.7336 17.1128 10.5947C17.111 10.4804 17.1219 10.3784 17.142 10.3046C17.1602 10.2413 17.2039 10.1305 17.2422 10.0584C17.2914 9.96174 17.3479 9.8879 17.4554 9.78417C17.5666 9.67517 17.634 9.62594 17.7379 9.57847C17.8126 9.54331 17.9237 9.50112 17.9839 9.48705C18.0458 9.47123 18.1716 9.45892 18.2754 9.45716C18.3829 9.45716 18.5105 9.46947 18.5852 9.48529C18.6563 9.50112 18.782 9.54683 18.8677 9.58727C18.9861 9.64352 19.0554 9.69275 19.1611 9.79472C19.2613 9.89142 19.316 9.96174 19.3652 10.0584C19.4016 10.1305 19.4453 10.2378 19.4599 10.2958C19.48 10.3679 19.4927 10.5243 19.5 10.7793C19.5091 11.1116 19.5055 11.1836 19.4727 11.3682C19.4526 11.4843 19.4052 11.6654 19.3688 11.7726C19.3324 11.8798 19.2595 12.0451 19.2084 12.1418C19.1556 12.2385 19.0699 12.3774 19.0153 12.4495C18.9624 12.5216 18.875 12.6288 18.8239 12.6851C18.7729 12.7431 18.669 12.8398 18.5943 12.9031C18.5196 12.9646 18.4048 13.049 18.3392 13.0912C18.2736 13.1334 18.1461 13.2037 18.0568 13.2459C17.9675 13.2899 17.8272 13.3461 17.747 13.3725C17.6668 13.3971 17.5028 13.4375 17.3825 13.4621C17.2131 13.4938 17.1055 13.5043 16.9033 13.5043C16.6828 13.5043 16.6117 13.4973 16.4131 13.4534C16.2837 13.4252 16.1233 13.3813 16.0523 13.3549C15.983 13.3285 15.8464 13.2688 15.7516 13.2213C15.6568 13.1738 15.5165 13.0894 15.44 13.0332C15.3616 12.9787 15.2596 12.896 15.2122 12.8521C15.163 12.8081 15.0737 12.722 15.0154 12.6587C14.9553 12.5972 14.855 12.4706 14.7931 12.3792C14.7311 12.2877 14.6509 12.1524 14.6163 12.0803C14.5817 12.0082 14.5325 11.8851 14.5052 11.8078C14.4778 11.7304 14.445 11.6003 14.4305 11.5177C14.4159 11.435 14.394 11.2575 14.3831 11.1221C14.3685 10.9727 14.3594 10.512 14.3576 9.01236L13.9658 9.0106C13.6706 9.00884 13.5503 9.00181 13.4738 8.98072C13.4191 8.96489 13.3334 8.92621 13.2842 8.89457C13.235 8.86292 13.1658 8.8049 13.133 8.76623C13.0984 8.72755 13.0546 8.66425 13.0364 8.62558C13.0164 8.5869 12.9909 8.50954 12.9781 8.45328C12.9581 8.37241 12.9581 8.32845 12.9781 8.22473C12.9909 8.15616 13.02 8.05946 13.0437 8.01024C13.0674 7.96277 13.1184 7.89244 13.1567 7.85552C13.1968 7.81684 13.2678 7.76762 13.3189 7.743C13.3681 7.71839 13.4683 7.68674 13.5375 7.67268C13.6268 7.65334 13.7653 7.64631 14.3484 7.64982L14.3594 7.52324C14.3667 7.45291 14.3648 7.07843 14.343 5.9884L14.2828 5.93039C14.23 5.88292 14.2081 5.87413 14.1334 5.87413C14.0806 5.87413 14.0332 5.88643 14.0095 5.90577C13.9876 5.9216 13.9603 5.95324 13.9494 5.97434C13.9384 5.99719 13.9166 6.07983 13.902 6.15894C13.8874 6.23981 13.8528 6.34706 13.8255 6.3998C13.7963 6.45079 13.7362 6.52815 13.687 6.57034C13.6396 6.61253 13.5539 6.66879 13.4974 6.69517C13.4154 6.73384 13.3571 6.74615 13.2369 6.75143C13.1275 6.75494 13.0546 6.74967 12.9909 6.72857C12.9417 6.71451 12.8597 6.67583 12.8105 6.64418C12.7594 6.61254 12.6902 6.551 12.6537 6.50705C12.6173 6.46309 12.5699 6.38046 12.5462 6.32245C12.5116 6.2363 12.5043 6.18355 12.5043 6.04115C12.5043 5.9216 12.5171 5.81435 12.5426 5.70711C12.5644 5.6192 12.61 5.49437 12.6428 5.42581C12.6756 5.35724 12.7376 5.25175 12.7813 5.18846C12.8269 5.12517 12.9107 5.02672 12.9726 4.9687C13.0328 4.90892 13.1348 4.82805 13.2004 4.7841C13.266 4.7419 13.3808 4.68037 13.4555 4.64696Z" fill="currentColor"/>
</svg>
