<svg viewBox="0 0 24 24" fill="currentColor" xmlns="http://www.w3.org/2000/svg">
<path d="M3 10.9696C3 6.01585 7.02944 2 12 2C16.9706 2 21 6.01585 21 10.9696C21 16.3296 15.929 20.2049 12.7799 21.8117C12.2877 22.0628 11.7123 22.0628 11.2201 21.8117C8.07101 20.2049 3 16.3296 3 10.9696ZM11.5048 17.393C11.6513 17.5582 11.8367 17.6408 12.0608 17.6408C12.2849 17.6408 12.4659 17.5582 12.6038 17.393C12.7503 17.237 12.8236 17.0443 12.8236 16.8149V15.9475C13.298 15.8613 13.7203 15.7099 14.0907 15.4935C14.5303 15.2365 14.8751 14.9016 15.125 14.4886C15.375 14.0665 15.5 13.5847 15.5 13.0433C15.5 12.355 15.3017 11.7953 14.9052 11.3639C14.5174 10.9326 13.914 10.6206 13.0951 10.4279L11.66 10.0976C11.2376 9.99662 10.9402 9.86814 10.7678 9.71214C10.6041 9.55614 10.5222 9.34966 10.5222 9.09271C10.5222 8.744 10.6601 8.45952 10.9359 8.23928C11.2204 8.01904 11.6169 7.90892 12.1254 7.90892C12.5305 7.90892 12.871 7.95021 13.1468 8.0328C13.4227 8.11539 13.6769 8.21634 13.9097 8.33563C14.1338 8.45493 14.3277 8.50081 14.4915 8.47328C14.6639 8.43658 14.8018 8.35858 14.9052 8.23928C15.0087 8.1108 15.0733 7.96398 15.0992 7.7988C15.1337 7.63362 15.1164 7.46844 15.0475 7.30325C14.9871 7.13807 14.8751 7.00042 14.7113 6.8903C14.4096 6.66089 14.0519 6.48653 13.6382 6.36723C13.3539 6.27709 13.0824 6.21405 12.8236 6.17812V5.34862C12.8236 5.1192 12.7503 4.92649 12.6038 4.77048C12.4573 4.6053 12.2763 4.52271 12.0608 4.52271C11.8367 4.52271 11.6513 4.6053 11.5048 4.77048C11.3583 4.92649 11.285 5.1192 11.285 5.34862V6.21456C10.8062 6.29087 10.3795 6.43812 10.005 6.6563C9.55677 6.92242 9.20336 7.27114 8.94477 7.70244C8.6948 8.13375 8.56982 8.6247 8.56982 9.1753C8.56982 9.88191 8.76376 10.46 9.15164 10.9097C9.53953 11.3502 10.13 11.6622 10.923 11.8457L12.3452 12.1761C12.6383 12.2403 12.871 12.3229 13.0434 12.4239C13.2244 12.5156 13.3494 12.6257 13.4184 12.7542C13.4959 12.8827 13.5347 13.0295 13.5347 13.1947C13.5347 13.3966 13.4787 13.5755 13.3666 13.7315C13.2632 13.8875 13.0908 14.016 12.8495 14.117C12.6081 14.2087 12.2892 14.2546 11.8927 14.2546C11.3583 14.2546 10.9057 14.195 10.5351 14.0757C10.1645 13.9472 9.87569 13.8233 9.66882 13.704C9.45333 13.5847 9.25939 13.548 9.087 13.5939C8.92322 13.6398 8.78962 13.7361 8.68618 13.883C8.58275 14.0206 8.52241 14.1858 8.50517 14.3785C8.48793 14.562 8.51379 14.741 8.58275 14.9153C8.66033 15.0897 8.79393 15.2273 8.98356 15.3283C9.27663 15.4935 9.64296 15.6449 10.0826 15.7825C10.4338 15.8925 10.8347 15.9644 11.285 15.9983V16.8149C11.285 17.0443 11.3583 17.237 11.5048 17.393Z" fill="currentColor"/>
</svg>
