<svg viewBox="0 0 24 24" fill="currentColor" xmlns="http://www.w3.org/2000/svg">
<path d="M4 5H7.5V8.29076C6.03408 8.88415 5 10.3213 5 12C5 13.6787 6.03408 15.1159 7.5 15.7092V19H4C2.89543 19 2 18.1046 2 17V7C2 5.89543 2.89543 5 4 5Z" fill="currentColor"/>
<path d="M15 19H9V5H15V19Z" fill="currentColor"/>
<path d="M19 12C19 13.6787 17.9659 15.1159 16.5 15.7092V19H20C21.1046 19 22 18.1046 22 17V7C22 5.89543 21.1046 5 20 5H16.5V8.29076C17.9659 8.88415 19 10.3213 19 12Z" fill="currentColor"/>
</svg>
