<svg viewBox="0 0 24 24" fill="currentColor" xmlns="http://www.w3.org/2000/svg">
<path d="M7 4.3079C7 3.97675 7.19415 3.68276 7.48199 3.57805L11.6486 2.06223C11.8767 1.97926 12.1233 1.97926 12.3514 2.06223L16.518 3.57805C16.8058 3.68276 17 3.97675 17 4.3079V6.40897C17 9.74285 15.1247 12.7348 12.2777 13.9431C12.0991 14.019 11.9009 14.019 11.7223 13.9431C8.87529 12.7348 7 9.74285 7 6.40897V4.3079ZM12.0347 11C12.1628 11 12.2662 10.9559 12.345 10.8678C12.4288 10.7845 12.4706 10.6817 12.4706 10.5593V10.0964C12.7417 10.0504 12.983 9.96966 13.1947 9.85415C13.4459 9.71703 13.6429 9.5383 13.7857 9.31794C13.9286 9.09269 14 8.83561 14 8.54669C14 8.17943 13.8867 7.88073 13.6601 7.65058C13.4385 7.42043 13.0937 7.25394 12.6258 7.1511L11.8057 6.97482C11.5643 6.92095 11.3944 6.8524 11.2959 6.76915C11.2023 6.6859 11.1555 6.57573 11.1555 6.43861C11.1555 6.25254 11.2343 6.10073 11.3919 5.98321C11.5545 5.86569 11.7811 5.80693 12.0717 5.80693C12.3032 5.80693 12.4977 5.82896 12.6553 5.87303C12.813 5.9171 12.9583 5.97097 13.0912 6.03463C13.2193 6.09829 13.3301 6.12277 13.4237 6.10808C13.5222 6.08849 13.601 6.04687 13.6601 5.98321C13.7192 5.91466 13.7562 5.83631 13.771 5.74816C13.7907 5.66002 13.7808 5.57188 13.7414 5.48374C13.7069 5.39559 13.6429 5.32214 13.5493 5.26338C13.3769 5.14096 13.1725 5.04792 12.9361 4.98426C12.7737 4.93616 12.6185 4.90252 12.4706 4.88335V4.44071C12.4706 4.31829 12.4288 4.21546 12.345 4.13221C12.2613 4.04407 12.1579 4 12.0347 4C11.9067 4 11.8008 4.04407 11.717 4.13221C11.6333 4.21546 11.5914 4.31829 11.5914 4.44071V4.90279C11.3178 4.94352 11.074 5.02209 10.86 5.13851C10.6039 5.28052 10.4019 5.4666 10.2542 5.69675C10.1113 5.9269 10.0399 6.18888 10.0399 6.48269C10.0399 6.85974 10.1507 7.16824 10.3724 7.40819C10.594 7.64323 10.9314 7.80972 11.3846 7.90766L12.1973 8.08395C12.3647 8.11822 12.4977 8.16229 12.5962 8.21616C12.6997 8.26513 12.7711 8.32389 12.8105 8.39245C12.8548 8.461 12.877 8.53935 12.877 8.62749C12.877 8.73522 12.845 8.83071 12.7809 8.91396C12.7218 8.9972 12.6233 9.06576 12.4854 9.11962C12.3475 9.16859 12.1653 9.19308 11.9387 9.19308C11.6333 9.19308 11.3747 9.16125 11.1629 9.09759C10.9511 9.02903 10.7861 8.96292 10.6679 8.89927C10.5448 8.83561 10.4339 8.81602 10.3354 8.8405C10.2418 8.86499 10.1655 8.9164 10.1064 8.99475C10.0473 9.0682 10.0128 9.15635 10.003 9.25918C9.9931 9.35712 10.0079 9.45261 10.0473 9.54565C10.0916 9.63869 10.168 9.71214 10.2763 9.766C10.4438 9.85415 10.6531 9.93494 10.9043 10.0084C11.1051 10.0671 11.3341 10.1055 11.5914 10.1235V10.5593C11.5914 10.6817 11.6333 10.7845 11.717 10.8678C11.8008 10.9559 11.9067 11 12.0347 11Z" fill="currentColor"/>
<path d="M22 10.25V9C22 7.89543 21.1046 7 20 7H18.75C18.75 8.79493 20.2051 10.25 22 10.25Z" fill="currentColor"/>
<path d="M5.99743 9.56683C5.15237 10.8801 3.67777 11.75 2 11.75V16.25C4.62335 16.25 6.75 18.3766 6.75 21H17.25C17.25 18.3766 19.3766 16.25 22 16.25V11.75C20.3222 11.75 18.8476 10.8801 18.0026 9.56683C17.1723 12.1275 15.347 14.27 12.8638 15.3239C12.3106 15.5587 11.6894 15.5587 11.1362 15.3239C8.65302 14.27 6.82772 12.1275 5.99743 9.56683Z" fill="currentColor"/>
<path d="M22 17.75C20.2051 17.75 18.75 19.2051 18.75 21H20C21.1046 21 22 20.1046 22 19V17.75Z" fill="currentColor"/>
<path d="M2 19V17.75C3.79493 17.75 5.25 19.2051 5.25 21H4C2.89543 21 2 20.1046 2 19Z" fill="currentColor"/>
<path d="M4 7H5.25C5.25 8.79493 3.79493 10.25 2 10.25V9C2 7.89543 2.89543 7 4 7Z" fill="currentColor"/>
</svg>
