<svg viewBox="0 0 24 24" fill="currentColor" xmlns="http://www.w3.org/2000/svg">
<path d="M3.86759 4.71102C3.34947 4.88372 3 5.36859 3 5.91473V9.37997C3 14.8784 6.37552 19.8129 11.5001 21.8058C11.8216 21.9309 12.1784 21.9309 12.4999 21.8058C17.6245 19.8129 21 14.8784 21 9.37997V5.91473C21 5.36859 20.6505 4.88372 20.1324 4.71102L12.6325 2.21103C12.2219 2.07419 11.7781 2.07419 11.3675 2.21103L3.86759 4.71102ZM11.5757 17.7736C11.4501 17.6309 11.3873 17.4546 11.3873 17.2447V16.4977C11.0013 16.4667 10.6577 16.4009 10.3566 16.3003C9.97984 16.1744 9.66584 16.0359 9.41464 15.8848C9.2521 15.7924 9.13758 15.6665 9.07109 15.507C9.01198 15.3475 8.98982 15.1838 9.00459 15.016C9.01937 14.8397 9.07109 14.6886 9.15975 14.5626C9.2484 14.4283 9.36292 14.3402 9.5033 14.2982C9.65106 14.2562 9.8173 14.2898 10.002 14.399C10.1793 14.5081 10.4268 14.6214 10.7445 14.7389C11.0622 14.8481 11.4501 14.9026 11.9082 14.9026C12.248 14.9026 12.5214 14.8607 12.7283 14.7767C12.9351 14.6844 13.0829 14.5668 13.1716 14.4241C13.2676 14.2814 13.3156 14.1177 13.3156 13.9331C13.3156 13.782 13.2824 13.6476 13.2159 13.5301C13.1568 13.4126 13.0497 13.3119 12.8945 13.2279C12.7467 13.1356 12.5473 13.06 12.2961 13.0013L11.077 12.6991C10.3973 12.5312 9.89118 12.2458 9.55871 11.8428C9.22624 11.4315 9.06 10.9026 9.06 10.2562C9.06 9.75257 9.16713 9.30347 9.38139 8.90892C9.60304 8.51438 9.90596 8.19539 10.2901 7.95195C10.6112 7.75237 10.9769 7.61767 11.3873 7.54786V6.75572C11.3873 6.54586 11.4501 6.36957 11.5757 6.22687C11.7013 6.07576 11.8602 6.00021 12.0522 6.00021C12.237 6.00021 12.3921 6.07576 12.5177 6.22687C12.6433 6.36957 12.7061 6.54586 12.7061 6.75572V7.51453C12.9279 7.5474 13.1607 7.60506 13.4043 7.68752C13.7589 7.79665 14.0655 7.95614 14.3241 8.16601C14.4645 8.26674 14.5606 8.39266 14.6123 8.54376C14.6714 8.69486 14.6862 8.84596 14.6566 8.99707C14.6344 9.14817 14.579 9.28248 14.4904 9.4C14.4017 9.50913 14.2835 9.58049 14.1357 9.61406C13.9954 9.63925 13.8291 9.59728 13.637 9.48815C13.4375 9.37902 13.2196 9.28668 12.9832 9.21113C12.7467 9.13558 12.4549 9.0978 12.1077 9.0978C11.6718 9.0978 11.3319 9.19853 11.0881 9.4C10.8517 9.60147 10.7334 9.8617 10.7334 10.1807C10.7334 10.4157 10.8036 10.6046 10.944 10.7473C11.0918 10.89 11.3467 11.0076 11.7087 11.0999L12.9388 11.4021C13.6407 11.5784 14.1579 11.8638 14.4904 12.2583C14.8302 12.6529 15.0002 13.165 15.0002 13.7945C15.0002 14.2898 14.893 14.7305 14.6788 15.1167C14.4645 15.4944 14.169 15.8008 13.7922 16.0359C13.4747 16.2339 13.1127 16.3724 12.7061 16.4512V17.2447C12.7061 17.4546 12.6433 17.6309 12.5177 17.7736C12.3995 17.9247 12.2443 18.0002 12.0522 18.0002C11.8602 18.0002 11.7013 17.9247 11.5757 17.7736Z" fill="currentColor"/>
</svg>
