<svg viewBox="0 0 24 24" fill="currentColor" xmlns="http://www.w3.org/2000/svg">
<path d="M7 17.5V22C7 22.5523 7.44772 23 8 23H9.25V17.5H7Z" fill="currentColor"/>
<path d="M10.75 17.5V23H16C16.5523 23 17 22.5523 17 22V17.5H10.75Z" fill="currentColor"/>
<path d="M7 2C5.89543 2 5 2.89543 5 4V14C5 15.1046 5.89543 16 7 16H17C18.1046 16 19 15.1046 19 14V4C19 2.89543 18.1046 2 17 2H7ZM9 4H15C15.5523 4 16 4.44772 16 5V7C16 7.55228 15.5523 8 15 8H9C8.44772 8 8 7.55228 8 7V5C8 4.44772 8.44772 4 9 4ZM10 10C10 10.5523 9.55228 11 9 11C8.44772 11 8 10.5523 8 10C8 9.44772 8.44772 9 9 9C9.55228 9 10 9.44772 10 10ZM9 14C8.44772 14 8 13.5523 8 13C8 12.4477 8.44772 12 9 12C9.55228 12 10 12.4477 10 13C10 13.5523 9.55228 14 9 14ZM13 10C13 10.5523 12.5523 11 12 11C11.4477 11 11 10.5523 11 10C11 9.44772 11.4477 9 12 9C12.5523 9 13 9.44772 13 10ZM12 14C11.4477 14 11 13.5523 11 13C11 12.4477 11.4477 12 12 12C12.5523 12 13 12.4477 13 13C13 13.5523 12.5523 14 12 14ZM16 10C16 10.5523 15.5523 11 15 11C14.4477 11 14 10.5523 14 10C14 9.44772 14.4477 9 15 9C15.5523 9 16 9.44772 16 10ZM15 14C14.4477 14 14 13.5523 14 13C14 12.4477 14.4477 12 15 12C15.5523 12 16 12.4477 16 13C16 13.5523 15.5523 14 15 14Z" fill="currentColor"/>
</svg>
