<svg viewBox="0 0 24 24" fill="currentColor" xmlns="http://www.w3.org/2000/svg">
<path d="M17 12C19.7614 12 22 9.76142 22 7C22 4.23858 19.7614 2 17 2C14.2386 2 12 4.23858 12 7C12 9.76142 14.2386 12 17 12ZM16.717 10.3678C16.6333 10.2845 16.5914 10.1817 16.5914 10.0593V9.62351C16.3341 9.60546 16.1051 9.56709 15.9043 9.50839C15.6531 9.43494 15.4438 9.35415 15.2763 9.266C15.168 9.21214 15.0916 9.13869 15.0473 9.04565C15.0079 8.95261 14.9931 8.85712 15.003 8.75918C15.0128 8.65635 15.0473 8.56821 15.1064 8.49475C15.1655 8.4164 15.2418 8.36499 15.3354 8.3405C15.4339 8.31602 15.5448 8.33561 15.6679 8.39927C15.7861 8.46292 15.9511 8.52903 16.1629 8.59759C16.3747 8.66125 16.6333 8.69308 16.9387 8.69308C17.1653 8.69308 17.3475 8.66859 17.4854 8.61962C17.6233 8.56576 17.7218 8.4972 17.7809 8.41396C17.845 8.33071 17.877 8.23522 17.877 8.12749C17.877 8.03935 17.8548 7.961 17.8105 7.89245C17.7711 7.82389 17.6997 7.76513 17.5962 7.71616C17.4977 7.66229 17.3647 7.61822 17.1973 7.58395L16.3846 7.40766C15.9314 7.30972 15.594 7.14323 15.3724 6.90819C15.1507 6.66824 15.0399 6.35974 15.0399 5.98269C15.0399 5.68888 15.1113 5.4269 15.2542 5.19675C15.4019 4.9666 15.6039 4.78052 15.86 4.63851C16.074 4.52209 16.3178 4.44352 16.5914 4.40279V3.94071C16.5914 3.81829 16.6333 3.71546 16.717 3.63221C16.8008 3.54407 16.9067 3.5 17.0347 3.5C17.1579 3.5 17.2613 3.54407 17.345 3.63221C17.4288 3.71546 17.4706 3.81829 17.4706 3.94071V4.38335C17.6185 4.40252 17.7737 4.43616 17.9361 4.48426C18.1725 4.54792 18.3769 4.64096 18.5493 4.76338C18.6429 4.82214 18.7069 4.89559 18.7414 4.98374C18.7808 5.07188 18.7907 5.16002 18.771 5.24816C18.7562 5.33631 18.7192 5.41466 18.6601 5.48321C18.601 5.54687 18.5222 5.58849 18.4237 5.60808C18.3301 5.62277 18.2193 5.59829 18.0912 5.53463C17.9583 5.47097 17.813 5.4171 17.6553 5.37303C17.4977 5.32896 17.3032 5.30693 17.0717 5.30693C16.7811 5.30693 16.5545 5.36569 16.3919 5.48321C16.2343 5.60073 16.1555 5.75254 16.1555 5.93862C16.1555 6.07573 16.2023 6.1859 16.2959 6.26915C16.3944 6.3524 16.5643 6.42095 16.8057 6.47482L17.6258 6.6511C18.0937 6.75394 18.4385 6.92043 18.6601 7.15058C18.8867 7.38073 19 7.67943 19 8.04669C19 8.33561 18.9286 8.59269 18.7857 8.81794C18.6429 9.0383 18.4459 9.21703 18.1947 9.35415C17.983 9.46966 17.7417 9.55042 17.4706 9.59642V10.0593C17.4706 10.1817 17.4288 10.2845 17.345 10.3678C17.2662 10.4559 17.1628 10.5 17.0347 10.5C16.9067 10.5 16.8008 10.4559 16.717 10.3678Z" fill="currentColor"/>
<path d="M18.5578 15.4796L17.0721 14.551C16.1862 13.9973 15.0224 14.2284 14.4152 15.0785C13.948 15.7325 13.2274 16.1967 12.4506 15.99C11.7333 15.7991 10.7649 15.3426 9.71116 14.2888C8.65743 13.2351 8.20087 12.2667 8.00997 11.5494C7.80326 10.7726 8.26746 10.052 8.9215 9.58479C9.77162 8.97756 10.0027 7.81377 9.44896 6.92785L8.52045 5.44223C7.59347 3.95907 5.616 3.54986 4.17653 4.5433L3.65012 4.9066C2.68099 5.57544 1.95708 6.57013 2.00198 7.7468C2.07885 9.76118 2.89449 13.2567 6.81887 17.1811C10.7433 21.1055 14.2388 21.9211 16.2532 21.998C17.4299 22.0429 18.4246 21.319 19.0934 20.3499L19.4567 19.8235C20.4501 18.384 20.0409 16.4065 18.5578 15.4796Z" fill="currentColor"/>
</svg>
