<svg viewBox="0 0 24 24" fill="currentColor" xmlns="http://www.w3.org/2000/svg">
<path d="M13.1429 10.3249H9.89282V7.24724C9.89282 7.14881 9.8929 7.09229 9.89421 7.0502C9.89475 7.03265 9.89541 7.02265 9.89577 7.01809C9.90886 6.96022 9.98968 6.8292 10.2099 6.79841C10.2346 6.79496 10.2768 6.79315 10.5143 6.79315H13.1429C14.4038 6.79315 15.25 7.67554 15.25 8.55905C15.25 9.44256 14.4038 10.3249 13.1429 10.3249Z" fill="currentColor"/>
<path d="M3 10.9696C3 6.01585 7.02944 2 12 2C16.9706 2 21 6.01585 21 10.9696C21 16.3296 15.929 20.2049 12.7799 21.8117C12.2877 22.0628 11.7123 22.0628 11.2201 21.8117C8.07101 20.2049 3 16.3296 3 10.9696ZM10.4737 5.27951C10.3024 5.27939 10.1458 5.27927 10.004 5.29911C9.25172 5.40431 8.56389 5.94461 8.41892 6.75277C8.39231 6.9011 8.39258 7.06253 8.39281 7.20733L8.39286 7.24724V10.3249H8C7.58579 10.3249 7.25 10.6638 7.25 11.0818C7.25 11.4997 7.58579 11.8386 8 11.8386H8.39286V12.8477H8C7.58579 12.8477 7.25 13.1865 7.25 13.6045C7.25 14.0225 7.58579 14.3613 8 14.3613H8.39286V16.1272C8.39286 16.5452 8.72864 16.884 9.14286 16.884C9.55707 16.884 9.89286 16.5452 9.89286 16.1272V14.3613H12C12.4142 14.3613 12.75 14.0225 12.75 13.6045C12.75 13.1865 12.4142 12.8477 12 12.8477H9.89286V11.8386H13.1429C15.0378 11.8386 16.75 10.462 16.75 8.55905C16.75 6.65605 15.0378 5.27953 13.1429 5.27953L10.4737 5.27951Z" fill="currentColor"/>
</svg>
