<svg viewBox="0 0 24 24" fill="currentColor" xmlns="http://www.w3.org/2000/svg">
<path d="M3 10.9696C3 6.01585 7.02944 2 12 2C16.9706 2 21 6.01585 21 10.9696C21 16.3296 15.929 20.2049 12.7799 21.8117C12.2877 22.0628 11.7123 22.0628 11.2201 21.8117C8.07101 20.2049 3 16.3296 3 10.9696ZM8.55 10.5772C8.55 10.4498 8.55686 10.3235 8.57029 10.1988H11C11.4142 10.1988 11.75 9.85998 11.75 9.442C11.75 9.02402 11.4142 8.68519 11 8.68519H9.09405C9.78703 7.5652 11.079 6.79315 12.6 6.79315C13.3481 6.79315 14.0451 6.98219 14.6425 7.30911C15.0066 7.50837 15.4618 7.37204 15.6593 7.00462C15.8568 6.6372 15.7217 6.17781 15.3575 5.97855C14.5429 5.53274 13.6005 5.27953 12.6 5.27953C10.2618 5.27953 8.21614 6.67527 7.41257 8.68519H7C6.58579 8.68519 6.25 9.02402 6.25 9.442C6.25 9.85998 6.58579 10.1988 7 10.1988H7.06379C7.05465 10.3237 7.05 10.4499 7.05 10.5772C7.05 10.7046 7.05465 10.8308 7.06379 10.9556H7C6.58579 10.9556 6.25 11.2945 6.25 11.7124C6.25 12.1304 6.58579 12.4693 7 12.4693H7.41257C8.21614 14.4792 10.2618 15.8749 12.6 15.8749C13.6005 15.8749 14.5429 15.6217 15.3575 15.1759C15.7217 14.9766 15.8568 14.5172 15.6593 14.1498C15.4618 13.7824 15.0066 13.6461 14.6425 13.8453C14.0451 14.1722 13.3481 14.3613 12.6 14.3613C11.079 14.3613 9.78703 13.5892 9.09405 12.4693H11C11.4142 12.4693 11.75 12.1304 11.75 11.7124C11.75 11.2945 11.4142 10.9556 11 10.9556H8.57029C8.55686 10.8309 8.55 10.7047 8.55 10.5772Z" fill="currentColor"/>
</svg>
