<svg viewBox="0 0 24 24" fill="currentColor" xmlns="http://www.w3.org/2000/svg">
<path d="M19 10.5C19 11.556 18.8074 12.5671 18.4554 13.5H16.1618C14.9191 13.5 13.9118 14.5074 13.9118 15.75C13.9118 16.0586 13.9739 16.3526 14.0863 16.6203C12.7948 15.7558 11.032 15.9002 9.89795 17.0537L9.85546 17.0969L8.40547 18.74C4.72391 17.807 2 14.4716 2 10.5C2 5.80558 5.80558 2 10.5 2C15.1944 2 19 5.80558 19 10.5ZM10.8125 4.25C9.17907 4.25 7.875 5.59189 7.875 7.22222V8.69444H6C5.58579 8.69444 5.25 9.03023 5.25 9.44444C5.25 9.85866 5.58579 10.1944 6 10.1944H7.875V10.3333C7.875 11.4031 7.02444 12.25 6 12.25C5.58579 12.25 5.25 12.5858 5.25 13C5.25 13.4142 5.58579 13.75 6 13.75H13C13.4142 13.75 13.75 13.4142 13.75 13C13.75 12.5858 13.4142 12.25 13 12.25H8.79399C9.16115 11.7021 9.375 11.0416 9.375 10.3333V10.1944H12.125C12.5392 10.1944 12.875 9.85866 12.875 9.44444C12.875 9.03023 12.5392 8.69444 12.125 8.69444H9.375V7.22222C9.375 6.39796 10.0297 5.75 10.8125 5.75C11.5953 5.75 12.25 6.39796 12.25 7.22222C12.25 7.63644 12.5858 7.97222 13 7.97222C13.4142 7.97222 13.75 7.63644 13.75 7.22222C13.75 5.59189 12.4459 4.25 10.8125 4.25Z" fill="currentColor"/>
<path d="M16.1618 15C15.7476 15 15.4118 15.3358 15.4118 15.75C15.4118 16.1642 15.7476 16.5 16.1618 16.5H18.949L15.6583 19.8159L15.6558 19.8184C15.5349 19.9413 15.3443 19.9413 15.2234 19.8184L13.5392 18.1053C12.8305 17.3846 11.6762 17.3846 10.9675 18.1053L10.9534 18.1197L8.18767 21.2537C7.91359 21.5643 7.94318 22.0383 8.25375 22.3123C8.56432 22.5864 9.03827 22.5568 9.31235 22.2463L12.0474 19.147C12.1686 19.0341 12.3521 19.0374 12.4696 19.157L14.1538 20.87C14.862 21.5903 16.0152 21.5908 16.7239 20.8715L16.7254 20.87L20 17.5704V20.3442C20 20.7584 20.3358 21.0942 20.75 21.0942C21.1642 21.0942 21.5 20.7584 21.5 20.3442V15.75C21.5 15.3358 21.1642 15 20.75 15H16.1618Z" fill="currentColor"/>
</svg>
