<svg viewBox="0 0 24 24" fill="currentColor" xmlns="http://www.w3.org/2000/svg">
<path d="M9.41177 21.75C9.41177 22.1642 9.74756 22.5 10.1618 22.5H14.75C15.1642 22.5 15.5 22.1642 15.5 21.75V17.1558C15.5 16.7416 15.1642 16.4058 14.75 16.4058C14.3358 16.4058 14 16.7416 14 17.1558V19.9296L10.7254 16.63L10.7239 16.6285C10.0152 15.9092 8.86196 15.9097 8.15379 16.63L6.46956 18.343C6.35205 18.4626 6.16863 18.4659 6.04744 18.353L3.31235 15.2537C3.03827 14.9432 2.56432 14.9136 2.25375 15.1877C1.94318 15.4617 1.91359 15.9357 2.18767 16.2463L4.95338 19.3803L4.96755 19.3947C5.6762 20.1154 6.83051 20.1154 7.53917 19.3947L9.2234 17.6816C9.34429 17.5587 9.53492 17.5587 9.6558 17.6816L9.65826 17.6841L12.949 21H10.1618C9.74756 21 9.41177 21.3358 9.41177 21.75Z" fill="currentColor"/>
<path d="M6.85968 15.8067L7.0842 15.5784C8.37966 14.2608 10.4957 14.26 11.7924 15.5757L12.625 16.4146C12.9314 15.5361 13.7671 14.9058 14.75 14.9058C15.9927 14.9058 17 15.9132 17 17.1558V18.2482C19.9485 16.9143 22 13.9467 22 10.5C22 5.80558 18.1944 2 13.5 2C8.80558 2 5 5.80558 5 10.5C5 12.5075 5.69592 14.3524 6.85968 15.8067ZM11.875 7.22222C11.875 5.59189 13.1791 4.25 14.8125 4.25C16.4459 4.25 17.75 5.59189 17.75 7.22222C17.75 7.63644 17.4142 7.97222 17 7.97222C16.5858 7.97222 16.25 7.63644 16.25 7.22222C16.25 6.39796 15.5953 5.75 14.8125 5.75C14.0297 5.75 13.375 6.39796 13.375 7.22222V8.69444H16.125C16.5392 8.69444 16.875 9.03023 16.875 9.44444C16.875 9.85866 16.5392 10.1944 16.125 10.1944H13.375V10.3333C13.375 11.0416 13.1611 11.7021 12.794 12.25H17C17.4142 12.25 17.75 12.5858 17.75 13C17.75 13.4142 17.4142 13.75 17 13.75H10C9.58579 13.75 9.25 13.4142 9.25 13C9.25 12.5858 9.58579 12.25 10 12.25C11.0244 12.25 11.875 11.4031 11.875 10.3333V10.1944H10C9.58579 10.1944 9.25 9.85866 9.25 9.44444C9.25 9.03023 9.58579 8.69444 10 8.69444H11.875V7.22222Z" fill="currentColor"/>
</svg>
