<svg viewBox="0 0 24 24" fill="currentColor" xmlns="http://www.w3.org/2000/svg">
<path d="M12 22C17.5228 22 22 17.5228 22 12C22 6.47715 17.5228 2 12 2C6.47715 2 2 6.47715 2 12C2 17.5228 6.47715 22 12 22ZM13.5 6.25C15.2949 6.25 16.75 7.70507 16.75 9.5C16.75 9.91421 16.4142 10.25 16 10.25C15.5858 10.25 15.25 9.91421 15.25 9.5C15.25 8.5335 14.4665 7.75 13.5 7.75C12.5335 7.75 11.75 8.5335 11.75 9.5V11.25H15C15.4142 11.25 15.75 11.5858 15.75 12C15.75 12.4142 15.4142 12.75 15 12.75H11.75V13C11.75 13.8442 11.471 14.6233 11.0003 15.25H16C16.4142 15.25 16.75 15.5858 16.75 16C16.75 16.4142 16.4142 16.75 16 16.75H8C7.58579 16.75 7.25 16.4142 7.25 16C7.25 15.5858 7.58579 15.25 8 15.25C9.24264 15.25 10.25 14.2426 10.25 13V12.75H8C7.58579 12.75 7.25 12.4142 7.25 12C7.25 11.5858 7.58579 11.25 8 11.25H10.25V9.5C10.25 7.70507 11.7051 6.25 13.5 6.25Z" fill="currentColor"/>
</svg>
