<svg viewBox="0 0 24 24" fill="currentColor" xmlns="http://www.w3.org/2000/svg">
<path d="M4 5C2.89543 5 2 5.89543 2 7V17C2 18.1046 2.89543 19 4 19H20C21.1046 19 22 18.1046 22 17V7C22 5.89543 21.1046 5 20 5H4ZM13.3125 7.25C14.9459 7.25 16.25 8.59189 16.25 10.2222C16.25 10.6364 15.9142 10.9722 15.5 10.9722C15.0858 10.9722 14.75 10.6364 14.75 10.2222C14.75 9.39796 14.0953 8.75 13.3125 8.75C12.5297 8.75 11.875 9.39796 11.875 10.2222V11.6944H14.625C15.0392 11.6944 15.375 12.0302 15.375 12.4444C15.375 12.8587 15.0392 13.1944 14.625 13.1944H11.875V13.3333C11.875 14.0416 11.6611 14.7021 11.294 15.25H15.5C15.9142 15.25 16.25 15.5858 16.25 16C16.25 16.4142 15.9142 16.75 15.5 16.75H8.5C8.08579 16.75 7.75 16.4142 7.75 16C7.75 15.5858 8.08579 15.25 8.5 15.25C9.52444 15.25 10.375 14.4031 10.375 13.3333V13.1944H8.5C8.08579 13.1944 7.75 12.8587 7.75 12.4444C7.75 12.0302 8.08579 11.6944 8.5 11.6944H10.375V10.2222C10.375 8.59189 11.6791 7.25 13.3125 7.25ZM4.25 8C4.25 7.58579 4.58579 7.25 5 7.25H6C6.41421 7.25 6.75 7.58579 6.75 8C6.75 8.41421 6.41421 8.75 6 8.75H5C4.58579 8.75 4.25 8.41421 4.25 8ZM18 15.25H19C19.4142 15.25 19.75 15.5858 19.75 16C19.75 16.4142 19.4142 16.75 19 16.75H18C17.5858 16.75 17.25 16.4142 17.25 16C17.25 15.5858 17.5858 15.25 18 15.25Z" fill="currentColor"/>
</svg>
