<svg viewBox="0 0 24 24" fill="currentColor" xmlns="http://www.w3.org/2000/svg">
<path d="M4.88271 12.0239V11.6227C4.4967 11.5943 4.15314 11.534 3.85205 11.4418C3.47525 11.3263 3.16125 11.1994 2.91005 11.0609C2.74751 10.9762 2.63299 10.8608 2.56649 10.7146C2.50739 10.5684 2.48522 10.4183 2.5 10.2644C2.51478 10.1028 2.56649 9.96432 2.65515 9.8489C2.74381 9.72578 2.85833 9.64498 2.99871 9.60651C3.14647 9.56803 3.31271 9.59881 3.49741 9.69885C3.67473 9.79888 3.92224 9.90276 4.23993 10.0105C4.55763 10.1105 4.94551 10.1605 5.40358 10.1605C5.74344 10.1605 6.01681 10.1221 6.22368 10.0451C6.43055 9.96048 6.57832 9.85275 6.66697 9.72193C6.76302 9.59112 6.81105 9.44106 6.81105 9.27177C6.81105 9.13326 6.7778 9.01014 6.7113 8.90241C6.6522 8.79468 6.54507 8.70234 6.38991 8.62539C6.24215 8.54075 6.04267 8.47149 5.79147 8.41763L4.5724 8.14061C3.89269 7.98671 3.38659 7.72508 3.05412 7.35572C2.72165 6.97866 2.55541 6.49388 2.55541 5.90136C2.55541 5.43966 2.66254 5.02798 2.8768 4.66632C3.09845 4.30465 3.40137 4.01224 3.78556 3.78909C4.10658 3.60614 4.4723 3.48267 4.88271 3.41867V2.69255C4.88271 2.50018 4.94551 2.33858 5.07111 2.20777C5.19671 2.06926 5.35556 2 5.54765 2C5.73236 2 5.88751 2.06926 6.01311 2.20777C6.13871 2.33858 6.20151 2.50018 6.20151 2.69255V3.38812C6.42333 3.41825 6.65606 3.47111 6.8997 3.54669C7.25434 3.64673 7.56095 3.79293 7.81954 3.98531C7.95992 4.07765 8.05596 4.19307 8.10768 4.33158C8.16679 4.47009 8.18157 4.6086 8.15201 4.74711C8.12985 4.88562 8.07444 5.00874 7.98578 5.11647C7.89712 5.21651 7.77891 5.28192 7.63114 5.3127C7.49076 5.33578 7.32453 5.29731 7.13243 5.19727C6.93295 5.09724 6.715 5.01259 6.47857 4.94334C6.24215 4.87408 5.95031 4.83946 5.60307 4.83946C5.16716 4.83946 4.8273 4.93179 4.58349 5.11647C4.34706 5.30115 4.22885 5.5397 4.22885 5.83211C4.22885 6.04757 4.29904 6.22071 4.43942 6.35152C4.58718 6.48234 4.84208 6.59007 5.2041 6.67471L6.43424 6.95173C7.13613 7.11333 7.65331 7.37496 7.98578 7.73662C8.32564 8.09829 8.49557 8.56768 8.49557 9.14481C8.49557 9.59881 8.38844 10.0028 8.17418 10.3568C7.95992 10.703 7.66439 10.9839 7.28759 11.1994C6.97014 11.3809 6.60811 11.5078 6.20151 11.5801V12.0309C7.79833 12.1737 9 12.7944 9 13.5385C9 14.3881 7.433 15.0769 5.5 15.0769C3.567 15.0769 2 14.3881 2 13.5385C2 12.7814 3.24412 12.152 4.88271 12.0239Z" fill="currentColor"/>
<path d="M22 10.1538C22 11.3434 19.5376 12.3077 16.5 12.3077C13.4624 12.3077 11 11.3434 11 10.1538C11 8.96431 13.4624 8 16.5 8C19.5376 8 22 8.96431 22 10.1538Z" fill="currentColor"/>
<path d="M16.5 13.9231C18.175 13.9231 19.7673 13.6602 21.0019 13.1767C21.3434 13.0429 21.6831 12.8824 22 12.6895V15.8874C21.7523 16.1114 21.3609 16.3603 20.8293 16.5937C19.7485 17.0682 18.2146 17.4231 16.5 17.4231C14.7854 17.4231 13.2515 17.0682 12.1707 16.5937C11.6391 16.3603 11.2477 16.1114 11 15.8874V12.6895C11.3169 12.8824 11.6566 13.0429 11.9981 13.1767C13.2327 13.6602 14.825 13.9231 16.5 13.9231Z" fill="currentColor"/>
<path d="M22 17.8304C21.8413 17.9133 21.6757 17.9925 21.5045 18.0677C20.1965 18.6419 18.4305 19.0385 16.5 19.0385C14.5695 19.0385 12.8035 18.6419 11.4955 18.0677C11.3243 17.9925 11.1587 17.9133 11 17.8304V19.8462C11 21.0357 13.4624 22 16.5 22C19.5376 22 22 21.0357 22 19.8462V17.8304Z" fill="currentColor"/>
<path d="M5.5 16.2308C6.56588 16.2308 7.57921 16.043 8.36483 15.6976C8.58218 15.6021 8.79831 15.4874 9 15.3496V17.6338C8.84236 17.7939 8.59332 17.9717 8.25502 18.1384C7.56726 18.4773 6.5911 18.7308 5.5 18.7308C4.4089 18.7308 3.43274 18.4773 2.74498 18.1384C2.40668 17.9717 2.15764 17.7939 2 17.6338V15.3496C2.20169 15.4874 2.41782 15.6021 2.63517 15.6976C3.42079 16.043 4.43412 16.2308 5.5 16.2308Z" fill="currentColor"/>
<path d="M9 19.0217C8.89899 19.0809 8.79363 19.1375 8.68468 19.1912C7.85234 19.6014 6.7285 19.8846 5.5 19.8846C4.2715 19.8846 3.14766 19.6014 2.31532 19.1912C2.20637 19.1375 2.10101 19.0809 2 19.0217V20.4615C2 21.3112 3.567 22 5.5 22C7.433 22 9 21.3112 9 20.4615V19.0217Z" fill="currentColor"/>
</svg>
