<svg viewBox="0 0 24 24" fill="currentColor" xmlns="http://www.w3.org/2000/svg">
<path d="M15 5C15 6.39788 14.0439 7.57245 12.75 7.90549V14.5365L16.1243 16.2236C16.159 16.241 16.1973 16.25 16.2361 16.25H22C22.4142 16.25 22.75 16.5858 22.75 17C22.75 17.4142 22.4142 17.75 22 17.75H16.2361C15.9644 17.75 15.6964 17.6867 15.4534 17.5652L12.75 16.2135V21.25H18C18.4142 21.25 18.75 21.5858 18.75 22C18.75 22.4142 18.4142 22.75 18 22.75H6C5.58579 22.75 5.25 22.4142 5.25 22C5.25 21.5858 5.58579 21.25 6 21.25H11.25V15.4635L7.87574 13.7764C7.84102 13.759 7.80274 13.75 7.76393 13.75H2C1.58579 13.75 1.25 13.4142 1.25 13C1.25 12.5858 1.58579 12.25 2 12.25H7.76393C8.03561 12.25 8.30356 12.3133 8.54656 12.4348L11.25 13.7865V7.90549C9.95608 7.57245 9 6.39788 9 5C9 3.34315 10.3431 2 12 2C13.6569 2 15 3.34315 15 5Z" fill="currentColor"/>
<path d="M5 2.25C5.41421 2.25 5.75 2.58579 5.75 3V3.20455H5.93939C6.93936 3.20455 7.75 4.01518 7.75 5.01515C7.75 5.42937 7.41421 5.76515 7 5.76515C6.58579 5.76515 6.25 5.42937 6.25 5.01515C6.25 4.84361 6.11094 4.70455 5.93939 4.70455H4.20167C3.95222 4.70455 3.75 4.90676 3.75 5.15621C3.75 5.37827 3.91141 5.56738 4.1307 5.60227L6.10497 5.91636C7.05255 6.06711 7.75 6.88429 7.75 7.84379C7.75 8.92166 6.87621 9.79545 5.79833 9.79545H5.75V10C5.75 10.4142 5.41421 10.75 5 10.75C4.58579 10.75 4.25 10.4142 4.25 10V9.79545H4.2197C3.13186 9.79545 2.25 8.91359 2.25 7.82576C2.25 7.41154 2.58579 7.07576 3 7.07576C3.41421 7.07576 3.75 7.41154 3.75 7.82576C3.75 8.08516 3.96029 8.29545 4.2197 8.29545H5.79833C6.04778 8.29545 6.25 8.09324 6.25 7.84379C6.25 7.62173 6.08859 7.43262 5.8693 7.39773L3.89503 7.08364C2.94745 6.93289 2.25 6.11571 2.25 5.15621C2.25 4.07834 3.12379 3.20455 4.20167 3.20455H4.25V3C4.25 2.58579 4.58579 2.25 5 2.25Z" fill="currentColor"/>
<path d="M16 11.5352C16 11.2008 16.1671 10.8886 16.4453 10.7031L18.4453 9.36979C18.7812 9.14586 19.2188 9.14586 19.5547 9.36979L21.5547 10.7031C21.8329 10.8886 22 11.2008 22 11.5352V14C22 14.5523 21.5523 15 21 15H17C16.4477 15 16 14.5523 16 14V11.5352Z" fill="currentColor"/>
</svg>
