<svg viewBox="0 0 24 24" fill="currentColor" xmlns="http://www.w3.org/2000/svg">
<path d="M11.5 9.75H8.75L8.99975 6.75116C9.04452 6.75005 9.10344 6.75 9.2 6.75H11.5C12.5428 6.75 13.25 7.49395 13.25 8.25C13.25 9.00605 12.5428 9.75 11.5 9.75Z" fill="currentColor"/>
<path d="M8.75 9.75L8.94924 6.7536C8.80641 6.77402 8.76043 6.85591 8.75211 6.8844C8.75185 6.88874 8.7515 6.89572 8.75119 6.90595C8.75008 6.94245 8.75 6.99187 8.75 7.08V9.75Z" fill="currentColor"/>
<path d="M19 10.5C19 11.556 18.8074 12.5671 18.4554 13.5H16.1618C14.9191 13.5 13.9118 14.5074 13.9118 15.75C13.9118 16.0586 13.9739 16.3526 14.0863 16.6203C12.7948 15.7558 11.032 15.9002 9.89795 17.0537L9.85546 17.0969L8.40547 18.74C4.72391 17.807 2 14.4716 2 10.5C2 5.80558 5.80558 2 10.5 2C15.1944 2 19 5.80558 19 10.5ZM9.16254 5.24998C9.01537 5.24984 8.87017 5.24971 8.73773 5.26859C8.03408 5.36889 7.40524 5.88153 7.27366 6.62922C7.24946 6.76677 7.24972 6.9159 7.24996 7.04391L7.25 7.08V9.75H7C6.58579 9.75 6.25 10.0858 6.25 10.5C6.25 10.9142 6.58579 11.25 7 11.25H7.25V12H7C6.58579 12 6.25 12.3358 6.25 12.75C6.25 13.1642 6.58579 13.5 7 13.5H7.25V15C7.25 15.4142 7.58579 15.75 8 15.75C8.41421 15.75 8.75 15.4142 8.75 15V13.5H10.5C10.9142 13.5 11.25 13.1642 11.25 12.75C11.25 12.3358 10.9142 12 10.5 12H8.75V11.25H11.5C13.2186 11.25 14.75 9.97923 14.75 8.25C14.75 6.52077 13.2186 5.25 11.5 5.25L9.16254 5.24998Z" fill="currentColor"/>
<path d="M15.4118 15.75C15.4118 15.3358 15.7476 15 16.1618 15H20.75C21.1642 15 21.5 15.3358 21.5 15.75V20.3442C21.5 20.7584 21.1642 21.0942 20.75 21.0942C20.3358 21.0942 20 20.7584 20 20.3442V17.5704L16.7254 20.87L16.7239 20.8715C16.0152 21.5908 14.862 21.5903 14.1538 20.87L12.4696 19.157C12.3521 19.0374 12.1686 19.0341 12.0474 19.147L9.31235 22.2463C9.03827 22.5568 8.56432 22.5864 8.25375 22.3123C7.94318 22.0383 7.91359 21.5643 8.18767 21.2537L10.9534 18.1197L10.9675 18.1053C11.6762 17.3846 12.8305 17.3846 13.5392 18.1053L15.2234 19.8184C15.3443 19.9413 15.5349 19.9413 15.6558 19.8184L15.6583 19.8159L18.949 16.5H16.1618C15.7476 16.5 15.4118 16.1642 15.4118 15.75Z" fill="currentColor"/>
</svg>
