<svg viewBox="0 0 24 24" fill="currentColor" xmlns="http://www.w3.org/2000/svg">
<path d="M14.8571 8.25H12.6071V5.96C12.6071 5.88132 12.6072 5.83839 12.6081 5.80701L12.6085 5.79673C12.61 5.79394 12.6136 5.78848 12.6199 5.78261C12.6323 5.77104 12.6544 5.75767 12.6868 5.75227C12.6903 5.75202 12.6995 5.75144 12.7174 5.75099C12.7537 5.75006 12.8023 5.75 12.8857 5.75H14.8571C15.676 5.75 16.25 6.35754 16.25 7C16.25 7.64246 15.676 8.25 14.8571 8.25Z" fill="currentColor"/>
<path d="M6.85968 15.8067C5.69592 14.3524 5 12.5075 5 10.5C5 5.80558 8.80558 2 13.5 2C18.1944 2 22 5.80558 22 10.5C22 13.9467 19.9485 16.9143 17 18.2482V17.1558C17 15.9132 15.9927 14.9058 14.75 14.9058C14.5436 14.9058 14.3437 14.9336 14.1539 14.9857C13.8769 14.9857 13.2682 15.4909 12.9985 15.7434C12.838 15.9421 12.7108 16.1686 12.625 16.4146L11.7924 15.5757C10.4957 14.26 8.37966 14.2608 7.0842 15.5784L6.85968 15.8067ZM12.852 4.24997C12.7285 4.24981 12.5941 4.24964 12.4705 4.26791C11.8121 4.36524 11.2455 4.85839 11.1283 5.54937C11.1066 5.67701 11.1069 5.81483 11.1071 5.92755V5.96V8.25H11C10.5858 8.25 10.25 8.58579 10.25 9C10.25 9.41421 10.5858 9.75 11 9.75H11.1071V10.25H11C10.5858 10.25 10.25 10.5858 10.25 11C10.25 11.4142 10.5858 11.75 11 11.75H11.1071V13C11.1071 13.4142 11.4429 13.75 11.8571 13.75C12.2714 13.75 12.6071 13.4142 12.6071 13V11.75H14C14.4142 11.75 14.75 11.4142 14.75 11C14.75 10.5858 14.4142 10.25 14 10.25H12.6071V9.75H14.8571C16.4052 9.75 17.75 8.56668 17.75 7C17.75 5.43332 16.4052 4.25 14.8571 4.25L12.852 4.24997Z" fill="currentColor"/>
<path d="M10.1618 22.5C9.74756 22.5 9.41177 22.1642 9.41177 21.75C9.41177 21.3358 9.74756 21 10.1618 21H12.949L9.65826 17.6841L9.6558 17.6816C9.53492 17.5587 9.34429 17.5587 9.2234 17.6816L7.53917 19.3947C6.83051 20.1154 5.6762 20.1154 4.96755 19.3947L4.95338 19.3803L2.18767 16.2463C1.91359 15.9357 1.94318 15.4617 2.25375 15.1877C2.56432 14.9136 3.03827 14.9432 3.31235 15.2537L6.04744 18.353C6.16863 18.4659 6.35205 18.4626 6.46956 18.343L8.15379 16.63C8.86196 15.9097 10.0152 15.9092 10.7239 16.6285L10.7254 16.63L14 19.9296V17.1558C14 16.7416 14.3358 16.4058 14.75 16.4058C15.1642 16.4058 15.5 16.7416 15.5 17.1558V21.75C15.5 22.1642 15.1642 22.5 14.75 22.5H10.1618Z" fill="currentColor"/>
</svg>
