<svg viewBox="0 0 24 24" fill="currentColor" xmlns="http://www.w3.org/2000/svg">
<path d="M9.41177 21.75C9.41177 22.1642 9.74756 22.5 10.1618 22.5H14.75C15.1642 22.5 15.5 22.1642 15.5 21.75V17.1558C15.5 16.7416 15.1642 16.4058 14.75 16.4058C14.3358 16.4058 14 16.7416 14 17.1558V19.9296L10.7254 16.63L10.7239 16.6285C10.0152 15.9092 8.86196 15.9097 8.15379 16.63L6.46956 18.343C6.35205 18.4626 6.16863 18.4659 6.04744 18.353L3.31235 15.2537C3.03827 14.9432 2.56432 14.9136 2.25375 15.1877C1.94318 15.4617 1.91359 15.9357 2.18767 16.2463L4.95338 19.3803L4.96755 19.3947C5.6762 20.1154 6.83051 20.1154 7.53917 19.3947L9.2234 17.6816C9.34429 17.5587 9.53492 17.5587 9.6558 17.6816L9.65826 17.6841L12.949 21H10.1618C9.74756 21 9.41177 21.3358 9.41177 21.75Z" fill="currentColor"/>
<path d="M22 10.5C22 13.9467 19.9485 16.9143 17 18.2483V17.1558C17 15.9132 15.9927 14.9058 14.75 14.9058C13.7671 14.9058 12.9313 15.5361 12.625 16.4146L11.7924 15.5757C10.4957 14.26 8.37964 14.2608 7.08419 15.5784L6.85967 15.8067C5.69592 14.3524 5 12.5075 5 10.5C5 5.80558 8.80558 2 13.5 2C18.1944 2 22 5.80558 22 10.5ZM10 4.25C9.58579 4.25 9.25 4.58579 9.25 5C9.25 5.41421 9.58579 5.75 10 5.75H12C12.9797 5.75 13.8131 6.37611 14.122 7.25H10C9.58579 7.25 9.25 7.58579 9.25 8C9.25 8.41421 9.58579 8.75 10 8.75H14.122C13.8131 9.62389 12.9797 10.25 12 10.25C11.6967 10.25 11.4232 10.4327 11.3071 10.713C11.191 10.9932 11.2552 11.3158 11.4697 11.5303L14.4697 14.5303C14.7626 14.8232 15.2374 14.8232 15.5303 14.5303C15.8232 14.2374 15.8232 13.7626 15.5303 13.4697L13.499 11.4384C14.6027 10.9565 15.4296 9.95884 15.675 8.75H17C17.4142 8.75 17.75 8.41421 17.75 8C17.75 7.58579 17.4142 7.25 17 7.25H15.675C15.5625 6.69584 15.3278 6.18606 15.0003 5.75H17C17.4142 5.75 17.75 5.41421 17.75 5C17.75 4.58579 17.4142 4.25 17 4.25H10Z" fill="currentColor"/>
</svg>
