<svg viewBox="0 0 24 24" fill="currentColor" xmlns="http://www.w3.org/2000/svg">
<path d="M15.4118 15.75C15.4118 15.3358 15.7476 15 16.1618 15H20.75C21.1642 15 21.5 15.3358 21.5 15.75V20.3442C21.5 20.7584 21.1642 21.0942 20.75 21.0942C20.3358 21.0942 20 20.7584 20 20.3442V17.5704L16.7254 20.87L16.7239 20.8715C16.0152 21.5908 14.862 21.5903 14.1538 20.87L12.4696 19.157C12.3521 19.0374 12.1686 19.0341 12.0474 19.147L9.31235 22.2463C9.03827 22.5568 8.56432 22.5864 8.25375 22.3123C7.94318 22.0383 7.91359 21.5643 8.18767 21.2537L10.9534 18.1197L10.9675 18.1053C11.6762 17.3846 12.8305 17.3846 13.5392 18.1053L15.2234 19.8184C15.3443 19.9413 15.5349 19.9413 15.6558 19.8184L15.6583 19.8159L18.949 16.5H16.1618C15.7476 16.5 15.4118 16.1642 15.4118 15.75Z" fill="currentColor"/>
<path d="M8.40546 18.74L9.85544 17.0969L9.89794 17.0537C11.032 15.9002 12.7948 15.7558 14.0863 16.6203C13.9739 16.3526 13.9118 16.0586 13.9118 15.75C13.9118 14.5074 14.9191 13.5 16.1618 13.5H18.4554C18.8074 12.5671 19 11.556 19 10.5C19 5.80558 15.1944 2 10.5 2C5.80558 2 2 5.80558 2 10.5C2 14.4716 4.72391 17.807 8.40546 18.74ZM5.25 6C5.25 5.58579 5.58579 5.25 6 5.25H13C13.4142 5.25 13.75 5.58579 13.75 6C13.75 6.41421 13.4142 6.75 13 6.75H11.0003C11.3278 7.18606 11.5625 7.69584 11.675 8.25H13C13.4142 8.25 13.75 8.58579 13.75 9C13.75 9.41421 13.4142 9.75 13 9.75H11.675C11.4296 10.9588 10.6027 11.9565 9.49904 12.4384L11.5303 14.4697C11.8232 14.7626 11.8232 15.2374 11.5303 15.5303C11.2374 15.8232 10.7626 15.8232 10.4697 15.5303L7.46967 12.5303C7.25517 12.3158 7.191 11.9932 7.30709 11.713C7.42318 11.4327 7.69665 11.25 8 11.25C8.97966 11.25 9.81309 10.6239 10.122 9.75H6C5.58579 9.75 5.25 9.41421 5.25 9C5.25 8.58579 5.58579 8.25 6 8.25H10.122C9.81309 7.37611 8.97966 6.75 8 6.75H6C5.58579 6.75 5.25 6.41421 5.25 6Z" fill="currentColor"/>
</svg>
