<svg viewBox="0 0 24 24" fill="currentColor" xmlns="http://www.w3.org/2000/svg">
<path d="M10.75 2H5C3.89543 2 3 2.89543 3 4V7.75H10.75V2ZM5.25 5C5.25 4.58579 5.58579 4.25 6 4.25H8C8.41421 4.25 8.75 4.58579 8.75 5C8.75 5.41421 8.41421 5.75 8 5.75H6C5.58579 5.75 5.25 5.41421 5.25 5Z" fill="currentColor"/>
<path d="M3 15.25V9.25H10.75V15.25H3ZM5.25 12C5.25 12.4142 5.58579 12.75 6 12.75H8C8.41421 12.75 8.75 12.4142 8.75 12C8.75 11.5858 8.41421 11.25 8 11.25H6C5.58579 11.25 5.25 11.5858 5.25 12Z" fill="currentColor"/>
<path d="M3 20V16.75H10.75V22H5C3.89543 22 3 21.1046 3 20ZM5.25 19C5.25 19.4142 5.58579 19.75 6 19.75H8C8.41421 19.75 8.75 19.4142 8.75 19C8.75 18.5858 8.41421 18.25 8 18.25H6C5.58579 18.25 5.25 18.5858 5.25 19Z" fill="currentColor"/>
<path d="M12.25 16.75V22H18C19.1046 22 20 21.1046 20 20V16.75H12.25ZM15 18.25H17C17.4142 18.25 17.75 18.5858 17.75 19C17.75 19.4142 17.4142 19.75 17 19.75H15C14.5858 19.75 14.25 19.4142 14.25 19C14.25 18.5858 14.5858 18.25 15 18.25Z" fill="currentColor"/>
<path d="M20 9.25V15.25H12.25V9.25H20ZM15 11.25C14.5858 11.25 14.25 11.5858 14.25 12C14.25 12.4142 14.5858 12.75 15 12.75H17C17.4142 12.75 17.75 12.4142 17.75 12C17.75 11.5858 17.4142 11.25 17 11.25H15Z" fill="currentColor"/>
<path d="M20 4V7.75H12.25V2H18C19.1046 2 20 2.89543 20 4ZM15 4.25C14.5858 4.25 14.25 4.58579 14.25 5C14.25 5.41421 14.5858 5.75 15 5.75H17C17.4142 5.75 17.75 5.41421 17.75 5C17.75 4.58579 17.4142 4.25 17 4.25H15Z" fill="currentColor"/>
</svg>
