<svg viewBox="0 0 24 24" fill="currentColor" xmlns="http://www.w3.org/2000/svg">
<path d="M4 3C2.89543 3 2 3.89543 2 5V16C2 17.1046 2.89543 18 4 18H5.25V20C5.25 20.4142 5.58579 20.75 6 20.75C6.41421 20.75 6.75 20.4142 6.75 20V18H17.25V20C17.25 20.4142 17.5858 20.75 18 20.75C18.4142 20.75 18.75 20.4142 18.75 20V18H20C21.1046 18 22 17.1046 22 16V5C22 3.89543 21.1046 3 20 3H4ZM6 5H12C12.5523 5 13 5.44772 13 6V8C13 8.55228 12.5523 9 12 9H6C5.44772 9 5 8.55228 5 8V6C5 5.44772 5.44772 5 6 5ZM18 6.25C18.4142 6.25 18.75 6.58579 18.75 7V14C18.75 14.4142 18.4142 14.75 18 14.75C17.5858 14.75 17.25 14.4142 17.25 14V7C17.25 6.58579 17.5858 6.25 18 6.25ZM6 13C5.44772 13 5 12.5523 5 12C5 11.4477 5.44772 11 6 11C6.55228 11 7 11.4477 7 12C7 12.5523 6.55228 13 6 13ZM7 15C7 15.5523 6.55228 16 6 16C5.44772 16 5 15.5523 5 15C5 14.4477 5.44772 14 6 14C6.55228 14 7 14.4477 7 15ZM9 13C8.44771 13 8 12.5523 8 12C8 11.4477 8.44771 11 9 11C9.55228 11 10 11.4477 10 12C10 12.5523 9.55228 13 9 13ZM10 15C10 15.5523 9.55228 16 9 16C8.44771 16 8 15.5523 8 15C8 14.4477 8.44771 14 9 14C9.55228 14 10 14.4477 10 15ZM12 13C11.4477 13 11 12.5523 11 12C11 11.4477 11.4477 11 12 11C12.5523 11 13 11.4477 13 12C13 12.5523 12.5523 13 12 13ZM13 15C13 15.5523 12.5523 16 12 16C11.4477 16 11 15.5523 11 15C11 14.4477 11.4477 14 12 14C12.5523 14 13 14.4477 13 15Z" fill="currentColor"/>
</svg>
