<svg viewBox="0 0 24 24" fill="currentColor" xmlns="http://www.w3.org/2000/svg">
<path d="M10.4091 8.90901C10.8486 8.46953 11.4231 8.25 12.0001 8.25C12.5771 8.25 13.1516 8.46953 13.5911 8.90901C14.0306 9.3485 14.2501 9.92302 14.2501 10.5C14.2501 11.077 14.0306 11.6515 13.5911 12.091C13.1516 12.5305 12.5771 12.75 12.0001 12.75C11.4231 12.75 10.8486 12.5305 10.4091 12.091C9.96964 11.6515 9.75012 11.077 9.75012 10.5C9.75012 9.92302 9.96964 9.3485 10.4091 8.90901Z" fill="currentColor"/>
<path d="M4 3C2.89543 3 2 3.89543 2 5V16C2 17.1046 2.89543 18 4 18H5.25V20C5.25 20.4142 5.58579 20.75 6 20.75C6.41421 20.75 6.75 20.4142 6.75 20V18H17.25V20C17.25 20.4142 17.5858 20.75 18 20.75C18.4142 20.75 18.75 20.4142 18.75 20V18H20C21.1046 18 22 17.1046 22 16V5C22 3.89543 21.1046 3 20 3H4ZM12.7501 5.84314V6.82546C13.4467 6.9671 14.1115 7.30812 14.6518 7.84834C15.192 8.38856 15.533 9.05344 15.6747 9.74999H16.657C17.0712 9.74999 17.407 10.0858 17.407 10.5C17.407 10.9142 17.0712 11.25 16.657 11.25H15.6747C15.533 11.9465 15.192 12.6114 14.6518 13.1516C14.1115 13.6919 13.4467 14.0329 12.7501 14.1745V15.1568C12.7501 15.5711 12.4143 15.9068 12.0001 15.9068C11.5859 15.9068 11.2501 15.5711 11.2501 15.1568V14.1745C10.5536 14.0329 9.88868 13.6919 9.34846 13.1516C8.80825 12.6114 8.46723 11.9465 8.32558 11.25H7.34326C6.92905 11.25 6.59326 10.9142 6.59326 10.5C6.59326 10.0858 6.92905 9.74999 7.34326 9.74999H8.32558C8.46723 9.05344 8.80825 8.38856 9.34846 7.84834C9.88868 7.30812 10.5536 6.9671 11.2501 6.82546V5.84314C11.2501 5.42893 11.5859 5.09314 12.0001 5.09314C12.4143 5.09314 12.7501 5.42893 12.7501 5.84314ZM19 6C19 6.55228 18.5523 7 18 7C17.4477 7 17 6.55228 17 6C17 5.44772 17.4477 5 18 5C18.5523 5 19 5.44772 19 6Z" fill="currentColor"/>
</svg>
