<svg viewBox="0 0 24 24" fill="currentColor" xmlns="http://www.w3.org/2000/svg">
<path d="M6.75 10.5C6.75 8.98122 7.98122 7.75 9.5 7.75C11.0188 7.75 12.25 8.98122 12.25 10.5C12.25 12.0188 11.0188 13.25 9.5 13.25C7.98122 13.25 6.75 12.0188 6.75 10.5ZM10.5 10.5C10.5 9.94771 10.0523 9.5 9.5 9.5C8.94771 9.5 8.5 9.94771 8.5 10.5C8.5 11.0523 8.94771 11.5 9.5 11.5C10.0523 11.5 10.5 11.0523 10.5 10.5Z" fill="currentColor"/>
<path d="M2 5C2 3.89543 2.89543 3 4 3H20C21.1046 3 22 3.89543 22 5V16C22 17.1046 21.1046 18 20 18H18.75V20C18.75 20.4142 18.4142 20.75 18 20.75C17.5858 20.75 17.25 20.4142 17.25 20V18H6.75V20C6.75 20.4142 6.41421 20.75 6 20.75C5.58579 20.75 5.25 20.4142 5.25 20V18H4C2.89543 18 2 17.1046 2 16V5ZM18 6.25C17.5858 6.25 17.25 6.58579 17.25 7V14C17.25 14.4142 17.5858 14.75 18 14.75C18.4142 14.75 18.75 14.4142 18.75 14V7C18.75 6.58579 18.4142 6.25 18 6.25ZM9.5 6.25C7.15279 6.25 5.25 8.15279 5.25 10.5C5.25 12.8472 7.15279 14.75 9.5 14.75C11.8472 14.75 13.75 12.8472 13.75 10.5C13.75 8.15279 11.8472 6.25 9.5 6.25Z" fill="currentColor"/>
</svg>
