<svg viewBox="0 0 24 24" fill="currentColor" xmlns="http://www.w3.org/2000/svg">
<path d="M17 14C17 16.7614 14.7614 19 12 19C9.23858 19 7 16.7614 7 14C7 11.2386 9.23858 9 12 9C14.7614 9 17 11.2386 17 14ZM11.559 17.936C11.679 18.056 11.826 18.116 12 18.116C12.186 18.116 12.336 18.056 12.45 17.936C12.57 17.816 12.63 17.666 12.63 17.486V16.9936C12.9529 16.9318 13.2409 16.8289 13.494 16.685C13.806 16.511 14.049 16.286 14.223 16.01C14.397 15.734 14.484 15.416 14.484 15.056C14.484 14.594 14.346 14.219 14.07 13.931C13.8 13.637 13.38 13.427 12.81 13.301L11.784 13.076C11.52 13.016 11.337 12.947 11.235 12.869C11.139 12.785 11.091 12.683 11.091 12.563C11.091 12.383 11.175 12.236 11.343 12.122C11.517 12.008 11.763 11.951 12.081 11.951C12.345 11.951 12.561 11.972 12.729 12.014C12.903 12.05 13.059 12.098 13.197 12.158C13.383 12.236 13.542 12.26 13.674 12.23C13.812 12.194 13.92 12.125 13.998 12.023C14.082 11.921 14.13 11.807 14.142 11.681C14.16 11.549 14.139 11.42 14.079 11.294C14.025 11.168 13.929 11.069 13.791 10.997C13.593 10.877 13.362 10.784 13.098 10.718C12.9352 10.6736 12.7792 10.6417 12.63 10.6224V10.169C12.63 9.989 12.57 9.839 12.45 9.719C12.33 9.599 12.18 9.539 12 9.539C11.826 9.539 11.679 9.599 11.559 9.719C11.439 9.839 11.379 9.989 11.379 10.169V10.6589C11.0576 10.7188 10.7696 10.8195 10.515 10.961C10.197 11.141 9.948 11.375 9.768 11.663C9.594 11.945 9.507 12.266 9.507 12.626C9.507 13.1 9.642 13.487 9.912 13.787C10.188 14.081 10.605 14.291 11.163 14.417L12.18 14.633C12.36 14.675 12.501 14.723 12.603 14.777C12.705 14.825 12.777 14.882 12.819 14.948C12.867 15.008 12.891 15.083 12.891 15.173C12.891 15.269 12.858 15.359 12.792 15.443C12.732 15.521 12.627 15.584 12.477 15.632C12.333 15.68 12.135 15.704 11.883 15.704C11.523 15.704 11.22 15.671 10.974 15.605C10.734 15.533 10.554 15.464 10.434 15.398C10.254 15.32 10.095 15.302 9.957 15.344C9.825 15.38 9.717 15.455 9.633 15.569C9.549 15.683 9.498 15.809 9.48 15.947C9.468 16.085 9.492 16.22 9.552 16.352C9.618 16.484 9.729 16.586 9.885 16.658C10.071 16.742 10.311 16.826 10.605 16.91C10.8311 16.9746 11.0891 17.0197 11.379 17.0452V17.486C11.379 17.666 11.439 17.816 11.559 17.936Z" fill="currentColor"/>
<path d="M7 2C6.44772 2 6 2.44772 6 3C6 3.55228 6.44771 4 7 4V6H6C4.89543 6 4 6.89543 4 8V20C4 21.1046 4.89543 22 6 22H18C19.1046 22 20 21.1046 20 20V8C20 6.89543 19.1046 6 18 6H17V4C17.5523 4 18 3.55228 18 3C18 2.44772 17.5523 2 17 2H7ZM12 20.5C8.41015 20.5 5.5 17.5899 5.5 14C5.5 10.4101 8.41015 7.5 12 7.5C15.5899 7.5 18.5 10.4101 18.5 14C18.5 17.5899 15.5899 20.5 12 20.5Z" fill="currentColor"/>
</svg>
