<svg viewBox="0 0 24 24" fill="currentColor" xmlns="http://www.w3.org/2000/svg">
<path d="M12 22C17.5228 22 22 17.5228 22 12C22 6.47715 17.5228 2 12 2C6.47715 2 2 6.47715 2 12C2 17.5228 6.47715 22 12 22ZM6.2689 6.252C6.31706 6.204 6.44147 6.128 6.54181 6.084C6.71438 6.004 6.79866 6 8.6087 6C10.3224 6 10.5351 6.008 10.9485 6.08C11.1933 6.124 11.5304 6.208 11.687 6.264C11.8475 6.324 12.0682 6.416 12.1806 6.472C12.289 6.524 12.4896 6.644 12.6221 6.732C12.7545 6.824 13.0234 7.052 13.2161 7.24C13.4127 7.428 13.6575 7.696 13.7659 7.84C13.8702 7.984 14.0107 8.2 14.0789 8.32C14.1472 8.44 14.2555 8.704 14.3278 8.9C14.396 9.096 14.4763 9.424 14.5084 9.62C14.5565 9.9 14.5686 10.424 14.5686 13.9L14.4602 14.12C14.3639 14.308 14.3157 14.356 14.1271 14.452C13.9946 14.516 13.8421 14.56 13.7458 14.56C13.6575 14.56 13.5171 14.54 13.4368 14.52C13.3525 14.496 13.212 14.412 13.1197 14.332C13.0074 14.224 12.9391 14.12 12.899 13.98C12.8548 13.82 12.8428 13.412 12.8428 11.86C12.8428 10.052 12.8388 9.92 12.7625 9.62C12.7144 9.444 12.6301 9.212 12.5699 9.1C12.5097 8.992 12.297 8.732 12.1003 8.528C11.8435 8.264 11.6629 8.116 11.4783 8.02C11.3338 7.948 11.101 7.856 10.9565 7.816C10.7278 7.752 10.5191 7.74 7.72575 7.74L7.70569 12.58C7.68562 16.984 7.68161 17.432 7.61739 17.54C7.58127 17.604 7.50903 17.7 7.45686 17.748C7.4087 17.796 7.28428 17.872 7.18395 17.916C7.08361 17.96 6.93913 18 6.86288 18C6.78662 18 6.64214 17.96 6.54181 17.916C6.44147 17.872 6.31706 17.796 6.2689 17.748C6.21672 17.7 6.13244 17.588 6 17.34V6.66L6.08829 6.5C6.13244 6.412 6.21672 6.3 6.2689 6.252ZM16.5431 6.252C16.5913 6.204 16.7157 6.128 16.8161 6.084C16.9164 6.04 17.0569 6 17.1251 6C17.1973 6 17.3338 6.028 17.4261 6.064C17.5224 6.104 17.6508 6.18 17.711 6.236C17.7752 6.292 17.8676 6.412 18 6.66V17.34L17.9117 17.5C17.8676 17.588 17.7833 17.7 17.7311 17.748C17.6829 17.796 17.5585 17.872 17.4582 17.916C17.2856 17.996 17.2013 18 15.3993 18C13.7017 18 13.4809 17.992 13.0635 17.92C12.8107 17.876 12.4696 17.792 12.309 17.736C12.1525 17.676 11.9278 17.584 11.8194 17.528C11.707 17.476 11.5104 17.356 11.3779 17.268C11.2455 17.176 10.9766 16.948 10.7839 16.76C10.5873 16.572 10.3425 16.304 10.2341 16.16C10.1298 16.016 9.9893 15.8 9.92107 15.68C9.85284 15.56 9.74448 15.296 9.67224 15.1C9.60401 14.904 9.52375 14.576 9.49164 14.38C9.44348 14.1 9.43144 13.584 9.43144 12.08C9.43144 10.668 9.44749 10.096 9.48361 9.98C9.50769 9.892 9.59599 9.756 9.67224 9.68C9.7485 9.604 9.88495 9.516 9.97324 9.492C10.0615 9.464 10.198 9.44 10.2742 9.44C10.3505 9.44 10.487 9.46 10.5753 9.484C10.6716 9.512 10.804 9.596 10.9003 9.696C11.0247 9.82 11.0769 9.912 11.113 10.072C11.1411 10.208 11.1572 10.912 11.1572 12.172C11.1572 13.948 11.1612 14.08 11.2375 14.38C11.2856 14.556 11.3699 14.792 11.4301 14.9C11.4863 15.012 11.699 15.264 11.8997 15.46C12.1525 15.712 12.3451 15.864 12.5418 15.968C12.6983 16.048 12.9311 16.144 13.0635 16.188C13.2803 16.252 13.4609 16.26 16.2742 16.26L16.2943 11.42C16.3144 7.016 16.3184 6.568 16.3826 6.46C16.4187 6.392 16.491 6.3 16.5431 6.252Z" fill="currentColor"/>
</svg>
