<svg viewBox="0 0 24 24" fill="currentColor" xmlns="http://www.w3.org/2000/svg">
<path d="M5 4C5 2.89543 5.89543 2 7 2H17C18.1046 2 19 2.89543 19 4V20C19 21.1046 18.1046 22 17 22H7C5.89543 22 5 21.1046 5 20V4ZM7.5 3.25C7.08579 3.25 6.75 3.58579 6.75 4V10C6.75 10.9665 7.5335 11.75 8.5 11.75H14.5C14.9142 11.75 15.25 11.4142 15.25 11C15.25 10.5858 14.9142 10.25 14.5 10.25H8.5C8.36193 10.25 8.25 10.1381 8.25 10V4C8.25 3.58579 7.91421 3.25 7.5 3.25ZM17.0303 4.46967C16.7374 4.17678 16.2626 4.17678 15.9697 4.46967L13.6768 6.76256C13.5791 6.86019 13.4209 6.86019 13.3232 6.76256L12.7374 6.17678C12.054 5.49336 10.946 5.49336 10.2626 6.17678L8.96967 7.46967C8.67678 7.76256 8.67678 8.23744 8.96967 8.53033C9.26256 8.82322 9.73744 8.82322 10.0303 8.53033L11.3232 7.23744C11.4209 7.13981 11.5791 7.13981 11.6768 7.23744L12.2626 7.82322C12.946 8.50664 14.054 8.50664 14.7374 7.82322L17.0303 5.53033C17.3232 5.23744 17.3232 4.76256 17.0303 4.46967ZM8 14.25C7.58579 14.25 7.25 14.5858 7.25 15C7.25 15.4142 7.58579 15.75 8 15.75H16C16.4142 15.75 16.75 15.4142 16.75 15C16.75 14.5858 16.4142 14.25 16 14.25H8ZM7.25 18C7.25 18.4142 7.58579 18.75 8 18.75H10C10.4142 18.75 10.75 18.4142 10.75 18C10.75 17.5858 10.4142 17.25 10 17.25H8C7.58579 17.25 7.25 17.5858 7.25 18ZM12 17.25C11.5858 17.25 11.25 17.5858 11.25 18C11.25 18.4142 11.5858 18.75 12 18.75H16C16.4142 18.75 16.75 18.4142 16.75 18C16.75 17.5858 16.4142 17.25 16 17.25H12Z" fill="currentColor"/>
</svg>
