<svg viewBox="0 0 24 24" fill="currentColor" xmlns="http://www.w3.org/2000/svg">
<path d="M15.4118 15.75C15.4118 15.3358 15.7476 15 16.1618 15H20.75C21.1642 15 21.5 15.3358 21.5 15.75V20.3442C21.5 20.7584 21.1642 21.0942 20.75 21.0942C20.3358 21.0942 20 20.7584 20 20.3442V17.5704L16.7254 20.87L16.7239 20.8715C16.0152 21.5908 14.862 21.5903 14.1538 20.87L12.4696 19.157C12.3521 19.0374 12.1686 19.0341 12.0474 19.147L9.31235 22.2463C9.03827 22.5568 8.56432 22.5864 8.25375 22.3123C7.94318 22.0383 7.91359 21.5643 8.18767 21.2537L10.9534 18.1197L10.9675 18.1053C11.6762 17.3846 12.8305 17.3846 13.5392 18.1053L15.2234 19.8184C15.3443 19.9413 15.5349 19.9413 15.6558 19.8184L15.6583 19.8159L18.949 16.5H16.1618C15.7476 16.5 15.4118 16.1642 15.4118 15.75Z" fill="currentColor"/>
<path d="M19 10.5C19 11.556 18.8074 12.5671 18.4554 13.5H16.1618C15.6479 13.5 15.1742 13.6723 14.7954 13.9622C14.8068 13.9342 14.817 13.9076 14.8257 13.8835C14.8725 13.7524 14.9334 13.5311 14.9592 13.3892C15.0014 13.1636 15.0061 13.0755 14.9943 12.6694C14.985 12.3578 14.9686 12.1666 14.9428 12.0785C14.9241 12.0076 14.8678 11.8765 14.821 11.7884C14.7577 11.6702 14.6874 11.5843 14.5586 11.4661C14.4227 11.3414 14.3336 11.2813 14.1814 11.2125C14.0712 11.1631 13.9096 11.1072 13.8182 11.0879C13.7221 11.0685 13.5581 11.0535 13.4199 11.0535C13.2864 11.0556 13.1247 11.0707 13.045 11.09C12.9677 11.1072 12.8248 11.1588 12.7288 11.2018C12.5952 11.2598 12.5085 11.3199 12.3656 11.4532C12.2274 11.58 12.1547 11.6702 12.0915 11.7884C12.0423 11.8765 11.986 12.0119 11.9626 12.0892C11.9368 12.1795 11.9228 12.3041 11.9251 12.4438C11.9251 12.6135 11.9392 12.6952 11.986 12.8306C12.0212 12.9294 12.0962 13.0712 12.1618 13.1636C12.225 13.2517 12.3398 13.3764 12.4148 13.4387C12.4921 13.501 12.6397 13.5934 12.7452 13.6428L12.9373 13.7331C12.8342 13.8491 12.7428 13.9372 12.6655 14.0017C12.5905 14.0661 12.464 14.1499 12.389 14.1886C12.3117 14.2251 12.1805 14.2724 12.0962 14.2939C12.0048 14.3154 11.8595 14.3304 11.733 14.3304C11.6112 14.3283 11.4589 14.3132 11.3699 14.2917C11.2855 14.2724 11.159 14.2294 11.0887 14.1972C11.0184 14.165 10.913 14.1091 10.8544 14.0726C10.7958 14.036 10.6857 13.9458 10.6084 13.8706C10.5241 13.7889 10.4303 13.6686 10.3788 13.5719C10.3296 13.4838 10.2734 13.357 10.2523 13.2926C10.2171 13.1894 10.2125 13.0111 10.2054 11.8464L10.1984 10.5206C12.1899 10.5077 12.4101 10.4991 12.5062 10.4733C12.5718 10.4561 12.6631 10.4239 12.7123 10.4046C12.7592 10.3852 12.8529 10.3251 12.9185 10.2692C12.9841 10.2112 13.0614 10.1188 13.0919 10.0586C13.1224 10.0006 13.1598 9.89314 13.1739 9.82223C13.195 9.72339 13.1973 9.65892 13.1762 9.55363C13.1622 9.47627 13.1247 9.36239 13.0919 9.30222C13.0591 9.2399 12.9865 9.14536 12.9279 9.09164C12.8693 9.03792 12.7733 8.9713 12.71 8.94337C12.6491 8.91543 12.5366 8.88105 12.4593 8.86816C12.3703 8.85312 11.9345 8.84452 11.2574 8.84452H10.1984C10.182 6.68068 10.1797 6.61191 10.1305 6.44216C10.1047 6.34546 10.0508 6.20579 10.0157 6.13273C9.98051 6.05752 9.90788 5.93934 9.85633 5.86843C9.80713 5.79752 9.70639 5.68363 9.6361 5.61487C9.56581 5.54396 9.44398 5.44296 9.36667 5.38924C9.28935 5.33552 9.13003 5.25172 9.01523 5.20015C8.90043 5.14858 8.70362 5.08196 8.58179 5.05188C8.39904 5.0089 8.31001 4.99816 8.07806 5.00031C7.86486 5.00246 7.74771 5.01535 7.59776 5.05188C7.48765 5.07767 7.31896 5.13353 7.2229 5.17436C7.12684 5.21519 6.97923 5.2904 6.89489 5.34197C6.81054 5.39569 6.67934 5.49453 6.60203 5.56759C6.52237 5.6385 6.41459 5.75884 6.35602 5.83619C6.29979 5.91355 6.22013 6.04248 6.17796 6.12628C6.13579 6.21009 6.07721 6.36265 6.0491 6.47009C6.0163 6.60117 5.9999 6.73225 5.9999 6.87837C5.9999 7.05242 6.00927 7.11688 6.05378 7.22217C6.08424 7.29309 6.14516 7.39408 6.19201 7.4478C6.23887 7.50152 6.3279 7.57673 6.39351 7.61541C6.45676 7.65409 6.5622 7.70136 6.62545 7.71855C6.70746 7.74433 6.80117 7.75078 6.94175 7.74648C7.09638 7.74004 7.17135 7.725 7.27678 7.67772C7.34942 7.64549 7.45953 7.57673 7.52045 7.52516C7.58371 7.47359 7.66102 7.37904 7.69851 7.31672C7.73365 7.25226 7.77817 7.12118 7.79691 7.02234C7.81566 6.92564 7.84377 6.82465 7.85783 6.79671C7.87189 6.77093 7.90703 6.73225 7.93514 6.71291C7.9656 6.68927 8.02652 6.67423 8.09446 6.67423C8.19052 6.67423 8.21864 6.68497 8.28658 6.74299L8.3639 6.8139C8.39201 8.14616 8.39436 8.60386 8.38498 8.68981L8.37093 8.84452C7.62119 8.84023 7.44313 8.84882 7.32833 8.87246C7.2393 8.88965 7.11044 8.92833 7.04718 8.95841C6.98158 8.98849 6.8902 9.04866 6.83866 9.09593C6.78946 9.14106 6.72386 9.22701 6.6934 9.28503C6.66294 9.3452 6.62545 9.46338 6.60905 9.54718C6.58328 9.67396 6.58328 9.72768 6.60905 9.82653C6.62545 9.89529 6.65826 9.98984 6.68403 10.0371C6.70746 10.0844 6.76369 10.1617 6.8082 10.209C6.85037 10.2563 6.9394 10.3272 7.00266 10.3659C7.06592 10.4046 7.17604 10.4518 7.24633 10.4712C7.34473 10.497 7.49936 10.5056 7.87891 10.5077L8.38264 10.5098C8.38498 12.3428 8.3967 12.9058 8.41544 13.0884C8.4295 13.2539 8.45761 13.4709 8.47636 13.5719C8.4951 13.6729 8.53727 13.8319 8.57242 13.9265C8.60756 14.021 8.67082 14.1714 8.71533 14.2595C8.75985 14.3476 8.86294 14.5131 8.9426 14.6248C9.02226 14.7366 9.15112 14.8913 9.22843 14.9665C9.30341 15.0438 9.41821 15.1491 9.48147 15.2028C9.54238 15.2566 9.67359 15.3576 9.77433 15.4242C9.87274 15.4929 10.0531 15.5961 10.175 15.6541C10.2968 15.7121 10.4725 15.7852 10.5616 15.8174C10.6529 15.8496 10.8591 15.9034 11.0254 15.9377C11.2808 15.9915 11.3722 16 11.6557 16C11.9158 16 12.054 15.9872 12.2719 15.9485C12.4265 15.9184 12.6374 15.869 12.7405 15.8389C12.8436 15.8067 13.024 15.7379 13.1388 15.6842C13.2536 15.6326 13.4176 15.5467 13.5019 15.4951C13.5863 15.4435 13.7339 15.3404 13.8299 15.2652C13.8818 15.2234 13.9446 15.1697 14.0017 15.118C13.9432 15.3185 13.9118 15.5306 13.9118 15.75C13.9118 16.0586 13.9739 16.3526 14.0863 16.6203C12.7947 15.7558 11.032 15.9002 9.89792 17.0537L9.85543 17.0969L8.40544 18.74C4.7239 17.807 2 14.4716 2 10.5C2 5.80558 5.80558 2 10.5 2C15.1944 2 19 5.80558 19 10.5Z" fill="currentColor"/>
</svg>
