<svg viewBox="0 0 24 24" fill="currentColor" xmlns="http://www.w3.org/2000/svg">
<path d="M2 5C2 3.89543 2.89543 3 4 3H20C21.1046 3 22 3.89543 22 5V7.25H2V5Z" fill="currentColor"/>
<path d="M2 8.75V15C2 16.1046 2.89543 17 4 17H10.5764C10.5261 16.674 10.5 16.3401 10.5 16C10.5 12.4101 13.4101 9.5 17 9.5C19.0104 9.5 20.8077 10.4127 22 11.8464V8.75H2Z" fill="currentColor"/>
<path d="M22 16C22 13.2386 19.7614 11 17 11C14.2386 11 12 13.2386 12 16C12 18.7614 14.2386 21 17 21C19.7614 21 22 18.7614 22 16ZM14.8153 12.1268C14.8793 12.0971 14.9918 12.0565 15.0652 12.0377C15.1651 12.0112 15.2432 12.0018 15.3854 12.0002C15.54 11.9987 15.5994 12.0065 15.7212 12.0377C15.8024 12.0596 15.9336 12.1081 16.0102 12.1456C16.0867 12.1831 16.1929 12.244 16.2444 12.2831C16.296 12.3222 16.3772 12.3956 16.4241 12.4472C16.4709 12.4972 16.5381 12.58 16.5709 12.6316C16.6053 12.6832 16.6537 12.7691 16.6771 12.8238C16.7005 12.8769 16.7365 12.9785 16.7536 13.0488C16.7864 13.1723 16.788 13.2223 16.7989 14.796H17.5049C17.9563 14.796 18.2469 14.8023 18.3062 14.8132C18.3578 14.8226 18.4327 14.8476 18.4733 14.8679C18.5155 14.8882 18.5796 14.9367 18.6186 14.9757C18.6576 15.0148 18.7061 15.0836 18.7279 15.1289C18.7498 15.1726 18.7748 15.2555 18.7842 15.3117C18.7982 15.3883 18.7967 15.4352 18.7826 15.5071C18.7732 15.5586 18.7482 15.6368 18.7279 15.679C18.7076 15.7227 18.6561 15.7899 18.6124 15.8321C18.5686 15.8728 18.5061 15.9165 18.4749 15.9306C18.4421 15.9447 18.3812 15.9681 18.3374 15.9806C18.2734 15.9993 18.1266 16.0056 16.7989 16.015L16.8036 16.9792C16.8083 17.8262 16.8114 17.9559 16.8349 18.0309C16.8489 18.0778 16.8864 18.17 16.9192 18.2341C16.9536 18.3044 17.016 18.3919 17.0723 18.4513C17.1238 18.506 17.1972 18.5717 17.2363 18.5982C17.2753 18.6248 17.3456 18.6654 17.3925 18.6889C17.4393 18.7123 17.5237 18.7436 17.5799 18.7576C17.6393 18.7733 17.7408 18.7842 17.822 18.7858C17.9064 18.7858 18.0032 18.7748 18.0641 18.7592C18.1203 18.7436 18.2078 18.7092 18.2594 18.6826C18.3093 18.6545 18.3937 18.5935 18.4437 18.5467C18.4952 18.4998 18.5561 18.4357 18.6248 18.3513L18.4968 18.2857C18.4265 18.2497 18.3281 18.1825 18.2765 18.1372C18.2266 18.0919 18.15 18.0013 18.1078 17.9372C18.0641 17.87 18.0141 17.7668 17.9907 17.695C17.9595 17.5965 17.9501 17.5371 17.9501 17.4137C17.9485 17.3121 17.9579 17.2214 17.9751 17.1558C17.9907 17.0995 18.0282 17.0011 18.061 16.937C18.1032 16.8511 18.1516 16.7854 18.2437 16.6932C18.339 16.5963 18.3968 16.5526 18.4858 16.5104C18.5499 16.4791 18.6452 16.4416 18.6967 16.4291C18.7498 16.415 18.8576 16.4041 18.9466 16.4025C19.0388 16.4025 19.1481 16.4135 19.2121 16.4275C19.2731 16.4416 19.3808 16.4822 19.4542 16.5182C19.5558 16.5682 19.6151 16.612 19.7057 16.7026C19.7916 16.7885 19.8385 16.8511 19.8806 16.937C19.9119 17.0011 19.9494 17.0964 19.9619 17.148C19.9791 17.2121 19.99 17.3511 19.9962 17.5777C20.004 17.8731 20.0009 17.9372 19.9728 18.1013C19.9556 18.2044 19.915 18.3654 19.8838 18.4607C19.8525 18.556 19.7901 18.7029 19.7463 18.7889C19.701 18.8748 19.6276 18.9983 19.5808 19.0624C19.5355 19.1264 19.4605 19.2218 19.4168 19.2718C19.373 19.3234 19.284 19.4093 19.2199 19.4656C19.1559 19.5203 19.0575 19.5953 19.0013 19.6328C18.945 19.6703 18.8357 19.7328 18.7592 19.7703C18.6826 19.8094 18.5624 19.8594 18.4936 19.8828C18.4249 19.9047 18.2843 19.9407 18.1813 19.9625C18.036 19.9907 17.9438 20 17.7705 20C17.5815 20 17.5206 19.9938 17.3503 19.9547C17.2394 19.9297 17.102 19.8906 17.041 19.8672C16.9817 19.8438 16.8645 19.7906 16.7833 19.7484C16.7021 19.7062 16.5818 19.6312 16.5162 19.5812C16.4491 19.5328 16.3616 19.4593 16.321 19.4202C16.2788 19.3812 16.2023 19.3046 16.1523 19.2483C16.1007 19.1936 16.0148 19.0811 15.9617 18.9999C15.9086 18.9186 15.8399 18.7983 15.8102 18.7342C15.7805 18.6701 15.7384 18.5607 15.7149 18.492C15.6915 18.4232 15.6634 18.3076 15.6509 18.2341C15.6384 18.1607 15.6197 18.0028 15.6103 17.8825C15.5978 17.7497 15.59 17.3402 15.5884 16.0072L15.2526 16.0056C14.9996 16.004 14.8965 15.9978 14.8309 15.979C14.784 15.965 14.7106 15.9306 14.6684 15.9025C14.6263 15.8743 14.5669 15.8228 14.5388 15.7884C14.5091 15.754 14.4716 15.6977 14.456 15.6634C14.4388 15.629 14.417 15.5602 14.406 15.5102C14.3889 15.4383 14.3889 15.3992 14.406 15.307C14.417 15.2461 14.442 15.1601 14.4623 15.1164C14.4826 15.0742 14.5263 15.0117 14.5591 14.9789C14.5935 14.9445 14.6544 14.9007 14.6981 14.8788C14.7403 14.857 14.8262 14.8288 14.8856 14.8163C14.9621 14.7991 15.0808 14.7929 15.5806 14.796L15.59 14.6835C15.5962 14.621 15.5947 14.2881 15.5759 13.3192L15.5244 13.2676C15.4791 13.2254 15.4603 13.2176 15.3963 13.2176C15.351 13.2176 15.3104 13.2286 15.2901 13.2458C15.2714 13.2598 15.2479 13.2879 15.2386 13.3067C15.2292 13.327 15.2104 13.4005 15.1979 13.4708C15.1854 13.5427 15.1558 13.638 15.1323 13.6849C15.1073 13.7302 15.0558 13.799 15.0136 13.8365C14.973 13.874 14.8996 13.924 14.8512 13.9474C14.7809 13.9818 14.7309 13.9928 14.6278 13.9974C14.5341 14.0006 14.4716 13.9959 14.417 13.9771C14.3748 13.9646 14.3045 13.9302 14.2623 13.9021C14.2186 13.874 14.1592 13.8193 14.128 13.7802C14.0968 13.7411 14.0562 13.6677 14.0359 13.6161C14.0062 13.5396 13.9999 13.4927 13.9999 13.3661C13.9999 13.2598 14.0109 13.1645 14.0327 13.0692C14.0515 12.991 14.0905 12.8801 14.1186 12.8191C14.1468 12.7582 14.1999 12.6644 14.2373 12.6081C14.2764 12.5519 14.3482 12.4644 14.4014 12.4128C14.4529 12.3597 14.5404 12.2878 14.5966 12.2487C14.6528 12.2112 14.7512 12.1565 14.8153 12.1268Z" fill="currentColor"/>
</svg>
