<svg viewBox="0 0 24 24" fill="currentColor" xmlns="http://www.w3.org/2000/svg">
<path d="M6.84042 2.0943C6.64466 2.14118 6.34476 2.24276 6.17399 2.31699C6.00322 2.39122 5.74081 2.52797 5.59086 2.62173C5.44092 2.7194 5.20767 2.89912 5.07022 3.03196C4.9286 3.16089 4.737 3.37967 4.63287 3.52032C4.53291 3.66097 4.39129 3.89539 4.31632 4.04776C4.24135 4.20013 4.13722 4.47752 4.08723 4.67287C4.02892 4.91119 3.99976 5.14951 3.99976 5.41518C3.99976 5.73164 4.01643 5.84885 4.09556 6.04029C4.14971 6.16922 4.25801 6.35284 4.34131 6.45051C4.42461 6.54819 4.58289 6.68493 4.69952 6.75525C4.81198 6.82558 4.99941 6.91153 5.11187 6.94279C5.25765 6.98967 5.42426 7.00139 5.67417 6.99358C5.94907 6.98186 6.08236 6.95451 6.26979 6.86855C6.39891 6.80995 6.59467 6.68493 6.70297 6.59116C6.81543 6.4974 6.95288 6.32549 7.01952 6.21219C7.082 6.09498 7.16114 5.85666 7.19446 5.67694C7.22778 5.50113 7.27776 5.31751 7.30276 5.26672C7.32775 5.21983 7.39022 5.14951 7.44021 5.11435C7.49435 5.07137 7.60265 5.04402 7.72344 5.04402C7.89421 5.04402 7.94419 5.06356 8.06498 5.16904L8.20243 5.29797C8.25242 7.72026 8.25658 8.55244 8.23992 8.70872L8.21493 8.99001C6.88207 8.9822 6.56552 8.99783 6.36142 9.0408C6.20315 9.07206 5.97406 9.14238 5.8616 9.19708C5.74498 9.25178 5.58253 9.36117 5.4909 9.44712C5.40343 9.52917 5.28681 9.68545 5.23266 9.79093C5.17851 9.90033 5.11187 10.1152 5.08271 10.2676C5.0369 10.4981 5.0369 10.5958 5.08271 10.7755C5.11187 10.9005 5.17018 11.0724 5.216 11.1584C5.25765 11.2443 5.35761 11.385 5.43675 11.4709C5.51173 11.5569 5.67 11.6858 5.78246 11.7561C5.89492 11.8265 6.09069 11.9124 6.21564 11.9476C6.39058 11.9945 6.66548 12.0101 7.34024 12.014L8.23576 12.0179C8.23992 15.3505 8.26075 16.3741 8.29407 16.7062C8.31906 17.007 8.36904 17.4016 8.40236 17.5853C8.43569 17.7689 8.51066 18.058 8.57314 18.2299C8.63561 18.4018 8.74807 18.6753 8.82721 18.8355C8.90635 18.9957 9.08962 19.2965 9.23124 19.4997C9.37285 19.7028 9.60194 19.9841 9.73939 20.1209C9.87267 20.2615 10.0767 20.453 10.1892 20.5506C10.2975 20.6483 10.5307 20.8319 10.7098 20.953C10.8848 21.0781 11.2055 21.2656 11.4221 21.3711C11.6387 21.4766 11.9511 21.6094 12.1093 21.668C12.2718 21.7266 12.6383 21.8243 12.934 21.8868C13.388 21.9845 13.5505 22.0001 14.0545 22.0001C14.5168 22.0001 14.7625 21.9767 15.1499 21.9063C15.4248 21.8516 15.7997 21.7618 15.9829 21.7071C16.1662 21.6485 16.4869 21.5234 16.691 21.4258C16.8951 21.332 17.1867 21.1757 17.3366 21.082C17.4866 20.9882 17.749 20.8007 17.9198 20.6639C18.0905 20.5233 18.3279 20.3084 18.4446 20.1795C18.5612 20.0544 18.7611 19.8161 18.8819 19.6559C19.0069 19.4958 19.2026 19.1871 19.3234 18.9722C19.4401 18.7573 19.6067 18.3901 19.69 18.1518C19.7733 17.9135 19.8816 17.511 19.9274 17.2532C20.0024 16.843 20.0107 16.6828 19.9899 15.9444C19.9732 15.3779 19.944 15.0301 19.8982 14.87C19.8649 14.741 19.7649 14.5027 19.6816 14.3425C19.5692 14.1276 19.4442 13.9714 19.2151 13.7565C18.9736 13.5299 18.8153 13.4205 18.5445 13.2955C18.3488 13.2056 18.0614 13.104 17.8989 13.0689C17.7282 13.0337 17.4366 13.0064 17.1909 13.0064C16.9534 13.0103 16.666 13.0376 16.5244 13.0728C16.387 13.104 16.1329 13.1978 15.9621 13.2759C15.7247 13.3814 15.5706 13.4908 15.3165 13.733C15.0708 13.9636 14.9417 14.1276 14.8292 14.3425C14.7417 14.5027 14.6418 14.7488 14.6001 14.8895C14.5543 15.0536 14.5293 15.2802 14.5335 15.5341C14.5335 15.8428 14.5585 15.9912 14.6418 16.2374C14.7042 16.4171 14.8375 16.675 14.9541 16.843C15.0666 17.0031 15.2707 17.2297 15.404 17.343C15.5414 17.4563 15.8038 17.6243 15.9913 17.7142L16.3328 17.8783C16.1496 18.0893 15.9871 18.2494 15.8497 18.3667C15.7164 18.4839 15.4915 18.6362 15.3582 18.7066C15.2207 18.773 14.9875 18.8589 14.8375 18.898C14.6751 18.9371 14.4168 18.9644 14.1919 18.9644C13.9753 18.9605 13.7046 18.9332 13.5463 18.8941C13.3964 18.8589 13.1714 18.7808 13.0465 18.7222C12.9215 18.6636 12.7341 18.562 12.63 18.4956C12.5258 18.4292 12.3301 18.2651 12.1926 18.1283C12.0427 17.9799 11.8761 17.7611 11.7844 17.5853C11.697 17.4251 11.597 17.1946 11.5595 17.0774C11.497 16.8898 11.4887 16.5656 11.4762 14.448L11.4637 12.0374C15.0041 12.014 15.3957 11.9984 15.5664 11.9515C15.6831 11.9202 15.8455 11.8616 15.933 11.8265C16.0163 11.7913 16.1829 11.6819 16.2995 11.5803C16.4161 11.4748 16.5536 11.3068 16.6077 11.1975C16.6619 11.092 16.7285 10.8966 16.7535 10.7677C16.791 10.588 16.7952 10.4708 16.7577 10.2793C16.7327 10.1387 16.666 9.93158 16.6077 9.82219C16.5494 9.70889 16.4203 9.53698 16.3162 9.43931C16.212 9.34164 16.0413 9.22052 15.9288 9.16973C15.8205 9.11894 15.6206 9.05643 15.4831 9.03299C15.3248 9.00564 14.5501 8.99001 13.3464 8.99001H11.4637C11.4346 5.05574 11.4304 4.93072 11.3429 4.62208C11.2971 4.44626 11.2013 4.19231 11.1388 4.05948C11.0764 3.92274 10.9472 3.70786 10.8556 3.57893C10.7681 3.45 10.589 3.24293 10.4641 3.11791C10.3391 2.98898 10.1225 2.80536 9.98513 2.70768C9.84768 2.61001 9.56445 2.45764 9.36036 2.36387C9.15626 2.27011 8.80639 2.14899 8.5898 2.0943C8.26491 2.01616 8.10664 1.99662 7.69428 2.00053C7.31525 2.00444 7.10699 2.02788 6.84042 2.0943Z" fill="currentColor"/>
</svg>
