<svg viewBox="0 0 24 24" fill="currentColor" xmlns="http://www.w3.org/2000/svg">
<path d="M9.41177 21.75C9.41177 22.1642 9.74756 22.5 10.1618 22.5H14.75C15.1642 22.5 15.5 22.1642 15.5 21.75V17.1558C15.5 16.7416 15.1642 16.4058 14.75 16.4058C14.3358 16.4058 14 16.7416 14 17.1558V19.9296L10.7254 16.63L10.7239 16.6285C10.0152 15.9092 8.86196 15.9097 8.15379 16.63L6.46956 18.343C6.35205 18.4626 6.16863 18.4659 6.04744 18.353L3.31235 15.2537C3.03827 14.9432 2.56432 14.9136 2.25375 15.1877C1.94318 15.4617 1.91359 15.9357 2.18767 16.2463L4.95338 19.3803L4.96755 19.3947C5.6762 20.1154 6.83051 20.1154 7.53917 19.3947L9.2234 17.6816C9.34429 17.5587 9.53492 17.5587 9.6558 17.6816L9.65826 17.6841L12.949 21H10.1618C9.74756 21 9.41177 21.3358 9.41177 21.75Z" fill="currentColor"/>
<path d="M6.85967 15.8067C5.69592 14.3524 5 12.5075 5 10.5C5 5.80558 8.80558 2 13.5 2C18.1944 2 22 5.80558 22 10.5C22 13.9467 19.9485 16.9143 17 18.2483V17.1558C17 16.5411 16.7535 15.984 16.354 15.5779C16.4115 15.5476 16.4645 15.5179 16.5019 15.4951C16.5863 15.4435 16.7339 15.3404 16.8299 15.2652C16.926 15.1878 17.0595 15.0696 17.1251 14.9987C17.1907 14.9299 17.3032 14.7989 17.3711 14.7108C17.4414 14.6227 17.5515 14.4529 17.6195 14.3347C17.6851 14.2165 17.7788 14.0146 17.8257 13.8835C17.8725 13.7524 17.9334 13.5311 17.9592 13.3892C18.0014 13.1636 18.0061 13.0755 17.9944 12.6694C17.985 12.3578 17.9686 12.1666 17.9428 12.0785C17.9241 12.0076 17.8678 11.8765 17.821 11.7884C17.7577 11.6702 17.6874 11.5843 17.5586 11.4661C17.4227 11.3414 17.3336 11.2813 17.1814 11.2125C17.0712 11.1631 16.9096 11.1072 16.8182 11.0879C16.7221 11.0685 16.5581 11.0535 16.4199 11.0535C16.2864 11.0556 16.1247 11.0707 16.045 11.09C15.9677 11.1072 15.8248 11.1588 15.7288 11.2018C15.5952 11.2598 15.5085 11.3199 15.3656 11.4532C15.2274 11.58 15.1547 11.6702 15.0915 11.7884C15.0423 11.8765 14.986 12.0119 14.9626 12.0892C14.9368 12.1795 14.9228 12.3041 14.9251 12.4438C14.9251 12.6135 14.9392 12.6952 14.986 12.8306C15.0212 12.9294 15.0962 13.0712 15.1618 13.1636C15.225 13.2517 15.3398 13.3764 15.4148 13.4387C15.4921 13.501 15.6397 13.5934 15.7452 13.6428L15.9373 13.7331C15.8342 13.8491 15.7428 13.9372 15.6655 14.0017C15.5905 14.0661 15.464 14.1499 15.389 14.1886C15.3117 14.2251 15.1805 14.2724 15.0962 14.2939C15.0048 14.3154 14.8595 14.3304 14.733 14.3304C14.6112 14.3283 14.4589 14.3132 14.3699 14.2917C14.2855 14.2724 14.159 14.2294 14.0887 14.1972C14.0184 14.165 13.913 14.1091 13.8544 14.0726C13.7958 14.036 13.6857 13.9458 13.6084 13.8706C13.5241 13.7889 13.4303 13.6686 13.3788 13.5719C13.3296 13.4838 13.2734 13.357 13.2523 13.2926C13.2171 13.1894 13.2125 13.0111 13.2054 11.8464L13.1984 10.5206C15.1899 10.5077 15.4101 10.4991 15.5062 10.4733C15.5718 10.4561 15.6631 10.4239 15.7123 10.4046C15.7592 10.3852 15.8529 10.3251 15.9185 10.2692C15.9841 10.2112 16.0614 10.1188 16.0919 10.0586C16.1224 10.0006 16.1598 9.89314 16.1739 9.82223C16.195 9.72339 16.1973 9.65892 16.1762 9.55363C16.1622 9.47627 16.1247 9.36239 16.0919 9.30222C16.0591 9.2399 15.9865 9.14536 15.9279 9.09164C15.8693 9.03792 15.7733 8.9713 15.71 8.94337C15.6491 8.91543 15.5366 8.88105 15.4593 8.86816C15.3703 8.85312 14.9345 8.84452 14.2574 8.84452H13.1984C13.182 6.68068 13.1797 6.61191 13.1305 6.44216C13.1047 6.34546 13.0508 6.20579 13.0157 6.13273C12.9805 6.05752 12.9079 5.93934 12.8563 5.86843C12.8071 5.79752 12.7064 5.68363 12.6361 5.61487C12.5658 5.54396 12.444 5.44296 12.3667 5.38924C12.2893 5.33552 12.13 5.25172 12.0152 5.20015C11.9004 5.14858 11.7036 5.08196 11.5818 5.05188C11.399 5.0089 11.31 4.99816 11.0781 5.00031C10.8649 5.00246 10.7477 5.01535 10.5978 5.05188C10.4876 5.07767 10.319 5.13353 10.2229 5.17436C10.1268 5.21519 9.97923 5.2904 9.89489 5.34197C9.81054 5.39569 9.67934 5.49453 9.60203 5.56759C9.52237 5.6385 9.41459 5.75884 9.35602 5.83619C9.29979 5.91355 9.22013 6.04248 9.17796 6.12628C9.13579 6.21009 9.07721 6.36265 9.0491 6.47009C9.0163 6.60117 8.9999 6.73225 8.9999 6.87837C8.9999 7.05242 9.00927 7.11688 9.05378 7.22217C9.08424 7.29309 9.14516 7.39408 9.19201 7.4478C9.23887 7.50152 9.3279 7.57673 9.39351 7.61541C9.45676 7.65409 9.5622 7.70136 9.62545 7.71855C9.70746 7.74433 9.80117 7.75078 9.94175 7.74648C10.0964 7.74004 10.1714 7.725 10.2768 7.67772C10.3494 7.64549 10.4595 7.57673 10.5204 7.52516C10.5837 7.47359 10.661 7.37904 10.6985 7.31672C10.7337 7.25226 10.7782 7.12118 10.7969 7.02234C10.8157 6.92564 10.8438 6.82465 10.8578 6.79671C10.8719 6.77093 10.907 6.73225 10.9351 6.71291C10.9656 6.68927 11.0265 6.67423 11.0945 6.67423C11.1905 6.67423 11.2186 6.68497 11.2866 6.74299L11.3639 6.8139C11.392 8.14616 11.3944 8.60386 11.385 8.68981L11.3709 8.84452C10.6212 8.84023 10.4431 8.84882 10.3283 8.87246C10.2393 8.88965 10.1104 8.92833 10.0472 8.95841C9.98158 8.98849 9.8902 9.04866 9.83866 9.09593C9.78946 9.14106 9.72386 9.22701 9.6934 9.28503C9.66294 9.3452 9.62545 9.46338 9.60905 9.54718C9.58328 9.67396 9.58328 9.72768 9.60905 9.82653C9.62545 9.89529 9.65826 9.98984 9.68403 10.0371C9.70746 10.0844 9.76369 10.1617 9.8082 10.209C9.85037 10.2563 9.93941 10.3272 10.0027 10.3659C10.0659 10.4046 10.176 10.4518 10.2463 10.4712C10.3447 10.497 10.4994 10.5056 10.8789 10.5077L11.3826 10.5098C11.385 12.3428 11.3967 12.9058 11.4154 13.0884C11.4295 13.2539 11.4576 13.4709 11.4764 13.5719C11.4951 13.6729 11.5373 13.8319 11.5724 13.9265C11.6076 14.021 11.6708 14.1714 11.7153 14.2595C11.7599 14.3476 11.8629 14.5131 11.9426 14.6248C12.0223 14.7366 12.1511 14.8913 12.2284 14.9665C12.3034 15.0438 12.4182 15.1491 12.4815 15.2028C12.5424 15.2566 12.6736 15.3576 12.7743 15.4242C12.8554 15.4808 12.9922 15.5608 13.106 15.6197C12.8945 15.846 12.7291 16.116 12.625 16.4146L11.7924 15.5757C10.4957 14.26 8.37964 14.2608 7.08419 15.5784L6.85967 15.8067Z" fill="currentColor"/>
</svg>
