<svg viewBox="0 0 24 24" fill="currentColor" xmlns="http://www.w3.org/2000/svg">
<path d="M12 22C17.5228 22 22 17.5228 22 12C22 6.47715 17.5228 2 12 2C6.47715 2 2 6.47715 2 12C2 17.5228 6.47715 22 12 22ZM8.35878 6.19021C8.46551 6.14567 8.65294 6.08473 8.77529 6.0566C8.9419 6.01675 9.07206 6.00268 9.30896 6.00034C9.56668 5.99799 9.6656 6.00971 9.86865 6.0566C10.004 6.08941 10.2227 6.16208 10.3503 6.21834C10.4778 6.2746 10.6548 6.36602 10.7407 6.42463C10.8266 6.48323 10.962 6.59341 11.0401 6.67076C11.1182 6.74578 11.2301 6.87002 11.2848 6.94737C11.3421 7.02473 11.4228 7.15366 11.4618 7.2357C11.5009 7.31541 11.5608 7.46778 11.5894 7.57326C11.6441 7.75845 11.6467 7.83346 11.6649 10.194H12.8416C13.5939 10.194 14.0781 10.2034 14.177 10.2198C14.2629 10.2339 14.3879 10.2714 14.4556 10.3019C14.5259 10.3323 14.6326 10.405 14.6977 10.4636C14.7627 10.5222 14.8434 10.6253 14.8799 10.6933C14.9163 10.759 14.958 10.8832 14.9736 10.9676C14.997 11.0825 14.9944 11.1528 14.971 11.2606C14.9554 11.338 14.9137 11.4552 14.8799 11.5185C14.846 11.5841 14.7601 11.6849 14.6873 11.7482C14.6144 11.8091 14.5102 11.8748 14.4582 11.8959C14.4035 11.917 14.302 11.9521 14.2291 11.9709C14.1223 11.999 13.8776 12.0084 11.6649 12.0225L11.6727 13.4688C11.6805 14.7393 11.6857 14.9339 11.7248 15.0464C11.7482 15.1167 11.8107 15.2551 11.8653 15.3512C11.9226 15.4566 12.0267 15.5879 12.1205 15.677C12.2064 15.759 12.3287 15.8575 12.3938 15.8973C12.4589 15.9372 12.576 15.9981 12.6541 16.0333C12.7322 16.0685 12.8728 16.1154 12.9665 16.1365C13.0654 16.1599 13.2346 16.1763 13.37 16.1786C13.5106 16.1786 13.672 16.1622 13.7735 16.1388C13.8672 16.1154 14.013 16.0638 14.0989 16.0239C14.1822 15.9817 14.3228 15.8903 14.4061 15.82C14.492 15.7497 14.5935 15.6536 14.7081 15.527L14.4946 15.4285C14.3775 15.3746 14.2135 15.2738 14.1276 15.2058C14.0443 15.1378 13.9167 15.0019 13.8464 14.9058C13.7735 14.805 13.6902 14.6503 13.6512 14.5424C13.5991 14.3947 13.5835 14.3057 13.5835 14.1205C13.5809 13.9681 13.5965 13.8322 13.6251 13.7337C13.6512 13.6493 13.7136 13.5016 13.7683 13.4055C13.8386 13.2766 13.9193 13.1781 14.0729 13.0398C14.2317 12.8945 14.328 12.8289 14.4764 12.7656C14.5831 12.7187 14.7419 12.6624 14.8278 12.6437C14.9163 12.6226 15.096 12.6062 15.2443 12.6038C15.3979 12.6038 15.5802 12.6202 15.6869 12.6413C15.7884 12.6624 15.968 12.7234 16.0904 12.7773C16.2596 12.8523 16.3585 12.9179 16.5095 13.0539C16.6527 13.1828 16.7308 13.2766 16.8011 13.4055C16.8531 13.5016 16.9156 13.6446 16.9365 13.722C16.9651 13.8181 16.9833 14.0267 16.9937 14.3666C17.0067 14.8097 17.0015 14.9058 16.9547 15.1519C16.926 15.3066 16.8584 15.5481 16.8063 15.6911C16.7542 15.8341 16.6501 16.0544 16.5772 16.1833C16.5017 16.3123 16.3794 16.4975 16.3013 16.5936C16.2258 16.6897 16.1008 16.8327 16.0279 16.9077C15.955 16.985 15.8066 17.114 15.6999 17.1984C15.5932 17.2804 15.4292 17.3929 15.3355 17.4492C15.2417 17.5054 15.0595 17.5992 14.932 17.6555C14.8044 17.7141 14.6039 17.7891 14.4894 17.8242C14.3749 17.8571 14.1406 17.911 13.9688 17.9438C13.7267 17.986 13.5731 18.0001 13.2841 18.0001C12.9691 18.0001 12.8676 17.9907 12.5838 17.9321C12.399 17.8946 12.1699 17.836 12.0684 17.8008C11.9695 17.7656 11.7742 17.6859 11.6389 17.6226C11.5035 17.5594 11.303 17.4468 11.1937 17.3718C11.0818 17.2992 10.936 17.189 10.8683 17.1304C10.798 17.0718 10.6705 16.9569 10.5871 16.8725C10.5012 16.7905 10.3581 16.6217 10.2696 16.4998C10.181 16.3779 10.0665 16.1974 10.017 16.1013C9.96758 16.0052 9.89729 15.8411 9.85824 15.7379C9.81919 15.6348 9.77234 15.4613 9.75151 15.3512C9.73068 15.241 9.69944 15.0042 9.68382 14.8237C9.663 14.6245 9.64998 14.0103 9.64738 12.0107L9.08768 12.0084C8.66596 12.0061 8.49414 11.9967 8.38481 11.9685C8.30671 11.9475 8.18436 11.8959 8.11407 11.8537C8.04378 11.8115 7.94486 11.7341 7.898 11.6826C7.84854 11.631 7.78606 11.5466 7.76003 11.495C7.73139 11.4435 7.69495 11.3403 7.67673 11.2653C7.64809 11.1575 7.64809 11.0989 7.67673 10.9606C7.69495 10.8691 7.7366 10.7402 7.77044 10.6746C7.80429 10.6113 7.87718 10.5175 7.93184 10.4683C7.98912 10.4167 8.09064 10.3511 8.16353 10.3183C8.23382 10.2854 8.377 10.2433 8.47592 10.2245C8.60348 10.1987 8.80133 10.1893 9.63436 10.194L9.64998 10.0252C9.6604 9.93148 9.65779 9.43218 9.62655 7.9788L9.54065 7.90144C9.46515 7.83815 9.43391 7.82643 9.32718 7.82643C9.25169 7.82643 9.184 7.84284 9.15016 7.86863C9.11892 7.88972 9.07987 7.93192 9.06425 7.96005C9.04863 7.99052 9.0174 8.1007 8.99657 8.20618C8.97574 8.31402 8.92628 8.45701 8.88723 8.52733C8.84558 8.59531 8.75967 8.69846 8.68939 8.75472C8.6217 8.81098 8.49935 8.88599 8.41865 8.92115C8.3015 8.97272 8.2182 8.98913 8.04639 8.99616C7.89019 9.00085 7.78606 8.99382 7.69495 8.96569C7.62466 8.94694 7.50752 8.89537 7.43723 8.85317C7.36434 8.81098 7.26541 8.72893 7.21335 8.67033C7.16128 8.61172 7.0936 8.50155 7.05976 8.42419C7.0103 8.30933 6.99988 8.239 6.99988 8.04913C6.99988 7.88972 7.01811 7.74673 7.05455 7.60374C7.08579 7.48653 7.15087 7.32009 7.19773 7.22867C7.24459 7.13725 7.3331 6.9966 7.39558 6.91221C7.46066 6.82782 7.58041 6.69655 7.66892 6.61919C7.75482 6.53949 7.90061 6.43166 7.99432 6.37306C8.08804 6.3168 8.25204 6.23475 8.35878 6.19021Z" fill="currentColor"/>
</svg>
