<svg viewBox="0 0 24 24" fill="currentColor" xmlns="http://www.w3.org/2000/svg">
<path d="M8.55852 16.9415C4.86078 16.4784 2 13.3233 2 9.5C2 5.35786 5.35786 2 9.5 2C13.3233 2 16.4784 4.86078 16.9415 8.55852C16.6331 8.5199 16.3189 8.5 16 8.5C14.5062 8.5 13.1144 8.93673 11.9453 9.68947C11.6119 9.35213 11.1097 9.10622 10.4387 8.95173L9.20853 8.67471C8.84651 8.59007 8.59161 8.48234 8.44385 8.35152C8.30347 8.22071 8.23328 8.04757 8.23328 7.83211C8.23328 7.5397 8.3515 7.30115 8.58792 7.11647C8.83173 6.93179 9.17159 6.83946 9.6075 6.83946C9.95475 6.83946 10.2466 6.87408 10.483 6.94334C10.7194 7.01259 10.9374 7.09724 11.1369 7.19727C11.329 7.29731 11.4952 7.33578 11.6356 7.3127C11.7833 7.28192 11.9016 7.21651 11.9902 7.11647C12.0789 7.00874 12.1343 6.88562 12.1564 6.74711C12.186 6.6086 12.1712 6.47009 12.1121 6.33158C12.0604 6.19307 11.9644 6.07765 11.824 5.98531C11.5654 5.79293 11.2588 5.64673 10.9041 5.54669C10.6605 5.47111 10.4278 5.41825 10.2059 5.38812V4.69255C10.2059 4.50017 10.1431 4.33858 10.0175 4.20777C9.89195 4.06926 9.73679 4 9.55209 4C9.35999 4 9.20114 4.06926 9.07554 4.20777C8.94994 4.33858 8.88714 4.50017 8.88714 4.69255V5.41867C8.47673 5.48267 8.11102 5.60614 7.78999 5.78909C7.4058 6.01224 7.10288 6.30465 6.88123 6.66632C6.66698 7.02798 6.55985 7.43966 6.55985 7.90136C6.55985 8.49388 6.72608 8.97866 7.05855 9.35572C7.39102 9.72508 7.89712 9.98671 8.57684 10.1406L9.7959 10.4176C10.0471 10.4715 10.2466 10.5407 10.3943 10.6254C10.4854 10.6705 10.5599 10.721 10.6178 10.7767C10.2135 11.1933 9.85709 11.6567 9.55752 12.1579C9.5092 12.1597 9.45937 12.1605 9.40802 12.1605C8.94994 12.1605 8.56206 12.1105 8.24437 12.0105C7.92667 11.9028 7.67917 11.7989 7.50185 11.6988C7.31714 11.5988 7.15091 11.568 7.00314 11.6065C6.86276 11.645 6.74825 11.7258 6.65959 11.8489C6.57093 11.9643 6.51921 12.1028 6.50443 12.2644C6.48966 12.4183 6.51182 12.5684 6.57093 12.7146C6.63742 12.8608 6.75194 12.9762 6.91448 13.0609C7.16568 13.1994 7.47968 13.3263 7.85648 13.4418C8.15694 13.5338 8.49967 13.594 8.88468 13.6225C8.63515 14.3696 8.5 15.169 8.5 16C8.5 16.3189 8.5199 16.6331 8.55852 16.9415Z" fill="currentColor"/>
<path d="M16 22C19.3137 22 22 19.3137 22 16C22 12.6863 19.3137 10 16 10C12.6863 10 10 12.6863 10 16C10 19.3137 12.6863 22 16 22ZM18.5303 13.4697C18.8232 13.7626 18.8232 14.2374 18.5303 14.5303L14.5303 18.5303C14.2374 18.8232 13.7626 18.8232 13.4697 18.5303C13.1768 18.2374 13.1768 17.7626 13.4697 17.4697L17.4697 13.4697C17.7626 13.1768 18.2374 13.1768 18.5303 13.4697ZM15 14C15 14.5523 14.5523 15 14 15C13.4477 15 13 14.5523 13 14C13 13.4477 13.4477 13 14 13C14.5523 13 15 13.4477 15 14ZM18 19C17.4477 19 17 18.5523 17 18C17 17.4477 17.4477 17 18 17C18.5523 17 19 17.4477 19 18C19 18.5523 18.5523 19 18 19Z" fill="currentColor"/>
</svg>
