<svg viewBox="0 0 24 24" fill="currentColor" xmlns="http://www.w3.org/2000/svg">
<path d="M11.25 9.86277C11.0127 9.83474 10.7984 9.79199 10.6069 9.73452C10.3134 9.64638 10.0737 9.55824 9.88798 9.47009C9.73219 9.39454 9.62135 9.28751 9.55544 9.149C9.49553 9.01049 9.47156 8.86883 9.48354 8.72403C9.50152 8.57922 9.55245 8.44701 9.63633 8.32739C9.72021 8.20777 9.82806 8.12907 9.95988 8.09129C10.0977 8.04722 10.2564 8.06611 10.4362 8.14795C10.556 8.21721 10.7358 8.28961 10.9754 8.36516C11.2211 8.43442 11.5237 8.46904 11.8832 8.46904C12.1348 8.46904 12.3325 8.44386 12.4763 8.39349C12.6261 8.34313 12.731 8.27702 12.7909 8.19517C12.8568 8.10703 12.8897 8.01259 12.8897 7.91186C12.8897 7.81742 12.8658 7.73872 12.8178 7.67576C12.7759 7.60651 12.704 7.54669 12.6021 7.49633C12.5003 7.43966 12.3595 7.3893 12.1797 7.34523L11.1642 7.11857C10.6069 6.98636 10.1905 6.766 9.91494 6.4575C9.64532 6.14271 9.5105 5.73662 9.5105 5.23924C9.5105 4.86149 9.59738 4.52466 9.77114 4.22875C9.95089 3.92655 10.1995 3.68101 10.5171 3.49213C10.7714 3.34368 11.059 3.23802 11.3799 3.17513V2.66107C11.3799 2.47219 11.4398 2.3148 11.5596 2.18888C11.6794 2.06296 11.8262 2 12 2C12.1797 2 12.3295 2.06296 12.4494 2.18888C12.5692 2.3148 12.6291 2.47219 12.6291 2.66107V3.13686C12.7781 3.15711 12.9338 3.19054 13.0965 3.23715C13.3601 3.3064 13.5908 3.40399 13.7885 3.52991C13.9263 3.60546 14.0222 3.70934 14.0761 3.84155C14.136 3.97377 14.157 4.10913 14.139 4.24764C14.127 4.37985 14.0791 4.49948 13.9952 4.60651C13.9173 4.71354 13.8095 4.78594 13.6716 4.82371C13.5398 4.85519 13.3811 4.83001 13.1953 4.74816C13.0575 4.6852 12.9017 4.63484 12.728 4.59706C12.5602 4.55299 12.3445 4.53095 12.0809 4.53095C11.7633 4.53095 11.5177 4.59077 11.3439 4.71039C11.1761 4.83001 11.0923 4.98426 11.0923 5.17314C11.0923 5.29906 11.1402 5.40609 11.2361 5.49423C11.3379 5.57608 11.5207 5.64848 11.7843 5.71144L12.8089 5.94753C13.3781 6.07975 13.7975 6.30011 14.0671 6.6086C14.3427 6.91081 14.4805 7.3043 14.4805 7.78909C14.4805 8.16684 14.3936 8.50052 14.2199 8.79014C14.0461 9.07975 13.8035 9.31584 13.4919 9.49843C13.2712 9.63031 13.0239 9.72935 12.75 9.79553V14.1893L15.005 11.9343C15.04 10.9054 15.2784 9.33314 16.3058 8.30578C17.4201 7.19144 19.1755 7.00531 20.1833 7.00011C20.6435 6.99774 21.0022 7.35652 20.9999 7.81664C20.9947 8.8245 20.8086 10.5799 19.6942 11.6942C18.6669 12.7216 17.0946 12.96 16.0656 12.995L13.0606 16H14.8195C15.4375 16 15.9075 16.5549 15.8059 17.1644L15.1393 21.1644C15.0589 21.6466 14.6417 22 14.1529 22H9.84715C9.35831 22 8.94112 21.6466 8.86075 21.1644L8.19409 17.1644C8.0925 16.5549 8.56254 16 9.18048 16H10.9393L7.93437 12.995C6.90539 12.96 5.33316 12.7216 4.3058 11.6942C3.19146 10.5799 3.00533 8.8245 3.00013 7.81664C2.99776 7.35652 3.35653 6.99774 3.81666 7.00011C4.82451 7.00531 6.5799 7.19144 7.69424 8.30578C8.7216 9.33314 8.96 10.9054 8.99503 11.9343L11.25 14.1893V9.86277Z" fill="currentColor"/>
</svg>
