<svg viewBox="0 0 24 24" fill="currentColor" xmlns="http://www.w3.org/2000/svg">
<path d="M11.75 12C11.75 10.7574 12.7574 9.75 14 9.75C15.2426 9.75 16.25 10.7574 16.25 12C16.25 13.2426 15.2426 14.25 14 14.25C12.7574 14.25 11.75 13.2426 11.75 12Z" fill="currentColor"/>
<path d="M2 5C2 3.34315 3.34315 2 5 2H19C20.6569 2 22 3.34315 22 5V19C22 20.6569 20.6569 22 19 22H5C3.34315 22 2 20.6569 2 19V5ZM6 5.25C5.58579 5.25 5.25 5.58579 5.25 6V18C5.25 18.4142 5.58579 18.75 6 18.75C6.41421 18.75 6.75 18.4142 6.75 18V6C6.75 5.58579 6.41421 5.25 6 5.25ZM14 8.25C13.2357 8.25 12.5248 8.47866 11.932 8.8713L10.5303 7.46967C10.2374 7.17678 9.76256 7.17678 9.46967 7.46967C9.17678 7.76256 9.17678 8.23744 9.46967 8.53033L10.8713 9.93196C10.4787 10.5248 10.25 11.2357 10.25 12C10.25 12.7643 10.4787 13.4752 10.8713 14.068L9.46967 15.4697C9.17678 15.7626 9.17678 16.2374 9.46967 16.5303C9.76256 16.8232 10.2374 16.8232 10.5303 16.5303L11.932 15.1287C12.5248 15.5213 13.2357 15.75 14 15.75C14.7643 15.75 15.4752 15.5213 16.068 15.1287L17.4697 16.5303C17.7626 16.8232 18.2374 16.8232 18.5303 16.5303C18.8232 16.2374 18.8232 15.7626 18.5303 15.4697L17.1287 14.068C17.5213 13.4752 17.75 12.7643 17.75 12C17.75 11.2357 17.5213 10.5248 17.1287 9.93196L18.5303 8.53033C18.8232 8.23744 18.8232 7.76256 18.5303 7.46967C18.2374 7.17678 17.7626 7.17678 17.4697 7.46967L16.068 8.8713C15.4752 8.47866 14.7643 8.25 14 8.25Z" fill="currentColor"/>
</svg>
