<svg viewBox="0 0 24 24" fill="currentColor" xmlns="http://www.w3.org/2000/svg">
<path d="M4 9.94519C2.89543 9.94519 2 10.8447 2 11.9543V19.9909C2 21.1005 2.89543 22 4 22H20C21.1046 22 22 21.1005 22 19.9909V18.9863H19C17.3431 18.9863 16 17.637 16 15.9726C16 14.3082 17.3431 12.9589 19 12.9589H22V11.9543C22 10.8447 21.1046 9.94519 20 9.94519H4Z" fill="currentColor"/>
<path d="M4.33337 8.43837H20C20.3475 8.43837 20.6831 8.48924 21 8.58397V4.01143C21 2.55349 19.5028 1.58097 18.1793 2.17926L4.33337 8.43837Z" fill="currentColor"/>
<path d="M20 15.9726C20 16.5274 19.5523 16.9772 19 16.9772C18.4477 16.9772 18 16.5274 18 15.9726C18 15.4178 18.4477 14.968 19 14.968C19.5523 14.968 20 15.4178 20 15.9726Z" fill="currentColor"/>
</svg>
