<svg viewBox="0 0 24 24" fill="currentColor" xmlns="http://www.w3.org/2000/svg">
<path d="M2 5C2 3.89543 2.89543 3 4 3H20C21.1046 3 22 3.89543 22 5V6.25H2V5Z" fill="currentColor"/>
<path d="M2 7.75H22V19C22 20.1046 21.1046 21 20 21H4C2.89543 21 2 20.1046 2 19V7.75ZM11.6463 18.8111C11.751 18.937 11.8833 19 12.0434 19C12.2035 19 12.3328 18.937 12.4313 18.8111C12.536 18.6922 12.5883 18.5453 12.5883 18.3704V17.7092C12.9271 17.6434 13.2288 17.5281 13.4934 17.3631C13.8074 17.1672 14.0536 16.9119 14.2322 16.5971C14.4107 16.2753 14.5 15.908 14.5 15.4953C14.5 14.9706 14.3584 14.5439 14.0752 14.2151C13.7981 13.8863 13.3671 13.6485 12.7822 13.5016L11.7571 13.2497C11.4554 13.1728 11.243 13.0749 11.1199 12.9559C11.0029 12.837 10.9444 12.6796 10.9444 12.4837C10.9444 12.2179 11.0429 12.001 11.2399 11.8332C11.4431 11.6653 11.7263 11.5813 12.0896 11.5813C12.379 11.5813 12.6222 11.6128 12.8192 11.6758C13.0162 11.7387 13.1978 11.8157 13.3641 11.9066C13.5241 11.9976 13.6627 12.0325 13.7796 12.0115C13.9028 11.9836 14.0013 11.9241 14.0752 11.8332C14.1491 11.7352 14.1952 11.6233 14.2137 11.4974C14.2383 11.3715 14.226 11.2455 14.1768 11.1196C14.1337 10.9937 14.0536 10.8888 13.9366 10.8048C13.7212 10.6299 13.4656 10.497 13.1701 10.4061C12.9671 10.3374 12.7731 10.2893 12.5883 10.2619V9.62959C12.5883 9.4547 12.536 9.3078 12.4313 9.18888C12.3266 9.06296 12.1973 9 12.0434 9C11.8833 9 11.751 9.06296 11.6463 9.18888C11.5416 9.3078 11.4893 9.4547 11.4893 9.62959V10.2897C11.1473 10.3479 10.8425 10.4601 10.575 10.6264C10.2548 10.8293 10.0024 11.0951 9.81769 11.4239C9.63915 11.7527 9.54987 12.127 9.54987 12.5467C9.54987 13.0853 9.6884 13.5261 9.96546 13.8688C10.2425 14.2046 10.6643 14.4425 11.2307 14.5824L12.2466 14.8342C12.4559 14.8832 12.6222 14.9461 12.7453 15.0231C12.8746 15.093 12.9639 15.177 13.0131 15.2749C13.0685 15.3729 13.0962 15.4848 13.0962 15.6107C13.0962 15.7646 13.0562 15.901 12.9762 16.0199C12.9023 16.1389 12.7792 16.2368 12.6068 16.3137C12.4344 16.3837 12.2066 16.4187 11.9233 16.4187C11.5416 16.4187 11.2184 16.3732 10.9536 16.2823C10.6889 16.1843 10.4826 16.0899 10.3349 15.999C10.181 15.908 10.0424 15.88 9.91928 15.915C9.8023 15.95 9.70687 16.0234 9.63299 16.1354C9.55911 16.2403 9.51601 16.3662 9.50369 16.5131C9.49138 16.653 9.50985 16.7894 9.55911 16.9223C9.61452 17.0553 9.70995 17.1602 9.8454 17.2371C10.0547 17.3631 10.3164 17.4785 10.6304 17.5834C10.8813 17.6673 11.1676 17.7221 11.4893 17.7479V18.3704C11.4893 18.5453 11.5416 18.6922 11.6463 18.8111Z" fill="currentColor"/>
</svg>
