<svg viewBox="0 0 24 24" fill="currentColor" xmlns="http://www.w3.org/2000/svg">
<path d="M20 2C21.1046 2 22 2.89543 22 4V11.5C22 11.7761 21.7761 12 21.5 12H20C19.7239 12 19.5 11.7761 19.5 11.5V5.5C19.5 4.94772 19.0523 4.5 18.5 4.5H5.5C4.94772 4.5 4.5 4.94772 4.5 5.5V11.5C4.5 11.7761 4.27614 12 4 12H2.5C2.22386 12 2 11.7761 2 11.5V4C2 2.89543 2.89543 2 4 2H20Z" fill="currentColor"/>
<path d="M7 6.00006H11.25V8.18932L10.5303 7.46965C10.2374 7.17676 9.76256 7.17676 9.46967 7.46965C9.17678 7.76254 9.17678 8.23742 9.46967 8.53031L11.4697 10.5303C11.7626 10.8232 12.2374 10.8232 12.5303 10.5303L14.5303 8.53031C14.8232 8.23742 14.8232 7.76254 14.5303 7.46965C14.2374 7.17676 13.7626 7.17676 13.4697 7.46965L12.75 8.18932V6.00006H17C17.5523 6.00006 18 6.44777 18 7.00006V21.0001C18 21.5524 17.5523 22.0001 17 22.0001H7C6.44772 22.0001 6 21.5524 6 21.0001V7.00006C6 6.44777 6.44772 6.00006 7 6.00006ZM14.5513 19.6011C14.5609 19.6083 14.5707 19.6153 14.5807 19.622C14.7004 19.7029 14.8447 19.7501 15 19.7501C15.4142 19.7501 15.75 19.4144 15.75 19.0001V17.0001C15.75 16.7607 15.6378 16.5474 15.463 16.4101C15.4489 16.399 15.4343 16.3883 15.4193 16.3782C15.2996 16.2973 15.1552 16.25 14.9998 16.25C14.5856 16.25 14.2498 16.5858 14.2498 17V19C14.2498 19.246 14.3683 19.4644 14.5513 19.6011ZM9 16.25C8.58579 16.25 8.25 16.5858 8.25 17V19C8.25 19.4142 8.58579 19.75 9 19.75C9.41421 19.75 9.75 19.4142 9.75 19V17C9.75 16.5858 9.41421 16.25 9 16.25ZM10 13.9998C10 15.1044 10.8954 15.9998 12 15.9998C13.1046 15.9998 14 15.1044 14 13.9998C14 12.8953 13.1046 11.9998 12 11.9998C10.8954 11.9998 10 12.8953 10 13.9998Z" fill="currentColor"/>
</svg>
