<svg viewBox="0 0 24 24" fill="currentColor" xmlns="http://www.w3.org/2000/svg">
<path d="M12 22C17.5228 22 22 17.5228 22 12C22 6.47715 17.5228 2 12 2C6.47715 2 2 6.47715 2 12C2 17.5228 6.47715 22 12 22ZM8.53033 6.46967L12 9.93934L15.4697 6.46967C15.7626 6.17678 16.2374 6.17678 16.5303 6.46967C16.8232 6.76256 16.8232 7.23744 16.5303 7.53033L12.75 11.3107V12.25H15C15.4142 12.25 15.75 12.5858 15.75 13C15.75 13.4142 15.4142 13.75 15 13.75H12.75V15.25H15C15.4142 15.25 15.75 15.5858 15.75 16C15.75 16.4142 15.4142 16.75 15 16.75H12.75V18C12.75 18.4142 12.4142 18.75 12 18.75C11.5858 18.75 11.25 18.4142 11.25 18V16.75H9C8.58579 16.75 8.25 16.4142 8.25 16C8.25 15.5858 8.58579 15.25 9 15.25H11.25V13.75H9C8.58579 13.75 8.25 13.4142 8.25 13C8.25 12.5858 8.58579 12.25 9 12.25H11.25V11.3107L7.46967 7.53033C7.17678 7.23744 7.17678 6.76256 7.46967 6.46967C7.76256 6.17678 8.23744 6.17678 8.53033 6.46967Z" fill="currentColor"/>
</svg>
