<svg viewBox="0 0 24 24" fill="currentColor" xmlns="http://www.w3.org/2000/svg">
<path d="M15.4118 15.75C15.4118 15.3358 15.7476 15 16.1618 15H20.75C21.1642 15 21.5 15.3358 21.5 15.75V20.3442C21.5 20.7584 21.1642 21.0942 20.75 21.0942C20.3358 21.0942 20 20.7584 20 20.3442V17.5704L16.7254 20.87L16.7239 20.8715C16.0152 21.5908 14.862 21.5903 14.1538 20.87L12.4696 19.157C12.3521 19.0374 12.1686 19.0341 12.0474 19.147L9.31235 22.2463C9.03827 22.5568 8.56432 22.5864 8.25375 22.3123C7.94318 22.0383 7.91359 21.5643 8.18767 21.2537L10.9534 18.1197L10.9675 18.1053C11.6762 17.3846 12.8305 17.3846 13.5392 18.1053L15.2234 19.8184C15.3443 19.9413 15.5349 19.9413 15.6558 19.8184L15.6583 19.8159L18.949 16.5H16.1618C15.7476 16.5 15.4118 16.1642 15.4118 15.75Z" fill="currentColor"/>
<path d="M8.40547 18.74L9.85546 17.0969L9.89795 17.0537C11.032 15.9002 12.7948 15.7558 14.0863 16.6203C13.9739 16.3526 13.9118 16.0586 13.9118 15.75C13.9118 14.5074 14.9191 13.5 16.1618 13.5H18.4554C18.8074 12.5671 19 11.556 19 10.5C19 5.80558 15.1944 2 10.5 2C5.80558 2 2 5.80558 2 10.5C2 14.4716 4.72391 17.807 8.40547 18.74ZM6.99321 5.44713C7.29855 5.16724 7.77297 5.18787 8.05287 5.49321L10.5 8.16281L12.9471 5.49321C13.227 5.18787 13.7015 5.16724 14.0068 5.44713C14.3121 5.72703 14.3328 6.20145 14.0529 6.50679L11.25 9.56446V10.1591H12.75C13.1642 10.1591 13.5 10.4949 13.5 10.9091C13.5 11.3233 13.1642 11.6591 12.75 11.6591H11.25V12.6136H12.75C13.1642 12.6136 13.5 12.9494 13.5 13.3636C13.5 13.7779 13.1642 14.1136 12.75 14.1136H11.25V15C11.25 15.4142 10.9142 15.75 10.5 15.75C10.0858 15.75 9.75 15.4142 9.75 15V14.1136H8.25C7.83579 14.1136 7.5 13.7779 7.5 13.3636C7.5 12.9494 7.83579 12.6136 8.25 12.6136H9.75V11.6591H8.25C7.83579 11.6591 7.5 11.3233 7.5 10.9091C7.5 10.4949 7.83579 10.1591 8.25 10.1591H9.75V9.56446L6.94713 6.50679C6.66724 6.20145 6.68787 5.72703 6.99321 5.44713Z" fill="currentColor"/>
</svg>
