<svg viewBox="0 0 24 24" fill="currentColor" xmlns="http://www.w3.org/2000/svg">
<path d="M4 5C2.89543 5 2 5.89543 2 7V17C2 18.1046 2.89543 19 4 19H20C21.1046 19 22 18.1046 22 17V7C22 5.89543 21.1046 5 20 5H4ZM9.55287 6.99321L12 9.66281L14.4471 6.99321C14.727 6.68787 15.2015 6.66724 15.5068 6.94713C15.8121 7.22703 15.8328 7.70145 15.5529 8.00679L12.75 11.0645V11.6591H14.25C14.6642 11.6591 15 11.9949 15 12.4091C15 12.8233 14.6642 13.1591 14.25 13.1591H12.75V14.1136H14.25C14.6642 14.1136 15 14.4494 15 14.8636C15 15.2779 14.6642 15.6136 14.25 15.6136H12.75V16.5C12.75 16.9142 12.4142 17.25 12 17.25C11.5858 17.25 11.25 16.9142 11.25 16.5V15.6136H9.75C9.33579 15.6136 9 15.2779 9 14.8636C9 14.4494 9.33579 14.1136 9.75 14.1136H11.25V13.1591H9.75C9.33579 13.1591 9 12.8233 9 12.4091C9 11.9949 9.33579 11.6591 9.75 11.6591H11.25V11.0645L8.44713 8.00679C8.16724 7.70145 8.18787 7.22703 8.49321 6.94713C8.79855 6.66724 9.27297 6.68787 9.55287 6.99321ZM4.25 8C4.25 7.58579 4.58579 7.25 5 7.25H6C6.41421 7.25 6.75 7.58579 6.75 8C6.75 8.41421 6.41421 8.75 6 8.75H5C4.58579 8.75 4.25 8.41421 4.25 8ZM18 15.25H19C19.4142 15.25 19.75 15.5858 19.75 16C19.75 16.4142 19.4142 16.75 19 16.75H18C17.5858 16.75 17.25 16.4142 17.25 16C17.25 15.5858 17.5858 15.25 18 15.25Z" fill="currentColor"/>
</svg>
