<svg viewBox="0 0 24 24" fill="currentColor" xmlns="http://www.w3.org/2000/svg">
<path d="M17.25 5H6.75C6.75 7.62335 4.62335 9.75 2 9.75V14.25C4.62335 14.25 6.75 16.3766 6.75 19H17.25C17.25 16.3766 19.3766 14.25 22 14.25V9.75C19.3766 9.75 17.25 7.62335 17.25 5ZM9.55287 6.99321L12 9.66281L14.4471 6.99321C14.727 6.68787 15.2015 6.66724 15.5068 6.94713C15.8121 7.22703 15.8328 7.70145 15.5529 8.00679L12.75 11.0645V11.6591H14.25C14.6642 11.6591 15 11.9949 15 12.4091C15 12.8233 14.6642 13.1591 14.25 13.1591H12.75V14.1136H14.25C14.6642 14.1136 15 14.4494 15 14.8636C15 15.2779 14.6642 15.6136 14.25 15.6136H12.75V16.5C12.75 16.9142 12.4142 17.25 12 17.25C11.5858 17.25 11.25 16.9142 11.25 16.5V15.6136H9.75C9.33579 15.6136 9 15.2779 9 14.8636C9 14.4494 9.33579 14.1136 9.75 14.1136H11.25V13.1591H9.75C9.33579 13.1591 9 12.8233 9 12.4091C9 11.9949 9.33579 11.6591 9.75 11.6591H11.25V11.0645L8.44713 8.00679C8.16724 7.70145 8.18787 7.22703 8.49321 6.94713C8.79855 6.66724 9.27297 6.68787 9.55287 6.99321Z" fill="currentColor"/>
<path d="M22 15.75C20.2051 15.75 18.75 17.2051 18.75 19H20C21.1046 19 22 18.1046 22 17V15.75Z" fill="currentColor"/>
<path d="M2 17V15.75C3.79493 15.75 5.25 17.2051 5.25 19H4C2.89543 19 2 18.1046 2 17Z" fill="currentColor"/>
<path d="M22 8.25V7C22 5.89543 21.1046 5 20 5H18.75C18.75 6.79493 20.2051 8.25 22 8.25Z" fill="currentColor"/>
<path d="M4 5H5.25C5.25 6.79493 3.79493 8.25 2 8.25V7C2 5.89543 2.89543 5 4 5Z" fill="currentColor"/>
</svg>
