<svg viewBox="0 0 24 24" fill="currentColor" xmlns="http://www.w3.org/2000/svg">
<path d="M6.85968 15.8067C5.69592 14.3524 5 12.5075 5 10.5C5 5.80558 8.80558 2 13.5 2C18.1944 2 22 5.80558 22 10.5C22 13.9467 19.9485 16.9143 17 18.2482V17.1558C17 15.9132 15.9927 14.9058 14.75 14.9058C14.5436 14.9058 14.3437 14.9336 14.1539 14.9857C13.8769 14.9857 13.2682 15.4909 12.9985 15.7434C12.838 15.9421 12.7108 16.1686 12.625 16.4146L11.7924 15.5757C10.4957 14.26 8.37966 14.2608 7.0842 15.5784L6.85968 15.8067ZM11.5688 5.51118C11.2988 5.19703 10.8253 5.16121 10.5112 5.43119C10.197 5.70116 10.1612 6.17468 10.4312 6.48882L12.75 9.18708V9.61364H11.625C11.2108 9.61364 10.875 9.94942 10.875 10.3636C10.875 10.7779 11.2108 11.1136 11.625 11.1136H12.75V11.7955H11.625C11.2108 11.7955 10.875 12.1312 10.875 12.5455C10.875 12.9597 11.2108 13.2955 11.625 13.2955H12.75V14C12.75 14.4142 13.0858 14.75 13.5 14.75C13.9142 14.75 14.25 14.4142 14.25 14V13.2955H15.375C15.7892 13.2955 16.125 12.9597 16.125 12.5455C16.125 12.1312 15.7892 11.7955 15.375 11.7955H14.25V11.1136H15.375C15.7892 11.1136 16.125 10.7779 16.125 10.3636C16.125 9.94942 15.7892 9.61364 15.375 9.61364H14.25V9.18708L16.5688 6.48882C16.8388 6.17468 16.803 5.70116 16.4888 5.43119C16.1747 5.16121 15.7012 5.19703 15.4312 5.51118L13.5 7.75837L11.5688 5.51118Z" fill="currentColor"/>
<path d="M10.1618 22.5C9.74756 22.5 9.41177 22.1642 9.41177 21.75C9.41177 21.3358 9.74756 21 10.1618 21H12.949L9.65826 17.6841L9.6558 17.6816C9.53492 17.5587 9.34429 17.5587 9.2234 17.6816L7.53917 19.3947C6.83051 20.1154 5.6762 20.1154 4.96755 19.3947L4.95338 19.3803L2.18767 16.2463C1.91359 15.9357 1.94318 15.4617 2.25375 15.1877C2.56432 14.9136 3.03827 14.9432 3.31235 15.2537L6.04744 18.353C6.16863 18.4659 6.35205 18.4626 6.46956 18.343L8.15379 16.63C8.86196 15.9097 10.0152 15.9092 10.7239 16.6285L10.7254 16.63L14 19.9296V17.1558C14 16.7416 14.3358 16.4058 14.75 16.4058C15.1642 16.4058 15.5 16.7416 15.5 17.1558V21.75C15.5 22.1642 15.1642 22.5 14.75 22.5H10.1618Z" fill="currentColor"/>
</svg>
