<svg viewBox="0 0 24 24" fill="currentColor" xmlns="http://www.w3.org/2000/svg">
<path d="M8.35689 2.38599C8.14378 2.0308 8.25896 1.5701 8.61414 1.35699C8.96933 1.14388 9.43002 1.25906 9.64313 1.61424L10.6629 3.31384C11.0655 3.11306 11.5196 3.00011 12 3.00011C12.4805 3.00011 12.9345 3.11306 13.3371 3.31384L14.3569 1.61424C14.57 1.25906 15.0307 1.14388 15.3859 1.35699C15.7411 1.5701 15.8562 2.0308 15.6431 2.38599L14.4842 4.31761C14.8098 4.79743 15 5.37655 15 6.00011V6.2308C14.0999 5.76391 13.0916 5.50011 12 5.50011C10.9085 5.50011 9.90008 5.76391 9.00001 6.2308V6.00011C9.00001 5.37655 9.19026 4.79743 9.51587 4.31761L8.35689 2.38599Z" fill="currentColor"/>
<path d="M21.7115 6.23716C21.8425 5.8442 21.6301 5.41946 21.2372 5.28848C20.8442 5.15749 20.4195 5.36986 20.2885 5.76282L19.6357 7.72127C19.5005 8.12671 19.1676 8.43501 18.753 8.53866L16.2222 9.17135C15.3053 8.03613 14.097 7.26805 12.75 7.0581V21.9421C14.4113 21.6831 15.8616 20.5752 16.8144 18.9767L18.753 19.4613C19.1676 19.565 19.5005 19.8733 19.6357 20.2787L20.2885 22.2372C20.4195 22.6301 20.8442 22.8425 21.2372 22.7115C21.6301 22.5805 21.8425 22.1558 21.7115 21.7628L21.0587 19.8044C20.7614 18.9124 20.0289 18.2342 19.1168 18.0061L17.4674 17.5938C17.7836 16.7221 17.9702 15.7614 17.9967 14.75H21C21.4142 14.75 21.75 14.4142 21.75 14C21.75 13.5858 21.4142 13.25 21 13.25H17.917C17.7834 12.2543 17.4928 11.3251 17.0781 10.5036L19.1168 9.99388C20.0289 9.76584 20.7614 9.08759 21.0587 8.19561L21.7115 6.23716Z" fill="currentColor"/>
<path d="M2.28849 6.23716C2.15751 5.8442 2.36988 5.41946 2.76283 5.28848C3.15579 5.15749 3.58053 5.36986 3.71152 5.76282L4.36433 7.72127C4.49948 8.12671 4.8324 8.43501 5.24702 8.53866L7.77779 9.17135C8.69468 8.03613 9.90301 7.26805 11.25 7.0581V21.9421C9.58875 21.6831 8.1384 20.5752 7.18557 18.9767L5.24702 19.4613C4.8324 19.565 4.49948 19.8733 4.36433 20.2787L3.71152 22.2372C3.58053 22.6301 3.15579 22.8425 2.76283 22.7115C2.36988 22.5805 2.15751 22.1558 2.28849 21.7628L2.94131 19.8044C3.23863 18.9124 3.97106 18.2342 4.88321 18.0061L6.53262 17.5938C6.21644 16.7221 6.02976 15.7614 6.00327 14.75H3.00001C2.58579 14.75 2.25001 14.4142 2.25001 14C2.25001 13.5858 2.58579 13.25 3.00001 13.25H6.08297C6.21662 12.2543 6.50723 11.3251 6.9219 10.5036L4.88321 9.99388C3.97106 9.76584 3.23863 9.08759 2.94131 8.19561L2.28849 6.23716Z" fill="currentColor"/>
</svg>
