<svg viewBox="0 0 24 24" fill="currentColor" xmlns="http://www.w3.org/2000/svg">
<path d="M10 4.5C9.36238 4.5 8.75009 4.60851 8.1806 4.80806C8.68781 3.18106 10.206 2 12 2C13.794 2 15.3122 3.18106 15.8194 4.80806C15.2499 4.60851 14.6376 4.5 14 4.5H10Z" fill="currentColor"/>
<path d="M10 6C8.04609 6 6.41939 7.40096 6.06959 9.25319C6.04668 9.25108 6.02347 9.25 6 9.25H4C3.30964 9.25 2.75 8.69036 2.75 8V6C2.75 5.58579 2.41421 5.25 2 5.25C1.58579 5.25 1.25 5.58579 1.25 6V8C1.25 9.51878 2.48122 10.75 4 10.75H6V13.25H2C1.58579 13.25 1.25 13.5858 1.25 14C1.25 14.4142 1.58579 14.75 2 14.75H6V17.25H4C2.48122 17.25 1.25 18.4812 1.25 20V22C1.25 22.4142 1.58579 22.75 2 22.75C2.41421 22.75 2.75 22.4142 2.75 22V20C2.75 19.3096 3.30964 18.75 4 18.75H6C6.02347 18.75 6.04668 18.7489 6.06959 18.7468C6.41938 20.599 8.04609 22 10 22H14C15.9539 22 17.5806 20.599 17.9304 18.7468C17.9533 18.7489 17.9765 18.75 18 18.75H20C20.6904 18.75 21.25 19.3096 21.25 20V22C21.25 22.4142 21.5858 22.75 22 22.75C22.4142 22.75 22.75 22.4142 22.75 22V20C22.75 18.4812 21.5188 17.25 20 17.25H18V14.75H22C22.4142 14.75 22.75 14.4142 22.75 14C22.75 13.5858 22.4142 13.25 22 13.25H18V10.75H20C21.5188 10.75 22.75 9.51878 22.75 8V6C22.75 5.58579 22.4142 5.25 22 5.25C21.5858 5.25 21.25 5.58579 21.25 6V8C21.25 8.69036 20.6904 9.25 20 9.25H18C17.9765 9.25 17.9533 9.25108 17.9304 9.25319C17.5806 7.40096 15.9539 6 14 6H10Z" fill="currentColor"/>
</svg>
