<svg viewBox="0 0 24 24" fill="currentColor" xmlns="http://www.w3.org/2000/svg">
<path d="M8.00001 6C8.00001 3.79086 9.79087 2 12 2C14.2091 2 16 3.79086 16 6V6.86438C14.8721 6.00903 13.5163 5.5 12 5.5C10.4837 5.5 9.12793 6.00903 8.00001 6.86438V6Z" fill="currentColor"/>
<path d="M17.4674 17.5938C17.7835 16.7221 17.9702 15.7614 17.9967 14.75H21C21.4142 14.75 21.75 14.4142 21.75 14C21.75 13.5858 21.4142 13.25 21 13.25H17.917C17.7834 12.2543 17.4928 11.3251 17.0781 10.5035L19.1168 9.99387C20.0289 9.76584 20.7614 9.08759 21.0587 8.19561L21.7115 6.23716C21.8425 5.8442 21.6301 5.41946 21.2372 5.28848C20.8442 5.15749 20.4195 5.36986 20.2885 5.76282L19.6357 7.72127C19.5005 8.12671 19.1676 8.43501 18.753 8.53866L16.2223 9.17134C15.1381 7.82901 13.6465 6.99999 12 6.99999C10.3535 6.99999 8.86188 7.82901 7.77774 9.17134L5.24702 8.53866C4.8324 8.43501 4.49948 8.12671 4.36433 7.72127L3.71152 5.76282C3.58053 5.36986 3.15579 5.15749 2.76283 5.28848C2.36988 5.41946 2.15751 5.8442 2.28849 6.23716L2.94131 8.19561C3.23863 9.08759 3.97106 9.76584 4.88321 9.99387L6.92186 10.5035C6.5072 11.3251 6.2166 12.2543 6.08296 13.25H3.00001C2.58579 13.25 2.25001 13.5858 2.25001 14C2.25001 14.4142 2.58579 14.75 3.00001 14.75H6.00328C6.02977 15.7614 6.21646 16.7221 6.53265 17.5938L4.88321 18.0061C3.97106 18.2342 3.23863 18.9124 2.94131 19.8044L2.28849 21.7628C2.15751 22.1558 2.36988 22.5805 2.76283 22.7115C3.15579 22.8425 3.58053 22.6301 3.71152 22.2372L4.36433 20.2787C4.49948 19.8733 4.8324 19.565 5.24702 19.4613L7.18561 18.9767C8.27937 20.8116 10.0287 22 12 22C13.9713 22 15.7206 20.8116 16.8144 18.9767L18.753 19.4613C19.1676 19.565 19.5005 19.8733 19.6357 20.2787L20.2885 22.2372C20.4195 22.6301 20.8442 22.8425 21.2372 22.7115C21.6301 22.5805 21.8425 22.1558 21.7115 21.7628L21.0587 19.8044C20.7614 18.9124 20.0289 18.2342 19.1168 18.0061L17.4674 17.5938Z" fill="currentColor"/>
</svg>
