<svg viewBox="0 0 24 24" fill="currentColor" xmlns="http://www.w3.org/2000/svg">
<path d="M12 2C10.8954 2 10 2.89543 10 4V7H9C8.44772 7 8 6.55228 8 6V4.5C8 3.67157 7.32843 3 6.5 3C5.67157 3 5 3.67157 5 4.5V6C5 8.20914 6.79086 10 9 10H10V13H6C5.44772 13 5 13.4477 5 14C5 14.5523 5.44772 15 6 15H7L8.02366 20.3742C8.20334 21.3175 9.02807 22 9.98834 22H14.0117C14.9719 22 15.7967 21.3175 15.9763 20.3742L17 15H18C18.5523 15 19 14.5523 19 14C19 13.4477 18.5523 13 18 13H14V12H15C17.2091 12 19 10.2091 19 8V6.5C19 5.67157 18.3284 5 17.5 5C16.6716 5 16 5.67157 16 6.5V8C16 8.55228 15.5523 9 15 9H14V4C14 2.89543 13.1046 2 12 2Z" fill="currentColor"/>
</svg>
