<svg viewBox="0 0 24 24" fill="currentColor" xmlns="http://www.w3.org/2000/svg">
<path d="M12 3C11.4477 3 11 3.44772 11 4V7.25H9C8.86193 7.25 8.75 7.13807 8.75 7V5C8.75 4.58579 8.41421 4.25 8 4.25C7.58579 4.25 7.25 4.58579 7.25 5V7C7.25 7.9665 8.0335 8.75 9 8.75H11V16.0036C9.41994 15.2671 7.67654 15.0393 6 15.3115V12.75H7C7.9665 12.75 8.75 11.9665 8.75 11V10C8.75 9.58579 8.41421 9.25 8 9.25C7.58579 9.25 7.25 9.58579 7.25 10V11C7.25 11.1381 7.13807 11.25 7 11.25H6V9C6 8.44772 5.55228 8 5 8C4.44772 8 4 8.44772 4 9V13.25H3C2.86193 13.25 2.75 13.1381 2.75 13V12C2.75 11.5858 2.41421 11.25 2 11.25C1.58579 11.25 1.25 11.5858 1.25 12V13C1.25 13.9665 2.0335 14.75 3 14.75H4V15.8923C3.64482 16.0444 3.29772 16.2214 2.96129 16.4232C2.36491 16.7811 2 17.4256 2 18.121V20C2 20.5523 2.44772 21 3 21H21C21.5523 21 22 20.5523 22 20V18.0874C22 17.5665 21.474 17.2104 20.9904 17.4038C20.6649 17.534 20.3343 17.6456 20 17.7386V15.75H21C21.9665 15.75 22.75 14.9665 22.75 14V13C22.75 12.5858 22.4142 12.25 22 12.25C21.5858 12.25 21.25 12.5858 21.25 13V14C21.25 14.1381 21.1381 14.25 21 14.25H20V11C20 10.4477 19.5523 10 19 10C18.4477 10 18 10.4477 18 11V13.25H17C16.8619 13.25 16.75 13.1381 16.75 13V12C16.75 11.5858 16.4142 11.25 16 11.25C15.5858 11.25 15.25 11.5858 15.25 12V13C15.25 13.9665 16.0335 14.75 17 14.75H18V18.0717C16.3435 18.1695 14.6717 17.8358 13.1559 17.078L13 17V10.75H15C15.9665 10.75 16.75 9.9665 16.75 9V7C16.75 6.58579 16.4142 6.25 16 6.25C15.5858 6.25 15.25 6.58579 15.25 7V9C15.25 9.13807 15.1381 9.25 15 9.25H13V4C13 3.44772 12.5523 3 12 3Z" fill="currentColor"/>
</svg>
