<svg viewBox="0 0 24 24" fill="currentColor" xmlns="http://www.w3.org/2000/svg">
<path d="M12.75 2C12.75 1.58579 12.4142 1.25 12 1.25C11.5858 1.25 11.25 1.58579 11.25 2V3.05632C10.4257 3.18155 9.67529 3.50997 9.04539 3.98473L7.53033 2.46967C7.23744 2.17678 6.76256 2.17678 6.46967 2.46967C6.17678 2.76256 6.17678 3.23744 6.46967 3.53033L7.99805 5.05871C7.67745 5.50667 7.43081 6.00881 7.27422 6.54547L6.1819 6.27239C5.78006 6.17193 5.37285 6.41625 5.27239 6.8181C5.17193 7.21994 5.41625 7.62715 5.8181 7.72761L7.08137 8.04342C7.089 8.32028 7.1202 8.60101 7.1767 8.88348L7.41619 10.081L6.1819 9.77239C5.78006 9.67193 5.37285 9.91625 5.27239 10.3181C5.17193 10.7199 5.41625 11.1271 5.8181 11.2276L7.7417 11.7085L8 13H6C5.44772 13 5 13.4477 5 14C5 14.5523 5.44772 15 6 15H7L8.02366 20.3742C8.20334 21.3175 9.02807 22 9.98834 22H14.0117C14.9719 22 15.7967 21.3175 15.9763 20.3742L17 15H18C18.5523 15 19 14.5523 19 14C19 13.4477 18.5523 13 18 13H16L16.2583 11.7085L18.1819 11.2276C18.5837 11.1271 18.8281 10.7199 18.7276 10.3181C18.6271 9.91625 18.2199 9.67193 17.8181 9.77239L16.5838 10.081L16.8233 8.88348C16.8798 8.601 16.911 8.32028 16.9186 8.04342L18.1819 7.72761C18.5837 7.62715 18.8281 7.21994 18.7276 6.8181C18.6271 6.41625 18.2199 6.17193 17.8181 6.27239L16.7258 6.54547C16.5692 6.0088 16.3225 5.50667 16.002 5.05871L17.5303 3.53033C17.8232 3.23744 17.8232 2.76256 17.5303 2.46967C17.2374 2.17678 16.7626 2.17678 16.4697 2.46967L14.9546 3.98473C14.3247 3.50997 13.5743 3.18155 12.75 3.05632V2Z" fill="currentColor"/>
</svg>
