<svg viewBox="0 0 24 24" fill="currentColor" xmlns="http://www.w3.org/2000/svg">
<path d="M20 7C21.6569 7 23 5.65685 23 4C23 2.34315 21.6569 1 20 1C18.3431 1 17 2.34315 17 4C17 5.65685 18.3431 7 20 7Z" fill="currentColor"/>
<path d="M4.57143 8.46667C4.57143 7.65665 5.21102 7 6 7C6.78898 7 7.42857 7.65665 7.42857 8.46667V13.6H8.14286C8.53735 13.6 8.85714 13.2717 8.85714 12.8667V11.7667C8.85714 11.1592 9.33684 10.6667 9.92857 10.6667C10.5203 10.6667 11 11.1592 11 11.7667V12.8667C11 14.4867 9.72081 15.8 8.14286 15.8H7.42857V17.2007C8.61243 17.2079 9.79726 17.46 10.9047 17.9599L13.0226 14.5957C13.5226 13.8014 14.7037 13.8014 15.2037 14.5957L17.0557 17.5376L17.8415 16.3557C18.3465 15.5963 19.4839 15.5963 19.9889 16.3557L21.791 19.066C21.9753 19.3432 22.0305 19.6501 21.9847 19.9362C21.9947 19.9847 22 20.0352 22 20.0874V22C22 22.5523 21.5523 23 21 23H3C2.44772 23 2 22.5523 2 22V20.121C2 19.4256 2.36491 18.7811 2.96129 18.4232C3.47611 18.1143 4.01592 17.8637 4.57143 17.6715V13.6H3.85714C2.27919 13.6 1 12.2867 1 10.6667V9.56667C1 8.95915 1.47969 8.46667 2.07143 8.46667C2.66316 8.46667 3.14286 8.95915 3.14286 9.56667V10.6667C3.14286 11.0717 3.46265 11.4 3.85714 11.4H4.57143V8.46667Z" fill="currentColor"/>
<path d="M20.75 9C20.75 8.58579 20.4142 8.25 20 8.25C19.5858 8.25 19.25 8.58579 19.25 9V11C19.25 11.4142 19.5858 11.75 20 11.75C20.4142 11.75 20.75 11.4142 20.75 11V9Z" fill="currentColor"/>
<path d="M16.9947 7.00531C17.2876 7.29821 17.2876 7.77308 16.9947 8.06597L15.5805 9.48019C15.2876 9.77308 14.8127 9.77308 14.5198 9.48019C14.2269 9.18729 14.2269 8.71242 14.5198 8.41953L15.934 7.00531C16.2269 6.71242 16.7018 6.71242 16.9947 7.00531Z" fill="currentColor"/>
<path d="M15 4.75C15.4142 4.75 15.75 4.41421 15.75 4C15.75 3.58579 15.4142 3.25 15 3.25H13C12.5858 3.25 12.25 3.58579 12.25 4C12.25 4.41421 12.5858 4.75 13 4.75H15Z" fill="currentColor"/>
</svg>
