<svg viewBox="0 0 24 24" fill="currentColor" xmlns="http://www.w3.org/2000/svg">
<path d="M13.1163 21.5017C12.4246 21.1064 11.5754 21.1064 10.8837 21.5017L10.3605 21.8007C9.20767 22.4594 7.79237 22.4594 6.6395 21.8007L6.23773 21.5711C5.49778 21.1482 4.58244 21.1798 3.87334 21.6525L2.41604 22.624C2.0714 22.8538 1.60575 22.7607 1.37598 22.416C1.14622 22.0714 1.23935 21.6057 1.58399 21.376L3.04129 20.4044C4.22313 19.6165 5.74869 19.564 6.98193 20.2687L7.38371 20.4983C8.07543 20.8936 8.92461 20.8936 9.61633 20.4983L10.1395 20.1993C11.2924 19.5406 12.7077 19.5406 13.8605 20.1993L14.3837 20.4983C15.0754 20.8936 15.9246 20.8936 16.6163 20.4983L17.0181 20.2687C18.2514 19.564 19.7769 19.6165 20.9587 20.4044L22.416 21.376C22.7607 21.6057 22.8538 22.0714 22.6241 22.416C22.3943 22.7607 21.9286 22.8538 21.584 22.624L20.1267 21.6525C19.4176 21.1798 18.5023 21.1482 17.7623 21.5711L17.3605 21.8007C16.2077 22.4594 14.7924 22.4594 13.6395 21.8007L13.1163 21.5017Z" fill="currentColor"/>
<path d="M13.1163 16.5017C12.4246 16.1064 11.5754 16.1064 10.8837 16.5017L10.3605 16.8007C9.20767 17.4594 7.79237 17.4594 6.6395 16.8007L6.23773 16.5711C5.49778 16.1482 4.58244 16.1798 3.87334 16.6525L2.41604 17.624C2.0714 17.8538 1.60575 17.7607 1.37598 17.416C1.14622 17.0714 1.23935 16.6057 1.58399 16.376L3.04129 15.4044C4.22313 14.6165 5.74869 14.564 6.98193 15.2687L7.38371 15.4983C8.07543 15.8936 8.92461 15.8936 9.61633 15.4983L10.1395 15.1993C11.2924 14.5406 12.7077 14.5406 13.8605 15.1993L14.3837 15.4983C15.0754 15.8936 15.9246 15.8936 16.6163 15.4983L17.0181 15.2687C18.2514 14.564 19.7769 14.6165 20.9587 15.4044L22.416 16.376C22.7607 16.6057 22.8538 17.0714 22.6241 17.416C22.3943 17.7607 21.9286 17.8538 21.584 17.624L20.1267 16.6525C19.4176 16.1798 18.5023 16.1482 17.7623 16.5711L17.3605 16.8007C16.2077 17.4594 14.7924 17.4594 13.6395 16.8007L13.1163 16.5017Z" fill="currentColor"/>
<path d="M4.27472 8.5753L11.3413 2.24444C11.7051 1.91852 12.2949 1.91852 12.6587 2.24444L19.7253 8.5753C20.3122 9.10105 19.8965 10 19.0666 10H17.6V13.4323C17.1422 13.5473 16.6958 13.7251 16.2739 13.9662L15.8721 14.1958C15.6415 14.3275 15.3585 14.3275 15.1279 14.1958L14.6047 13.8968C12.9907 12.9745 11.0093 12.9745 9.39527 13.8968L8.87211 14.1958C8.64153 14.3275 8.35847 14.3275 8.1279 14.1958L7.72613 13.9662C7.3042 13.7251 6.85782 13.5473 6.40001 13.4324V10H4.93343C4.10351 10 3.68788 9.10105 4.27472 8.5753Z" fill="currentColor"/>
</svg>
