<svg viewBox="0 0 24 24" fill="currentColor" xmlns="http://www.w3.org/2000/svg">
<path d="M14.8571 11.5238C14.8571 13.1018 13.578 14.381 12 14.381C10.422 14.381 9.14285 13.1018 9.14285 11.5238C9.14285 9.94587 10.422 8.66669 12 8.66669C13.578 8.66669 14.8571 9.94587 14.8571 11.5238Z" fill="currentColor"/>
<path d="M9.01688 5.71881C8.59278 3.81036 10.045 2 12 2C13.955 2 15.4072 3.81036 14.9831 5.71881L14.791 6.58337C15.4836 5.80317 16.7223 5.73606 17.4932 6.50689C18.264 7.27768 18.1969 8.51639 17.4168 9.20896L18.2812 9.01688C20.1896 8.59278 22 10.045 22 12C22 13.955 20.1896 15.4072 18.2812 14.9831L17.786 14.8731C18.066 15.5394 17.9493 16.3497 17.3875 16.9115C16.6047 17.6942 15.3394 17.6129 14.6536 16.7983L14.9831 18.2812C15.4072 20.1896 13.955 22 12 22C10.045 22 8.59278 20.1896 9.01688 18.2812L9.34643 16.7982C8.66059 17.6129 7.39523 17.6942 6.61245 16.9115C6.05068 16.3497 5.93397 15.5394 6.21398 14.8731L5.71881 14.9831C3.81036 15.4072 2 13.955 2 12C2 10.045 3.81036 8.59278 5.71881 9.01688L6.58328 9.20898C5.80317 8.51641 5.73609 7.27769 6.50689 6.50689C7.27769 5.73609 8.51641 5.80317 9.20898 6.58328L9.01688 5.71881ZM12 15.8095C14.3669 15.8095 16.2857 13.8907 16.2857 11.5238C16.2857 9.15687 14.3669 7.2381 12 7.2381C9.63307 7.2381 7.71429 9.15687 7.71429 11.5238C7.71429 13.8907 9.63307 15.8095 12 15.8095Z" fill="currentColor"/>
</svg>
