<svg viewBox="0 0 24 24" fill="currentColor" xmlns="http://www.w3.org/2000/svg">
<path d="M5.75 15.75H8.25V18.25C8.25 20.3211 9.92893 22 12 22C14.0711 22 15.75 20.3211 15.75 18.25V15.75H18.25C20.3211 15.75 22 14.0711 22 12C22 9.92893 20.3211 8.25 18.25 8.25H15.75V5.75C15.75 3.67893 14.0711 2 12 2C9.92893 2 8.25 3.67893 8.25 5.75V8.25H5.75C3.67893 8.25 2 9.92893 2 12C2 14.0711 3.67893 15.75 5.75 15.75ZM12 14.5C10.6193 14.5 9.5 13.3807 9.5 12C9.5 10.6193 10.6193 9.5 12 9.5C13.3807 9.5 14.5 10.6193 14.5 12C14.5 13.3807 13.3807 14.5 12 14.5Z" fill="currentColor"/>
</svg>
