<svg viewBox="0 0 24 24" fill="currentColor" xmlns="http://www.w3.org/2000/svg">
<path d="M6.32544 3.46475C6.71258 2.84508 7.81754 2.84508 8.20468 3.46475L10.707 7.47001C11.0563 8.02902 10.5483 8.68675 9.76739 8.68675H9.32321L11.3954 12.1417C11.8145 12.8405 11.205 13.6627 10.2679 13.6627H8.01506V15.2243C9.11211 15.3062 10.1988 15.5994 11.2127 16.1063L13.1559 17.078C14.2256 17.6128 15.373 17.9364 16.5379 18.0461C16.523 17.9871 16.5151 17.9252 16.5151 17.8615V14.6627H14.2623C13.3251 14.6627 12.7156 13.8405 13.1347 13.1417L15.2069 9.68675H14.7627C13.9818 9.68675 13.4739 9.02902 13.8231 8.47001L16.3254 4.46475C16.7126 3.84508 17.8175 3.84508 18.2047 4.46475L20.707 8.47001C21.0563 9.02902 20.5483 9.68675 19.7674 9.68675H19.3232L21.3954 13.1417C21.8145 13.8405 21.205 14.6627 20.2679 14.6627H18.0151V17.8615C18.0151 17.9348 18.0045 18.0057 17.9849 18.0726C19.0057 18.014 20.0209 17.7916 20.9904 17.4038C21.474 17.2104 22 17.5665 22 18.0874V20C22 20.5523 21.5523 21 21 21H3C2.44772 21 2 20.5523 2 20V18.121C2 17.4256 2.36491 16.7811 2.96129 16.4232C4.06193 15.7628 5.27682 15.3685 6.51506 15.2438V13.6627H4.26226C3.32513 13.6627 2.71562 12.8405 3.13472 12.1417L5.20691 8.68675H4.76273C3.98178 8.68675 3.47386 8.02902 3.82311 7.47001L6.32544 3.46475Z" fill="currentColor"/>
</svg>
