<svg viewBox="0 0 24 24" fill="currentColor" xmlns="http://www.w3.org/2000/svg">
<path d="M16.3 5.84812C16.3 3.72286 14.5987 2 12.5 2C10.6125 2 9.04648 3.39353 8.75037 5.22002C8.83297 5.21529 8.91621 5.21289 9 5.21289C10.9217 5.21289 12.549 6.4735 13.1 8.2129C14.8394 8.76391 16.1 10.3912 16.1 12.3129C16.1 12.4187 16.0961 12.5237 16.0886 12.6279C16.9544 13.4136 17.5 14.5487 17.5 15.8129C17.5 16.7638 17.1914 17.6425 16.6688 18.3545H18.2C20.2987 18.3545 22 16.6317 22 14.5064C22 12.984 21.127 11.6682 19.8604 11.0441C20.0153 10.6246 20.1 10.1704 20.1 9.69624C20.1 7.57098 18.3987 5.84812 16.3 5.84812Z" fill="currentColor"/>
<path d="M9 6.71307C10.5464 6.71307 11.8 7.96667 11.8 9.51307C13.3464 9.51307 14.6 10.7667 14.6 12.3131C14.6 12.6581 14.5376 12.9886 14.4234 13.2938C15.3568 13.7479 16 14.7053 16 15.8131C16 17.3595 14.7464 18.6131 13.2 18.6131H9.75006V16.8065L11.2593 15.5046C11.573 15.234 11.6079 14.7604 11.3373 14.4468C11.0668 14.1331 10.5932 14.0982 10.2796 14.3688L9.75006 14.8255V14.013C9.75006 13.5988 9.41427 13.263 9.00006 13.263C8.58584 13.263 8.25006 13.5988 8.25006 14.013V16.0524L8.13035 15.9327C7.83746 15.6398 7.36258 15.6398 7.06969 15.9327C6.7768 16.2255 6.7768 16.7004 7.06969 16.9933L8.25006 18.1737V18.6131H4.8C3.2536 18.6131 2 17.3595 2 15.8131C2 14.7053 2.64323 13.7479 3.57656 13.2938C3.46241 12.9886 3.4 12.6581 3.4 12.3131C3.4 10.7667 4.6536 9.51307 6.2 9.51307C6.2 7.96667 7.4536 6.71307 9 6.71307Z" fill="currentColor"/>
<path d="M8.25006 21.25V18.6131H9.75006V21.25H11.7501C11.7501 21.2468 11.7501 21.2437 11.7501 21.2405V20.1129H13.2L13.2501 20.1126V21.2405C13.2501 21.2437 13.2501 21.2468 13.25 21.25H22C22.4142 21.25 22.75 21.5858 22.75 22C22.75 22.4142 22.4142 22.75 22 22.75H2C1.58579 22.75 1.25 22.4142 1.25 22C1.25 21.5858 1.58579 21.25 2 21.25H8.25006Z" fill="currentColor"/>
</svg>
