<svg viewBox="0 0 24 24" fill="currentColor" xmlns="http://www.w3.org/2000/svg">
<path d="M12 2C6.47715 2 2 3.34639 2 5.00725C2 5.01819 2.00019 5.02911 2.00058 5.04002C2.18053 5.19974 2.42067 5.36946 2.73138 5.5424C3.31506 5.86727 4.08745 6.17004 5.02142 6.42842C6.88793 6.9448 9.3221 7.26268 12 7.26268C14.6779 7.26268 17.1121 6.9448 18.9786 6.42842C19.9125 6.17004 20.6849 5.86727 21.2686 5.5424C21.5793 5.36946 21.8195 5.19974 21.9994 5.04002C21.9998 5.02911 22 5.01818 22 5.00725C22 3.34639 17.5228 2 12 2Z" fill="currentColor"/>
<path d="M21.3132 7.19736C20.7393 7.454 20.0877 7.68142 19.3776 7.87786C17.3568 8.43693 14.7849 8.76631 12 8.76631C9.21615 8.76631 6.64519 8.43719 4.62474 7.87852C6.29394 9.55569 8.39517 11.8972 9.5 14.029C9.66261 14.3428 9.81921 14.682 9.9692 15.0377C10.8732 15.1928 11.9023 15.282 13 15.282C13.4142 15.282 13.75 15.6186 13.75 16.0338C13.75 16.449 13.4142 16.7856 13 16.7856C12.1546 16.7856 11.3379 16.7363 10.5729 16.6443C10.9996 17.9062 11.3458 19.2031 11.5902 20.21C11.7797 20.9903 12.754 21.2747 13.299 20.686C14.7863 19.0793 17.1863 16.3351 18.5 14.029C18.8011 13.5004 19.0967 12.9043 19.3798 12.2796C18.1321 12.5952 16.6188 12.776 15 12.776C14.5858 12.776 14.25 12.4394 14.25 12.0242C14.25 11.6089 14.5858 11.2723 15 11.2723C16.682 11.2723 18.2029 11.0629 19.3596 10.7277C19.6498 10.6436 19.9121 10.553 20.1453 10.4581C20.6153 9.2612 21.0195 8.0917 21.3132 7.19736Z" fill="currentColor"/>
</svg>
