<svg viewBox="0 0 24 24" fill="currentColor" xmlns="http://www.w3.org/2000/svg">
<path d="M19 8C20.6569 8 22 6.65685 22 5C22 3.34315 20.6569 2 19 2C17.3431 2 16 3.34315 16 5C16 6.65685 17.3431 8 19 8Z" fill="currentColor"/>
<path d="M2.25 6C2.25 5.58579 2.58579 5.25 3 5.25C6.96286 5.25 8.84011 7.27623 9.49003 8.93751C10.0897 8.69753 10.8239 8.48698 11.6087 8.40405C12.8357 8.2744 14.2648 8.4513 15.4685 9.41428C15.792 9.67304 15.8444 10.145 15.5856 10.4684C15.3269 10.7919 14.8549 10.8443 14.5315 10.5856C13.7352 9.9485 12.7476 9.79206 11.7663 9.89575C11.3222 9.94268 10.8953 10.0418 10.514 10.163C10.9164 10.5066 11.3267 10.922 11.6861 11.3981C12.4128 12.3608 12.9855 13.6491 12.7398 15.1233C12.6717 15.5318 12.2853 15.8079 11.8767 15.7398C11.4681 15.6717 11.1921 15.2853 11.2602 14.8767C11.4145 13.9508 11.0706 13.0724 10.4889 12.3018C10.0522 11.7232 9.51208 11.249 9.05402 10.9249C7.89363 11.9653 7.22262 13.4026 6.77498 15.092C6.4297 16.3952 6.2346 17.7636 6.03515 19.1627C6.00196 19.3955 5.96864 19.6292 5.9345 19.8636C6.29655 19.9439 6.64982 20.0788 6.9819 20.2685L7.38368 20.4981C8.0754 20.8934 8.92458 20.8934 9.6163 20.4981L10.1395 20.1992C11.2923 19.5404 12.7076 19.5404 13.8605 20.1992L14.3837 20.4981C15.0754 20.8934 15.9246 20.8934 16.6163 20.4981L17.0181 20.2685C18.2513 19.5638 19.7769 19.6164 20.9587 20.4043L22.416 21.3758C22.7607 21.6056 22.8538 22.0712 22.624 22.4158C22.3943 22.7605 21.9286 22.8536 21.584 22.6239L20.1267 21.6523C19.4176 21.1796 18.5022 21.1481 17.7623 21.5709L17.3605 21.8005C16.2076 22.4593 14.7923 22.4593 13.6395 21.8005L13.1163 21.5015C12.4246 21.1063 11.5754 21.1063 10.8837 21.5015L10.3605 21.8005C9.20764 22.4593 7.79234 22.4593 6.63947 21.8005L6.2377 21.5709C6.05639 21.4673 5.86456 21.391 5.66781 21.3417C5.52299 21.6248 5.20709 21.7948 4.8767 21.7397C4.65883 21.7034 4.47866 21.5766 4.36825 21.4042C4.19597 21.4653 4.02963 21.5481 3.87331 21.6523L2.41601 22.6239C2.07137 22.8536 1.60571 22.7605 1.37595 22.4158C1.14619 22.0712 1.23932 21.6056 1.58396 21.3758L3.04126 20.4043C3.46656 20.1207 3.93636 19.9324 4.42104 19.8404C4.45889 19.5827 4.49622 19.3214 4.53391 19.0576C4.74 17.6148 4.95667 16.098 5.32502 14.7078C5.74136 13.1365 6.37334 11.6192 7.47137 10.3903C7.01153 10.3214 6.48806 10.2847 5.93648 10.3115C4.76753 10.3685 3.52227 10.7076 2.48014 11.5761C2.16193 11.8413 1.68901 11.7983 1.42383 11.4801C1.15866 11.1619 1.20165 10.6889 1.51986 10.4238C2.87773 9.2922 4.4658 8.88138 5.86352 8.81331C6.56421 8.77918 7.22963 8.83031 7.8143 8.92577C7.18449 7.89999 5.79157 6.75 3 6.75C2.58579 6.75 2.25 6.41421 2.25 6Z" fill="currentColor"/>
</svg>
