<svg viewBox="0 0 24 24" fill="currentColor" xmlns="http://www.w3.org/2000/svg">
<path d="M22 5C22 6.65685 20.6568 8 19 8C17.3431 8 16 6.65685 16 5C16 3.34315 17.3431 2 19 2C20.6568 2 22 3.34315 22 5Z" fill="currentColor"/>
<path d="M2.24999 4C2.24999 3.58579 2.58577 3.25 2.99999 3.25C6.96285 3.25 8.8401 5.27623 9.49002 6.93751C10.0897 6.69753 10.8239 6.48698 11.6087 6.40405C12.8357 6.2744 14.2648 6.4513 15.4685 7.41428C15.792 7.67304 15.8444 8.14501 15.5856 8.46845C15.3269 8.79189 14.8549 8.84433 14.5315 8.58557C13.7351 7.9485 12.7476 7.79206 11.7663 7.89575C11.3221 7.94268 10.8953 8.04177 10.514 8.16297C10.9164 8.50657 11.3267 8.92199 11.6861 9.39812C12.4128 10.3608 12.9855 11.6491 12.7398 13.1233C12.6717 13.5318 12.2853 13.8079 11.8767 13.7398C11.4681 13.6717 11.1921 13.2853 11.2602 12.8767C11.4145 11.9508 11.0705 11.0724 10.4889 10.3018C10.0494 9.71957 9.50531 9.24308 9.04542 8.91879C7.82913 9.92798 7.17947 10.9646 6.75648 12.1517C6.35913 13.2668 6.16148 14.5025 5.91659 16.0337C5.90079 16.1325 5.88479 16.2326 5.86853 16.3339C7.6606 16.0143 9.53631 16.2682 11.2127 17.1063L13.1559 18.078C15.601 19.3005 18.4522 19.4191 20.9904 18.4038C21.474 18.2104 22 18.5665 22 19.0874V21C22 21.5523 21.5523 22 21 22H2.99999C2.4477 22 1.99999 21.5523 1.99999 21V19.121C1.99999 18.4256 2.3649 17.7811 2.96128 17.4232C3.38445 17.1693 3.8245 16.9548 4.27628 16.7797C4.32832 16.465 4.37763 16.1555 4.4261 15.8512C4.67141 14.3114 4.89529 12.9061 5.3435 11.6482C5.76824 10.4562 6.39384 9.38593 7.4068 8.38092C6.96278 8.31814 6.4624 8.28592 5.93647 8.31153C4.76752 8.36846 3.52226 8.70764 2.48013 9.57609C2.16192 9.84126 1.689 9.79827 1.42382 9.48006C1.15865 9.16185 1.20164 8.68893 1.51985 8.42375C2.87771 7.2922 4.46579 6.88138 5.86351 6.81331C6.5642 6.77918 7.22962 6.83031 7.81429 6.92577C7.18448 5.89999 5.79155 4.75 2.99999 4.75C2.58577 4.75 2.24999 4.41421 2.24999 4Z" fill="currentColor"/>
</svg>
