<svg viewBox="0 0 24 24" fill="currentColor" xmlns="http://www.w3.org/2000/svg">
<path d="M20.5127 17.25C21.4557 15.7241 22 13.9256 22 12C22 6.47715 17.5228 2 12 2C6.47715 2 2 6.47715 2 12C2 13.9256 2.54426 15.7241 3.48734 17.25H6.02851C6.18047 16.106 6.92897 15.1129 8.01399 14.6608C8.97117 14.262 9.97325 14.0128 10.9865 13.9133C10.8198 12.9291 10.815 12.0365 11.0207 11.1791C11.2282 10.3146 11.638 9.53459 12.2327 8.76437C11.9053 8.72 11.5404 8.69832 11.158 8.71772C10.2522 8.76367 9.2939 9.03658 8.49165 9.73298C8.17885 10.0045 7.70515 9.97105 7.43362 9.65825C7.16209 9.34545 7.19555 8.87175 7.50835 8.60022C8.6261 7.62995 9.9345 7.27786 11.082 7.21965C11.536 7.19661 11.9721 7.21903 12.372 7.26981C12.2581 7.11023 12.1212 6.95052 11.958 6.79803C11.3677 6.24657 10.3902 5.75 8.8 5.75C8.38579 5.75 8.05 5.41421 8.05 5C8.05 4.58579 8.38579 4.25 8.8 4.25C10.7298 4.25 12.0856 4.86452 12.982 5.70192C13.5041 6.18971 13.8563 6.74023 14.0743 7.25828C15.2217 6.78373 16.9358 6.4701 18.4801 7.75711C18.7984 8.02228 18.8413 8.49521 18.5762 8.81341C18.311 9.13162 17.8381 9.1746 17.5199 8.90943C16.727 8.24873 15.8253 8.25896 15.0448 8.49766C15.3329 8.76667 15.621 9.08114 15.8773 9.43489C16.4713 10.2546 16.9426 11.356 16.7406 12.6185C16.6751 13.0275 16.2905 13.306 15.8815 13.2406C15.4725 13.1751 15.194 12.7905 15.2594 12.3815C15.3774 11.6439 15.1154 10.9398 14.6627 10.315C14.3735 9.91601 14.0262 9.57829 13.7106 9.32515C13.034 10.1125 12.6526 10.8069 12.4793 11.5292C12.32 12.1929 12.3226 12.9369 12.5042 13.8759C13.6903 13.9337 14.8687 14.1953 15.986 14.6608C17.071 15.1129 17.8195 16.106 17.9715 17.25H20.5127Z" fill="currentColor"/>
<path d="M4.62173 18.75C6.45005 20.7474 9.07874 22 12 22C14.9212 22 17.5499 20.7474 19.3783 18.75H4.62173Z" fill="currentColor"/>
</svg>
