<svg viewBox="0 0 24 24" fill="currentColor" xmlns="http://www.w3.org/2000/svg">
<path d="M2.25 2C2.25 1.58579 2.58579 1.25 3 1.25C6.96286 1.25 8.84011 3.27623 9.49003 4.93751C10.0897 4.69753 10.8239 4.48698 11.6087 4.40405C12.8357 4.2744 14.2648 4.4513 15.4685 5.41428C15.792 5.67304 15.8444 6.14501 15.5856 6.46845C15.3269 6.79189 14.8549 6.84433 14.5315 6.58557C13.7352 5.9485 12.7476 5.79206 11.7663 5.89575C11.3222 5.94268 10.8953 6.04177 10.514 6.16297C10.9164 6.50657 11.3267 6.92199 11.6861 7.39812C12.4128 8.36083 12.9855 9.64915 12.7398 11.1233C12.6717 11.5318 12.2853 11.8079 11.8767 11.7398C11.4681 11.6717 11.1921 11.2853 11.2602 10.8767C11.4145 9.9508 11.0706 9.07243 10.4889 8.30179C10.056 7.72834 9.5217 7.25747 9.06628 6.93356C8.56251 7.43399 8.10763 8.14104 7.70743 9.01886C7.21198 10.1056 6.82606 11.3969 6.53291 12.7466C5.96569 15.3582 5.76337 18.1053 5.75065 19.8275C6.1768 19.9 6.59382 20.0468 6.9819 20.2685L7.38368 20.4981C8.0754 20.8934 8.92458 20.8934 9.6163 20.4981L10.1395 20.1992C11.2923 19.5404 12.7076 19.5404 13.8605 20.1992L14.3837 20.4981C15.0754 20.8934 15.9246 20.8934 16.6163 20.4981L17.0181 20.2685C18.2513 19.5638 19.7769 19.6164 20.9587 20.4043L22.416 21.3758C22.7607 21.6056 22.8538 22.0712 22.624 22.4158C22.3943 22.7605 21.9286 22.8536 21.584 22.6239L20.1267 21.6523C19.4176 21.1796 18.5022 21.1481 17.7623 21.5709L17.3605 21.8005C16.2076 22.4593 14.7923 22.4593 13.6395 21.8005L13.1163 21.5015C12.4246 21.1063 11.5754 21.1063 10.8837 21.5015L10.3605 21.8005C9.20764 22.4593 7.79234 22.4593 6.63947 21.8005L6.2377 21.5709C5.49775 21.1481 4.58241 21.1796 3.87331 21.6523L2.41601 22.6239C2.07137 22.8536 1.60571 22.7605 1.37595 22.4158C1.14619 22.0712 1.23932 21.6056 1.58396 21.3758L3.04126 20.4043C3.41642 20.1541 3.82622 19.9781 4.25031 19.8769C4.2594 18.0741 4.46748 15.189 5.06709 12.4283C5.37394 11.0155 5.78802 9.61303 6.34257 8.39663C6.67518 7.66706 7.06795 6.98299 7.53439 6.40002C7.05961 6.32494 6.51342 6.28344 5.93648 6.31153C4.76753 6.36846 3.52227 6.70764 2.48014 7.57609C2.16193 7.84126 1.68901 7.79827 1.42383 7.48006C1.15866 7.16185 1.20165 6.68893 1.51986 6.42375C2.87773 5.2922 4.4658 4.88138 5.86352 4.81331C6.56421 4.77918 7.22963 4.83031 7.8143 4.92577C7.18449 3.89999 5.79157 2.75 3 2.75C2.58579 2.75 2.25 2.41421 2.25 2Z" fill="currentColor"/>
<path d="M18.3354 9.32919C17.9649 9.14395 17.5144 9.29412 17.3292 9.6646C17.1439 10.0351 17.2941 10.4856 17.6646 10.6708C18.3849 11.031 18.969 11.6151 19.3292 12.3354C19.5144 12.7059 19.9649 12.8561 20.3354 12.6708C20.4887 12.5942 20.6042 12.4722 20.6739 12.3292C21.0344 11.6117 21.6171 11.03 22.3354 10.6708C22.7059 10.4856 22.8561 10.0351 22.6708 9.6646C22.4856 9.29412 22.0351 9.14395 21.6646 9.32919C21.0219 9.65055 20.4565 10.099 20 10.6428C19.5435 10.099 18.9781 9.65055 18.3354 9.32919Z" fill="currentColor"/>
<path d="M12.3292 13.6646C12.5144 13.2941 12.9649 13.1439 13.3354 13.3292C13.9781 13.6505 14.5435 14.099 15 14.6428C15.4565 14.099 16.0219 13.6505 16.6646 13.3292C17.0351 13.1439 17.4856 13.2941 17.6708 13.6646C17.8561 14.0351 17.7059 14.4856 17.3354 14.6708C16.6171 15.03 16.0344 15.6117 15.6739 16.3292C15.6042 16.4722 15.4887 16.5942 15.3354 16.6708C14.9649 16.8561 14.5144 16.7059 14.3292 16.3354C13.969 15.6151 13.3849 15.031 12.6646 14.6708C12.2941 14.4856 12.1439 14.0351 12.3292 13.6646Z" fill="currentColor"/>
<path d="M19.3354 15.8292C18.9649 15.6439 18.5144 15.7941 18.3292 16.1646C18.1439 16.5351 18.2941 16.9856 18.6646 17.1708C19.1686 17.4228 19.5772 17.8314 19.8292 18.3354C20.0144 18.7059 20.4649 18.8561 20.8354 18.6708C20.9886 18.5942 21.1042 18.4722 21.1739 18.3293C21.4261 17.8282 21.8335 17.4218 22.3354 17.1708C22.7059 16.9856 22.8561 16.5351 22.6708 16.1646C22.4856 15.7941 22.0351 15.6439 21.6646 15.8292C21.2249 16.049 20.8312 16.3446 20.5 16.6993C20.1688 16.3446 19.7751 16.049 19.3354 15.8292Z" fill="currentColor"/>
</svg>
