<svg viewBox="0 0 24 24" fill="currentColor" xmlns="http://www.w3.org/2000/svg">
<path d="M19.5 7C20.8807 7 22 5.88071 22 4.5C22 3.11929 20.8807 2 19.5 2C18.1193 2 17 3.11929 17 4.5C17 5.88071 18.1193 7 19.5 7Z" fill="currentColor"/>
<path d="M4.5 3.24985C4.08579 3.24985 3.75 3.58563 3.75 3.99985C3.75 4.41406 4.08579 4.74985 4.5 4.74985C7.29157 4.74985 8.68449 5.89984 9.3143 6.92561C8.72963 6.83016 8.06421 6.77903 7.36352 6.81315C5.9658 6.88123 4.37773 7.29205 3.01986 8.4236C2.70165 8.68877 2.65866 9.1617 2.92383 9.4799C3.18901 9.79811 3.66193 9.84111 3.98014 9.57593C5.02227 8.70749 6.26753 8.36831 7.43648 8.31138C8.04073 8.28195 8.61126 8.32887 9.10134 8.41076C8.27901 9.38906 7.71412 10.3711 7.34781 11.5224C7.05124 12.4545 6.8919 13.4768 6.81407 14.6646C5.88688 14.7283 4.96644 14.9213 4.08017 15.2436C2.83132 15.6977 2 16.8846 2 18.2135V19.2957L2.20921 19.1562C3.86379 18.0532 5.99957 17.9796 7.72612 18.9662L8.12789 19.1958C8.35847 19.3275 8.64153 19.3275 8.8721 19.1958L9.39527 18.8968C10.503 18.2639 11.7837 18.0653 13 18.3011V18.2135C13 16.8846 12.1687 15.6977 10.9198 15.2436C10.0753 14.9365 9.19979 14.7468 8.31696 14.6745C8.39103 13.6093 8.5334 12.7434 8.77719 11.9772C9.12038 10.8986 9.67799 9.97779 10.6113 8.96572C11.0566 9.28829 11.5702 9.74698 11.9889 10.3016C12.5706 11.0723 12.9145 11.9506 12.7602 12.8765C12.6921 13.2851 12.9681 13.6715 13.3767 13.7396C13.7853 13.8077 14.1717 13.5317 14.2398 13.1231C14.4855 11.649 13.9128 10.3607 13.1861 9.39796C12.8184 8.91082 12.3974 8.48722 11.9861 8.13907C13.0581 7.76659 14.3779 7.66256 15.5315 8.58541C15.8549 8.84417 16.3269 8.79174 16.5856 8.4683C16.8444 8.14485 16.792 7.67288 16.4685 7.41412C14.5349 5.86714 12.3763 6.32696 10.9841 6.92234C10.3288 5.26389 8.45092 3.24985 4.5 3.24985Z" fill="currentColor"/>
<path d="M13.1163 21.5015C12.4246 21.1063 11.5754 21.1063 10.8837 21.5015L10.3605 21.8005C9.20764 22.4593 7.79234 22.4593 6.63947 21.8005L6.2377 21.5709C5.49775 21.1481 4.58241 21.1796 3.87331 21.6523L2.41601 22.6239C2.07137 22.8536 1.60571 22.7605 1.37595 22.4158C1.14619 22.0712 1.23932 21.6056 1.58396 21.3758L3.04126 20.4043C4.2231 19.6164 5.74866 19.5638 6.9819 20.2685L7.38367 20.4981C8.0754 20.8934 8.92458 20.8934 9.6163 20.4981L10.1395 20.1992C11.2923 19.5404 12.7076 19.5404 13.8605 20.1992L14.3837 20.4981C15.0754 20.8934 15.9246 20.8934 16.6163 20.4981L17.0181 20.2685C18.2513 19.5638 19.7769 19.6164 20.9587 20.4043L22.416 21.3758C22.7607 21.6056 22.8538 22.0712 22.624 22.4158C22.3943 22.7605 21.9286 22.8536 21.584 22.6239L20.1267 21.6523C19.4176 21.1796 18.5022 21.1481 17.7623 21.5709L17.3605 21.8005C16.2076 22.4593 14.7923 22.4593 13.6395 21.8005L13.1163 21.5015Z" fill="currentColor"/>
</svg>
