<svg viewBox="0 0 24 24" fill="currentColor" xmlns="http://www.w3.org/2000/svg">
<path d="M6.75 2C6.75 1.58579 7.08579 1.25 7.5 1.25C11.4509 1.25 13.3288 3.26405 13.9841 4.92249C15.3763 4.32711 17.5349 3.8673 19.4685 5.41428C19.792 5.67304 19.8444 6.14501 19.5856 6.46845C19.3269 6.79189 18.8549 6.84433 18.5315 6.58557C17.3779 5.66272 16.0581 5.76675 14.9861 6.13923C15.3974 6.48737 15.8184 6.91098 16.1861 7.39812C16.9128 8.36083 17.4855 9.64915 17.2398 11.1233C17.1717 11.5318 16.7853 11.8079 16.3767 11.7398C15.9681 11.6717 15.6921 11.2853 15.7602 10.8767C15.9145 9.9508 15.5706 9.07243 14.9889 8.30179C14.5724 7.75 14.0619 7.29317 13.6182 6.97087C12.7862 7.92841 12.4813 8.76872 12.4366 9.66244C12.3941 10.5119 12.5809 11.4484 12.902 12.6492C13.925 12.6903 14.9431 12.8884 15.9198 13.2436L16.1204 13.3165C17.0067 13.6388 17.6602 14.3695 17.8999 15.25H22C22.4142 15.25 22.75 15.5858 22.75 16C22.75 16.4142 22.4142 16.75 22 16.75H2C1.58579 16.75 1.25 16.4142 1.25 16C1.25 15.5858 1.58579 15.25 2 15.25H7.10008C7.33976 14.3695 7.99332 13.6388 8.87959 13.3165L9.08017 13.2436C9.82322 12.9734 10.5903 12.7941 11.3652 12.7056C11.0793 11.5901 10.8896 10.5636 10.9384 9.58754C10.9947 8.46159 11.3615 7.44055 12.1367 6.41691C11.6388 6.33134 11.0553 6.28139 10.4365 6.31153C9.26753 6.36846 8.02227 6.70764 6.98014 7.57609C6.66193 7.84126 6.18901 7.79827 5.92383 7.48006C5.65866 7.16185 5.70165 6.68893 6.01986 6.42375C7.37773 5.2922 8.9658 4.88138 10.3635 4.81331C11.0642 4.77918 11.7296 4.83031 12.3143 4.92577C11.6845 3.89999 10.2916 2.75 7.5 2.75C7.08579 2.75 6.75 2.41421 6.75 2Z" fill="currentColor"/>
<path d="M10.25 19C10.25 18.5858 10.5858 18.25 11 18.25H15C15.4142 18.25 15.75 18.5858 15.75 19C15.75 19.4142 15.4142 19.75 15 19.75H11C10.5858 19.75 10.25 19.4142 10.25 19Z" fill="currentColor"/>
<path d="M7.25 22C7.25 21.5858 7.58579 21.25 8 21.25H10C10.4142 21.25 10.75 21.5858 10.75 22C10.75 22.4142 10.4142 22.75 10 22.75H8C7.58579 22.75 7.25 22.4142 7.25 22Z" fill="currentColor"/>
<path d="M15.25 22.0097C15.249 21.5955 15.5839 21.2589 15.9981 21.2578L18.9981 21.2502C19.4123 21.2492 19.749 21.5841 19.75 21.9984C19.751 22.4126 19.4161 22.7492 19.0019 22.7502L16.0019 22.7578C15.5877 22.7589 15.251 22.4239 15.25 22.0097Z" fill="currentColor"/>
<path d="M19.25 19C19.25 18.5858 19.5858 18.25 20 18.25H21C21.4142 18.25 21.75 18.5858 21.75 19C21.75 19.4142 21.4142 19.75 21 19.75H20C19.5858 19.75 19.25 19.4142 19.25 19Z" fill="currentColor"/>
<path d="M3 18.25C2.58579 18.25 2.25 18.5858 2.25 19C2.25 19.4142 2.58579 19.75 3 19.75H6C6.41421 19.75 6.75 19.4142 6.75 19C6.75 18.5858 6.41421 18.25 6 18.25H3Z" fill="currentColor"/>
</svg>
