<svg viewBox="0 0 24 24" fill="currentColor" xmlns="http://www.w3.org/2000/svg">
<path d="M11.1182 14.9198C9.0918 14.6004 7.35484 14.3267 6.3602 12.8303C4.74458 10.3995 4.13965 5.25866 4.0018 2.9734C3.9675 2.40486 4.42932 1.95252 4.9771 2.004C5.17024 2.02215 5.37186 2.04065 5.58069 2.05981C9.26345 2.39772 15.187 2.94125 16.4104 5.3955C17.9206 8.42489 17.6215 11.2241 17.2412 14.784C17.2354 14.8383 17.2296 14.8928 17.2237 14.9475C16.6677 14.0683 16.0199 13.2524 15.2907 12.5151V8.3723C15.2907 7.96169 14.9692 7.62883 14.5728 7.62883C14.1763 7.62883 13.8549 7.9617 13.8549 8.37231V11.0736L10.4438 7.36403C10.1703 7.06668 9.71594 7.05519 9.42884 7.33837C9.14173 7.62154 9.13064 8.09215 9.40407 8.38949L12.3507 11.594H10.881C10.4846 11.5941 10.1632 11.9269 10.1632 12.3376C10.1632 12.7482 10.4846 13.081 10.8811 13.081L13.7559 13.0808L14.0913 13.3847C14.957 14.223 15.7019 15.1818 16.3058 16.2313C16.1242 16.2537 15.9334 16.2274 15.7532 16.1429C14.1706 15.4008 12.5701 15.1486 11.1182 14.9198ZM16.3058 16.2313C16.5917 16.7282 16.846 17.2455 17.0666 17.78L18.6218 21.5485C18.7776 21.9261 19.1995 22.1014 19.5641 21.94C19.9286 21.7786 20.0979 21.3417 19.942 20.9641L18.3868 17.1956C18.0627 16.4102 17.6732 15.6582 17.2237 14.9475C17.2097 15.0791 17.1956 15.2118 17.1815 15.3456C17.1296 15.8377 16.7445 16.177 16.3058 16.2313Z" fill="currentColor"/>
</svg>
