<svg viewBox="0 0 24 24" fill="currentColor" xmlns="http://www.w3.org/2000/svg">
<path d="M11.8087 2.02925C11.9335 1.99025 12.0664 1.99025 12.1913 2.02925C13.8772 2.5558 16.0906 5.66091 16.0906 9.0796C16.5577 8.61631 18.0492 7.8144 20.4869 7.98867C20.9161 8.01935 21.2596 8.34981 21.3059 8.77805C21.5277 10.8276 21.3346 14.2331 19.1585 15.6719C19.6157 15.6719 20.7272 16.0774 21.8348 17.6137C22.0836 17.9589 22.0491 18.4312 21.7463 18.73C20.0422 20.412 16.555 22.2956 12.7486 19.7729V15.4394L17.8571 12.6497C18.2207 12.4512 18.3547 11.9951 18.1564 11.6311C17.9581 11.2671 17.5025 11.133 17.1389 11.3315L12.7486 13.729V6.98542C12.7486 6.57077 12.4129 6.23464 11.9987 6.23464C11.5846 6.23464 11.2488 6.57077 11.2488 6.98542V13.729L6.85853 11.3315C6.49494 11.133 6.03942 11.2671 5.84109 11.6311C5.64277 11.9951 5.77675 12.4512 6.14034 12.6497L11.2488 15.4394V19.7746C7.44349 22.2948 3.95745 20.4117 2.25365 18.73C1.95085 18.4312 1.91637 17.9589 2.16521 17.6137C3.27275 16.0774 4.38425 15.6719 4.84151 15.6719C2.66538 14.2331 2.4723 10.8276 2.69409 8.77805C2.74043 8.34981 3.0839 8.01935 3.51306 7.98867C5.95084 7.8144 7.44229 8.61631 7.90944 9.0796C7.90944 5.66091 10.1227 2.5558 11.8087 2.02925Z" fill="currentColor"/>
</svg>
