<svg viewBox="0 0 24 24" fill="currentColor" xmlns="http://www.w3.org/2000/svg">
<path d="M12.0259 3.70878C12.178 3.96235 12.3027 4.22508 12.4039 4.49301C12.6255 4.31157 12.8649 4.1464 13.1233 4.00283C14.9965 2.96238 17.3896 3.32445 18.7275 3.66198C19.3382 3.81608 19.6863 4.39608 19.5197 4.982C19.1546 6.26541 18.284 8.44025 16.4108 9.4807C14.9863 10.2719 13.2612 10.2521 11.9281 10.0487C11.9226 10.0655 11.9172 10.0823 11.9118 10.0992C11.4039 11.6797 10.9519 13.5406 10.9994 14.9669C11.0414 16.2269 11.4967 17.8562 11.9794 19.2354C12.2158 19.911 12.4498 20.5016 12.6245 20.9229C12.7118 21.1333 12.7839 21.3007 12.8338 21.4144C12.8587 21.4713 12.8781 21.5148 12.8909 21.5434L12.9052 21.5751L12.9085 21.5824L12.9091 21.5837C13.139 22.0857 12.9186 22.6793 12.4165 22.9093C11.9144 23.1394 11.3209 22.9188 11.0909 22.4167L11.9997 22.0003C11.0909 22.4167 11.0909 22.4169 11.0909 22.4167L11.0901 22.4151L11.0887 22.412L11.0838 22.4012L11.0662 22.3622C11.0511 22.3285 11.0294 22.2798 11.0021 22.2175C10.9474 22.0927 10.87 21.913 10.7771 21.6891C10.5916 21.2419 10.3433 20.6153 10.0916 19.8961C9.59802 18.4857 9.05326 16.615 9.00054 15.0335C8.94127 13.2553 9.4802 11.1358 9.99544 9.52554C8.74803 9.03269 7.2685 8.1907 6.43993 6.80901C5.33793 4.97136 5.6714 2.6526 5.99695 1.35861C6.14557 0.76785 6.73702 0.439594 7.34302 0.611532C8.6704 0.988149 10.9239 1.87113 12.0259 3.70878Z" fill="currentColor"/>
</svg>
