<svg viewBox="0 0 24 24" fill="currentColor" xmlns="http://www.w3.org/2000/svg">
<path d="M12 1.25C6.06294 1.25 1.25 6.06294 1.25 12C1.25 17.9371 6.06294 22.75 12 22.75C17.9371 22.75 22.75 17.9371 22.75 12C22.75 6.06294 17.9371 1.25 12 1.25ZM2.75 12C2.75 6.89137 6.89137 2.75 12 2.75C17.1086 2.75 21.25 6.89137 21.25 12C21.25 13.3106 20.9774 14.5576 20.4859 15.6873L17.8157 11.7018C17.0162 10.5084 15.2153 10.5084 14.4158 11.7019L13.1715 13.5591L10.2393 8.93615C9.44753 7.68795 7.57744 7.68795 6.78572 8.93615L3.14364 14.6782C2.88762 13.8304 2.75 12.9313 2.75 12Z" fill="currentColor"/>
</svg>
