<svg viewBox="0 0 24 24" fill="currentColor" xmlns="http://www.w3.org/2000/svg">
<path d="M10.6729 11.0213C9.8395 9.65957 7.87098 9.65957 7.03759 11.0213L2.31997 18.7294C1.4449 20.1592 2.46795 22 4.13762 22H19.8622C21.5556 22 22.5746 20.1121 21.6517 18.6845L18.6481 14.0384C17.8065 12.7365 15.9109 12.7365 15.0692 14.0384L13.7595 16.0644L10.6729 11.0213Z" fill="currentColor"/>
<path d="M21.3736 15.4914C21.7786 14.4045 22 13.2281 22 12C22 6.47715 17.5228 2 12 2C6.47715 2 2 6.47715 2 12C2 13.1961 2.21 14.3432 2.59514 15.4063L5.75818 10.2382C7.17665 7.92059 10.5338 7.92059 11.9523 10.2382L13.7942 13.2477L13.8095 13.224C15.2421 11.0079 18.4752 11.0079 19.9078 13.224L21.3736 15.4914Z" fill="currentColor"/>
</svg>
