<svg viewBox="0 0 24 24" fill="currentColor" xmlns="http://www.w3.org/2000/svg">
<path d="M8.99752 20.5872L12.7989 16.0207C12.9339 15.8585 13.1104 15.7303 13.319 15.6962C13.4984 15.667 13.6938 15.6599 13.856 15.7046C14.2419 15.8108 13.9917 16.2935 13.713 16.5782C13.1486 17.155 12.6716 18.1535 13.4181 19.3937C14.388 21.0053 16.2378 20.8767 17.0414 20.6109C19.0504 19.9465 22.8226 17.0886 21.8394 10.9723C20.9625 6.64855 17.3514 3.03749 13.0277 2.16055C6.91145 1.17736 4.05352 4.94961 3.38908 6.95863C3.12331 7.76224 2.99467 9.61195 4.60629 10.5819C5.84651 11.3284 6.845 10.8514 7.42175 10.287C7.70649 10.0083 8.18919 9.75814 8.29539 10.144C8.34005 10.3062 8.33305 10.5016 8.30378 10.681C8.26974 10.8896 8.14145 11.0661 7.97933 11.2011L3.41276 15.0025C0.874334 17.5409 2.32184 19.7762 3.3938 20.6062C4.22375 21.6782 6.4591 23.1257 8.99752 20.5872ZM18.5947 13.0715C18.4984 10.9098 16.8431 6.26044 10.8487 5.39778C10.4037 5.33373 10.0948 4.92102 10.1589 4.47597C10.2229 4.03092 10.6356 3.72205 11.0807 3.7861C18.0771 4.79296 20.1016 10.3109 20.2214 12.9991C20.2414 13.4482 19.8935 13.8286 19.4443 13.8486C18.9951 13.8686 18.6147 13.5207 18.5947 13.0715Z" fill="currentColor"/>
</svg>
