<svg viewBox="0 0 24 24" fill="currentColor" xmlns="http://www.w3.org/2000/svg">
<path d="M2.76659 13.1637C3.22306 13.8069 4.4525 14.6754 5.84863 13.1523L7.9394 10.4124C8.01362 10.3151 8.11073 10.2382 8.22545 10.2177C8.32411 10.2002 8.43158 10.196 8.52082 10.2228C8.73303 10.2865 8.59542 10.5761 8.44215 10.747C8.13171 11.093 7.86938 11.6921 8.27993 12.4362C8.81343 13.4032 9.83077 13.326 10.2728 13.1665C11.3777 12.7679 13.4525 11.0531 12.9117 7.3834C12.4294 4.78913 10.4433 2.6225 8.06522 2.09633C4.7013 1.50642 3.12944 3.76977 2.764 4.97518C2.61782 5.45734 2.54707 6.56717 3.43346 7.14917C4.11558 7.59704 4.66475 7.31086 4.98196 6.9722C5.13857 6.805 5.40405 6.65488 5.46246 6.88638C5.48703 6.98373 5.48318 7.10097 5.46708 7.2086C5.44836 7.33375 5.3778 7.43969 5.28863 7.52066L2.77702 9.80149C1.38088 11.3245 2.17701 12.6657 2.76659 13.1637Z" fill="currentColor"/>
<path d="M15.7768 20.1562C15.7768 21.8097 16.9132 22.0663 17.5 21.9875C18.0868 22.0663 19.2232 21.8097 19.2232 20.1562L18.9871 17.4307C18.9787 17.334 18.9936 17.2347 19.0475 17.1557C19.0938 17.0877 19.1519 17.0218 19.2158 16.9835C19.3676 16.8924 19.4393 17.1311 19.4412 17.3146C19.445 17.6863 19.6059 18.1668 20.2189 18.3277C21.0155 18.5366 21.5466 17.8923 21.7125 17.544C22.1274 16.6733 22.4095 14.5138 20.2189 12.842C18.6142 11.7193 16.3858 11.7193 14.7811 12.842C12.5905 14.5138 12.8726 16.6733 13.2875 17.544C13.4534 17.8923 13.9845 18.5366 14.7811 18.3277C15.3941 18.1668 15.555 17.6863 15.5588 17.3146C15.5607 17.1311 15.6324 16.8924 15.7842 16.9835C15.8481 17.0218 15.9062 17.0877 15.9525 17.1557C16.0064 17.2347 16.0213 17.334 16.0129 17.4307L15.7768 20.1562Z" fill="currentColor"/>
</svg>
