<svg viewBox="0 0 24 24" fill="currentColor" xmlns="http://www.w3.org/2000/svg">
<path d="M2.11253 6.18418C2.45291 4.32931 3.8929 2 5.56183 2H6.43817C8.1071 2 9.54709 4.32931 9.88747 6.18418L9.96233 6.59209C10.1902 7.83405 9.35514 9 8.23768 9H6.634C6.52185 10.3966 6.61101 12.2972 7.18123 14.2108C7.73852 16.081 8.74527 17.9356 10.4494 19.361C10.3494 18.6503 10.254 17.8476 10.1669 17.0433C10.0095 15.59 9.87457 14.0838 9.78711 13H9.10145C8.40304 13 7.8811 12.3782 8.02354 11.7158L8.07033 11.4982C8.28307 10.509 9.18306 9 10.2261 9H10.7739C11.8169 9 12.7169 10.509 12.9297 11.4982L12.9765 11.7158C13.1189 12.3782 12.597 13 11.8985 13H11.292C11.3787 14.0622 11.5082 15.4975 11.6581 16.8817C11.732 17.5641 11.8099 18.2239 11.8888 18.8159C12.9657 15.0397 13.6685 10.9042 13.7434 8H12.542C11.5643 8 10.8335 7.2227 11.033 6.39473L11.0985 6.12279C11.3963 4.8862 12.6563 3 14.1166 3H14.8834C16.3437 3 17.6037 4.8862 17.9015 6.12279L17.967 6.39473C18.1665 7.2227 17.4357 8 16.458 8H15.2438C15.1637 11.3178 14.3131 16.0619 13.0471 20.1878C16.8372 18.7646 17.7783 15.0899 17.7695 13H16.542C15.5643 13 14.8335 12.2227 15.033 11.3947L15.0985 11.1228C15.3963 9.8862 16.6563 8 18.1166 8H18.8834C20.3437 8 21.6037 9.8862 21.9015 11.1228L21.967 11.3947C22.1665 12.2227 21.4357 13 20.458 13H19.2682C19.2681 15.0334 18.5179 18.4209 15.6334 20.5H17.75C18.1642 20.5 18.5 20.8358 18.5 21.25C18.5 21.6642 18.1642 22 17.75 22H5.75C5.33579 22 5 21.6642 5 21.25C5 20.8358 5.33579 20.5 5.75 20.5H9.47266C7.50736 18.851 6.36414 16.7214 5.74369 14.6392C5.13193 12.5862 5.01867 10.5521 5.12976 9H3.76232C2.64486 9 1.80976 7.83405 2.03767 6.59209L2.11253 6.18418Z" fill="currentColor"/>
</svg>
