<svg viewBox="0 0 24 24" fill="currentColor" xmlns="http://www.w3.org/2000/svg">
<path d="M3.86759 4.63008C3.34947 4.8046 3 5.29459 3 5.84649V9.34829C3 14.9048 6.37552 19.8913 11.5001 21.9052C11.8216 22.0316 12.1784 22.0316 12.4999 21.9052C17.6245 19.8913 21 14.9048 21 9.34829V5.84649C21 5.29459 20.6505 4.80461 20.1324 4.63008L12.6325 2.10372C12.2219 1.96543 11.7781 1.96543 11.3675 2.10372L3.86759 4.63008ZM16 9.97508C16 11.9485 14.6006 13.5916 12.75 13.9463V12.9071L13.916 12.1215C14.2607 11.8893 14.3538 11.4188 14.124 11.0705C13.8943 10.7222 13.4286 10.6281 13.084 10.8603L12.75 11.0853V9.97508C12.75 9.55649 12.4142 9.21716 12 9.21716C11.5858 9.21716 11.25 9.55649 11.25 9.97508V11.0853L10.916 10.8603C10.5714 10.6281 10.1057 10.7222 9.87596 11.0705C9.6462 11.4188 9.73933 11.8893 10.084 12.1215L11.25 12.9071V13.9463C9.39935 13.5916 8 11.9485 8 9.97508C8 7.74263 9.79086 5.93288 12 5.93288C14.2091 5.93288 16 7.74263 16 9.97508ZM11.25 13.9463C11.4929 13.9929 11.7437 14.0173 12 14.0173C12.2563 14.0173 12.5071 13.9929 12.75 13.9463V17.0489C12.75 17.4675 12.4142 17.8068 12 17.8068C11.5858 17.8068 11.25 17.4675 11.25 17.0489V13.9463Z" fill="currentColor"/>
</svg>
