<svg viewBox="0 0 24 24" fill="currentColor" xmlns="http://www.w3.org/2000/svg">
<path d="M1.25 3C1.25 2.58579 1.58579 2.25 2 2.25H22C22.4142 2.25 22.75 2.58579 22.75 3C22.75 3.41421 22.4142 3.75 22 3.75H2C1.58579 3.75 1.25 3.41421 1.25 3Z" fill="currentColor"/>
<path d="M3.25 6C3.25 5.58579 3.58579 5.25 4 5.25H20C20.4142 5.25 20.75 5.58579 20.75 6C20.75 6.41421 20.4142 6.75 20 6.75H4C3.58579 6.75 3.25 6.41421 3.25 6Z" fill="currentColor"/>
<path d="M8 8.25C7.58579 8.25 7.25 8.58579 7.25 9C7.25 9.41421 7.58579 9.75 8 9.75H20C20.4142 9.75 20.75 9.41421 20.75 9C20.75 8.58579 20.4142 8.25 20 8.25H8Z" fill="currentColor"/>
<path d="M9.25 12C9.25 11.5858 9.58579 11.25 10 11.25H18C18.4142 11.25 18.75 11.5858 18.75 12C18.75 12.4142 18.4142 12.75 18 12.75H10C9.58579 12.75 9.25 12.4142 9.25 12Z" fill="currentColor"/>
<path d="M9 14.25C8.58579 14.25 8.25 14.5858 8.25 15C8.25 15.4142 8.58579 15.75 9 15.75H15C15.4142 15.75 15.75 15.4142 15.75 15C15.75 14.5858 15.4142 14.25 15 14.25H9Z" fill="currentColor"/>
<path d="M9.25 18C9.25 17.5858 9.58579 17.25 10 17.25H14C14.4142 17.25 14.75 17.5858 14.75 18C14.75 18.4142 14.4142 18.75 14 18.75H10C9.58579 18.75 9.25 18.4142 9.25 18Z" fill="currentColor"/>
<path d="M10 20.25C9.58579 20.25 9.25 20.5858 9.25 21C9.25 21.4142 9.58579 21.75 10 21.75H12C12.4142 21.75 12.75 21.4142 12.75 21C12.75 20.5858 12.4142 20.25 12 20.25H10Z" fill="currentColor"/>
</svg>
