<svg viewBox="0 0 24 24" fill="currentColor" xmlns="http://www.w3.org/2000/svg">
<path d="M12 2C9.79086 2 8 3.79086 8 6V12C8 13.9528 9.39935 15.5787 11.25 15.9298V21.25H6.75V15.9298C7.12557 15.8586 7.48254 15.7348 7.81301 15.5665C6.99424 14.6065 6.5 13.3614 6.5 12V8.03095C6.3362 8.01052 6.16933 8 6 8C3.79086 8 2 9.79086 2 12C2 13.9528 3.39935 15.5787 5.25 15.9298V21.25H2C1.58579 21.25 1.25 21.5858 1.25 22C1.25 22.4142 1.58579 22.75 2 22.75H22C22.4142 22.75 22.75 22.4142 22.75 22C22.75 21.5858 22.4142 21.25 22 21.25H18.75V15.9298C20.6006 15.5787 22 13.9528 22 12C22 9.79086 20.2091 8 18 8C17.8307 8 17.6638 8.01052 17.5 8.03095V12C17.5 13.3614 17.0058 14.6065 16.187 15.5665C16.5175 15.7348 16.8744 15.8586 17.25 15.9298V21.25H12.75V15.9298C14.6006 15.5787 16 13.9528 16 12V6C16 3.79086 14.2091 2 12 2Z" fill="currentColor"/>
</svg>
