<svg viewBox="0 0 24 24" fill="currentColor" xmlns="http://www.w3.org/2000/svg">
<path d="M12.75 17.9106C15.1556 17.3316 17 14.0104 17 10C17 5.58172 14.7614 2 12 2C9.23858 2 7 5.58172 7 10C7 14.0104 8.84437 17.3316 11.25 17.9106V22C11.25 22.4142 11.5858 22.75 12 22.75C12.4142 22.75 12.75 22.4142 12.75 22V17.9106ZM12.75 17.9106C12.5054 17.9695 12.2549 18 12 18C11.7451 18 11.4946 17.9695 11.25 17.9106V12C11.25 11.5858 11.5858 11.25 12 11.25C12.4142 11.25 12.75 11.5858 12.75 12V17.9106Z" fill="currentColor"/>
</svg>
