<svg viewBox="0 0 24 24" fill="currentColor" xmlns="http://www.w3.org/2000/svg">
<path d="M17.75 17.9106C20.1556 17.3316 22 14.0104 22 10C22 5.58172 19.7614 2 17 2C14.2386 2 12 5.58172 12 10C12 14.0104 13.8444 17.3316 16.25 17.9106V21.25H6.75V17.8859C8.60065 17.3155 10 14.6733 10 11.5C10 7.91015 8.20914 5 6 5C3.79086 5 2 7.91015 2 11.5C2 14.6733 3.39935 17.3155 5.25 17.8859V21.25H2C1.58579 21.25 1.25 21.5858 1.25 22C1.25 22.4142 1.58579 22.75 2 22.75H22C22.4142 22.75 22.75 22.4142 22.75 22C22.75 21.5858 22.4142 21.25 22 21.25H17.75V17.9106Z" fill="currentColor"/>
</svg>
