<svg viewBox="0 0 24 24" fill="currentColor" xmlns="http://www.w3.org/2000/svg">
<path d="M21 6C21 7.19469 20.4762 8.26706 19.6458 9C20.4762 9.73295 21 10.8053 21 12C21 13.9528 19.6006 15.5787 17.75 15.9298V21.25H22C22.4142 21.25 22.75 21.5858 22.75 22C22.75 22.4142 22.4142 22.75 22 22.75H2C1.58579 22.75 1.25 22.4142 1.25 22C1.25 21.5858 1.58579 21.25 2 21.25H6.25V16.9298C4.39935 16.5787 3 14.9528 3 13V8C3 5.79086 4.79086 4 7 4C9.20914 4 11 5.79086 11 8V13C11 14.9528 9.60065 16.5787 7.75 16.9298V21.25H16.25V15.9298C14.3994 15.5787 13 13.9528 13 12C13 10.8053 13.5238 9.73295 14.3542 9C13.5238 8.26706 13 7.19469 13 6C13 3.79086 14.7909 2 17 2C19.2091 2 21 3.79086 21 6Z" fill="currentColor"/>
</svg>
