<svg viewBox="0 0 24 24" fill="currentColor" xmlns="http://www.w3.org/2000/svg">
<path d="M18.0575 2.65381C17.6218 1.78207 16.3782 1.78206 15.9425 2.6538L13.1263 8.28832C12.7333 9.07472 13.3049 10 14.1838 10H14.5872L12.1579 14.8604C11.6666 15.8434 12.3812 17 13.4798 17H16.25V21.25H6.70732C6.73496 21.1718 6.75 21.0877 6.75 21V14.9298C8.60065 14.5787 10 12.9528 10 11C10 8.79086 8.20914 7 6 7C3.79086 7 2 8.79086 2 11C2 12.9528 3.39935 14.5787 5.25 14.9298V21C5.25 21.0877 5.26504 21.1718 5.29268 21.25H2C1.58579 21.25 1.25 21.5858 1.25 22C1.25 22.4142 1.58579 22.75 2 22.75H22C22.4142 22.75 22.75 22.4142 22.75 22C22.75 21.5858 22.4142 21.25 22 21.25H17.75V17H20.5202C21.6188 17 22.3334 15.8434 21.8421 14.8604L19.4128 10H19.8162C20.6951 10 21.2667 9.07473 20.8737 8.28832L18.0575 2.65381ZM5.25 14.9298V13.8107L3.96967 12.5303C3.67678 12.2374 3.67678 11.7626 3.96967 11.4697C4.26256 11.1768 4.73744 11.1768 5.03033 11.4697L5.25 11.6893V11C5.25 10.5858 5.58579 10.25 6 10.25C6.41421 10.25 6.75 10.5858 6.75 11V11.6893L6.96967 11.4697C7.26256 11.1768 7.73744 11.1768 8.03033 11.4697C8.32322 11.7626 8.32322 12.2374 8.03033 12.5303L6.75 13.8107V14.9298C6.50706 14.9759 6.25635 15 6 15C5.74365 15 5.49294 14.9759 5.25 14.9298Z" fill="currentColor"/>
</svg>
