<svg viewBox="0 0 24 24" fill="currentColor" xmlns="http://www.w3.org/2000/svg">
<path d="M7.75 14.9536C10.7097 14.5845 13 12.0597 13 9C13 5.68629 10.3137 3 7 3C3.68629 3 1 5.68629 1 9C1 12.0597 3.29027 14.5845 6.25 14.9536V21C6.25 21.4142 6.58579 21.75 7 21.75C7.41421 21.75 7.75 21.4142 7.75 21V14.9536ZM7.75 14.9536C7.5043 14.9842 7.254 15 7 15C6.746 15 6.4957 14.9842 6.25 14.9536V12.8107L4.46967 11.0303C4.17678 10.7374 4.17678 10.2626 4.46967 9.96967C4.76256 9.67678 5.23744 9.67678 5.53033 9.96967L6.25 10.6893V9C6.25 8.58579 6.58579 8.25 7 8.25C7.41421 8.25 7.75 8.58579 7.75 9V10.6893L8.46967 9.96967C8.76256 9.67678 9.23744 9.67678 9.53033 9.96967C9.82322 10.2626 9.82322 10.7374 9.53033 11.0303L7.75 12.8107V14.9536Z" fill="currentColor"/>
<path d="M19.75 14.9298V21C19.75 21.4142 19.4142 21.75 19 21.75C18.5858 21.75 18.25 21.4142 18.25 21V14.9298C16.3994 14.5787 15 12.9528 15 11C15 8.79086 16.7909 7 19 7C21.2091 7 23 8.79086 23 11C23 12.9528 21.6006 14.5787 19.75 14.9298ZM19.75 14.9298V13.8107L21.0303 12.5303C21.3232 12.2374 21.3232 11.7626 21.0303 11.4697C20.7374 11.1768 20.2626 11.1768 19.9697 11.4697L19.75 11.6893V11C19.75 10.5858 19.4142 10.25 19 10.25C18.5858 10.25 18.25 10.5858 18.25 11V11.6893L18.0303 11.4697C17.7374 11.1768 17.2626 11.1768 16.9697 11.4697C16.6768 11.7626 16.6768 12.2374 16.9697 12.5303L18.25 13.8107V14.9298C18.4929 14.9759 18.7437 15 19 15C19.2563 15 19.5071 14.9759 19.75 14.9298Z" fill="currentColor"/>
</svg>
