<svg viewBox="0 0 24 24" fill="currentColor" xmlns="http://www.w3.org/2000/svg">
<path d="M12 2C17.5228 2 22 6.47715 22 12C22 17.5228 17.5228 22 12 22C6.47715 22 2 17.5228 2 12C2 6.47715 6.47715 2 12 2ZM7.6875 7.25C7.27329 7.25 6.9375 7.58579 6.9375 8V9.90341L5.45285 11.487C5.18238 11.7755 5.18238 12.2245 5.45285 12.513L6.9375 14.0966V16C6.9375 16.4142 7.27329 16.75 7.6875 16.75H9.9375C10.3517 16.75 10.6875 16.4142 10.6875 16C10.6875 15.5858 10.3517 15.25 9.9375 15.25H8.4375V13.8C8.4375 13.6095 8.36497 13.4261 8.23465 13.287L7.02805 12L8.23465 10.713C8.36497 10.5739 8.4375 10.3905 8.4375 10.2V8.75H9.9375C10.3517 8.75 10.6875 8.41421 10.6875 8C10.6875 7.58579 10.3517 7.25 9.9375 7.25H7.6875ZM14.0625 7.25C13.6483 7.25 13.3125 7.58579 13.3125 8C13.3125 8.41421 13.6483 8.75 14.0625 8.75H15.5625V10.2C15.5625 10.3905 15.635 10.5739 15.7653 10.713L16.972 12L15.7653 13.287C15.635 13.4261 15.5625 13.6095 15.5625 13.8V15.25H14.0625C13.6483 15.25 13.3125 15.5858 13.3125 16C13.3125 16.4142 13.6483 16.75 14.0625 16.75H16.3125C16.7267 16.75 17.0625 16.4142 17.0625 16V14.0966L18.5472 12.513C18.8176 12.2245 18.8176 11.7755 18.5472 11.487L17.0625 9.90341V8C17.0625 7.58579 16.7267 7.25 16.3125 7.25H14.0625Z" fill="currentColor"/>
</svg>
