<svg viewBox="0 0 24 24" fill="currentColor" xmlns="http://www.w3.org/2000/svg">
<path d="M12 3C10.3431 3 9 4.34315 9 6C9 7.65685 10.3431 9 12 9C13.6569 9 15 7.65685 15 6C15 4.34315 13.6569 3 12 3Z" fill="currentColor"/>
<path d="M2.25 12C2.25 11.5858 2.58579 11.25 3 11.25H21C21.4142 11.25 21.75 11.5858 21.75 12C21.75 12.4142 21.4142 12.75 21 12.75H3C2.58579 12.75 2.25 12.4142 2.25 12Z" fill="currentColor"/>
<path d="M9 18C9 16.3431 10.3431 15 12 15C13.6569 15 15 16.3431 15 18C15 19.6569 13.6569 21 12 21C10.3431 21 9 19.6569 9 18Z" fill="currentColor"/>
</svg>
