<svg viewBox="0 0 24 24" fill="currentColor" xmlns="http://www.w3.org/2000/svg">
<path d="M12 22C6.47715 22 2 17.5228 2 12C2 6.47715 6.47715 2 12 2C17.5228 2 22 6.47715 22 12C22 17.5228 17.5228 22 12 22ZM12.75 7C12.75 6.58579 12.4142 6.25 12 6.25C11.5858 6.25 11.25 6.58579 11.25 7V10.1389H8C7.58579 10.1389 7.25 10.4747 7.25 10.8889C7.25 11.3031 7.58579 11.6389 8 11.6389H11.25V14.7778C11.25 15.192 11.5858 15.5278 12 15.5278C12.4142 15.5278 12.75 15.192 12.75 14.7778V11.6389H16C16.4142 11.6389 16.75 11.3031 16.75 10.8889C16.75 10.4747 16.4142 10.1389 16 10.1389H12.75V7ZM8 16.25C7.58579 16.25 7.25 16.5858 7.25 17C7.25 17.4142 7.58579 17.75 8 17.75H16C16.4142 17.75 16.75 17.4142 16.75 17C16.75 16.5858 16.4142 16.25 16 16.25H8Z" fill="currentColor"/>
</svg>
