<svg viewBox="0 0 24 24" fill="currentColor" xmlns="http://www.w3.org/2000/svg">
<path d="M5 2H19C20.6569 2 22 3.34315 22 5V19C22 20.6569 20.6569 22 19 22H5C3.34315 22 2 20.6569 2 19V5C2 3.34315 3.34315 2 5 2ZM12.75 6C12.75 5.58579 12.4142 5.25 12 5.25C11.5858 5.25 11.25 5.58579 11.25 6V9.91667H7C6.58579 9.91667 6.25 10.2525 6.25 10.6667C6.25 11.0809 6.58579 11.4167 7 11.4167H11.25V15.3333C11.25 15.7475 11.5858 16.0833 12 16.0833C12.4142 16.0833 12.75 15.7475 12.75 15.3333V11.4167H17C17.4142 11.4167 17.75 11.0809 17.75 10.6667C17.75 10.2525 17.4142 9.91667 17 9.91667H12.75V6ZM7 17.25C6.58579 17.25 6.25 17.5858 6.25 18C6.25 18.4142 6.58579 18.75 7 18.75H17C17.4142 18.75 17.75 18.4142 17.75 18C17.75 17.5858 17.4142 17.25 17 17.25H7Z" fill="currentColor"/>
</svg>
