<svg viewBox="0 0 24 24" fill="currentColor" xmlns="http://www.w3.org/2000/svg">
<path d="M5 2H19C20.6569 2 22 3.34315 22 5V19C22 20.6569 20.6569 22 19 22H5C3.34315 22 2 20.6569 2 19V5C2 3.34315 3.34315 2 5 2ZM13 8.25C12.7 8.25 12.4288 8.4288 12.3106 8.70456L9.74701 14.6864L7.53033 12.4697C7.23744 12.1768 6.76256 12.1768 6.46967 12.4697L5.46967 13.4697C5.17678 13.7626 5.17678 14.2374 5.46967 14.5303C5.76256 14.8232 6.23744 14.8232 6.53033 14.5303L7 14.0607L9.46967 16.5303C9.64565 16.7063 9.89745 16.7835 10.1418 16.7365C10.3862 16.6894 10.5913 16.5242 10.6894 16.2954L13.4945 9.75H18C18.4142 9.75 18.75 9.41421 18.75 9C18.75 8.58579 18.4142 8.25 18 8.25H13Z" fill="currentColor"/>
</svg>
