<svg viewBox="0 0 24 24" fill="currentColor" xmlns="http://www.w3.org/2000/svg">
<path d="M3 11C2.44772 11 2 11.4477 2 12V13.2498C2.07859 13.2498 2.15852 13.2623 2.23717 13.2885L3.73717 13.7885C4.55689 14.0617 5.44311 14.0617 6.26283 13.7885C7.39045 13.4126 8.60955 13.4126 9.73717 13.7885C10.5569 14.0617 11.4431 14.0617 12.2628 13.7885C13.3904 13.4126 14.6096 13.4126 15.7372 13.7885C16.5569 14.0617 17.4431 14.0617 18.2628 13.7885C19.3904 13.4126 20.6096 13.4126 21.7372 13.7885L22 13.8761V12C22 11.4477 21.5523 11 21 11H3Z" fill="currentColor"/>
<path d="M22 15.4572L21.2628 15.2115C20.4431 14.9383 19.5569 14.9383 18.7372 15.2115C17.6096 15.5874 16.3904 15.5874 15.2628 15.2115C14.4431 14.9383 13.5569 14.9383 12.7372 15.2115C11.6096 15.5874 10.3904 15.5874 9.26283 15.2115C8.44311 14.9383 7.55689 14.9383 6.73717 15.2115C5.60955 15.5874 4.39045 15.5874 3.26283 15.2115L2 14.7906V20C2 20.5523 2.44772 21 3 21H21C21.5523 21 22 20.5523 22 20V15.4572Z" fill="currentColor"/>
<path d="M6 3C5.44772 3 5 3.44772 5 4V5.99342C5.42649 5.99342 5.85297 5.92511 6.26283 5.78849C7.39045 5.41262 8.60955 5.41262 9.73717 5.78849C10.5569 6.06173 11.4431 6.06173 12.2628 5.78849C13.3904 5.41262 14.6096 5.41262 15.7372 5.78849C16.5569 6.06173 17.4431 6.06173 18.2628 5.78849C18.5049 5.70778 18.7513 5.64441 19 5.59836V4C19 3.44772 18.5523 3 18 3H6Z" fill="currentColor"/>
<path d="M19 7.13382C18.9117 7.15665 18.8241 7.18255 18.7372 7.21152C17.6096 7.58739 16.3904 7.58739 15.2628 7.21152C14.4431 6.93828 13.5569 6.93828 12.7372 7.21152C11.6096 7.58739 10.3904 7.58739 9.26283 7.21152C8.44311 6.93828 7.55689 6.93828 6.73717 7.21152C6.17336 7.39946 5.58668 7.49343 5 7.49343V11H19V7.13382Z" fill="currentColor"/>
</svg>
