<svg viewBox="0 0 24 24" fill="currentColor" xmlns="http://www.w3.org/2000/svg">
<path d="M8 6C8 7.39788 7.04392 8.57246 5.75 8.90549V11H6C7.10457 11 8 11.8954 8 13V13.6615L7.66459 13.8292C7.24622 14.0384 6.75378 14.0384 6.33541 13.8292C5.49475 13.4088 4.50525 13.4088 3.66459 13.8292C3.24622 14.0384 2.75378 14.0384 2.33541 13.8292L2 13.6615V13C2 11.8954 2.89543 11 4 11H4.25V8.90549C2.95608 8.57246 2 7.39788 2 6C2 4.34315 5 2 5 2C5 2 8 4.34315 8 6Z" fill="currentColor"/>
<path d="M2 21.25C1.58579 21.25 1.25 21.5858 1.25 22C1.25 22.4142 1.58579 22.75 2 22.75H22C22.4142 22.75 22.75 22.4142 22.75 22C22.75 21.5858 22.4142 21.25 22 21.25V15.3137C21.2395 15.584 20.3958 15.5364 19.6646 15.1708C19.2462 14.9616 18.7538 14.9616 18.3354 15.1708C17.6042 15.5364 16.7605 15.584 16 15.3137V21.25H15V15.3137C14.2395 15.584 13.3958 15.5364 12.6646 15.1708C12.2462 14.9616 11.7538 14.9616 11.3354 15.1708C10.6042 15.5364 9.76049 15.584 9 15.3137V21.25H8V15.3137C7.23951 15.584 6.39575 15.5364 5.66459 15.1708C5.24622 14.9616 4.75378 14.9616 4.33541 15.1708C3.60425 15.5364 2.76049 15.584 2 15.3137V21.25Z" fill="currentColor"/>
<path d="M12.75 8.90549C14.0439 8.57246 15 7.39788 15 6C15 4.34315 12 2 12 2C12 2 9 4.34315 9 6C9 7.39788 9.95608 8.57246 11.25 8.90549V11H11C9.89543 11 9 11.8954 9 13V13.6615L9.33541 13.8292C9.75378 14.0384 10.2462 14.0384 10.6646 13.8292C11.5052 13.4088 12.4948 13.4088 13.3354 13.8292C13.7538 14.0384 14.2462 14.0384 14.6646 13.8292L15 13.6615V13C15 11.8954 14.1046 11 13 11H12.75V8.90549Z" fill="currentColor"/>
<path d="M22 6C22 7.39788 21.0439 8.57246 19.75 8.90549V11H20C21.1046 11 22 11.8954 22 13V13.6615L21.6646 13.8292C21.2462 14.0384 20.7538 14.0384 20.3354 13.8292C19.4948 13.4088 18.5053 13.4088 17.6646 13.8292C17.2462 14.0384 16.7538 14.0384 16.3354 13.8292L16 13.6615V13C16 11.8954 16.8954 11 18 11H18.25V8.90549C16.9561 8.57246 16 7.39788 16 6C16 4.34315 19 2 19 2C19 2 22 4.34315 22 6Z" fill="currentColor"/>
</svg>
