<svg viewBox="0 0 24 24" fill="currentColor" xmlns="http://www.w3.org/2000/svg">
<path d="M16.8371 16.8371C18.5983 15.0759 19.1984 12.5934 18.6374 10.3406L21.1618 9.70955C21.9955 9.50112 22.2831 8.46283 21.6754 7.85515L16.1449 2.32457C15.5372 1.71689 14.4989 2.00448 14.2904 2.83821L13.6594 5.36256C11.4066 4.80163 8.92406 5.40175 7.1629 7.1629C5.40175 8.92406 4.80163 11.4066 5.36256 13.6594L2.83821 14.2904C2.00448 14.4989 1.71689 15.5372 2.32457 16.1449L7.85515 21.6754C8.46283 22.2831 9.50112 21.9955 9.70955 21.1618L10.3406 18.6374C12.5934 19.1984 15.0759 18.5983 16.8371 16.8371Z" fill="currentColor"/>
</svg>
