<svg viewBox="0 0 24 24" fill="currentColor" xmlns="http://www.w3.org/2000/svg">
<path d="M12 6C13.1046 6 14 5.10457 14 4C14 2.89543 13.1046 2 12 2C10.8954 2 10 2.89543 10 4C10 5.10457 10.8954 6 12 6Z" fill="currentColor"/>
<path d="M4.29289 2.70711C4.68342 2.31658 5.31658 2.31658 5.70711 2.70711L7.29289 4.29289C7.68342 4.68342 7.68342 5.31658 7.29289 5.70711L5.70711 7.29289C5.31658 7.68342 4.68342 7.68342 4.29289 7.29289L2.70711 5.70711C2.31658 5.31658 2.31658 4.68342 2.70711 4.29289L4.29289 2.70711Z" fill="currentColor"/>
<path d="M17.7929 15.7071C18.1834 15.3166 18.8166 15.3166 19.2071 15.7071L21.2929 17.7929C21.6834 18.1834 21.6834 18.8166 21.2929 19.2071L19.2071 21.2929C18.8166 21.6834 18.1834 21.6834 17.7929 21.2929L15.7071 19.2071C15.3166 18.8166 15.3166 18.1834 15.7071 17.7929L17.7929 15.7071Z" fill="currentColor"/>
<path d="M13 20C13 20.5523 12.5523 21 12 21C11.4477 21 11 20.5523 11 20C11 19.4477 11.4477 19 12 19C12.5523 19 13 19.4477 13 20Z" fill="currentColor"/>
<path d="M9 9.5C9 9.77614 8.77614 10 8.5 10C8.22386 10 8 9.77614 8 9.5C8 9.22386 8.22386 9 8.5 9C8.77614 9 9 9.22386 9 9.5Z" fill="currentColor"/>
<path d="M10 11.5C10 11.7761 9.77614 12 9.5 12C9.22386 12 9 11.7761 9 11.5C9 11.2239 9.22386 11 9.5 11C9.77614 11 10 11.2239 10 11.5Z" fill="currentColor"/>
<path d="M10.5 10C10.7761 10 11 9.77614 11 9.5C11 9.22386 10.7761 9 10.5 9C10.2239 9 10 9.22386 10 9.5C10 9.77614 10.2239 10 10.5 10Z" fill="currentColor"/>
<path d="M6.00001 18C6.3682 18 6.66668 18.2985 6.66668 18.6667C6.66668 19.0349 6.3682 19.3333 6.00001 19.3333C5.63182 19.3333 5.33334 19.0349 5.33334 18.6667C5.33334 18.2985 5.63182 18 6.00001 18Z" fill="currentColor"/>
<path d="M4.66667 20.6667C5.03485 20.6667 5.33333 20.9651 5.33333 21.3333C5.33333 21.7015 5.03485 22 4.66667 22C4.29848 22 4 21.7015 4 21.3333C4 20.9651 4.29848 20.6667 4.66667 20.6667Z" fill="currentColor"/>
<path d="M7.99999 21.3333C7.99999 20.9651 7.70151 20.6667 7.33332 20.6667C6.96513 20.6667 6.66666 20.9651 6.66666 21.3333C6.66666 21.7015 6.96513 22 7.33332 22C7.70151 22 7.99999 21.7015 7.99999 21.3333Z" fill="currentColor"/>
<path d="M19.2399 6.34939C19.4988 6.08757 19.4964 5.66547 19.2346 5.40659C18.9728 5.14772 18.5507 5.1501 18.2918 5.41191C18.0329 5.67372 18.0353 6.09583 18.2971 6.3547C18.5589 6.61358 18.981 6.6112 19.2399 6.34939Z" fill="currentColor"/>
<path d="M16.4168 7.30816C16.6757 7.04635 16.6733 6.62424 16.4115 6.36537C16.1497 6.10649 15.7276 6.10887 15.4687 6.37068C15.2099 6.63249 15.2122 7.0546 15.4741 7.31348C15.7359 7.57235 16.158 7.56997 16.4168 7.30816Z" fill="currentColor"/>
<path d="M18.3078 8.24031C18.5696 8.49919 18.5719 8.92129 18.3131 9.18311C18.0542 9.44492 17.6321 9.4473 17.3703 9.18842C17.1085 8.92954 17.1061 8.50744 17.365 8.24563C17.6238 7.98381 18.0459 7.98143 18.3078 8.24031Z" fill="currentColor"/>
<path d="M7.46967 17.5303C6.65799 16.7187 5.34201 16.7187 4.53033 17.5303L2.53033 19.5303C2.23744 19.8232 1.76256 19.8232 1.46967 19.5303C1.17678 19.2374 1.17678 18.7626 1.46967 18.4697L3.46967 16.4697C4.86713 15.0722 7.13287 15.0722 8.53033 16.4697C9.342 17.2813 10.658 17.2813 11.4697 16.4697C11.7626 16.1768 12.2374 16.1768 12.5303 16.4697C12.8232 16.7626 12.8232 17.2374 12.5303 17.5303C11.1329 18.9278 8.86713 18.9278 7.46967 17.5303Z" fill="currentColor"/>
<path d="M15.0303 15.0303C15.3232 14.7374 15.3232 14.2626 15.0303 13.9697C14.7374 13.6768 14.2626 13.6768 13.9697 13.9697L13.4697 14.4697C13.1768 14.7626 13.1768 15.2374 13.4697 15.5303C13.7626 15.8232 14.2374 15.8232 14.5303 15.5303L15.0303 15.0303Z" fill="currentColor"/>
<path d="M1.40001 9.55001C1.64854 9.21864 2.11864 9.15148 2.45001 9.40001C3.03426 9.8382 4.85767 10.8826 7.12331 11.2602C7.53189 11.3283 7.8079 11.7147 7.7398 12.1233C7.67171 12.5319 7.28529 12.8079 6.87671 12.7398C4.34235 12.3174 2.29909 11.1618 1.55001 10.6C1.21864 10.3515 1.15148 9.88138 1.40001 9.55001Z" fill="currentColor"/>
<path d="M12.0679 12.7469C12.924 12.6691 14.4108 12.6674 16.0175 12.9279C17.631 13.1894 19.2956 13.7042 20.5641 14.6103C20.9011 14.8511 21.3695 14.773 21.6103 14.436C21.8511 14.0989 21.773 13.6305 21.4359 13.3897C19.9044 12.2958 17.9856 11.7273 16.2575 11.4472C14.5225 11.166 12.9093 11.1643 11.9321 11.2531C11.5196 11.2906 11.2156 11.6554 11.2531 12.0679C11.2906 12.4804 11.6554 12.7844 12.0679 12.7469Z" fill="currentColor"/>
</svg>
