<svg viewBox="0 0 24 24" fill="currentColor" xmlns="http://www.w3.org/2000/svg">
<path d="M11.25 3C11.25 3.41421 11.5858 3.75 12 3.75C12.4142 3.75 12.75 3.41421 12.75 3V2C12.75 1.58579 12.4142 1.25 12 1.25C11.5858 1.25 11.25 1.58579 11.25 2V3Z" fill="currentColor"/>
<path d="M12 5.25C12.4142 5.25 12.75 5.58579 12.75 6V7H15C16.1046 7 17 7.89543 17 9V9.25H7V9C7 7.89543 7.89543 7 9 7H11.25V6C11.25 5.58579 11.5858 5.25 12 5.25Z" fill="currentColor"/>
<path d="M7 18.25V10.75H17V18.25H7Z" fill="currentColor"/>
<path d="M7 19.75V20C7 21.1046 7.89543 22 9 22H15C16.1046 22 17 21.1046 17 20V19.75H7Z" fill="currentColor"/>
<path d="M14.5303 4.53033L15.5303 3.53033C15.8232 3.23744 15.8232 2.76256 15.5303 2.46967C15.2374 2.17678 14.7626 2.17678 14.4697 2.46967L13.4697 3.46967C13.1768 3.76256 13.1768 4.23744 13.4697 4.53033C13.7626 4.82322 14.2374 4.82322 14.5303 4.53033Z" fill="currentColor"/>
<path d="M8.46967 3.53033C8.17678 3.23744 8.17678 2.76256 8.46967 2.46967C8.76256 2.17678 9.23744 2.17678 9.53033 2.46967L10.5303 3.46967C10.8232 3.76256 10.8232 4.23744 10.5303 4.53033C10.2374 4.82322 9.76256 4.82322 9.46967 4.53033L8.46967 3.53033Z" fill="currentColor"/>
</svg>
