<svg viewBox="0 0 24 24" fill="currentColor" xmlns="http://www.w3.org/2000/svg">
<path d="M2 2.96152C2 2.43049 2.44948 2 3.00393 2H10.7266C11.1738 2 11.3978 2.51785 11.0815 2.82071L9.09889 4.7196L9.93809 5.52335C9.88787 5.60343 9.85317 5.69423 9.83851 5.79251C9.54648 7.75033 8.51869 9.53763 6.94986 10.8202L4.83955 8.79901L2.85691 10.6979C2.54069 11.0008 2 10.7863 2 10.3579V2.96152Z" fill="currentColor"/>
<path d="M8.01752 11.8427L9.96167 13.7047C11.5305 12.4222 12.5583 10.6349 12.8503 8.67707C12.865 8.57879 12.8997 8.48799 12.9499 8.40792L11.1908 6.72314C10.7299 8.70514 9.6205 10.5003 8.01752 11.8427Z" fill="currentColor"/>
<path d="M11.0293 14.7273C12.6323 13.3849 13.7417 11.5897 14.2026 9.60773L16.1978 11.5186C16.5501 11.8561 16.5858 12.3819 16.3049 12.7576L18.1438 14.5189C18.6815 15.0339 19.5532 15.0339 20.0909 14.5189C20.6285 14.004 20.6285 13.1691 20.0909 12.6542L19.5888 12.1733C19.2948 11.8916 19.2948 11.435 19.5889 11.1534C19.8829 10.8718 20.3597 10.8718 20.6537 11.1535L21.1558 11.6344C22.2814 12.7125 22.2814 14.4606 21.1557 15.5387C20.03 16.617 18.2047 16.617 17.079 15.5387L15.2496 13.7866L13.8045 15.1706L19.6497 20.7689C19.9438 21.0506 19.9438 21.5072 19.6497 21.7888C19.3557 22.0704 18.879 22.0704 18.5849 21.7888L12.3783 15.8444C12.2172 15.8015 12.0651 15.7193 11.9384 15.598L11.0293 14.7273Z" fill="currentColor"/>
</svg>
