<svg viewBox="0 0 24 24" fill="currentColor" xmlns="http://www.w3.org/2000/svg">
<path d="M2.42168 3.41789L3.17044 9.46619C3.27971 10.3488 4.40345 10.659 4.95139 9.95772L8.38891 5.55838C8.50716 5.5938 8.626 5.62899 8.74539 5.66392L9.37046 10.713C9.47973 11.5957 10.6035 11.9058 11.1514 11.2046L14.4454 6.98898C14.7893 7.04622 15.1339 7.09897 15.4785 7.14672L15.9627 11.0583C16.0774 11.9849 17.29 12.2612 17.7961 11.476L20.403 7.43182C20.7156 7.42007 21.0254 7.40161 21.3317 7.37601C21.711 7.34432 21.9956 7.0234 21.997 6.64347C21.9986 6.18997 21.6015 5.83873 21.1484 5.87204C17.8834 6.11206 14.0372 5.53036 10.585 4.6212C7.67514 3.85484 5.00602 2.88387 3.05824 2.06089C2.56004 1.85039 2 2.2112 2 2.75125V2.77835C2 3.05672 2.16501 3.30908 2.42168 3.41789Z" fill="currentColor"/>
<path d="M21.4857 13.1667L20.8698 19.2301C20.7799 20.1149 19.6632 20.4496 19.1 19.7604L15.5667 15.4371C15.4493 15.4751 15.3314 15.5128 15.2128 15.5503L14.6986 20.6125C14.6087 21.4973 13.492 21.8319 12.9288 21.1428L9.54285 16.9997C9.20042 17.0644 8.85721 17.1247 8.51387 17.1799L8.11549 21.1013C8.02112 22.0303 6.81491 22.333 6.2917 21.5591L3.5966 17.5725C3.28607 17.5677 2.97821 17.5561 2.67358 17.5375C2.29083 17.514 2 17.1921 2 16.8093C2 16.3686 2.38123 16.0253 2.82215 16.0484C6.09345 16.22 9.9087 15.5355 13.3507 14.5481C16.2959 13.7032 18.9868 12.6516 20.9245 11.7767C21.4245 11.5509 22 11.9116 22 12.4594C22 12.7474 21.8331 13.0097 21.5703 13.1285L21.4857 13.1667Z" fill="currentColor"/>
</svg>
