<svg viewBox="0 0 24 24" fill="currentColor" xmlns="http://www.w3.org/2000/svg">
<path d="M10.1003 12.236C10.5718 11.7666 11.3362 11.7666 11.8077 12.236C12.2792 12.7055 12.2792 13.4665 11.8077 13.9359C11.3362 14.4054 10.5718 14.4054 10.1003 13.9359C9.62878 13.4665 9.62878 12.7055 10.1003 12.236Z" fill="currentColor"/>
<path d="M17.8657 2.21124C18.1486 1.92959 18.6073 1.92959 18.8902 2.21124L19.3145 2.63365L19.437 2.5117C19.6653 2.28435 19.9981 2.17398 20.2962 2.29776C20.9306 2.56121 21.4362 3.06461 21.7008 3.69618C21.8251 3.99292 21.7143 4.32423 21.4859 4.55158L21.3634 4.67353L21.7878 5.09606C22.0707 5.37771 22.0707 5.83435 21.7878 6.116C21.565 6.33789 21.233 6.38497 20.9638 6.25724C21.0921 6.52522 21.0448 6.85572 20.822 7.07761C20.5391 7.35925 20.0804 7.35925 19.7975 7.07761L19.3731 6.65514L14.9731 11.0357C15.1578 11.3061 15.325 11.5896 15.4732 11.8846C16.3322 13.5951 15.4704 15.6665 13.6481 16.2712L13.2031 16.4189C13.0793 16.46 12.9871 16.564 12.9615 16.6914L12.522 18.8792C12.3903 19.5351 12.0664 20.1376 11.5913 20.6106C9.73052 22.4631 6.71363 22.4631 4.85287 20.6106L3.39557 19.1597C1.53481 17.3072 1.53481 14.3036 3.39557 12.4511C3.87069 11.9781 4.47581 11.6556 5.13468 11.5244L7.33219 11.0869C7.46014 11.0614 7.56457 10.9696 7.60583 10.8464L7.75417 10.4033C8.3616 8.58909 10.4422 7.7311 12.1602 8.58633C12.4181 8.7147 12.6672 8.85741 12.9065 9.01347L17.3242 4.6152L16.8999 4.19278C16.617 3.91113 16.617 3.45449 16.8999 3.17284C17.1227 2.95095 17.4547 2.90388 17.7239 3.03161C17.5956 2.76363 17.6429 2.43313 17.8657 2.21124ZM4.29496 15.9752C4.01206 16.2568 4.01206 16.7135 4.29496 16.9951L7.02686 19.7149C7.30976 19.9966 7.76843 19.9966 8.05133 19.7149C8.33423 19.4333 8.33423 18.9767 8.05133 18.695L5.31942 15.9752C5.03653 15.6935 4.57786 15.6935 4.29496 15.9752ZM12.8322 11.2161C11.7949 10.1834 10.1131 10.1834 9.07581 11.2161C8.03852 12.2488 8.03852 13.9232 9.07581 14.9559C10.1131 15.9886 11.7949 15.9886 12.8322 14.9559C13.8695 13.9232 13.8695 12.2488 12.8322 11.2161Z" fill="currentColor"/>
</svg>
