<svg viewBox="0 0 24 24" fill="currentColor" xmlns="http://www.w3.org/2000/svg">
<path d="M12.75 15.9603C16.2633 15.5861 19 12.6126 19 9C19 5.13401 15.866 2 12 2C8.13401 2 5 5.13401 5 9C5 12.6126 7.73667 15.5861 11.25 15.9603V21.25C11.25 21.6642 11.5858 22 12 22C12.4142 22 12.75 21.6642 12.75 21.25V15.9603ZM11.25 5C11.25 4.58579 11.5858 4.25 12 4.25C14.6234 4.25 16.75 6.37665 16.75 9C16.75 9.41421 16.4142 9.75 16 9.75C15.5858 9.75 15.25 9.41421 15.25 9C15.25 7.20507 13.7949 5.75 12 5.75C11.5858 5.75 11.25 5.41421 11.25 5Z" fill="currentColor"/>
</svg>
