<svg viewBox="0 0 24 24" fill="currentColor" xmlns="http://www.w3.org/2000/svg">
<path d="M8.75 9C8.75 7.20507 10.2051 5.75 12 5.75C13.7949 5.75 15.25 7.20507 15.25 9C15.25 10.7949 13.7949 12.25 12 12.25C10.2051 12.25 8.75 10.7949 8.75 9ZM13 9C13 8.44771 12.5523 8 12 8C11.4477 8 11 8.44771 11 9C11 9.55229 11.4477 10 12 10C12.5523 10 13 9.55229 13 9Z" fill="currentColor"/>
<path d="M12.75 15.9603C16.2633 15.5861 19 12.6126 19 9C19 5.13401 15.866 2 12 2C8.13401 2 5 5.13401 5 9C5 12.6126 7.73667 15.5861 11.25 15.9603V21.25C11.25 21.6642 11.5858 22 12 22C12.4142 22 12.75 21.6642 12.75 21.25V15.9603ZM12 4.25C14.6234 4.25 16.75 6.37665 16.75 9C16.75 11.6234 14.6234 13.75 12 13.75C9.37665 13.75 7.25 11.6234 7.25 9C7.25 6.37665 9.37665 4.25 12 4.25Z" fill="currentColor"/>
</svg>
