<svg viewBox="0 0 24 24" fill="currentColor" xmlns="http://www.w3.org/2000/svg">
<path d="M16.1318 16.9953C16.6471 16.9254 17.1533 16.7696 17.6282 16.528C20.3121 15.1621 22 12.4205 22 9.42713V2.54642C22 2.15818 21.6031 1.89405 21.2412 2.0414C17.5625 3.53916 13.4375 3.53916 9.75881 2.0414C9.39688 1.89405 9 2.15819 9 2.54642V6.62912C9.4243 6.61367 9.84804 6.57853 10.2698 6.52371C10.2898 6.43968 10.3249 6.3577 10.376 6.28165C10.6057 5.93962 11.0714 5.8472 11.416 6.07522C11.5206 6.14439 11.6301 6.20253 11.7432 6.24967C12.3969 6.09068 13.0417 5.88289 13.6719 5.62631C14.6945 5.20994 15.792 5.67503 16.2631 6.55485C16.2813 6.45997 16.3186 6.36707 16.376 6.28165C16.6057 5.93962 17.0714 5.8472 17.416 6.07522C18.0724 6.5095 18.9276 6.5095 19.584 6.07522C19.9286 5.8472 20.3943 5.93962 20.624 6.28165C20.8538 6.62369 20.7607 7.0858 20.416 7.31383C19.2558 8.08146 17.7442 8.08146 16.584 7.31383C16.547 7.28933 16.5128 7.26214 16.4817 7.23269C16.4938 7.32249 16.5 7.41454 16.5 7.50855V10.0373C17.7584 10.3385 18.7977 11.1954 19.3406 12.3296C19.5183 12.7009 19.3591 13.1449 18.985 13.3213C18.6108 13.4977 18.1635 13.3397 17.9857 12.9684C17.6858 12.3419 17.1534 11.8477 16.5 11.5945V14.3893C16.5 15.284 16.3729 16.1598 16.1318 16.9953Z" fill="currentColor"/>
<path d="M2 14.3892V7.50849C2 7.12025 2.39688 6.85611 2.75881 7.00347C6.4375 8.50122 10.5625 8.50122 14.2412 7.00347C14.6031 6.85611 15 7.12025 15 7.50848V14.3892C15 17.3825 13.3121 20.1241 10.6282 21.49C9.29212 22.17 7.70788 22.17 6.37181 21.49C3.68794 20.1241 2 17.3825 2 14.3892ZM10.416 13.2684C11.0724 12.8341 11.9276 12.8341 12.584 13.2684C12.9286 13.4964 13.3943 13.404 13.624 13.0619C13.8538 12.7199 13.7607 12.2578 13.416 12.0297C12.2558 11.2621 10.7442 11.2621 9.58397 12.0297C9.23933 12.2578 9.1462 12.7199 9.37596 13.0619C9.60573 13.404 10.0714 13.4964 10.416 13.2684ZM6.58397 13.2684C6.92862 13.4964 7.39427 13.404 7.62404 13.0619C7.8538 12.7199 7.76067 12.2578 7.41603 12.0297C6.25577 11.2621 4.74423 11.2621 3.58397 12.0297C3.23933 12.2578 3.1462 12.7199 3.37596 13.0619C3.60573 13.404 4.07138 13.4964 4.41603 13.2684C5.07243 12.8341 5.92757 12.8341 6.58397 13.2684ZM6.01424 16.2993C5.8365 15.928 5.38912 15.77 5.01497 15.9464C4.64083 16.1228 4.48161 16.5668 4.65935 16.9381C5.34062 18.3613 6.80346 19.3478 8.49998 19.3478C10.1965 19.3478 11.6593 18.3613 12.3406 16.9381C12.5183 16.5668 12.3591 16.1228 11.985 15.9464C11.6108 15.77 11.1635 15.928 10.9857 16.2993C10.5435 17.2231 9.59586 17.8592 8.49998 17.8592C7.40409 17.8592 6.45643 17.2231 6.01424 16.2993Z" fill="currentColor"/>
</svg>
