<svg viewBox="0 0 24 24" fill="currentColor" xmlns="http://www.w3.org/2000/svg">
<path fill-rule="evenodd" clip-rule="evenodd" d="M10.142 20.4013L9.48784 19.937L8.17565 20.5578C6.72847 21.2424 5.02957 20.802 4.04026 19.4856L3.82835 19.2037C1.11248 15.59 1.4592 10.3619 4.62505 7.19021C5.55131 6.26224 6.89263 5.97554 8.08362 6.45095L9.48783 7.01148L10.1276 6.67099C11.3064 6.04359 12.6939 6.04359 13.8727 6.67099L14.5124 7.01148L15.9166 6.45095C17.1076 5.97554 18.449 6.26224 19.3752 7.19021C22.5411 10.3619 22.8878 15.59 20.1719 19.2037L19.96 19.4856C18.9707 20.802 17.2718 21.2424 15.8246 20.5578L14.5124 19.937L13.8582 20.4013C12.7331 21.1997 11.2672 21.1997 10.142 20.4013ZM15.4091 10.1575L17.3005 12.1709C17.3532 12.227 17.3159 12.323 17.2413 12.323H13.4585C13.3838 12.323 13.3465 12.227 13.3992 12.1709L15.2906 10.1575C15.3233 10.1227 15.3764 10.1227 15.4091 10.1575ZM17.4434 14.1114L10.744 14.1059V14.3286C10.744 14.944 10.2752 15.4429 9.69703 15.4428C9.11897 15.4427 8.6504 14.9439 8.6504 14.3286V14.1076L6.55682 14.1059C6.55682 16.6018 9.58581 17.2252 12.0001 17.2258C12.2731 17.2259 12.9728 17.2181 13.2563 17.2004V16.5573C13.2563 15.9419 13.7249 15.443 14.3031 15.443C14.8812 15.443 15.3499 15.9419 15.3499 16.5573V16.7174C16.5514 16.2674 17.4434 15.4657 17.4434 14.1114ZM10.601 12.1709L8.70962 10.1575C8.67691 10.1227 8.62389 10.1227 8.59119 10.1575L6.69978 12.1709C6.64703 12.227 6.68439 12.323 6.759 12.323H10.5418C10.6164 12.323 10.6538 12.227 10.601 12.1709Z" fill="currentColor"/>
<path d="M10.142 20.4013L9.48784 19.937L8.17565 20.5578C6.72847 21.2424 5.02957 20.802 4.04026 19.4856L3.82835 19.2037C1.11248 15.59 1.4592 10.3619 4.62505 7.19021C5.55131 6.26224 6.89263 5.97554 8.08362 6.45095L9.48783 7.01148L10.1276 6.67099C11.3064 6.04359 12.6939 6.04359 13.8727 6.67099L14.5124 7.01148L15.9166 6.45095C17.1076 5.97554 18.449 6.26224 19.3752 7.19021C22.5411 10.3619 22.8878 15.59 20.1719 19.2037L19.96 19.4856C18.9707 20.802 17.2718 21.2424 15.8246 20.5578L14.5124 19.937L13.8582 20.4013C12.7331 21.1997 11.2672 21.1997 10.142 20.4013ZM15.4091 10.1575C15.3764 10.1227 15.3233 10.1227 15.2906 10.1575L13.3992 12.1709C13.3465 12.227 13.3838 12.323 13.4585 12.323H17.2413C17.3159 12.323 17.3532 12.227 17.3005 12.1709L15.4091 10.1575ZM17.4434 14.1114L10.744 14.1059V14.3286C10.744 14.944 10.2752 15.4429 9.69703 15.4428C9.11897 15.4427 8.6504 14.9439 8.6504 14.3286V14.1076L6.55682 14.1059C6.55682 16.6018 9.58581 17.2252 12.0001 17.2258C12.2731 17.2259 12.9728 17.2181 13.2563 17.2004V16.5573C13.2563 15.9419 13.7249 15.443 14.3031 15.443C14.8812 15.443 15.3499 15.9419 15.3499 16.5573V16.7174C16.5514 16.2674 17.4434 15.4657 17.4434 14.1114ZM10.601 12.1709L8.70962 10.1575C8.67691 10.1227 8.62389 10.1227 8.59119 10.1575L6.69978 12.1709C6.64703 12.227 6.68439 12.323 6.759 12.323H10.5418C10.6164 12.323 10.6538 12.227 10.601 12.1709Z" fill="currentColor"/>
<path d="M10.5626 3C9.70921 3 8.99227 3.68301 8.89799 4.58586L8.81335 5.39633L9.41257 5.63552L9.54029 5.56754C11.0862 4.74474 12.914 4.74474 14.46 5.56754L14.5877 5.63552L15.4532 5.29002C15.4717 5.28266 15.4901 5.27543 15.5086 5.26833C15.5605 5.12058 15.6248 4.97742 15.7011 4.84067L15.9766 4.34624C16.1302 4.07072 16.133 3.72867 15.9841 3.45029C15.8352 3.17191 15.5574 3 15.2564 3H10.5626Z" fill="currentColor"/>
</svg>
