<?xml version="1.0" encoding="utf-8"?>
<!-- Generator: Adobe Illustrator 22.0.0, SVG Export Plug-In . SVG Version: 6.00 Build 0)  -->
<svg version="1.1" id="Layer_1" xmlns="http://www.w3.org/2000/svg" xmlns:xlink="http://www.w3.org/1999/xlink" x="0px" y="0px"
	 viewBox="0 0 64 64" style="enable-background:new 0 0 64 64;" xml:space="preserve">
<g>
	<path d="M36.7,24.4c0.7-0.4,1.2-1.2,1.2-2s-0.4-1.6-1.2-2l-9.7-5.3l-5.3-9.7c-0.4-0.7-1.2-1.2-2-1.2s-1.6,0.4-2,1.2l-5.3,9.7
		l-9.7,5.3c-0.7,0.4-1.2,1.2-1.2,2s0.4,1.6,1.2,2l9.7,5.3l5.3,9.7c0.4,0.7,1.2,1.2,2,1.2s1.6-0.4,2-1.2l5.3-9.7L36.7,24.4z
		 M23.4,26.9l-3.6,6.6l-3.6-6.6c-0.2-0.4-0.5-0.7-0.9-0.9l-6.6-3.6l6.6-3.6c0.4-0.2,0.7-0.5,0.9-0.9l3.6-6.6l3.6,6.6
		c0.2,0.4,0.5,0.7,0.9,0.9l6.6,3.6L24.3,26C24,26.2,23.7,26.6,23.4,26.9z"/>
	<path d="M44,47.5L39.5,45L37,40.5c-0.4-0.7-1.2-1.2-2-1.2s-1.6,0.4-2,1.2L30.6,45L26,47.5c-0.7,0.4-1.2,1.2-1.2,2s0.4,1.6,1.2,2
		l4.5,2.5l2.5,4.5c0.4,0.7,1.2,1.2,2,1.2s1.6-0.4,2-1.2l2.5-4.5l4.5-2.5c0.7-0.4,1.2-1.2,1.2-2S44.8,47.9,44,47.5z M36.8,50.3
		c-0.4,0.2-0.7,0.5-0.9,0.9L35,52.7l-0.8-1.5c-0.2-0.4-0.5-0.7-0.9-0.9l-1.5-0.8l1.5-0.8c0.4-0.2,0.7-0.5,0.9-0.9l0.8-1.5l0.8,1.5
		c0.2,0.4,0.5,0.7,0.9,0.9l1.5,0.8L36.8,50.3z"/>
	<path d="M61.1,12.5l-4.5-2.5l-2.5-4.5c-0.4-0.7-1.2-1.2-2-1.2s-1.6,0.4-2,1.2l-2.5,4.5l-4.5,2.5c-0.7,0.4-1.2,1.2-1.2,2
		c0,0.8,0.4,1.6,1.2,2l4.5,2.5l2.5,4.5c0.4,0.7,1.2,1.2,2,1.2s1.6-0.4,2-1.2l2.5-4.5l4.5-2.5c0.7-0.4,1.2-1.2,1.2-2
		C62.3,13.7,61.8,12.9,61.1,12.5z M53.8,15.3c-0.4,0.2-0.7,0.5-0.9,0.9l-0.8,1.5l-0.8-1.5c-0.2-0.4-0.5-0.7-0.9-0.9l-1.5-0.8
		l1.5-0.8c0.4-0.2,0.7-0.5,0.9-0.9l0.8-1.5l0.8,1.5c0.2,0.4,0.5,0.7,0.9,0.9l1.5,0.8L53.8,15.3z"/>
</g>
</svg>
