<svg viewBox="0 0 24 24" fill="currentColor" xmlns="http://www.w3.org/2000/svg">
<path d="M12 1.25C12.4142 1.25 12.75 1.58579 12.75 2V6C12.75 6.41421 12.4142 6.75 12 6.75C11.5858 6.75 11.25 6.41421 11.25 6V2C11.25 1.58579 11.5858 1.25 12 1.25ZM1.25018 11.9993C1.25018 11.5851 1.58597 11.2493 2.00018 11.2493H6.00018C6.4144 11.2493 6.75018 11.5851 6.75018 11.9993C6.75018 12.4135 6.4144 12.7493 6.00018 12.7493H2.00018C1.58597 12.7493 1.25018 12.4135 1.25018 11.9993ZM17.25 11.9995C17.25 11.5853 17.5858 11.2495 18 11.2495H22C22.4142 11.2495 22.75 11.5853 22.75 11.9995C22.75 12.4137 22.4142 12.7495 22 12.7495H18C17.5858 12.7495 17.25 12.4137 17.25 11.9995ZM12 17.25C12.4142 17.25 12.75 17.5858 12.75 18V22C12.75 22.4142 12.4142 22.75 12 22.75C11.5858 22.75 11.25 22.4142 11.25 22V18C11.25 17.5858 11.5858 17.25 12 17.25Z" fill="currentColor"/>
<path fill-rule="evenodd" clip-rule="evenodd" d="M2.46967 2.46967C2.76256 2.17678 3.23744 2.17678 3.53033 2.46967L6.53033 5.46967C6.82322 5.76256 6.82322 6.23744 6.53033 6.53033C6.23744 6.82322 5.76256 6.82322 5.46967 6.53033L2.46967 3.53033C2.17678 3.23744 2.17678 2.76256 2.46967 2.46967Z" fill="currentColor"/>
<path d="M2.46967 2.46967C2.76256 2.17678 3.23744 2.17678 3.53033 2.46967L6.53033 5.46967C6.82322 5.76256 6.82322 6.23744 6.53033 6.53033C6.23744 6.82322 5.76256 6.82322 5.46967 6.53033L2.46967 3.53033C2.17678 3.23744 2.17678 2.76256 2.46967 2.46967Z" fill="currentColor"/>
<path d="M21.5303 2.46967C21.2374 2.17678 20.7626 2.17678 20.4697 2.46967L17.4697 5.46967C17.1768 5.76256 17.1768 6.23744 17.4697 6.53033C17.7626 6.82322 18.2374 6.82322 18.5303 6.53033L21.5303 3.53033C21.8232 3.23744 21.8232 2.76256 21.5303 2.46967Z" fill="currentColor"/>
<path d="M6.53033 17.4697C6.23744 17.1768 5.76256 17.1768 5.46967 17.4697L2.46967 20.4697C2.17678 20.7626 2.17678 21.2374 2.46967 21.5303C2.76256 21.8232 3.23744 21.8232 3.53033 21.5303L6.53033 18.5303C6.82322 18.2374 6.82322 17.7626 6.53033 17.4697Z" fill="currentColor"/>
<path d="M17.4697 17.4697C17.7626 17.1768 18.2374 17.1768 18.5303 17.4697L21.5303 20.4697C21.8232 20.7626 21.8232 21.2374 21.5303 21.5303C21.2374 21.8232 20.7626 21.8232 20.4697 21.5303L17.4697 18.5303C17.1768 18.2374 17.1768 17.7626 17.4697 17.4697Z" fill="currentColor"/>
</svg>
