<svg viewBox="0 0 24 24" fill="currentColor" xmlns="http://www.w3.org/2000/svg">
<path d="M13 3C13 3.55228 12.5523 4 12 4C11.4477 4 11 3.55228 11 3C11 2.44772 11.4477 2 12 2C12.5523 2 13 2.44772 13 3Z" fill="currentColor"/>
<path d="M13 21C13 21.5523 12.5523 22 12 22C11.4477 22 11 21.5523 11 21C11 20.4477 11.4477 20 12 20C12.5523 20 13 20.4477 13 21Z" fill="currentColor"/>
<path d="M3 11C3.55228 11 4 11.4477 4 12C4 12.5523 3.55228 13 3 13C2.44772 13 2 12.5523 2 12C2 11.4477 2.44772 11 3 11Z" fill="currentColor"/>
<path d="M21 11C21.5523 11 22 11.4477 22 12C22 12.5523 21.5523 13 21 13C20.4477 13 20 12.5523 20 12C20 11.4477 20.4477 11 21 11Z" fill="currentColor"/>
<path d="M6.34315 4.92894C6.73367 5.31947 6.73367 5.95263 6.34315 6.34316C5.95262 6.73368 5.31946 6.73368 4.92893 6.34316C4.53841 5.95263 4.53841 5.31947 4.92893 4.92894C5.31946 4.53842 5.95262 4.53842 6.34315 4.92894Z" fill="currentColor"/>
<path d="M19.0711 17.6569C19.4616 18.0474 19.4616 18.6805 19.0711 19.0711C18.6805 19.4616 18.0474 19.4616 17.6569 19.0711C17.2663 18.6805 17.2663 18.0474 17.6569 17.6569C18.0474 17.2663 18.6805 17.2663 19.0711 17.6569Z" fill="currentColor"/>
<path d="M4.92893 17.6569C5.31946 17.2663 5.95262 17.2663 6.34315 17.6569C6.73367 18.0474 6.73367 18.6805 6.34315 19.0711C5.95262 19.4616 5.31946 19.4616 4.92893 19.0711C4.53841 18.6805 4.53841 18.0474 4.92893 17.6569Z" fill="currentColor"/>
<path d="M17.6569 4.92894C18.0474 4.53842 18.6805 4.53842 19.0711 4.92894C19.4616 5.31947 19.4616 5.95263 19.0711 6.34316C18.6805 6.73368 18.0474 6.73368 17.6569 6.34316C17.2663 5.95263 17.2663 5.31947 17.6569 4.92894Z" fill="currentColor"/>
</svg>
