<svg viewBox="0 0 24 24" fill="currentColor" xmlns="http://www.w3.org/2000/svg">
<path d="M9.8543 1.20935C10.5491 1.07191 11.2666 1 12 1C12.7334 1 13.4509 1.07191 14.1457 1.20935C14.6875 1.31653 15.0398 1.84262 14.9326 2.38441C14.8254 2.92619 14.2993 3.27851 13.7575 3.17133C13.1899 3.05903 12.6023 3 12 3C11.3976 3 10.8101 3.05903 10.2424 3.17133C9.70066 3.27851 9.17457 2.92619 9.06739 2.38441C8.9602 1.84262 9.31252 1.31653 9.8543 1.20935ZM16.7252 3.12803C17.0324 2.66909 17.6535 2.54613 18.1125 2.85338C19.3116 3.65618 20.3438 4.68839 21.1466 5.88752C21.4539 6.34645 21.3309 6.96756 20.872 7.27481C20.413 7.58206 19.7919 7.45909 19.4847 7.00016C18.8273 6.01827 17.9817 5.17268 16.9998 4.51531C16.5409 4.20807 16.4179 3.58696 16.7252 3.12803ZM21.6156 9.06739C22.1574 8.96021 22.6835 9.31253 22.7906 9.85431C22.9281 10.5491 23 11.2666 23 12C23 12.7334 22.9281 13.4509 22.7906 14.1457C22.6835 14.6875 22.1574 15.0398 21.6156 14.9326C21.0738 14.8254 20.7215 14.2993 20.8287 13.7576C20.941 13.1899 21 12.6023 21 12C21 11.3977 20.941 10.8101 20.8287 10.2424C20.7215 9.70066 21.0738 9.17457 21.6156 9.06739ZM3.12802 16.7252C3.58695 16.4179 4.20806 16.5409 4.51531 16.9998C5.17267 17.9817 6.01826 18.8273 7.00016 19.4847C7.45909 19.7919 7.58205 20.413 7.27481 20.872C6.96756 21.3309 6.34645 21.4539 5.88752 21.1466C4.68838 20.3438 3.65617 19.3116 2.85337 18.1125C2.54612 17.6535 2.66909 17.0324 3.12802 16.7252ZM20.872 16.7252C21.3309 17.0324 21.4539 17.6535 21.1466 18.1125C20.3438 19.3116 19.3116 20.3438 18.1125 21.1466C17.6535 21.4539 17.0324 21.3309 16.7252 20.872C16.4179 20.413 16.5409 19.7919 16.9998 19.4847C17.9817 18.8273 18.8273 17.9817 19.4847 16.9998C19.7919 16.5409 20.413 16.4179 20.872 16.7252ZM9.06739 21.6156C9.17457 21.0738 9.70066 20.7215 10.2424 20.8287C10.8101 20.941 11.3976 21 12 21C12.6023 21 13.1899 20.941 13.7575 20.8287C14.2993 20.7215 14.8254 21.0738 14.9326 21.6156C15.0398 22.1574 14.6875 22.6835 14.1457 22.7906C13.4509 22.9281 12.7334 23 12 23C11.2666 23 10.5491 22.9281 9.8543 22.7906C9.31252 22.6835 8.9602 22.1574 9.06739 21.6156Z" fill="currentColor"/>
</svg>
