<svg viewBox="0 0 24 24" fill="currentColor" xmlns="http://www.w3.org/2000/svg">
<path d="M12 1.25C12.4142 1.25 12.75 1.58579 12.75 2V6C12.75 6.41421 12.4142 6.75 12 6.75C11.5858 6.75 11.25 6.41421 11.25 6V2C11.25 1.58579 11.5858 1.25 12 1.25ZM19.6014 4.39838C19.8943 4.69127 19.8943 5.16615 19.6014 5.45904L16.773 8.28747C16.4801 8.58036 16.0052 8.58036 15.7123 8.28747C15.4194 7.99458 15.4194 7.5197 15.7123 7.22681L18.5407 4.39838C18.8336 4.10549 19.3085 4.10549 19.6014 4.39838ZM4.3986 4.3986C4.6915 4.10571 5.16637 4.10571 5.45926 4.3986L8.28769 7.22703C8.58058 7.51992 8.58058 7.9948 8.28769 8.28769C7.9948 8.58058 7.51992 8.58058 7.22703 8.28769L4.3986 5.45926C4.10571 5.16637 4.10571 4.6915 4.3986 4.3986ZM1.25018 11.9993C1.25018 11.5851 1.58597 11.2493 2.00018 11.2493H6.00018C6.4144 11.2493 6.75018 11.5851 6.75018 11.9993C6.75018 12.4135 6.4144 12.7493 6.00018 12.7493H2.00018C1.58597 12.7493 1.25018 12.4135 1.25018 11.9993ZM17.25 11.9995C17.25 11.5853 17.5858 11.2495 18 11.2495H22C22.4142 11.2495 22.75 11.5853 22.75 11.9995C22.75 12.4137 22.4142 12.7495 22 12.7495H18C17.5858 12.7495 17.25 12.4137 17.25 11.9995ZM8.28768 15.7119C8.58058 16.0048 8.58058 16.4796 8.28768 16.7725L5.45926 19.6009C5.16636 19.8938 4.69149 19.8938 4.3986 19.6009C4.1057 19.3081 4.1057 18.8332 4.3986 18.5403L7.22702 15.7119C7.51992 15.419 7.99479 15.419 8.28768 15.7119ZM15.7123 15.7123C16.0052 15.4194 16.4801 15.4194 16.773 15.7123L19.6014 18.5407C19.8943 18.8336 19.8943 19.3085 19.6014 19.6014C19.3085 19.8943 18.8336 19.8943 18.5407 19.6014L15.7123 16.773C15.4194 16.4801 15.4194 16.0052 15.7123 15.7123ZM12 17.25C12.4142 17.25 12.75 17.5858 12.75 18V22C12.75 22.4142 12.4142 22.75 12 22.75C11.5858 22.75 11.25 22.4142 11.25 22V18C11.25 17.5858 11.5858 17.25 12 17.25Z" fill="currentColor"/>
</svg>
