<svg viewBox="0 0 24 24" fill="currentColor" xmlns="http://www.w3.org/2000/svg">
<path d="M12 6C13.1046 6 14 5.10457 14 4C14 2.89543 13.1046 2 12 2C10.8954 2 9.99999 2.89543 9.99999 4C9.99999 5.10457 10.8954 6 12 6Z" fill="currentColor"/>
<path d="M12 22C13.1046 22 14 21.1046 14 20C14 18.8954 13.1046 18 12 18C10.8954 18 9.99999 18.8954 9.99999 20C9.99999 21.1046 10.8954 22 12 22Z" fill="currentColor"/>
<path d="M22 12C22 10.8954 21.1046 10 20 10C18.8954 10 18 10.8954 18 12C18 13.1046 18.8954 14 20 14C21.1046 14 22 13.1046 22 12Z" fill="currentColor"/>
<path d="M19.0711 19.0714C19.8521 18.2904 19.8521 17.0241 19.0711 16.243C18.29 15.462 17.0237 15.462 16.2426 16.243C15.4616 17.0241 15.4616 18.2904 16.2426 19.0714C17.0237 19.8525 18.29 19.8525 19.0711 19.0714Z" fill="currentColor"/>
<path d="M4.92893 16.2427C5.70997 15.4617 6.9763 15.4617 7.75735 16.2427C8.5384 17.0238 8.5384 18.2901 7.75735 19.0711C6.9763 19.8522 5.70998 19.8522 4.92893 19.0711C4.14788 18.2901 4.14788 17.0238 4.92893 16.2427Z" fill="currentColor"/>
<path d="M19.0711 4.92922C18.29 4.14818 17.0237 4.14818 16.2426 4.92922C15.4616 5.71027 15.4616 6.9766 16.2426 7.75765C17.0237 8.5387 18.29 8.5387 19.0711 7.75765C19.8521 6.9766 19.8521 5.71027 19.0711 4.92922Z" fill="currentColor"/>
</svg>
