<svg viewBox="0 0 24 24" fill="currentColor" xmlns="http://www.w3.org/2000/svg">
<path d="M10.5969 1.34082C11.0564 1.28088 11.5248 1.25 12 1.25C12.4752 1.25 12.9436 1.28088 13.4031 1.34082C13.8138 1.3944 14.1034 1.7708 14.0498 2.18153C13.9962 2.59227 13.6198 2.8818 13.2091 2.82822C12.8137 2.77665 12.4101 2.75 12 2.75C11.5899 2.75 11.1863 2.77665 10.7909 2.82822C10.3802 2.8818 10.0038 2.59227 9.95021 2.18153C9.89663 1.7708 10.1862 1.3944 10.5969 1.34082ZM15.1351 2.47151C15.2937 2.08889 15.7325 1.90734 16.1152 2.06601C16.9895 2.42859 17.8053 2.90305 18.5448 3.47132C18.8733 3.72371 18.9349 4.19456 18.6825 4.523C18.4301 4.85144 17.9593 4.91309 17.6308 4.66069C16.9941 4.17138 16.2922 3.76327 15.5406 3.4516C15.158 3.29293 14.9764 2.85413 15.1351 2.47151ZM8.86492 2.47151C9.02358 2.85413 8.84203 3.29293 8.45941 3.4516C7.70782 3.76327 7.0059 4.17138 6.36915 4.6607C6.04072 4.91309 5.56986 4.85144 5.31747 4.523C5.06508 4.19456 5.12673 3.72371 5.45516 3.47132C6.19465 2.90305 7.01047 2.42859 7.88483 2.06601C8.26745 1.90734 8.70625 2.0889 8.86492 2.47151ZM19.477 5.31747C19.8054 5.06508 20.2763 5.12673 20.5287 5.45516C21.097 6.19465 21.5714 7.01047 21.934 7.88483C22.0927 8.26745 21.9111 8.70625 21.5285 8.86492C21.1459 9.02358 20.7071 8.84203 20.5484 8.45941C20.2367 7.70782 19.8286 7.0059 19.3393 6.36915C19.0869 6.04072 19.1486 5.56986 19.477 5.31747ZM4.523 5.31747C4.85144 5.56986 4.91309 6.04072 4.66069 6.36915C4.17138 7.0059 3.76327 7.70782 3.4516 8.45941C3.29293 8.84203 2.85413 9.02358 2.47151 8.86492C2.08889 8.70625 1.90734 8.26745 2.06601 7.88483C2.42859 7.01048 2.90305 6.19466 3.47132 5.45516C3.72371 5.12673 4.19456 5.06508 4.523 5.31747ZM21.8185 9.95021C22.2292 9.89663 22.6056 10.1862 22.6592 10.5969C22.7191 11.0564 22.75 11.5248 22.75 12C22.75 12.4752 22.7191 12.9436 22.6592 13.4031C22.6056 13.8138 22.2292 14.1034 21.8185 14.0498C21.4077 13.9962 21.1182 13.6198 21.1718 13.2091C21.2234 12.8137 21.25 12.4101 21.25 12C21.25 11.5899 21.2234 11.1863 21.1718 10.7909C21.1182 10.3802 21.4077 10.0038 21.8185 9.95021ZM2.18153 9.95021C2.59227 10.0038 2.8818 10.3802 2.82822 10.7909C2.77665 11.1863 2.75 11.5899 2.75 12C2.75 12.4101 2.77665 12.8137 2.82822 13.2091C2.8818 13.6198 2.59227 13.9962 2.18153 14.0498C1.7708 14.1034 1.3944 13.8138 1.34082 13.4031C1.28088 12.9436 1.25 12.4752 1.25 12C1.25 11.5248 1.28088 11.0564 1.34082 10.5969C1.3944 10.1862 1.7708 9.89663 2.18153 9.95021ZM21.5285 15.1351C21.9111 15.2937 22.0927 15.7325 21.934 16.1152C21.5714 16.9895 21.097 17.8053 20.5287 18.5448C20.2763 18.8733 19.8054 18.9349 19.477 18.6825C19.1486 18.4301 19.0869 17.9593 19.3393 17.6308C19.8286 16.9941 20.2367 16.2922 20.5484 15.5406C20.7071 15.158 21.1459 14.9764 21.5285 15.1351ZM2.47151 15.1351C2.85413 14.9764 3.29293 15.158 3.4516 15.5406C3.76327 16.2922 4.17138 16.9941 4.6607 17.6308C4.91309 17.9593 4.85144 18.4301 4.523 18.6825C4.19456 18.9349 3.72371 18.8733 3.47132 18.5448C2.90305 17.8053 2.42859 16.9895 2.06601 16.1152C1.90734 15.7325 2.0889 15.2938 2.47151 15.1351ZM18.6825 19.477C18.9349 19.8054 18.8733 20.2763 18.5448 20.5287C17.8053 21.097 16.9895 21.5714 16.1152 21.934C15.7325 22.0927 15.2938 21.9111 15.1351 21.5285C14.9764 21.1459 15.158 20.7071 15.5406 20.5484C16.2922 20.2367 16.9941 19.8286 17.6308 19.3393C17.9593 19.0869 18.4301 19.1486 18.6825 19.477ZM5.31747 19.477C5.56986 19.1486 6.04072 19.0869 6.36915 19.3393C7.0059 19.8286 7.70782 20.2367 8.45941 20.5484C8.84203 20.7071 9.02358 21.1459 8.86492 21.5285C8.70625 21.9111 8.26745 22.0927 7.88483 21.934C7.01048 21.5714 6.19466 21.097 5.45516 20.5287C5.12673 20.2763 5.06508 19.8054 5.31747 19.477ZM9.95021 21.8185C10.0038 21.4077 10.3802 21.1182 10.7909 21.1718C11.1863 21.2234 11.5899 21.25 12 21.25C12.4101 21.25 12.8137 21.2234 13.2091 21.1718C13.6198 21.1182 13.9962 21.4077 14.0498 21.8185C14.1034 22.2292 13.8138 22.6056 13.4031 22.6592C12.9436 22.7191 12.4752 22.75 12 22.75C11.5248 22.75 11.0564 22.7191 10.5969 22.6592C10.1862 22.6056 9.89663 22.2292 9.95021 21.8185Z" fill="currentColor"/>
</svg>
