<svg viewBox="0 0 24 24" fill="currentColor" xmlns="http://www.w3.org/2000/svg">
<path d="M6 1.25C5.0335 1.25 4.25 2.0335 4.25 3V5.27273C4.25 5.68694 4.58579 6.02273 5 6.02273C5.41421 6.02273 5.75 5.68694 5.75 5.27273V3C5.75 2.86193 5.86193 2.75 6 2.75H11.25V13.25H9C8.58579 13.25 8.25 13.5858 8.25 14C8.25 14.4142 8.58579 14.75 9 14.75H15C15.4142 14.75 15.75 14.4142 15.75 14C15.75 13.5858 15.4142 13.25 15 13.25H12.75V2.75H18C18.1381 2.75 18.25 2.86193 18.25 3V5.27273C18.25 5.68694 18.5858 6.02273 19 6.02273C19.4142 6.02273 19.75 5.68694 19.75 5.27273V3C19.75 2.0335 18.9665 1.25 18 1.25H6Z" fill="currentColor"/>
<path d="M1.49028 18.4498C1.33708 18.5918 1.25 18.7912 1.25 19C1.25 19.2088 1.33708 19.4082 1.49028 19.5502L4.72838 22.5502C5.03223 22.8317 5.50676 22.8136 5.78827 22.5097C6.06978 22.2059 6.05166 21.7313 5.74781 21.4498L3.91308 19.75H20.0869L18.2522 21.4498C17.9483 21.7313 17.9302 22.2059 18.2117 22.5097C18.4932 22.8136 18.9678 22.8317 19.2716 22.5502L22.5097 19.5502C22.6629 19.4082 22.75 19.2088 22.75 19C22.75 18.7912 22.6629 18.5918 22.5097 18.4498L19.2716 15.4498C18.9678 15.1683 18.4932 15.1864 18.2117 15.4903C17.9302 15.7941 17.9483 16.2687 18.2522 16.5502L20.0869 18.25H3.91308L5.74781 16.5502C6.05166 16.2687 6.06978 15.7941 5.78827 15.4903C5.50676 15.1864 5.03223 15.1683 4.72838 15.4498L1.49028 18.4498Z" fill="currentColor"/>
</svg>
