<svg viewBox="0 0 24 24" fill="currentColor" xmlns="http://www.w3.org/2000/svg">
<path d="M4.25 4C4.25 3.58579 4.58579 3.25 5 3.25H22C22.4142 3.25 22.75 3.58579 22.75 4C22.75 4.41421 22.4142 4.75 22 4.75H5C4.58579 4.75 4.25 4.41421 4.25 4Z" fill="currentColor"/>
<path d="M4.25 19C4.25 18.5858 4.58579 18.25 5 18.25H22C22.4142 18.25 22.75 18.5858 22.75 19C22.75 19.4142 22.4142 19.75 22 19.75H5C4.58579 19.75 4.25 19.4142 4.25 19Z" fill="currentColor"/>
<path d="M12 8.25C11.5858 8.25 11.25 8.58579 11.25 9C11.25 9.41421 11.5858 9.75 12 9.75H22C22.4142 9.75 22.75 9.41421 22.75 9C22.75 8.58579 22.4142 8.25 22 8.25H12Z" fill="currentColor"/>
<path d="M11.25 14C11.25 13.5858 11.5858 13.25 12 13.25H22C22.4142 13.25 22.75 13.5858 22.75 14C22.75 14.4142 22.4142 14.75 22 14.75H12C11.5858 14.75 11.25 14.4142 11.25 14Z" fill="currentColor"/>
<path d="M2.77038 7.49527L8.34575 11.0794C8.65191 11.2762 8.65191 11.7238 8.34575 11.9206L2.77038 15.5048C2.43762 15.7187 2 15.4797 2 15.0842V7.91586C2 7.52028 2.43762 7.28136 2.77038 7.49527Z" fill="currentColor"/>
</svg>
