<svg viewBox="0 0 24 24" fill="currentColor" xmlns="http://www.w3.org/2000/svg">
<path d="M2.76321 13.9779C2.55656 13.9779 2.38681 13.9301 2.25397 13.8345C2.1285 13.7389 2.04732 13.6101 2.01042 13.4483C1.9809 13.2864 2.01411 13.1062 2.11005 12.9076L4.94407 6.71724C5.06215 6.46713 5.20238 6.2869 5.36474 6.17655C5.52711 6.05885 5.71531 6 5.92933 6C6.14336 6 6.33156 6.05885 6.49392 6.17655C6.65629 6.2869 6.79282 6.46713 6.90353 6.71724L9.75969 12.9076C9.85563 13.1062 9.88884 13.2901 9.85932 13.4593C9.83718 13.6211 9.76338 13.7499 9.63791 13.8455C9.51245 13.9338 9.35008 13.9779 9.15082 13.9779C8.89989 13.9779 8.70431 13.9191 8.56409 13.8014C8.43124 13.6837 8.31316 13.4998 8.20983 13.2497L7.75109 12.1903H4.09993L3.64884 13.2497C3.53813 13.5071 3.42005 13.6947 3.29458 13.8124C3.1765 13.9228 2.99937 13.9779 2.76321 13.9779ZM5.90719 7.92L4.67138 10.8552H7.17481L5.92933 7.92H5.90719Z" fill="currentColor"/>
<path d="M14.0875 14C13.6521 14 13.2646 13.8933 12.9251 13.68C12.6878 13.5223 12.507 13.3288 12.3827 13.0997V13.1283C12.3827 13.4005 12.3126 13.6101 12.1724 13.7572C12.0321 13.9044 11.8292 13.9779 11.5635 13.9779C11.2978 13.9779 11.0911 13.9044 10.9435 13.7572C10.8033 13.6101 10.7332 13.4005 10.7332 13.1283V6.84966C10.7332 6.57012 10.8033 6.36046 10.9435 6.22069C11.0911 6.07356 11.3015 6 11.5746 6C11.8402 6 12.0432 6.07356 12.1834 6.22069C12.331 6.36046 12.4048 6.57012 12.4048 6.84966V9.18754C12.5326 8.98045 12.7134 8.80437 12.9473 8.65931C13.2794 8.45333 13.6595 8.35034 14.0875 8.35034C14.5672 8.35034 14.9842 8.46437 15.3385 8.69241C15.6927 8.92046 15.9695 9.24414 16.1688 9.66345C16.368 10.0828 16.4677 10.583 16.4677 11.1641C16.4677 11.7453 16.368 12.2492 16.1688 12.6759C15.9695 13.1025 15.689 13.4299 15.3274 13.6579C14.9732 13.886 14.5599 14 14.0875 14ZM13.5894 12.7531C13.8255 12.7531 14.0322 12.6943 14.2093 12.5766C14.3938 12.4589 14.534 12.286 14.63 12.0579C14.7333 11.8225 14.785 11.5246 14.785 11.1641C14.785 10.6271 14.6743 10.2336 14.4529 9.98345C14.2314 9.72598 13.9436 9.59724 13.5894 9.59724C13.3532 9.59724 13.1429 9.65241 12.9583 9.76276C12.7812 9.8731 12.641 10.046 12.5377 10.2814C12.4344 10.5094 12.3827 10.8037 12.3827 11.1641C12.3827 11.7011 12.4934 12.1021 12.7148 12.3669C12.9362 12.6244 13.2277 12.7531 13.5894 12.7531Z" fill="currentColor"/>
<path d="M18.5859 13.6579C19.0287 13.886 19.5453 14 20.1357 14C20.3645 14 20.6044 13.9706 20.8553 13.9117C21.1063 13.8602 21.3572 13.772 21.6081 13.6469C21.7483 13.5807 21.8443 13.4887 21.8959 13.371C21.955 13.246 21.9771 13.1209 21.9624 12.9959C21.955 12.8634 21.9144 12.7494 21.8406 12.6538C21.7742 12.5508 21.6819 12.4809 21.5638 12.4441C21.4457 12.4074 21.3129 12.4257 21.1653 12.4993C21.0177 12.5802 20.8701 12.6391 20.7225 12.6759C20.5749 12.7053 20.4346 12.72 20.3018 12.72C19.8664 12.72 19.5269 12.5839 19.2833 12.3117C19.0472 12.0322 18.9291 11.6497 18.9291 11.1641C18.9291 10.914 18.9586 10.6933 19.0176 10.5021C19.0841 10.3108 19.1726 10.1526 19.2833 10.0276C19.4014 9.89517 19.5453 9.79586 19.7151 9.72966C19.8848 9.65609 20.0804 9.61931 20.3018 9.61931C20.4346 9.61931 20.5749 9.6377 20.7225 9.67448C20.8775 9.71126 21.0251 9.77012 21.1653 9.85103C21.3129 9.9246 21.4457 9.94667 21.5638 9.91724C21.6819 9.88046 21.7779 9.81425 21.8517 9.71862C21.9328 9.61563 21.9808 9.50161 21.9956 9.37655C22.0103 9.24414 21.9882 9.11908 21.9291 9.00138C21.8775 8.87632 21.7779 8.78069 21.6302 8.71448C21.3793 8.58207 21.1247 8.49011 20.8664 8.43862C20.6081 8.37977 20.3645 8.35034 20.1357 8.35034C19.6929 8.35034 19.2907 8.41655 18.9291 8.54897C18.5674 8.67402 18.2575 8.85793 17.9992 9.10069C17.7482 9.34345 17.5563 9.6377 17.4235 9.98345C17.2907 10.3292 17.2242 10.7191 17.2242 11.1531C17.2242 11.7343 17.3423 12.2382 17.5785 12.6648C17.8147 13.0915 18.1505 13.4225 18.5859 13.6579Z" fill="currentColor"/>
<path d="M2 17.25C1.58579 17.25 1.25 17.5858 1.25 18C1.25 18.4142 1.58579 18.75 2 18.75H3.66667C4.08088 18.75 4.41667 18.4142 4.41667 18C4.41667 17.5858 4.08088 17.25 3.66667 17.25H2Z" fill="currentColor"/>
<path d="M7 17.25C6.58579 17.25 6.25 17.5858 6.25 18C6.25 18.4142 6.58579 18.75 7 18.75H10.3333C10.7475 18.75 11.0833 18.4142 11.0833 18C11.0833 17.5858 10.7475 17.25 10.3333 17.25H7Z" fill="currentColor"/>
<path d="M13.6667 17.25C13.2525 17.25 12.9167 17.5858 12.9167 18C12.9167 18.4142 13.2525 18.75 13.6667 18.75H17C17.4142 18.75 17.75 18.4142 17.75 18C17.75 17.5858 17.4142 17.25 17 17.25H13.6667Z" fill="currentColor"/>
<path d="M20.3333 17.25C19.9191 17.25 19.5833 17.5858 19.5833 18C19.5833 18.4142 19.9191 18.75 20.3333 18.75H22C22.4142 18.75 22.75 18.4142 22.75 18C22.75 17.5858 22.4142 17.25 22 17.25H20.3333Z" fill="currentColor"/>
</svg>
