<svg viewBox="0 0 24 24" fill="currentColor" xmlns="http://www.w3.org/2000/svg">
<path d="M14.1716 2C14.1978 2 14.2239 2.00051 14.25 2.00154V5C14.25 6.51878 15.4812 7.75 17 7.75H19.9985C19.9995 7.77608 20 7.80223 20 7.82843V20C20 21.1046 19.1046 22 18 22H6C4.89543 22 4 21.1046 4 20V4C4 2.89543 4.89543 2 6 2H14.1716ZM8 9.25C7.58579 9.25 7.25 9.58579 7.25 10C7.25 10.4142 7.58579 10.75 8 10.75H12C12.4142 10.75 12.75 10.4142 12.75 10C12.75 9.58579 12.4142 9.25 12 9.25H8ZM7.25 14C7.25 14.4142 7.58579 14.75 8 14.75H16C16.4142 14.75 16.75 14.4142 16.75 14C16.75 13.5858 16.4142 13.25 16 13.25H8C7.58579 13.25 7.25 13.5858 7.25 14ZM8 17.25C7.58579 17.25 7.25 17.5858 7.25 18C7.25 18.4142 7.58579 18.75 8 18.75H16C16.4142 18.75 16.75 18.4142 16.75 18C16.75 17.5858 16.4142 17.25 16 17.25H8Z" fill="currentColor"/>
<path d="M15.75 2.75L19.25 6.25H17C16.3096 6.25 15.75 5.69036 15.75 5V2.75Z" fill="currentColor"/>
</svg>
