<svg viewBox="0 0 24 24" fill="currentColor" xmlns="http://www.w3.org/2000/svg">
<path d="M6.53033 7.46967C6.23744 7.17678 5.76256 7.17678 5.46967 7.46967L1.46967 11.4697C1.17678 11.7626 1.17678 12.2374 1.46967 12.5303L5.46967 16.5303C5.76256 16.8232 6.23744 16.8232 6.53033 16.5303C6.82322 16.2374 6.82322 15.7626 6.53033 15.4697L3.06066 12L6.53033 8.53033C6.82322 8.23744 6.82322 7.76256 6.53033 7.46967Z" fill="currentColor"/>
<path d="M17.4697 7.46967C17.7626 7.17678 18.2374 7.17678 18.5303 7.46967L22.5303 11.4697C22.8232 11.7626 22.8232 12.2374 22.5303 12.5303L18.5303 16.5303C18.2374 16.8232 17.7626 16.8232 17.4697 16.5303C17.1768 16.2374 17.1768 15.7626 17.4697 15.4697L20.9393 12L17.4697 8.53033C17.1768 8.23744 17.1768 7.76256 17.4697 7.46967Z" fill="currentColor"/>
<path d="M12 14C13.1046 14 14 13.1046 14 12C14 10.8954 13.1046 10 12 10C10.8954 10 10 10.8954 10 12C10 13.1046 10.8954 14 12 14Z" fill="currentColor"/>
<path d="M8 12C8 12.5523 7.55228 13 7 13C6.44772 13 6 12.5523 6 12C6 11.4477 6.44772 11 7 11C7.55228 11 8 11.4477 8 12Z" fill="currentColor"/>
<path d="M17 13C17.5523 13 18 12.5523 18 12C18 11.4477 17.5523 11 17 11C16.4477 11 16 11.4477 16 12C16 12.5523 16.4477 13 17 13Z" fill="currentColor"/>
</svg>
