<svg viewBox="0 0 24 24" fill="currentColor" xmlns="http://www.w3.org/2000/svg">
<path d="M2.25 6C2.25 3.37665 4.37665 1.25 7 1.25H21C21.4142 1.25 21.75 1.58579 21.75 2C21.75 2.41421 21.4142 2.75 21 2.75H15.75V22C15.75 22.4142 15.4142 22.75 15 22.75C14.5858 22.75 14.25 22.4142 14.25 22V2.75H9.75V22C9.75 22.4142 9.41421 22.75 9 22.75C8.58579 22.75 8.25 22.4142 8.25 22V10.75H7C4.37665 10.75 2.25 8.62335 2.25 6ZM8.25 9.25V2.75H7C5.20507 2.75 3.75 4.20507 3.75 6C3.75 7.79493 5.20507 9.25 7 9.25H8.25Z" fill="currentColor"/>
</svg>
