<svg viewBox="0 0 24 24" fill="currentColor" xmlns="http://www.w3.org/2000/svg">
<path d="M10.8222 11.095C10.8222 15.0737 8.41402 17.6136 6.70323 18.8561C6.14355 19.2625 5.55022 18.7499 5.63447 18.0443L5.8695 15.0737H4C2.89543 15.0737 2 14.1783 2 13.0737V7C2 5.89543 2.89543 5 4 5H8.82223C9.9268 5 10.8222 5.89543 10.8222 7V11.095Z" fill="currentColor"/>
<path d="M22.0001 11.095C22.0001 15.0737 19.5919 17.6136 17.8811 18.8561C17.3214 19.2625 16.7281 18.7499 16.8123 18.0443L17.0474 15.0737H15.1779C14.0733 15.0737 13.1779 14.1783 13.1779 13.0737V7C13.1779 5.89543 14.0733 5 15.1779 5H20.0001C21.1047 5 22.0001 5.89543 22.0001 7V11.095Z" fill="currentColor"/>
</svg>
