<svg viewBox="0 0 24 24" fill="currentColor" xmlns="http://www.w3.org/2000/svg">
<path d="M16.25 3C16.25 2.7298 16.3953 2.48048 16.6305 2.34735C16.8656 2.21422 17.1542 2.21786 17.3859 2.35688L22.3859 5.35688C22.6118 5.49242 22.75 5.73655 22.75 6C22.75 6.26345 22.6118 6.50758 22.3859 6.64312L17.3859 9.64312C17.1542 9.78214 16.8656 9.78578 16.6305 9.65265C16.3953 9.51952 16.25 9.2702 16.25 9V6.75H8C5.1005 6.75 2.75 9.1005 2.75 12C2.75 14.8995 5.1005 17.25 8 17.25H17C17.4142 17.25 17.75 17.5858 17.75 18C17.75 18.4142 17.4142 18.75 17 18.75H8C4.27208 18.75 1.25 15.7279 1.25 12C1.25 8.27208 4.27208 5.25 8 5.25H16.25V3Z" fill="currentColor"/>
</svg>
