<svg viewBox="0 0 24 24" fill="currentColor" xmlns="http://www.w3.org/2000/svg">
<path d="M12.75 1.5C12.75 1.08579 12.4142 0.75 12 0.75C11.5858 0.75 11.25 1.08579 11.25 1.5V3.16667C11.25 3.58088 11.5858 3.91667 12 3.91667C12.4142 3.91667 12.75 3.58088 12.75 3.16667V1.5Z" fill="currentColor"/>
<path d="M12.75 6.5C12.75 6.08579 12.4142 5.75 12 5.75C11.5858 5.75 11.25 6.08579 11.25 6.5V9.83333C11.25 10.2475 11.5858 10.5833 12 10.5833C12.4142 10.5833 12.75 10.2475 12.75 9.83333V6.5Z" fill="currentColor"/>
<path d="M12.75 13.1667C12.75 12.7525 12.4142 12.4167 12 12.4167C11.5858 12.4167 11.25 12.7525 11.25 13.1667V16.5C11.25 16.9142 11.5858 17.25 12 17.25C12.4142 17.25 12.75 16.9142 12.75 16.5V13.1667Z" fill="currentColor"/>
<path d="M12.75 19.8333C12.75 19.4191 12.4142 19.0833 12 19.0833C11.5858 19.0833 11.25 19.4191 11.25 19.8333V21.5C11.25 21.9142 11.5858 22.25 12 22.25C12.4142 22.25 12.75 21.9142 12.75 21.5V19.8333Z" fill="currentColor"/>
<path d="M2 6C2 4.89543 2.89543 4 4 4H7C8.10457 4 9 4.89543 9 6V18C9 19.1046 8.10457 20 7 20H4C2.89543 20 2 19.1046 2 18V6Z" fill="currentColor"/>
<path d="M15 6C15 4.89543 15.8954 4 17 4H20C21.1046 4 22 4.89543 22 6V18C22 19.1046 21.1046 20 20 20H17C15.8954 20 15 19.1046 15 18V6Z" fill="currentColor"/>
</svg>
