<svg viewBox="0 0 24 24" fill="currentColor" xmlns="http://www.w3.org/2000/svg">
<path d="M6.75 3C6.75 2.58579 6.41421 2.25 6 2.25C5.58579 2.25 5.25 2.58579 5.25 3V19.1893L2.53033 16.4697C2.23744 16.1768 1.76256 16.1768 1.46967 16.4697C1.17678 16.7626 1.17678 17.2374 1.46967 17.5303L5.46967 21.5303C5.76256 21.8232 6.23744 21.8232 6.53033 21.5303L10.5303 17.5303C10.8232 17.2374 10.8232 16.7626 10.5303 16.4697C10.2374 16.1768 9.76256 16.1768 9.46967 16.4697L6.75 19.1893V3Z" fill="currentColor"/>
<path d="M11 3.25C10.5858 3.25 10.25 3.58579 10.25 4C10.25 4.41421 10.5858 4.75 11 4.75H16C16.4142 4.75 16.75 4.41421 16.75 4C16.75 3.58579 16.4142 3.25 16 3.25H11Z" fill="currentColor"/>
<path d="M10.25 8C10.25 7.58579 10.5858 7.25 11 7.25H18C18.4142 7.25 18.75 7.58579 18.75 8C18.75 8.41421 18.4142 8.75 18 8.75H11C10.5858 8.75 10.25 8.41421 10.25 8Z" fill="currentColor"/>
<path d="M11 11.25C10.5858 11.25 10.25 11.5858 10.25 12C10.25 12.4142 10.5858 12.75 11 12.75H22C22.4142 12.75 22.75 12.4142 22.75 12C22.75 11.5858 22.4142 11.25 22 11.25H11Z" fill="currentColor"/>
</svg>
