<svg viewBox="0 0 24 24" fill="currentColor" xmlns="http://www.w3.org/2000/svg">
<path d="M6.75 21C6.75 21.4142 6.41421 21.75 6 21.75C5.58579 21.75 5.25 21.4142 5.25 21V4.81066L2.53033 7.53033C2.23744 7.82322 1.76256 7.82322 1.46967 7.53033C1.17678 7.23744 1.17678 6.76256 1.46967 6.46967L5.46967 2.46967C5.76256 2.17678 6.23744 2.17678 6.53033 2.46967L10.5303 6.46967C10.8232 6.76256 10.8232 7.23744 10.5303 7.53033C10.2374 7.82322 9.76256 7.82322 9.46967 7.53033L6.75 4.81066V21Z" fill="currentColor"/>
<path d="M11 20.75C10.5858 20.75 10.25 20.4142 10.25 20C10.25 19.5858 10.5858 19.25 11 19.25H16C16.4142 19.25 16.75 19.5858 16.75 20C16.75 20.4142 16.4142 20.75 16 20.75H11Z" fill="currentColor"/>
<path d="M10.25 16C10.25 16.4142 10.5858 16.75 11 16.75H18C18.4142 16.75 18.75 16.4142 18.75 16C18.75 15.5858 18.4142 15.25 18 15.25H11C10.5858 15.25 10.25 15.5858 10.25 16Z" fill="currentColor"/>
<path d="M11 12.75C10.5858 12.75 10.25 12.4142 10.25 12C10.25 11.5858 10.5858 11.25 11 11.25H22C22.4142 11.25 22.75 11.5858 22.75 12C22.75 12.4142 22.4142 12.75 22 12.75H11Z" fill="currentColor"/>
</svg>
