<svg viewBox="0 0 24 24" fill="currentColor" xmlns="http://www.w3.org/2000/svg">
<path d="M22.5719 2.48525C22.8399 2.16941 22.8011 1.69612 22.4852 1.42813C22.1694 1.16015 21.6961 1.19894 21.4281 1.51478L16.9091 6.84078L14.5719 4.08621C14.3039 3.77037 13.8306 3.73157 13.5148 3.99956C13.1989 4.26755 13.1601 4.74084 13.4281 5.05668L16.3372 8.48525C16.4797 8.6532 16.6888 8.75001 16.9091 8.75001C17.1293 8.75001 17.3385 8.6532 17.481 8.48525L22.5719 2.48525Z" fill="currentColor"/>
<path d="M2.76321 15.9779C2.55656 15.9779 2.38681 15.9301 2.25397 15.8345C2.1285 15.7388 2.04732 15.6101 2.01042 15.4483C1.9809 15.2864 2.01411 15.1062 2.11005 14.9076L4.94407 8.71725C5.06215 8.46713 5.20238 8.2869 5.36474 8.17656C5.52711 8.05886 5.71531 8 5.92933 8C6.14336 8 6.33156 8.05886 6.49392 8.17656C6.65629 8.2869 6.79282 8.46713 6.90353 8.71725L9.75969 14.9076C9.85563 15.1062 9.88884 15.2901 9.85932 15.4593C9.83718 15.6211 9.76338 15.7499 9.63791 15.8455C9.51245 15.9338 9.35008 15.9779 9.15082 15.9779C8.89989 15.9779 8.70431 15.9191 8.56409 15.8014C8.43124 15.6837 8.31316 15.4998 8.20983 15.2496L7.75109 14.1903H4.09993L3.64884 15.2496C3.53813 15.5071 3.42005 15.6947 3.29458 15.8124C3.1765 15.9227 2.99937 15.9779 2.76321 15.9779ZM5.90719 9.92L4.67138 12.8552H7.17481L5.92933 9.92H5.90719Z" fill="currentColor"/>
<path d="M14.0875 16C13.6521 16 13.2646 15.8933 12.9251 15.68C12.6878 15.5223 12.507 15.3288 12.3827 15.0997V15.1283C12.3827 15.4004 12.3126 15.6101 12.1724 15.7572C12.0321 15.9044 11.8292 15.9779 11.5635 15.9779C11.2978 15.9779 11.0911 15.9044 10.9435 15.7572C10.8033 15.6101 10.7332 15.4004 10.7332 15.1283V8.84966C10.7332 8.57012 10.8033 8.36047 10.9435 8.22069C11.0911 8.07357 11.3015 8 11.5746 8C11.8402 8 12.0432 8.07357 12.1834 8.22069C12.331 8.36047 12.4048 8.57012 12.4048 8.84966V11.1875C12.5326 10.9804 12.7134 10.8044 12.9473 10.6593C13.2794 10.4533 13.6595 10.3503 14.0875 10.3503C14.5672 10.3503 14.9842 10.4644 15.3385 10.6924C15.6927 10.9204 15.9695 11.2441 16.1688 11.6634C16.368 12.0827 16.4677 12.583 16.4677 13.1641C16.4677 13.7453 16.368 14.2492 16.1688 14.6758C15.9695 15.1025 15.689 15.4299 15.3274 15.6579C14.9732 15.886 14.5599 16 14.0875 16ZM13.5894 14.7531C13.8255 14.7531 14.0322 14.6942 14.2093 14.5765C14.3938 14.4588 14.534 14.286 14.63 14.0579C14.7333 13.8225 14.785 13.5246 14.785 13.1641C14.785 12.6271 14.6743 12.2335 14.4529 11.9834C14.2314 11.726 13.9436 11.5972 13.5894 11.5972C13.3532 11.5972 13.1429 11.6524 12.9583 11.7627C12.7812 11.8731 12.641 12.046 12.5377 12.2814C12.4344 12.5094 12.3827 12.8037 12.3827 13.1641C12.3827 13.7011 12.4934 14.1021 12.7148 14.3669C12.9362 14.6244 13.2277 14.7531 13.5894 14.7531Z" fill="currentColor"/>
<path d="M18.5859 15.6579C19.0287 15.886 19.5453 16 20.1357 16C20.3645 16 20.6044 15.9706 20.8553 15.9117C21.1063 15.8602 21.3572 15.7719 21.6081 15.6469C21.7483 15.5807 21.8443 15.4887 21.8959 15.371C21.955 15.246 21.9771 15.1209 21.9624 14.9958C21.955 14.8634 21.9144 14.7494 21.8406 14.6538C21.7742 14.5508 21.6819 14.4809 21.5638 14.4441C21.4457 14.4073 21.3129 14.4257 21.1653 14.4993C21.0177 14.5802 20.8701 14.6391 20.7225 14.6758C20.5749 14.7053 20.4346 14.72 20.3018 14.72C19.8664 14.72 19.5269 14.5839 19.2833 14.3117C19.0472 14.0322 18.9291 13.6496 18.9291 13.1641C18.9291 12.914 18.9586 12.6933 19.0176 12.5021C19.0841 12.3108 19.1726 12.1526 19.2833 12.0276C19.4014 11.8952 19.5453 11.7958 19.7151 11.7296C19.8848 11.6561 20.0804 11.6193 20.3018 11.6193C20.4346 11.6193 20.5749 11.6377 20.7225 11.6745C20.8775 11.7112 21.0251 11.7701 21.1653 11.851C21.3129 11.9246 21.4457 11.9467 21.5638 11.9172C21.6819 11.8804 21.7779 11.8142 21.8517 11.7186C21.9328 11.6156 21.9808 11.5016 21.9956 11.3765C22.0103 11.2441 21.9882 11.1191 21.9291 11.0014C21.8775 10.8763 21.7779 10.7807 21.6302 10.7145C21.3793 10.5821 21.1247 10.4901 20.8664 10.4386C20.6081 10.3798 20.3645 10.3503 20.1357 10.3503C19.6929 10.3503 19.2907 10.4165 18.9291 10.549C18.5674 10.674 18.2575 10.8579 17.9992 11.1007C17.7482 11.3434 17.5563 11.6377 17.4235 11.9834C17.2907 12.3292 17.2242 12.7191 17.2242 13.1531C17.2242 13.7342 17.3423 14.2381 17.5785 14.6648C17.8147 15.0915 18.1505 15.4225 18.5859 15.6579Z" fill="currentColor"/>
</svg>
