<svg viewBox="0 0 24 24" fill="currentColor" xmlns="http://www.w3.org/2000/svg">
<path d="M1.25 3C1.25 2.0335 2.0335 1.25 3 1.25H21C21.9665 1.25 22.75 2.0335 22.75 3V6.79545C22.75 7.20967 22.4142 7.54545 22 7.54545C21.5858 7.54545 21.25 7.20967 21.25 6.79545V3C21.25 2.86193 21.1381 2.75 21 2.75H12.75V9.75H11.25V2.75H3C2.86193 2.75 2.75 2.86193 2.75 3V6.79545C2.75 7.20967 2.41421 7.54545 2 7.54545C1.58579 7.54545 1.25 7.20967 1.25 6.79545V3Z" fill="currentColor"/>
<path d="M12.75 14.25H11.25V21.25H8C7.58579 21.25 7.25 21.5858 7.25 22C7.25 22.4142 7.58579 22.75 8 22.75H16C16.4142 22.75 16.75 22.4142 16.75 22C16.75 21.5858 16.4142 21.25 16 21.25H12.75V14.25Z" fill="currentColor"/>
<path d="M2 11.25C1.58579 11.25 1.25 11.5858 1.25 12C1.25 12.4142 1.58579 12.75 2 12.75H22C22.4142 12.75 22.75 12.4142 22.75 12C22.75 11.5858 22.4142 11.25 22 11.25H2Z" fill="currentColor"/>
</svg>
