<svg viewBox="0 0 24 24" fill="currentColor" xmlns="http://www.w3.org/2000/svg">
<path d="M2 2.25C1.58579 2.25 1.25 2.58579 1.25 3C1.25 3.41421 1.58579 3.75 2 3.75H22C22.4142 3.75 22.75 3.41421 22.75 3C22.75 2.58579 22.4142 2.25 22 2.25H2Z" fill="currentColor"/>
<path d="M10 20.25C9.58579 20.25 9.25 20.5858 9.25 21C9.25 21.4142 9.58579 21.75 10 21.75H22C22.4142 21.75 22.75 21.4142 22.75 21C22.75 20.5858 22.4142 20.25 22 20.25H10Z" fill="currentColor"/>
<path d="M9.25 9C9.25 8.58579 9.58579 8.25 10 8.25H22C22.4142 8.25 22.75 8.58579 22.75 9C22.75 9.41421 22.4142 9.75 22 9.75H10C9.58579 9.75 9.25 9.41421 9.25 9Z" fill="currentColor"/>
<path d="M2 14.25C1.58579 14.25 1.25 14.5858 1.25 15C1.25 15.4142 1.58579 15.75 2 15.75H22C22.4142 15.75 22.75 15.4142 22.75 15C22.75 14.5858 22.4142 14.25 22 14.25H2Z" fill="currentColor"/>
</svg>
