<svg viewBox="0 0 24 24" fill="currentColor" xmlns="http://www.w3.org/2000/svg">
<path d="M6 2.25C5.0335 2.25 4.25 3.0335 4.25 4V7.05682C4.25 7.47103 4.58579 7.80682 5 7.80682C5.41421 7.80682 5.75 7.47103 5.75 7.05682V4C5.75 3.86193 5.86193 3.75 6 3.75H11.25V16.25H9C8.58579 16.25 8.25 16.5858 8.25 17C8.25 17.4142 8.58579 17.75 9 17.75H15C15.4142 17.75 15.75 17.4142 15.75 17C15.75 16.5858 15.4142 16.25 15 16.25H12.75V3.75H18C18.1381 3.75 18.25 3.86193 18.25 4V7.05682C18.25 7.47103 18.5858 7.80682 19 7.80682C19.4142 7.80682 19.75 7.47103 19.75 7.05682V4C19.75 3.0335 18.9665 2.25 18 2.25H6Z" fill="currentColor"/>
<path d="M2 20.25C1.58579 20.25 1.25 20.5858 1.25 21C1.25 21.4142 1.58579 21.75 2 21.75H22C22.4142 21.75 22.75 21.4142 22.75 21C22.75 20.5858 22.4142 20.25 22 20.25H2Z" fill="currentColor"/>
</svg>
