<svg viewBox="0 0 24 24" fill="currentColor" xmlns="http://www.w3.org/2000/svg">
<path d="M10.9999 1.25C11.2979 1.25 11.5676 1.4264 11.687 1.69939L18.687 17.6994C18.853 18.0789 18.68 18.5211 18.3005 18.6871C17.921 18.8531 17.4788 18.6801 17.3128 18.3006L15.1761 13.4167H6.82379L4.68707 18.3006C4.52104 18.6801 4.07882 18.8531 3.69934 18.6871C3.31985 18.5211 3.14681 18.0789 3.31283 17.6994L10.3128 1.69939C10.4322 1.4264 10.7019 1.25 10.9999 1.25ZM14.5198 11.9167L10.9999 3.87117L7.48004 11.9167H14.5198Z" fill="currentColor"/>
<path d="M2.25 22C2.25 21.5858 2.58579 21.25 3 21.25H19C19.4142 21.25 19.75 21.5858 19.75 22C19.75 22.4142 19.4142 22.75 19 22.75H3C2.58579 22.75 2.25 22.4142 2.25 22Z" fill="currentColor"/>
<path d="M22.75 2C22.75 1.58579 22.4142 1.25 22 1.25C21.5858 1.25 21.25 1.58579 21.25 2V18C21.25 18.4142 21.5858 18.75 22 18.75C22.4142 18.75 22.75 18.4142 22.75 18V2Z" fill="currentColor"/>
</svg>
