<svg viewBox="0 0 24 24" fill="currentColor" xmlns="http://www.w3.org/2000/svg">
<path d="M5.75 2C5.75 1.58579 5.41421 1.25 5 1.25C4.58579 1.25 4.25 1.58579 4.25 2V11C4.25 15.2802 7.71979 18.75 12 18.75C16.2802 18.75 19.75 15.2802 19.75 11V2C19.75 1.58579 19.4142 1.25 19 1.25C18.5858 1.25 18.25 1.58579 18.25 2V11C18.25 14.4518 15.4518 17.25 12 17.25C8.54822 17.25 5.75 14.4518 5.75 11V2Z" fill="currentColor"/>
<path d="M2 21.25C1.58579 21.25 1.25 21.5858 1.25 22C1.25 22.4142 1.58579 22.75 2 22.75H22C22.4142 22.75 22.75 22.4142 22.75 22C22.75 21.5858 22.4142 21.25 22 21.25H2Z" fill="currentColor"/>
</svg>
