<svg viewBox="0 0 24 24" fill="currentColor" xmlns="http://www.w3.org/2000/svg">
<path d="M1.25 6C1.25 5.58579 1.58579 5.25 2 5.25H22C22.4142 5.25 22.75 5.58579 22.75 6C22.75 6.41421 22.4142 6.75 22 6.75H2C1.58579 6.75 1.25 6.41421 1.25 6Z" fill="currentColor"/>
<path d="M1.25 12C1.25 11.5858 1.58579 11.25 2 11.25H22C22.4142 11.25 22.75 11.5858 22.75 12C22.75 12.4142 22.4142 12.75 22 12.75H2C1.58579 12.75 1.25 12.4142 1.25 12Z" fill="currentColor"/>
<path d="M2 17.25C1.58579 17.25 1.25 17.5858 1.25 18C1.25 18.4142 1.58579 18.75 2 18.75H22C22.4142 18.75 22.75 18.4142 22.75 18C22.75 17.5858 22.4142 17.25 22 17.25H2Z" fill="currentColor"/>
</svg>
