<svg viewBox="0 0 24 24" fill="currentColor" xmlns="http://www.w3.org/2000/svg">
<path d="M12 4.75C10.7574 4.75 9.75 5.75736 9.75 7C9.75 8.24264 10.7574 9.25 12 9.25C13.2426 9.25 14.25 8.24264 14.25 7C14.25 5.75736 13.2426 4.75 12 4.75ZM12 8C11.4477 8 11 7.55228 11 7C11 6.44772 11.4477 6 12 6C12.5523 6 13 6.44772 13 7C13 7.55228 12.5523 8 12 8Z" fill="currentColor"/>
<path d="M17 7C17 9.76142 14.7614 12 12 12C9.23858 12 7 9.76142 7 7C7 4.23858 9.23858 2 12 2C14.7614 2 17 4.23858 17 7ZM8.25 7C8.25 9.07107 9.92893 10.75 12 10.75C14.0711 10.75 15.75 9.07107 15.75 7C15.75 4.92893 14.0711 3.25 12 3.25C9.92893 3.25 8.25 4.92893 8.25 7Z" fill="currentColor"/>
<path d="M11.25 18H4C2.89543 18 2 17.1046 2 16V5C2 3.89543 2.89543 3 4 3H6.87616C6.01389 4.10297 5.5 5.49147 5.5 7C5.5 10.5899 8.41015 13.5 12 13.5C15.5899 13.5 18.5 10.5899 18.5 7C18.5 5.49147 17.9861 4.10297 17.1238 3H20C21.1046 3 22 3.89543 22 5V16C22 17.1046 21.1046 18 20 18H12.75V20.25H15C15.4142 20.25 15.75 20.5858 15.75 21C15.75 21.4142 15.4142 21.75 15 21.75H9C8.58579 21.75 8.25 21.4142 8.25 21C8.25 20.5858 8.58579 20.25 9 20.25H11.25V18Z" fill="currentColor"/>
</svg>
