<svg viewBox="0 0 24 24" fill="currentColor" xmlns="http://www.w3.org/2000/svg">
<path d="M12 4.75C10.7574 4.75 9.75 5.75736 9.75 7C9.75 8.24264 10.7574 9.25 12 9.25C13.2426 9.25 14.25 8.24264 14.25 7C14.25 5.75736 13.2426 4.75 12 4.75ZM13 7C13 7.55228 12.5523 8 12 8C11.4477 8 11 7.55228 11 7C11 6.44772 11.4477 6 12 6C12.5523 6 13 6.44772 13 7Z" fill="currentColor"/>
<path d="M12 12C14.7614 12 17 9.76142 17 7C17 4.23858 14.7614 2 12 2C9.23858 2 7 4.23858 7 7C7 9.76142 9.23858 12 12 12ZM8.25 7C8.25 4.92893 9.92893 3.25 12 3.25C14.0711 3.25 15.75 4.92893 15.75 7C15.75 9.07107 14.0711 10.75 12 10.75C9.92893 10.75 8.25 9.07107 8.25 7Z" fill="currentColor"/>
<path d="M12 13.5C15.5899 13.5 18.5 10.5899 18.5 7C18.5 5.49147 17.9861 4.10297 17.1238 3H20C21.1046 3 22 3.89543 22 5V14C22 15.1046 21.1046 16 20 16H14.0833L14.4375 20.5H16C16.4142 20.5 16.75 20.8358 16.75 21.25C16.75 21.6642 16.4142 22 16 22H8C7.58579 22 7.25 21.6642 7.25 21.25C7.25 20.8358 7.58579 20.5 8 20.5H9.5625L9.91667 16H4C2.89543 16 2 15.1046 2 14V5C2 3.89543 2.89543 3 4 3H6.87616C6.01389 4.10297 5.5 5.49147 5.5 7C5.5 10.5899 8.41015 13.5 12 13.5Z" fill="currentColor"/>
</svg>
