<svg viewBox="0 0 24 24" fill="currentColor" xmlns="http://www.w3.org/2000/svg">
<path d="M7.03886 12.4134L13.8731 6.05375C13.9992 5.93644 14.2617 6.02752 14.2078 6.16987L12.5953 10.4279C12.5682 10.4996 12.6283 10.5733 12.7296 10.5925L16.8591 11.3754C16.9895 11.4002 17.0428 11.5106 16.9611 11.5866L10.1269 17.9462C10.0008 18.0636 9.73833 17.9725 9.79224 17.8301L11.4047 13.5721C11.4318 13.5004 11.3717 13.4267 11.2704 13.4075L7.14089 12.6246C7.01049 12.5998 6.95715 12.4894 7.03886 12.4134Z" fill="currentColor"/>
<path d="M6.76978 3.8425L7.02137 3.53881C8.2184 2.1477 9.39904 1.64577 11.1626 2.25579L11.1631 6.52656L7.26611 10.153C5.73785 9.90047 4.4252 10.0948 3.41995 10.6454C2.44509 8.66284 3.14149 5.42493 5.78179 4.80004C5.97651 4.75395 6.14967 4.64221 6.27248 4.48339L6.76978 3.8425Z" fill="currentColor"/>
<path d="M5.65609 11.8079C4.31027 11.8919 3.46678 12.5525 3.15659 13.5634C2.80243 14.7176 3.29179 15.8994 4.20092 16.1966L4.32746 16.2316C4.81264 16.3418 5.10928 16.8359 4.98039 17.3191C4.51494 19.0642 5.12413 19.957 6.871 19.8495C7.23469 19.8271 7.57417 20.0335 7.72342 20.3679C8.44938 21.9943 10.4797 22.3183 11.1649 21.457L11.1646 19.0296L11.1487 19.0444C10.566 19.5867 9.83546 19.5538 9.40029 19.4028C9.16143 19.3199 8.83089 19.1449 8.58142 18.7939C8.29084 18.3851 8.18812 17.8307 8.38945 17.299L9.41791 14.5831L6.86147 14.0984C6.46043 14.0224 5.93785 13.7665 5.65973 13.1909C5.43409 12.7239 5.45847 12.2226 5.65609 11.8079Z" fill="currentColor"/>
<path d="M12.9145 17.401L12.9143 21.4228C13.3408 21.9373 13.8629 22.0973 14.6011 21.9445C15.1597 21.8288 15.5774 21.5847 15.8791 21.1867C14.9468 20.6876 14.4184 19.6834 14.3176 18.2983C14.2823 17.8131 14.6448 17.391 15.1271 17.3555C15.6095 17.3199 16.0291 17.6845 16.0644 18.1697C16.1405 19.2154 16.4625 19.6536 17.0871 19.7549C18.6174 20.0032 19.3861 19.3602 19.1759 17.1755C19.1455 16.8593 19.2867 16.5512 19.5454 16.369C20.2169 15.8962 20.6691 15.4402 20.8783 14.9295C21.0667 14.47 21.0399 13.9719 20.7086 13.3835C19.4534 14.515 17.6481 15.121 16.6078 14.6804C16.4357 14.6075 16.2988 14.4857 16.2064 14.3378L12.9145 17.401Z" fill="currentColor"/>
<path d="M17.5571 13.081C18.1875 13.0201 19.4474 12.3836 20.0482 11.5004C21.7052 9.06427 21.2956 5.71443 18.0518 4.56554C17.8572 4.49663 17.6931 4.36085 17.5883 4.18214C16.5765 2.45637 14.9988 1.74167 12.9155 2.30088L12.9153 4.89881C13.4867 4.41587 14.1803 4.45176 14.5997 4.59729C14.8386 4.68018 15.1691 4.85513 15.4186 5.20611C15.7092 5.61493 15.8119 6.16938 15.6106 6.70103L14.5821 9.41695L17.1385 9.90165C17.5396 9.97768 18.0622 10.2336 18.3403 10.8092C18.6665 11.4844 18.4701 12.2314 17.983 12.6847L17.5571 13.081Z" fill="currentColor"/>
</svg>
