<svg viewBox="0 0 24 24" fill="currentColor" xmlns="http://www.w3.org/2000/svg">
<path d="M13.8019 10.5227C13.5996 10.6602 13.3535 10.729 13.0637 10.729C12.6317 10.729 12.2955 10.5777 12.0549 10.2751C11.8143 9.96701 11.694 9.5406 11.694 8.99589C11.694 8.62726 11.7487 8.31639 11.858 8.06329C11.9674 7.8047 12.1232 7.60937 12.3255 7.47732C12.5333 7.33977 12.7794 7.271 13.0637 7.271C13.4957 7.271 13.832 7.4223 14.0725 7.72492C14.3131 8.02753 14.4334 8.45119 14.4334 8.99589C14.4334 9.35903 14.3788 9.6699 14.2694 9.92849C14.16 10.1871 14.0042 10.3851 13.8019 10.5227Z" fill="currentColor"/>
<path d="M2 1.25C2.41421 1.25 2.75 1.58579 2.75 2V3H16C17.1046 3 18 3.89543 18 5V13C18 14.1046 17.1046 15 16 15H2.75V22C2.75 22.4142 2.41421 22.75 2 22.75C1.58579 22.75 1.25 22.4142 1.25 22V2C1.25 1.58579 1.58579 1.25 2 1.25ZM5.41073 11.6286C5.87551 11.8762 6.43871 12 7.10033 12C7.40107 12 7.7018 11.9752 8.00254 11.9257C8.30328 11.8762 8.58214 11.8074 8.83914 11.7194C8.98677 11.6699 9.0934 11.5873 9.15901 11.4718C9.2301 11.3563 9.26564 11.216 9.26564 11.0509V9.22696C9.26564 9.03439 9.21369 8.88858 9.1098 8.78955C9.01138 8.68501 8.86648 8.63274 8.6751 8.63274H7.46121C7.2753 8.63274 7.1304 8.6795 7.02651 8.77304C6.92809 8.86107 6.87888 8.99037 6.87888 9.16094C6.87888 9.3315 6.92809 9.46355 7.02651 9.55708C7.1304 9.65062 7.2753 9.69739 7.46121 9.69739H8.03535V10.6157C7.93146 10.6408 7.82757 10.6621 7.72368 10.6795C7.5323 10.7125 7.35459 10.729 7.19055 10.729C6.65469 10.729 6.25006 10.586 5.97667 10.2999C5.70327 10.0138 5.56657 9.5901 5.56657 9.02889C5.56657 8.65475 5.62672 8.33838 5.74701 8.07978C5.86731 7.82118 6.04775 7.62586 6.28834 7.49381C6.5344 7.36176 6.8406 7.29574 7.20695 7.29574C7.4202 7.29574 7.62252 7.31774 7.8139 7.36176C8.00528 7.40028 8.18298 7.45805 8.34702 7.53508C8.50559 7.6066 8.64776 7.62586 8.77352 7.59285C8.89929 7.55433 8.99771 7.48281 9.06879 7.37827C9.14534 7.26823 9.19182 7.14993 9.20823 7.02338C9.2301 6.89133 9.21369 6.76754 9.15901 6.65199C9.1098 6.53095 9.01411 6.43741 8.87195 6.37139C8.59855 6.22834 8.31968 6.13205 8.03535 6.08253C7.75102 6.02751 7.47215 6 7.19875 6C6.6957 6 6.24459 6.07153 5.84543 6.21458C5.45174 6.35213 5.1182 6.55571 4.8448 6.82531C4.5714 7.08941 4.36088 7.40853 4.21325 7.78267C4.07108 8.15131 4 8.56671 4 9.02889C4 9.62311 4.1203 10.1431 4.36088 10.5887C4.60147 11.0344 4.95142 11.381 5.41073 11.6286ZM11.5217 11.6286C11.9647 11.8762 12.4786 12 13.0637 12C13.5011 12 13.9003 11.9312 14.2612 11.7937C14.6221 11.6506 14.931 11.447 15.188 11.1829C15.4505 10.9133 15.6501 10.5942 15.7867 10.2256C15.9289 9.85695 16 9.44704 16 8.99587C16 8.39065 15.877 7.8652 15.6309 7.41953C15.3849 6.96836 15.0404 6.61898 14.5975 6.37139C14.16 6.1238 13.6488 6 13.0637 6C12.6263 6 12.2271 6.07153 11.8662 6.21458C11.5053 6.35213 11.1937 6.55296 10.9312 6.81706C10.6742 7.08116 10.4746 7.39752 10.3325 7.76616C10.1958 8.1348 10.1274 8.5447 10.1274 8.99587C10.1274 9.5956 10.2477 10.121 10.4883 10.5722C10.7344 11.0234 11.0788 11.3755 11.5217 11.6286Z" fill="currentColor"/>
</svg>
