<svg viewBox="0 0 24 24" fill="currentColor" xmlns="http://www.w3.org/2000/svg">
<path d="M16.9568 10.9452C16.6719 11.1186 16.3245 11.2052 15.9145 11.2052C15.3031 11.2052 14.8271 11.0094 14.4866 10.6179C14.1462 10.2199 13.9759 9.67108 13.9759 8.9714C13.9759 8.50281 14.0524 8.10162 14.2052 7.76783C14.3581 7.43403 14.5804 7.18048 14.8723 7.00716C15.1641 6.83385 15.5115 6.74719 15.9145 6.74719C16.5329 6.74719 17.0124 6.94297 17.3528 7.33454C17.6933 7.71968 17.8636 8.2653 17.8636 8.9714C17.8636 9.43358 17.7836 9.83477 17.6238 10.175C17.471 10.5087 17.2486 10.7655 16.9568 10.9452Z" fill="currentColor"/>
<path d="M2.75 2V3H21.25V2C21.25 1.58579 21.5858 1.25 22 1.25C22.4142 1.25 22.75 1.58579 22.75 2V22C22.75 22.4142 22.4142 22.75 22 22.75C21.5858 22.75 21.25 22.4142 21.25 22V15H2.75V22C2.75 22.4142 2.41421 22.75 2 22.75C1.58579 22.75 1.25 22.4142 1.25 22V2C1.25 1.58579 1.58579 1.25 2 1.25C2.41421 1.25 2.75 1.58579 2.75 2ZM6.30299 12.0429C6.8797 12.3318 7.58149 12.4762 8.40835 12.4762C8.7905 12.4762 9.17614 12.4441 9.56525 12.3799C9.95436 12.3157 10.3052 12.2323 10.6179 12.1296C10.7847 12.0782 10.9028 11.9948 10.9723 11.8792C11.0418 11.7637 11.0765 11.6225 11.0765 11.4556V9.22173C11.0765 9.02915 11.0209 8.88151 10.9098 8.77881C10.8055 8.6761 10.6492 8.62475 10.4407 8.62475H8.8044C8.59595 8.62475 8.43614 8.6729 8.32496 8.76918C8.21379 8.85905 8.1582 8.99064 8.1582 9.16395C8.1582 9.33085 8.21379 9.46244 8.32496 9.55873C8.43614 9.65501 8.59595 9.70316 8.8044 9.70316H9.74243V11.0341C9.58391 11.0758 9.4241 11.1104 9.26299 11.1378C8.99896 11.1828 8.74187 11.2052 8.49173 11.2052C7.74825 11.2052 7.18543 11.0191 6.80327 10.6468C6.42806 10.2745 6.24045 9.72562 6.24045 9.00027C6.24045 8.51884 6.32036 8.11444 6.48017 7.78706C6.64693 7.45327 6.89708 7.20293 7.2306 7.03603C7.56412 6.86272 7.97755 6.77606 8.47088 6.77606C8.77661 6.77606 9.05802 6.80494 9.31511 6.86272C9.5722 6.91407 9.81539 6.99752 10.0447 7.11306C10.2184 7.19009 10.3713 7.21576 10.5033 7.19009C10.6422 7.15799 10.7534 7.0938 10.8368 6.99752C10.9271 6.89481 10.9827 6.77927 11.0036 6.65089C11.0314 6.51609 11.0175 6.39091 10.9619 6.27537C10.9132 6.15341 10.816 6.05391 10.67 5.97688C10.3226 5.79715 9.9613 5.66877 9.58609 5.59174C9.21088 5.51471 8.83567 5.4762 8.46046 5.4762C7.849 5.4762 7.30008 5.55964 6.81369 5.72654C6.33426 5.89344 5.9243 6.13094 5.58383 6.43906C5.25031 6.74075 4.99322 7.10985 4.81257 7.54635C4.63886 7.97643 4.552 8.46107 4.552 9.00027C4.552 9.69995 4.70139 10.3098 5.00017 10.8297C5.29895 11.3496 5.73322 11.7541 6.30299 12.0429ZM14.0072 12.0429C14.5561 12.3318 15.1919 12.4762 15.9145 12.4762C16.4635 12.4762 16.9603 12.3927 17.405 12.2259C17.8497 12.059 18.2318 11.8215 18.5514 11.5133C18.8711 11.2052 19.1177 10.8361 19.2914 10.406C19.4651 9.97597 19.552 9.49454 19.552 8.96175C19.552 8.26207 19.3991 7.65226 19.0934 7.13232C18.7946 6.60595 18.3743 6.19834 17.8323 5.90948C17.2903 5.62063 16.6511 5.4762 15.9145 5.4762C15.3726 5.4762 14.8758 5.55964 14.4241 5.72654C13.9794 5.89344 13.5973 6.13094 13.2776 6.43906C12.958 6.74075 12.7113 7.10664 12.5376 7.53672C12.3709 7.96038 12.2875 8.4386 12.2875 8.97138C12.2875 9.67106 12.4369 10.2841 12.7357 10.8104C13.0414 11.3368 13.4652 11.7476 14.0072 12.0429Z" fill="currentColor"/>
</svg>
