<svg viewBox="0 0 24 24" fill="currentColor" xmlns="http://www.w3.org/2000/svg">
<path d="M2.75 2C2.75 1.58579 2.41421 1.25 2 1.25C1.58579 1.25 1.25 1.58579 1.25 2V22C1.25 22.4142 1.58579 22.75 2 22.75H22C22.4142 22.75 22.75 22.4142 22.75 22C22.75 21.5858 22.4142 21.25 22 21.25H2.75V2Z" fill="currentColor"/>
<path d="M17 5.25C16.5858 5.25 16.25 5.58579 16.25 6C16.25 6.41421 16.5858 6.75 17 6.75H20.1893L12 14.9393L7.53033 10.4697C7.23744 10.1768 6.76256 10.1768 6.46967 10.4697L3.46967 13.4697C3.17678 13.7626 3.17678 14.2374 3.46967 14.5303C3.76256 14.8232 4.23744 14.8232 4.53033 14.5303L7 12.0607L11.4697 16.5303C11.7626 16.8232 12.2374 16.8232 12.5303 16.5303L21.25 7.81066V11C21.25 11.4142 21.5858 11.75 22 11.75C22.4142 11.75 22.75 11.4142 22.75 11V6C22.75 5.58579 22.4142 5.25 22 5.25H17Z" fill="currentColor"/>
</svg>
