<svg viewBox="0 0 24 24" fill="currentColor" xmlns="http://www.w3.org/2000/svg">
<path d="M17.111 21.2862C14.6039 22.1804 11.9057 22.2344 9.37549 21.4485C9.45629 21.1855 9.5 20.9044 9.5 20.6125V15.2628C9.5 14.9969 9.46373 14.7401 9.39619 14.4976C11.2132 13.9631 13.1183 13.8574 14.9795 14.1892L15.549 14.2908C16.317 14.4278 16.8929 15.0065 17.1179 15.7248L14.7437 16.6486C14.3544 16.8 14.1536 17.2604 14.2952 17.6769C14.4367 18.0934 14.867 18.3083 15.2563 18.1568L17.6228 17.2361L19.9824 16.605C21.0073 16.3308 22 17.1602 22 18.2904C22 19.0382 21.5528 19.7021 20.8897 19.9386L17.111 21.2862Z" fill="currentColor"/>
<path d="M3 14.1929C2.44772 14.1929 2 14.6719 2 15.2628V20.6125C2 21.2034 2.44772 21.6824 3 21.6824H7C7.55228 21.6824 8 21.2034 8 20.6125V15.2628C8 14.6719 7.55228 14.1929 7 14.1929H3Z" fill="currentColor"/>
<path d="M10.3511 6.4458C11.1615 7.21328 12.3001 7.52771 13.25 7.64888V11.2255H7C6.44772 11.2255 6 11.6641 6 12.205V12.6929H7C7.57916 12.6929 8.08903 12.8854 8.49469 13.1992L8.9729 13.0586C11.0119 12.4588 13.1521 12.3397 15.2428 12.7125L15.8123 12.8141C17.2022 13.0619 18.18 14.0971 18.5494 15.2765L18.5953 15.4233L19.5948 15.1559C19.6911 15.1302 19.7867 15.1092 19.8815 15.0928L20 14.164H21C21.5523 14.164 22 13.7255 22 13.1845V12.205C22 11.6641 21.5523 11.2255 21 11.2255H14.75V7.67587C15.7419 7.57812 17.0082 7.27884 17.8879 6.4458C19.0123 5.38097 19.2153 3.71845 19.2303 2.76487C19.2371 2.32953 18.882 1.99349 18.4221 2.0001C17.4148 2.01456 15.6587 2.20728 14.5342 3.27211C14.3791 3.41904 14.2415 3.57735 14.1195 3.74361C13.9975 3.57735 13.8599 3.41904 13.7047 3.27211C12.5803 2.20728 10.8241 2.01456 9.81683 2.0001C9.35697 1.99349 9.00188 2.32953 9.0087 2.76487C9.02363 3.71845 9.22663 5.38097 10.3511 6.4458Z" fill="currentColor"/>
</svg>
