<svg viewBox="0 0 24 24" fill="currentColor" xmlns="http://www.w3.org/2000/svg">
<path d="M17.111 21.2862C14.6039 22.1804 11.9057 22.2344 9.37549 21.4485C9.45629 21.1855 9.5 20.9044 9.5 20.6125V15.2628C9.5 14.9969 9.46373 14.7401 9.39619 14.4976C11.2132 13.9631 13.1183 13.8574 14.9795 14.1892L15.549 14.2908C16.317 14.4278 16.8929 15.0065 17.1179 15.7248L14.7437 16.6486C14.3544 16.8 14.1536 17.2604 14.2952 17.6769C14.4367 18.0934 14.867 18.3083 15.2563 18.1568L17.6228 17.2361L19.9824 16.605C21.0073 16.3308 22 17.1602 22 18.2904C22 19.0382 21.5528 19.7021 20.8897 19.9386L17.111 21.2862Z" fill="currentColor"/>
<path d="M3 14.1929C2.44772 14.1929 2 14.6719 2 15.2628V20.6125C2 21.2034 2.44772 21.6824 3 21.6824H7C7.55228 21.6824 8 21.2034 8 20.6125V15.2628C8 14.6719 7.55228 14.1929 7 14.1929H3Z" fill="currentColor"/>
<path d="M17.1188 2.43328C17.4819 1.85557 18.5181 1.85557 18.8812 2.43328L21.228 6.16734C21.5556 6.68851 21.0792 7.3017 20.3468 7.3017H19.9304L21.8737 10.5224C22.2667 11.1739 21.6951 11.9404 20.8162 11.9404H18.75V15.2546C18.75 15.299 18.7461 15.3426 18.7387 15.3849L18.5953 15.4233L18.5494 15.2765C18.3254 14.5613 17.8777 13.8992 17.25 13.4335V11.9404H15.1838C14.3049 11.9404 13.7333 11.1739 14.1263 10.5224L16.0696 7.3017H15.6532C14.9208 7.3017 14.4444 6.6885 14.7719 6.16734L17.1188 2.43328Z" fill="currentColor"/>
<path d="M13.701 12.527C13.7327 12.3855 13.712 12.233 13.6248 12.0884L12.2365 9.78742H12.534C13.0572 9.78742 13.3975 9.34937 13.1636 8.97706L11.487 6.30953C11.2277 5.89682 10.4874 5.89682 10.228 6.30953L8.55146 8.97706C8.31747 9.34937 8.65777 9.78742 9.18099 9.78742H9.47856L8.09026 12.0884C7.81212 12.5494 8.21017 13.091 8.82796 13.1012L8.9729 13.0586C10.5129 12.6056 12.1105 12.4268 13.701 12.527Z" fill="currentColor"/>
</svg>
