<svg viewBox="0 0 24 24" fill="currentColor" xmlns="http://www.w3.org/2000/svg">
<path d="M11.4415 2H12.5585C13.4193 2 14.1836 2.55086 14.4558 3.36754L14.88 4.63999C14.9573 4.87193 15.1169 5.06751 15.3286 5.18976L16.2334 5.7122C16.4451 5.83447 16.6943 5.87492 16.9339 5.8259L18.2479 5.55701C19.0913 5.38443 19.9505 5.77088 20.3809 6.51641L20.9394 7.48373C21.3698 8.22925 21.2749 9.16657 20.7037 9.81067L19.8139 10.8142C19.6516 10.9971 19.5621 11.2332 19.5621 11.4777V12.5224C19.5621 12.7669 19.6517 13.0029 19.8139 13.1859L20.7038 14.1894C21.275 14.8335 21.3699 15.7708 20.9395 16.5163L20.381 17.4837C19.9506 18.2292 19.0914 18.6156 18.248 18.4431L16.934 18.1742C16.6944 18.1251 16.4452 18.1656 16.2335 18.2878L15.3286 18.8102C15.1169 18.9325 14.9573 19.1281 14.88 19.36L14.4558 20.6325C14.1836 21.4491 13.4193 22 12.5585 22H11.4415C10.5806 22 9.81635 21.4491 9.54412 20.6325L9.11999 19.3601C9.04267 19.1281 8.88304 18.9325 8.67128 18.8102L7.76643 18.2879C7.55469 18.1656 7.30551 18.1252 7.06598 18.1742L5.75195 18.4431C4.90856 18.6157 4.04937 18.2293 3.61893 17.4837L3.06045 16.5164C2.63002 15.7709 2.72494 14.8336 3.2961 14.1895L4.18598 13.1859C4.3482 13.003 4.43777 12.767 4.43778 12.5225L4.43779 11.4776C4.43779 11.2331 4.34822 10.9971 4.18599 10.8141L3.29612 9.8106C2.72497 9.1665 2.63005 8.22919 3.06048 7.48366L3.61896 6.51634C4.04939 5.77081 4.90859 5.38436 5.75197 5.55695L7.06598 5.82584C7.30552 5.87486 7.55472 5.83442 7.76646 5.71217L8.6713 5.18976C8.88305 5.06751 9.04267 4.87192 9.11999 4.63996L9.54412 3.36754C9.81635 2.55086 10.5806 2 11.4415 2ZM13.7143 14.9904C13.7143 14.4968 14.0197 14.0629 14.4252 13.771C15.3824 13.0819 16 11.9947 16 10.7715C16 8.68857 14.2091 7 12 7C9.79086 7 8 8.68857 8 10.7715C8 11.9947 8.61757 13.0819 9.57476 13.771C9.98026 14.0629 10.2857 14.4968 10.2857 14.9904C10.2857 15.3385 10.5732 15.6207 10.9278 15.6207H13.0722C13.4268 15.6207 13.7143 15.3385 13.7143 14.9904ZM10.1574 17.3131C10.1574 17.6925 10.4707 18 10.8571 18H13.1429C13.5293 18 13.8426 17.6925 13.8426 17.3131C13.8426 16.9338 13.5293 16.6262 13.1429 16.6262H10.8571C10.4707 16.6262 10.1574 16.9338 10.1574 17.3131Z" fill="currentColor"/>
</svg>
