<svg viewBox="0 0 24 24" fill="currentColor" xmlns="http://www.w3.org/2000/svg">
<path d="M13.5526 2.6479C12.6978 1.78403 11.3022 1.78403 10.4474 2.6479L9.45703 3.64876C9.04396 4.06621 8.48019 4.29973 7.89293 4.29663L6.48492 4.28922C5.26963 4.28282 4.28282 5.26962 4.28922 6.48492L4.29663 7.89293C4.29973 8.48019 4.06621 9.04396 3.64876 9.45703L2.6479 10.4474C1.78403 11.3022 1.78403 12.6978 2.6479 13.5526L3.64876 14.543C4.06621 14.956 4.29973 15.5198 4.29663 16.1071L4.28922 17.5151C4.28282 18.7304 5.26962 19.7172 6.48492 19.7108L7.89293 19.7034C8.48019 19.7003 9.04396 19.9338 9.45703 20.3512L10.4474 21.3521C11.3022 22.216 12.6978 22.216 13.5526 21.3521L14.543 20.3512C14.956 19.9338 15.5198 19.7003 16.1071 19.7034L17.5151 19.7108C18.7304 19.7172 19.7172 18.7304 19.7108 17.5151L19.7034 16.1071C19.7003 15.5198 19.9338 14.956 20.3512 14.543L21.3521 13.5526C22.216 12.6978 22.216 11.3022 21.3521 10.4474L20.3512 9.45703C19.9338 9.04396 19.7003 8.48019 19.7034 7.89293L19.7108 6.48492C19.7172 5.26962 18.7304 4.28282 17.5151 4.28922L16.1071 4.29663C15.5198 4.29973 14.956 4.06621 14.543 3.64876L13.5526 2.6479ZM13.7143 14.9904C13.7143 15.3385 13.4268 15.6207 13.0722 15.6207H10.9278C10.5732 15.6207 10.2857 15.3385 10.2857 14.9904C10.2857 14.4968 9.98026 14.0629 9.57476 13.771C8.61757 13.0819 8 11.9947 8 10.7715C8 8.68857 9.79086 7 12 7C14.2091 7 16 8.68857 16 10.7715C16 11.9947 15.3824 13.0819 14.4252 13.771C14.0197 14.0629 13.7143 14.4968 13.7143 14.9904ZM10.1574 17.3131C10.1574 16.9338 10.4707 16.6262 10.8571 16.6262H13.1429C13.5293 16.6262 13.8426 16.9338 13.8426 17.3131C13.8426 17.6925 13.5293 18 13.1429 18H10.8571C10.4707 18 10.1574 17.6925 10.1574 17.3131Z" fill="currentColor"/>
</svg>
