<svg viewBox="0 0 24 24" fill="currentColor" xmlns="http://www.w3.org/2000/svg">
<path d="M14.4079 8.76896C14.2614 8.88359 14.0832 8.9409 13.8733 8.9409C13.5604 8.9409 13.3169 8.81481 13.1426 8.56264C12.9684 8.30587 12.8812 7.95053 12.8812 7.49661C12.8812 7.18941 12.9208 6.93036 13 6.71944C13.0792 6.50395 13.1921 6.34118 13.3386 6.23114C13.4891 6.11651 13.6674 6.0592 13.8733 6.0592C14.1862 6.0592 14.4297 6.18529 14.604 6.43746C14.7782 6.68964 14.8654 7.04269 14.8654 7.49661C14.8654 7.79922 14.8258 8.05828 14.7465 8.27378C14.6673 8.48928 14.5545 8.65434 14.4079 8.76896Z" fill="currentColor"/>
<path d="M8.94366 7.28338H9.67435C9.88029 7.28338 10.0387 7.23294 10.1496 7.13207C10.2605 7.02661 10.3159 6.87072 10.3159 6.66439C10.3159 6.45348 10.2605 6.29759 10.1496 6.19672C10.0387 6.09585 9.88029 6.04541 9.67435 6.04541H8.94366V7.28338Z" fill="currentColor"/>
<path d="M4 1.25C4.41421 1.25 4.75 1.58579 4.75 2V2.21174C4.81191 2.21142 4.87515 2.21879 4.93865 2.23466C6.96432 2.74108 9.08477 2.89152 11.1624 2.68376C12.3757 2.56243 13.6112 2.56112 14.8245 2.68245L17.0995 2.90995C17.6107 2.96107 18 3.39124 18 3.90499V11.895C18 12.4866 17.4892 12.9489 16.9005 12.89L14.8245 12.6824C13.6112 12.5611 12.3888 12.5611 11.1755 12.6824C9.0743 12.8926 6.95258 12.7381 4.90393 12.226L4.75 12.1875V22C4.75 22.4142 4.41421 22.75 4 22.75C3.58579 22.75 3.25 22.4142 3.25 22V2C3.25 1.58579 3.58579 1.25 4 1.25ZM12.7565 9.69051C13.0773 9.89684 13.4495 10 13.8733 10C14.1901 10 14.4792 9.94269 14.7406 9.82806C15.002 9.70885 15.2258 9.5392 15.4119 9.31912C15.602 9.09445 15.7465 8.82852 15.8455 8.52132C15.9485 8.21412 16 7.87254 16 7.49656C16 6.99221 15.9109 6.55433 15.7327 6.18294C15.5545 5.80697 15.305 5.51582 14.9842 5.30949C14.6673 5.10316 14.297 5 13.8733 5C13.5565 5 13.2674 5.05961 13.006 5.17882C12.7446 5.29344 12.5189 5.4608 12.3288 5.68088C12.1426 5.90096 11.9981 6.1646 11.8951 6.4718C11.7961 6.779 11.7466 7.12059 11.7466 7.49656C11.7466 7.99633 11.8337 8.43421 12.008 8.81018C12.1862 9.18615 12.4357 9.4796 12.7565 9.69051ZM6.54653 9.98625C6.7287 9.98625 6.86534 9.93122 6.95643 9.82118C7.04751 9.70656 7.09306 9.54608 7.09306 9.33975V5.66025C7.09306 5.44934 7.04553 5.28886 6.95048 5.17882C6.8594 5.06878 6.72474 5.01375 6.54653 5.01375C6.37227 5.01375 6.23762 5.06878 6.14257 5.17882C6.04752 5.28886 6 5.44934 6 5.66025V9.33975C6 9.54608 6.04752 9.70656 6.14257 9.82118C6.23762 9.93122 6.37227 9.98625 6.54653 9.98625ZM8.39714 9.98625C8.57932 9.98625 8.71595 9.93122 8.80704 9.82118C8.89813 9.70656 8.94367 9.54837 8.94367 9.34663V8.25309H9.86445C10.3397 8.25309 10.706 8.11325 10.9635 7.83356C11.2248 7.54929 11.3555 7.15956 11.3555 6.66437C11.3555 6.16919 11.2248 5.78175 10.9635 5.50206C10.706 5.21779 10.3397 5.07565 9.86445 5.07565H8.40308C8.22883 5.07565 8.0922 5.13067 7.99319 5.24072C7.89814 5.35076 7.85061 5.50894 7.85061 5.71527V9.34663C7.85061 9.54837 7.89814 9.70656 7.99319 9.82118C8.08824 9.93122 8.22289 9.98625 8.39714 9.98625Z" fill="currentColor"/>
</svg>
