<svg viewBox="0 0 24 24" fill="currentColor" xmlns="http://www.w3.org/2000/svg">
<path d="M19.7001 12.1171C21.3652 10.452 22.1969 8.13389 21.9604 5.81697C21.9183 5.40458 21.5954 5.08169 21.183 5.03959C18.8661 4.8031 16.548 5.63477 14.8829 7.29993L13.3472 8.83564L12.3793 8.35836L11.9629 8.18303C11.1907 7.85788 10.2897 8.03932 9.68787 8.64116L8.10301 10.226C7.92946 10.3996 7.98289 10.6903 8.20556 10.7841L9.43559 11.302L10.4035 11.7793L10.1128 12.07C9.86691 12.3159 9.8633 12.711 10.1048 12.9524L14.0476 16.8952C14.289 17.1367 14.6841 17.1331 14.93 16.8872L15.2207 16.5965L15.698 17.5644L16.2159 18.7944C16.3097 19.0171 16.6004 19.0705 16.774 18.897L18.3588 17.3121C18.9607 16.7103 19.1421 15.8093 18.817 15.0371L18.6416 14.6207L18.1644 13.6528L19.7001 12.1171Z" fill="currentColor"/>
<path d="M4 2C2.89543 2 2 2.89543 2 4V20C2 21.1046 2.89543 22 4 22H12C13.1046 22 14 21.1046 14 20V18.5198C13.631 18.4345 13.2791 18.2481 12.9869 17.9559L9.04412 14.0131C8.62278 13.5918 8.4214 13.0464 8.42606 12.5045L7.62347 12.1666C6.38055 11.6432 6.14531 10.0624 7.04237 9.16539L8.62723 7.58052C9.65128 6.55647 11.199 6.23386 12.545 6.80062L13.0026 6.99329L13.0466 7.01497L13.8222 6.2393C13.8808 6.18072 13.9401 6.123 14 6.06615V4C14 2.89543 13.1046 2 12 2H4ZM7 4.25H9C9.41421 4.25 9.75 4.58579 9.75 5C9.75 5.41421 9.41421 5.75 9 5.75H7C6.58579 5.75 6.25 5.41421 6.25 5C6.25 4.58579 6.58579 4.25 7 4.25ZM10 18C10 19.1046 9.10457 20 8 20C6.89543 20 6 19.1046 6 18C6 16.8954 6.89543 16 8 16C9.10457 16 10 16.8954 10 18Z" fill="currentColor"/>
</svg>
