<svg viewBox="0 0 24 24" fill="currentColor" xmlns="http://www.w3.org/2000/svg">
<path d="M12 7.75C10.7574 7.75 9.75 8.75736 9.75 10C9.75 11.2426 10.7574 12.25 12 12.25C13.2426 12.25 14.25 11.2426 14.25 10C14.25 8.75736 13.2426 7.75 12 7.75ZM12 11C11.4477 11 11 10.5523 11 10C11 9.44772 11.4477 9 12 9C12.5523 9 13 9.44772 13 10C13 10.5523 12.5523 11 12 11Z" fill="currentColor"/>
<path d="M17 10C17 12.7614 14.7614 15 12 15C9.23858 15 7 12.7614 7 10C7 7.23858 9.23858 5 12 5C14.7614 5 17 7.23858 17 10ZM8.25 10C8.25 12.0711 9.92893 13.75 12 13.75C14.0711 13.75 15.75 12.0711 15.75 10C15.75 7.92893 14.0711 6.25 12 6.25C9.92893 6.25 8.25 7.92893 8.25 10Z" fill="currentColor"/>
<path d="M5 5C5 3.34315 6.34315 2 8 2H16C17.6569 2 19 3.34315 19 5V19C19 20.6569 17.6569 22 16 22H8C6.34315 22 5 20.6569 5 19V5ZM18.5 10C18.5 6.41015 15.5899 3.5 12 3.5C8.41015 3.5 5.5 6.41015 5.5 10C5.5 13.5899 8.41015 16.5 12 16.5C15.5899 16.5 18.5 13.5899 18.5 10ZM9 18.25C8.58579 18.25 8.25 18.5858 8.25 19C8.25 19.4142 8.58579 19.75 9 19.75H15C15.4142 19.75 15.75 19.4142 15.75 19C15.75 18.5858 15.4142 18.25 15 18.25H9Z" fill="currentColor"/>
</svg>
