<svg viewBox="0 0 24 24" fill="currentColor" xmlns="http://www.w3.org/2000/svg">
<path d="M19.7001 10.1171C21.3652 8.45198 22.1969 6.13389 21.9604 3.81697C21.9183 3.40458 21.5954 3.08169 21.183 3.03959C18.8661 2.8031 16.548 3.63477 14.8829 5.29993L13.3472 6.83564L12.3793 6.35836L11.9629 6.18303C11.1907 5.85788 10.2897 6.03932 9.68787 6.64116L8.10301 8.22602C7.92946 8.39957 7.98289 8.69034 8.20556 8.7841L9.43559 9.30204L10.4035 9.77931L10.1128 10.07C9.86691 10.3159 9.8633 10.711 10.1048 10.9524L14.0476 14.8952C14.289 15.1367 14.6841 15.1331 14.93 14.8872L15.2207 14.5965L15.698 15.5644L16.2159 16.7944C16.3097 17.0171 16.6004 17.0705 16.774 16.897L18.3588 15.3121C18.9607 14.7103 19.1421 13.8093 18.817 13.0371L18.6416 12.6207L18.1644 11.6528L19.7001 10.1171Z" fill="currentColor"/>
<path d="M15.279 3.04894C14.7593 3.39292 14.2707 3.79084 13.8222 4.2393L13.0466 5.01497L13.0026 4.99329L12.545 4.80062C11.199 4.23386 9.65128 4.55647 8.62723 5.58052L7.04237 7.16539C6.14531 8.06244 6.38055 9.6432 7.62347 10.1666L8.42606 10.5045C8.4214 11.0464 8.62278 11.5918 9.04412 12.0131L12.9869 15.9559C13.4083 16.3773 13.9537 16.5786 14.4955 16.574L14.8335 17.3766C15.0653 17.9271 15.5046 18.28 16 18.4243V19C16 20.6569 14.6569 22 13 22H5C3.34315 22 2 20.6569 2 19V5C2 3.34315 3.34315 2 5 2H13C13.9119 2 14.7287 2.40685 15.279 3.04894ZM5.25 19C5.25 19.4142 5.58579 19.75 6 19.75H12C12.4142 19.75 12.75 19.4142 12.75 19C12.75 18.5858 12.4142 18.25 12 18.25H6C5.58579 18.25 5.25 18.5858 5.25 19Z" fill="currentColor"/>
</svg>
