<svg viewBox="0 0 24 24" fill="currentColor" xmlns="http://www.w3.org/2000/svg">
<path d="M16.0867 14.6838C15.4602 15.1351 15 15.8184 15 16.5905V17C15 17.5523 14.5523 18 14 18H10C9.44772 18 9 17.5523 9 17V16.5905C9 15.8184 8.53977 15.1351 7.91327 14.6838C6.14878 13.4129 5 11.3406 5 9C5 5.13401 8.13401 2 12 2C15.866 2 19 5.13401 19 9C19 11.3406 17.8512 13.4129 16.0867 14.6838ZM11.4949 13.7901C11.6387 13.93 11.8149 14 12.0234 14C12.2463 14 12.426 13.93 12.5626 13.7901C12.7064 13.6502 12.7783 13.4753 12.7783 13.2655V12.6914C13.1652 12.6193 13.5104 12.4994 13.8137 12.3316C14.1875 12.1287 14.4787 11.8664 14.6872 11.5446C14.8957 11.2228 15 10.852 15 10.4323C15 9.89367 14.8346 9.45645 14.5039 9.12067C14.1803 8.77789 13.6771 8.53305 12.994 8.38615L11.7645 8.12382C11.4482 8.05387 11.2289 7.97342 11.1067 7.88248C10.9916 7.78454 10.9341 7.66562 10.9341 7.52571C10.9341 7.31584 11.0348 7.14446 11.2361 7.01154C11.4446 6.87863 11.7394 6.81217 12.1204 6.81217C12.4368 6.81217 12.6956 6.83666 12.8969 6.88562C13.1055 6.9276 13.2924 6.98356 13.4578 7.05351C13.6806 7.14446 13.8712 7.17244 14.0294 7.13746C14.1947 7.09549 14.3241 7.01504 14.4176 6.89612C14.5183 6.77719 14.5758 6.64428 14.5902 6.49738C14.6117 6.34348 14.5866 6.19307 14.5147 6.04617C14.45 5.89927 14.3349 5.78384 14.1696 5.69989C13.9323 5.55999 13.6555 5.45156 13.3391 5.37461C13.144 5.32282 12.957 5.28568 12.7783 5.26318V4.73452C12.7783 4.52466 12.7064 4.34977 12.5626 4.20986C12.4188 4.06995 12.2391 4 12.0234 4C11.8149 4 11.6387 4.06995 11.4949 4.20986C11.3511 4.34977 11.2792 4.52466 11.2792 4.73452V5.3057C10.8941 5.37557 10.549 5.49298 10.2439 5.65792C9.86279 5.86779 9.56441 6.14061 9.34871 6.47639C9.1402 6.80518 9.03595 7.17943 9.03595 7.59916C9.03595 8.1518 9.19772 8.60301 9.52127 8.95278C9.85201 9.29556 10.3517 9.5404 11.0204 9.6873L12.2391 9.93914C12.4548 9.98811 12.6237 10.0441 12.746 10.107C12.8682 10.163 12.9545 10.2295 13.0048 10.3064C13.0623 10.3764 13.0911 10.4638 13.0911 10.5687C13.0911 10.6807 13.0515 10.7856 12.9724 10.8835C12.9005 10.9745 12.7747 11.0479 12.595 11.1039C12.4224 11.1598 12.1851 11.1878 11.8832 11.1878C11.4518 11.1878 11.0887 11.1494 10.7939 11.0724C10.5063 10.9885 10.2906 10.908 10.1468 10.8311C9.9311 10.7401 9.74056 10.7191 9.57519 10.7681C9.41702 10.8101 9.2876 10.8975 9.18694 11.0304C9.08628 11.1633 9.02516 11.3102 9.0036 11.4711C8.98921 11.632 9.01797 11.7894 9.08987 11.9433C9.16896 12.0972 9.30198 12.2162 9.48892 12.3001C9.7118 12.398 9.9994 12.496 10.3517 12.5939C10.6226 12.6692 10.9318 12.7218 11.2792 12.7516V13.2655C11.2792 13.4753 11.3511 13.6502 11.4949 13.7901Z" fill="currentColor"/>
<path d="M9.25 19.5C9.25 19.0858 9.58579 18.75 10 18.75H14C14.4142 18.75 14.75 19.0858 14.75 19.5C14.75 19.9142 14.4142 20.25 14 20.25H10C9.58579 20.25 9.25 19.9142 9.25 19.5Z" fill="currentColor"/>
<path d="M11 21.25C10.5858 21.25 10.25 21.5858 10.25 22C10.25 22.4142 10.5858 22.75 11 22.75H13C13.4142 22.75 13.75 22.4142 13.75 22C13.75 21.5858 13.4142 21.25 13 21.25H11Z" fill="currentColor"/>
</svg>
