<svg viewBox="0 0 24 24" fill="currentColor" xmlns="http://www.w3.org/2000/svg">
<path d="M2 4.97501C2 3.33196 3.34315 2 5 2H19C20.6569 2 22 3.33196 22 4.97501V15C22 16.6431 20.6569 17.975 19 17.975H6L3.78087 20.6259C3.19036 21.3578 2 20.9438 2 20.0064V4.97501ZM20 6C20 4.89543 19.1046 4 18 4C16.8954 4 16 4.89543 16 6C16 6.3782 16.105 6.73188 16.2874 7.0335L14.0127 10.0663C13.8491 10.0231 13.6772 10 13.5 10C12.479 10 11.6367 10.765 11.5151 11.7531L7.59832 12.7976C7.23333 12.3132 6.65324 12 6 12C4.89543 12 4 12.8954 4 14C4 15.1046 4.89543 16 6 16C7.02097 16 7.86327 15.235 7.98491 14.2469L11.9017 13.2024C12.2667 13.6868 12.8468 14 13.5 14C14.6046 14 15.5 13.1046 15.5 12C15.5 11.6218 15.395 11.2681 15.2126 10.9665L17.4873 7.93366C17.6509 7.97694 17.8228 8 18 8C19.1046 8 20 7.10457 20 6Z" fill="currentColor"/>
</svg>
