<svg viewBox="0 0 24 24" fill="currentColor" xmlns="http://www.w3.org/2000/svg">
<path d="M14.7778 7.04549C14.7778 5.1443 13.9207 3.3462 12.4483 2.15854C12.1862 1.94715 11.8138 1.94715 11.5517 2.15854C10.0793 3.3462 9.22222 5.1443 9.22222 7.04549V8.79886L8.38889 9.07894L8.04768 9.21655C7.41492 9.47175 7 10.0897 7 10.7768V12.5863C7 12.7845 7.19848 12.92 7.38094 12.8464L8.38889 12.4398L9.22222 12.1598V12.4916C9.22222 12.7724 9.44796 13 9.72643 13H14.2736C14.552 13 14.7778 12.7724 14.7778 12.4916V12.1598L15.6111 12.4398L16.6191 12.8464C16.8015 12.92 17 12.7845 17 12.5863V10.7768C17 10.0897 16.5851 9.47175 15.9523 9.21655L15.6111 9.07894L14.7778 8.79886V7.04549Z" fill="currentColor"/>
<path d="M7.99487 5H4C2.89543 5 2 5.89543 2 7V16C2 17.1046 2.89543 18 4 18H9.91667L9.5625 20.5H8C7.58579 20.5 7.25 20.8358 7.25 21.25C7.25 21.6642 7.58579 22 8 22H16C16.4142 22 16.75 21.6642 16.75 21.25C16.75 20.8358 16.4142 20.5 16 20.5H14.4375L14.0833 18H20C21.1046 18 22 17.1046 22 16V7C22 5.89543 21.1046 5 20 5H16.0051C16.1843 5.65993 16.2778 6.34725 16.2778 7.04549V7.73041L16.5134 7.82543C17.7189 8.31162 18.5 9.48366 18.5 10.7768V12.5863C18.5 13.8287 17.2437 14.7157 16.058 14.2375L15.5562 14.0351C15.2103 14.3246 14.7643 14.5 14.2736 14.5H9.72643C9.23566 14.5 8.78973 14.3247 8.44375 14.0351L7.94199 14.2375C6.75628 14.7157 5.5 13.8287 5.5 12.5863V10.7768C5.5 9.48366 6.28113 8.31162 7.48663 7.82543L7.72222 7.73041V7.04549C7.72222 6.34725 7.81566 5.65993 7.99487 5Z" fill="currentColor"/>
</svg>
