<svg viewBox="0 0 24 24" fill="currentColor" xmlns="http://www.w3.org/2000/svg">
<path d="M14.2857 6.87118C14.2857 5.12762 13.6429 3.45548 12.4987 2.2226C12.2233 1.9258 11.7767 1.9258 11.5013 2.2226C10.3571 3.45548 9.71428 5.12762 9.71428 6.87118V10.6133L8.63166 11.1967C8.24453 11.4053 8 11.8317 8 12.2981V13.6921C8 13.8622 8.12794 14 8.28575 14H15.7143C15.8721 14 16 13.8622 16 13.6921V12.2981C16 11.8317 15.7555 11.4053 15.3683 11.1967L14.2857 10.6133V6.87118Z" fill="currentColor"/>
<path d="M8.42109 5H4C2.89543 5 2 5.89543 2 7V16C2 17.1046 2.89543 18 4 18H9.91667L9.5625 20.5H8C7.58579 20.5 7.25 20.8358 7.25 21.25C7.25 21.6642 7.58579 22 8 22H16C16.4142 22 16.75 21.6642 16.75 21.25C16.75 20.8358 16.4142 20.5 16 20.5H14.4375L14.0833 18H20C21.1046 18 22 17.1046 22 16V7C22 5.89543 21.1046 5 20 5H15.5789C15.7155 5.60953 15.7857 6.23738 15.7857 6.87118V9.71771L16.0799 9.87626C16.9881 10.3657 17.5 11.3216 17.5 12.2981V13.6921C17.5 14.5832 16.804 15.5 15.7143 15.5H8.28594C7.19621 15.5 6.5 14.5832 6.5 13.6921V12.2981C6.5 11.3216 7.01187 10.3657 7.92007 9.87626L8.21428 9.71771V6.87118C8.21428 6.23737 8.28449 5.60953 8.42109 5Z" fill="currentColor"/>
</svg>
