<svg viewBox="0 0 24 24" fill="currentColor" xmlns="http://www.w3.org/2000/svg">
<path d="M8.04574 20.5618C9.31809 19.2895 9.31808 17.2266 8.04574 15.9543C6.7734 14.6819 4.71053 14.6819 3.43819 15.9543C2.57033 16.8221 2.17184 19.3643 2.00618 20.8929C1.93656 21.5353 2.46469 22.0634 3.10709 21.9938C4.63572 21.8282 7.17789 21.4297 8.04574 20.5618Z" fill="currentColor"/>
<path d="M19.0234 22C18.8149 22 18.6387 21.93 18.4949 21.7901C18.3511 21.6502 18.2792 21.4753 18.2792 21.2655V20.7516C17.9318 20.7218 17.6226 20.6692 17.3517 20.5939C16.9994 20.496 16.7118 20.398 16.4889 20.3001C16.302 20.2162 16.169 20.0972 16.0899 19.9433C16.018 19.7894 15.9892 19.632 16.0036 19.4711C16.0252 19.3102 16.0863 19.1633 16.1869 19.0304C16.2876 18.8975 16.417 18.8101 16.5752 18.7681C16.7406 18.7191 16.9311 18.7401 17.1468 18.8311C17.2906 18.908 17.5063 18.9885 17.7939 19.0724C18.0887 19.1494 18.4518 19.1878 18.8832 19.1878C19.1851 19.1878 19.4224 19.1598 19.595 19.1039C19.7747 19.0479 19.9005 18.9745 19.9724 18.8835C20.0515 18.7856 20.0911 18.6807 20.0911 18.5687C20.0911 18.4638 20.0623 18.3764 20.0048 18.3064C19.9545 18.2295 19.8682 18.163 19.746 18.107C19.6237 18.0441 19.4548 17.9881 19.2391 17.9391L18.0204 17.6873C17.3517 17.5404 16.852 17.2956 16.5213 16.9528C16.1977 16.603 16.0359 16.1518 16.0359 15.5992C16.0359 15.1794 16.1402 14.8052 16.3487 14.4764C16.5644 14.1406 16.8628 13.8678 17.2439 13.6579C17.549 13.493 17.8941 13.3756 18.2792 13.3057V12.7345C18.2792 12.5247 18.3511 12.3498 18.4949 12.2099C18.6387 12.07 18.8149 12 19.0234 12C19.2391 12 19.4188 12.07 19.5626 12.2099C19.7064 12.3498 19.7783 12.5247 19.7783 12.7345V13.2632C19.957 13.2857 20.144 13.3228 20.3391 13.3746C20.6555 13.4516 20.9323 13.56 21.1696 13.6999C21.3349 13.7838 21.45 13.8993 21.5147 14.0462C21.5866 14.1931 21.6117 14.3435 21.5902 14.4974C21.5758 14.6443 21.5183 14.7772 21.4176 14.8961C21.3241 15.015 21.1947 15.0955 21.0294 15.1375C20.8712 15.1724 20.6806 15.1445 20.4578 15.0535C20.2924 14.9836 20.1055 14.9276 19.8969 14.8856C19.6956 14.8367 19.4368 14.8122 19.1204 14.8122C18.7394 14.8122 18.4446 14.8786 18.2361 15.0115C18.0348 15.1445 17.9341 15.3158 17.9341 15.5257C17.9341 15.6656 17.9916 15.7845 18.1067 15.8825C18.2289 15.9734 18.4482 16.0539 18.7645 16.1238L19.994 16.3861C20.6771 16.5331 21.1803 16.7779 21.5039 17.1207C21.8346 17.4565 22 17.8937 22 18.4323C22 18.852 21.8957 19.2228 21.6872 19.5446C21.4787 19.8664 21.1875 20.1287 20.8137 20.3316C20.5104 20.4994 20.1652 20.6193 19.7783 20.6914V21.2655C19.7783 21.4753 19.7064 21.6502 19.5626 21.7901C19.426 21.93 19.2463 22 19.0234 22Z" fill="currentColor"/>
<path d="M14.5002 19.586C14.4991 19.5039 14.5021 19.4211 14.5096 19.3376L14.5125 19.3046L14.5169 19.2718C14.5738 18.8472 14.7386 18.4583 14.9912 18.1248C15.0781 18.01 15.1747 17.9047 15.2801 17.8098C14.7596 17.1686 14.536 16.3967 14.536 15.5992C14.536 14.9181 14.7092 14.2609 15.082 13.6731L15.0867 13.6657C15.4491 13.1015 15.9408 12.6631 16.5203 12.344L16.5306 12.3384C16.6337 12.2826 16.7386 12.2312 16.8453 12.1837C16.9411 11.7949 17.1416 11.4337 17.4489 11.1348C17.8847 10.7107 18.4412 10.5 19.0234 10.5C19.2123 10.5 19.4002 10.5217 19.5832 10.5663C21.3615 8.48503 22.2264 5.76709 21.9491 3.05039C21.895 2.52017 21.4798 2.10502 20.9496 2.05091C17.9707 1.74685 14.9903 2.81614 12.8494 4.95706L10.8749 6.93154L9.63049 6.3179L9.09513 6.09247C8.10232 5.67442 6.94392 5.90769 6.17012 6.68149L4.13244 8.71917C3.90931 8.9423 3.97801 9.31615 4.26429 9.4367L5.84576 10.1026L7.09019 10.7163L6.71649 11.09C6.40032 11.4061 6.39567 11.9141 6.70612 12.2245L11.7755 17.2939C12.0859 17.6043 12.5939 17.5997 12.91 17.2835L13.2837 16.9098L13.8974 18.1542L14.5002 19.586Z" fill="currentColor"/>
</svg>
