<svg viewBox="0 0 24 24" fill="currentColor" xmlns="http://www.w3.org/2000/svg">
<path d="M16.7001 9.11714C18.3652 7.45198 19.1969 5.13389 18.9604 2.81697C18.9183 2.40458 18.5954 2.08169 18.183 2.03959C15.8661 1.8031 13.548 2.63477 11.8829 4.29993L10.3472 5.83564L9.37927 5.35836L8.96288 5.18303C8.19069 4.85788 7.28971 5.03932 6.68787 5.64116L5.10301 7.22602C4.92946 7.39957 4.98289 7.69034 5.20556 7.7841L6.43559 8.30204L7.40348 8.77931L7.11282 9.06997C6.86691 9.31588 6.8633 9.71097 7.10476 9.95242L11.0476 13.8952C11.289 14.1367 11.6841 14.1331 11.93 13.8872L12.2207 13.5965L12.698 14.5644L13.2159 15.7944C13.3097 16.0171 13.6004 16.0705 13.774 15.897L15.3588 14.3121C15.9607 13.7103 16.1421 12.8093 15.817 12.0371L15.6416 11.6207L15.1644 10.6528L16.7001 9.11714Z" fill="currentColor"/>
<path d="M1.25 22C1.25 21.5858 1.58579 21.25 2 21.25H22C22.4142 21.25 22.75 21.5858 22.75 22C22.75 22.4142 22.4142 22.75 22 22.75H2C1.58579 22.75 1.25 22.4142 1.25 22Z" fill="currentColor"/>
<path d="M21 9.00002C21 8.17373 20.4989 7.46447 19.784 7.15955C19.3191 8.27401 18.6362 9.30237 17.7607 10.1778L16.9851 10.9535L17.0067 10.9975L17.1994 11.455C17.7662 12.801 17.4435 14.3488 16.4195 15.3728L14.8346 16.9577C13.9376 17.8548 12.3568 17.6195 11.8335 16.3766L11.4955 15.574C10.9537 15.5787 10.4083 15.3773 9.98691 14.9559L6.04409 11.0131C5.62275 10.5918 5.42137 10.0464 5.42603 9.50453L4.62344 9.16658C3.95124 8.88353 3.57377 8.2912 3.51076 7.66501C3.19318 8.01905 3 8.48697 3 9.00002V18C3 19.1046 3.89543 20 5 20H19C20.1046 20 21 19.1046 21 18V9.00002Z" fill="currentColor"/>
</svg>
