<svg viewBox="0 0 24 24" fill="currentColor" xmlns="http://www.w3.org/2000/svg">
<path d="M14.7778 7.04549C14.7778 5.1443 13.9207 3.3462 12.4483 2.15854C12.1862 1.94715 11.8138 1.94715 11.5517 2.15854C10.0793 3.3462 9.22222 5.1443 9.22222 7.04549V8.79886L8.38889 9.07894L8.04768 9.21655C7.41492 9.47175 7 10.0897 7 10.7768V12.5863C7 12.7845 7.19848 12.92 7.38094 12.8464L8.38889 12.4398L9.22222 12.1598V12.4916C9.22222 12.7724 9.44796 13 9.72643 13H14.2736C14.552 13 14.7778 12.7724 14.7778 12.4916V12.1598L15.6111 12.4398L16.6191 12.8464C16.8015 12.92 17 12.7845 17 12.5863V10.7768C17 10.0897 16.5851 9.47175 15.9523 9.21655L15.6111 9.07894L14.7778 8.79886V7.04549Z" fill="currentColor"/>
<path d="M11.25 18H4C2.89543 18 2 17.1046 2 16V5C2 3.89543 2.89543 3 4 3H8.85287C8.1217 4.20466 7.72222 5.60176 7.72222 7.04549V7.73041L7.48663 7.82543C6.28113 8.31162 5.5 9.48366 5.5 10.7768V12.5863C5.5 13.8287 6.75628 14.7157 7.94199 14.2375L8.44375 14.0351C8.78973 14.3247 9.23566 14.5 9.72643 14.5H14.2736C14.7643 14.5 15.2103 14.3247 15.5562 14.0351L16.058 14.2375C17.2437 14.7157 18.5 13.8287 18.5 12.5863V10.7768C18.5 9.48366 17.7189 8.31162 16.5134 7.82543L16.2778 7.73041V7.04549C16.2778 5.60176 15.8783 4.20466 15.1471 3H20C21.1046 3 22 3.89543 22 5V16C22 17.1046 21.1046 18 20 18H12.75V20.25H15C15.4142 20.25 15.75 20.5858 15.75 21C15.75 21.4142 15.4142 21.75 15 21.75H9C8.58579 21.75 8.25 21.4142 8.25 21C8.25 20.5858 8.58579 20.25 9 20.25H11.25V18Z" fill="currentColor"/>
</svg>
