<svg viewBox="0 0 24 24" fill="currentColor" xmlns="http://www.w3.org/2000/svg">
<path d="M8.04574 20.5618C9.31809 19.2895 9.31808 17.2266 8.04574 15.9543C6.7734 14.6819 4.71053 14.6819 3.43819 15.9543C2.57033 16.8221 2.17184 19.3643 2.00618 20.8929C1.93656 21.5353 2.46469 22.0634 3.10709 21.9938C4.63572 21.8282 7.17789 21.4297 8.04574 20.5618Z" fill="currentColor"/>
<path d="M16.6012 12.2725C16.7538 11.9092 17.2462 11.9092 17.3988 12.2725L18.5085 14.9146C18.5718 15.0651 18.7075 15.1684 18.8638 15.1848L21.6073 15.4731C21.9845 15.5127 22.1367 16.0029 21.8538 16.2671L19.7961 18.1884C19.6789 18.2978 19.6271 18.4648 19.6604 18.6255L20.2463 21.4458C20.3268 21.8336 19.9285 22.1366 19.601 21.9366L17.2196 20.4818C17.1517 20.4404 17.0759 20.4197 17 20.4197C16.9241 20.4197 16.8483 20.4404 16.7804 20.4818L14.399 21.9366C14.0715 22.1366 13.6732 21.8336 13.7537 21.4458L14.3396 18.6255C14.3729 18.4648 14.3211 18.2978 14.2039 18.1884L12.1462 16.2671C11.8633 16.0029 12.0155 15.5127 12.3927 15.4731L15.1362 15.1848C15.2925 15.1684 15.4282 15.0651 15.4915 14.9146L16.6012 12.2725Z" fill="currentColor"/>
<path d="M21.9491 3.05039C22.2532 6.02929 21.1839 9.00969 19.0429 11.1506L18.6911 11.5025C17.9326 10.1055 15.8579 10.1686 15.2182 11.6916L14.3498 13.7592L12.2359 13.9813C11.0712 14.1037 10.46 15.075 10.5096 16.028L6.70612 12.2245C6.39567 11.9141 6.40032 11.4061 6.71649 11.09L7.09019 10.7163L5.84576 10.1026L4.26429 9.4367C3.97801 9.31615 3.90931 8.9423 4.13244 8.71917L6.17012 6.68149C6.94392 5.90769 8.10232 5.67442 9.09513 6.09247L9.63049 6.3179L10.8749 6.93154L12.8494 4.95706C14.9903 2.81614 17.9707 1.74685 20.9496 2.05091C21.4798 2.10502 21.895 2.52017 21.9491 3.05039Z" fill="currentColor"/>
</svg>
