<svg viewBox="0 0 24 24" fill="currentColor" xmlns="http://www.w3.org/2000/svg">
<path d="M8.04574 20.5618C9.31809 19.2895 9.31808 17.2266 8.04574 15.9543C6.7734 14.6819 4.71053 14.6819 3.43819 15.9543C2.57033 16.8221 2.17184 19.3643 2.00618 20.8929C1.93656 21.5353 2.46469 22.0634 3.10709 21.9938C4.63572 21.8282 7.17789 21.4297 8.04574 20.5618Z" fill="currentColor"/>
<path d="M21.9491 3.05039C22.2532 6.02929 21.1839 9.00969 19.0429 11.1506L18.3665 11.8271C18.0614 11.7764 17.7481 11.75 17.4286 11.75C14.3452 11.75 11.8358 14.2074 11.7522 17.2706L6.70612 12.2245C6.39567 11.9141 6.40032 11.4061 6.71649 11.09L7.09019 10.7163L5.84576 10.1026L4.26429 9.4367C3.97801 9.31615 3.90931 8.9423 4.13244 8.71917L6.17012 6.68149C6.94392 5.90769 8.10232 5.67442 9.09513 6.09247L9.63049 6.3179L10.8749 6.93154L12.8494 4.95706C14.9903 2.81614 17.9707 1.74685 20.9496 2.05091C21.4798 2.10502 21.895 2.52017 21.9491 3.05039Z" fill="currentColor"/>
<path d="M17.4286 14.75C15.9492 14.75 14.75 15.9492 14.75 17.4286C14.75 18.9079 15.9492 20.1071 17.4286 20.1071C18.1684 20.1071 18.8371 19.8082 19.3226 19.3226C19.8082 18.8371 20.1071 18.1684 20.1071 17.4286C20.1071 15.9492 18.9079 14.75 17.4286 14.75ZM13.25 17.4286C13.25 15.1208 15.1208 13.25 17.4286 13.25C19.7363 13.25 21.6071 15.1208 21.6071 17.4286C21.6071 18.3112 21.3329 19.1306 20.8658 19.8052L22.5303 21.4697C22.8232 21.7626 22.8232 22.2374 22.5303 22.5303C22.2374 22.8232 21.7626 22.8232 21.4697 22.5303L19.8052 20.8658C19.1306 21.3329 18.3112 21.6071 17.4286 21.6071C15.1208 21.6071 13.25 19.7363 13.25 17.4286Z" fill="currentColor"/>
</svg>
