<svg viewBox="0 0 24 24" fill="currentColor" xmlns="http://www.w3.org/2000/svg">
<path d="M11 9.59937C10.1742 9.59937 9.50482 10.2265 9.50482 11.0001C9.50482 11.7737 10.1742 12.4009 11 12.4009C11.8257 12.4009 12.4951 11.7737 12.4951 11.0001C12.4951 10.2265 11.8257 9.59937 11 9.59937Z" fill="currentColor"/>
<path d="M17.3937 9.49532C18.2021 10.3706 18.2021 11.6297 17.3937 12.505C16.0338 13.9774 13.6782 16.0002 11 16.0002C8.32183 16.0002 5.9662 13.9774 4.60628 12.505C3.79791 11.6297 3.79791 10.3706 4.60628 9.49532C5.9662 8.02292 8.32183 6.00012 11 6.00012C13.6782 6.00012 16.0338 8.02292 17.3937 9.49532ZM7.92068 11.0002C7.92068 12.5935 9.29931 13.8851 11 13.8851C12.7006 13.8851 14.0792 12.5935 14.0792 11.0002C14.0792 9.40686 12.7006 8.11523 11 8.11523C9.29931 8.11523 7.92068 9.40686 7.92068 11.0002Z" fill="currentColor"/>
<path d="M11 1.25C5.61522 1.25 1.25 5.61522 1.25 11C1.25 16.3848 5.61522 20.75 11 20.75C13.4221 20.75 15.639 19.866 17.3436 18.4043L21.4697 22.5303C21.7626 22.8232 22.2374 22.8232 22.5303 22.5303C22.8232 22.2374 22.8232 21.7626 22.5303 21.4697L18.4043 17.3436C19.866 15.639 20.75 13.4221 20.75 11C20.75 5.61522 16.3848 1.25 11 1.25ZM2.75 11C2.75 6.44365 6.44365 2.75 11 2.75C15.5563 2.75 19.25 6.44365 19.25 11C19.25 13.2784 18.3274 15.3399 16.8336 16.8336C15.3399 18.3274 13.2784 19.25 11 19.25C6.44365 19.25 2.75 15.5563 2.75 11Z" fill="currentColor"/>
</svg>
