<svg viewBox="0 0 24 24" fill="currentColor" xmlns="http://www.w3.org/2000/svg">
<path d="M2.41091 17.4134C2.69626 17.6816 3.10717 17.8156 3.64363 17.8156H7.99239C9.30501 17.8156 10.338 17.5196 11.0913 16.9274C11.8561 16.324 12.2384 15.5028 12.2384 14.4637C12.2384 13.6816 12.0101 13.0391 11.5536 12.5363C11.1991 12.136 10.7253 11.849 10.1321 11.6753C10.6056 11.4824 10.9939 11.1996 11.2968 10.8268C11.7077 10.3352 11.9131 9.74302 11.9131 9.05028C11.9131 8.43575 11.7533 7.89944 11.4337 7.44134C11.1141 6.98324 10.6462 6.63129 10.0298 6.38547C9.42486 6.12849 8.68865 6 7.82118 6H3.64363C3.10717 6 2.69626 6.13967 2.41091 6.419C2.13697 6.68715 2 7.07821 2 7.59218V16.2235C2 16.7374 2.13697 17.1341 2.41091 17.4134ZM7.56436 15.5531H5.01332V12.9553H7.56436C8.14648 12.9553 8.5688 13.0615 8.83132 13.2737C9.10526 13.486 9.24223 13.8101 9.24223 14.2458C9.24223 14.6816 9.10526 15.0112 8.83132 15.2346C8.5688 15.4469 8.14648 15.5531 7.56436 15.5531ZM7.25618 10.6927H5.01332V8.26257H7.25618C7.82689 8.26257 8.2435 8.36313 8.50602 8.56425C8.77996 8.75419 8.91693 9.05587 8.91693 9.46927C8.91693 9.88268 8.77996 10.1899 8.50602 10.3911C8.2435 10.5922 7.82689 10.6927 7.25618 10.6927Z" fill="currentColor"/>
<path d="M15.7337 17.4804C16.487 17.8268 17.3773 18 18.4046 18C18.8611 18 19.312 17.9553 19.7571 17.8659C20.2137 17.7765 20.6417 17.6425 21.0412 17.4637C21.3037 17.352 21.4921 17.1955 21.6062 16.9944C21.7204 16.7821 21.7717 16.5698 21.7603 16.3575C21.7489 16.1341 21.6804 15.9385 21.5549 15.771C21.4407 15.5922 21.2752 15.4693 21.0583 15.4022C20.8415 15.324 20.5847 15.3408 20.2879 15.4525C19.9911 15.5642 19.6772 15.6536 19.3462 15.7207C19.0266 15.7765 18.7413 15.8045 18.4902 15.8045C17.7368 15.8045 17.1776 15.6369 16.8123 15.3017C16.5737 15.0681 16.4155 14.7329 16.3378 14.2961H21.2124C21.4864 14.2961 21.6861 14.2458 21.8117 14.1453C21.9372 14.0335 22 13.8659 22 13.6425C22 12.9944 21.903 12.4078 21.7089 11.8827C21.5263 11.3575 21.2524 10.9106 20.8871 10.5419C20.5219 10.162 20.0824 9.87712 19.5688 9.68717C19.0552 9.48605 18.4845 9.3855 17.8567 9.3855C17.0006 9.3855 16.2359 9.56985 15.5625 9.93857C14.9004 10.2961 14.3754 10.7989 13.9873 11.4469C13.6107 12.0838 13.4223 12.8268 13.4223 13.676C13.4223 14.5587 13.6221 15.324 14.0216 15.9721C14.4211 16.6201 14.9918 17.1229 15.7337 17.4804ZM16.3182 12.8883C16.3517 12.6555 16.4079 12.4488 16.487 12.2682C16.624 11.9553 16.818 11.7207 17.0691 11.5642C17.3316 11.3966 17.6398 11.3128 17.9937 11.3128C18.3247 11.3128 18.5986 11.3799 18.8155 11.514C19.0438 11.648 19.215 11.8436 19.3291 12.1006C19.4225 12.3108 19.4777 12.5734 19.4947 12.8883H16.3182Z" fill="currentColor"/>
<path d="M15 6.25C14.5858 6.25 14.25 6.58579 14.25 7C14.25 7.41421 14.5858 7.75 15 7.75H21C21.4142 7.75 21.75 7.41421 21.75 7C21.75 6.58579 21.4142 6.25 21 6.25H15Z" fill="currentColor"/>
</svg>
