<svg viewBox="0 0 24 24" fill="currentColor" xmlns="http://www.w3.org/2000/svg">
<path d="M14.0925 14.5434L14.1256 14.5444L14.0692 14.5404C15.4852 14.5524 17.0029 13.5216 17.7115 12.4236C18.6656 10.9457 18.7813 8.43979 17.5578 6.44649C17.2547 5.95986 16.8911 5.51383 16.4757 5.11913C15.4508 4.15356 14.2001 3.46171 12.8385 3.10722C11.4769 2.75274 10.0483 2.74699 8.68391 3.09052C8.50703 3.13466 8.33187 3.18479 8.1587 3.24079C7.65018 3.408 7.1561 3.62461 6.68379 3.88924L6.68956 3.88459C6.68959 3.88457 6.68952 3.88461 6.68956 3.88459C6.68663 3.88624 6.68361 3.88794 6.68069 3.88959C6.68074 3.88956 6.68064 3.88962 6.68069 3.88959L6.67653 3.89301L6.67925 3.89041C6.67931 3.89037 6.67919 3.89044 6.67925 3.89041L6.67653 3.89301C7.46663 3.12314 8.71565 2.50623 10.1361 2.2057C11.5028 1.92324 12.9135 1.93177 14.2766 2.23074C15.0499 2.40673 15.7999 2.67311 16.5112 3.0244C16.6866 3.10589 16.8586 3.19397 17.0268 3.28841C17.3289 3.45374 17.6097 3.63801 17.8699 3.83876C17.9809 3.9223 18.0896 4.00892 18.196 4.09853C18.5331 4.35989 18.851 4.64816 19.1448 4.96383C19.4458 5.26828 19.7269 5.59179 19.9866 5.93237C20.8976 7.14491 21.5221 8.54873 21.8133 10.0381C22.1044 11.5275 22.0546 13.0637 21.6674 14.531C21.2803 15.9983 20.566 17.3585 19.5783 18.5091C18.5906 19.6598 17.3552 20.5709 15.9652 21.174C14.5751 21.777 13.0667 22.0562 11.5534 21.9906C10.0401 21.925 8.56137 21.5162 7.22854 20.7951C5.89572 20.074 4.74353 19.0594 3.85872 17.8275C2.97392 16.5957 2.37955 15.1787 2.12037 13.6834C2.10832 13.5922 2.09803 13.5005 2.08772 13.4087L2.07488 13.2955C1.86807 11.5832 2.09128 9.84637 2.72426 8.24248C3.15918 7.19111 4.04052 6.05609 4.73264 5.69721C4.18004 6.75321 3.82771 7.90275 3.69354 9.08749L3.70864 9.03815C3.91495 8.34096 4.22742 7.68497 4.63125 7.09161C5.06171 6.45163 5.5924 5.89325 6.21436 5.43475C8.28173 3.91079 11.0595 3.84492 12.168 4.81515C10.1131 5.52116 7.87231 8.37272 8.36647 11.7162C8.42082 12.0838 8.51263 12.4444 8.64018 12.7924C8.70351 12.9651 8.77564 13.1347 8.85636 13.3004C8.69209 12.8627 8.59228 12.3479 8.5815 11.8296C8.56726 11.1466 8.70762 10.4575 9.05884 9.93099C9.74772 8.89915 10.737 8.67676 11.2637 8.79021C11.1417 8.89436 11.0307 9.00732 10.9313 9.12717C10.9002 9.16462 10.8703 9.20277 10.8414 9.24157C9.48525 11.0653 10.5651 14.332 14.0102 14.5389L14.0369 14.5407C14.0554 14.5417 14.074 14.5426 14.0925 14.5434Z" fill="currentColor"/>
<path d="M14.0692 14.5404C14.088 14.5418 14.1068 14.5431 14.1256 14.5444L14.0692 14.5404Z" fill="currentColor"/>
</svg>
