<svg viewBox="0 0 24 24" fill="currentColor" xmlns="http://www.w3.org/2000/svg">
<path d="M14.5303 1.46969C14.3424 1.28178 14.0691 1.20734 13.8119 1.274C13.5546 1.34065 13.3519 1.53846 13.2789 1.79398L11.5027 8.01052C9.48137 8.09614 7.63755 8.70053 6.18752 9.65547C5.7428 9.24839 5.15041 9.00002 4.5 9.00002C3.11929 9.00002 2 10.1193 2 11.5C2 12.394 2.46921 13.1783 3.17479 13.6203C3.06014 14.0663 3 14.5277 3 15C3 18.866 7.02944 22 12 22C16.9706 22 21 18.866 21 15C21 14.5277 20.9399 14.0663 20.8252 13.6203C21.5308 13.1783 22 12.394 22 11.5C22 10.1193 20.8807 9.00002 19.5 9.00002C18.8496 9.00002 18.2572 9.24839 17.8125 9.65547C16.4963 8.78865 14.8556 8.21068 13.0522 8.04735L14.371 3.43165L16.0508 5.11148C16.0177 5.2354 16 5.36565 16 5.50002C16 6.32844 16.6716 7.00002 17.5 7.00002C18.3284 7.00002 19 6.32844 19 5.50002C19 4.67159 18.3284 4.00002 17.5 4.00002C17.3656 4.00002 17.2354 4.01768 17.1115 4.05082L14.5303 1.46969ZM8.5 15C7.67157 15 7 14.3284 7 13.5C7 12.6716 7.67157 12 8.5 12C9.32843 12 10 12.6716 10 13.5C10 14.3284 9.32843 15 8.5 15ZM17 13.5C17 14.3284 16.3284 15 15.5 15C14.6716 15 14 14.3284 14 13.5C14 12.6716 14.6716 12 15.5 12C16.3284 12 17 12.6716 17 13.5ZM8.36941 17.3473C9.57275 18.0284 12.7441 18.981 15.6306 17.3473C15.9911 17.1433 16.4487 17.2701 16.6527 17.6306C16.8567 17.9911 16.7299 18.4487 16.3694 18.6527C12.8559 20.6413 9.09392 19.4809 7.63059 18.6527C7.2701 18.4487 7.14327 17.9911 7.34729 17.6306C7.55131 17.2701 8.00893 17.1433 8.36941 17.3473Z" fill="currentColor"/>
</svg>
