<svg viewBox="0 0 24 24" fill="currentColor" xmlns="http://www.w3.org/2000/svg">
<path d="M11 4.5V7H8.5C7.11929 7 6 5.88071 6 4.5C6 3.11929 7.11929 2 8.5 2C9.88071 2 11 3.11929 11 4.5Z" fill="currentColor"/>
<path d="M14 2C12.8954 2 12 2.89543 12 4V9C12 10.1046 12.8954 11 14 11C15.1046 11 16 10.1046 16 9V4C16 2.89543 15.1046 2 14 2Z" fill="currentColor"/>
<path d="M10 22C11.1046 22 12 21.1046 12 20V15C12 13.8954 11.1046 13 10 13C8.89543 13 8 13.8954 8 15V20C8 21.1046 8.89543 22 10 22Z" fill="currentColor"/>
<path d="M17 11H19.5C20.8807 11 22 9.88071 22 8.5C22 7.11929 20.8807 6 19.5 6C18.1193 6 17 7.11929 17 8.5V11Z" fill="currentColor"/>
<path d="M4.5 13H7V15.5C7 16.8807 5.88071 18 4.5 18C3.11929 18 2 16.8807 2 15.5C2 14.1193 3.11929 13 4.5 13Z" fill="currentColor"/>
<path d="M20 12C21.1046 12 22 12.8954 22 14C22 15.1046 21.1046 16 20 16H15C13.8954 16 13 15.1046 13 14C13 12.8954 13.8954 12 15 12H20Z" fill="currentColor"/>
<path d="M2 10C2 11.1046 2.89543 12 4 12H9C10.1046 12 11 11.1046 11 10C11 8.89543 10.1046 8 9 8H4C2.89543 8 2 8.89543 2 10Z" fill="currentColor"/>
<path d="M13 17V19.5C13 20.8807 14.1193 22 15.5 22C16.8807 22 18 20.8807 18 19.5C18 18.1193 16.8807 17 15.5 17H13Z" fill="currentColor"/>
</svg>
