<svg viewBox="0 0 24 24" fill="currentColor" xmlns="http://www.w3.org/2000/svg">
<path d="M21.953 6.45003C22.0867 6.2942 21.9124 6.09057 21.7146 6.16351C21.2732 6.32632 20.8698 6.43371 20.2732 6.5C21.007 6.0914 21.3483 5.50739 21.6259 4.79209C21.6928 4.61956 21.4909 4.463 21.317 4.54542C20.6107 4.88031 19.8486 5.12877 19.0472 5.27557C18.2551 4.49054 17.126 4 15.877 4C13.4786 4 11.5337 5.80877 11.5337 8.03917C11.5337 8.35581 11.5725 8.66424 11.6457 8.95955C8.19805 8.79892 5.12381 7.32409 2.98798 5.06261C2.84159 4.90761 2.57596 4.92819 2.48481 5.11723C2.24165 5.62159 2.10609 6.18109 2.10609 6.77016C2.10609 8.17124 2.87261 9.40743 4.03783 10.1318C3.51538 10.1161 3.01574 10.0143 2.5553 9.84154C2.33112 9.75744 2.07414 9.90524 2.10426 10.1313C2.33549 11.8672 3.74091 13.2993 5.55499 13.6377C5.19069 13.7304 4.80699 13.7796 4.41006 13.7796C4.31382 13.7796 4.21841 13.7766 4.12387 13.7708C3.8833 13.7559 3.68778 13.9711 3.79092 14.177C4.47143 15.5352 5.94084 16.4834 7.65079 16.5129C6.1645 17.5965 4.29186 18.2421 2.25692 18.2421C2.00601 18.2421 1.89837 18.5647 2.12097 18.6741C3.8402 19.5192 5.79806 20 7.87837 20C15.8673 20 20.2353 13.8453 20.2353 8.50756C20.2353 8.33284 20.2309 8.15811 20.223 7.98503C20.8714 7.5494 21.4543 7.03139 21.953 6.45003Z" fill="currentColor"/>
</svg>
