<svg viewBox="0 0 24 24" fill="currentColor" xmlns="http://www.w3.org/2000/svg">
<path d="M16.9366 12.5653L17.571 10.6754H17.5842L18.2241 12.5653H16.9366Z" fill="currentColor"/>
<path d="M4 6C2.89543 6 2 6.89543 2 8V16C2 17.1046 2.89543 18 4 18H20C21.1046 18 22 17.1046 22 16V8C22 6.89543 21.1046 6 20 6H4ZM5.88027 14.8514C5.77884 14.7634 5.69285 14.6231 5.62228 14.4305L4.02142 10.0234C3.94444 9.6 3.34047 9.17332 3 9L4.50433 9.01651C4.68514 9.01651 4.81965 9.06602 4.90785 9.16506C5.00046 9.2641 5.07984 9.4099 5.14599 9.60248L6.31006 12.9627L7.47452 9.59422C7.54067 9.40165 7.62006 9.2586 7.71267 9.16506C7.80528 9.06602 7.93538 9.01651 8.10296 9.01651C8.23967 9.01651 8.35434 9.06052 8.44695 9.14856C8.53956 9.23109 8.59689 9.34938 8.61894 9.50344C8.6454 9.6575 8.62335 9.83081 8.55279 10.0234L6.94531 14.4305C6.87916 14.6231 6.79537 14.7634 6.69394 14.8514C6.5925 14.9395 6.458 14.9835 6.29041 14.9835C6.12283 14.9835 5.98612 14.9395 5.88027 14.8514ZM12.9566 15C12.7802 15 12.5949 14.9835 12.4009 14.9505C12.2113 14.923 12.0304 14.879 11.8584 14.8184C11.6865 14.7579 11.5321 14.6864 11.3954 14.6039C11.2763 14.5323 11.1925 14.4388 11.144 14.3232C11.0955 14.2022 11.0779 14.0757 11.0911 13.9436C11.1043 13.8116 11.1418 13.696 11.2035 13.597C11.2653 13.4924 11.3469 13.4237 11.4483 13.3906C11.5497 13.3521 11.6644 13.3686 11.7923 13.4402C11.9599 13.5392 12.1495 13.6162 12.3612 13.6713C12.5729 13.7263 12.7713 13.7538 12.9566 13.7538C13.2476 13.7538 13.4505 13.707 13.5652 13.6135C13.6842 13.5144 13.7438 13.3934 13.7438 13.2503C13.7438 13.1238 13.7019 13.022 13.6181 12.945C13.5387 12.868 13.3954 12.8019 13.1881 12.7469L12.4141 12.5406C11.9908 12.4305 11.6754 12.238 11.4682 11.9629C11.2609 11.6878 11.1572 11.3329 11.1572 10.8982C11.1572 10.6121 11.2035 10.3535 11.2962 10.1224C11.3932 9.88583 11.5277 9.68501 11.6997 9.51995C11.8761 9.35488 12.0834 9.22834 12.3215 9.1403C12.5641 9.04677 12.8331 9 13.1286 9C13.3579 9 13.5894 9.03301 13.8231 9.09904C14.0613 9.15956 14.2664 9.25309 14.4384 9.37964C14.5398 9.44567 14.6126 9.53645 14.6567 9.65199C14.7008 9.76754 14.7184 9.88858 14.7096 10.0151C14.7008 10.1362 14.6655 10.2435 14.6037 10.337C14.5464 10.4305 14.467 10.4938 14.3656 10.5268C14.2686 10.5543 14.1517 10.5323 14.015 10.4608C13.8871 10.3893 13.7416 10.337 13.5784 10.304C13.4196 10.2655 13.2653 10.2462 13.1153 10.2462C12.9522 10.2462 12.8132 10.271 12.6986 10.3205C12.5839 10.3645 12.4957 10.4305 12.434 10.5186C12.3766 10.6066 12.348 10.7084 12.348 10.8239C12.348 10.9395 12.3855 11.0385 12.4604 11.121C12.5398 11.1981 12.6831 11.2641 12.8904 11.3191L13.6578 11.5254C14.0855 11.641 14.4053 11.8308 14.617 12.0949C14.8286 12.359 14.9345 12.7029 14.9345 13.1265C14.9345 13.4127 14.8882 13.6713 14.7956 13.9023C14.703 14.1334 14.5707 14.3315 14.3987 14.4966C14.2267 14.6561 14.0194 14.7799 13.7768 14.868C13.5343 14.956 13.2609 15 12.9566 15ZM9.77122 14.9835C9.57717 14.9835 9.42723 14.9175 9.32139 14.7854C9.21555 14.6479 9.16262 14.4553 9.16262 14.2077V9.7923C9.16262 9.5392 9.21555 9.34663 9.32139 9.21458C9.42723 9.08253 9.57717 9.01651 9.77122 9.01651C9.96967 9.01651 10.1196 9.08253 10.221 9.21458C10.3269 9.34663 10.3798 9.5392 10.3798 9.7923V14.2077C10.3798 14.4553 10.3291 14.6479 10.2277 14.7854C10.1262 14.9175 9.97408 14.9835 9.77122 14.9835ZM15.3549 14.868C15.2623 14.7854 15.205 14.6754 15.1829 14.5378C15.1609 14.3948 15.1807 14.2352 15.2425 14.0591L16.8896 9.63549C16.969 9.42091 17.066 9.2641 17.1807 9.16506C17.2998 9.06602 17.4343 9.01651 17.5842 9.01651C17.7342 9.01651 17.8643 9.06602 17.9745 9.16506C18.0892 9.2641 18.1884 9.42091 18.2722 9.63549L19.9194 14.0591C19.9899 14.2352 20.0142 14.3948 19.9921 14.5378C19.9745 14.6809 19.9194 14.7909 19.8267 14.868C19.7385 14.945 19.6283 14.9835 19.496 14.9835C19.3196 14.9835 19.1829 14.934 19.0858 14.8349C18.9932 14.7359 18.9094 14.5763 18.8345 14.3563L18.6207 13.729H16.5411L16.3273 14.3563C16.248 14.5763 16.1664 14.7359 16.0826 14.8349C15.9988 14.934 15.8709 14.9835 15.6989 14.9835C15.5622 14.9835 15.4475 14.945 15.3549 14.868Z" fill="currentColor"/>
</svg>
