<svg viewBox="0 0 24 24" fill="currentColor" xmlns="http://www.w3.org/2000/svg">
<path d="M12 22C17.5228 22 22 17.5228 22 12C22 6.47715 17.5228 2 12 2C6.47715 2 2 6.47715 2 12C2 17.5228 6.47715 22 12 22ZM12 7.25C9.37665 7.25 7.25 9.37665 7.25 12C7.25 14.6234 9.37665 16.75 12 16.75C13.9089 16.75 15.5547 15.624 16.3097 14H18.9706C18.1025 17.0314 15.3103 19.25 12 19.25C7.99594 19.25 4.75 16.0041 4.75 12C4.75 7.99594 7.99594 4.75 12 4.75C15.3103 4.75 18.1025 6.9686 18.9706 10H16.3097C15.5547 8.37598 13.9089 7.25 12 7.25Z" fill="currentColor"/>
</svg>
