<svg viewBox="0 0 24 24" fill="currentColor" xmlns="http://www.w3.org/2000/svg">
<path d="M11.9375 15.75H11.2188V8.25H11.9375C14.0578 8.25 15.75 9.94353 15.75 12C15.75 14.0565 14.0578 15.75 11.9375 15.75Z" fill="currentColor"/>
<path d="M12 22C17.5228 22 22 17.5228 22 12C22 6.47715 17.5228 2 12 2C6.47715 2 2 6.47715 2 12C2 17.5228 6.47715 22 12 22ZM8 5.75H11.9375C15.4091 5.75 18.25 8.53363 18.25 12C18.25 15.4664 15.4091 18.25 11.9375 18.25H8C7.30964 18.25 6.75 17.6904 6.75 17C6.75 16.3096 7.30964 15.75 8 15.75H8.71875V8.25H8C7.30964 8.25 6.75 7.69036 6.75 7C6.75 6.30964 7.30964 5.75 8 5.75Z" fill="currentColor"/>
</svg>
