<svg viewBox="0 0 24 24" fill="currentColor" xmlns="http://www.w3.org/2000/svg">
<path d="M10.8849 8.99008C10.8849 10.0323 11.2396 10.5567 11.8132 10.5567C12.3906 10.5567 12.7377 10.0323 12.7377 8.99338C12.7377 7.95116 12.3868 7.44324 11.8132 7.44324C11.2396 7.44324 10.8849 7.95446 10.8849 8.99008Z" fill="currentColor"/>
<path d="M11.8132 16.5568C11.2396 16.5568 10.8849 16.0324 10.8849 14.9902C10.8849 13.9546 11.2396 13.4434 11.8132 13.4434C12.3868 13.4434 12.7377 13.9513 12.7377 14.9935C12.7377 16.0324 12.3906 16.5568 11.8132 16.5568Z" fill="currentColor"/>
<path d="M13.4569 2.80941C12.5509 2.30604 11.4491 2.30604 10.5431 2.80941L4.54307 6.14274C3.59068 6.67185 3 7.67571 3 8.76521V15.2348C3 16.3243 3.59068 17.3281 4.54307 17.8573L10.5431 21.1906C11.4491 21.694 12.5509 21.694 13.4569 21.1906L19.4569 17.8573C20.4093 17.3281 21 16.3243 21 15.2348V8.76521C21 7.67571 20.4093 6.67185 19.4569 6.14274L13.4569 2.80941ZM14.1453 8.99011C14.1453 10.5435 13.2547 11.5 11.8132 11.5C10.3717 11.5 9.47736 10.5501 9.47736 8.99341C9.47736 7.43008 10.383 6.5 11.8132 6.5C13.2472 6.5 14.1453 7.42678 14.1453 8.99011ZM8.39057 10.8602C8.39057 11.2229 8.11509 11.4571 7.70377 11.4571C7.29245 11.4571 7.01321 11.2229 7.01321 10.8602V7.69064H6.98679L6.30755 8.1029C6.18302 8.17876 6.1 8.20515 5.96792 8.20515C5.7 8.20515 5.5 8.03035 5.5 7.78628C5.5 7.61148 5.57925 7.47626 5.77547 7.35752L6.80566 6.74407C7.09623 6.57256 7.33019 6.54618 7.60189 6.54618C8.1 6.54618 8.39057 6.80673 8.39057 7.2223V10.8602ZM16.8132 11.4571C16.4019 11.4571 16.1226 11.2229 16.1226 10.8602V7.69064H16.0962L15.417 8.1029C15.2925 8.17876 15.2094 8.20515 15.0774 8.20515C14.8094 8.20515 14.6094 8.03035 14.6094 7.78628C14.6094 7.61148 14.6887 7.47626 14.8849 7.35752L15.9151 6.74407C16.2057 6.57256 16.4396 6.54618 16.7113 6.54618C17.2094 6.54618 17.5 6.80673 17.5 7.2223V10.8602C17.5 11.2229 17.2245 11.4571 16.8132 11.4571ZM8.39057 16.8601C8.39057 17.2229 8.11509 17.4571 7.70377 17.4571C7.29245 17.4571 7.01321 17.2229 7.01321 16.8601V13.6906H6.98679L6.30755 14.1029C6.18302 14.1788 6.1 14.2051 5.96792 14.2051C5.7 14.2051 5.5 14.0303 5.5 13.7863C5.5 13.6115 5.57925 13.4762 5.77547 13.3575L6.80566 12.7441C7.09623 12.5726 7.33019 12.5462 7.60189 12.5462C8.1 12.5462 8.39057 12.8067 8.39057 13.2223V16.8601ZM11.8132 17.5C10.3717 17.5 9.47736 16.5501 9.47736 14.9934C9.47736 13.4301 10.383 12.5 11.8132 12.5C13.2472 12.5 14.1453 13.4268 14.1453 14.9901C14.1453 16.5435 13.2547 17.5 11.8132 17.5ZM17.5 16.8601C17.5 17.2229 17.2245 17.4571 16.8132 17.4571C16.4019 17.4571 16.1226 17.2229 16.1226 16.8601V13.6906H16.0962L15.417 14.1029C15.2925 14.1788 15.2094 14.2051 15.0774 14.2051C14.8094 14.2051 14.6094 14.0303 14.6094 13.7863C14.6094 13.6115 14.6887 13.4762 14.8849 13.3575L15.9151 12.7441C16.2057 12.5726 16.4396 12.5462 16.7113 12.5462C17.2094 12.5462 17.5 12.8067 17.5 13.2223V16.8601Z" fill="currentColor"/>
</svg>
