<svg viewBox="0 0 24 24" fill="currentColor" xmlns="http://www.w3.org/2000/svg">
<path d="M12.75 2.75C12.75 2.33579 12.4142 2 12 2C11.5858 2 11.25 2.33579 11.25 2.75V5.78942C11.25 6.20363 11.5858 6.53942 12 6.53942C12.4142 6.53942 12.75 6.20363 12.75 5.78942V2.75Z" fill="currentColor"/>
<path d="M21.1113 13.3534C21.8633 14.2678 21.8633 15.5475 21.1113 16.462C19.3948 18.5494 15.9587 21.9997 11.9999 21.9997C8.04105 21.9997 4.60502 18.5494 2.88846 16.462C2.1365 15.5476 2.1365 14.2678 2.88846 13.3534C4.60502 11.266 8.04105 7.81567 11.9999 7.81567C15.9587 7.81567 19.3948 11.266 21.1113 13.3534ZM14.5823 14.7711C14.849 14.6363 14.9387 14.2992 14.7742 14.0497L12.4173 10.4751C12.2197 10.1754 11.7801 10.1754 11.5825 10.4751L9.22562 14.0497C9.06113 14.2992 9.15077 14.6363 9.41747 14.7711L11.7743 15.9626C11.9162 16.0343 12.0836 16.0343 12.2255 15.9626L14.5823 14.7711ZM12.0783 19.8743L14.8011 16.4329C14.8676 16.3489 14.7732 16.2333 14.6776 16.2816L12.045 17.6125C12.0167 17.6269 11.9832 17.6269 11.9548 17.6125L9.32223 16.2816C9.22659 16.2333 9.13219 16.3489 9.19869 16.4329L11.9215 19.8743C11.9615 19.9249 12.0383 19.9249 12.0783 19.8743Z" fill="currentColor"/>
<path d="M2.21664 5.26289C2.50743 4.96792 2.9823 4.96453 3.27727 5.25533L5.33166 7.28065C5.62663 7.57145 5.63002 8.04631 5.33922 8.34128C5.04842 8.63626 4.57356 8.63964 4.27859 8.34884L2.2242 6.32352C1.92922 6.03273 1.92584 5.55786 2.21664 5.26289Z" fill="currentColor"/>
<path d="M20.7227 5.25533C21.0177 4.96453 21.4925 4.96792 21.7833 5.26289C22.0741 5.55786 22.0708 6.03273 21.7758 6.32352L19.7214 8.34884C19.4264 8.63964 18.9516 8.63626 18.6608 8.34128C18.37 8.04631 18.3733 7.57145 18.6683 7.28065L20.7227 5.25533Z" fill="currentColor"/>
</svg>
