<svg viewBox="0 0 24 24" fill="currentColor" xmlns="http://www.w3.org/2000/svg">
<path d="M1.6648 16C2.08338 16 2.3255 15.7081 2.3255 15.1997V11.655H2.35833L3.67152 15.3927C3.77821 15.7128 3.96698 15.8588 4.25424 15.8588C4.5415 15.8588 4.71796 15.7128 4.82876 15.3927L6.14605 11.655H6.17478V15.1997C6.17478 15.7081 6.4169 16 6.83548 16C7.25816 16 7.50028 15.7081 7.50028 15.1997V10.1204C7.50028 9.40484 7.14736 9 6.5277 9C5.99832 9 5.71517 9.24479 5.49767 9.8803L4.26655 13.4674H4.23373L2.99851 9.8803C2.78511 9.24479 2.50196 9 1.97668 9C1.35292 9 1 9.40955 1 10.1204V15.1997C1 15.7081 1.24212 16 1.6648 16Z" fill="currentColor"/>
<path d="M9.14998 15.8964H11.8625C12.2688 15.8964 12.5314 15.6422 12.5314 15.1997C12.5314 14.7572 12.2606 14.503 11.8625 14.503H9.90096V13.119H10.5716C10.9451 13.119 11.179 12.8837 11.179 12.4835C11.179 12.0834 10.9368 11.848 10.5716 11.848H9.90096V10.497H11.8625C12.2606 10.497 12.5314 10.2428 12.5314 9.80023C12.5314 9.35773 12.2688 9.10352 11.8625 9.10352H9.14998C8.67395 9.10352 8.3949 9.43304 8.3949 10.0074V14.9926C8.3949 15.5669 8.67395 15.8964 9.14998 15.8964Z" fill="currentColor"/>
<path d="M15.4287 16C15.9047 16 16.1796 15.6752 16.1796 15.1009V10.497H17.222C17.62 10.497 17.8909 10.2428 17.8909 9.80023C17.8909 9.35773 17.6282 9.10352 17.222 9.10352H13.6394C13.2291 9.10352 12.9664 9.35773 12.9664 9.80023C12.9664 10.2428 13.2373 10.497 13.6394 10.497H14.6777V15.1009C14.6777 15.6752 14.9526 16 15.4287 16Z" fill="currentColor"/>
<path d="M18.252 16C18.6542 16 18.8799 15.7646 19.0235 15.1903L19.2246 14.4654L19.5242 13.1614L20.1972 10.544H20.23L20.9235 13.1614L21.2518 14.4654L21.4529 15.2186C21.5842 15.774 21.8099 16 22.2449 16C22.684 16 23 15.6564 23 15.1715C23 14.9926 22.9713 14.8325 22.9015 14.6113L21.4283 10.0074C21.2026 9.30128 20.8414 9 20.2218 9C19.635 9 19.2697 9.3154 19.0522 10.0074L17.5913 14.6113C17.5256 14.8184 17.4846 15.0303 17.4846 15.1762C17.4846 15.6893 17.776 16 18.252 16Z" fill="currentColor"/>
</svg>
