<svg viewBox="0 0 24 24" fill="currentColor" xmlns="http://www.w3.org/2000/svg">
<path d="M2 11.3141C2.33352 6.69307 5.63433 2.92046 9.95201 2C9.93192 2.02099 9.91201 2.04222 9.89227 2.06366C9.32528 2.67957 8.84933 3.52935 8.46543 4.51534C7.76438 6.31583 7.32094 8.6981 7.2476 11.3141H2Z" fill="currentColor"/>
<path d="M2 12.8586C2.27303 16.6416 4.53464 19.8559 7.71477 21.4024C7.51762 20.8838 7.44863 20.3085 7.53903 19.7234L7.85501 17.6783C7.51012 16.2446 7.29652 14.6036 7.2476 12.8586H2Z" fill="currentColor"/>
<path d="M14.048 2C18.3657 2.92046 21.6665 6.69307 22 11.3141H16.7524C16.6791 8.6981 16.2356 6.31583 15.5346 4.51534C15.1507 3.52935 14.6747 2.67957 14.1077 2.06366C14.088 2.04222 14.0681 2.02099 14.048 2Z" fill="currentColor"/>
<path d="M14.138 5.08925C14.7562 6.67691 15.1745 8.85687 15.2476 11.3141H8.75241C8.82552 8.85687 9.24382 6.67691 9.862 5.08925C10.204 4.211 10.5923 3.55212 10.9851 3.12543C11.3764 2.70038 11.7196 2.55762 12 2.55762C12.2804 2.55762 12.6236 2.70038 13.0149 3.12543C13.4077 3.55212 13.796 4.211 14.138 5.08925Z" fill="currentColor"/>
<path d="M21.6284 19.9565L20.9822 15.774C20.8401 14.8546 20.7691 14.3949 20.5528 14.0451C20.3359 13.6944 20.0175 13.4194 19.6406 13.2572C19.2646 13.0955 18.8034 13.0955 17.8809 13.0955H12.7687C11.8462 13.0955 11.3849 13.0955 11.009 13.2572C10.6321 13.4194 10.3136 13.6944 10.0968 14.0451C9.88043 14.3949 9.80941 14.8546 9.66736 15.774L9.02114 19.9565C8.87967 20.8721 9.46204 21.7428 10.3567 21.9534C11.2935 22.1739 12.2317 21.5928 12.4605 20.6503L12.5945 20.0985C12.6582 19.8362 12.8913 19.6517 13.159 19.6517H17.4905C17.7583 19.6517 17.9913 19.8362 18.055 20.0985L18.189 20.6503C18.4178 21.5928 19.356 22.1739 20.2928 21.9534C21.1875 21.7428 21.7699 20.8721 21.6284 19.9565ZM17.9466 15.4095C17.9466 15.7746 17.6531 16.0706 17.2911 16.0706C16.9291 16.0706 16.6357 15.7746 16.6357 15.4095C16.6357 15.0443 16.9291 14.7483 17.2911 14.7483C17.6531 14.7483 17.9466 15.0443 17.9466 15.4095ZM19.2575 17.0623C19.2575 17.4274 18.964 17.7234 18.602 17.7234C18.24 17.7234 17.9466 17.4274 17.9466 17.0623C17.9466 16.6972 18.24 16.4012 18.602 16.4012C18.964 16.4012 19.2575 16.6972 19.2575 17.0623ZM13.5223 15.4095V15.9053H14.0139C14.2854 15.9053 14.5055 16.1273 14.5055 16.4012C14.5055 16.675 14.2854 16.897 14.0139 16.897H13.5223V17.3929C13.5223 17.6667 13.3022 17.8887 13.0307 17.8887C12.7592 17.8887 12.5391 17.6667 12.5391 17.3929V16.897H12.0475C11.776 16.897 11.5559 16.675 11.5559 16.4012C11.5559 16.1273 11.776 15.9053 12.0475 15.9053H12.5391V15.4095C12.5391 15.1356 12.7592 14.9136 13.0307 14.9136C13.3022 14.9136 13.5223 15.1356 13.5223 15.4095Z" fill="currentColor"/>
</svg>
