<svg viewBox="0 0 24 24" fill="currentColor" xmlns="http://www.w3.org/2000/svg">
<path d="M10.0627 5.08015C9.71617 5.02737 9.36128 5 9 5C5.13401 5 2 8.13401 2 12C2 15.866 5.13401 19 9 19C9.36128 19 9.71617 18.9726 10.0627 18.9198C8.09691 17.5148 6.75494 15.2929 6.53263 12.75H4C3.58579 12.75 3.25 12.4142 3.25 12C3.25 11.5858 3.58579 11.25 4 11.25H6.53263C6.75494 8.70715 8.09691 6.48525 10.0627 5.08015Z" fill="currentColor"/>
<path d="M22 12C22 15.866 18.866 19 15 19C11.134 19 8 15.866 8 12C8 8.13401 11.134 5 15 5C18.866 5 22 8.13401 22 12ZM14.5303 7.46967C14.2374 7.17678 13.7626 7.17678 13.4697 7.46967C13.1768 7.76256 13.1768 8.23744 13.4697 8.53033L16.1893 11.25H11C10.5858 11.25 10.25 11.5858 10.25 12C10.25 12.4142 10.5858 12.75 11 12.75H16.1893L13.4697 15.4697C13.1768 15.7626 13.1768 16.2374 13.4697 16.5303C13.7626 16.8232 14.2374 16.8232 14.5303 16.5303L18.5303 12.5303C18.8232 12.2374 18.8232 11.7626 18.5303 11.4697L14.5303 7.46967Z" fill="currentColor"/>
</svg>
