<svg viewBox="0 0 24 24" fill="currentColor" xmlns="http://www.w3.org/2000/svg">
<path d="M8.53033 1.46967C8.23744 1.17678 7.76256 1.17678 7.46967 1.46967L2.46967 6.46967C2.17678 6.76256 2.17678 7.23744 2.46967 7.53033C2.76256 7.82322 3.23744 7.82322 3.53033 7.53033L7.25 3.81066V14C7.25 14.4142 7.58579 14.75 8 14.75C8.41421 14.75 8.75 14.4142 8.75 14V3.81066L12.4697 7.53033C12.7626 7.82322 13.2374 7.82322 13.5303 7.53033C13.8232 7.23744 13.8232 6.76256 13.5303 6.46967L8.53033 1.46967Z" fill="currentColor"/>
<path d="M11.4697 17.5303L16.4697 22.5303C16.7626 22.8232 17.2374 22.8232 17.5303 22.5303L22.5303 17.5303C22.8232 17.2374 22.8232 16.7626 22.5303 16.4697C22.2374 16.1768 21.7626 16.1768 21.4697 16.4697L17.75 20.1893V10C17.75 9.58579 17.4142 9.25 17 9.25C16.5858 9.25 16.25 9.58579 16.25 10V20.1893L12.5303 16.4697C12.2374 16.1768 11.7626 16.1768 11.4697 16.4697C11.1768 16.7626 11.1768 17.2374 11.4697 17.5303Z" fill="currentColor"/>
</svg>
