<svg viewBox="0 0 24 24" fill="currentColor" xmlns="http://www.w3.org/2000/svg">
<path d="M10 4.85321L6.77639 5.43932C6.18203 5.54738 5.75 6.06505 5.75 6.66915V11.25H22C22.4142 11.25 22.75 11.5858 22.75 12C22.75 12.4142 22.4142 12.75 22 12.75H21.9685C21.9891 12.8299 22 12.9137 22 13V18C22 19.1046 21.1046 20 20 20H18.1239L18.7115 21.7628C18.8425 22.1558 18.6301 22.5805 18.2372 22.7115C17.8442 22.8425 17.4195 22.6301 17.2885 22.2372L16.5428 20H7.45724L6.71151 22.2372C6.58053 22.6301 6.15579 22.8425 5.76283 22.7115C5.36987 22.5805 5.1575 22.1558 5.28849 21.7628L5.8761 20H4C2.89543 20 2 19.1046 2 18V13C2 12.9137 2.01094 12.8299 2.0315 12.75H2C1.58579 12.75 1.25 12.4142 1.25 12C1.25 11.5858 1.58579 11.25 2 11.25H4.25V6.66915C4.25 5.34012 5.20047 4.20126 6.50806 3.96351L10.1236 3.30613C10.4057 2.54358 11.1394 2 12 2C13.1046 2 14 2.89543 14 4V5C14 5.55228 13.5523 6 13 6H11C10.4477 6 10 5.55228 10 5V4.85321Z" fill="currentColor"/>
</svg>
