<svg viewBox="0 0 24 24" fill="currentColor" xmlns="http://www.w3.org/2000/svg">
<path d="M2 4C2 3.44772 2.44772 3 3 3C3.55228 3 4 3.44772 4 4V11H10V8C10 7.44772 10.4477 7 11 7H18C19.1046 7 20 7.89543 20 9V11C21.1046 11 22 11.8954 22 13V20C22 20.5523 21.5523 21 21 21C20.4477 21 20 20.5523 20 20V19H4V20C4 20.5523 3.55228 21 3 21C2.44772 21 2 20.5523 2 20V4Z" fill="currentColor"/>
<path d="M9 8C9 9.10457 8.10457 10 7 10C5.89543 10 5 9.10457 5 8C5 6.89543 5.89543 6 7 6C8.10457 6 9 6.89543 9 8Z" fill="currentColor"/>
</svg>
