<svg viewBox="0 0 24 24" fill="currentColor" xmlns="http://www.w3.org/2000/svg">
<path d="M3 3C2.44772 3 2 3.44772 2 4V20C2 20.5523 2.44772 21 3 21C3.55228 21 4 20.5523 4 20V16H5V18C5 18.5523 5.44772 19 6 19H18C18.5523 19 19 18.5523 19 18V16H20V20C20 20.5523 20.4477 21 21 21C21.5523 21 22 20.5523 22 20V13C22 12.4477 21.5523 12 21 12C20.4477 12 20 12.4477 20 13V14H19V10C19 8.89543 18.1046 8 17 8H11C10.4477 8 10 8.44771 10 9V12H6C5.44772 12 5 12.4477 5 13V14H4V4C4 3.44772 3.55228 3 3 3Z" fill="currentColor"/>
<path d="M9 9C9 10.1046 8.10457 11 7 11C5.89543 11 5 10.1046 5 9C5 7.89543 5.89543 7 7 7C8.10457 7 9 7.89543 9 9Z" fill="currentColor"/>
</svg>
