<svg viewBox="0 0 24 24" fill="currentColor" xmlns="http://www.w3.org/2000/svg">
<path d="M6 2C4.89543 2 4 2.89543 4 4V8.64494C4.31685 8.55064 4.65251 8.5 5 8.5H6V5C6 4.44772 6.44772 4 7 4H17C17.5523 4 18 4.44772 18 5V8.5H19C19.3475 8.5 19.6831 8.55064 20 8.64494V4C20 2.89543 19.1046 2 18 2H6Z" fill="currentColor"/>
<path d="M3 12C3 10.8954 3.89543 10 5 10H19C20.1046 10 21 10.8954 21 12C21.5523 12 22 12.4477 22 13V19C22 19.5523 21.5523 20 21 20V21C21 21.5523 20.5523 22 20 22H19C18.4477 22 18 21.5523 18 21V20H6V21C6 21.5523 5.55228 22 5 22H4C3.44772 22 3 21.5523 3 21V20C2.44772 20 2 19.5523 2 19V13C2 12.4477 2.44772 12 3 12Z" fill="currentColor"/>
</svg>
