<svg viewBox="0 0 24 24" fill="currentColor" xmlns="http://www.w3.org/2000/svg">
<path d="M6 2C4.89543 2 4 2.89543 4 4V8.64494C4.31685 8.55064 4.65251 8.5 5 8.5H6V5C6 4.44772 6.44772 4 7 4H11V8.5H13V4H17C17.5523 4 18 4.44772 18 5V8.5H19C19.3475 8.5 19.6831 8.55064 20 8.64494V4C20 2.89543 19.1046 2 18 2H6Z" fill="currentColor"/>
<path d="M5 10C3.89543 10 3 10.8954 3 12C2.44772 12 2 12.4477 2 13V19C2 19.5523 2.44772 20 3 20V21C3 21.5523 3.44772 22 4 22H5C5.55228 22 6 21.5523 6 21V20H18V21C18 21.5523 18.4477 22 19 22H20C20.5523 22 21 21.5523 21 21V20C21.5523 20 22 19.5523 22 19V13C22 12.4477 21.5523 12 21 12C21 10.8954 20.1046 10 19 10H5Z" fill="currentColor"/>
</svg>
