<svg viewBox="0 0 24 24" fill="currentColor" xmlns="http://www.w3.org/2000/svg">
<path d="M5 2C3.34315 2 2 3.34315 2 5V7.25H4.29962L3.64586 4.81011C3.57439 4.54338 3.73268 4.26921 3.99941 4.19774L4.96534 3.93892C5.23207 3.86745 5.50624 4.02574 5.57771 4.29247L6.35417 7.19025C6.3595 7.21016 6.36355 7.2301 6.36638 7.25H7.29962L6.64586 4.81011C6.57439 4.54338 6.73268 4.26921 6.99941 4.19774L7.96534 3.93892C8.23207 3.86745 8.50624 4.02574 8.57771 4.29247L9.35417 7.19025C9.3595 7.21016 9.36355 7.2301 9.36638 7.25H10.2996L9.64586 4.81011C9.57439 4.54338 9.73268 4.26921 9.99941 4.19774L10.9653 3.93892C11.2321 3.86745 11.5062 4.02574 11.5777 4.29247L12.3542 7.19025C12.3595 7.21016 12.3636 7.2301 12.3664 7.25H22V5C22 3.34315 20.6569 2 19 2H5Z" fill="currentColor"/>
<path d="M22 8.75H2V13.25H12.6336C12.6365 13.2301 12.6405 13.2102 12.6458 13.1903L13.4223 10.2925C13.4938 10.0258 13.7679 9.86751 14.0347 9.93898L15.0006 10.1978C15.2673 10.2693 15.4256 10.5434 15.3541 10.8102L14.7004 13.25H15.6336C15.6365 13.2301 15.6405 13.2102 15.6458 13.1903L16.4223 10.2925C16.4938 10.0258 16.7679 9.86751 17.0347 9.93898L18.0006 10.1978C18.2673 10.2693 18.4256 10.5434 18.3541 10.8102L17.7004 13.25H18.6334C18.6363 13.2301 18.6403 13.2102 18.6456 13.1903L19.4221 10.2925C19.4936 10.0258 19.7677 9.86751 20.0345 9.93898L21.0004 10.1978C21.2671 10.2693 21.4254 10.5434 21.354 10.8102L20.7002 13.25H22V8.75Z" fill="currentColor"/>
<path d="M11.25 14.75H2V19C2 20.6569 3.34315 22 5 22H11.25V14.75ZM7 16.25H9C9.41421 16.25 9.75 16.5858 9.75 17C9.75 17.4142 9.41421 17.75 9 17.75H7C6.58579 17.75 6.25 17.4142 6.25 17C6.25 16.5858 6.58579 16.25 7 16.25Z" fill="currentColor"/>
<path d="M12.75 22V14.75H22V19C22 20.6569 20.6569 22 19 22H12.75ZM14.25 17C14.25 17.4142 14.5858 17.75 15 17.75H17C17.4142 17.75 17.75 17.4142 17.75 17C17.75 16.5858 17.4142 16.25 17 16.25H15C14.5858 16.25 14.25 16.5858 14.25 17Z" fill="currentColor"/>
</svg>
