<svg viewBox="0 0 24 24" fill="currentColor" xmlns="http://www.w3.org/2000/svg">
<path d="M1.25 2C1.25 1.58579 1.58579 1.25 2 1.25H22C22.4142 1.25 22.75 1.58579 22.75 2C22.75 2.41421 22.4142 2.75 22 2.75H21V10.25H3V2.75H2C1.58579 2.75 1.25 2.41421 1.25 2ZM10.25 7C10.25 7.41421 10.5858 7.75 11 7.75H13C13.4142 7.75 13.75 7.41421 13.75 7C13.75 6.58579 13.4142 6.25 13 6.25H11C10.5858 6.25 10.25 6.58579 10.25 7Z" fill="currentColor"/>
<path d="M3 11.75V18C3 19.1046 3.89543 20 5 20H5.25V22C5.25 22.4142 5.58579 22.75 6 22.75C6.41421 22.75 6.75 22.4142 6.75 22V20H17.25V22C17.25 22.4142 17.5858 22.75 18 22.75C18.4142 22.75 18.75 22.4142 18.75 22V20H19C20.1046 20 21 19.1046 21 18V11.75H3ZM11 14.25H13C13.4142 14.25 13.75 14.5858 13.75 15C13.75 15.4142 13.4142 15.75 13 15.75H11C10.5858 15.75 10.25 15.4142 10.25 15C10.25 14.5858 10.5858 14.25 11 14.25Z" fill="currentColor"/>
</svg>
