<svg viewBox="0 0 24 24" fill="currentColor" xmlns="http://www.w3.org/2000/svg">
<path d="M9 2H15C16.6569 2 18 3.34315 18 5V12.6449C17.6831 12.5506 17.3475 12.5 17 12.5H7C6.65251 12.5 6.31685 12.5506 6 12.6449V5C6 3.34315 7.34315 2 9 2ZM10 5.25C9.58579 5.25 9.25 5.58579 9.25 6C9.25 6.41421 9.58579 6.75 10 6.75H14C14.4142 6.75 14.75 6.41421 14.75 6C14.75 5.58579 14.4142 5.25 14 5.25H10Z" fill="currentColor"/>
<path d="M5 16C5 14.8954 5.89543 14 7 14H17C18.1046 14 19 14.8954 19 16V22C19 22.4142 18.6642 22.75 18.25 22.75C17.8358 22.75 17.5 22.4142 17.5 22V19H15.75V21C15.75 21.4142 15.4142 21.75 15 21.75C14.5858 21.75 14.25 21.4142 14.25 21V19H9.75V21C9.75 21.4142 9.41421 21.75 9 21.75C8.58579 21.75 8.25 21.4142 8.25 21V19H6.5V22C6.5 22.4142 6.16421 22.75 5.75 22.75C5.33579 22.75 5 22.4142 5 22V16Z" fill="currentColor"/>
</svg>
