<svg viewBox="0 0 24 24" fill="currentColor" xmlns="http://www.w3.org/2000/svg">
<path d="M4 3C2.89543 3 2 3.89543 2 5V7.25H22V5C22 3.89543 21.1046 3 20 3H4Z" fill="currentColor"/>
<path d="M11.25 8.75H2V12.25H11.25V8.75Z" fill="currentColor"/>
<path d="M12.75 8.75V12.25H22V8.75H12.75Z" fill="currentColor"/>
<path d="M11.25 13.75V21H5.75V22C5.75 22.4142 5.41421 22.75 5 22.75C4.58579 22.75 4.25 22.4142 4.25 22V21H4C2.89543 21 2 20.1046 2 19V13.75H11.25ZM9.75 16C9.75 15.5858 9.41421 15.25 9 15.25C8.58579 15.25 8.25 15.5858 8.25 16V18C8.25 18.4142 8.58579 18.75 9 18.75C9.41421 18.75 9.75 18.4142 9.75 18V16Z" fill="currentColor"/>
<path d="M12.75 13.75H22V19C22 20.1046 21.1046 21 20 21H19.75V22C19.75 22.4142 19.4142 22.75 19 22.75C18.5858 22.75 18.25 22.4142 18.25 22V21H12.75V13.75ZM15.75 16C15.75 15.5858 15.4142 15.25 15 15.25C14.5858 15.25 14.25 15.5858 14.25 16V18C14.25 18.4142 14.5858 18.75 15 18.75C15.4142 18.75 15.75 18.4142 15.75 18V16Z" fill="currentColor"/>
</svg>
