<svg viewBox="0 0 24 24" fill="currentColor" xmlns="http://www.w3.org/2000/svg">
<path d="M3 2C2.44772 2 2 2.44772 2 3V7C2 7.55228 2.44772 8 3 8C2.44772 8 2 8.44772 2 9V13C2 13.5523 2.44772 14 3 14C2.44772 14 2 14.4477 2 15V19C2 19.5523 2.44772 20 3 20H4.25V22C4.25 22.4142 4.58579 22.75 5 22.75C5.41421 22.75 5.75 22.4142 5.75 22V20H8C8.55228 20 9 19.5523 9 19C9 19.5523 9.44772 20 10 20H14C14.5523 20 15 19.5523 15 19C15 19.5523 15.4477 20 16 20H18.25V22C18.25 22.4142 18.5858 22.75 19 22.75C19.4142 22.75 19.75 22.4142 19.75 22V20H21C21.5523 20 22 19.5523 22 19V15C22 14.4477 21.5523 14 21 14C21.5523 14 22 13.5523 22 13V9C22 8.44772 21.5523 8 21 8C21.5523 8 22 7.55228 22 7V3C22 2.44772 21.5523 2 21 2H3ZM14 14H16C15.4477 14 15 14.4477 15 15C15 14.4477 14.5523 14 14 14ZM9 15C9 14.4477 8.55229 14 8 14H10C9.44772 14 9 14.4477 9 15ZM9.25 11C9.25 10.5858 9.58579 10.25 10 10.25H14C14.4142 10.25 14.75 10.5858 14.75 11C14.75 11.4142 14.4142 11.75 14 11.75H10C9.58579 11.75 9.25 11.4142 9.25 11ZM10 4.25H14C14.4142 4.25 14.75 4.58579 14.75 5C14.75 5.41421 14.4142 5.75 14 5.75H10C9.58579 5.75 9.25 5.41421 9.25 5C9.25 4.58579 9.58579 4.25 10 4.25Z" fill="currentColor"/>
</svg>
