<svg viewBox="0 0 24 24" fill="currentColor" xmlns="http://www.w3.org/2000/svg">
<path d="M4 3H11.25V13.25H2V5C2 3.89543 2.89543 3 4 3ZM9.75 7C9.75 6.58579 9.41421 6.25 9 6.25C8.58579 6.25 8.25 6.58579 8.25 7V9C8.25 9.41421 8.58579 9.75 9 9.75C9.41421 9.75 9.75 9.41421 9.75 9V7Z" fill="currentColor"/>
<path d="M12.75 21H17.25V22C17.25 22.4142 17.5858 22.75 18 22.75C18.4142 22.75 18.75 22.4142 18.75 22V21H20C21.1046 21 22 20.1046 22 19V10.75H12.75V21ZM15 14.25C15.4142 14.25 15.75 14.5858 15.75 15V17C15.75 17.4142 15.4142 17.75 15 17.75C14.5858 17.75 14.25 17.4142 14.25 17V15C14.25 14.5858 14.5858 14.25 15 14.25Z" fill="currentColor"/>
<path d="M22 9.25V5C22 3.89543 21.1046 3 20 3H12.75V9.25H22ZM15.25 7C15.25 6.58579 15.5858 6.25 16 6.25H18C18.4142 6.25 18.75 6.58579 18.75 7C18.75 7.41421 18.4142 7.75 18 7.75H16C15.5858 7.75 15.25 7.41421 15.25 7Z" fill="currentColor"/>
<path d="M2 14.75V19C2 20.1046 2.89543 21 4 21H5.25V22C5.25 22.4142 5.58579 22.75 6 22.75C6.41421 22.75 6.75 22.4142 6.75 22V21H11.25V14.75H2ZM5.25 17C5.25 16.5858 5.58579 16.25 6 16.25H8C8.41421 16.25 8.75 16.5858 8.75 17C8.75 17.4142 8.41421 17.75 8 17.75H6C5.58579 17.75 5.25 17.4142 5.25 17Z" fill="currentColor"/>
</svg>
