<svg viewBox="0 0 24 24" fill="currentColor" xmlns="http://www.w3.org/2000/svg">
<path d="M4 3C2.89543 3 2 3.89543 2 5V19C2 20.1046 2.89543 21 4 21H4.25V22C4.25 22.4142 4.58579 22.75 5 22.75C5.41421 22.75 5.75 22.4142 5.75 22V21H7.25V3H4ZM5 10.25C5.41421 10.25 5.75 10.5858 5.75 11V13C5.75 13.4142 5.41421 13.75 5 13.75C4.58579 13.75 4.25 13.4142 4.25 13V11C4.25 10.5858 4.58579 10.25 5 10.25Z" fill="currentColor"/>
<path d="M8.75 3H14.25V21H8.75V3ZM11 10.25C10.5858 10.25 10.25 10.5858 10.25 11V13C10.25 13.4142 10.5858 13.75 11 13.75C11.4142 13.75 11.75 13.4142 11.75 13V11C11.75 10.5858 11.4142 10.25 11 10.25Z" fill="currentColor"/>
<path d="M15.75 21V15.75H22V19C22 20.1046 21.1046 21 20 21H19.75V22C19.75 22.4142 19.4142 22.75 19 22.75C18.5858 22.75 18.25 22.4142 18.25 22V21H15.75Z" fill="currentColor"/>
<path d="M22 14.25H15.75V9.75H22V14.25Z" fill="currentColor"/>
<path d="M22 8.25H15.75V3H20C21.1046 3 22 3.89543 22 5V8.25Z" fill="currentColor"/>
</svg>
