<svg viewBox="0 0 24 24" fill="currentColor" xmlns="http://www.w3.org/2000/svg">
<path d="M11.25 17.75V22H5C3.89543 22 3 21.1046 3 20V17.75H11.25Z" fill="currentColor"/>
<path d="M12.75 17.75V22H19C20.1046 22 21 21.1046 21 20V17.75H12.75Z" fill="currentColor"/>
<path d="M21 16.25H12.75V12.75H21V16.25Z" fill="currentColor"/>
<path d="M11.25 16.25H3V12.75H11.25V16.25Z" fill="currentColor"/>
<path d="M12.75 2H19C20.1046 2 21 2.89543 21 4V11.25H12.75V2ZM16.75 6C16.75 5.58579 16.4142 5.25 16 5.25C15.5858 5.25 15.25 5.58579 15.25 6V8C15.25 8.41421 15.5858 8.75 16 8.75C16.4142 8.75 16.75 8.41421 16.75 8V6Z" fill="currentColor"/>
<path d="M11.25 2H5C3.89543 2 3 2.89543 3 4V11.25H11.25V2ZM8 5.25C8.41421 5.25 8.75 5.58579 8.75 6V8C8.75 8.41421 8.41421 8.75 8 8.75C7.58579 8.75 7.25 8.41421 7.25 8V6C7.25 5.58579 7.58579 5.25 8 5.25Z" fill="currentColor"/>
</svg>
