<svg viewBox="0 0 24 24" fill="currentColor" xmlns="http://www.w3.org/2000/svg">
<path d="M11.25 2V7.25H3V4C3 2.89543 3.89543 2 5 2H11.25ZM6.5 4.25C6.08579 4.25 5.75 4.58579 5.75 5C5.75 5.41421 6.08579 5.75 6.5 5.75H8.5C8.91421 5.75 9.25 5.41421 9.25 5C9.25 4.58579 8.91421 4.25 8.5 4.25H6.5Z" fill="currentColor"/>
<path d="M12.75 8.75H21V13.25H12.75V8.75ZM15.5 10.25C15.0858 10.25 14.75 10.5858 14.75 11C14.75 11.4142 15.0858 11.75 15.5 11.75H17.5C17.9142 11.75 18.25 11.4142 18.25 11C18.25 10.5858 17.9142 10.25 17.5 10.25H15.5Z" fill="currentColor"/>
<path d="M11.25 14.75H3V18C3 19.1046 3.89543 20 5 20H5.25V22C5.25 22.4142 5.58579 22.75 6 22.75C6.41421 22.75 6.75 22.4142 6.75 22V20H11.25V14.75ZM5.75 17C5.75 16.5858 6.08579 16.25 6.5 16.25H8.5C8.91421 16.25 9.25 16.5858 9.25 17C9.25 17.4142 8.91421 17.75 8.5 17.75H6.5C6.08579 17.75 5.75 17.4142 5.75 17Z" fill="currentColor"/>
<path d="M12.75 20H17.25V22C17.25 22.4142 17.5858 22.75 18 22.75C18.4142 22.75 18.75 22.4142 18.75 22V20H19C20.1046 20 21 19.1046 21 18V14.75H12.75V20ZM14.75 17C14.75 16.5858 15.0858 16.25 15.5 16.25H17.5C17.9142 16.25 18.25 16.5858 18.25 17C18.25 17.4142 17.9142 17.75 17.5 17.75H15.5C15.0858 17.75 14.75 17.4142 14.75 17Z" fill="currentColor"/>
<path d="M12.75 7.25V2H19C20.1046 2 21 2.89543 21 4V7.25H12.75ZM15.5 4.25C15.0858 4.25 14.75 4.58579 14.75 5C14.75 5.41421 15.0858 5.75 15.5 5.75H17.5C17.9142 5.75 18.25 5.41421 18.25 5C18.25 4.58579 17.9142 4.25 17.5 4.25H15.5Z" fill="currentColor"/>
<path d="M11.25 13.25H3V8.75H11.25V13.25ZM6.5 10.25C6.08579 10.25 5.75 10.5858 5.75 11C5.75 11.4142 6.08579 11.75 6.5 11.75H8.5C8.91421 11.75 9.25 11.4142 9.25 11C9.25 10.5858 8.91421 10.25 8.5 10.25H6.5Z" fill="currentColor"/>
</svg>
