<svg viewBox="0 0 24 24" fill="currentColor" xmlns="http://www.w3.org/2000/svg">
<path d="M5.75 12C5.75 8.54822 8.54822 5.75 12 5.75C15.4518 5.75 18.25 8.54822 18.25 12C18.25 13.1914 17.9173 14.3034 17.3397 15.25H14.9055C14.5725 13.9561 13.3979 13 12 13C10.6021 13 9.42755 13.9561 9.09451 15.25H6.66027C6.0827 14.3034 5.75 13.1914 5.75 12ZM12 7.25C11.5858 7.25 11.25 7.58579 11.25 8V11C11.25 11.4142 11.5858 11.75 12 11.75C12.4142 11.75 12.75 11.4142 12.75 11V8C12.75 7.58579 12.4142 7.25 12 7.25Z" fill="currentColor"/>
<path d="M21 12C21 7.02944 16.9706 3 12 3C7.02944 3 3 7.02944 3 12C3 13.5371 3.38534 14.9842 4.06469 16.25H3C2.58579 16.25 2.25 16.5858 2.25 17C2.25 17.4142 2.58579 17.75 3 17.75H5.07601C5.09315 17.7706 5.11038 17.7912 5.12771 17.8116L3.46967 19.4697C3.17678 19.7626 3.17678 20.2374 3.46967 20.5303C3.76256 20.8232 4.23744 20.8232 4.53033 20.5303L6.18837 18.8723C6.20883 18.8896 6.22938 18.9069 6.25 18.924V21C6.25 21.4142 6.58579 21.75 7 21.75C7.41421 21.75 7.75 21.4142 7.75 21V19.9353C9.01578 20.6147 10.4629 21 12 21C13.5371 21 14.9842 20.6147 16.25 19.9353V21C16.25 21.4142 16.5858 21.75 17 21.75C17.4142 21.75 17.75 21.4142 17.75 21V18.924C17.7706 18.9069 17.7912 18.8896 17.8116 18.8723L19.4697 20.5303C19.7626 20.8232 20.2374 20.8232 20.5303 20.5303C20.8232 20.2374 20.8232 19.7626 20.5303 19.4697L18.8723 17.8116C18.8896 17.7912 18.9069 17.7706 18.924 17.75H21C21.4142 17.75 21.75 17.4142 21.75 17C21.75 16.5858 21.4142 16.25 21 16.25H19.9353C20.6147 14.9842 21 13.5371 21 12ZM9.09451 16.75H6.25469C6.00951 16.75 5.77982 16.6302 5.63955 16.4291C4.76373 15.1735 4.25 13.6456 4.25 12C4.25 7.71979 7.71979 4.25 12 4.25C16.2802 4.25 19.75 7.71979 19.75 12C19.75 13.6456 19.2363 15.1735 18.3605 16.4291C18.2202 16.6302 17.9905 16.75 17.7453 16.75H14.9055C14.5725 18.0439 13.3979 19 12 19C10.6021 19 9.42755 18.0439 9.09451 16.75Z" fill="currentColor"/>
</svg>
