<svg viewBox="0 0 24 24" fill="currentColor" xmlns="http://www.w3.org/2000/svg">
<path d="M8.25 3H4C2.89543 3 2 3.89543 2 5V8.25H8.25V3Z" fill="currentColor"/>
<path d="M2 14.25V9.75H8.25V14.25H2Z" fill="currentColor"/>
<path d="M2 15.75V19C2 20.1046 2.89543 21 4 21H8.25V15.75H2Z" fill="currentColor"/>
<path d="M9.75 21H15.25V3H9.75V21ZM12.25 11C12.25 10.5858 12.5858 10.25 13 10.25C13.4142 10.25 13.75 10.5858 13.75 11V13C13.75 13.4142 13.4142 13.75 13 13.75C12.5858 13.75 12.25 13.4142 12.25 13V11Z" fill="currentColor"/>
<path d="M20 21H16.75V3H20C21.1046 3 22 3.89543 22 5V19C22 20.1046 21.1046 21 20 21ZM19 10.25C18.5858 10.25 18.25 10.5858 18.25 11V13C18.25 13.4142 18.5858 13.75 19 13.75C19.4142 13.75 19.75 13.4142 19.75 13V11C19.75 10.5858 19.4142 10.25 19 10.25Z" fill="currentColor"/>
</svg>
