<svg viewBox="0 0 24 24" fill="currentColor" xmlns="http://www.w3.org/2000/svg">
<path d="M11.25 3H4C2.89543 3 2 3.89543 2 5V19C2 20.1046 2.89543 21 4 21H11.25V3ZM9 10.25C9.41421 10.25 9.75 10.5858 9.75 11V13C9.75 13.4142 9.41421 13.75 9 13.75C8.58579 13.75 8.25 13.4142 8.25 13V11C8.25 10.5858 8.58579 10.25 9 10.25Z" fill="currentColor"/>
<path d="M12.75 21V3H20C21.1046 3 22 3.89543 22 5V19C22 20.1046 21.1046 21 20 21H12.75ZM15.75 11C15.75 10.5858 15.4142 10.25 15 10.25C14.5858 10.25 14.25 10.5858 14.25 11V13C14.25 13.4142 14.5858 13.75 15 13.75C15.4142 13.75 15.75 13.4142 15.75 13V11Z" fill="currentColor"/>
</svg>
