<svg viewBox="0 0 24 24" fill="currentColor" xmlns="http://www.w3.org/2000/svg">
<path d="M3 4C3 2.89543 3.89543 2 5 2H11.25V8.25H10C9.58579 8.25 9.25 8.58579 9.25 9C9.25 9.41421 9.58579 9.75 10 9.75H11.25V13.25H3V4Z" fill="currentColor"/>
<path d="M11.25 14.75H3V18C3 19.1046 3.89543 20 5 20H5.25V22C5.25 22.4142 5.58579 22.75 6 22.75C6.41421 22.75 6.75 22.4142 6.75 22V20H11.25V14.75ZM6 16.25H8C8.41421 16.25 8.75 16.5858 8.75 17C8.75 17.4142 8.41421 17.75 8 17.75H6C5.58579 17.75 5.25 17.4142 5.25 17C5.25 16.5858 5.58579 16.25 6 16.25Z" fill="currentColor"/>
<path d="M12.75 14.75V20H17.25V22C17.25 22.4142 17.5858 22.75 18 22.75C18.4142 22.75 18.75 22.4142 18.75 22V20H19C20.1046 20 21 19.1046 21 18V14.75H12.75ZM16 16.25H18C18.4142 16.25 18.75 16.5858 18.75 17C18.75 17.4142 18.4142 17.75 18 17.75H16C15.5858 17.75 15.25 17.4142 15.25 17C15.25 16.5858 15.5858 16.25 16 16.25Z" fill="currentColor"/>
<path d="M12.75 13.25V9.75H14C14.4142 9.75 14.75 9.41421 14.75 9C14.75 8.58579 14.4142 8.25 14 8.25H12.75V2H19C20.1046 2 21 2.89543 21 4V13.25H12.75Z" fill="currentColor"/>
</svg>
