<svg viewBox="0 0 24 24" fill="currentColor" xmlns="http://www.w3.org/2000/svg">
<path d="M5 2C3.89543 2 3 2.89543 3 4V18C3 19.1046 3.89543 20 5 20H5.25V22C5.25 22.4142 5.58579 22.75 6 22.75C6.41421 22.75 6.75 22.4142 6.75 22V20H11.25V2H5ZM9 9.25C9.41421 9.25 9.75 9.58579 9.75 10V13C9.75 13.4142 9.41421 13.75 9 13.75C8.58579 13.75 8.25 13.4142 8.25 13V10C8.25 9.58579 8.58579 9.25 9 9.25Z" fill="currentColor"/>
<path d="M12.75 2H19C20.1046 2 21 2.89543 21 4V18C21 19.1046 20.1046 20 19 20H18.75V22C18.75 22.4142 18.4142 22.75 18 22.75C17.5858 22.75 17.25 22.4142 17.25 22V20H12.75V2ZM15.75 10C15.75 9.58579 15.4142 9.25 15 9.25C14.5858 9.25 14.25 9.58579 14.25 10V13C14.25 13.4142 14.5858 13.75 15 13.75C15.4142 13.75 15.75 13.4142 15.75 13V10Z" fill="currentColor"/>
</svg>
