<svg viewBox="0 0 24 24" fill="currentColor" xmlns="http://www.w3.org/2000/svg">
<path d="M20 16.25H12.75V3H18C19.1046 3 20 3.89543 20 5V16.25ZM15 8.25C14.5858 8.25 14.25 8.58579 14.25 9V11C14.25 11.4142 14.5858 11.75 15 11.75C15.4142 11.75 15.75 11.4142 15.75 11V9C15.75 8.58579 15.4142 8.25 15 8.25Z" fill="currentColor"/>
<path d="M4 17.75V19C4 20.1046 4.89543 21 6 21H6.25V22C6.25 22.4142 6.58579 22.75 7 22.75C7.41421 22.75 7.75 22.4142 7.75 22V21H16.25V22C16.25 22.4142 16.5858 22.75 17 22.75C17.4142 22.75 17.75 22.4142 17.75 22V21H18C19.1046 21 20 20.1046 20 19V17.75H4Z" fill="currentColor"/>
<path d="M11.25 16.25H4V5C4 3.89543 4.89543 3 6 3H11.25V16.25ZM9 8.25C8.58579 8.25 8.25 8.58579 8.25 9V11C8.25 11.4142 8.58579 11.75 9 11.75C9.41421 11.75 9.75 11.4142 9.75 11V9C9.75 8.58579 9.41421 8.25 9 8.25Z" fill="currentColor"/>
</svg>
