<svg viewBox="0 0 24 24" fill="currentColor" xmlns="http://www.w3.org/2000/svg">
<path d="M5 2C3.89543 2 3 2.89543 3 4V18C3 19.1046 3.89543 20 5 20H5.25V21.25C5.25 21.6642 5.58579 22 6 22C6.41421 22 6.75 21.6642 6.75 21.25V20H11.25V2H5ZM7 10.25H9C9.41421 10.25 9.75 10.5858 9.75 11C9.75 11.4142 9.41421 11.75 9 11.75H7C6.58579 11.75 6.25 11.4142 6.25 11C6.25 10.5858 6.58579 10.25 7 10.25Z" fill="currentColor"/>
<path d="M18.75 20H19C20.1046 20 21 19.1046 21 18V4C21 2.89543 20.1046 2 19 2H12.75V20H17.25V21.25C17.25 21.6642 17.5858 22 18 22C18.4142 22 18.75 21.6642 18.75 21.25V20ZM14.25 11C14.25 10.5858 14.5858 10.25 15 10.25H17C17.4142 10.25 17.75 10.5858 17.75 11C17.75 11.4142 17.4142 11.75 17 11.75H15C14.5858 11.75 14.25 11.4142 14.25 11Z" fill="currentColor"/>
</svg>
