<svg viewBox="0 0 24 24" fill="currentColor" xmlns="http://www.w3.org/2000/svg">
<path d="M6.25 21H6C4.89543 21 4 20.1046 4 19V5C4 3.89543 4.89543 3 6 3H11.25V21H7.75V22C7.75 22.4142 7.41421 22.75 7 22.75C6.58579 22.75 6.25 22.4142 6.25 22V21Z" fill="currentColor"/>
<path d="M12.75 15.75V21H16.25V22C16.25 22.4142 16.5858 22.75 17 22.75C17.4142 22.75 17.75 22.4142 17.75 22V21H18C19.1046 21 20 20.1046 20 19V15.75H12.75Z" fill="currentColor"/>
<path d="M12.75 14.25H20V9.75H12.75V14.25Z" fill="currentColor"/>
<path d="M20 8.25H12.75V3H18C19.1046 3 20 3.89543 20 5V8.25Z" fill="currentColor"/>
</svg>
