<svg viewBox="0 0 24 24" fill="currentColor" xmlns="http://www.w3.org/2000/svg">
<path d="M2 5C2 3.89543 2.89543 3 4 3H6C7.10457 3 8 3.89543 8 5V13.5H2V5Z" fill="currentColor"/>
<path d="M9.5 7V13.5H21V9C21 7.89543 20.1046 7 19 7H9.5Z" fill="currentColor"/>
<path d="M21 15H2V18C2 18.5523 2.44772 19 3 19H4.25V21C4.25 21.4142 4.58579 21.75 5 21.75C5.41421 21.75 5.75 21.4142 5.75 21V19H18.25V21C18.25 21.4142 18.5858 21.75 19 21.75C19.4142 21.75 19.75 21.4142 19.75 21V19H21C21.5523 19 22 18.5523 22 18V16C22 15.4477 21.5523 15 21 15Z" fill="currentColor"/>
</svg>
