<svg viewBox="0 0 24 24" fill="currentColor" xmlns="http://www.w3.org/2000/svg">
<path d="M17.379 18.2164C19.5769 16.5754 21 13.9539 21 11C21 6.3669 17.4991 2.55147 12.9984 2.05476C12.4494 1.99417 12 2.44772 12 3.00001V11H3.99996C3.44767 11 2.99412 11.4495 3.05471 11.9984C3.33522 14.5401 4.67412 16.7629 6.62097 18.2164L5.79236 19.4593C4.946 18.9114 4.19749 18.2552 3.57284 17.516C3.3055 17.1996 2.8323 17.1598 2.5159 17.4271C2.19951 17.6945 2.15974 18.1677 2.42707 18.4841C3.26481 19.4755 4.28799 20.3303 5.44874 21.0088C5.48824 21.0516 5.53338 21.0903 5.58393 21.124C5.6687 21.1806 5.76078 21.2175 5.85488 21.236C7.65663 22.1997 9.76017 22.75 12 22.75C14.2398 22.75 16.3433 22.1997 18.1451 21.236C18.2392 21.2175 18.3312 21.1806 18.416 21.124C18.4666 21.0903 18.5117 21.0516 18.5512 21.0089C19.7119 20.3303 20.7351 19.4755 21.5729 18.4841C21.8402 18.1677 21.8004 17.6945 21.484 17.4271C21.1676 17.1598 20.6944 17.1996 20.4271 17.516C19.8025 18.2552 19.0539 18.9114 18.2076 19.4593L17.379 18.2164ZM16.1059 19.011L16.8898 20.1868C15.4331 20.8642 13.7705 21.25 12 21.25C10.2295 21.25 8.56686 20.8642 7.11012 20.1868L7.89403 19.011C9.12509 19.6432 10.5209 20 12 20C13.4791 20 14.8749 19.6432 16.1059 19.011Z" fill="currentColor"/>
</svg>
