<svg viewBox="0 0 24 24" fill="currentColor" xmlns="http://www.w3.org/2000/svg">
<path d="M7 14.5653C7 13.9902 7.37165 13.4811 7.91935 13.3058C10.5735 12.4565 13.4265 12.4565 16.0807 13.3058C16.6284 13.4811 17 13.9902 17 14.5653V14.8C17 15.4627 16.4627 16 15.8 16H8.2C7.53726 16 7 15.4627 7 14.8V14.5653Z" fill="currentColor"/>
<path d="M12 2C8.76665 2 6.22063 4.75784 6.47847 7.98089L6.81435 12.1794C7.01335 12.0537 7.23038 11.9515 7.46218 11.8773C10.4137 10.9328 13.5863 10.9328 16.5378 11.8773C16.7696 11.9515 16.9866 12.0537 17.1856 12.1794L17.5215 7.98089C17.7794 4.75784 15.2333 2 12 2Z" fill="currentColor"/>
<path d="M18.3648 13.7015C18.4529 13.9756 18.5 14.2663 18.5 14.5654V14.8001C18.5 14.9398 18.4894 15.077 18.4689 15.211C20.0607 14.9584 21.1382 13.5183 21.0587 11.9983C21.5836 11.9679 22 11.5326 22 11C22 10.4477 21.5523 10 21 10H19C18.4477 10 18 10.4477 18 11C18 11.5523 18.4477 12 19 12H19.5525C19.6309 12.7647 19.1327 13.5081 18.3648 13.7015Z" fill="currentColor"/>
<path d="M5.53106 15.211C3.93932 14.9584 2.8618 13.5183 2.94134 11.9983C2.41635 11.9679 2 11.5326 2 11C2 10.4477 2.44772 10 3 10H5C5.55228 10 6 10.4477 6 11C6 11.5523 5.55228 12 5 12H4.44751C4.36914 12.7647 4.86732 13.5081 5.63525 13.7015C5.5471 13.9756 5.5 14.2663 5.5 14.5654V14.8001C5.5 14.9398 5.51061 15.077 5.53106 15.211Z" fill="currentColor"/>
<path d="M11.25 17.25V16H12.75V17.25H17C17.9665 17.25 18.75 18.0335 18.75 19V19.2007C19.1984 19.46 19.5 19.9448 19.5 20.5C19.5 21.3284 18.8284 22 18 22C17.1716 22 16.5 21.3284 16.5 20.5C16.5 19.9448 16.8016 19.46 17.25 19.2007V19C17.25 18.8619 17.1381 18.75 17 18.75H12.75V19.2007C13.1984 19.46 13.5 19.9448 13.5 20.5C13.5 21.3284 12.8284 22 12 22C11.1716 22 10.5 21.3284 10.5 20.5C10.5 19.9448 10.8016 19.46 11.25 19.2007V18.75H7C6.86193 18.75 6.75 18.8619 6.75 19V19.2007C7.19835 19.46 7.5 19.9448 7.5 20.5C7.5 21.3284 6.82843 22 6 22C5.17157 22 4.5 21.3284 4.5 20.5C4.5 19.9448 4.80165 19.46 5.25 19.2007V19C5.25 18.0335 6.0335 17.25 7 17.25H11.25Z" fill="currentColor"/>
</svg>
