<svg viewBox="0 0 24 24" fill="currentColor" xmlns="http://www.w3.org/2000/svg">
<path d="M12 2C8.68629 2 6 4.68629 6 8V13.25H4C3.58579 13.25 3.25 13.5858 3.25 14C3.25 14.4142 3.58579 14.75 4 14.75H5V21.25C5 21.6642 5.33579 22 5.75 22C6.16421 22 6.5 21.6642 6.5 21.25V21H11.25V14.75H12.75V21H17.5V21.25C17.5 21.6642 17.8358 22 18.25 22C18.6642 22 19 21.6642 19 21.25V14.75H20C20.4142 14.75 20.75 14.4142 20.75 14C20.75 13.5858 20.4142 13.25 20 13.25H18V8C18 4.68629 15.3137 2 12 2ZM9.75 17V18C9.75 18.4142 9.41421 18.75 9 18.75C8.58579 18.75 8.25 18.4142 8.25 18V17C8.25 16.5858 8.58579 16.25 9 16.25C9.41421 16.25 9.75 16.5858 9.75 17ZM15 16.25C15.4142 16.25 15.75 16.5858 15.75 17V18C15.75 18.4142 15.4142 18.75 15 18.75C14.5858 18.75 14.25 18.4142 14.25 18V17C14.25 16.5858 14.5858 16.25 15 16.25Z" fill="currentColor"/>
</svg>
