<svg viewBox="0 0 24 24" fill="currentColor" xmlns="http://www.w3.org/2000/svg">
<path d="M2 8.02128C2 7.45724 2.44772 7 3 7H21C21.5523 7 22 7.45724 22 8.02128V9.04255C22 9.60659 21.5523 10.0638 21 10.0638H18L16.5 11.5957H17.75V14.6596C17.75 15.0826 17.4142 15.4255 17 15.4255C16.5858 15.4255 16.25 15.0826 16.25 14.6596V11.8511L14.7071 13.4268C14.3166 13.8256 13.6834 13.8256 13.2929 13.4268L10 10.0638H3C2.44772 10.0638 2 9.60659 2 9.04255V8.02128Z" fill="currentColor"/>
<path d="M3.25 11.5957V18.234C3.25 18.6571 3.58579 19 4 19C4.41421 19 4.75 18.6571 4.75 18.234V11.5957H3.25Z" fill="currentColor"/>
<path d="M6.25 11.5957V14.6596C6.25 15.0826 6.58579 15.4255 7 15.4255C7.41421 15.4255 7.75 15.0826 7.75 14.6596V11.5957H6.25Z" fill="currentColor"/>
<path d="M19.25 11.5957V18.234C19.25 18.6571 19.5858 19 20 19C20.4142 19 20.75 18.6571 20.75 18.234V11.5957H19.25Z" fill="currentColor"/>
</svg>
