<svg viewBox="0 0 24 24" fill="currentColor" xmlns="http://www.w3.org/2000/svg">
<path d="M8 4C8 2.89543 8.89543 2 10 2H14C15.1046 2 16 2.89543 16 4V11H21C21.5523 11 22 11.4477 22 12V13C22 13.5523 21.5523 14 21 14H18L16.5 15.5H17.75V18.5C17.75 18.9142 17.4142 19.25 17 19.25C16.5858 19.25 16.25 18.9142 16.25 18.5V15.75L14.7071 17.2929C14.3166 17.6834 13.6834 17.6834 13.2929 17.2929L10 14H3C2.44772 14 2 13.5523 2 13V12C2 11.4477 2.44772 11 3 11H8V4ZM12.75 11V6C12.75 5.58579 12.4142 5.25 12 5.25C11.5858 5.25 11.25 5.58579 11.25 6V11H12.75Z" fill="currentColor"/>
<path d="M3.25 15.5V22C3.25 22.4142 3.58579 22.75 4 22.75C4.41421 22.75 4.75 22.4142 4.75 22V15.5H3.25Z" fill="currentColor"/>
<path d="M6.25 15.5V18.5C6.25 18.9142 6.58579 19.25 7 19.25C7.41421 19.25 7.75 18.9142 7.75 18.5V15.5H6.25Z" fill="currentColor"/>
<path d="M19.25 15.5V22C19.25 22.4142 19.5858 22.75 20 22.75C20.4142 22.75 20.75 22.4142 20.75 22V15.5H19.25Z" fill="currentColor"/>
</svg>
