<svg viewBox="0 0 24 24" fill="currentColor" xmlns="http://www.w3.org/2000/svg">
<path d="M5 4V19C5 20.1046 5.89543 21 7 21C7 21.5523 7.44772 22 8 22C8.55229 22 9 21.5523 9 21H15C15 21.5523 15.4477 22 16 22C16.5523 22 17 21.5523 17 21C18.1046 21 19 20.1046 19 19V4C19 2.89543 18.1046 2 17 2H7C5.89543 2 5 2.89543 5 4ZM16 9.25C16.4142 9.25 16.75 9.58579 16.75 10V13C16.75 13.4142 16.4142 13.75 16 13.75C15.5858 13.75 15.25 13.4142 15.25 13V10C15.25 9.58579 15.5858 9.25 16 9.25Z" fill="currentColor"/>
</svg>
