<svg viewBox="0 0 24 24" fill="currentColor" xmlns="http://www.w3.org/2000/svg">
<path d="M12.75 2C12.75 1.58579 12.4142 1.25 12 1.25C11.5858 1.25 11.25 1.58579 11.25 2V9.25H9C8.86193 9.25 8.75 9.13807 8.75 9V6C8.75 5.58579 8.41421 5.25 8 5.25C7.58579 5.25 7.25 5.58579 7.25 6V9C7.25 9.9665 8.0335 10.75 9 10.75H11.25V17.25H8C7.86193 17.25 7.75 17.1381 7.75 17V13C7.75 12.5858 7.41421 12.25 7 12.25C6.58579 12.25 6.25 12.5858 6.25 13V17C6.25 17.9665 7.0335 18.75 8 18.75H11.25V21.25H8C7.58579 21.25 7.25 21.5858 7.25 22C7.25 22.4142 7.58579 22.75 8 22.75H16C16.4142 22.75 16.75 22.4142 16.75 22C16.75 21.5858 16.4142 21.25 16 21.25H12.75V14.75H16C16.9665 14.75 17.75 13.9665 17.75 13V10C17.75 9.58579 17.4142 9.25 17 9.25C16.5858 9.25 16.25 9.58579 16.25 10V13C16.25 13.1381 16.1381 13.25 16 13.25H12.75V7.75H15C15.9665 7.75 16.75 6.9665 16.75 6V3C16.75 2.58579 16.4142 2.25 16 2.25C15.5858 2.25 15.25 2.58579 15.25 3V6C15.25 6.13807 15.1381 6.25 15 6.25H12.75V2Z" fill="currentColor"/>
</svg>
