<svg viewBox="0 0 24 24" fill="currentColor" xmlns="http://www.w3.org/2000/svg">
<path d="M12.75 2C12.75 1.58579 12.4142 1.25 12 1.25C11.5858 1.25 11.25 1.58579 11.25 2V6.18934L9.53033 4.46967C9.23744 4.17678 8.76256 4.17678 8.46967 4.46967C8.17678 4.76256 8.17678 5.23744 8.46967 5.53033L11.25 8.31066V14.1893L8.53033 11.4697C8.23744 11.1768 7.76256 11.1768 7.46967 11.4697C7.17678 11.7626 7.17678 12.2374 7.46967 12.5303L11.25 16.3107V21.25H8C7.58579 21.25 7.25 21.5858 7.25 22C7.25 22.4142 7.58579 22.75 8 22.75H16C16.4142 22.75 16.75 22.4142 16.75 22C16.75 21.5858 16.4142 21.25 16 21.25H12.75V19.3107L16.5303 15.5303C16.8232 15.2374 16.8232 14.7626 16.5303 14.4697C16.2374 14.1768 15.7626 14.1768 15.4697 14.4697L12.75 17.1893V12.3107L15.5303 9.53033C15.8232 9.23744 15.8232 8.76256 15.5303 8.46967C15.2374 8.17678 14.7626 8.17678 14.4697 8.46967L12.75 10.1893V2Z" fill="currentColor"/>
</svg>
