<svg viewBox="0 0 24 24" fill="currentColor" xmlns="http://www.w3.org/2000/svg">
<path d="M7 1C6.44772 1 6 1.44772 6 2V7C6 7.55228 6.44772 8 7 8H11.25V10H5C3.89543 10 3 10.8954 3 12V18C3 19.1046 3.89543 20 5 20V21.25C5 21.6642 5.33579 22 5.75 22C6.16421 22 6.5 21.6642 6.5 21.25V20H11.25V10H12.75V20H17.5V21.25C17.5 21.6642 17.8358 22 18.25 22C18.6642 22 19 21.6642 19 21.25V20C20.1046 20 21 19.1046 21 18V12C21 10.8954 20.1046 10 19 10H12.75V8H17C17.5523 8 18 7.55228 18 7V2C18 1.44772 17.5523 1 17 1H7ZM9.53033 3.53033L8.53033 4.53033C8.23744 4.82322 7.76256 4.82322 7.46967 4.53033C7.17678 4.23744 7.17678 3.76256 7.46967 3.46967L8.46967 2.46967C8.76256 2.17678 9.23744 2.17678 9.53033 2.46967C9.82322 2.76256 9.82322 3.23744 9.53033 3.53033ZM9 13.25C9.41421 13.25 9.75 13.5858 9.75 14V16C9.75 16.4142 9.41421 16.75 9 16.75C8.58579 16.75 8.25 16.4142 8.25 16V14C8.25 13.5858 8.58579 13.25 9 13.25ZM15.75 14V16C15.75 16.4142 15.4142 16.75 15 16.75C14.5858 16.75 14.25 16.4142 14.25 16V14C14.25 13.5858 14.5858 13.25 15 13.25C15.4142 13.25 15.75 13.5858 15.75 14Z" fill="currentColor"/>
</svg>
