<svg viewBox="0 0 24 24" fill="currentColor" xmlns="http://www.w3.org/2000/svg">
<path d="M7 2H17C17.5523 2 18 2.44772 18 3V9C18 9.55228 17.5523 10 17 10H12.75V13H19C20.1046 13 21 13.8954 21 15V21.25C21 21.6642 20.6642 22 20.25 22C19.8358 22 19.5 21.6642 19.5 21.25V17H4.5V21.25C4.5 21.6642 4.16421 22 3.75 22C3.33579 22 3 21.6642 3 21.25V15C3 13.8954 3.89543 13 5 13H11.25V10H7C6.44772 10 6 9.55228 6 9V3C6 2.44772 6.44772 2 7 2ZM9.53033 4.53033C9.82322 4.23744 9.82322 3.76256 9.53033 3.46967C9.23744 3.17678 8.76256 3.17678 8.46967 3.46967L7.46967 4.46967C7.17678 4.76256 7.17678 5.23744 7.46967 5.53033C7.76256 5.82322 8.23744 5.82322 8.53033 5.53033L9.53033 4.53033Z" fill="currentColor"/>
</svg>
