<svg viewBox="0 0 24 24" fill="currentColor" xmlns="http://www.w3.org/2000/svg">
<path d="M12 1.25C12.4142 1.25 12.75 1.58579 12.75 2V9H14.1716C14.702 9 15.2107 9.21071 15.5858 9.58579L21.4142 15.4142C21.7893 15.7893 22 16.298 22 16.8284V18C22 18.5523 21.5523 19 21 19H15.874C15.4299 20.7252 13.8638 22 12 22C10.1362 22 8.57006 20.7252 8.12602 19H3C2.44772 19 2 18.5523 2 18V16.8284C2 16.298 2.21071 15.7893 2.58579 15.4142L8.41421 9.58579C8.78929 9.21071 9.29799 9 9.82843 9H11.25V2C11.25 1.58579 11.5858 1.25 12 1.25Z" fill="currentColor"/>
</svg>
