<svg viewBox="0 0 24 24" fill="currentColor" xmlns="http://www.w3.org/2000/svg">
<path d="M15 16.5905C15 15.8184 15.4602 15.1351 16.0867 14.6838C17.8512 13.4129 19 11.3406 19 9C19 5.13401 15.866 2 12 2C8.13401 2 5 5.13401 5 9C5 11.3406 6.14878 13.4129 7.91327 14.6838C8.53977 15.1351 9 15.8184 9 16.5905V17C9 17.5523 9.44772 18 10 18H14C14.5523 18 15 17.5523 15 17V16.5905Z" fill="currentColor"/>
<path d="M9.25 19.5C9.25 19.0858 9.58579 18.75 10 18.75H14C14.4142 18.75 14.75 19.0858 14.75 19.5C14.75 19.9142 14.4142 20.25 14 20.25H10C9.58579 20.25 9.25 19.9142 9.25 19.5Z" fill="currentColor"/>
<path d="M11 21.25C10.5858 21.25 10.25 21.5858 10.25 22C10.25 22.4142 10.5858 22.75 11 22.75H13C13.4142 22.75 13.75 22.4142 13.75 22C13.75 21.5858 13.4142 21.25 13 21.25H11Z" fill="currentColor"/>
</svg>
