<svg viewBox="0 0 24 24" fill="currentColor" xmlns="http://www.w3.org/2000/svg">
<path d="M12.75 3V11.25H20V5C20 3.89543 19.1046 3 18 3H12.75ZM14.25 6.5C14.25 6.08579 14.5858 5.75 15 5.75C15.4142 5.75 15.75 6.08579 15.75 6.5V8.5C15.75 8.91421 15.4142 9.25 15 9.25C14.5858 9.25 14.25 8.91421 14.25 8.5V6.5Z" fill="currentColor"/>
<path d="M11.25 15.25H4V8.75H11.25V15.25Z" fill="currentColor"/>
<path d="M11.25 16.75V21H7.75V22C7.75 22.4142 7.41421 22.75 7 22.75C6.58579 22.75 6.25 22.4142 6.25 22V21H6C4.89543 21 4 20.1046 4 19V16.75H11.25Z" fill="currentColor"/>
<path d="M16.25 21V22C16.25 22.4142 16.5858 22.75 17 22.75C17.4142 22.75 17.75 22.4142 17.75 22V21H18C19.1046 21 20 20.1046 20 19V12.75H12.75V21H16.25ZM14.25 15.5C14.25 15.0858 14.5858 14.75 15 14.75C15.4142 14.75 15.75 15.0858 15.75 15.5V17.5C15.75 17.9142 15.4142 18.25 15 18.25C14.5858 18.25 14.25 17.9142 14.25 17.5V15.5Z" fill="currentColor"/>
<path d="M11.25 7.25V3H6C4.89543 3 4 3.89543 4 5V7.25H11.25Z" fill="currentColor"/>
</svg>
