<svg viewBox="0 0 24 24" fill="currentColor" xmlns="http://www.w3.org/2000/svg">
<path d="M16.75 4H4C2.89543 4 2 4.89543 2 6V18C2 19.1046 2.89543 20 4 20H16.75V4ZM4 7C4 6.44771 4.44772 6 5 6H14C14.5523 6 15 6.44772 15 7V17C15 17.5523 14.5523 18 14 18H5C4.44771 18 4 17.5523 4 17V7Z" fill="currentColor"/>
<path d="M18.25 20H20C21.1046 20 22 19.1046 22 18V6C22 4.89543 21.1046 4 20 4H18.25V20ZM20 8C19.4477 8 19 7.55228 19 7C19 6.44772 19.4477 6 20 6C20.5523 6 21 6.44772 21 7C21 7.55228 20.5523 8 20 8ZM21 10C21 10.5523 20.5523 11 20 11C19.4477 11 19 10.5523 19 10C19 9.44771 19.4477 9 20 9C20.5523 9 21 9.44771 21 10ZM19.5 15H20.5C20.7761 15 21 15.2239 21 15.5V17.5C21 17.7761 20.7761 18 20.5 18H19.5C19.2239 18 19 17.7761 19 17.5V15.5C19 15.2239 19.2239 15 19.5 15Z" fill="currentColor"/>
</svg>
