<svg viewBox="0 0 24 24" fill="currentColor" xmlns="http://www.w3.org/2000/svg">
<path d="M12.75 2C12.75 1.58579 12.4142 1.25 12 1.25C11.5858 1.25 11.25 1.58579 11.25 2V3.04822C7.73668 3.50264 5 7.11324 5 11.5C5 15.8868 7.73668 19.4974 11.25 19.9518V21.25H6C5.58579 21.25 5.25 21.5858 5.25 22C5.25 22.4142 5.58579 22.75 6 22.75H18C18.4142 22.75 18.75 22.4142 18.75 22C18.75 21.5858 18.4142 21.25 18 21.25H12.75V19.9518C16.2633 19.4974 19 15.8868 19 11.5C19 7.11324 16.2633 3.50264 12.75 3.04822V2Z" fill="currentColor"/>
</svg>
