<svg viewBox="0 0 24 24" fill="currentColor" xmlns="http://www.w3.org/2000/svg">
<path d="M7 1H17C17.5523 1 18 1.44772 18 2V7C18 7.55228 17.5523 8 17 8H12.75V11H22C22.5523 11 23 11.4477 23 12V13C23 13.5523 22.5523 14 22 14V21C22 21.5523 21.5523 22 21 22H19C18.4477 22 18 21.5523 18 21V17.75H6V21C6 21.5523 5.55228 22 5 22H3C2.44772 22 2 21.5523 2 21V14C1.44772 14 1 13.5523 1 13V12C1 11.4477 1.44772 11 2 11H11.25V8H7C6.44771 8 6 7.55228 6 7V2C6 1.44772 6.44772 1 7 1ZM18 16.25V14H6V16.25H18ZM9.53033 3.53033C9.82322 3.23744 9.82322 2.76256 9.53033 2.46967C9.23744 2.17678 8.76256 2.17678 8.46967 2.46967L7.46967 3.46967C7.17678 3.76256 7.17678 4.23744 7.46967 4.53033C7.76256 4.82322 8.23744 4.82322 8.53033 4.53033L9.53033 3.53033Z" fill="currentColor"/>
</svg>
