<svg viewBox="0 0 24 24" fill="currentColor" xmlns="http://www.w3.org/2000/svg">
<path d="M6 2H18C19.1046 2 20 2.89543 20 4V7.25H4V4C4 2.89543 4.89543 2 6 2ZM11 4.25C10.5858 4.25 10.25 4.58579 10.25 5C10.25 5.41421 10.5858 5.75 11 5.75H13C13.4142 5.75 13.75 5.41421 13.75 5C13.75 4.58579 13.4142 4.25 13 4.25H11Z" fill="currentColor"/>
<path d="M20 8.75H4V13.25H20V8.75ZM11 10.25H13C13.4142 10.25 13.75 10.5858 13.75 11C13.75 11.4142 13.4142 11.75 13 11.75H11C10.5858 11.75 10.25 11.4142 10.25 11C10.25 10.5858 10.5858 10.25 11 10.25Z" fill="currentColor"/>
<path d="M4 14.75H20V18C20 19.1046 19.1046 20 18 20H17.75V21.25C17.75 21.6642 17.4142 22 17 22C16.5858 22 16.25 21.6642 16.25 21.25V20H7.75V21.25C7.75 21.6642 7.41421 22 7 22C6.58579 22 6.25 21.6642 6.25 21.25V20H6C4.89543 20 4 19.1046 4 18V14.75ZM11 16.25C10.5858 16.25 10.25 16.5858 10.25 17C10.25 17.4142 10.5858 17.75 11 17.75H13C13.4142 17.75 13.75 17.4142 13.75 17C13.75 16.5858 13.4142 16.25 13 16.25H11Z" fill="currentColor"/>
</svg>
