<svg viewBox="0 0 24 24" fill="currentColor" xmlns="http://www.w3.org/2000/svg">
<path d="M3 4C3 2.89543 3.89543 2 5 2H19C20.1046 2 21 2.89543 21 4V7.25H3V4ZM8.5 5C8.5 4.44772 8.05229 4 7.5 4C6.94772 4 6.5 4.44772 6.5 5C6.5 5.55228 6.94772 6 7.5 6C8.05229 6 8.5 5.55228 8.5 5ZM14.5 5C14.5 4.44772 14.0523 4 13.5 4C12.9477 4 12.5 4.44772 12.5 5C12.5 5.55228 12.9477 6 13.5 6C14.0523 6 14.5 5.55228 14.5 5ZM10.5 6C11.0523 6 11.5 5.55228 11.5 5C11.5 4.44772 11.0523 4 10.5 4C9.94771 4 9.5 4.44772 9.5 5C9.5 5.55228 9.94771 6 10.5 6ZM17.5 5C17.5 4.44772 17.0523 4 16.5 4C15.9477 4 15.5 4.44772 15.5 5C15.5 5.55228 15.9477 6 16.5 6C17.0523 6 17.5 5.55228 17.5 5Z" fill="currentColor"/>
<path d="M7 12.25C6.58579 12.25 6.25 12.5858 6.25 13C6.25 13.4142 6.58579 13.75 7 13.75H17C17.4142 13.75 17.75 13.4142 17.75 13C17.75 12.5858 17.4142 12.25 17 12.25H7Z" fill="currentColor"/>
<path d="M3 8.75V20C3 21.1046 3.89543 22 5 22H19C20.1046 22 21 21.1046 21 20V8.75H3ZM5 12C5 11.4477 5.44772 11 6 11H18C18.5523 11 19 11.4477 19 12V19C19 19.5523 18.5523 20 18 20H6C5.44772 20 5 19.5523 5 19V12Z" fill="currentColor"/>
</svg>
