<svg viewBox="0 0 24 24" fill="currentColor" xmlns="http://www.w3.org/2000/svg">
<path d="M16 10C17.1046 10 18 9.10457 18 8C18 6.89543 17.1046 6 16 6C14.8954 6 14 6.89543 14 8C14 9.10457 14.8954 10 16 10Z" fill="currentColor"/>
<path d="M5 2C3.34315 2 2 3.34315 2 5V19C2 20.6569 3.34315 22 5 22H19C20.6569 22 22 20.6569 22 19V5C22 3.34315 20.6569 2 19 2H5ZM5 4H19C19.5523 4 20 4.44772 20 5V19C20 19.2761 19.8881 19.5261 19.7071 19.7071L11.1213 11.1213C9.94975 9.94975 8.05025 9.94975 6.87868 11.1213L4 14V5C4 4.44772 4.44772 4 5 4Z" fill="currentColor"/>
</svg>
