<svg viewBox="0 0 24 24" fill="currentColor" xmlns="http://www.w3.org/2000/svg">
<path d="M5 4C5 2.89543 5.89543 2 7 2H17C18.1046 2 19 2.89543 19 4V9.25H5V4ZM16.75 5C16.75 4.58579 16.4142 4.25 16 4.25C15.5858 4.25 15.25 4.58579 15.25 5V7C15.25 7.41421 15.5858 7.75 16 7.75C16.4142 7.75 16.75 7.41421 16.75 7V5Z" fill="currentColor"/>
<path d="M5 10.75V19C5 20.1046 5.89543 21 7 21C7 21.5523 7.44772 22 8 22C8.55229 22 9 21.5523 9 21H15C15 21.5523 15.4477 22 16 22C16.5523 22 17 21.5523 17 21C18.1046 21 19 20.1046 19 19V10.75H5ZM16 12.25C16.4142 12.25 16.75 12.5858 16.75 13V15C16.75 15.4142 16.4142 15.75 16 15.75C15.5858 15.75 15.25 15.4142 15.25 15V13C15.25 12.5858 15.5858 12.25 16 12.25Z" fill="currentColor"/>
</svg>
