<svg viewBox="0 0 24 24" fill="currentColor" xmlns="http://www.w3.org/2000/svg">
<path d="M5 6C5 4.89543 5.89543 4 7 4H17C18.1046 4 19 4.89543 19 6V6.70802C18.117 7.0938 17.5 7.97484 17.5 9V11.5H6.5V9C6.5 7.97484 5.88295 7.0938 5 6.70802V6Z" fill="currentColor"/>
<path d="M22 10C22 8.89543 21.1046 8 20 8C19.4477 8 19 8.44772 19 9V13H5V9C5 8.44772 4.55228 8 4 8C2.89543 8 2 8.89543 2 10V13C2 14.5816 2.91788 15.9487 4.25 16.5979V20C4.25 20.4142 4.58579 20.75 5 20.75C5.41421 20.75 5.75 20.4142 5.75 20V16.9923C5.83268 16.9974 5.91604 17 6 17H18C18.084 17 18.1673 16.9974 18.25 16.9923V20C18.25 20.4142 18.5858 20.75 19 20.75C19.4142 20.75 19.75 20.4142 19.75 20V16.5979C21.0821 15.9487 22 14.5816 22 13V10Z" fill="currentColor"/>
</svg>
