<svg viewBox="0 0 24 24" fill="currentColor" xmlns="http://www.w3.org/2000/svg">
<path d="M4 4C4 2.89543 4.89543 2 6 2H18C19.1046 2 20 2.89543 20 4V8.5H19C17.6193 8.5 16.5 9.61929 16.5 11V13.5H7.5V11C7.5 9.61929 6.38071 8.5 5 8.5H4V4Z" fill="currentColor"/>
<path d="M22 11C22 10.4477 21.5523 10 21 10H19C18.4477 10 18 10.4477 18 11V15H6V11C6 10.4477 5.55228 10 5 10H3C2.44772 10 2 10.4477 2 11V17C2 18.1046 2.89543 19 4 19H4.25V22C4.25 22.4142 4.58579 22.75 5 22.75C5.41421 22.75 5.75 22.4142 5.75 22V19H18.25V22C18.25 22.4142 18.5858 22.75 19 22.75C19.4142 22.75 19.75 22.4142 19.75 22V19H20C21.1046 19 22 18.1046 22 17V11Z" fill="currentColor"/>
</svg>
