<svg viewBox="0 0 24 24" fill="currentColor" xmlns="http://www.w3.org/2000/svg">
<path d="M7 4C5.89543 4 5 4.89543 5 6V6.70802C5.88295 7.0938 6.5 7.97484 6.5 9V11.5H11.25V4H7Z" fill="currentColor"/>
<path d="M19 6V6.70802C18.117 7.0938 17.5 7.97484 17.5 9V11.5H12.75V4H17C18.1046 4 19 4.89543 19 6Z" fill="currentColor"/>
<path d="M22 9C22 8.44772 21.5523 8 21 8H20C19.4477 8 19 8.44771 19 9V12C19 12.5523 18.5523 13 18 13H6C5.44772 13 5 12.5523 5 12V9C5 8.44772 4.55228 8 4 8H3C2.44772 8 2 8.44771 2 9V14C2 15.3979 2.95608 16.5725 4.25 16.9055V20C4.25 20.4142 4.58579 20.75 5 20.75C5.41421 20.75 5.75 20.4142 5.75 20V17H18.25V20C18.25 20.4142 18.5858 20.75 19 20.75C19.4142 20.75 19.75 20.4142 19.75 20V16.9055C21.0439 16.5725 22 15.3979 22 14V9Z" fill="currentColor"/>
</svg>
