<svg viewBox="0 0 24 24" fill="currentColor" xmlns="http://www.w3.org/2000/svg">
<path d="M5 2H19C20.6569 2 22 3.34315 22 5V19C22 20.6569 20.6569 22 19 22H5C3.34315 22 2 20.6569 2 19V5C2 3.34315 3.34315 2 5 2ZM8.5 11C9.88071 11 11 9.88071 11 8.5C11 7.11929 9.88071 6 8.5 6C7.11929 6 6 7.11929 6 8.5C6 9.88071 7.11929 11 8.5 11ZM8.5 18C9.88071 18 11 16.8807 11 15.5C11 14.1193 9.88071 13 8.5 13C7.11929 13 6 14.1193 6 15.5C6 16.8807 7.11929 18 8.5 18ZM18 8.5C18 7.11929 16.8807 6 15.5 6C14.1193 6 13 7.11929 13 8.5C13 9.88071 14.1193 11 15.5 11C16.8807 11 18 9.88071 18 8.5ZM15.5 18C16.8807 18 18 16.8807 18 15.5C18 14.1193 16.8807 13 15.5 13C14.1193 13 13 14.1193 13 15.5C13 16.8807 14.1193 18 15.5 18ZM13.25 20C13.25 20.4142 13.5858 20.75 14 20.75H15.5C15.9142 20.75 16.25 20.4142 16.25 20C16.25 19.5858 15.9142 19.25 15.5 19.25H14C13.5858 19.25 13.25 19.5858 13.25 20ZM18 19.25C17.5858 19.25 17.25 19.5858 17.25 20C17.25 20.4142 17.5858 20.75 18 20.75H19C19.4142 20.75 19.75 20.4142 19.75 20C19.75 19.5858 19.4142 19.25 19 19.25H18Z" fill="currentColor"/>
</svg>
