<svg viewBox="0 0 24 24" fill="currentColor" xmlns="http://www.w3.org/2000/svg">
<path d="M22 9C22 6.23858 17.5228 4 12 4C6.47715 4 2 6.23858 2 9C2 11.6353 6.07745 13.7944 11.25 13.9861V17C11.25 17.38 11.1298 17.9667 10.7913 18.4368C10.4804 18.8686 9.95556 19.25 9 19.25H8C7.58579 19.25 7.25 19.5858 7.25 20C7.25 20.4142 7.58579 20.75 8 20.75H9C10.4374 20.75 11.4101 20.1374 12 19.3252C12.5899 20.1374 13.5626 20.75 15 20.75H16C16.4142 20.75 16.75 20.4142 16.75 20C16.75 19.5858 16.4142 19.25 16 19.25H15C14.0444 19.25 13.5196 18.8686 13.2087 18.4368C12.8702 17.9667 12.75 17.38 12.75 17V13.9861C17.9226 13.7944 22 11.6353 22 9Z" fill="currentColor"/>
</svg>
