<svg viewBox="0 0 24 24" fill="currentColor" xmlns="http://www.w3.org/2000/svg">
<path d="M2 6C2 4.89543 2.89543 4 4 4H20C21.1046 4 22 4.89543 22 6V9C22 10.1046 21.1046 11 20 11H17.0607L13.0607 15L17.5303 19.4697C17.8232 19.7626 17.8232 20.2374 17.5303 20.5303C17.2374 20.8232 16.7626 20.8232 16.4697 20.5303L12 16.0607L7.53033 20.5303C7.23744 20.8232 6.76256 20.8232 6.46967 20.5303C6.17678 20.2374 6.17678 19.7626 6.46967 19.4697L10.9393 15L6.93934 11H4C2.89543 11 2 10.1046 2 9V6ZM9.06066 11L12 13.9393L14.9393 11H9.06066Z" fill="currentColor"/>
</svg>
