<svg viewBox="0 0 24 24" fill="currentColor" xmlns="http://www.w3.org/2000/svg">
<path d="M5 2H11.25V11.25H2V5C2 3.34315 3.34315 2 5 2ZM8 5.25C7.58579 5.25 7.25 5.58579 7.25 6V8C7.25 8.41421 7.58579 8.75 8 8.75C8.41421 8.75 8.75 8.41421 8.75 8V6C8.75 5.58579 8.41421 5.25 8 5.25Z" fill="currentColor"/>
<path d="M2 12.75V19C2 20.6569 3.34315 22 5 22H11.25V12.75H2ZM8.75 15V17C8.75 17.4142 8.41421 17.75 8 17.75C7.58579 17.75 7.25 17.4142 7.25 17V15C7.25 14.5858 7.58579 14.25 8 14.25C8.41421 14.25 8.75 14.5858 8.75 15Z" fill="currentColor"/>
<path d="M12.75 12.75H22V19C22 20.6569 20.6569 22 19 22H12.75V12.75ZM16.75 15C16.75 14.5858 16.4142 14.25 16 14.25C15.5858 14.25 15.25 14.5858 15.25 15V17C15.25 17.4142 15.5858 17.75 16 17.75C16.4142 17.75 16.75 17.4142 16.75 17V15Z" fill="currentColor"/>
<path d="M22 11.25V5C22 3.34315 20.6569 2 19 2H12.75V11.25H22ZM16 5.25C16.4142 5.25 16.75 5.58579 16.75 6V8C16.75 8.41421 16.4142 8.75 16 8.75C15.5858 8.75 15.25 8.41421 15.25 8V6C15.25 5.58579 15.5858 5.25 16 5.25Z" fill="currentColor"/>
</svg>
