<svg viewBox="0 0 24 24" fill="currentColor" xmlns="http://www.w3.org/2000/svg">
<path d="M14.75 3V21H19.25V22C19.25 22.4142 19.5858 22.75 20 22.75C20.4142 22.75 20.75 22.4142 20.75 22V20.8546C21.483 20.5579 22 19.8393 22 19V5C22 3.89543 21.1046 3 20 3H14.75ZM17 12.75C16.5858 12.75 16.25 12.4142 16.25 12C16.25 11.5858 16.5858 11.25 17 11.25H19C19.4142 11.25 19.75 11.5858 19.75 12C19.75 12.4142 19.4142 12.75 19 12.75H17Z" fill="currentColor"/>
<path d="M13.25 21V12.75H2V19C2 19.8393 2.51704 20.5579 3.25 20.8546V22C3.25 22.4142 3.58579 22.75 4 22.75C4.41421 22.75 4.75 22.4142 4.75 22V21H13.25Z" fill="currentColor"/>
<path d="M13.25 11.25H2V5C2 3.89543 2.89543 3 4 3H13.25V11.25Z" fill="currentColor"/>
</svg>
