<svg viewBox="0 0 24 24" fill="currentColor" xmlns="http://www.w3.org/2000/svg">
<path d="M5 2C3.89543 2 3 2.89543 3 4V6.25H21V4C21 2.89543 20.1046 2 19 2H5ZM19 4C19 4.55228 18.5523 5 18 5C17.4477 5 17 4.55228 17 4C17 3.44772 17.4477 3 18 3C18.5523 3 19 3.44772 19 4Z" fill="currentColor"/>
<path d="M8.75 14C8.75 12.2051 10.2051 10.75 12 10.75C13.7949 10.75 15.25 12.2051 15.25 14C15.25 15.7949 13.7949 17.25 12 17.25C10.2051 17.25 8.75 15.7949 8.75 14Z" fill="currentColor"/>
<path d="M3 7.75H21V19C21 20.1046 20.1046 21 19 21C19 21.5523 18.5523 22 18 22C17.4477 22 17 21.5523 17 21H7C7 21.5523 6.55228 22 6 22C5.44772 22 5 21.5523 5 21C3.89543 21 3 20.1046 3 19V7.75ZM7.25 14C7.25 16.6234 9.37665 18.75 12 18.75C14.6234 18.75 16.75 16.6234 16.75 14C16.75 11.3766 14.6234 9.25 12 9.25C9.37665 9.25 7.25 11.3766 7.25 14Z" fill="currentColor"/>
</svg>
