<svg viewBox="0 0 24 24" fill="currentColor" xmlns="http://www.w3.org/2000/svg">
<path d="M3 4C3 2.89543 3.89543 2 5 2H19C20.1046 2 21 2.89543 21 4V21.25H22C22.4142 21.25 22.75 21.5858 22.75 22C22.75 22.4142 22.4142 22.75 22 22.75H2C1.58579 22.75 1.25 22.4142 1.25 22C1.25 21.5858 1.58579 21.25 2 21.25H3V4ZM5 21.25H11.25V13.75H5V21.25ZM12.75 21.25H19V13.75H12.75V21.25ZM19 12.25V5C19 4.44772 18.5523 4 18 4H12.75V12.25H19ZM11.25 12.25V4H6C5.44772 4 5 4.44772 5 5V12.25H11.25Z" fill="currentColor"/>
</svg>
