<svg viewBox="0 0 24 24" fill="currentColor" xmlns="http://www.w3.org/2000/svg">
<path d="M3 4C3 2.89543 3.89543 2 5 2H19C20.1046 2 21 2.89543 21 4V20C21 21.1046 20.1046 22 19 22H5C3.89543 22 3 21.1046 3 20V4ZM19 11.25V5C19 4.44772 18.5523 4 18 4H13C12.9137 4 12.8299 4.01094 12.75 4.0315V11.25H19ZM12.75 12.75V19.9685C12.8299 19.9891 12.9137 20 13 20H18C18.5523 20 19 19.5523 19 19V12.75H12.75ZM11.25 11.25V4.0315C11.1701 4.01094 11.0863 4 11 4H6C5.44772 4 5 4.44772 5 5V11.25H11.25ZM5 12.75V19C5 19.5523 5.44772 20 6 20H11C11.0863 20 11.1701 19.9891 11.25 19.9685V12.75H5Z" fill="currentColor"/>
</svg>
