<svg viewBox="0 0 24 24" fill="currentColor" xmlns="http://www.w3.org/2000/svg">
<path d="M5 2C3.89543 2 3 2.89543 3 4V20C3 21.1046 3.89543 22 5 22H19C20.1046 22 21 21.1046 21 20V4C21 2.89543 20.1046 2 19 2H5ZM6 4H11C11.0863 4 11.1701 4.01094 11.25 4.0315V19.9685C11.1701 19.9891 11.0863 20 11 20H6C5.44772 20 5 19.5523 5 19V5C5 4.44772 5.44772 4 6 4ZM13 20C12.9137 20 12.8299 19.9891 12.75 19.9685V4.0315C12.8299 4.01094 12.9137 4 13 4H18C18.5523 4 19 4.44772 19 5V19C19 19.5523 18.5523 20 18 20H13Z" fill="currentColor"/>
</svg>
