<svg viewBox="0 0 24 24" fill="currentColor" xmlns="http://www.w3.org/2000/svg">
<path d="M8.98682 20.6309C9.72005 21.47 10.7981 22.0001 12 22.0001C13.2019 22.0001 14.28 21.47 15.0132 20.6309C13.0178 20.956 10.9822 20.956 8.98682 20.6309Z" fill="currentColor"/>
<path d="M11.8752 3.00122C8.45342 3.06771 5.70002 5.86231 5.70002 9.30001V11.0505C5.70002 11.6737 5.54497 12.2871 5.24884 12.8355L4.04045 15.0733C3.47924 16.1126 3.92166 17.4096 5.00098 17.8893C9.45687 19.8697 14.5432 19.8697 18.9991 17.8893C20.0784 17.4096 20.5208 16.1126 19.9596 15.0733L18.9494 13.2026C18.334 13.3958 17.6792 13.5 17 13.5C13.4101 13.5 10.5 10.5899 10.5 7.00001C10.5 5.49203 11.0135 4.10399 11.8752 3.00122Z" fill="currentColor"/>
<path d="M17 12C19.7614 12 22 9.76142 22 7C22 4.23858 19.7614 2 17 2C14.2386 2 12 4.23858 12 7C12 9.76142 14.2386 12 17 12ZM17.75 4.5V6.68934L19.0303 7.96967C19.3232 8.26256 19.3232 8.73744 19.0303 9.03033C18.7374 9.32322 18.2626 9.32322 17.9697 9.03033L16.4697 7.53033C16.329 7.38968 16.25 7.19891 16.25 7V4.5C16.25 4.08579 16.5858 3.75 17 3.75C17.4142 3.75 17.75 4.08579 17.75 4.5Z" fill="currentColor"/>
</svg>
