<svg viewBox="0 0 24 24" fill="currentColor" xmlns="http://www.w3.org/2000/svg">
<path d="M5.70002 9.3C5.70002 5.82061 8.52063 3 12 3C15.4794 3 18.3 5.82061 18.3 9.3V11.0504C18.3 11.6737 18.4551 12.2871 18.7512 12.8355L19.9596 15.0733C20.5208 16.1126 20.0784 17.4096 18.9991 17.8893C14.5432 19.8697 9.45687 19.8697 5.00098 17.8893C3.92166 17.4096 3.47924 16.1126 4.04045 15.0733L5.24884 12.8355C5.54497 12.2871 5.70002 11.6737 5.70002 11.0504V9.3Z" fill="currentColor"/>
<path d="M8.98682 20.6309C9.72005 21.47 10.7981 22.0001 12 22.0001C13.2019 22.0001 14.28 21.47 15.0132 20.6309C13.0178 20.956 10.9822 20.956 8.98682 20.6309Z" fill="currentColor"/>
<path d="M13 3C13 2.44772 12.5523 2 12 2C11.4477 2 11 2.44772 11 3C11 3.55228 11.4477 4 12 4C12.5523 4 13 3.55228 13 3Z" fill="currentColor"/>
</svg>
