<svg viewBox="0 0 24 24" fill="currentColor" xmlns="http://www.w3.org/2000/svg">
<path d="M8.98682 20.6309C9.72005 21.47 10.7981 22.0001 12 22.0001C13.2019 22.0001 14.28 21.47 15.0132 20.6309C13.0178 20.956 10.9822 20.956 8.98682 20.6309Z" fill="currentColor"/>
<path d="M12 3C8.52063 3 5.70002 5.82061 5.70002 9.3V11.0504C5.70002 11.6737 5.54497 12.2871 5.24884 12.8355L4.04045 15.0733C3.47924 16.1126 3.92166 17.4096 5.00098 17.8893C9.45687 19.8697 14.5432 19.8697 18.9991 17.8893C20.0784 17.4096 20.5208 16.1126 19.9596 15.0733L18.7512 12.8355C18.4551 12.2871 18.3 11.6737 18.3 11.0504V9.3C18.3 5.82061 15.4794 3 12 3ZM9.25 9C9.25 8.58579 9.58579 8.25 10 8.25H14C14.3033 8.25 14.5768 8.43273 14.6929 8.71299C14.809 8.99324 14.7448 9.31583 14.5303 9.53033L11.8107 12.25H14C14.4142 12.25 14.75 12.5858 14.75 13C14.75 13.4142 14.4142 13.75 14 13.75H10C9.69665 13.75 9.42318 13.5673 9.30709 13.287C9.191 13.0068 9.25517 12.6842 9.46967 12.4697L12.1893 9.75H10C9.58579 9.75 9.25 9.41421 9.25 9Z" fill="currentColor"/>
<path d="M13 3C13 2.44772 12.5523 2 12 2C11.4477 2 11 2.44772 11 3C11 3.55228 11.4477 4 12 4C12.5523 4 13 3.55228 13 3Z" fill="currentColor"/>
</svg>
