<svg viewBox="0 0 24 24" fill="currentColor" xmlns="http://www.w3.org/2000/svg">
<path d="M4 3C2.89543 3 2 3.89543 2 5V5.25H22V5C22 3.89543 21.1046 3 20 3H4Z" fill="currentColor"/>
<path d="M16 14C16 16.2091 14.2091 18 12 18C9.79086 18 8 16.2091 8 14C8 11.7909 9.79086 10 12 10C14.2091 10 16 11.7909 16 14ZM12.75 12C12.75 11.5858 12.4142 11.25 12 11.25C11.5858 11.25 11.25 11.5858 11.25 12V14C11.25 14.1989 11.329 14.3897 11.4697 14.5303L12.4697 15.5303C12.7626 15.8232 13.2374 15.8232 13.5303 15.5303C13.8232 15.2374 13.8232 14.7626 13.5303 14.4697L12.75 13.6893V12Z" fill="currentColor"/>
<path d="M22 6.75H2V19C2 20.1046 2.89543 21 4 21H20C21.1046 21 22 20.1046 22 19V6.75ZM12 19.5C8.96243 19.5 6.5 17.0376 6.5 14C6.5 10.9624 8.96243 8.5 12 8.5C15.0376 8.5 17.5 10.9624 17.5 14C17.5 17.0376 15.0376 19.5 12 19.5Z" fill="currentColor"/>
</svg>
