<svg viewBox="0 0 24 24" fill="currentColor" xmlns="http://www.w3.org/2000/svg">
<path d="M17 2.25C17.4142 2.25 17.75 2.58579 17.75 3V4H20C21.1046 4 22 4.89543 22 6V7.25H2V6C2 4.89543 2.89543 4 4 4H6.25V3C6.25 2.58579 6.58579 2.25 7 2.25C7.41421 2.25 7.75 2.58579 7.75 3V4H16.25V3C16.25 2.58579 16.5858 2.25 17 2.25Z" fill="currentColor"/>
<path d="M2 18V8.75H22V13.2251C20.9972 12.1629 19.576 11.5 18 11.5C14.9624 11.5 12.5 13.9624 12.5 17C12.5 18.1068 12.8269 19.1372 13.3895 20H4C2.89543 20 2 19.1046 2 18Z" fill="currentColor"/>
<path d="M22 17C22 19.2091 20.2091 21 18 21C15.7909 21 14 19.2091 14 17C14 14.7909 15.7909 13 18 13C20.2091 13 22 14.7909 22 17ZM15.25 17C15.25 17.4142 15.5858 17.75 16 17.75H20C20.4142 17.75 20.75 17.4142 20.75 17C20.75 16.5858 20.4142 16.25 20 16.25H16C15.5858 16.25 15.25 16.5858 15.25 17Z" fill="currentColor"/>
</svg>
