<svg viewBox="0 0 24 24" fill="currentColor" xmlns="http://www.w3.org/2000/svg">
<path d="M12 22C6.47715 22 2 17.5228 2 12C2 6.47715 6.47715 2 12 2V4.25C12.4142 4.25 12.75 4.58579 12.75 5V6C12.75 6.41421 12.4142 6.75 12 6.75V17.25C12.4142 17.25 12.75 17.5858 12.75 18V19C12.75 19.4142 12.4142 19.75 12 19.75V22ZM6.75 12C6.75 11.5858 6.41421 11.25 6 11.25H5C4.58579 11.25 4.25 11.5858 4.25 12C4.25 12.4142 4.58579 12.75 5 12.75H6C6.41421 12.75 6.75 12.4142 6.75 12ZM7.22699 15.7123L6.51989 16.4195C6.22699 16.7123 6.22699 17.1872 6.51989 17.4801C6.81278 17.773 7.28765 17.773 7.58055 17.4801L8.28765 16.773C8.58055 16.4801 8.58055 16.0052 8.28765 15.7123C7.99476 15.4195 7.51989 15.4195 7.22699 15.7123ZM8.28765 8.28765C8.58055 7.99476 8.58055 7.51989 8.28765 7.22699L7.58055 6.51989C7.28765 6.22699 6.81278 6.22699 6.51989 6.51989C6.22699 6.81278 6.22699 7.28765 6.51989 7.58055L7.22699 8.28765C7.51989 8.58055 7.99476 8.58055 8.28765 8.28765Z" fill="currentColor"/>
<path d="M19.7498 12C19.7498 11.5858 19.414 11.25 18.9998 11.25H17.9998C17.5855 11.25 17.2498 11.5858 17.2498 12C17.2498 12.4142 17.5855 12.75 17.9998 12.75H18.9998C19.414 12.75 19.7498 12.4142 19.7498 12Z" fill="currentColor"/>
<path d="M16.4194 6.51996C16.7123 6.22707 17.1871 6.22707 17.48 6.51996C17.7729 6.81286 17.7729 7.28773 17.48 7.58062L16.7729 8.28773C16.48 8.58062 16.0052 8.58062 15.7123 8.28773C15.4194 7.99484 15.4194 7.51996 15.7123 7.22707L16.4194 6.51996Z" fill="currentColor"/>
<path d="M17.4798 17.48C17.7727 17.1871 17.7727 16.7123 17.4798 16.4194L16.7727 15.7123C16.4798 15.4194 16.0049 15.4194 15.712 15.7123C15.4191 16.0052 15.4191 16.48 15.712 16.7729L16.4191 17.48C16.712 17.7729 17.1869 17.7729 17.4798 17.48Z" fill="currentColor"/>
</svg>
