<svg viewBox="0 0 24 24" fill="currentColor" xmlns="http://www.w3.org/2000/svg">
<path d="M16 6C16 8.20914 14.2091 10 12 10C9.79086 10 8 8.20914 8 6C8 3.79086 9.79086 2 12 2C14.2091 2 16 3.79086 16 6ZM12 3.25C11.5858 3.25 11.25 3.58579 11.25 4V6C11.25 6.19891 11.329 6.38968 11.4697 6.53033L12.4697 7.53033C12.7626 7.82322 13.2374 7.82322 13.5303 7.53033C13.8232 7.23744 13.8232 6.76256 13.5303 6.46967L12.75 5.68934V4C12.75 3.58579 12.4142 3.25 12 3.25Z" fill="currentColor"/>
<path d="M6.59069 7H5C3.89543 7 3 7.89543 3 9V18C3 19.1046 3.89543 20 5 20H19C20.1046 20 21 19.1046 21 18V9C21 7.89543 20.1046 7 19 7H17.4093C16.9391 9.56012 14.6961 11.5 12 11.5C9.30393 11.5 7.06094 9.56012 6.59069 7Z" fill="currentColor"/>
<path d="M1.25 22C1.25 21.5858 1.58579 21.25 2 21.25H22C22.4142 21.25 22.75 21.5858 22.75 22C22.75 22.4142 22.4142 22.75 22 22.75H2C1.58579 22.75 1.25 22.4142 1.25 22Z" fill="currentColor"/>
</svg>
