<svg viewBox="0 0 24 24" fill="currentColor" xmlns="http://www.w3.org/2000/svg">
<path d="M17 12C19.7614 12 22 9.76142 22 7C22 4.23858 19.7614 2 17 2C14.2386 2 12 4.23858 12 7C12 9.76142 14.2386 12 17 12ZM18.25 5V9C18.25 9.41421 17.9142 9.75 17.5 9.75C17.0858 9.75 16.75 9.41421 16.75 9V6.81066L16.5303 7.03033C16.2374 7.32322 15.7626 7.32322 15.4697 7.03033C15.1768 6.73744 15.1768 6.26256 15.4697 5.96967L16.9697 4.46967C17.1842 4.25517 17.5068 4.191 17.787 4.30709C18.0673 4.42318 18.25 4.69665 18.25 5Z" fill="currentColor"/>
<path d="M8.98682 20.6309C9.72005 21.47 10.7981 22.0001 12 22.0001C13.2019 22.0001 14.28 21.47 15.0132 20.6309C13.0178 20.956 10.9822 20.956 8.98682 20.6309Z" fill="currentColor"/>
<path d="M11.8752 3.00122C8.45342 3.06771 5.70002 5.86231 5.70002 9.30001V11.0505C5.70002 11.6737 5.54497 12.2871 5.24884 12.8355L4.04045 15.0733C3.47924 16.1126 3.92166 17.4096 5.00098 17.8893C9.45687 19.8697 14.5432 19.8697 18.9991 17.8893C20.0784 17.4096 20.5208 16.1126 19.9596 15.0733L18.9494 13.2026C18.334 13.3958 17.6792 13.5 17 13.5C13.4101 13.5 10.5 10.5899 10.5 7.00001C10.5 5.49203 11.0135 4.10399 11.8752 3.00122Z" fill="currentColor"/>
</svg>
