<svg viewBox="0 0 24 24" fill="currentColor" xmlns="http://www.w3.org/2000/svg">
<path d="M12 16C14.2091 16 16 14.2091 16 12C16 9.79086 14.2091 8 12 8C9.79086 8 8 9.79086 8 12C8 14.2091 9.79086 16 12 16ZM12.75 10V11.6893L13.5303 12.4697C13.8232 12.7626 13.8232 13.2374 13.5303 13.5303C13.2374 13.8232 12.7626 13.8232 12.4697 13.5303L11.4697 12.5303C11.329 12.3897 11.25 12.1989 11.25 12V10C11.25 9.58579 11.5858 9.25 12 9.25C12.4142 9.25 12.75 9.58579 12.75 10Z" fill="currentColor"/>
<path d="M3 7.74799C3 6.54541 3.6982 5.45562 4.78158 4.96721L10.7816 2.26228C11.5573 1.91257 12.4427 1.91257 13.2184 2.26228L19.2184 4.96721C20.3018 5.45562 21 6.54541 21 7.74799V12.8708C21 17.9127 14 22 12 22C10 22 3 17.9127 3 12.8708V7.74799ZM17.5 12C17.5 8.96243 15.0376 6.5 12 6.5C8.96243 6.5 6.5 8.96243 6.5 12C6.5 15.0376 8.96243 17.5 12 17.5C15.0376 17.5 17.5 15.0376 17.5 12Z" fill="currentColor"/>
</svg>
