<svg viewBox="0 0 24 24" fill="currentColor" xmlns="http://www.w3.org/2000/svg">
<path d="M4 5C4 3.34315 5.34315 2 7 2H15C16.6569 2 18 3.34315 18 5V5.5C14.9624 5.5 12.5 7.96243 12.5 11C12.5 14.0376 14.9624 16.5 18 16.5V19C18 20.6569 16.6569 22 15 22H7C5.34315 22 4 20.6569 4 19V5ZM7.25 19C7.25 19.4142 7.58579 19.75 8 19.75H14C14.4142 19.75 14.75 19.4142 14.75 19C14.75 18.5858 14.4142 18.25 14 18.25H8C7.58579 18.25 7.25 18.5858 7.25 19Z" fill="currentColor"/>
<path d="M18 15C20.2091 15 22 13.2091 22 11C22 8.79086 20.2091 7 18 7C15.7909 7 14 8.79086 14 11C14 13.2091 15.7909 15 18 15ZM18.75 9V10.6893L19.5303 11.4697C19.8232 11.7626 19.8232 12.2374 19.5303 12.5303C19.2374 12.8232 18.7626 12.8232 18.4697 12.5303L17.4697 11.5303C17.329 11.3897 17.25 11.1989 17.25 11V9C17.25 8.58579 17.5858 8.25 18 8.25C18.4142 8.25 18.75 8.58579 18.75 9Z" fill="currentColor"/>
</svg>
