<svg viewBox="0 0 24 24" fill="currentColor" xmlns="http://www.w3.org/2000/svg">
<path d="M22 12C22 17.5228 17.5228 22 12 22C6.47715 22 2 17.5228 2 12C2 6.47715 6.47715 2 12 2V4.25C12.4142 4.25 12.75 4.58579 12.75 5V6C12.75 6.41421 12.4142 6.75 12 6.75V12H17.25C17.25 11.5858 17.5858 11.25 18 11.25H19C19.4142 11.25 19.75 11.5858 19.75 12H22ZM12.75 18C12.75 17.5858 12.4142 17.25 12 17.25C11.5858 17.25 11.25 17.5858 11.25 18V19C11.25 19.4142 11.5858 19.75 12 19.75C12.4142 19.75 12.75 19.4142 12.75 19V18ZM4.25024 12C4.25024 12.4142 4.58603 12.75 5.00024 12.75H6.00024C6.41446 12.75 6.75024 12.4142 6.75024 12C6.75024 11.5858 6.41446 11.25 6.00024 11.25H5.00024C4.58603 11.25 4.25024 11.5858 4.25024 12ZM7.58062 6.52002C7.28773 6.22713 6.81286 6.22713 6.51996 6.52002C6.22707 6.81292 6.22707 7.28779 6.51996 7.58068L7.22707 8.28779C7.51996 8.58068 7.99484 8.58068 8.28773 8.28779C8.58062 7.9949 8.58062 7.52002 8.28773 7.22713L7.58062 6.52002ZM15.7123 15.7124C15.4195 16.0053 15.4195 16.4802 15.7123 16.7731L16.4195 17.4802C16.7123 17.7731 17.1872 17.7731 17.4801 17.4802C17.773 17.1873 17.773 16.7124 17.4801 16.4195L16.773 15.7124C16.4801 15.4195 16.0052 15.4195 15.7123 15.7124ZM6.52021 16.4193C6.22731 16.7122 6.22731 17.1871 6.52021 17.48C6.8131 17.7729 7.28797 17.7729 7.58087 17.48L8.28797 16.7729C8.58087 16.48 8.58087 16.0051 8.28797 15.7122C7.99508 15.4193 7.52021 15.4193 7.22731 15.7122L6.52021 16.4193Z" fill="currentColor"/>
<path d="M15.7123 7.22713C15.4195 7.52002 15.4195 7.99489 15.7123 8.28779C16.0052 8.58068 16.4801 8.58068 16.773 8.28779L17.4801 7.58068C17.773 7.28779 17.773 6.81291 17.4801 6.52002C17.1872 6.22713 16.7123 6.22713 16.4195 6.52002L15.7123 7.22713Z" fill="currentColor"/>
</svg>
