<svg viewBox="0 0 24 24" fill="currentColor" xmlns="http://www.w3.org/2000/svg">
<path d="M12 10C14.2091 10 16 8.20914 16 6C16 3.79086 14.2091 2 12 2C9.79086 2 8 3.79086 8 6C8 8.20914 9.79086 10 12 10ZM12.75 4V5.68934L13.5303 6.46967C13.8232 6.76256 13.8232 7.23744 13.5303 7.53033C13.2374 7.82322 12.7626 7.82322 12.4697 7.53033L11.4697 6.53033C11.329 6.38968 11.25 6.19891 11.25 6V4C11.25 3.58579 11.5858 3.25 12 3.25C12.4142 3.25 12.75 3.58579 12.75 4Z" fill="currentColor"/>
<path d="M17.5 6C17.5 9.03757 15.0376 11.5 12 11.5C8.96243 11.5 6.5 9.03757 6.5 6H4C2.89543 6 2 6.89543 2 8V17C2 18.1046 2.89543 19 4 19H10C10 19.7848 9.81358 20.5556 9.4596 21.25H7C6.58579 21.25 6.25 21.5858 6.25 22C6.25 22.4142 6.58579 22.75 7 22.75H17C17.4142 22.75 17.75 22.4142 17.75 22C17.75 21.5858 17.4142 21.25 17 21.25H14.5404C14.1864 20.5556 14 19.7848 14 19H20C21.1046 19 22 18.1046 22 17V8C22 6.89543 21.1046 6 20 6H17.5Z" fill="currentColor"/>
</svg>
