<svg viewBox="0 0 24 24" fill="currentColor" xmlns="http://www.w3.org/2000/svg">
<path d="M12 16C14.2091 16 16 14.2091 16 12C16 9.79086 14.2091 8 12 8C9.79086 8 8 9.79086 8 12C8 14.2091 9.79086 16 12 16ZM12.75 10V11.6893L13.5303 12.4697C13.8232 12.7626 13.8232 13.2374 13.5303 13.5303C13.2374 13.8232 12.7626 13.8232 12.4697 13.5303L11.4697 12.5303C11.329 12.3897 11.25 12.1989 11.25 12V10C11.25 9.58579 11.5858 9.25 12 9.25C12.4142 9.25 12.75 9.58579 12.75 10Z" fill="currentColor"/>
<path d="M12.7639 2H11.236C10.4785 2 9.78597 2.428 9.44718 3.10557L9.12957 3.7408C9.04598 3.90797 8.90491 4.03939 8.73224 4.11093C8.55952 4.1825 8.36677 4.18935 8.1894 4.13023L7.51574 3.90568C6.79707 3.66612 6.00473 3.85317 5.46907 4.38883L4.38871 5.46919C3.85304 6.00486 3.666 6.79719 3.90555 7.51586L4.13015 8.18964C4.18924 8.36694 4.18241 8.5596 4.1109 8.73227C4.03938 8.90495 3.90796 9.04604 3.74079 9.12963L3.10557 9.44724C2.428 9.78602 2 10.4785 2 11.2361V12.764C2 13.5215 2.428 14.214 3.10557 14.5528L3.7408 14.8704C3.90797 14.954 4.03938 15.0951 4.1109 15.2678C4.18242 15.4404 4.18926 15.6331 4.13016 15.8104L3.90557 16.4842C3.66601 17.2028 3.85306 17.9952 4.38872 18.5308L5.46909 19.6112C6.00475 20.1469 6.79709 20.3339 7.51576 20.0944L8.18945 19.8698C8.3668 19.8107 8.55952 19.8175 8.73223 19.8891C8.90491 19.9606 9.04598 20.092 9.12957 20.2592L9.44718 20.8944C9.78597 21.572 10.4785 22 11.236 22H12.7639C13.5214 22 14.214 21.572 14.5528 20.8944L14.8704 20.2592C14.954 20.092 15.095 19.9606 15.2677 19.8891C15.4404 19.8176 15.633 19.8108 15.8103 19.8699L16.4841 20.0945C17.2028 20.334 17.9951 20.147 18.5308 19.6113L19.6111 18.5309C20.1468 17.9953 20.3338 17.2029 20.0943 16.4843L19.8697 15.8106C19.8106 15.6332 19.8175 15.4405 19.889 15.2678C19.9605 15.0951 20.092 14.954 20.2592 14.8704L20.8944 14.5528C21.5719 14.214 21.9999 13.5215 21.9999 12.764V11.2361C21.9999 10.4785 21.5719 9.78602 20.8944 9.44724L20.2592 9.12964C20.092 9.04605 19.9606 8.90495 19.889 8.73225C19.8175 8.55955 19.8106 8.36684 19.8698 8.18951L20.0943 7.51579C20.3339 6.79712 20.1468 6.00478 19.6112 5.46912L18.5308 4.38876C17.9951 3.85309 17.2028 3.66605 16.4841 3.9056L15.8104 4.13018C15.6331 4.18929 15.4404 4.18245 15.2677 4.11091C15.095 4.03938 14.954 3.90797 14.8704 3.7408L14.5528 3.10557C14.214 2.428 13.5214 2 12.7639 2ZM17.5 12C17.5 15.0376 15.0376 17.5 12 17.5C8.96243 17.5 6.5 15.0376 6.5 12C6.5 8.96243 8.96243 6.5 12 6.5C15.0376 6.5 17.5 8.96243 17.5 12Z" fill="currentColor"/>
</svg>
