<svg viewBox="0 0 24 24" fill="currentColor" xmlns="http://www.w3.org/2000/svg">
<path d="M16 6C16 8.20914 14.2091 10 12 10C9.79086 10 8 8.20914 8 6C8 3.79086 9.79086 2 12 2C14.2091 2 16 3.79086 16 6ZM12 3.25C11.5858 3.25 11.25 3.58579 11.25 4V6C11.25 6.19891 11.329 6.38968 11.4697 6.53033L12.4697 7.53033C12.7626 7.82322 13.2374 7.82322 13.5303 7.53033C13.8232 7.23744 13.8232 6.76256 13.5303 6.46967L12.75 5.68934V4C12.75 3.58579 12.4142 3.25 12 3.25Z" fill="currentColor"/>
<path d="M12 11.5C15.0376 11.5 17.5 9.03757 17.5 6H20C21.1046 6 22 6.89543 22 8V17C22 18.1046 21.1046 19 20 19H12.75V21.25H15C15.4142 21.25 15.75 21.5858 15.75 22C15.75 22.4142 15.4142 22.75 15 22.75H9C8.58579 22.75 8.25 22.4142 8.25 22C8.25 21.5858 8.58579 21.25 9 21.25H11.25V19H4C2.89543 19 2 18.1046 2 17V8C2 6.89543 2.89543 6 4 6H6.5C6.5 9.03757 8.96243 11.5 12 11.5Z" fill="currentColor"/>
</svg>
