<svg viewBox="0 0 24 24" fill="currentColor" xmlns="http://www.w3.org/2000/svg">
<path d="M18.4612 14.3087L21.1069 16.7048C21.6015 17.1528 21.8488 17.3767 21.94 17.6412C22.02 17.8735 22.02 18.1265 21.94 18.3588C21.8488 18.6233 21.6015 18.8472 21.1069 19.2952L18.4612 21.6913C18.2367 21.8945 18.1245 21.9962 18.0292 21.9998C17.9464 22.003 17.8668 21.9666 17.8141 21.9014C17.7535 21.8264 17.7535 21.6734 17.7535 21.3675V19.8566C16.4629 19.8566 15.0999 20.279 14.1045 21.0286C13.5864 21.4189 13.3273 21.614 13.2286 21.6063C13.1324 21.5988 13.0714 21.5606 13.0215 21.4764C12.9703 21.3902 13.0155 21.1205 13.1059 20.5813C13.6932 17.0797 16.0584 16.1434 17.7535 16.1434V14.6325C17.7535 14.3266 17.7535 14.1736 17.8141 14.0986C17.8668 14.0334 17.9464 13.997 18.0292 14.0002C18.1245 14.0038 18.2367 14.1055 18.4612 14.3087Z" fill="currentColor"/>
<path d="M22 12C22 13.2578 21.7678 14.4614 21.3438 15.5703L19.1128 13.5497C19.0187 13.4645 18.9039 13.3604 18.7986 13.281C18.707 13.212 18.4425 13.0152 18.0673 13.0009C17.6652 12.9856 17.285 13.1627 17.0366 13.4697C16.8057 13.7552 16.7751 14.0761 16.7649 14.191C16.7533 14.3223 16.7534 14.4774 16.7535 14.6061V15.232C15.9794 15.3698 15.1554 15.6812 14.406 16.2555C13.3027 17.1011 12.4495 18.4493 12.1197 20.4159L12.1151 20.4432C12.0738 20.6892 12.036 20.9145 12.0167 21.0881C12.0067 21.178 11.9969 21.2923 12.0009 21.4097C12.0039 21.499 12.0162 21.7419 12.1614 21.9867L12.1686 21.9986C12.1125 21.9995 12.0563 22 12 22C6.47715 22 2 17.5228 2 12C2 6.47715 6.47715 2 12 2C17.5228 2 22 6.47715 22 12ZM11.25 6V11.6893L7.96967 14.9697C7.67678 15.2626 7.67678 15.7374 7.96967 16.0303C8.26256 16.3232 8.73744 16.3232 9.03033 16.0303L12.5303 12.5303C12.671 12.3897 12.75 12.1989 12.75 12V6C12.75 5.58579 12.4142 5.25 12 5.25C11.5858 5.25 11.25 5.58579 11.25 6Z" fill="currentColor"/>
</svg>
