<svg viewBox="0 0 24 24" fill="currentColor" xmlns="http://www.w3.org/2000/svg">
<path d="M10 2C8.89543 2 8 2.89543 8 4V5.65456C9.1577 4.92324 10.5294 4.5 12 4.5C13.4706 4.5 14.8423 4.92324 16 5.65456V4C16 2.89543 15.1046 2 14 2H10Z" fill="currentColor"/>
<path d="M8 18.3454C9.1577 19.0768 10.5294 19.5 12 19.5C13.4706 19.5 14.8423 19.0768 16 18.3454V20C16 21.1046 15.1046 22 14 22H10C8.89543 22 8 21.1046 8 20V18.3454Z" fill="currentColor"/>
<path d="M12 18C15.3137 18 18 15.3137 18 12C18 8.68629 15.3137 6 12 6C8.68629 6 6 8.68629 6 12C6 15.3137 8.68629 18 12 18ZM12.75 9V11.6893L14.5303 13.4697C14.8232 13.7626 14.8232 14.2374 14.5303 14.5303C14.2374 14.8232 13.7626 14.8232 13.4697 14.5303L11.4697 12.5303C11.329 12.3897 11.25 12.1989 11.25 12V9C11.25 8.58579 11.5858 8.25 12 8.25C12.4142 8.25 12.75 8.58579 12.75 9Z" fill="currentColor"/>
</svg>
