<svg viewBox="0 0 24 24" fill="currentColor" xmlns="http://www.w3.org/2000/svg">
<path d="M13.25 2H5C3.89543 2 3 2.89543 3 4V20C3 21.1046 3.89543 22 5 22H19C20.1046 22 21 21.1046 21 20V9.80721C21 9.78811 20.9997 9.76904 20.9992 9.75H15C14.0335 9.75 13.25 8.9665 13.25 8V2ZM10 10.25C10.4142 10.25 10.75 10.5858 10.75 11V14.25H14C14.4142 14.25 14.75 14.5858 14.75 15C14.75 15.4142 14.4142 15.75 14 15.75H10.75V19C10.75 19.4142 10.4142 19.75 10 19.75C9.58579 19.75 9.25 19.4142 9.25 19V15.75H6C5.58579 15.75 5.25 15.4142 5.25 15C5.25 14.5858 5.58579 14.25 6 14.25H9.25V11C9.25 10.5858 9.58579 10.25 10 10.25Z" fill="currentColor"/>
<path d="M20.2768 8.25L14.8399 2.61173C14.8108 2.58152 14.7808 2.55233 14.75 2.52418V8C14.75 8.13807 14.8619 8.25 15 8.25H20.2768Z" fill="currentColor"/>
</svg>
