<svg viewBox="0 0 24 24" fill="currentColor" xmlns="http://www.w3.org/2000/svg">
<path d="M18.75 5.85462C19.483 5.55793 20 4.83934 20 4C20 2.89543 19.1046 2 18 2C16.8954 2 16 2.89543 16 4C16 4.83934 16.517 5.55793 17.25 5.85462V7H14.8078L10.8078 17H15.1922L19.1922 7H18.75V5.85462Z" fill="currentColor"/>
<path d="M7.19222 7H6.75V5.85462C7.48296 5.55793 8 4.83934 8 4C8 2.89543 7.10457 2 6 2C4.89543 2 4 2.89543 4 4C4 4.83934 4.51704 5.55793 5.25 5.85462V7H3C2.44772 7 2 7.44772 2 8V16C2 16.5523 2.44772 17 3 17H3.19223L7.19222 7Z" fill="currentColor"/>
<path d="M7 17H9.19222L13.1922 7H8.80777L4.80778 17H4V21C4 21.5523 4.44772 22 5 22H6C6.55228 22 7 21.5523 7 21V17Z" fill="currentColor"/>
<path d="M20.8078 7L16.8078 17H17V21C17 21.5523 17.4477 22 18 22H19C19.5523 22 20 21.5523 20 21V17H21C21.5523 17 22 16.5523 22 16V8C22 7.44772 21.5523 7 21 7H20.8078Z" fill="currentColor"/>
</svg>
