<svg viewBox="0 0 24 24" fill="currentColor" xmlns="http://www.w3.org/2000/svg">
<path d="M2 5.5C2 3.567 3.567 2 5.5 2C7.433 2 9 3.567 9 5.5V9H5.5C3.567 9 2 7.433 2 5.5Z" fill="currentColor"/>
<path d="M15 9H9V15H5.5C3.567 15 2 16.567 2 18.5C2 20.433 3.567 22 5.5 22C7.433 22 9 20.433 9 18.5V15H15V18.5C15 20.433 16.567 22 18.5 22C20.433 22 22 20.433 22 18.5C22 16.567 20.433 15 18.5 15H15V9Z" fill="currentColor"/>
<path d="M15 9V5.5C15 3.567 16.567 2 18.5 2C20.433 2 22 3.567 22 5.5C22 7.433 20.433 9 18.5 9H15Z" fill="currentColor"/>
</svg>
