<svg viewBox="0 0 24 24" fill="currentColor" xmlns="http://www.w3.org/2000/svg">
<path d="M12 22C17.5228 22 22 17.5228 22 12C22 6.47715 17.5228 2 12 2C6.47715 2 2 6.47715 2 12C2 17.5228 6.47715 22 12 22ZM12 6.75C9.1005 6.75 6.75 9.1005 6.75 12C6.75 14.8995 9.1005 17.25 12 17.25C14.0042 17.25 15.7462 16.1269 16.6308 14.4757C16.7812 14.195 17.0634 14 17.3819 14C17.9116 14 18.2884 14.515 18.0534 14.9898C16.9509 17.2179 14.6544 18.75 12 18.75C8.27208 18.75 5.25 15.7279 5.25 12C5.25 8.27208 8.27208 5.25 12 5.25C14.6544 5.25 16.9509 6.78212 18.0534 9.01025C18.2884 9.485 17.9116 10 17.3819 10C17.0634 10 16.7812 9.80503 16.6308 9.52427C15.7462 7.87309 14.0042 6.75 12 6.75Z" fill="currentColor"/>
</svg>
