<svg viewBox="0 0 24 24" fill="currentColor" xmlns="http://www.w3.org/2000/svg">
<path d="M16.0303 8.53033C16.3232 8.23744 16.3232 7.76256 16.0303 7.46967C15.7374 7.17678 15.2626 7.17678 14.9697 7.46967L9.5 12.9393L7.03033 10.4697C6.73744 10.1768 6.26256 10.1768 5.96967 10.4697C5.67678 10.7626 5.67678 11.2374 5.96967 11.5303L8.96967 14.5303C9.26256 14.8232 9.73744 14.8232 10.0303 14.5303L16.0303 8.53033Z" fill="currentColor"/>
<path d="M11 1.25C5.61522 1.25 1.25 5.61522 1.25 11C1.25 16.3848 5.61522 20.75 11 20.75C13.4221 20.75 15.639 19.866 17.3436 18.4043L21.4697 22.5303C21.7626 22.8232 22.2374 22.8232 22.5303 22.5303C22.8232 22.2374 22.8232 21.7626 22.5303 21.4697L18.4043 17.3436C19.866 15.639 20.75 13.4221 20.75 11C20.75 5.61522 16.3848 1.25 11 1.25ZM2.75 11C2.75 6.44365 6.44365 2.75 11 2.75C15.5563 2.75 19.25 6.44365 19.25 11C19.25 13.2784 18.3274 15.3399 16.8336 16.8336C15.3399 18.3274 13.2784 19.25 11 19.25C6.44365 19.25 2.75 15.5563 2.75 11Z" fill="currentColor"/>
</svg>
