<svg viewBox="0 0 24 24" fill="currentColor" xmlns="http://www.w3.org/2000/svg">
<path d="M3.75 11C3.75 6.44365 7.44365 2.75 12 2.75C16.5563 2.75 20.25 6.44365 20.25 11V22C20.25 22.4142 20.5858 22.75 21 22.75C21.4142 22.75 21.75 22.4142 21.75 22V11C21.75 5.61522 17.3848 1.25 12 1.25C6.61522 1.25 2.25 5.61522 2.25 11V22C2.25 22.4142 2.58579 22.75 3 22.75C3.41421 22.75 3.75 22.4142 3.75 22V11Z" fill="currentColor"/>
<path d="M12 4.25C8.27208 4.25 5.25 7.27208 5.25 11V12C5.25 12.4142 5.58579 12.75 6 12.75C6.41421 12.75 6.75 12.4142 6.75 12V11C6.75 8.1005 9.1005 5.75 12 5.75C14.8995 5.75 17.25 8.10051 17.25 11V20C17.25 20.4142 17.5858 20.75 18 20.75C18.4142 20.75 18.75 20.4142 18.75 20V11C18.75 7.27208 15.7279 4.25 12 4.25Z" fill="currentColor"/>
<path d="M6.75 14.5C6.75 14.0858 6.41421 13.75 6 13.75C5.58579 13.75 5.25 14.0858 5.25 14.5V20C5.25 20.4142 5.58579 20.75 6 20.75C6.41421 20.75 6.75 20.4142 6.75 20V14.5Z" fill="currentColor"/>
<path d="M12 8.75C10.7574 8.75 9.75 9.75736 9.75 11V18C9.75 18.4142 9.41421 18.75 9 18.75C8.58579 18.75 8.25 18.4142 8.25 18V11C8.25 8.92893 9.92893 7.25 12 7.25C14.0711 7.25 15.75 8.92893 15.75 11C15.75 11.4142 15.4142 11.75 15 11.75C14.5858 11.75 14.25 11.4142 14.25 11C14.25 9.75736 13.2426 8.75 12 8.75Z" fill="currentColor"/>
<path d="M15 13.25C15.4142 13.25 15.75 13.5858 15.75 14V18C15.75 18.4142 15.4142 18.75 15 18.75C14.5858 18.75 14.25 18.4142 14.25 18V14C14.25 13.5858 14.5858 13.25 15 13.25Z" fill="currentColor"/>
<path d="M12.75 11C12.75 10.5858 12.4142 10.25 12 10.25C11.5858 10.25 11.25 10.5858 11.25 11V17C11.25 17.4142 11.5858 17.75 12 17.75C12.4142 17.75 12.75 17.4142 12.75 17V11Z" fill="currentColor"/>
</svg>
