<svg viewBox="0 0 24 24" fill="currentColor" xmlns="http://www.w3.org/2000/svg">
<path d="M12 22C17.5228 22 22 17.5228 22 12C22 6.47715 17.5228 2 12 2C6.47715 2 2 6.47715 2 12C2 17.5228 6.47715 22 12 22ZM7.05336 9.5823C7.40801 6.98998 9.48761 5 12 5C14.7614 5 17 7.40404 17 10.3696V17.1522C17 17.6204 16.6465 18 16.2105 18C15.7745 18 15.4211 17.6204 15.4211 17.1522V10.3696C15.4211 8.34052 13.8894 6.69565 12 6.69565C10.3613 6.69565 8.99173 7.93295 8.65711 9.58507C8.57056 10.0124 8.22549 10.3696 7.78947 10.3696C7.35346 10.3696 6.99426 10.0143 7.05336 9.5823ZM9.63158 10.3696C9.63158 8.96484 10.692 7.82609 12 7.82609C13.308 7.82609 14.3684 8.96484 14.3684 10.3696V11.0421C14.3684 11.4781 14.015 11.8316 13.5789 11.8316C13.1429 11.8316 12.7895 11.4781 12.7895 11.0421V10.3696C12.7895 9.90132 12.436 9.52174 12 9.52174C11.564 9.52174 11.2105 9.90132 11.2105 10.3696V15.7391C11.2105 16.2074 10.8571 16.587 10.4211 16.587C9.98504 16.587 9.63158 16.2074 9.63158 15.7391V10.3696ZM14.3684 15.7391C14.3684 16.2074 14.015 16.587 13.5789 16.587C13.1429 16.587 12.7895 16.2074 12.7895 15.7391V13.8655C12.7895 13.4295 13.1429 13.076 13.5789 13.076C14.015 13.076 14.3684 13.4295 14.3684 13.8655V15.7391ZM7.78947 18C7.35346 18 7 17.6204 7 17.1522V13.4199C7 12.9839 7.35346 12.6304 7.78947 12.6304C8.22549 12.6304 8.57895 12.9839 8.57895 13.4199V17.1522C8.57895 17.6204 8.22549 18 7.78947 18Z" fill="currentColor"/>
</svg>
