<svg viewBox="0 0 24 24" fill="currentColor" xmlns="http://www.w3.org/2000/svg">
<path d="M7.05752 21.7505C9.41749 22.202 12.6469 22.1644 14.6343 20.5843C15.3381 20.0576 15.8764 19.3428 16.456 18.628C16.663 18.3647 16.8286 18.139 17.0357 17.8756L18.402 16.2203C19.1886 15.3174 19.9339 14.4146 20.7205 13.5117C20.9689 13.2107 21.0518 12.8721 20.9689 12.5335C20.8861 12.2326 20.6791 11.9692 20.3479 11.7811C19.6026 11.4049 18.5676 11.6307 18.0293 12.3078L15.835 14.6779C15.7108 14.7908 15.5451 14.8284 15.3795 14.7908C15.2139 14.7531 15.0897 14.6027 15.0897 14.4522V4.13384C15.0897 3.50755 14.5521 2.99985 13.889 2.99985C13.2259 2.99985 12.6883 3.50755 12.6883 4.13384V10.6901C12.6883 10.9159 12.5227 11.0663 12.2743 11.0663C12.0259 11.0663 11.8603 10.9159 11.8603 10.6901V3.13399C11.8603 2.50771 11.3227 2 10.6596 2C9.99646 2 9.45889 2.50771 9.45889 3.13399V10.9159C9.45889 11.1416 9.29328 11.2921 9.04486 11.2921C8.79644 11.2921 8.63083 11.1416 8.63083 10.9159V3.92384C8.63083 3.29755 8.09327 2.78985 7.43014 2.78985C6.76702 2.78985 6.22945 3.29755 6.22945 3.92384V11.6683C6.22945 11.894 6.06384 12.0445 5.81542 12.0445C5.56701 12.0445 5.40139 11.894 5.40139 11.6683V6.13384C5.40139 5.50755 4.86383 4.99984 4.2007 4.99984C3.53758 4.99984 3.00002 5.50755 3.00002 6.13384V17.1608C3.00002 18.3647 2.95861 20.9605 7.05752 21.7505Z" fill="currentColor"/>
</svg>
