<svg viewBox="0 0 24 24" fill="currentColor" xmlns="http://www.w3.org/2000/svg">
<path d="M9.17994 5.50298C8.73611 5.95583 8.61278 6.48139 8.61278 6.74912C8.61278 7.46771 8.02789 8.05024 7.30639 8.05024C6.58489 8.05024 6 7.46771 6 6.74912C6 5.86751 6.34603 4.66907 7.31028 3.68526C8.30461 2.67073 9.8398 2 12 2C14.2514 2 15.8007 2.86875 16.7631 4.03192C17.677 5.13658 18 6.43098 18 7.27958C18 9.2692 16.7906 10.8481 15.7533 11.8801C15.2142 12.4164 14.6651 12.8607 14.2316 13.1947C14.0862 13.3068 13.9441 13.4137 13.8251 13.5033L13.68 13.6127C13.607 13.6681 13.5514 13.711 13.5088 13.7451C13.4776 13.7701 13.4625 13.7832 13.4583 13.7869L13.457 13.788C13.3501 13.8912 13.3285 13.9585 13.3216 13.9815C13.3103 14.0197 13.3064 14.0556 13.3064 14.1756V15.767C13.3064 16.4855 12.7215 17.0681 12 17.0681C11.2785 17.0681 10.6936 16.4855 10.6936 15.767V14.1756C10.6936 13.7997 10.7039 12.8172 11.6453 11.9129C11.7796 11.7839 11.961 11.6456 12.0974 11.5422C12.1533 11.4998 12.2094 11.4576 12.2671 11.4142C12.3798 11.3294 12.4985 11.24 12.6329 11.1365C13.0276 10.8324 13.4794 10.4643 13.9067 10.0392C14.802 9.14832 15.3872 8.2075 15.3872 7.27958C15.3872 6.97885 15.2408 6.28401 14.7467 5.68678C14.301 5.14805 13.5035 4.60224 12 4.60224C10.4053 4.60224 9.59369 5.08084 9.17994 5.50298Z" fill="currentColor"/>
<path d="M12.0001 22C12.8642 22 13.5647 21.3024 13.5647 20.4418C13.5647 19.5812 12.8642 18.8835 12.0001 18.8835C11.1361 18.8835 10.4356 19.5812 10.4356 20.4418C10.4356 21.3024 11.1361 22 12.0001 22Z" fill="currentColor"/>
</svg>
