<svg viewBox="0 0 24 24" fill="currentColor" xmlns="http://www.w3.org/2000/svg">
<path d="M12.75 1C12.75 0.585786 12.4142 0.25 12 0.25C11.5858 0.25 11.25 0.585786 11.25 1V2C11.25 2.41421 11.5858 2.75 12 2.75C12.4142 2.75 12.75 2.41421 12.75 2V1Z" fill="currentColor"/>
<path d="M16.0867 16.6838C15.4602 17.1351 15 17.8184 15 18.5905V19C15 19.5523 14.5523 20 14 20H10C9.44772 20 9 19.5523 9 19V18.5905C9 17.8184 8.53977 17.1351 7.91327 16.6838C6.14878 15.4129 5 13.3406 5 11C5 7.13401 8.13401 4 12 4C15.866 4 19 7.13401 19 11C19 13.3406 17.8512 15.4129 16.0867 16.6838ZM11.67 16.06C11.7833 16.18 11.9267 16.24 12.1 16.24C12.2733 16.24 12.4133 16.18 12.52 16.06C12.6333 15.9467 12.69 15.8067 12.69 15.64V15.0098C13.0569 14.9472 13.3836 14.8373 13.67 14.68C14.01 14.4933 14.2767 14.25 14.47 13.95C14.6633 13.6433 14.76 13.2933 14.76 12.9C14.76 12.4 14.6067 11.9933 14.3 11.68C14 11.3667 13.5333 11.14 12.9 11L11.79 10.76C11.4633 10.6867 11.2333 10.5933 11.1 10.48C10.9733 10.3667 10.91 10.2167 10.91 10.03C10.91 9.77667 11.0167 9.57 11.23 9.41C11.45 9.25 11.7567 9.17 12.15 9.17C12.4633 9.17 12.7267 9.2 12.94 9.26C13.1533 9.32 13.35 9.39333 13.53 9.48C13.7033 9.56667 13.8533 9.6 13.98 9.58C14.1133 9.55333 14.22 9.49667 14.3 9.41C14.38 9.31667 14.43 9.21 14.45 9.09C14.4767 8.97 14.4633 8.85 14.41 8.73C14.3633 8.61 14.2767 8.51 14.15 8.43C13.9167 8.26333 13.64 8.13667 13.32 8.05C13.1002 7.98451 12.8902 7.93872 12.69 7.91262V7.31C12.69 7.14333 12.6333 7.00333 12.52 6.89C12.4067 6.77 12.2667 6.71 12.1 6.71C11.9267 6.71 11.7833 6.77 11.67 6.89C11.5567 7.00333 11.5 7.14333 11.5 7.31V7.93909C11.1297 7.99453 10.7997 8.1015 10.51 8.26C10.1633 8.45333 9.89 8.70667 9.69 9.02C9.49667 9.33333 9.4 9.69 9.4 10.09C9.4 10.6033 9.55 11.0233 9.85 11.35C10.15 11.67 10.6067 11.8967 11.22 12.03L12.32 12.27C12.5467 12.3167 12.7267 12.3767 12.86 12.45C13 12.5167 13.0967 12.5967 13.15 12.69C13.21 12.7833 13.24 12.89 13.24 13.01C13.24 13.1567 13.1967 13.2867 13.11 13.4C13.03 13.5133 12.8967 13.6067 12.71 13.68C12.5233 13.7467 12.2767 13.78 11.97 13.78C11.5567 13.78 11.2067 13.7367 10.92 13.65C10.6333 13.5567 10.41 13.4667 10.25 13.38C10.0833 13.2933 9.93333 13.2667 9.8 13.3C9.67333 13.3333 9.57 13.4033 9.49 13.51C9.41 13.61 9.36333 13.73 9.35 13.87C9.33667 14.0033 9.35667 14.1333 9.41 14.26C9.47 14.3867 9.57333 14.4867 9.72 14.56C9.94667 14.68 10.23 14.79 10.57 14.89C10.8417 14.9699 11.1517 15.0221 11.5 15.0467V15.64C11.5 15.8067 11.5567 15.9467 11.67 16.06Z" fill="currentColor"/>
<path d="M9.25 22C9.25 21.5858 9.58579 21.25 10 21.25H14C14.4142 21.25 14.75 21.5858 14.75 22C14.75 22.4142 14.4142 22.75 14 22.75H10C9.58579 22.75 9.25 22.4142 9.25 22Z" fill="currentColor"/>
<path d="M4.75216 3.25238C5.04505 2.95949 5.51992 2.95949 5.81282 3.25238L6.51992 3.95949C6.81282 4.25238 6.81282 4.72726 6.51992 5.02015C6.22703 5.31305 5.75216 5.31305 5.45926 5.02015L4.75216 4.31305C4.45926 4.02015 4.45926 3.54528 4.75216 3.25238Z" fill="currentColor"/>
<path d="M18.1872 3.2519C18.4801 2.959 18.9549 2.959 19.2478 3.2519C19.5407 3.54479 19.5407 4.01966 19.2478 4.31256L18.5407 5.01966C18.2478 5.31256 17.773 5.31256 17.4801 5.01966C17.1872 4.72677 17.1872 4.2519 17.4801 3.959L18.1872 3.2519Z" fill="currentColor"/>
<path d="M1.7498 10.5C1.7498 10.9142 2.08559 11.25 2.4998 11.25H3.4998C3.91402 11.25 4.2498 10.9142 4.2498 10.5C4.2498 10.0858 3.91402 9.75 3.4998 9.75H2.4998C2.08559 9.75 1.7498 10.0858 1.7498 10.5Z" fill="currentColor"/>
<path d="M20.5002 11.25C20.086 11.25 19.7502 10.9142 19.7502 10.5C19.7502 10.0858 20.086 9.75 20.5002 9.75H21.5002C21.9144 9.75 22.2502 10.0858 22.2502 10.5C22.2502 10.9142 21.9144 11.25 21.5002 11.25H20.5002Z" fill="currentColor"/>
</svg>
