<svg viewBox="0 0 24 24" fill="currentColor" xmlns="http://www.w3.org/2000/svg">
<path d="M12 2C10.8954 2 10 2.89543 10 4V6.5H16C17.933 6.5 19.5 8.067 19.5 10H20C21.1046 10 22 9.10457 22 8V4C22 2.89543 21.1046 2 20 2H12Z" fill="currentColor"/>
<path d="M2 16C2 14.8954 2.89543 14 4 14H12C13.1046 14 14 14.8954 14 16V20C14 21.1046 13.1046 22 12 22H4C2.89543 22 2 21.1046 2 20V16Z" fill="currentColor"/>
<path d="M8 8C6.89543 8 6 8.89543 6 10V12.5H12C13.933 12.5 15.5 14.067 15.5 16H16C17.1046 16 18 15.1046 18 14V10C18 8.89543 17.1046 8 16 8H8Z" fill="currentColor"/>
</svg>
