<svg viewBox="0 0 24 24" fill="currentColor" xmlns="http://www.w3.org/2000/svg">
<path d="M3 4C2.44772 4 2 4.44772 2 5V9C2 9.55228 2.44772 10 3 10H7C7.55228 10 8 9.55228 8 9V5C8 4.44772 7.55228 4 7 4H3Z" fill="currentColor"/>
<path d="M3 14C2.44772 14 2 14.4477 2 15V19C2 19.5523 2.44772 20 3 20H7C7.55228 20 8 19.5523 8 19V15C8 14.4477 7.55228 14 7 14H3Z" fill="currentColor"/>
<path d="M10 5C10 4.58579 10.3358 4.25 10.75 4.25H21.25C21.6642 4.25 22 4.58579 22 5C22 5.41421 21.6642 5.75 21.25 5.75H10.75C10.3358 5.75 10 5.41421 10 5Z" fill="currentColor"/>
<path d="M10 9C10 8.58579 10.3358 8.25 10.75 8.25H17.75C18.1642 8.25 18.5 8.58579 18.5 9C18.5 9.41421 18.1642 9.75 17.75 9.75H10.75C10.3358 9.75 10 9.41421 10 9Z" fill="currentColor"/>
<path d="M10.75 14.25C10.3358 14.25 10 14.5858 10 15C10 15.4142 10.3358 15.75 10.75 15.75H21.25C21.6642 15.75 22 15.4142 22 15C22 14.5858 21.6642 14.25 21.25 14.25H10.75Z" fill="currentColor"/>
<path d="M10.75 18.25C10.3358 18.25 10 18.5858 10 19C10 19.4142 10.3358 19.75 10.75 19.75H17.75C18.1642 19.75 18.5 19.4142 18.5 19C18.5 18.5858 18.1642 18.25 17.75 18.25H10.75Z" fill="currentColor"/>
</svg>
