<svg viewBox="0 0 24 24" fill="currentColor" xmlns="http://www.w3.org/2000/svg">
<path d="M3.01205 8C3.57099 8 4.0241 7.55228 4.0241 7C4.0241 6.44772 3.57099 6 3.01205 6C2.45311 6 2 6.44772 2 7C2 7.55228 2.45311 8 3.01205 8Z" fill="currentColor"/>
<path d="M3.01205 13C3.57099 13 4.0241 12.5523 4.0241 12C4.0241 11.4477 3.57099 11 3.01205 11C2.45311 11 2 11.4477 2 12C2 12.5523 2.45311 13 3.01205 13Z" fill="currentColor"/>
<path d="M4.0241 17C4.0241 17.5523 3.57099 18 3.01205 18C2.45311 18 2 17.5523 2 17C2 16.4477 2.45311 16 3.01205 16C3.57099 16 4.0241 16.4477 4.0241 17Z" fill="currentColor"/>
<path d="M7.06025 6.25C6.64105 6.25 6.30121 6.58579 6.30121 7C6.30121 7.41421 6.64105 7.75 7.06025 7.75H21.241C21.6602 7.75 22 7.41421 22 7C22 6.58579 21.6602 6.25 21.241 6.25H7.06025Z" fill="currentColor"/>
<path d="M6.30121 12C6.30121 11.5858 6.64105 11.25 7.06025 11.25H21.241C21.6602 11.25 22 11.5858 22 12C22 12.4142 21.6602 12.75 21.241 12.75H7.06025C6.64105 12.75 6.30121 12.4142 6.30121 12Z" fill="currentColor"/>
<path d="M7.06025 16.25C6.64105 16.25 6.30121 16.5858 6.30121 17C6.30121 17.4142 6.64105 17.75 7.06025 17.75H21.241C21.6602 17.75 22 17.4142 22 17C22 16.5858 21.6602 16.25 21.241 16.25H7.06025Z" fill="currentColor"/>
</svg>
