<svg viewBox="0 0 24 24" fill="currentColor" xmlns="http://www.w3.org/2000/svg">
<path d="M9.75 15C9.75 13.7574 10.7574 12.75 12 12.75C13.2426 12.75 14.25 13.7574 14.25 15C14.25 16.2426 13.2426 17.25 12 17.25C10.7574 17.25 9.75 16.2426 9.75 15Z" fill="currentColor"/>
<path d="M7.25 6.75C7.25 4.12665 9.37665 2 12 2C14.6234 2 16.75 4.12665 16.75 6.75V8H18C19.1046 8 20 8.89543 20 10V20C20 21.1046 19.1046 22 18 22H6C4.89543 22 4 21.1046 4 20V10C4 8.89543 4.89543 8 6 8H7.25V6.75ZM12 3.5C10.2051 3.5 8.75 4.95507 8.75 6.75V8H15.25V6.75C15.25 4.95507 13.7949 3.5 12 3.5ZM12 11.25C9.92893 11.25 8.25 12.9289 8.25 15C8.25 17.0711 9.92893 18.75 12 18.75C14.0711 18.75 15.75 17.0711 15.75 15C15.75 12.9289 14.0711 11.25 12 11.25Z" fill="currentColor"/>
</svg>
