<svg viewBox="0 0 24 24" fill="currentColor" xmlns="http://www.w3.org/2000/svg">
<path d="M12 2.75C11.1752 2.75 10.4238 3.05623 9.85047 3.5623C9.53992 3.8364 9.06597 3.80685 8.79187 3.4963C8.51777 3.18575 8.54732 2.71179 8.85787 2.4377C9.69476 1.69904 10.7959 1.25 12 1.25C14.6233 1.25 16.75 3.37665 16.75 6V7.56216C18.7215 9.01922 20 11.3603 20 14C20 18.4183 16.4183 22 12 22C7.58172 22 4 18.4183 4 14C4 9.58172 7.58172 6 12 6C13.1572 6 14.2569 6.24568 15.25 6.68772V6C15.25 4.20507 13.7949 2.75 12 2.75ZM12.75 14C12.75 13.5858 12.4142 13.25 12 13.25C11.5858 13.25 11.25 13.5858 11.25 14V18C11.25 18.4142 11.5858 18.75 12 18.75C12.4142 18.75 12.75 18.4142 12.75 18V14Z" fill="currentColor"/>
</svg>
