<svg viewBox="0 0 24 24" fill="currentColor" xmlns="http://www.w3.org/2000/svg">
<path d="M7.75 4.75C7.75 4.05964 8.30964 3.5 9 3.5H15C15.6904 3.5 16.25 4.05964 16.25 4.75V9H5C3.89543 9 3 9.89543 3 11V20C3 21.1046 3.89543 22 5 22H19C20.1046 22 21 21.1046 21 20V11C21 9.89543 20.1046 9 19 9H17.75V4.75C17.75 3.23122 16.5188 2 15 2H9C7.48122 2 6.25 3.23122 6.25 4.75V5.75C6.25 6.16421 6.58579 6.5 7 6.5C7.41421 6.5 7.75 6.16421 7.75 5.75V4.75ZM12 12.25C12.4142 12.25 12.75 12.5858 12.75 13V18C12.75 18.4142 12.4142 18.75 12 18.75C11.5858 18.75 11.25 18.4142 11.25 18V13C11.25 12.5858 11.5858 12.25 12 12.25Z" fill="currentColor"/>
</svg>
