<svg viewBox="0 0 24 24" fill="currentColor" xmlns="http://www.w3.org/2000/svg">
<path d="M14.9293 2H5C3.34315 2 2 3.34315 2 5V19C2 20.6569 3.34315 22 5 22H19C20.6569 22 22 20.6569 22 19V9.07072C21.0981 9.95484 19.8627 10.5 18.5 10.5C15.7386 10.5 13.5 8.26142 13.5 5.5C13.5 4.13727 14.0452 2.90188 14.9293 2ZM6 13.25H11C11.4142 13.25 11.75 13.5858 11.75 14C11.75 14.4142 11.4142 14.75 11 14.75H6C5.58579 14.75 5.25 14.4142 5.25 14C5.25 13.5858 5.58579 13.25 6 13.25ZM5.25 18C5.25 17.5858 5.58579 17.25 6 17.25H15C15.4142 17.25 15.75 17.5858 15.75 18C15.75 18.4142 15.4142 18.75 15 18.75H6C5.58579 18.75 5.25 18.4142 5.25 18Z" fill="currentColor"/>
<path d="M22 5.5C22 7.433 20.433 9 18.5 9C16.567 9 15 7.433 15 5.5C15 3.567 16.567 2 18.5 2C20.433 2 22 3.567 22 5.5Z" fill="currentColor"/>
</svg>
