<svg viewBox="0 0 24 24" fill="currentColor" xmlns="http://www.w3.org/2000/svg">
<path d="M4 3C4 2.44772 4.44772 2 5 2H17C18.6569 2 20 3.34315 20 5V19C20 20.6569 18.6569 22 17 22H5C4.44772 22 4 21.5523 4 21V3ZM11.6325 13.8408C11.8352 14.0531 12.164 14.0531 12.3668 13.8408C12.5661 13.6321 12.7008 13.3676 12.7564 13.0815L12.9997 13.1781L13.6283 13.4413C13.8788 13.5462 14.004 13.5987 14.0999 13.5548C14.1279 13.5419 14.1534 13.5239 14.1752 13.5014C14.2497 13.4245 14.2497 13.2833 14.2498 13.0008C14.2498 12.9162 14.2498 12.6357 14.1451 12.526L12.8613 11.5141L12.9662 9.70291L13.25 9.77547L16.3711 10.6466C16.6601 10.7273 16.8046 10.7676 16.9022 10.689C16.9999 10.6104 17 10.4539 17 10.1408V10.0739C17.0001 9.72379 16.833 9.39686 16.5548 9.20267L13.1337 6.81593L13.1936 5.77941C13.2291 5.16676 12.9779 4.57431 12.5202 4.19092C12.2162 3.93634 11.7843 3.93636 11.4803 4.19098C11.0225 4.57443 10.7712 5.16691 10.8067 5.77956L10.8666 6.81607L7.44524 9.20323C7.16699 9.39745 6.99998 9.70815 7 10.0583V10.0594C7.00001 10.3719 7.00002 10.6111 7.09759 10.6896C7.19527 10.7681 7.33974 10.7278 7.62867 10.6471L10.7499 9.77562L11.0336 9.70303L11.1383 11.5142L9.91752 12.3962C9.89581 12.4119 9.88495 12.4197 9.84891 12.4648C9.81963 12.5013 9.81515 12.5058 9.81417 12.507C9.81429 12.5067 9.81394 12.5072 9.81417 12.507C9.75013 12.6562 9.74973 12.9286 9.74973 12.9286C9.74971 13.2788 9.74972 13.4541 9.85954 13.532C9.96938 13.6098 10.1247 13.5447 10.4354 13.4146L10.9997 13.1783L11.2429 13.0816C11.2985 13.3677 11.4332 13.6322 11.6325 13.8408ZM8 15.75C7.58579 15.75 7.25 16.0858 7.25 16.5C7.25 16.9142 7.58579 17.25 8 17.25H16C16.4142 17.25 16.75 16.9142 16.75 16.5C16.75 16.0858 16.4142 15.75 16 15.75H8ZM10 18.75C9.58579 18.75 9.25 19.0858 9.25 19.5C9.25 19.9142 9.58579 20.25 10 20.25H14C14.4142 20.25 14.75 19.9142 14.75 19.5C14.75 19.0858 14.4142 18.75 14 18.75H10Z" fill="currentColor"/>
</svg>
