<svg viewBox="0 0 24 24" fill="currentColor" xmlns="http://www.w3.org/2000/svg">
<path d="M4 3C4 2.44772 4.44772 2 5 2H17C18.6569 2 20 3.34315 20 5V19C20 20.6569 18.6569 22 17 22H5C4.44772 22 4 21.5523 4 21V3ZM7.25 16C7.25 16.4142 7.58579 16.75 8 16.75H16C16.4142 16.75 16.75 16.4142 16.75 16C16.75 15.5858 16.4142 15.25 16 15.25H8C7.58579 15.25 7.25 15.5858 7.25 16ZM9.25 19C9.25 19.4142 9.58579 19.75 10 19.75H14C14.4142 19.75 14.75 19.4142 14.75 19C14.75 18.5858 14.4142 18.25 14 18.25H10C9.58579 18.25 9.25 18.5858 9.25 19ZM13.6391 4.2749C13.8225 4.54638 13.9787 4.85638 14.1106 5.18597C14.4452 6.02251 14.663 7.08741 14.7289 8.25005H16.9441C16.6651 6.39541 15.3675 4.87437 13.6391 4.2749ZM9.27108 8.25005C9.33697 7.08741 9.55481 6.02251 9.88943 5.18597C10.0213 4.85638 10.1775 4.54638 10.3609 4.2749C8.63252 4.87437 7.33486 6.39541 7.05588 8.25005H9.27108ZM10.3609 13.7252C10.1775 13.4537 10.0213 13.1437 9.88943 12.8141C9.55481 11.9776 9.33697 10.9127 9.27108 9.75005H7.05588C7.33486 11.6047 8.63252 13.1257 10.3609 13.7252ZM13.6391 13.7252C15.3675 13.1257 16.6651 11.6047 16.9441 9.75005H14.7289C14.663 10.9127 14.4452 11.9776 14.1106 12.8141C13.9787 13.1437 13.8225 13.4537 13.6391 13.7252ZM12.7179 5.74306C12.5578 5.34294 12.386 5.06947 12.2336 4.9083C12.0837 4.74985 12.0044 4.75004 11.9999 4.75005C11.9954 4.75004 11.9163 4.74985 11.7664 4.9083C11.614 5.06947 11.4422 5.34294 11.2821 5.74306C11.0261 6.38318 10.8378 7.25291 10.7738 8.25005H13.2262C13.1622 7.25291 12.9739 6.38318 12.7179 5.74306ZM10.7738 9.75005C10.8378 10.7472 11.0261 11.6169 11.2821 12.257C11.4422 12.6572 11.614 12.9306 11.7664 13.0918C11.9163 13.2502 11.9956 13.2501 12.0001 13.25C12.0046 13.2501 12.0837 13.2502 12.2336 13.0918C12.386 12.9306 12.5578 12.6572 12.7179 12.257C12.9739 11.6169 13.1622 10.7472 13.2262 9.75005H10.7738Z" fill="currentColor"/>
</svg>
