<svg viewBox="0 0 24 24" fill="currentColor" xmlns="http://www.w3.org/2000/svg">
<path d="M6 2H17.25C17.6642 2 18 2.34004 18 2.75949C18 3.17895 17.6642 3.51899 17.25 3.51899H6.5C6.2523 3.51899 6.02563 3.66112 5.85095 3.86834C5.495 4.29062 5.94772 4.78481 6.5 4.78481H19C19.5523 4.78481 20 5.23819 20 5.79747V20.9873C20 21.5466 19.5523 22 19 22H6C4.89543 22 4 21.0932 4 19.9747V4.02532C4 2.90677 4.89543 2 6 2ZM11.6325 16.8408C11.8352 17.0531 12.164 17.0531 12.3668 16.8408C12.5661 16.6321 12.7008 16.3676 12.7564 16.0815L12.9997 16.1781L13.6283 16.4413C13.8788 16.5462 14.0041 16.5987 14.0999 16.5548C14.1279 16.5419 14.1534 16.5239 14.1752 16.5014C14.2497 16.4245 14.2497 16.2833 14.2498 16.0008C14.2498 15.9162 14.2498 15.6357 14.1451 15.526L12.8613 14.5141L12.9662 12.7029L13.25 12.7755L16.3711 13.6466C16.6601 13.7273 16.8046 13.7676 16.9022 13.689C16.9999 13.6104 17 13.4539 17 13.1408V13.0739C17.0001 12.7238 16.833 12.3969 16.5547 12.2027L13.1337 9.81593L13.1936 8.77941C13.2291 8.16676 12.9779 7.57431 12.5202 7.19092C12.2162 6.93634 11.7843 6.93636 11.4803 7.19098C11.0225 7.57443 10.7712 8.16691 10.8067 8.77956L10.8666 9.81607L7.44524 12.2032C7.16699 12.3974 6.99998 12.7082 7 13.0583V13.0594C7.00001 13.3719 7.00003 13.6111 7.09759 13.6895C7.19527 13.7681 7.33974 13.7278 7.62867 13.6471L10.7499 12.7756L11.0336 12.703L11.1383 14.5142L9.91752 15.3962C9.89581 15.4119 9.88495 15.4197 9.84891 15.4648C9.81992 15.5009 9.8142 15.5069 9.8142 15.5069C9.75016 15.6561 9.74973 15.9286 9.74973 15.9286C9.74971 16.2788 9.74972 16.4541 9.85954 16.532C9.96938 16.6098 10.1247 16.5447 10.4354 16.4146L10.9997 16.1783L11.2429 16.0816C11.2985 16.3677 11.4332 16.6322 11.6325 16.8408ZM8 18.25C7.58579 18.25 7.25 18.5858 7.25 19C7.25 19.4142 7.58579 19.75 8 19.75H16C16.4142 19.75 16.75 19.4142 16.75 19C16.75 18.5858 16.4142 18.25 16 18.25H8Z" fill="currentColor"/>
</svg>
