<svg viewBox="0 0 24 24" fill="currentColor" xmlns="http://www.w3.org/2000/svg">
<path d="M3.21284 13.8722L9.63452 9.68258C10.1218 9.36465 10.1218 8.63535 9.63452 8.31742L3.21284 4.1278C2.68748 3.78504 2 4.17195 2 4.81038V13.1896C2.00001 13.828 2.68748 14.215 3.21284 13.8722Z" fill="currentColor"/>
<path d="M13 5.25C12.5858 5.25 12.25 5.58579 12.25 6C12.25 6.41421 12.5858 6.75 13 6.75H22C22.4142 6.75 22.75 6.41421 22.75 6C22.75 5.58579 22.4142 5.25 22 5.25H13Z" fill="currentColor"/>
<path d="M2 17.25C1.58579 17.25 1.25 17.5858 1.25 18C1.25 18.4142 1.58579 18.75 2 18.75H22C22.4142 18.75 22.75 18.4142 22.75 18C22.75 17.5858 22.4142 17.25 22 17.25H2Z" fill="currentColor"/>
<path d="M12.25 12C12.25 11.5858 12.5858 11.25 13 11.25H22C22.4142 11.25 22.75 11.5858 22.75 12C22.75 12.4142 22.4142 12.75 22 12.75H13C12.5858 12.75 12.25 12.4142 12.25 12Z" fill="currentColor"/>
</svg>
