<svg viewBox="0 0 24 24" fill="currentColor" xmlns="http://www.w3.org/2000/svg">
<path d="M2 5.25C1.58579 5.25 1.25 5.58579 1.25 6C1.25 6.41421 1.58579 6.75 2 6.75H22C22.4142 6.75 22.75 6.41421 22.75 6C22.75 5.58579 22.4142 5.25 22 5.25H2Z" fill="currentColor"/>
<path d="M2 11.25C1.58579 11.25 1.25 11.5858 1.25 12C1.25 12.4142 1.58579 12.75 2 12.75H11C11.4142 12.75 11.75 12.4142 11.75 12C11.75 11.5858 11.4142 11.25 11 11.25H2Z" fill="currentColor"/>
<path d="M1.25 18C1.25 17.5858 1.58579 17.25 2 17.25H11C11.4142 17.25 11.75 17.5858 11.75 18C11.75 18.4142 11.4142 18.75 11 18.75H2C1.58579 18.75 1.25 18.4142 1.25 18Z" fill="currentColor"/>
<path d="M15.2128 19.8722L21.6345 15.6826C22.1218 15.3647 22.1218 14.6353 21.6345 14.3174L15.2128 10.1278C14.6875 9.78504 14 10.172 14 10.8104V19.1896C14 19.828 14.6875 20.215 15.2128 19.8722Z" fill="currentColor"/>
</svg>
