<svg viewBox="0 0 24 24" fill="currentColor" xmlns="http://www.w3.org/2000/svg">
<path d="M2.04435 12.2873C1.84502 11.6457 2.34256 11 3.03624 11H20.9638C21.6574 11 22.155 11.6457 21.9556 12.2873L19.6917 19.5747C19.4289 20.4207 18.6226 21 17.7079 21H6.29206C5.37744 21 4.57111 20.4207 4.30829 19.5747L2.04435 12.2873Z" fill="currentColor"/>
<path d="M2.67996 9.52313C2.79603 9.5079 2.91492 9.5 3.03621 9.5H20.9637C21.085 9.5 21.204 9.5079 21.32 9.52314V7.625C21.32 6.52043 20.3928 5.625 19.2489 5.625H13.7729C13.2337 5.625 12.7157 5.42194 12.3291 5.05899L10.7389 3.56601C10.3523 3.20306 9.83433 3 9.29514 3H4.75108C3.60723 3 2.67996 3.89543 2.67996 5V9.52313Z" fill="currentColor"/>
</svg>
