<svg viewBox="0 0 24 24" fill="currentColor" xmlns="http://www.w3.org/2000/svg">
<path d="M5 4C3.34315 4 2 5.34315 2 7C2 8.65685 3.34315 10 5 10C6.65685 10 8 8.65685 8 7C8 5.34315 6.65685 4 5 4Z" fill="currentColor"/>
<path d="M5 14C3.34315 14 2 15.3431 2 17C2 18.6569 3.34315 20 5 20C6.65685 20 8 18.6569 8 17C8 15.3431 6.65685 14 5 14Z" fill="currentColor"/>
<path d="M10 5C10 4.58579 10.3358 4.25 10.75 4.25H21.25C21.6642 4.25 22 4.58579 22 5C22 5.41421 21.6642 5.75 21.25 5.75H10.75C10.3358 5.75 10 5.41421 10 5Z" fill="currentColor"/>
<path d="M10 9C10 8.58579 10.3358 8.25 10.75 8.25H18C18.4142 8.25 18.75 8.58579 18.75 9C18.75 9.41421 18.4142 9.75 18 9.75H10.75C10.3358 9.75 10 9.41421 10 9Z" fill="currentColor"/>
<path d="M10.75 14.25C10.3358 14.25 10 14.5858 10 15C10 15.4142 10.3358 15.75 10.75 15.75H21.25C21.6642 15.75 22 15.4142 22 15C22 14.5858 21.6642 14.25 21.25 14.25H10.75Z" fill="currentColor"/>
<path d="M10.75 18.25C10.3358 18.25 10 18.5858 10 19C10 19.4142 10.3358 19.75 10.75 19.75H18C18.4142 19.75 18.75 19.4142 18.75 19C18.75 18.5858 18.4142 18.25 18 18.25H10.75Z" fill="currentColor"/>
</svg>
