<svg viewBox="0 0 24 24" fill="currentColor" xmlns="http://www.w3.org/2000/svg">
<path d="M5 2C3.34315 2 2 3.34315 2 5V19C2 20.6569 3.34315 22 5 22H19C20.6569 22 22 20.6569 22 19V5C22 3.34315 20.6569 2 19 2H5ZM18.5303 8.53033L10.5303 16.5303C10.2374 16.8232 9.76256 16.8232 9.46967 16.5303L5.46967 12.5303C5.17678 12.2374 5.17678 11.7626 5.46967 11.4697C5.76256 11.1768 6.23744 11.1768 6.53033 11.4697L10 14.9393L17.4697 7.46967C17.7626 7.17678 18.2374 7.17678 18.5303 7.46967C18.8232 7.76256 18.8232 8.23744 18.5303 8.53033Z" fill="currentColor"/>
</svg>
