<svg viewBox="0 0 24 24" fill="currentColor" xmlns="http://www.w3.org/2000/svg">
<path d="M17.8004 18.8442C18.1616 17.0086 18.1315 14.4968 16.8674 12.9511C16.4461 12.4037 15.8743 11.985 15.3024 11.5342C15.0918 11.3732 14.9112 11.2444 14.7005 11.0834L13.3763 10.0207C12.654 9.40885 11.9316 8.82921 11.2093 8.21737C10.9686 8.02415 10.6977 7.95975 10.4268 8.02415C10.1861 8.08856 9.97539 8.24957 9.82491 8.50719C9.52394 9.08683 9.70452 9.89189 10.2463 10.3105L12.1423 12.0172C12.2326 12.1139 12.2627 12.2427 12.2326 12.3715C12.2025 12.5003 12.0821 12.5969 11.9617 12.5969H3.70707C3.20604 12.5969 2.79988 13.015 2.79988 13.5308C2.79988 14.0465 3.20604 14.4646 3.70707 14.4646H8.95212C9.13269 14.4646 9.25308 14.5934 9.25308 14.7867C9.25308 14.9799 9.13269 15.1087 8.95212 15.1087H2.90719C2.40616 15.1087 2 15.5268 2 16.0425C2 16.5583 2.40616 16.9764 2.90719 16.9764H9.13269C9.31327 16.9764 9.43366 17.1052 9.43366 17.2984C9.43366 17.4917 9.31327 17.6205 9.13269 17.6205H3.53907C3.03804 17.6205 2.63188 18.0386 2.63188 18.5543C2.63188 19.0701 3.03804 19.4882 3.53907 19.4882H9.73462C9.9152 19.4882 10.0356 19.617 10.0356 19.8102C10.0356 20.0034 9.9152 20.1322 9.73462 20.1322H5.30707C4.80604 20.1322 4.39988 20.5504 4.39988 21.0661C4.39988 21.5819 4.80604 22 5.30707 22H14.1287C15.0918 22 17.1684 22.0322 17.8004 18.8442Z" fill="currentColor"/>
<path d="M8.04457 11.0971H8.90781C8.34598 10.4428 8.08579 9.55304 8.20952 8.70218C7.89414 8.60967 7.53551 8.69434 7.28165 8.95397C6.91368 9.33032 6.90516 9.93178 7.26262 10.2974L8.04457 11.0971Z" fill="currentColor"/>
<path d="M8.46877 7.86534C8.47689 7.8489 8.48519 7.83251 8.49367 7.81619L8.51087 7.78306L8.5297 7.75083C8.83727 7.22428 9.3109 6.81007 9.91007 6.61371L9.12583 5.81163C8.76837 5.44603 8.18029 5.45475 7.81232 5.83109C7.44435 6.20743 7.43583 6.80889 7.79329 7.17448L8.46877 7.86534Z" fill="currentColor"/>
<path d="M10.7195 6.50165L9.13451 4.8806C8.77705 4.51501 8.78557 3.91355 9.15354 3.53721C9.52151 3.16087 10.1096 3.15215 10.467 3.51774L14.7798 7.92862C14.9086 8.06039 15.0864 8.05424 15.2243 7.91326C15.3621 7.77227 15.3681 7.59044 15.2393 7.45867L11.4972 3.63145C11.1398 3.26586 11.1483 2.6644 11.5162 2.28806C11.8842 1.91172 12.4723 1.903 12.8298 2.26859L18.7191 8.29189C18.805 8.37973 18.9598 8.39708 19.0731 8.32505C19.1865 8.25303 19.2569 8.13707 19.2615 8.0007L19.1264 5.3718C19.0385 4.67104 19.4841 3.95184 20.1123 3.74849C20.4035 3.67031 20.6687 3.70655 20.8864 3.83524C21.1256 3.98589 21.2729 4.23053 21.3068 4.5472C21.3463 5.03396 21.3914 5.51484 21.4366 5.99572C21.4817 6.4766 21.5268 6.95749 21.5663 7.44424L21.7529 9.18593C21.7706 9.32154 21.7887 9.44578 21.8068 9.57002C21.8249 9.69426 21.8429 9.81851 21.8607 9.95411C21.8706 10.0403 21.8809 10.1263 21.8912 10.2119C21.9696 10.8672 22.0459 11.5047 21.9663 12.13C21.8102 13.7228 20.7067 15.1976 19.4872 16.2809C19.4765 16.0605 19.4589 15.8392 19.4336 15.6184C19.2945 14.404 18.9086 13.0868 18.0424 12.0187C17.5463 11.3803 16.9008 10.8781 16.4166 10.5014C16.3517 10.4509 16.2894 10.4024 16.2311 10.3565L16.2223 10.3495L16.2133 10.3426C16.099 10.2553 15.9936 10.1772 15.8976 10.1061L15.8943 10.1037C15.8004 10.0341 15.7151 9.97089 15.6251 9.9023L14.3305 8.8634C13.9669 8.55566 13.6046 8.25682 13.2507 7.96494L13.2472 7.96206C12.8849 7.6632 12.5313 7.37154 12.1789 7.07302L12.1637 7.06015L12.1481 7.0477C11.7408 6.72078 11.2464 6.52194 10.7195 6.50165Z" fill="currentColor"/>
</svg>
