<svg viewBox="0 0 24 24" fill="currentColor" xmlns="http://www.w3.org/2000/svg">
<path d="M22.5303 17.5303L17.5303 22.5303C17.2374 22.8232 16.7626 22.8232 16.4697 22.5303L11.4697 17.5303C11.1768 17.2374 11.1768 16.7626 11.4697 16.4697C11.7626 16.1768 12.2374 16.1768 12.5303 16.4697L16.25 20.1893V2C16.25 1.58579 16.5858 1.25 17 1.25C17.4142 1.25 17.75 1.58579 17.75 2V20.1893L21.4697 16.4697C21.7626 16.1768 22.2374 16.1768 22.5303 16.4697C22.8232 16.7626 22.8232 17.2374 22.5303 17.5303Z" fill="currentColor"/>
<path d="M7.53033 1.46967C7.23744 1.17678 6.76256 1.17678 6.46967 1.46967L1.46967 6.46967C1.17678 6.76256 1.17678 7.23744 1.46967 7.53033C1.76256 7.82322 2.23744 7.82322 2.53033 7.53033L6.25 3.81066V22C6.25 22.4142 6.58579 22.75 7 22.75C7.41421 22.75 7.75 22.4142 7.75 22V3.81066L11.4697 7.53033C11.7626 7.82322 12.2374 7.82322 12.5303 7.53033C12.8232 7.23744 12.8232 6.76256 12.5303 6.46967L7.53033 1.46967Z" fill="currentColor"/>
</svg>
