<svg viewBox="0 0 24 24" fill="currentColor" xmlns="http://www.w3.org/2000/svg">
<path d="M22.5303 7.53033C22.8232 7.23744 22.8232 6.76256 22.5303 6.46967L17.5303 1.46967C17.2374 1.17678 16.7626 1.17678 16.4697 1.46967C16.1768 1.76256 16.1768 2.23744 16.4697 2.53033L20.1893 6.25H2C1.58579 6.25 1.25 6.58579 1.25 7C1.25 7.41421 1.58579 7.75 2 7.75H20.1893L16.4697 11.4697C16.1768 11.7626 16.1768 12.2374 16.4697 12.5303C16.7626 12.8232 17.2374 12.8232 17.5303 12.5303L22.5303 7.53033Z" fill="currentColor"/>
<path d="M1.46967 17.5303C1.17678 17.2374 1.17678 16.7626 1.46967 16.4697L6.46967 11.4697C6.76256 11.1768 7.23744 11.1768 7.53033 11.4697C7.82322 11.7626 7.82322 12.2374 7.53033 12.5303L3.81066 16.25H22C22.4142 16.25 22.75 16.5858 22.75 17C22.75 17.4142 22.4142 17.75 22 17.75H3.81066L7.53033 21.4697C7.82322 21.7626 7.82322 22.2374 7.53033 22.5303C7.23744 22.8232 6.76256 22.8232 6.46967 22.5303L1.46967 17.5303Z" fill="currentColor"/>
</svg>
