<svg viewBox="0 0 24 24" fill="currentColor" xmlns="http://www.w3.org/2000/svg">
<path d="M16.25 5H4C2.89543 5 2 5.89543 2 7V17C2 18.1046 2.89543 19 4 19H16.25V17.25C16.25 16.8358 16.5858 16.5 17 16.5C17.4142 16.5 17.75 16.8358 17.75 17.25V19H21C22.1046 19 23 18.1046 23 17V7C23 5.89543 22.1046 5 21 5H17.75V6.75C17.75 7.16421 17.4142 7.5 17 7.5C16.5858 7.5 16.25 7.16421 16.25 6.75V5ZM17.75 10.25V13.75C17.75 14.1642 17.4142 14.5 17 14.5C16.5858 14.5 16.25 14.1642 16.25 13.75V10.25C16.25 9.83579 16.5858 9.5 17 9.5C17.4142 9.5 17.75 9.83579 17.75 10.25ZM8.05209 17.5C7.85999 17.5 7.70115 17.4307 7.57555 17.2922C7.44994 17.1614 7.38714 16.9998 7.38714 16.8074V16.1227C7.00113 16.0943 6.65758 16.034 6.35648 15.9418C5.97968 15.8263 5.66568 15.6994 5.41448 15.5609C5.25194 15.4762 5.13742 15.3608 5.07093 15.2146C5.01182 15.0684 4.98966 14.9183 5.00443 14.7644C5.01921 14.6028 5.07093 14.4643 5.15959 14.3489C5.24825 14.2258 5.36276 14.145 5.50314 14.1065C5.65091 14.068 5.81714 14.0988 6.00185 14.1988C6.17916 14.2989 6.42667 14.4028 6.74437 14.5105C7.06206 14.6105 7.44994 14.6605 7.90802 14.6605C8.24788 14.6605 8.52124 14.6221 8.72811 14.5451C8.93498 14.4605 9.08275 14.3527 9.17141 14.2219C9.26746 14.0911 9.31548 13.9411 9.31548 13.7718C9.31548 13.6333 9.28223 13.5101 9.21574 13.4024C9.15663 13.2947 9.0495 13.2023 8.89435 13.1254C8.74658 13.0407 8.5471 12.9715 8.2959 12.9176L7.07684 12.6406C6.39712 12.4867 5.89102 12.2251 5.55855 11.8557C5.22608 11.4787 5.05984 10.9939 5.05984 10.4014C5.05984 9.93966 5.16697 9.52798 5.38123 9.16632C5.60288 8.80465 5.9058 8.51224 6.28999 8.28909C6.61102 8.10614 6.97673 7.98267 7.38714 7.91867V7.19255C7.38714 7.00017 7.44994 6.83858 7.57555 6.70777C7.70115 6.56925 7.85999 6.5 8.05209 6.5C8.23679 6.5 8.39195 6.56925 8.51755 6.70777C8.64315 6.83858 8.70595 7.00017 8.70595 7.19255V7.88812C8.92777 7.91825 9.1605 7.97111 9.40414 8.04669C9.75877 8.14673 10.0654 8.29293 10.324 8.48531C10.4644 8.57765 10.5604 8.69307 10.6121 8.83158C10.6712 8.97009 10.686 9.1086 10.6564 9.24711C10.6343 9.38562 10.5789 9.50874 10.4902 9.61647C10.4016 9.71651 10.2833 9.78192 10.1356 9.8127C9.9952 9.83578 9.82896 9.79731 9.63687 9.69727C9.43738 9.59724 9.21943 9.51259 8.98301 9.44334C8.74658 9.37408 8.45475 9.33945 8.1075 9.33945C7.67159 9.33945 7.33173 9.4318 7.08792 9.61647C6.8515 9.80115 6.73328 10.0397 6.73328 10.3321C6.73328 10.5476 6.80347 10.7207 6.94385 10.8515C7.09161 10.9823 7.34651 11.0901 7.70853 11.1747L8.93868 11.4517C9.64056 11.6133 10.1577 11.875 10.4902 12.2366C10.8301 12.5983 11 13.0677 11 13.6448C11 14.0988 10.8929 14.5028 10.6786 14.8568C10.4644 15.203 10.1688 15.4839 9.79202 15.6994C9.47457 15.8809 9.11255 16.0078 8.70595 16.0801V16.8074C8.70595 16.9998 8.64315 17.1614 8.51755 17.2922C8.39933 17.4307 8.24418 17.5 8.05209 17.5Z" fill="currentColor"/>
</svg>
