<svg viewBox="0 0 24 24" fill="currentColor" xmlns="http://www.w3.org/2000/svg">
<path d="M4 4.02532C4 2.90677 4.89543 2 6 2H18C19.1046 2 20 2.90677 20 4.02532V20.2278C20 21.0623 19.0592 21.5387 18.4 21.038L16.6 19.6709C16.2444 19.4008 15.7556 19.4008 15.4 19.6709L12.6 21.7975C12.2444 22.0675 11.7556 22.0675 11.4 21.7975L8.6 19.6709C8.24444 19.4008 7.75556 19.4008 7.4 19.6709L5.6 21.038C4.94076 21.5387 4 21.0623 4 20.2278V4.02532ZM8.25 13.1392C8.25 13.5587 8.58579 13.8987 9 13.8987H15C15.4142 13.8987 15.75 13.5587 15.75 13.1392C15.75 12.7198 15.4142 12.3797 15 12.3797H9C8.58579 12.3797 8.25 12.7198 8.25 13.1392ZM7 8.32911C6.58579 8.32911 6.25 8.66915 6.25 9.08861C6.25 9.50806 6.58579 9.8481 7 9.8481H17C17.4142 9.8481 17.75 9.50806 17.75 9.08861C17.75 8.66915 17.4142 8.32911 17 8.32911H7Z" fill="currentColor"/>
</svg>
