<svg viewBox="0 0 24 24" fill="currentColor" xmlns="http://www.w3.org/2000/svg">
<path d="M8.6 19.641L11.4 21.7949C11.7556 22.0684 12.2444 22.0684 12.6 21.7949L15.4 19.641C15.7556 19.3675 16.2444 19.3675 16.6 19.641L18.4 21.0256C19.0592 21.5327 20 21.0503 20 20.2051V3.79487C20 2.9497 19.0592 2.46725 18.4 2.97436L16.6 4.35897C16.2444 4.63248 15.7556 4.63248 15.4 4.35897L12.6 2.20513C12.2444 1.93162 11.7556 1.93162 11.4 2.20513L8.6 4.35897C8.24444 4.63248 7.75556 4.63248 7.4 4.35897L5.6 2.97436C4.94076 2.46725 4 2.9497 4 3.79487V20.2051C4 21.0503 4.94076 21.5327 5.6 21.0256L7.4 19.641C7.75556 19.3675 8.24444 19.3675 8.6 19.641ZM12.0195 14.5641C11.8457 14.5641 11.6989 14.4995 11.5791 14.3704C11.4593 14.2412 11.3993 14.0798 11.3993 13.8861V13.4117C11.1098 13.3842 10.8522 13.3357 10.6264 13.2662C10.3328 13.1758 10.0932 13.0854 9.90743 12.995C9.75165 12.9175 9.6408 12.8077 9.57489 12.6656C9.51498 12.5236 9.49101 12.3783 9.503 12.2298C9.52097 12.0813 9.5719 11.9457 9.65578 11.823C9.73966 11.7003 9.84751 11.6196 9.97933 11.5808C10.1171 11.5356 10.2759 11.555 10.4557 11.6389C10.5755 11.71 10.7552 11.7842 10.9949 11.8617C11.2406 11.9327 11.5431 11.9683 11.9026 11.9683C12.1543 11.9683 12.352 11.9424 12.4958 11.8908C12.6456 11.8391 12.7505 11.7713 12.8104 11.6874C12.8763 11.597 12.9092 11.5001 12.9092 11.3968C12.9092 11.2999 12.8853 11.2192 12.8373 11.1546C12.7954 11.0836 12.7235 11.0223 12.6216 10.9706C12.5198 10.9125 12.379 10.8608 12.1992 10.8156L11.1836 10.5832C10.6264 10.4475 10.21 10.2215 9.93439 9.90513C9.66477 9.58226 9.52996 9.16577 9.52996 8.65564C9.52996 8.2682 9.61684 7.92273 9.79059 7.61923C9.97034 7.30928 10.219 7.05744 10.5365 6.86372C10.7908 6.71147 11.0784 6.60309 11.3993 6.53859V6.01135C11.3993 5.81763 11.4593 5.6562 11.5791 5.52705C11.6989 5.39791 11.8457 5.33333 12.0195 5.33333C12.1992 5.33333 12.349 5.39791 12.4688 5.52705C12.5887 5.6562 12.6486 5.81763 12.6486 6.01135V6.49935C12.7975 6.52012 12.9533 6.5544 13.1159 6.6022C13.3796 6.67323 13.6102 6.77332 13.808 6.90247C13.9458 6.97996 14.0416 7.0865 14.0956 7.22211C14.1555 7.35771 14.1765 7.49654 14.1585 7.6386C14.1465 7.77421 14.0986 7.8969 14.0147 8.00667C13.9368 8.11645 13.8289 8.19071 13.6911 8.22945C13.5593 8.26174 13.4005 8.23591 13.2148 8.15196C13.077 8.08739 12.9212 8.03573 12.7475 7.99699C12.5797 7.95178 12.364 7.92918 12.1004 7.92918C11.7828 7.92918 11.5371 7.99053 11.3634 8.11322C11.1956 8.23591 11.1117 8.39411 11.1117 8.58783C11.1117 8.71698 11.1597 8.82676 11.2555 8.91716C11.3574 9.0011 11.5401 9.07536 11.8038 9.13994L12.8283 9.38209C13.3975 9.51769 13.817 9.7437 14.0866 10.0601C14.3622 10.3701 14.5 10.7736 14.5 11.2709C14.5 11.6583 14.4131 12.0005 14.2394 12.2976C14.0656 12.5946 13.8229 12.8368 13.5114 13.024C13.2586 13.1789 12.971 13.2896 12.6486 13.3562V13.8861C12.6486 14.0798 12.5887 14.2412 12.4688 14.3704C12.355 14.4995 12.2052 14.5641 12.0195 14.5641ZM9 16.359H15C15.4142 16.359 15.75 16.7034 15.75 17.1282C15.75 17.553 15.4142 17.8974 15 17.8974H9C8.58579 17.8974 8.25 17.553 8.25 17.1282C8.25 16.7034 8.58579 16.359 9 16.359Z" fill="currentColor"/>
</svg>
