<svg viewBox="0 0 24 24" fill="currentColor" xmlns="http://www.w3.org/2000/svg">
<path d="M6 2C4.89543 2 4 2.90677 4 4.02532V20.2278C4 21.0623 4.94076 21.5387 5.6 21.038L7.4 19.6709C7.75556 19.4008 8.24444 19.4008 8.6 19.6709L11.4 21.7975C11.7556 22.0675 12.2444 22.0675 12.6 21.7975L15.4 19.6709C15.7556 19.4008 16.2444 19.4008 16.6 19.6709L18.4 21.038C19.0592 21.5387 20 21.0623 20 20.2278V4.02532C20 2.90677 19.1046 2 18 2H6ZM7 9.34177H17C17.4142 9.34177 17.75 9.68181 17.75 10.1013C17.75 10.5207 17.4142 10.8608 17 10.8608H7C6.58579 10.8608 6.25 10.5207 6.25 10.1013C6.25 9.68181 6.58579 9.34177 7 9.34177ZM6.25 14.1519C6.25 13.7324 6.58579 13.3924 7 13.3924H13C13.4142 13.3924 13.75 13.7324 13.75 14.1519C13.75 14.5714 13.4142 14.9114 13 14.9114H7C6.58579 14.9114 6.25 14.5714 6.25 14.1519ZM7 5.29114H17C17.4142 5.29114 17.75 5.63118 17.75 6.05063C17.75 6.47009 17.4142 6.81013 17 6.81013H7C6.58579 6.81013 6.25 6.47009 6.25 6.05063C6.25 5.63118 6.58579 5.29114 7 5.29114Z" fill="currentColor"/>
</svg>
