<svg viewBox="0 0 24 24" fill="currentColor" xmlns="http://www.w3.org/2000/svg">
<path d="M12 2C6.47715 2 2 6.47715 2 12C2 17.5228 6.47715 22 12 22C17.5228 22 22 17.5228 22 12C22 6.47715 17.5228 2 12 2ZM12.0624 15.816C11.9457 15.6934 11.8873 15.5224 11.8873 15.3029V9.6971C11.8873 9.47764 11.9489 9.30659 12.0722 9.18396C12.2019 9.06132 12.3771 9 12.5976 9C12.7922 9 12.9446 9.03873 13.0549 9.11618C13.1717 9.18718 13.2787 9.31305 13.376 9.49378L15.4582 13.2788L17.5405 9.49378C17.6378 9.31305 17.7416 9.18718 17.8519 9.11618C17.9686 9.03873 18.121 9 18.3092 9C18.5297 9 18.6984 9.06132 18.8151 9.18396C18.9384 9.30659 19 9.47764 19 9.6971V15.3029C19 15.5224 18.9416 15.6934 18.8249 15.816C18.7081 15.9387 18.5394 16 18.3189 16C18.0983 16 17.9264 15.9387 17.8032 15.816C17.6864 15.6934 17.6281 15.5224 17.6281 15.3029V11.7631L16.0323 14.6058C15.9545 14.7284 15.8702 14.822 15.7793 14.8866C15.695 14.9447 15.5815 14.9737 15.4388 14.9737C15.2961 14.9737 15.1793 14.9414 15.0885 14.8769C14.9977 14.8124 14.9166 14.722 14.8453 14.6058L13.2495 11.7849V15.3029C13.2495 15.5224 13.1911 15.6934 13.0744 15.816C12.9641 15.9387 12.7954 16 12.5684 16C12.3479 16 12.1792 15.9387 12.0624 15.816ZM7.54928 15.7967C7.41955 15.6611 7.35468 15.4707 7.35468 15.2254V10.3264H5.63246C5.43137 10.3264 5.27569 10.2716 5.16541 10.1618C5.05514 10.0521 5 9.90042 5 9.70678C5 9.50669 5.05514 9.355 5.16541 9.25173C5.27569 9.142 5.43137 9.08714 5.63246 9.08714H10.5851C10.7862 9.08714 10.9418 9.142 11.0521 9.25173C11.1624 9.355 11.2175 9.50669 11.2175 9.70678C11.2175 9.90042 11.1624 10.0521 11.0521 10.1618C10.9418 10.2716 10.7862 10.3264 10.5851 10.3264H8.86285V15.2254C8.86285 15.4707 8.79798 15.6611 8.66824 15.7967C8.545 15.9322 8.36012 16 8.11363 16C7.86713 16 7.67902 15.9322 7.54928 15.7967Z" fill="currentColor"/>
</svg>
