<svg viewBox="0 0 24 24" fill="currentColor" xmlns="http://www.w3.org/2000/svg">
<path d="M22 12C22 17.5228 17.5228 22 12 22C10.2235 22 8.55518 21.5368 7.10927 20.7245L3.45883 21.9413C2.59351 22.2297 1.77028 21.4065 2.05872 20.5412L3.27553 16.8907C2.46324 15.4448 2 13.7765 2 12C2 6.47715 6.47715 2 12 2C17.5228 2 22 6.47715 22 12ZM6 9.14286V14.8571C6 15.4883 6.53726 16 7.2 16H14.4C15.0627 16 15.6 15.4883 15.6 14.8571V13.3333L17.0672 14.2649C17.4659 14.518 18 14.2458 18 13.7894V10.2106C18 9.75418 17.4659 9.48196 17.0672 9.73512L15.6 10.6667V9.14286C15.6 8.51167 15.0627 8 14.4 8H7.2C6.53726 8 6 8.51167 6 9.14286Z" fill="currentColor"/>
</svg>
