<svg viewBox="0 0 24 24" fill="currentColor" xmlns="http://www.w3.org/2000/svg">
<path d="M21.7562 18.6973L14.0406 3.2615C13.1998 1.5795 10.8002 1.5795 9.95944 3.26151L2.2438 18.6973C1.48534 20.2147 2.58839 22 4.28435 22H19.7156C21.4116 22 22.5147 20.2147 21.7562 18.6973ZM12 7.25C12.4142 7.25 12.75 7.58579 12.75 8V15C12.75 15.4142 12.4142 15.75 12 15.75C11.5858 15.75 11.25 15.4142 11.25 15V8C11.25 7.58579 11.5858 7.25 12 7.25ZM12 19C11.4477 19 11 18.5523 11 18C11 17.4477 11.4477 17 12 17C12.5523 17 13 17.4477 13 18C13 18.5523 12.5523 19 12 19Z" fill="currentColor"/>
</svg>
