<svg viewBox="0 0 24 24" fill="currentColor" xmlns="http://www.w3.org/2000/svg">
<path d="M9 19C9 20.1046 8.10457 21 7 21C5.89543 21 5 20.1046 5 19C5 17.8954 5.89543 17 7 17C8.10457 17 9 17.8954 9 19Z" fill="currentColor"/>
<path d="M19 19C19 20.1046 18.1046 21 17 21C15.8954 21 15 20.1046 15 19C15 17.8954 15.8954 17 17 17C18.1046 17 19 17.8954 19 19Z" fill="currentColor"/>
<path d="M4 4H13C14.1046 4 15 4.89543 15 6H17.0387C17.6463 6 18.2209 6.27618 18.6005 6.75061L21.4 10.25H15V11.75H22V17C22 17.9321 21.3623 18.7153 20.4994 18.9371C20.4659 17.0331 18.912 15.5 17 15.5C15.067 15.5 13.5 17.067 13.5 19H10.5C10.5 17.067 8.933 15.5 7 15.5C5.088 15.5 3.53409 17.0331 3.50056 18.9371C2.63766 18.7153 2 17.9321 2 17V6C2 4.89543 2.89543 4 4 4ZM9.05 6H7.95C7.67386 6 7.45 6.22386 7.45 6.5V8.45H5.5C5.22386 8.45 5 8.67386 5 8.95V10.05C5 10.3261 5.22386 10.55 5.5 10.55H7.45V12.5C7.45 12.7761 7.67386 13 7.95 13H9.05C9.32614 13 9.55 12.7761 9.55 12.5V10.55H11.5C11.7761 10.55 12 10.3261 12 10.05V8.95C12 8.67386 11.7761 8.45 11.5 8.45H9.55V6.5C9.55 6.22386 9.32614 6 9.05 6Z" fill="currentColor"/>
</svg>
