<svg viewBox="0 0 24 24" fill="currentColor" xmlns="http://www.w3.org/2000/svg">
<path d="M2 12C2 9.49351 3.84437 7.41777 6.25 7.05591V16.9441C3.84437 16.5823 2 14.5065 2 12Z" fill="currentColor"/>
<path d="M16.25 17H7.75V7H16.25V17ZM15 10C15 9.44771 14.5523 9 14 9C13.4477 9 13 9.44771 13 10C13 10.5523 13.4477 11 14 11C14.5523 11 15 10.5523 15 10ZM14 15C14.5523 15 15 14.5523 15 14C15 13.4477 14.5523 13 14 13C13.4477 13 13 13.4477 13 14C13 14.5523 13.4477 15 14 15ZM11 10C11 9.44771 10.5523 9 10 9C9.44771 9 9 9.44771 9 10C9 10.5523 9.44771 11 10 11C10.5523 11 11 10.5523 11 10ZM10 15C10.5523 15 11 14.5523 11 14C11 13.4477 10.5523 13 10 13C9.44771 13 9 13.4477 9 14C9 14.5523 9.44771 15 10 15Z" fill="currentColor"/>
<path d="M17.75 16.9441C20.1556 16.5823 22 14.5065 22 12C22 9.49351 20.1556 7.41777 17.75 7.05591V16.9441Z" fill="currentColor"/>
</svg>
