<svg viewBox="0 0 24 24" fill="currentColor" xmlns="http://www.w3.org/2000/svg">
<path d="M10 3H19C20.6569 3 22 4.34315 22 6C22 6.55228 21.5523 7 21 7H10C9.44772 7 9 6.55228 9 6V4C9 3.44772 9.44772 3 10 3Z" fill="currentColor"/>
<path d="M4 8H20C21.1046 8 22 8.89543 22 10V11C22 11.5523 21.5523 12 21 12H18.75V17.1454C19.483 17.4421 20 18.1607 20 19C20 20.1046 19.1046 21 18 21C16.8954 21 16 20.1046 16 19C16 18.1607 16.517 17.4421 17.25 17.1454V15.75H6.75V17.1454C7.48296 17.4421 8 18.1607 8 19C8 20.1046 7.10457 21 6 21C4.89543 21 4 20.1046 4 19C4 18.1607 4.51704 17.4421 5.25 17.1454V12H3C2.44772 12 2 11.5523 2 11V10C2 8.89543 2.89543 8 4 8ZM6.75 14.25H17.25V12H6.75V14.25Z" fill="currentColor"/>
<path d="M6 5C6 6.10457 5.10457 7 4 7C2.89543 7 2 6.10457 2 5C2 3.89543 2.89543 3 4 3C5.10457 3 6 3.89543 6 5Z" fill="currentColor"/>
</svg>
