<svg viewBox="0 0 24 24" fill="currentColor" xmlns="http://www.w3.org/2000/svg">
<path d="M12.75 2C12.75 1.58579 12.4142 1.25 12 1.25C11.5858 1.25 11.25 1.58579 11.25 2V3H9C8.44772 3 8 3.44772 8 4H7C5.89543 4 5 4.89543 5 6V16.7711C5 17.4985 5.4822 18.1378 6.18161 18.3376C7.43559 18.6959 8.7144 18.936 10.0017 19.058C10.0317 19.5833 10.4672 20 11 20H11.25V22C11.25 22.4142 11.5858 22.75 12 22.75C12.4142 22.75 12.75 22.4142 12.75 22V20H13C13.5328 20 13.9683 19.5833 13.9983 19.058C15.2856 18.936 16.5644 18.6959 17.8184 18.3376C18.5178 18.1378 19 17.4985 19 16.7711V6C19 4.89543 18.1046 4 17 4H16C16 3.44772 15.5523 3 15 3H12.75V2ZM12.75 8V10.25H15C15.4142 10.25 15.75 10.5858 15.75 11C15.75 11.4142 15.4142 11.75 15 11.75H12.75V14C12.75 14.4142 12.4142 14.75 12 14.75C11.5858 14.75 11.25 14.4142 11.25 14V11.75H9C8.58579 11.75 8.25 11.4142 8.25 11C8.25 10.5858 8.58579 10.25 9 10.25H11.25V8C11.25 7.58579 11.5858 7.25 12 7.25C12.4142 7.25 12.75 7.58579 12.75 8Z" fill="currentColor"/>
</svg>
