<svg viewBox="0 0 24 24" fill="currentColor" xmlns="http://www.w3.org/2000/svg">
<path d="M12.3044 12.6662C12.5108 12.3066 12.3853 11.8484 12.024 11.6429C11.6628 11.4374 11.2025 11.5624 10.9961 11.922C10.6189 12.5792 10.047 12.8515 9.43515 12.9151C8.79151 12.982 8.14961 12.8073 7.79113 12.6091C7.49336 12.4444 7.13196 12.502 6.8998 12.7269C5.49926 12.4835 3.66482 11.5885 4.91751 9.41023C4.91751 8.28488 5.47665 6.10171 7.71323 6.37179C9.24089 5.63389 12.6902 4.73799 14.9589 6.62549C14.6978 6.81352 14.2771 7.03557 13.7899 7.13519C13.2461 7.24639 12.6481 7.20204 12.0682 6.81714C11.7219 6.58737 11.2542 6.6805 11.0234 7.02515C10.7926 7.3698 10.8861 7.83545 11.2323 8.06521C12.2123 8.71561 13.2393 8.7791 14.0931 8.60451C14.9283 8.43372 15.6244 8.03241 16.0326 7.69381C16.0775 7.6565 16.117 7.61507 16.151 7.57054C17.0979 8.39078 18.0256 9.86773 17.1488 11.7735C17.3818 12.8989 17.2187 15.1496 14.7026 15.1496V16.5H13.3047L11.9068 14.4744C11.6336 14.4744 11.104 14.3918 10.7523 14.0976C11.3476 13.8272 11.899 13.3724 12.3044 12.6662ZM10.4773 9.33529C10.8102 9.08677 10.8776 8.61666 10.628 8.28529C10.3783 7.95392 9.90607 7.88677 9.57319 8.13529C9.21199 8.40497 8.78262 8.51074 8.36057 8.51927C7.9319 8.52794 7.5608 8.43444 7.38005 8.36247C6.99371 8.20863 6.55525 8.39569 6.40071 8.78028C6.24618 9.16487 6.43409 9.60135 6.82043 9.75518C7.0491 9.84623 7.36226 9.93298 7.72342 9.98104C7.7928 10.2587 7.9152 10.557 8.11382 10.8316C8.49725 11.3617 9.12969 11.75 10.0252 11.75C10.4413 11.75 10.7786 11.4142 10.7786 11C10.7786 10.5858 10.4413 10.25 10.0252 10.25C9.62079 10.25 9.44073 10.099 9.33665 9.95515C9.32296 9.93622 9.31014 9.91666 9.29815 9.89662C9.69395 9.794 10.0986 9.61801 10.4773 9.33529ZM13.4829 9.49908C13.1886 9.20619 12.7116 9.20619 12.4174 9.49908C12.1232 9.79198 12.1232 10.2668 12.4174 10.5597C12.6437 10.785 13.0396 11.4337 12.8692 12.1122C12.7683 12.5141 13.0137 12.9213 13.4174 13.0217C13.8211 13.1222 14.2301 12.8779 14.331 12.476C14.3629 12.3492 14.3854 12.2243 14.3997 12.1017C14.6884 12.0874 15.0072 12.0254 15.3175 11.885C15.9224 11.6113 16.4357 11.0633 16.6139 10.1765C16.6955 9.77033 16.4309 9.37521 16.0229 9.29398C15.6149 9.21274 15.2179 9.47615 15.1363 9.88232C15.0545 10.2897 14.8637 10.4427 14.694 10.5194C14.5286 10.5942 14.3374 10.6126 14.1887 10.6028C13.9861 10.0955 13.6919 9.70714 13.4829 9.49908Z" fill="currentColor"/>
<path d="M11 1.25C5.61522 1.25 1.25 5.61522 1.25 11C1.25 16.3848 5.61522 20.75 11 20.75C13.4221 20.75 15.639 19.866 17.3436 18.4043L21.4697 22.5303C21.7626 22.8232 22.2374 22.8232 22.5303 22.5303C22.8232 22.2374 22.8232 21.7626 22.5303 21.4697L18.4043 17.3436C19.866 15.639 20.75 13.4221 20.75 11C20.75 5.61522 16.3848 1.25 11 1.25ZM2.75 11C2.75 6.44365 6.44365 2.75 11 2.75C15.5563 2.75 19.25 6.44365 19.25 11C19.25 13.2784 18.3274 15.3399 16.8336 16.8336C15.3399 18.3274 13.2784 19.25 11 19.25C6.44365 19.25 2.75 15.5563 2.75 11Z" fill="currentColor"/>
</svg>
