<svg viewBox="0 0 24 24" fill="currentColor" xmlns="http://www.w3.org/2000/svg">
<path d="M7.02137 3.53881C8.2184 2.1477 9.39904 1.64577 11.1626 2.25579L11.1649 21.4569C10.4797 22.3182 8.44939 21.9942 7.72343 20.3678C7.57418 20.0334 7.2347 19.827 6.87101 19.8494C5.12414 19.9569 4.51495 19.0641 4.9804 17.319C5.10929 16.8358 4.81265 16.3417 4.32747 16.2315L4.20093 16.1965C3.2918 15.8993 2.80244 14.7175 3.1566 13.5633C3.58462 12.1684 5.028 11.4404 7.40546 11.974C7.8775 12.08 8.34556 11.781 8.45089 11.3062C8.55622 10.8313 8.25894 10.3605 7.7869 10.2546C6.03535 9.86144 4.53764 10.0332 3.41995 10.6454C2.44509 8.66284 3.14149 5.42493 5.78179 4.80004C5.97651 4.75395 6.14967 4.64221 6.27248 4.48338L6.76978 3.8425L7.02137 3.53881ZM8.39077 15.5625C7.80594 14.8062 7.01752 14.2427 6.0437 13.8754C5.59084 13.7046 5.08606 13.9354 4.91624 14.3909C4.74642 14.8464 4.97586 15.3541 5.42872 15.525C6.10821 15.7813 6.62865 16.1532 7.00825 16.6441C7.37374 17.1168 7.57177 17.7011 7.59941 18.4238C7.618 18.91 8.02485 19.2889 8.50815 19.2702C8.99145 19.2515 9.36817 18.8423 9.34958 18.3561C9.30833 17.2772 8.98971 16.3371 8.39077 15.5625ZM10.2541 5.66333C10.3714 5.19136 10.0861 4.7131 9.61687 4.59511C9.14766 4.47711 8.67219 4.76407 8.55489 5.23604C8.43664 5.71181 8.22823 6.01578 7.9206 6.20144C7.54109 6.43049 7.12864 6.54363 6.66619 6.54363C6.18254 6.54363 5.79046 6.93801 5.79046 7.42451C5.79046 7.911 6.18254 8.30538 6.66619 8.30538C7.44372 8.30538 8.16792 8.10672 8.82172 7.71213C9.54741 7.27416 10.0279 6.5734 10.2541 5.66333Z" fill="currentColor"/>
<path d="M12.9155 2.30091C14.9988 1.7417 16.5765 2.4564 17.5883 4.18216C17.6931 4.36088 17.8572 4.49666 18.0518 4.56557C21.2956 5.71446 21.7052 9.0643 20.0482 11.5004C19.3404 12.5409 17.7177 13.239 17.2875 13.0568C16.8417 12.868 16.3282 13.0785 16.1406 13.5268C15.9529 13.9752 16.1621 14.4917 16.6078 14.6805C17.6481 15.1211 19.4534 14.5151 20.7086 13.3836C21.0399 13.972 21.0667 14.4701 20.8783 14.9296C20.6691 15.4403 20.2169 15.8963 19.5454 16.3691C19.2867 16.5513 19.1455 16.8594 19.1759 17.1756C19.3861 19.3603 18.6174 20.0033 17.0871 19.755C16.4625 19.6537 16.1405 19.2155 16.0644 18.1698C16.0291 17.6846 15.6095 17.32 15.1271 17.3555C14.6448 17.3911 14.2823 17.8132 14.3176 18.2984C14.4184 19.6834 14.9468 20.6877 15.8791 21.1868C15.5774 21.5848 15.1597 21.8289 14.6011 21.9446C13.8629 22.0974 13.3408 21.9374 12.9143 21.4229L12.9155 2.30091ZM17.428 7.97202C17.01 7.65052 16.6558 7.04759 16.3937 6.13952C16.2588 5.67232 15.773 5.40353 15.3085 5.53917C14.8441 5.67481 14.5768 6.16351 14.7117 6.63071C15.0696 7.8707 15.6109 8.79219 16.364 9.37149C17.1348 9.96437 18.1361 10.2052 19.3329 10.1222C19.8154 10.0887 20.1796 9.66815 20.1463 9.18281C20.113 8.69747 19.6949 8.33115 19.2124 8.36463C18.4114 8.42019 17.8283 8.27993 17.428 7.97202Z" fill="currentColor"/>
</svg>
