<svg viewBox="0 0 24 24" fill="currentColor" xmlns="http://www.w3.org/2000/svg">
<path d="M7.51319 6.1055L7.18165 6.49003C7.09978 6.58532 6.98434 6.65237 6.85453 6.68002C5.09433 7.05496 4.63006 8.9977 5.27997 10.1872C6.02509 9.81994 7.02357 9.71687 8.19127 9.95275C8.50596 10.0163 8.70415 10.2988 8.63393 10.5837C8.5637 10.8686 8.25167 11.048 7.93697 10.9844C6.352 10.6643 5.38975 11.101 5.1044 11.938C4.8683 12.6305 5.19453 13.3396 5.80062 13.5179L5.88498 13.5389C6.20844 13.605 6.40619 13.9015 6.32026 14.1914C6.00997 15.2384 6.41609 15.7742 7.58067 15.7096C7.82313 15.6962 8.04946 15.8201 8.14895 16.0207C8.63292 16.9965 9.98646 17.1909 10.4433 16.6741L10.4417 5.15348C9.26603 4.78746 8.47894 5.08862 7.68091 5.92329L7.51319 6.1055ZM7.02914 12.1252C7.67834 12.3456 8.20396 12.6837 8.59385 13.1375C8.99314 13.6023 9.20555 14.1663 9.23305 14.8137C9.24545 15.1054 8.9943 15.3509 8.6721 15.3621C8.3499 15.3733 8.07866 15.146 8.06627 14.8543C8.04785 14.4207 7.91582 14.0701 7.67216 13.7865C7.4191 13.4919 7.07214 13.2688 6.61915 13.115C6.31724 13.0125 6.16428 12.7078 6.27749 12.4345C6.39071 12.1612 6.72723 12.0227 7.02914 12.1252ZM9.41125 6.55706C9.72406 6.62786 9.91424 6.91481 9.83604 7.198C9.68525 7.74404 9.36494 8.1645 8.88115 8.42728C8.44528 8.66403 7.96248 8.78323 7.44413 8.78323C7.12169 8.78323 6.86031 8.5466 6.86031 8.2547C6.86031 7.96281 7.12169 7.72618 7.44413 7.72618C7.75243 7.72618 8.02739 7.65829 8.2804 7.52086C8.48549 7.40947 8.62443 7.22709 8.70326 6.94162C8.78146 6.65844 9.09844 6.48627 9.41125 6.55706Z" fill="currentColor"/>
<path d="M11.6095 16.6538C11.8938 16.9625 12.242 17.0585 12.7341 16.9667C13.1064 16.8973 13.385 16.7509 13.5861 16.5121C12.9645 16.2126 12.6123 15.6101 12.5451 14.779C12.5216 14.4879 12.7632 14.2346 13.0847 14.2133C13.4063 14.192 13.6861 14.4108 13.7096 14.7019C13.7603 15.3293 13.975 15.5922 14.3914 15.653C15.4116 15.802 15.9241 15.4162 15.784 14.1054C15.7637 13.9157 15.8578 13.7308 16.0303 13.6215C16.478 13.3378 16.7794 13.0642 16.9189 12.7578C17.0444 12.4821 17.0266 12.1832 16.8057 11.8302C15.9689 12.5091 14.7654 12.8727 14.0719 12.6083C13.7747 12.495 13.6352 12.1851 13.7604 11.9161C13.8855 11.6471 14.2278 11.5208 14.525 11.6341C14.8118 11.7434 15.8936 11.3245 16.3654 10.7002C17.4701 9.23859 17.1971 7.22868 15.0345 6.53935C14.9048 6.498 14.7954 6.41653 14.7255 6.3093C14.051 5.27385 12.9992 4.84503 11.6103 5.18055L11.6095 16.6538ZM13.9291 7.48372C14.1039 8.02856 14.34 8.39032 14.6186 8.58322C14.8855 8.76797 15.2742 8.85212 15.8082 8.81878C16.1299 8.7987 16.4087 9.01849 16.4309 9.30969C16.453 9.6009 16.2103 9.85324 15.8886 9.87333C15.0908 9.92314 14.4232 9.77863 13.9094 9.4229C13.4073 9.07532 13.0464 8.52243 12.8078 7.77843C12.7179 7.49811 12.896 7.20489 13.2057 7.12351C13.5153 7.04212 13.8392 7.2034 13.9291 7.48372Z" fill="currentColor"/>
<path d="M11 1.25C5.61522 1.25 1.25 5.61522 1.25 11C1.25 16.3848 5.61522 20.75 11 20.75C13.4221 20.75 15.639 19.866 17.3436 18.4043L21.4697 22.5303C21.7626 22.8232 22.2374 22.8232 22.5303 22.5303C22.8232 22.2374 22.8232 21.7626 22.5303 21.4697L18.4043 17.3436C19.866 15.639 20.75 13.4221 20.75 11C20.75 5.61522 16.3848 1.25 11 1.25ZM2.75 11C2.75 6.44365 6.44365 2.75 11 2.75C15.5563 2.75 19.25 6.44365 19.25 11C19.25 13.2784 18.3274 15.3399 16.8336 16.8336C15.3399 18.3274 13.2784 19.25 11 19.25C6.44365 19.25 2.75 15.5563 2.75 11Z" fill="currentColor"/>
</svg>
