<svg viewBox="0 0 24 24" fill="currentColor" xmlns="http://www.w3.org/2000/svg">
<path d="M11.3287 16.9681C11.8127 17.6848 12.8892 17.8695 13.3949 17.8695L15.5455 21H17.6961V18.913C21.5671 18.913 21.818 15.4346 21.4596 13.6955C22.9064 10.5362 21.1592 8.13955 19.6076 6.93995C19.5718 6.98941 19.5292 7.03526 19.4801 7.07617C18.8974 7.56182 17.8867 8.14843 16.6759 8.39716C15.4466 8.64969 13.9831 8.55679 12.584 7.62404C12.2393 7.39427 12.1462 6.92862 12.376 6.58397C12.6057 6.23933 13.0714 6.1462 13.416 6.37596C14.4169 7.04321 15.4534 7.11698 16.3741 6.92784C17.2317 6.75167 17.9643 6.34999 18.4028 6.01682C15.1122 2.91486 9.95811 4.03141 7.36136 5.15583C8.18415 5.47804 8.78682 6.0782 9.12398 6.58394C9.35375 6.92859 9.26062 7.39424 8.91597 7.62401C8.57132 7.85377 8.10567 7.76064 7.87591 7.41599C7.61916 7.03087 7.12156 6.58534 6.5015 6.46013C5.93682 6.34611 5.09694 6.46363 4.03027 7.5303C3.49371 8.06686 3.26452 8.50192 3.18412 8.82592C3.10751 9.13463 3.15274 9.39229 3.27003 9.62561C3.53083 10.1444 4.17459 10.577 4.76329 10.7978C5.15113 10.9432 5.34763 11.3755 5.20219 11.7633C5.05675 12.1512 4.62444 12.3477 4.2366 12.2022C3.63081 11.9751 2.8188 11.5241 2.26466 10.822C1.03332 13.9695 4.38749 15.0915 6.3847 15.2589C6.54396 15.234 6.7124 15.26 6.86423 15.3444C7.4858 15.6897 8.55715 15.979 9.63464 15.8666C10.6805 15.7574 11.6909 15.2792 12.3488 14.1279C12.5543 13.7683 13.0125 13.6433 13.3721 13.8488C13.7317 14.0543 13.8567 14.5125 13.6512 14.8721C13.0482 15.9274 12.2208 16.5893 11.3287 16.9681ZM11.1 8.55C11.3485 8.88137 11.2814 9.35147 10.95 9.6C10.2698 10.1102 9.52686 10.3778 8.81967 10.4969C8.87555 10.7069 8.96818 10.9292 9.10865 11.1243C9.3446 11.452 9.74444 11.75 10.5 11.75C10.9142 11.75 11.25 12.0858 11.25 12.5C11.25 12.9142 10.9142 13.25 10.5 13.25C9.25556 13.25 8.4054 12.7147 7.89135 12.0007C7.55334 11.5313 7.37543 11.0075 7.29831 10.5514C6.65558 10.4946 6.09969 10.3477 5.72146 10.1964C5.33687 10.0425 5.14981 9.60604 5.30364 9.22146C5.45748 8.83687 5.89396 8.64981 6.27854 8.80364C6.60554 8.93444 7.23084 9.0897 7.94727 9.07515C8.65712 9.06074 9.40808 8.88144 10.05 8.4C10.3814 8.15147 10.8515 8.21863 11.1 8.55ZM14.4697 10.4697C14.7626 10.1768 15.2374 10.1768 15.5303 10.4697C15.855 10.7943 16.3239 11.4307 16.6067 12.2576C16.6201 12.2596 16.6336 12.2619 16.6471 12.2646C16.9461 12.3244 17.4301 12.3216 17.8521 12.1297C18.2313 11.9574 18.6125 11.6132 18.7646 10.8529C18.8458 10.4467 19.2409 10.1833 19.6471 10.2646C20.0533 10.3458 20.3167 10.7409 20.2354 11.1471C19.9875 12.3868 19.2853 13.126 18.4729 13.4953C17.9143 13.7492 17.3312 13.8173 16.8491 13.7947C16.8415 14.0813 16.8036 14.378 16.7276 14.6819C16.6271 15.0837 16.2199 15.3281 15.8181 15.2276C15.4163 15.1271 15.1719 14.7199 15.2724 14.3181C15.5832 13.0749 14.8714 11.932 14.4697 11.5303C14.1768 11.2374 14.1768 10.7626 14.4697 10.4697Z" fill="currentColor"/>
</svg>
