<svg viewBox="0 0 24 24" fill="currentColor" xmlns="http://www.w3.org/2000/svg">
<path d="M21.7902 8.62405C22.0699 8.34438 22.0699 7.89094 21.7902 7.61127L16.3887 2.20975C16.1091 1.93008 15.6556 1.93008 15.3759 2.20975C15.0963 2.48943 15.0963 2.94287 15.3759 3.22254L16.2199 4.06653L14.8696 5.4169L13.3504 3.89773C13.0707 3.61806 12.6173 3.61806 12.3376 3.89773C12.0579 4.1774 12.0579 4.63084 12.3376 4.91051L13.688 6.26089L11.8312 8.11766L9.80563 6.09209C9.43274 5.7192 8.82815 5.7192 8.45526 6.09209L6.42969 8.11766C6.05679 8.49056 6.05679 9.09514 6.42969 9.46804L8.45526 11.4936L6.42969 13.5192C6.05679 13.8921 6.05679 14.4967 6.42969 14.8696L7.27367 15.7135L2.20975 20.7775C1.93008 21.0571 1.93008 21.5106 2.20975 21.7902C2.48943 22.0699 2.94287 22.0699 3.22254 21.7902L8.28646 16.7263L9.13045 17.5703C9.50334 17.9432 10.1079 17.9432 10.4808 17.5703L12.5064 15.5447L14.532 17.5703C14.9049 17.9432 15.5094 17.9432 15.8823 17.5703L17.9079 15.5447C18.2808 15.1718 18.2808 14.5673 17.9079 14.1944L15.8823 12.1688L17.7391 10.312L19.0895 11.6624C19.3692 11.9421 19.8226 11.9421 20.1023 11.6624C20.3819 11.3827 20.3819 10.9293 20.1023 10.6496L18.5831 9.13045L19.9335 7.78007L20.7775 8.62405C21.0571 8.90373 21.5106 8.90373 21.7902 8.62405ZM15.8823 6.42969L17.2327 5.07931L18.9207 6.76728L17.5703 8.11766L15.8823 6.42969ZM10.4808 13.5192C9.73503 12.7734 9.73503 11.5642 10.4808 10.8184C11.2266 10.0726 12.4358 10.0726 13.1816 10.8184C13.9274 11.5642 13.9274 12.7734 13.1816 13.5192C12.4358 14.265 11.2266 14.265 10.4808 13.5192Z" fill="currentColor"/>
</svg>
