<svg viewBox="0 0 24 24" fill="currentColor" xmlns="http://www.w3.org/2000/svg">
<path d="M7 4C4.79086 4 3 5.79086 3 8V11.25H11V8C11 5.79086 9.20914 4 7 4Z" fill="currentColor"/>
<path d="M11 12.75H3V16C3 18.2091 4.79086 20 7 20C9.20914 20 11 18.2091 11 16V12.75Z" fill="currentColor"/>
<path d="M17 4C14.7909 4 13 5.79086 13 8V11.25H21V8C21 5.79086 19.2091 4 17 4Z" fill="currentColor"/>
<path d="M21 12.75H13V16C13 18.2091 14.7909 20 17 20C19.2091 20 21 18.2091 21 16V12.75Z" fill="currentColor"/>
</svg>
