<svg viewBox="0 0 24 24" fill="currentColor" xmlns="http://www.w3.org/2000/svg">
<path d="M9.99999 3H14L14.5 5L16 6.5C17.3333 6.5 20.1 7.2 20.5 10C21.1667 10.5 22.4 12 22 14L19.5 16.5C18.5 16 17.9 15.3 17.5 14.5C16.8333 15.5 15.6 18.2 16 21H8C8.4 18.2 7.16667 15.5 6.5 14.5C6.1 15.3 5.5 16 4.5 16.5L1.99999 14C1.59999 12 2.83332 10.5 3.49999 10C3.89999 7.2 6.66665 6.5 7.99999 6.5L9.49999 5L9.99999 3ZM12 8.34143C11.1113 7.50025 10.0649 7.25 9.5 7.25C9.08579 7.25 8.75 7.58579 8.75 8C8.75 8.41421 9.08579 8.75 9.5 8.75C9.79461 8.75 10.7385 8.95979 11.376 9.91603C11.5203 10.1326 11.7579 10.2499 12 10.2501C12.2421 10.2499 12.4797 10.1326 12.624 9.91603C13.2615 8.95979 14.2054 8.75 14.5 8.75C14.9142 8.75 15.25 8.41421 15.25 8C15.25 7.58579 14.9142 7.25 14.5 7.25C13.9351 7.25 12.8887 7.50025 12 8.34143ZM12 11.25C11.7852 11.2501 11.5721 11.342 11.4238 11.5199C10.6008 12.5075 9.74768 12.6663 9.00429 12.5362C8.19846 12.3952 7.45612 11.8955 7.03033 11.4697C6.73744 11.1768 6.26256 11.1768 5.96967 11.4697C5.67678 11.7626 5.67678 12.2374 5.96967 12.5303C6.54388 13.1045 7.55154 13.8048 8.74571 14.0138C9.80268 14.1987 10.9589 13.9867 12 13.0742C13.0411 13.9867 14.1973 14.1987 15.2543 14.0138C16.4485 13.8048 17.4561 13.1045 18.0303 12.5303C18.3232 12.2374 18.3232 11.7626 18.0303 11.4697C17.7374 11.1768 17.2626 11.1768 16.9697 11.4697C16.5439 11.8955 15.8015 12.3952 14.9957 12.5362C14.2523 12.6663 13.3992 12.5075 12.5762 11.5199C12.4279 11.342 12.2148 11.2501 12 11.25ZM12 15.6881C11.0248 15.3502 10.0744 15.6244 9.66459 15.8293C9.29411 16.0146 9.14394 16.4651 9.32918 16.8356C9.51442 17.2061 9.96493 17.3562 10.3354 17.171C10.415 17.1312 10.6216 17.0567 10.8858 17.0352C11.1436 17.0142 11.4159 17.0466 11.6646 17.171C11.7725 17.2249 11.8871 17.2504 12 17.2503C12.1129 17.2504 12.2275 17.2249 12.3354 17.171C12.5841 17.0466 12.8564 17.0142 13.1142 17.0352C13.3784 17.0567 13.585 17.1312 13.6646 17.171C14.0351 17.3562 14.4856 17.2061 14.6708 16.8356C14.8561 16.4651 14.7059 16.0146 14.3354 15.8293C13.9256 15.6244 12.9752 15.3502 12 15.6881ZM12 18.4088C11.0248 18.0709 10.0744 18.3451 9.66459 18.55C9.29411 18.7353 9.14394 19.1858 9.32918 19.5563C9.51442 19.9268 9.96493 20.0769 10.3354 19.8917C10.415 19.8519 10.6216 19.7774 10.8858 19.7559C11.1436 19.7349 11.4159 19.7673 11.6646 19.8917C11.7725 19.9456 11.8871 19.9711 12 19.971C12.1129 19.9711 12.2275 19.9456 12.3354 19.8917C12.5841 19.7673 12.8564 19.7349 13.1142 19.7559C13.3784 19.7774 13.585 19.8519 13.6646 19.8917C14.0351 20.0769 14.4856 19.9268 14.6708 19.5563C14.8561 19.1858 14.7059 18.7353 14.3354 18.55C13.9256 18.3451 12.9752 18.0709 12 18.4088Z" fill="currentColor"/>
</svg>
