<svg viewBox="0 0 24 24" fill="currentColor" xmlns="http://www.w3.org/2000/svg">
<path d="M4 3.70732C4 2.76439 4.80878 2 5.80645 2H18.1935C19.1912 2 20 2.76439 20 3.70732V20.2927C20 21.2356 19.1912 22 18.1935 22H5.80645C4.80878 22 4 21.2356 4 20.2927V3.70732ZM12.6669 6.26257C12.5277 6.03941 12.274 5.90244 11.9999 5.90244C11.7258 5.90244 11.4722 6.03941 11.333 6.26257C10.8017 7.11433 10.3616 7.62764 9.84981 7.99156C9.3389 8.35488 8.69669 8.61184 7.68329 8.85108C7.26846 8.94901 7.01617 9.34623 7.11978 9.73829C7.2234 10.1304 7.64368 10.3688 8.05851 10.2709C9.16662 10.0093 10.0347 9.6915 10.7807 9.16094C10.9364 9.05025 11.0841 8.93215 11.2257 8.80614V9.84647C10.7415 10.5981 10.3267 11.067 9.84981 11.4062C9.3389 11.7695 8.69669 12.0265 7.68329 12.2657C7.26846 12.3636 7.01617 12.7609 7.11978 13.1529C7.2234 13.545 7.64368 13.7834 8.05851 13.6855C9.16662 13.4239 10.0347 13.1061 10.7807 12.5756C10.9364 12.4649 11.0841 12.3468 11.2257 12.2208V14.439C11.2257 14.8431 11.5724 15.1707 11.9999 15.1707C12.4275 15.1707 12.7741 14.8431 12.7741 14.439V12.2208C12.9157 12.3468 13.0635 12.4649 13.2191 12.5756C13.9652 13.1061 14.8332 13.4239 15.9414 13.6855C16.3562 13.7834 16.7765 13.545 16.8801 13.1529C16.9837 12.7609 16.7314 12.3636 16.3166 12.2657C15.3032 12.0265 14.661 11.7695 14.1501 11.4062C13.6731 11.067 13.2584 10.5981 12.7741 9.84647V8.80614C12.9157 8.93215 13.0635 9.05025 13.2191 9.16094C13.9652 9.6915 14.8332 10.0093 15.9414 10.2709C16.3562 10.3688 16.7765 10.1304 16.8801 9.73829C16.9837 9.34623 16.7314 8.94901 16.3166 8.85108C15.3032 8.61184 14.661 8.35488 14.1501 7.99156C13.6383 7.62764 13.1981 7.11433 12.6669 6.26257ZM8.12903 18.3415C8.12903 18.7456 8.47565 19.0732 8.90323 19.0732H15.0968C15.5243 19.0732 15.871 18.7456 15.871 18.3415C15.871 17.9374 15.5243 17.6098 15.0968 17.6098H8.90323C8.47565 17.6098 8.12903 17.9374 8.12903 18.3415Z" fill="currentColor"/>
</svg>
