<svg viewBox="0 0 24 24" fill="currentColor" xmlns="http://www.w3.org/2000/svg">
<path d="M8 3C8 2.44772 8.44772 2 9 2H15C15.5523 2 16 2.44772 16 3V5C16 5.55228 15.5523 6 15 6H9C8.44772 6 8 5.55228 8 5V3Z" fill="currentColor"/>
<path d="M7.75 14C7.75 11.6528 9.65279 9.75 12 9.75C14.3472 9.75 16.25 11.6528 16.25 14C16.25 16.3472 14.3472 18.25 12 18.25C9.65279 18.25 7.75 16.3472 7.75 14ZM12.75 12C12.75 11.5858 12.4142 11.25 12 11.25C11.5858 11.25 11.25 11.5858 11.25 12V13.25H10C9.58579 13.25 9.25 13.5858 9.25 14C9.25 14.4142 9.58579 14.75 10 14.75H11.25V16C11.25 16.4142 11.5858 16.75 12 16.75C12.4142 16.75 12.75 16.4142 12.75 16V14.75H14C14.4142 14.75 14.75 14.4142 14.75 14C14.75 13.5858 14.4142 13.25 14 13.25H12.75V12Z" fill="currentColor"/>
<path d="M6 4H6.5V5C6.5 6.38071 7.61929 7.5 9 7.5H15C16.3807 7.5 17.5 6.38071 17.5 5V4H18C19.1046 4 20 4.89543 20 6V20C20 21.1046 19.1046 22 18 22H6C4.89543 22 4 21.1046 4 20V6C4 4.89543 4.89543 4 6 4ZM12 8.25C8.82436 8.25 6.25 10.8244 6.25 14C6.25 17.1756 8.82436 19.75 12 19.75C15.1756 19.75 17.75 17.1756 17.75 14C17.75 10.8244 15.1756 8.25 12 8.25Z" fill="currentColor"/>
</svg>
