<svg viewBox="0 0 24 24" fill="currentColor" xmlns="http://www.w3.org/2000/svg">
<path d="M9.75 7.5C9.75 6.67738 10.0203 6.13921 10.3868 5.80168C10.7634 5.45484 11.3182 5.25 12 5.25C12.6818 5.25 13.2366 5.45484 13.6132 5.80168C13.9797 6.13921 14.25 6.67738 14.25 7.5C14.25 7.81558 14.1295 8.18058 13.8881 8.58288C13.6492 8.98116 13.3191 9.37027 12.9697 9.71967C12.6227 10.0667 12.2727 10.3586 12.0083 10.5642L12 10.5707L11.9917 10.5642C11.7273 10.3586 11.3773 10.0667 11.0303 9.71967C10.6809 9.37027 10.3508 8.98116 10.1119 8.58288C9.87049 8.18058 9.75 7.81558 9.75 7.5Z" fill="currentColor"/>
<path d="M4 3H20C21.1046 3 22 3.89543 22 5V14C22 15.1046 21.1046 16 20 16H14.0833L14.4375 20.25H16C16.4142 20.25 16.75 20.5858 16.75 21C16.75 21.4142 16.4142 21.75 16 21.75H8C7.58579 21.75 7.25 21.4142 7.25 21C7.25 20.5858 7.58579 20.25 8 20.25H9.5625L9.91667 16H4C2.89543 16 2 15.1046 2 14V5C2 3.89543 2.89543 3 4 3ZM9.96967 10.7803C10.2366 11.0472 10.5022 11.2835 10.7377 11.4799L8.06407 13.3897C7.72701 13.6305 7.64894 14.0989 7.8897 14.4359C8.13046 14.773 8.59887 14.8511 8.93593 14.6103L12 12.4217L15.0641 14.6103C15.4011 14.8511 15.8695 14.773 16.1103 14.4359C16.3511 14.0989 16.273 13.6305 15.9359 13.3897L13.2623 11.4799C13.4978 11.2835 13.7634 11.0472 14.0303 10.7803C14.4309 10.3797 14.8508 9.89384 15.1744 9.35462C15.4955 8.81942 15.75 8.18442 15.75 7.5C15.75 6.32262 15.3487 5.36079 14.6294 4.69832C13.9202 4.04516 12.9751 3.75 12 3.75C11.0249 3.75 10.0798 4.04516 9.37059 4.69832C8.65129 5.36079 8.25 6.32262 8.25 7.5C8.25 8.18442 8.50451 8.81942 8.82563 9.35462C9.14916 9.89384 9.56907 10.3797 9.96967 10.7803Z" fill="currentColor"/>
</svg>
