<svg viewBox="0 0 24 24" fill="currentColor" xmlns="http://www.w3.org/2000/svg">
<path d="M6 4H6.5V5C6.5 6.38071 7.61929 7.5 9 7.5H15C16.3807 7.5 17.5 6.38071 17.5 5V4H18C19.1046 4 20 4.89543 20 6V20C20 21.1046 19.1046 22 18 22H6C4.89543 22 4 21.1046 4 20V6C4 4.89543 4.89543 4 6 4ZM11.121 8.48966C10.9791 8.33684 10.78 8.25 10.5714 8.25C10.3629 8.25 10.1637 8.33684 10.0218 8.48966L8.10152 10.5577H7C6.58579 10.5577 6.25 10.8935 6.25 11.3077C6.25 11.7219 6.58579 12.0577 7 12.0577H8.42857C8.63712 12.0577 8.83626 11.9709 8.97817 11.818L10.5714 10.1022L12.8075 12.5103C12.9495 12.6632 13.1486 12.75 13.3571 12.75C13.5657 12.75 13.7648 12.6632 13.9067 12.5103L15.3985 10.9038H17C17.4142 10.9038 17.75 10.5681 17.75 10.1538C17.75 9.73963 17.4142 9.40385 17 9.40385H15.0714C14.8629 9.40385 14.6637 9.49068 14.5218 9.64351L13.3571 10.8978L11.121 8.48966ZM6.5 14.75C6.08579 14.75 5.75 15.0858 5.75 15.5C5.75 15.9142 6.08579 16.25 6.5 16.25H7.5C7.91421 16.25 8.25 15.9142 8.25 15.5C8.25 15.0858 7.91421 14.75 7.5 14.75H6.5ZM11 14.75C10.5858 14.75 10.25 15.0858 10.25 15.5C10.25 15.9142 10.5858 16.25 11 16.25H17.5C17.9142 16.25 18.25 15.9142 18.25 15.5C18.25 15.0858 17.9142 14.75 17.5 14.75H11ZM6.5 17.75C6.08579 17.75 5.75 18.0858 5.75 18.5C5.75 18.9142 6.08579 19.25 6.5 19.25H7.5C7.91421 19.25 8.25 18.9142 8.25 18.5C8.25 18.0858 7.91421 17.75 7.5 17.75H6.5ZM11 17.75C10.5858 17.75 10.25 18.0858 10.25 18.5C10.25 18.9142 10.5858 19.25 11 19.25H17.5C17.9142 19.25 18.25 18.9142 18.25 18.5C18.25 18.0858 17.9142 17.75 17.5 17.75H11Z" fill="currentColor"/>
<path d="M8 3C8 2.44772 8.44772 2 9 2H15C15.5523 2 16 2.44772 16 3V5C16 5.55228 15.5523 6 15 6H9C8.44772 6 8 5.55228 8 5V3Z" fill="currentColor"/>
</svg>
