<svg viewBox="0 0 24 24" fill="currentColor" xmlns="http://www.w3.org/2000/svg">
<path d="M8 3C8 2.44772 8.44772 2 9 2H15C15.5523 2 16 2.44772 16 3V5C16 5.55228 15.5523 6 15 6H9C8.44772 6 8 5.55228 8 5V3Z" fill="currentColor"/>
<path d="M6.5 4H6C4.89543 4 4 4.89543 4 6V20C4 21.1046 4.89543 22 6 22H18C19.1046 22 20 21.1046 20 20V6C20 4.89543 19.1046 4 18 4H17.5V5C17.5 6.38071 16.3807 7.5 15 7.5H9C7.61929 7.5 6.5 6.38071 6.5 5V4ZM15.5303 8.46967C15.8232 8.76256 15.8232 9.23744 15.5303 9.53033L11.5303 13.5303C11.2374 13.8232 10.7626 13.8232 10.4697 13.5303L8.46967 11.5303C8.17678 11.2374 8.17678 10.7626 8.46967 10.4697C8.76256 10.1768 9.23744 10.1768 9.53033 10.4697L11 11.9393L14.4697 8.46967C14.7626 8.17678 15.2374 8.17678 15.5303 8.46967ZM6.25 16C6.25 15.5858 6.58579 15.25 7 15.25H17C17.4142 15.25 17.75 15.5858 17.75 16C17.75 16.4142 17.4142 16.75 17 16.75H7C6.58579 16.75 6.25 16.4142 6.25 16ZM6.25 19C6.25 18.5858 6.58579 18.25 7 18.25H17C17.4142 18.25 17.75 18.5858 17.75 19C17.75 19.4142 17.4142 19.75 17 19.75H7C6.58579 19.75 6.25 19.4142 6.25 19Z" fill="currentColor"/>
</svg>
