<svg viewBox="0 0 24 24" fill="currentColor" xmlns="http://www.w3.org/2000/svg">
<path d="M17.3411 13.1343C17.8726 11.8851 18.0346 10.4558 17.6788 8.98856L18.7033 9.4276C20.095 10.0241 21.7097 9.7131 22.7804 8.64243C23.0732 8.34962 23.0732 7.87488 22.7804 7.58208C22.4876 7.28927 22.0128 7.28927 21.72 7.58208C21.6611 7.64099 21.5994 7.69604 21.5353 7.74715L19.2791 5.49089C18.9862 5.198 18.5113 5.198 18.2184 5.49089C17.9255 5.78378 17.9255 6.25866 18.2184 6.55155L19.8758 8.20889C19.6785 8.18307 19.4828 8.13022 19.294 8.04929L16.9541 7.04648L15.951 4.70597C15.8705 4.51821 15.8178 4.32363 15.7918 4.12754L16.0648 4.40051C16.3576 4.69332 16.8323 4.69332 17.1251 4.40051C17.4179 4.1077 17.4179 3.63297 17.1251 3.34016L16.2515 2.46659C16.3031 2.4018 16.3587 2.33946 16.4182 2.27995C16.711 1.98715 16.711 1.51241 16.4182 1.2196C16.1254 0.9268 15.6506 0.9268 15.3578 1.2196C14.2871 2.29028 13.9762 3.90494 14.5726 5.29668L15.0119 6.32161C13.5442 5.96557 12.1145 6.12763 10.865 6.65935C10.7003 6.67574 10.5399 6.74652 10.4131 6.8717C7.80221 8.21769 6.12166 11.2185 6.82323 14.3573C4.93313 13.4854 2.69559 13.8816 1.21961 15.3576C0.926797 15.6504 0.926797 16.1251 1.21961 16.4179C1.51242 16.7107 1.98716 16.7107 2.27997 16.4179C2.33865 16.3592 2.39906 16.303 2.46104 16.2492L4.78341 18.5716C5.0763 18.8645 5.55118 18.8645 5.84407 18.5716C6.13696 18.2787 6.13696 17.8038 5.84407 17.511L3.84844 15.5153C4.63197 15.3079 5.4826 15.3754 6.2475 15.7437L7.60307 16.3963L8.25609 17.7526C8.62395 18.5166 8.69168 19.3661 8.48516 20.1489L7.93531 19.599C7.6425 19.3062 7.16775 19.3062 6.87494 19.599C6.58213 19.8919 6.58213 20.3666 6.87494 20.6594L7.75239 21.5368C7.69805 21.5996 7.64118 21.6607 7.58182 21.72C7.28901 22.0129 7.28901 22.4876 7.58182 22.7804C7.87463 23.0732 8.34938 23.0732 8.64219 22.7804C10.1183 21.3043 10.5145 19.0665 9.64225 17.1764C12.7808 17.8782 15.7815 16.1982 17.1279 13.588C17.2538 13.4608 17.3249 13.2997 17.3411 13.1343ZM15.644 13.17C15.2168 13.8964 14.6211 14.5175 13.9163 14.9765L9.02338 10.0837C9.48249 9.3789 10.1036 8.78329 10.83 8.35613L15.644 13.17ZM8.75965 15.2889L8.72651 15.2729L8.71088 15.2405C8.10184 13.9755 8.03678 12.6881 8.35993 11.5409L12.459 15.6399C11.3119 15.963 10.0245 15.8979 8.75965 15.2889ZM16.2442 11.6495L12.3506 7.75599C13.3552 7.53388 14.4585 7.60844 15.5627 8.08167L15.812 8.18851L15.9186 8.43717C16.3919 9.54149 16.4664 10.6448 16.2442 11.6495Z" fill="currentColor"/>
</svg>
