<svg viewBox="0 0 24 24" fill="currentColor" xmlns="http://www.w3.org/2000/svg">
<path d="M7 1.25C7.41421 1.25 7.75 1.58579 7.75 2V3.25H16.25V2C16.25 1.58579 16.5858 1.25 17 1.25C17.4142 1.25 17.75 1.58579 17.75 2V7C17.75 9.14213 16.5786 11.0107 14.8415 12C16.5786 12.9893 17.75 14.8579 17.75 17V22C17.75 22.4142 17.4142 22.75 17 22.75C16.5858 22.75 16.25 22.4142 16.25 22V20.75H7.75V22C7.75 22.4142 7.41421 22.75 7 22.75C6.58579 22.75 6.25 22.4142 6.25 22V17C6.25 14.8579 7.42138 12.9893 9.15853 12C7.42138 11.0107 6.25 9.14213 6.25 7V2C6.25 1.58579 6.58579 1.25 7 1.25ZM7.75 4.75V7C7.75 7.09724 7.75327 7.19372 7.75969 7.28933C7.83513 7.26383 7.91595 7.25 8 7.25H16C16.084 7.25 16.1649 7.26383 16.2403 7.28933C16.2467 7.19372 16.25 7.09724 16.25 7V4.75H7.75ZM16.25 17C16.25 16.9028 16.2467 16.8063 16.2403 16.7107C16.1649 16.7362 16.084 16.75 16 16.75H8C7.91595 16.75 7.83513 16.7362 7.75969 16.7107C7.75327 16.8063 7.75 16.9028 7.75 17V19.25H16.25V17ZM8.12587 8.75C8.79286 10.2243 10.2766 11.25 12 11.25C13.7234 11.25 15.2071 10.2243 15.8741 8.75H8.12587ZM12 12.75C10.2766 12.75 8.79286 13.7757 8.12587 15.25H15.8741C15.2071 13.7757 13.7234 12.75 12 12.75Z" fill="currentColor"/>
</svg>
