<svg viewBox="0 0 24 24" fill="currentColor" xmlns="http://www.w3.org/2000/svg">
<path d="M8.25 13C8.25 12.1774 8.52028 11.6392 8.88677 11.3017C9.26336 10.9548 9.81822 10.75 10.5 10.75C11.1818 10.75 11.7366 10.9548 12.1132 11.3017C12.4797 11.6392 12.75 12.1774 12.75 13C12.75 13.3156 12.6295 13.6806 12.3881 14.0829C12.1492 14.4812 11.8191 14.8703 11.4697 15.2197C11.1227 15.5667 10.7727 15.8586 10.5083 16.0642L10.5 16.0707L10.4917 16.0642C10.2273 15.8586 9.87735 15.5667 9.53033 15.2197C9.18093 14.8703 8.85084 14.4812 8.61187 14.0829C8.37049 13.6806 8.25 13.3156 8.25 13Z" fill="currentColor"/>
<path d="M13.0801 2C13.1371 2 13.1937 2.00243 13.25 2.00722V8C13.25 8.9665 14.0335 9.75 15 9.75H20V20C20 21.1046 19.1046 22 18 22H6C4.89543 22 4 21.1046 4 20V4C4 2.89543 4.89543 2 6 2H13.0801ZM8.46967 16.2803C8.73656 16.5472 9.00218 16.7835 9.23773 16.9799L6.56407 18.8897C6.22701 19.1305 6.14894 19.5989 6.3897 19.9359C6.63046 20.273 7.09887 20.3511 7.43593 20.1103L10.5 17.9217L13.5641 20.1103C13.9011 20.3511 14.3695 20.273 14.6103 19.9359C14.8511 19.5989 14.773 19.1305 14.4359 18.8897L11.7623 16.9799C11.9978 16.7835 12.2634 16.5472 12.5303 16.2803C12.9309 15.8797 13.3508 15.3938 13.6744 14.8546C13.9955 14.3194 14.25 13.6844 14.25 13C14.25 11.8226 13.8487 10.8608 13.1294 10.1983C12.4202 9.54516 11.4751 9.25 10.5 9.25C9.52493 9.25 8.57979 9.54516 7.87059 10.1983C7.15129 10.8608 6.75 11.8226 6.75 13C6.75 13.6844 7.00451 14.3194 7.32563 14.8546C7.64916 15.3938 8.06907 15.8797 8.46967 16.2803Z" fill="currentColor"/>
<path d="M14.75 2.875L19.3571 8.25H15C14.8619 8.25 14.75 8.13807 14.75 8V2.875Z" fill="currentColor"/>
</svg>
