<svg viewBox="0 0 24 24" fill="currentColor" xmlns="http://www.w3.org/2000/svg">
<path d="M12 1.25C11.3869 1.25 10.7853 1.30139 10.1993 1.40027C9.79087 1.46919 9.51563 1.85616 9.58455 2.2646C9.65346 2.67304 10.0405 2.94828 10.4489 2.87936C10.9528 2.79434 11.4709 2.75 12 2.75C12.5291 2.75 13.0472 2.79434 13.5511 2.87936C13.9595 2.94828 14.3465 2.67304 14.4154 2.2646C14.4843 1.85616 14.2091 1.46919 13.8007 1.40027C13.2147 1.30139 12.6131 1.25 12 1.25Z" fill="currentColor"/>
<path d="M18.2216 3.23238C17.884 2.99241 17.4158 3.07155 17.1758 3.40917C16.9358 3.74678 17.015 4.21501 17.3526 4.45499C18.2004 5.05762 18.9424 5.79961 19.545 6.64741C19.785 6.98503 20.2532 7.06418 20.5908 6.8242C20.9284 6.58422 21.0076 6.11599 20.7676 5.77838C20.0677 4.79377 19.2062 3.93225 18.2216 3.23238Z" fill="currentColor"/>
<path d="M6.64741 4.45499C6.98503 4.21501 7.06418 3.74678 6.8242 3.40917C6.58422 3.07155 6.11599 2.99241 5.77838 3.23238C4.79377 3.93225 3.93225 4.79377 3.23238 5.77838C2.99241 6.11599 3.07155 6.58422 3.40917 6.8242C3.74678 7.06418 4.21501 6.98503 4.45499 6.64742C5.05762 5.79961 5.79961 5.05762 6.64741 4.45499Z" fill="currentColor"/>
<path d="M2.87936 10.4489C2.94828 10.0405 2.67304 9.65349 2.2646 9.58458C1.85616 9.51566 1.46919 9.7909 1.40027 10.1993C1.30139 10.7853 1.25 11.3869 1.25 12C1.25 12.6131 1.30139 13.2147 1.40027 13.8007C1.46919 14.2091 1.85616 14.4843 2.2646 14.4154C2.67304 14.3465 2.94828 13.9595 2.87936 13.5511C2.79434 13.0472 2.75 12.5291 2.75 12C2.75 11.4709 2.79434 10.9528 2.87936 10.4489Z" fill="currentColor"/>
<path d="M22.5997 10.1993C22.5308 9.7909 22.1438 9.51566 21.7354 9.58458C21.327 9.65349 21.0517 10.0405 21.1206 10.4489C21.2057 10.9528 21.25 11.4709 21.25 12C21.25 12.5291 21.2057 13.0472 21.1206 13.5511C21.0517 13.9595 21.327 14.3465 21.7354 14.4154C22.1438 14.4843 22.5308 14.2091 22.5997 13.8007C22.6986 13.2147 22.75 12.6131 22.75 12C22.75 11.3869 22.6986 10.7853 22.5997 10.1993Z" fill="currentColor"/>
<path d="M20.7676 18.2216C21.0076 17.884 20.9284 17.4158 20.5908 17.1758C20.2532 16.9358 19.785 17.015 19.545 17.3526C18.9424 18.2004 18.2004 18.9424 17.3526 19.545C17.015 19.785 16.9358 20.2532 17.1758 20.5908C17.4158 20.9284 17.884 21.0076 18.2216 20.7676C19.2062 20.0677 20.0677 19.2062 20.7676 18.2216Z" fill="currentColor"/>
<path d="M4.45499 17.3526C4.21501 17.015 3.74678 16.9358 3.40917 17.1758C3.07155 17.4158 2.99241 17.884 3.23238 18.2216C3.93225 19.2062 4.79377 20.0677 5.77838 20.7676C6.11599 21.0076 6.58422 20.9284 6.8242 20.5908C7.06418 20.2532 6.98503 19.785 6.64742 19.545C5.79961 18.9424 5.05762 18.2004 4.45499 17.3526Z" fill="currentColor"/>
<path d="M10.4489 21.1206C10.0405 21.0517 9.65346 21.327 9.58455 21.7354C9.51563 22.1438 9.79087 22.5308 10.1993 22.5997C10.7853 22.6986 11.3869 22.75 12 22.75C12.6131 22.75 13.2147 22.6986 13.8007 22.5997C14.2091 22.5308 14.4843 22.1438 14.4154 21.7354C14.3465 21.327 13.9595 21.0517 13.5511 21.1206C13.0472 21.2057 12.5291 21.25 12 21.25C11.4709 21.25 10.9528 21.2057 10.4489 21.1206Z" fill="currentColor"/>
<path d="M11.5 7H12.5C13.0523 7 13.5 7.44772 13.5 8V10.5H16C16.5523 10.5 17 10.9477 17 11.5V12.5C17 13.0523 16.5523 13.5 16 13.5H13.5V16C13.5 16.5523 13.0523 17 12.5 17H11.5C10.9477 17 10.5 16.5523 10.5 16V13.5H8C7.44772 13.5 7 13.0523 7 12.5V11.5C7 10.9477 7.44772 10.5 8 10.5H10.5V8C10.5 7.44772 10.9477 7 11.5 7Z" fill="currentColor"/>
</svg>
