<svg viewBox="0 0 24 24" fill="currentColor" xmlns="http://www.w3.org/2000/svg">
<path d="M2 9.96653C2 13.4886 6.01943 17.2137 8.96173 19.4687C10.2937 20.4896 10.9597 21 12 21C13.0403 21 13.7063 20.4896 15.0383 19.4687C17.9806 17.2137 22 13.4887 22 9.9665C22 4.08262 16.4998 1.88586 12 6.43111C7.50016 1.88586 2 4.08262 2 9.96653ZM12.75 9V12.25H16C16.4142 12.25 16.75 12.5858 16.75 13C16.75 13.4142 16.4142 13.75 16 13.75H12.75V17C12.75 17.4142 12.4142 17.75 12 17.75C11.5858 17.75 11.25 17.4142 11.25 17V13.75H8C7.58579 13.75 7.25 13.4142 7.25 13C7.25 12.5858 7.58579 12.25 8 12.25H11.25V9C11.25 8.58579 11.5858 8.25 12 8.25C12.4142 8.25 12.75 8.58579 12.75 9Z" fill="currentColor"/>
</svg>
