<svg viewBox="0 0 24 24" fill="currentColor" xmlns="http://www.w3.org/2000/svg">
<path d="M3 7C2.44772 7 2 7.44772 2 8V9.25C1.58579 9.25 1.25 9.58579 1.25 10C1.25 10.4142 1.58579 10.75 2 10.75H6.75L11.6392 14.4169L7.99813 17.2665C7.70438 17.097 7.36351 17 7 17C5.89543 17 5 17.8954 5 19C5 20.1046 5.89543 21 7 21C7.83934 21 8.55793 20.483 8.85462 19.75H17.1454C17.4421 20.483 18.1607 21 19 21C20.1046 21 21 20.1046 21 19C21 17.8954 20.1046 17 19 17C18.6218 17 18.2681 17.105 17.9665 17.2874L14.1055 14.3916L18.7586 10.75H22C22.4142 10.75 22.75 10.4142 22.75 10C22.75 9.58579 22.4142 9.25 22 9.25H7V8C7 7.44772 6.55228 7 6 7H3ZM16.75 18.25H9.17526L12.882 15.349L16.75 18.25ZM16.3247 10.75L12.8626 13.4595L9.25 10.75H16.3247Z" fill="currentColor"/>
</svg>
