<svg viewBox="0 0 24 24" fill="currentColor" xmlns="http://www.w3.org/2000/svg">
<path d="M18 21C19.1046 21 20 20.1046 20 19C20 17.8954 19.1046 17 18 17C16.8954 17 16 17.8954 16 19C16 20.1046 16.8954 21 18 21Z" fill="currentColor"/>
<path d="M3.75 4.25C2.7835 4.25 2 5.0335 2 6V10C2 11.1046 2.89543 12 4 12H5.25V17.1454C4.51704 17.4421 4 18.1607 4 19C4 20.1046 4.89543 21 6 21C7.10457 21 8 20.1046 8 19C8 18.1607 7.48296 17.4421 6.75 17.1454V15.75H17.25V19C17.25 19.4142 17.5858 19.75 18 19.75C18.4142 19.75 18.75 19.4142 18.75 19V12H20C21.1046 12 22 11.1046 22 10V5.75C22 5.33579 21.6642 5 21.25 5C20.8358 5 20.5 5.33579 20.5 5.75V8H15.5V6C15.5 5.0335 14.7165 4.25 13.75 4.25H3.75ZM17.25 12V14.25H6.75V12H17.25ZM3.75 5.75H6V8H3.5V6C3.5 5.86193 3.61193 5.75 3.75 5.75ZM14 6V8H11.5V5.75H13.75C13.8881 5.75 14 5.86193 14 6ZM10 5.75V8H7.5V5.75H10Z" fill="currentColor"/>
</svg>
