<svg viewBox="0 0 24 24" fill="currentColor" xmlns="http://www.w3.org/2000/svg">
<path d="M12 2C7.02944 2 3 6.01585 3 10.9696C3 16.3296 8.07101 20.2049 11.2201 21.8117C11.7123 22.0628 12.2877 22.0628 12.7799 21.8117C15.929 20.2049 21 16.3296 21 10.9696C21 6.01585 16.9706 2 12 2ZM10.5 7C10.5 6.44772 10.9477 6 11.5 6H12.5C13.0523 6 13.5 6.44772 13.5 7V9.5H16C16.5523 9.5 17 9.94771 17 10.5V11.5C17 12.0523 16.5523 12.5 16 12.5H13.5V15C13.5 15.5523 13.0523 16 12.5 16H11.5C10.9477 16 10.5 15.5523 10.5 15V12.5H8C7.44772 12.5 7 12.0523 7 11.5V10.5C7 9.94771 7.44772 9.5 8 9.5H10.5V7Z" fill="currentColor"/>
</svg>
