<svg viewBox="0 0 24 24" fill="currentColor" xmlns="http://www.w3.org/2000/svg">
<path d="M2 4C2 2.89543 2.89543 2 4 2H13C14.1046 2 15 2.89543 15 4V11H20C21.1046 11 22 11.8954 22 13V21.25C22.4142 21.25 22.75 21.5858 22.75 22C22.75 22.4142 22.4142 22.75 22 22.75H2C1.58579 22.75 1.25 22.4142 1.25 22C1.25 21.5858 1.58579 21.25 2 21.25V4ZM6 21.25H11V17.5C11 16.1193 9.88071 15 8.5 15C7.11929 15 6 16.1193 6 17.5V21.25ZM8.5 4.25C8.08579 4.25 7.75 4.58579 7.75 5V7.25H5.5C5.08579 7.25 4.75 7.58579 4.75 8C4.75 8.41421 5.08579 8.75 5.5 8.75H7.75V11C7.75 11.4142 8.08579 11.75 8.5 11.75C8.91421 11.75 9.25 11.4142 9.25 11V8.75H11.5C11.9142 8.75 12.25 8.41421 12.25 8C12.25 7.58579 11.9142 7.25 11.5 7.25H9.25V5C9.25 4.58579 8.91421 4.25 8.5 4.25Z" fill="currentColor"/>
</svg>
