<svg viewBox="0 0 24 24" fill="currentColor" xmlns="http://www.w3.org/2000/svg">
<path d="M17.8727 22H20C21.1046 22 22 21.1046 22 20V8C22 6.89543 21.1046 6 20 6H18.5V20C18.5 20.7436 18.2681 21.4331 17.8727 22Z" fill="currentColor"/>
<path d="M4 2C2.89543 2 2 2.89543 2 4V20C2 21.1046 2.89543 22 4 22H7V17.5C7 16.1193 8.11929 15 9.5 15C10.8807 15 12 16.1193 12 17.5V22H15C16.1046 22 17 21.1046 17 20V4C17 2.89543 16.1046 2 15 2H4ZM8.95 5H10.05C10.3261 5 10.55 5.22386 10.55 5.5V7.45H12.5C12.7761 7.45 13 7.67386 13 7.95V9.05C13 9.32614 12.7761 9.55 12.5 9.55H10.55V11.5C10.55 11.7761 10.3261 12 10.05 12H8.95C8.67386 12 8.45 11.7761 8.45 11.5V9.55H6.5C6.22386 9.55 6 9.32614 6 9.05V7.95C6 7.67386 6.22386 7.45 6.5 7.45H8.45V5.5C8.45 5.22386 8.67386 5 8.95 5Z" fill="currentColor"/>
</svg>
