<svg viewBox="0 0 24 24" fill="currentColor" xmlns="http://www.w3.org/2000/svg">
<path d="M6 2C4.89543 2 4 2.89543 4 4V21.25H2C1.58579 21.25 1.25 21.5858 1.25 22C1.25 22.4142 1.58579 22.75 2 22.75H22C22.4142 22.75 22.75 22.4142 22.75 22C22.75 21.5858 22.4142 21.25 22 21.25H20V4C20 2.89543 19.1046 2 18 2H6ZM15 21.25H9V18C9 16.3431 10.3431 15 12 15C13.6569 15 15 16.3431 15 18V21.25ZM12 4.25C12.4142 4.25 12.75 4.58579 12.75 5V7.25H15C15.4142 7.25 15.75 7.58579 15.75 8C15.75 8.41421 15.4142 8.75 15 8.75H12.75V11C12.75 11.4142 12.4142 11.75 12 11.75C11.5858 11.75 11.25 11.4142 11.25 11V8.75H9C8.58579 8.75 8.25 8.41421 8.25 8C8.25 7.58579 8.58579 7.25 9 7.25H11.25V5C11.25 4.58579 11.5858 4.25 12 4.25Z" fill="currentColor"/>
</svg>
