<svg viewBox="0 0 24 24" fill="currentColor" xmlns="http://www.w3.org/2000/svg">
<path d="M10.75 8.5C10.75 8.08579 10.4142 7.75 10 7.75C9.58579 7.75 9.25 8.08579 9.25 8.5V13.5C9.25 13.9142 9.58579 14.25 10 14.25C10.4142 14.25 10.75 13.9142 10.75 13.5V11.75H13.25V13.5C13.25 13.9142 13.5858 14.25 14 14.25C14.4142 14.25 14.75 13.9142 14.75 13.5V8.5C14.75 8.08579 14.4142 7.75 14 7.75C13.5858 7.75 13.25 8.08579 13.25 8.5V10.25H10.75V8.5Z" fill="currentColor"/>
<path d="M3 10.9696C3 6.01585 7.02944 2 12 2C16.9706 2 21 6.01585 21 10.9696C21 16.3296 15.929 20.2049 12.7799 21.8117C12.2877 22.0628 11.7123 22.0628 11.2201 21.8117C8.07101 20.2049 3 16.3296 3 10.9696ZM17 11C17 8.23858 14.7614 6 12 6C9.23858 6 7 8.23858 7 11C7 13.7614 9.23858 16 12 16C14.7614 16 17 13.7614 17 11Z" fill="currentColor"/>
</svg>
