<svg viewBox="0 0 24 24" fill="currentColor" xmlns="http://www.w3.org/2000/svg">
<path d="M12 7.25C12.4142 7.25 12.75 7.58579 12.75 8V10.25H15C15.4142 10.25 15.75 10.5858 15.75 11C15.75 11.4142 15.4142 11.75 15 11.75H12.75V14C12.75 14.4142 12.4142 14.75 12 14.75C11.5858 14.75 11.25 14.4142 11.25 14V11.75H9C8.58579 11.75 8.25 11.4142 8.25 11C8.25 10.5858 8.58579 10.25 9 10.25H11.25V8C11.25 7.58579 11.5858 7.25 12 7.25Z" fill="currentColor"/>
<path d="M12 2C7.02944 2 3 6.01585 3 10.9696C3 16.3296 8.07101 20.2049 11.2201 21.8117C11.7123 22.0628 12.2877 22.0628 12.7799 21.8117C15.929 20.2049 21 16.3296 21 10.9696C21 6.01585 16.9706 2 12 2ZM17 11C17 13.7614 14.7614 16 12 16C9.23858 16 7 13.7614 7 11C7 8.23858 9.23858 6 12 6C14.7614 6 17 8.23858 17 11Z" fill="currentColor"/>
</svg>
