<svg viewBox="0 0 24 24" fill="currentColor" xmlns="http://www.w3.org/2000/svg">
<path d="M6 8V21C6 21.5523 6.44772 22 7 22H9V19C9 17.3431 10.3431 16 12 16C13.6569 16 15 17.3431 15 19V22H17C17.5523 22 18 21.5523 18 21V8C18 6.89543 17.1046 6 16 6H8C6.89543 6 6 6.89543 6 8ZM11.6 8H12.4C12.6761 8 12.9 8.22386 12.9 8.5V10.1H14.5C14.7761 10.1 15 10.3239 15 10.6V11.4C15 11.6761 14.7761 11.9 14.5 11.9H12.9V13.5C12.9 13.7761 12.6761 14 12.4 14H11.6C11.3239 14 11.1 13.7761 11.1 13.5V11.9H9.5C9.22386 11.9 9 11.6761 9 11.4V10.6C9 10.3239 9.22386 10.1 9.5 10.1H11.1V8.5C11.1 8.22386 11.3239 8 11.6 8Z" fill="currentColor"/>
<path d="M4 2C2.89543 2 2 2.89543 2 4V20C2 21.1046 2.89543 22 4 22H4.70802C4.57422 21.6938 4.5 21.3556 4.5 21V8C4.5 6.067 6.067 4.5 8 4.5H11V4C11 2.89543 10.1046 2 9 2H4Z" fill="currentColor"/>
<path d="M19.292 22H20C21.1046 22 22 21.1046 22 20V4C22 2.89543 21.1046 2 20 2H15C13.8954 2 13 2.89543 13 4V4.5H16C17.933 4.5 19.5 6.067 19.5 8V21C19.5 21.3556 19.4258 21.6938 19.292 22Z" fill="currentColor"/>
</svg>
