<svg viewBox="0 0 24 24" fill="currentColor" xmlns="http://www.w3.org/2000/svg">
<path d="M3 2C2.44772 2 2 2.44772 2 3V21.25C1.58579 21.25 1.25 21.5858 1.25 22C1.25 22.4142 1.58579 22.75 2 22.75H22C22.4142 22.75 22.75 22.4142 22.75 22C22.75 21.5858 22.4142 21.25 22 21.25V13C22 12.4477 21.5523 12 21 12H13.5V21.25H12V3C12 2.44772 11.5523 2 11 2H3ZM9 18V21.25H5V18C5 16.8954 5.89543 16 7 16C8.10457 16 9 16.8954 9 18ZM6.475 4H7.525C7.73211 4 7.9 4.16789 7.9 4.375V6.1H9.625C9.83211 6.1 10 6.26789 10 6.475V7.525C10 7.73211 9.83211 7.9 9.625 7.9H7.9V9.625C7.9 9.83211 7.73211 10 7.525 10H6.475C6.26789 10 6.1 9.83211 6.1 9.625V7.9H4.375C4.16789 7.9 4 7.73211 4 7.525V6.475C4 6.26789 4.16789 6.1 4.375 6.1H6.1V4.375C6.1 4.16789 6.26789 4 6.475 4ZM5 12.25H9C9.41421 12.25 9.75 12.5858 9.75 13C9.75 13.4142 9.41421 13.75 9 13.75H5C4.58579 13.75 4.25 13.4142 4.25 13C4.25 12.5858 4.58579 12.25 5 12.25ZM15.25 15C15.25 14.5858 15.5858 14.25 16 14.25H19C19.4142 14.25 19.75 14.5858 19.75 15C19.75 15.4142 19.4142 15.75 19 15.75H16C15.5858 15.75 15.25 15.4142 15.25 15ZM16 18.25H19C19.4142 18.25 19.75 18.5858 19.75 19C19.75 19.4142 19.4142 19.75 19 19.75H16C15.5858 19.75 15.25 19.4142 15.25 19C15.25 18.5858 15.5858 18.25 16 18.25Z" fill="currentColor"/>
</svg>
