<svg viewBox="0 0 24 24" fill="currentColor" xmlns="http://www.w3.org/2000/svg">
<path d="M2.5 2H3.5C3.77614 2 4 2.22386 4 2.5V7.25H8V7C8 5.89543 8.89543 5 10 5H20C21.1046 5 22 5.89543 22 7V17C22 18.1046 21.1046 19 20 19H10C8.89543 19 8 18.1046 8 17V16.75H4V21.5C4 21.7761 3.77614 22 3.5 22H2.5C2.22386 22 2 21.7761 2 21.5V2.5C2 2.22386 2.22386 2 2.5 2ZM8 8.75H4V15.25H8V8.75ZM15.7 8H14.3C14.0239 8 13.8 8.22386 13.8 8.5V10.8H11.5C11.2239 10.8 11 11.0239 11 11.3V12.7C11 12.9761 11.2239 13.2 11.5 13.2H13.8V15.5C13.8 15.7761 14.0239 16 14.3 16H15.7C15.9761 16 16.2 15.7761 16.2 15.5V13.2H18.5C18.7761 13.2 19 12.9761 19 12.7V11.3C19 11.0239 18.7761 10.8 18.5 10.8H16.2V8.5C16.2 8.22386 15.9761 8 15.7 8Z" fill="currentColor"/>
</svg>
