<svg viewBox="0 0 24 24" fill="currentColor" xmlns="http://www.w3.org/2000/svg">
<path d="M4 2C2.89543 2 2 2.89543 2 4V20C2 21.1046 2.89543 22 4 22H7V17.5C7 16.1193 8.11929 15 9.5 15C10.8807 15 12 16.1193 12 17.5V22H15C16.1046 22 17 21.1046 17 20V4C17 2.89543 16.1046 2 15 2H4ZM7 12.25H12C12.4142 12.25 12.75 12.5858 12.75 13C12.75 13.4142 12.4142 13.75 12 13.75H7C6.58579 13.75 6.25 13.4142 6.25 13C6.25 12.5858 6.58579 12.25 7 12.25ZM8.95 4H10.05C10.3261 4 10.55 4.22386 10.55 4.5V6.45H12.5C12.7761 6.45 13 6.67386 13 6.95V8.05C13 8.32614 12.7761 8.55 12.5 8.55H10.55V10.5C10.55 10.7761 10.3261 11 10.05 11H8.95C8.67386 11 8.45 10.7761 8.45 10.5V8.55H6.5C6.22386 8.55 6 8.32614 6 8.05V6.95C6 6.67386 6.22386 6.45 6.5 6.45H8.45V4.5C8.45 4.22386 8.67386 4 8.95 4Z" fill="currentColor"/>
<path d="M17.8727 22H20C21.1046 22 22 21.1046 22 20V8C22 6.89543 21.1046 6 20 6H18.5V20C18.5 20.7436 18.2681 21.4331 17.8727 22Z" fill="currentColor"/>
</svg>
