<svg viewBox="0 0 24 24" fill="currentColor" xmlns="http://www.w3.org/2000/svg">
<path d="M8 2C7.44772 2 7 2.44772 7 3V8H4C2.89543 8 2 8.89543 2 10V21.25C1.58579 21.25 1.25 21.5858 1.25 22C1.25 22.4142 1.58579 22.75 2 22.75H22C22.4142 22.75 22.75 22.4142 22.75 22C22.75 21.5858 22.4142 21.25 22 21.25V10C22 8.89543 21.1046 8 20 8H17V3C17 2.44772 16.5523 2 16 2H8ZM15 21.25H9V18C9 16.3431 10.3431 15 12 15C13.6569 15 15 16.3431 15 18V21.25ZM3.25 12C3.25 11.5858 3.58579 11.25 4 11.25H7C7.41421 11.25 7.75 11.5858 7.75 12C7.75 12.4142 7.41421 12.75 7 12.75H4C3.58579 12.75 3.25 12.4142 3.25 12ZM17 11.25H20C20.4142 11.25 20.75 11.5858 20.75 12C20.75 12.4142 20.4142 12.75 20 12.75H17C16.5858 12.75 16.25 12.4142 16.25 12C16.25 11.5858 16.5858 11.25 17 11.25ZM9.75 12C9.75 11.5858 10.0858 11.25 10.5 11.25H13.5C13.9142 11.25 14.25 11.5858 14.25 12C14.25 12.4142 13.9142 12.75 13.5 12.75H10.5C10.0858 12.75 9.75 12.4142 9.75 12ZM4 14.25H7C7.41421 14.25 7.75 14.5858 7.75 15C7.75 15.4142 7.41421 15.75 7 15.75H4C3.58579 15.75 3.25 15.4142 3.25 15C3.25 14.5858 3.58579 14.25 4 14.25ZM16.25 15C16.25 14.5858 16.5858 14.25 17 14.25H20C20.4142 14.25 20.75 14.5858 20.75 15C20.75 15.4142 20.4142 15.75 20 15.75H17C16.5858 15.75 16.25 15.4142 16.25 15ZM12 3.25C12.4142 3.25 12.75 3.58579 12.75 4V5.25H14C14.4142 5.25 14.75 5.58579 14.75 6C14.75 6.41421 14.4142 6.75 14 6.75H12.75V8C12.75 8.41421 12.4142 8.75 12 8.75C11.5858 8.75 11.25 8.41421 11.25 8V6.75H10C9.58579 6.75 9.25 6.41421 9.25 6C9.25 5.58579 9.58579 5.25 10 5.25H11.25V4C11.25 3.58579 11.5858 3.25 12 3.25Z" fill="currentColor"/>
</svg>
