<svg viewBox="0 0 24 24" fill="currentColor" xmlns="http://www.w3.org/2000/svg">
<path d="M3.19197 20.7641C2.91362 21.0702 2.94121 21.5392 3.25362 21.812C3.38174 21.9238 3.53782 21.9854 3.69642 21.9976C3.92485 22.0155 4.15884 21.9321 4.32303 21.7516L6.92087 18.8946L9.61797 18.5502C10.0993 18.4887 10.542 18.2593 10.865 17.9041L17.609 10.4873L18.3631 11.1456C18.6755 11.4184 19.1543 11.3911 19.4325 11.0852C19.7107 10.7793 19.6833 10.31 19.3709 10.0373L13.3385 4.77063C13.0261 4.49788 12.5473 4.5251 12.2691 4.83104C11.9909 5.13698 12.0184 5.60619 12.3308 5.87894L13.0848 6.53728L12.077 7.64559L13.2081 8.63309C13.5205 8.90584 13.5479 9.37506 13.2697 9.681C12.9916 9.98694 12.5127 10.0141 12.2003 9.7414L11.0693 8.7539L10.0615 9.86221L11.1925 10.8497C11.505 11.1224 11.5324 11.5917 11.2542 11.8976C11.1804 11.9788 11.0923 12.0404 10.997 12.0821C10.7334 12.1969 10.4142 12.1583 10.1848 11.958L9.05368 10.9705L8.04591 12.0788L9.17697 13.0663C9.48938 13.3391 9.5168 13.8083 9.23861 14.1142C9.06934 14.3004 8.82572 14.3834 8.59042 14.3586C8.4391 14.3423 8.29143 14.2813 8.1692 14.1746L7.03814 13.1871L6.3407 13.9541C6.01773 14.3093 5.83611 14.7666 5.82899 15.2422L5.78981 17.9071L3.19197 20.7641Z" fill="currentColor"/>
<path d="M17.551 6.46023C17.2387 6.18754 17.2111 5.71837 17.4893 5.41232L18.6651 4.1193L17.7225 3.29638C17.4102 3.02368 17.3826 2.55452 17.6609 2.24847C17.9392 1.94242 18.418 1.91537 18.7303 2.18807L21.7465 4.82141C22.0588 5.0941 22.0864 5.56326 21.8081 5.86931C21.5298 6.17536 21.051 6.20241 20.7387 5.92971L19.7961 5.1068L18.6204 6.39982C18.3421 6.70588 17.8633 6.73292 17.551 6.46023Z" fill="currentColor"/>
</svg>
