<svg viewBox="0 0 24 24" fill="currentColor" xmlns="http://www.w3.org/2000/svg">
<path d="M9.04628 9.51483C10.4943 8.64852 11.8366 6.97654 9.22892 4.97562C5.37349 2.01724 2 6.45481 2 9.41319C2 12.3716 2 14.3437 4.89157 16.8091C7.65535 19.1654 9.53859 15.666 8.43717 14.491C8.3847 14.435 8.32733 14.3842 8.26995 14.3333C8.21445 14.2842 8.15894 14.235 8.10786 14.1811C7.70343 13.7548 7.1262 13.062 7.34844 12.4581C7.54942 11.9119 8.32376 11.9334 8.77422 12.3019C9.49682 12.893 9.95181 13.8015 9.95181 14.8063V20.2604C9.95181 20.6689 10.2755 21 10.6747 21C11.0739 21 11.3976 20.6689 11.3976 20.2604V14.8063C11.3976 13.1008 10.5007 11.5852 9.13601 10.7654C9.03778 10.7064 8.96084 10.6181 8.88075 10.5361C8.58929 10.238 8.69048 9.72771 9.04628 9.51483Z" fill="currentColor"/>
<path d="M14.9537 9.51483C13.5057 8.64852 12.1634 6.97654 14.7711 4.97562C18.6265 2.01724 22 6.45481 22 9.41319C22 12.3716 22 14.3437 19.1084 16.8091C16.3446 19.1654 14.4614 15.666 15.5628 14.491C15.6153 14.435 15.6727 14.3842 15.73 14.3333C15.7856 14.2842 15.8411 14.235 15.8921 14.1811C16.2966 13.7548 16.8738 13.062 16.6516 12.4581C16.4506 11.9119 15.6762 11.9334 15.2258 12.3019C14.5032 12.893 14.0482 13.8015 14.0482 14.8063V20.2604C14.0482 20.6689 13.7245 21 13.3253 21C12.9261 21 12.6024 20.6689 12.6024 20.2604V14.8063C12.6024 13.1008 13.4993 11.5852 14.864 10.7654C14.9622 10.7064 15.0392 10.6181 15.1193 10.5361C15.4107 10.238 15.3095 9.72771 14.9537 9.51483Z" fill="currentColor"/>
</svg>
