<svg viewBox="0 0 24 24" fill="currentColor" xmlns="http://www.w3.org/2000/svg">
<path d="M12.75 8C12.75 7.58579 12.4142 7.25 12 7.25C11.5858 7.25 11.25 7.58579 11.25 8V10.25H9C8.58579 10.25 8.25 10.5858 8.25 11C8.25 11.4142 8.58579 11.75 9 11.75H11.25V14C11.25 14.4142 11.5858 14.75 12 14.75C12.4142 14.75 12.75 14.4142 12.75 14V11.75H15C15.4142 11.75 15.75 11.4142 15.75 11C15.75 10.5858 15.4142 10.25 15 10.25H12.75V8Z" fill="currentColor"/>
<path d="M5 4H19C20.1046 4 21 4.89543 21 6V17C21 17.5523 20.5523 18 20 18H4C3.44772 18 3 17.5523 3 17V6C3 4.89543 3.89543 4 5 4ZM12 16C14.7614 16 17 13.7614 17 11C17 8.23858 14.7614 6 12 6C9.23858 6 7 8.23858 7 11C7 13.7614 9.23858 16 12 16Z" fill="currentColor"/>
<path d="M1.25 20C1.25 19.5858 1.58579 19.25 2 19.25H22C22.4142 19.25 22.75 19.5858 22.75 20C22.75 20.4142 22.4142 20.75 22 20.75H2C1.58579 20.75 1.25 20.4142 1.25 20Z" fill="currentColor"/>
</svg>
