<svg viewBox="0 0 24 24" fill="currentColor" xmlns="http://www.w3.org/2000/svg">
<path d="M9.75 9.1579C9.75 8.27062 10.0285 7.68884 10.4007 7.32796C10.7788 6.96145 11.3288 6.75 12 6.75C12.6712 6.75 13.2212 6.96145 13.5993 7.32796C13.9715 7.68884 14.25 8.27062 14.25 9.1579C14.25 9.50913 14.123 9.90563 13.8797 10.3325C13.6383 10.756 13.3061 11.1678 12.9563 11.5361C12.6113 11.8992 12.2638 12.2048 12 12.421C11.7362 12.2048 11.3887 11.8992 11.0437 11.5361C10.6939 11.1678 10.3617 10.756 10.1203 10.3325C9.87699 9.90563 9.75 9.50913 9.75 9.1579Z" fill="currentColor"/>
<path d="M3 6C3 4.89543 3.89543 4 5 4H19C20.1046 4 21 4.89543 21 6V17C21 17.5523 20.5523 18 20 18H4C3.44772 18 3 17.5523 3 17V6ZM9.95625 12.5692C10.2427 12.8707 10.5278 13.1352 10.7758 13.3505L8.04928 15.4005C7.71821 15.6495 7.65162 16.1196 7.90054 16.4507C8.14947 16.7818 8.61965 16.8484 8.95072 16.5995L12 14.3068L15.0493 16.5995C15.3804 16.8484 15.8505 16.7818 16.0995 16.4507C16.3484 16.1196 16.2818 15.6495 15.9507 15.4005L13.2242 13.3505C13.4722 13.1352 13.7573 12.8707 14.0437 12.5692C14.4439 12.148 14.8617 11.6387 15.1828 11.0753C15.502 10.5154 15.75 9.85929 15.75 9.1579C15.75 7.9399 15.3569 6.94274 14.6434 6.25099C13.9356 5.56486 12.9856 5.25 12 5.25C11.0144 5.25 10.0644 5.56486 9.35664 6.25099C8.64309 6.94274 8.25 7.9399 8.25 9.1579C8.25 9.85929 8.49801 10.5154 8.81717 11.0753C9.13828 11.6387 9.55608 12.148 9.95625 12.5692Z" fill="currentColor"/>
<path d="M1.25 20C1.25 19.5858 1.58579 19.25 2 19.25H22C22.4142 19.25 22.75 19.5858 22.75 20C22.75 20.4142 22.4142 20.75 22 20.75H2C1.58579 20.75 1.25 20.4142 1.25 20Z" fill="currentColor"/>
</svg>
