<svg viewBox="0 0 24 24" fill="currentColor" xmlns="http://www.w3.org/2000/svg">
<path d="M12 3C12.8062 3 13.5877 3.10601 14.3312 3.30486C15.1445 2.49826 16.2641 2 17.5 2C19.9853 2 22 4.01472 22 6.5C22 7.73593 21.5017 8.85549 20.6951 9.66876C20.894 10.4123 21 11.1938 21 12C21 12.8062 20.894 13.5877 20.6951 14.3312C21.5017 15.1445 22 16.2641 22 17.5C22 19.9853 19.9853 22 17.5 22C16.2641 22 15.1445 21.5017 14.3312 20.6951C13.5877 20.894 12.8062 21 12 21C11.1938 21 10.4123 20.894 9.66876 20.6951C8.85549 21.5017 7.73593 22 6.5 22C4.01472 22 2 19.9853 2 17.5C2 16.2641 2.49825 15.1445 3.30486 14.3312C3.10601 13.5877 3 12.8062 3 12C3 11.1938 3.10601 10.4123 3.30486 9.66876C2.49826 8.85549 2 7.73593 2 6.5C2 4.01472 4.01472 2 6.5 2C7.73593 2 8.85549 2.49826 9.66876 3.30486C10.4123 3.10601 11.1938 3 12 3ZM8.0316 20.0801C7.36681 19.753 6.74826 19.3462 6.1884 18.8723L9.0346 16.0261C9.86425 16.6382 10.8899 17 12 17C13.1102 17 14.1358 16.6382 14.9655 16.0261L17.8117 18.8723C17.2518 19.3462 16.6332 19.753 15.9684 20.0801C16.4167 20.3468 16.9405 20.5 17.5 20.5C19.1569 20.5 20.5 19.1569 20.5 17.5C20.5 16.9405 20.3468 16.4167 20.0801 15.9684C19.753 16.6332 19.3462 17.2517 18.8723 17.8116L16.0261 14.9654C16.6382 14.1358 17 13.1101 17 12C17 10.8899 16.6382 9.86423 16.0261 9.03457L18.8723 6.18837C19.3462 6.74824 19.753 7.3668 20.0801 8.0316C20.3468 7.58327 20.5 7.05953 20.5 6.5C20.5 4.84315 19.1569 3.5 17.5 3.5C16.9405 3.5 16.4167 3.65318 15.9684 3.91989C16.6332 4.24702 17.2518 4.65377 17.8116 5.12771L14.9654 7.97391C14.1358 7.36179 13.1101 7 12 7C10.8899 7 9.86427 7.36178 9.03462 7.97386L6.18842 5.12766C6.74828 4.65374 7.36682 4.247 8.03161 3.91989C7.58328 3.65318 7.05953 3.5 6.5 3.5C4.84315 3.5 3.5 4.84315 3.5 6.5C3.5 7.05953 3.65318 7.58328 3.91989 8.03161C4.24702 7.36678 4.6538 6.7482 5.12775 6.18832L7.97394 9.03451C7.36181 9.86418 7 10.8898 7 12C7 13.1102 7.3618 14.1358 7.97393 14.9655L5.12773 17.8117C4.65378 17.2518 4.24702 16.6332 3.91989 15.9684C3.65318 16.4167 3.5 16.9405 3.5 17.5C3.5 19.1569 4.84315 20.5 6.5 20.5C7.05953 20.5 7.58328 20.3468 8.0316 20.0801Z" fill="currentColor"/>
</svg>
