<svg viewBox="0 0 24 24" fill="currentColor" xmlns="http://www.w3.org/2000/svg">
<path d="M9 3.22302V3C9 2.44772 9.44771 2 10 2H12C12.5523 2 13 2.44772 13 3V3.22302C16.3648 3.98652 19.0135 6.63525 19.777 10H21C21.5523 10 22 10.4477 22 11V13C22 13.5523 21.5523 14 21 14H19.777C19.0135 17.3648 16.3648 20.0135 13 20.777V21C13 21.5523 12.5523 22 12 22H10C9.44771 22 9 21.5523 9 21V20.777C4.99202 19.8675 2 16.2832 2 12C2 7.71683 4.99202 4.13247 9 3.22302ZM11 19C14.866 19 18 15.866 18 12C18 8.13401 14.866 5 11 5C7.13401 5 4 8.13401 4 12C4 15.866 7.13401 19 11 19Z" fill="currentColor"/>
<path d="M13 16C13 17.1046 12.1046 18 11 18C9.89543 18 9 17.1046 9 16C9 14.8954 9.89543 14 11 14C12.1046 14 13 14.8954 13 16Z" fill="currentColor"/>
<path d="M13 8C13 9.10457 12.1046 10 11 10C9.89543 10 9 9.10457 9 8C9 6.89543 9.89543 6 11 6C12.1046 6 13 6.89543 13 8Z" fill="currentColor"/>
<path d="M15 10C16.1046 10 17 10.8954 17 12C17 13.1046 16.1046 14 15 14C13.8954 14 13 13.1046 13 12C13 10.8954 13.8954 10 15 10Z" fill="currentColor"/>
<path d="M7 10C8.10457 10 9 10.8954 9 12C9 13.1046 8.10457 14 7 14C5.89543 14 5 13.1046 5 12C5 10.8954 5.89543 10 7 10Z" fill="currentColor"/>
<path d="M12 12C12 12.5523 11.5523 13 11 13C10.4477 13 10 12.5523 10 12C10 11.4477 10.4477 11 11 11C11.5523 11 12 11.4477 12 12Z" fill="currentColor"/>
</svg>
