<svg viewBox="0 0 24 24" fill="currentColor" xmlns="http://www.w3.org/2000/svg">
<path d="M12.75 6.0775V2H11.25V6.0775C11.25 7.0648 10.8012 7.99857 10.0303 8.61532L9.86812 8.74504L9.6174 6.27585C9.54609 5.57353 9.32155 4.85903 8.75193 4.44204C7.70299 3.67417 6.06462 3.45668 4.5253 6.18494C2.53201 9.71782 2.03369 14.8535 2.03369 16.9797C1.86758 18.9424 2.23302 22.3772 5.02362 20.4145C5.58179 20.0023 6.23205 19.6531 6.88552 19.3023C8.68292 18.3373 10.5051 17.359 10.5051 15.017C10.5051 13.312 10.2544 11.4836 10.0796 10.4968L10.9673 9.78663C11.3766 9.45917 11.7238 9.07056 12 8.63927C12.2762 9.07056 12.6234 9.45917 13.0327 9.78663L13.9204 10.4968C13.7456 11.4836 13.4949 13.312 13.4949 15.017C13.4949 17.359 15.3171 18.3373 17.1145 19.3023C17.768 19.6532 18.4182 20.0023 18.9764 20.4145C21.767 22.3772 22.1324 18.9424 21.9663 16.9797C21.9663 14.8535 21.468 9.71782 19.4747 6.18494C17.9354 3.45668 16.297 3.67417 15.2481 4.44204C14.6784 4.85903 14.4539 5.57353 14.3826 6.27585L14.1319 8.74504L13.9697 8.61532C13.1988 7.99857 12.75 7.0648 12.75 6.0775ZM5.5 16.75C5.5 17.1642 5.16421 17.5 4.75 17.5C4.33579 17.5 4 17.1642 4 16.75C4 16.3358 4.33579 16 4.75 16C5.16421 16 5.5 16.3358 5.5 16.75ZM7.75 15.5C7.33579 15.5 7 15.1642 7 14.75C7 14.3358 7.33579 14 7.75 14C8.16421 14 8.5 14.3358 8.5 14.75C8.5 15.1642 8.16421 15.5 7.75 15.5ZM5.5 12.75C5.5 13.1642 5.16421 13.5 4.75 13.5C4.33579 13.5 4 13.1642 4 12.75C4 12.3358 4.33579 12 4.75 12C5.16421 12 5.5 12.3358 5.5 12.75ZM18 16.75C18 16.3358 18.3358 16 18.75 16C19.1642 16 19.5 16.3358 19.5 16.75C19.5 17.1642 19.1642 17.5 18.75 17.5C18.3358 17.5 18 17.1642 18 16.75ZM15.75 15.5C15.3358 15.5 15 15.1642 15 14.75C15 14.3358 15.3358 14 15.75 14C16.1642 14 16.5 14.3358 16.5 14.75C16.5 15.1642 16.1642 15.5 15.75 15.5ZM18 12.75C18 12.3358 18.3358 12 18.75 12C19.1642 12 19.5 12.3358 19.5 12.75C19.5 13.1642 19.1642 13.5 18.75 13.5C18.3358 13.5 18 13.1642 18 12.75Z" fill="currentColor"/>
</svg>
