<svg viewBox="0 0 24 24" fill="currentColor" xmlns="http://www.w3.org/2000/svg">
<path d="M11.9999 3.5C11.8637 3.5 11.7533 3.61043 11.7533 3.74664V7.53408C11.7533 8.04684 11.6201 8.674 11.1532 9.1495C10.7725 9.53725 10.3682 9.76739 9.98326 9.87901L10.0067 10.1102C10.1728 10.928 10.5051 13.0543 10.5051 15.017C10.5051 17.359 8.68292 18.3373 6.88552 19.3023C6.23203 19.6531 5.58181 20.0022 5.02362 20.4145C2.23302 22.3772 1.86758 18.9424 2.03369 16.9797C2.03369 14.8535 2.53201 9.71782 4.5253 6.18494C6.06462 3.45667 7.70299 3.67417 8.75193 4.44204C9.32155 4.85902 9.54609 5.57353 9.6174 6.27585L9.82454 8.31586C9.90344 8.2636 9.99005 8.19316 10.0829 8.09857C10.1761 8.00363 10.2533 7.82078 10.2533 7.53408V3.74664C10.2533 2.782 11.0353 2 11.9999 2V3.5Z" fill="currentColor"/>
<path d="M11.9999 3.5C12.1362 3.5 12.2469 3.61043 12.2469 3.74664V7.53408C12.2469 8.04684 12.38 8.674 12.8469 9.1495C13.2277 9.53725 13.6319 9.76739 14.0169 9.87901L13.9934 10.1102C13.8273 10.928 13.4951 13.0543 13.4951 15.017C13.4951 17.359 15.3172 18.3373 17.1146 19.3023C17.7681 19.6531 18.4184 20.0022 18.9765 20.4145C21.7671 22.3772 22.1326 18.9424 21.9665 16.9797C21.9665 14.8535 21.4682 9.71782 19.4749 6.18494C17.9355 3.45667 16.2972 3.67417 15.2482 4.44204C14.6786 4.85902 14.4541 5.57353 14.3828 6.27585L14.1756 8.31586C14.0967 8.2636 14.0101 8.19316 13.9172 8.09857C13.824 8.00363 13.7469 7.82078 13.7469 7.53408V3.74664C13.7469 2.782 12.9646 2 11.9999 2V3.5Z" fill="currentColor"/>
</svg>
