<svg viewBox="0 0 24 24" fill="currentColor" xmlns="http://www.w3.org/2000/svg">
<path d="M15.25 2C15.25 2.41421 15.5858 2.75 16 2.75H20.1893L15.1018 7.83758C13.717 6.68988 11.9391 6 10 6C5.58172 6 2 9.58172 2 14C2 18.4183 5.58172 22 10 22C14.4183 22 18 18.4183 18 14C18 12.0609 17.3101 10.283 16.1624 8.89824L21.25 3.81066V8C21.25 8.41421 21.5858 8.75 22 8.75C22.4142 8.75 22.75 8.41421 22.75 8V2C22.75 1.58579 22.4142 1.25 22 1.25H16C15.5858 1.25 15.25 1.58579 15.25 2Z" fill="currentColor"/>
</svg>
