<svg viewBox="0 0 24 24" fill="currentColor" xmlns="http://www.w3.org/2000/svg">
<path d="M12.5303 1.46967C12.2374 1.17678 11.7626 1.17678 11.4697 1.46967L8.46967 4.46967C8.17678 4.76256 8.17678 5.23744 8.46967 5.53033C8.76256 5.82322 9.23744 5.82322 9.53033 5.53033L11.25 3.81066V8.03971C7.73668 8.41394 5 11.3874 5 15C5 18.866 8.13401 22 12 22C15.866 22 19 18.866 19 15C19 11.3874 16.2633 8.41394 12.75 8.03971V3.81066L14.4697 5.53033C14.7626 5.82322 15.2374 5.82322 15.5303 5.53033C15.8232 5.23744 15.8232 4.76256 15.5303 4.46967L12.5303 1.46967Z" fill="currentColor"/>
</svg>
