<svg viewBox="0 0 24 24" fill="currentColor" xmlns="http://www.w3.org/2000/svg">
<path d="M7.25 3.75V5.75H4C2.89543 5.75 2 6.64543 2 7.75V20C2 21.1046 2.89543 22 4 22H20C21.1046 22 22 21.1046 22 20V7.75C22 6.64543 21.1046 5.75 20 5.75H16.75V3.75C16.75 2.7835 15.9665 2 15 2H9C8.0335 2 7.25 2.7835 7.25 3.75ZM9 3.5H15C15.1381 3.5 15.25 3.61193 15.25 3.75V5.75H8.75V3.75C8.75 3.61193 8.86193 3.5 9 3.5ZM11.3 10H12.7C12.9761 10 13.2 10.2239 13.2 10.5V12.8H15.5C15.7761 12.8 16 13.0239 16 13.3V14.7C16 14.9761 15.7761 15.2 15.5 15.2H13.2V17.5C13.2 17.7761 12.9761 18 12.7 18H11.3C11.0239 18 10.8 17.7761 10.8 17.5V15.2H8.5C8.22386 15.2 8 14.9761 8 14.7V13.3C8 13.0239 8.22386 12.8 8.5 12.8H10.8V10.5C10.8 10.2239 11.0239 10 11.3 10Z" fill="currentColor"/>
</svg>
