<svg viewBox="0 0 24 24" fill="currentColor" xmlns="http://www.w3.org/2000/svg">
<path d="M4 2C2.89543 2 2 2.89543 2 4V20C2 21.1046 2.89543 22 4 22H12C13.1046 22 14 21.1046 14 20V4C14 2.89543 13.1046 2 12 2H4ZM7 4.25H9C9.41421 4.25 9.75 4.58579 9.75 5C9.75 5.41421 9.41421 5.75 9 5.75H7C6.58579 5.75 6.25 5.41421 6.25 5C6.25 4.58579 6.58579 4.25 7 4.25ZM10 18C10 19.1046 9.10457 20 8 20C6.89543 20 6 19.1046 6 18C6 16.8954 6.89543 16 8 16C9.10457 16 10 16.8954 10 18Z" fill="currentColor"/>
<path d="M16.4563 12.5692C16.7427 12.8707 17.0278 13.1352 17.2758 13.3505L14.5493 15.4005C14.2182 15.6495 14.1516 16.1196 14.4005 16.4507C14.6495 16.7818 15.1196 16.8484 15.4507 16.5995L18.5 14.3068L21.5493 16.5995C21.8804 16.8484 22.3505 16.7818 22.5995 16.4507C22.8484 16.1196 22.7818 15.6495 22.4507 15.4005L19.7242 13.3505C19.9722 13.1352 20.2573 12.8707 20.5438 12.5692C20.9439 12.148 21.3617 11.6387 21.6828 11.0753C22.002 10.5154 22.25 9.85929 22.25 9.1579C22.25 7.9399 21.8569 6.94274 21.1434 6.25099C20.4356 5.56486 19.4856 5.25 18.5 5.25C17.5144 5.25 16.5644 5.56486 15.8566 6.25099C15.1431 6.94274 14.75 7.9399 14.75 9.1579C14.75 9.85929 14.998 10.5154 15.3172 11.0753C15.6383 11.6387 16.0561 12.148 16.4563 12.5692ZM16.25 9.1579C16.25 8.27062 16.5285 7.68884 16.9007 7.32796C17.2788 6.96145 17.8288 6.75 18.5 6.75C19.1712 6.75 19.7212 6.96145 20.0993 7.32796C20.4715 7.68884 20.75 8.27062 20.75 9.1579C20.75 9.50913 20.623 9.90563 20.3797 10.3325C20.1383 10.756 19.8061 11.1678 19.4562 11.5361C19.1113 11.8992 18.7638 12.2048 18.5 12.421C18.2362 12.2048 17.8887 11.8992 17.5437 11.5361C17.1939 11.1678 16.8617 10.756 16.6203 10.3325C16.377 9.90563 16.25 9.50913 16.25 9.1579Z" fill="currentColor"/>
</svg>
