<svg viewBox="0 0 24 24" fill="currentColor" xmlns="http://www.w3.org/2000/svg">
<path d="M18.5578 15.4796L17.0721 14.551C16.1862 13.9973 15.0224 14.2284 14.4152 15.0785C13.948 15.7325 13.2274 16.1967 12.4506 15.99C11.7333 15.7991 10.7649 15.3426 9.71116 14.2888C8.65743 13.2351 8.20087 12.2667 8.00997 11.5494C7.80326 10.7726 8.26746 10.052 8.9215 9.58479C9.77162 8.97756 10.0027 7.81377 9.44896 6.92785L8.52045 5.44223C7.59347 3.95907 5.616 3.54986 4.17653 4.5433L3.65012 4.9066C2.68099 5.57544 1.95708 6.57013 2.00198 7.7468C2.07885 9.76118 2.89449 13.2567 6.81887 17.1811C10.7433 21.1055 14.2388 21.9211 16.2532 21.998C17.4299 22.0429 18.4246 21.319 19.0934 20.3499L19.4567 19.8235C20.4501 18.384 20.0409 16.4065 18.5578 15.4796Z" fill="currentColor"/>
<path d="M17.5 2H16.5C15.9477 2 15.5 2.44772 15.5 3V4.5C15.5 5.05228 15.0523 5.5 14.5 5.5H13C12.4477 5.5 12 5.94772 12 6.5V7.5C12 8.05228 12.4477 8.5 13 8.5H14.5C15.0523 8.5 15.5 8.94772 15.5 9.5V11C15.5 11.5523 15.9477 12 16.5 12H17.5C18.0523 12 18.5 11.5523 18.5 11V9.5C18.5 8.94771 18.9477 8.5 19.5 8.5H21C21.5523 8.5 22 8.05228 22 7.5V6.5C22 5.94771 21.5523 5.5 21 5.5H19.5C18.9477 5.5 18.5 5.05228 18.5 4.5V3C18.5 2.44772 18.0523 2 17.5 2Z" fill="currentColor"/>
</svg>
