<svg viewBox="0 0 24 24" fill="currentColor" xmlns="http://www.w3.org/2000/svg">
<path d="M3.86759 4.63008C3.34947 4.8046 3 5.29459 3 5.84649V9.34829C3 14.9048 6.37552 19.8913 11.5001 21.9052C11.8216 22.0316 12.1784 22.0316 12.4999 21.9052C17.6245 19.8913 21 14.9048 21 9.34829V5.84649C21 5.29459 20.6505 4.80461 20.1324 4.63008L12.6325 2.10372C12.2219 1.96543 11.7781 1.96543 11.3675 2.10372L3.86759 4.63008ZM7 10.7914C7 7.99327 9.75008 6.94859 12 9.1101C14.2499 6.94859 17 7.99327 17 10.7914C17 12.4663 14.9903 14.2378 13.5191 15.3102C12.8531 15.7956 12.5201 16.0384 12 16.0384C11.4799 16.0384 11.1469 15.7956 10.4809 15.3102C9.00971 14.2378 7 12.4663 7 10.7914Z" fill="currentColor"/>
</svg>
