<svg viewBox="0 0 24 24" fill="currentColor" xmlns="http://www.w3.org/2000/svg">
<path d="M12.1531 16.9974C14.2352 16.9611 16.273 16.5456 17.3637 15.3797C19.3682 14.0861 20.632 12.92 21.3227 11.893C22.0598 10.797 22.2343 9.68906 21.6519 8.82545C21.1151 8.02953 20.1228 7.74543 19.23 7.78221C18.4438 7.81461 17.5942 8.09339 16.8911 8.65325L14.2382 7.23016C13.9564 7.07899 13.6428 7 13.3243 7H10.6757C10.3572 7 10.0436 7.07899 9.76175 7.23016L7.10885 8.65325C6.40578 8.09339 5.55625 7.81461 4.76996 7.78221C3.87719 7.74543 2.8849 8.02953 2.34811 8.82545C1.76568 9.68906 1.94015 10.797 2.67725 11.893C3.36796 12.92 4.63176 14.0861 6.63631 15.3797C7.72701 16.5456 9.76483 16.9611 11.8469 16.9974V17C11.8979 17 11.949 16.9998 12 16.9993C12.051 16.9998 12.1021 17 12.1531 17V16.9974ZM3.89117 11.0449C3.32527 10.2035 3.469 9.81148 3.56095 9.67514C3.69854 9.47112 4.08576 9.25525 4.71051 9.28099C5.24283 9.30292 5.81592 9.50361 6.26621 9.88767V13.3177C5.0492 12.4238 4.30475 11.6599 3.89117 11.0449ZM20.1088 11.0449C19.6952 11.6599 18.9508 12.4238 17.7338 13.3177V9.88767C18.1841 9.50361 18.7572 9.30292 19.2895 9.28099C19.9142 9.25525 20.3015 9.47112 20.4391 9.67514C20.531 9.81148 20.6747 10.2035 20.1088 11.0449ZM12 9.75C12.4142 9.75 12.75 10.0858 12.75 10.5V11.75H14C14.4142 11.75 14.75 12.0858 14.75 12.5C14.75 12.9142 14.4142 13.25 14 13.25H12.75V14.5C12.75 14.9142 12.4142 15.25 12 15.25C11.5858 15.25 11.25 14.9142 11.25 14.5V13.25H10C9.58579 13.25 9.25 12.9142 9.25 12.5C9.25 12.0858 9.58579 11.75 10 11.75H11.25V10.5C11.25 10.0858 11.5858 9.75 12 9.75Z" fill="currentColor"/>
</svg>
