<svg viewBox="0 0 24 24" fill="currentColor" xmlns="http://www.w3.org/2000/svg">
<path d="M12.75 6.5C12.75 6.08579 12.4142 5.75 12 5.75C11.5858 5.75 11.25 6.08579 11.25 6.5V8.75H9C8.58579 8.75 8.25 9.08579 8.25 9.5C8.25 9.91421 8.58579 10.25 9 10.25H11.25V12.5C11.25 12.9142 11.5858 13.25 12 13.25C12.4142 13.25 12.75 12.9142 12.75 12.5V10.25H15C15.4142 10.25 15.75 9.91421 15.75 9.5C15.75 9.08579 15.4142 8.75 15 8.75H12.75V6.5Z" fill="currentColor"/>
<path d="M2 5C2 3.89543 2.89543 3 4 3H20C21.1046 3 22 3.89543 22 5V14C22 15.1046 21.1046 16 20 16H14.0833L14.4375 20.25H16C16.4142 20.25 16.75 20.5858 16.75 21C16.75 21.4142 16.4142 21.75 16 21.75H8C7.58579 21.75 7.25 21.4142 7.25 21C7.25 20.5858 7.58579 20.25 8 20.25H9.5625L9.91667 16H4C2.89543 16 2 15.1046 2 14V5ZM16.5 9.5C16.5 7.01472 14.4853 5 12 5C9.51472 5 7.5 7.01472 7.5 9.5C7.5 11.9853 9.51472 14 12 14C14.4853 14 16.5 11.9853 16.5 9.5Z" fill="currentColor"/>
</svg>
