<svg viewBox="0 0 24 24" fill="currentColor" xmlns="http://www.w3.org/2000/svg">
<path d="M9.75 8.1579C9.75 7.27062 10.0285 6.68884 10.4007 6.32796C10.7788 5.96145 11.3288 5.75 12 5.75C12.6712 5.75 13.2212 5.96145 13.5993 6.32796C13.9715 6.68884 14.25 7.27062 14.25 8.1579C14.25 8.50913 14.123 8.90563 13.8797 9.33255C13.6383 9.75603 13.3061 10.1678 12.9563 10.5361C12.6113 10.8992 12.2638 11.2048 12 11.421C11.7362 11.2048 11.3887 10.8992 11.0437 10.5361C10.6939 10.1678 10.3617 9.75603 10.1203 9.33255C9.87699 8.90563 9.75 8.50913 9.75 8.1579Z" fill="currentColor"/>
<path d="M2 5C2 3.89543 2.89543 3 4 3H20C21.1046 3 22 3.89543 22 5V16C22 17.1046 21.1046 18 20 18H12.75V20.25H15C15.4142 20.25 15.75 20.5858 15.75 21C15.75 21.4142 15.4142 21.75 15 21.75H9C8.58579 21.75 8.25 21.4142 8.25 21C8.25 20.5858 8.58579 20.25 9 20.25H11.25V18H4C2.89543 18 2 17.1046 2 16V5ZM9.95625 11.5692C10.2427 11.8707 10.5278 12.1352 10.7758 12.3505L8.04928 14.4005C7.71821 14.6495 7.65162 15.1196 7.90054 15.4507C8.14947 15.7818 8.61965 15.8484 8.95072 15.5995L12 13.3068L15.0493 15.5995C15.3804 15.8484 15.8505 15.7818 16.0995 15.4507C16.3484 15.1196 16.2818 14.6495 15.9507 14.4005L13.2242 12.3505C13.4722 12.1352 13.7573 11.8707 14.0437 11.5692C14.4439 11.148 14.8617 10.6387 15.1828 10.0753C15.502 9.51542 15.75 8.85929 15.75 8.1579C15.75 6.9399 15.3569 5.94274 14.6434 5.25099C13.9356 4.56486 12.9856 4.25 12 4.25C11.0144 4.25 10.0644 4.56486 9.35663 5.25099C8.64309 5.94274 8.25 6.9399 8.25 8.1579C8.25 8.85929 8.49801 9.51542 8.81717 10.0753C9.13828 10.6387 9.55608 11.148 9.95625 11.5692Z" fill="currentColor"/>
</svg>
