<svg viewBox="0 0 24 24" fill="currentColor" xmlns="http://www.w3.org/2000/svg">
<path d="M15.3842 3.9815C16.0403 5.54883 17.4419 10.2508 17.9419 13.908C22.598 16.5202 21.9419 23.312 15.9418 21.2222C15.96 21.2222 16.0299 21.144 16.1323 21.0294C16.3575 20.7775 16.74 20.3495 17.0781 20.1871C17.5405 19.9651 17.995 19.9161 18.4419 19.9161C18.8561 19.9161 19.1919 19.5652 19.1919 19.1324C19.1919 18.6996 18.8561 18.3487 18.4419 18.3487C17.8887 18.3487 17.1907 18.4082 16.4518 18.7629C15.7076 19.1202 14.981 19.7481 14.3178 20.7875C13.8867 21.4631 13.5031 21.7326 13.1785 21.8598C13 21.9298 12.8185 21.9663 12.6159 21.9853V22C12.5764 21.9985 12.5378 21.9966 12.5 21.9943C12.4622 21.9966 12.4236 21.9985 12.3841 22V21.9853C12.1815 21.9663 12 21.9298 11.8215 21.8598C11.4969 21.7326 11.1133 21.4631 10.6822 20.7875C10.019 19.7481 9.29235 19.1202 8.54816 18.7629C7.80934 18.4082 7.11131 18.3487 6.55814 18.3487C6.14392 18.3487 5.80814 18.6996 5.80814 19.1324C5.80814 19.5652 6.14392 19.9161 6.55814 19.9161C7.00497 19.9161 7.45947 19.9651 7.92191 20.1871C8.26002 20.3495 8.64253 20.7775 8.86765 21.0294C8.97014 21.144 9.04 21.2222 9.05822 21.2222C3.05814 23.312 2.40197 16.5202 7.05812 13.908C7.55812 10.2508 8.95966 5.54883 9.61584 3.9815C10.7219 1.3395 14.2781 1.3395 15.3842 3.9815Z" fill="currentColor"/>
</svg>
