<svg viewBox="0 0 24 24" fill="currentColor" xmlns="http://www.w3.org/2000/svg">
<path d="M10 10C12.2091 10 14 8.20914 14 6C14 3.79086 12.2091 2 10 2C7.79086 2 6 3.79086 6 6C6 8.20914 7.79086 10 10 10Z" fill="currentColor"/>
<path d="M4 12C2.89543 12 2 12.8954 2 14C2 18.4183 5.58172 22 10 22C14.4183 22 18 18.4183 18 14C18 12.8954 17.1046 12 16 12H4Z" fill="currentColor"/>
<path d="M18.3 3H19.7C19.9761 3 20.2 3.22386 20.2 3.5V5.8H22.5C22.7761 5.8 23 6.02386 23 6.3V7.7C23 7.97614 22.7761 8.2 22.5 8.2H20.2V10.5C20.2 10.7761 19.9761 11 19.7 11H18.3C18.0239 11 17.8 10.7761 17.8 10.5V8.2H15.5C15.2239 8.2 15 7.97614 15 7.7V6.3C15 6.02386 15.2239 5.8 15.5 5.8H17.8V3.5C17.8 3.22386 18.0239 3 18.3 3Z" fill="currentColor"/>
</svg>
