<svg viewBox="0 0 24 24" fill="currentColor" xmlns="http://www.w3.org/2000/svg">
<path d="M2.75 12C2.75 6.89137 6.89137 2.75 12 2.75C13.6861 2.75 15.2647 3.20043 16.6245 3.98703C16.983 4.19443 17.4418 4.07191 17.6492 3.71337C17.8566 3.35482 17.7341 2.89602 17.3755 2.68862C15.7936 1.77351 13.9568 1.25 12 1.25C6.06294 1.25 1.25 6.06294 1.25 12C1.25 13.9568 1.77351 15.7936 2.68862 17.3755C2.89602 17.7341 3.35482 17.8566 3.71337 17.6492C4.07191 17.4418 4.19443 16.983 3.98703 16.6245C3.20043 15.2647 2.75 13.6861 2.75 12Z" fill="currentColor"/>
<path d="M21.3115 6.6249C21.1041 6.26635 20.6453 6.14382 20.2868 6.35121C19.9282 6.55861 19.8057 7.01741 20.0131 7.37596C20.7996 8.7357 21.25 10.3142 21.25 12.0002C21.25 17.1088 17.1086 21.2502 12 21.2502C10.314 21.2502 8.73546 20.7998 7.37571 20.0133C7.01716 19.8059 6.55837 19.9284 6.35097 20.287C6.14357 20.6455 6.26611 21.1043 6.62466 21.3117C8.20655 22.2268 10.0433 22.7502 12 22.7502C17.9371 22.7502 22.75 17.9373 22.75 12.0002C22.75 10.0435 22.2265 8.20679 21.3115 6.6249Z" fill="currentColor"/>
<path d="M10.2 7C10.2 6.44772 10.6477 6 11.2 6H12.8C13.3523 6 13.8 6.44772 13.8 7V10.2H17C17.5523 10.2 18 10.6477 18 11.2V12.8C18 13.3523 17.5523 13.8 17 13.8H13.8V17C13.8 17.5523 13.3523 18 12.8 18H11.2C10.6477 18 10.2 17.5523 10.2 17V13.8H7C6.44772 13.8 6 13.3523 6 12.8V11.2C6 10.6477 6.44772 10.2 7 10.2H10.2V7Z" fill="currentColor"/>
</svg>
