<svg viewBox="0 0 24 24" fill="currentColor" xmlns="http://www.w3.org/2000/svg">
<path d="M12 1.25C12.4142 1.25 12.75 1.58579 12.75 2V4H17C18.1046 4 19 4.89543 19 6V7.25H5V6C5 4.89543 5.89543 4 7 4H11.25V2C11.25 1.58579 11.5858 1.25 12 1.25Z" fill="currentColor"/>
<path d="M5 8.75V16.7711C5 17.4985 5.4822 18.1378 6.18161 18.3376C7.43559 18.6959 8.7144 18.936 10.0017 19.058C10.0317 19.5833 10.4672 20 11 20H11.25V22C11.25 22.4142 11.5858 22.75 12 22.75C12.4142 22.75 12.75 22.4142 12.75 22V20H13C13.5328 20 13.9683 19.5833 13.9983 19.058C15.2856 18.936 16.5644 18.6959 17.8184 18.3376C18.5178 18.1378 19 17.4985 19 16.7711V8.75H5Z" fill="currentColor"/>
</svg>
