<svg viewBox="0 0 24 24" fill="currentColor" xmlns="http://www.w3.org/2000/svg">
<path d="M5.7 2C4.20883 2 3 3.34315 3 5V19C3 20.6569 4.20883 22 5.7 22H18.3C19.7912 22 21 20.6569 21 19V5C21 3.34315 19.7912 2 18.3 2H5.7ZM7.09873 8.00638C7.55953 5.72096 9.57879 4 12 4C14.4212 4 16.4405 5.72096 16.9013 8.00638C17.0104 8.54777 16.5523 9 16 9H13.2445L14.1894 6.79544C14.3525 6.41472 14.1762 5.97381 13.7954 5.81064C13.4147 5.64747 12.9738 5.82384 12.8106 6.20456L11.6126 9H8C7.44772 9 6.98957 8.54777 7.09873 8.00638ZM7 12C7 11.4477 7.44772 11 8 11H16C16.5523 11 17 11.4477 17 12V18C17 18.5523 16.5523 19 16 19H8C7.44772 19 7 18.5523 7 18V12Z" fill="currentColor"/>
</svg>
