<svg viewBox="0 0 24 24" fill="currentColor" xmlns="http://www.w3.org/2000/svg">
<path d="M14.4563 8.12454C14.7427 8.41805 15.0278 8.67545 15.2758 8.88508L12.5493 10.8806C12.2182 11.1229 12.1516 11.5806 12.4005 11.9028C12.6495 12.2251 13.1196 12.2899 13.4507 12.0476L16.5 9.81591L19.5493 12.0476C19.8804 12.2899 20.3505 12.2251 20.5995 11.9028C20.8484 11.5806 20.7818 11.1229 20.4507 10.8806L17.7242 8.88508C17.9722 8.67545 18.2573 8.41805 18.5438 8.12454C18.9439 7.71451 19.3617 7.2188 19.6828 6.67043C20.002 6.12539 20.25 5.48671 20.25 4.80397C20.25 3.61837 19.8569 2.64773 19.1434 1.97436C18.4356 1.30649 17.4856 1 16.5 1C15.5144 1 14.5644 1.30649 13.8566 1.97436C13.1431 2.64773 12.75 3.61837 12.75 4.80397C12.75 5.48671 12.998 6.12539 13.3172 6.67043C13.6383 7.2188 14.0561 7.71451 14.4563 8.12454ZM14.25 4.80397C14.25 3.94029 14.5285 3.37398 14.9007 3.0227C15.2788 2.66594 15.8288 2.46011 16.5 2.46011C17.1712 2.46011 17.7212 2.66594 18.0993 3.0227C18.4715 3.37398 18.75 3.94029 18.75 4.80397C18.75 5.14586 18.623 5.53181 18.3797 5.94738C18.1383 6.3596 17.8061 6.76045 17.4563 7.11889C17.1113 7.47233 16.7638 7.76981 16.5 7.98034C16.2362 7.76981 15.8887 7.47233 15.5437 7.11889C15.1939 6.76045 14.8617 6.3596 14.6203 5.94738C14.377 5.53181 14.25 5.14586 14.25 4.80397Z" fill="currentColor"/>
<path d="M9.37549 20.4982C11.9057 21.2133 14.6039 21.1641 17.111 20.3506L20.8897 19.1245C21.5528 18.9094 22 18.3054 22 17.6251C22 16.5968 21.0073 15.8423 19.9824 16.0917L17.6228 16.6659L15.2563 17.5036C14.867 17.6414 14.4367 17.4459 14.2952 17.067C14.1536 16.688 14.3544 16.2692 14.7437 16.1314L17.1179 15.291C16.8929 14.6374 16.317 14.1109 15.549 13.9863L14.9795 13.8939C13.1183 13.592 11.2132 13.6882 9.39619 14.1745C9.46373 14.395 9.5 14.6287 9.5 14.8707V19.7377C9.5 20.0033 9.45629 20.2589 9.37549 20.4982Z" fill="currentColor"/>
<path d="M2 14.8707C2 14.3331 2.44772 13.8973 3 13.8973H7C7.55228 13.8973 8 14.3331 8 14.8707V19.7377C8 20.2753 7.55228 20.7111 7 20.7111H3C2.44772 20.7111 2 20.2753 2 19.7377V14.8707Z" fill="currentColor"/>
</svg>
