<svg viewBox="0 0 24 24" fill="currentColor" xmlns="http://www.w3.org/2000/svg">
<path d="M8 2C6.89543 2 6 2.89543 6 4V12C6 13.1046 6.89543 14 8 14H11V21.25H7C6.58579 21.25 6.25 21.5858 6.25 22C6.25 22.4142 6.58579 22.75 7 22.75H17C17.4142 22.75 17.75 22.4142 17.75 22C17.75 21.5858 17.4142 21.25 17 21.25H13V14H16C17.1046 14 18 13.1046 18 12V4C18 2.89543 17.1046 2 16 2H8ZM11.3 4H12.7C12.9761 4 13.2 4.22386 13.2 4.5V6.8H15.5C15.7761 6.8 16 7.02386 16 7.3V8.7C16 8.97614 15.7761 9.2 15.5 9.2H13.2V11.5C13.2 11.7761 12.9761 12 12.7 12H11.3C11.0239 12 10.8 11.7761 10.8 11.5V9.2H8.5C8.22386 9.2 8 8.97614 8 8.7V7.3C8 7.02386 8.22386 6.8 8.5 6.8H10.8V4.5C10.8 4.22386 11.0239 4 11.3 4Z" fill="currentColor"/>
</svg>
