<svg viewBox="0 0 24 24" fill="currentColor" xmlns="http://www.w3.org/2000/svg">
<path d="M2.5 2C2.22386 2 2 2.22386 2 2.5V21.5C2 21.7761 2.22386 22 2.5 22H3.5C3.77614 22 4 21.7761 4 21.5V16.75H8V17C8 18.1046 8.89543 19 10 19H20C21.1046 19 22 18.1046 22 17V7C22 5.89543 21.1046 5 20 5H10C8.89543 5 8 5.89543 8 7V7.25H4V2.5C4 2.22386 3.77614 2 3.5 2H2.5ZM8 8.75V15.25H4V8.75H8ZM12 7.25C12.4142 7.25 12.75 7.58579 12.75 8V11.25H17.25V8C17.25 7.58579 17.5858 7.25 18 7.25C18.4142 7.25 18.75 7.58579 18.75 8V16C18.75 16.4142 18.4142 16.75 18 16.75C17.5858 16.75 17.25 16.4142 17.25 16V12.75H12.75V16C12.75 16.4142 12.4142 16.75 12 16.75C11.5858 16.75 11.25 16.4142 11.25 16V8C11.25 7.58579 11.5858 7.25 12 7.25Z" fill="currentColor"/>
</svg>
