<svg viewBox="0 0 24 24" fill="currentColor" xmlns="http://www.w3.org/2000/svg">
<path d="M14.1006 3.41805C13.3513 2.94637 12.3603 2.63318 11.0931 2.79157C10.0391 2.92332 9.32189 3.39294 8.82278 3.98394C7.94815 5.01958 7.7705 6.46793 8.20923 7.72135C8.21587 7.74031 8.22264 7.75922 8.22955 7.77806C8.90466 6.95482 9.81627 6.29736 11.0001 6.29736C12.0572 6.29736 12.8997 6.59028 13.4568 7.15413C14.0198 7.72391 14.1927 8.47201 14.0931 9.16121C13.9006 10.4929 12.653 11.7845 10.9152 11.5865C9.91027 11.4719 9.05677 11.0814 8.37527 10.5184C8.16796 11.0265 8.0058 11.5403 7.88826 12H9V13.5H5V12H6.34608C6.52296 11.2064 6.83283 10.2046 7.29271 9.26768C7.08843 8.9358 6.92139 8.58242 6.79345 8.2169C6.204 6.53287 6.41393 4.51145 7.67678 3.01611C8.40383 2.15521 9.4562 1.48451 10.9071 1.30315C12.5433 1.09863 13.8794 1.50637 14.8997 2.14863C16.2034 2.96932 16.9505 3.90484 17.3441 5.01966C17.7221 6.09002 17.7501 7.27037 17.7501 8.50002V12H19V13.5H15V12H16.2501V8.50002C16.2501 7.24817 16.2106 6.31451 15.9297 5.51907C15.6646 4.7681 15.1617 4.08603 14.1006 3.41805ZM9.08662 9.14019C9.59853 9.65258 10.2736 10.0036 11.085 10.0961C11.9119 10.1903 12.5162 9.58494 12.6085 8.94661C12.6513 8.6508 12.5748 8.39563 12.3898 8.20838C12.1989 8.01521 11.7949 7.79736 11.0001 7.79736C10.3087 7.79736 9.66099 8.27063 9.08662 9.14019Z" fill="currentColor"/>
<path d="M6 16.7324C5.4022 16.3866 5 15.7403 5 15H9C9 15.7403 8.5978 16.3866 8 16.7324V22H6V16.7324Z" fill="currentColor"/>
<path d="M16 16.7324C15.4022 16.3866 15 15.7403 15 15H19C19 15.7403 18.5978 16.3866 18 16.7324V22H16V16.7324Z" fill="currentColor"/>
</svg>
