<svg viewBox="0 0 24 24" fill="currentColor" xmlns="http://www.w3.org/2000/svg">
<path d="M7.74475 3L7.74496 3.00163C8.27669 7 8.2767 7.00014 8.27668 8C8.27667 8.32112 8.16775 8.62574 7.98963 8.93187C8.00353 8.94388 8.0171 8.95648 8.03029 8.96967C8.86508 9.80446 10.2411 10.3545 11.8217 10.4003C13.253 10.4418 14.7986 10.0663 16.1629 9.17163C15.8964 8.78325 15.7234 8.40473 15.7234 8C15.7234 7.00014 15.7234 7 16.2551 3.00163L16.2553 3H7.74475Z" fill="currentColor"/>
<path d="M17.112 10.3415C15.4436 11.4766 13.5396 11.9507 11.7782 11.8997C9.96166 11.847 8.23525 11.2318 7.06993 10.128C6.4603 10.841 5.76483 11.6612 5.35522 12.7572C6.10814 12.7857 7.23149 12.9021 8.41457 13.1683C9.62228 13.44 10.9643 13.8834 12.0401 14.6017C12.0988 14.5692 12.16 14.5363 12.2235 14.5029L12.2427 14.471L12.2622 14.4827C12.8545 14.1748 13.6423 13.8343 14.5241 13.5388C15.7471 13.1291 17.208 12.7867 18.6431 12.7528C18.2737 11.7666 17.6729 11.0039 17.112 10.3415Z" fill="currentColor"/>
<path d="M8.0853 14.6317C9.34233 14.9145 10.5925 15.3655 11.4588 16.0288C11.0987 17.1679 10.9489 18.8548 11.2429 21H7.21279C5.3911 18.0392 4.88314 15.8901 5.02169 14.25C5.63926 14.2522 6.82101 14.3472 8.0853 14.6317Z" fill="currentColor"/>
<path d="M12.7578 21L12.7426 20.8939C12.3541 18.1739 12.7694 16.5086 13.1431 15.8859L13.2852 15.6489C13.7503 15.4271 14.3374 15.1833 15.0006 14.9612C16.199 14.5596 17.5834 14.25 18.8747 14.25C18.9097 14.25 18.9441 14.2476 18.9777 14.243C19.1183 15.8839 18.6115 18.0349 16.7872 21H12.7578Z" fill="currentColor"/>
<path d="M4.46967 4.46967C4.76256 4.17678 5.23744 4.17678 5.53033 4.46967L7.17678 6.11612C7.66493 6.60427 7.66493 7.39573 7.17678 7.88388L5.53033 9.53033C5.23744 9.82322 4.76256 9.82322 4.46967 9.53033C4.17678 9.23744 4.17678 8.76256 4.46967 8.46967L5.18934 7.75H2C1.58579 7.75 1.25 7.41421 1.25 7C1.25 6.58579 1.58579 6.25 2 6.25H5.18934L4.46967 5.53033C4.17678 5.23744 4.17678 4.76256 4.46967 4.46967Z" fill="currentColor"/>
<path d="M19.5303 4.46967C19.2374 4.17678 18.7626 4.17678 18.4697 4.46967L16.8232 6.11612C16.3351 6.60427 16.3351 7.39573 16.8232 7.88388L18.4697 9.53033C18.7626 9.82322 19.2374 9.82322 19.5303 9.53033C19.8232 9.23744 19.8232 8.76256 19.5303 8.46967L18.8107 7.75H22C22.4142 7.75 22.75 7.41421 22.75 7C22.75 6.58579 22.4142 6.25 22 6.25H18.8107L19.5303 5.53033C19.8232 5.23744 19.8232 4.76256 19.5303 4.46967Z" fill="currentColor"/>
</svg>
