<svg viewBox="0 0 24 24" fill="currentColor" xmlns="http://www.w3.org/2000/svg">
<path d="M8.10762 3.30577C8.3981 2.52098 9.14645 2 9.98327 2H14.0167C14.8536 2 15.6019 2.52098 15.8924 3.30577L16.3405 4.51635C16.2284 4.50553 16.1149 4.5 16 4.5H8.00002C7.88515 4.5 7.77158 4.50553 7.65955 4.51635L8.10762 3.30577Z" fill="currentColor"/>
<path d="M7.65955 19.4837L8.10762 20.6942C8.3981 21.479 9.14645 22 9.98327 22H14.0167C14.8536 22 15.6019 21.479 15.8924 20.6942L16.3405 19.4837C16.2284 19.4945 16.1149 19.5 16 19.5H8.00002C7.88515 19.5 7.77158 19.4945 7.65955 19.4837Z" fill="currentColor"/>
<path d="M8 6C6.89543 6 6 6.89543 6 8V12.6267L8.40862 9.53873C8.55074 9.35652 8.76892 9.25 9 9.25C9.23108 9.25 9.44926 9.35652 9.59138 9.53873L12.9 13.7806L14.7086 11.4618C14.8507 11.2796 15.0689 11.1731 15.3 11.1731H18V8C18 6.89543 17.1046 6 16 6H8Z" fill="currentColor"/>
<path d="M18 12.6731H15.6662L13.4914 15.4613C13.3493 15.6435 13.1311 15.75 12.9 15.75C12.6689 15.75 12.4507 15.6435 12.3086 15.4613L9 11.2194L6.59138 14.3074C6.44361 14.4969 6.22298 14.596 6 14.5962V16C6 17.1046 6.89543 18 8 18H16C17.1046 18 18 17.1046 18 16V12.6731Z" fill="currentColor"/>
</svg>
