<svg viewBox="0 0 24 24" fill="currentColor" xmlns="http://www.w3.org/2000/svg">
<path d="M9.98327 2C9.14645 2 8.3981 2.52098 8.10762 3.30577L7.65955 4.51635C7.77158 4.50553 7.88515 4.5 8.00002 4.5H16C16.1149 4.5 16.2284 4.50553 16.3405 4.51635L15.8924 3.30577C15.6019 2.52098 14.8536 2 14.0167 2H9.98327Z" fill="currentColor"/>
<path d="M7.65955 19.4837C7.77158 19.4945 7.88515 19.5 8.00002 19.5H16C16.1149 19.5 16.2284 19.4945 16.3405 19.4837L15.8924 20.6942C15.6019 21.479 14.8536 22 14.0167 22H9.98327C9.14645 22 8.3981 21.479 8.10762 20.6942L7.65955 19.4837Z" fill="currentColor"/>
<path d="M10.6071 10.7105C10.6071 10.1437 10.7866 9.80042 11.0014 9.59636C11.2236 9.38518 11.5612 9.25 12 9.25C12.4388 9.25 12.7764 9.38518 12.9986 9.59636C13.2134 9.80042 13.3929 10.1437 13.3929 10.7105C13.3929 10.9002 13.3219 11.1368 13.1597 11.4157C12.9996 11.6909 12.7754 11.9647 12.5329 12.2148C12.3475 12.4061 12.1604 12.5744 12 12.7091C11.8396 12.5744 11.6525 12.4061 11.4671 12.2148C11.2246 11.9647 11.0004 11.6909 10.8403 11.4157C10.6781 11.1368 10.6071 10.9002 10.6071 10.7105Z" fill="currentColor"/>
<path d="M8 6H16C17.1046 6 18 6.89543 18 8V16C18 17.1046 17.1046 18 16 18H8C6.89543 18 6 17.1046 6 16V8C6 6.89543 6.89543 6 8 6ZM10.3901 13.2589C10.5206 13.3936 10.6507 13.5178 10.774 13.6297L9.0551 14.8962C8.72164 15.1419 8.6505 15.6114 8.89621 15.9449C9.14192 16.2784 9.61143 16.3495 9.9449 16.1038L12 14.5895L14.0551 16.1038C14.3886 16.3495 14.8581 16.2784 15.1038 15.9449C15.3495 15.6114 15.2784 15.1419 14.9449 14.8962L13.226 13.6297C13.3493 13.5178 13.4794 13.3936 13.6099 13.2589C13.9031 12.9564 14.2146 12.5854 14.4563 12.1698C14.6959 11.7579 14.8929 11.2577 14.8929 10.7105C14.8929 9.80368 14.5926 9.04168 14.0318 8.5089C13.4785 7.98324 12.7447 7.75 12 7.75C11.2553 7.75 10.5215 7.98324 9.96819 8.5089C9.40741 9.04168 9.10714 9.80368 9.10714 10.7105C9.10714 11.2577 9.30406 11.7579 9.54365 12.1698C9.78536 12.5854 10.0969 12.9564 10.3901 13.2589Z" fill="currentColor"/>
</svg>
