<svg viewBox="0 0 24 24" fill="currentColor" xmlns="http://www.w3.org/2000/svg">
<path d="M5 2C3.34315 2 2 3.34315 2 5V19C2 20.6569 3.34315 22 5 22H19C20.6569 22 22 20.6569 22 19V5C22 3.34315 20.6569 2 19 2H5ZM11.5 7H12.5C13.0523 7 13.5 7.44772 13.5 8V10.5H16C16.5523 10.5 17 10.9477 17 11.5V12.5C17 13.0523 16.5523 13.5 16 13.5H13.5V16C13.5 16.5523 13.0523 17 12.5 17H11.5C10.9477 17 10.5 16.5523 10.5 16V13.5H8C7.44772 13.5 7 13.0523 7 12.5V11.5C7 10.9477 7.44772 10.5 8 10.5H10.5V8C10.5 7.44772 10.9477 7 11.5 7Z" fill="currentColor"/>
</svg>
