<svg viewBox="0 0 24 24" fill="currentColor" xmlns="http://www.w3.org/2000/svg">
<path d="M14.0256 22C15.5834 22 16.8462 20.7372 16.8462 19.1795V11.6832C19.1713 11.3144 20.9487 9.30067 20.9487 6.87179V3.79487C20.9487 2.80359 20.1451 2 19.1538 2H18.8974C18.4726 2 18.1282 2.3444 18.1282 2.76923C18.1282 3.19407 18.4726 3.53846 18.8974 3.53846H19.1538C19.2955 3.53846 19.4103 3.65326 19.4103 3.79487V6.87179C19.4103 8.71274 17.9179 10.2051 16.0769 10.2051C14.236 10.2051 12.7436 8.71274 12.7436 6.87179V3.79487C12.7436 3.65326 12.8584 3.53846 13 3.53846H13.2564C13.6812 3.53846 14.0256 3.19406 14.0256 2.76923C14.0256 2.3444 13.6812 2 13.2564 2H13C12.0087 2 11.2051 2.80359 11.2051 3.79487V6.87179C11.2051 9.30067 12.9826 11.3144 15.3077 11.6832V19.1795C15.3077 19.8875 14.7337 20.4615 14.0256 20.4615H7.87179C7.16374 20.4615 6.58974 19.8875 6.58974 19.1795V15.74C7.77359 15.4051 8.64103 14.3167 8.64103 13.0256C8.64103 11.4679 7.37824 10.2051 5.82051 10.2051C4.26279 10.2051 3 11.4679 3 13.0256C3 14.3167 3.86743 15.4051 5.05128 15.74V19.1795C5.05128 20.7372 6.31407 22 7.87179 22H14.0256ZM5.82051 11.7436C6.52857 11.7436 7.10256 12.3176 7.10256 13.0256C7.10256 13.7337 6.52857 14.3077 5.82051 14.3077C5.11246 14.3077 4.53846 13.7337 4.53846 13.0256C4.53846 12.3176 5.11246 11.7436 5.82051 11.7436Z" fill="currentColor"/>
</svg>
