<svg viewBox="0 0 24 24" fill="currentColor" xmlns="http://www.w3.org/2000/svg">
<path d="M9.32141 11.4737C9.32141 10.49 9.64184 9.83243 10.0873 9.41677C10.5418 8.99272 11.2025 8.75 12 8.75C12.7975 8.75 13.4582 8.99272 13.9127 9.41677C14.3581 9.83243 14.6786 10.49 14.6786 11.4737C14.6786 11.8706 14.5296 12.3159 14.2475 12.7922C13.9678 13.2646 13.5836 13.7227 13.1805 14.131C12.7797 14.5371 12.3762 14.8781 12.0715 15.1182C12.047 15.1375 12.0231 15.1561 12 15.1741C11.9769 15.1561 11.953 15.1375 11.9285 15.1182C11.6238 14.8781 11.2203 14.5371 10.8195 14.131C10.4164 13.7227 10.0322 13.2646 9.75245 12.7922C9.4704 12.3159 9.32141 11.8706 9.32141 11.4737Z" fill="currentColor"/>
<path d="M7.25 3.75C7.25 2.7835 8.0335 2 9 2H15C15.9665 2 16.75 2.7835 16.75 3.75V5.75H20C21.1046 5.75 22 6.64543 22 7.75V20C22 21.1046 21.1046 22 20 22H4C2.89543 22 2 21.1046 2 20V7.75C2 6.64543 2.89543 5.75 4 5.75H7.25V3.75ZM9 3.5C8.86193 3.5 8.75 3.61193 8.75 3.75V5.75H15.25V3.75C15.25 3.61193 15.1381 3.5 15 3.5H9ZM9.75193 15.1847C10.1008 15.5382 10.4479 15.845 10.7432 16.089L7.5603 18.3924C7.22474 18.6353 7.14957 19.1041 7.39241 19.4397C7.63525 19.7753 8.10414 19.8504 8.4397 19.6076L12 17.0311L15.5603 19.6076C15.8959 19.8504 16.3647 19.7753 16.6076 19.4397C16.8504 19.1041 16.7753 18.6353 16.4397 18.3924L13.2568 16.089C13.5521 15.845 13.8992 15.5382 14.2481 15.1847C14.7021 14.7247 15.1751 14.1696 15.5382 13.5565C15.899 12.9472 16.1786 12.2346 16.1786 11.4737C16.1786 10.1415 15.7315 9.06231 14.936 8.32007C14.1496 7.58623 13.096 7.25 12 7.25C10.904 7.25 9.85041 7.58623 9.06396 8.32007C8.26851 9.06231 7.82143 10.1415 7.82143 11.4737C7.82143 12.2346 8.101 12.9472 8.46182 13.5565C8.82491 14.1696 9.29786 14.7247 9.75193 15.1847Z" fill="currentColor"/>
</svg>
