<svg viewBox="0 0 24 24" fill="currentColor" xmlns="http://www.w3.org/2000/svg">
<path d="M4.0723 6.15913C3.62944 5.92702 3.10232 5.95009 2.67984 6.22006C2.25735 6.49003 2 6.96826 2 7.48337V13.4168C2 13.9766 2.30354 14.4888 2.78484 14.741C3.05232 14.8812 3.32717 15.0281 3.61154 15.1801L3.67543 15.2143C5.97599 16.444 8.88689 18 12 18C15.1131 18 18.024 16.444 20.3246 15.2143L20.3885 15.1801C20.6728 15.0281 20.9477 14.8812 21.2152 14.741C21.6965 14.4888 22 13.9766 22 13.4168V7.48337C22 6.96826 21.7426 6.49003 21.3202 6.22006C20.8977 5.95009 20.3706 5.92702 19.9277 6.15913C17.5464 7.40722 14.8544 8.11091 12 8.11091C9.1456 8.11091 6.4536 7.40722 4.0723 6.15913ZM9.22081 16.0854C8.21672 15.7905 7.23574 15.3703 6.28571 14.9073V14.4057C6.28571 14.2893 6.3049 14.1785 6.33978 14.076C6.47075 13.6913 6.82417 13.4168 7.2381 13.4168H9.14286C9.22513 13.4168 9.30486 13.4276 9.38088 13.4478C9.22935 13.7316 9.14286 14.0583 9.14286 14.4057V15.3946C9.14286 15.6323 9.16985 15.8636 9.22081 16.0854ZM13.6656 16.3551C13.1159 16.4585 12.5603 16.5166 12 16.5166C11.4397 16.5166 10.8841 16.4585 10.3344 16.3551C10.182 16.0709 10.0952 15.7437 10.0952 15.3946V14.4057C10.0952 14.1129 10.2172 13.8503 10.4128 13.6685C10.5816 13.5116 10.8034 13.4168 11.0476 13.4168H12.9524C13.1966 13.4168 13.4184 13.5116 13.5872 13.6685C13.7828 13.8503 13.9048 14.1129 13.9048 14.4057V15.3946C13.9048 15.7437 13.818 16.0709 13.6656 16.3551ZM17.7143 14.9073C16.7643 15.3703 15.7833 15.7905 14.7792 16.0854C14.8301 15.8636 14.8571 15.6323 14.8571 15.3946V14.4057C14.8571 14.0583 14.7707 13.7316 14.6191 13.4478C14.6951 13.4276 14.7749 13.4168 14.8571 13.4168H16.7619C17.2004 13.4168 17.5709 13.725 17.681 14.145C17.7026 14.2275 17.7143 14.3148 17.7143 14.4057V14.9073ZM18.485 8.4184C19.2015 8.14906 19.8979 7.83636 20.5714 7.48337V10.4501H18.6667V9.46118C18.6667 9.09447 18.6024 8.74296 18.485 8.4184ZM14.6732 9.40102C15.6692 9.25578 16.6404 9.03056 17.5807 8.73182C17.6669 8.95735 17.7143 9.20332 17.7143 9.46118V10.4501C17.7143 10.541 17.7026 10.6283 17.681 10.7108C17.5709 11.1308 17.2004 11.439 16.7619 11.439H14.8571V10.4501C14.8571 10.0809 14.7921 9.72725 14.6732 9.40102ZM10.3193 9.51834C10.8731 9.56861 11.4337 9.59427 12 9.59427C12.5663 9.59427 13.1269 9.56861 13.6807 9.51834C13.8238 9.79593 13.9048 10.113 13.9048 10.4501V11.439C13.9048 11.5299 13.8931 11.6172 13.8714 11.6997C13.7613 12.1197 13.3909 12.4279 12.9524 12.4279H11.0476C10.6091 12.4279 10.2387 12.1197 10.1286 11.6997C10.1069 11.6172 10.0952 11.5299 10.0952 11.439V10.4501C10.0952 10.113 10.1762 9.79593 10.3193 9.51834ZM6.41928 8.73182C7.35958 9.03056 8.33081 9.25578 9.32676 9.40102C9.20794 9.72725 9.14286 10.0809 9.14286 10.4501V11.439H7.2381C6.79957 11.439 6.42915 11.1308 6.31903 10.7108C6.2974 10.6283 6.28571 10.541 6.28571 10.4501V9.46118C6.28571 9.20332 6.33306 8.95735 6.41928 8.73182ZM5.51496 8.4184C5.39758 8.74295 5.33333 9.09447 5.33333 9.46118V10.4501H3.42857V7.48337C4.10208 7.83636 4.79852 8.14906 5.51496 8.4184Z" fill="currentColor"/>
</svg>
