<svg viewBox="0 0 24 24" fill="currentColor" xmlns="http://www.w3.org/2000/svg">
<path d="M8.26586 12.0686C8.26789 12.0376 8.2702 12.005 8.27282 11.9708C8.2939 11.6968 8.336 11.3172 8.42082 10.8931C8.58383 10.078 8.93208 8.95356 9.72731 8.15834L14.6199 3.26579C16.3086 1.577 19.0451 1.57878 20.7331 3.26686C22.4212 4.95494 22.423 7.69136 20.7342 9.38014L15.8417 14.2727C15.0464 15.0679 13.922 15.4162 13.1069 15.5792C12.6828 15.664 12.3032 15.7061 12.0292 15.7272C11.995 15.7298 11.9624 15.7321 11.9314 15.7341L11.8481 15.8157C11.6423 16.0166 11.3476 16.3017 10.9903 16.6396C10.2768 17.3146 9.30881 18.2053 8.29869 19.06C7.29618 19.9083 6.22136 20.7476 5.29982 21.3005C4.84534 21.5732 4.3759 21.8085 3.94049 21.9231C3.54814 22.0263 2.88483 22.1047 2.39008 21.6099C1.89534 21.1152 1.97367 20.4519 2.07692 20.0595C2.1915 19.6241 2.42683 19.1547 2.69951 18.7002C3.25244 17.7786 4.09174 16.7038 4.94002 15.7013C5.79474 14.6912 6.68542 13.7232 7.36036 13.0097C7.69834 12.6524 7.98339 12.3577 8.18432 12.1519L8.26586 12.0686ZM11.8035 10.9736C11.4659 11.3113 11.4659 11.8588 11.8035 12.1965C12.1412 12.5341 12.6887 12.5341 13.0264 12.1965L16.4523 8.77055C16.771 8.91783 17.1259 9 17.5 9C18.8807 9 20 7.88071 20 6.5C20 5.11929 18.8807 4 17.5 4C16.1193 4 15 5.11929 15 6.5C15 6.87411 15.0822 7.22902 15.2295 7.54768L11.8035 10.9736Z" fill="currentColor"/>
</svg>
