<svg viewBox="0 0 24 24" fill="currentColor" xmlns="http://www.w3.org/2000/svg">
<path d="M14 4C14 2.89543 13.1046 2 12 2C10.8954 2 10 2.89543 10 4V14.5351C8.8044 15.2267 8 16.5194 8 18C8 20.2091 9.79086 22 12 22C14.2091 22 16 20.2091 16 18C16 16.5194 15.1956 15.2267 14 14.5351V4ZM14 18C14 19.1046 13.1046 20 12 20C10.8954 20 10 19.1046 10 18C10 17.1607 10.517 16.4421 11.25 16.1454V8C11.25 7.58579 11.5858 7.25 12 7.25C12.4142 7.25 12.75 7.58579 12.75 8V16.1454C13.483 16.4421 14 17.1607 14 18Z" fill="currentColor"/>
</svg>
