<svg viewBox="0 0 24 24" fill="currentColor" xmlns="http://www.w3.org/2000/svg">
<path d="M4.75763 2.93369L4.75814 2.9301C4.823 2.48481 4.50625 2.0719 4.05037 2.00829C3.59434 1.94465 3.17179 2.25446 3.10664 2.69993L3.10611 2.70364L3.10498 2.71153L3.10126 2.73857C3.09816 2.76146 3.09391 2.79392 3.08888 2.83482C3.07884 2.91655 3.06568 3.03241 3.05258 3.17321C3.02651 3.45331 3 3.83923 3 4.2552C3 4.66636 3.02573 5.13369 3.1145 5.56726C3.19802 5.97517 3.36192 6.48258 3.73581 6.8478C4.31241 7.41104 4.89466 7.53978 5.37915 7.59418C5.47922 7.60541 5.56655 7.61391 5.6445 7.6215C5.94098 7.65036 6.10177 7.66602 6.31181 7.7686C7.12454 8.16555 8.01686 9.01733 8.74654 9.84698C9.05745 10.2005 9.32423 10.5329 9.52554 10.7945L9.24066 11.0728C8.48059 11.8152 8.48059 13.019 9.24066 13.7614L17.1047 21.4432C17.8648 22.1856 19.0971 22.1856 19.8571 21.4432L21.43 19.9068C22.19 19.1644 22.19 17.9606 21.43 17.2182L13.5659 9.53642C12.8058 8.79398 11.5735 8.79398 10.8135 9.53642L10.716 9.63164C10.5199 9.38265 10.2815 9.09166 10.0119 8.78509C9.26116 7.93147 8.18747 6.8628 7.05786 6.31109C6.54447 6.06035 6.03375 6.01636 5.71717 5.9891C5.66168 5.98432 5.61216 5.98006 5.56963 5.97528C5.28827 5.9437 5.12522 5.90048 4.91542 5.69554C4.8961 5.67667 4.81426 5.55994 4.75032 5.24768C4.69164 4.96108 4.66822 4.61222 4.66822 4.2552C4.66822 3.903 4.69086 3.56876 4.71395 3.32074C4.72542 3.19747 4.73683 3.09728 4.74522 3.02898C4.74941 2.99486 4.75283 2.96881 4.75512 2.95194L4.75763 2.93369ZM15.4586 15.556C15.7843 15.2378 16.3125 15.2378 16.6382 15.556L17.7503 16.6424C18.0761 16.9606 18.0761 17.4765 17.7503 17.7947C17.4246 18.1129 16.8965 18.1129 16.5707 17.7947L15.4586 16.7083C15.1328 16.3901 15.1328 15.8742 15.4586 15.556Z" fill="currentColor"/>
</svg>
