<svg viewBox="0 0 24 24" fill="currentColor" xmlns="http://www.w3.org/2000/svg">
<path d="M10 10C12.2091 10 14 8.20914 14 6C14 3.79086 12.2091 2 10 2C7.79086 2 6 3.79086 6 6C6 8.20914 7.79086 10 10 10Z" fill="currentColor"/>
<path d="M4 12C2.89543 12 2 12.8954 2 14C2 18.4183 5.58172 22 10 22C14.4183 22 18 18.4183 18 14C18 12.8954 17.1046 12 16 12H4Z" fill="currentColor"/>
<path d="M17.8901 7.75887C18.0206 7.89358 18.1507 8.01785 18.274 8.12967L16.5551 9.39621C16.2216 9.64192 16.1505 10.1114 16.3962 10.4449C16.6419 10.7784 17.1114 10.8495 17.4449 10.6038L19.5 9.08951L21.5551 10.6038C21.8886 10.8495 22.3581 10.7784 22.6038 10.4449C22.8495 10.1114 22.7784 9.64192 22.4449 9.39621L20.726 8.12967C20.8493 8.01785 20.9794 7.89358 21.1099 7.75887C21.4031 7.45639 21.7146 7.08541 21.9563 6.66984C22.1959 6.25792 22.3929 5.75765 22.3929 5.21053C22.3929 4.30368 22.0926 3.54168 21.5318 3.0089C20.9785 2.48324 20.2447 2.25 19.5 2.25C18.7553 2.25 18.0215 2.48324 17.4682 3.0089C16.9074 3.54168 16.6071 4.30368 16.6071 5.21053C16.6071 5.75765 16.8041 6.25792 17.0437 6.66984C17.2854 7.08541 17.5969 7.45639 17.8901 7.75887ZM18.1071 5.21053C18.1071 4.64369 18.2866 4.30042 18.5014 4.09636C18.7236 3.88518 19.0612 3.75 19.5 3.75C19.9388 3.75 20.2764 3.88518 20.4986 4.09636C20.7134 4.30042 20.8929 4.64369 20.8929 5.21053C20.8929 5.40024 20.8219 5.63681 20.6597 5.91568C20.4996 6.19091 20.2754 6.46466 20.0329 6.71482C19.8475 6.90613 19.6604 7.07439 19.5 7.20915C19.3396 7.07439 19.1525 6.90613 18.9671 6.71482C18.7246 6.46466 18.5004 6.19091 18.3403 5.91568C18.1781 5.63681 18.1071 5.40024 18.1071 5.21053Z" fill="currentColor"/>
</svg>
