<svg viewBox="0 0 24 24" fill="currentColor" xmlns="http://www.w3.org/2000/svg">
<path d="M3.77122 7.89662C3.92675 7.54766 4.24272 7.16233 4.86727 6.80116C6.86514 5.85266 7.9438 7.47255 8.09658 9.15653C8.29189 11.3093 9.75441 13.5883 11.2655 15.291V18.2508C11.2655 18.665 11.6013 19.0008 12.0155 19.0008C12.4297 19.0008 12.7655 18.665 12.7655 18.2508V15.2557C14.2655 13.5568 15.7092 11.2945 15.9032 9.15655C16.056 7.47257 17.1346 5.85268 19.1325 6.80118C19.7571 7.16234 20.073 7.54767 20.2286 7.89664C20.3869 8.25194 20.4133 8.64676 20.3278 9.077C20.1732 9.85558 19.6697 10.6504 19.1659 11.2194H18.8564C17.7519 11.2194 16.8564 12.1148 16.8564 13.2194V13.4646C16.8564 14.0169 17.3042 14.4646 17.8564 14.4646H18.1048C19.1655 14.4646 20.0334 13.6387 20.1006 12.5949C20.7911 11.9012 21.6583 10.7155 21.9209 9.39274C22.0566 8.7097 22.0355 7.96194 21.7123 7.23663C21.388 6.50901 20.7936 5.88056 19.9167 5.37992L19.8971 5.36874L19.8769 5.35867C18.8835 4.86247 16.6189 4.58368 14.6083 6.59238C13.9949 7.20523 12.9527 7.43041 12.003 7.43336C11.0517 7.43139 10.0063 7.20656 9.39148 6.59237C7.38085 4.58367 5.11627 4.86246 4.12287 5.35865L4.1027 5.36872L4.08312 5.3799C3.20616 5.88054 2.61178 6.50899 2.28749 7.23662C1.96423 7.96192 1.94321 8.70969 2.07884 9.39273C2.34146 10.7153 3.20847 11.9009 3.89893 12.5946C3.96594 13.6386 4.83389 14.4646 5.89477 14.4646H6.14309C6.69538 14.4646 7.14309 14.0169 7.14309 13.4646V13.2194C7.14309 12.1148 6.24766 11.2194 5.14309 11.2194H4.83389C4.33004 10.6503 3.82656 9.85557 3.67196 9.07699C3.58652 8.64674 3.61287 8.25193 3.77122 7.89662Z" fill="currentColor"/>
</svg>
