<svg viewBox="0 0 24 24" fill="currentColor" xmlns="http://www.w3.org/2000/svg">
<path d="M17.4968 2.22086C17.7913 1.92638 18.2687 1.92638 18.5632 2.22086L21.7792 5.43685C22.0737 5.73132 22.0737 6.20876 21.7792 6.50324C21.4847 6.79772 21.0073 6.79772 20.7128 6.50324L19.6378 5.42827L18.563 6.50312L20.4417 8.38187C20.8858 8.8259 20.8858 9.54582 20.4417 9.98986L18.3978 12.0338L11.966 5.60195L14.0098 3.55788C14.4538 3.11384 15.1737 3.11384 15.6178 3.55788L17.4966 5.43673L18.5714 4.36188L17.4968 3.28725C17.2023 2.99277 17.2023 2.51533 17.4968 2.22086Z" fill="currentColor"/>
<path d="M4.36184 13.2059C2.76728 14.8004 2.60426 17.2844 3.8728 19.0609L2.22091 20.7128C1.92644 21.0072 1.92644 21.4847 2.22091 21.7791C2.51539 22.0736 2.99283 22.0736 3.2873 21.7791L4.93925 20.1272C6.71564 21.3954 9.19937 21.2323 10.7938 19.6378L17.4267 13.0049L10.9949 6.57306L4.36184 13.2059ZM14 12C14 12.5523 13.5523 13 13 13C12.4477 13 12 12.5523 12 12C12 11.4477 12.4477 11 13 11C13.5523 11 14 11.4477 14 12ZM7.00001 17C6.44773 17 6.00001 16.5523 6.00001 16C6.00001 15.4477 6.44773 15 7.00001 15C7.55229 15 8.00001 15.4477 8.00001 16C8.00001 16.5523 7.55229 17 7.00001 17ZM11 15.5C11 15.7761 10.7761 16 10.5 16C10.2239 16 10 15.7761 10 15.5C10 15.2239 10.2239 15 10.5 15C10.7761 15 11 15.2239 11 15.5ZM9.50001 12C9.22387 12 9.00001 11.7761 9.00001 11.5C9.00001 11.2239 9.22387 11 9.50001 11C9.77615 11 10 11.2239 10 11.5C10 11.7761 9.77615 12 9.50001 12Z" fill="currentColor"/>
</svg>
