<svg viewBox="0 0 24 24" fill="currentColor" xmlns="http://www.w3.org/2000/svg">
<path d="M12 1.25C12.4142 1.25 12.75 1.58579 12.75 2V4.03469C13.6647 4.11974 14.5347 4.35878 15.3339 4.72564L16.3505 2.96484C16.5576 2.60612 17.0163 2.48322 17.375 2.69032C17.7337 2.89743 17.8566 3.35612 17.6495 3.71484L16.6323 5.47678C17.3633 5.99684 18.0032 6.63671 18.5232 7.36774L20.2852 6.35048C20.6439 6.14337 21.1026 6.26628 21.3097 6.625C21.5168 6.98372 21.3939 7.44241 21.0352 7.64952L19.2744 8.66612C19.6412 9.46528 19.8803 10.3353 19.9653 11.25H22C22.4142 11.25 22.75 11.5858 22.75 12C22.75 12.4142 22.4142 12.75 22 12.75H19.9653C19.8803 13.6647 19.6412 14.5347 19.2744 15.3338L21.0352 16.3505C21.394 16.5576 21.5169 17.0163 21.3098 17.375C21.1027 17.7337 20.644 17.8566 20.2852 17.6495L18.5232 16.6322C18.0031 17.3633 17.3632 18.0033 16.6321 18.5233L17.6495 20.2856C17.8566 20.6443 17.7337 21.103 17.375 21.3101C17.0163 21.5172 16.5576 21.3943 16.3505 21.0356L15.3337 19.2744C14.5346 19.6413 13.6646 19.8803 12.75 19.9653V22C12.75 22.4142 12.4142 22.75 12 22.75C11.5858 22.75 11.25 22.4142 11.25 22V19.9653C10.3354 19.8803 9.46542 19.6413 8.66631 19.2744L7.64952 21.0356C7.44241 21.3943 6.98372 21.5172 6.625 21.3101C6.26628 21.103 6.14337 20.6443 6.35048 20.2856L7.36791 18.5233C6.63678 18.0032 5.99684 17.3633 5.47673 16.6322L3.71467 17.6495C3.35595 17.8566 2.89726 17.7337 2.69015 17.375C2.48304 17.0163 2.60595 16.5576 2.96467 16.3505L4.72561 15.3338C4.35877 14.5347 4.11974 13.6647 4.03469 12.75H2C1.58579 12.75 1.25 12.4142 1.25 12C1.25 11.5858 1.58579 11.25 2 11.25H4.03469C4.11974 10.3353 4.35877 9.46531 4.72562 8.66616L2.96475 7.64952C2.60603 7.44241 2.48313 6.98372 2.69023 6.625C2.89734 6.26628 3.35603 6.14337 3.71475 6.35048L5.47676 7.36778C5.99682 6.63673 6.63669 5.99685 7.36774 5.47678L6.35048 3.71484C6.14337 3.35612 6.26628 2.89743 6.625 2.69032C6.98372 2.48322 7.44241 2.60612 7.64952 2.96484L8.66612 4.72564C9.46528 4.35878 10.3353 4.11974 11.25 4.03469V2C11.25 1.58579 11.5858 1.25 12 1.25ZM9 11C9 10.4477 8.55229 10 8 10C7.44772 10 7 10.4477 7 11C7 11.5523 7.44772 12 8 12C8.55229 12 9 11.5523 9 11ZM11.5 17C12.3284 17 13 16.3284 13 15.5C13 14.6716 12.3284 14 11.5 14C10.6716 14 10 14.6716 10 15.5C10 16.3284 10.6716 17 11.5 17ZM17 9.5C17 8.11929 15.8807 7 14.5 7C13.1193 7 12 8.11929 12 9.5C12 10.8807 13.1193 12 14.5 12C15.8807 12 17 10.8807 17 9.5Z" fill="currentColor"/>
</svg>
