<svg viewBox="0 0 24 24" fill="currentColor" xmlns="http://www.w3.org/2000/svg">
<path d="M12 1.25C12.4142 1.25 12.75 1.58579 12.75 2V4C12.75 4.01869 12.7493 4.03722 12.748 4.05557C13.4146 4.15557 14.0382 4.3872 14.5915 4.72314L15.8569 2.61433C16.07 2.25915 16.5307 2.144 16.8859 2.35712C17.2411 2.57025 17.3562 3.03095 17.1431 3.38612L15.7554 5.69881C16.0977 6.08795 16.3805 6.53072 16.5896 7.01291L18.7628 6.28849C19.1558 6.1575 19.5805 6.36987 19.7115 6.76283C19.8425 7.15579 19.6301 7.58053 19.2372 7.71151L16.9719 8.46661C16.9905 8.64186 17 8.81982 17 9V10.25H19C19.4142 10.25 19.75 10.5858 19.75 11C19.75 11.4142 19.4142 11.75 19 11.75H17V13.25H19C19.4142 13.25 19.75 13.5858 19.75 14C19.75 14.4142 19.4142 14.75 19 14.75H17V15C17 15.5114 16.9232 16.0049 16.7805 16.4696L19.2372 17.2885C19.6301 17.4195 19.8425 17.8442 19.7115 18.2372C19.5805 18.6301 19.1558 18.8425 18.7628 18.7115L16.1218 17.8312C15.9036 18.1482 15.6498 18.4388 15.3662 18.6972L16.624 20.584C16.8538 20.9286 16.7607 21.3943 16.416 21.624C16.0714 21.8538 15.6057 21.7607 15.376 21.416L14.1187 19.5302C13.6913 19.7304 13.231 19.872 12.748 19.9444C12.7493 19.9628 12.75 19.9813 12.75 20V22C12.75 22.4142 12.4142 22.75 12 22.75C11.5858 22.75 11.25 22.4142 11.25 22V20C11.25 19.9813 11.2507 19.9628 11.252 19.9444C10.769 19.872 10.3086 19.7304 9.88127 19.5302L8.62406 21.416C8.39429 21.7607 7.92864 21.8538 7.58399 21.624C7.23935 21.3943 7.14622 20.9286 7.37598 20.584L8.63384 18.6972C8.3502 18.4388 8.0964 18.1482 7.87823 17.8312L5.23719 18.7115C4.84423 18.8425 4.41949 18.6301 4.28851 18.2372C4.15752 17.8442 4.36989 17.4195 4.76285 17.2885L7.21948 16.4696C7.07681 16.0049 7.00002 15.5114 7.00002 15V14.75H5.00002C4.58581 14.75 4.25002 14.4142 4.25002 14C4.25002 13.5858 4.58581 13.25 5.00002 13.25H7.00002V11.75H5.00002C4.58581 11.75 4.25002 11.4142 4.25002 11C4.25002 10.5858 4.58581 10.25 5.00002 10.25H7.00002V9C7.00002 8.81982 7.00955 8.64186 7.02814 8.46661L4.76285 7.71151C4.36989 7.58053 4.15752 7.15579 4.28851 6.76283C4.41949 6.36987 4.84423 6.1575 5.23719 6.28849L7.41045 7.01291C7.62243 6.52395 7.91027 6.07552 8.25911 5.68245L6.42385 3.48014C6.15868 3.16193 6.20167 2.68901 6.51988 2.42383C6.83809 2.15866 7.31101 2.20165 7.57619 2.51986L9.411 4.72164C9.96363 4.38651 10.5863 4.15543 11.252 4.05557C11.2507 4.03722 11.25 4.01869 11.25 4V2C11.25 1.58579 11.5858 1.25 12 1.25ZM10 11C10.5523 11 11 10.5523 11 10C11 9.44771 10.5523 9 10 9C9.44773 9 9.00002 9.44771 9.00002 10C9.00002 10.5523 9.44773 11 10 11ZM15 7.5C15 6.67157 14.3284 6 13.5 6C12.6716 6 12 6.67157 12 7.5C12 8.32843 12.6716 9 13.5 9C14.3284 9 15 8.32843 15 7.5Z" fill="currentColor"/>
</svg>
