<svg viewBox="0 0 24 24" fill="currentColor" xmlns="http://www.w3.org/2000/svg">
<path d="M3.25 3C3.25 2.0335 4.0335 1.25 5 1.25H12.7C16.5936 1.25 19.75 4.40639 19.75 8.3V16.0945C21.0439 16.4275 22 17.6021 22 19C22 20.6569 20.6569 22 19 22C17.3431 22 16 20.6569 16 19C16 17.6021 16.9561 16.4275 18.25 16.0945V9.05H4.75V22C4.75 22.4142 4.41421 22.75 4 22.75C3.58579 22.75 3.25 22.4142 3.25 22V3ZM4.75 7.55H18.1998C17.8336 4.83953 15.5108 2.75 12.7 2.75H5C4.86193 2.75 4.75 2.86193 4.75 3V7.55ZM19 20.5C19.8284 20.5 20.5 19.8284 20.5 19C20.5 18.1716 19.8284 17.5 19 17.5C18.1716 17.5 17.5 18.1716 17.5 19C17.5 19.8284 18.1716 20.5 19 20.5Z" fill="currentColor"/>
</svg>
