<svg viewBox="0 0 24 24" fill="currentColor" xmlns="http://www.w3.org/2000/svg">
<path d="M2 5C2 3.34315 3.34315 2 5 2H19C20.6569 2 22 3.34315 22 5V19C22 20.6569 20.6569 22 19 22H5C3.34315 22 2 20.6569 2 19V5ZM12 4C9.57879 4 7.55953 5.72096 7.09873 8.00638C6.98957 8.54777 7.44772 9 8 9H11.6126L12.8106 6.20456C12.9738 5.82384 13.4147 5.64747 13.7954 5.81064C14.1762 5.97381 14.3525 6.41472 14.1894 6.79544L13.2445 9H16C16.5523 9 17.0104 8.54777 16.9013 8.00638C16.4405 5.72096 14.4212 4 12 4Z" fill="currentColor"/>
</svg>
