<svg viewBox="0 0 24 24" fill="currentColor" xmlns="http://www.w3.org/2000/svg">
<path d="M2 1.25C2.41421 1.25 2.75 1.58579 2.75 2V20C2.75 20.6904 3.30964 21.25 4 21.25H22C22.4142 21.25 22.75 21.5858 22.75 22C22.75 22.4142 22.4142 22.75 22 22.75H4C2.48122 22.75 1.25 21.5188 1.25 20V2C1.25 1.58579 1.58579 1.25 2 1.25Z" fill="currentColor"/>
<path d="M5 6C5 5.44772 5.44772 5 6 5H10C10.5523 5 11 5.44772 11 6V18C11 18.5523 10.5523 19 10 19H6C5.44772 19 5 18.5523 5 18V6Z" fill="currentColor"/>
<path d="M14 10C13.4477 10 13 10.4477 13 11V18C13 18.5523 13.4477 19 14 19H18C18.5523 19 19 18.5523 19 18V11C19 10.4477 18.5523 10 18 10H14Z" fill="currentColor"/>
</svg>
