<svg viewBox="0 0 24 24" fill="currentColor" xmlns="http://www.w3.org/2000/svg">
<path d="M6.65198 12.4772L7.87882 9.16599H7.9008L9.13723 12.4772H6.65198Z" fill="currentColor"/>
<path d="M15.7469 14.3071H14.516V8.69296H15.7469C16.5675 8.69296 17.1829 8.92532 17.5932 9.39005C18.0108 9.84648 18.2196 10.5477 18.2196 11.4938C18.2196 11.9668 18.1683 12.3817 18.0658 12.7386C17.9632 13.0871 17.8093 13.3776 17.6042 13.61C17.399 13.8423 17.1426 14.0166 16.8349 14.1328C16.5272 14.249 16.1645 14.3071 15.7469 14.3071Z" fill="currentColor"/>
<path d="M12.75 2.75V4H18.25V2.75H17C16.5858 2.75 16.25 2.41421 16.25 2C16.25 1.58579 16.5858 1.25 17 1.25H21C21.4142 1.25 21.75 1.58579 21.75 2C21.75 2.41421 21.4142 2.75 21 2.75H19.75V4H20C21.1046 4 22 4.89543 22 6V17C22 18.1046 21.1046 19 20 19H14.25V21.25H15.5C15.9142 21.25 16.25 21.5858 16.25 22C16.25 22.4142 15.9142 22.75 15.5 22.75H8.5C8.08579 22.75 7.75 22.4142 7.75 22C7.75 21.5858 8.08579 21.25 8.5 21.25H9.75V19H4C2.89543 19 2 18.1046 2 17V6C2 4.89543 2.89543 4 4 4H4.25V2.75H3C2.58579 2.75 2.25 2.41421 2.25 2C2.25 1.58579 2.58579 1.25 3 1.25H7C7.41421 1.25 7.75 1.58579 7.75 2C7.75 2.41421 7.41421 2.75 7 2.75H5.75V4H11.25V2.75H10C9.58579 2.75 9.25 2.41421 9.25 2C9.25 1.58579 9.58579 1.25 10 1.25H14C14.4142 1.25 14.75 1.58579 14.75 2C14.75 2.41421 14.4142 2.75 14 2.75H12.75ZM4.25212 15.8382C4.384 15.9461 4.55252 16 4.75766 16C4.99212 16 5.16796 15.9378 5.28518 15.8133C5.40973 15.6805 5.52696 15.4689 5.63686 15.1784L6.08468 13.9834H9.70932L10.1647 15.1784C10.2673 15.4606 10.3845 15.668 10.5164 15.8008C10.6556 15.9336 10.8498 16 11.0989 16C11.2967 16 11.4579 15.9502 11.5824 15.8506C11.707 15.7427 11.7803 15.5975 11.8022 15.4149C11.8316 15.2241 11.7986 15.0166 11.7033 14.7925L8.86792 7.80913C8.75802 7.52697 8.62247 7.32365 8.46129 7.19917C8.3001 7.06639 8.11327 7 7.9008 7C7.68833 7 7.5015 7.06639 7.34031 7.19917C7.17912 7.32365 7.03992 7.52697 6.92269 7.80913L4.10925 14.7925C4.01401 15.0166 3.98104 15.2199 4.01034 15.4025C4.04698 15.5851 4.12757 15.7303 4.25212 15.8382ZM13.0433 15.6266C13.1972 15.8008 13.417 15.888 13.7027 15.888H15.8458C16.5125 15.888 17.1023 15.7925 17.6152 15.6017C18.128 15.4025 18.5603 15.1162 18.912 14.7427C19.2637 14.3693 19.5311 13.9129 19.7143 13.3734C19.9048 12.8257 20 12.1992 20 11.4938C20 10.0913 19.6373 9.01245 18.912 8.25726C18.194 7.49378 17.1719 7.11203 15.8458 7.11203H13.7027C13.417 7.11203 13.1972 7.19917 13.0433 7.37344C12.8895 7.54772 12.8125 7.79668 12.8125 8.12033V14.8797C12.8125 15.2033 12.8895 15.4523 13.0433 15.6266Z" fill="currentColor"/>
</svg>
