<svg viewBox="0 0 24 24" fill="currentColor" xmlns="http://www.w3.org/2000/svg">
<path d="M14.1912 8.75572L14.98 6.75558H14.9964L15.7919 8.75572H14.1912Z" fill="currentColor"/>
<path d="M14.6839 17.6986H13.8943V14.1438H14.6839C15.2541 14.1438 15.6791 14.2893 15.9587 14.5805C16.2383 14.8658 16.3782 15.3112 16.3782 15.9168C16.3782 16.2196 16.3425 16.4816 16.2712 16.7029C16.2054 16.9242 16.1013 17.1076 15.9587 17.2532C15.8216 17.3987 15.6462 17.5094 15.4323 17.5851C15.224 17.6608 14.9745 17.6986 14.6839 17.6986Z" fill="currentColor"/>
<path d="M2.5 2C2.22386 2 2 2.22386 2 2.5V21.5C2 21.7761 2.22386 22 2.5 22H3.5C3.77614 22 4 21.7761 4 21.5V18.75H8V20C8 21.1046 8.89543 22 10 22H20C21.1046 22 22 21.1046 22 20V4C22 2.89543 21.1046 2 20 2H10C8.89543 2 8 2.89543 8 4V5.25H4V2.5C4 2.22386 3.77614 2 3.5 2H2.5ZM8 6.75V17.25H4V6.75H8ZM12.6524 11.3148C12.4824 11.3148 12.3398 11.2741 12.2247 11.1926C12.1095 11.1052 12.0382 10.9888 12.0108 10.8432C11.9834 10.6918 12.0081 10.5229 12.0848 10.3366L14.1328 5.65507C14.2315 5.42798 14.3521 5.26203 14.4947 5.15722C14.6427 5.05241 14.81 5 14.9964 5C15.1828 5 15.3446 5.05241 15.4817 5.15722C15.6242 5.26203 15.7476 5.42798 15.8518 5.65507L17.8997 10.3366C17.9875 10.5229 18.0176 10.6918 17.9902 10.8432C17.9683 10.9946 17.8997 11.111 17.7846 11.1926C17.6749 11.2741 17.5378 11.3148 17.3734 11.3148C17.154 11.3148 16.984 11.2624 16.8634 11.1576C16.7483 11.0528 16.6441 10.884 16.5509 10.651L16.2851 9.98725H13.6995L13.4337 10.651C13.335 10.884 13.2336 11.0528 13.1294 11.1576C13.0252 11.2624 12.8662 11.3148 12.6524 11.3148ZM13.1705 19C12.9128 19 12.7154 18.9301 12.5783 18.7904C12.4467 18.6448 12.3809 18.4381 12.3809 18.1702V13.6721C12.3809 13.4043 12.4467 13.2005 12.5783 13.0607C12.7154 12.9152 12.9128 12.8424 13.1705 12.8424H14.7826C15.7915 12.8424 16.5701 13.1102 17.1184 13.6459C17.6722 14.1816 17.9491 14.9386 17.9491 15.9168C17.9491 16.4059 17.8778 16.8426 17.7352 17.227C17.5927 17.6054 17.3871 17.9286 17.1184 18.1965C16.8497 18.4585 16.518 18.6594 16.1232 18.7991C15.7339 18.933 15.287 19 14.7826 19H13.1705Z" fill="currentColor"/>
</svg>
