<svg viewBox="0 0 24 24" fill="currentColor" xmlns="http://www.w3.org/2000/svg">
<path d="M10.5303 4.53033C10.8232 4.23744 10.8232 3.76256 10.5303 3.46967C10.2374 3.17678 9.76256 3.17678 9.46967 3.46967L3.75 9.18934V5.4C3.75 4.98579 3.41421 4.65 3 4.65C2.58579 4.65 2.25 4.98579 2.25 5.4V11C2.25 11.4142 2.58579 11.75 3 11.75H8.6C9.01421 11.75 9.35 11.4142 9.35 11C9.35 10.5858 9.01421 10.25 8.6 10.25H4.81066L10.5303 4.53033Z" fill="currentColor"/>
<path d="M17 9C17 8.44771 17.4477 8 18 8H20C20.5523 8 21 8.44772 21 9V19C21 19.5523 20.5523 20 20 20H18C17.4477 20 17 19.5523 17 19V9Z" fill="currentColor"/>
<path d="M11 12C10.4477 12 10 12.4477 10 13V19C10 19.5523 10.4477 20 11 20H13C13.5523 20 14 19.5523 14 19V13C14 12.4477 13.5523 12 13 12H11Z" fill="currentColor"/>
<path d="M3 16C3 15.4477 3.44772 15 4 15H6C6.55228 15 7 15.4477 7 16V19C7 19.5523 6.55228 20 6 20H4C3.44772 20 3 19.5523 3 19V16Z" fill="currentColor"/>
<path d="M1.25 22C1.25 21.5858 1.58579 21.25 2 21.25H22C22.4142 21.25 22.75 21.5858 22.75 22C22.75 22.4142 22.4142 22.75 22 22.75H2C1.58579 22.75 1.25 22.4142 1.25 22Z" fill="currentColor"/>
</svg>
