<svg viewBox="0 0 24 24" fill="currentColor" xmlns="http://www.w3.org/2000/svg">
<path d="M11 2C10.4477 2 10 2.44772 10 3V19C10 19.5523 10.4477 20 11 20H13C13.5523 20 14 19.5523 14 19V3C14 2.44772 13.5523 2 13 2H11Z" fill="currentColor"/>
<path d="M4 10C3.44772 10 3 10.4477 3 11V19C3 19.5523 3.44772 20 4 20H6C6.55228 20 7 19.5523 7 19V11C7 10.4477 6.55228 10 6 10H4Z" fill="currentColor"/>
<path d="M17 8C17 7.44772 17.4477 7 18 7H20C20.5523 7 21 7.44772 21 8V19C21 19.5523 20.5523 20 20 20H18C17.4477 20 17 19.5523 17 19V8Z" fill="currentColor"/>
<path d="M2 21.25C1.58579 21.25 1.25 21.5858 1.25 22C1.25 22.4142 1.58579 22.75 2 22.75H22C22.4142 22.75 22.75 22.4142 22.75 22C22.75 21.5858 22.4142 21.25 22 21.25H2Z" fill="currentColor"/>
</svg>
