<svg viewBox="0 0 24 24" fill="currentColor" xmlns="http://www.w3.org/2000/svg">
<path d="M17 3C17 2.44772 17.4477 2 18 2H20C20.5523 2 21 2.44772 21 3V19C21 19.5523 20.5523 20 20 20H18C17.4477 20 17 19.5523 17 19V3Z" fill="currentColor"/>
<path d="M11 8C10.4477 8 10 8.44771 10 9V19C10 19.5523 10.4477 20 11 20H13C13.5523 20 14 19.5523 14 19V9C14 8.44772 13.5523 8 13 8H11Z" fill="currentColor"/>
<path d="M4 13C3.44772 13 3 13.4477 3 14V19C3 19.5523 3.44772 20 4 20H6C6.55228 20 7 19.5523 7 19V14C7 13.4477 6.55228 13 6 13H4Z" fill="currentColor"/>
<path d="M2 21.25C1.58579 21.25 1.25 21.5858 1.25 22C1.25 22.4142 1.58579 22.75 2 22.75H22C22.4142 22.75 22.75 22.4142 22.75 22C22.75 21.5858 22.4142 21.25 22 21.25H2Z" fill="currentColor"/>
</svg>
