<svg viewBox="0 0 24 24" fill="currentColor" xmlns="http://www.w3.org/2000/svg">
<path d="M16.0867 14.6838C15.4602 15.1351 15 15.8184 15 16.5905V17C15 17.5523 14.5523 18 14 18H10C9.44772 18 9 17.5523 9 17V16.5905C9 15.8184 8.53977 15.1351 7.91327 14.6838C6.14878 13.4129 5 11.3406 5 9C5 5.13401 8.13401 2 12 2C15.866 2 19 5.13401 19 9C19 11.3406 17.8512 13.4129 16.0867 14.6838ZM12.75 5C12.75 4.58579 12.4142 4.25 12 4.25C11.5858 4.25 11.25 4.58579 11.25 5V12C11.25 12.4142 11.5858 12.75 12 12.75C12.4142 12.75 12.75 12.4142 12.75 12V5ZM13 15C13 14.4477 12.5523 14 12 14C11.4477 14 11 14.4477 11 15C11 15.5523 11.4477 16 12 16C12.5523 16 13 15.5523 13 15Z" fill="currentColor"/>
<path d="M9.25 19.5C9.25 19.0858 9.58579 18.75 10 18.75H14C14.4142 18.75 14.75 19.0858 14.75 19.5C14.75 19.9142 14.4142 20.25 14 20.25H10C9.58579 20.25 9.25 19.9142 9.25 19.5Z" fill="currentColor"/>
<path d="M10.25 22C10.25 21.5858 10.5858 21.25 11 21.25H13C13.4142 21.25 13.75 21.5858 13.75 22C13.75 22.4142 13.4142 22.75 13 22.75H11C10.5858 22.75 10.25 22.4142 10.25 22Z" fill="currentColor"/>
</svg>
