<svg viewBox="0 0 24 24" fill="currentColor" xmlns="http://www.w3.org/2000/svg">
<path d="M5.25 14C5.25 13.5858 5.58579 13.25 6 13.25H16C16.4142 13.25 16.75 13.5858 16.75 14C16.75 14.4142 16.4142 14.75 16 14.75H6C5.58579 14.75 5.25 14.4142 5.25 14Z" fill="currentColor"/>
<path d="M7.75 10C7.75 9.58579 7.41421 9.25 7 9.25C6.58579 9.25 6.25 9.58579 6.25 10V11.5C6.25 11.9142 6.58579 12.25 7 12.25C7.41421 12.25 7.75 11.9142 7.75 11.5V10Z" fill="currentColor"/>
<path d="M11 5.25C11.4142 5.25 11.75 5.58579 11.75 6V11.5C11.75 11.9142 11.4142 12.25 11 12.25C10.5858 12.25 10.25 11.9142 10.25 11.5V6C10.25 5.58579 10.5858 5.25 11 5.25Z" fill="currentColor"/>
<path d="M15.75 8C15.75 7.58579 15.4142 7.25 15 7.25C14.5858 7.25 14.25 7.58579 14.25 8V11.5C14.25 11.9142 14.5858 12.25 15 12.25C15.4142 12.25 15.75 11.9142 15.75 11.5V8Z" fill="currentColor"/>
<path d="M1.25 11C1.25 5.61522 5.61522 1.25 11 1.25C16.3848 1.25 20.75 5.61522 20.75 11C20.75 13.4221 19.866 15.639 18.4043 17.3436L22.5303 21.4697C22.8232 21.7626 22.8232 22.2374 22.5303 22.5303C22.2374 22.8232 21.7626 22.8232 21.4697 22.5303L17.3436 18.4043C15.639 19.866 13.4221 20.75 11 20.75C5.61522 20.75 1.25 16.3848 1.25 11ZM11 2.75C6.44365 2.75 2.75 6.44365 2.75 11C2.75 15.5563 6.44365 19.25 11 19.25C13.2784 19.25 15.3399 18.3274 16.8336 16.8336C18.3274 15.3399 19.25 13.2784 19.25 11C19.25 6.44365 15.5563 2.75 11 2.75Z" fill="currentColor"/>
</svg>
