<svg viewBox="0 0 24 24" fill="currentColor" xmlns="http://www.w3.org/2000/svg">
<path d="M15.2833 7.25H8.71667L11.0468 2.5892C11.4395 1.8036 12.5605 1.8036 12.9532 2.5892L15.2833 7.25Z" fill="currentColor"/>
<path d="M7.09155 10.5006L7.96675 8.75H16.0331L17.7829 12.25H11.437C10.2961 11.1838 8.77079 10.5238 7.09155 10.5006Z" fill="currentColor"/>
<path d="M11.1536 22H20.9329C21.7251 22 22.2404 21.1662 21.8861 20.4575L21.0325 18.75H13.2617C12.9021 20.0394 12.1549 21.1673 11.1536 22Z" fill="currentColor"/>
<path d="M13.4953 17.25H20.2826L18.5329 13.75H12.6304C13.1835 14.7061 13.5 15.8161 13.5 17C13.5 17.0837 13.4984 17.1671 13.4953 17.25Z" fill="currentColor"/>
<path d="M7 22C9.76142 22 12 19.7614 12 17C12 14.2386 9.76142 12 7 12C4.23858 12 2 14.2386 2 17C2 19.7614 4.23858 22 7 22ZM7.53033 19.5303C7.23744 19.8232 6.76256 19.8232 6.46967 19.5303L3.46967 16.5303C3.17678 16.2374 3.17678 15.7626 3.46967 15.4697C3.76256 15.1768 4.23744 15.1768 4.53033 15.4697L7 17.9393L9.46967 15.4697C9.76256 15.1768 10.2374 15.1768 10.5303 15.4697C10.8232 15.7626 10.8232 16.2374 10.5303 16.5303L7.53033 19.5303Z" fill="currentColor"/>
</svg>
