<svg viewBox="0 0 24 24" fill="currentColor" xmlns="http://www.w3.org/2000/svg">
<path d="M17.8411 14.0303C17.6424 14.2137 17.4008 14.3054 17.1161 14.3054C16.6919 14.3054 16.3616 14.1036 16.1253 13.7001C15.889 13.2893 15.7709 12.7208 15.7709 11.9945C15.7709 11.503 15.8246 11.0885 15.932 10.751C16.0394 10.4062 16.1924 10.1458 16.3911 9.96974C16.5952 9.78634 16.8369 9.69464 17.1161 9.69464C17.5404 9.69464 17.8707 9.89638 18.107 10.2999C18.3433 10.7033 18.4614 11.2682 18.4614 11.9945C18.4614 12.4787 18.4077 12.8932 18.3003 13.238C18.1929 13.5828 18.0398 13.8469 17.8411 14.0303Z" fill="currentColor"/>
<path d="M4 4C2.89543 4 2 4.89543 2 6V18C2 19.1046 2.89543 20 4 20H20C21.1046 20 22 19.1046 22 18V6C22 4.89543 21.1046 4 20 4H4ZM6.27683 16C6.06202 16 5.83646 15.978 5.60017 15.934C5.36924 15.8973 5.14906 15.8386 4.93962 15.7579C4.73017 15.6772 4.54221 15.5818 4.37573 15.4718C4.23073 15.3764 4.1287 15.2517 4.06962 15.0977C4.01055 14.9363 3.98907 14.7675 4.00518 14.5915C4.02129 14.4154 4.06694 14.2613 4.14212 14.1293C4.21731 13.9899 4.31666 13.8982 4.44018 13.8542C4.56369 13.8028 4.70332 13.8249 4.85906 13.9202C5.06313 14.0523 5.29406 14.155 5.55183 14.2283C5.80961 14.3017 6.05128 14.3384 6.27683 14.3384C6.63127 14.3384 6.87831 14.276 7.01793 14.1513C7.16293 14.0193 7.23543 13.8579 7.23543 13.6671C7.23543 13.4984 7.18442 13.3627 7.08238 13.26C6.98571 13.1573 6.81118 13.0692 6.55877 12.9959L5.61628 12.7208C5.10073 12.574 4.71675 12.3173 4.46434 11.9505C4.21194 11.5837 4.08573 11.1105 4.08573 10.5309C4.08573 10.1495 4.14212 9.80468 4.2549 9.49656C4.37305 9.18111 4.53684 8.91334 4.74628 8.69326C4.9611 8.47318 5.2135 8.30445 5.5035 8.18707C5.79887 8.06236 6.12646 8 6.48627 8C6.76553 8 7.04747 8.04402 7.3321 8.13205C7.6221 8.21275 7.87182 8.33746 8.08126 8.50619C8.20478 8.59422 8.29339 8.71527 8.34709 8.86933C8.4008 9.02338 8.42228 9.18478 8.41154 9.35351C8.4008 9.5149 8.35783 9.65796 8.28265 9.78267C8.21283 9.90738 8.11617 9.99175 7.99265 10.0358C7.8745 10.0724 7.73219 10.0431 7.56571 9.94773C7.40997 9.85236 7.23275 9.78267 7.03405 9.73865C6.84071 9.6873 6.65275 9.66162 6.47016 9.66162C6.27146 9.66162 6.10229 9.69464 5.96266 9.76066C5.82304 9.81935 5.71563 9.90738 5.64044 10.0248C5.57063 10.1421 5.53572 10.2779 5.53572 10.4319C5.53572 10.586 5.58137 10.718 5.67267 10.8281C5.76933 10.9308 5.94387 11.0188 6.19627 11.0922L7.13071 11.3673C7.65163 11.5213 8.04098 11.7744 8.29876 12.1265C8.55653 12.4787 8.68542 12.9372 8.68542 13.5021C8.68542 13.8835 8.62903 14.2283 8.51626 14.5365C8.40348 14.8446 8.24237 15.1087 8.03293 15.3287C7.82348 15.5415 7.57108 15.7066 7.27571 15.8239C6.98034 15.9413 6.64738 16 6.27683 16ZM10.1867 15.879C9.9343 15.879 9.74097 15.7909 9.60671 15.6149C9.47782 15.4315 9.41338 15.171 9.41338 14.8336V9.16644C9.41338 8.82898 9.47782 8.57222 9.60671 8.39615C9.74097 8.21275 9.9343 8.12105 10.1867 8.12105H12.9175C13.1108 8.12105 13.2558 8.18707 13.3525 8.31912C13.4492 8.45117 13.4975 8.64191 13.4975 8.89133C13.4975 9.1481 13.4492 9.34617 13.3525 9.48556C13.2558 9.61761 13.1108 9.68363 12.9175 9.68363H10.8311V11.1582H12.7403C12.9283 11.1582 13.0706 11.2242 13.1672 11.3563C13.2693 11.4883 13.3203 11.6827 13.3203 11.9395C13.3203 12.1962 13.2693 12.3906 13.1672 12.5227C13.0706 12.6547 12.9283 12.7208 12.7403 12.7208H10.8311V14.3164H12.9175C13.1108 14.3164 13.2558 14.3861 13.3525 14.5254C13.4492 14.6575 13.4975 14.8482 13.4975 15.0977C13.4975 15.3544 13.4492 15.5488 13.3525 15.6809C13.2558 15.8129 13.1108 15.879 12.9175 15.879H10.1867ZM15.6017 15.5048C15.1667 15.1674 14.8284 14.6978 14.5867 14.0963C14.3504 13.4947 14.2323 12.7941 14.2323 11.9945C14.2323 11.3929 14.2994 10.8464 14.4337 10.3549C14.5733 9.86337 14.7693 9.44154 15.0217 9.08941C15.2795 8.73728 15.5856 8.46951 15.94 8.28611C16.2945 8.09537 16.6865 8 17.1161 8C17.6908 8 18.1929 8.16506 18.6225 8.49519C19.0575 8.82531 19.3958 9.29115 19.6375 9.89271C19.8792 10.4869 20 11.1875 20 11.9945C20 12.5961 19.9302 13.1426 19.7906 13.6341C19.6563 14.1256 19.4603 14.5511 19.2025 14.9106C18.9501 15.2627 18.6467 15.5342 18.2922 15.7249C17.9378 15.9083 17.5458 16 17.1161 16C16.5415 16 16.0367 15.8349 15.6017 15.5048Z" fill="currentColor"/>
</svg>
