<svg viewBox="0 0 24 24" fill="currentColor" xmlns="http://www.w3.org/2000/svg">
<path d="M17.1161 12.5172C17.4008 12.5172 17.6424 12.437 17.8411 12.2765C18.0398 12.116 18.1929 11.8849 18.3003 11.5832C18.4077 11.2815 18.4614 10.9188 18.4614 10.4952C18.4614 9.85971 18.3433 9.36544 18.107 9.01239C17.8707 8.65934 17.5404 8.48282 17.1161 8.48282C16.8369 8.48282 16.5952 8.56305 16.3911 8.72353C16.1924 8.87759 16.0394 9.10547 15.932 9.40716C15.8246 9.70244 15.7709 10.0651 15.7709 10.4952C15.7709 11.1307 15.889 11.6282 16.1253 11.9876C16.3616 12.3407 16.6919 12.5172 17.1161 12.5172Z" fill="currentColor"/>
<path d="M2 5C2 3.89543 2.89543 3 4 3H20C21.1046 3 22 3.89543 22 5V16C22 17.1046 21.1046 18 20 18H12.75V20.25H15C15.4142 20.25 15.75 20.5858 15.75 21C15.75 21.4142 15.4142 21.75 15 21.75H9C8.58579 21.75 8.25 21.4142 8.25 21C8.25 20.5858 8.58579 20.25 9 20.25H11.25V18H4C2.89543 18 2 17.1046 2 16V5ZM5.60017 13.9422C5.83646 13.9807 6.06202 14 6.27683 14C6.64738 14 6.98034 13.9486 7.27571 13.8459C7.57108 13.7432 7.82348 13.5988 8.03293 13.4127C8.24237 13.2201 8.40348 12.989 8.51626 12.7194C8.62903 12.4498 8.68542 12.1481 8.68542 11.8143C8.68542 11.32 8.55653 10.9188 8.29876 10.6107C8.04098 10.3026 7.65163 10.0812 7.13071 9.94635L6.19627 9.70564C5.94387 9.64145 5.76933 9.56442 5.67267 9.47455C5.58137 9.37827 5.53572 9.26272 5.53572 9.12792C5.53572 8.99312 5.57063 8.87437 5.64044 8.77166C5.71563 8.66896 5.82304 8.59193 5.96266 8.54058C6.10229 8.48281 6.27146 8.45392 6.47016 8.45392C6.65275 8.45392 6.84071 8.47639 7.03405 8.52132C7.23275 8.55983 7.40997 8.62082 7.56571 8.70426C7.73219 8.78771 7.8745 8.81339 7.99265 8.78129C8.11617 8.74278 8.21283 8.66896 8.28265 8.55983C8.35783 8.45071 8.4008 8.32554 8.41154 8.18432C8.42228 8.03668 8.4008 7.89546 8.34709 7.76066C8.29339 7.62586 8.20478 7.51994 8.08126 7.44292C7.87182 7.29528 7.6221 7.18615 7.3321 7.11554C7.04747 7.03851 6.76553 7 6.48627 7C6.12646 7 5.79887 7.05456 5.5035 7.16369C5.2135 7.26639 4.9611 7.41403 4.74628 7.6066C4.53684 7.79917 4.37305 8.03347 4.2549 8.30949C4.14212 8.57909 4.08573 8.88079 4.08573 9.21458C4.08573 9.72169 4.21194 10.1357 4.46434 10.4567C4.71675 10.7776 5.10073 11.0023 5.61628 11.1307L6.55877 11.3714C6.81118 11.4356 6.98571 11.5126 7.08238 11.6025C7.18442 11.6923 7.23543 11.8111 7.23543 11.9587C7.23543 12.1256 7.16293 12.2669 7.01793 12.3824C6.87831 12.4915 6.63127 12.5461 6.27683 12.5461C6.05128 12.5461 5.80961 12.514 5.55183 12.4498C5.29406 12.3856 5.06313 12.2957 4.85906 12.1802C4.70332 12.0967 4.56369 12.0775 4.44018 12.1224C4.31666 12.1609 4.21731 12.2412 4.14212 12.3631C4.06694 12.4787 4.02129 12.6135 4.00518 12.7675C3.98907 12.9216 4.01055 13.0692 4.06962 13.2105C4.1287 13.3453 4.23073 13.4544 4.37573 13.5378C4.54221 13.6341 4.73017 13.7176 4.93962 13.7882C5.14906 13.8588 5.36924 13.9101 5.60017 13.9422ZM9.60671 13.663C9.74097 13.8171 9.9343 13.8941 10.1867 13.8941H12.9175C13.1108 13.8941 13.2558 13.8363 13.3525 13.7208C13.4492 13.6052 13.4975 13.4351 13.4975 13.2105C13.4975 12.9922 13.4492 12.8253 13.3525 12.7098C13.2558 12.5878 13.1108 12.5268 12.9175 12.5268H10.8311V11.1307H12.7403C12.9283 11.1307 13.0706 11.0729 13.1672 10.9574C13.2693 10.8418 13.3203 10.6717 13.3203 10.447C13.3203 10.2224 13.2693 10.0523 13.1672 9.93673C13.0706 9.82118 12.9283 9.76341 12.7403 9.76341H10.8311V8.47318H12.9175C13.1108 8.47318 13.2558 8.41541 13.3525 8.29986C13.4492 8.1779 13.4975 8.00459 13.4975 7.77992C13.4975 7.56167 13.4492 7.39477 13.3525 7.27923C13.2558 7.16369 13.1108 7.10591 12.9175 7.10591H10.1867C9.9343 7.10591 9.74097 7.18615 9.60671 7.34663C9.47782 7.50069 9.41338 7.72536 9.41338 8.02063V12.9794C9.41338 13.2746 9.47782 13.5025 9.60671 13.663ZM17.1161 14C17.5458 14 17.9378 13.9198 18.2922 13.7593C18.6467 13.5924 18.9501 13.3549 19.2025 13.0468C19.4603 12.7322 19.6563 12.3599 19.7906 11.9298C19.9302 11.4998 20 11.0215 20 10.4952C20 9.78909 19.8792 9.17607 19.6375 8.65612C19.3958 8.12976 19.0575 7.72215 18.6225 7.43329C18.1929 7.14443 17.6908 7 17.1161 7C16.6865 7 16.2945 7.08345 15.94 7.25034C15.5856 7.41082 15.2795 7.64512 15.0217 7.95323C14.7693 8.26135 14.5733 8.63044 14.4337 9.06052C14.2994 9.4906 14.2323 9.96882 14.2323 10.4952C14.2323 11.1949 14.3504 11.8079 14.5867 12.3343C14.8284 12.8606 15.1667 13.2714 15.6017 13.5667C16.0367 13.8556 16.5415 14 17.1161 14Z" fill="currentColor"/>
</svg>
