<svg viewBox="0 0 24 24" fill="currentColor" xmlns="http://www.w3.org/2000/svg">
<path d="M5 2C3.34315 2 2 3.34315 2 5V19C2 20.6569 3.34315 22 5 22H19C20.6569 22 22 20.6569 22 19V5C22 3.34315 20.6569 2 19 2H5ZM6.75 13V18C6.75 18.4142 6.41421 18.75 6 18.75C5.58579 18.75 5.25 18.4142 5.25 18V13C5.25 12.5858 5.58579 12.25 6 12.25C6.41421 12.25 6.75 12.5858 6.75 13ZM12 5.25C12.4142 5.25 12.75 5.58579 12.75 6V18C12.75 18.4142 12.4142 18.75 12 18.75C11.5858 18.75 11.25 18.4142 11.25 18V6C11.25 5.58579 11.5858 5.25 12 5.25ZM18.75 10V18C18.75 18.4142 18.4142 18.75 18 18.75C17.5858 18.75 17.25 18.4142 17.25 18V10C17.25 9.58579 17.5858 9.25 18 9.25C18.4142 9.25 18.75 9.58579 18.75 10Z" fill="currentColor"/>
</svg>
