<svg viewBox="0 0 24 24" fill="currentColor" xmlns="http://www.w3.org/2000/svg">
<path d="M6 2C4.89543 2 4 2.89543 4 4V20C4 21.1046 4.89543 22 6 22H18C19.1046 22 20 21.1046 20 20V4C20 2.89543 19.1046 2 18 2H6ZM15.5303 4.46967L18.5303 7.46967C18.8232 7.76256 18.8232 8.23744 18.5303 8.53033C18.2374 8.82322 17.7626 8.82322 17.4697 8.53033L15.75 6.81066V10C15.75 11.5188 14.5188 12.75 13 12.75H10C9.30964 12.75 8.75 13.3096 8.75 14V19C8.75 19.4142 8.41421 19.75 8 19.75C7.58579 19.75 7.25 19.4142 7.25 19V14C7.25 12.4812 8.48122 11.25 10 11.25H13C13.6904 11.25 14.25 10.6904 14.25 10V6.81066L12.5303 8.53033C12.2374 8.82322 11.7626 8.82322 11.4697 8.53033C11.1768 8.23744 11.1768 7.76256 11.4697 7.46967L14.4697 4.46967C14.7626 4.17678 15.2374 4.17678 15.5303 4.46967ZM13.5303 14.4697L15 15.9393L16.4697 14.4697C16.7626 14.1768 17.2374 14.1768 17.5303 14.4697C17.8232 14.7626 17.8232 15.2374 17.5303 15.5303L16.0607 17L17.5303 18.4697C17.8232 18.7626 17.8232 19.2374 17.5303 19.5303C17.2374 19.8232 16.7626 19.8232 16.4697 19.5303L15 18.0607L13.5303 19.5303C13.2374 19.8232 12.7626 19.8232 12.4697 19.5303C12.1768 19.2374 12.1768 18.7626 12.4697 18.4697L13.9393 17L12.4697 15.5303C12.1768 15.2374 12.1768 14.7626 12.4697 14.4697C12.7626 14.1768 13.2374 14.1768 13.5303 14.4697ZM7.53033 5.46967L8 5.93934L8.46967 5.46967C8.76256 5.17678 9.23744 5.17678 9.53033 5.46967C9.82322 5.76256 9.82322 6.23744 9.53033 6.53033L9.06066 7L9.53033 7.46967C9.82322 7.76256 9.82322 8.23744 9.53033 8.53033C9.23744 8.82322 8.76256 8.82322 8.46967 8.53033L8 8.06066L7.53033 8.53033C7.23744 8.82322 6.76256 8.82322 6.46967 8.53033C6.17678 8.23744 6.17678 7.76256 6.46967 7.46967L6.93934 7L6.46967 6.53033C6.17678 6.23744 6.17678 5.76256 6.46967 5.46967C6.76256 5.17678 7.23744 5.17678 7.53033 5.46967Z" fill="currentColor"/>
</svg>
