<svg viewBox="0 0 24 24" fill="currentColor" xmlns="http://www.w3.org/2000/svg">
<path d="M2 11.2479C2.36543 6.3194 6.29315 2.38234 11.2176 2.0023V4.18725L10.5 3.46967C10.2071 3.17678 9.73223 3.17678 9.43934 3.46967C9.14645 3.76256 9.14645 4.23744 9.43934 4.53033L11.4393 6.53033C11.7322 6.82322 12.2071 6.82322 12.5 6.53033L14.5 4.53033C14.7929 4.23744 14.7929 3.76256 14.5 3.46967C14.2071 3.17678 13.7322 3.17678 13.4393 3.46967L12.7228 4.18617C12.7419 4.12 12.7521 4.05008 12.7521 3.97778V2C17.6907 2.36618 21.6338 6.30929 22 11.2479H19.8127L20.5303 10.5303C20.8232 10.2374 20.8232 9.76256 20.5303 9.46967C20.2374 9.17678 19.7626 9.17678 19.4697 9.46967L17.4697 11.4697C17.1768 11.7626 17.1768 12.2374 17.4697 12.5303L19.4697 14.5303C19.7626 14.8232 20.2374 14.8232 20.5303 14.5303C20.8232 14.2374 20.8232 13.7626 20.5303 13.4697L19.8127 12.7521H22C21.6338 17.6907 17.6907 21.6338 12.7521 22V20.0222C12.7521 19.9645 12.7456 19.9084 12.7333 19.8544L13.4393 20.5605C13.7322 20.8534 14.2071 20.8534 14.5 20.5605C14.7929 20.2676 14.7929 19.7927 14.5 19.4998L12.5 17.4998C12.2071 17.2069 11.7322 17.2069 11.4393 17.4998L9.43934 19.4998C9.14645 19.7927 9.14645 20.2676 9.43934 20.5605C9.73224 20.8534 10.2071 20.8534 10.5 20.5605L11.2176 19.8429V21.9977C6.29315 21.6177 2.36543 17.6806 2 12.7521H3.97893H4.18725L3.46967 13.4697C3.17678 13.7626 3.17678 14.2374 3.46967 14.5303C3.76256 14.8232 4.23744 14.8232 4.53033 14.5303L6.53033 12.5303C6.82322 12.2374 6.82322 11.7626 6.53033 11.4697L4.53033 9.46967C4.23744 9.17678 3.76256 9.17678 3.46967 9.46967C3.17678 9.76256 3.17678 10.2374 3.46967 10.5303L4.18726 11.2479H2ZM12 11C13.1046 11 14 10.1046 14 9C14 7.89543 13.1046 7 12 7C10.8954 7 10 7.89543 10 9C10 10.1046 10.8954 11 12 11ZM9 12C8.44772 12 8 12.4477 8 13C8 15.2091 9.79086 17 12 17C14.2091 17 16 15.2091 16 13C16 12.4477 15.5523 12 15 12H9Z" fill="currentColor"/>
</svg>
