<svg viewBox="0 0 24 24" fill="currentColor" xmlns="http://www.w3.org/2000/svg">
<path d="M2 5C2 3.89543 2.89543 3 4 3H20C21.1046 3 22 3.89543 22 5V6.25H2V5Z" fill="currentColor"/>
<path d="M2 7.75V19C2 20.1046 2.89543 21 4 21H20C21.1046 21 22 20.1046 22 19V7.75H2ZM11.6012 9.27247C11.7538 8.90918 12.2462 8.90918 12.3988 9.27247L13.5085 11.9146C13.5718 12.0651 13.7075 12.1684 13.8638 12.1848L16.6073 12.4731C16.9845 12.5127 17.1367 13.0029 16.8538 13.2671L14.7961 15.1884C14.6789 15.2978 14.6271 15.4648 14.6604 15.6255L15.2463 18.4458C15.3268 18.8336 14.9285 19.1366 14.601 18.9366L12.2196 17.4818C12.0839 17.399 11.9161 17.399 11.7804 17.4818L9.39899 18.9366C9.07154 19.1366 8.67318 18.8336 8.75373 18.4458L9.33956 15.6255C9.37293 15.4648 9.32108 15.2978 9.20385 15.1884L7.14622 13.2671C6.86329 13.0029 7.01545 12.5127 7.39268 12.4731L10.1362 12.1848C10.2925 12.1684 10.4282 12.0651 10.4915 11.9146L11.6012 9.27247Z" fill="currentColor"/>
</svg>
