<svg viewBox="0 0 24 24" fill="currentColor" xmlns="http://www.w3.org/2000/svg">
<path d="M2 5C2 3.89543 2.89543 3 4 3H20C21.1046 3 22 3.89543 22 5V6.25H2V5Z" fill="currentColor"/>
<path d="M17.8411 15.5227C17.6424 15.6602 17.4008 15.729 17.1161 15.729C16.6919 15.729 16.3616 15.5777 16.1253 15.2751C15.889 14.967 15.7709 14.5406 15.7709 13.9959C15.7709 13.6272 15.8246 13.3164 15.932 13.0633C16.0394 12.8047 16.1924 12.6094 16.3911 12.4773C16.5952 12.3398 16.8369 12.271 17.1161 12.271C17.5404 12.271 17.8707 12.4223 18.107 12.7249C18.3433 13.0275 18.4614 13.4512 18.4614 13.9959C18.4614 14.359 18.4077 14.6699 18.3003 14.9285C18.1929 15.1871 18.0398 15.3851 17.8411 15.5227Z" fill="currentColor"/>
<path d="M2 7.75H22V19C22 20.1046 21.1046 21 20 21H4C2.89543 21 2 20.1046 2 19V7.75ZM6.27683 17C6.64738 17 6.98034 16.956 7.27571 16.868C7.57108 16.7799 7.82348 16.6561 8.03293 16.4966C8.24237 16.3315 8.40348 16.1334 8.51626 15.9023C8.62903 15.6713 8.68542 15.4127 8.68542 15.1265C8.68542 14.7029 8.55653 14.359 8.29876 14.0949C8.04098 13.8308 7.65163 13.641 7.13071 13.5254L6.19627 13.3191C5.94387 13.2641 5.76933 13.1981 5.67267 13.121C5.58137 13.0385 5.53572 12.9395 5.53572 12.8239C5.53572 12.7084 5.57063 12.6066 5.64044 12.5186C5.71563 12.4305 5.82304 12.3645 5.96266 12.3205C6.10229 12.271 6.27146 12.2462 6.47016 12.2462C6.65275 12.2462 6.84071 12.2655 7.03405 12.304C7.23275 12.337 7.40997 12.3893 7.56571 12.4608C7.73219 12.5323 7.8745 12.5543 7.99265 12.5268C8.11617 12.4938 8.21283 12.4305 8.28265 12.337C8.35783 12.2435 8.4008 12.1362 8.41154 12.0151C8.42228 11.8886 8.4008 11.7675 8.34709 11.652C8.29339 11.5365 8.20478 11.4457 8.08126 11.3796C7.87182 11.2531 7.6221 11.1596 7.3321 11.099C7.04747 11.033 6.76553 11 6.48627 11C6.12646 11 5.79887 11.0468 5.5035 11.1403C5.2135 11.2283 4.9611 11.3549 4.74628 11.5199C4.53684 11.685 4.37305 11.8858 4.2549 12.1224C4.14212 12.3535 4.08573 12.6121 4.08573 12.8982C4.08573 13.3329 4.21194 13.6878 4.46434 13.9629C4.71675 14.238 5.10073 14.4305 5.61628 14.5406L6.55877 14.7469C6.81118 14.8019 6.98571 14.868 7.08238 14.945C7.18442 15.022 7.23543 15.1238 7.23543 15.2503C7.23543 15.3934 7.16293 15.5144 7.01793 15.6135C6.87831 15.707 6.63127 15.7538 6.27683 15.7538C6.05128 15.7538 5.80961 15.7263 5.55183 15.6713C5.29406 15.6162 5.06313 15.5392 4.85906 15.4402C4.70332 15.3686 4.56369 15.3521 4.44018 15.3906C4.31666 15.4237 4.21731 15.4924 4.14212 15.597C4.06694 15.696 4.02129 15.8116 4.00518 15.9436C3.98907 16.0757 4.01055 16.2022 4.06962 16.3232C4.1287 16.4388 4.23073 16.5323 4.37573 16.6039C4.54221 16.6864 4.73017 16.7579 4.93962 16.8184C5.14906 16.879 5.36924 16.923 5.60017 16.9505C5.83646 16.9835 6.06202 17 6.27683 17ZM10.1867 16.9092H12.9175C13.1108 16.9092 13.2558 16.8597 13.3525 16.7607C13.4492 16.6616 13.4975 16.5158 13.4975 16.3232C13.4975 16.1362 13.4492 15.9931 13.3525 15.8941C13.2558 15.7895 13.1108 15.7373 12.9175 15.7373H10.8311V14.5406H12.7403C12.9283 14.5406 13.0706 14.4911 13.1672 14.392C13.2693 14.293 13.3203 14.1472 13.3203 13.9546C13.3203 13.762 13.2693 13.6162 13.1672 13.5172C13.0706 13.4182 12.9283 13.3686 12.7403 13.3686H10.8311V12.2627H12.9175C13.1108 12.2627 13.2558 12.2132 13.3525 12.1142C13.4492 12.0096 13.4975 11.8611 13.4975 11.6685C13.4975 11.4814 13.4492 11.3384 13.3525 11.2393C13.2558 11.1403 13.1108 11.0908 12.9175 11.0908H10.1867C9.9343 11.0908 9.74097 11.1596 9.60671 11.2971C9.47782 11.4292 9.41338 11.6217 9.41338 11.8748V16.1252C9.41338 16.3783 9.47782 16.5736 9.60671 16.7111C9.74097 16.8432 9.9343 16.9092 10.1867 16.9092ZM15.6017 16.6286C16.0367 16.8762 16.5415 17 17.1161 17C17.5458 17 17.9378 16.9312 18.2922 16.7937C18.6467 16.6506 18.9501 16.447 19.2025 16.1829C19.4603 15.9133 19.6563 15.5942 19.7906 15.2256C19.9302 14.8569 20 14.447 20 13.9959C20 13.3906 19.8792 12.8652 19.6375 12.4195C19.3958 11.9684 19.0575 11.619 18.6225 11.3714C18.1929 11.1238 17.6908 11 17.1161 11C16.6865 11 16.2945 11.0715 15.94 11.2146C15.5856 11.3521 15.2795 11.553 15.0217 11.8171C14.7693 12.0812 14.5733 12.3975 14.4337 12.7662C14.2994 13.1348 14.2323 13.5447 14.2323 13.9959C14.2323 14.5956 14.3504 15.121 14.5867 15.5722C14.8284 16.0234 15.1667 16.3755 15.6017 16.6286Z" fill="currentColor"/>
</svg>
