<?xml version="1.0" encoding="utf-8"?>
<!-- Generator: Adobe Illustrator 22.0.0, SVG Export Plug-In . SVG Version: 6.00 Build 0)  -->
<svg version="1.1" id="lni_lni-table" xmlns="http://www.w3.org/2000/svg" xmlns:xlink="http://www.w3.org/1999/xlink" x="0px"
	 y="0px" viewBox="0 0 64 64" style="enable-background:new 0 0 64 64;" xml:space="preserve">
<path d="M56,1.8H8C4.6,1.8,1.8,4.6,1.8,8v48c0,3.4,2.8,6.3,6.3,6.3h48c3.4,0,6.3-2.8,6.3-6.3V8C62.3,4.6,59.4,1.8,56,1.8z
	 M23.8,37.5V22.8h16.4v14.6H23.8z M40.2,42v15.8H23.8V42H40.2z M6.3,22.8h13.1v14.6H6.3V22.8z M44.7,22.8h13.1v14.6H44.7V22.8z
	 M8,6.3h48c1,0,1.8,0.8,1.8,1.8v10.3H6.3V8C6.3,7,7,6.3,8,6.3z M6.3,56V42h13.1v15.8H8C7,57.8,6.3,57,6.3,56z M56,57.8H44.7V42h13.1
	v14C57.8,57,57,57.8,56,57.8z"/>
</svg>
