<?xml version="1.0" encoding="utf-8"?>
<!-- Generator: Adobe Illustrator 22.0.0, SVG Export Plug-In . SVG Version: 6.00 Build 0)  -->
<svg version="1.1" id="lni_lni-music-note" xmlns="http://www.w3.org/2000/svg" xmlns:xlink="http://www.w3.org/1999/xlink" x="0px"
	 y="0px" viewBox="0 0 64 64" style="enable-background:new 0 0 64 64;" xml:space="preserve">
<path d="M55.6,1.8H39.8c-4.3,0-7.8,3.3-7.8,7.4v33.6c-2.7-2-6.5-3.2-10.7-3.2c-8.5,0-15.2,5-15.2,11.3s6.7,11.3,15.2,11.3
	s15.2-5,15.2-11.3V9.1c0-1.6,1.5-2.9,3.3-2.9h15.7c1.2,0,2.3-1,2.3-2.3S56.8,1.8,55.6,1.8z M21.4,57.8c-5.8,0-10.7-3.1-10.7-6.8
	s4.9-6.8,10.7-6.8c5.8,0,10.7,3.1,10.7,6.8S27.1,57.8,21.4,57.8z"/>
</svg>
