<svg viewBox="0 0 24 24" fill="currentColor" xmlns="http://www.w3.org/2000/svg">
<path d="M15.75 5C15.75 6.81422 14.4617 8.32753 12.75 8.67499V11.25H15C15.4142 11.25 15.75 11.5858 15.75 12C15.75 12.4142 15.4142 12.75 15 12.75H12.75V17C12.75 19.3472 14.6528 21.25 17 21.25C19.3269 21.25 21.217 19.38 21.2496 17.0608L19.9685 18.0857C19.6451 18.3444 19.1731 18.292 18.9143 17.9685C18.6556 17.6451 18.708 17.1731 19.0315 16.9143L21.5315 14.9143C21.7566 14.7342 22.065 14.6991 22.3249 14.824C22.5847 14.9489 22.75 15.2117 22.75 15.5V17C22.75 20.1756 20.1756 22.75 17 22.75C14.8579 22.75 12.9893 21.5786 12 19.8415C11.0107 21.5786 9.14213 22.75 7 22.75C3.82436 22.75 1.25 20.1756 1.25 17V15.5C1.25 15.2117 1.41526 14.9489 1.67511 14.824C1.93496 14.6991 2.24339 14.7342 2.46852 14.9143L4.96852 16.9143C5.29197 17.1731 5.34441 17.6451 5.08565 17.9685C4.82689 18.292 4.35493 18.3444 4.03148 18.0857L2.75043 17.0608C2.78295 19.38 4.67309 21.25 7 21.25C9.34721 21.25 11.25 19.3472 11.25 17V12.75H9C8.58579 12.75 8.25 12.4142 8.25 12C8.25 11.5858 8.58579 11.25 9 11.25H11.25V8.67499C9.53832 8.32753 8.25 6.81422 8.25 5C8.25 2.92893 9.92893 1.25 12 1.25C14.0711 1.25 15.75 2.92893 15.75 5ZM9.75 5C9.75 6.24264 10.7574 7.25 12 7.25C13.2426 7.25 14.25 6.24264 14.25 5C14.25 3.75736 13.2426 2.75 12 2.75C10.7574 2.75 9.75 3.75736 9.75 5Z" fill="currentColor"/>
</svg>
