<svg viewBox="0 0 24 24" fill="currentColor" xmlns="http://www.w3.org/2000/svg">
<path d="M4 4V20C4 21.1046 4.89543 22 6 22H18C19.1046 22 20 21.1046 20 20V4C20 2.89543 19.1046 2 18 2H6C4.89543 2 4 2.89543 4 4ZM7.25 15C7.25 14.5858 7.58579 14.25 8 14.25H16C16.4142 14.25 16.75 14.5858 16.75 15C16.75 15.4142 16.4142 15.75 16 15.75H8C7.58579 15.75 7.25 15.4142 7.25 15ZM9.25 18C9.25 17.5858 9.58579 17.25 10 17.25H14C14.4142 17.25 14.75 17.5858 14.75 18C14.75 18.4142 14.4142 18.75 14 18.75H10C9.58579 18.75 9.25 18.4142 9.25 18ZM11.5843 4.15279C11.8275 3.94909 12.173 3.94907 12.4162 4.15274C12.7824 4.45945 12.9833 4.93341 12.9549 5.42353L12.907 6.25275L13.0002 6.31704L15.6438 8.16214C15.8664 8.31749 16 8.57904 16 8.85912V8.91264C16 9.16312 16 9.28835 15.9218 9.35122C15.8436 9.41408 15.7281 9.38182 15.4969 9.3173L13.0001 8.62038L12.773 8.56233L12.6891 10.0112L12.7779 10.0713C12.7834 10.075 12.7876 10.0778 12.791 10.0802C12.7944 10.0825 12.7971 10.0844 12.7998 10.0864C12.8053 10.0903 12.8105 10.0944 12.8208 10.1024C12.9503 10.2033 13.6403 10.7414 13.7161 10.8208C13.7988 10.9074 13.7998 11.1275 13.7998 11.198V11.4C13.7998 11.6828 13.7998 11.8243 13.712 11.9121C13.6241 12 13.4827 12 13.1998 12H10.7999C10.517 12 10.3756 12 10.2877 11.9121C10.1999 11.8243 10.1999 11.6828 10.1999 11.4V11.1332C10.1999 11.1332 10.1999 10.8411 10.2836 10.7534C10.364 10.6693 11.1336 10.1324 11.1959 10.089L11.2028 10.0843L11.2044 10.0832L11.3107 10.0113L11.2269 8.56242L11 8.6205L8.50303 9.31768C8.27188 9.38222 8.15631 9.41449 8.07816 9.35164C8.00002 9.28879 8.00001 9.16356 8 8.91311V8.85961C7.99999 8.57952 8.13369 8.31796 8.35628 8.16258L11.0001 6.31716L11.0933 6.25286L11.0454 5.42365C11.0171 4.93353 11.218 4.45955 11.5843 4.15279Z" fill="currentColor"/>
</svg>
