<svg viewBox="0 0 24 24" fill="currentColor" xmlns="http://www.w3.org/2000/svg">
<path d="M7 2C5.34315 2 4 3.34315 4 5V13C3.44772 13 3 13.4477 3 14V19C3 19.5523 3.44772 20 4 20V21C4 21.5523 4.44772 22 5 22H6C6.55228 22 7 21.5523 7 21V20H17V21C17 21.5523 17.4477 22 18 22H19C19.5523 22 20 21.5523 20 21V20C20.5523 20 21 19.5523 21 19V14C21 13.4477 20.5523 13 20 13V5C20 3.34315 18.6569 2 17 2H7ZM6 7C6 6.44772 6.44772 6 7 6H11.25V12H6V7ZM12.75 12V6H17C17.5523 6 18 6.44772 18 7V12H12.75ZM8 4C8 4.55228 7.55228 5 7 5C6.44772 5 6 4.55228 6 4C6 3.44772 6.44772 3 7 3C7.55228 3 8 3.44772 8 4ZM17 5C16.4477 5 16 4.55228 16 4C16 3.44772 16.4477 3 17 3C17.5523 3 18 3.44772 18 4C18 4.55228 17.5523 5 17 5ZM9 4C9 3.44772 9.44772 3 10 3H14C14.5523 3 15 3.44772 15 4C15 4.55228 14.5523 5 14 5H10C9.44772 5 9 4.55228 9 4ZM5.5 18C4.67157 18 4 17.3284 4 16.5C4 15.6716 4.67157 15 5.5 15C6.32843 15 7 15.6716 7 16.5C7 17.3284 6.32843 18 5.5 18ZM20 16.5C20 17.3284 19.3284 18 18.5 18C17.6716 18 17 17.3284 17 16.5C17 15.6716 17.6716 15 18.5 15C19.3284 15 20 15.6716 20 16.5ZM9 15.75H15C15.4142 15.75 15.75 16.0858 15.75 16.5C15.75 16.9142 15.4142 17.25 15 17.25H9C8.58579 17.25 8.25 16.9142 8.25 16.5C8.25 16.0858 8.58579 15.75 9 15.75Z" fill="currentColor"/>
</svg>
