<svg viewBox="0 0 24 24" fill="currentColor" xmlns="http://www.w3.org/2000/svg">
<path d="M21 19L20.9846 12.825L20.9064 12.3853L22.3354 11.6708C22.7059 11.4856 22.8561 11.0351 22.6708 10.6646C22.4856 10.2941 22.0351 10.1439 21.6646 10.3292L20.6326 10.8452L19.6779 5.4749C19.4233 4.04306 18.1785 3 16.7242 3H7.27585C5.82156 3 4.57671 4.04306 4.32216 5.4749L3.36744 10.8452L2.33545 10.3292C1.96497 10.1439 1.51446 10.2941 1.32922 10.6646C1.14398 11.0351 1.29415 11.4856 1.66463 11.6708L3.09364 12.3853L3.01548 12.825L3.00004 19C3.00004 19.5523 3.44776 20 4.00004 20L4.00003 21C4.00003 21.5523 4.44775 22 5.00003 22H7.00003C7.55231 22 8.00003 21.5523 8.00003 21V20H9.00003V18C9.00003 17.4477 9.44775 17 10 17H14C14.5523 17 15 17.4477 15 18V20H16V21C16 21.5523 16.4477 22 17 22H19C19.5523 22 20 21.5523 20 21V20C20.5523 20 21 19.5523 21 19ZM6.29128 5.82497C6.37613 5.34769 6.79108 5 7.27585 5H16.7242C17.209 5 17.6239 5.34769 17.7088 5.82497L18.8066 12H5.1935L6.29128 5.82497ZM5.00003 14.25H8.00003C8.41425 14.25 8.75003 14.5858 8.75003 15C8.75003 15.4142 8.41425 15.75 8.00003 15.75H5.00003C4.58582 15.75 4.25003 15.4142 4.25003 15C4.25003 14.5858 4.58582 14.25 5.00003 14.25ZM15.25 15C15.25 14.5858 15.5858 14.25 16 14.25H19C19.4142 14.25 19.75 14.5858 19.75 15C19.75 15.4142 19.4142 15.75 19 15.75H16C15.5858 15.75 15.25 15.4142 15.25 15Z" fill="currentColor"/>
</svg>
