<svg viewBox="0 0 24 24" fill="currentColor" xmlns="http://www.w3.org/2000/svg">
<path d="M4.30762 16.3468C4.30762 16.2573 4.3119 16.1688 4.32028 16.0815C4.44892 14.7409 5.54214 13.6938 6.87172 13.6938C8.2013 13.6938 9.29451 14.7409 9.42316 16.0815C9.43153 16.1688 9.43582 16.2573 9.43582 16.3468C9.43582 17.8121 8.28783 18.9999 6.87172 18.9999C5.4556 18.9999 4.30762 17.8121 4.30762 16.3468ZM14.564 16.3468C14.564 16.2573 14.5683 16.1688 14.5767 16.0815C14.7053 14.7409 15.7986 13.6938 17.1281 13.6938C18.4577 13.6938 19.5509 14.7409 19.6796 16.0815C19.6879 16.1688 19.6922 16.2573 19.6922 16.3468C19.6922 17.8121 18.5442 18.9999 17.1281 18.9999C15.712 18.9999 14.564 17.8121 14.564 16.3468Z" fill="currentColor"/>
<path d="M7.57881 10.2449H3.79487C2.80359 10.2449 2 11.0764 2 12.102V14.2245C2 14.8883 2.3366 15.4708 2.84284 15.7991C3.10179 13.8024 4.76917 12.1939 6.87172 12.1939C9.02291 12.1939 10.7186 13.8777 10.9163 15.9384C10.9209 15.9859 10.9246 16.0337 10.9276 16.0816H13.0722C13.0752 16.0337 13.079 15.9859 13.0835 15.9383C13.2813 13.8777 14.9769 12.1939 17.1281 12.1939C19.2307 12.1939 20.8981 13.8025 21.157 15.7992C21.6633 15.4709 22 14.8884 22 14.2245V11.0408C22 10.8297 21.919 10.6273 21.7747 10.478L17.9725 6.54394C17.6359 6.19566 17.1794 6 16.7034 6H12.4248C11.9488 6 11.4923 6.19566 11.1557 6.54394L7.57881 10.2449ZM12.4268 7.6278C12.4737 7.57929 12.5372 7.55204 12.6036 7.55204H16.7751C16.8414 7.55204 16.905 7.57929 16.9519 7.6278L18.5251 9.25561C18.8401 9.58152 18.617 10.1388 18.1716 10.1388H11.2071C10.7617 10.1388 10.5386 9.58152 10.8536 9.25561L12.4268 7.6278Z" fill="currentColor"/>
</svg>
