<svg viewBox="0 0 24 24" fill="currentColor" xmlns="http://www.w3.org/2000/svg">
<path d="M13 17C13 18.1046 12.1046 19 11 19C9.89543 19 9 18.1046 9 17C9 15.8954 9.89543 15 11 15C12.1046 15 13 15.8954 13 17Z" fill="currentColor"/>
<path d="M2 9C2 6.79086 3.79086 5 6 5H17C18.1046 5 19 5.89543 19 7V15H21C21.5523 15 22 15.4477 22 16C22 16.5523 21.5523 17 21 17H14.5C14.5 15.067 12.933 13.5 11 13.5C9.067 13.5 7.5 15.067 7.5 17H4C2.89543 17 2 16.1046 2 15V9ZM6 7C4.89543 7 4 7.89543 4 9V11C4 11.5523 4.44772 12 5 12H11C11.5523 12 12 11.5523 12 11V8C12 7.44772 11.5523 7 11 7H6ZM14 8V11C14 11.5523 14.4477 12 15 12H16C16.5523 12 17 11.5523 17 11V8C17 7.44772 16.5523 7 16 7H15C14.4477 7 14 7.44772 14 8Z" fill="currentColor"/>
</svg>
