<svg viewBox="0 0 24 24" fill="currentColor" xmlns="http://www.w3.org/2000/svg">
<path d="M2 4.97501C2 3.33196 3.34315 2 5 2H19C20.6569 2 22 3.33196 22 4.97501V15C22 16.6431 20.6569 17.975 19 17.975H6L3.78087 20.6259C3.19036 21.3578 2 20.9438 2 20.0064V4.97501ZM12.75 6C12.75 5.58579 12.4142 5.25 12 5.25C11.5858 5.25 11.25 5.58579 11.25 6V9.25H8C7.58579 9.25 7.25 9.58579 7.25 10C7.25 10.4142 7.58579 10.75 8 10.75H11.25V14C11.25 14.4142 11.5858 14.75 12 14.75C12.4142 14.75 12.75 14.4142 12.75 14V10.75H16C16.4142 10.75 16.75 10.4142 16.75 10C16.75 9.58579 16.4142 9.25 16 9.25H12.75V6Z" fill="currentColor"/>
</svg>
