<svg viewBox="0 0 24 24" fill="currentColor" xmlns="http://www.w3.org/2000/svg">
<path d="M22 4.23126C22 2.99897 20.9926 2 19.75 2H9.25C8.00736 2 7 2.99897 7 4.23126V6.5H14.75C16.784 6.5 18.5 8.1164 18.5 10.1921V13.1563H19L20.6643 15.2194C21.1072 15.7684 22 15.4578 22 14.7548V4.23126Z" fill="currentColor"/>
<path d="M2 10.1921C2 8.98144 3.00736 8 4.25 8H14.75C15.9926 8 17 8.98144 17 10.1921V17.5789C17 18.7896 15.9926 19.7711 14.75 19.7711H5L3.33565 21.7243C2.89277 22.2637 2 21.9586 2 21.2679V10.1921ZM5 11.75C4.58579 11.75 4.25 12.0858 4.25 12.5C4.25 12.9142 4.58579 13.25 5 13.25H13C13.4142 13.25 13.75 12.9142 13.75 12.5C13.75 12.0858 13.4142 11.75 13 11.75H5ZM5 14.75C4.58579 14.75 4.25 15.0858 4.25 15.5C4.25 15.9142 4.58579 16.25 5 16.25H10C10.4142 16.25 10.75 15.9142 10.75 15.5C10.75 15.0858 10.4142 14.75 10 14.75H5Z" fill="currentColor"/>
</svg>
