<svg viewBox="0 0 24 24" fill="currentColor" xmlns="http://www.w3.org/2000/svg">
<path d="M2.22672 6.07422C2.0819 6.35103 2 6.66596 2 7.00002V17C2 17.2525 2.0468 17.4941 2.13221 17.7166L8.51869 10.4786L2.22672 6.07422Z" fill="currentColor"/>
<path d="M4.00002 19C3.70083 19 3.41697 18.9343 3.16211 18.8165L9.75534 11.3442L10.423 11.8116C11.3699 12.4744 12.6301 12.4744 13.577 11.8116L14.2447 11.3442L20.8379 18.8165C20.583 18.9343 20.2992 19 20 19H4.00002Z" fill="currentColor"/>
<path d="M21.8678 17.7166C21.9532 17.4941 22 17.2525 22 17V7.00002C22 6.66596 21.9181 6.35103 21.7733 6.07422L15.4813 10.4786L21.8678 17.7166Z" fill="currentColor"/>
<path d="M20.5731 5.08333C20.3916 5.02912 20.1992 5 20 5H4C3.80082 5 3.60844 5.02912 3.42688 5.08333L11.2832 10.5827C11.7136 10.884 12.2864 10.884 12.7168 10.5827L20.5731 5.08333Z" fill="currentColor"/>
</svg>
