<svg viewBox="0 0 24 24" fill="currentColor" xmlns="http://www.w3.org/2000/svg">
<path d="M22 6C22 7.65685 20.6569 9 19 9C17.3431 9 16 7.65685 16 6C16 4.34315 17.3431 3 19 3C20.6569 3 22 4.34315 22 6Z" fill="currentColor"/>
<path d="M14.6115 5H4C3.80082 5 3.60844 5.02912 3.42688 5.08333L11.2832 10.5827C11.7136 10.884 12.2864 10.884 12.7168 10.5827L15.402 8.7031C14.8357 7.95048 14.5 7.01444 14.5 6C14.5 5.65631 14.5385 5.32161 14.6115 5Z" fill="currentColor"/>
<path d="M16.517 9.75359L13.577 11.8116C12.6301 12.4744 11.3699 12.4744 10.423 11.8116L2.22672 6.07422C2.0819 6.35103 2 6.66596 2 7.00002V17C2 18.1046 2.89543 19 4 19H20C21.1046 19 22 18.1046 22 17V9.35418C21.2039 10.0667 20.1525 10.5 19 10.5C18.0823 10.5 17.2287 10.2253 16.517 9.75359Z" fill="currentColor"/>
</svg>
