<svg viewBox="0 0 24 24" fill="currentColor" xmlns="http://www.w3.org/2000/svg">
<path d="M13.2121 5C13.6132 5 13.9383 5.32959 13.9383 5.73615V5.98153H21.1559C21.6071 5.98153 21.9729 6.31112 21.9729 6.71768C21.9729 7.12425 21.6071 7.45383 21.1559 7.45383H4.81439C4.36313 7.45383 3.99731 7.12425 3.99731 6.71768C3.99731 6.31112 4.36313 5.98153 4.81439 5.98153H12.4858V5.73615C12.4858 5.32959 12.8109 5 13.2121 5Z" fill="currentColor"/>
<path d="M2.48128 9.9077L2.15354 8.90512C2.06845 8.64481 2.2086 8.3645 2.46788 8.27636L3.02755 8.08613C3.26559 8.00522 3.5267 8.11366 3.63739 8.3394L4.20712 9.50133C4.64858 9.64812 5.00988 9.97582 5.20682 10.3986H11.1443L12.2941 9.2261C12.4821 9.03433 12.7394 8.92627 13.008 8.92627H13.491C13.8285 8.92627 14.1432 9.09655 14.328 9.37907L14.9945 10.3986C17.4009 10.3986 20.481 12.4598 21.2511 14.8155C21.4115 15.4699 21.1548 16.7786 18.8447 16.7786H18.75V18.5018H18.8448C19.7394 18.5018 20.4883 17.9763 20.7154 17.7445C21.0053 17.4486 21.4801 17.4437 21.776 17.7336C22.0719 18.0235 22.0768 18.4983 21.7869 18.7942C21.3723 19.2173 20.2603 20.0018 18.8448 20.0018H10.6631C10.2489 20.0018 9.91309 19.666 9.91309 19.2518C9.91309 18.8376 10.2489 18.5018 10.6631 18.5018H14.25V16.7786H13.0694C12.1068 16.7786 10.1817 16.386 10.1817 14.8155L9.86181 13.8368C9.76065 13.5274 9.51517 13.2865 9.20384 13.1913L5.16451 11.9556C4.95681 12.3442 4.60622 12.6419 4.18472 12.7754L3.96255 13.6816C3.94062 13.7711 3.86042 13.834 3.76831 13.834H3.16265C3.05219 13.834 2.96265 13.7444 2.96265 13.634V12.6872C2.3935 12.4115 2 11.82 2 11.1348C2 10.6541 2.19363 10.2195 2.50569 9.9077H2.48128ZM15.75 16.7786V18.5018H17.25V16.7786H15.75ZM18.7282 13.886C17.5023 12.5772 16.0866 11.9009 14.9633 11.5946C14.2922 11.4117 13.8052 12.0725 14.0452 12.7253L14.7535 14.6514C14.8982 15.0448 15.2729 15.3063 15.6921 15.3063H18.0213C18.8028 15.3063 19.2624 14.4564 18.7282 13.886Z" fill="currentColor"/>
</svg>
