<svg viewBox="0 0 24 24" fill="currentColor" xmlns="http://www.w3.org/2000/svg">
<path d="M11.25 3H6.54329C4.95196 3 3.61953 4.16789 3.46119 5.70149L2.65496 11.6832C2.61453 11.9832 2.8478 12.25 3.15048 12.25H6.83758C7.86891 12.25 8.54942 13.0496 8.74794 13.8048C9.11752 15.2109 10.4344 16.25 12 16.25C13.5656 16.25 14.8825 15.2109 15.2521 13.8048C15.4506 13.0496 16.1311 12.25 17.1624 12.25H20.8496C21.1522 12.25 21.3855 11.9832 21.3451 11.6832L20.5388 5.70149C20.3805 4.16788 19.0481 3 17.4567 3H12.75V8.18934L14.4697 6.46967C14.7626 6.17678 15.2374 6.17678 15.5303 6.46967C15.8232 6.76256 15.8232 7.23744 15.5303 7.53033L12.5303 10.5303C12.2374 10.8232 11.7626 10.8232 11.4697 10.5303L8.4697 7.53033C8.17681 7.23744 8.17681 6.76256 8.4697 6.46967C8.76259 6.17678 9.23747 6.17678 9.53036 6.46967L11.25 8.18934V3Z" fill="currentColor"/>
<path d="M21.1253 13.75C21.3816 13.75 21.5963 13.9437 21.6227 14.1986L21.9843 17.7015C22.1667 19.4675 20.7348 21 18.9022 21H5.09777C3.26524 21 1.83333 19.4675 2.01567 17.7015L2.37734 14.1986C2.40366 13.9437 2.61843 13.75 2.87469 13.75H6.83755C6.89921 13.75 6.97208 13.7724 7.05216 13.8443C7.13648 13.92 7.21094 14.0376 7.24705 14.1749C7.78712 16.2296 9.70926 17.75 12 17.75C14.2907 17.75 16.2129 16.2296 16.753 14.1749C16.7891 14.0376 16.8635 13.92 16.9478 13.8443C17.0279 13.7724 17.1008 13.75 17.1624 13.75H21.1253Z" fill="currentColor"/>
</svg>
