<svg viewBox="0 0 24 24" fill="currentColor" xmlns="http://www.w3.org/2000/svg">
<path d="M10.2496 11.3098C9.64858 11.9108 9.57345 12.8386 10.0242 13.5213C10.0886 13.6188 10.1637 13.7114 10.2496 13.7972C10.9365 14.4841 12.0501 14.4841 12.737 13.7972L13.9808 12.5535C14.6676 11.8666 14.6676 10.7529 13.9808 10.0661C13.2939 9.37917 12.1802 9.37917 11.4933 10.0661L10.2496 11.3098Z" fill="currentColor"/>
<path d="M7.16074 4.30119L5.25437 2.39482C4.72794 1.86839 3.87443 1.86839 3.348 2.39482L2.39482 3.348C1.86839 3.87443 1.86839 4.72794 2.39482 5.25437L4.30119 7.16074C4.7895 7.64904 5.55923 7.6844 6.0883 7.26681L8.32484 9.50335L6.66386 11.1643C5.93203 11.8962 5.3732 12.7853 5.11024 13.7863C4.65024 15.5374 4.10191 18.2904 4.92916 19.1177C5.7564 19.9449 8.50945 19.3966 10.2605 18.9366C11.2615 18.6736 12.1506 18.1148 12.8825 17.383L14.5435 15.722L16.7332 17.9117C16.3156 18.4408 16.351 19.2105 16.8393 19.6988L18.7456 21.6052C19.2721 22.1316 20.1256 22.1316 20.652 21.6052L21.6052 20.652C22.1316 20.1256 22.1316 19.2721 21.6052 18.7456L19.6988 16.8393C19.2105 16.351 18.4408 16.3156 17.9117 16.7332L15.722 14.5435L17.5665 12.6989C18.2983 11.9671 18.8571 11.078 19.1201 10.077C19.5801 8.32592 20.1284 5.57287 19.3012 4.74563C18.4739 3.91838 15.7209 4.46671 13.9699 4.92671C12.9689 5.18967 12.0797 5.74849 11.3479 6.48033L9.50335 8.32484L7.26681 6.0883C7.6844 5.55923 7.64904 4.7895 7.16074 4.30119ZM9.07107 10.1313L10.3148 8.88754C11.6526 7.54978 13.8215 7.54978 15.1593 8.88754C16.497 10.2253 16.497 12.3943 15.1593 13.732L13.9155 14.9757C12.5778 16.3135 10.4088 16.3135 9.07107 14.9757C7.73331 13.638 7.73331 11.469 9.07107 10.1313Z" fill="currentColor"/>
</svg>
