<svg viewBox="0 0 24 24" fill="currentColor" xmlns="http://www.w3.org/2000/svg">
<path fill-rule="evenodd" clip-rule="evenodd" d="M6.24323 14.7026C6.24323 14.2548 6.60625 13.8918 7.05404 13.8918H9.21621C9.664 13.8918 10.027 14.2548 10.027 14.7026C10.027 15.1504 9.664 15.5134 9.21621 15.5134H7.05404C6.60625 15.5134 6.24323 15.1504 6.24323 14.7026Z" fill="currentColor"/>
<path d="M5.97297 6.32432C4.33105 6.32432 3 7.65537 3 9.2973V16.8649C3 17.9097 3.84703 18.7568 4.89189 18.7568H8.94595H11.3784V21.1892C11.3784 21.637 11.7414 22 12.1892 22C12.637 22 13 21.637 13 21.1892V18.7568H20.027C21.0719 18.7568 21.9189 17.9097 21.9189 16.8649V9.2973C21.9189 7.65537 20.5879 6.32432 18.9459 6.32432H16.5135V4.97297C16.5135 4.57431 16.6108 4.32922 16.7152 4.17273C16.8229 4.01116 16.9723 3.89333 17.1464 3.80629C17.3236 3.71766 17.5107 3.66931 17.6603 3.64437C17.7332 3.63223 17.7922 3.62647 17.8297 3.62378C17.8484 3.62245 17.8613 3.62191 17.8676 3.6217L17.8701 3.62162H20.027C20.4748 3.62162 20.8378 3.25861 20.8378 2.81081C20.8378 2.36301 20.4748 2 20.027 2H17.8632L17.8613 2.00001L17.8569 2.00003L17.8456 2.00017L17.8136 2.00098C17.7882 2.00182 17.7547 2.00339 17.7142 2.00628C17.6335 2.01205 17.5236 2.02318 17.3937 2.04482C17.1379 2.08745 16.7845 2.17423 16.4212 2.35587C16.0547 2.5391 15.6636 2.82667 15.3659 3.27322C15.0648 3.72483 14.8919 4.29055 14.8919 4.97297V6.32432H5.97297ZM10.2973 7.94595C11.0436 7.94595 11.6486 8.55097 11.6486 9.2973V16.8649C11.6486 17.0141 11.5276 17.1351 11.3784 17.1351H4.89189C4.74263 17.1351 4.62162 17.0141 4.62162 16.8649V9.2973C4.62162 8.55097 5.22664 7.94595 5.97297 7.94595H10.2973Z" fill="currentColor"/>
<path d="M7.05404 13.8918C6.60625 13.8918 6.24323 14.2548 6.24323 14.7026C6.24323 15.1504 6.60625 15.5134 7.05404 15.5134H9.21621C9.664 15.5134 10.027 15.1504 10.027 14.7026C10.027 14.2548 9.664 13.8918 9.21621 13.8918H7.05404Z" fill="currentColor"/>
</svg>
