<svg viewBox="0 0 24 24" fill="currentColor" xmlns="http://www.w3.org/2000/svg">
<path d="M2.22672 5.07422C2.0819 5.35103 2 5.66596 2 6.00002V16C2 17.1046 2.89543 18 4 18H12C12 14.6863 14.6863 12 18 12C19.5367 12 20.9385 12.5777 22 13.5278V6.00002C22 5.66596 21.9181 5.35103 21.7733 5.07422L13.577 10.8116C12.6301 11.4744 11.3699 11.4744 10.423 10.8116L2.22672 5.07422Z" fill="currentColor"/>
<path d="M20.5731 4.08333C20.3916 4.02912 20.1992 4 20 4H4C3.80082 4 3.60844 4.02912 3.42688 4.08333L11.2832 9.58273C11.7136 9.88401 12.2864 9.88401 12.7168 9.58273L20.5731 4.08333Z" fill="currentColor"/>
<path d="M14.25 17.5C14.25 15.7051 15.7051 14.25 17.5 14.25C19.2949 14.25 20.75 15.7051 20.75 17.5C20.75 18.1257 20.5732 18.7102 20.2667 19.2061L21.5303 20.4697C21.8232 20.7626 21.8232 21.2374 21.5303 21.5303C21.2374 21.8232 20.7626 21.8232 20.4697 21.5303L19.2061 20.2667C18.7102 20.5732 18.1257 20.75 17.5 20.75C15.7051 20.75 14.25 19.2949 14.25 17.5ZM17.5 15.75C16.5335 15.75 15.75 16.5335 15.75 17.5C15.75 18.4665 16.5335 19.25 17.5 19.25C18.4665 19.25 19.25 18.4665 19.25 17.5C19.25 16.5335 18.4665 15.75 17.5 15.75Z" fill="currentColor"/>
</svg>
