<svg viewBox="0 0 24 24" fill="currentColor" xmlns="http://www.w3.org/2000/svg">
<path d="M20 4C20.1992 4 20.3916 4.02912 20.5731 4.08333L12.7168 9.58273C12.2864 9.88401 11.7136 9.88401 11.2832 9.58273L3.42688 4.08333C3.60844 4.02912 3.80082 4 4 4H20Z" fill="currentColor"/>
<path d="M2 6.00002C2 5.66596 2.0819 5.35103 2.22672 5.07422L10.423 10.8116C11.3699 11.4744 12.6301 11.4744 13.577 10.8116L21.7733 5.07422C21.9181 5.35103 22 5.66596 22 6.00002V13.5278C20.9385 12.5777 19.5367 12 18 12C14.6863 12 12 14.6863 12 18H4C2.89543 18 2 17.1046 2 16V6.00002Z" fill="currentColor"/>
<path d="M18.25 14.5C18.25 14.0858 17.9142 13.75 17.5 13.75C17.0858 13.75 16.75 14.0858 16.75 14.5V16.75H14.5C14.0858 16.75 13.75 17.0858 13.75 17.5C13.75 17.9142 14.0858 18.25 14.5 18.25H16.75V20.5C16.75 20.9142 17.0858 21.25 17.5 21.25C17.9142 21.25 18.25 20.9142 18.25 20.5V18.25H20.5C20.9142 18.25 21.25 17.9142 21.25 17.5C21.25 17.0858 20.9142 16.75 20.5 16.75H18.25V14.5Z" fill="currentColor"/>
</svg>
