<svg viewBox="0 0 24 24" fill="currentColor" xmlns="http://www.w3.org/2000/svg">
<path d="M20 4C20.1992 4 20.3916 4.02912 20.5731 4.08333L12.7168 9.58273C12.2864 9.88401 11.7136 9.88401 11.2832 9.58273L3.42688 4.08333C3.60844 4.02912 3.80082 4 4 4H20Z" fill="currentColor"/>
<path d="M2 6.00002C2 5.66596 2.0819 5.35103 2.22672 5.07422L10.423 10.8116C11.3699 11.4744 12.6301 11.4744 13.577 10.8116L21.7733 5.07422C21.9181 5.35103 22 5.66596 22 6.00002V13.5278C20.9385 12.5777 19.5367 12 18 12C14.6863 12 12 14.6863 12 18H4C2.89543 18 2 17.1046 2 16V6.00002Z" fill="currentColor"/>
<path d="M20.5303 15.5303C20.8232 15.2374 20.8232 14.7626 20.5303 14.4697C20.2374 14.1768 19.7626 14.1768 19.4697 14.4697L15.75 18.1893V15.8333C15.75 15.4191 15.4142 15.0833 15 15.0833C14.5858 15.0833 14.25 15.4191 14.25 15.8333V20C14.25 20.4142 14.5858 20.75 15 20.75H19.1667C19.5809 20.75 19.9167 20.4142 19.9167 20C19.9167 19.5858 19.5809 19.25 19.1667 19.25H16.8107L20.5303 15.5303Z" fill="currentColor"/>
</svg>
