<svg viewBox="0 0 24 24" fill="currentColor" xmlns="http://www.w3.org/2000/svg">
<path d="M2.22672 5.07422C2.0819 5.35103 2 5.66596 2 6.00002V16C2 17.1046 2.89543 18 4 18H12C12 14.6863 14.6863 12 18 12C19.5367 12 20.9385 12.5777 22 13.5278V6.00002C22 5.66596 21.9181 5.35103 21.7733 5.07422L13.577 10.8116C12.6301 11.4744 11.3699 11.4744 10.423 10.8116L2.22672 5.07422Z" fill="currentColor"/>
<path d="M20.5731 4.08333C20.3916 4.02912 20.1992 4 20 4H4C3.80082 4 3.60844 4.02912 3.42688 4.08333L11.2832 9.58273C11.7136 9.88401 12.2864 9.88401 12.7168 9.58273L20.5731 4.08333Z" fill="currentColor"/>
<path d="M16.1397 14.4055C17.3659 13.1982 19.3509 13.1982 20.5771 14.4055C21.8076 15.617 21.8076 17.5846 20.5771 18.7962L17.4862 21.8394C16.5915 22.7202 15.1442 22.7202 14.2496 21.8394C13.3506 20.9543 13.3506 19.516 14.2496 18.6309L17.296 15.6315C17.8591 15.0772 18.7688 15.0772 19.3318 15.6315C19.8992 16.1901 19.8992 17.0991 19.3318 17.6577L16.2632 20.679C16.0664 20.8728 15.7498 20.8703 15.5561 20.6735C15.3623 20.4767 15.3648 20.1602 15.5616 19.9664L18.6302 16.9451C18.7997 16.7783 18.7997 16.511 18.6302 16.3441C18.4564 16.173 18.1714 16.173 17.9976 16.3441L14.9512 19.3435C14.4501 19.8369 14.4501 20.6335 14.9512 21.1268C15.4566 21.6244 16.2792 21.6244 16.7846 21.1268L19.8755 18.0836C20.7082 17.2638 20.7082 15.9379 19.8755 15.1181C19.0385 14.294 17.6783 14.294 16.8413 15.1181L14.3508 17.5701C14.154 17.7639 13.8374 17.7614 13.6437 17.5646C13.45 17.3679 13.4524 17.0513 13.6492 16.8576L16.1397 14.4055Z" fill="currentColor"/>
</svg>
