<svg viewBox="0 0 24 24" fill="currentColor" xmlns="http://www.w3.org/2000/svg">
<path d="M20 4C20.1992 4 20.3916 4.02912 20.5731 4.08333L12.7168 9.58273C12.2864 9.88401 11.7136 9.88401 11.2832 9.58273L3.42688 4.08333C3.60844 4.02912 3.80082 4 4 4H20Z" fill="currentColor"/>
<path d="M2 6.00002C2 5.66596 2.0819 5.35103 2.22672 5.07422L10.423 10.8116C11.3699 11.4744 12.6301 11.4744 13.577 10.8116L21.7733 5.07422C21.9181 5.35103 22 5.66596 22 6.00002V13.5278C20.9385 12.5777 19.5367 12 18 12C14.6863 12 12 14.6863 12 18H4C2.89543 18 2 17.1046 2 16V6.00002Z" fill="currentColor"/>
<path d="M21.0303 15.5303C21.3232 15.2374 21.3232 14.7626 21.0303 14.4697C20.7374 14.1768 20.2626 14.1768 19.9697 14.4697L16.5 17.9393L15.0303 16.4697C14.7374 16.1768 14.2626 16.1768 13.9697 16.4697C13.6768 16.7626 13.6768 17.2374 13.9697 17.5303L15.9697 19.5303C16.2626 19.8232 16.7374 19.8232 17.0303 19.5303L21.0303 15.5303Z" fill="currentColor"/>
</svg>
