<svg viewBox="0 0 24 24" fill="currentColor" xmlns="http://www.w3.org/2000/svg">
<path d="M2.22672 5.07422C2.0819 5.35103 2 5.66596 2 6.00002V16C2 17.1046 2.89543 18 4 18H12C12 14.6863 14.6863 12 18 12C19.5367 12 20.9385 12.5777 22 13.5278V6.00002C22 5.66596 21.9181 5.35103 21.7733 5.07422L13.577 10.8116C12.6301 11.4744 11.3699 11.4744 10.423 10.8116L2.22672 5.07422Z" fill="currentColor"/>
<path d="M20.5731 4.08333C20.3916 4.02912 20.1992 4 20 4H4C3.80082 4 3.60844 4.02912 3.42688 4.08333L11.2832 9.58273C11.7136 9.88401 12.2864 9.88401 12.7168 9.58273L20.5731 4.08333Z" fill="currentColor"/>
<path d="M14.75 17.0315V15.5C14.75 14.5335 15.5335 13.75 16.5 13.75H18.5C19.4665 13.75 20.25 14.5335 20.25 15.5V17.0315C20.6813 17.1425 21 17.534 21 18V20C21 20.5523 20.5523 21 20 21H15C14.4477 21 14 20.5523 14 20V18C14 17.534 14.3187 17.1425 14.75 17.0315ZM16.25 15.5V17H18.75V15.5C18.75 15.3619 18.6381 15.25 18.5 15.25H16.5C16.3619 15.25 16.25 15.3619 16.25 15.5Z" fill="currentColor"/>
</svg>
