<svg viewBox="0 0 24 24" fill="currentColor" xmlns="http://www.w3.org/2000/svg">
<path d="M4 4C4 2.89543 4.89543 2 6 2H18C19.1046 2 20 2.89543 20 4V20C20 21.1046 19.1046 22 18 22H6C4.89543 22 4 21.1046 4 20V4ZM7 4.25C6.58579 4.25 6.25 4.58579 6.25 5C6.25 5.41421 6.58579 5.75 7 5.75H17C17.4142 5.75 17.75 5.41421 17.75 5C17.75 4.58579 17.4142 4.25 17 4.25H7ZM14.25 9C14.25 9.41421 14.5858 9.75 15 9.75H17C17.4142 9.75 17.75 9.41421 17.75 9C17.75 8.58579 17.4142 8.25 17 8.25H15C14.5858 8.25 14.25 8.58579 14.25 9ZM14.25 12C14.25 12.4142 14.5858 12.75 15 12.75H17C17.4142 12.75 17.75 12.4142 17.75 12C17.75 11.5858 17.4142 11.25 17 11.25H15C14.5858 11.25 14.25 11.5858 14.25 12ZM7 15.25C6.58579 15.25 6.25 15.5858 6.25 16C6.25 16.4142 6.58579 16.75 7 16.75H12C12.4142 16.75 12.75 16.4142 12.75 16C12.75 15.5858 12.4142 15.25 12 15.25H7ZM14.5 15.25C14.0858 15.25 13.75 15.5858 13.75 16C13.75 16.4142 14.0858 16.75 14.5 16.75H17C17.4142 16.75 17.75 16.4142 17.75 16C17.75 15.5858 17.4142 15.25 17 15.25H14.5ZM6.25 19C6.25 19.4142 6.58579 19.75 7 19.75H9.5C9.91421 19.75 10.25 19.4142 10.25 19C10.25 18.5858 9.91421 18.25 9.5 18.25H7C6.58579 18.25 6.25 18.5858 6.25 19ZM11.25 19C11.25 19.4142 11.5858 19.75 12 19.75H17C17.4142 19.75 17.75 19.4142 17.75 19C17.75 18.5858 17.4142 18.25 17 18.25H12C11.5858 18.25 11.25 18.5858 11.25 19ZM7 7C6.44772 7 6 7.44772 6 8V13C6 13.5523 6.44772 14 7 14H12C12.5523 14 13 13.5523 13 13V8C13 7.44772 12.5523 7 12 7H7Z" fill="currentColor"/>
</svg>
