<svg viewBox="0 0 24 24" fill="currentColor" xmlns="http://www.w3.org/2000/svg">
<path d="M17.564 2.50501C17.2907 2.19383 16.8168 2.16318 16.5056 2.43656C16.2503 2.66085 16.1838 3.0201 16.3191 3.31373C14.0611 3.40764 12.25 5.25176 12.25 7.52799C12.25 9.86813 14.158 11.75 16.5 11.75C18.8414 11.75 20.75 9.86869 20.75 7.53199C20.75 7.11778 20.4142 6.78199 20 6.78199C19.5858 6.78199 19.25 7.11778 19.25 7.53199C19.25 9.02731 18.026 10.25 16.5 10.25C14.9746 10.25 13.75 9.02787 13.75 7.52799C13.75 6.11903 14.8367 4.95211 16.2388 4.82203C16.0166 5.07919 15.9913 5.46424 16.1991 5.75161C16.4419 6.08722 16.9108 6.1625 17.2464 5.91974L18.6068 4.93571C18.778 4.81191 18.889 4.62167 18.9126 4.41176C18.9362 4.20184 18.8701 3.99171 18.7307 3.83302L17.564 2.50501Z" fill="currentColor"/>
<path d="M17.0721 14.551L18.5578 15.4796C20.0409 16.4065 20.4501 18.384 19.4567 19.8235L19.0934 20.3499C18.4246 21.319 17.4299 22.0429 16.2532 21.998C14.2388 21.9212 10.7433 21.1055 6.81887 17.1811C2.89449 13.2568 2.07885 9.76118 2.00198 7.7468C1.95708 6.57013 2.68099 5.57544 3.65012 4.9066L4.17653 4.5433C5.616 3.54986 7.59347 3.95907 8.52045 5.44223L9.44896 6.92785C10.0027 7.81377 9.77162 8.97756 8.9215 9.58479C8.26746 10.052 7.80326 10.7726 8.00997 11.5494C8.20087 12.2667 8.65743 13.2351 9.71116 14.2889C10.7649 15.3426 11.7333 15.7991 12.4506 15.99C13.2274 16.1967 13.948 15.7325 14.4152 15.0785C15.0224 14.2284 16.1862 13.9973 17.0721 14.551Z" fill="currentColor"/>
</svg>
