<svg viewBox="0 0 24 24" fill="currentColor" xmlns="http://www.w3.org/2000/svg">
<path d="M17.75 3C17.75 2.58579 17.4142 2.25 17 2.25C16.5858 2.25 16.25 2.58579 16.25 3V6.25H13C12.5858 6.25 12.25 6.58579 12.25 7C12.25 7.41421 12.5858 7.75 13 7.75H16.25V11C16.25 11.4142 16.5858 11.75 17 11.75C17.4142 11.75 17.75 11.4142 17.75 11V7.75H21C21.4142 7.75 21.75 7.41421 21.75 7C21.75 6.58579 21.4142 6.25 21 6.25H17.75V3Z" fill="currentColor"/>
<path d="M17.0721 14.551L18.5578 15.4796C20.0409 16.4065 20.4501 18.384 19.4567 19.8235L19.0934 20.3499C18.4246 21.319 17.4299 22.0429 16.2532 21.998C14.2388 21.9211 10.7433 21.1055 6.81887 17.1811C2.89449 13.2567 2.07885 9.76118 2.00198 7.7468C1.95708 6.57013 2.68099 5.57544 3.65012 4.9066L4.17653 4.5433C5.616 3.54986 7.59347 3.95907 8.52045 5.44223L9.44896 6.92785C10.0027 7.81377 9.77162 8.97756 8.9215 9.58479C8.26746 10.052 7.80326 10.7726 8.00997 11.5494C8.20087 12.2667 8.65743 13.2351 9.71116 14.2888C10.7649 15.3426 11.7333 15.7991 12.4506 15.99C13.2274 16.1967 13.948 15.7325 14.4152 15.0785C15.0224 14.2284 16.1862 13.9973 17.0721 14.551Z" fill="currentColor"/>
</svg>
