<svg viewBox="0 0 24 24" fill="currentColor" xmlns="http://www.w3.org/2000/svg">
<path d="M5.54744 9.93376L7.09939 9.60491C8.02485 9.4088 8.62448 8.58545 8.46834 7.72519C8.34821 7.06335 8.51308 6.36394 9.14528 6.02746C9.72915 5.71671 10.6452 5.41457 12 5.41457C13.3548 5.41457 14.2708 5.71671 14.8547 6.02746C15.4869 6.36394 15.6518 7.06335 15.5317 7.72519C15.3755 8.58545 15.9751 9.4088 16.9006 9.60491L18.4526 9.93376C20.0019 10.2621 21.5362 9.33635 21.823 7.90022L21.9278 7.37504C22.1209 6.40816 21.9468 5.39369 21.1615 4.72562C19.8171 3.58193 17.0456 2 12 2C6.95437 2 4.18289 3.58193 2.83852 4.72562C2.05322 5.39369 1.87915 6.40816 2.07219 7.37504L2.17705 7.90022C2.46378 9.33635 3.99807 10.2621 5.54744 9.93376Z" fill="currentColor"/>
<path d="M12 12.75C10.7574 12.75 9.75 13.7574 9.75 15C9.75 16.2426 10.7574 17.25 12 17.25C13.2426 17.25 14.25 16.2426 14.25 15C14.25 13.7574 13.2426 12.75 12 12.75Z" fill="currentColor"/>
<path d="M14.0677 7.30965C14.0692 7.3476 14.0666 7.39773 14.0558 7.45729C13.7361 9.21863 14.9768 10.7306 16.5897 11.0723L18.1416 11.4012C18.7629 11.5328 19.3972 11.5278 20 11.402V13.3992C20 13.9411 20 14.2121 20.0463 14.4724C20.1029 14.7912 20.2108 15.0988 20.3657 15.3831C20.4922 15.6153 20.6615 15.8268 21 16.25L21.0308 16.2885C21.3389 16.6736 21.4929 16.8661 21.6113 17.0754C21.7864 17.385 21.905 17.7233 21.9617 18.0744C22 18.3118 22 18.5584 22 19.0514C22 19.9351 22 20.3769 21.8628 20.7279C21.6596 21.2481 21.2481 21.6596 20.7279 21.8628C20.3769 22 19.9351 22 19.0514 22H4.94855C4.06494 22 3.62314 22 3.27212 21.8628C2.75192 21.6596 2.34042 21.2481 2.13716 20.7279C2 20.3769 2 19.9351 2 19.0514C2 18.5584 2 18.3118 2.03832 18.0744C2.09499 17.7233 2.21364 17.385 2.38873 17.0754C2.50714 16.8661 2.66115 16.6736 2.96918 16.2885L3 16.25C3.33852 15.8268 3.50779 15.6153 3.6343 15.3831C3.78923 15.0988 3.89711 14.7912 3.95375 14.4724C4 14.2121 4 13.9411 4 13.3992V11.402C4.60285 11.5278 5.23714 11.5328 5.85838 11.4012L7.41033 11.0723C9.0232 10.7306 10.2639 9.21863 9.94422 7.45729C9.93341 7.39773 9.93076 7.34761 9.93233 7.30965C10.3051 7.12785 10.9588 6.91455 12 6.91455C13.0412 6.91455 13.6949 7.12785 14.0677 7.30965ZM8.25 15C8.25 17.0711 9.92893 18.75 12 18.75C14.0711 18.75 15.75 17.0711 15.75 15C15.75 12.9289 14.0711 11.25 12 11.25C9.92893 11.25 8.25 12.9289 8.25 15Z" fill="currentColor"/>
</svg>
