<svg viewBox="0 0 24 24" fill="currentColor" xmlns="http://www.w3.org/2000/svg">
<path d="M14.75 2C14.75 1.58579 14.4142 1.25 14 1.25C13.5858 1.25 13.25 1.58579 13.25 2V7C13.25 8.51878 14.4812 9.75 16 9.75H20.1893L18.4697 11.4697C18.1768 11.7626 18.1768 12.2374 18.4697 12.5303C18.7626 12.8232 19.2374 12.8232 19.5303 12.5303L22.5303 9.53033C22.8232 9.23744 22.8232 8.76256 22.5303 8.46967L19.5303 5.46967C19.2374 5.17678 18.7626 5.17678 18.4697 5.46967C18.1768 5.76256 18.1768 6.23744 18.4697 6.53033L20.1893 8.25H16C15.3096 8.25 14.75 7.69036 14.75 7V2Z" fill="currentColor"/>
<path d="M17.0721 14.551L18.5578 15.4796C20.0409 16.4065 20.4501 18.384 19.4567 19.8235L19.0934 20.3499C18.4246 21.319 17.4299 22.0429 16.2532 21.998C14.2388 21.9211 10.7433 21.1055 6.81887 17.1811C2.89449 13.2567 2.07885 9.76118 2.00198 7.7468C1.95708 6.57013 2.68099 5.57544 3.65012 4.9066L4.17653 4.5433C5.616 3.54986 7.59347 3.95907 8.52045 5.44223L9.44896 6.92785C10.0027 7.81377 9.77162 8.97756 8.9215 9.58479C8.26746 10.052 7.80326 10.7726 8.00997 11.5494C8.20087 12.2667 8.65743 13.2351 9.71116 14.2888C10.7649 15.3426 11.7333 15.7991 12.4506 15.99C13.2274 16.1967 13.948 15.7325 14.4152 15.0785C15.0224 14.2284 16.1862 13.9973 17.0721 14.551Z" fill="currentColor"/>
</svg>
