<svg viewBox="0 0 24 24" fill="currentColor" xmlns="http://www.w3.org/2000/svg">
<path d="M19.5578 14.4796L18.0721 13.551C17.1862 12.9973 16.0224 13.2284 15.4152 14.0785C14.948 14.7325 14.2274 15.1967 13.4506 14.99C12.7333 14.7991 11.7649 14.3426 10.7112 13.2888C9.65743 12.2351 9.20087 11.2667 9.00997 10.5494C8.80326 9.77263 9.26746 9.05196 9.9215 8.58479C10.7716 7.97756 11.0027 6.81377 10.449 5.92785L9.52045 4.44223C8.59347 2.95907 6.616 2.54986 5.17653 3.5433L4.65012 3.9066C3.68099 4.57544 2.95708 5.57013 3.00198 6.7468C3.07885 8.76118 3.89449 12.2567 7.81887 16.1811C11.7433 20.1055 15.2388 20.9211 17.2532 20.998C18.4299 21.0429 19.4246 20.319 20.0934 19.3499L20.4567 18.8235C21.4501 17.384 21.0409 15.4065 19.5578 14.4796Z" fill="currentColor"/>
</svg>
