<svg viewBox="0 0 24 24" fill="currentColor" xmlns="http://www.w3.org/2000/svg">
<path d="M19 10.75C19.4142 10.75 19.75 10.4142 19.75 10C19.75 9.58579 19.4142 9.25 19 9.25H15.8107L20.5303 4.53033C20.8232 4.23744 20.8232 3.76256 20.5303 3.46967C20.2374 3.17678 19.7626 3.17678 19.4697 3.46967L14.75 8.18934V5C14.75 4.58579 14.4142 4.25 14 4.25C13.5858 4.25 13.25 4.58579 13.25 5V10C13.25 10.4142 13.5858 10.75 14 10.75H19Z" fill="currentColor"/>
<path d="M17.0721 14.551L18.5578 15.4796C20.0409 16.4065 20.4501 18.384 19.4567 19.8235L19.0934 20.3499C18.4246 21.319 17.4299 22.0429 16.2532 21.998C14.2388 21.9211 10.7433 21.1055 6.81887 17.1811C2.89449 13.2567 2.07885 9.76118 2.00198 7.7468C1.95708 6.57013 2.68099 5.57544 3.65012 4.9066L4.17653 4.54331C5.616 3.54986 7.59347 3.95907 8.52045 5.44223L9.44896 6.92786C10.0027 7.81377 9.77162 8.97756 8.9215 9.58479C8.26746 10.052 7.80326 10.7726 8.00997 11.5494C8.20087 12.2667 8.65743 13.2351 9.71116 14.2888C10.7649 15.3426 11.7333 15.7991 12.4506 15.99C13.2274 16.1967 13.948 15.7325 14.4152 15.0785C15.0224 14.2284 16.1862 13.9973 17.0721 14.551Z" fill="currentColor"/>
</svg>
