<svg viewBox="0 0 24 24" fill="currentColor" xmlns="http://www.w3.org/2000/svg">
<path d="M4.44318 18.3325C4.42732 19.0233 4.97458 19.5705 5.66552 19.5547C6.34447 19.5391 7.00906 19.3232 7.57784 18.9395L7.82192 19.5052L8.4301 20.9896C8.67249 21.5812 8.79369 21.877 9.0264 21.9635C9.09431 21.9887 9.16686 22.0011 9.24044 21.9999C9.49254 21.996 9.72767 21.7609 10.1979 21.2907C10.3386 21.15 10.8057 20.683 10.8139 20.3263L10.3614 16.5049L13.5508 13.6649L13.9025 14.2581L17.6475 20.9032C17.9942 21.5184 18.1676 21.826 18.461 21.8578C18.7544 21.8897 19.015 21.6291 19.5362 21.108L19.6476 20.9966C20.2304 20.414 20.4965 19.5917 20.3566 18.8053L18.635 9.13811L20.4601 7.51253C21.5389 6.55185 22.107 5.14764 21.9833 3.74754C21.9011 2.81783 21.1821 2.09891 20.2522 2.01674C18.852 1.89298 17.4476 2.46101 16.4868 3.53975L14.8613 5.36482L5.19285 3.6434C4.40643 3.50354 3.61126 3.74274 3.02853 4.32552L3.02662 4.32743C2.50646 4.84763 2.10837 5.24576 2.14016 5.53876C2.17198 5.83212 2.4796 6.00545 3.09482 6.3521L9.74068 10.0968L10.3337 10.4481L7.49335 13.6371L3.90275 13.0588C3.86135 13.0521 3.84065 13.0488 3.78974 13.051C3.73884 13.0532 3.73326 13.0546 3.72212 13.0574C3.36072 13.1484 2.83186 13.6761 2.82772 13.6802C2.24456 14.2633 1.95295 14.5549 2.00619 14.8673C2.05943 15.1797 2.42631 15.33 3.16006 15.6305L4.49267 16.1763L5.05847 16.4204C4.67468 16.9891 4.45876 17.6536 4.44318 18.3325Z" fill="currentColor"/>
</svg>
