<svg viewBox="0 0 24 24" fill="currentColor" xmlns="http://www.w3.org/2000/svg">
<path d="M11.265 21.6816C11.6705 22.1062 12.328 22.1061 12.7336 21.6815C13.1321 21.2643 13.4017 20.7353 13.5129 20.163L13.9994 20.3563L15.2565 20.8827C15.7576 21.0925 16.0081 21.1974 16.1999 21.1095C16.2558 21.0839 16.3068 21.0477 16.3504 21.0028C16.4995 20.849 16.4995 20.5665 16.4995 20.0015C16.4995 19.8325 16.4996 19.2713 16.2902 19.0521L13.7225 17.0281L13.9324 13.4058L14.5001 13.5509L20.7423 15.2933C21.3202 15.4546 21.6091 15.5352 21.8045 15.378C21.9999 15.2209 21.9999 14.9078 22 14.2816V14.1478C22.0001 13.4476 21.6659 12.7937 21.1095 12.4053L14.2673 7.63187L14.3872 5.55883C14.4582 4.33353 13.9558 3.14863 13.0403 2.38184C12.4324 1.87267 11.5685 1.87272 10.9606 2.38197C10.045 3.14887 9.54249 4.33383 9.61335 5.55912L9.73323 7.63214L2.89047 12.4065C2.33398 12.7949 1.99997 13.4163 2 14.1165V14.1188C2.00003 14.7438 2.00005 15.2222 2.19517 15.3791C2.39053 15.5362 2.67948 15.4555 3.25735 15.2942L9.49974 13.5512L10.0671 13.4061L10.2766 17.0283L7.77197 18.838C7.74308 18.8589 7.72864 18.8693 7.69939 18.9012C7.67014 18.9331 7.66763 18.9373 7.66262 18.9457C7.50014 19.2174 7.49946 19.8522 7.49946 19.8572C7.49942 20.5578 7.49939 20.9082 7.71908 21.0639C7.93876 21.2196 8.24944 21.0895 8.87082 20.8292L9.99933 20.3565L10.4859 20.1632C10.597 20.7355 10.8665 21.2644 11.265 21.6816Z" fill="currentColor"/>
</svg>
