<svg viewBox="0 0 24 24" fill="currentColor" xmlns="http://www.w3.org/2000/svg">
<path d="M4 5C2.89543 5 2 5.89543 2 7V17C2 18.1046 2.89543 19 4 19H20C21.1046 19 22 18.1046 22 17V7C22 5.89543 21.1046 5 20 5H4ZM5 7.25H12C12.4142 7.25 12.75 7.58579 12.75 8C12.75 8.41421 12.4142 8.75 12 8.75H5C4.58579 8.75 4.25 8.41421 4.25 8C4.25 7.58579 4.58579 7.25 5 7.25ZM4.25 14.5C4.25 14.0858 4.58579 13.75 5 13.75H19C19.4142 13.75 19.75 14.0858 19.75 14.5C19.75 14.9142 19.4142 15.25 19 15.25H5C4.58579 15.25 4.25 14.9142 4.25 14.5ZM5 10.75H7C7.41421 10.75 7.75 11.0858 7.75 11.5C7.75 11.9142 7.41421 12.25 7 12.25H5C4.58579 12.25 4.25 11.9142 4.25 11.5C4.25 11.0858 4.58579 10.75 5 10.75ZM8.25 11.5C8.25 11.0858 8.58579 10.75 9 10.75H12C12.4142 10.75 12.75 11.0858 12.75 11.5C12.75 11.9142 12.4142 12.25 12 12.25H9C8.58579 12.25 8.25 11.9142 8.25 11.5ZM16 7H19C19.5523 7 20 7.44772 20 8V11C20 11.5523 19.5523 12 19 12H16C15.4477 12 15 11.5523 15 11V8C15 7.44772 15.4477 7 16 7Z" fill="currentColor"/>
</svg>
