<svg viewBox="0 0 24 24" fill="currentColor" xmlns="http://www.w3.org/2000/svg">
<path d="M14 2C18.4183 2 22 5.58172 22 10C22 14.4183 18.4183 18 14 18H10C8.89543 18 8 18.8954 8 20V22H5.75V19C5.75 17.2051 7.20507 15.75 9 15.75H14C17.1756 15.75 19.75 13.1756 19.75 10C19.75 6.82436 17.1756 4.25 14 4.25H2V2H14Z" fill="currentColor"/>
<path d="M4.25 22V19C4.25 16.3766 6.37665 14.25 9 14.25H14C16.3472 14.25 18.25 12.3472 18.25 10C18.25 7.65279 16.3472 5.75 14 5.75H2V8H14C15.1046 8 16 8.89543 16 10C16 11.1046 15.1046 12 14 12H9C5.13401 12 2 15.134 2 19V22H4.25Z" fill="currentColor"/>
</svg>
