<svg viewBox="0 0 24 24" fill="currentColor" xmlns="http://www.w3.org/2000/svg">
<path d="M3.6546 12.4487L11 10.0002V19.6656C11.345 19.7632 11.6749 19.9294 11.9685 20.1643C12.1277 20.2916 12.2407 20.4131 12.5 20.4131V10.0002L19.8454 12.4487C20.3518 12.6175 20.6364 13.1543 20.4919 13.6681L18.6998 20.0398C19.6904 19.3634 20.0182 19.4041 20.9679 20.1639L22.2185 21.1643C22.542 21.4231 22.5944 21.8951 22.3357 22.2185C22.0769 22.542 21.605 22.5944 21.2815 22.3356L20.0309 21.3352C19.5746 20.9702 18.9253 20.9702 18.4685 21.3356C17.4642 22.1391 16.0359 22.1391 15.0315 21.3356C14.575 20.9704 13.9251 20.9704 13.4685 21.3356C12.4642 22.1391 11.0359 22.1391 10.0315 21.3356C9.57498 20.9704 8.92507 20.9704 8.46855 21.3356C7.4642 22.1391 6.03586 22.1391 5.03151 21.3356C4.57471 20.9702 3.92541 20.9702 3.46916 21.3352L2.21855 22.3356C1.8951 22.5944 1.42313 22.542 1.16438 22.2185C0.905618 21.8951 0.958059 21.4231 1.28151 21.1643L2.53212 20.1639C2.87705 19.8879 3.6546 19.5 4.68228 19.6205L3.00817 13.6681C2.86365 13.1543 3.1482 12.6175 3.6546 12.4487Z" fill="currentColor"/>
<path d="M12.5 1.75V2.75L14.75 2.74997C15.3023 2.74997 15.75 3.19768 15.75 3.74997V5.74997H16.75C17.3023 5.74997 17.75 6.19768 17.75 6.74997V10.169L14.3353 9.03081L12.8568 8.53801C12.1384 8.29853 11.3617 8.29853 10.6432 8.53801L5.75 10.1691V6.75C5.75 6.19772 6.19771 5.75 6.75 5.75H7.75V3.75C7.75 3.19772 8.19771 2.75 8.75 2.75H11V1.75C11 1.33579 11.3358 1 11.75 1C12.1642 1 12.5 1.33579 12.5 1.75Z" fill="currentColor"/>
</svg>
