<svg viewBox="0 0 24 24" fill="currentColor" xmlns="http://www.w3.org/2000/svg">
<path d="M1.46967 1.46967C1.76256 1.17678 2.23744 1.17678 2.53033 1.46967L22.5303 21.4697C22.8232 21.7626 22.8232 22.2374 22.5303 22.5303C22.2374 22.8232 21.7626 22.8232 21.4697 22.5303L1.46967 2.53033C1.17678 2.23744 1.17678 1.76256 1.46967 1.46967Z" fill="currentColor"/>
<path d="M11 14.182L13 16.182V21C13 21.5523 12.5523 22 12 22C11.4477 22 11 21.5523 11 21V14.182Z" fill="currentColor"/>
<path d="M15 18.182L17 20.182V21C17 21.5523 16.5523 22 16 22C15.4477 22 15 21.5523 15 21V18.182Z" fill="currentColor"/>
<path d="M17 13.818L15 11.818V9C15 8.44772 15.4477 8 16 8C16.5523 8 17 8.44772 17 9V13.818Z" fill="currentColor"/>
<path d="M21 17.818L19 15.818V6C19 5.44772 19.4477 5 20 5C20.5523 5 21 5.44772 21 6V17.818Z" fill="currentColor"/>
<path d="M7 15C7 14.4477 7.44772 14 8 14C8.55228 14 9 14.4477 9 15V21C9 21.5523 8.55228 22 8 22C7.44772 22 7 21.5523 7 21V15Z" fill="currentColor"/>
<path d="M3 18C3 17.4477 3.44772 17 4 17C4.55228 17 5 17.4477 5 18V21C5 21.5523 4.55228 22 4 22C3.44772 22 3 21.5523 3 21V18Z" fill="currentColor"/>
</svg>
