<svg viewBox="0 0 24 24" fill="currentColor" xmlns="http://www.w3.org/2000/svg">
<path d="M3 18C3 17.4477 3.44772 17 4 17C4.55228 17 5 17.4477 5 18V21C5 21.5523 4.55228 22 4 22C3.44772 22 3 21.5523 3 21V18Z" fill="currentColor"/>
<path d="M7 15C7 14.4477 7.44772 14 8 14C8.55228 14 9 14.4477 9 15V21C9 21.5523 8.55228 22 8 22C7.44772 22 7 21.5523 7 21V15Z" fill="currentColor"/>
<path d="M11 12C11 11.4477 11.4477 11 12 11C12.5523 11 13 11.4477 13 12V21C13 21.5523 12.5523 22 12 22C11.4477 22 11 21.5523 11 21V12Z" fill="currentColor"/>
<path d="M15 9C15 8.44772 15.4477 8 16 8C16.5523 8 17 8.44772 17 9V21C17 21.5523 16.5523 22 16 22C15.4477 22 15 21.5523 15 21V9Z" fill="currentColor"/>
<path d="M19 6C19 5.44772 19.4477 5 20 5C20.5523 5 21 5.44772 21 6V21C21 21.5523 20.5523 22 20 22C19.4477 22 19 21.5523 19 21V6Z" fill="currentColor"/>
</svg>
