<svg viewBox="0 0 24 24" fill="currentColor" xmlns="http://www.w3.org/2000/svg">
<path d="M2 7.78357C2 8.66788 2.31182 9.48132 2.83431 10.1255C2.30925 10.8355 2 11.7067 2 12.6482C2 14.3349 2.99266 15.7961 4.44062 16.5089C4.19529 17.9161 3.47944 18.757 2.10041 19.6058C1.9075 19.7245 2.01441 20.0385 2.23604 19.9961C5.75326 19.3233 6.89676 18.2919 7.65199 16.8107C7.68276 16.8023 7.71338 16.7936 7.74387 16.7845C8.54834 17.5684 9.66042 18.0533 10.8889 18.0533C12.3537 18.0533 13.653 17.3638 14.4627 16.3003C15.2065 16.7273 16.0738 16.9723 17 16.9723C19.7614 16.9723 22 14.7943 22 12.1077C22 10.8373 21.4995 9.68061 20.6798 8.81418C20.8146 8.49657 20.8889 8.14852 20.8889 7.78357C20.8889 6.29099 19.6453 5.08102 18.1112 5.08102C17.1891 5.08102 16.3721 5.51806 15.8668 6.19083C15.1026 4.8825 13.6572 4 12 4C10.7551 4 9.62983 4.49793 8.82298 5.30024C8.11002 4.50356 7.0599 4 5.88889 4C3.74111 4 2 5.69396 2 7.78357ZM9 11C9 11.5523 8.55228 12 8 12C7.44772 12 7 11.5523 7 11C7 10.4477 7.44772 10 8 10C8.55228 10 9 10.4477 9 11ZM13 11C13 11.5523 12.5523 12 12 12C11.4477 12 11 11.5523 11 11C11 10.4477 11.4477 10 12 10C12.5523 10 13 10.4477 13 11ZM16 12C15.4477 12 15 11.5523 15 11C15 10.4477 15.4477 10 16 10C16.5523 10 17 10.4477 17 11C17 11.5523 16.5523 12 16 12Z" fill="currentColor"/>
</svg>
