<svg viewBox="0 0 24 24" fill="currentColor" xmlns="http://www.w3.org/2000/svg">
<path d="M4 3.54334C4 2.6709 4.7232 2 5.56977 2H17.7791C18.6256 2 19.3488 2.6709 19.3488 3.54334V8.61734C19.3488 9.48978 18.6256 10.1607 17.7791 10.1607H10.1571L6.85221 12.5642C6.63999 12.7186 6.35911 12.7408 6.12527 12.6217C5.89143 12.5026 5.74419 12.2624 5.74419 12V10.1607H5.56977C4.7232 10.1607 4 9.48978 4 8.61734V3.54334ZM17.2236 11.3783C17.4574 11.4974 17.6047 11.7376 17.6047 12V13.8393H17.7791C18.6256 13.8393 19.3488 14.5102 19.3488 15.3827V20.4567C19.3488 21.3291 18.6256 22 17.7791 22H5.56977C4.7232 22 4 21.3291 4 20.4567V15.3827C4 14.5102 4.7232 13.8393 5.56977 13.8393H13.1917L16.4966 11.4358C16.7088 11.2814 16.9897 11.2592 17.2236 11.3783ZM8.41861 17.1163C8.03329 17.1163 7.72093 17.4286 7.72093 17.814C7.72093 18.1993 8.03329 18.5116 8.41861 18.5116H14.9302C15.3155 18.5116 15.6279 18.1993 15.6279 17.814C15.6279 17.4286 15.3155 17.1163 14.9302 17.1163H8.41861ZM7.72093 5.95349C7.72093 6.3388 8.03329 6.65116 8.41861 6.65116H14.9302C15.3155 6.65116 15.6279 6.3388 15.6279 5.95349C15.6279 5.56817 15.3155 5.25581 14.9302 5.25581H8.41861C8.03329 5.25581 7.72093 5.56817 7.72093 5.95349Z" fill="currentColor"/>
</svg>
