<svg viewBox="0 0 24 24" fill="currentColor" xmlns="http://www.w3.org/2000/svg">
<path d="M22 11.0926C22 16.1143 17.5331 20.1851 12.0229 20.1851C10.1607 20.1851 8.41776 19.7202 6.92607 18.9108C6.11674 19.8217 4.81399 20.5048 2.23604 20.9961C2.01441 21.0383 1.9075 20.7256 2.10041 20.6073C3.62237 19.6741 4.33657 18.7504 4.50196 17.0674C2.9723 15.4695 2.04575 13.3796 2.04575 11.0926C2.04575 6.07088 6.51266 2 12.0229 2C17.5331 2 22 6.07088 22 11.0926ZM12 6.25C11.5858 6.25 11.25 6.58579 11.25 7V12C11.25 12.4142 11.5858 12.75 12 12.75C12.4142 12.75 12.75 12.4142 12.75 12V7C12.75 6.58579 12.4142 6.25 12 6.25ZM12 16C12.5523 16 13 15.5523 13 15C13 14.4477 12.5523 14 12 14C11.4477 14 11 14.4477 11 15C11 15.5523 11.4477 16 12 16Z" fill="currentColor"/>
</svg>
