<svg viewBox="0 0 24 24" fill="currentColor" xmlns="http://www.w3.org/2000/svg">
<path d="M2 11C2 9.34315 3.34315 8 5 8H15C16.6569 8 18 9.34315 18 11V17C18 18.6569 16.6569 20 15 20H12L10.4714 21.7735C10.2111 22.0755 9.78894 22.0755 9.5286 21.7735L8 20H5C3.34315 20 2 18.6569 2 17V11ZM7 14C7 13.4477 6.55228 13 6 13C5.44772 13 5 13.4477 5 14C5 14.5523 5.44772 15 6 15C6.55228 15 7 14.5523 7 14ZM11 14C11 13.4477 10.5523 13 10 13C9.44772 13 9 13.4477 9 14C9 14.5523 9.44772 15 10 15C10.5523 15 11 14.5523 11 14ZM14 15C14.5523 15 15 14.5523 15 14C15 13.4477 14.5523 13 14 13C13.4477 13 13 13.4477 13 14C13 14.5523 13.4477 15 14 15Z" fill="currentColor"/>
<path d="M9 2C7.34315 2 6 3.34315 6 5V6.5H15C17.4853 6.5 19.5 8.51472 19.5 11V13.9585C20.9189 13.7205 22 12.4865 22 11V5C22 3.34315 20.6569 2 19 2H9Z" fill="currentColor"/>
</svg>
