<svg viewBox="0 0 24 24" fill="currentColor" xmlns="http://www.w3.org/2000/svg">
<path d="M6.63414 2C5.71876 2 4.97164 2.72038 4.92877 3.62515L3.96542 8.44185C3.95598 8.4891 3.95122 8.53717 3.95122 8.58535C3.95122 9.52828 4.71561 10.2927 5.65853 10.2927H15.4977L15.3026 11.2683H4.68292C3.76754 11.2683 3.02042 11.9887 2.97755 12.8934L2.01421 17.7101C2.00476 17.7574 2 17.8054 2 17.8536C2 18.7965 2.76439 19.5609 3.70731 19.5609H11.7561V21.2683C11.7561 21.579 11.9524 21.8559 12.2456 21.9587C12.5388 22.0616 12.865 21.968 13.0591 21.7253L14.7907 19.5609H16.3902C17.3056 19.5609 18.0527 18.8406 18.0956 17.9358L19.0589 13.1191C19.0684 13.0718 19.0731 13.0238 19.0731 12.9756C19.0731 12.0327 18.3087 11.2683 17.3658 11.2683H16.7949L16.9901 10.2927H18.3414C19.2568 10.2927 20.0039 9.57228 20.0468 8.66752L21.0101 3.85081C21.0196 3.80356 21.0244 3.7555 21.0244 3.70731C21.0244 2.76439 20.26 2 19.317 2H6.63414ZM7.85365 6.14633C7.85365 5.74222 8.18124 5.41463 8.58535 5.41463H16.3902C16.7943 5.41463 17.1219 5.74222 17.1219 6.14633C17.1219 6.55044 16.7943 6.87804 16.3902 6.87804H8.58535C8.18124 6.87804 7.85365 6.55044 7.85365 6.14633ZM5.65853 15.4146C5.65853 15.0105 5.98612 14.6829 6.39023 14.6829H14.1951C14.5992 14.6829 14.9268 15.0105 14.9268 15.4146C14.9268 15.8187 14.5992 16.1463 14.1951 16.1463H6.39023C5.98612 16.1463 5.65853 15.8187 5.65853 15.4146Z" fill="currentColor"/>
</svg>
