<svg viewBox="0 0 24 24" fill="currentColor" xmlns="http://www.w3.org/2000/svg">
<path d="M4.68293 2C3.20119 2 2 3.20119 2 4.68293V13.4634C2 14.9451 3.20119 16.1463 4.68293 16.1463H6.24255L7.81604 18.5066L7.37581 21.148C7.32521 21.4516 7.46998 21.7543 7.73802 21.9056C8.00606 22.0568 8.34008 22.0241 8.57375 21.8238L11.9884 18.897C12.2693 18.6562 12.3263 18.2435 12.121 17.9356L10.9282 16.1463H18.3415C19.8232 16.1463 21.0244 14.9452 21.0244 13.4634V4.68293C21.0244 3.20119 19.8232 2 18.3415 2H4.68293ZM6.87805 6.14634C6.87805 5.74223 7.20564 5.41463 7.60975 5.41463H15.4146C15.8187 5.41463 16.1463 5.74223 16.1463 6.14634C16.1463 6.55045 15.8187 6.87805 15.4146 6.87805H7.60975C7.20564 6.87805 6.87805 6.55045 6.87805 6.14634ZM6.87805 9.07317C6.87805 8.66906 7.20564 8.34146 7.60975 8.34146H16.3902C16.7943 8.34146 17.1219 8.66906 17.1219 9.07317C17.1219 9.47728 16.7943 9.80488 16.3902 9.80488H7.60975C7.20564 9.80488 6.87805 9.47728 6.87805 9.07317ZM6.87805 12C6.87805 11.5959 7.20564 11.2683 7.60975 11.2683H15.4146C15.8187 11.2683 16.1463 11.5959 16.1463 12C16.1463 12.4041 15.8187 12.7317 15.4146 12.7317H7.60975C7.20564 12.7317 6.87805 12.4041 6.87805 12Z" fill="currentColor"/>
</svg>
