<svg viewBox="0 0 24 24" fill="currentColor" xmlns="http://www.w3.org/2000/svg">
<path d="M3.6875 3C2.75552 3 2 3.75552 2 4.6875V13.6875C2 14.6195 2.75552 15.375 3.6875 15.375H13.3733L14.1008 18.2849C14.1455 18.4638 14.3062 18.5893 14.4906 18.5893H16.625C17.1875 18.5893 17.2705 18.9208 17.2705 18.9208L18.2243 20.8823C18.3393 20.9972 18.5121 21.0316 18.6622 20.9694C18.8123 20.9072 18.9102 20.7607 18.9102 20.5982V17.183C18.9102 17.183 18.9102 16.1786 17.9058 16.1786H17.3031V15.375H19.4375C20.3695 15.375 21.125 14.6195 21.125 13.6875V4.6875C21.125 3.75552 20.3695 3 19.4375 3H3.6875ZM7.0625 10.3125C6.44118 10.3125 5.9375 9.80882 5.9375 9.1875C5.9375 8.56618 6.44118 8.0625 7.0625 8.0625C7.68382 8.0625 8.1875 8.56618 8.1875 9.1875C8.1875 9.80882 7.68382 10.3125 7.0625 10.3125ZM11.5625 10.3125C10.9412 10.3125 10.4375 9.80882 10.4375 9.1875C10.4375 8.56618 10.9412 8.0625 11.5625 8.0625C12.1838 8.0625 12.6875 8.56618 12.6875 9.1875C12.6875 9.80882 12.1838 10.3125 11.5625 10.3125ZM16.0625 10.3125C15.4412 10.3125 14.9375 9.80882 14.9375 9.1875C14.9375 8.56618 15.4412 8.0625 16.0625 8.0625C16.6838 8.0625 17.1875 8.56618 17.1875 9.1875C17.1875 9.80882 16.6838 10.3125 16.0625 10.3125Z" fill="currentColor"/>
</svg>
