<svg viewBox="0 0 24 24" fill="currentColor" xmlns="http://www.w3.org/2000/svg">
<path d="M2 5C2 3.89543 2.89543 3 4 3H20C21.1046 3 22 3.89543 22 5V15C22 16.1046 21.1046 17 20 17H7.94615C7.16309 18.9162 6.26757 20.2005 2.23478 20.996C2.01433 21.0395 1.90799 20.7174 2.09988 20.5956C3.59935 19.6439 4.31057 18.7018 4.48383 17H4C2.89543 17 2 16.1046 2 15V5ZM8 11C8.55228 11 9 10.5523 9 10C9 9.44772 8.55228 9 8 9C7.44772 9 7 9.44772 7 10C7 10.5523 7.44772 11 8 11ZM11 10C11 10.5523 11.4477 11 12 11C12.5523 11 13 10.5523 13 10C13 9.44772 12.5523 9 12 9C11.4477 9 11 9.44772 11 10ZM15 10C15 10.5523 15.4477 11 16 11C16.5523 11 17 10.5523 17 10C17 9.44772 16.5523 9 16 9C15.4477 9 15 9.44772 15 10Z" fill="currentColor"/>
</svg>
