<svg viewBox="0 0 24 24" fill="currentColor" xmlns="http://www.w3.org/2000/svg">
<path d="M3.99308 4.01119C2.92986 3.89306 2 4.72532 2 5.79508V17.8622C2 18.932 2.92986 19.7643 3.99308 19.6461L12.7448 18.6737C12.804 18.6671 12.8635 18.6813 12.9133 18.7138L15.576 20.452C16.5709 21.1014 17.9109 20.6225 18.2687 19.4895L18.6863 18.1672C18.7168 18.0704 18.8016 18.0007 18.9025 17.9895L20.4033 17.8228C21.3123 17.7218 22 16.9534 22 16.0389V7.61845C22 6.70387 21.3123 5.93555 20.4033 5.83455L3.99308 4.01119ZM17.38 14.3078C17.4269 14.73 17.1226 15.1104 16.7004 15.1573L7.46963 16.1829C7.04739 16.2298 6.66707 15.9256 6.62016 15.5033C6.57324 15.0811 6.8775 14.7008 7.29974 14.6539L16.5305 13.6282C16.9527 13.5813 17.3331 13.8856 17.38 14.3078ZM7.38468 11.0594H16.6155C17.0403 11.0594 17.3847 11.4038 17.3847 11.8287C17.3847 12.2535 17.0403 12.5979 16.6155 12.5979H7.38468C6.95985 12.5979 6.61545 12.2535 6.61545 11.8287C6.61545 11.4038 6.95985 11.0594 7.38468 11.0594ZM6.62016 8.15397C6.66707 7.73173 7.04739 7.42747 7.46963 7.47439L16.7004 8.50003C17.1226 8.54695 17.4269 8.92727 17.38 9.3495C17.3331 9.77174 16.9527 10.076 16.5305 10.0291L7.29974 9.00344C6.8775 8.95653 6.57324 8.5762 6.62016 8.15397Z" fill="currentColor"/>
</svg>
