<svg viewBox="0 0 24 24" fill="currentColor" xmlns="http://www.w3.org/2000/svg">
<path d="M2 12C2 8.13401 5.13401 5 9 5H15C18.866 5 22 8.13401 22 12C22 17.3314 16.7364 20.4257 13.2248 21.6338C12.6096 21.8454 12 21.3698 12 20.7192V19H9C5.13401 19 2 15.866 2 12ZM8 9.75C7.58579 9.75 7.25 10.0858 7.25 10.5C7.25 10.9142 7.58579 11.25 8 11.25H16C16.4142 11.25 16.75 10.9142 16.75 10.5C16.75 10.0858 16.4142 9.75 16 9.75H8ZM8 12.75C7.58579 12.75 7.25 13.0858 7.25 13.5C7.25 13.9142 7.58579 14.25 8 14.25H12C12.4142 14.25 12.75 13.9142 12.75 13.5C12.75 13.0858 12.4142 12.75 12 12.75H8Z" fill="currentColor"/>
</svg>
