<svg viewBox="0 0 24 24" fill="currentColor" xmlns="http://www.w3.org/2000/svg">
<path d="M4.0548 2C2.81903 2 1.86289 3.05436 2.01617 4.24807L3.55704 16.2481C3.68556 17.2489 4.55955 18 5.59568 18H8.91825L11.0255 21.4998C11.427 22.1667 12.573 22.1667 12.9745 21.4998L15.0817 18H18.4043C19.4405 18 20.3144 17.2489 20.443 16.2481L21.9838 4.24807C22.1371 3.05436 21.181 2 19.9452 2H4.0548ZM12 5.25C12.4142 5.25 12.75 5.58579 12.75 6V11C12.75 11.4142 12.4142 11.75 12 11.75C11.5858 11.75 11.25 11.4142 11.25 11V6C11.25 5.58579 11.5858 5.25 12 5.25ZM8.75 6V11C8.75 11.4142 8.41421 11.75 8 11.75C7.58579 11.75 7.25 11.4142 7.25 11V6C7.25 5.58579 7.58579 5.25 8 5.25C8.41421 5.25 8.75 5.58579 8.75 6ZM16 5.25C16.4142 5.25 16.75 5.58579 16.75 6V11C16.75 11.4142 16.4142 11.75 16 11.75C15.5858 11.75 15.25 11.4142 15.25 11V6C15.25 5.58579 15.5858 5.25 16 5.25ZM12 15C11.4477 15 11 14.5523 11 14C11 13.4477 11.4477 13 12 13C12.5523 13 13 13.4477 13 14C13 14.5523 12.5523 15 12 15ZM9 14C9 14.5523 8.55228 15 8 15C7.44772 15 7 14.5523 7 14C7 13.4477 7.44772 13 8 13C8.55228 13 9 13.4477 9 14ZM16 15C15.4477 15 15 14.5523 15 14C15 13.4477 15.4477 13 16 13C16.5523 13 17 13.4477 17 14C17 14.5523 16.5523 15 16 15Z" fill="currentColor"/>
</svg>
