<svg viewBox="0 0 24 24" fill="currentColor" xmlns="http://www.w3.org/2000/svg">
<path d="M2 12C2 8.13401 5.13401 5 9 5H15C18.866 5 22 8.13401 22 12C22 15.866 18.866 19 15 19H9C8.33283 19 7.68746 18.9067 7.07623 18.7323C6.27896 19.733 4.97971 20.4732 2.23604 20.9961C2.01441 21.0383 1.9075 20.7256 2.10041 20.6073C3.53918 19.7251 4.25608 18.8514 4.46988 17.3367C2.95877 16.0527 2 14.1383 2 12ZM8 13C8.55228 13 9 12.5523 9 12C9 11.4477 8.55228 11 8 11C7.44772 11 7 11.4477 7 12C7 12.5523 7.44772 13 8 13ZM13 12C13 11.4477 12.5523 11 12 11C11.4477 11 11 11.4477 11 12C11 12.5523 11.4477 13 12 13C12.5523 13 13 12.5523 13 12ZM16 13C16.5523 13 17 12.5523 17 12C17 11.4477 16.5523 11 16 11C15.4477 11 15 11.4477 15 12C15 12.5523 15.4477 13 16 13Z" fill="currentColor"/>
</svg>
