<svg viewBox="0 0 24 24" fill="currentColor" xmlns="http://www.w3.org/2000/svg">
<path d="M21 10.9009C21 15.3437 17.7088 19.0262 13.4061 19.6938L12.416 21.7798C12.2181 22.0734 11.7819 22.0734 11.584 21.7798L10.5939 19.6938C6.2912 19.0262 3 15.3437 3 10.9009C3 5.98507 7.02944 2 12 2C16.9706 2 21 5.98507 21 10.9009ZM8 8.25C7.58579 8.25 7.25 8.58579 7.25 9C7.25 9.41421 7.58579 9.75 8 9.75H16C16.4142 9.75 16.75 9.41421 16.75 9C16.75 8.58579 16.4142 8.25 16 8.25H8ZM10 12.25C9.58579 12.25 9.25 12.5858 9.25 13C9.25 13.4142 9.58579 13.75 10 13.75H14C14.4142 13.75 14.75 13.4142 14.75 13C14.75 12.5858 14.4142 12.25 14 12.25H10Z" fill="currentColor"/>
</svg>
