<svg viewBox="0 0 24 24" fill="currentColor" xmlns="http://www.w3.org/2000/svg">
<path d="M2.01617 4.24807C1.86289 3.05436 2.81903 2 4.0548 2H19.9452C21.181 2 22.1371 3.05436 21.9838 4.24807L20.443 16.2481C20.3144 17.2489 19.4405 18 18.4043 18H15.0817L12.9745 21.4998C12.573 22.1667 11.427 22.1667 11.0255 21.4998L8.91825 18H5.59568C4.55955 18 3.68556 17.2489 3.55704 16.2481L2.01617 4.24807ZM9 10C9 9.44772 8.55228 9 8 9C7.44772 9 7 9.44772 7 10C7 10.5523 7.44772 11 8 11C8.55228 11 9 10.5523 9 10ZM13 10C13 9.44772 12.5523 9 12 9C11.4477 9 11 9.44772 11 10C11 10.5523 11.4477 11 12 11C12.5523 11 13 10.5523 13 10ZM16 11C16.5523 11 17 10.5523 17 10C17 9.44772 16.5523 9 16 9C15.4477 9 15 9.44772 15 10C15 10.5523 15.4477 11 16 11Z" fill="currentColor"/>
</svg>
