<svg viewBox="0 0 24 24" fill="currentColor" xmlns="http://www.w3.org/2000/svg">
<path d="M14.0008 2.63031C13.8542 1.9392 12.9695 1.77 12.5677 2.35625L9.64593 6.61986C9.47947 6.86276 9.19931 6.99762 8.91271 6.97279L3.88209 6.53699C3.19038 6.47706 2.74484 7.28655 3.16042 7.84819L6.18278 11.9328C6.35497 12.1655 6.38947 12.477 6.27308 12.748L4.23009 17.5049C3.94918 18.159 4.55853 18.8285 5.21712 18.5893L7.8401 17.6369C7.44715 19.2893 6.53845 20.5919 4.89212 21.5204C4.63597 21.6648 4.77792 22.0468 5.0722 21.9952C9.62916 21.1965 11.1853 19.9824 12.1897 18.2498L14.5638 20.3768C15.0819 20.8409 15.9041 20.4452 15.8955 19.7358L15.8334 14.5763C15.8298 14.2823 15.9816 14.0065 16.2307 13.8543L20.6024 11.1838C21.2036 10.8165 21.1023 9.90249 20.4384 9.70318L15.6103 8.25362C15.3352 8.17104 15.1276 7.9429 15.0669 7.65655L14.0008 2.63031ZM8.74894 10.2102C8.85615 9.81008 9.2674 9.57265 9.6675 9.67985L14.4971 10.9739C14.8972 11.0812 15.1347 11.4924 15.0275 11.8925C14.9203 12.2926 14.509 12.53 14.1089 12.4228L9.27927 11.1287C8.87917 11.0215 8.64174 10.6103 8.74894 10.2102ZM8.89107 12.5773L11.7889 13.3538C12.189 13.461 12.4264 13.8722 12.3192 14.2723C12.212 14.6724 11.8007 14.9099 11.4006 14.8027L8.50285 14.0262C8.10275 13.919 7.86531 13.5077 7.97252 13.1076C8.07972 12.7075 8.49098 12.4701 8.89107 12.5773Z" fill="currentColor"/>
</svg>
