<svg viewBox="0 0 24 24" fill="currentColor" xmlns="http://www.w3.org/2000/svg">
<path d="M19 15C19 13.8954 18.1046 13 17 13H4C2.89543 13 2 13.8954 2 15V21C2 22.1046 2.89543 23 4 23H17C18.1046 23 19 22.1046 19 21V20L21.392 18.8321C22.2027 18.4362 22.2027 17.5638 21.392 17.168L19 16V15ZM5.5 18C5.5 17.4477 5.94772 17 6.5 17C7.05228 17 7.5 17.4477 7.5 18C7.5 18.5523 7.05228 19 6.5 19C5.94772 19 5.5 18.5523 5.5 18ZM10.5 19C9.94771 19 9.5 18.5523 9.5 18C9.5 17.4477 9.94771 17 10.5 17C11.0523 17 11.5 17.4477 11.5 18C11.5 18.5523 11.0523 19 10.5 19ZM14.5 19C13.9477 19 13.5 18.5523 13.5 18C13.5 17.4477 13.9477 17 14.5 17C15.0523 17 15.5 17.4477 15.5 18C15.5 18.5523 15.0523 19 14.5 19Z" fill="currentColor"/>
<path d="M5.00001 3C5.00001 1.89543 5.89543 1 7 1H20C21.1046 1 22 1.89543 22 3V9C22 10.1046 21.1046 11 20 11H7C5.89543 11 5.00001 10.1046 5.00001 9V8L2.608 6.83205C1.79734 6.43623 1.79734 5.56377 2.608 5.16795L5.00001 4V3ZM18.5 6C18.5 5.44772 18.0523 5 17.5 5C16.9477 5 16.5 5.44772 16.5 6C16.5 6.55228 16.9477 7 17.5 7C18.0523 7 18.5 6.55228 18.5 6ZM13.5 7C14.0523 7 14.5 6.55228 14.5 6C14.5 5.44772 14.0523 5 13.5 5C12.9477 5 12.5 5.44772 12.5 6C12.5 6.55228 12.9477 7 13.5 7ZM9.5 7C10.0523 7 10.5 6.55228 10.5 6C10.5 5.44772 10.0523 5 9.5 5C8.94771 5 8.5 5.44772 8.5 6C8.5 6.55228 8.94771 7 9.5 7Z" fill="currentColor"/>
</svg>
