<svg viewBox="0 0 24 24" fill="currentColor" xmlns="http://www.w3.org/2000/svg">
<path d="M20 18C20 15.2386 17.7614 13 15 13H8C5.23858 13 3 15.2386 3 18C3 20.7614 5.23858 23 8 23H15C16.0427 23 17.0109 22.6808 17.8121 22.1348C18.5502 22.3865 19.5031 22.6118 20.764 22.8521C20.9856 22.8943 21.0925 22.5816 20.8996 22.4633C20.0833 21.9628 19.4994 21.465 19.1078 20.8513C19.6703 20.0426 20 19.0598 20 18ZM6.5 18C6.5 17.4477 6.94772 17 7.5 17C8.05229 17 8.5 17.4477 8.5 18C8.5 18.5523 8.05229 19 7.5 19C6.94772 19 6.5 18.5523 6.5 18ZM11.5 19C10.9477 19 10.5 18.5523 10.5 18C10.5 17.4477 10.9477 17 11.5 17C12.0523 17 12.5 17.4477 12.5 18C12.5 18.5523 12.0523 19 11.5 19ZM15.5 19C14.9477 19 14.5 18.5523 14.5 18C14.5 17.4477 14.9477 17 15.5 17C16.0523 17 16.5 17.4477 16.5 18C16.5 18.5523 16.0523 19 15.5 19Z" fill="currentColor"/>
<path d="M4 6C4 3.23858 6.23858 1 9 1H16C18.7614 1 21 3.23858 21 6C21 8.76142 18.7614 11 16 11H9C7.95729 11 6.98914 10.6808 6.1879 10.1348C5.44978 10.3865 4.49692 10.6118 3.23604 10.8521C3.01441 10.8943 2.9075 10.5816 3.10041 10.4633C3.91671 9.96278 4.50064 9.46501 4.89216 8.85133C4.32972 8.04255 4 7.05978 4 6ZM17.5 6C17.5 5.44772 17.0523 5 16.5 5C15.9477 5 15.5 5.44772 15.5 6C15.5 6.55228 15.9477 7 16.5 7C17.0523 7 17.5 6.55228 17.5 6ZM12.5 7C13.0523 7 13.5 6.55228 13.5 6C13.5 5.44772 13.0523 5 12.5 5C11.9477 5 11.5 5.44772 11.5 6C11.5 6.55228 11.9477 7 12.5 7ZM8.5 7C9.05229 7 9.5 6.55228 9.5 6C9.5 5.44772 9.05229 5 8.5 5C7.94772 5 7.5 5.44772 7.5 6C7.5 6.55228 7.94772 7 8.5 7Z" fill="currentColor"/>
</svg>
