<svg viewBox="0 0 24 24" fill="currentColor" xmlns="http://www.w3.org/2000/svg">
<path d="M13 14C17.9706 14 22 11.3137 22 8C22 4.68629 17.9706 2 13 2C8.02944 2 4 4.68629 4 8C4 11.3137 8.02944 14 13 14ZM10 8C10 8.55228 9.55228 9 9 9C8.44772 9 8 8.55228 8 8C8 7.44772 8.44772 7 9 7C9.55228 7 10 7.44772 10 8ZM14 8C14 8.55228 13.5523 9 13 9C12.4477 9 12 8.55228 12 8C12 7.44772 12.4477 7 13 7C13.5523 7 14 7.44772 14 8ZM17 9C16.4477 9 16 8.55228 16 8C16 7.44772 16.4477 7 17 7C17.5523 7 18 7.44772 18 8C18 8.55228 17.5523 9 17 9Z" fill="currentColor"/>
<path d="M10 17C10 18.1046 9.10457 19 8 19C6.89543 19 6 18.1046 6 17C6 15.8954 6.89543 15 8 15C9.10457 15 10 15.8954 10 17Z" fill="currentColor"/>
<path d="M5 20.5C5 21.3284 4.32843 22 3.5 22C2.67157 22 2 21.3284 2 20.5C2 19.6716 2.67157 19 3.5 19C4.32843 19 5 19.6716 5 20.5Z" fill="currentColor"/>
</svg>
