<svg viewBox="0 0 24 24" fill="currentColor" xmlns="http://www.w3.org/2000/svg">
<path d="M2 4.97501C2 3.33196 3.34315 2 5 2H19C20.6569 2 22 3.33196 22 4.97501V16C22 17.6431 20.6569 18.975 19 18.975H6L3.78087 21.6259C3.19036 22.3578 2 21.9438 2 21.0064V4.97501ZM12.5 4C9.46243 4 7 6.43461 7 9.43785V11.3333H7.00573C7.00193 11.391 7 11.4493 7 11.5079V11.7698C7 13.2163 8.17259 14.3889 9.61905 14.3889C10.1976 14.3889 10.6667 13.9199 10.6667 13.3413V9.93651C10.6667 9.35792 10.1976 8.88889 9.61905 8.88889C8.98144 8.88889 8.39705 9.11673 7.94286 9.49544V9.43785C7.94286 6.94945 9.98316 4.9322 12.5 4.9322C15.0168 4.9322 17.0571 6.94945 17.0571 9.43785V9.49544C16.6029 9.11673 16.0186 8.88889 15.381 8.88889C14.8024 8.88889 14.3333 9.35792 14.3333 9.93651V13.3413C14.3333 13.7837 14.6076 14.1621 14.9955 14.3157C14.6223 14.7159 14.1194 14.9934 13.5537 15.0813C13.3876 14.8472 13.1144 14.6944 12.8056 14.6944H12.1944C11.6882 14.6944 11.2778 15.1049 11.2778 15.6111C11.2778 16.1174 11.6882 16.5278 12.1944 16.5278H12.8056C13.1381 16.5278 13.4292 16.3507 13.5899 16.0858C14.7557 15.9453 15.7451 15.2316 16.268 14.2348C17.2779 13.8714 18 12.9049 18 11.7698V11.5079C18 11.4493 17.9981 11.391 17.9943 11.3333H18V9.43785C18 6.43461 15.5376 4 12.5 4Z" fill="currentColor"/>
</svg>
