<svg viewBox="0 0 24 24" fill="currentColor" xmlns="http://www.w3.org/2000/svg">
<path d="M13.1423 17.7556C12.4345 17.3616 11.5655 17.3616 10.8577 17.7556L10.3224 18.0536C9.14273 18.7103 7.69453 18.7103 6.51486 18.0536L6.10374 17.8248C5.34659 17.4033 4.40998 17.4347 3.68439 17.9059L2.19321 18.8744C1.84056 19.1034 1.36408 19.0106 1.12897 18.667C0.893867 18.3235 0.989163 17.8593 1.34182 17.6303L2.83299 16.6618C4.04231 15.8765 5.60334 15.8241 6.86525 16.5265L7.27637 16.7554C7.98417 17.1494 8.85309 17.1494 9.5609 16.7554L10.0962 16.4574C11.2759 15.8007 12.7241 15.8007 13.9038 16.4574L14.4391 16.7554C15.1469 17.1494 16.0158 17.1494 16.7236 16.7554L17.1347 16.5265C18.3967 15.8241 19.9577 15.8765 21.167 16.6618L22.6582 17.6303C23.0108 17.8593 23.1061 18.3235 22.871 18.667C22.6359 19.0106 22.1594 19.1034 21.8068 18.8744L20.3156 17.9059C19.59 17.4347 18.6534 17.4033 17.8963 17.8248L17.4851 18.0536C16.3055 18.7103 14.8573 18.7103 13.6776 18.0536L13.1423 17.7556Z" fill="currentColor"/>
<path d="M14.876 5.72312L18.2248 9.62874L3.83504 10.328V7.91834L2.01692 8.16196C1.92481 8.16196 1.87869 8.05373 1.94382 7.99043L3.31313 6.41595C3.65064 6.08792 4.09453 5.88348 4.56948 5.83732L13.0818 5.00999C13.7646 4.94363 14.4368 5.21079 14.876 5.72312ZM6.93673 8.92315C7.50771 8.92315 7.97058 8.47328 7.97058 7.91834C7.97058 7.36339 7.50771 6.91352 6.93673 6.91352C6.36574 6.91352 5.90287 7.36339 5.90287 7.91834C5.90287 8.47328 6.36574 8.92315 6.93673 8.92315ZM11.0722 7.91834C11.0722 7.36339 10.6093 6.91352 10.0383 6.91352C9.46732 6.91352 9.00444 7.36339 9.00444 7.91834C9.00444 8.47328 9.46732 8.92315 10.0383 8.92315C10.6093 8.92315 11.0722 8.47328 11.0722 7.91834Z" fill="currentColor"/>
<path d="M2.25857 11.9137C1.98346 11.9271 1.76746 12.1478 1.76746 12.4155V15.5568L1.98153 15.4177C3.67458 14.3182 5.86001 14.2449 7.6267 15.2283L8.03781 15.4572C8.27374 15.5885 8.56339 15.5885 8.79932 15.4572L9.33465 15.1592C10.9862 14.2398 13.0137 14.2398 14.6652 15.1592L15.2005 15.4572C15.4365 15.5885 15.7261 15.5885 15.962 15.4572L16.3732 15.2283C17.8258 14.4197 19.5617 14.3255 21.0741 14.9289L22.2054 11.6302C22.3205 11.2947 22.0525 10.9518 21.6892 10.9695L2.25857 11.9137Z" fill="currentColor"/>
</svg>
