<svg viewBox="0 0 24 24" fill="currentColor" xmlns="http://www.w3.org/2000/svg">
<path d="M13.1163 21.5017C12.4246 21.1064 11.5754 21.1064 10.8837 21.5017L10.3605 21.8007C9.20767 22.4594 7.79237 22.4594 6.6395 21.8007L6.23773 21.5711C5.49778 21.1482 4.58245 21.1798 3.87334 21.6525L2.41605 22.624C2.0714 22.8538 1.60575 22.7607 1.37599 22.416C1.14622 22.0714 1.23935 21.6057 1.584 21.376L3.04129 20.4044C4.22313 19.6165 5.74869 19.564 6.98194 20.2687L7.38371 20.4983C8.07543 20.8936 8.9246 20.8936 9.61633 20.4983L10.1395 20.1993C11.2924 19.5406 12.7077 19.5406 13.8605 20.1993L14.3837 20.4983C15.0754 20.8936 15.9246 20.8936 16.6163 20.4983L17.0181 20.2687C18.2513 19.564 19.7769 19.6165 20.9587 20.4044L22.416 21.376C22.7607 21.6057 22.8538 22.0714 22.624 22.416C22.3943 22.7607 21.9286 22.8538 21.584 22.624L20.1267 21.6525C19.4176 21.1798 18.5022 21.1482 17.7623 21.5711L17.3605 21.8007C16.2077 22.4594 14.7924 22.4594 13.6395 21.8007L13.1163 21.5017Z" fill="currentColor"/>
<path d="M19.5561 14.3865H8.87415C10.1772 10.7665 10.4964 6.85548 9.79478 3.06361C9.63821 2.21743 10.6354 1.65685 11.261 2.23934L13.3804 4.21262C16.3376 6.96602 18.4708 10.4918 19.5561 14.3865Z" fill="currentColor"/>
<path d="M3.06688 16.0052C2.17397 16.0052 1.67756 17.0519 2.23535 17.7584L2.99723 18.7234C4.50618 18.0555 6.26308 18.1303 7.72612 18.9663L8.12789 19.1959C8.35847 19.3277 8.64153 19.3277 8.8721 19.1959L9.39527 18.897C11.0093 17.9747 12.9907 17.9747 14.6047 18.897L15.1279 19.1959C15.3585 19.3277 15.6415 19.3277 15.8721 19.1959L16.2739 18.9663C17.7369 18.1303 19.4938 18.0555 21.0028 18.7234L21.7647 17.7584C22.3224 17.0519 21.826 16.0052 20.9331 16.0052H3.06688Z" fill="currentColor"/>
</svg>
