<svg viewBox="0 0 24 24" fill="currentColor" xmlns="http://www.w3.org/2000/svg">
<path d="M21.5303 12.5304C21.8232 12.2375 21.8232 11.7626 21.5303 11.4697L11.5303 1.46967C11.2374 1.17678 10.7626 1.17678 10.4697 1.46967C10.1768 1.76256 10.1768 2.23744 10.4697 2.53033L19.9393 12L10.4697 21.4697C10.1768 21.7626 10.1768 22.2375 10.4697 22.5304C10.7626 22.8232 11.2374 22.8232 11.5303 22.5304L21.5303 12.5304Z" fill="currentColor"/>
<path d="M13.5303 12.5304C13.671 12.3897 13.75 12.1989 13.75 12C13.75 11.8011 13.671 11.6103 13.5303 11.4697L3.53033 1.46969C3.31583 1.25519 2.99324 1.19103 2.71299 1.30711C2.43273 1.4232 2.25 1.69668 2.25 2.00002V22C2.25 22.3034 2.43273 22.5768 2.71299 22.6929C2.99325 22.809 3.31583 22.7449 3.53033 22.5304L13.5303 12.5304Z" fill="currentColor"/>
</svg>
