<svg viewBox="0 0 24 24" fill="currentColor" xmlns="http://www.w3.org/2000/svg">
<path d="M2.46967 12.5304C2.17678 12.2375 2.17678 11.7626 2.46967 11.4697L12.4697 1.46967C12.7626 1.17678 13.2374 1.17678 13.5303 1.46967C13.8232 1.76256 13.8232 2.23744 13.5303 2.53033L4.06066 12L13.5303 21.4697C13.8232 21.7626 13.8232 22.2375 13.5303 22.5304C13.2374 22.8232 12.7626 22.8232 12.4697 22.5304L2.46967 12.5304Z" fill="currentColor"/>
<path d="M10.4697 12.5304C10.329 12.3897 10.25 12.1989 10.25 12C10.25 11.8011 10.329 11.6103 10.4697 11.4697L20.4697 1.46969C20.6842 1.25519 21.0068 1.19103 21.287 1.30711C21.5673 1.4232 21.75 1.69668 21.75 2.00002V22C21.75 22.3034 21.5673 22.5768 21.287 22.6929C21.0068 22.809 20.6842 22.7449 20.4697 22.5304L10.4697 12.5304Z" fill="currentColor"/>
</svg>
