<svg viewBox="0 0 24 24" fill="currentColor" xmlns="http://www.w3.org/2000/svg">
<path d="M12 22C6.47715 22 2 17.5228 2 12C2 6.47715 6.47715 2 12 2C17.5228 2 22 6.47715 22 12C22 17.5228 17.5228 22 12 22ZM12.75 7C12.75 6.58579 12.4142 6.25 12 6.25C11.5858 6.25 11.25 6.58579 11.25 7V17C11.25 17.4142 11.5858 17.75 12 17.75C12.4142 17.75 12.75 17.4142 12.75 17V7ZM8.34104 10.6444C8.6279 10.3456 8.61821 9.87082 8.3194 9.58396C8.02059 9.2971 7.54582 9.30679 7.25896 9.6056L5.45896 11.4806C5.18035 11.7708 5.18035 12.2292 5.45896 12.5194L7.25896 14.3944C7.54582 14.6932 8.02059 14.7029 8.3194 14.416C8.61821 14.1292 8.6279 13.6544 8.34104 13.3556L7.75966 12.75H10.2C10.6142 12.75 10.95 12.4142 10.95 12C10.95 11.5858 10.6142 11.25 10.2 11.25H7.75966L8.34104 10.6444ZM16.741 9.6056C16.4542 9.30679 15.9794 9.2971 15.6806 9.58396C15.3818 9.87082 15.3721 10.3456 15.659 10.6444L16.2403 11.25H13.8C13.3858 11.25 13.05 11.5858 13.05 12C13.05 12.4142 13.3858 12.75 13.8 12.75H16.2403L15.659 13.3556C15.3721 13.6544 15.3818 14.1292 15.6806 14.416C15.9794 14.7029 16.4542 14.6932 16.741 14.3944L18.541 12.5194C18.8197 12.2292 18.8197 11.7708 18.541 11.4806L16.741 9.6056Z" fill="currentColor"/>
</svg>
