<svg viewBox="0 0 24 24" fill="currentColor" xmlns="http://www.w3.org/2000/svg">
<path d="M2 5C2 3.34315 3.34315 2 5 2H19C20.6569 2 22 3.34315 22 5V19C22 20.6569 20.6569 22 19 22H5C3.34315 22 2 20.6569 2 19V5ZM19 8.25C18.5858 8.25 18.25 8.58579 18.25 9V11.25H14.8107L16.5303 9.53033C16.8232 9.23744 16.8232 8.76256 16.5303 8.46967C16.2374 8.17678 15.7626 8.17678 15.4697 8.46967L12.4697 11.4697C12.329 11.6103 12.25 11.8011 12.25 12C12.25 12.1989 12.329 12.3897 12.4697 12.5303L15.4697 15.5303C15.7626 15.8232 16.2374 15.8232 16.5303 15.5303C16.8232 15.2374 16.8232 14.7626 16.5303 14.4697L14.8107 12.75H18.25V15C18.25 15.4142 18.5858 15.75 19 15.75C19.4142 15.75 19.75 15.4142 19.75 15V9C19.75 8.58579 19.4142 8.25 19 8.25ZM5.75 9C5.75 8.58579 5.41421 8.25 5 8.25C4.58579 8.25 4.25 8.58579 4.25 9V15C4.25 15.4142 4.58579 15.75 5 15.75C5.41421 15.75 5.75 15.4142 5.75 15V12.75H9.18934L7.46967 14.4697C7.17678 14.7626 7.17678 15.2374 7.46967 15.5303C7.76256 15.8232 8.23744 15.8232 8.53033 15.5303L11.5303 12.5303C11.671 12.3897 11.75 12.1989 11.75 12C11.75 11.8011 11.671 11.6103 11.5303 11.4697L8.53033 8.46967C8.23744 8.17678 7.76256 8.17678 7.46967 8.46967C7.17678 8.76256 7.17678 9.23744 7.46967 9.53033L9.18934 11.25H5.75V9Z" fill="currentColor"/>
</svg>
