<svg viewBox="0 0 24 24" fill="currentColor" xmlns="http://www.w3.org/2000/svg">
<path d="M12 22C6.47715 22 2 17.5228 2 12C2 6.47715 6.47715 2 12 2C17.5228 2 22 6.47715 22 12C22 17.5228 17.5228 22 12 22ZM10.2 5.25H6C5.58579 5.25 5.25 5.58579 5.25 6V10.2C5.25 10.6142 5.58579 10.95 6 10.95C6.41421 10.95 6.75 10.6142 6.75 10.2V7.81066L9.66967 10.7303C9.96256 11.0232 10.4374 11.0232 10.7303 10.7303C11.0232 10.4374 11.0232 9.96256 10.7303 9.66967L7.81066 6.75H10.2C10.6142 6.75 10.95 6.41421 10.95 6C10.95 5.58579 10.6142 5.25 10.2 5.25ZM14.9303 10.1303C15.2232 9.83744 15.2232 9.36256 14.9303 9.06967C14.6374 8.77678 14.1626 8.77678 13.8697 9.06967L9.06967 13.8697C8.77678 14.1626 8.77678 14.6374 9.06967 14.9303C9.36256 15.2232 9.83744 15.2232 10.1303 14.9303L14.9303 10.1303ZM14.3303 13.2697C14.0374 12.9768 13.5626 12.9768 13.2697 13.2697C12.9768 13.5626 12.9768 14.0374 13.2697 14.3303L16.1893 17.25H13.8C13.3858 17.25 13.05 17.5858 13.05 18C13.05 18.4142 13.3858 18.75 13.8 18.75H18C18.4142 18.75 18.75 18.4142 18.75 18V13.8C18.75 13.3858 18.4142 13.05 18 13.05C17.5858 13.05 17.25 13.3858 17.25 13.8V16.1893L14.3303 13.2697Z" fill="currentColor"/>
</svg>
