<svg viewBox="0 0 24 24" fill="currentColor" xmlns="http://www.w3.org/2000/svg">
<path d="M5 2C3.34315 2 2 3.34315 2 5V19C2 20.6569 3.34315 22 5 22H19C20.6569 22 22 20.6569 22 19V5C22 3.34315 20.6569 2 19 2H5ZM4.75 8V16C4.75 16.4142 4.41421 16.75 4 16.75C3.58579 16.75 3.25 16.4142 3.25 16V8C3.25 7.58579 3.58579 7.25 4 7.25C4.41421 7.25 4.75 7.58579 4.75 8ZM20.75 8V16C20.75 16.4142 20.4142 16.75 20 16.75C19.5858 16.75 19.25 16.4142 19.25 16V8C19.25 7.58579 19.5858 7.25 20 7.25C20.4142 7.25 20.75 7.58579 20.75 8ZM14.9303 8.26967L18.1303 11.4697C18.4232 11.7626 18.4232 12.2374 18.1303 12.5303L14.9303 15.7303C14.6374 16.0232 14.1626 16.0232 13.8697 15.7303C13.5768 15.4374 13.5768 14.9626 13.8697 14.6697L15.7893 12.75H8.21066L10.1303 14.6697C10.4232 14.9626 10.4232 15.4374 10.1303 15.7303C9.83744 16.0232 9.36256 16.0232 9.06967 15.7303L5.86967 12.5303C5.57678 12.2374 5.57678 11.7626 5.86967 11.4697L9.06967 8.26967C9.36256 7.97678 9.83744 7.97678 10.1303 8.26967C10.4232 8.56256 10.4232 9.03744 10.1303 9.33033L8.21066 11.25H15.7893L13.8697 9.33033C13.5768 9.03744 13.5768 8.56256 13.8697 8.26967C14.1626 7.97678 14.6374 7.97678 14.9303 8.26967Z" fill="currentColor"/>
</svg>
