<svg viewBox="0 0 24 24" fill="currentColor" xmlns="http://www.w3.org/2000/svg">
<path d="M12 22C17.5228 22 22 17.5228 22 12C22 6.47715 17.5228 2 12 2C6.47715 2 2 6.47715 2 12C2 17.5228 6.47715 22 12 22ZM8.25747 9.50172L6.68402 11.25H10.6C11.0142 11.25 11.35 11.5858 11.35 12C11.35 12.4142 11.0142 12.75 10.6 12.75H6.68402L8.25747 14.4983C8.53456 14.8062 8.50961 15.2804 8.20172 15.5575C7.89384 15.8346 7.41962 15.8096 7.14253 15.5017L4.44253 12.5017C4.18582 12.2165 4.18582 11.7835 4.44253 11.4983L7.14253 8.49828C7.41962 8.19039 7.89384 8.16543 8.20172 8.44253C8.50961 8.71962 8.53456 9.19384 8.25747 9.50172ZM15.9575 9.50172L14.384 11.25H19C19.4142 11.25 19.75 11.5858 19.75 12C19.75 12.4142 19.4142 12.75 19 12.75H14.384L15.9575 14.4983C16.2346 14.8062 16.2096 15.2804 15.9017 15.5575C15.5938 15.8346 15.1196 15.8096 14.8425 15.5017L12.1425 12.5017C11.8858 12.2165 11.8858 11.7835 12.1425 11.4983L14.8425 8.49828C15.1196 8.19039 15.5938 8.16543 15.9017 8.44253C16.2096 8.71962 16.2346 9.19384 15.9575 9.50172Z" fill="currentColor"/>
</svg>
