<svg viewBox="0 0 24 24" fill="currentColor" xmlns="http://www.w3.org/2000/svg">
<path d="M12 22C17.5228 22 22 17.5228 22 12C22 6.47715 17.5228 2 12 2C6.47715 2 2 6.47715 2 12C2 17.5228 6.47715 22 12 22ZM9.53033 9.53033L7.81066 11.25H16.1893L14.4697 9.53033C14.1768 9.23744 14.1768 8.76256 14.4697 8.46967C14.7626 8.17678 15.2374 8.17678 15.5303 8.46967L18.5303 11.4697C18.671 11.6103 18.75 11.8011 18.75 12C18.75 12.1989 18.671 12.3897 18.5303 12.5303L15.5303 15.5303C15.2374 15.8232 14.7626 15.8232 14.4697 15.5303C14.1768 15.2374 14.1768 14.7626 14.4697 14.4697L16.1893 12.75H7.81066L9.53033 14.4697C9.82322 14.7626 9.82322 15.2374 9.53033 15.5303C9.23744 15.8232 8.76256 15.8232 8.46967 15.5303L5.46967 12.5303C5.17678 12.2374 5.17678 11.7626 5.46967 11.4697L8.46967 8.46967C8.76256 8.17678 9.23744 8.17678 9.53033 8.46967C9.82322 8.76256 9.82322 9.23744 9.53033 9.53033Z" fill="currentColor"/>
</svg>
