<svg viewBox="0 0 24 24" fill="currentColor" xmlns="http://www.w3.org/2000/svg">
<path d="M12 22C6.47715 22 2 17.5228 2 12C2 6.47715 6.47715 2 12 2C17.5228 2 22 6.47715 22 12C22 17.5228 17.5228 22 12 22ZM13.05 6C13.05 6.41421 13.3858 6.75 13.8 6.75H16.1893L13.2697 9.66967C12.9768 9.96256 12.9768 10.4374 13.2697 10.7303C13.5626 11.0232 14.0374 11.0232 14.3303 10.7303L17.25 7.81066V10.2C17.25 10.6142 17.5858 10.95 18 10.95C18.4142 10.95 18.75 10.6142 18.75 10.2V6C18.75 5.58579 18.4142 5.25 18 5.25H13.8C13.3858 5.25 13.05 5.58579 13.05 6ZM10.1303 9.06967C9.83744 8.77678 9.36256 8.77678 9.06967 9.06967C8.77678 9.36256 8.77678 9.83744 9.06967 10.1303L13.8697 14.9303C14.1626 15.2232 14.6374 15.2232 14.9303 14.9303C15.2232 14.6374 15.2232 14.1626 14.9303 13.8697L10.1303 9.06967ZM6.75 13.8C6.75 13.3858 6.41421 13.05 6 13.05C5.58579 13.05 5.25 13.3858 5.25 13.8V18C5.25 18.4142 5.58579 18.75 6 18.75H10.2C10.6142 18.75 10.95 18.4142 10.95 18C10.95 17.5858 10.6142 17.25 10.2 17.25H7.81066L10.7303 14.3303C11.0232 14.0374 11.0232 13.5626 10.7303 13.2697C10.4374 12.9768 9.96256 12.9768 9.66967 13.2697L6.75 16.1893V13.8Z" fill="currentColor"/>
</svg>
