<svg viewBox="0 0 24 24" fill="currentColor" xmlns="http://www.w3.org/2000/svg">
<path d="M5 2H19C20.6569 2 22 3.34315 22 5V19C22 20.6569 20.6569 22 19 22H5C3.34315 22 2 20.6569 2 19V5C2 3.34315 3.34315 2 5 2ZM8 4.25C7.58579 4.25 7.25 4.58579 7.25 5C7.25 5.41421 7.58579 5.75 8 5.75H16C16.4142 5.75 16.75 5.41421 16.75 5C16.75 4.58579 16.4142 4.25 16 4.25H8ZM12.5303 6.86967C12.2374 6.57678 11.7626 6.57678 11.4697 6.86967L8.26967 10.0697C7.97678 10.3626 7.97678 10.8374 8.26967 11.1303C8.56256 11.4232 9.03744 11.4232 9.33033 11.1303L11.25 9.21066V14.7893L9.33033 12.8697C9.03744 12.5768 8.56256 12.5768 8.26967 12.8697C7.97678 13.1626 7.97678 13.6374 8.26967 13.9303L11.4697 17.1303C11.7626 17.4232 12.2374 17.4232 12.5303 17.1303L15.7303 13.9303C16.0232 13.6374 16.0232 13.1626 15.7303 12.8697C15.4374 12.5768 14.9626 12.5768 14.6697 12.8697L12.75 14.7893V9.21066L14.6697 11.1303C14.9626 11.4232 15.4374 11.4232 15.7303 11.1303C16.0232 10.8374 16.0232 10.3626 15.7303 10.0697L12.5303 6.86967ZM8 18.25C7.58579 18.25 7.25 18.5858 7.25 19C7.25 19.4142 7.58579 19.75 8 19.75H16C16.4142 19.75 16.75 19.4142 16.75 19C16.75 18.5858 16.4142 18.25 16 18.25H8Z" fill="currentColor"/>
</svg>
