<svg viewBox="0 0 24 24" fill="currentColor" xmlns="http://www.w3.org/2000/svg">
<path d="M12 22C17.5228 22 22 17.5228 22 12C22 6.47715 17.5228 2 12 2C6.47715 2 2 6.47715 2 12C2 17.5228 6.47715 22 12 22ZM7 11.25H17C17.4142 11.25 17.75 11.5858 17.75 12C17.75 12.4142 17.4142 12.75 17 12.75H7C6.58579 12.75 6.25 12.4142 6.25 12C6.25 11.5858 6.58579 11.25 7 11.25ZM10.6444 15.659L11.25 16.2403V13.8C11.25 13.3858 11.5858 13.05 12 13.05C12.4142 13.05 12.75 13.3858 12.75 13.8V16.2403L13.3556 15.659C13.6544 15.3721 14.1292 15.3818 14.416 15.6806C14.7029 15.9794 14.6932 16.4542 14.3944 16.741L12.5194 18.541C12.2292 18.8197 11.7708 18.8197 11.4806 18.541L9.6056 16.741C9.30679 16.4542 9.2971 15.9794 9.58396 15.6806C9.87082 15.3818 10.3456 15.3721 10.6444 15.659ZM9.6056 7.25896L11.4806 5.45896C11.7708 5.18035 12.2292 5.18035 12.5194 5.45896L14.3944 7.25896C14.6932 7.54581 14.7029 8.02059 14.416 8.3194C14.1292 8.61821 13.6544 8.6279 13.3556 8.34104L12.75 7.75966V10.2C12.75 10.6142 12.4142 10.95 12 10.95C11.5858 10.95 11.25 10.6142 11.25 10.2V7.75966L10.6444 8.34104C10.3456 8.6279 9.87082 8.61821 9.58396 8.3194C9.2971 8.02059 9.30679 7.54581 9.6056 7.25896Z" fill="currentColor"/>
</svg>
