<svg viewBox="0 0 24 24" fill="currentColor" xmlns="http://www.w3.org/2000/svg">
<path d="M12 22C6.47715 22 2 17.5228 2 12C2 6.47715 6.47715 2 12 2C17.5228 2 22 6.47715 22 12C22 17.5228 17.5228 22 12 22ZM13.5303 5.46967C13.2374 5.17678 12.7626 5.17678 12.4697 5.46967C12.1768 5.76256 12.1768 6.23744 12.4697 6.53033L15.1893 9.25H7C6.58579 9.25 6.25 9.58579 6.25 10C6.25 10.4142 6.58579 10.75 7 10.75H17C17.3033 10.75 17.5768 10.5673 17.6929 10.287C17.809 10.0068 17.7448 9.68417 17.5303 9.46967L13.5303 5.46967ZM7 13.25C6.69665 13.25 6.42318 13.4327 6.30709 13.713C6.191 13.9932 6.25517 14.3158 6.46967 14.5303L10.4697 18.5303C10.7626 18.8232 11.2374 18.8232 11.5303 18.5303C11.8232 18.2374 11.8232 17.7626 11.5303 17.4697L8.81066 14.75H17C17.4142 14.75 17.75 14.4142 17.75 14C17.75 13.5858 17.4142 13.25 17 13.25H7Z" fill="currentColor"/>
</svg>
