<svg viewBox="0 0 24 24" fill="currentColor" xmlns="http://www.w3.org/2000/svg">
<path d="M5 2C3.34315 2 2 3.34315 2 5V19C2 20.6569 3.34315 22 5 22H19C20.6569 22 22 20.6569 22 19V5C22 3.34315 20.6569 2 19 2H5ZM15 5.75H12.75V9.18934L14.4697 7.46967C14.7626 7.17678 15.2374 7.17678 15.5303 7.46967C15.8232 7.76256 15.8232 8.23744 15.5303 8.53033L12.5303 11.5303C12.2374 11.8232 11.7626 11.8232 11.4697 11.5303L8.46967 8.53033C8.17678 8.23744 8.17678 7.76256 8.46967 7.46967C8.76256 7.17678 9.23744 7.17678 9.53033 7.46967L11.25 9.18934V5.75H9C8.58579 5.75 8.25 5.41421 8.25 5C8.25 4.58579 8.58579 4.25 9 4.25H15C15.4142 4.25 15.75 4.58579 15.75 5C15.75 5.41421 15.4142 5.75 15 5.75ZM12.5303 12.4697L15.5303 15.4697C15.8232 15.7626 15.8232 16.2374 15.5303 16.5303C15.2374 16.8232 14.7626 16.8232 14.4697 16.5303L12.75 14.8107V18.25H15C15.4142 18.25 15.75 18.5858 15.75 19C15.75 19.4142 15.4142 19.75 15 19.75H9C8.58579 19.75 8.25 19.4142 8.25 19C8.25 18.5858 8.58579 18.25 9 18.25H11.25V14.8107L9.53033 16.5303C9.23744 16.8232 8.76256 16.8232 8.46967 16.5303C8.17678 16.2374 8.17678 15.7626 8.46967 15.4697L11.4697 12.4697C11.6103 12.329 11.8011 12.25 12 12.25C12.1989 12.25 12.3897 12.329 12.5303 12.4697Z" fill="currentColor"/>
</svg>
