<svg viewBox="0 0 24 24" fill="currentColor" xmlns="http://www.w3.org/2000/svg">
<path d="M12 22C6.47715 22 2 17.5228 2 12C2 6.47715 6.47715 2 12 2C17.5228 2 22 6.47715 22 12C22 17.5228 17.5228 22 12 22ZM15.4685 6.81435L12.4685 4.41435C12.1946 4.19522 11.8054 4.19522 11.5315 4.41435L8.53148 6.81435C8.20803 7.07311 8.15559 7.54508 8.41435 7.86852C8.67311 8.19197 9.14507 8.24441 9.46852 7.98565L11.25 6.56047V9.75H9C8.58579 9.75 8.25 10.0858 8.25 10.5C8.25 10.9142 8.58579 11.25 9 11.25H15C15.4142 11.25 15.75 10.9142 15.75 10.5C15.75 10.0858 15.4142 9.75 15 9.75H12.75V6.56047L14.5315 7.98565C14.8549 8.24441 15.3269 8.19197 15.5856 7.86852C15.8444 7.54507 15.792 7.07311 15.4685 6.81435ZM9 12.75C8.58579 12.75 8.25 13.0858 8.25 13.5C8.25 13.9142 8.58579 14.25 9 14.25H11.25V17.4395L9.46852 16.0143C9.14507 15.7556 8.67311 15.808 8.41435 16.1315C8.15559 16.4549 8.20803 16.9269 8.53148 17.1857L11.5315 19.5857C11.8054 19.8048 12.1946 19.8048 12.4685 19.5857L15.4685 17.1857C15.792 16.9269 15.8444 16.4549 15.5857 16.1315C15.3269 15.808 14.8549 15.7556 14.5315 16.0143L12.75 17.4395V14.25H15C15.4142 14.25 15.75 13.9142 15.75 13.5C15.75 13.0858 15.4142 12.75 15 12.75H9Z" fill="currentColor"/>
</svg>
