<svg viewBox="0 0 24 24" fill="currentColor" xmlns="http://www.w3.org/2000/svg">
<path d="M12 22C6.47715 22 2 17.5228 2 12C2 6.47715 6.47715 2 12 2C17.5228 2 22 6.47715 22 12C22 17.5228 17.5228 22 12 22ZM12.75 6C12.75 5.58579 12.4142 5.25 12 5.25C11.5858 5.25 11.25 5.58579 11.25 6V16.2403L7.5194 12.659C7.22059 12.3721 6.74582 12.3818 6.45896 12.6806C6.1721 12.9794 6.18179 13.4542 6.4806 13.741L11.4806 18.541C11.7708 18.8197 12.2292 18.8197 12.5194 18.541L17.5194 13.741C17.8182 13.4542 17.8279 12.9794 17.541 12.6806C17.2542 12.3818 16.7794 12.3721 16.4806 12.659L12.75 16.2403V6Z" fill="currentColor"/>
</svg>
