<svg viewBox="0 0 24 24" fill="currentColor" xmlns="http://www.w3.org/2000/svg">
<path d="M12 22C6.47715 22 2 17.5228 2 12C2 6.47715 6.47715 2 12 2C17.5228 2 22 6.47715 22 12C22 17.5228 17.5228 22 12 22ZM18.5303 6.53033C18.8232 6.23744 18.8232 5.76256 18.5303 5.46967C18.2374 5.17678 17.7626 5.17678 17.4697 5.46967L13.65 9.28934V6.9C13.65 6.48579 13.3142 6.15 12.9 6.15C12.4858 6.15 12.15 6.48579 12.15 6.9V11.1C12.15 11.5142 12.4858 11.85 12.9 11.85H17.1C17.5142 11.85 17.85 11.5142 17.85 11.1C17.85 10.6858 17.5142 10.35 17.1 10.35H14.7107L18.5303 6.53033ZM6.9 12.15C6.48579 12.15 6.15 12.4858 6.15 12.9C6.15 13.3142 6.48579 13.65 6.9 13.65H9.28934L5.46967 17.4697C5.17678 17.7626 5.17678 18.2374 5.46967 18.5303C5.76256 18.8232 6.23744 18.8232 6.53033 18.5303L10.35 14.7107V17.1C10.35 17.5142 10.6858 17.85 11.1 17.85C11.5142 17.85 11.85 17.5142 11.85 17.1V12.9C11.85 12.4858 11.5142 12.15 11.1 12.15H6.9Z" fill="currentColor"/>
</svg>
