<svg viewBox="0 0 24 24" fill="currentColor" xmlns="http://www.w3.org/2000/svg">
<path d="M12 22C6.47715 22 2 17.5228 2 12C2 6.47715 6.47715 2 12 2C17.5228 2 22 6.47715 22 12C22 17.5228 17.5228 22 12 22ZM14.5303 6.46967C14.3158 6.25517 13.9932 6.191 13.713 6.30709C13.4327 6.42318 13.25 6.69665 13.25 7V17C13.25 17.4142 13.5858 17.75 14 17.75C14.4142 17.75 14.75 17.4142 14.75 17V8.81066L17.4697 11.5303C17.7626 11.8232 18.2374 11.8232 18.5303 11.5303C18.8232 11.2374 18.8232 10.7626 18.5303 10.4697L14.5303 6.46967ZM10.75 7C10.75 6.58579 10.4142 6.25 10 6.25C9.58579 6.25 9.25 6.58579 9.25 7V15.1893L6.53033 12.4697C6.23744 12.1768 5.76256 12.1768 5.46967 12.4697C5.17678 12.7626 5.17678 13.2374 5.46967 13.5303L9.46967 17.5303C9.68417 17.7448 10.0068 17.809 10.287 17.6929C10.5673 17.5768 10.75 17.3033 10.75 17V7Z" fill="currentColor"/>
</svg>
