<svg viewBox="0 0 24 24" fill="currentColor" xmlns="http://www.w3.org/2000/svg">
<path d="M22 11.9645C22 12.1734 21.9129 12.3729 21.7596 12.5148L16.3596 17.5148C16.1408 17.7174 15.8229 17.7711 15.5497 17.6518C15.2766 17.5324 15.1 17.2626 15.1 16.9645V12.7145H9.15073C8.81385 14.5827 7.17962 16 5.21436 16C3.00522 16 1.21436 14.2091 1.21436 12C1.21436 9.79086 3.00522 8 5.21436 8C7.15464 8 8.77226 9.38149 9.13726 11.2145H15.1V6.96449C15.1 6.66639 15.2766 6.39658 15.5497 6.27723C15.8229 6.15788 16.1408 6.21164 16.3596 6.41417L21.7596 11.4142C21.9129 11.5561 22 11.7556 22 11.9645Z" fill="currentColor"/>
</svg>
