<svg viewBox="0 0 24 24" fill="currentColor" xmlns="http://www.w3.org/2000/svg">
<path d="M12 22C17.5228 22 22 17.5228 22 12C22 6.47715 17.5228 2 12 2C6.47715 2 2 6.47715 2 12C2 17.5228 6.47715 22 12 22ZM17.1857 8.53148L19.5857 11.5315C19.8048 11.8054 19.8048 12.1946 19.5857 12.4685L17.1857 15.4685C16.9269 15.792 16.4549 15.8444 16.1315 15.5857C15.808 15.3269 15.7556 14.8549 16.0143 14.5315L17.4395 12.75H14.25V15C14.25 15.4142 13.9142 15.75 13.5 15.75C13.0858 15.75 12.75 15.4142 12.75 15V9C12.75 8.58579 13.0858 8.25 13.5 8.25C13.9142 8.25 14.25 8.58579 14.25 9V11.25H17.4395L16.0143 9.46852C15.7556 9.14507 15.808 8.67311 16.1315 8.41435C16.4549 8.15559 16.9269 8.20803 17.1857 8.53148ZM7.98565 9.46852L6.56047 11.25H9.75V9C9.75 8.58579 10.0858 8.25 10.5 8.25C10.9142 8.25 11.25 8.58579 11.25 9V15C11.25 15.4142 10.9142 15.75 10.5 15.75C10.0858 15.75 9.75 15.4142 9.75 15V12.75H6.56047L7.98565 14.5315C8.24441 14.8549 8.19197 15.3269 7.86852 15.5857C7.54508 15.8444 7.07311 15.792 6.81435 15.4685L4.41435 12.4685C4.19522 12.1946 4.19522 11.8054 4.41435 11.5315L6.81435 8.53148C7.0731 8.20803 7.54507 8.15559 7.86852 8.41435C8.19197 8.67311 8.24441 9.14508 7.98565 9.46852Z" fill="currentColor"/>
</svg>
