<svg viewBox="0 0 24 24" fill="currentColor" xmlns="http://www.w3.org/2000/svg">
<path d="M12 22C17.5228 22 22 17.5228 22 12C22 6.47715 17.5228 2 12 2C6.47715 2 2 6.47715 2 12C2 17.5228 6.47715 22 12 22ZM11.5303 6.53033L8.81066 9.25H17C17.4142 9.25 17.75 9.58579 17.75 10C17.75 10.4142 17.4142 10.75 17 10.75H7C6.69665 10.75 6.42318 10.5673 6.30709 10.287C6.191 10.0068 6.25517 9.68417 6.46967 9.46967L10.4697 5.46967C10.7626 5.17678 11.2374 5.17678 11.5303 5.46967C11.8232 5.76256 11.8232 6.23744 11.5303 6.53033ZM7 14.75C6.58579 14.75 6.25 14.4142 6.25 14C6.25 13.5858 6.58579 13.25 7 13.25H17C17.3033 13.25 17.5768 13.4327 17.6929 13.713C17.809 13.9932 17.7448 14.3158 17.5303 14.5303L13.5303 18.5303C13.2374 18.8232 12.7626 18.8232 12.4697 18.5303C12.1768 18.2374 12.1768 17.7626 12.4697 17.4697L15.1893 14.75H7Z" fill="currentColor"/>
</svg>
