<svg viewBox="0 0 24 24" fill="currentColor" xmlns="http://www.w3.org/2000/svg">
<path d="M22.75 20.75C22.75 21.8546 21.8546 22.75 20.75 22.75H16.75C15.6454 22.75 14.75 21.8546 14.75 20.75V16.75C14.75 15.6454 15.6454 14.75 16.75 14.75H20.75C21.8546 14.75 22.75 15.6454 22.75 16.75V20.75Z" fill="currentColor"/>
<path d="M12.2197 13.2803C12.5126 13.5732 12.9874 13.5732 13.2803 13.2803C13.5732 12.9874 13.5732 12.5126 13.2803 12.2197L7.81066 6.75L11.2803 3.28033C11.4948 3.06583 11.559 2.74324 11.4429 2.46299C11.3268 2.18273 11.0533 2 10.75 2H2.75C2.33579 2 2 2.33579 2 2.75V10.75C2 11.0533 2.18273 11.3268 2.46299 11.4429C2.74324 11.559 3.06583 11.4948 3.28033 11.2803L6.75 7.81066L12.2197 13.2803Z" fill="currentColor"/>
</svg>
