<svg viewBox="0 0 24 24" fill="currentColor" xmlns="http://www.w3.org/2000/svg">
<path d="M2 20.75C2 21.8546 2.89543 22.75 4 22.75H8C9.10457 22.75 10 21.8546 10 20.75V16.75C10 15.6454 9.10457 14.75 8 14.75H4C2.89543 14.75 2 15.6454 2 16.75V20.75Z" fill="currentColor"/>
<path d="M12.5303 13.2803C12.2374 13.5732 11.7626 13.5732 11.4697 13.2803C11.1768 12.9874 11.1768 12.5126 11.4697 12.2197L16.9393 6.75L13.4697 3.28033C13.2552 3.06583 13.191 2.74324 13.3071 2.46299C13.4232 2.18273 13.6967 2 14 2H22C22.4142 2 22.75 2.33579 22.75 2.75V10.75C22.75 11.0533 22.5673 11.3268 22.287 11.4429C22.0068 11.559 21.6842 11.4948 21.4697 11.2803L18 7.81066L12.5303 13.2803Z" fill="currentColor"/>
</svg>
