<svg viewBox="0 0 24 24" fill="currentColor" xmlns="http://www.w3.org/2000/svg">
<path d="M1.21436 11.9645C1.21436 12.1734 1.3015 12.3729 1.4548 12.5148L6.8548 17.5148C7.07354 17.7174 7.39146 17.7711 7.66463 17.6518C7.9378 17.5324 8.11436 17.2626 8.11436 16.9645V12.7145H14.0636C14.4005 14.5827 16.0347 16 18 16C20.2091 16 22 14.2091 22 12C22 9.79086 20.2091 8 18 8C16.0597 8 14.4421 9.38149 14.0771 11.2145H8.11436V6.96449C8.11436 6.66639 7.9378 6.39658 7.66463 6.27723C7.39146 6.15788 7.07354 6.21164 6.8548 6.41417L1.4548 11.4142C1.3015 11.5561 1.21436 11.7556 1.21436 11.9645Z" fill="currentColor"/>
</svg>
