<svg viewBox="0 0 24 24" fill="currentColor" xmlns="http://www.w3.org/2000/svg">
<path d="M12 22C17.5228 22 22 17.5228 22 12C22 6.47715 17.5228 2 12 2C6.47715 2 2 6.47715 2 12C2 17.5228 6.47715 22 12 22ZM10.75 7V17C10.75 17.4142 10.4142 17.75 10 17.75C9.58579 17.75 9.25 17.4142 9.25 17V8.81066L6.53033 11.5303C6.23744 11.8232 5.76256 11.8232 5.46967 11.5303C5.17678 11.2374 5.17678 10.7626 5.46967 10.4697L9.46967 6.46967C9.68417 6.25517 10.0068 6.191 10.287 6.30709C10.5673 6.42318 10.75 6.69665 10.75 7ZM14.75 7V15.1893L17.4697 12.4697C17.7626 12.1768 18.2374 12.1768 18.5303 12.4697C18.8232 12.7626 18.8232 13.2374 18.5303 13.5303L14.5303 17.5303C14.3158 17.7448 13.9932 17.809 13.713 17.6929C13.4327 17.5768 13.25 17.3033 13.25 17V7C13.25 6.58579 13.5858 6.25 14 6.25C14.4142 6.25 14.75 6.58579 14.75 7Z" fill="currentColor"/>
</svg>
