<svg viewBox="0 0 24 24" fill="currentColor" xmlns="http://www.w3.org/2000/svg">
<path d="M12 22C17.5228 22 22 17.5228 22 12C22 6.47715 17.5228 2 12 2C6.47715 2 2 6.47715 2 12C2 17.5228 6.47715 22 12 22ZM11.341 7.5194L7.75966 11.25H18C18.4142 11.25 18.75 11.5858 18.75 12C18.75 12.4142 18.4142 12.75 18 12.75H7.75966L11.341 16.4806C11.6279 16.7794 11.6182 17.2542 11.3194 17.541C11.0206 17.8279 10.5458 17.8182 10.259 17.5194L5.45896 12.5194C5.18035 12.2292 5.18035 11.7708 5.45896 11.4806L10.259 6.4806C10.5458 6.18179 11.0206 6.1721 11.3194 6.45896C11.6182 6.74582 11.6279 7.22059 11.341 7.5194Z" fill="currentColor"/>
</svg>
