<svg viewBox="0 0 24 24" fill="currentColor" xmlns="http://www.w3.org/2000/svg">
<path d="M12 22C6.47715 22 2 17.5228 2 12C2 6.47715 6.47715 2 12 2C17.5228 2 22 6.47715 22 12C22 17.5228 17.5228 22 12 22ZM12.75 7C12.75 7.41421 13.0858 7.75 13.5 7.75H15.1893L12.4697 10.4697C12.1768 10.7626 12.1768 11.2374 12.4697 11.5303C12.7626 11.8232 13.2374 11.8232 13.5303 11.5303L16.25 8.81066V10.5C16.25 10.9142 16.5858 11.25 17 11.25C17.4142 11.25 17.75 10.9142 17.75 10.5V7C17.75 6.58579 17.4142 6.25 17 6.25H13.5C13.0858 6.25 12.75 6.58579 12.75 7ZM11.5303 13.5303C11.8232 13.2374 11.8232 12.7626 11.5303 12.4697C11.2374 12.1768 10.7626 12.1768 10.4697 12.4697L7.75 15.1893V13.5C7.75 13.0858 7.41421 12.75 7 12.75C6.58579 12.75 6.25 13.0858 6.25 13.5V17C6.25 17.4142 6.58579 17.75 7 17.75H10.5C10.9142 17.75 11.25 17.4142 11.25 17C11.25 16.5858 10.9142 16.25 10.5 16.25H8.81066L11.5303 13.5303Z" fill="currentColor"/>
</svg>
