<svg viewBox="0 0 24 24" fill="currentColor" xmlns="http://www.w3.org/2000/svg">
<path d="M12 22C17.5228 22 22 17.5228 22 12C22 6.47715 17.5228 2 12 2C6.47715 2 2 6.47715 2 12C2 17.5228 6.47715 22 12 22ZM9.15747 8.49828L11.8575 11.4983C12.1142 11.7835 12.1142 12.2165 11.8575 12.5017L9.15747 15.5017C8.88037 15.8096 8.40616 15.8346 8.09828 15.5575C7.79039 15.2804 7.76543 14.8062 8.04253 14.4983L9.61598 12.75H5C4.58579 12.75 4.25 12.4142 4.25 12C4.25 11.5858 4.58579 11.25 5 11.25H9.61598L8.04253 9.50172C7.76543 9.19384 7.79039 8.71962 8.09828 8.44253C8.40616 8.16543 8.88038 8.19039 9.15747 8.49828ZM16.8575 8.49828L19.5575 11.4983C19.8142 11.7835 19.8142 12.2165 19.5575 12.5017L16.8575 15.5017C16.5804 15.8096 16.1062 15.8346 15.7983 15.5575C15.4904 15.2804 15.4654 14.8062 15.7425 14.4983L17.316 12.75H13.4C12.9858 12.75 12.65 12.4142 12.65 12C12.65 11.5858 12.9858 11.25 13.4 11.25H17.316L15.7425 9.50172C15.4654 9.19384 15.4904 8.71962 15.7983 8.44253C16.1062 8.16544 16.5804 8.19039 16.8575 8.49828Z" fill="currentColor"/>
</svg>
