<svg viewBox="0 0 24 24" fill="currentColor" xmlns="http://www.w3.org/2000/svg">
<path d="M12 22C6.47715 22 2 17.5228 2 12C2 6.47715 6.47715 2 12 2C17.5228 2 22 6.47715 22 12C22 17.5228 17.5228 22 12 22ZM13.741 6.4806C13.4542 6.18179 12.9794 6.1721 12.6806 6.45896C12.3818 6.74582 12.3721 7.22059 12.659 7.5194L16.2403 11.25H6C5.58579 11.25 5.25 11.5858 5.25 12C5.25 12.4142 5.58579 12.75 6 12.75H16.2403L12.659 16.4806C12.3721 16.7794 12.3818 17.2542 12.6806 17.541C12.9794 17.8279 13.4542 17.8182 13.741 17.5194L18.541 12.5194C18.8197 12.2292 18.8197 11.7708 18.541 11.4806L13.741 6.4806Z" fill="currentColor"/>
</svg>
