<svg viewBox="0 0 24 24" fill="currentColor" xmlns="http://www.w3.org/2000/svg">
<path d="M2 4C2 2.89543 2.89543 2 4 2H8C9.10457 2 10 2.89543 10 4V8C10 9.10457 9.10457 10 8 10H4C2.89543 10 2 9.10457 2 8V4Z" fill="currentColor"/>
<path d="M12.5303 11.4697C12.2374 11.1768 11.7626 11.1768 11.4697 11.4697C11.1768 11.7626 11.1768 12.2374 11.4697 12.5303L16.9393 18L13.4697 21.4697C13.2552 21.6842 13.191 22.0068 13.3071 22.287C13.4232 22.5673 13.6967 22.75 14 22.75H22C22.4142 22.75 22.75 22.4142 22.75 22V14C22.75 13.6967 22.5673 13.4232 22.287 13.3071C22.0068 13.191 21.6842 13.2552 21.4697 13.4697L18 16.9393L12.5303 11.4697Z" fill="currentColor"/>
</svg>
