<svg viewBox="0 0 24 24" fill="currentColor" xmlns="http://www.w3.org/2000/svg">
<path d="M12 22C6.47715 22 2 17.5228 2 12C2 6.47715 6.47715 2 12 2C17.5228 2 22 6.47715 22 12C22 17.5228 17.5228 22 12 22ZM12.5685 4.47748C12.4273 4.33206 12.2332 4.25 12.0305 4.25C11.8278 4.25 11.6337 4.33206 11.4924 4.47748L8.47724 7.5822C8.18866 7.87934 8.19561 8.35417 8.49275 8.64275C8.7899 8.93132 9.26472 8.92438 9.5533 8.62723L11.2805 6.84878V11.4812L7.15841 14.1773L7.75364 11.6404C7.84825 11.2372 7.59805 10.8336 7.19478 10.7389C6.79152 10.6443 6.38791 10.8945 6.29329 11.2978L5.26983 15.6599C5.17963 16.0443 5.40296 16.4328 5.78054 16.5484L9.60017 17.7172C9.99625 17.8384 10.4156 17.6155 10.5368 17.2195C10.658 16.8234 10.4352 16.404 10.0391 16.2828L7.7504 15.5825L12.0284 12.7844L16.2588 15.5797L13.9609 16.2828C13.5648 16.404 13.342 16.8234 13.4632 17.2195C13.5844 17.6155 14.0037 17.8384 14.3998 17.7172L18.2195 16.5484C18.597 16.4328 18.8204 16.0443 18.7302 15.6599L17.7067 11.2978C17.6121 10.8945 17.2085 10.6443 16.8052 10.7389C16.402 10.8336 16.1517 11.2372 16.2464 11.6404L16.8387 14.1649L12.7805 11.4835V6.84878L14.5077 8.62723C14.7962 8.92438 15.2711 8.93132 15.5682 8.64275C15.8653 8.35417 15.8723 7.87934 15.5837 7.5822L12.5685 4.47748Z" fill="currentColor"/>
</svg>
