<svg viewBox="0 0 24 24" fill="currentColor" xmlns="http://www.w3.org/2000/svg">
<path d="M12 22C6.47715 22 2 17.5228 2 12C2 6.47715 6.47715 2 12 2C17.5228 2 22 6.47715 22 12C22 17.5228 17.5228 22 12 22ZM15.9455 13.6679L16.962 9.05826C17.2208 7.88432 16.1157 6.77916 14.9417 7.03804L10.3321 8.05455C10.0173 8.12396 9.72307 8.24012 9.45648 8.39582L15.6042 14.5435C15.7599 14.2769 15.876 13.9827 15.9455 13.6679ZM14.5435 15.6042L8.39582 9.45648C8.24012 9.72307 8.12396 10.0173 8.05455 10.3321L7.03804 14.9417C6.77916 16.1157 7.88432 17.2208 9.05826 16.962L13.6679 15.9455C13.9827 15.876 14.2769 15.7599 14.5435 15.6042Z" fill="currentColor"/>
</svg>
