<svg viewBox="0 0 24 24" fill="currentColor" xmlns="http://www.w3.org/2000/svg">
<path d="M1.25 20C1.25 20.4142 1.58579 20.75 2 20.75C2.41421 20.75 2.75 20.4142 2.75 20V12.7143C2.75 11.4717 3.75736 10.4643 5 10.4643H15.6944V15.4286C15.6944 15.7339 15.8795 16.0087 16.1623 16.1235C16.4452 16.2383 16.7694 16.1703 16.9822 15.9514L22.5377 10.2371C22.8208 9.94603 22.8208 9.48259 22.5377 9.1915L16.9822 3.47722C16.7694 3.25834 16.4452 3.19028 16.1623 3.30511C15.8795 3.41994 15.6944 3.69475 15.6944 4.00002V8.96431H5C2.92893 8.96431 1.25 10.6432 1.25 12.7143V20Z" fill="currentColor"/>
</svg>
