<svg viewBox="0 0 24 24" fill="currentColor" xmlns="http://www.w3.org/2000/svg">
<path d="M1.46225 10.2371C1.17925 9.94603 1.17925 9.4826 1.46225 9.1915L7.01781 3.47722C7.30655 3.18023 7.78138 3.17354 8.07836 3.46228C8.37535 3.75102 8.38204 4.22585 8.0933 4.52284L3.04603 9.71431L8.0933 14.9058C8.38204 15.2028 8.37535 15.6776 8.07836 15.9663C7.78137 16.2551 7.30655 16.2484 7.01781 15.9514L1.46225 10.2371Z" fill="currentColor"/>
<path d="M5.98276 10.2574C5.83412 10.1159 5.75 9.91956 5.75 9.7143C5.75 9.50905 5.83412 9.31276 5.98276 9.1712L11.9828 3.45691C12.2 3.25 12.5197 3.19248 12.7954 3.31066C13.0712 3.42884 13.25 3.7 13.25 4.00002V8.9643H19C21.0711 8.9643 22.75 10.6432 22.75 12.7143V20C22.75 20.4142 22.4142 20.75 22 20.75C21.5858 20.75 21.25 20.4142 21.25 20V12.7143C21.25 11.4717 20.2426 10.4643 19 10.4643H13.25V15.4286C13.25 15.7286 13.0712 15.9998 12.7954 16.1179C12.5197 16.2361 12.2 16.1786 11.9828 15.9717L5.98276 10.2574Z" fill="currentColor"/>
</svg>
