<svg viewBox="0 0 24 24" fill="currentColor" xmlns="http://www.w3.org/2000/svg">
<path d="M22.75 4C22.75 3.58579 22.4142 3.25 22 3.25C21.5858 3.25 21.25 3.58579 21.25 4V11.2857C21.25 12.5284 20.2426 13.5357 19 13.5357H8.30556V8.57143C8.30556 8.26616 8.12053 7.99135 7.83768 7.87651C7.55483 7.76168 7.23061 7.82974 7.01781 8.04862L1.46225 13.7629C1.17925 14.054 1.17925 14.5174 1.46225 14.8085L7.01781 20.5228C7.23061 20.7417 7.55483 20.8097 7.83768 20.6949C8.12053 20.5801 8.30556 20.3053 8.30556 20V15.0357H19C21.0711 15.0357 22.75 13.3568 22.75 11.2857V4Z" fill="currentColor"/>
</svg>
