<svg viewBox="0 0 24 24" fill="currentColor" xmlns="http://www.w3.org/2000/svg">
<path d="M18.0859 22.5304C17.793 22.8232 17.3181 22.8232 17.0252 22.5304L12.5808 18.0859C12.3663 17.8714 12.3021 17.5488 12.4182 17.2686C12.5343 16.9883 12.8078 16.8056 13.1111 16.8056H16.8056V9.7778C16.8056 8.35106 15.649 7.19447 14.2222 7.19447H7.19444V10.8889C7.19444 11.1923 7.01171 11.4657 6.73146 11.5818C6.4512 11.6979 6.12861 11.6337 5.91411 11.4192L1.46967 6.9748C1.17678 6.6819 1.17678 6.20703 1.46967 5.91414L5.91411 1.46969C6.12861 1.25519 6.4512 1.19103 6.73146 1.30711C7.01171 1.4232 7.19444 1.69668 7.19444 2.00002V5.69447H14.2222C16.4774 5.69447 18.3056 7.52264 18.3056 9.7778V16.8056H22C22.3033 16.8056 22.5768 16.9883 22.6929 17.2686C22.809 17.5488 22.7448 17.8714 22.5303 18.0859L18.0859 22.5304Z" fill="currentColor"/>
</svg>
