<svg viewBox="0 0 24 24" fill="currentColor" xmlns="http://www.w3.org/2000/svg">
<path d="M4 1.25C3.58579 1.25 3.25 1.58579 3.25 2C3.25 2.41421 3.58579 2.75 4 2.75H11.2857C12.5284 2.75 13.5357 3.75736 13.5357 5V15.6944H8.57143C8.26616 15.6944 7.99135 15.8795 7.87651 16.1623C7.76168 16.4452 7.82974 16.7694 8.04862 16.9822L13.7629 22.5377C14.054 22.8208 14.5174 22.8208 14.8085 22.5377L20.5228 16.9822C20.7417 16.7694 20.8097 16.4452 20.6949 16.1623C20.5801 15.8795 20.3053 15.6944 20 15.6944H15.0357V5C15.0357 2.92893 13.3568 1.25 11.2857 1.25H4Z" fill="currentColor"/>
</svg>
