<svg viewBox="0 0 24 24" fill="currentColor" xmlns="http://www.w3.org/2000/svg">
<path d="M20 22.75C20.4142 22.75 20.75 22.4142 20.75 22C20.75 21.5858 20.4142 21.25 20 21.25H12.7143C11.4717 21.25 10.4643 20.2426 10.4643 19V8.30556H15.4286C15.7339 8.30556 16.0087 8.12053 16.1235 7.83768C16.2383 7.55483 16.1703 7.23061 15.9514 7.01781L10.2371 1.46225C9.94603 1.17925 9.48259 1.17925 9.1915 1.46225L3.47722 7.01781C3.25834 7.23061 3.19028 7.55483 3.30511 7.83768C3.41994 8.12053 3.69475 8.30556 4.00002 8.30556H8.96431V19C8.96431 21.0711 10.6432 22.75 12.7143 22.75H20Z" fill="currentColor"/>
</svg>
