<svg viewBox="0 0 24 24" fill="currentColor" xmlns="http://www.w3.org/2000/svg">
<path d="M7 1.25C4.37665 1.25 2.25 3.37665 2.25 6C2.25 8.62335 4.37665 10.75 7 10.75H8.25V15C8.25 15.4142 8.58579 15.75 9 15.75C9.41421 15.75 9.75 15.4142 9.75 15V2.75H14.25V15C14.25 15.4142 14.5858 15.75 15 15.75C15.4142 15.75 15.75 15.4142 15.75 15V2.75H21C21.4142 2.75 21.75 2.41421 21.75 2C21.75 1.58579 21.4142 1.25 21 1.25H7ZM7 2.75H8.25V9.25H7C5.20507 9.25 3.75 7.79493 3.75 6C3.75 4.20507 5.20507 2.75 7 2.75Z" fill="currentColor"/>
<path d="M17.713 13.3071C17.9932 13.191 18.3158 13.2552 18.5303 13.4697L22.5303 17.4697C22.8232 17.7626 22.8232 18.2375 22.5303 18.5304L18.5303 22.5304C18.3158 22.7449 17.9932 22.809 17.713 22.6929C17.4327 22.5768 17.25 22.3034 17.25 22V18.75H2C1.58579 18.75 1.25 18.4142 1.25 18C1.25 17.5858 1.58579 17.25 2 17.25H17.25V14C17.25 13.6967 17.4327 13.4232 17.713 13.3071Z" fill="currentColor"/>
</svg>
