<svg viewBox="0 0 24 24" fill="currentColor" xmlns="http://www.w3.org/2000/svg">
<path d="M2 7C2 5.89543 2.91145 5 4.03577 5H16.818C17.1048 5 17.3783 5.11885 17.5712 5.32733L21.7353 9.82733C22.0882 10.2087 22.0882 10.7913 21.7353 11.1727L17.5712 15.6727C17.3783 15.8811 17.1048 16 16.818 16H4.03577C2.91145 16 2 15.1046 2 14V7Z" fill="currentColor"/>
<path d="M10 2C9.44772 2 9 2.44772 9 3V3.5H12V3C12 2.44772 11.5523 2 11 2H10Z" fill="currentColor"/>
<path d="M9 17.5H12V21C12 21.5523 11.5523 22 11 22H10C9.44771 22 9 21.5523 9 21V17.5Z" fill="currentColor"/>
</svg>
