<svg viewBox="0 0 24 24" fill="currentColor" xmlns="http://www.w3.org/2000/svg">
<path d="M11.4697 17.5303C11.7626 17.8232 12.2374 17.8232 12.5303 17.5303L17.5303 12.5303C17.8232 12.2374 17.8232 11.7626 17.5303 11.4697C17.2374 11.1768 16.7626 11.1768 16.4697 11.4697L12.75 15.1893V2C12.75 1.58579 12.4142 1.25 12 1.25C11.5858 1.25 11.25 1.58579 11.25 2V15.1893L7.53033 11.4697C7.23744 11.1768 6.76256 11.1768 6.46967 11.4697C6.17678 11.7626 6.17678 12.2374 6.46967 12.5303L11.4697 17.5303Z" fill="currentColor"/>
<path d="M5.40901 13.591L10.409 18.591C11.2877 19.4697 12.7123 19.4697 13.591 18.591L18.591 13.591C19.0303 13.1517 19.25 12.5758 19.25 12H20C21.1046 12 22 12.8954 22 14V20C22 21.1046 21.1046 22 20 22H4C2.89543 22 2 21.1046 2 20V14C2 12.8954 2.89543 12 4 12H4.75C4.75 12.5758 4.96967 13.1517 5.40901 13.591Z" fill="currentColor"/>
</svg>
