<svg viewBox="0 0 24 24" fill="currentColor" xmlns="http://www.w3.org/2000/svg">
<path d="M9.75 16.0762C5.31065 16.3825 2 17.5752 2 19C2 20.6569 6.47715 22 12 22C17.5228 22 22 20.6569 22 19C22 17.5752 18.6893 16.3825 14.25 16.0762V18C14.25 19.2426 13.2426 20.25 12 20.25C10.7574 20.25 9.75 19.2426 9.75 18V16.0762Z" fill="currentColor"/>
<path d="M12.75 2C12.75 1.58579 12.4142 1.25 12 1.25C11.5858 1.25 11.25 1.58579 11.25 2V18C11.25 18.4142 11.5858 18.75 12 18.75C12.4142 18.75 12.75 18.4142 12.75 18V12.625L21.2111 8.39443C21.9482 8.0259 21.9482 6.9741 21.2111 6.60557L12.75 2.375V2Z" fill="currentColor"/>
</svg>
