<svg viewBox="0 0 24 24" fill="currentColor" xmlns="http://www.w3.org/2000/svg">
<path d="M5 2H19C20.6569 2 22 3.34315 22 5V19C22 20.6569 20.6569 22 19 22H5C3.34315 22 2 20.6569 2 19V5C2 3.34315 3.34315 2 5 2ZM11.341 7.5194C11.6279 7.22059 11.6182 6.74582 11.3194 6.45896C11.0206 6.1721 10.5458 6.18179 10.259 6.4806L5.45896 11.4806C5.18035 11.7708 5.18035 12.2292 5.45896 12.5194L10.259 17.5194C10.5458 17.8182 11.0206 17.8279 11.3194 17.541C11.6182 17.2542 11.6279 16.7794 11.341 16.4806L7.75966 12.75H18C18.4142 12.75 18.75 12.4142 18.75 12C18.75 11.5858 18.4142 11.25 18 11.25H7.75966L11.341 7.5194Z" fill="currentColor"/>
</svg>
