<svg viewBox="0 0 24 24" fill="currentColor" xmlns="http://www.w3.org/2000/svg">
<path d="M10.9998 2C12.7598 2 14.4018 2.50518 15.7887 3.37844L15.1645 4.78281C14.8751 5.43403 14.1006 5.71187 13.4632 5.39317L12.5052 4.91415C11.528 4.42554 10.3542 4.56177 9.51485 5.26121L8.57291 6.04616C8.1762 6.37675 7.61704 6.42936 7.16563 6.17858L4.54851 4.72462C6.18361 3.04396 8.46981 2 10.9998 2Z" fill="currentColor"/>
<path d="M16.5352 5.39203L17.0173 4.30737C18.8484 5.95482 19.9998 8.34295 19.9998 11C19.9998 11.3314 19.9819 11.6587 19.947 11.9808L17.5355 11.5789C16.0883 11.3377 14.6218 11.8821 13.6826 13.0092C12.7317 14.1502 12.4665 15.7139 12.9881 17.1046L13.7976 19.2633C13.8324 19.356 13.8835 19.4378 13.9465 19.5066C13.0233 19.8263 12.0318 20 10.9998 20C10.1261 20 9.28136 19.8755 8.48252 19.6432L9.69522 17.9466C10.6447 16.6182 10.808 14.8824 10.123 13.4002C9.44633 11.9361 8.04396 10.9408 6.43862 10.7851L2.02246 10.357C2.13868 8.71064 2.6977 7.18658 3.58114 5.90315L6.43716 7.48982C7.43027 8.04155 8.66043 7.9258 9.53319 7.1985L10.4751 6.41356C10.8566 6.09563 11.3902 6.0337 11.8344 6.2558L12.7924 6.73482C14.1947 7.43597 15.8985 6.8247 16.5352 5.39203Z" fill="currentColor"/>
<path d="M8.47491 17.0743L7.03869 19.0837C4.2998 17.739 2.34424 15.0434 2.04095 11.8658L6.29387 12.2781C7.36901 12.3824 8.30821 13.049 8.76139 14.0295C9.22018 15.0222 9.11081 16.1847 8.47491 17.0743Z" fill="currentColor"/>
<path d="M17.8722 16.8115C18.6898 15.8457 19.3074 14.7052 19.6612 13.4539L17.2889 13.0585C16.3671 12.9049 15.4331 13.2516 14.8349 13.9695C14.2293 14.6962 14.0604 15.6921 14.3925 16.5779L15.2021 18.7367C15.2268 18.8026 15.2416 18.8698 15.2474 18.9366C15.8068 18.6366 16.3308 18.2792 16.8116 17.8722L21.4697 22.5303C21.7626 22.8232 22.2374 22.8232 22.5303 22.5303C22.8232 22.2374 22.8232 21.7626 22.5303 21.4697L17.8722 16.8115Z" fill="currentColor"/>
</svg>
