<svg viewBox="0 0 24 24" fill="currentColor" xmlns="http://www.w3.org/2000/svg">
<path d="M12.75 10.75V22C12.75 22.4142 12.4142 22.75 12 22.75C11.5858 22.75 11.25 22.4142 11.25 22V10.75H4.00002C3.69668 10.75 3.4232 10.5673 3.30711 10.287C3.19103 10.0068 3.25519 9.68417 3.46969 9.46967L11.4697 1.46967C11.6103 1.32902 11.8011 1.25 12 1.25C12.1989 1.25 12.3897 1.32902 12.5304 1.46967L20.5304 9.46967C20.7449 9.68417 20.809 10.0068 20.6929 10.287C20.5768 10.5673 20.3034 10.75 20 10.75H12.75Z" fill="currentColor"/>
<path d="M17 22.75C17.4142 22.75 17.75 22.4142 17.75 22V14C17.75 13.5858 17.4142 13.25 17 13.25C16.5858 13.25 16.25 13.5858 16.25 14V22C16.25 22.4142 16.5858 22.75 17 22.75Z" fill="currentColor"/>
<path d="M7.75 22C7.75 22.4142 7.41421 22.75 7 22.75C6.58579 22.75 6.25 22.4142 6.25 22V14C6.25 13.5858 6.58579 13.25 7 13.25C7.41421 13.25 7.75 13.5858 7.75 14V22Z" fill="currentColor"/>
</svg>
