<svg viewBox="0 0 24 24" fill="currentColor" xmlns="http://www.w3.org/2000/svg">
<path d="M11.25 7C11.25 6.58579 11.5858 6.25 12 6.25H22C22.4142 6.25 22.75 6.58579 22.75 7C22.75 7.41421 22.4142 7.75 22 7.75H12C11.5858 7.75 11.25 7.41421 11.25 7Z" fill="currentColor"/>
<path d="M3.32106 7.1219L9.4954 10.9797C10.1682 11.4001 10.1682 12.5999 9.4954 13.0203L3.32106 16.8781C2.71412 17.2573 2 16.7058 2 15.8578V8.14218C2 7.2942 2.71412 6.74267 3.32106 7.1219Z" fill="currentColor"/>
<path d="M12 11.25C11.5858 11.25 11.25 11.5858 11.25 12C11.25 12.4142 11.5858 12.75 12 12.75H22C22.4142 12.75 22.75 12.4142 22.75 12C22.75 11.5858 22.4142 11.25 22 11.25H12Z" fill="currentColor"/>
<path d="M12 16.25C11.5858 16.25 11.25 16.5858 11.25 17C11.25 17.4142 11.5858 17.75 12 17.75H22C22.4142 17.75 22.75 17.4142 22.75 17C22.75 16.5858 22.4142 16.25 22 16.25H12Z" fill="currentColor"/>
</svg>
