<svg viewBox="0 0 24 24" fill="currentColor" xmlns="http://www.w3.org/2000/svg">
<path d="M12.75 13.25V2C12.75 1.58579 12.4142 1.25 12 1.25C11.5858 1.25 11.25 1.58579 11.25 2V13.25H4.00002C3.69668 13.25 3.4232 13.4327 3.30711 13.713C3.19103 13.9932 3.25519 14.3158 3.46969 14.5303L11.4697 22.5303C11.6103 22.671 11.8011 22.75 12 22.75C12.1989 22.75 12.3897 22.671 12.5303 22.5303L20.5304 14.5303C20.7449 14.3158 20.809 13.9932 20.6929 13.713C20.5768 13.4327 20.3034 13.25 20 13.25H12.75Z" fill="currentColor"/>
<path d="M17 1.25C17.4142 1.25 17.75 1.58579 17.75 2V10C17.75 10.4142 17.4142 10.75 17 10.75C16.5858 10.75 16.25 10.4142 16.25 10V2C16.25 1.58579 16.5858 1.25 17 1.25Z" fill="currentColor"/>
<path d="M7.75 2C7.75 1.58579 7.41421 1.25 7 1.25C6.58579 1.25 6.25 1.58579 6.25 2V10C6.25 10.4142 6.58579 10.75 7 10.75C7.41421 10.75 7.75 10.4142 7.75 10V2Z" fill="currentColor"/>
</svg>
