<svg viewBox="0 0 24 24" fill="currentColor" xmlns="http://www.w3.org/2000/svg">
<path d="M11.0146 2.38322L7.41097 5.76644C6.53305 6.59068 7.15483 8 8.39641 8H15.6036C16.8452 8 17.467 6.59068 16.589 5.76644L12.9854 2.38322C12.4412 1.87226 11.5588 1.87226 11.0146 2.38322Z" fill="currentColor"/>
<path d="M8.58565 10.5315C8.38668 10.2828 8.05231 10.1868 7.75174 10.2923C7.45118 10.3977 7.25 10.6815 7.25 11V21C7.25 21.4142 7.58579 21.75 8 21.75C8.41421 21.75 8.75 21.4142 8.75 21V13.1381L15.4143 21.4685C15.6133 21.7172 15.9477 21.8132 16.2483 21.7077C16.5488 21.6023 16.75 21.3185 16.75 21V11C16.75 10.5858 16.4142 10.25 16 10.25C15.5858 10.25 15.25 10.5858 15.25 11V18.8619L8.58565 10.5315Z" fill="currentColor"/>
</svg>
