<svg viewBox="0 0 24 24" fill="currentColor" xmlns="http://www.w3.org/2000/svg">
<path d="M5 2H19C20.6569 2 22 3.34315 22 5V19C22 20.6569 20.6569 22 19 22H5C3.34315 22 2 20.6569 2 19V5C2 3.34315 3.34315 2 5 2ZM7 5.25C6.58579 5.25 6.25 5.58579 6.25 6C6.25 6.41421 6.58579 6.75 7 6.75H17C17.4142 6.75 17.75 6.41421 17.75 6C17.75 5.58579 17.4142 5.25 17 5.25H7ZM12.75 8.5C12.75 8.08579 12.4142 7.75 12 7.75C11.5858 7.75 11.25 8.08579 11.25 8.5V16.1585L8.78658 13.636C8.49718 13.3396 8.02234 13.334 7.726 13.6234C7.42965 13.9128 7.42402 14.3877 7.71342 14.684L11.4634 18.524C11.6045 18.6685 11.798 18.75 12 18.75C12.202 18.75 12.3955 18.6685 12.5366 18.524L16.2866 14.684C16.576 14.3877 16.5704 13.9128 16.274 13.6234C15.9777 13.334 15.5028 13.3396 15.2134 13.636L12.75 16.1585V8.5Z" fill="currentColor"/>
</svg>
