<svg viewBox="0 0 24 24" fill="currentColor" xmlns="http://www.w3.org/2000/svg">
<path d="M5 2H19C20.6569 2 22 3.34315 22 5V19C22 20.6569 20.6569 22 19 22H5C3.34315 22 2 20.6569 2 19V5C2 3.34315 3.34315 2 5 2ZM13.741 6.4806C13.4542 6.18179 12.9794 6.1721 12.6806 6.45896C12.3818 6.74582 12.3721 7.22059 12.659 7.5194L16.2403 11.25H6C5.58579 11.25 5.25 11.5858 5.25 12C5.25 12.4142 5.58579 12.75 6 12.75H16.2403L12.659 16.4806C12.3721 16.7794 12.3818 17.2542 12.6806 17.541C12.9794 17.8279 13.4542 17.8182 13.741 17.5194L18.541 12.5194C18.8197 12.2292 18.8197 11.7708 18.541 11.4806L13.741 6.4806Z" fill="currentColor"/>
</svg>
