<svg viewBox="0 0 24 24" fill="currentColor" xmlns="http://www.w3.org/2000/svg">
<path d="M2 5.13938C2 3.40555 3.34315 2 5 2C6.65685 2 8 3.40555 8 5.13938C8 7.01536 6.30966 7.93765 5.25996 8.5C5.0959 8.58789 4.9041 8.58789 4.74004 8.5C3.69034 7.93765 2 7.01536 2 5.13938ZM5 6.41475C5.64433 6.41475 6.16667 5.86131 6.16667 5.17862C6.16667 4.49592 5.64433 3.94249 5 3.94249C4.35567 3.94249 3.83333 4.49592 3.83333 5.17862C3.83333 5.86131 4.35567 6.41475 5 6.41475Z" fill="currentColor"/>
<path d="M9.09908 5C9.09908 4.58579 9.43487 4.25 9.84908 4.25H13.4151C13.8293 4.25 14.1651 4.58579 14.1651 5C14.1651 5.41421 13.8293 5.75 13.4151 5.75H9.84908C9.43487 5.75 9.09908 5.41421 9.09908 5Z" fill="currentColor"/>
<path d="M15.2311 5C15.2311 4.58579 15.5669 4.25 15.9811 4.25H17.2642C18.8956 4.25 19.6396 6.28543 18.3927 7.33751L17.4078 8.16846C17.0913 8.43558 16.6181 8.39548 16.351 8.0789C16.0839 7.76232 16.124 7.28914 16.4405 7.02202L17.4254 6.19107C17.6035 6.04078 17.4972 5.75 17.2642 5.75H15.9811C15.5669 5.75 15.2311 5.41421 15.2311 5Z" fill="currentColor"/>
<path d="M15.5277 8.7735C15.7949 9.09008 15.7548 9.56326 15.4382 9.83037L13.4685 11.4923C13.1519 11.7594 12.6788 11.7193 12.4116 11.4027C12.1445 11.0861 12.1846 10.6129 12.5012 10.3458L14.4709 8.68394C14.7875 8.41682 15.2606 8.45692 15.5277 8.7735Z" fill="currentColor"/>
<path d="M11.5884 12.0973C11.8555 12.4139 11.8154 12.8871 11.4989 13.1542L9.52921 14.8161C9.21263 15.0832 8.73945 15.0431 8.47233 14.7265C8.20522 14.4099 8.24532 13.9368 8.5619 13.6696L10.5316 12.0077C10.8481 11.7406 11.3213 11.7807 11.5884 12.0973Z" fill="currentColor"/>
<path d="M7.6491 15.4211C7.91621 15.7377 7.87611 16.2109 7.55953 16.478L6.5747 17.3089C6.39657 17.4592 6.50285 17.75 6.73592 17.75H8.01893C8.43315 17.75 8.76893 18.0858 8.76893 18.5C8.76893 18.9142 8.43315 19.25 8.01893 19.25H6.73592C5.10447 19.25 4.36049 17.2146 5.60739 16.1625L6.59223 15.3315C6.90881 15.0644 7.38198 15.1045 7.6491 15.4211Z" fill="currentColor"/>
<path d="M9.83496 18.5C9.83496 18.0858 10.1707 17.75 10.585 17.75H14.151C14.5652 17.75 14.901 18.0858 14.901 18.5C14.901 18.9142 14.5652 19.25 14.151 19.25H10.585C10.1707 19.25 9.83496 18.9142 9.83496 18.5Z" fill="currentColor"/>
<path d="M19 15.5C17.3431 15.5 16 16.9055 16 18.6394C16 20.5154 17.6903 21.4376 18.74 22C18.9041 22.0879 19.0959 22.0879 19.26 22C20.3097 21.4376 22 20.5154 22 18.6394C22 16.9055 20.6569 15.5 19 15.5ZM20.1667 18.6786C20.1667 19.3613 19.6443 19.9147 19 19.9147C18.3557 19.9147 17.8333 19.3613 17.8333 18.6786C17.8333 17.9959 18.3557 17.4425 19 17.4425C19.6443 17.4425 20.1667 17.9959 20.1667 18.6786Z" fill="currentColor"/>
</svg>
