<svg viewBox="0 0 24 24" fill="currentColor" xmlns="http://www.w3.org/2000/svg">
<path d="M21.6854 11.2294L17.8337 7.32139C17.157 6.63483 16 7.12108 16 8.09203V15.908C16 16.8789 17.157 17.3652 17.8337 16.6786L21.6854 12.7706C22.1049 12.345 22.1049 11.655 21.6854 11.2294Z" fill="currentColor"/>
<path d="M2.31461 11.2294L6.1663 7.32139C6.84298 6.63483 8 7.12108 8 8.09203V15.908C8 16.8789 6.84298 17.3652 6.1663 16.6786L2.31461 12.7706C1.89513 12.345 1.89513 11.655 2.31461 11.2294Z" fill="currentColor"/>
<path d="M12 10C13.1046 10 14 10.8954 14 12C14 13.1046 13.1046 14 12 14C10.8954 14 10 13.1046 10 12C10 10.8954 10.8954 10 12 10Z" fill="currentColor"/>
</svg>
