<svg viewBox="0 0 24 24" fill="currentColor" xmlns="http://www.w3.org/2000/svg">
<path d="M12.7706 21.6854L16.6786 17.8337C17.3652 17.157 16.8789 16 15.908 16H8.09203C7.12108 16 6.63483 17.157 7.32139 17.8337L11.2294 21.6854C11.655 22.1049 12.345 22.1049 12.7706 21.6854Z" fill="currentColor"/>
<path d="M12.7706 2.31461L16.6786 6.1663C17.3652 6.84298 16.8789 8 15.908 8H8.09203C7.12108 8 6.63483 6.84298 7.32139 6.1663L11.2294 2.31461C11.655 1.89513 12.345 1.89513 12.7706 2.31461Z" fill="currentColor"/>
<path d="M14 12C14 13.1046 13.1046 14 12 14C10.8954 14 10 13.1046 10 12C10 10.8954 10.8954 10 12 10C13.1046 10 14 10.8954 14 12Z" fill="currentColor"/>
</svg>
