<svg viewBox="0 0 24 24" fill="currentColor" xmlns="http://www.w3.org/2000/svg">
<path d="M5 2C3.34315 2 2 3.34315 2 5V19C2 20.6569 3.34315 22 5 22H19C20.6569 22 22 20.6569 22 19V5C22 3.34315 20.6569 2 19 2H5ZM12.4293 5.21388L15.8209 9.29289C16.2034 9.75292 15.9325 10.5395 15.3916 10.5395H8.6084C8.06746 10.5395 7.79655 9.75292 8.17906 9.29289L11.5707 5.21388C11.8078 4.92871 12.1922 4.9287 12.4293 5.21388ZM12.4293 18.7861C12.1922 19.0713 11.8078 19.0713 11.5707 18.7861L8.17906 14.7071C7.79655 14.2471 8.06746 13.4605 8.6084 13.4605H15.3916C15.9325 13.4605 16.2034 14.2471 15.8209 14.7071L12.4293 18.7861Z" fill="currentColor"/>
</svg>
