<svg viewBox="0 0 24 24" fill="currentColor" xmlns="http://www.w3.org/2000/svg">
<path d="M5 2H19C20.6569 2 22 3.34315 22 5V19C22 20.6569 20.6569 22 19 22H5C3.34315 22 2 20.6569 2 19V5C2 3.34315 3.34315 2 5 2ZM12.5194 5.45896C12.2292 5.18035 11.7708 5.18035 11.4806 5.45896L6.4806 10.259C6.18179 10.5458 6.1721 11.0206 6.45896 11.3194C6.74582 11.6182 7.22059 11.6279 7.5194 11.341L11.25 7.75966V18C11.25 18.4142 11.5858 18.75 12 18.75C12.4142 18.75 12.75 18.4142 12.75 18V7.75966L16.4806 11.341C16.7794 11.6279 17.2542 11.6182 17.541 11.3194C17.8279 11.0206 17.8182 10.5458 17.5194 10.259L12.5194 5.45896Z" fill="currentColor"/>
</svg>
