<svg viewBox="0 0 24 24" fill="currentColor" xmlns="http://www.w3.org/2000/svg">
<path d="M5 2H19C20.6569 2 22 3.34315 22 5V19C22 20.6569 20.6569 22 19 22H5C3.34315 22 2 20.6569 2 19V5C2 3.34315 3.34315 2 5 2ZM7 6.25C6.58579 6.25 6.25 6.58579 6.25 7V15.1967C6.25 15.6109 6.58579 15.9467 7 15.9467C7.41421 15.9467 7.75 15.6109 7.75 15.1967V8.81066L16.4697 17.5303C16.7626 17.8232 17.2374 17.8232 17.5303 17.5303C17.8232 17.2374 17.8232 16.7626 17.5303 16.4697L8.81066 7.75H15.1967C15.6109 7.75 15.9467 7.41421 15.9467 7C15.9467 6.58579 15.6109 6.25 15.1967 6.25H7Z" fill="currentColor"/>
</svg>
