<svg viewBox="0 0 24 24" fill="currentColor" xmlns="http://www.w3.org/2000/svg">
<path d="M5 2C3.34315 2 2 3.34315 2 5V19C2 20.6569 3.34315 22 5 22H19C20.6569 22 22 20.6569 22 19V5C22 3.34315 20.6569 2 19 2H5ZM8.80328 6.25H17C17.4142 6.25 17.75 6.58579 17.75 7V15.1967C17.75 15.6109 17.4142 15.9467 17 15.9467C16.5858 15.9467 16.25 15.6109 16.25 15.1967V8.81066L7.53033 17.5303C7.23744 17.8232 6.76256 17.8232 6.46967 17.5303C6.17678 17.2374 6.17678 16.7626 6.46967 16.4697L15.1893 7.75H8.80328C8.38906 7.75 8.05328 7.41421 8.05328 7C8.05328 6.58579 8.38906 6.25 8.80328 6.25Z" fill="currentColor"/>
</svg>
