<svg viewBox="0 0 24 24" fill="currentColor" xmlns="http://www.w3.org/2000/svg">
<path d="M12 10.25C10.2051 10.25 8.75 11.7051 8.75 13.5C8.75 15.2949 10.2051 16.75 12 16.75C13.7949 16.75 15.25 15.2949 15.25 13.5C15.25 11.7051 13.7949 10.25 12 10.25Z" fill="currentColor"/>
<path d="M16.2279 2.68377C16.0918 2.27543 15.7097 2 15.2792 2H8.72076C8.29033 2 7.90819 2.27543 7.77208 2.68377L7.22792 4.31623C7.09181 4.72457 6.70967 5 6.27924 5H4C2.89543 5 2 5.89543 2 7V20C2 21.1046 2.89543 22 4 22H20C21.1046 22 22 21.1046 22 20V7C22 5.89543 21.1046 5 20 5H17.7208C17.2903 5 16.9082 4.72457 16.7721 4.31623L16.2279 2.68377ZM7.25 13.5C7.25 10.8766 9.37665 8.75 12 8.75C14.6234 8.75 16.75 10.8766 16.75 13.5C16.75 16.1234 14.6234 18.25 12 18.25C9.37665 18.25 7.25 16.1234 7.25 13.5ZM19 10C18.4477 10 18 9.55229 18 9C18 8.44771 18.4477 8 19 8C19.5523 8 20 8.44771 20 9C20 9.55229 19.5523 10 19 10Z" fill="currentColor"/>
</svg>
