<svg viewBox="0 0 24 24" fill="currentColor" xmlns="http://www.w3.org/2000/svg">
<path d="M12 5.75C11.3096 5.75 10.75 6.30964 10.75 7C10.75 7.69036 11.3096 8.25 12 8.25C12.6904 8.25 13.25 7.69036 13.25 7C13.25 6.30964 12.6904 5.75 12 5.75Z" fill="currentColor"/>
<path d="M10.75 17C10.75 16.3096 11.3096 15.75 12 15.75C12.6904 15.75 13.25 16.3096 13.25 17C13.25 17.6904 12.6904 18.25 12 18.25C11.3096 18.25 10.75 17.6904 10.75 17Z" fill="currentColor"/>
<path d="M7 13.25C6.30964 13.25 5.75 12.6904 5.75 12C5.75 11.3096 6.30964 10.75 7 10.75C7.69036 10.75 8.25 11.3096 8.25 12C8.25 12.6904 7.69036 13.25 7 13.25Z" fill="currentColor"/>
<path d="M17 13.25C16.3096 13.25 15.75 12.6904 15.75 12C15.75 11.3096 16.3096 10.75 17 10.75C17.6904 10.75 18.25 11.3096 18.25 12C18.25 12.6904 17.6904 13.25 17 13.25Z" fill="currentColor"/>
<path d="M17.2704 20.5C20.1097 18.7358 22 15.5886 22 12C22 6.47715 17.5228 2 12 2C6.47715 2 2 6.47715 2 12C2 17.5228 6.47715 22 12 22H21.25C21.6642 22 22 21.6642 22 21.25C22 20.8358 21.6642 20.5 21.25 20.5H17.2704ZM12 4.25C13.5188 4.25 14.75 5.48122 14.75 7C14.75 8.51878 13.5188 9.75 12 9.75C10.4812 9.75 9.25 8.51878 9.25 7C9.25 5.48122 10.4812 4.25 12 4.25ZM9.25 17C9.25 15.4812 10.4812 14.25 12 14.25C13.5188 14.25 14.75 15.4812 14.75 17C14.75 18.5188 13.5188 19.75 12 19.75C10.4812 19.75 9.25 18.5188 9.25 17ZM4.25 12C4.25 10.4812 5.48122 9.25 7 9.25C8.51878 9.25 9.75 10.4812 9.75 12C9.75 13.5188 8.51878 14.75 7 14.75C5.48122 14.75 4.25 13.5188 4.25 12ZM17 14.75C15.4812 14.75 14.25 13.5188 14.25 12C14.25 10.4812 15.4812 9.25 17 9.25C18.5188 9.25 19.75 10.4812 19.75 12C19.75 13.5188 18.5188 14.75 17 14.75Z" fill="currentColor"/>
</svg>
