<svg viewBox="0 0 24 24" fill="currentColor" xmlns="http://www.w3.org/2000/svg">
<path d="M1.25 2C1.25 1.58579 1.58579 1.25 2 1.25H8C8.41421 1.25 8.75 1.58579 8.75 2C8.75 2.41421 8.41421 2.75 8 2.75H3.81066L12 10.9393L20.1893 2.75H16C15.5858 2.75 15.25 2.41421 15.25 2C15.25 1.58579 15.5858 1.25 16 1.25H22C22.4142 1.25 22.75 1.58579 22.75 2V8C22.75 8.41421 22.4142 8.75 22 8.75C21.5858 8.75 21.25 8.41421 21.25 8V3.81066L13.0607 12L21.25 20.1893V16C21.25 15.5858 21.5858 15.25 22 15.25C22.4142 15.25 22.75 15.5858 22.75 16V22C22.75 22.4142 22.4142 22.75 22 22.75H16C15.5858 22.75 15.25 22.4142 15.25 22C15.25 21.5858 15.5858 21.25 16 21.25H20.1893L12 13.0607L3.81066 21.25H8C8.41421 21.25 8.75 21.5858 8.75 22C8.75 22.4142 8.41421 22.75 8 22.75H2C1.58579 22.75 1.25 22.4142 1.25 22V16C1.25 15.5858 1.58579 15.25 2 15.25C2.41421 15.25 2.75 15.5858 2.75 16V20.1893L10.9393 12L2.75 3.81066V8C2.75 8.41421 2.41421 8.75 2 8.75C1.58579 8.75 1.25 8.41421 1.25 8V2Z" fill="currentColor"/>
</svg>
