<svg viewBox="0 0 24 24" fill="currentColor" xmlns="http://www.w3.org/2000/svg">
<path d="M11.5209 13.8714H12.3018C12.5667 13.8714 12.7968 13.8326 12.992 13.7552C13.1872 13.6777 13.3499 13.5615 13.4801 13.4066C13.6102 13.2517 13.7078 13.0581 13.7729 12.8257C13.838 12.5878 13.8705 12.3112 13.8705 11.9959C13.8705 11.3651 13.738 10.8976 13.4731 10.5934C13.2128 10.2835 12.8224 10.1286 12.3018 10.1286H11.5209V13.8714Z" fill="currentColor"/>
<path d="M2 7V17C2 18.1046 2.89543 19 4 19H16C17.1046 19 18 18.1046 18 17V14.3333L20.4453 15.9635C21.1099 16.4066 22 15.9302 22 15.1315V8.86852C22 8.06982 21.1099 7.59343 20.4453 8.03647L18 9.66667V7C18 5.89543 17.1046 5 16 5H4C2.89543 5 2 5.89543 2 7ZM5.54383 15C5.3672 15 5.23241 14.9419 5.13944 14.8257C5.04648 14.7095 5 14.5463 5 14.3361V9.6639C5 9.45367 5.04648 9.29046 5.13944 9.17427C5.23241 9.05809 5.3672 9 5.54383 9C5.71581 9 5.84828 9.05809 5.94124 9.17427C6.03421 9.29046 6.08069 9.45367 6.08069 9.6639V11.4232H8.36756V9.6639C8.36756 9.45367 8.41404 9.29046 8.507 9.17427C8.59996 9.05809 8.73244 9 8.90442 9C9.08104 9 9.21584 9.05809 9.3088 9.17427C9.40176 9.29046 9.44825 9.45367 9.44825 9.6639V14.3361C9.44825 14.5463 9.40176 14.7095 9.3088 14.8257C9.21584 14.9419 9.08104 15 8.90442 15C8.73244 15 8.59996 14.9419 8.507 14.8257C8.41404 14.7095 8.36756 14.5463 8.36756 14.3361V12.4938H6.08069V14.3361C6.08069 14.5463 6.03421 14.7095 5.94124 14.8257C5.85293 14.9419 5.72046 15 5.54383 15ZM11.0049 14.9253C10.8237 14.9253 10.6842 14.8672 10.5866 14.751C10.489 14.6349 10.4402 14.4689 10.4402 14.2531V9.74689C10.4402 9.53112 10.489 9.36515 10.5866 9.24896C10.6842 9.13278 10.8237 9.07469 11.0049 9.07469H12.3645C13.2058 9.07469 13.8542 9.32918 14.3098 9.83817C14.7699 10.3416 15 11.0609 15 11.9959C15 12.4661 14.9396 12.8838 14.8187 13.249C14.7025 13.6086 14.5329 13.9129 14.3098 14.1618C14.0866 14.4108 13.8124 14.6017 13.487 14.7344C13.1617 14.8617 12.7875 14.9253 12.3645 14.9253H11.0049Z" fill="currentColor"/>
</svg>
