<svg viewBox="0 0 24 24" fill="currentColor" xmlns="http://www.w3.org/2000/svg">
<path d="M15.2225 14.4952H14.1292V9.50485H15.2225C15.9513 9.50485 16.4979 9.7114 16.8623 10.1245C17.2333 10.5302 17.4186 11.1535 17.4186 11.9945C17.4186 12.4149 17.3732 12.7838 17.2821 13.101C17.191 13.4108 17.0543 13.669 16.8721 13.8755C16.6899 14.0821 16.4621 14.237 16.1888 14.3402C15.9155 14.4435 15.5934 14.4952 15.2225 14.4952Z" fill="currentColor"/>
<path d="M4 5H20C21.1046 5 22 5.89543 22 7V17C22 18.1046 21.1046 19 20 19H4C2.89543 19 2 18.1046 2 17V7C2 5.89543 2.89543 5 4 5ZM5.19522 15.7676C5.32537 15.9225 5.51408 16 5.76136 16C6.00864 16 6.1941 15.9225 6.31774 15.7676C6.44789 15.6127 6.51296 15.3951 6.51296 15.1148V12.6584H9.71458V15.1148C9.71458 15.3951 9.77966 15.6127 9.9098 15.7676C10.04 15.9225 10.2254 16 10.4662 16C10.7135 16 10.9022 15.9225 11.0323 15.7676C11.1625 15.6127 11.2275 15.3951 11.2275 15.1148V8.8852C11.2275 8.60489 11.1625 8.38728 11.0323 8.23237C10.9022 8.07746 10.7135 8 10.4662 8C10.2254 8 10.04 8.07746 9.9098 8.23237C9.77966 8.38728 9.71458 8.60489 9.71458 8.8852V11.231H6.51296V8.8852C6.51296 8.60489 6.44789 8.38728 6.31774 8.23237C6.18759 8.07746 6.00213 8 5.76136 8C5.51408 8 5.32537 8.07746 5.19522 8.23237C5.06507 8.38728 5 8.60489 5 8.8852V15.1148C5 15.3951 5.06507 15.6127 5.19522 15.7676ZM12.8213 15.668C12.9579 15.823 13.1531 15.9004 13.4069 15.9004H15.3103C15.9025 15.9004 16.4263 15.8156 16.8819 15.6459C17.3374 15.4689 17.7213 15.2144 18.0337 14.8824C18.346 14.5505 18.5835 14.1448 18.7462 13.6653C18.9154 13.1784 19 12.6215 19 11.9945C19 10.7478 18.6779 9.78884 18.0337 9.11757C17.3959 8.43891 16.4882 8.09959 15.3103 8.09959H13.4069C13.1531 8.09959 12.9579 8.17704 12.8213 8.33195C12.6846 8.48686 12.6163 8.70816 12.6163 8.99585V15.0041C12.6163 15.2918 12.6846 15.5131 12.8213 15.668Z" fill="currentColor"/>
</svg>
