<svg viewBox="0 0 24 24" fill="currentColor" xmlns="http://www.w3.org/2000/svg">
<path d="M17.8192 3.22595C18.1053 2.92468 18.5691 2.92468 18.8552 3.22595L21.7854 6.31166C21.8557 6.38562 21.9087 6.47087 21.9444 6.56185C21.9802 6.65281 22 6.75254 22 6.85714C22 7.05457 21.9285 7.25199 21.7854 7.40263L18.8552 10.4883C18.5691 10.7896 18.1053 10.7896 17.8192 10.4883C17.5331 10.1871 17.5331 9.69864 17.8192 9.39737L19.4989 7.62857H15.5363C15.1074 7.62857 14.71 7.86553 14.4893 8.25279L12.3543 12L14.4893 15.7472C14.71 16.1345 15.1074 16.3714 15.5363 16.3714H19.4989L17.8192 14.6026C17.5331 14.3014 17.5331 13.8129 17.8192 13.5117C18.1053 13.2104 18.5691 13.2104 18.8552 13.5117L21.7854 16.5974C21.8557 16.6713 21.9087 16.7566 21.9444 16.8476C21.9757 16.9269 21.9947 17.013 21.999 17.1032C21.9997 17.1163 22 17.1295 22 17.1429C22 17.2475 21.9802 17.3472 21.9444 17.4381C21.9087 17.5291 21.8557 17.6144 21.7854 17.6883L18.8552 20.7741C18.5691 21.0753 18.1053 21.0753 17.8192 20.7741C17.5331 20.4728 17.5331 19.9844 17.8192 19.6831L19.4989 17.9143H15.5363C14.5928 17.9143 13.7184 17.393 13.233 16.541L11.5 13.4994L9.76699 16.541C9.28156 17.393 8.40723 17.9143 7.46372 17.9143H2.73256C2.32798 17.9143 2 17.5689 2 17.1429C2 16.7168 2.32798 16.3714 2.73256 16.3714H7.46372C7.89259 16.3714 8.29001 16.1345 8.51066 15.7472L10.6457 12L8.51066 8.25279C8.29001 7.86553 7.89259 7.62857 7.46372 7.62857H2.73256C2.32798 7.62857 2 7.28319 2 6.85714C2 6.43109 2.32798 6.08571 2.73256 6.08571H7.46372C8.40723 6.08571 9.28156 6.60702 9.76699 7.459L11.5 10.5006L13.233 7.459C13.7184 6.60702 14.5928 6.08571 15.5363 6.08571H19.4989L17.8192 4.31691C17.5331 4.01565 17.5331 3.52721 17.8192 3.22595Z" fill="currentColor"/>
</svg>
