<svg viewBox="0 0 24 24" fill="currentColor" xmlns="http://www.w3.org/2000/svg">
<path d="M10 6C10 7.65685 8.65685 9 7 9C5.34315 9 4 7.65685 4 6C4 4.34315 5.34315 3 7 3C8.65685 3 10 4.34315 10 6Z" fill="currentColor"/>
<path d="M13 9C11.3431 9 10 7.65685 10 6C10 4.34315 11.3431 3 13 3C14.6569 3 16 4.34315 16 6C16 7.65685 14.6569 9 13 9Z" fill="currentColor"/>
<path d="M18 17.3333L20.4453 18.9635C21.1099 19.4066 22 18.9302 22 18.1315V11.8685C22 11.0698 21.1099 10.5934 20.4453 11.0365L18 12.6667V11C18 9.89543 17.1046 9 16 9H13H7H4C2.89543 9 2 9.89543 2 11V17.25H18V17.3333Z" fill="currentColor"/>
<path d="M18 18.75H2V19C2 20.1046 2.89543 21 4 21H16C17.1046 21 18 20.1046 18 19V18.75Z" fill="currentColor"/>
</svg>
