<svg viewBox="0 0 24 24" fill="currentColor" xmlns="http://www.w3.org/2000/svg">
<path d="M5.25 2H5C3.34315 2 2 3.34315 2 5V6.25H5.25V2Z" fill="currentColor"/>
<path d="M5.25 7.75H2V11.25H5.25V7.75Z" fill="currentColor"/>
<path d="M5.25 12.75H2V16.25H5.25V12.75Z" fill="currentColor"/>
<path d="M5.25 17.75H2V19C2 20.6569 3.34315 22 5 22H5.25V17.75Z" fill="currentColor"/>
<path d="M6.75 22H17.25V2H6.75V22Z" fill="currentColor"/>
<path d="M19 22H18.75V17.75H22V19C22 20.6569 20.6569 22 19 22Z" fill="currentColor"/>
<path d="M22 16.25H18.75V12.75H22V16.25Z" fill="currentColor"/>
<path d="M22 11.25H18.75V7.75H22V11.25Z" fill="currentColor"/>
<path d="M22 6.25H18.75V2H19C20.6569 2 22 3.34315 22 5V6.25Z" fill="currentColor"/>
</svg>
