<svg viewBox="0 0 24 24" fill="currentColor" xmlns="http://www.w3.org/2000/svg">
<path d="M2 11C2 9.89543 2.89543 9 4 9H16C17.1046 9 18 9.89543 18 11V19C18 20.1046 17.1046 21 16 21H4C2.89543 21 2 20.1046 2 19V11Z" fill="currentColor"/>
<path d="M17 13.3333V16.6667L20.4453 18.9635C21.1099 19.4066 22 18.9302 22 18.1315V11.8685C22 11.0698 21.1099 10.5934 20.4453 11.0365L17 13.3333Z" fill="currentColor"/>
<path d="M9 7C9 8.10457 8.10457 9 7 9C5.89543 9 5 8.10457 5 7C5 5.89543 5.89543 5 7 5C8.10457 5 9 5.89543 9 7Z" fill="currentColor"/>
<path d="M15 6C15 7.65685 13.6569 9 12 9C10.3431 9 9 7.65685 9 6C9 4.34315 10.3431 3 12 3C13.6569 3 15 4.34315 15 6Z" fill="currentColor"/>
</svg>
