<svg viewBox="0 0 24 24" fill="currentColor" xmlns="http://www.w3.org/2000/svg">
<path d="M3.02198 6.92493C1.90527 6.92493 1 7.8338 1 8.95496V15.045C1 16.1662 1.90527 17.0751 3.02198 17.0751H5.33388C5.80689 17.0751 6.26494 17.2416 6.62832 17.5456L10.4737 20.7628C11.1321 21.3137 12.1319 20.8436 12.1319 19.983V4.01696C12.1319 3.15639 11.1321 2.68628 10.4737 3.2372L6.62832 6.45441C6.26494 6.75843 5.80689 6.92493 5.33388 6.92493H3.02198Z" fill="currentColor"/>
<path d="M14.1538 6.16367C13.7351 6.16367 13.3956 6.5045 13.3956 6.92493C13.3956 7.34536 13.7351 7.68619 14.1538 7.68619C16.5268 7.68619 18.4505 9.61755 18.4505 12C18.4505 14.3825 16.5268 16.3138 14.1538 16.3138C13.7351 16.3138 13.3956 16.6546 13.3956 17.0751C13.3956 17.4955 13.7351 17.8363 14.1538 17.8363C17.3644 17.8363 19.967 15.2233 19.967 12C19.967 8.77668 17.3644 6.16367 14.1538 6.16367Z" fill="currentColor"/>
<path d="M13.3956 9.96997C13.3956 9.54954 13.7351 9.20871 14.1538 9.20871C15.6893 9.20871 16.9341 10.4584 16.9341 12C16.9341 13.5416 15.6893 14.7913 14.1538 14.7913C13.7351 14.7913 13.3956 14.4505 13.3956 14.03C13.3956 13.6096 13.7351 13.2688 14.1538 13.2688C14.8518 13.2688 15.4176 12.7007 15.4176 12C15.4176 11.2993 14.8518 10.7312 14.1538 10.7312C13.7351 10.7312 13.3956 10.3904 13.3956 9.96997Z" fill="currentColor"/>
<path d="M14.1538 3.11862C13.7351 3.11862 13.3956 3.45944 13.3956 3.87988C13.3956 4.30031 13.7351 4.64114 14.1538 4.64114C18.2019 4.64114 21.4835 7.93581 21.4835 12C21.4835 16.0642 18.2019 19.3589 14.1538 19.3589C13.7351 19.3589 13.3956 19.6997 13.3956 20.1201C13.3956 20.5405 13.7351 20.8814 14.1538 20.8814C19.0394 20.8814 23 16.905 23 12C23 7.09494 19.0394 3.11862 14.1538 3.11862Z" fill="currentColor"/>
</svg>
