<svg viewBox="0 0 24 24" fill="currentColor" xmlns="http://www.w3.org/2000/svg">
<path d="M20 1.25C20.4142 1.25 20.75 1.58579 20.75 2V12C20.75 12.4142 20.4142 12.75 20 12.75C19.5858 12.75 19.25 12.4142 19.25 12V2C19.25 1.58579 19.5858 1.25 20 1.25Z" fill="currentColor"/>
<path d="M16.75 4C16.75 3.58579 16.4142 3.25 16 3.25C15.5858 3.25 15.25 3.58579 15.25 4V12C15.25 12.4142 15.5858 12.75 16 12.75C16.4142 12.75 16.75 12.4142 16.75 12V4Z" fill="currentColor"/>
<path d="M12.75 6C12.75 5.58579 12.4142 5.25 12 5.25C11.5858 5.25 11.25 5.58579 11.25 6V12C11.25 12.4142 11.5858 12.75 12 12.75C12.4142 12.75 12.75 12.4142 12.75 12V6Z" fill="currentColor"/>
<path d="M8 7.25C8.41421 7.25 8.75 7.58579 8.75 8V12C8.75 12.4142 8.41421 12.75 8 12.75C7.58579 12.75 7.25 12.4142 7.25 12V8C7.25 7.58579 7.58579 7.25 8 7.25Z" fill="currentColor"/>
<path d="M4.75 10C4.75 9.58579 4.41421 9.25 4 9.25C3.58579 9.25 3.25 9.58579 3.25 10V12C3.25 12.4142 3.58579 12.75 4 12.75C4.41421 12.75 4.75 12.4142 4.75 12V10Z" fill="currentColor"/>
<path d="M12 19C12 20.6569 10.6569 22 9 22C7.34315 22 6 20.6569 6 19C6 17.3431 7.34315 16 9 16C10.6569 16 12 17.3431 12 19Z" fill="currentColor"/>
<path d="M13.4377 19.75C13.4786 19.5061 13.4999 19.2555 13.4999 19C13.4999 18.7445 13.4786 18.4939 13.4377 18.25H21.9999C22.4141 18.25 22.7499 18.5858 22.7499 19C22.7499 19.4142 22.4141 19.75 21.9999 19.75H13.4377Z" fill="currentColor"/>
<path d="M2 19.75H4.56222C4.5213 19.5061 4.5 19.2555 4.5 19C4.5 18.7445 4.5213 18.4939 4.56222 18.25H2C1.58579 18.25 1.25 18.5858 1.25 19C1.25 19.4142 1.58579 19.75 2 19.75Z" fill="currentColor"/>
</svg>
