<svg viewBox="0 0 24 24" fill="currentColor" xmlns="http://www.w3.org/2000/svg">
<path d="M21.3486 2.0196L17.0659 3.18269C16.6614 3.29255 16.5111 3.79664 16.7974 4.08301L17.8046 5.09016L16.3392 6.55557C12.8743 3.42391 7.82488 2.0004 2.69083 3.77184L2.31316 3.39746C2.01276 3.09967 1.52571 3.09967 1.2253 3.39746C0.9249 3.69524 0.9249 4.17805 1.2253 4.47584L1.9381 5.18243C1.94603 5.19066 1.95413 5.19868 1.96239 5.20652L9.8597 13.0351L7.34694 15.5478L5.08868 15.1466C4.74057 15.0848 4.37648 15.2026 4.11845 15.4606L2.16549 17.4136C1.85729 17.7218 2.00141 18.2336 2.41719 18.3074L4.50432 18.6782C4.92464 18.7529 5.24707 19.0754 5.32175 19.4957L5.69257 21.5828C5.76644 21.9986 6.2782 22.1427 6.5864 21.8345L8.53935 19.8816C8.79739 19.6235 8.91523 19.2594 8.85338 18.9113L8.45216 16.6531L10.9698 14.1355L18.6192 21.7183C18.6271 21.7265 18.6352 21.7345 18.6434 21.7424L19.6868 22.7767C19.9872 23.0744 20.4743 23.0744 20.7747 22.7767C21.0751 22.4789 21.0751 21.9961 20.7747 21.6983L20.0664 20.9962C21.8191 16.0047 20.4715 11.094 17.4386 7.66658L18.9098 6.19539L19.917 7.20255C20.2034 7.48891 20.7074 7.33858 20.8173 6.93405L21.9804 2.65142C22.0871 2.25853 21.7415 1.9129 21.3486 2.0196ZM15.255 7.63977L10.9428 11.952L3.91685 4.98718C8.19585 3.78681 12.3456 5.03818 15.255 7.63977ZM12.0529 13.0524L16.3525 8.75273C18.8486 11.6244 20.0221 15.6416 18.8404 19.7808L12.0529 13.0524Z" fill="currentColor"/>
</svg>
