<svg viewBox="0 0 24 24" fill="currentColor" xmlns="http://www.w3.org/2000/svg">
<path d="M15 5C15.5523 5 16 5.44772 16 6V8H18C18.5523 8 19 8.44771 19 9V11H21C21.5523 11 22 11.4477 22 12V17C22 18.1046 21.1046 19 20 19H17.75V15C17.75 14.5858 17.4142 14.25 17 14.25C16.5858 14.25 16.25 14.5858 16.25 15V19H12.75V15C12.75 14.5858 12.4142 14.25 12 14.25C11.5858 14.25 11.25 14.5858 11.25 15V19H7.75V15C7.75 14.5858 7.41421 14.25 7 14.25C6.58579 14.25 6.25 14.5858 6.25 15V19H4C2.89543 19 2 18.1046 2 17V12C2 11.4477 2.44772 11 3 11H5V9C5 8.44772 5.44772 8 6 8H8V6C8 5.44772 8.44771 5 9 5H15Z" fill="currentColor"/>
</svg>
