<svg viewBox="0 0 24 24" fill="currentColor" xmlns="http://www.w3.org/2000/svg">
<path d="M11 17.9167V12.9608C11 12.6663 10.8802 12.3846 10.6681 12.1804L8.93895 10.5153C8.51943 10.1113 7.85557 10.1113 7.43605 10.5153L6.53203 11.3858C6.55474 11.4055 6.57658 11.4267 6.59743 11.4493L8.55577 13.574C8.85989 13.904 8.83895 14.418 8.50899 14.7221C8.17904 15.0262 7.66502 15.0053 7.3609 14.6753L5.40257 12.5507C5.37333 12.5189 5.3471 12.4855 5.32385 12.4507L4.8125 11.9583V7.40625C4.8125 6.6296 4.1829 6 3.40625 6C2.6296 6 2 6.6296 2 7.40625V11.9022C2 13.6686 2.71893 15.359 3.99133 16.5842L6.18536 18.697C6.38722 18.8914 6.65656 19 6.93681 19H9.91667C10.515 19 11 18.515 11 17.9167Z" fill="currentColor"/>
<path d="M13 17.9167V12.9608C13 12.6663 13.1198 12.3846 13.3319 12.1804L15.0611 10.5153C15.4806 10.1113 16.1444 10.1113 16.5639 10.5153L17.468 11.3858C17.4453 11.4055 17.4234 11.4267 17.4026 11.4493L15.4442 13.574C15.1401 13.904 15.1611 14.418 15.491 14.7221C15.821 15.0262 16.335 15.0053 16.6391 14.6753L18.5974 12.5507C18.6267 12.5189 18.6529 12.4855 18.6761 12.4507L19.1875 11.9583V7.40625C19.1875 6.6296 19.8171 6 20.5938 6C21.3704 6 22 6.6296 22 7.40625V11.9022C22 13.6686 21.2811 15.359 20.0087 16.5842L17.8146 18.697C17.6128 18.8914 17.3434 19 17.0632 19H14.0833C13.485 19 13 18.515 13 17.9167Z" fill="currentColor"/>
</svg>
